<svg height="1000" width="996.1" xmlns="http://www.w3.org/2000/svg"><path d="m310.5 894.5l56.7-54.7 158.2 158.2-27.4 2q-195.3 0-338.8-132.8t-159.2-326.2h62.5q11.7 117.2 78.1 211t169.9 142.5z m37.2-271.5q27.3 0 41-13.6t13.6-39.1q0-13.7-3.9-23.4t-11.7-15.6q-7.8-7.9-18.5-10.8t-26.4-2.9h-31.3v-43h31.3q15.6 0 25.4-3.9t15.6-9.8q7.8-5.8 11.7-15.6t3.9-19.5q0-23.5-13.6-37.1-11.8-11.7-37.1-11.7-9.8 0-19.6 3.9-7.8 1.9-15.6 7.8-5.9 5.8-9.8 15.6-3.9 7.8-3.9 17.6h-54.7q0-19.6 7.9-35.2t21.4-27.3 33.2-19.6q17.6-5.8 41.1-5.8 21.4 0 42.9 5.8 19.6 5.9 31.3 17.6 13.6 11.7 21.5 29.3t7.8 39.1q0 9.7-3.9 19.5-2 9.8-7.8 19.5-7.9 9.8-15.7 17.6-9.7 7.8-21.5 13.7 13.7 5.9 25.4 13.7 9.8 7.8 15.7 17.5 5.8 7.9 9.7 21.5 3.9 9.8 3.9 23.5 0 21.5-9.7 39-7.8 17.6-22.5 30.3t-34.2 18.6-42.9 5.8q-21.5 0-41.1-5.8-17.5-5.9-33.2-17.6t-23.4-28.3-7.8-40.1h52.7q0 11.7 3.9 20.5t11.7 14.7q5.9 5.8 15.7 9.7t21.5 3.9z m356.4-247q20.5 20.5 32.2 49.8 9.8 31.2 9.8 66.4v15.6q0 37.1-9.8 66.4-11.7 29.3-31.2 48.8-19.6 21.5-48.8 33.3-27.4 9.7-62.5 9.7h-95.8v-332h97.7q35.2 0 61.5 10.7t46.9 31.3z m-16.6 131.8v-15.6q0-54.7-23.4-84-23.5-27.3-68.4-27.3h-39.1v240.2h37.2q23.4 0 41-7.8t29.3-21.5q11.7-15.6 17.5-37.1t5.9-46.9z m-189.5-507.8q195.4 0 338.9 132.8t159.2 324.2h-62.5q-11.7-115.2-79.1-209t-169-142.5l-56.6 54.7-158.2-158.2z" /></svg>