<svg height="1000" width="1000.0" xmlns="http://www.w3.org/2000/svg"><path d="m313.1 895.2c-136-64.6-233.7-196.9-248.5-353.5h-62.5c21.2 256.6 235.8 458.3 497.9 458.3 9.4 0 18.3-0.8 27.5-1.5l-158.7-158.9-55.7 55.6z m37.1-271.9c-7.9 0-15.2-1-21.9-3.5-6.4-2.3-12-5.6-16.6-9.8s-8.2-9.4-10.7-15.2c-2.5-6.1-3.7-12.5-3.7-19.6h-54.2c0 15 2.9 28.1 8.8 39.6s13.5 21 23.3 28.5c9.8 7.7 21 13.4 34 17.3 12.9 4.2 26.2 6.1 40.4 6.1 15.4 0 29.8-2.1 43.1-6.3s24.8-10.4 34.6-18.5 17.3-18.1 22.9-30c5.4-11.9 8.3-25.4 8.3-40.6 0-8.2-1-15.9-2.9-23.4-2.1-7.5-5.2-14.6-9.4-21.2-4.3-6.7-10-12.5-16.8-17.9-6.9-5.3-15.4-9.6-25.2-13.2 8.3-3.7 15.6-8.3 21.8-13.7s11.5-11.3 15.7-17.3c4.1-6.3 7.3-12.5 9.3-19.2s3.2-13.3 3.2-19.8c0-15.2-2.5-28.5-7.5-40s-12.1-21-21.3-28.7c-9.2-7.7-20-13.6-32.9-17.5-13.3-4.2-27.5-6.1-42.9-6.1-15 0-29 2.3-41.7 6.7s-23.5 10.6-32.7 18.5c-9.2 8-16.2 17.3-21.5 28.2s-7.7 22.7-7.7 35.4h54.2c0-7.1 1.3-13.3 3.8-18.8 2.5-5.6 6-10.4 10.4-14.1 4.3-4 9.8-7.1 15.8-9.2s12.7-3.3 19.8-3.3c16.7 0 29 4.3 37.1 12.9s12.1 20.6 12.1 36c0 7.5-1.1 14.2-3.4 20.2s-5.6 11.3-10.2 15.7c-4.6 4.3-10.4 7.7-17.1 10.2-6.8 2.5-15 3.7-24.1 3.7h-32.1v42.7h32.1c9.1 0 17.5 1.1 24.8 3.1s13.5 5.3 18.7 9.8c5.2 4.4 9.2 10 12.1 16.7 2.7 6.7 4.2 14.6 4.2 23.8 0 16.8-4.8 29.8-14.6 38.7-9.4 8.8-22.5 13.1-39.4 13.1z m356.7-246.8c-13.1-13.8-29-24.4-47.3-31.9-18.6-7.5-38.8-11.3-61.1-11.3h-98.5v333.4h95.6c23.1 0 44-3.8 62.9-11.3s35-18.1 48.4-31.9c13.3-13.7 23.7-30.4 30.8-49.8 7.3-19.3 10.8-41.2 10.8-65.4v-16.4c0-24.2-3.7-45.9-11-65.4s-17.5-36.3-30.6-50z m-16.5 132c0 17.3-1.9 33.2-6 46.9-4 14-9.8 25.6-17.7 35.2s-17.7 16.9-29.6 22.1c-11.9 5-25.6 7.7-41.5 7.7h-37.7v-240.4h40.6c30 0 52.8 9.6 68.6 28.5 15.6 19.2 23.5 46.7 23.5 83v17z m-190.4-508.5c-9.4 0-18.3 0.8-27.5 1.5l158.8 158.9 55.4-55.4c136.2 64.4 233.9 196.7 248.7 353.3h62.5c-21.2-256.6-235.8-458.3-497.9-458.3z" /></svg>