<svg height="1000" width="1285.7" xmlns="http://www.w3.org/2000/svg"><path d="m776.2 639.5v0 0 0c-1.1-1.1-83.7-101.6-160.1-101.6-77 0-91.5 77.1-91.5 101.6v0 0 0 0c0 25.1 14.5 101.6 91.5 101.6 76.4 0 159-100.5 160.1-101.6z m397.3 0v0 0c0-24.5-14.5-101.6-91.5-101.6-76.4 0-159 100.5-160.1 101.6v0 0 0 0c1.1 1.1 83.7 101.6 160.1 101.6 77 0 91.5-76.5 91.5-101.6z m112.2-1.7c0 100.5-69.2 219.3-204.8 219.3-135 0-223.8-131.1-232.7-131.1-8.4 0-83.7 131.1-232.7 131.1-128.9 0-189.7-118.8-189.7-131.1 0 14-50.2 131.1-207 131.1-192.6 0-218.8-151.2-218.8-183.6h121.1c0 36.3 35.7 89.3 97.7 89.3 61.3 0 106-62.5 106-119.9 0-57-40.2-107.7-106-107.7 0 0-66.5 0-91 45.7h-108.8l56.9-325.3h335.9v97.1h-248.3s-15.1 88.7-22.9 138.4c9 0 22.9-46.3 123.4-46.3 124.4 0 157.3 111 161.8 111s45.7-135.6 189.7-135.6c143.4 0 227.7 135.6 232.7 135.6 5.6 0 89.9-135.6 232.7-135.6s204.8 117.2 204.8 217.6z" /></svg>