<svg height="1000" width="584.0" xmlns="http://www.w3.org/2000/svg"><path d="m0 666v-166h584v166q0 121.1-86 207t-207 86-206-86-85-207z m462.9-484.4q56.6 41.1 88.9 102.6t32.2 131.8v43h-584v-43q0-70.3 32.2-131.8t86.9-102.6l-85.9-87.8 33.2-33.3 95.7 95.8q62.5-31.3 128.9-31.3t128.9 31.3l97.7-95.8 33.2 33.3z m-295.9 193.4q16.6 0 29.3-12.7t12.7-29.3-12.7-29.3-29.3-12.7-29.3 12.7-12.7 29.3 12.7 29.3 29.3 12.7z m250 0q16.6 0 29.3-12.7t12.7-29.3-12.7-29.3-29.3-12.7-29.3 12.7-12.7 29.3 12.7 29.3 29.3 12.7z" /></svg>