<svg height="1000" width="1000.0" xmlns="http://www.w3.org/2000/svg"><path d="m458.3 375h83.4v-125h125v-83.3h-125v-125h-83.4v125h-125v83.3h125v125z m-166.6 375c-46.1 0-82.9 37.3-82.9 83.3s36.8 83.4 82.9 83.4 83.3-37.3 83.3-83.4-37.3-83.3-83.3-83.3z m416.6 0c-46 0-82.9 37.3-82.9 83.3s36.9 83.4 82.9 83.4 83.4-37.3 83.4-83.4-37.3-83.3-83.4-83.3z m-409.3-135.4c0-1.9 0.4-3.6 1.2-5l37.5-67.9h310.4c31.3 0 58.6-17.3 72.9-43l160.9-292-72.9-40h-0.2l-46.1 83.3-114.8 208.3h-292.3l-5.4-11.2-133.1-280.4-39.4-83.4h-136v83.4h83.3l150 316-56.5 102.1c-6.4 12.1-10.2 25.6-10.2 40.2 0 46 37.3 83.3 83.4 83.3h500v-83.3h-482.3c-5.9 0-10.4-4.6-10.4-10.4z" /></svg>