<svg height="1000" width="834.0" xmlns="http://www.w3.org/2000/svg"><path d="m139.6 234.4q-28.3-19.6-34.1-53.7t13.6-62.5 53.8-34.2 62.5 14.6 34.1 53.7-13.6 61.6-53.8 34.1-62.5-13.6z m444.4 556.6v84h-294.9q-76.2 0-134.8-49.8t-72.3-126l-82-408.2h84l82 394.5q5.9 46.9 41 76.2t82.1 29.3h294.9z m9.8-166l240.2 187.5-62.5 62.5-160.2-125h-285.1q-44.9 0-79.1-28.3t-44-73.3l-56.6-246.1q-5.9-39 16.6-71.2t61.5-38.1q19.5-3.9 41 1.9 19.6 5.9 31.3 15.6l68.3 52.8q91.8 72.2 195.3 52.7v89.9q-93.7 15.6-214.8-50.8l43 169.9h205.1z" /></svg>