<svg height="1000" width="1000.0" xmlns="http://www.w3.org/2000/svg"><path d="m500 250c161 0 291.7 130.6 291.7 291.7 0 35.2-6.5 68.7-17.9 100l63.3 63.3c24.2-49.4 37.9-104.8 37.9-163.3 0-207.1-167.9-375-375.2-375-58.5 0-113.8 13.7-163.3 37.7l63.5 63.5c31.3-11.4 64.8-17.9 100-17.9z m416.7-11.7l-191.5-160.6-53.5 63.8 191.4 160.6 53.6-63.8z m-795-142.7l-53.2 52.9 55.5 55.5-46.3 38.7 59.2 59.2 46.2-38.8 33.4 33.4c-56.9 65.8-91.5 151.4-91.5 245.2 0 207.1 167.5 375 374.8 375 94 0 179.6-34.8 245.2-91.7l91.7 91.7 52.9-53.2-767.9-767.9z m564.6 670.7c-50.7 41.8-115.5 67-186.3 67-161 0-291.7-130.6-291.7-291.6 0-70.9 25.2-135.7 67.1-186.3l410.8 410.8z m-352.3-629.8l-59.2-59.2-35.4 29.8 59.1 59.1 35.5-29.7z" /></svg>