<svg height="1000" width="847.7" xmlns="http://www.w3.org/2000/svg"><path d="m431.6 250q-50.7 0-99.6 17.6l-64.4-62.5q78.1-39.1 164-39.1 154.3 0 264.7 110.4t110.3 264.6q0 86-39 164.1l-62.5-62.5q17.6-50.8 17.6-101.6 0-121.1-85-206t-206.1-85z m416.1-11.7l-52.8 64.4-193.3-162.1 54.7-62.5z m-795-142.6l41.1 41 726.5 726.6-52.7 52.7-91.8-91.8q-105.5 91.8-244.2 91.8-156.2 0-265.6-109.4t-109.4-265.6q0-138.7 91.8-244.1l-33.2-33.2-46.8 39-58.6-60.5 44.9-37.1-54.7-56.7z m564.5 669.9l-410.2-410.1q-68.3 82-68.3 185.5 0 121.1 85.9 207t207 86q105.5 0 185.6-68.4z m-351.6-628.9l-35.1 29.3-60.6-58.6 37.1-29.3z" /></svg>