<svg height="1000" width="1000.0" xmlns="http://www.w3.org/2000/svg"><path d="m1000 750v71.4c0 19.6-16.2 35.7-35.7 35.7h-928.6c-19.5 0-35.7-16.1-35.7-35.7v-71.4c0-19.5 16.2-35.7 35.7-35.7h928.6c19.5 0 35.7 16.2 35.7 35.7z m0-214.3v71.4c0 19.6-16.2 35.8-35.7 35.8h-928.6c-19.5 0-35.7-16.2-35.7-35.8v-71.4c0-19.5 16.2-35.7 35.7-35.7h928.6c19.5 0 35.7 16.2 35.7 35.7z m0-214.3v71.5c0 19.5-16.2 35.7-35.7 35.7h-928.6c-19.5 0-35.7-16.2-35.7-35.7v-71.5c0-19.5 16.2-35.7 35.7-35.7h928.6c19.5 0 35.7 16.2 35.7 35.7z m0-214.3v71.5c0 19.5-16.2 35.7-35.7 35.7h-928.6c-19.5 0-35.7-16.2-35.7-35.7v-71.5c0-19.5 16.2-35.7 35.7-35.7h928.6c19.5 0 35.7 16.2 35.7 35.7z" /></svg>