<svg height="1000" width="714.3" xmlns="http://www.w3.org/2000/svg"><path d="m531.8 210.9l-63.6 183.1 65.3 11.7c16.7-45.8 92.1-251.7 92.1-289.1 0-13.9-4.5-31.2-21.2-31.2-31.3 0-64.8 101.5-72.6 125.5z m-166.8 383.4c6.1 16.2 12.8 32.4 18.4 49.1 12.2-13.9 25.1-26.8 39.6-37.4-19.5-3.9-39.1-5.6-58-11.7z m-163-500c0 56.9 67.5 234.4 88.7 290.7 7.8-4.4 17.9-5.5 27.4-5.5 13.4 0 28.4 1.6 41.8 2.8l-67.5-195.9c-7.2-21.2-39.6-122.8-68.6-122.8-15.1 0-21.8 17.9-21.8 30.7z m-44.1 423.6c0 40.7 109.4 190.8 150.1 190.8 11.2 0 20.7-12.3 20.7-22.3 0-12.9-12.9-44.7-17.9-56.9-14.5-37.4-67.5-152.9-113.3-152.9-15 0-39.6 26.2-39.6 41.3z m-88.1 186.9c0 20.1 6.7 39.6 13.9 58 44.1 108.9 143.4 172.5 259.5 172.5 84.8 0 156.2-32.4 213.2-94.9 60.2-67 84.8-149.6 84.8-238.3 0-31.2 0.5-80.9-24-103.2-46.9-41.3-205.9-56.9-269-56.9-7.8 0-21.2 0.5-27.3 6.1-6.7 2.8-6.7 13.4-6.7 19.5 0 85.4 180.2 77.6 234.3 77.6 10.7 0 15.7 2.8 22.4 10.6 7.2 8.9 9.5 19.5 10.6 30.7-14.5 14.5-34.6 22.9-53.6 30.1-18.4 6.7-36.3 14-51.9 25.7-43 31.2-85.4 84.8-85.4 140.1 0 34.6 20.7 64.1 20.7 98.2 0 0.5-3.9 12.8-3.9 14.5-63.6-4.5-79.3-67.5-81.5-120.5-6.7 1.6-15.6 1.1-22.9 1.1 1.1 3.9 1.1 7.8 1.1 11.7 0 40.7-36.2 70.3-75.3 70.3-60.3 0-140.1-70.9-140.1-132.3 0-16.7 7.3-26.2 18.4-37.3 11.2 13.9 22.9 27.9 33.5 42.4 16.2 21.7 44.1 58 74.2 58 7.9 0 22.9-6.7 22.9-16.2 0-25.1-91.5-142.8-113.8-142.8-35.2 0-54.1 46.3-54.1 75.3z m-63.7 5c0-72.5 27.9-120.5 99.9-140-6.1-16.2-15.6-40.8-15.6-58.1 0-45.7 56.4-102.7 102.1-102.7 13.4 0 26.8 3.9 39.1 8.4-23.5-66.4-91-253.3-91-316.4 0-56.4 28.5-101 89.3-101 78.1 0 166.9 281.2 185.8 337.1 24.6-61.4 101.6-318.7 188.7-318.7 54.6 0 85.3 43.5 85.3 95.4 0 59.2-65.8 243.3-88.7 307 93.8 22.8 107.1 98.7 107.1 183 0 223.2-142.3 396.2-372.7 396.2-42.4 0-84.3-8.4-124.5-23.4-106-40.2-204.8-149-204.8-266.8z" /></svg>