<svg height="1000" width="785.7" xmlns="http://www.w3.org/2000/svg"><path d="m777.3 678c-13.9 44.1-36.2 91-68.6 139.5-48 73.1-96 109.4-143.4 109.4-19 0-44.7-6.1-78.1-17.9-33-12.2-61.4-17.8-84.3-17.8-22.3 0-49.1 6.1-79.2 18.4-30.7 12.8-55.3 19-73.7 19-57.5 0-112.7-48.6-168-144.6-54.1-95.9-82-189.1-82-280.7 0-85.3 21.2-154.5 63.1-208.7 41.8-53.5 94.3-80.3 158.4-80.3 27.4 0 59.7 5.6 98.8 16.7 38.5 11.2 64.2 16.8 77 16.8 16.2 0 43-6.2 79.8-19 36.9-12.3 69.2-19 96.6-19 44.6 0 84.2 12.3 118.8 36.3 19.6 13.4 39.1 32.4 58.1 55.8-29.1 24.6-50.3 46.3-63.7 65.8-24 34.6-36.2 73.1-36.2 115.6 0 45.7 12.8 87.6 38.5 124.4s55.2 60.3 88.1 70.3z m-209.8-654.6c0 22.9-5.6 48.6-16.2 75.9-11.1 27.9-28.4 53.6-51.9 77-20 20.1-40.1 33.5-60.2 40.2-12.9 3.9-31.8 7.3-58.1 9.5 1.2-55.2 15.7-103.2 43.6-143.4s74.7-67.5 139.5-82.6c1.1 5 2.2 8.9 2.8 12.3 0 3.9 0.5 7.2 0.5 11.1z" /></svg>