<svg height="1000" width="857.1" xmlns="http://www.w3.org/2000/svg"><path d="m642.9 500c0 4.5-1.7 9.5-5.1 12.8l-178.5 178.6c-3.4 3.4-8.4 5-12.9 5-9.5 0-17.8-8.3-17.8-17.8v-107.2h-196.5c-9.4 0-17.8-8.3-17.8-17.8v-107.2c0-9.5 8.4-17.8 17.8-17.8h196.5v-107.2c0-10 7.8-17.8 17.8-17.8 5.1 0 9.5 2.2 13.4 5.6l178 178c3.4 3.3 5.1 8.3 5.1 12.8z m89.2 0c0-167.4-136.1-303.6-303.5-303.6s-303.6 136.2-303.6 303.6 136.2 303.6 303.6 303.6 303.5-136.2 303.5-303.6z m125 0c0 236.6-191.9 428.6-428.5 428.6s-428.6-192-428.6-428.6 192-428.6 428.6-428.6 428.5 192 428.5 428.6z" /></svg>