<svg height="1000" width="857.1" xmlns="http://www.w3.org/2000/svg"><path d="m716 301.9l-198.1 198.1 198.1 198.1 80.3-80.4c10.1-10.6 25.7-13.3 39.1-7.8 12.8 5.6 21.7 18.4 21.7 33v250c0 19.5-16.1 35.7-35.7 35.7h-250c-14.5 0-27.3-9-32.9-22.4-5.6-12.8-2.8-28.4 7.8-38.5l80.4-80.3-198.1-198.1-198.1 198.1 80.3 80.3c10.6 10.1 13.4 25.7 7.8 38.5-5.5 13.4-18.4 22.4-32.9 22.4h-250c-19.5 0-35.7-16.2-35.7-35.7v-250c0-14.6 8.9-27.4 22.3-33 12.9-5.5 28.5-2.8 38.5 7.8l80.4 80.4 198.1-198.1-198.1-198.1-80.4 80.4c-6.7 6.7-15.6 10.6-25.1 10.6-4.4 0-9.5-1.2-13.4-2.8-13.4-5.6-22.3-18.4-22.3-33v-250c0-19.5 16.2-35.7 35.7-35.7h250c14.5 0 27.4 9 32.9 22.4 5.6 12.8 2.8 28.4-7.8 38.5l-80.3 80.3 198.1 198.1 198.1-198.1-80.4-80.3c-10.6-10.1-13.4-25.7-7.8-38.5 5.6-13.4 18.4-22.4 32.9-22.4h250c19.6 0 35.7 16.2 35.7 35.7v250c0 14.6-8.9 27.4-21.7 33-4.5 1.6-9.5 2.8-14 2.8-9.5 0-18.4-3.9-25.1-10.6z" /></svg>