<svg height="1000" width="857.1" xmlns="http://www.w3.org/2000/svg"><path d="m642.9 446.4v107.2c0 9.5-8.4 17.8-17.9 17.8h-196.4v107.2c0 10-7.8 17.8-17.9 17.8-5 0-9.5-2.2-13.4-5.6l-178-178c-3.3-3.3-5-8.3-5-12.8s1.7-9.5 5-12.8l178.6-178.6c3.3-3.4 8.4-5 12.8-5 9.5 0 17.9 8.3 17.9 17.8v107.2h196.4c9.5 0 17.9 8.3 17.9 17.8z m89.2 53.6c0-167.4-136.1-303.6-303.5-303.6s-303.6 136.2-303.6 303.6 136.2 303.6 303.6 303.6 303.5-136.2 303.5-303.6z m125 0c0 236.6-191.9 428.6-428.5 428.6s-428.6-192-428.6-428.6 192-428.6 428.6-428.6 428.5 192 428.5 428.6z" /></svg>