<svg height="1000" width="857.1" xmlns="http://www.w3.org/2000/svg"><path d="m716.5 499.4c0-9.4-3.3-18.4-10-25.1l-202-202-50.8-50.8c-6.7-6.7-15.6-10-25.1-10s-18.4 3.3-25.1 10l-50.8 50.8-202 202c-6.7 6.7-10.1 15.7-10.1 25.1s3.4 18.5 10.1 25.2l50.8 50.7c6.6 6.7 15.6 10.1 25.1 10.1s18.4-3.4 25.1-10.1l105.4-105.4v280.1c0 19.5 16.2 35.7 35.8 35.7h71.4c19.5 0 35.7-16.2 35.7-35.7v-280.1l105.5 105.4c6.7 6.7 15.6 10.6 25.1 10.6s18.4-3.9 25.1-10.6l50.8-50.7c6.7-6.7 10-15.7 10-25.2z m140.6 0.6c0 236.6-191.9 428.6-428.5 428.6s-428.6-192-428.6-428.6 192-428.6 428.6-428.6 428.5 192 428.5 428.6z" /></svg>