<svg height="1000" width="857.1" xmlns="http://www.w3.org/2000/svg"><path d="m623.9 488.8c-2.8 6.7-9.5 11.2-16.8 11.2h-107.1v196.4c0 10.1-7.8 17.9-17.9 17.9h-107.1c-10 0-17.9-7.8-17.9-17.9v-196.4h-107.1v0c-10 0-17.9-7.8-17.9-17.9 0-5 2.3-9.4 5.6-13.3l178-178.1c3.9-3.3 8.4-5 12.9-5s8.9 1.7 12.8 5l178.6 178.6c5 5.6 6.7 12.8 3.9 19.5z m-195.3-292.4c-167.4 0-303.6 136.2-303.6 303.6s136.2 303.6 303.6 303.6 303.5-136.2 303.5-303.6-136.1-303.6-303.5-303.6z m428.5 303.6c0 236.6-191.9 428.6-428.5 428.6s-428.6-192-428.6-428.6 192-428.6 428.6-428.6v0c236.6 0 428.5 192 428.5 428.6z" /></svg>