<svg height="1000" width="857.1" xmlns="http://www.w3.org/2000/svg"><path d="m625 517.9c0 5-2.2 9.4-5.6 13.4l-178 178c-3.9 3.3-8.4 5-12.8 5s-9-1.7-12.9-5l-178.5-178.6c-5.1-5.6-6.7-12.8-3.9-19.5s9.4-11.2 16.7-11.2h107.1v-196.4c0-10.1 7.9-17.9 17.9-17.9h107.1c10.1 0 17.9 7.8 17.9 17.9v196.4h107.1v0c10.1 0 17.9 7.8 17.9 17.9z m-196.4-321.5c-167.4 0-303.6 136.2-303.6 303.6s136.2 303.6 303.6 303.6 303.5-136.2 303.5-303.6-136.1-303.6-303.5-303.6z m428.5 303.6c0 236.6-191.9 428.6-428.5 428.6s-428.6-192-428.6-428.6 192-428.6 428.6-428.6v0c236.6 0 428.5 192 428.5 428.6z" /></svg>