<svg height="1000" width="857.1" xmlns="http://www.w3.org/2000/svg"><path d="m717.1 500c0-9.5-3.4-18.4-10.1-25.1l-50.7-50.8-202.1-202c-6.7-6.7-15.6-10-25.1-10s-18.4 3.3-25.1 10l-50.8 50.8c-6.7 6.7-10 15.6-10 25.1s3.3 18.4 10 25.1l105.5 105.5h-280.1c-19.6 0-35.7 16.2-35.7 35.7v71.4c0 19.5 16.1 35.7 35.7 35.7h280.1l-105.5 105.5c-6.7 6.7-10.6 15.6-10.6 25.1s3.9 18.4 10.6 25.1l50.8 50.8c6.7 6.7 15.6 10 25.1 10s18.4-3.3 25.1-10l202.1-202 50.7-50.8c6.7-6.7 10.1-15.6 10.1-25.1z m140 0c0 236.6-191.9 428.6-428.5 428.6s-428.6-192-428.6-428.6 192-428.6 428.6-428.6 428.5 192 428.5 428.6z" /></svg>