<svg height="1000" width="1000.0" xmlns="http://www.w3.org/2000/svg"><path d="m71.4 964.3c0 19.5-16.2 35.7-35.7 35.7s-35.7-16.2-35.7-35.7 16.2-35.7 35.7-35.7 35.7 16.2 35.7 35.7z m107.2-107.2c0 19.6-16.2 35.8-35.7 35.8s-35.8-16.2-35.8-35.8 16.2-35.7 35.8-35.7 35.7 16.2 35.7 35.7z m25.1-203.6l142.8 142.8-50.2 50.2-142.8-142.8z m189.2-10.6c0 19.5-16.2 35.7-35.8 35.7s-35.7-16.2-35.7-35.7 16.2-35.8 35.7-35.8 35.8 16.2 35.8 35.8z m394.5-178.6c0 92.6-43.5 142.3-81.5 186.4-35.1 40.1-63 72-63 135 0 118.3-96 214.3-214.3 214.3-19.6 0-35.7-16.2-35.7-35.7s16.1-35.7 35.7-35.7c78.7 0 142.8-64.2 142.8-142.9 0-89.8 43-138.9 80.4-181.9 34.6-39.6 64.2-73.7 64.2-139.5 0-137.8-112.2-250-250-250s-250 112.2-250 250c0 19.5-16.2 35.7-35.8 35.7s-35.7-16.2-35.7-35.7c0-177.5 144-321.4 321.5-321.4s321.4 143.9 321.4 321.4z m-287.4 71.4c0 19.5-16.2 35.7-35.7 35.7s-35.7-16.2-35.7-35.7 16.2-35.7 35.7-35.7 35.7 16.2 35.7 35.7z m160.7-71.4c0 19.5-16.2 35.7-35.7 35.7s-35.7-16.2-35.7-35.7c0-69.2-55.8-125-125-125-68.7 0-125 55.8-125 125 0 19.5-16.2 35.7-35.7 35.7s-35.7-16.2-35.7-35.7c0-108.3 88.1-196.4 196.4-196.4s196.4 88.1 196.4 196.4z m219.9-161.3c7.2 18.4-2.3 39.1-20.7 46.3-3.9 1.7-8.3 2.3-12.8 2.3-14 0-27.9-8.4-32.9-22.9-25.1-65.3-68.7-122.2-125-164.6-15.7-11.8-19-34.1-7.3-49.7 12.3-15.6 34.6-19 50.2-7.3 67 50.3 118.3 118.3 148.5 195.9z m117.2-45.2c6.7 18.4-2.3 39.1-20.7 46.3-4.4 1.7-8.3 2.3-12.8 2.3-14.5 0-27.9-8.4-33.5-22.9-33.5-87.1-91-163-165.7-219.3-16.2-11.7-19-34.1-7.3-49.7 11.7-16.2 34.1-19 49.7-7.2 85.9 64.1 151.8 151.2 190.3 250.5z" /></svg>