<svg height="1000" width="928.6" xmlns="http://www.w3.org/2000/svg"><path d="m827 585.9c34 19.6 45.8 63.7 26.2 97.7l-35.7 61.4c-19.5 34-63.6 45.7-97.6 26.2l-148.5-85.4v171.3c0 39.1-32.3 71.5-71.4 71.5h-71.4c-39.1 0-71.5-32.4-71.5-71.5v-171.3l-148.4 85.4c-34 19.5-78.1 7.8-97.7-26.2l-35.7-61.4c-19.5-34-7.8-78.1 26.3-97.7l148.4-85.9-148.4-85.9c-34.1-19.6-45.8-63.7-26.3-97.7l35.7-61.4c19.6-34 63.7-45.7 97.7-26.2l148.4 85.4v-171.3c0-39.1 32.4-71.5 71.5-71.5h71.4c39.1 0 71.4 32.4 71.4 71.5v171.3l148.5-85.4c34-19.5 78.1-7.8 97.6 26.2l35.7 61.4c19.6 34 7.8 78.1-26.2 97.7l-148.4 85.9z" /></svg>