<svg height="1000" width="1000.0" xmlns="http://www.w3.org/2000/svg"><path d="m491.7 454.2c-94.6-24.6-125-49.8-125-89.4 0-45.4 41.8-77.3 112.5-77.3 74.1 0 101.6 35.4 104.1 87.5h92.1c-2.7-71.9-46.6-137.3-133.7-158.7v-91.3h-125v90c-80.9 17.7-145.9 69.8-145.9 150.4 0 96.3 79.8 144.2 195.9 172.1 104.3 25 125 61.5 125 100.6 0 28.6-20.2 74.4-112.5 74.4-85.9 0-119.8-38.5-124.2-87.5h-91.9c5.2 91.3 73.4 142.3 153.6 159.6v90.4h125v-89.6c81-15.6 145.8-62.5 145.8-148.1 0-117.9-101.2-158.3-195.8-183.1z" /></svg>