<svg height="1000" width="1000.0" xmlns="http://www.w3.org/2000/svg"><path d="m458.3 708.3c0 23 18.8 41.7 41.7 41.7s41.7-18.7 41.7-41.7-18.8-41.6-41.7-41.6-41.7 18.7-41.7 41.6z m0-583.3v166.7h83.4v-80c141.2 20.2 250 141.4 250 288.3 0 161-130.7 291.7-291.7 291.7s-291.7-130.7-291.7-291.7c0-70 24.6-134 65.7-184.4l226 226.1 59-59-283.4-283.3-0.4 0.8c-91 68.3-150.2 177.1-150.2 299.8 0 207.1 167.5 375 374.8 375s375.2-167.9 375.2-375-167.9-375-375.2-375h-41.5z m291.7 375c0-22.9-18.7-41.7-41.7-41.7s-41.6 18.8-41.6 41.7 18.7 41.7 41.6 41.7 41.7-18.8 41.7-41.7z m-500 0c0 22.9 18.8 41.7 41.7 41.7s41.6-18.8 41.6-41.7-18.7-41.7-41.6-41.7-41.7 18.8-41.7 41.7z" /></svg>