<svg height="1000" width="1285.7" xmlns="http://www.w3.org/2000/svg"><path d="m964.3 250l-214.3 392.9h428.6z m-714.3 0l-214.3 392.9h428.6z m458.1-107.1c-10.6 30.1-35.1 54.6-65.2 65.2v720.5h339.2c10.1 0 17.9 7.8 17.9 17.8v35.7c0 10.1-7.8 17.9-17.9 17.9h-750c-10 0-17.8-7.8-17.8-17.9v-35.7c0-10 7.8-17.8 17.8-17.8h339.3v-720.5c-30.1-10.6-54.7-35.1-65.3-65.2h-274c-10 0-17.8-7.9-17.8-17.9v-35.7c0-10.1 7.8-17.9 17.8-17.9h274c15.1-41.8 54.2-71.4 101-71.4s86 29.6 101 71.4h274c10.1 0 17.9 7.8 17.9 17.9v35.7c0 10-7.8 17.9-17.9 17.9h-274z m-101 8.9c24.6 0 44.7-20.1 44.7-44.7s-20.1-44.6-44.7-44.6-44.6 20.1-44.6 44.6 20.1 44.7 44.6 44.7z m607.2 491.1c0 114.9-159.1 160.7-250 160.7s-250-45.8-250-160.7v0c0-21.8 194.7-366.7 218.7-410.2 6.2-11.2 18.5-18.4 31.3-18.4s25.1 7.2 31.2 18.4c24 43.5 218.8 388.4 218.8 410.2v0z m-714.3 0c0 114.9-159 160.7-250 160.7s-250-45.8-250-160.7v0c0-21.8 194.8-366.7 218.8-410.2 6.1-11.2 18.4-18.4 31.2-18.4s25.1 7.2 31.3 18.4c23.9 43.5 218.7 388.4 218.7 410.2z" /></svg>