<svg height="1000" width="1285.7" xmlns="http://www.w3.org/2000/svg"><path d="m142.9 714.3v-428.6h285.7v428.6h-285.7z m1071.4-392.9c39.6 0 71.4 31.8 71.4 71.5v214.2c0 39.7-31.8 71.5-71.4 71.5v89.3c0 49.1-40.2 89.2-89.3 89.2h-1035.7c-49.1 0-89.3-40.1-89.3-89.2v-535.8c0-49.1 40.2-89.2 89.3-89.2h1035.7c49.1 0 89.3 40.1 89.3 89.2v89.3z m0 285.7v-214.2h-71.4v-160.8c0-10-7.9-17.8-17.9-17.8h-1035.7c-10.1 0-17.9 7.8-17.9 17.8v535.8c0 10 7.8 17.8 17.9 17.8h1035.7c10 0 17.9-7.8 17.9-17.8v-160.8h71.4z" /></svg>