<svg height="1000" width="1000.0" xmlns="http://www.w3.org/2000/svg"><path d="m602.1 562.5l-143.8 270.8v-229.1h-83.3l22.9-41.7h-106.2v297.9c0 31.3 25 56.3 56.2 56.3h306.3c31.2 0 56.2-25 56.2-56.3v-297.9c-2.1 0-108.3 0-108.3 0z m-81.3-416.7v52.1l-33.3 64.6-133.3 247.9v-281.2h125v-83.4h41.6z m125 83.4v229.1h-41.6v-229.1h41.6z m-62.5-145.9h-166.6v83.4h-68.8c-31.2 0-56.2 25-56.2 56.2v447.9l106.2-108.3 143.8-270.8v229.1h83.3l-22.9 41.7 106.2 122.9v-462.5c0-31.2-25-56.2-56.2-56.2h-68.8v-83.4z" /></svg>