<svg height="1000" width="1142.9" xmlns="http://www.w3.org/2000/svg"><path d="m580.4 946.4c0-5-3.9-8.9-9-8.9-44.1 0-80.3-36.3-80.3-80.4 0-5-3.9-8.9-9-8.9s-8.9 3.9-8.9 8.9c0 54.2 44.1 98.3 98.2 98.3 5.1 0 9-3.9 9-9z m-299.7-265l489.4-424.1c-27.9-58.6-92.6-114.4-198.7-114.4-146.2 0-214.3 106.5-214.3 178.5 0 142.9-25.1 262.3-76.4 360z m755 104.3c0 39.1-32.4 71.4-71.4 71.4h-250c0 78.7-64.2 142.9-142.9 142.9s-142.3-63.6-142.8-142.3l83.1-72h422.5c-62-69.7-103.8-154.6-126.7-256.1l61.9-54.2c28.5 166.3 101.6 255.6 166.3 310.3z m48-776.8l46.9 53.6c6.1 7.8 5.6 19-1.7 25.7l-1044.6 905.1c-7.3 6.1-19 5.6-25.1-2.2l-46.9-53.6c-6.2-7.8-5.6-19 1.7-25.1l103.7-89.9c-6.7-11.1-10.6-23.4-10.6-36.8 82.6-69.7 178.6-194.7 178.6-464.3 0-107.1 88.7-224.3 236.6-246.1-2.8-6.7-4.4-13.9-4.4-21.7 0-29.6 24-53.6 53.5-53.6s53.6 24 53.6 53.6c0 7.8-1.7 15-4.5 21.7 96 14 166.9 68.1 204.8 134l233.3-202.6c7.2-6.1 19-5.6 25.1 2.2z" /></svg>