<svg height="1000" width="1000.0" xmlns="http://www.w3.org/2000/svg"><path d="m392.9 178.6v428.5c0 19.6-16.2 35.8-35.8 35.8v0 321.4c0 19.5-16.1 35.7-35.7 35.7h-285.7c-19.5 0-35.7-16.2-35.7-35.7v-285.7l139-487.2c2.2-7.8 9.4-12.8 17.3-12.8h236.6z m178.5 0v392.8h-142.8v-392.8h142.8z m428.6 500v285.7c0 19.5-16.2 35.7-35.7 35.7h-285.7c-19.6 0-35.7-16.2-35.7-35.7v-321.4 0c-19.6 0-35.8-16.2-35.8-35.8v-428.5h236.7c7.8 0 15 5 17.2 12.8z m-589.3-660.7v125h-196.4v-125c0-10.1 7.8-17.9 17.8-17.9h160.8c10 0 17.8 7.8 17.8 17.9z m375 0v125h-196.4v-125c0-10.1 7.8-17.9 17.8-17.9h160.8c10 0 17.8 7.8 17.8 17.9z" /></svg>