<svg height="1000" width="834.0" xmlns="http://www.w3.org/2000/svg"><path d="m775.4 400.4q58.6 0 58.6 60.5v201.2q0 103.5-77.2 178.7t-180.6 75.2h-334q-93.8 0-168-75.2t-74.2-176.7v-316.4q0-111.4 76.2-187.5t187.5-76.2h175.8q85.9 0 165 77.1t79.1 167v21.5q0 21.5 14.6 36.1t40.1 14.7h37.1z m-511.7-99.6q-19.6 0-34.2 14.6t-14.7 35.2 14.7 35.1 34.2 14.7h152.3q19.5 0 33.2-15.6t13.7-35.2-13.7-34.2-33.2-14.6h-152.3z m300.8 398.4q19.5 0 34.1-12.7t14.7-32.2-14.7-33.2-34.1-13.7h-300.8q-19.6 0-34.2 13.7t-14.7 33.2 14.7 32.2 34.2 12.7h300.8z" /></svg>