<svg height="1000" width="1000.0" xmlns="http://www.w3.org/2000/svg"><path d="m593.3 500.4l96.7 96.7c11.7-30.2 18.3-62.9 18.3-97.1 0-34-6.4-66.5-17.9-96.5l-97.1 96.9z m220.5-220.6l-52.8 52.7c26.1 50.2 41.1 107.1 41.1 167.7s-15 117.3-41.1 167.7l50 50c40.3-64.6 64-140.2 64-221.4 0-79.6-22.7-153.6-61.2-216.7z m-159.4 41.2l-237.7-237.7h-41.7v316.1l-191-191.1-59 59 232.7 232.7-232.7 232.7 59 59 191-191.1v316.1h41.7l237.7-237.7-178.8-179 178.8-179z m-196.1-78.1l78.4 78.4-78.4 78.1v-156.5z m78.4 436.1l-78.4 78.1v-156.7l78.4 78.6z" /></svg>