<svg height="1000" width="1000.0" xmlns="http://www.w3.org/2000/svg"><path d="m416.7 375c-22.9 0-41.7 18.8-41.7 41.7s18.8 41.6 41.7 41.6 41.6-18.7 41.6-41.6-18.7-41.7-41.6-41.7z m0 166.7c-22.9 0-41.7 18.7-41.7 41.6s18.8 41.7 41.7 41.7 41.6-18.7 41.6-41.7-18.7-41.6-41.6-41.6z m-125-145.9c-11.5 0-20.9 9.4-20.9 20.9s9.4 20.8 20.9 20.8 20.8-9.4 20.8-20.8-9.4-20.9-20.8-20.9z m125 291.7c-11.5 0-20.9 9.4-20.9 20.8s9.4 20.9 20.9 20.9 20.8-9.4 20.8-20.9-9.4-20.8-20.8-20.8z m-125-125c-11.5 0-20.9 9.4-20.9 20.8s9.4 20.9 20.9 20.9 20.8-9.4 20.8-20.9-9.4-20.8-20.8-20.8z m125-250c11.4 0 20.8-9.4 20.8-20.8s-9.4-20.9-20.8-20.9-20.9 9.4-20.9 20.9 9.4 20.8 20.9 20.8z m166.6 62.5c-22.9 0-41.6 18.8-41.6 41.7s18.7 41.6 41.6 41.6 41.7-18.7 41.7-41.6-18.7-41.7-41.7-41.7z m0-62.5c11.5 0 20.9-9.4 20.9-20.8s-9.4-20.9-20.9-20.9-20.8 9.4-20.8 20.9 9.4 20.8 20.8 20.8z m125 250c-11.4 0-20.8 9.4-20.8 20.8s9.4 20.9 20.8 20.9 20.9-9.4 20.9-20.9-9.4-20.8-20.9-20.8z m0-166.7c-11.4 0-20.8 9.4-20.8 20.9s9.4 20.8 20.8 20.8 20.9-9.4 20.9-20.8-9.4-20.9-20.9-20.9z m-208.3-312.5c-230.2 0-416.7 186.5-416.7 416.7s186.5 416.7 416.7 416.7 416.7-186.5 416.7-416.7-186.5-416.7-416.7-416.7z m0 750c-184.2 0-333.3-149.1-333.3-333.3s149.1-333.3 333.3-333.3 333.3 149.1 333.3 333.3-149.1 333.3-333.3 333.3z m83.3-145.8c-11.4 0-20.8 9.4-20.8 20.8s9.4 20.9 20.8 20.9 20.9-9.4 20.9-20.9-9.4-20.8-20.9-20.8z m0-145.8c-22.9 0-41.6 18.7-41.6 41.6s18.7 41.7 41.6 41.7 41.7-18.7 41.7-41.7-18.7-41.6-41.7-41.6z" /></svg>