<svg height="1000" width="834.0" xmlns="http://www.w3.org/2000/svg"><path d="m333 375q16.6 0 29.3 12.7t12.7 29.3-12.7 29.3-29.3 12.7-29.3-12.7-12.7-29.3 12.7-29.3 29.3-12.7z m0 166q16.6 0 29.3 12.7t12.7 29.3-12.7 29.3-29.3 12.7-29.3-12.7-12.7-29.3 12.7-29.3 29.3-12.7z m-125-144.5q20.5 0 20.5 20.5t-20.5 20.5-20.5-20.5 20.5-20.5z m125 291q20.5 0 20.5 20.5t-20.5 20.5-20.5-20.5 20.5-20.5z m-125-125q20.5 0 20.5 20.5t-20.5 20.5-20.5-20.5 20.5-20.5z m125-250q-20.5 0-20.5-20.5t20.5-20.5 20.5 20.5-20.5 20.5z m167 62.5q17.6 0 29.3 12.7t11.7 29.3-11.7 29.3-29.3 12.7-29.3-12.7-11.7-29.3 11.7-29.3 29.3-12.7z m0-62.5q-21.5 0-21.5-20.5t21.5-20.5 21.5 20.5-21.5 20.5z m125 250q21.5 0 21.5 20.5t-21.5 20.5-21.5-20.5 21.5-20.5z m0-166q21.5 0 21.5 20.5t-21.5 20.5-21.5-20.5 21.5-20.5z m-208-312.5q172.8 0 294.9 122.1t122.1 293.9-122.1 293.9-294.9 122.1-294.9-122.1-122.1-293.9 122.1-293.9 294.9-122.1z m0 750q137.7 0 235.3-97.7t97.7-236.3-97.7-236.3-235.3-97.7-235.4 97.7-97.6 236.3 97.6 236.3 235.4 97.7z m83-146.5q21.5 0 21.5 20.5t-21.5 20.5-21.5-20.5 21.5-20.5z m0-146.5q17.6 0 29.3 12.7t11.7 29.3-11.7 29.3-29.3 12.7-29.3-12.7-11.7-29.3 11.7-29.3 29.3-12.7z" /></svg>