<svg height="1000" width="1000.0" xmlns="http://www.w3.org/2000/svg"><path d="m583.3 291.7c23 0 41.7-18.8 41.7-41.7s-18.7-41.7-41.7-41.7-41.6 18.8-41.6 41.7 18.7 41.7 41.6 41.7z m-8.3 186.6c2.7 0.5 5.4 0.9 8.3 0.9 34.6 0 62.5-28 62.5-62.5s-27.9-62.5-62.5-62.5-62.5 27.9-62.5 62.5c0 2.9 0.5 5.6 0.9 8.5 3.7 27.5 25.6 49.4 53.3 53.1z m8.3-332.5c11.5 0 20.9-9.3 20.9-20.8s-9.4-20.8-20.9-20.8-20.8 9.3-20.8 20.8 9.4 20.8 20.8 20.8z m-166.6 0c11.4 0 20.8-9.3 20.8-20.8s-9.4-20.8-20.8-20.8-20.9 9.3-20.9 20.8 9.4 20.8 20.9 20.8z m458.3 291.7c11.5 0 20.8-9.4 20.8-20.8s-9.3-20.9-20.8-20.9-20.8 9.4-20.8 20.9 9.3 20.8 20.8 20.8z m-458.3-145.8c22.9 0 41.6-18.8 41.6-41.7s-18.7-41.7-41.6-41.7-41.7 18.8-41.7 41.7 18.8 41.7 41.7 41.7z m333.3 333.3c22.9 0 41.7-18.7 41.7-41.7s-18.8-41.6-41.7-41.6-41.7 18.7-41.7 41.6 18.8 41.7 41.7 41.7z m0-166.7c22.9 0 41.7-18.7 41.7-41.6s-18.8-41.7-41.7-41.7-41.7 18.7-41.7 41.7 18.8 41.6 41.7 41.6z m0-166.6c22.9 0 41.7-18.8 41.7-41.7s-18.8-41.7-41.7-41.7-41.7 18.8-41.7 41.7 18.8 41.7 41.7 41.7z m-166.7 562.5c-11.4 0-20.8 9.3-20.8 20.8s9.4 20.8 20.8 20.8 20.9-9.3 20.9-20.8-9.4-20.8-20.9-20.8z m-479.1-634.4l157.7 157.7c-4-1.2-7.7-2.5-11.9-2.5-22.9 0-41.7 18.8-41.7 41.7s18.8 41.6 41.7 41.6 41.7-18.7 41.7-41.6c0-4.2-1.3-7.9-2.3-11.9l117.1 117.1c-29.8 5-52.3 30.4-52.3 61.4 0 34.6 27.9 62.5 62.5 62.5 31 0 56.4-22.5 61.4-52l117.1 117c-3.7-1.2-7.7-2.5-11.9-2.5-22.9 0-41.6 18.8-41.6 41.7s18.7 41.7 41.6 41.7 41.7-18.8 41.7-41.7c0-4.2-1.3-7.9-2.3-11.9l157.5 157.7 53.1-53.1-676-676-53.1 53.1z m312.5 488.5c-22.9 0-41.7 18.8-41.7 41.7s18.8 41.7 41.7 41.7 41.6-18.8 41.6-41.7-18.7-41.7-41.6-41.7z m458.3-145.8c-11.5 0-20.8 9.4-20.8 20.8s9.3 20.9 20.8 20.9 20.8-9.4 20.8-20.9-9.3-20.8-20.8-20.8z m-625-20.8c-22.9 0-41.7 18.7-41.7 41.6s18.8 41.7 41.7 41.7 41.7-18.7 41.7-41.7-18.8-41.6-41.7-41.6z m-125-145.9c-11.5 0-20.8 9.4-20.8 20.9s9.3 20.8 20.8 20.8 20.8-9.4 20.8-20.8-9.3-20.9-20.8-20.9z m291.7 458.4c-11.5 0-20.9 9.3-20.9 20.8s9.4 20.8 20.9 20.8 20.8-9.3 20.8-20.8-9.4-20.8-20.8-20.8z m-166.7-145.9c-22.9 0-41.7 18.8-41.7 41.7s18.8 41.7 41.7 41.7 41.7-18.8 41.7-41.7-18.8-41.7-41.7-41.7z m-125-145.8c-11.5 0-20.8 9.4-20.8 20.8s9.3 20.9 20.8 20.9 20.8-9.4 20.8-20.9-9.3-20.8-20.8-20.8z" /></svg>