<svg height="1000" width="1000.0" xmlns="http://www.w3.org/2000/svg"><path d="m250 541.7c-22.9 0-41.7 18.7-41.7 41.6s18.8 41.7 41.7 41.7 41.7-18.7 41.7-41.7-18.8-41.6-41.7-41.6z m0 166.6c-22.9 0-41.7 18.8-41.7 41.7s18.8 41.7 41.7 41.7 41.7-18.8 41.7-41.7-18.8-41.7-41.7-41.7z m0-333.3c-22.9 0-41.7 18.8-41.7 41.7s18.8 41.6 41.7 41.6 41.7-18.7 41.7-41.6-18.8-41.7-41.7-41.7z m-125 20.8c-11.5 0-20.8 9.4-20.8 20.9s9.3 20.8 20.8 20.8 20.8-9.4 20.8-20.8-9.3-20.9-20.8-20.9z m125-187.5c-22.9 0-41.7 18.8-41.7 41.7s18.8 41.7 41.7 41.7 41.7-18.8 41.7-41.7-18.8-41.7-41.7-41.7z m625 229.2c11.5 0 20.8-9.4 20.8-20.8s-9.3-20.9-20.8-20.9-20.8 9.4-20.8 20.9 9.3 20.8 20.8 20.8z m-291.7-145.8c23 0 41.7-18.8 41.7-41.7s-18.7-41.7-41.7-41.7-41.6 18.8-41.6 41.7 18.7 41.7 41.6 41.7z m0-145.9c11.5 0 20.9-9.3 20.9-20.8s-9.4-20.8-20.9-20.8-20.8 9.3-20.8 20.8 9.4 20.8 20.8 20.8z m-458.3 416.7c-11.5 0-20.8 9.4-20.8 20.8s9.3 20.9 20.8 20.9 20.8-9.4 20.8-20.9-9.3-20.8-20.8-20.8z m291.7 291.7c-11.5 0-20.9 9.3-20.9 20.8s9.4 20.8 20.9 20.8 20.8-9.3 20.8-20.8-9.4-20.8-20.8-20.8z m0-708.4c11.4 0 20.8-9.3 20.8-20.8s-9.4-20.8-20.8-20.8-20.9 9.3-20.9 20.8 9.4 20.8 20.9 20.8z m0 145.9c22.9 0 41.6-18.8 41.6-41.7s-18.7-41.7-41.6-41.7-41.7 18.8-41.7 41.7 18.8 41.7 41.7 41.7z m0 229.1c-34.6 0-62.5 28-62.5 62.5s27.9 62.5 62.5 62.5 62.5-27.9 62.5-62.5-27.9-62.5-62.5-62.5z m333.3 20.9c-22.9 0-41.7 18.7-41.7 41.6s18.8 41.7 41.7 41.7 41.7-18.7 41.7-41.7-18.8-41.6-41.7-41.6z m0 166.6c-22.9 0-41.7 18.8-41.7 41.7s18.8 41.7 41.7 41.7 41.7-18.8 41.7-41.7-18.8-41.7-41.7-41.7z m0-333.3c-22.9 0-41.7 18.8-41.7 41.7s18.8 41.6 41.7 41.6 41.7-18.7 41.7-41.6-18.8-41.7-41.7-41.7z m0-166.7c-22.9 0-41.7 18.8-41.7 41.7s18.8 41.7 41.7 41.7 41.7-18.8 41.7-41.7-18.8-41.7-41.7-41.7z m125 354.2c-11.5 0-20.8 9.4-20.8 20.8s9.3 20.9 20.8 20.9 20.8-9.4 20.8-20.9-9.3-20.8-20.8-20.8z m-291.7 145.8c-22.9 0-41.6 18.8-41.6 41.7s18.7 41.7 41.6 41.7 41.7-18.8 41.7-41.7-18.7-41.7-41.7-41.7z m0 145.9c-11.4 0-20.8 9.3-20.8 20.8s9.4 20.8 20.8 20.8 20.9-9.3 20.9-20.8-9.4-20.8-20.9-20.8z m-166.6-500c-34.6 0-62.5 27.9-62.5 62.5s27.9 62.5 62.5 62.5 62.5-27.9 62.5-62.5-27.9-62.5-62.5-62.5z m0 354.1c-22.9 0-41.7 18.8-41.7 41.7s18.8 41.7 41.7 41.7 41.6-18.8 41.6-41.7-18.7-41.7-41.6-41.7z m166.6-187.5c-34.5 0-62.5 28-62.5 62.5s28 62.5 62.5 62.5 62.5-27.9 62.5-62.5-27.9-62.5-62.5-62.5z m0-166.6c-34.5 0-62.5 27.9-62.5 62.5s28 62.5 62.5 62.5 62.5-27.9 62.5-62.5-27.9-62.5-62.5-62.5z" /></svg>