<svg height="1000" width="750.0" xmlns="http://www.w3.org/2000/svg"><path d="m83 728.5q-26.4 0-43.9-17.6t-17.6-43.9 17.6-44.9 43.9-18.6 44.9 18.6 18.6 44.9-18.6 43.9-44.9 17.6z m167-187.5q-17.6 0-29.3-11.7t-11.7-29.3 11.7-29.3 29.3-11.7 29.3 11.7 11.7 29.3-11.7 29.3-29.3 11.7z m0-166q-17.6 0-29.3-12.7t-11.7-29.3 11.7-29.3 29.3-12.7 29.3 12.7 11.7 29.3-11.7 29.3-29.3 12.7z m-250 500v-84h750v84h-750z m83-478.5q-26.4 0-43.9-18.6t-17.6-44.9 17.6-43.9 43.9-17.6 44.9 17.6 18.6 43.9-18.6 44.9-44.9 18.6z m0 166q-26.4 0-43.9-18.6t-17.6-43.9 17.6-43.9 43.9-18.6 44.9 18.6 18.6 43.9-18.6 43.9-44.9 18.6z m167 146.5q-17.6 0-29.3-12.7t-11.7-29.3 11.7-29.3 29.3-12.7 29.3 12.7 11.7 29.3-11.7 29.3-29.3 12.7z m333-21.5q-20.5 0-20.5-20.5t20.5-20.5 20.5 20.5-20.5 20.5z m-583-562.5h750v84h-750v-84z m583 228.5q-20.5 0-20.5-20.5t20.5-20.5 20.5 20.5-20.5 20.5z m0 168q-20.5 0-20.5-21.5t20.5-21.5 20.5 21.5-20.5 21.5z m-166-146.5q-16.6 0-29.3-12.7t-12.7-29.3 12.7-29.3 29.3-12.7 29.3 12.7 12.7 29.3-12.7 29.3-29.3 12.7z m0 166q-16.6 0-29.3-11.7t-12.7-29.3 12.7-29.3 29.3-11.7 29.3 11.7 12.7 29.3-12.7 29.3-29.3 11.7z m0 168q-16.6 0-29.3-12.7t-12.7-29.3 12.7-29.3 29.3-12.7 29.3 12.7 12.7 29.3-12.7 29.3-29.3 12.7z" /></svg>