<svg height="1000" width="1000.0" xmlns="http://www.w3.org/2000/svg"><path d="m208.3 729.2c34.6 0 62.5-27.9 62.5-62.5s-27.9-62.5-62.5-62.5-62.5 27.9-62.5 62.5 28 62.5 62.5 62.5z m166.7-187.5c22.9 0 41.7-18.8 41.7-41.7s-18.8-41.7-41.7-41.7-41.7 18.8-41.7 41.7 18.8 41.7 41.7 41.7z m0-166.7c22.9 0 41.7-18.7 41.7-41.7s-18.8-41.6-41.7-41.6-41.7 18.7-41.7 41.6 18.8 41.7 41.7 41.7z m-250 500h750v-83.3h-750v83.3z m83.3-479.2c34.6 0 62.5-27.9 62.5-62.5s-27.9-62.5-62.5-62.5-62.5 27.9-62.5 62.5 28 62.5 62.5 62.5z m0 166.7c34.6 0 62.5-27.9 62.5-62.5s-27.9-62.5-62.5-62.5-62.5 27.9-62.5 62.5 28 62.5 62.5 62.5z m166.7 145.8c22.9 0 41.7-18.7 41.7-41.6s-18.8-41.7-41.7-41.7-41.7 18.7-41.7 41.7 18.8 41.6 41.7 41.6z m333.3-20.8c11.5 0 20.9-9.4 20.9-20.8s-9.4-20.9-20.9-20.9-20.8 9.4-20.8 20.9 9.4 20.8 20.8 20.8z m-583.3-562.5v83.3h750v-83.3h-750z m583.3 229.2c11.5 0 20.9-9.4 20.9-20.9s-9.4-20.8-20.9-20.8-20.8 9.4-20.8 20.8 9.4 20.9 20.8 20.9z m0 166.6c11.5 0 20.9-9.3 20.9-20.8s-9.4-20.8-20.9-20.8-20.8 9.3-20.8 20.8 9.4 20.8 20.8 20.8z m-166.6-145.8c22.9 0 41.6-18.7 41.6-41.7s-18.7-41.6-41.6-41.6-41.7 18.7-41.7 41.6 18.8 41.7 41.7 41.7z m0 166.7c22.9 0 41.6-18.8 41.6-41.7s-18.7-41.7-41.6-41.7-41.7 18.8-41.7 41.7 18.8 41.7 41.7 41.7z m0 166.6c22.9 0 41.6-18.7 41.6-41.6s-18.7-41.7-41.6-41.7-41.7 18.7-41.7 41.7 18.8 41.6 41.7 41.6z" /></svg>