<svg height="1000" width="791.0" xmlns="http://www.w3.org/2000/svg"><path d="m479.5 291q-16.6 0-29.3-11.7t-12.7-29.3 12.7-29.3 29.3-11.7 29.3 11.7 12.7 29.3-12.7 29.3-29.3 11.7z m-8.8 187.5q-21.5-3.9-36.1-18.5t-16.6-34.2l-2-9.8q0-25.4 18.6-43.9t44.9-18.6 43.9 18.6 17.6 44.9-17.6 43.9-44.9 17.6h-7.8z m8.8-332q-20.5 0-20.5-21.5t20.5-21.5 20.5 21.5-20.5 21.5z m-167 0q-21.5 0-21.5-21.5t21.5-21.5 21.5 21.5-21.5 21.5z m458 291q-20.5 0-20.5-20.5t20.5-20.5 20.5 20.5-20.5 20.5z m-458-146.5q-17.6 0-29.3-11.7t-11.7-29.3 11.7-29.3 29.3-11.7 29.3 11.7 11.7 29.3-11.7 29.3-29.3 11.7z m333 334q-16.6 0-29.3-12.7t-12.7-29.3 12.7-29.3 29.3-12.7 29.3 12.7 12.7 29.3-12.7 29.3-29.3 12.7z m0-166q-16.6 0-29.3-12.7t-12.7-29.3 12.7-29.3 29.3-12.7 29.3 12.7 12.7 29.3-12.7 29.3-29.3 12.7z m0-168q-16.6 0-29.3-11.7t-12.7-29.3 12.7-29.3 29.3-11.7 29.3 11.7 12.7 29.3-12.7 29.3-29.3 11.7z m-166 562.5q20.5 0 20.5 21.5t-20.5 21.5-20.5-21.5 20.5-21.5z m-479.5-634.7l52.7-52.8 675.8 677.8-52.7 52.7-158.2-158.2q3.9 7.8 3.9 11.7 0 17.6-12.7 29.3t-29.3 11.7-29.3-11.7-12.7-29.3 12.7-29.3 28.3-11.7q3.9 0 11.7 1.9l-117.2-117.1q-1.9 21.4-19.5 37.1t-41 15.6q-25.4 0-43.9-18.6t-18.6-43.9q0-23.5 14.6-41t38.1-21.5l-117.2-117.2q2 7.8 2 11.7 0 17.6-12.7 30.3t-29.3 12.7-29.3-12.7-12.7-29.3 12.7-29.3 30.3-12.7l11.7 2z m312.5 490.2q17.6 0 29.3 11.7t11.7 29.3-11.7 29.3-29.3 11.7-29.3-11.7-11.7-29.3 11.7-29.3 29.3-11.7z m458-146.5q20.5 0 20.5 20.5t-20.5 20.5-20.5-20.5 20.5-20.5z m-625-21.5q16.6 0 29.3 12.7t12.7 29.3-12.7 29.3-29.3 12.7-29.3-12.7-12.7-29.3 12.7-29.3 29.3-12.7z m-125-144.5q20.5 0 20.5 20.5t-20.5 20.5-20.5-20.5 20.5-20.5z m292 457q21.5 0 21.5 21.5t-21.5 21.5-21.5-21.5 21.5-21.5z m-167-144.5q16.6 0 29.3 11.7t12.7 29.3-12.7 29.3-29.3 11.7-29.3-11.7-12.7-29.3 12.7-29.3 29.3-11.7z m-125-146.5q20.5 0 20.5 20.5t-20.5 20.5-20.5-20.5 20.5-20.5z" /></svg>