<svg height="1000" width="1000.0" xmlns="http://www.w3.org/2000/svg"><path d="m318.6 328.7c-7.2-18.4-27.9-26.8-46.3-19.5-80.3 32.3-145.1 97.1-177.4 177.4-7.3 18.4 1.1 39.1 19.5 46.3 4.5 1.7 8.9 2.8 13.4 2.8 14.5 0 27.3-8.4 33.5-22.3 25.1-62.5 75.3-112.7 137.8-137.8 18.4-7.9 27.4-28.5 19.5-46.9z m525.7-198.7l25.7 25.7-136.2 135.6 38 37.9c13.9 14 13.9 36.9 0 50.8l-35.8 35.7c31.3 56.4 49.7 121.7 49.7 191.4 0 217.1-175.8 392.9-392.8 392.9s-392.9-175.8-392.9-392.9 175.8-392.8 392.9-392.8c69.7 0 135 18.4 191.4 49.7l35.7-35.8c13.9-13.9 36.8-13.9 50.8 0l37.9 38z m4.5-31.2c-3.4 3.3-7.8 5.6-12.3 5.6-5 0-9.5-2.3-12.8-5.6l-50.8-50.3c-6.7-7.2-6.7-18.4 0-25.6 7.2-6.7 18.4-6.7 25.6 0l50.3 50.8c7.2 6.7 7.2 18.4 0 25.1z m128.3 128.3c-3.9 3.4-8.3 5-12.8 5s-8.9-1.6-12.8-5l-50.3-50.8c-7.2-6.7-7.2-18.4 0-25.1 6.7-7.2 18.4-7.2 25.1 0l50.8 50.3c6.7 7.2 6.7 18.4 0 25.6z m22.9-102.1c0 10-7.8 17.9-17.9 17.9h-53.5c-10.1 0-17.9-7.9-17.9-17.9s7.8-17.9 17.9-17.9h53.5c10.1 0 17.9 7.9 17.9 17.9z m-107.1-107.1v53.5c0 10.1-7.9 17.9-17.9 17.9s-17.9-7.8-17.9-17.9v-53.5c0-10.1 7.9-17.9 17.9-17.9s17.9 7.8 17.9 17.9z m84.2 30.6l-50.8 50.3c-3.3 3.3-7.8 5.6-12.2 5.6-5.1 0-9.5-2.3-12.9-5.6-7.2-6.7-7.2-18.4 0-25.1l50.3-50.8c7.2-6.7 18.4-6.7 25.6 0 6.7 7.2 6.7 18.4 0 25.6z" /></svg>