<svg height="1000" width="928.6" xmlns="http://www.w3.org/2000/svg"><path d="m914.6 266.7c14 20.1 17.9 46.4 10.1 72l-153.5 505.6c-13.9 47.4-63.1 84.3-111 84.3h-515.1c-56.9 0-117.8-45.2-138.4-103.3-8.9-25.1-8.9-49.6-1.1-70.8 1.1-11.2 3.3-22.4 3.9-35.7 0.5-9-4.5-16.2-3.4-22.9 2.3-13.4 14-22.9 22.9-38 16.8-27.9 35.7-73.1 41.9-102.1 2.8-10.6-2.8-22.9 0-32.4 2.8-10.6 13.4-18.4 18.9-28.4 15.1-25.7 34.6-75.4 37.4-101.6 1.1-11.7-4.4-24.5-1.1-33.5 3.9-12.8 16.2-18.4 24.6-29.5 13.4-18.5 35.7-71.5 39-101 1.1-9.5-4.4-19-2.8-29.1 2.3-10.6 15.7-21.7 24.6-34.6 23.4-34.6 27.9-111 98.8-90.9l-0.6 1.7c9.5-2.3 19-5.1 28.5-5.1h424.6c26.3 0 49.7 11.7 63.7 31.3 14.5 20.1 17.8 46.3 10 72.5l-152.9 505.6c-26.2 85.9-40.7 104.9-111.6 104.9h-484.9c-7.3 0-16.2 1.7-21.3 8.4-4.4 6.7-5 11.7-0.5 24 11.2 32.3 49.7 39 80.3 39h515.1c20.7 0 44.7-11.7 50.8-31.8l167.4-550.7c3.4-10.6 3.4-21.8 2.8-31.9 12.8 5.1 24.6 12.9 32.9 24z m-593.7 1.2c-3.4 10 2.2 17.8 12.2 17.8h339.3c9.5 0 20.1-7.8 23.5-17.8l11.7-35.8c3.3-10-2.2-17.8-12.3-17.8h-339.3c-9.5 0-20.1 7.8-23.4 17.8z m-46.3 142.8c-3.4 10.1 2.2 17.9 12.2 17.9h339.3c9.5 0 20.1-7.8 23.5-17.9l11.7-35.7c3.3-10-2.3-17.9-12.3-17.9h-339.3c-9.5 0-20.1 7.9-23.4 17.9z" /></svg>