<svg height="1000" width="1000.0" xmlns="http://www.w3.org/2000/svg"><path d="m125 375h83.3v-83.3h-83.3v83.3z m0-166.7h83.3v-83.3h-83.3v83.3z m166.7 666.7h83.3v-83.3h-83.3v83.3z m0-333.3h83.3v-83.4h-83.3v83.4z m-166.7 0h83.3v-83.4h-83.3v83.4z m0 333.3h83.3v-83.3h-83.3v83.3z m0-166.7h83.3v-83.3h-83.3v83.3z m166.7-500h83.3v-83.3h-83.3v83.3z m500 500h83.3v-83.3h-83.3v83.3z m-333.4 166.7h83.4v-750h-83.4v750z m333.4 0h83.3v-83.3h-83.3v83.3z m0-333.3h83.3v-83.4h-83.3v83.4z m0-416.7v83.3h83.3v-83.3h-83.3z m0 250h83.3v-83.3h-83.3v83.3z m-166.7-166.7h83.3v-83.3h-83.3v83.3z m0 666.7h83.3v-83.3h-83.3v83.3z m0-333.3h83.3v-83.4h-83.3v83.4z" /></svg>