<svg height="1000" width="1000.0" xmlns="http://www.w3.org/2000/svg"><path d="m125 875h83.3v-83.3h-83.3v83.3z m83.3-583.3h-83.3v83.3h83.3v-83.3z m-83.3 416.6h83.3v-83.3h-83.3v83.3z m166.7 166.7h83.3v-83.3h-83.3v83.3z m-83.4-750h-83.3v83.3h83.3v-83.3z m166.7 0h-83.3v83.3h83.3v-83.3z m333.3 0h-83.3v83.3h83.3v-83.3z m-166.6 166.7h-83.4v83.3h83.4v-83.3z m0-166.7h-83.4v83.3h83.4v-83.3z m250 583.3h83.3v-83.3h-83.3v83.3z m-333.4 166.7h83.4v-83.3h-83.4v83.3z m-333.3-333.3h750v-83.4h-750v83.4z m666.7-416.7v83.3h83.3v-83.3h-83.3z m0 250h83.3v-83.3h-83.3v83.3z m-333.4 333.3h83.4v-83.3h-83.4v83.3z m166.7 166.7h83.3v-83.3h-83.3v83.3z m166.7 0h83.3v-83.3h-83.3v83.3z" /></svg>