<svg height="1000" width="1000.0" xmlns="http://www.w3.org/2000/svg"><path d="m375 458.3h-83.3v83.4h83.3v-83.4z m166.7 166.7h-83.4v83.3h83.4v-83.3z m-166.7-500h-83.3v83.3h83.3v-83.3z m166.7 333.3h-83.4v83.4h83.4v-83.4z m-333.4-333.3h-83.3v83.3h83.3v-83.3z m333.4 166.7h-83.4v83.3h83.4v-83.3z m166.6 166.6h-83.3v83.4h83.3v-83.4z m-166.6-333.3h-83.4v83.3h83.4v-83.3z m166.6 0h-83.3v83.3h83.3v-83.3z m83.4 416.7h83.3v-83.4h-83.3v83.4z m0 166.6h83.3v-83.3h-83.3v83.3z m-583.4-416.6h-83.3v83.3h83.3v-83.3z m583.4-166.7v83.3h83.3v-83.3h-83.3z m0 250h83.3v-83.3h-83.3v83.3z m-583.4 83.3h-83.3v83.4h83.3v-83.4z m-83.3 416.7h750v-83.3h-750v83.3z m83.3-250h-83.3v83.3h83.3v-83.3z" /></svg>