<svg height="1000" width="750.0" xmlns="http://www.w3.org/2000/svg"><path d="m166 209v-84h84v84h-84z m0 332v-82h84v82h-84z m0 334v-84h84v84h-84z m168-166v-84h82v84h-82z m0 166v-84h82v84h-82z m-334 0v-84h84v84h-84z m0-166v-84h84v84h-84z m0-168v-82h84v82h-84z m0-166v-84h84v84h-84z m0-166v-84h84v84h-84z m334 332v-82h82v82h-82z m332 168v-84h84v84h-84z m0-168v-82h84v82h-84z m0 334v-84h84v84h-84z m0-500v-84h84v84h-84z m-332 0v-84h82v84h-82z m332-250h84v84h-84v-84z m-332 84v-84h82v84h-82z m166 666v-84h84v84h-84z m0-334v-82h84v82h-84z m0-332v-84h84v84h-84z" /></svg>