<svg height="1000" width="1000.0" xmlns="http://www.w3.org/2000/svg"><path d="m291.7 875h83.3v-83.3h-83.3v83.3z m-166.7-666.7h83.3v-83.3h-83.3v83.3z m166.7 0h83.3v-83.3h-83.3v83.3z m0 333.4h83.3v-83.4h-83.3v83.4z m-166.7 333.3h83.3v-83.3h-83.3v83.3z m333.3 0h83.4v-83.3h-83.4v83.3z m-333.3-333.3h83.3v-83.4h-83.3v83.4z m0 166.6h83.3v-83.3h-83.3v83.3z m0-333.3h83.3v-83.3h-83.3v83.3z m333.3 333.3h83.4v-83.3h-83.4v83.3z m166.7-166.6h83.3v-83.4h-83.3v83.4z m166.7-416.7v750h83.3v-750h-83.3z m-166.7 750h83.3v-83.3h-83.3v83.3z m0-666.7h83.3v-83.3h-83.3v83.3z m-166.7 333.4h83.4v-83.4h-83.4v83.4z m0-333.4h83.4v-83.3h-83.4v83.3z m0 166.7h83.4v-83.3h-83.4v83.3z" /></svg>