<svg height="1000" width="1000.0" xmlns="http://www.w3.org/2000/svg"><path d="m498.5 27.7c-15.7-0.1-32.1 5.5-54.4 16.9l-2.2 173.6c26.5 22.5 87.3 20.2 111.7-1.1l-5.2-172.5c-19.4-11.1-34.3-16.8-49.9-16.9z m55.5 203.3c-24.3 23.1-88.5 23.8-112.2 2.8-3.1 107.8-89.6 100.9-92.2 211.9l0 529.5c50.2 65.8 264.7 74.1 300.8 0l0-529.5c2.3-113.9-99.1-104.1-96.3-212.6l-0.1-2.1z m-158.2 298.2l9.3 3.2c40.6 13.7 125.2 16.8 182.2-0.2l9.1-2.6 0 9.4 0 264.2 0 4.8-4.4 1.8c-68.4 27.2-129.1 30.7-192.3-0.3l-3.9-1.9 0-4.4 0-264.2 0-9.8z m14.1 18.5l0 251c56.8 26.6 109.8 23.6 172.4-0.5l0-250.4c-56.4 14.4-128 12.2-172.4-0.1z" /></svg>