<svg height="1000" width="1000.0" xmlns="http://www.w3.org/2000/svg"><path d="m294.5 27.7c-11.7-0.1-24 4.1-40.7 12.7l-1.7 130.1c19.8 16.9 65.4 15.2 83.8-0.8l-4-129.3c-14.5-8.3-25.6-12.6-37.4-12.7z m408.7 0c-11.7-0.1-24.1 4.1-40.8 12.7l-1.5 130.1c19.8 16.9 65.3 15.2 83.7-0.8l-4-129.3c-14.5-8.3-25.6-12.6-37.4-12.7z m-205.2 107.5c-14-0.1-28.7 4.9-48.6 15.1l-1.9 154.9c23.6 20.1 77.9 18.1 99.7-1l-4.7-153.9c-17.3-9.9-30.6-15.1-44.5-15.1z m-161.9 44.9c-18.2 17.3-66.3 17.8-84.1 2.1-2.3 80.8-67.2 75.6-69.1 158.8l0 396.9c22.7 29.7 90.3 43.8 146.3 38l0-150.7c-37.4 8.8-72.5 6.2-108.7-11.5l-2.9-1.4 0-3.3 0-198.1 0-7.3 6.9 2.3c30.5 10.3 93.9 12.6 136.6-0.1l5.3-1.5c4.3-5.6 8.6-10.7 12.6-15.3 14.7-16.9 24.7-26.5 29.4-45.5l0-2.5c1.7-85.4-74.3-78.1-72.2-159.3l-0.1-1.6z m408.7 0c-18.2 17.3-66.3 17.8-84 2.1-2.4 80.8-67.2 75.6-69.2 158.8l0 18.1c5.5 8.9 13.7 16.3 24.5 27.4 5.5 5.5 11.5 12 17.4 19.5 30.6 10.2 93.7 12.5 136.3-0.2l6.8-1.9 0 7 0 198.1 0 3.5-3.3 1.4c-36.6 14.5-70.3 20-103.8 13.5l0 146.3c59.3 9.8 130.4-0.5 147.6-35.8l0-396.9c1.7-85.4-74.3-78.1-72.2-159.3l-0.1-1.6z m-197.3 136.5c-21.7 20.6-79 21.2-100.1 2.5-2.8 96.2-80 90.1-82.3 189.2l0 472.6c44.8 58.6 236.3 66.1 268.5 0l0-472.6c2-101.7-88.4-93-86-189.8l-0.1-1.9z m-319.4 100.8l0 188.2c33.8 15.8 65.8 17.6 101.1 8.7l0-106.1 0-0.4 0-0.4c0.9-38.8 13.5-67.9 27.7-89.8-42.2 10.7-95.6 9.1-128.8-0.2z m538 0.1c-39.8 10.2-89.6 9.3-123.1 1.5 14.7 22 27 51.1 26.4 89.2l0.1 0 0 108.5c30.9 6.6 61.8 1.9 96.6-11.5l0-187.7z m-359.8 165.3l8.3 2.8c36.3 12.2 111.8 15 162.7-0.1l8-2.4 0 8.4 0 235.9 0 4.2-3.9 1.6c-61 24.3-115.1 27.4-171.6-0.2l-3.5-1.7 0-3.9 0-235.9 0-8.7z m12.6 16.4l0 224.1c50.7 23.7 98 21.1 153.9-0.4l0-223.6c-50.3 12.9-114.3 11-153.9-0.1z" /></svg>