<svg height="1000" width="1214.3" xmlns="http://www.w3.org/2000/svg"><path d="m107.1 660.7c-49.1 0-89.2 40.2-89.2 89.3s40.1 89.3 89.2 89.3 89.3-40.2 89.3-89.3-40.1-89.3-89.3-89.3z m285.8 0c-49.1 0-89.3 40.2-89.3 89.3s40.2 89.3 89.3 89.3 89.2-40.2 89.2-89.3-40.1-89.3-89.2-89.3z m0-285.7c-49.1 0-89.3 40.2-89.3 89.3s40.2 89.3 89.3 89.3 89.2-40.2 89.2-89.3-40.1-89.3-89.2-89.3z m428.5 285.7c-49.1 0-89.3 40.2-89.3 89.3s40.2 89.3 89.3 89.3 89.3-40.2 89.3-89.3-40.2-89.3-89.3-89.3z m285.7 0c-49.1 0-89.2 40.2-89.2 89.3s40.1 89.3 89.2 89.3 89.3-40.2 89.3-89.3-40.1-89.3-89.3-89.3z m-285.7-285.7c-49.1 0-89.3 40.2-89.3 89.3s40.2 89.3 89.3 89.3 89.3-40.2 89.3-89.3-40.2-89.3-89.3-89.3z m285.7 0c-49.1 0-89.2 40.2-89.2 89.3s40.1 89.3 89.2 89.3 89.3-40.2 89.3-89.3-40.1-89.3-89.3-89.3z m0-285.7c-49.1 0-89.2 40.2-89.2 89.3s40.1 89.3 89.2 89.3 89.3-40.2 89.3-89.3-40.1-89.3-89.3-89.3z m-892.8 660.7c0 59.2-48 107.1-107.2 107.1s-107.1-47.9-107.1-107.1 48-107.1 107.1-107.1v0c59.2 0 107.2 47.9 107.2 107.1z m285.7 0c0 59.2-48 107.1-107.1 107.1s-107.2-47.9-107.2-107.1 48-107.1 107.2-107.1v0c59.1 0 107.1 47.9 107.1 107.1z m-285.7-285.7c0 59.1-48 107.1-107.2 107.1s-107.1-48-107.1-107.1 48-107.2 107.1-107.2 107.2 48 107.2 107.2z m285.7 0c0 59.1-48 107.1-107.1 107.1s-107.2-48-107.2-107.1 48-107.2 107.2-107.2v0c59.1 0 107.1 48 107.1 107.2z m-285.7-285.7c0 59.1-48 107.1-107.2 107.1s-107.1-48-107.1-107.1 48-107.2 107.1-107.2 107.2 48 107.2 107.2z m714.3 571.4c0 59.2-48 107.1-107.2 107.1s-107.1-47.9-107.1-107.1 48-107.1 107.1-107.1v0c59.2 0 107.2 47.9 107.2 107.1z m-428.6-571.4c0 59.1-48 107.1-107.1 107.1s-107.2-48-107.2-107.1 48-107.2 107.2-107.2 107.1 48 107.1 107.2z m714.3 571.4c0 59.2-48 107.1-107.2 107.1s-107.1-47.9-107.1-107.1 48-107.1 107.1-107.1v0c59.2 0 107.2 47.9 107.2 107.1z m-285.7-285.7c0 59.1-48 107.1-107.2 107.1s-107.1-48-107.1-107.1 48-107.2 107.1-107.2v0c59.2 0 107.2 48 107.2 107.2z m285.7 0c0 59.1-48 107.1-107.2 107.1s-107.1-48-107.1-107.1 48-107.2 107.1-107.2v0c59.2 0 107.2 48 107.2 107.2z m-285.7-285.7c0 59.1-48 107.1-107.2 107.1s-107.1-48-107.1-107.1 48-107.2 107.1-107.2 107.2 48 107.2 107.2z m285.7 0c0 59.1-48 107.1-107.2 107.1s-107.1-48-107.1-107.1 48-107.2 107.1-107.2v0c59.2 0 107.2 48 107.2 107.2z" /></svg>