<svg height="1000" width="714.3" xmlns="http://www.w3.org/2000/svg"><path d="m651.2 357.1c7.3 74.3-24 118.9-73.1 144 81.5 19.5 132.8 68.1 122.8 176.9-12.8 135.6-113.3 171.9-257.3 179.7v142.3h-85.9v-140.1c-21.8 0-44.6 0-68.1-0.5v140.6h-85.9v-142.3c-20.1 0-40.2-0.6-60.8-0.6h-111.7l17.3-102.1c63.1 1.1 62 0 62 0 24 0 30.7-17.3 32.4-28.4v-224.4h8.9c-3.4-0.5-6.7-0.5-8.9-0.5v-160.2c-3.4-17.8-14.6-37.9-49.7-37.9 0 0 1.1-1.1-62 0v-91.5l118.4 0.5v0c17.3 0 35.7 0 54.1-0.5v-140.7h85.9v137.9c22.9-0.6 45.8-1.2 68.1-1.2v-136.7h85.9v140.7c110.5 9.4 198.1 43.5 207.6 145z m-119.9 304.2c0-110.5-182-94.3-240-94.3v188.6c58 0 240 12.3 240-94.3z m-39.7-265.7c0-101-151.8-85.9-200.3-85.9v171.3c48.5 0 200.3 11.2 200.3-85.4z" /></svg>