<svg height="1000" width="928.6" xmlns="http://www.w3.org/2000/svg"><path d="m910.7 535.7c0 19.5-16.2 35.7-35.7 35.7h-125c0 69.8-15.1 122.2-37.4 161.9l116.1 116.6c13.9 13.9 13.9 36.3 0 50.2-6.7 7.3-16.2 10.6-25.1 10.6s-18.4-3.3-25.1-10.6l-110.5-109.9s-73.1 66.9-168 66.9v-500h-71.4v500c-101 0-174.7-73.6-174.7-73.6l-102.1 115.5c-7.3 7.8-16.8 11.7-26.8 11.7-8.4 0-16.7-2.8-24-8.9-14.5-13.4-15.6-35.7-2.8-50.8l112.7-126.7c-19.5-38.5-32.3-88.1-32.3-152.9h-125c-19.6 0-35.7-16.2-35.7-35.7s16.1-35.7 35.7-35.7h125v-164.1l-96.6-96.5c-13.9-14-13.9-36.3 0-50.2s36.3-14 50.3 0l96.5 96.5h471l96.5-96.5c14-14 36.3-14 50.2 0s14 36.2 0 50.2l-96.5 96.5v164.1h125c19.5 0 35.7 16.2 35.7 35.7z m-267.8-321.4h-357.2c0-98.8 79.8-178.6 178.6-178.6s178.6 79.8 178.6 178.6z" /></svg>