<svg height="1000" width="857.1" xmlns="http://www.w3.org/2000/svg"><path d="m750 0c19.5 0 35.7 16.2 35.7 35.7v928.6c0 19.5-16.2 35.7-35.7 35.7h-714.3c-19.5 0-35.7-16.2-35.7-35.7v-928.6c0-19.5 16.2-35.7 35.7-35.7h714.3z m-464.3 160.7v35.7c0 10.1 7.8 17.9 17.9 17.9h35.7c10 0 17.8-7.8 17.8-17.9v-35.7c0-10-7.8-17.8-17.8-17.8h-35.7c-10.1 0-17.9 7.8-17.9 17.8z m0 142.9v35.7c0 10 7.8 17.8 17.9 17.8h35.7c10 0 17.8-7.8 17.8-17.8v-35.7c0-10.1-7.8-17.9-17.8-17.9h-35.7c-10.1 0-17.9 7.8-17.9 17.9z m0 142.8v35.7c0 10.1 7.8 17.9 17.9 17.9h35.7c10 0 17.8-7.8 17.8-17.9v-35.7c0-10-7.8-17.8-17.8-17.8h-35.7c-10.1 0-17.9 7.8-17.9 17.8z m0 142.9v35.7c0 10 7.8 17.9 17.9 17.9h35.7c10 0 17.8-7.9 17.8-17.9v-35.7c0-10.1-7.8-17.9-17.8-17.9h-35.7c-10.1 0-17.9 7.8-17.9 17.9z m-71.4 178.6v-35.8c0-10-7.8-17.8-17.9-17.8h-35.7c-10 0-17.8 7.8-17.8 17.8v35.8c0 10 7.8 17.8 17.8 17.8h35.7c10.1 0 17.9-7.8 17.9-17.8z m0-142.9v-35.7c0-10.1-7.8-17.9-17.9-17.9h-35.7c-10 0-17.8 7.8-17.8 17.9v35.7c0 10 7.8 17.9 17.8 17.9h35.7c10.1 0 17.9-7.9 17.9-17.9z m0-142.9v-35.7c0-10-7.8-17.8-17.9-17.8h-35.7c-10 0-17.8 7.8-17.8 17.8v35.7c0 10.1 7.8 17.9 17.8 17.9h35.7c10.1 0 17.9-7.8 17.9-17.9z m0-142.8v-35.7c0-10.1-7.8-17.9-17.9-17.9h-35.7c-10 0-17.8 7.8-17.8 17.9v35.7c0 10 7.8 17.8 17.8 17.8h35.7c10.1 0 17.9-7.8 17.9-17.8z m0-142.9v-35.7c0-10-7.8-17.8-17.9-17.8h-35.7c-10 0-17.8 7.8-17.8 17.8v35.7c0 10.1 7.8 17.9 17.8 17.9h35.7c10.1 0 17.9-7.8 17.9-17.9z m285.7 714.3v-107.1c0-10.1-7.8-17.9-17.9-17.9h-178.5c-10.1 0-17.9 7.8-17.9 17.9v107.1c0 10.1 7.8 17.9 17.9 17.9h178.5c10.1 0 17.9-7.8 17.9-17.9z m0-285.7v-35.7c0-10.1-7.8-17.9-17.9-17.9h-35.7c-10 0-17.8 7.8-17.8 17.9v35.7c0 10 7.8 17.9 17.8 17.9h35.7c10.1 0 17.9-7.9 17.9-17.9z m0-142.9v-35.7c0-10-7.8-17.8-17.9-17.8h-35.7c-10 0-17.8 7.8-17.8 17.8v35.7c0 10.1 7.8 17.9 17.8 17.9h35.7c10.1 0 17.9-7.8 17.9-17.9z m0-142.8v-35.7c0-10.1-7.8-17.9-17.9-17.9h-35.7c-10 0-17.8 7.8-17.8 17.9v35.7c0 10 7.8 17.8 17.8 17.8h35.7c10.1 0 17.9-7.8 17.9-17.8z m0-142.9v-35.7c0-10-7.8-17.8-17.9-17.8h-35.7c-10 0-17.8 7.8-17.8 17.8v35.7c0 10.1 7.8 17.9 17.8 17.9h35.7c10.1 0 17.9-7.8 17.9-17.9z m142.9 571.5v-35.8c0-10-7.9-17.8-17.9-17.8h-35.7c-10.1 0-17.9 7.8-17.9 17.8v35.8c0 10 7.8 17.8 17.9 17.8h35.7c10 0 17.9-7.8 17.9-17.8z m0-142.9v-35.7c0-10.1-7.9-17.9-17.9-17.9h-35.7c-10.1 0-17.9 7.8-17.9 17.9v35.7c0 10 7.8 17.9 17.9 17.9h35.7c10 0 17.9-7.9 17.9-17.9z m0-142.9v-35.7c0-10-7.9-17.8-17.9-17.8h-35.7c-10.1 0-17.9 7.8-17.9 17.8v35.7c0 10.1 7.8 17.9 17.9 17.9h35.7c10 0 17.9-7.8 17.9-17.9z m0-142.8v-35.7c0-10.1-7.9-17.9-17.9-17.9h-35.7c-10.1 0-17.9 7.8-17.9 17.9v35.7c0 10 7.8 17.8 17.9 17.8h35.7c10 0 17.9-7.8 17.9-17.8z m0-142.9v-35.7c0-10-7.9-17.8-17.9-17.8h-35.7c-10.1 0-17.9 7.8-17.9 17.8v35.7c0 10.1 7.8 17.9 17.9 17.9h35.7c10 0 17.9-7.8 17.9-17.9z" /></svg>