<svg height="1000" width="1000.0" xmlns="http://www.w3.org/2000/svg"><path d="m928.6 357.1c39.6 0 71.4 31.9 71.4 71.5s-31.8 71.4-71.4 71.4v214.3c0 39-32.4 71.4-71.5 71.4-99.3-82.6-259.4-195.9-453.1-212-66.4 22.3-89.3 99.8-45.7 144.5-39.1 64.2 11.1 109.4 70.3 155.7-34.6 68.1-178.6 69.2-229.9 21.7-32.4-99.3-80.4-198.6-41.3-324.2h-68.1c-49.1 0-89.3-40.1-89.3-89.3v-107.1c0-49.1 40.2-89.3 89.3-89.3h267.8c214.3 0 392.9-125 500-214.3 39.1 0 71.5 32.4 71.5 71.5v214.2z m-71.5 337.1v-532.4c-145.6 111.6-286.8 175.8-428.5 191.4v150.7c141.7 15.6 282.9 78.7 428.5 190.3z" /></svg>