<svg height="1000" width="857.1" xmlns="http://www.w3.org/2000/svg"><path d="m571.4 500c0 78.7-64.1 142.9-142.8 142.9s-142.9-64.2-142.9-142.9 64.2-142.9 142.9-142.9 142.8 64.2 142.8 142.9z m71.5 0c0-118.3-96-214.3-214.3-214.3s-214.3 96-214.3 214.3 96 214.3 214.3 214.3 214.3-96 214.3-214.3z m71.4 0c0 157.9-127.8 285.7-285.7 285.7s-285.7-127.8-285.7-285.7 127.7-285.7 285.7-285.7 285.7 127.8 285.7 285.7z m71.4 0c0-197-160.1-357.1-357.1-357.1s-357.2 160.1-357.2 357.1 160.2 357.1 357.2 357.1 357.1-160.1 357.1-357.1z m71.4 0c0 236.6-191.9 428.6-428.5 428.6s-428.6-192-428.6-428.6 192-428.6 428.6-428.6 428.5 192 428.5 428.6z" /></svg>