<svg height="1000" width="750.0" xmlns="http://www.w3.org/2000/svg"><path d="m375 250q-35.2 0-59.6-24.4t-24.4-59.6q0-23.4 13.7-43l70.3-123 70.3 123q13.7 19.6 13.7 43 0 35.2-24.4 59.6t-59.6 24.4z m191.4 416q43 43 101.6 43 44.9 0 82-25.4v191.4q0 17.6-12.7 29.3t-28.3 11.7h-668q-15.6 0-28.3-11.7t-12.7-29.3v-191.4q37.1 25.4 82 25.4 58.6 0 101.6-43l44.9-44.9 44.9 44.9q41.1 41 101.6 41t101.6-41l44.9-44.9z m58.6-291q52.7 0 88.9 36.1t36.1 88.9v64.5q0 33.2-24.4 57.6t-57.6 24.4-56.7-23.5l-89.8-89.8-89.9 89.8q-21.4 21.5-56.6 21.5t-58.6-21.5l-87.9-89.8-89.8 89.8q-23.5 23.5-56.7 23.5t-57.6-24.4-24.4-57.6v-64.5q0-52.7 36.1-88.9t88.9-36.1h209v-84h82v84h209z" /></svg>