<svg height="1000" width="1000.0" xmlns="http://www.w3.org/2000/svg"><path d="m214.3 857.1c0-39.6-31.8-71.4-71.4-71.4s-71.5 31.8-71.5 71.4 31.8 71.5 71.5 71.5 71.4-31.8 71.4-71.5z m214.3 0c0-39.6-31.8-71.4-71.5-71.4s-71.4 31.8-71.4 71.4 31.8 71.5 71.4 71.5 71.5-31.8 71.5-71.5z m-214.3-214.2c0-39.7-31.8-71.5-71.4-71.5s-71.5 31.8-71.5 71.5 31.8 71.4 71.5 71.4 71.4-31.8 71.4-71.4z m428.6 214.2c0-39.6-31.9-71.4-71.5-71.4s-71.4 31.8-71.4 71.4 31.8 71.5 71.4 71.5 71.5-31.8 71.5-71.5z m-214.3-214.2c0-39.7-31.8-71.5-71.5-71.5s-71.4 31.8-71.4 71.5 31.8 71.4 71.4 71.4 71.5-31.8 71.5-71.4z m-214.3-214.3c0-39.6-31.8-71.5-71.4-71.5s-71.5 31.9-71.5 71.5 31.8 71.4 71.5 71.4 71.4-31.8 71.4-71.4z m428.6 214.3c0-39.7-31.9-71.5-71.5-71.5s-71.4 31.8-71.4 71.5 31.8 71.4 71.4 71.4 71.5-31.8 71.5-71.4z m-214.3-214.3c0-39.6-31.8-71.5-71.5-71.5s-71.4 31.9-71.4 71.5 31.8 71.4 71.4 71.4 71.5-31.8 71.5-71.4z m428.5 428.5v-214.2c0-39.1-32.3-71.5-71.4-71.5v0c-39 0-71.4 32.4-71.4 71.5v214.2c0 39.1 32.4 71.5 71.4 71.5v0c39.1 0 71.4-32.4 71.4-71.5z m-214.2-428.5c0-39.6-31.9-71.5-71.5-71.5s-71.4 31.9-71.4 71.5 31.8 71.4 71.4 71.4 71.5-31.8 71.5-71.4z m214.2-178.6v-142.9c0-19.5-16.1-35.7-35.7-35.7h-714.3c-19.5 0-35.7 16.2-35.7 35.7v142.9c0 19.5 16.2 35.7 35.7 35.7h714.3c19.6 0 35.7-16.2 35.7-35.7z m0 178.6c0-39.6-31.8-71.5-71.4-71.5s-71.4 31.9-71.4 71.5 31.8 71.4 71.4 71.4 71.4-31.8 71.4-71.4z m71.5-357.2v857.2c0 39-32.4 71.4-71.5 71.4h-785.7c-39 0-71.4-32.4-71.4-71.4v-857.2c0-39 32.4-71.4 71.4-71.4h785.7c39.1 0 71.5 32.4 71.5 71.4z" /></svg>