<svg height="1000" width="1000.0" xmlns="http://www.w3.org/2000/svg"><path d="m620 772.9l-25.7 25.6c-6.7 6.7-17.8 6.7-25.1 0l-104.9-105.4-104.9 105.4c-7.3 6.7-18.4 6.7-25.1 0l-25.7-25.6c-6.7-6.7-6.7-17.9 0-25.1l105.5-104.9-105.5-105c-6.7-7.2-6.7-18.4 0-25.1l25.7-25.6c6.7-6.7 17.8-6.7 25.1 0l104.9 104.9 104.9-104.9c7.3-6.7 18.4-6.7 25.1 0l25.7 25.6c6.7 6.7 6.7 17.9 0 25.1l-104.9 105 104.9 104.9c6.7 7.2 6.7 18.4 0 25.1z m-548.6 155.7h785.7v-571.5h-785.7v571.5z m214.3-678.6v-160.7c0-10.1-7.8-17.9-17.8-17.9h-35.8c-10 0-17.8 7.8-17.8 17.9v160.7c0 10 7.8 17.9 17.8 17.9h35.8c10 0 17.8-7.9 17.8-17.9z m428.6 0v-160.7c0-10.1-7.8-17.9-17.9-17.9h-35.7c-10 0-17.8 7.8-17.8 17.9v160.7c0 10 7.8 17.9 17.8 17.9h35.7c10.1 0 17.9-7.9 17.9-17.9z m214.3-35.7v714.3c0 39-32.4 71.4-71.5 71.4h-785.7c-39 0-71.4-32.4-71.4-71.4v-714.3c0-39.1 32.4-71.4 71.4-71.4h71.5v-53.6c0-49.1 40.1-89.3 89.2-89.3h35.8c49.1 0 89.2 40.2 89.2 89.3v53.6h214.3v-53.6c0-49.1 40.2-89.3 89.3-89.3h35.7c49.1 0 89.3 40.2 89.3 89.3v53.6h71.4c39.1 0 71.5 32.3 71.5 71.4z" /></svg>