<svg height="1000" width="928.6" xmlns="http://www.w3.org/2000/svg"><path d="m71.4 928.6h160.7v-160.7h-160.7v160.7z m196.5 0h178.5v-160.7h-178.5v160.7z m-196.5-196.5h160.7v-178.5h-160.7v178.5z m196.5 0h178.5v-178.5h-178.5v178.5z m-196.5-214.2h160.7v-160.8h-160.7v160.8z m410.7 410.7h178.6v-160.7h-178.6v160.7z m-214.2-410.7h178.5v-160.8h-178.5v160.8z m428.5 410.7h160.7v-160.7h-160.7v160.7z m-214.3-196.5h178.6v-178.5h-178.6v178.5z m-196.4-482.1v-160.7c0-9.5-8.4-17.9-17.8-17.9h-35.8c-9.4 0-17.8 8.4-17.8 17.9v160.7c0 9.5 8.4 17.9 17.8 17.9h35.8c9.4 0 17.8-8.4 17.8-17.9z m410.7 482.1h160.7v-178.5h-160.7v178.5z m-214.3-214.2h178.6v-160.8h-178.6v160.8z m214.3 0h160.7v-160.8h-160.7v160.8z m17.9-267.9v-160.7c0-9.5-8.4-17.9-17.9-17.9h-35.7c-9.5 0-17.8 8.4-17.8 17.9v160.7c0 9.5 8.3 17.9 17.8 17.9h35.7c9.5 0 17.9-8.4 17.9-17.9z m214.3-35.7v714.3c0 39-32.4 71.4-71.5 71.4h-785.7c-39 0-71.4-32.4-71.4-71.4v-714.3c0-39.1 32.4-71.4 71.4-71.4h71.5v-53.6c0-49.1 40.1-89.3 89.2-89.3h35.8c49.1 0 89.2 40.2 89.2 89.3v53.6h214.3v-53.6c0-49.1 40.2-89.3 89.3-89.3h35.7c49.1 0 89.3 40.2 89.3 89.3v53.6h71.4c39.1 0 71.5 32.3 71.5 71.4z" /></svg>