<svg height="1000" width="834.0" xmlns="http://www.w3.org/2000/svg"><path d="m750 209q35.2 0 59.6 24.4t24.4 57.6v500q0 35.2-24.4 59.6t-59.6 24.4h-291v-87.9q87.9-13.7 147.4-84t59.6-162.1h-82q0 70.3-48.8 119.2t-118.2 48.8-118.2-48.8-48.8-119.2h-84q0 91.8 59.6 162.1t149.4 84v87.9h-291q-35.2 0-59.6-24.4t-24.4-59.6v-500q0-33.2 24.4-57.6t59.6-24.4h130.8l76.2-84h250l76.2 84h132.8z m-250 332v-166q0-35.2-24.4-59.6t-58.6-24.4-58.6 24.4-24.4 59.6v166q0 35.2 24.4 59.6t58.6 24.4 58.6-24.4 24.4-59.6z" /></svg>