<svg height="1000" width="1071.4" xmlns="http://www.w3.org/2000/svg"><path d="m535.7 375c88.7 0 160.7 72 160.7 160.7s-72 160.7-160.7 160.7-160.7-72-160.7-160.7 72-160.7 160.7-160.7z m392.9-232.1c78.7 0 142.8 64.1 142.8 142.8v500c0 78.7-64.1 142.9-142.8 142.9h-785.7c-78.7 0-142.9-64.2-142.9-142.9v-500c0-78.7 64.2-142.8 142.9-142.8h125l28.4-75.9c14-36.9 57.5-67 96.6-67h285.7c39 0 82.6 30.1 96.5 67l28.5 75.9h125z m-392.9 642.8c137.8 0 250-112.2 250-250s-112.2-250-250-250-250 112.2-250 250 112.2 250 250 250z" /></svg>