<svg height="1000" width="1000.0" xmlns="http://www.w3.org/2000/svg"><path d="m517.9 464.3c0-10.1-7.9-17.9-17.9-17.9-49.1 0-89.3 40.2-89.3 89.3 0 10.1 7.8 17.9 17.9 17.9s17.8-7.8 17.8-17.9c0-29.6 24-53.6 53.6-53.6 10 0 17.9-7.8 17.9-17.8z m125 72.5c0 78.7-64.2 142.9-142.9 142.9s-142.9-64.2-142.9-142.9 64.2-142.8 142.9-142.8 142.9 64.1 142.9 142.8z m-571.5 320.3h857.2v-71.4h-857.2v71.4z m642.9-320.3c0-118.3-96-214.3-214.3-214.3s-214.3 96-214.3 214.3 96 214.3 214.3 214.3 214.3-96 214.3-214.3z m-571.4-358.2h214.2v-71.5h-214.2v71.5z m-71.5 107.1h857.2v-65.8-77h-462.1l-35.7 71.4h-359.4v71.4z m928.6-142.8v714.2c0 39.7-31.8 71.5-71.4 71.5h-857.2c-39.6 0-71.4-31.8-71.4-71.5v-714.2c0-39.7 31.8-71.5 71.4-71.5h857.2c39.6 0 71.4 31.8 71.4 71.5z" /></svg>