<svg height="1000" width="834.0" xmlns="http://www.w3.org/2000/svg"><path d="m750 209q35.2 0 59.6 24.4t24.4 57.6v500q0 35.2-24.4 59.6t-59.6 24.4h-666q-35.2 0-59.6-24.4t-24.4-59.6v-500q0-33.2 24.4-57.6t59.6-24.4h132.8l74.2-84h250l76.2 84h132.8z m0 582v-500h-334v43q-85.9 0-146.5 60.5t-60.5 147.5 60.5 147.5 146.5 60.5v41h334z m-125-249q0 86.9-60.5 147.5t-148.5 60.5v-74.2q56.7 0 95.7-39.1t39.1-94.7-39.1-94.7-95.7-39.1v-74.2q87.9 0 148.5 60.5t60.5 147.5z m-341.8 0q0-55.7 39.1-94.7t93.7-39.1v267.6q-54.7 0-93.7-39.1t-39.1-94.7z" /></svg>