<svg height="1000" width="1142.9" xmlns="http://www.w3.org/2000/svg"><path d="m267.9 607.1c0-49.1-40.2-89.2-89.3-89.2s-89.3 40.1-89.3 89.2 40.2 89.3 89.3 89.3 89.3-40.1 89.3-89.3z m20-178.5h567l-49.7-199.2c-1.6-6.2-12.8-15.1-19.5-15.1h-428.6c-6.7 0-17.8 8.9-19.5 15.1z m765.7 178.5c0-49.1-40.2-89.2-89.3-89.2s-89.3 40.1-89.3 89.2 40.2 89.3 89.3 89.3 89.3-40.1 89.3-89.3z m89.3-53.5v214.3c0 10-7.9 17.8-17.9 17.8h-53.6v71.4c0 59.2-48 107.2-107.1 107.2s-107.2-48-107.2-107.2v-71.4h-571.4v71.4c0 59.2-48 107.2-107.1 107.2s-107.2-48-107.2-107.2v-71.4h-53.5c-10.1 0-17.9-7.8-17.9-17.8v-214.3c0-69.2 55.8-125 125-125h15.6l58.6-233.8c17.3-70.4 85.4-123.4 157.9-123.4h428.6c72.6 0 140.6 53 157.9 123.4l58.6 233.8h15.7c69.2 0 125 55.8 125 125z" /></svg>