<svg height="1000" width="834.0" xmlns="http://www.w3.org/2000/svg"><path d="m750 250q35.2 0 59.6 24.4t24.4 59.6v457q0 35.2-24.4 59.6t-59.6 24.4h-666q-35.2 0-59.6-24.4t-24.4-59.6v-457q0-35.2 24.4-59.6t59.6-24.4h89.8q-7.8-21.5-7.8-41 0-52.7 37.1-88.9t87.9-36.1q66.4 0 105.5 54.7l19.5 29.3 21.5-29.3q37.1-54.7 103.5-54.7 52.8 0 88.9 36.1t36.1 88.9q0 19.5-7.8 41h91.8z m-208-84q-16.6 0-29.3 12.7t-12.7 29.3 12.7 29.3 29.3 12.7 29.3-12.7 12.7-29.3-12.7-29.3-29.3-12.7z m-250 0q-16.6 0-29.3 12.7t-12.7 29.3 12.7 29.3 29.3 12.7 29.3-12.7 12.7-29.3-12.7-29.3-29.3-12.7z m458 625v-82h-666v82h666z m0-207v-250h-210.9l85.9 117.2-68.4 48.8-97.6-134.8-43-56.6-41 56.6-99.6 134.8-66.4-48.8 85.9-117.2h-210.9v250h666z" /></svg>