<svg height="1000" width="857.1" xmlns="http://www.w3.org/2000/svg"><path d="m607.1 500c0 11.7-5.5 22.3-15 29l-250 178.6c-10.6 7.8-25.1 8.9-36.9 2.8-12.2-6.2-19.5-18.4-19.5-31.8v-357.2c0-13.4 7.3-25.6 19.5-31.8 11.8-6.1 26.3-5 36.9 2.8l250 178.6c9.5 6.7 15 17.3 15 29z m107.2 267.9v-535.8c0-10-7.8-17.8-17.9-17.8h-535.7c-10 0-17.8 7.8-17.8 17.8v535.8c0 10 7.8 17.8 17.8 17.8h535.7c10.1 0 17.9-7.8 17.9-17.8z m142.8-535.8v535.8c0 88.7-71.9 160.7-160.7 160.7h-535.7c-88.7 0-160.7-72-160.7-160.7v-535.8c0-88.7 72-160.7 160.7-160.7h535.7c88.8 0 160.7 72 160.7 160.7z" /></svg>