<svg height="1000" width="857.1" xmlns="http://www.w3.org/2000/svg"><path d="m639 623.3c-6.2 12.3-18.5 19.6-31.9 19.6h-357.1c-13.4 0-25.7-7.3-31.8-19.6-6.1-11.7-5-26.2 2.8-36.8l178.6-250c6.7-9.5 17.3-15.1 29-15.1s22.3 5.6 29 15.1l178.6 250c7.8 10.6 8.9 25.1 2.8 36.8z m75.3 144.6v-535.8c0-9.4-8.4-17.8-17.9-17.8h-535.7c-9.5 0-17.8 8.4-17.8 17.8v535.8c0 9.4 8.3 17.8 17.8 17.8h535.7c9.5 0 17.9-8.4 17.9-17.8z m142.8-535.8v535.8c0 88.7-71.9 160.7-160.7 160.7h-535.7c-88.7 0-160.7-72-160.7-160.7v-535.8c0-88.7 72-160.7 160.7-160.7h535.7c88.8 0 160.7 72 160.7 160.7z" /></svg>