<svg height="1000" width="857.1" xmlns="http://www.w3.org/2000/svg"><path d="m571.4 321.4v357.2c0 19.5-16.2 35.7-35.7 35.7-7.2 0-14.5-2.2-20.6-6.7l-250-178.6c-9.5-6.7-15.1-17.3-15.1-29 0-11.2 5.6-22.3 15.1-29l250-178.6c6.1-4.5 13.4-6.7 20.6-6.7 19.5 0 35.7 16.2 35.7 35.7z m142.9 446.5v-535.8c0-9.4-8.4-17.8-17.9-17.8h-535.7c-9.5 0-17.8 8.4-17.8 17.8v535.8c0 9.4 8.3 17.8 17.8 17.8h535.7c9.5 0 17.9-8.4 17.9-17.8z m142.8-535.8v535.8c0 88.7-71.9 160.7-160.7 160.7h-535.7c-88.7 0-160.7-72-160.7-160.7v-535.8c0-88.7 72-160.7 160.7-160.7h535.7c88.8 0 160.7 72 160.7 160.7z" /></svg>