<svg height="1000" width="928.6" xmlns="http://www.w3.org/2000/svg"><path d="m714.3 392.9c0-19.6-16.2-35.8-35.7-35.8-9.5 0-18.4 3.9-25.1 10.6l-82.1 81.5v-163.5c0-19.5-16.2-35.7-35.7-35.7s-35.7 16.2-35.7 35.7v163.5l-82-81.5c-6.7-6.7-15.7-10.6-25.1-10.6-19.6 0-35.8 16.2-35.8 35.8 0 9.4 3.9 18.4 10.6 25.1l142.9 142.8c6.7 6.7 15.6 10.6 25.1 10.6s18.4-3.9 25.1-10.6l142.9-142.8c6.7-6.7 10.6-15.7 10.6-25.1z m-357.2 464.2c0 39.7-31.8 71.5-71.4 71.5s-71.4-31.8-71.4-71.5 31.8-71.4 71.4-71.4 71.4 31.8 71.4 71.4z m500 0c0 39.7-31.8 71.5-71.4 71.5s-71.4-31.8-71.4-71.5 31.8-71.4 71.4-71.4 71.4 31.8 71.4 71.4z m71.5-607.1v285.7c0 17.9-13.4 33.5-31.8 35.7l-582.6 68.1c2.2 12.3 7.2 26.2 7.2 39.1s-7.8 24.5-13.4 35.7h513.4c19.6 0 35.7 16.2 35.7 35.7s-16.1 35.7-35.7 35.7h-571.4c-19.5 0-35.7-16.2-35.7-35.7 0-17.3 26.2-60.3 34-76.5l-98.7-459.2h-113.9c-19.5 0-35.7-16.2-35.7-35.7s16.2-35.7 35.7-35.7h142.9c37.9 0 38.5 44.6 44.1 71.4h670.2c19.5 0 35.7 16.2 35.7 35.7z" /></svg>