<svg height="1000" width="1000.0" xmlns="http://www.w3.org/2000/svg"><path d="m41.7 750v125h125c0-69-56.1-125-125-125z m0-166.7v83.4c115 0 208.3 93.3 208.3 208.3h83.3c0-161-130.6-291.7-291.6-291.7z m750-291.6h-583.4v68.1c165 53.3 295.2 183.5 348.6 348.5h234.8v-416.6z m-750 125v83.3c207.1 0 375 167.9 375 375h83.3c0-253.1-205.2-458.3-458.3-458.3z m833.3-291.7h-750c-46 0-83.3 37.3-83.3 83.3v125h83.3v-125h750v583.4h-291.7v83.3h291.7c46 0 83.3-37.3 83.3-83.3v-583.4c0-46-37.3-83.3-83.3-83.3z" /></svg>