<svg height="1000" width="1285.7" xmlns="http://www.w3.org/2000/svg"><path d="m478.8 692.5v-386.7c-77.6 30.1-132.8 105.5-132.8 193.6s55.2 163.5 132.8 193.1z m281.2-193.1c0-88.1-55.2-163.5-132.8-193.6v387.3c77.6-30.2 132.8-105.5 132.8-193.7z m120 0c0 180.3-146.2 327.1-327 327.1-180.2 0-327-146.8-327-327.1 0-180.8 146.8-327 327-327 180.8 0 327 146.2 327 327z m213.8 3.9c0-213.1-178.1-360.4-373.4-360.4h-167.9c-197.6 0-360.5 147.3-360.5 360.4 0 194.8 162.9 353.8 360.5 353.8h167.9c195.3 0 373.4-159 373.4-353.8z m191.9-360.4v714.2c0 39.1-32.4 71.5-71.4 71.5h-1142.9c-39 0-71.4-32.4-71.4-71.5v-714.2c0-39.1 32.4-71.5 71.4-71.5h1142.9c39 0 71.4 32.4 71.4 71.5z" /></svg>