<svg height="1000" width="1285.7" xmlns="http://www.w3.org/2000/svg"><path d="m415.7 505.6c0 27.3-21.7 48-49.1 48-20.6 0-35.7-11.7-35.7-33.5 0-27.4 21.2-49.1 48.6-49.1 20.6 0 36.2 12.8 36.2 34.6z m438.1-83.2c0 33.5-20.1 40.2-49.1 40.2l-17.9 0.6 9.5-59.7c0.6-3.9 3.4-6.2 7.3-6.2h10c19 0 40.2 1.1 40.2 25.1z m195.9 83.2c0 27.3-21.8 48-48.6 48-20.6 0-36.3-11.7-36.3-33.5 0-27.4 21.2-49.1 48.6-49.1 20.6 0 36.3 12.8 36.3 34.6z m-763.4-95.4c0-46.9-36.3-62.5-77.6-62.5h-89.3c-5.6 0-11.1 4.4-11.7 10.6l-36.3 227.6c-0.5 4.5 2.8 9 7.3 9h42.4c6.1 0 11.7-4.5 12.3-10.6l10-61.4c2.2-16.2 29.6-10.6 40.2-10.6 63.6 0 102.7-38 102.7-102.1z m172.4 174.1l22.9-145.7c0.5-4.4-2.8-8.9-7.3-8.9h-42.4c-8.4 0-8.9 12.3-9.5 18.4-12.8-19-31.8-22.3-53-22.3-54.7 0-96.5 48-96.5 101 0 43.5 27.3 72 70.9 72 20 0 45.2-9 59.1-24.6-1.1 3.4-2.2 8.4-2.2 11.7 0 5.1 2.2 9 7.2 9h38.5c6.2 0 11.2-4.5 12.3-10.6z m249.4-146.8c0-3.9-3.3-7.8-7.2-7.8h-43c-3.9 0-7.8 2.2-10 5.6l-59.2 87-24.5-83.7c-1.7-5-6.7-8.9-12.3-8.9h-41.9c-3.9 0-7.2 3.9-7.2 7.8 0 2.8 43.5 128.9 47.4 140.6-6.1 8.4-45.7 60.3-45.7 67 0 3.9 3.3 7.2 7.2 7.2h43c3.9 0 7.8-2.2 10-5.5l142.3-205.4c1.1-1.1 1.1-2.2 1.1-3.9z m212.1-27.3c0-46.9-36.3-62.5-77.6-62.5h-88.7c-6.1 0-11.7 4.4-12.3 10.6l-36.2 227.6c-0.6 4.5 2.7 9 7.2 9h45.8c4.4 0 7.8-3.4 8.9-7.3l10-64.7c2.3-16.2 29.6-10.6 40.2-10.6 63.6 0 102.7-38 102.7-102.1z m172.4 174.1l22.9-145.7c0.6-4.4-2.8-8.9-7.2-8.9h-42.5c-8.3 0-8.9 12.3-9.4 18.4-12.3-19-31.3-22.3-53.1-22.3-54.6 0-96.5 48-96.5 101 0 43.5 27.4 72 70.9 72 20.6 0 45.7-9 59.1-24.6-0.5 3.4-2.2 8.4-2.2 11.7 0 5.1 2.2 9 7.3 9h38.5c6.1 0 11.1-4.5 12.2-10.6z m121.7-228.3v-0.5c0-4.5-3.4-7.8-7.3-7.8h-41.3c-3.3 0-6.7 2.7-7.2 6.1l-36.3 232.1-0.5 1.2c0 3.9 3.3 7.8 7.8 7.8h36.8c5.6 0 11.2-4.5 11.7-10.6z m-995.5 74.8c-4.5 28.5-23.5 31.8-48 31.8l-18.5 0.6 9.5-59.7c0.6-3.9 3.9-6.2 7.3-6.2h10.6c25.1 0 44.1 3.4 39 33.5z m1066.9-287.9v714.2c0 39.1-32.4 71.5-71.4 71.5h-1142.9c-39 0-71.4-32.4-71.4-71.5v-714.2c0-39.1 32.4-71.5 71.4-71.5h1142.9c39 0 71.4 32.4 71.4 71.5z" /></svg>