<svg height="1000" width="1285.7" xmlns="http://www.w3.org/2000/svg"><path d="m179.7 472.7h-8.4c-5.6 0-10.6-3.9-10.6-10.1 0-11.7 6.7-35.7 10.6-47.4 3.9-12.3 12.3-13.4 24-13.4 19 0 43 2.2 43 27.3 0 33.5-30.2 43.6-58.6 43.6z m190.8 89.8c-11.7 0-26.2-1.7-26.2-16.2 0-31.2 45.8-34.6 68.6-34.6l1.7 1.7c-1.7 27.9-12.3 49.1-44.1 49.1z m432-88.7h-8.4c-6.2 0-10.6-4.5-10.6-10.6 0-11.2 6.7-35.7 10.6-47.5 3.9-12.2 12.3-12.8 24-12.8 19 0 42.9 2.2 42.9 27.3 0 33.5-30.1 43.6-58.5 43.6z m190.8 89.3c-11.7 0-26.2-2.3-26.2-16.8 0-31.2 45.7-34.6 68.6-34.6l1.7 1.7c-1.7 28.5-12.3 49.7-44.1 49.7z m-785.2-204.8h-71.4c-10 0-12.8 6.1-16.7 13.4-2.3 5-48.6 205.9-48.6 213.1 0 5.6 5.1 10.1 10.6 10.1h34.6c33 0 11.7-77 44.7-77 61.9 0 142.3-16.8 142.3-94.4 0-56.9-49.7-65.2-95.5-65.2z m193.1 53.5c-13.9 0-27.9 1.1-41.3 3.4-15 2.2-27.3 2.2-32.9 19-2.2 7.2-5 14.5-5 21.7 0 2.8 1.7 5.6 5 5.6 5 0 17.3-5 22.9-6.1 10.6-2.8 21.2-4.5 32.4-4.5 13.9 0 41.2 0 41.2 20.1 0 5 0 6.1-5.5 7.8-10.1 2.8-21.8 2.2-31.8 3.3-46.4 5.1-101.6 15.1-101.6 73.1 0 29.1 22.9 45.2 50.2 45.2 28.5 0 42.4-9.4 65.3-23.9v0c-1.1 2.7-1.7 5.5-1.7 8.3 0 5.6 4.5 10.6 10.1 10.6h31.2c7.3-3.3 13.4-4.4 15.1-13.4l25.1-108.2c1.7-5.6 2.2-11.2 2.2-16.8 0-41.8-50.2-45.2-80.9-45.2z m294.7 2.8h-41.3c-9 0-16.8 6.2-21.8 12.9-7.8 12.2-52.4 93.7-56.9 95.4l-2.8-2.3c0-26.7-7.3-66.9-15.1-92.6-5-16.2-25.1-14.5-39-14.5-7.8 0-21.2 1.1-21.2 11.7l0.5 2.8c5 55.3 21.2 108.8 27.9 164.1 0.6 4.4 1.1 8.9 1.1 13.4 0 20.6-34 48.5-34 66.9 0 7.3 17.9 7.3 22.3 7.3 15.1 0 33.5 0.5 42.4-14l136.8-231.5c2.2-4.5 5.5-9.5 5.5-14.6 0-2.7-1.6-5-4.4-5z m135-55.2h-72c-8.9 0-12.8 5.6-16.2 12.8-4.4 10.1-48.5 204.3-48.5 213.2 0 11.1 16.2 11.1 24 11.1 12.3 0 34 1.7 37.4-13.9l11.7-50.8c1.7-7.8 8.9-13.4 16.7-13.4 62 0 142.3-16.2 142.3-93.7 0-57-49.6-65.3-95.4-65.3z m193.1 52.4c-14 0-27.9 1.7-41.3 3.4-15.1 2.2-27.3 2.8-32.9 19.5-2.3 6.7-4.5 14-4.5 21.8 0 2.8 1.1 5.6 4.5 5.6 5 0 17.3-5.1 22.9-6.7 10.6-2.8 21.7-4.5 32.3-4.5 14 0 41.3 0 41.3 20.1 0 5 0 6.7-5.6 7.8-10 2.8-21.7 2.8-31.8 3.9-46.3 5-101.5 15.1-101.5 73.1 0 28.5 23.4 44.6 50.2 44.6 28.4 0 42.4-8.9 65.3-23.9v0c-0.6 2.7-1.7 5.5-1.7 8.9 0 12.8 21.8 11.1 30.1 11.1 10.6 0 24-1.6 26.8-13.9l25.1-108.3c1.2-5.5 1.7-11.7 1.7-17.3 0-41.8-49.7-45.2-80.9-45.2z m179.7-50.8h-30.7c-13.4 0-16.2 11.8-18.4 22.4-15.1 65.8-27.9 132.8-44.1 199.2v0 2.8c0 5 3.9 9.5 8.9 10h0.6 31.8c7.2 0 14.5-5.6 16.2-12.8l46.3-208.7h-0.6l0.6-2.8c0-5.6-5-10.1-10.6-10.1z m82-218.1v714.2c0 39.1-32.4 71.5-71.4 71.5h-1142.9c-39 0-71.4-32.4-71.4-71.5v-714.2c0-39.1 32.4-71.5 71.4-71.5h1142.9c39 0 71.4 32.4 71.4 71.5z" /></svg>