<svg height="1000" width="1285.7" xmlns="http://www.w3.org/2000/svg"><path d="m891.2 503.9c0 25.7-3.9 45.2-11.7 59.2-6.7 12.2-17.3 19.5-29.1 19.5-8.3 0-16.1-1.7-22.8-5v-125c14.5-15.1 27.3-16.8 31.8-16.8 21.2 0 31.8 23.5 31.8 68.1z m244.4-20.1h-61.4c2.3-37.4 12.3-54.7 31.3-54.7s29 17.9 30.1 54.7z m-870 75.4c0-46.9-28.4-66.5-74.8-83.2v0c-24.5-8.9-37.9-16.2-37.9-27.3 0-9.5 7.8-14.5 21.2-14.5 25.7 0 51.3 9.4 69.2 18.4l10-62.5c-13.9-6.7-42.9-17.9-83.1-17.9-28.5 0-51.9 7.3-68.6 21.2-17.9 14.5-26.8 35.7-26.8 60.8 0 45.8 27.9 65.9 73.6 82.1 29.1 10.6 39.1 17.8 39.1 29.5 0 11.2-9.5 17.3-26.8 17.3-21.2 0-56.3-10.6-79.2-23.9l-10.1 63c19.6 11.2 55.8 22.9 93.8 22.9 30.1 0 54.7-7.3 72-20.7 18.9-15 28.4-36.8 28.4-65.2z m164.6-120l10.6-62h-53.5v-75.3l-72 11.7-10.1 63.6-25.6 4.5-9.5 57.5h34.6v122.2c0 31.8 8.4 53.6 24.5 66.9 14 11.2 34.1 16.8 62 16.8 21.7 0 34.6-3.9 44.1-6.1v-65.9c-5.1 1.1-16.8 3.9-24.6 3.9-16.2 0-23.4-8.9-23.4-27.9v-109.9h42.9z m176.4 13.9v-77.5c-5.6-1.2-10.6-1.7-15.6-1.7-23.5 0-42.5 12.3-49.7 34.6l-5.6-31.3h-73.1v262.9h83.7v-170.8c10.6-12.8 25.7-17.3 45.8-17.3 4.4 0 8.9 0 14.5 1.1z m20.6 187h83.7v-262.9h-83.7v262.9z m347.1-139c0-44.6-8.3-78.7-25.1-99.9-15-19.5-35.7-29-61.9-29-24 0-45.2 10.1-65.3 31.3l-4.5-26.3h-73.6v360l83.7-14v-84.2c12.8 3.9 26.2 6.1 37.9 6.1 20.7 0 51.4-5.6 74.8-31.3 22.9-24.5 34-62.5 34-112.7z m-261.1-194.2c0-24.5-19.6-44.1-44.1-44.1s-44.1 19.6-44.1 44.1 19.5 44.7 44.1 44.7 44.1-20.1 44.1-44.7z m501.1 199.2c0-41.8-8.9-74.7-26.8-98.2-18.4-23.4-45.8-35.7-80.4-35.7-71.4 0-115.5 52.5-115.5 137.3 0 46.9 11.7 82.6 35.2 104.9 20.6 20.6 50.8 30.7 89.8 30.7 35.7 0 68.7-8.4 89.3-22.3l-8.9-57.5c-20.7 11.2-44.7 17.3-71.4 17.3-16.2 0-27.4-3.4-35.2-10.6-8.9-7.3-13.9-19.5-15.6-36.8h138.4c0.5-3.9 1.1-22.9 1.1-29.1z m71.4-363.2v714.2c0 39.1-32.4 71.5-71.4 71.5h-1142.9c-39 0-71.4-32.4-71.4-71.5v-714.2c0-39.1 32.4-71.5 71.4-71.5h1142.9c39 0 71.4 32.4 71.4 71.5z" /></svg>