<svg height="1000" width="857.1" xmlns="http://www.w3.org/2000/svg"><path d="m767.9 500l77 75.3c10.6 10.1 14.5 25.1 11.1 39.1-3.9 13.9-15 25.1-29 28.5l-104.9 26.7 29.6 103.8c3.9 14 0 29.1-10.6 39.1-10.1 10.6-25.1 14.5-39.1 10.6l-103.8-29.6-26.8 104.9c-3.3 14-14.5 25.1-28.4 29.1-3.4 0.5-7.3 1.1-10.6 1.1-10.6 0-21.2-4.5-28.5-12.3l-75.3-77-75.4 77c-10 10.6-25.1 14.5-39 11.2-14.5-4-25.1-15.1-28.5-29.1l-26.8-104.9-103.8 29.6c-13.9 3.9-29 0-39-10.6-10.6-10-14.5-25.1-10.6-39.1l29.5-103.8-104.9-26.7c-13.9-3.4-25.1-14.6-29-28.5-3.3-14 0.6-29 11.2-39.1l77-75.3-77-75.3c-10.6-10.1-14.5-25.1-11.2-39.1 3.9-13.9 15.1-25.1 29-28.5l104.9-26.7-29.5-103.8c-3.9-14 0-29.1 10.6-39.1 10-10.6 25.1-14.5 39-10.6l103.8 29.6 26.8-104.9c3.4-14 14.5-25.1 28.5-28.5 13.9-3.9 29 0 39 10.6l75.4 77.6 75.3-77.6c10.1-10.6 24.6-14.5 39.1-10.6 13.9 3.4 25.1 14.5 28.4 28.5l26.8 104.9 103.8-29.6c14-3.9 29 0 39.1 10.6 10.6 10 14.5 25.1 10.6 39.1l-29.6 103.8 104.9 26.7c14 3.4 25.1 14.6 29 28.5 3.4 14-0.5 29-11.1 39.1z" /></svg>