<svg height="1000" width="857.1" xmlns="http://www.w3.org/2000/svg"><path d="m653.5 453.7l-235.5 235.5c-14 13.9-36.3 13.9-50.3 0l-164-164.1c-14-13.9-14-36.3 0-50.2l56.9-56.9c14-14 36.3-14 50.2 0l82.1 82 153.4-153.5c14-13.9 36.3-13.9 50.2 0l57 57c13.9 13.9 13.9 36.2 0 50.2z m78.6 46.3c0-167.4-136.1-303.6-303.5-303.6s-303.6 136.2-303.6 303.6 136.2 303.6 303.6 303.6 303.5-136.2 303.5-303.6z m125 0c0 236.6-191.9 428.6-428.5 428.6s-428.6-192-428.6-428.6 192-428.6 428.6-428.6 428.5 192 428.5 428.6z" /></svg>