<svg height="1000" width="857.1" xmlns="http://www.w3.org/2000/svg"><path d="m716.5 409.6c0-9.5-3.3-19-10-25.7l-50.8-50.2c-6.7-6.7-15.6-10.6-25.1-10.6s-18.4 3.9-25.1 10.6l-227.7 227.1-126.1-126.1c-6.7-6.7-15.7-10.6-25.1-10.6s-18.5 3.9-25.1 10.6l-50.8 50.2c-6.7 6.7-10.1 16.2-10.1 25.7s3.4 18.4 10.1 25.1l202 202c6.7 6.7 16.2 10.6 25.1 10.6 9.5 0 19-3.9 25.7-10.6l303-303c6.7-6.7 10-15.6 10-25.1z m140.6 90.4c0 236.6-191.9 428.6-428.5 428.6s-428.6-192-428.6-428.6 192-428.6 428.6-428.6 428.5 192 428.5 428.6z" /></svg>