<svg height="1000" width="1000.0" xmlns="http://www.w3.org/2000/svg"><path d="m806.6 418q82.1 5.8 137.7 65.4t55.7 141.6q0 107.4-87.9 169.9l-60.5-60.5q64.4-37.1 64.4-109.4 0-52.7-36.1-88.9t-88.9-36.1h-62.5v-21.5q0-93.7-66.4-161.1t-162.1-67.4q-56.6 0-105.5 25.4l-62.5-60.6q78.2-48.8 168-48.8 113.3 0 199.2 72.3t107.4 179.7z m-681.6-199.2l52.7-52.8 697.3 697.3-52.7 52.7-84-82h-488.3q-103.5 0-176.8-73.3t-73.2-176.7q0-101.6 69.3-173.8t170.9-76.2z m197.3 197.2h-72.3q-68.4 0-117.2 48.8t-48.8 118.2 48.8 118.2 117.2 48.8h406.3z" /></svg>