<svg height="1000" width="1000.0" xmlns="http://www.w3.org/2000/svg"><path d="m806.5 418.1c-28.4-143.3-154.8-251.4-306.5-251.4-61.5 0-118.7 18.1-167.1 48.7l60.9 60.8c31.8-16.4 67.9-26.2 106.2-26.2 126.7 0 229.2 102.5 229.2 229.2v20.8h62.5c68.9 0 125 56 125 125 0 47.3-26.5 87.9-65.2 109.2l60.4 60.4c53.1-37.7 88.1-99.4 88.1-169.6 0-110-85.6-199.2-193.5-206.9z m-681.5-198.3l114.6 114.2c-132.9 5.6-239.6 115-239.6 249.3 0 138.2 111.9 250 250 250h488.5l83.4 83.4 53.1-52.9-696.9-697.1-53.1 53.1z m196.9 196.9l333.3 333.3h-405.2c-92.1 0-166.7-74.6-166.7-166.7s74.6-166.6 166.7-166.6h71.9z" /></svg>