<svg height="1000" width="1071.4" xmlns="http://www.w3.org/2000/svg"><path d="m714.3 482.1c0-4.4-1.7-9.4-5-12.8l-196.5-196.4c-3.3-3.4-7.8-5-12.8-5-4.5 0-9.5 1.6-12.8 5l-195.9 195.9c-3.4 3.9-5.6 8.3-5.6 13.3 0 10.1 7.8 17.9 17.9 17.9h125v196.4c0 9.5 8.3 17.9 17.8 17.9h107.2c9.5 0 17.8-8.4 17.8-17.9v-196.4h125c10.1 0 17.9-8.4 17.9-17.9z m357.1 160.8c0 118.3-96 214.2-214.3 214.2h-607.1c-137.8 0-250-112.1-250-250 0-97.1 56.4-185.2 144-226-0.6-8.3-1.1-16.1-1.1-24 0-157.9 127.7-285.7 285.7-285.7 116 0 220.4 70.3 264.5 177.5 25.7-22.3 58.6-34.6 92.6-34.6 78.7 0 142.9 64.2 142.9 142.8 0 27.4-7.8 54.2-22.9 77.1 97.1 22.8 165.7 109.3 165.7 208.7z" /></svg>