<svg height="1000" width="571.4" xmlns="http://www.w3.org/2000/svg"><path d="m160.7 821.4c0-29.5-24-53.5-53.6-53.5s-53.5 24-53.5 53.5 24 53.6 53.5 53.6 53.6-24 53.6-53.6z m0-642.8c0-29.6-24-53.6-53.6-53.6s-53.5 24-53.5 53.6 24 53.5 53.5 53.5 53.6-24 53.6-53.5z m357.2 71.4c0-29.6-24-53.6-53.6-53.6s-53.6 24-53.6 53.6 24 53.6 53.6 53.6 53.6-24 53.6-53.6z m53.5 0c0 39.6-21.7 74.2-53.5 92.6-1.7 201.5-144.6 246.1-239.4 276.3-88.8 27.9-117.8 41.3-117.8 95.4v14.5c31.8 18.4 53.6 53 53.6 92.6 0 59.2-48 107.2-107.2 107.2s-107.1-48-107.1-107.2c0-39.6 21.8-74.2 53.6-92.6v-457.6c-31.8-18.4-53.6-53-53.6-92.6 0-59.2 48-107.2 107.1-107.2s107.2 48 107.2 107.2c0 39.6-21.8 74.2-53.6 92.6v277.3c28.5-13.9 58.6-23.4 86-31.8 103.7-32.9 162.9-57.4 164-174.1-31.8-18.4-53.6-53-53.6-92.6 0-59.2 48-107.1 107.2-107.1s107.1 47.9 107.1 107.1z" /></svg>