<svg height="1000" width="1000.0" xmlns="http://www.w3.org/2000/svg"><path d="m864.4 378.9c40.7 0 64.7 21.2 64.7 62.5 0 43-29.5 60.8-69.7 60.8h-75.9v98.8h-14v-222.1h94.9z m89.8 329.2l-2.2 6.2v0l-2.8 5.6v0c-83.7 171.3-257.8 280.1-449.2 280.1-276.2 0-500-223.8-500-500s223.8-500 500-500c181.9 0 349.3 98.8 437.5 257.8v0c0 0.6 1.1 2.2 1.1 2.2v0l4.5 9c-55.3 28.4-112.2 55.8-167.4 85.4-89.9 48.5-178.6 99.8-267.3 149.5 147.3 70.3 296.3 138.4 445.8 204.2z m-454.2 279.6c186.4 0 356-106 438.1-273.4l-160.2-72c-53.6 104.4-160.7 169.6-277.9 169.6-171.9 0-311.9-140-311.9-311.9s140-311.9 311.9-311.9c112.2 0 214.3 57.4 270.1 155.1l156.2-79.8c-85.9-154.6-249.4-251.1-426.3-251.1-269.5 0-487.7 218.2-487.7 487.7s218.2 487.7 487.7 487.7z" /></svg>