<svg height="1000" width="916.0" xmlns="http://www.w3.org/2000/svg"><path d="m84 209v666h666v84h-666q-35.2 0-59.6-24.4t-24.4-59.6v-666h84z m457 291q0 35.2-24.4 59.6t-57.6 24.4h-125v-84h125v-41h-43q-33.2 0-57.6-24.4t-24.4-59.6v-41q0-35.2 24.4-59.6t57.6-24.4h43q33.2 0 57.6 24.4t24.4 59.6v166z m-125-125h43v-41h-43v41z m418-334q33.2 0 57.6 24.4t24.4 59.6v584q0 33.2-24.4 57.6t-57.6 24.4h-584q-35.2 0-59.6-24.4t-24.4-57.6v-584q0-35.2 24.4-59.6t59.6-24.4h584z m0 334v-250h-584v584h584v-250h-84v82h-84v-82h-82v-84h82v-84h84v84h84z" /></svg>