<svg height="1000" width="916.0" xmlns="http://www.w3.org/2000/svg"><path d="m84 209v666h666v84h-666q-35.2 0-59.6-24.4t-24.4-59.6v-666h84z m750-168q33.2 0 57.6 24.4t24.4 59.6v584q0 33.2-24.4 57.6t-57.6 24.4h-584q-35.2 0-59.6-24.4t-24.4-57.6v-584q0-35.2 24.4-59.6t59.6-24.4h584z m0 668v-584h-584v584h584z m-334-84q-35.2 0-59.6-24.4t-24.4-59.6v-62.5q0-25.4 18.6-43.9t43.9-18.6q-25.4 0-43.9-17.6t-18.6-44.9v-62.5q0-33.2 24.4-57.6t59.6-24.4h84q33.2 0 57.6 24.4t24.4 57.6v62.5q0 27.4-17.6 44.9t-44.9 17.6q27.4 0 44.9 18.6t17.6 43.9v62.5q0 35.2-24.4 59.6t-57.6 24.4h-84z m0-334v84h84v-84h-84z m0 168v82h84v-82h-84z" /></svg>