<svg height="1000" width="1000.0" xmlns="http://www.w3.org/2000/svg"><path d="m392.9 214.3c-174.1 0-321.5 98.2-321.5 214.3 0 61.4 41.3 120.5 112.8 161.8l54.1 31.3-19.5 46.8c11.7-6.7 23.4-13.9 34.5-21.7l24.6-17.3 29.6 5.5c27.9 5.1 56.3 7.9 85.4 7.9 174.1 0 321.4-98.3 321.4-214.3s-147.3-214.3-321.4-214.3z m0-71.4c217 0 392.8 127.7 392.8 285.7s-175.8 285.7-392.8 285.7c-34.1 0-67-3.4-98.3-8.9-46.3 32.9-98.7 56.9-155.1 71.4-15.1 3.9-31.2 6.7-48 8.9h-1.7c-8.3 0-16.1-6.7-17.8-16.2v0c-2.2-10.6 5-17.3 11.1-24.5 21.8-24.6 46.4-46.3 65.3-92.7-90.4-52.4-148.4-133.3-148.4-223.7 0-158 175.8-285.7 392.9-285.7z m458.7 652.3c18.9 46.3 43.5 68.1 65.3 92.6 6.1 7.3 13.3 14 11.1 24.6v0c-2.2 10-10.6 17.3-19.5 16.2-16.8-2.3-32.9-5.1-48-9-56.4-14.5-108.8-38.5-155.1-71.4-31.3 5.6-64.2 8.9-98.3 8.9-101 0-193.6-27.9-263.4-73.6 16.2 1.1 33 2.2 49.2 2.2 119.9 0 233.2-34.6 319.7-97.1 93.2-68.1 144.5-160.1 144.5-260 0-29-4.4-57.5-12.8-84.9 94.3 51.9 155.7 134.5 155.7 227.7 0 91-58 171.3-148.4 223.8z" /></svg>