<svg height="1000" width="1142.9" xmlns="http://www.w3.org/2000/svg"><path d="m1142.9 499.4c0 15.7-11.2 28.5-25.7 31.3l-114.4 198.7c1.1 3.3 1.7 6.6 1.7 10 0 15.1-10.6 27.9-25.1 30.7l-107.7 188c1.1 2.8 1.6 5.6 1.6 9 0 17.3-13.9 31.8-31.8 31.8-8.9 0-17.3-3.9-22.9-10.1h-223.2c-5.6 6.7-14.5 11.2-24 11.2s-18.4-4.5-24-11.2h-222.6c-5.6 6.7-14 11.2-24 11.2-17.3 0-31.8-14-31.8-31.8 0-3.9 1.1-7.8 2.2-11.2l-107.7-186.9c-14.5-2.8-25.1-15.6-25.1-30.7 0-3.9 0.6-6.7 1.7-10l-115-198.7c-14.5-3.4-25.1-16.2-25.1-31.3 0-15.6 11.2-28.4 26.2-31.2l111.1-192c0-1.1-0.6-2.2-0.6-3.3 0-12.9 7.8-23.5 19-28.5l116.6-202.5c-1.1-2.8-2.2-6.7-2.2-10.1 0-17.8 14.5-31.8 31.8-31.8 10 0 18.4 4.5 24.6 11.7h220.9c5.6-7.2 14-11.7 24-11.7s18.4 4.5 24 11.7h222.1c6.2-7.2 14.5-11.7 24.6-11.7 17.3 0 31.8 14 31.8 31.8 0 3.4-1.1 6.7-2.2 10.1l115.5 199.7c16.7 0.6 30.7 14.5 30.7 31.3 0 5.6-1.7 10.6-3.9 15l104.3 180.8c14 2.8 24.6 15.7 24.6 30.7z m-549.7 445.9h217.1l-190.9-197.5h-79.8l-190.8 197.5h200.9c5.5-5 13.4-8.9 21.7-8.9s16.2 3.9 21.8 8.9z m-530.7-453.1c0.6 2.2 0.6 4.5 0.6 7.2s0 5.6-1.2 8.4l116.1 200.9c2.8 0.6 5.6 2.2 8.4 3.4l104.9-111.1v-193.6l-104.4-108.3c-5 3.4-10.6 5-16.1 5.6z m487.7-437.5h-216.5l106 111.6 309.2-111.6h-156.3c-5.5 5.6-12.8 8.9-21.2 8.9s-15.6-3.3-21.2-8.9z m392.3 676.3c0.6-2.2 1.7-4.4 2.8-6.1l-35.7-38-9.5 44.1h42.4z m-59.1 0l12.2-58.6-140.6-148.4-165.2 171.3 35.2 35.7h258.4z m-49.1 205.4l8.9-15.6 36.3-173h-238.3l185.8 191.4c2.2-1.1 4.5-2.3 7.3-2.8z m-511.8 8.9h2.8l190.9-197.5h-208.2v186.9l2.3 3.4c5 1.6 8.9 3.9 12.2 7.2z m-14.5-214.3h224.4l35.7-36.8-172.5-179.1-87.6 92.6v123.3z m-107.7 0h91v-105.4l-93.8 98.7c1.2 2.3 2.3 4.5 2.8 6.7z m-0.5-460.4c0 0.6 0.5 1.7 0.5 2.3 0 6.1-1.6 11.7-4.4 16.2l95.4 98.7v-150.1z m108.2-39v173.5l85.4 87.6 165.8-175.2-124.5-131.7z m2.3-169.7l-2.3 4.5v147.3l114.4-41.3-106.6-112.1c-1.6 0.5-3.3 1.1-5.5 1.6z m497.2-7.2h-9l-346.5 125 118.9 125.5z m-236.6 274.5l-165.8 175.8 173.6 178 165.2-171.3z m-187 174.1l-75.9-78.6v158.4z m195.3 203.2l-23.4 24.5h47.4z m187.5-194.2l132.9 140 73.6-348.2-1.7-2.8-0.5-0.5z m192-223.2c-2.8-4.5-4.5-10.1-4.5-16.2v-1.1l-120.5-209.9c-2.8-0.5-5-1.6-7.2-2.7l-243.9 258.3 173 182.5z m-667.4-69.2v-124.5l-91 157.4z m0 527.9h-91l91 157.9v-157.9z m605.5 0l-26.8 126.6 72.5-126.6h-45.7z m68-39.1l115.6-201.4c-0.6-2.8-1.2-5.1-1.2-7.9 0-3.3 1.2-6.1 1.7-8.9l-95.4-165.2-72 341.6 43 45.7c2.8-1.7 5.6-2.8 8.3-3.9z" /></svg>