<svg height="1000" width="1000.0" xmlns="http://www.w3.org/2000/svg"><path d="m666.7 333.3h-83.4v125h-125v83.4h125v125h83.4v-125h125v-83.4h-125z m-583.4 166.7c0-116.2 68.6-216.5 167.1-263.3v-89.8c-145.6 51.2-250.4 190-250.4 353.1s104.8 301.9 250.4 353.1v-89.8c-98.5-46.8-167.1-147-167.1-263.3z m541.7-375c-206.9 0-375 168.1-375 375s168.1 375 375 375 375-168.1 375-375-168.1-375-375-375z m0 666.7c-160.8 0-291.7-130.9-291.7-291.7s130.9-291.7 291.7-291.7 291.7 130.9 291.7 291.7-130.9 291.7-291.7 291.7z" /></svg>