<svg height="1000" width="1000.0" xmlns="http://www.w3.org/2000/svg"><path d="m77 71.4h109.9c-26.2 24-49.6 51.9-70.3 83.2-86.5 133.3-51.3 279.6-17.8 436.9 27.3 127.8 50.2 249.5 130 337.1h-151.8c-35.7 0-64.7-29-64.7-64.8v-727.6c0-35.8 29-64.8 64.7-64.8z m674.1 0h171.9c35.7 0 64.7 29 64.7 64.8v727.6c0 35.8-29 64.8-64.7 64.8h-99.3c73.6-73.1 115.5-179.2 109.3-315.3l-261.7 56.3c-3.3 62-24.5 121.7-109.4 139.6-47.4 10-86.5-1.2-111-22.4-30.1-25.6-54.1-59.1-94.3-250-40.8-191.4-32.4-231.6-15.6-267.3 13.9-29 45.2-55.8 92-65.8 85.4-17.9 128.9 28.4 157.4 83.7l261.2-55.8c-25.7-65.9-59.7-119.4-100.5-160.2z" /></svg>