<svg height="1000" width="1000.0" xmlns="http://www.w3.org/2000/svg"><path d="m817 27.7c0 0 39.7 78.6 19.9 105.3-35.3 47.5-174.4 47.5-174.4 47.5l62.3 91.5c0 0 183.9-32.4 213.7-94.3 27.1-56.6-121.5-150-121.5-150z m-628.1 5.6c0 0-148.6 19.2-138 130.3 9.9 102.5 244.1 116.8 244.1 116.8 18.3-32.8 37.4-74 63.2-106.8 0 0-178.5 18.5-202-44.7-24.6-66 32.7-95.6 32.7-95.6z m320.1 127.7c-35.8 0.1-70.7-23.9-105.1-14.1-81.9 107.4-135.9 239.9-188.5 361.9 67 103.7 113.3 174.6 114 263.6 0 0-83.3 89.1-74.7 135.4 11.1 59.1 107.8 107.7 107.8 107.7 91.1 10.2 182 20.6 287.5 1.7 0 0 94.6-68.4 95.3-106.6 0.9-48.9-74-138.2-74-138.2 9.7-87.5 81.6-166.6 133.2-254.1-33.4-118.2-90.2-250.4-184.8-365.8-38.1-16.1-74.8 8.3-110.7 8.5z m356 112.9c-56.7-0.2-126.3 28.9-126.3 28.9 53.1 97.8 47.4 101.1 111.9 140.3 64.5 39.2 149.4 11.2 149.4 11.2 0 0-29.3-130.4-85.6-168.3-13-8.8-30.5-12.1-49.4-12.1z m-722.1 3.8c-15.6-0.1-30.8 2.4-45 8.3-57.7 27.8-97.9 190.1-97.9 190.1 0 0 119.5 14.4 167.9-14 50.4-29.6 111.9-145.4 111.9-145.4-38.9-16.4-90-38.8-136.9-39z m187.3 195.6c0 0 45.5-9.9 81.1 11.2 21.9 12.9 12.9 67.1 12.9 67.1 0 0-68.9 6-88.4-16.8-18.8-22-5.6-61.5-5.6-61.5z m341.2 5.6c0 0 10.1 40-19.5 64.3-21.2 17.4-72.8 8.4-72.8 8.4 0 0-7-44.3 22.4-67.1 28-21.8 69.9-5.6 69.9-5.6z m-46.4 357c0 0 46.8 14.4 39.4 44.8-6.8 28.2-45.5 55.1-73.9 47.6-18.4-4.9-12.9-21.7-6-39.2 6.6-16.9 24.5 1 34.9-14 11.3-16.1 5.6-39.2 5.6-39.2z m-258.5-9.1c0 0 0.1 32.2 11.2 48.3 10.3 15 30.4-0.2 37 16.8 6.7 17.5 9.6 34.3-8.5 39.1-28 7.6-66-19.3-72.7-47.5-7.3-30.3 33-56.7 33-56.7z" /></svg>