<svg height="1000" width="1000.0" xmlns="http://www.w3.org/2000/svg"><path d="m337.6 688.1c91.5 0 141.2-55.8 143.4-58.1 4.5-5.6 5.6-13.9 1.7-20.1l-25.1-45.7c-2.2-5-7.8-8.4-13.4-9.5-5.6-0.6-11.2 1.7-15.1 6.1-0.5 0-35.7 37.4-87 37.4-56.4 0-97.1-41.3-97.1-98.8 0-56.9 39.6-97.6 94.8-97.6 46.4 0 77.1 31.2 77.1 31.2 3.9 3.9 8.9 6.2 14.5 5.6s10.6-3.3 13.4-7.8l29.5-43.5c4.5-6.7 3.9-15.6-1.1-21.8-1.7-2.2-46.9-53.6-135.6-53.6-109.9 0-192 81-192 188.1 0 108.8 80.4 188.1 192 188.1z m351.6 0c92.1 0 141.2-55.8 143.4-58.1 4.5-5.6 5.6-13.9 2.2-20.1l-25.1-45.7c-2.8-5-7.8-8.4-13.9-9.5-5.6-0.6-11.2 1.7-15.1 6.1-0.6 0-35.7 37.4-87.1 37.4-56.3 0-97.1-41.3-97.1-98.8 0-56.9 39.7-97.6 94.9-97.6 46.9 0 77 31.2 77 31.2 3.9 3.9 8.9 6.2 14.5 5.6s10.6-3.3 13.4-7.8l29.6-43.5c4.5-6.7 3.9-15.6-1.1-21.8-1.7-2.2-46.9-53.6-135.6-53.6-109.4 0-192 81-192 188.1 0 108.8 80.4 188.1 192 188.1z m-189.2-598.8c-226.6 0-410.7 184.1-410.7 410.7s184.1 410.7 410.7 410.7 410.7-184.1 410.7-410.7-184.1-410.7-410.7-410.7z m0-89.3c276.2 0 500 223.8 500 500s-223.8 500-500 500-500-223.8-500-500 223.8-500 500-500z" /></svg>