<svg height="1000" width="857.1" xmlns="http://www.w3.org/2000/svg"><path d="m668 571.4h-60.9c-19.5 0-35.7-16.2-35.7-35.7v-71.4c0-19.5 16.2-35.7 35.7-35.7h60.9c-24-80.4-87.6-144-168-168v60.8c0 19.6-16.2 35.7-35.7 35.7h-71.4c-19.6 0-35.8-16.1-35.8-35.7v-60.8c-80.3 24-143.9 87.6-167.9 168h60.8c19.5 0 35.7 16.2 35.7 35.7v71.4c0 19.5-16.2 35.7-35.7 35.7h-60.8c24 80.4 87.6 144 167.9 168v-60.8c0-19.6 16.2-35.7 35.8-35.7h71.4c19.5 0 35.7 16.1 35.7 35.7v60.8c80.4-24 144-87.6 168-168z m189.1-107.1v71.4c0 19.5-16.1 35.7-35.7 35.7h-79.8c-27.3 120-121.6 214.3-241.6 241.7v79.8c0 19.5-16.2 35.7-35.7 35.7h-71.4c-19.6 0-35.8-16.2-35.8-35.7v-79.8c-119.9-27.4-214.2-121.7-241.6-241.7h-79.8c-19.5 0-35.7-16.2-35.7-35.7v-71.4c0-19.5 16.2-35.7 35.7-35.7h79.8c27.4-120 121.7-214.3 241.6-241.7v-79.8c0-19.5 16.2-35.7 35.8-35.7h71.4c19.5 0 35.7 16.2 35.7 35.7v79.8c120 27.4 214.3 121.7 241.6 241.7h79.8c19.6 0 35.7 16.2 35.7 35.7z" /></svg>