<svg height="1000" width="857.1" xmlns="http://www.w3.org/2000/svg"><path d="m428.6 428.6c167.9 0 336.5-30.2 428.5-94.9v94.9c0 78.7-191.9 142.8-428.5 142.8s-428.6-64.1-428.6-142.8v-94.9c92.1 64.7 260.6 94.9 428.6 94.9z m0 428.5c167.9 0 336.5-30.1 428.5-94.8v94.8c0 78.7-191.9 142.9-428.5 142.9s-428.6-64.2-428.6-142.9v-94.8c92.1 64.7 260.6 94.8 428.6 94.8z m0-214.2c167.9 0 336.5-30.2 428.5-94.9v94.9c0 78.6-191.9 142.8-428.5 142.8s-428.6-64.2-428.6-142.8v-94.9c92.1 64.7 260.6 94.9 428.6 94.9z m0-642.9c236.6 0 428.5 64.2 428.5 142.9v71.4c0 78.7-191.9 142.8-428.5 142.8s-428.6-64.1-428.6-142.8v-71.4c0-78.7 192-142.9 428.6-142.9z" /></svg>