<svg height="1000" width="1000.0" xmlns="http://www.w3.org/2000/svg"><path d="m589.3 464.3c0 19.5 16.2 35.7 35.7 35.7s35.7-16.2 35.7-35.7c0-108.3-88.2-196.4-196.4-196.4s-196.4 88.1-196.4 196.4c0 19.5 16.1 35.7 35.7 35.7s35.7-16.2 35.7-35.7c0-69.2 56.3-125 125-125s125 55.8 125 125z m-123.3-321.4c-177.5 0-321.5 143.9-321.5 321.4 0 19.5 16.2 35.7 35.7 35.7s35.8-16.2 35.8-35.7c0-137.8 112.1-250 250-250s250 112.2 250 250c0 65.8-29.6 99.9-64.2 139.5-37.4 43-80.4 92.1-80.4 181.9 0 78.7-64.1 142.9-142.8 142.9-19.6 0-35.7 16.2-35.7 35.7s16.1 35.7 35.7 35.7c118.3 0 214.3-96 214.3-214.3 0-63 27.9-94.9 63-135 38-44.1 81.5-93.8 81.5-186.4 0-177.5-144-321.4-321.4-321.4z m-136.2 401.2l126.1 126.1-323.1 323.1c-8.9 8.9-23.4 8.9-32.4 0l-93.7-93.7c-8.9-9-8.9-23.5 0-32.4z m569.8-537.4l93.7 93.7c8.9 9 8.9 23.5 0 33l-130 130-14.5 13.9-39.6 39.7c-24-55.8-60.9-104.9-108.9-144l50.8-50.8 115.5-115.5c9.5-8.9 24-8.9 33 0z" /></svg>