<svg height="1000" width="1000.0" xmlns="http://www.w3.org/2000/svg"><path d="m708.3 125h-41.6v208.3h41.6v-208.3z m-83.3 83.3h-83.3v-41.6h83.3v-41.7h-125v125h83.3v41.7h-83.3v41.6h125v-125z m125-83.3v208.3h41.7v-83.3h83.3v-125h-125z m83.3 83.3h-41.6v-41.6h41.6v41.6z m0 437.5c-51.8 0-101.8-8.3-148.7-23.7-14.4-4.6-30.8-1.3-42.3 10.2l-91.7 91.9c-117.9-60-214.4-156.5-274.6-274.4l91.7-91.9c11.5-11.4 14.8-27.9 10.2-42.3-15.4-46.9-23.7-97.1-23.7-148.9 0-23.2-18.6-41.7-41.7-41.7h-145.8c-23.2 0-41.7 18.5-41.7 41.7 0 391.2 317.1 708.3 708.3 708.3 23.2 0 41.7-18.5 41.7-41.7v-145.8c0-23.1-18.5-41.7-41.7-41.7z" /></svg>