<svg height="1000" width="666.0" xmlns="http://www.w3.org/2000/svg"><path d="m333 791q34.2 0 58.6 24.4t24.4 59.6-24.4 59.6-58.6 24.4-58.6-24.4-24.4-59.6 24.4-59.6 58.6-24.4z m-250-750q34.2 0 58.6 24.4t24.4 59.6-24.4 59.6-58.6 24.4-58.6-24.4-24.4-59.6 24.4-59.6 58.6-24.4z m0 250q34.2 0 58.6 24.4t24.4 59.6-24.4 59.6-58.6 24.4-58.6-24.4-24.4-59.6 24.4-59.6 58.6-24.4z m0 250q34.2 0 58.6 24.4t24.4 59.6-24.4 59.6-58.6 24.4-58.6-24.4-24.4-59.6 24.4-59.6 58.6-24.4z m500-332q-34.2 0-58.6-24.4t-24.4-59.6 24.4-59.6 58.6-24.4 58.6 24.4 24.4 59.6-24.4 59.6-58.6 24.4z m-250 332q34.2 0 58.6 24.4t24.4 59.6-24.4 59.6-58.6 24.4-58.6-24.4-24.4-59.6 24.4-59.6 58.6-24.4z m250 0q34.2 0 58.6 24.4t24.4 59.6-24.4 59.6-58.6 24.4-58.6-24.4-24.4-59.6 24.4-59.6 58.6-24.4z m0-250q34.2 0 58.6 24.4t24.4 59.6-24.4 59.6-58.6 24.4-58.6-24.4-24.4-59.6 24.4-59.6 58.6-24.4z m-250 0q34.2 0 58.6 24.4t24.4 59.6-24.4 59.6-58.6 24.4-58.6-24.4-24.4-59.6 24.4-59.6 58.6-24.4z m0-250q34.2 0 58.6 24.4t24.4 59.6-24.4 59.6-58.6 24.4-58.6-24.4-24.4-59.6 24.4-59.6 58.6-24.4z" /></svg>