<svg height="1000" width="1000.0" xmlns="http://www.w3.org/2000/svg"><path d="m645.5 228.5q-34.2 0-58.6-24.4t-24.4-58.6 24.4-58.6 58.6-24.4 58.6 24.4 24.4 58.6-24.4 58.6-58.6 24.4z m-437.5 271.5q86.9 0 147.5 60.5t60.5 147.5-60.5 147.5-147.5 60.5-147.5-60.5-60.5-147.5 60.5-147.5 147.5-60.5z m0 353.5q59.6 0 102.5-43t43-102.5-43-102.5-102.5-43-102.5 43-43 102.5 43 102.5 102.5 43z m241.2-416l91.8 95.7v257.8h-82v-207l-134.8-117.2q-23.4-19.5-23.4-58.6 0-33.2 23.4-58.6l117.2-117.2q19.5-23.4 58.6-23.4 35.2 0 66.4 23.4l80.1 80.1q62.5 62.5 148.4 62.5v84q-125 0-210.9-87.9l-33.2-33.2z m342.8 62.5q86.9 0 147.5 60.5t60.5 147.5-60.5 147.5-147.5 60.5-147.5-60.5-60.5-147.5 60.5-147.5 147.5-60.5z m0 353.5q59.6 0 102.5-43t43-102.5-43-102.5-102.5-43-102.5 43-43 102.5 43 102.5 102.5 43z" /></svg>