<svg height="1000" width="1000.0" xmlns="http://www.w3.org/2000/svg"><path d="m166.7 666.7c0 36.8 16.2 69.5 41.6 92.5v74.1c0 23 18.8 41.7 41.7 41.7h41.7c23.1 0 41.6-18.7 41.6-41.7v-41.6h333.4v41.6c0 23 18.5 41.7 41.6 41.7h41.7c22.9 0 41.7-18.7 41.7-41.7v-74.1c25.4-23 41.6-55.7 41.6-92.5v-416.7c0-145.8-149.1-166.7-333.3-166.7s-333.3 20.9-333.3 166.7v416.7z m145.8 41.6c-34.6 0-62.5-27.9-62.5-62.5s27.9-62.5 62.5-62.5 62.5 28 62.5 62.5-27.9 62.5-62.5 62.5z m375 0c-34.6 0-62.5-27.9-62.5-62.5s27.9-62.5 62.5-62.5 62.5 28 62.5 62.5-27.9 62.5-62.5 62.5z m62.5-250h-500v-208.3h500v208.3z" /></svg>