<svg height="1000" width="1000.0" xmlns="http://www.w3.org/2000/svg"><path d="m500 83.3c-184.2 0-333.3 20.9-333.3 166.7v395.8c0 80.7 65.4 145.9 145.8 145.9l-62.5 62.5v20.8h500v-20.8l-62.5-62.5c80.6 0 145.8-65.2 145.8-145.9v-395.8c0-145.8-149.1-166.7-333.3-166.7z m-187.5 625c-34.6 0-62.5-27.9-62.5-62.5s27.9-62.5 62.5-62.5 62.5 28 62.5 62.5-27.9 62.5-62.5 62.5z m145.8-250h-208.3v-208.3h208.3v208.3z m229.2 250c-34.6 0-62.5-27.9-62.5-62.5s27.9-62.5 62.5-62.5 62.5 28 62.5 62.5-27.9 62.5-62.5 62.5z m62.5-250h-208.3v-208.3h208.3v208.3z" /></svg>