<svg height="1000" width="666.0" xmlns="http://www.w3.org/2000/svg"><path d="m333 84q77.2 0 130.9 5.8t103.5 22.5 74.2 50.8 24.4 86.9v396.5q0 60.5-42 102.5t-102.5 42l62.5 62.5v21.5h-500v-21.5l62.5-62.5q-60.6 0-103.5-42t-43-102.5v-396.5q0-52.7 24.4-86.9t74.2-50.8 103.5-22.5 130.9-5.8z m-187.5 625q26.4 0 44.9-18.6t18.6-44.9-18.6-43.9-44.9-17.6-43.9 17.6-17.6 43.9 17.6 44.9 43.9 18.6z m145.5-250v-209h-207v209h207z m229.5 250q26.4 0 44.9-18.6t18.6-44.9-18.6-43.9-44.9-17.6-43.9 17.6-17.6 43.9 17.6 44.9 43.9 18.6z m63.5-250v-209h-209v209h209z" /></svg>