<svg height="1000" width="666.0" xmlns="http://www.w3.org/2000/svg"><path d="m0 666v-416q0-52.7 24.4-86.9t74.2-50.8 103.5-22.5 130.9-5.8 130.9 5.8 103.5 22.5 74.2 50.8 24.4 86.9v416q0 54.7-41 93.8v74.2q0 15.6-12.7 28.3t-28.3 12.7h-43q-15.6 0-28.3-12.7t-12.7-28.3v-43h-334v43q0 15.6-11.7 28.3t-29.3 12.7h-41q-17.6 0-30.3-12.7t-12.7-28.3v-74.2q-41-39.1-41-93.8z m145.5 43q26.4 0 44.9-18.6t18.6-44.9-18.6-43.9-44.9-17.6-43.9 17.6-17.6 43.9 17.6 44.9 43.9 18.6z m375 0q26.4 0 44.9-18.6t18.6-44.9-18.6-43.9-44.9-17.6-43.9 17.6-17.6 43.9 17.6 44.9 43.9 18.6z m63.5-250v-209h-500v209h500z" /></svg>