<svg height="1000" width="750.0" xmlns="http://www.w3.org/2000/svg"><path d="m709 541q15.6 0 28.3 12.7t12.7 30.3v250q0 15.6-12.7 28.3t-28.3 12.7h-668q-15.6 0-28.3-12.7t-12.7-28.3v-250q0-17.6 12.7-30.3t28.3-12.7h668z m-542 250q34.2 0 58.6-24.4t24.4-58.6-24.4-58.6-58.6-24.4-58.6 24.4-24.4 58.6 24.4 58.6 58.6 24.4z m542-666q15.6 0 28.3 12.7t12.7 28.3v250q0 17.6-12.7 30.3t-28.3 12.7h-668q-15.6 0-28.3-12.7t-12.7-30.3v-250q0-15.6 12.7-28.3t28.3-12.7h668z m-542 250q34.2 0 58.6-24.4t24.4-58.6-24.4-58.6-58.6-24.4-58.6 24.4-24.4 58.6 24.4 58.6 58.6 24.4z" /></svg>