<svg height="1000" width="1000.0" xmlns="http://www.w3.org/2000/svg"><path d="m833.3 541.7h-666.6c-23 0-41.7 18.7-41.7 41.6v250c0 23 18.7 41.7 41.7 41.7h666.6c23 0 41.7-18.7 41.7-41.7v-250c0-22.9-18.7-41.6-41.7-41.6z m-541.6 250c-46.1 0-83.4-37.3-83.4-83.4s37.3-83.3 83.4-83.3 83.3 37.3 83.3 83.3-37.3 83.4-83.3 83.4z m541.6-666.7h-666.6c-23 0-41.7 18.8-41.7 41.7v250c0 22.9 18.7 41.6 41.7 41.6h666.6c23 0 41.7-18.7 41.7-41.6v-250c0-22.9-18.7-41.7-41.7-41.7z m-541.6 250c-46.1 0-83.4-37.3-83.4-83.3s37.3-83.4 83.4-83.4 83.3 37.3 83.3 83.4-37.3 83.3-83.3 83.3z" /></svg>