<svg height="1000" width="857.1" xmlns="http://www.w3.org/2000/svg"><path d="m571.4 837.1c-5.6-32.4-26.8-144-78.1-277.9-0.6 0-1.7 0.5-2.2 0.5 0 0-217.1 75.9-287.4 228.8-3.4-2.8-8.4-6.1-8.4-6.1 63.6 51.9 144.5 83.7 233.3 83.7 50.8 0 98.7-10.6 142.8-29z m-103.2-338.8c-8.9-20.6-19-41.3-29.6-61.9-188.6 56.3-369.4 51.9-375.5 51.9-0.6 3.9-0.6 7.8-0.6 11.7 0 93.8 35.7 179.7 93.8 244.4v0c99.8-178 297.4-241.6 297.4-241.6 5-1.7 10-2.8 14.5-4.5z m-59.7-118.3c-63.6-112.7-131.2-204.2-136.2-210.9-102.1 48-178 142.3-202 255.6 9.5 0 162.4 1.6 338.2-44.7z m381.7 178c-7.8-2.2-110-34.6-228.3-16.1 48 132.2 67.6 239.9 71.5 261.7 82-55.3 140-143.4 156.8-245.6z m-449.2-413.5c-0.6 0-0.6 0-1.2 0.6 0 0 0.6-0.6 1.2-0.6z m329.2 80.9c-64.2-56.9-149-91.5-241.6-91.5-29.6 0-58.6 3.9-86.5 10.6 5.6 7.3 74.8 98.2 137.3 213.2 137.8-51.3 189.7-130.6 190.8-132.3z m124.4 270.7c-1.1-86.5-31.8-166.3-83.1-228.8-1.1 1.1-59.7 85.9-204.2 145.1 8.3 17.3 16.7 35.1 24.5 53 2.8 6.1 5 12.8 7.8 19 126.1-16.2 250.6 11.1 255 11.7z m62.5 3.9c0 236.6-191.9 428.6-428.5 428.6s-428.6-192-428.6-428.6 192-428.6 428.6-428.6 428.5 192 428.5 428.6z" /></svg>