<svg height="1000" width="857.1" xmlns="http://www.w3.org/2000/svg"><path d="m651.2 885c-1.1-3.9-4.4-9.4-13.4-2.7-18.9 13.9-61.3 31.2-121.6 31.2s-88.7-12.8-107.7-27.3c-2.8-2.3-1.7-2.3-7.3-2.3-6.1 0-9.5 2.8-14.5 6.7-4.4 3.9-6.7 13.4 0 20.1 41.3 38 110.5 34.6 161.3 30.1 51.3-5 94.9-35.1 99.3-39.6 6.7-6.7 5-12.2 3.9-16.2z m-21.7-64.1c-3.9-9.5-10.6-26.3-21.8-34.1-11.2-7.2-27.3-8.3-42.4-8.3s-23.4-1.2-39.6 5.5-33 21.8-43.6 31.3-12.2 16.7-6.7 24.5c5.6 7.3 11.8 2.8 27.4-10.6 16.2-12.8 26.8-24.5 59.7-24.5s38.5 12.3 45.2 24.5 7.3 14 14 10.6c7.8-3.9 11.7-9.4 7.8-18.9z m198.1-156.8c0-29.1-12.9-78.2-60.3-78.2-44.6 0-135 92.7-182.5 93.2-55.2 1.1-131.7-109.3-242.2-108.2-87 0.5-155.7 69.7-156.8 143.4-0.5 41.3 12.9 72 41.3 91.5 19 12.8 36.3 20.7 92.7 20.7 93.7 0 212.6-116.1 267.3-114.4 43.5 1.6 111 108.2 145 110.4 26.8 2.3 40.8-10 63.7-42.9 22.3-33.5 31.8-86 31.8-115.5z m29.5-89.3c0 250-197.5 415.2-424.6 415.2-227.7 0-432.5-179.2-432.5-423 0-243.3 189.7-356.1 224.9-374.5 41.8-22.3 72-34 119.4-72 23.4-18.4 43-45.2 49.1-110.5 34.1 40.8 74.8 88.2 103.8 107.7 47.4 31.3 94.9 43.6 144.5 74.8 30.2 18.4 215.4 131.7 215.4 382.3z" /></svg>