<svg height="1000" width="857.1" xmlns="http://www.w3.org/2000/svg"><path d="m696.4 71.4c88.8 0 160.7 72 160.7 160.7v535.8c0 88.7-71.9 160.7-160.7 160.7h-535.7c-88.7 0-160.7-72-160.7-160.7v-535.8c0-88.7 72-160.7 160.7-160.7h535.7z m17.9 589.3v-243.3c-10.6 11.7-22.3 22.3-35.7 30.7-52.5 34.6-106.6 67-158.5 102.7-26.2 18.4-58.6 38.5-91.5 38.5v0 0 0 0c-33 0-65.3-20.1-91.5-38.5-51.9-35.7-106.6-67.5-158.5-103.3-12.9-8.3-22.9-20.6-35.7-30.1v243.3c0 29.6 24 53.6 53.5 53.6h464.3c29.6 0 53.6-24 53.6-53.6z m0-319.7c0-30.2-22.3-55.3-53.6-55.3h-464.3c-29.5 0-53.5 24-53.5 53.6 0 30.1 31.2 63 54.6 78.7 49.2 32.9 99.9 63.6 149 96 21.2 13.9 56.4 39.6 82.1 39.6s60.8-25.7 82-39.6c49.7-32.4 99.3-64.2 149-97.1 21.8-14.6 54.7-48 54.7-75.9z" /></svg>