<svg height="1000" width="1000.0" xmlns="http://www.w3.org/2000/svg"><path d="m928.6 839.3v-428.6c-11.7 13.4-24.6 25.7-38.5 36.8-79.8 61.4-160.2 123.9-237.8 188.7-41.8 35.1-93.7 78.1-151.7 78.1h-0.6-0.6c-58 0-109.9-43-151.7-78.1-77.6-64.8-158-127.3-237.8-188.7-13.9-11.1-26.8-23.4-38.5-36.8v428.6c0 9.5 8.4 17.8 17.9 17.8h821.4c9.5 0 17.9-8.3 17.9-17.8z m0-586.5c0-14 3.3-38.5-17.9-38.5h-821.4c-9.5 0-17.9 8.4-17.9 17.8 0 63.7 31.8 118.9 82.1 158.5 74.7 58.6 149.5 117.8 223.7 176.9 29.6 24 83.2 75.4 122.2 75.4h0.6 0.6c39 0 92.6-51.4 122.2-75.4 74.2-59.1 149-118.3 223.7-176.9 36.3-28.4 82.1-90.4 82.1-137.8z m71.4-20.7v607.2c0 49.1-40.2 89.3-89.3 89.3h-821.4c-49.1 0-89.3-40.2-89.3-89.3v-607.2c0-49.1 40.2-89.2 89.3-89.2h821.4c49.1 0 89.3 40.1 89.3 89.2z" /></svg>