<svg height="1000" width="1000.0" xmlns="http://www.w3.org/2000/svg"><path d="m1000 396.2v443.1c0 49.1-40.2 89.3-89.3 89.3h-821.4c-49.1 0-89.3-40.2-89.3-89.3v-443.1c16.7 18.4 35.7 34.6 56.4 48.6 92.6 63 186.3 126.1 277.3 192.5 46.9 34.6 104.9 77 165.7 77h0.6 0.6c60.8 0 118.8-42.4 165.7-77 91-65.9 184.7-129.5 277.9-192.5 20.1-14 39.1-30.2 55.8-48.6z m0-164.1c0 62.5-46.3 118.9-95.4 152.9-87.1 60.3-174.7 120.6-261.2 181.4-36.3 25.1-97.6 76.5-142.8 76.5h-0.6-0.6c-45.2 0-106.5-51.4-142.8-76.5-86.5-60.8-174.1-121.1-260.6-181.4-39.6-26.7-96-89.8-96-140.6 0-54.7 29.6-101.5 89.3-101.5h821.4c48.6 0 89.3 40.1 89.3 89.2z" /></svg>