<svg height="1000" width="714.8" xmlns="http://www.w3.org/2000/svg"><path d="m486.3 484.4h97.7q5.8-19.6-15.6-41-23.5-23.5-52.8-6.9t-29.3 47.9z m162.1-289.1q21.5 27.4 34.2 67.4t15.6 62.5 8.8 75.2q7.8 76.2 6.9 172.8t-20.5 170.9q-17.6 119.2-95.7 157.3t-185.6 8.8q-43-11.8-62.5-52.8t-13.7-85.9q7.9-41 46.9-61.5t84-20.5v41q3.9 13.6-2 18.5t-16.6 3.9-22.4 1q-15.6 9.8-17.6 32.2t16.6 41 53.7 18.6q64.5-1.9 78.1-23.4t9.8-93.8q3.9-37.1-27.3-62.5t-70.3-27.3q-72.3 5.8-127-84-2 3.9-2 20.5v32.2 29.3q-1.9 29.3-29.3 45.9t-60.5 22.5q-117.2 9.7-164.1-37.1-66.4-70.3-83.9-234.4-13.7-93.8 42.9-134.8h158.2q7.8-3.9 20.5-18.5t14.7-16.6v-84q1.9-7.8 1-28.3t1.9-33.2 12.7-22.5q43-21.5 91.8-7.8t74.2 54.7h52.8 54.6q84 11.7 121.1 52.7z m-478.5 68.4h-134.7l167.9-171.9v136.7z" /></svg>