<svg height="1000" width="1000.0" xmlns="http://www.w3.org/2000/svg"><path d="m1000 660.7v107.2c0 9.4-8.4 17.8-17.9 17.8h-767.8v107.2c0 9.4-7.8 17.8-17.9 17.8-5 0-9.5-2.2-13.4-5.6l-178-178.5c-3.3-3.4-5-7.8-5-12.3 0-5 1.7-9.5 5-12.8l178.6-178.6c3.3-3.4 8.4-5 12.8-5 9.5 0 17.9 7.8 17.9 17.8v107.2h767.8c9.5 0 17.9 7.8 17.9 17.8z m0-303.6c0 4.5-1.7 9.5-5 12.9l-178.6 178.5c-3.3 3.4-8.4 5.1-12.8 5.1-9.5 0-17.9-8.4-17.9-17.9v-107.1h-767.8c-9.5 0-17.9-8.4-17.9-17.9v-107.1c0-9.5 8.4-17.9 17.9-17.9h767.8v-107.1c0-10.1 7.8-17.9 17.9-17.9 5 0 9.5 2.2 13.4 5.6l178 178c3.3 3.4 5 8.4 5 12.8z" /></svg>