<svg height="1000" width="1000.0" xmlns="http://www.w3.org/2000/svg"><path d="m571.4 767.3v-106c0-10.1-7.8-18.4-17.8-18.4h-107.2c-10 0-17.8 8.3-17.8 18.4v106c0 10 7.8 18.4 17.8 18.4h107.2c10 0 17.8-8.4 17.8-18.4z m-1.1-208.7l10.1-256.1c0-3.4-1.7-7.9-5.6-10.6-3.4-2.8-8.4-6.2-13.4-6.2h-122.8c-5 0-10 3.4-13.4 6.2-3.9 2.7-5.6 8.3-5.6 11.7l9.5 255c0 7.2 8.4 12.8 19 12.8h103.2c10.1 0 18.5-5.6 19-12.8z m-7.8-521.2l428.6 785.7c12.2 21.8 11.7 48.6-1.1 70.3s-36.3 35.2-61.4 35.2h-857.2c-25.1 0-48.5-13.4-61.4-35.2s-13.3-48.5-1.1-70.3l428.6-785.7c12.3-22.9 36.3-37.4 62.5-37.4s50.2 14.5 62.5 37.4z" /></svg>