<svg height="1000" width="1000.0" xmlns="http://www.w3.org/2000/svg"><path d="m500 35.7c-256.1 0-464.3 208.2-464.3 464.3s208.2 464.3 464.3 464.3 464.3-208.2 464.3-464.3-208.2-464.3-464.3-464.3z m0-35.7c276.2 0 500 223.8 500 500s-223.8 500-500 500-500-223.8-500-500 223.8-500 500-500z m-223.2 464.3c5 0 8.9 3.9 8.9 8.9v267.9c0 5-3.9 8.9-8.9 8.9h-17.9c-5 0-8.9-3.9-8.9-8.9v-267.9c0-5 3.9-8.9 8.9-8.9h17.9z m223.2 35.7c39.6 0 71.4 31.8 71.4 71.4 0 26.3-14.5 49.1-35.7 61.4v63.6c0 10.1-7.8 17.9-17.8 17.9h-35.8c-10 0-17.8-7.8-17.8-17.9v-63.6c-21.2-12.3-35.7-35.1-35.7-61.4 0-39.6 31.8-71.4 71.4-71.4z m0-428.6c236.6 0 428.6 192 428.6 428.6s-192 428.6-428.6 428.6-428.6-192-428.6-428.6 192-428.6 428.6-428.6z m-196.4 267.9v53.6c0 10 7.8 17.8 17.8 17.8h35.7c10.1 0 17.9-7.8 17.9-17.8v-53.6c0-69.2 55.8-125 125-125s125 55.8 125 125v53.6c0 10 7.8 17.8 17.9 17.8h35.7c10 0 17.8-7.8 17.8-17.8v-53.6c0-108.3-88.1-196.4-196.4-196.4s-196.4 88.1-196.4 196.4z m482.1 410.7v-285.7c0-19.5-16.2-35.7-35.7-35.7h-500c-19.5 0-35.7 16.2-35.7 35.7v285.7c0 19.5 16.2 35.7 35.7 35.7h500c19.5 0 35.7-16.2 35.7-35.7z" /></svg>