<svg height="1000" width="1000.0" xmlns="http://www.w3.org/2000/svg"><path d="m672.5 520.8c0 41.7-4.2 77.1-12.3 106.3s-19.8 52.7-34.8 71c-15 18.2-33.1 31.5-54.2 39.6s-44.5 12.3-70.6 12.3c-25.8 0-49.4-4.2-70.6-12.3s-39.4-21.4-54.6-39.6c-15.2-18.1-27.1-41.8-35.2-71-8.3-29.2-12.5-64.6-12.5-106.3v-85c0-41.6 4.2-77 12.3-106s19.8-52.5 35-70.4c15-17.9 33.1-31.1 54.4-39s44.8-11.9 70.6-11.9c26 0 49.8 4 71 11.9s39.4 21.1 54.6 39c15 17.9 26.7 41.4 35 70.4 8.2 28.9 12.3 64.4 12.3 106v85z m-87.9-98.5c0-26.9-1.9-49.4-5.6-67.5s-9.2-32.9-16.5-44.2c-7.3-11.2-16-19.3-26.7-24.1-10.4-5-22.5-7.5-36-7.5s-25.6 2.5-36.1 7.5c-10.6 5-19.3 13.1-26.6 24.1-7.3 11.3-12.7 26.1-16.5 44.2s-5.6 40.8-5.6 67.5v111.2c0 26.5 1.9 49.2 5.8 67.8s9.4 33.7 16.7 45.2c7.3 11.6 16.2 20 26.9 25.4 10.6 5.2 22.7 7.9 36.2 7.9 13.8 0 25.9-2.7 36.3-7.9s19.1-13.8 26.2-25.4c7.1-11.7 12.5-26.7 16.1-45.2s5.4-41.3 5.4-67.8v-111.2z" /></svg>