<svg height="1000" width="857.1" xmlns="http://www.w3.org/2000/svg"><path d="m714.3 517.9v-267.9c0-19.5-16.2-35.7-35.7-35.7h-267.9c-14.5 0-27.3 8.9-32.9 21.7-5.6 13.4-2.8 29.1 7.8 39.1l80.4 80.4-298 298c-14 13.9-14 36.2 0 50.2l56.9 56.9c13.9 14 36.3 14 50.2 0l298-298 80.4 80.4c6.7 7.2 15.6 10.6 25.1 10.6 4.4 0 9.5-1.1 13.9-2.8 12.9-5.6 21.8-18.4 21.8-32.9z m142.8-285.8v535.8c0 88.7-71.9 160.7-160.7 160.7h-535.7c-88.7 0-160.7-72-160.7-160.7v-535.8c0-88.7 72-160.7 160.7-160.7h535.7c88.8 0 160.7 72 160.7 160.7z" /></svg>