<svg height="1000" width="1000.0" xmlns="http://www.w3.org/2000/svg"><path d="m785.7 517.9v178.5c0 88.8-72 160.7-160.7 160.7h-464.3c-88.7 0-160.7-71.9-160.7-160.7v-464.3c0-88.7 72-160.7 160.7-160.7h392.9c10 0 17.8 7.8 17.8 17.9v35.7c0 10-7.8 17.9-17.8 17.9h-392.9c-49.1 0-89.3 40.1-89.3 89.2v464.3c0 49.1 40.2 89.3 89.3 89.3h464.3c49.1 0 89.3-40.2 89.3-89.3v-178.5c0-10.1 7.8-17.9 17.8-17.9h35.8c10 0 17.8 7.8 17.8 17.9z m214.3-482.2v285.7c0 19.6-16.2 35.7-35.7 35.7-9.5 0-18.4-3.9-25.1-10.6l-98.2-98.2-363.9 363.9c-3.3 3.3-8.3 5.5-12.8 5.5s-9.5-2.2-12.8-5.5l-63.7-63.7c-3.3-3.3-5.5-8.3-5.5-12.8s2.2-9.5 5.5-12.8l363.9-363.9-98.2-98.2c-6.7-6.7-10.6-15.6-10.6-25.1 0-19.5 16.1-35.7 35.7-35.7h285.7c19.5 0 35.7 16.2 35.7 35.7z" /></svg>