<svg height="1000" width="1000.0" xmlns="http://www.w3.org/2000/svg"><path d="m928.6 535.7c-53-82-125.6-152.3-212.6-197 22.3 38 34 81.5 34 125.6 0 137.8-112.2 250-250 250s-250-112.2-250-250c0-44.1 11.7-87.6 34-125.6-87 44.7-159.6 115-212.6 197 95.5 147.3 249.5 250 428.6 250s333.1-102.7 428.6-250z m-401.8-214.3c0-14.5-12.3-26.8-26.8-26.8-93.2 0-169.6 76.5-169.6 169.7 0 14.5 12.2 26.8 26.7 26.8s26.8-12.3 26.8-26.8c0-63.6 52.5-116.1 116.1-116.1 14.5 0 26.8-12.3 26.8-26.8z m473.2 214.3c0 14-4.5 26.8-11.2 38.5-102.6 169.1-290.7 282.9-488.8 282.9s-386.2-114.4-488.8-282.9c-6.7-11.7-11.2-24.5-11.2-38.5s4.5-26.8 11.2-38.5c102.6-168.5 290.7-282.9 488.8-282.9s386.2 114.4 488.8 282.9c6.7 11.7 11.2 24.6 11.2 38.5z" /></svg>