<svg height="1000" width="1000.0" xmlns="http://www.w3.org/2000/svg"><path d="m25.1 921.3c-13.9 14-25.1 8.9-25.1-10.6v-821.4c0-19.5 11.2-24.6 25.1-10.6l396.2 396.2c3.4 3.3 5.6 6.7 7.3 10.6v-396.2c0-19.5 11.1-24.6 25.1-10.6l396.2 396.2c3.3 3.3 5.6 6.7 7.2 10.6v-378.4c0-19.5 16.2-35.7 35.8-35.7h71.4c19.5 0 35.7 16.2 35.7 35.7v785.8c0 19.5-16.2 35.7-35.7 35.7h-71.4c-19.6 0-35.8-16.2-35.8-35.7v-378.4c-1.6 3.9-3.9 7.3-7.2 10.6l-396.2 396.2c-14 14-25.1 8.9-25.1-10.6v-396.2c-1.7 3.9-3.9 7.3-7.3 10.6z" /></svg>