<svg height="1000" width="834.0" xmlns="http://www.w3.org/2000/svg"><path d="m603.5 125q97.7 0 164.1 66.4t66.4 162.1q0 46.9-19.5 94.7t-43 85-79.1 95.7-93.8 94.7-122 110.4l-60.6 54.7-60.5-52.8q-82.1-76.1-121.1-112.3t-94.8-94.7-79.1-95.7-41.9-85-18.6-94.7q0-95.7 66.4-162.1t162.1-66.4q113.3 0 187.5 87.9 74.2-87.9 187.5-87.9z m-183.6 648.4q95.7-85.9 139.7-127.9t96.7-100.6 73.2-102.5 20.5-88.9q0-62.5-42-103.5t-104.5-41q-46.9 0-88.9 27.3t-59.5 70.3h-78.1q-15.7-42.9-57.7-70.3t-90.8-27.3q-62.5 0-103.5 41t-41 103.5q0 44.9 19.5 88.9t73.3 102.5 97.6 100.6 137.7 127.9l3.9 3.9z" /></svg>