<svg height="1000" width="1000.0" xmlns="http://www.w3.org/2000/svg"><path d="m687.5 125c-72.5 0-142.1 33.8-187.5 86.9-45.4-53.1-115-86.9-187.5-86.9-128.5 0-229.2 100.6-229.2 229.2 0 157.3 141.7 285.8 356.3 480.6l60.4 54.8 60.4-54.8c214.6-194.8 356.3-323.3 356.3-480.6 0-128.6-100.7-229.2-229.2-229.2z m-183.1 648.1l-4.4 4-4.4-4c-198.1-179.8-328.9-298.5-328.9-418.9 0-83.2 62.7-145.9 145.8-145.9 64.2 0 126.7 41.5 148.5 98.4h77.8c22-56.9 84.5-98.4 148.7-98.4 83.1 0 145.8 62.7 145.8 145.9 0 120.4-130.8 239.1-328.9 418.9z" /></svg>