<svg height="1000" width="714.3" xmlns="http://www.w3.org/2000/svg"><path d="m714.3 589.3c0 29.6-24 53.6-53.6 53.6-17.8 0-34.6-9-44.6-24l-126.7-190.3h-25.1v73.6l137.8 229.4c3.4 5.6 5 11.7 5 18.4 0 19.5-16.1 35.7-35.7 35.7h-107.1v151.8c0 34.6-27.9 62.5-62.5 62.5h-89.3c-34 0-62.5-27.9-62.5-62.5v-151.8h-107.1c-19.6 0-35.8-16.2-35.8-35.7 0-6.7 1.7-12.8 5.1-18.4l137.8-229.4v-73.6h-25.1l-126.7 190.3c-10 15-26.8 24-44.6 24-29.6 0-53.6-24-53.6-53.6 0-10.6 3.3-21.2 8.9-29.6l142.9-214.3c22.3-32.9 56.9-59.7 98.2-59.7h214.3c41.3 0 75.9 26.8 98.2 59.7l142.9 214.3c5.5 8.4 8.9 19 8.9 29.6z m-232.2-446.4c0 69.2-55.8 125-125 125s-125-55.8-125-125 55.8-125 125-125 125 55.8 125 125z" /></svg>