<svg height="1000" width="1071.4" xmlns="http://www.w3.org/2000/svg"><path d="m1071.4 535.7c0 0 0 17.9-160.7 53.6l-196.4 17.8-125 35.8h-35.7l-163.5 196.4h38.5c19.5 0 35.7 3.9 35.7 8.9s-16.2 8.9-35.7 8.9h-53.6-89.3-35.7v-17.8h35.7v-232.2h-89.3l-107.1 125h-53.6l-17.8-17.8v-107.2h17.8v-17.8h71.4v-4.5l-107.1-13.4v-71.4l107.1-13.4v-4.5h-71.4v-17.8h-17.8v-107.2l17.8-17.8h53.6l107.1 125h89.3v-232.2h-35.7v-17.8h35.7 89.3 53.6c19.5 0 35.7 3.9 35.7 8.9s-16.2 8.9-35.7 8.9h-38.5l163.5 196.5h35.7l125 35.7 196.4 17.8c160.7 35.8 160.7 53.6 160.7 53.6z" /></svg>