<svg height="1000" width="857.1" xmlns="http://www.w3.org/2000/svg"><path d="m819.2 212.1c20.6 20.6 37.9 61.9 37.9 91.5v642.8c0 29.6-24 53.6-53.5 53.6h-750c-29.6 0-53.6-24-53.6-53.6v-892.8c0-29.6 24-53.6 53.6-53.6h500c29.5 0 70.8 17.3 91.5 37.9z m-247.8-136.2v209.8h209.9c-3.4-9.5-8.4-19-12.3-22.9l-174.7-174.6c-3.9-3.9-13.4-9-22.9-12.3z m214.3 852.7v-571.5h-232.1c-29.6 0-53.6-24-53.6-53.5v-232.2h-428.6v857.2h714.3z m-546.3-130.6v59.1h156.8v-59.1h-41.8l57.4-89.9c6.7-10.6 10.1-18.9 11.7-18.9h1.2c0.5 2.2 1.6 3.9 2.8 5.6 2.2 4.4 5.5 7.8 9.4 13.3l59.8 89.9h-42.5v59.1h162.4v-59.1h-37.9l-107.2-152.4 108.9-157.3h37.3v-59.7h-155.6v59.7h41.2l-57.4 88.7c-6.7 10.6-11.7 19-11.7 18.4h-1.2c-0.5-2.2-1.6-3.9-2.8-5.6-2.2-3.9-5-7.8-9.4-12.8l-59.2-88.7h42.4v-59.7h-161.8v59.7h37.9l105.5 151.8-108.3 157.9h-37.9z" /></svg>