<svg height="1000" width="857.1" xmlns="http://www.w3.org/2000/svg"><path d="m819.2 212.1c20.6 20.6 37.9 61.9 37.9 91.5v642.8c0 29.6-24 53.6-53.5 53.6h-750c-29.6 0-53.6-24-53.6-53.6v-892.8c0-29.6 24-53.6 53.6-53.6h500c29.5 0 70.8 17.3 91.5 37.9z m-247.8-136.2v209.8h209.9c-3.4-9.5-8.4-19-12.3-22.9l-174.7-174.6c-3.9-3.9-13.4-9-22.9-12.3z m214.3 852.7v-571.5h-232.1c-29.6 0-53.6-24-53.6-53.5v-232.2h-428.6v857.2h714.3z m-655.7-500v59.7h39.1l91.5 368.8h88.7l71.5-270.6c2.7-8.4 4.4-16.7 5.5-25.7 0.6-4.4 1.2-8.9 1.2-13.4h2.2l1.7 13.4c1.6 7.8 2.2 16.8 5 25.7l71.4 270.6h88.7l91.6-368.8h39v-59.7h-167.4v59.7h50.2l-55.2 244.4c-2.2 8.9-3.4 18.4-3.9 25.7l-1.1 11.7h-2.3c0-3.4-1.1-7.8-1.6-11.7-1.7-7.3-2.8-16.8-5.1-25.7l-80.3-304.1h-63.6l-80.4 304.1c-2.2 8.9-2.8 18.4-4.5 25.7l-2.2 11.7h-2.2l-1.1-11.7c-0.6-7.3-1.7-16.8-3.9-25.7l-55.3-244.4h50.2v-59.7h-167.4z" /></svg>