<svg height="1000" width="857.1" xmlns="http://www.w3.org/2000/svg"><path d="m819.2 212.1c20.6 20.6 37.9 61.9 37.9 91.5v642.8c0 29.6-24 53.6-53.5 53.6h-750c-29.6 0-53.6-24-53.6-53.6v-892.8c0-29.6 24-53.6 53.6-53.6h500c29.5 0 70.8 17.3 91.5 37.9z m-247.8-136.2v209.8h209.9c-3.4-9.5-8.4-19-12.3-22.9l-174.7-174.6c-3.9-3.9-13.4-9-22.9-12.3z m214.3 852.7v-571.5h-232.1c-29.6 0-53.6-24-53.6-53.5v-232.2h-428.6v857.2h714.3z m-571.4-482.2c0-10 7.8-17.8 17.8-17.8h392.9c10 0 17.9 7.8 17.9 17.8v35.7c0 10.1-7.9 17.9-17.9 17.9h-392.9c-10 0-17.8-7.8-17.8-17.9v-35.7z m410.7 125c10 0 17.9 7.8 17.9 17.9v35.7c0 10-7.9 17.9-17.9 17.9h-392.9c-10 0-17.8-7.9-17.8-17.9v-35.7c0-10.1 7.8-17.9 17.8-17.9h392.9z m0 142.9c10 0 17.9 7.8 17.9 17.8v35.8c0 10-7.9 17.8-17.9 17.8h-392.9c-10 0-17.8-7.8-17.8-17.8v-35.8c0-10 7.8-17.8 17.8-17.8h392.9z" /></svg>