<svg height="1000" width="857.1" xmlns="http://www.w3.org/2000/svg"><path d="m819.2 212.1c20.6 20.6 37.9 61.9 37.9 91.5v642.8c0 29.6-24 53.6-53.5 53.6h-750c-29.6 0-53.6-24-53.6-53.6v-892.8c0-29.6 24-53.6 53.6-53.6h500c29.5 0 70.8 17.3 91.5 37.9z m-247.8-136.2v209.8h209.9c-3.4-9.5-8.4-19-12.3-22.9l-174.7-174.6c-3.9-3.9-13.4-9-22.9-12.3z m214.3 852.7v-571.5h-232.1c-29.6 0-53.6-24-53.6-53.5v-232.2h-428.6v857.2h714.3z m-439.7-454.3c6.7 2.8 11.1 9.5 11.1 16.8v303.5c0 7.3-4.4 14-11.1 16.8-2.2 0.5-4.5 1.1-6.7 1.1-4.5 0-8.9-1.7-12.8-5l-92.7-93.2h-73.1c-10 0-17.8-7.8-17.8-17.9v-107.1c0-10.1 7.8-17.9 17.8-17.9h73.1l92.7-93.2c5.5-5 12.8-6.7 19.5-3.9z m232.7 384.5c10.6 0 20.6-4.4 27.9-13.4 46.3-56.9 72-128.9 72-202.5s-25.7-145.7-72-202.6c-12.3-15.6-35.2-17.9-50.2-5.6-15.7 12.8-17.9 35.2-5.1 50.8 36.3 44.6 55.8 99.3 55.8 157.4s-19.5 112.7-55.8 157.3c-12.8 15.6-10.6 38 5.1 50.2 6.7 5.6 14.5 8.4 22.3 8.4z m-117.8-82.6c9.5 0 19-3.9 26.3-11.1 31.2-33.5 48.5-76.5 48.5-122.2s-17.3-88.8-48.5-122.3c-13.4-14.5-36.3-15-50.8-1.6-14 13.4-15.1 36.2-1.1 50.8 18.4 20 29 45.7 29 73.1s-10.6 53-29 73.1c-14 14.5-12.9 37.3 1.1 50.7 7.2 6.2 16.2 9.5 24.5 9.5z" /></svg>