<svg height="1000" width="857.1" xmlns="http://www.w3.org/2000/svg"><path d="m819.2 212.1c20.6 20.6 37.9 61.9 37.9 91.5v642.8c0 29.6-24 53.6-53.5 53.6h-750c-29.6 0-53.6-24-53.6-53.6v-892.8c0-29.6 24-53.6 53.6-53.6h500c29.5 0 70.8 17.3 91.5 37.9z m-247.8-136.2v209.8h209.9c-3.4-9.5-8.4-19-12.3-22.9l-174.7-174.6c-3.9-3.9-13.4-9-22.9-12.3z m214.3 852.7v-571.5h-232.1c-29.6 0-53.6-24-53.6-53.5v-232.2h-428.6v857.2h714.3z m-357.1-500c39 0 71.4 32.3 71.4 71.4v214.3c0 39-32.4 71.4-71.4 71.4h-214.3c-39.1 0-71.4-32.4-71.4-71.4v-214.3c0-39.1 32.3-71.4 71.4-71.4h214.3z m274.5 1.1c6.7 2.8 11.2 9.5 11.2 16.7v321.5c0 7.2-4.5 13.9-11.2 16.7-2.2 0.6-4.4 1.1-6.7 1.1-4.4 0-9.5-1.7-12.8-5l-147.9-148.4v-50.3l147.9-148.4c3.3-3.4 8.4-5 12.8-5 2.3 0 4.5 0.5 6.7 1.1z" /></svg>