<svg height="1000" width="857.1" xmlns="http://www.w3.org/2000/svg"><path d="m357.1 214.3v-71.4h-71.4v71.4h71.4z m71.5 71.4v-71.4h-71.5v71.4h71.5z m-71.5 71.4v-71.4h-71.4v71.4h71.4z m71.5 71.5v-71.5h-71.5v71.5h71.5z m390.6-216.5c20.6 20.6 37.9 61.9 37.9 91.5v642.8c0 29.6-24 53.6-53.5 53.6h-750c-29.6 0-53.6-24-53.6-53.6v-892.8c0-29.6 24-53.6 53.6-53.6h500c29.5 0 70.8 17.3 91.5 37.9z m-247.8-136.2v209.8h209.9c-3.4-9.5-8.4-19-12.3-22.9l-174.7-174.6c-3.9-3.9-13.4-9-22.9-12.3z m214.3 852.7v-571.5h-232.1c-29.6 0-53.6-24-53.6-53.5v-232.2h-71.4v71.5h-71.5v-71.5h-285.7v857.2h714.3z m-349.9-402.4c47.5 160.2 59.7 194.8 59.7 194.8 2.8 9.5 4.5 19 4.5 29 0 61.9-60.3 107.1-142.9 107.1s-142.8-45.2-142.8-107.1c0-10 1.7-19.5 4.5-29 0 0 11.7-34.6 66.9-221v-71.4h71.4v71.4h44.1c16.2 0 30.2 10.6 34.6 26.2z m-78.7 259.5c39.7 0 71.5-16.2 71.5-35.7s-31.8-35.7-71.5-35.7-71.4 16.2-71.4 35.7 31.8 35.7 71.4 35.7z" /></svg>