<svg height="1000" width="1000.0" xmlns="http://www.w3.org/2000/svg"><path d="m779 516.7c-11.7-6.7-23.8-12.1-35.9-16.7 12.1-4.6 24.2-10 35.9-16.7 80-46.2 124.5-130.2 124.8-216.4-74.8-42.9-169.8-46.3-249.8 0-11.7 6.6-22.3 14.4-32.5 22.7 2-13.1 3.5-26.1 3.5-39.6 0-92.5-50.4-173.1-125-216.2-74.6 43.1-125 123.7-125 216.2 0 13.5 1.3 26.5 3.3 39.4-10.2-8.1-20.8-15.9-32.5-22.7-80-46.3-175-42.9-249.8 0 0.2 86.2 44.8 170.2 124.8 216.4 11.7 6.7 23.8 12.1 35.9 16.7-12.1 4.6-24.2 10-35.9 16.7-80 46.2-124.5 130.2-124.8 216.4 74.8 42.9 169.8 46.3 249.8 0 11.7-6.6 22.3-14.4 32.5-22.7-1.8 13.3-3.3 26.3-3.3 39.8 0 92.5 50.4 173.1 125 216.3 74.6-43.4 125-123.8 125-216.3 0-13.5-1.5-26.5-3.3-39.4 10.2 8.2 20.8 15.9 32.5 22.7 80 46.3 175 43 249.8 0-0.2-86.4-44.8-170.4-125-216.6z m-279 150c-92.1 0-166.7-74.6-166.7-166.7s74.6-166.7 166.7-166.7 166.7 74.6 166.7 166.7-74.6 166.7-166.7 166.7z" /></svg>