<svg height="1000" width="830.1" xmlns="http://www.w3.org/2000/svg"><path d="m373 169.9q-89.8 9.8-162.1 66.4l-60.5-58.6q97.6-80 222.6-91.8v84z m304.7 7.8l-58.6 58.6q-74.2-56.6-162.1-66.4v-84q123.1 11.8 220.7 91.8z m66.4 281.3q-9.7-89.9-66.4-164.1l58.6-58.6q80.1 97.7 93.8 222.7h-86z m-591.8-164.1q-56.6 74.2-68.3 164.1h-84q11.7-125 91.8-222.7z m-68.3 246.1q11.7 89.9 68.3 162.1l-60.5 60.6q-80.1-97.7-91.8-222.7h84z m455.1-41q0 52.7-36.2 88.9t-87.9 36.1-88.8-36.1-37.1-88.9 37.1-88.9 88.8-36.1 87.9 36.1 36.2 88.9z m138.6 205.1q56.7-74.2 66.4-162.1h86q-13.7 123-93.8 220.7z m-220.7 125q89.9-11.7 162.1-66.4l58.6 58.6q-97.6 80-220.7 91.8v-84z m-306.6-7.8l60.5-58.6q72.3 56.6 162.1 66.4v84q-125-11.8-222.6-91.8z" /></svg>