<svg height="1000" width="1000.0" xmlns="http://www.w3.org/2000/svg"><path d="m458.3 169.6v-84.2c-83.7 8.3-160 41.7-221.8 92.1l59.3 59.4c46.3-35.7 101.7-59.8 162.5-67.3z m305.2 7.9c-61.6-50.4-138.1-83.7-221.8-92.1v84.2c60.8 7.7 116.2 31.7 162.5 67.5l59.3-59.6z m66.9 280.8h84.2c-8.3-83.7-41.7-160-92.1-221.8l-59.4 59.3c35.7 46.3 59.8 101.7 67.3 162.5z m-593.3-162.5l-59.4-59.3c-50.6 61.8-83.9 138.1-92.3 221.8h84.2c7.7-60.8 31.7-116.2 67.5-162.5z m-67.5 245.9h-84.2c8.3 83.7 41.7 160 92.1 221.8l59.4-59.3c-35.7-46.3-59.6-101.9-67.3-162.5z m455.4-41.7c0-69-56-125-125-125s-125 56-125 125 56 125 125 125 125-56 125-125z m137.9 204l59.4 59.3c50.6-61.6 84-137.9 92.3-221.6h-84.2c-7.5 60.6-31.6 116.2-67.5 162.3z m-221.2 126.4v84.2c83.7-8.3 160-41.7 221.8-92.1l-59.3-59.4c-46.3 35.7-101.7 59.6-162.5 67.3z m-305.2-7.9c61.8 50.4 138.1 83.8 221.8 92.1v-84.2c-60.8-7.7-116.2-31.7-162.5-67.5l-59.3 59.6z" /></svg>