<svg height="1000" width="1000.0" xmlns="http://www.w3.org/2000/svg"><path d="m806.5 418.1c-28.4-143.3-154.8-251.4-306.5-251.4-120.4 0-224.6 68.3-276.9 168.1-125.4 13.3-223.1 119.6-223.1 248.5 0 138.2 111.9 250 250 250h541.7c115 0 208.3-93.3 208.3-208.3 0-110-85.4-199.2-193.5-206.9z m-14.8 331.9h-541.7c-91.9 0-166.7-74.8-166.7-166.7s74.8-166.6 166.7-166.6 166.7 74.8 166.7 166.6h83.3c0-115-77.7-211.4-183.3-240.6 41.8-56 108.3-92.7 183.3-92.7 126.5 0 229.2 102.7 229.2 229.2v20.8h62.5c68.9 0 125 56 125 125s-56.1 125-125 125z" /></svg>