<svg height="1000" width="1000.0" xmlns="http://www.w3.org/2000/svg"><path d="m503.9 1000c-215.4 0-386.7-126.1-465.4-306.4-88.2-200.3-17.9-521.2 139-662.9l-6.2 156.8c7.8-10 67.5-12.8 77 0 32.4-61.9 136.7-108.3 220.5-109.9-31.9 26.8-105.5 124.4-99.4 174.1 40.8 12.8 103.3 13.4 136.2 15.6 10 5.6 8.4 39.6-11.7 67.5 0 0-26.3 36.3-97.1 49.1l8.3 105.5-77.5-37.4c-25.1 63.6 35.1 120 97.6 109.4 69.2-11.7 93.8-56.9 142.3-54.1 48 2.7 67 29.5 60.8 54.6 0 0-7.8 30.2-59.7 25.2-44 69.7-102.6 100.4-197.5 92 144 119.4 338.2 11.2 387.3-86.5 49.1-97.1 6.1-241.6-43-282.3 58 25.1 98.2 50.7 119.4 107.1 11.2-125-46.3-266.7-149-349.9 193.1 56.4 310.9 205.9 314.2 444.8s-211.5 487.7-496.1 487.7z" /></svg>