<svg height="1000" width="1000.0" xmlns="http://www.w3.org/2000/svg"><path d="m969.1 37.5c-91.5 0.3-229.8 46.8-315.8 109.6-68.6-7.5-198.2-30.4-300.1-8-147.7 32.5-188.9 61-198.5 123.1-6.1 38.8 87.3 82.9 87.3 82.9 9.2-19.5 4.1-44.7-0.3-69.6l203.5 44.5 32.8 59.4c23-55 68.5-127.4 163.9-92.6 68.7 108.1 231.3 151.8 315.7 173.6 0 0-44.1-136-84.5-214 51.5-74.2 109-208.7 109-208.7-4.2-0.2-8.5-0.3-13-0.2z m-843.2 218.8c-116.7 127.4-137 310.3-32 496.7 21.4 37.9 221.1 236.2 393.8 262.3 152.7 23 503.4-110.3 503.4-110.3l-20.9-49.2-307 58.1 336.8-95.3c0 0-81.1-195.1-190.7-261.5-109.6-66.4-333.9-123-333.9-123l-45.2-90.9-159.2-42.5c6.6 30.8 0.3 63.6-14.5 91.7-48.7-38.2-122.9-72.3-130.6-136.1z m343.6 285.1c0 0-106.4 94.7-116.3 166.5-9.9 71.7 38.8 226.9 38.8 226.9 0 0-107.4-153.2-95.4-235.4 12.1-82.3 172.9-158 172.9-158z m186.1 106.9c29.3 0 53 24 53 53.7 0 29.6-23.7 53.6-53 53.6-29.3 0-53-24-53-53.6 0-29.7 23.7-53.7 53-53.7z m-542.5 165c-30.7 12.4-74.2 10.3-113.1 3.6l102.4 137.1c65.1 20.8 139.6 20.9 204.8 18.8-71.6-46-139.3-95.9-194.1-159.5z" /></svg>