<svg height="1000" width="1000.0" xmlns="http://www.w3.org/2000/svg"><path d="m464.3 558v-107.1c-68.1 6.1-150.1 33.5-214.3 65.3v103.2c64.7-30.1 145.1-55.8 214.3-61.4z m0-233.2v-110c-70.3 3.4-152.9 36.3-214.3 70.4v105.4c65.8-34 145.1-63 214.3-65.8z m464.3 258.3v-102.6c-50.8 25.1-139.5 62.5-214.3 39.6v-125c-7.3-2.2-14.5-5-21.8-8.4-64.2-32.3-116.6-62.5-200.9-62.5-8.9 0-17.8 0.6-27.3 1.7v123.9h10.6c84.3 0 153.4 30.1 217.6 61.9 7.3 3.4 14.5 6.2 21.8 8.4v104.9c15.1 6.1 31.8 9.5 50.8 9.5 61.9 0 128.9-32.9 163.5-51.4z m0-238.2v-105.5c-44.7 24-107.2 50.8-170.8 50.8v0c-15.1 0-29.6-1.1-43.5-4.5v109.4c74.8 21.2 163.5-21.8 214.3-50.2z m-750-202c0 26.2-14.5 49.1-35.7 61.3v706.5c0 10.1-7.9 17.9-17.9 17.9h-35.7c-10.1 0-17.9-7.8-17.9-17.9v-706.5c-21.2-12.2-35.7-35.1-35.7-61.3 0-39.7 31.8-71.5 71.4-71.5s71.5 31.8 71.5 71.5z m821.4 35.7v425.8c0 13.3-7.8 25.6-19.5 31.8-2.3 1.1-5.6 2.8-9.5 5-35.7 19-120 64.7-205.9 64.7-33 0-62.5-6.7-88.2-19.5l-15.6-7.8c-56.4-28.5-101-50.8-169.7-50.8-80.3 0-193.6 41.8-258.9 81.5-5.6 3.3-12.3 5-18.4 5s-12.3-1.7-17.9-4.5c-11.1-6.7-17.8-18.4-17.8-31.2v-414.1c0-12.3 6.7-24 17.3-30.7 35.7-21.2 161.8-90.9 279-90.9 93.2 0 169.1 34 233.2 65.2 14.6 7.3 31.3 10.7 49.7 10.7 65.9 0 138.4-41.9 173-62.5 7.3-4 13.4-7.3 17.3-9.5 11.2-5.6 24-5.1 34.6 1.1 10.6 6.7 17.3 18.4 17.3 30.7z" /></svg>