<svg height="1000" width="1000.0" xmlns="http://www.w3.org/2000/svg"><path d="m178.6 142.9c0 25.6-14 48.5-35.7 61.3v706.5c0 9.5-8.4 17.9-17.9 17.9h-35.7c-9.5 0-17.9-8.4-17.9-17.9v-706.5c-21.7-12.8-35.7-35.7-35.7-61.3 0-39.7 31.8-71.5 71.4-71.5s71.5 31.8 71.5 71.5z m821.4 35.7v425.8c0 20.6-12.8 28.4-29 36.8-63.1 34-132.8 64.7-205.9 64.7-102.7 0-151.8-78.1-273.5-78.1-88.7 0-181.9 40.2-258.9 81.5-6.1 3.3-11.7 5-18.4 5-19.5 0-35.7-16.2-35.7-35.7v-414.1c0-13.4 6.7-22.9 17.3-30.7 13.4-8.9 29.5-16.7 44.1-24 70.3-35.7 155.6-66.9 234.9-66.9 87.6 0 156.2 29 233.8 65.2 15.6 7.9 31.8 10.7 49.1 10.7 87.6 0 181.9-75.9 206.5-75.9 19.5 0 35.7 16.1 35.7 35.7z" /></svg>