<svg height="1000" width="1000.0" xmlns="http://www.w3.org/2000/svg"><path d="m625 875h83.3v-83.3h-83.3v83.3z m166.7-500h83.3v-83.3h-83.3v83.3z m-666.7-166.7v583.4c0 46 37.3 83.3 83.3 83.3h166.7v-83.3h-166.7v-583.4h166.7v-83.3h-166.7c-46 0-83.3 37.3-83.3 83.3z m666.7-83.3v83.3h83.3c0-46-37.3-83.3-83.3-83.3z m-333.4 833.3h83.4v-916.6h-83.4v916.6z m333.4-250h83.3v-83.3h-83.3v83.3z m-166.7-500h83.3v-83.3h-83.3v83.3z m166.7 333.4h83.3v-83.4h-83.3v83.4z m0 333.3c46 0 83.3-37.3 83.3-83.3h-83.3v83.3z" /></svg>