<svg height="1000" width="750.0" xmlns="http://www.w3.org/2000/svg"><path d="m250 291v84h-84v-84h84z m0 168v82h-84v-82h84z m0-334v84h-84q0-35.2 24.4-59.6t59.6-24.4z m166 500v84h-82v-84h82z m250-500q35.2 0 59.6 24.4t24.4 59.6h-84v-84z m-250 0v84h-82v-84h82z m-166 584q-35.2 0-59.6-24.4t-24.4-59.6h84v84z m416-168v-82h84v82h-84z m0-166v-84h84v84h-84z m0 334v-84h84q0 35.2-24.4 59.6t-59.6 24.4z m-582-418v500h500v84h-500q-35.2 0-59.6-24.4t-24.4-59.6v-500h84z m416-82v-84h84v84h-84z m0 500v-84h84v84h-84z" /></svg>