<svg height="1000" width="857.1" xmlns="http://www.w3.org/2000/svg"><path d="m214.3 857.1h428.6v-214.2h-428.6v214.2z m500 0h71.4v-500c0-10.6-9.5-33.4-16.7-40.7l-156.8-156.8c-7.8-7.8-29.6-16.7-40.8-16.7v232.1c0 29.6-24 53.6-53.5 53.6h-321.5c-29.5 0-53.5-24-53.5-53.6v-232.1h-71.5v714.2h71.5v-232.1c0-29.6 24-53.6 53.5-53.6h464.3c29.6 0 53.6 24 53.6 53.6v232.1z m-214.3-517.8v-178.6c0-9.5-8.4-17.8-17.9-17.8h-107.1c-9.5 0-17.9 8.3-17.9 17.8v178.6c0 9.5 8.4 17.8 17.9 17.8h107.1c9.5 0 17.9-8.3 17.9-17.8z m357.1 17.8v517.9c0 29.6-24 53.6-53.5 53.6h-750c-29.6 0-53.6-24-53.6-53.6v-750c0-29.6 24-53.6 53.6-53.6h517.8c29.6 0 70.3 16.8 91.5 38l156.3 156.2c21.2 21.2 37.9 62 37.9 91.5z" /></svg>