<svg height="1000" width="928.6" xmlns="http://www.w3.org/2000/svg"><path d="m404.6 311.9l-94.9 251.2c55.3 0.5 110.5 2.2 165.7 2.2 10.6 0 21.3-0.6 31.9-1.1-29.1-84.8-63.1-171.3-102.7-252.3z m-404.6 616.7l1.1-44.1c52.5-16.2 109.4-5 132.8-65.3l132.3-343.8 156.2-404h41.9 29.6c2.2 3.9 4.4 7.8 6.1 11.7l114.4 267.9c41.8 98.8 80.4 198.7 122.8 296.9 25.1 58 44.6 117.7 72.5 174.6 3.9 9 11.7 25.7 19.5 31.9 18.5 14.5 69.8 17.8 96 27.9 1.7 10.6 3.4 21.2 3.4 31.8 0 5-0.6 9.4-0.6 14.5-70.9 0-141.7-9-212.6-9-73.1 0-146.2 6.2-219.3 8.4 0-14.5 0.6-29 2.2-43.5l73.1-15.6c15.1-3.4 44.7-7.3 44.7-27.9 0-20.1-72-185.9-80.9-208.7l-251.2-1.2c-14.5 32.4-70.8 178.6-70.8 199.8 0 43 82 44.7 113.8 49.1 0.6 10.6 0.6 21.2 0.6 32.4 0 5-0.6 10-1.1 15.1-64.8 0-130.1-11.2-194.8-11.2-7.8 0-19 3.3-26.8 4.5-35.1 6.1-69.7 7.8-104.9 7.8z" /></svg>