<svg height="1000" width="857.1" xmlns="http://www.w3.org/2000/svg"><path d="m857.1 285.7v468.2c0 17.3-11.1 30.1-27.3 34.6-59.7 17.9-126.7 29-188.6 29-83.7 0-154.6-32.9-247.2-32.9-68.7 0-139.5 11.2-206.5 26.8v188.6h-89.3v-763.4c-46.9-18.4-77.6-64.2-77.6-114.4 0-67.5 54.7-122.2 122.3-122.2s122.2 54.7 122.2 122.2c0 50.2-30.7 96-77.6 114.4v38c62.5-14.6 127.2-24.6 191.4-24.6 36.8 0 73.7 2.8 110.5 8.4 48 7.2 96.5 24 145.6 24 30.7 0 62-3.9 92.1-10.1 22.9-4.4 75.4-22.3 94.3-22.3 19.6 0 35.7 16.2 35.7 35.7z" /></svg>