<svg height="1000" width="1000.0" xmlns="http://www.w3.org/2000/svg"><path d="m357.1 562.5v-125c0-5-3.9-8.9-8.9-8.9h-53.6c-5 0-8.9 3.9-8.9 8.9v125c0 5 3.9 8.9 8.9 8.9h53.6c5 0 8.9-3.9 8.9-8.9z m285.8 0v-125c0-5-3.9-8.9-9-8.9h-53.5c-5.1 0-9 3.9-9 8.9v125c0 5 3.9 8.9 9 8.9h53.5c5.1 0 9-3.9 9-8.9z m285.7 17.9v419.6h-357.2v-178.6c0-59.1-48-107.1-107.1-107.1s-107.2 48-107.2 107.1v178.6h-357.1v-419.6c0-5.1 3.9-9 8.9-9h53.6c5 0 8.9 3.9 8.9 9v62.5h71.5v-348.3c0-5 3.9-8.9 8.9-8.9h53.6c5 0 8.9 3.9 8.9 8.9v62.5h71.4v-62.5c0-5 3.9-8.9 8.9-8.9h53.6c5 0 8.9 3.9 8.9 8.9v62.5h71.5v-62.5c0-11.7 15.6-8.9 22.9-8.9v-218.2c-10.7-5-17.9-16.2-17.9-27.9 0-16.7 13.9-30.7 30.7-30.7s30.7 14 30.7 30.7c0 11.7-7.3 22.9-17.9 27.9v9.5c15.1-3.3 30.7-5.6 46.3-5.6 22.9 0 44.7 8.4 63.7 8.4 17.3 0 36.8-8.4 46.8-8.4 5.1 0 9 3.9 9 9v117.1c0 13.4-45.2 15.7-54.2 15.7-20.6 0-40.2-8.4-61.4-8.4-16.7 0-34 2.8-50.2 6.7v74.2c7.3 0 22.9-2.8 22.9 8.9v62.5h71.4v-62.5c0-5 3.9-8.9 9-8.9h53.5c5.1 0 9 3.9 9 8.9v62.5h71.4v-62.5c0-5 3.9-8.9 8.9-8.9h53.6c5 0 8.9 3.9 8.9 8.9v348.3h71.4v-62.5c0-5.1 3.9-9 9-9h53.5c5.1 0 9 3.9 9 9z" /></svg>