<svg height="1000" width="857.1" xmlns="http://www.w3.org/2000/svg"><path d="m521.2 83.7c-236 89.8-421.9 278.5-510 515.1-7.3-32.4-11.2-65.3-11.2-98.2 0-236.1 190.8-427.5 426.9-427.5 31.8 0 63.6 3.9 94.3 10.6z m150.1 66.4c34.6 24 65.3 53 91.5 86.5-289 84.3-515 311.4-597.6 601-32.9-25.7-62.5-55.8-86.5-90.4 83.1-286.8 306.3-512.3 592.6-597.1z m-409 744.4c85.9-265 293.5-473.7 557.5-561.4 15 34.6 25.1 71.5 30.1 108.9-217.6 89.3-390.6 263.4-479.4 481.5-37.4-5-73.6-14.5-108.2-29z m594.8 32.4c-69.2-17.9-137.8-39.1-204.8-64.2-49.1 30.7-104.3 51.4-161.8 59.7 81.5-152.3 207-278.4 358.8-360.5-7.8 55.8-27.3 110.5-56.3 158.5 25.1 67.5 46.3 136.7 64.1 206.5z" /></svg>