<svg height="1000" width="666.0" xmlns="http://www.w3.org/2000/svg"><path d="m0 542q0-137.7 97.7-235.4t236.3-97.6v-168l207 209-207 209v-168q-103.5 0-176.8 74.2t-73.2 176.8 73.2 175.8 175.8 73.2 176.8-73.2 74.2-176.8h82q0 138.7-97.6 236.3t-235.4 97.7-235.3-97.7-97.7-235.3z m279.3 38.1l7.8-91.8h99.6v29.3h-70.3l-3.9 37.1q3.9 0 3.9-3.9 0-2 2-2t1.9-3.9h9.8 7.8q15.6 0 19.5 5.9 3.9 1.9 9.8 5.8t7.8 5.9q3.9 3.9 11.7 21.5 5.9 7.8 5.9 24.4t-5.9 20.5q0 2-3.9 8.8t-7.8 12.7q-3.9 3.9-21.5 11.7-7.8 3.9-24.4 3.9t-20.5-3.9q-2-1.9-9.8-3.9t-11.7-3.9q-5.8-2-11.7-17.6-3.9-7.8-3.9-19.5h33.2q0 7.8 7.8 15.6 3.9 3.9 17.6 3.9 7.8 0 11.7-3.9l7.8-7.8q3.9-7.8 3.9-11.7v-25.4l-3.9-7.8-7.8-9.8q-7.8-3.9-11.7-3.9h-9.8q-3.9 0-7.8 3.9-2 2-2.9 2t-1 1.9l-3.9 5.9h-25.4z" /></svg>