<svg height="1000" width="714.3" xmlns="http://www.w3.org/2000/svg"><path d="m558 242.2l20.7-108.3c3.9-17.8-9.5-31.8-24.6-31.8h-397.3c-17.8 0-30.1 16.2-30.1 30.2v614.4c0 1.6 1.6 2.2 3.3 0.5 146.2-175.8 162.4-196.4 162.4-196.4 16.8-19.5 23.4-22.9 48-22.9h133.4c18.4 0 29-15.6 30.7-24.6s17.3-90.4 20.6-106.5-11.7-33-26.8-33h-164c-21.8 0-37.4-15.6-37.4-37.3v-23.5c0-21.8 15.6-36.8 37.4-36.8h193c13.4 0 28.5-12.3 30.7-24z m126.7-123.9c-20.6 100.5-82.6 418-88.2 440.9-6.7 26.2-16.7 71.9-80.3 71.9h-151.2c-6.2 0-6.7-0.5-12.3 5.6 0 0-3.9 4.5-237.7 275.7-18.5 21.2-48.6 17.3-59.8 12.8s-30.6-17.8-30.6-54.7v-786.8c0-32.4 20-83.7 88.1-83.7h495.6c72.5 0 92 41.3 76.4 118.3z m0 0l-88.2 440.9c5.6-22.9 67.6-340.5 88.2-440.9z" /></svg>