<svg height="1000" width="1000.0" xmlns="http://www.w3.org/2000/svg"><path d="m339.8 455.4l160.2-116.1 160.2 116.1-60.9 187.5h-198.1z m160.2-455.4c276.2 0 500 223.8 500 500s-223.8 500-500 500-500-223.8-500-500 223.8-500 500-500z m345.4 753.3c52.5-71.4 83.2-158.4 83.2-253.3v-1.7l-56.9 49.7-134-125 35.2-180.3 74.8 6.7c-53.1-73.1-128.9-129.4-217.1-157.3l29.6 69.2-160.2 88.7-160.2-88.7 29.6-69.2c-88.1 27.9-164 84.2-217.1 157.3l75.4-6.7 34.6 180.3-134 125-56.9-49.7v1.7c0 94.9 30.7 181.9 83.2 253.3l16.7-73.6 181.9 22.3 77.6 166.3-64.7 38.5c41.8 14 87 21.8 133.9 21.8s92.1-7.8 133.9-21.8l-64.7-38.5 77.6-166.3 181.9-22.3z" /></svg>