<svg height="1000" width="1071.4" xmlns="http://www.w3.org/2000/svg"><path d="m464.3 607.1v-71.4c0-10-7.8-17.8-17.9-17.8h-107.1v-107.2c0-10-7.8-17.8-17.9-17.8h-71.4c-10 0-17.9 7.8-17.9 17.8v107.2h-107.1c-10 0-17.9 7.8-17.9 17.8v71.4c0 10.1 7.9 17.9 17.9 17.9h107.1v107.1c0 10.1 7.9 17.9 17.9 17.9h71.4c10.1 0 17.9-7.8 17.9-17.9v-107.1h107.1c10.1 0 17.9-7.8 17.9-17.9z m321.4 35.8c0-39.7-31.8-71.5-71.4-71.5s-71.4 31.8-71.4 71.5 31.8 71.4 71.4 71.4 71.4-31.8 71.4-71.4z m142.9-142.9c0-39.6-31.8-71.4-71.5-71.4s-71.4 31.8-71.4 71.4 31.8 71.4 71.4 71.4 71.5-31.8 71.5-71.4z m142.8 71.4c0 158-127.8 285.7-285.7 285.7-72.5 0-138.4-27.3-188.6-71.4h-122.8c-50.2 44.1-116 71.4-188.6 71.4-157.9 0-285.7-127.7-285.7-285.7s127.8-285.7 285.7-285.7h500c157.9 0 285.7 127.8 285.7 285.7z" /></svg>