<svg height="1000" width="1000.0" xmlns="http://www.w3.org/2000/svg"><path d="m988.3 857.1c0 19-7.8 37.4-20.7 50.3l-59.7 60.2c-13.4 12.9-31.8 20.7-50.8 20.7s-37.3-7.8-50.2-20.7l-202.5-203.1c-13.4-12.8-21.3-31.2-21.3-50.2 0-21.2 9-38.5 24-53.6l-142.8-142.8-70.3 70.3c-5 5-11.7 7.8-19 7.8s-14-2.8-19-7.8c16.8 16.7 32.4 29 32.4 54.7 0 14.5-5.6 27.3-15.6 37.9-19 20.1-39.1 46.9-69.2 46.9-14 0-27.9-5.6-38-15.6l-227.7-227.7c-10-10.1-15.6-24-15.6-38 0-30.1 26.8-50.2 46.9-69.2 10.6-10 23.4-15.6 37.9-15.6 25.7 0 38 15.6 54.7 32.4-5-5-7.8-11.7-7.8-19s2.8-14 7.8-19l194.2-194.2c5-5 11.7-7.8 19-7.8s14 2.8 19 7.8c-16.8-16.7-32.4-29-32.4-54.7 0-14.5 5.6-27.3 15.6-37.9 19-20.1 39.1-46.9 69.2-46.9 14 0 27.9 5.6 38 15.6l227.7 227.7c10 10.1 15.6 24 15.6 38 0 30.1-26.8 50.2-46.9 69.2-10.6 10-23.4 15.6-37.9 15.6-25.7 0-38-15.6-54.7-32.4 5 5 7.8 11.7 7.8 19s-2.8 14-7.8 19l-70.3 70.3 142.8 142.8c15.1-15 32.4-24 53.6-24 19 0 37.4 7.9 50.8 20.7l202.5 202.6c12.9 13.4 20.7 31.8 20.7 50.7z" /></svg>