<svg height="1000" width="1000.0" xmlns="http://www.w3.org/2000/svg"><path d="m191.5 286.9c29.1-29.8 58.3-56.5 71.4-51.1 20.6 8.6-0.4 43.4-12.5 63.6-10.4 17.5-119.2 161.9-119.2 262.9 0 53.3 19.8 97.5 56.1 124.2 31.2 23.1 72.3 30.2 110 19.1 44.6-13.1 81.2-58.1 127.5-115.2 50.4-62.1 117.9-143.3 170-143.3 67.9 0 68.7 42.1 73.3 74.8-157.9 27.1-224.4 153.1-224.4 224.1s60 129 133.6 129c67.7 0 178.9-55.4 195.4-254.2h102.3v-104.1h-102.9c-6.3-68.8-45.4-174.8-167.9-174.8-93.8 0-174.4 79.6-205.7 118.5-24.1 30.2-85.6 103.1-95.2 113.6-10.6 12.3-28.1 35-46.4 35-18.6 0-29.8-34.8-15.2-80.2 14.6-45.7 58.3-119.2 77.1-146.5 32.7-47.5 53.9-80.2 53.9-136.7 0-91.6-68.3-120.4-104.6-120.4-55 0-102.9 41.7-113.5 52.3-14.8 15-27.3 27.3-36.5 38.5l73.4 70.9z m387 486.2c-12.9 0-30.6-10.8-30.6-30.2 0-25 30.2-91.6 119.8-115.2-12.9 112.3-60 145.4-89.2 145.4z" /></svg>