<svg height="1000" width="755.9" xmlns="http://www.w3.org/2000/svg"><path d="m72.3 287.1l-72.3-70.3q9.8-11.7 37.1-39.1 50.8-52.7 113.3-52.7 35.1 0 69.3 29.3t34.2 89.8q0 39.1-11.7 66.4t-41 70.4q-56.7 83.9-78.2 146.4-9.7 35.2-4.8 57.7t20.5 22.4q17.6 0 46.8-35.1 31.3-33.2 93.8-113.3 35.2-43 89.8-80.1t117.2-37.1q82.1 0 122.1 53.7t45.9 120.1h101.6v103.5h-101.6q-11.7 134.8-71.3 195.4t-124 60.5q-54.7 0-94.7-38.1t-40.1-90.8q0-64.5 58.6-135.7t166-88.9v-5.9q-1.9-15.6-4.9-24.4t-9.7-20.5-21.5-17.6-36.1-5.8q-35.2 0-76.2 39t-93.8 103.5q-31.2 37.2-45.9 54.7t-38 36.2-45 24.4q-58.6 19.5-109.3-17.6-56.7-43-56.7-125 0-27.3 11.7-63.5t29.3-69.3 32.3-58.6 30.2-47.9 15.7-24.4q35.1-54.7 13.6-62.5-15.6-5.8-72.2 50.8z m388.6 486.3q27.4 0 53.7-35.1t34.2-111.3q-58.6 15.6-88.8 52.7t-30.3 62.5q0 13.7 9.8 22.4t21.4 8.8z" /></svg>