<svg height="1000" width="959.8" xmlns="http://www.w3.org/2000/svg"><path d="m873.3 71.4c48.6 0 86.5 39.1 86.5 87.1v289.6c0 267.3-213.7 480.5-479.3 480.5-266.8 0-480.5-213.2-480.5-480.5v-289.6c0-47.5 39.6-87.1 87.1-87.1h786.2z m-392.8 593.8c16.7 0 33.5-6.7 45.7-18.4l225.5-216.6c12.8-12.2 20.6-29.5 20.6-47.4 0-36.3-29.6-65.8-65.8-65.8-17.3 0-33.5 6.7-45.8 18.4l-180.2 173-180.3-173c-12.3-11.7-28.4-18.4-45.2-18.4-36.3 0-65.8 29.5-65.8 65.8 0 17.9 7.2 35.2 20.1 47.4l226 216.6c11.7 11.7 28.4 18.4 45.2 18.4z" /></svg>