<svg height="1000" width="1000.0" xmlns="http://www.w3.org/2000/svg"><path d="m332 844.9c0-49.1-54.1-55.8-92-55.8-39.7 0-88.2 8.3-88.2 58 0 50.2 57.5 56.4 96 56.4 40.7 0 84.2-10.1 84.2-58.6z m-32.9-421.4c0-41.8-20.1-79.7-66.4-79.7-51.3 0-69.2 34-69.2 80.9 0 46.3 20.1 75.3 69.2 75.3 48.6 0 66.4-31.2 66.4-76.5z m150.1-180.8v112.8c-14.5 5-29 8.9-44.1 12.2 5.6 15.1 9 30.7 9 46.9 0 94.3-58.1 166.3-150.7 183.6-27.9 5.6-44.1 17.3-44.1 47.4 0 85.4 225.5 27.4 225.5 184.8 0 127.7-86.5 169.6-202.6 169.6-95.4 0-204.3-31.8-204.3-146.8 0-66.9 40.8-105.4 101.6-125.5v-2.3c-25.7-15.6-37.4-40.1-37.4-70.3 0-28.4 6.2-63.6 35.2-76.4v-2.2c-56.4-19-93.2-96.6-93.2-153 0-104.3 80.9-180.8 184.1-180.8 34.6 0 69.2 9 99.4 26.3 41.8 0 83.1-11.2 121.6-26.3z m177.5 491.7h-123.9c2.2-25.1 2.2-49.7 2.2-74.8v-339.8c0-24 0.6-48-2.2-71.5h123.9c-2.8 22.9-2.3 46.3-2.3 69.2v342.1c0 25.1 0 49.7 2.3 74.8z m335.4-123.9v109.4c-29.6 16.1-63.7 21.7-97.1 21.7-119.5 0-133.4-94.3-133.4-191.4v-195.8h1.1v-2.3c-7.3 0-14-1.1-20.6-1.1-11.2 0-22.4 1.7-33 3.4v-106.1h53.6v-42.4c0-16.7-0.6-33.5-3.3-49.6h126.6c-4.4 30.6-3.3 61.3-3.3 92h95.4v106.1c-16.2 0-32.4-2.3-48-2.3h-47.4v203.7c0 32.9 7.2 73.1 48.5 73.1 21.8 0 43-6.1 60.9-18.4z m-321.5-528.5c0 41.9-32.3 80.9-75.3 80.9-44.1 0-77-38.5-77-80.9 0-42.9 32.3-82 77-82 44.1 0 75.3 40.2 75.3 82z" /></svg>