<svg height="1000" width="857.1" xmlns="http://www.w3.org/2000/svg"><path d="m857.1 500c0 189.2-122.7 349.9-292.9 406.8-21.8 3.9-29-9.5-29-20.6v-117.8c0-40.2-13.4-65.8-29.1-79.2 95.5-10.6 195.9-46.9 195.9-211.5 0-46.9-16.7-85.4-44.1-115 4.5-11.1 19-54.7-4.4-113.8-35.8-11.2-117.8 44.1-117.8 44.1-34-9.5-70.9-14.5-107.1-14.5s-73.1 5-107.2 14.5c0 0-82-55.3-118.3-44.1-22.9 59.1-8.3 102.7-3.9 113.8-27.3 29.6-44.1 68.1-44.1 115 0 164 99.9 200.9 195.3 211.5-12.2 11.1-23.4 29.6-27.3 57.5-24.6 11.1-87.1 30.1-124.4-35.8-23.5-40.7-65.9-44-65.9-44-41.8-0.6-2.8 26.2-2.8 26.2 27.9 12.8 47.5 62.5 47.5 62.5 25.1 76.4 144.5 50.8 144.5 50.8 0 35.7 0.5 69.7 0.5 79.8 0 11.1-7.8 24.5-29.5 20.6-170.2-56.9-293-217.6-293-406.8 0-236.6 192-428.6 428.6-428.6s428.5 192 428.5 428.6z" /></svg>