<svg height="1000" width="857.1" xmlns="http://www.w3.org/2000/svg"><path d="m289.6 669.6v0c1.1-1.6 0.6-5-1.7-7.2-2.7-2.2-6.1-2.8-7.8-1.1-1.1 1.6-0.5 5 1.7 7.2 2.8 2.3 6.1 2.8 7.8 1.1z m-15.6-22.8c-1.7-2.3-4.5-3.4-6.7-2.3-1.7 1.1-1.7 4.5 0 6.7 2.2 2.8 5 3.9 6.7 2.8v0c1.7-1.1 1.7-4.4 0-7.2z m-22.9-22.4v0c0.6-1.1-0.5-3.3-2.8-4.4-1.6-0.6-3.9-0.6-4.4 1.1-1.2 1.7 0 3.3 2.2 4.5 2.2 0.5 4.5 0.5 5-1.2z m11.7 12.9v0c1.2-1.1 1.2-3.9-1.1-5.6-1.7-2.2-4.4-2.8-5.6-1.7-1.6 1.7-1.1 3.9 0.6 6.2 1.7 1.6 4.5 2.8 6.1 1.1z m48 41.8v0c0.6-2.2-1.6-5-5-6.1s-6.1 0-7.3 2.2c-0.5 2.3 1.7 5 5.1 6.2s6.1 0 7.2-2.3z m23.5 1.7v0c0-2.2-2.8-4.5-6.7-4.5-3.4 0-5.6 2.3-5.6 4.5s2.8 4.5 6.1 4.5 6.2-2.3 6.2-4.5z m21.7-3.9v0c-0.5-2.2-3.9-3.4-7.2-2.8s-5.6 2.8-5 5 3.3 3.9 6.6 3.4 5.6-3.4 5.6-5.6z m358.3-176.9c0-157.9-127.8-285.7-285.7-285.7s-285.7 127.8-285.7 285.7c0 126.1 82 233.3 195.3 271.2 14.5 2.8 19.5-6.1 19.5-13.9 0-6.7 0-29.1-0.6-53.1 0 0-79.2 17.3-95.9-34 0 0-12.9-32.9-31.8-41.3 0 0-25.7-17.9 2.2-17.9 0 0 27.9 2.3 43.5 29.6 25.1 44.1 67 31.3 83.2 24 2.7-18.4 10-31.2 18.4-38.5-63.6-7.2-130.6-31.8-130.6-141.2 0-31.2 11.2-56.3 29.6-76.4-2.8-7.3-12.9-36.3 2.8-75.9 24-7.3 78.6 29.6 78.6 29.6 22.9-6.7 46.9-9.5 71.5-9.5s48.5 2.8 71.4 9.5c0 0 54.7-36.9 78.7-29.6 15.6 39.6 5.6 68.6 2.8 75.9 18.4 20.1 29.5 45.2 29.5 76.4 0 110-66.9 134-130.5 141.2 10 8.9 19.5 26.2 19.5 53 0 38-0.6 68.7-0.6 78.2 0 7.8 5.1 16.7 19.6 13.9 113.3-37.9 195.3-145.1 195.3-271.2z m142.8-267.9v535.8c0 88.7-71.9 160.7-160.7 160.7h-535.7c-88.7 0-160.7-72-160.7-160.7v-535.8c0-88.7 72-160.7 160.7-160.7h535.7c88.8 0 160.7 72 160.7 160.7z" /></svg>