<svg height="1000" width="857.1" xmlns="http://www.w3.org/2000/svg"><path d="m428.6 71.4c236.6 0 428.5 192 428.5 428.6 0 189.2-122.7 349.9-292.9 406.8-21.8 3.9-29.6-9.5-29.6-20.6 0-14 0.6-60.3 0.6-117.8 0-40.2-13.4-65.8-29.1-79.2 95.5-10.6 195.9-46.9 195.9-211.5 0-46.9-16.7-84.8-44.1-115 4.5-11.1 19-54.7-4.4-113.8-35.8-11.2-117.8 44.1-117.8 44.1-34-9.5-70.9-14.5-107.1-14.5s-73.1 5-107.2 14.5c0 0-82-55.3-117.7-44.1-23.5 59.1-8.9 102.7-4.5 113.8-27.3 30.2-44.1 68.1-44.1 115 0 164 99.9 200.9 195.3 211.5-12.2 11.1-23.4 30.1-27.3 57.5-24.6 11.1-87.1 30.1-124.4-35.8-23.5-40.7-65.9-44-65.9-44-41.8-0.6-2.8 26.2-2.8 26.2 27.9 12.8 47.5 62.5 47.5 62.5 25.1 76.4 144.5 50.8 144.5 50.8 0 35.7 0.5 69.2 0.5 79.8 0 11.1-7.8 24.5-29.5 20.6-170.2-56.9-293-217.6-293-406.8 0-236.6 192-428.6 428.6-428.6z m-266.2 615.5c1.1-2.2-0.6-5-3.9-6.7-3.4-1.1-6.2-0.5-7.3 1.2-1.1 2.2 0.6 5 3.9 6.7 2.8 1.6 6.2 1.1 7.3-1.2z m17.3 19c2.2-1.7 1.7-5.6-1.1-8.9-2.8-2.8-6.7-3.9-9-1.7-2.2 1.7-1.6 5.6 1.2 8.9 2.7 2.8 6.7 3.9 8.9 1.7z m16.7 25.1c2.8-2.2 2.8-6.7 0-10.6-2.2-3.9-6.7-5.6-9.5-3.3-2.7 1.7-2.7 6.1 0 10s7.3 5.6 9.5 3.9z m23.5 23.5c2.2-2.3 1.1-7.3-2.3-10.6-3.9-3.9-8.9-4.5-11.1-1.7-2.8 2.2-1.7 7.2 2.2 10.6 3.9 3.9 8.9 4.5 11.2 1.7z m31.8 13.9c1.1-3.3-2.3-7.2-7.3-8.9-4.4-1.1-9.5 0.5-10.6 3.9s2.2 7.2 7.3 8.4c4.4 1.6 9.5 0 10.6-3.4z m35.1 2.8c0-3.9-4.4-6.7-9.5-6.1-5 0-8.9 2.8-8.9 6.1 0 3.9 3.9 6.7 9.5 6.1 5 0 8.9-2.7 8.9-6.1z m32.4-5.6c-0.6-3.3-5-5.6-10-5-5.1 1.1-8.4 4.5-7.9 8.4 0.6 3.3 5.1 5.6 10.1 4.4s8.4-4.4 7.8-7.8z" /></svg>