<svg height="1000" width="834.0" xmlns="http://www.w3.org/2000/svg"><path d="m84 84h666q35.2 0 59.6 24.4t24.4 57.6v668q0 33.2-24.4 57.6t-59.6 24.4h-214.8q-13.7-1.9-13.7-41v-113.3q0-52.7-29.3-78.1 85.9-9.8 137.7-52.7t51.7-152.4q0-64.4-42.9-111.3 21.5-50.8-3.9-111.3-35.2-11.8-113.3 42.9-50.8-13.6-105.5-13.6t-103.5 13.6q-35.2-23.4-63.5-34.2t-40-8.7h-11.7q-23.5 60.5-3.9 111.3-43 46.9-43 111.3 0 107.4 52.7 151.4t136.7 53.7q-21.4 19.5-25.3 56.6-82.1 35.2-121.1-35.1-23.5-39.1-64.5-43-3.9 0-8.8 1t-10.7 6.8 15.6 17.6q29.3 13.7 46.9 60.5 1.9 4 3.9 8.8t12.7 18.6 25.4 20.5 40 12.7 58.6-3.9v70.3q0 39.1-15.6 41h-212.9q-35.2 0-59.6-24.4t-24.4-57.6v-668q0-33.2 24.4-57.6t59.6-24.4z" /></svg>