<svg height="1000" width="857.1" xmlns="http://www.w3.org/2000/svg"><path d="m219.9 754.5c-2.3 2.8-7.3 2.2-11.2-1.7-3.9-3.4-5-8.4-2.2-10.6 2.2-2.8 7.2-2.2 11.1 1.7 3.4 3.3 4.5 8.3 2.3 10.6z m-23.5-34.1c2.8 3.9 2.8 8.4 0 10.6v0c-2.2 1.7-6.7 0-9.5-3.9s-2.7-8.3 0-10c2.8-2.3 7.3-0.6 9.5 3.3z m-34-33.5c-1.1 1.7-4.5 2.8-7.3 1.2-3.3-1.7-5-4.5-3.9-6.7 1.1-1.7 3.9-2.3 7.3-1.2 3.3 1.7 5 4.5 3.9 6.7z m17.3 19c-2.2 2.2-6.2 1.1-8.9-1.7-2.8-3.3-3.4-7.2-1.2-8.9 2.3-2.2 6.2-1.1 9 1.7 2.8 3.3 3.3 7.2 1.1 8.9z m72 62.5c-1.1 3.4-6.2 5-10.6 3.4-5.1-1.2-8.4-5.1-7.3-8.4s6.2-5 10.6-3.9c5 1.7 8.4 5.6 7.3 8.9z m35.1 2.8c0 3.4-3.9 6.1-8.9 6.1-5.6 0.6-9.5-2.2-9.5-6.1 0-3.3 3.9-6.1 8.9-6.1 5.1-0.6 9.5 2.2 9.5 6.1z m32.4-5.6c0.6 3.4-2.8 6.7-7.8 7.8s-9.5-1.1-10.1-4.4c-0.5-3.9 2.8-7.3 7.9-8.4 5-0.6 9.4 1.7 10 5z m537.9-533.5v535.8c0 88.7-71.9 160.7-160.7 160.7h-125c-17.8 0-36.2 0-36.2-26.8v-133.4c0-40.2-13.4-65.8-29.1-79.2 95.5-10.6 195.9-46.9 195.9-211.5 0-46.9-16.7-85.4-44.1-115 4.5-11.1 19-54.7-4.4-113.8-35.8-11.2-117.8 44.1-117.8 44.1-34-9.5-70.9-14.5-107.1-14.5s-73.1 5-107.2 14.5c0 0-82-55.3-118.3-44.1-22.9 59.1-8.3 102.7-3.9 113.8-27.3 29.6-44.1 68.1-44.1 115 0 164 99.9 200.9 195.3 211.5-12.2 11.1-23.4 29.6-27.3 57.5-24.6 11.1-87.1 30.1-124.4-35.8-23.5-40.7-65.9-44-65.9-44-41.8-0.6-2.8 26.2-2.8 26.2 27.9 12.8 47.5 62.5 47.5 62.5 25.1 76.4 144.5 50.8 144.5 50.8 0 35.7 0.5 85.3 0.5 95.4 0 26.8-18.9 26.8-36.8 26.8h-125c-88.7 0-160.7-72-160.7-160.7v-535.8c0-88.7 72-160.7 160.7-160.7h535.7c88.8 0 160.7 72 160.7 160.7z" /></svg>