<svg height="1000" width="857.1" xmlns="http://www.w3.org/2000/svg"><path d="m428.6 71.4c236.6 0 428.5 192 428.5 428.6s-191.9 428.6-428.5 428.6-428.6-192-428.6-428.6 192-428.6 428.6-428.6z m152.9 290.8c-4.5 3.3-7.3 9.5-12.9 10.6 2.8-0.6 5.6-10.6 7.3-12.9 3.3-3.9 7.8-6.1 12.3-8.3 9.5-3.9 18.9-5.1 29-6.7 9.5-2.3 21.2-2.3 28.4 6.1-1.6-1.7 11.8-13.4 13.4-13.9 5.1-2.8 13.4-1.7 16.8-6.7 1.1-1.7 1.1-12.3 1.1-12.3-9.5 1.1-12.8-7.8-13.4-15.6 0 0.5-1.1 2.2-3.3 4.4 0.5-8.4-10.1-2.2-14-3.3-12.8-3.4-11.2-12.3-15.1-21.8-2.2-5-8.3-6.7-10.6-11.7-2.2-3.4-3.3-10.6-8.3-11.2-3.4-0.5-9.5 11.7-10.6 11.2-5.1-2.8-7.3 1.1-11.2 3.3-3.3 2.3-6.1 1.2-9.5 2.8 10.1-3.3-4.4-8.9-9.5-7.8 7.8-2.2 3.9-10.6-0.5-14.5h2.8c-1.2-5-16.8-9.5-21.8-12.8s-31.8-9-37.4-5.6c-6.7 3.9 1.7 15.1 1.7 20.6 0.5 6.7-6.7 8.4-6.7 14 0 9.5 17.8 7.8 13.4 20.6-2.8 7.8-13.4 9.5-17.9 15.7-4.4 5.5 0.6 15.6 5 19.5 4.5 3.3-7.8 8.9-9.4 10-9.5 4.5-16.8-9.4-19-17.8-1.7-6.2-2.2-13.4-8.9-16.8-3.4-1.1-14-2.8-16.2 0.6-3.4-8.4-15.1-11.7-22.9-14.5-11.2-3.9-20.7-3.9-32.4-2.2 3.9-0.6-1.1-17.9-10.6-15.1 2.8-5.6 1.7-11.7 2.8-17.3 1.1-4.5 3.4-8.9 6.7-12.8 1.1-2.3 13.4-15.1 9.5-15.7 9.5 1.1 20.1 1.7 27.9-6.1 5-5 7.3-13.4 12.3-19 7.2-8.4 16.2 2.3 24 2.8 11.1 0.6 10.6-11.7 4.4-17.3 7.3 0.6 1.2-12.8-2.8-14.5-5-1.7-23.9 3.3-13.9 7.3-2.2-1.2-15.6 26.7-23.4 12.8-2.3-2.8-3.4-14.5-8.4-15.1-4.5 0-7.3 5-8.9 8.4 2.7-7.3-15.7-12.3-19.6-12.8 8.4-5.6 1.7-11.8-4.4-15.1-4.5-2.8-18.5-5-22.4-0.6-10.6 12.9 11.2 14.5 16.8 17.9 1.7 1.1 8.4 5 4.4 7.8-3.3 1.7-13.3 4.5-14.5 6.7-3.3 5 3.9 10.6-1.1 15.6-5-5-5-13.4-8.9-18.9 5 6.1-20.1 2.7-19.5 2.7-8.4 0-21.8 5.6-27.9-2.7-1.2-2.3-1.2-15.1 2.2-12.3-5-3.9-8.4-7.8-11.7-10.1-18.4 6.2-35.7 14-52.5 22.9 2.3 0.6 3.9 0.6 6.7-0.5 4.5-1.7 8.4-4.5 12.8-6.7 5.6-2.3 17.3-9 23.5-4 0.5-1.1 2.2-2.2 2.8-2.7 3.9 4.4 7.8 8.9 11.1 13.9-4.4-2.2-11.7-1.1-16.7-0.5-3.9 1.1-10.6 2.2-12.3 6.6 1.7 2.8 3.9 7.3 2.8 10.1-7.2-5-12.8-13.4-22.9-14.5-4.4 0-8.9 0-12.2 0.5-53.6 29.6-98.8 72.6-131.2 123.9 2.2 2.3 4.5 3.9 6.7 4.5 5.6 1.7 0 17.8 10.6 9.5 3.4 2.8 3.9 6.7 1.7 10.6 0.5-0.6 22.9 13.9 24.5 15 3.9 3.4 10.1 7.3 11.8 11.8 1.1 3.9-2.3 8.3-5.6 10-0.6-1.1-8.9-9.5-10.1-7.2-1.6 2.7 0 17.8 6.2 17.3-9 0.5-5 35.1-7.3 41.8 0 0.6 1.1 0.6 1.1 0.6-1.6 6.7 3.9 32.9 15.1 30.1-7.3 1.7 12.8 27.3 15.6 29 7.3 5 15.7 8.4 20.7 15.6 5.6 7.9 5.6 19.6 13.4 25.7-2.3 6.7 11.7 14.5 11.1 24-1.1 0.6-1.6 0.6-2.8 1.1 2.8 7.8 13.4 7.8 17.3 15.1 2.3 4.5 0 15.1 7.3 12.8 1.1-12.3-7.3-24.5-13.4-34.6-3.3-5.6-6.7-10.6-9.5-16.2-2.8-5-3.3-11.1-5.6-16.7 2.3 0.6 14.5 5 13.4 6.7-4.4 11.2 17.9 30.7 24 37.9 1.7 1.7 14.5 18.5 7.8 18.5 7.3 0 17.3 11.1 20.7 16.7 5 8.4 3.9 19 7.2 27.9 3.4 11.2 19 16.2 27.9 21.2 7.8 3.9 14.5 9.5 22.4 12.3 11.7 4.4 14.5 0.5 24.5-1.1 14.5-2.3 16.2 13.9 27.9 20.1 7.3 3.9 22.9 9.4 30.7 6.1-3.3 1.1 11.7 24 12.8 25.7 5.1 6.7 14.5 10 20.1 16.7 1.7-1.1 3.4-2.8 3.9-5-2.2 6.1 8.4 17.8 14 16.7 6.1-1.1 7.8-13.4 7.8-17.8-11.2 5.5-21.2 1.1-27.3-10.1-1.2-2.8-10.1-18.4-2.3-18.4 10.6 0 3.4-8.4 2.3-16.2s-9-12.8-12.9-19.5c-3.3 6.7-14.5 5-17.8-0.6 0 1.7-1.7 4.5-1.7 6.7-2.8 0-5.6 0.6-8.4-0.5 1.1-6.7 1.7-15.1 3.4-22.3 2.8-10.1 21.2-29.6-2.8-28.5-8.4 0.6-11.7 3.9-14.5 11.2-2.8 6.7-1.7 12.8-9.5 16.1-5 2.3-21.8 1.2-26.8-1.6-10.6-6.2-17.9-25.7-17.9-36.9-0.5-15 7.3-28.4 0-42.4 3.4-2.8 6.7-8.3 10.6-11.1 3.4-2.3 7.3 1.6 9-5.1-1.7-1.1-3.9-3.3-4.5-3.3 8.4 3.9 24-5.6 31.3 0 4.4 3.3 9.4 4.5 12.2-1.1 0.6-1.7-3.9-8.4-1.6-12.9 1.6 9.5 7.8 11.2 16.1 5.1 3.4 3.3 12.3 2.2 18.5 5.5 6.1 3.9 7.2 10.1 14.5 1.7 4.4 6.7 5 6.7 6.7 13.4 1.6 6.1 5 21.8 10.6 24.6 11.7 7.2 8.9-12.3 7.8-19-0.6-0.6-0.6-19-1.1-19-17.9-3.9-11.2-17.8-1.2-27.3 1.7-1.1 14.6-5.6 20.1-10.1 5.1-4.4 11.2-12.2 8.4-19.5 2.8 0 5-2.2 6.1-5-1.6-0.6-8.3-6.2-9.4-5.6 3.9-2.2 3.3-5.6 1.1-8.9 5.6-3.4 2.8-9.5 8.3-11.8 6.2 8.4 18.5-1.1 12.3-7.8 5.6-7.8 18.4-3.9 21.8-11.1 8.4 2.2 2.2-8.4 6.7-14.5 3.9-5.1 10.6-5.1 15.6-7.8 0 0.5 14-7.9 9.5-8.4 9.5 1.1 28.5-8.9 13.9-17.3 2.3-5-5-7.3-10-8.4 3.9-1.1 8.9 1.1 12.3-1.1 7.2-5 2.2-7.3-3.9-8.9-7.8-2.3-17.9 2.8-24 6.7z m-91 489.4c76.5-13.4 144.5-51.4 195.9-105.5-3.4-3.4-9.5-2.2-14-4.5-4.4-1.6-7.8-3.3-13.4-4.4 1.2-11.2-11.1-15.1-18.9-20.7-7.3-5.6-11.8-11.7-22.4-9.5-1.1 0.6-12.2 4.5-10 6.7-7.3-6.1-10.6-9.5-20.1-12.2-8.9-2.8-15.1-14-24-4-4.4 4.5-2.2 11.2-4.4 15.7-7.3-6.2 6.6-13.4 1.1-20.1-6.7-7.8-18.4 5-24 8.4-3.4 2.7-7.3 3.9-9.5 7.2-2.8 3.9-3.9 8.9-6.2 12.8-1.6-4.4-11.1-3.3-11.7-6.7 2.3 13.4 2.3 27.4 5.1 40.8 1.6 7.8 0 20.6-6.7 26.8s-15.1 12.8-16.2 22.3c-1.1 6.7 0.5 12.8 6.7 14.5 0.5 8.4-9 14.5-8.4 23.4 0 0.6 0.6 6.2 1.1 9z" /></svg>