<svg height="1000" width="834.0" xmlns="http://www.w3.org/2000/svg"><path d="m417 84q172.8 0 294.9 122.1t122.1 293.9-122.1 293.9-294.9 122.1-294.9-122.1-122.1-293.9 122.1-293.9 294.9-122.1z m288.1 250q-62.5-109.4-179.7-148.5 37.1 68.4 56.6 148.5h123.1z m-289.1-166q-52.7 76.1-78.1 166h158.2q-27.3-89.9-80.1-166z m-322.2 416h140.6q-5.9-48.8-5.9-84t5.9-84h-140.6q-9.8 44.9-9.8 84t9.8 84z m35.1 82q62.5 109.4 179.7 148.5-37.1-68.4-56.6-148.5h-123.1z m123.1-332q19.5-80.1 56.6-148.5-117.2 39.1-179.7 148.5h123.1z m164 498q52.8-76.1 80.1-166h-158.2q25.4 89.9 78.1 166z m97.7-248q7.8-48.8 7.8-84t-7.8-84h-195.3q-5.9 48.8-5.9 84t5.9 84h195.3z m11.7 230.5q117.2-39.1 179.7-148.5h-123.1q-19.5 80.1-56.6 148.5z m72.3-230.5h140.6q11.7-44.9 11.7-84t-11.7-84h-140.6q5.8 48.8 5.8 84t-5.8 84z" /></svg>