<svg height="1000" width="521.5" xmlns="http://www.w3.org/2000/svg"><path d="m287.1 865.2q70.3 0 115.2-34.1t45-81.1q0-39.1-23.5-65.4t-93.7-77.2h-27.4q-64.4 0-115.2 17.6-93.7 33.2-93.7 111.3 0 58.6 52.7 93.8t140.6 35.1z m-128.9-632.8q0 70.3 37.1 129.9t97.7 59.6q33.2 0 67.4-24.4t34.1-83q0-64.5-39-129t-101.6-64.4q-41 0-68.4 28.3t-27.3 83z m271.5 322.3q43 37.1 65.4 70.3t22.5 84q0 84-75.2 145.5t-210 61.5q-113.3 0-172.8-45.9t-59.6-112.3q0-84 82-130.8 76.2-46.9 209-56.7-33.2-37.1-33.2-70.3 0-11.7 13.7-44.9h-29.3q-80.1 0-127.9-51.8t-47.9-118.1q0-86 61.5-143.6t172.9-57.6h220.7l-44.9 43h-62.5q72.2 62.5 72.2 138.6 0 37.1-14.6 67.4t-30.3 45.9-44.9 39.1q-35.2 27.3-35.2 56.6 0 25.4 29.3 50.8z" /></svg>