<svg height="1000" width="857.1" xmlns="http://www.w3.org/2000/svg"><path d="m511.7 505c0-12.3-1.1-24-3.3-35.7h-202v73.7h121.1c-9 59.1-64.8 92-121.1 92-74.3 0-133.4-61.3-133.4-135s59.1-135 133.4-135c31.2 0 62.5 10.6 85.3 32.9l58.1-56.4c-39.6-36.8-89.3-55.8-143.4-55.8-118.9 0-214.3 96-214.3 214.3s95.4 214.3 214.3 214.3c123.3 0 205.3-87.1 205.3-209.3z m192.5 25.7h60.9v-61.4h-60.9v-61.4h-61.3v61.4h-61.4v61.4h61.4v61.4h61.3v-61.4z m152.9-30.7c0 236.6-191.9 428.6-428.5 428.6s-428.6-192-428.6-428.6 192-428.6 428.6-428.6 428.5 192 428.5 428.6z" /></svg>