<svg height="1000" width="928.6" xmlns="http://www.w3.org/2000/svg"><path d="m410.2 444.2c0 73.7 172.4 98.2 172.4 255.6 0 34-10.1 67.5-26.8 96.5-57.5 97.7-177.5 132.3-284 132.3-83.7 0-187-21.8-233.3-99.9-13.4-21.8-20.6-47.4-20.6-73.1 0-63.1 39-115.5 90.9-147.9 65.3-40.7 150.1-50.8 225.5-55.8-19.6-25.7-35.2-48.6-35.2-82 0-17.9 5-31.8 11.7-47.5-12.8 1.1-25.1 2.3-37.9 2.3-108.8 0-195.9-79.3-195.9-190.3 0-61.4 29-121.7 75.3-161.9 60.3-51.9 145.7-72.5 223.3-72.5h233.2l-77 49.1h-73.1c51.9 44.1 83.7 93.2 83.7 163.5 0 144.5-132.2 160.7-132.2 231.6z m-81.5-53.6c27.9 0 60.8-13.4 80.3-33.5 22.9-24.5 29.6-55.8 29.6-88.7 0-82.6-48.5-222.6-149-222.6-31.2 0-63.6 15.6-82.6 40.1-20.1 25.1-26.2 58.1-26.2 89.3 0 83.7 47.4 215.4 147.9 215.4z m1.1 487.2c82.6 0 173.5-34.6 173.5-130.6 0-75.3-74.7-121.1-128.9-160.1-8.9-1.2-17.8-1.2-26.7-1.2-91 0-226 29.1-226 144 0 108.8 117.7 147.9 208.1 147.9z m452-488.8h118.9v60.2h-118.9v122.2h-58.6v-122.2h-118.3v-60.2h118.3v-121.1h58.6v121.1z" /></svg>