<svg height="1000" width="834.0" xmlns="http://www.w3.org/2000/svg"><path d="m84 84h664q33.3 0 59.6 33.2t26.4 70.3v644.5q0 35.2-24.4 59.6t-59.6 24.4h-666q-35.2 0-59.6-24.4t-24.4-57.6v-666q0-35.2 24.4-59.6t59.6-24.4z m210.9 203.1q-87.9 0-149.4 62.5t-61.5 150.4 61.5 150.4 149.4 62.5q91.8 0 147.5-57.6t55.6-149.4q0-25.4-3.9-37.1h-199.2v74.2h121.1q-5.8 33.2-35.1 61.5t-86 28.3q-54.7 0-92.8-39t-38-93.8 38-93.7 92.8-39.1q52.8 0 84 31.2l58.6-54.6q-56.6-56.7-142.6-56.7z m334 121.1v60.6h-60.5v60.5h60.5v60.5h60.6v-60.5h58.5l2-60.5h-60.5v-60.6h-60.6z" /></svg>