<svg height="1000" width="1000.0" xmlns="http://www.w3.org/2000/svg"><path d="m335.9 327.6c24.6 77.5 51.9 214.8-15.6 317.5-41.8-161.3-205.9-251.1-208.1-251.7-45.8-25.1-62.5-81.5-37.4-127.2s82-62.5 128.3-37.4c5.6 3.3 66.4 36.3 132.8 98.8z m181.4-160.2c6.7 14.5 169.1 351.6-15.6 613.9-18.4 26.2-47.5 40.1-77 40.1-19 0-38-5.6-54.7-17.3-42.4-29.5-53-88.7-22.9-131.7 118.9-168.5 1.7-419.1 0.6-421.3-23.5-46.9-3.9-103.8 42.9-126.7 13.4-6.7 27.9-9.4 41.9-9.4 34.6 0 68.1 19.5 84.8 52.4z m179.1 373.3c-6.1 59.2-19.5 117.2-40.1 173.6-6.7-50.8-19-96.6-35.2-137.3 8.9-63 8.4-131.1-2.8-201.4-12.8-83.2-36.8-152.4-52.5-190.9 35.2 27.9 77.1 67 118.4 117.8 3.3 13.9 6.1 29 8.3 44.6 9.5 64.7 11.2 130 3.9 193.6z m151.8-487.1c8.4 15.6 196.4 386.1-1.7 817.5-16.7 36.3-52.4 57.5-89.8 57.5-14 0-27.9-2.8-41.3-9-49.7-22.8-71.4-82-49.1-131.7 158.5-343.7 7.8-640 6.1-642.8-25.1-48.6-6.1-108.8 42.4-133.9 14.6-7.9 30.2-11.2 45.2-11.2 35.8 0 70.4 19.5 88.2 53.6z" /></svg>