<svg height="1000" width="857.1" xmlns="http://www.w3.org/2000/svg"><path d="m511.7 505c0-13.9-1.7-25.1-3.3-35.7h-202v0 73.7h121.1c-4.5 31.2-36.3 92-121.1 92-73.7 0-133.4-60.2-133.4-135s59.7-135 133.4-135c41.3 0 69.2 17.3 85.3 32.9l58.1-56.4c-37.4-34.6-86-55.8-143.4-55.8-118.9 0-214.3 96-214.3 214.3s95.4 214.3 214.3 214.3c123.3 0 205.3-87.1 205.3-209.3z m192.5 25.7h60.9v-61.4h-60.9v-61.4h-61.3v61.4h-61.4v61.4h61.4v61.4h61.3v-61.4z m152.9-298.6v535.8c0 88.7-71.9 160.7-160.7 160.7h-535.7c-88.7 0-160.7-72-160.7-160.7v-535.8c0-88.7 72-160.7 160.7-160.7h535.7c88.8 0 160.7 72 160.7 160.7z" /></svg>