<svg height="1000" width="1000.0" xmlns="http://www.w3.org/2000/svg"><path d="m246.1 375c11.2 0 22.3 5.6 29 14.5 97.7 133.4 165.7 276.2 202 431.9h-248.9c-44.6-155.1-110.5-296.8-204.8-417.9-8.9-11.8 0-28.5 14.5-28.5h208.2z m311.9 199.2c-18.4 75.4-41.8 148.5-69.7 219.3-29.6-116.6-77-226-142.9-331.4 14.5-81 22.9-164.1 24.6-250.6 78.7 126.7 141.2 247.2 188 362.7z m55.3-395.6c166.8 229.9 290.7 513.4 317.5 821.4h-251.7c-18.4-298-155.7-580.4-308.6-821.4h242.8z m386.7 321.4c0 155.1-21.2 318.1-56.4 453.1-24.5-206.4-92.6-411.8-200.3-604.3-9.5-112.8-29.6-222.1-59.1-325.9-2.8-11.7 5.5-22.9 17.3-22.9h200.3c15.6 0 30.1 10.6 34 25.7 42.4 150.6 64.2 310.2 64.2 474.3z" /></svg>