<svg height="1000" width="916.0" xmlns="http://www.w3.org/2000/svg"><path d="m830.1 459h85.9v82h-84q-7.8 70.3-41 132.8l-62.5-62.5q21.5-54.7 21.5-111.3 0-121.1-85-206.1t-206-84.9q-58.6 0-111.3 21.5l-62.5-62.5q62.5-33.2 130.8-41v-86h84v86q130.9 15.6 223.6 108.4t106.5 223.6z m-746.1-281.3l52.7-52.7 697.3 697.3-52.7 52.7-86-85.9q-85.9 70.3-195.3 83.9v86h-84v-86q-128.9-15.6-222.6-108.4t-107.5-223.6h-85.9v-82h85.9q11.8-109.4 82.1-195.3z m552.7 552.8l-410.1-408.2q-60.6 78.1-60.6 177.7 0 121.1 86 206.1t207 84.9q97.6 0 177.7-60.5z" /></svg>