<svg height="1000" width="1000.0" xmlns="http://www.w3.org/2000/svg"><path d="m458.3 375h83.4v83.3h-83.4z m-83.3 83.3h83.3v83.4h-83.3z m166.7 0h83.3v83.4h-83.3z m83.3-83.3h83.3v83.3h-83.3z m-333.3 0h83.3v83.3h-83.3z m500-250h-583.4c-45.8 0-83.3 37.5-83.3 83.3v583.4c0 45.8 37.5 83.3 83.3 83.3h583.4c45.8 0 83.3-37.5 83.3-83.3v-583.4c0-45.8-37.5-83.3-83.3-83.3z m-416.7 625h-83.3v-83.3h83.3v83.3z m166.7 0h-83.4v-83.3h83.4v83.3z m166.6 0h-83.3v-83.3h83.3v83.3z m83.4-291.7h-83.4v83.4h83.4v83.3h-83.4v-83.3h-83.3v83.3h-83.3v-83.3h-83.4v83.3h-83.3v-83.3h-83.3v83.3h-83.4v-83.3h83.4v-83.4h-83.4v-250h583.4v250z" /></svg>