<svg height="1000" width="750.0" xmlns="http://www.w3.org/2000/svg"><path d="m334 375h82v84h-82v-84z m-84 84h84v82h-84v-82z m166 0h84v82h-84v-82z m84-84h84v84h-84v-84z m-334 0h84v84h-84v-84z m500-250q35.2 0 59.6 24.4t24.4 59.6v582q0 35.2-24.4 59.6t-59.6 24.4h-582q-35.2 0-59.6-24.4t-24.4-59.6v-582q0-35.2 24.4-59.6t59.6-24.4h582z m-416 625v-84h-84v84h84z m166 0v-84h-82v84h82z m168 0v-84h-84v84h84z m82-291v-250h-582v250h82v82h-82v84h82v-84h84v84h84v-84h82v84h84v-84h84v84h82v-84h-82v-82h82z" /></svg>