<svg height="1000" width="1000.0" xmlns="http://www.w3.org/2000/svg"><path d="m416.7 500c-46.1 0-83.4 37.3-83.4 83.3s37.3 83.4 83.4 83.4 83.3-37.3 83.3-83.4-37.3-83.3-83.3-83.3z m-166.7-166.7c-46 0-83.3 37.3-83.3 83.4s37.3 83.3 83.3 83.3 83.3-37.3 83.3-83.3-37.3-83.4-83.3-83.4z m0 333.4c-46 0-83.3 37.3-83.3 83.3s37.3 83.3 83.3 83.3 83.3-37.3 83.3-83.3-37.3-83.3-83.3-83.3z m500-333.4c46 0 83.3-37.3 83.3-83.3s-37.3-83.3-83.3-83.3-83.3 37.3-83.3 83.3 37.3 83.3 83.3 83.3z m-166.7 333.4c-46 0-83.3 37.3-83.3 83.3s37.3 83.3 83.3 83.3 83.4-37.3 83.4-83.3-37.3-83.3-83.4-83.3z m166.7-166.7c-46 0-83.3 37.3-83.3 83.3s37.3 83.4 83.3 83.4 83.3-37.3 83.3-83.4-37.3-83.3-83.3-83.3z m-166.7-166.7c-46 0-83.3 37.3-83.3 83.4s37.3 83.3 83.3 83.3 83.4-37.3 83.4-83.3-37.3-83.4-83.4-83.4z m-166.6-166.6c-46.1 0-83.4 37.3-83.4 83.3s37.3 83.3 83.4 83.3 83.3-37.3 83.3-83.3-37.3-83.3-83.3-83.3z" /></svg>