<svg height="1000" width="666.0" xmlns="http://www.w3.org/2000/svg"><path d="m250 500q35.2 0 59.6 24.4t24.4 58.6-24.4 58.6-59.6 24.4-59.6-24.4-24.4-58.6 24.4-58.6 59.6-24.4z m-167-166q34.2 0 58.6 24.4t24.4 58.6-24.4 58.6-58.6 24.4-58.6-24.4-24.4-58.6 24.4-58.6 58.6-24.4z m0 332q34.2 0 58.6 24.4t24.4 59.6-24.4 59.6-58.6 24.4-58.6-24.4-24.4-59.6 24.4-59.6 58.6-24.4z m500-332q-34.2 0-58.6-24.4t-24.4-59.6 24.4-59.6 58.6-24.4 58.6 24.4 24.4 59.6-24.4 59.6-58.6 24.4z m-166 332q34.2 0 58.6 24.4t24.4 59.6-24.4 59.6-58.6 24.4-58.6-24.4-24.4-59.6 24.4-59.6 58.6-24.4z m166-166q34.2 0 58.6 24.4t24.4 58.6-24.4 58.6-58.6 24.4-58.6-24.4-24.4-58.6 24.4-58.6 58.6-24.4z m-166-166q34.2 0 58.6 24.4t24.4 58.6-24.4 58.6-58.6 24.4-58.6-24.4-24.4-58.6 24.4-58.6 58.6-24.4z m-167-168q35.2 0 59.6 24.4t24.4 59.6-24.4 59.6-59.6 24.4-59.6-24.4-24.4-59.6 24.4-59.6 59.6-24.4z" /></svg>