<svg height="1000" width="1000.0" xmlns="http://www.w3.org/2000/svg"><path d="m782.2 27.7c-98 28.2-237.8 147.5-272.3 249.3l17.1 11.2c4.2-18.1 21.9-46.1 40.4-67.6 22.8 6.6 18.5 34.9 27.6 52.5-13.2 19.6-37.1 40.4-39.6 51.7 21.3 31.1 14.2 63.7 13.4 76.5 48.2-12.4 84.2-21.7 129.3 20.6 40.9 38.4 29.6 68.8 27.3 112.4l44.2 24.8c0 0 23.3-60.3 17-81.9-11.4-39.7-21.2-60.6-26.8-70.6 11.4 17.1 40.1 57.6 65.5 68.8 52.7 23.3 174.7 3.5 174.7 3.5 0 0-6.1-137.3-55.7-177.9-37.8-30.9-148.7-20.9-148.7-20.9 71.4-10.3 99.9-35.9 141.2-73.2 0 0-103.5-83.7-185.7-76.8-82.3 6.9-136.9 117.2-136.9 117.2l-19.4-47.6c39-65.7 102-124 207.9-117.9l-20.5-54.1z m-441.3 83.7c-25.5 0.1-51.3 10.5-77.5 34.9-50.6 49-58.4 121.9-17.4 162.7 34.9 34.9 93.9 35.2 141.9 4.2-15 14.4-27.5 32.7-35.7 53.9-3.3 8.4-5.7 16.9-7.4 25.3-4.5-19.4-13.6-36.7-26.7-49.9-6.8-0.4-14.2-1.4-21.9-3-24.8-5.1-44.2-14.8-47.5-23.2-45.2 2.6-90.2 36.9-110.2 88.5-25.2 65.2-1.1 133.4 54.1 152.4 32.9 11.3 69.5 2.5 98.9-20.4-15.1 14.4-27.7 32.8-36 54.2-2.5 6.4-4.5 12.8-6 19.2-4.9-16.8-13.4-31.8-25.1-43.5-6.8-0.5-14.2-1.4-21.9-3-24.8-5.2-44.2-14.9-47.5-23.3-45.2 2.7-90.2 36.9-110.2 88.5-25.2 65.2-1 133.4 54.1 152.4 55.1 18.9 120.2-18.5 145.5-83.7 2.5-6.4 4.5-12.9 6-19.3 8.9 30.5 29.6 54.9 59.1 65.1 38.7 13.2 82.2-1.2 113.5-33.4-0.4 1-0.8 2-1.2 3.1-25.3 65.2-1.1 133.4 54 152.3 55.1 19 120.2-18.5 145.5-83.7 19.2-49.5 9.8-100.8-19.9-130.9-6.8-0.4-14.2-1.4-22-3-24.7-5.1-44.2-14.9-47.5-23.2-28.1 1.6-56.1 15.5-78.1 38.1 0.5-1 0.9-2 1.3-3 19.2-49.6 9.8-100.9-20-131-6.8-0.4-14.2-1.4-21.9-3-24.8-5.1-44.2-14.8-47.5-23.2-22.2 1.3-44.3 10.2-63.5 25.1 15.1-14.4 27.6-32.8 35.9-54.1 3.3-8.5 5.7-17 7.3-25.4 7.8 33.4 29.2 60.5 60.8 71.4 33.9 11.6 71.6 2 101.4-22.3-18.7 61.7 5.7 123.6 57.8 141.5 28.6 9.9 59.9 4.5 86.9-12-12 20.3-19 45-19 71.7 0.1 69.4 47.7 125.7 106.4 125.8 58.7 0 106.3-56.1 106.2-125.5-0.1-52.7-27.6-97.9-66.6-116.6-6.5 1.8-13.8 3.3-21.7 4.3-25.1 3.1-46.9 0.3-53.1-6.6-2.8 1.2-5.6 2.5-8.4 4 5.8-8.8 10.8-18.4 14.8-28.8 19.2-49.5 9.9-100.8-19.9-130.9-18.3-25.2-53.5-21.9-69.4-26.2-23.2 1.3-46.4 11-66.1 27.1 14-46 3.9-92.2-23.7-120.1-10.4-18.9-35.7-24.5-69.4-26.3-18.2 1.1-36.3 7.3-52.7 17.6 0.6-0.6 1.3-1.2 1.9-1.9 38.4-37.2 52.1-88.2 38.5-128.5-35.5-32.5-71.9-54.5-109.2-54.4z m26.9 9.5c3.1 0 4.8 0.1 4.8 0.1 0 0-41.6 13.4-73.8 33.2-42.6 26.2-63.1 83.8-63.1 83.8 0 0 4.1-57.2 50.2-92 30-22.5 68.5-25 81.9-25.1z m73.7 177.1c0 0-32.4 29.7-53.4 61-27.8 41.6-21.8 101.6-21.8 101.6 0 0-20.9-52.7 6.5-103.3 21.8-40.5 68.7-59.3 68.7-59.3z m-213.7 37.7c0 0-32.4 29.6-53.4 61-27.8 41.5-21.8 101.6-21.8 101.6 0 0-20.9-52.7 6.5-103.4 21.9-40.4 68.7-59.2 68.7-59.2z m372.9 81.5c0 0-32.4 29.7-53.4 61.1-27.8 41.5-21.9 101.5-21.9 101.5 0 0-20.8-52.7 6.5-103.3 21.9-40.5 68.8-59.3 68.8-59.3z m-255.9 104.7c0 0-32.4 29.6-53.4 61-27.8 41.5-21.8 101.6-21.8 101.6 0 0-20.9-52.7 6.5-103.4 21.8-40.4 68.7-59.2 68.7-59.2z m-210.7 37.9c0 0-32.4 29.7-53.4 61-27.8 41.6-21.8 101.6-21.8 101.6 0 0-20.8-52.7 6.5-103.3 21.9-40.5 68.7-59.3 68.7-59.3z m557.9 44.9c0 0-19.7 38.4-27.9 74.6-10.9 47.9 16.6 102.4 16.6 102.4 0 0-38.8-42.8-31.6-99.2 5.7-45 42.9-77.8 42.9-77.8z m-180.9 39.2c0 0-32.5 29.7-53.4 61.1-27.8 41.5-21.9 101.6-21.9 101.6 0 0-20.8-52.7 6.5-103.4 21.9-40.5 68.8-59.3 68.8-59.3z m-218.2 101.6c-42.5 14.7-75.1 59.7-78.5 114.5-4.2 69.2 39.8 128.1 98.4 131.4 58.6 3.3 109.5-50.2 113.8-119.4 3.2-52.7-21.4-99.3-59.2-120.1-6.6 1.5-14 2.5-21.9 3.1-25.3 1.7-46.9-2.4-52.6-9.5z m-14.1 24.2c0 0-22 37.2-32.5 72.9-13.9 47.2 10.2 103.1 10.2 103.1 0 0-36.1-44.8-25.4-100.7 8.6-44.7 47.7-75.3 47.7-75.3z m-192.6 11c-43.3 12.4-78.5 55.6-85.1 110.1-8.4 69 32.1 130 90.4 136.4 58.3 6.3 112.3-44.4 120.7-113.3 6.3-52.4-15.5-100.2-52-122.9-6.7 1.1-14.1 1.7-22 1.9-25.4 0.4-46.7-4.8-52-12.2z m-15.5 23.4c0 0-24.1 35.9-36.7 71-16.7 46.5 4 103.6 4 103.6 0 0-33.4-46.7-19.4-101.9 11.2-44.2 52.1-72.7 52.1-72.7z" /></svg>