<svg height="1000" width="947.3" xmlns="http://www.w3.org/2000/svg"><path d="m334 166h-60.6l-83.9-82h644.5q33.2 0 57.6 24.4t24.4 57.6v644.5l-82-83.9v-60.6h-60.6l-83.9-82h144.5v-168h-168v144.5l-82-83.9v-60.6h-60.6l-83.9-82h144.5v-168h-168v144.5l-82-83.9v-60.6z m332 0v168h168v-168h-168z m-613.3-113.3l894.6 894.6-52.8 52.7-84-84h-644.5q-33.2 0-57.6-24.4t-24.4-57.6v-644.5l-84-84z m363.3 470.7v60.6h60.6z m-250-250v60.6h60.6z m168 560.6v-168h-168v168h168z m0-250v-144.5l-23.5-23.5h-144.5v168h168z m250 250v-144.5l-23.5-23.5h-144.5v168h168z m82 0h60.6l-60.6-60.6v60.6z" /></svg>