<svg height="1000" width="1000.0" xmlns="http://www.w3.org/2000/svg"><path d="m333.3 166.7v60.6l83.4 83.3v-143.9h166.6v166.6h-143.9l83.3 83.4h60.6v60.6l83.4 83.3v-143.9h166.6v166.6h-143.9l83.3 83.4h60.6v60.6l83.4 83.3v-643.9c0-46.1-37.3-83.4-83.4-83.4h-643.9l83.3 83.4h60.6z m333.4 0h166.6v166.6h-166.6v-166.6z m-613.6-113.6l-53.1 52.9 83.3 83.4v643.9c0 46.1 37.3 83.4 83.4 83.4h643.9l83.4 83.3 52.9-53.1-893.8-893.8z m363.6 469.6l60.6 60.6h-60.6v-60.6z m-250-250l60.6 60.6h-60.6v-60.6z m166.6 560.6h-166.6v-166.6h166.6v166.6z m0-250h-166.6v-166.6h143.9l22.7 22.7v143.9z m250 250h-166.6v-166.6h143.9l22.7 22.7v143.9z m83.4 0v-60.6l60.6 60.6h-60.6z" /></svg>