<svg height="1000" width="1000.0" xmlns="http://www.w3.org/2000/svg"><path d="m500 83.3c-230.2 0-416.7 186.5-416.7 416.7 0 230 186.5 416.7 416.7 416.7s416.7-186.7 416.7-416.7c0-230.2-186.5-416.7-416.7-416.7z m-166.7 645.9c-57.5 0-104.1-46.7-104.1-104.2s46.6-104.2 104.1-104.2 104.2 46.7 104.2 104.2-46.7 104.2-104.2 104.2z m62.5-395.9c0-57.5 46.7-104.1 104.2-104.1s104.2 46.6 104.2 104.1-46.7 104.2-104.2 104.2-104.2-46.7-104.2-104.2z m270.9 395.9c-57.5 0-104.2-46.7-104.2-104.2s46.7-104.2 104.2-104.2 104.1 46.7 104.1 104.2-46.6 104.2-104.1 104.2z" /></svg>