<svg height="1000" width="857.1" xmlns="http://www.w3.org/2000/svg"><path d="m714.3 892.9c0-19.6-16.2-35.8-35.7-35.8s-35.7 16.2-35.7 35.8 16.1 35.7 35.7 35.7 35.7-16.2 35.7-35.7z m71.4-426.4c0-63-25.7-105.5-93.2-105.5-10.6 0-21.2 1.2-31.2 2.8-12.9-23.4-44.7-36.2-70.3-36.2-13.4 0-26.8 3.3-38.5 10-17.9-19-40.2-29.6-66.5-29.6-17.8 0-44 7.8-57.4 19.6v-184.7c0-38.5-33-71.5-71.5-71.5-37.9 0-71.4 34.1-71.4 71.5v321.4c-35.1 0-71.4-53.6-142.8-53.6-53.6 0-71.5 41.9-71.5 89.3 0 15.6 64.8 44.1 77.6 50.2 12.3 6.7 24.5 13.4 36.3 20.7 29.5 18.4 55.2 39.6 80.9 62.5 40.7 35.7 90.9 75.3 90.9 134.5v17.8h357.2v-17.8c0-97.7 71.4-193.1 71.4-301.4z m71.4-2.8c0 62.5-17.3 121.7-38.5 179.7-12.2 34.1-32.9 89.3-32.9 124.5v160.7c0 39.6-31.8 71.4-71.4 71.4h-357.2c-39.6 0-71.4-31.8-71.4-71.4v-160.7c0-26.8-48-64.8-66.4-81-22.9-20-45.8-39-72-55.8-51.9-32.3-147.3-56.3-147.3-131.1 0-88.7 48.5-160.7 142.9-160.7 24.5 0 48.5 3.9 71.4 12.3v-208.7c0-77.1 65.3-142.9 142.3-142.9 78.1 0 143.4 64.7 143.4 142.9v94.3c23.4 1.6 45.8 8.9 66.4 20.6 7.8-1.1 16.2-1.7 24-1.7 35.7 0 71.4 11.8 99.3 33.5 105.5-1.1 167.4 70.9 167.4 174.1z" /></svg>