<svg height="1000" width="1142.9" xmlns="http://www.w3.org/2000/svg"><path d="m642.3 0c45.2 0 88.7 21.8 115.5 58.6l319.2 435.8c43 58.1 65.9 127.8 65.9 200.4v198.1c0 59.1-48 107.1-107.2 107.1h-214.3c-59.1 0-107.1-48-107.1-107.1v-98.8l-159.6-79.8h-304.7c-59.2 0-107.1-48-107.1-107.2v-17.8c0-88.7 71.9-160.7 160.7-160.7h234.3l23.5-71.5h-382.8c-74.2 0-136.2-56.9-142.3-130.5-23.5-28.5-36.3-64.8-36.3-101.6v-17.9c0-59.1 48-107.1 107.1-107.1h535.2z m429.1 892.9v-198.1c0-56.4-18.4-112.8-51.9-158.5l-319.7-435.9c-13.4-17.8-34.6-29-57.5-29h-535.2c-19.5 0-35.7 16.2-35.7 35.7 0 29.6 0.6 50.3 20.1 74.3 7.3-22.9 27.9-38.5 51.4-38.5h464.2v17.8h-464.2c-19.6 0-35.8 16.2-35.8 35.7 0 10.6-0.5 21.8 1.7 32.4 6.2 32.9 36.3 56.9 69.8 56.9h357.1 50.8c29.6 0 53.6 24 53.6 53.6 0 5.6-1.1 11.7-2.8 16.7l-35.7 107.2c-7.3 21.7-27.9 36.8-50.8 36.8h-247.2c-49.1 0-89.3 40.2-89.3 89.3v17.8c0 19.6 16.2 35.8 35.7 35.8h313.1c5.5 0 11.1 1.1 16.1 3.9l176.9 88.1c17.9 9.5 29.6 27.9 29.6 48v110c0 19.5 16.2 35.7 35.7 35.7h214.3c19.5 0 35.7-16.2 35.7-35.7z" /></svg>