<svg height="1000" width="857.1" xmlns="http://www.w3.org/2000/svg"><path d="m428.6 214.3c-39.6 0-71.5 31.8-71.5 71.4v71.4h-17.8v-51.9c0-35.1-26.8-64.1-62.5-64.1-34.6 0-62.5 27.9-62.5 62.5v239.4l-17.9-16.8v-96c0-35.1-26.8-64.1-62.5-64.1-34.6 0-62.5 27.9-62.5 62.5v125c0 17.3 7.3 33.5 19.6 45.7l173 165.2c16.1 16.2 21.7 34.6 21.7 56.9 0 19.6 16.2 35.7 35.7 35.7h357.2c19.5 0 35.7-16.1 35.7-35.7v-13.9c0-14.5 1.7-29 5.6-43l60.2-243.3c3.9-13.9 5.6-28.5 5.6-43v-137.2c0-35.2-26.8-64.2-62.5-64.2-34.6 0-62.5 27.9-62.5 62.5v17.8h-17.8v-69.7c0-29.6-20.1-56.9-49.7-63.1-3.9-0.5-8.4-1.1-12.8-1.1-34.6 0-62.5 27.9-62.5 62.5v71.4h-17.9v-68c0-37.4-26.8-70.3-64.2-74.3-2.8-0.5-5-0.5-7.2-0.5z m0-71.4c30.1 0 59.1 9.4 83.1 27.9 20.7-12.3 44.7-19 68.7-19 44 0 84.8 21.2 109.9 57.5 10.6-2.8 21.8-3.9 32.9-3.9 74.8 0 133.9 61.3 133.9 135.6v137.2c0 20.1-2.7 40.8-7.2 60.3l-60.8 243.3c-3.4 13.4-3.4 26.2-3.4 39.6 0 59.2-48 107.2-107.1 107.2h-357.2c-63.6 0-107.1-50.8-107.1-112.2l-171.9-165.2c-26.2-25.1-42.4-60.8-42.4-97.6v-125c0-73.7 60.3-134 133.9-134 3.4 0 6.2 0 9 0.6 4.4-70.9 63.6-125.6 133.9-125.6 19 0 37.4 3.9 54.7 11.8 26.2-25.2 60.8-38.5 97.1-38.5z" /></svg>