<svg height="1000" width="1000.0" xmlns="http://www.w3.org/2000/svg"><path d="m357.1 71.4c-39.6 0-71.4 31.8-71.4 71.5v285.7 214.3l-84.2-112.8c-14-18.4-36.3-30.1-59.8-30.1-39 0-70.3 32.9-70.3 71.4 0 15.7 5.1 30.7 14.5 43l214.3 285.7c13.4 17.9 34.6 28.5 56.9 28.5h400.7c16.2 0 30.7-11.2 34.6-26.8l51.4-205.4c8.9-35.7 13.3-72 13.3-108.2v-121.1c0-29.6-22.8-56.4-53.5-56.4-29.6 0-53.6 24-53.6 53.6h-17.9v-34.1c0-35.1-26.7-64.1-62.5-64.1-34.6 0-62.5 27.9-62.5 62.5v35.7h-17.8v-50.2c0-40.2-30.7-74.8-71.4-74.8-39.7 0-71.5 31.8-71.5 71.4v53.6h-17.8v-318.1c0-40.2-30.7-74.8-71.5-74.8z m0-71.4c79.8 0 142.9 67 142.9 146.2v122.8c6.1-0.6 11.7-1.1 17.9-1.1 36.2 0 70.3 13.9 96.5 38.5 17.3-7.9 36.3-11.8 55.2-11.8 40.2 0 77.6 17.9 102.7 48.6 10.6-2.8 20.7-3.9 31.3-3.9 70.3 0 125 58.6 125 127.8v121.1c0 41.8-5.1 84.2-15.7 125.5l-51.3 205.4c-11.7 47.4-54.7 80.9-103.8 80.9h-400.7c-44.6 0-87.6-21.8-114.4-56.9l-214.2-285.7c-18.5-24.6-28.5-55.3-28.5-86 0-78.1 63.6-142.8 141.7-142.8 25.7 0 50.8 6.7 72.6 19.5v-305.2c0-78.7 64.2-142.9 142.8-142.9z m71.5 785.7v-214.3h-17.9v214.3h17.9z m142.8 0v-214.3h-17.8v214.3h17.8z m142.9 0v-214.3h-17.9v214.3h17.9z" /></svg>