<svg height="1000" width="1000.0" xmlns="http://www.w3.org/2000/svg"><path d="m767.9 785.7h17.8v-357.1h-17.8c-59.2 0-98.8-50.3-134.5-91-22.9-25.7-44.1-51.3-62.5-80.9-7.8-12.3-14.5-25.1-21.2-37.9s-34.6-75.9-49.7-75.9c-47.4 0-89.3 17.8-89.3 71.4 0 71.4 53.6 107.7 53.6 142.8h-321.4c-37.4 0-71.5 33.5-71.5 71.5 0 38.5 33 71.4 71.5 71.4h184.7c-11.8 13.4-19.6 39.6-19.6 57.5 0 26.2 10.6 48.5 29.6 66.4-6.7 11.7-10 25.1-10 38.5 0 25.7 12.8 57.5 36.2 70.3-1.6 10-2.2 20.6-2.2 31.3 0 65.8 40.7 93.1 102.7 93.1 111 0 205.9-71.4 303.6-71.4z m160.7-35.7c0-19.5-16.2-35.7-35.7-35.7s-35.8 16.2-35.8 35.7 16.2 35.7 35.8 35.7 35.7-16.2 35.7-35.7z m71.4-321.4v357.1c0 39.6-31.8 71.4-71.4 71.4h-160.7c-35.2 0-90.4 20.7-124.5 33-56.9 20.6-115.5 38.5-176.9 38.5-102.7 0-177.4-58.1-176.9-164.6l0.6-2.8c-22.3-27.9-34.1-63.7-34.1-99.4 0-7.8 0.6-16.2 1.7-24-11.7-20.6-19-42.9-20.6-66.4h-94.3c-78.2 0-142.9-65.3-142.9-143.4 0-77 65.8-142.3 142.9-142.3h208.7c-8.4-22.9-12.3-46.9-12.3-71.4 0-94.3 72-142.9 160.7-142.9 74.8 0 98.8 95.5 131.1 147.4 16.8 26.2 35.8 49.1 55.8 71.9 16.2 18.5 54.2 66.4 81 66.4h160.7c39.6 0 71.4 31.9 71.4 71.5z" /></svg>