<svg height="1000" width="1000.0" xmlns="http://www.w3.org/2000/svg"><path d="m598.8 928.6h-98.8c-58 0-102.1-25.1-126.1-78.7-8.4-17.9-12.9-37.4-12.9-56.9v-2.8c-45.7-22.3-75.3-69.2-75.3-120.6 0-6.1 0-21.2 2.8-26.7h-145.6c-78.7 0-142.9-64.2-142.9-142.9s64.2-142.9 142.9-142.9h63l-24.5-9.4c-55.3-20.7-92.1-74.3-92.1-133.4 0-78.7 64.2-142.9 142.8-142.9 17.3 0 34.6 3.4 50.8 9.5l350.5 133.4h223.7c78.7 0 142.9 64.2 142.9 142.8v372.8c0 65.9-44.6 122.8-108.3 138.4l-189.1 47.4c-33.5 8.4-68.7 12.9-103.8 12.9z m-27.4-396.8l-86.5 39.6-90.9 41.3c-22.3 10.1-36.9 32.4-36.9 56.9 0 34.6 27.9 62.5 62.5 62.5 9 0 17.9-1.6 25.7-5.5l188.6-86c-36.2-7.8-62.5-40.7-62.5-78.1v-30.7z m178.6 173.6c0-34.6-27.9-62.5-62.5-62.5-8.9 0-17.9 1.6-25.7 5.5l-161.8 73.7c-33.5 15.1-67.5 28.5-67.5 70.9 0 36.8 25.6 63.6 63 63.6 6.7 0 15.7-2.2 21.2-5l196.5-89.3c22.3-10.1 36.8-32.4 36.8-56.9z m-129.5-419.7l-362.7-138.4c-8.4-2.8-16.7-4.4-25.7-4.4-39 0-71.4 31.8-71.4 71.4 0 29.6 18.4 56.3 45.8 67l293.5 111.6v35.7h-357.1c-39.7 0-71.5 31.8-71.5 71.4s31.8 71.4 71.5 71.4h298.5l130-59.1v-110.5c0-22.3 9.5-44.1 25.7-59.2l61.9-56.9h-38.5z m-21.7 571.4c29 0 58.6-3.3 86.5-10.6l189.1-47.4c31.8-7.8 54.2-36.3 54.2-69.2v-372.8c0-39.6-31.8-71.4-71.5-71.4h-171.8l-75.9 70.3c-12.9 11.7-20.1 28.5-20.1 45.8v165.2c0 34.6 28.4 60.2 62.5 60.2 34.6 0 62.5-30.7 62.5-64.7v-116.1h17.8v116.1c0 25.1-12.2 48.5-31.8 63.6 39.1 6.2 67.6 40.2 67.6 79.3 0 31.2-18.5 60.2-46.9 73.1l-173 78.6h50.8z" /></svg>