<svg height="1000" width="1000.0" xmlns="http://www.w3.org/2000/svg"><path d="m142.9 750c0-19.5-16.2-35.7-35.8-35.7s-35.7 16.2-35.7 35.7 16.2 35.7 35.7 35.7 35.8-16.2 35.8-35.7z m785.7-321.4c0-38-34.1-71.5-71.5-71.5h-321.4c0-35.1 53.6-71.4 53.6-142.8 0-53.6-41.9-71.4-89.3-71.4-15.6 0-44.1 64.7-50.2 77.5-6.7 12.3-13.4 24.6-20.7 36.3-18.4 29.6-39.6 55.2-62.5 80.9-35.7 40.7-75.3 91-134.5 91h-17.8v357.1h17.8c97.7 0 193.1 71.4 301.4 71.4 62.5 0 105.5-26.2 105.5-93.1 0-10.7-1.2-21.3-2.8-31.3 23.4-12.8 36.2-44.6 36.2-70.3 0-13.4-3.3-26.8-10-38.5 19-17.9 29.6-40.2 29.6-66.4 0-17.9-7.8-44.1-19.6-57.5h184.7c38.5 0 71.5-32.9 71.5-71.4z m71.4-0.6c0 78.1-64.7 143.4-142.9 143.4h-94.3c-1.6 23.5-8.9 45.8-20.6 66.4 1.1 7.8 1.7 16.2 1.7 24 0 35.7-11.8 71.5-33.5 99.4 1.1 105.4-70.9 167.4-174.1 167.4-62.5 0-121.7-17.3-179.7-38.5-34.1-12.3-89.3-33-124.5-33h-160.7c-39.6 0-71.4-31.8-71.4-71.4v-357.1c0-39.6 31.8-71.5 71.4-71.5h160.7c26.8 0 64.8-47.9 81-66.4 20-22.8 39-45.7 55.8-72 32.3-51.8 56.3-147.3 131.1-147.3 88.7 0 160.7 48.6 160.7 142.9 0 24.5-3.9 48.5-12.3 71.4h208.7c77.1 0 142.9 65.3 142.9 142.3z" /></svg>