<svg height="1000" width="1000.0" xmlns="http://www.w3.org/2000/svg"><path d="m750 708.3l-613.7-613.5-53 52.9 166.7 166.7v143.9h-83.3v-166.6h-83.4v416.6h83.4v-166.6h83.3v166.6h83.3v-310.6l41.7 41.7v268.9h166.7c27.9 0 52.3-13.7 67.5-34.8l263.9 264 52.9-53.1-176-176.1z m-208.3-83.3h-83.4v-102.3l83.4 83.3v19z m208.3-83.3h41.7l34.1 136.2 30.2 30.4h60.7l-49.6-173.9c29.2-12.9 49.6-42.1 49.6-76.1v-83.3c0-46-37.3-83.3-83.4-83.3h-166.6v227.3l83.3 83.3v-60.6z m0-166.7h83.3v83.3h-83.3v-83.3z m-125 102.3v-102.3c0-46-37.3-83.3-83.3-83.3h-102.3l185.6 185.6z" /></svg>