<svg height="1000" width="1000.0" xmlns="http://www.w3.org/2000/svg"><path d="m938.6 928.6c-49.1 0-98.8-3.9-148.4-3.9-49.1 0-98.2 3.9-147.3 3.9-19 0-27.9-20.7-27.9-36.9 0-49.6 55.8-28.4 84.8-47.4 18.4-11.7 18.4-58.6 18.4-78.1l-0.6-218.2c0-6.1 0-11.7-0.5-17.3-9-2.8-19-2.2-27.9-2.2h-376.7c-9.5 0-19.5-0.6-28.5 2.2-0.5 5.6-0.5 11.2-0.5 17.3l-0.6 207c0 21.2 0 79.3 20.7 91.5 29 17.9 94.8-7.2 94.8 43 0 16.8-7.8 39.1-27.3 39.1-51.9 0-103.8-3.9-155.1-3.9-47.5 0-94.9 3.9-142.3 3.9-18.5 0-26.8-21.2-26.8-36.9 0-48.5 51.3-28.4 78.7-47.4 17.8-12.3 18.4-60.3 18.4-79.8l-0.6-31.8v-453.7c0-26.8 3.9-112.7-21.2-127.8-27.9-17.3-87.6 9.5-87.6-40.7 0-16.2 7.3-39.1 26.8-39.1 51.3 0 103.2 3.9 154.6 3.9 46.8 0 94.3-3.9 141.1-3.9 20.1 0 27.9 22.4 27.9 39.1 0 48-55.2 24.5-82.5 41.8-19.6 11.8-19.6 69.2-19.6 89.3l0.6 178.6c0 6.1 0 11.7 0.5 17.9 7.3 1.6 14.5 1.6 21.8 1.6h390.1c6.7 0 13.9 0 21.2-1.6 0.5-6.2 0.5-11.8 0.5-17.9l0.6-178.6c0-20.6 0-77.5-19.5-89.3-27.9-16.7-83.7 5.6-83.7-41.8 0-16.7 7.8-39.1 27.9-39.1 49.1 0 98.2 3.9 147.3 3.9 48 0 96-3.9 144-3.9 20 0 27.9 22.4 27.9 39.1 0 48.5-57.5 24-85.4 41.3-19 12.3-19.6 69.7-19.6 89.8l0.6 526.3c0 18.4 1.1 66.9 19 78.1 28.4 17.8 88.7-5 88.7 43.5 0 16.2-7.3 39.1-26.8 39.1z" /></svg>