<svg height="1000" width="928.6" xmlns="http://www.w3.org/2000/svg"><path d="m928.6 494.4c0 60.8-11.2 120-33.5 175.2l-11.2 27.4-103.2 18.4c-16.2 60.8-71.4 106-137.8 106v17.9c0 10-7.9 17.8-17.9 17.8h-35.7c-10.1 0-17.9-7.8-17.9-17.8v-321.4c0-10.1 7.8-17.9 17.9-17.9h35.7c10 0 17.9 7.8 17.9 17.9v17.8c53.5 0 99.8 29.6 124.4 73.1l37.9-6.7c10.6-34.6 16.2-70.3 16.2-107.7 0-168.5-166.8-315.8-357.1-315.8s-357.2 147.3-357.2 315.8c0 37.4 5.6 73.1 16.2 107.7l38 6.7c24.5-43.5 70.8-73.1 124.4-73.1v-17.8c0-10.1 7.8-17.9 17.9-17.9h35.7c10 0 17.8 7.8 17.8 17.9v321.4c0 10-7.8 17.8-17.8 17.8h-35.7c-10.1 0-17.9-7.8-17.9-17.8v-17.9c-66.4 0-121.6-45.2-137.8-106l-103.3-18.4-11.1-27.4c-22.3-55.2-33.5-114.4-33.5-175.2 0-229.3 212.6-423 464.3-423s464.3 193.7 464.3 423z" /></svg>