<svg height="1000" width="750.0" xmlns="http://www.w3.org/2000/svg"><path d="m584 834q33.2 0 57.6-24.4t24.4-59.6h84q0 68.4-48.8 117.2t-117.2 48.8q-37.1 0-68.4-13.7-80.1-41-115.2-148.4-7.8-27.3-23.4-43.9t-46.9-42q-80.1-60.6-119.2-130.9-44.9-80.1-44.9-162.1 0-123 85-207t208-84 207 84 84 207h-84q0-87.9-60.5-148.4t-147.5-60.6-147.5 60.6-60.5 148.4q0 60.5 33.2 123 31.3 52.8 97.7 105.5 25.4 19.5 39 31.3t32.2 37.1 28.4 56.6q25.4 74.2 70.3 97.7 15.6 7.8 33.2 7.8z m-390.6-724.6q-109.4 109.4-109.4 265.6 0 154.3 109.4 265.6l-58.6 58.6q-134.8-134.7-134.8-324.2t134.8-324.2z m160.1 265.6q0-43 31.3-73.2t74.2-30.3 73.2 30.3 30.3 73.2-30.3 73.2-73.2 30.3-74.2-30.3-31.3-73.2z" /></svg>