<svg height="1000" width="834.0" xmlns="http://www.w3.org/2000/svg"><path d="m375 750v-84h84v84h-84z m42-666q172.8 0 294.9 122.1t122.1 293.9-122.1 293.9-294.9 122.1-294.9-122.1-122.1-293.9 122.1-293.9 294.9-122.1z m0 750q137.7 0 235.3-97.7t97.7-236.3-97.7-236.3-235.3-97.7-235.4 97.7-97.6 236.3 97.6 236.3 235.4 97.7z m0-584q69.3 0 118.2 48.8t48.8 117.2q0 35.2-19.5 63.5t-43 44.9-43 43-19.5 57.6h-84q0-44.9 19.5-77.1t43-46.9 43-36.2 19.5-48.8q0-33.2-24.4-57.6t-58.6-24.4-58.6 24.4-24.4 57.6h-84q0-68.3 48.8-117.2t118.2-48.8z" /></svg>