<svg height="1000" width="1000.0" xmlns="http://www.w3.org/2000/svg"><path d="m763.3 27.3c-4.4 0.1-9.1 0.6-14.4 1.8-38.5 8.7-19.1 30.7-46.8 40.7-27.7 10-55.7-4.6-67.2 42.7-11.4 47.4 65.2 79.3 65.2 79.3 0 0-104 209.1-270.7 225.8-166.8 16.7-273.6-149.2-291.1-162.7-29.5-22.7-81.8-33.6-63.1 20.3l50.9 146.5c-19.7 12.2-48.3 15.5-75.3 20.3 31.3 38.6 65 75 130.2 83.4 8.5 41.2-25.1 53-53.5 68.3 0 0 17.6 81.5 283 83.3 265.4 1.8 236.6-220.7 236.6-220.7 20.3 2.1 43.4 4.9 44.8 26.4 1.3 19.7 26 103.8-67.2 193.1-93.2 89.4-396.8 38-396.8 38 119.6 75.1 272.4 94.6 384.6 92.3l114 134.3-11.9 57.2c-6 28.6 25.7 44.7 44.5 9.9l28.5-57 89.5-56.9c21.4-13.6 18.1-52.8-21.8-33.5l-90.1 43.6c0 0-107.1-83.8-91.2-129.1 9.2-26.4 68.3-54.8 103.7-98.3 59.7-73.3 13.9-173.6 35.8-212.1 21.9-38.6 61.8-17.5 87.8-60.8 25.9-43.4-63.3-67.4-26-106.7l73.9 8.7c-3.7-33-5.9-34-33.5-55.5 0 0-12.4-25-14.4-41.5-2.1-16.6-16.1-62.7-16.1-62.7 0 0 19.6-71.7 2.1-92.2-17.5-20.5-46.2 4.1-67.2-2-17.7-5.1-28.8-23.7-55-24.2-0.6 0-1.2 0-1.8 0z m59.4 150c21 0 38.1 17.7 38.1 39.6 0 21.8-17.1 39.5-38.1 39.5-21.1 0-38.2-17.7-38.2-39.5 0-21.9 17.1-39.6 38.2-39.6z m-361.3 665.2l-15.1 35.3-92.1-1.5c-7.1 11.5-2 18 0 29.5 0 0 65.1 13.8 87.8 30.2 22 15.9 44.6 62.6 44.6 62.6 29.2 44 65.4 11.3 51.8-9.4-17.8-27.2-41.8-45.7-51.1-84.8-1.3-4 31.9-54 35.3-55.4l-61.2-6.5z" /></svg>