<svg height="1000" width="857.1" xmlns="http://www.w3.org/2000/svg"><path d="m857.1 500c0 236-192.5 428.6-428.5 428.6-127.8 0-248.4-56.4-329.8-154.6-5.6-7.3-5.1-17.9 1.1-24l76.4-77c3.9-3.4 9-5 14-5 5 0.5 10 2.8 12.8 6.7 54.7 70.8 136.7 111 225.5 111 157.3 0 285.7-128.3 285.7-285.7s-128.4-285.7-285.7-285.7c-73.1 0-142.3 27.9-194.2 76.4l76.4 77c10.6 10.1 13.4 25.7 7.8 38.5-5.5 13.4-18.4 22.4-32.9 22.4h-250c-19.5 0-35.7-16.2-35.7-35.7v-250c0-14.6 8.9-27.4 22.3-33 12.9-5.5 28.5-2.8 38.5 7.8l72.6 72c78.7-74.2 185.2-118.3 295.2-118.3 236 0 428.5 192.6 428.5 428.6z m-357.1-160.7v250c0 10-7.8 17.8-17.9 17.8h-178.5c-10.1 0-17.9-7.8-17.9-17.8v-35.7c0-10.1 7.8-17.9 17.9-17.9h125v-196.4c0-10.1 7.8-17.9 17.8-17.9h35.7c10.1 0 17.9 7.8 17.9 17.9z" /></svg>