<svg height="1000" width="928.6" xmlns="http://www.w3.org/2000/svg"><path d="m785.7 553.6v267.8c0 19.6-16.2 35.7-35.7 35.7h-214.3v-214.2h-142.8v214.2h-214.3c-19.6 0-35.7-16.1-35.7-35.7v-267.8c0-1.1 0.5-2.3 0.5-3.4l320.9-264.5 320.9 264.5c0.5 1.1 0.5 2.3 0.5 3.4z m124.5-38.5l-34.6 41.3c-2.8 3.3-7.3 5.5-11.8 6.1h-1.6c-4.5 0-8.4-1.1-11.8-3.9l-386.1-322-386.2 322c-3.9 2.8-8.3 4.5-13.4 3.9-4.4-0.6-8.9-2.8-11.7-6.1l-34.6-41.3c-6.1-7.3-5-19 2.2-25.1l401.3-334.3c23.4-19.5 61.4-19.5 84.8 0l136.2 113.8v-108.8c0-10 7.8-17.8 17.8-17.8h107.2c10 0 17.8 7.8 17.8 17.8v227.7l122.2 101.6c7.3 6.1 8.4 17.8 2.3 25.1z" /></svg>