<svg height="1000" width="857.1" xmlns="http://www.w3.org/2000/svg"><path d="m785.7 71.4c0 206.5-98.8 356.1-208.1 428.6 109.3 72.5 208.1 222.1 208.1 428.6h53.6c10 0 17.8 7.8 17.8 17.8v35.7c0 10.1-7.8 17.9-17.8 17.9h-821.4c-10.1 0-17.9-7.8-17.9-17.9v-35.7c0-10 7.8-17.8 17.9-17.8h53.5c0-206.5 98.8-356.1 208.2-428.6-109.4-72.5-208.2-222.1-208.2-428.6h-53.5c-10.1 0-17.9-7.8-17.9-17.8v-35.7c0-10.1 7.8-17.9 17.9-17.9h821.4c10 0 17.8 7.8 17.8 17.9v35.7c0 10-7.8 17.8-17.8 17.8h-53.6z m-298 395.1c112.7-42.4 226.6-191.4 226.6-395.1h-571.4c0 203.7 113.8 352.7 226.5 395.1 14 5 23.5 18.4 23.5 33.5s-9.5 28.5-23.5 33.5c-112.7 42.4-226.5 191.4-226.5 395.1h571.4c0-203.7-113.9-352.7-226.6-395.1-13.9-5-23.4-18.4-23.4-33.5s9.5-28.5 23.4-33.5z" /></svg>