<svg height="1000" width="857.1" xmlns="http://www.w3.org/2000/svg"><path d="m785.7 71.4c0 206.5-98.8 356.1-208.1 428.6 109.3 72.5 208.1 222.1 208.1 428.6h53.6c10 0 17.8 7.8 17.8 17.8v35.7c0 10.1-7.8 17.9-17.8 17.9h-821.4c-10.1 0-17.9-7.8-17.9-17.9v-35.7c0-10 7.8-17.8 17.9-17.8h53.5c0-206.5 98.8-356.1 208.2-428.6-109.4-72.5-208.2-222.1-208.2-428.6h-53.5c-10.1 0-17.9-7.8-17.9-17.8v-35.7c0-10.1 7.8-17.9 17.9-17.9h821.4c10 0 17.8 7.8 17.8 17.9v35.7c0 10-7.8 17.8-17.8 17.8h-53.6z m-71.4 0h-571.4c0 24.6 1.6 48.6 5 71.5h561.4c3.3-22.9 5-46.9 5-71.5z m0 857.2c0-200.4-110.5-348.2-221.6-392.9h-128.3c-111.1 44.7-221.5 192.5-221.5 392.9h571.4z" /></svg>