<svg height="1000" width="857.1" xmlns="http://www.w3.org/2000/svg"><path d="m785.7 71.4c0 206.5-98.8 356.1-208.1 428.6 109.3 72.5 208.1 222.1 208.1 428.6h53.6c10 0 17.8 7.8 17.8 17.8v35.7c0 10.1-7.8 17.9-17.8 17.9h-821.4c-10.1 0-17.9-7.8-17.9-17.9v-35.7c0-10 7.8-17.8 17.9-17.8h53.5c0-206.5 98.8-356.1 208.2-428.6-109.4-72.5-208.2-222.1-208.2-428.6h-53.5c-10.1 0-17.9-7.8-17.9-17.8v-35.7c0-10.1 7.8-17.9 17.9-17.9h821.4c10 0 17.8 7.8 17.8 17.9v35.7c0 10-7.8 17.8-17.8 17.8h-53.6z m-71.4 0h-571.4c0 81.5 18.4 153.5 47.4 214.3h476.6c29-60.8 47.4-132.8 47.4-214.3z m-31.8 678.6c-41.3-107.7-115.5-184.2-189.8-214.3h-128.3c-74.2 30.1-148.4 106.6-189.7 214.3h507.8z" /></svg>