<svg height="1000" width="857.1" xmlns="http://www.w3.org/2000/svg"><path d="m571.4 767.9v-89.3c0-10.1-7.8-17.9-17.8-17.9h-53.6v-285.7c0-10-7.8-17.9-17.9-17.9h-178.5c-10.1 0-17.9 7.9-17.9 17.9v89.3c0 10 7.8 17.8 17.9 17.8h53.5v178.6h-53.5c-10.1 0-17.9 7.8-17.9 17.9v89.3c0 10 7.8 17.8 17.9 17.8h250c10 0 17.8-7.8 17.8-17.8z m-71.4-500v-89.3c0-10.1-7.8-17.9-17.9-17.9h-107.1c-10 0-17.9 7.8-17.9 17.9v89.3c0 10 7.9 17.8 17.9 17.8h107.1c10.1 0 17.9-7.8 17.9-17.8z m357.1 232.1c0 236.6-191.9 428.6-428.5 428.6s-428.6-192-428.6-428.6 192-428.6 428.6-428.6 428.5 192 428.5 428.6z" /></svg>