<svg height="1000" width="916.0" xmlns="http://www.w3.org/2000/svg"><path d="m291 479.5q0 26.4-17.6 43.9t-43.9 17.6-44.9-17.6-18.6-43.9 18.6-44.9 44.9-18.6 43.9 18.6 17.6 44.9z m293-209q0 26.4-18.6 44.9t-43.9 18.6h-125q-27.4 0-44.9-18.6t-17.6-44.9 17.6-43.9 44.9-17.6h125q25.4 0 43.9 17.6t18.6 43.9z m-271.5 354.5q25.4 0 43.9 18.6t18.6 43.9-18.6 43.9-43.9 18.6-43.9-18.6-18.6-43.9 18.6-43.9 43.9-18.6z m146.5-584q189.4 0 323.2 134.8t133.8 324.2-133.8 324.2-323.2 134.8-324.2-134.8-134.8-324.2 134.8-324.2 324.2-134.8z m-1 834q155.3 0 265.6-110.4t110.4-264.6-110.4-264.6-265.6-110.4-264.6 110.4-109.4 264.6 109.4 264.6 264.6 110.4z m229.5-459q25.4 0 43.9 18.6t18.6 44.9-18.6 43.9-43.9 17.6-43.9-17.6-18.6-43.9 18.6-44.9 43.9-18.6z m-83 209q26.4 0 43.9 18.6t17.6 43.9-17.6 43.9-43.9 18.6-44.9-18.6-18.6-43.9 18.6-43.9 44.9-18.6z" /></svg>