<svg height="1000" width="501.1" xmlns="http://www.w3.org/2000/svg"><path d="m501.1 262.3v56.9c0 10-7.8 17.9-17.8 17.9h-93.8c-17.3 107.1-99.3 176.9-226 191.9 83.2 88.7 171.9 195.9 256.1 299.1 4.5 5 5.6 12.9 2.3 19-2.8 6.1-9 10-16.2 10h-108.8c-5.6 0-10.6-2.2-14-6.7-89.8-107.7-172.4-206.4-277.9-318.6-3.3-3.3-5-7.8-5-12.3v-70.8c0-9.5 7.8-17.9 17.9-17.9h62.5c98.2 0 159.6-32.9 175.7-93.7h-238.2c-10.1 0-17.9-7.9-17.9-17.9v-56.9c0-10.1 7.8-17.9 17.9-17.9h230.4c-21.2-41.8-71.4-63-149.5-63h-80.9c-10.1 0-17.9-8.4-17.9-17.9v-74.2c0-10.1 7.8-17.9 17.9-17.9h464.2c10.1 0 17.9 7.8 17.9 17.9v56.9c0 10.1-7.8 17.9-17.9 17.9h-130c17.9 22.8 29.6 49.6 35.7 80.3h95.5c10 0 17.8 7.8 17.8 17.9z" /></svg>