<svg height="1000" width="857.1" xmlns="http://www.w3.org/2000/svg"><path d="m760 795.8v-361.6 0h-75.3c7.3 22.8 11.2 47.9 11.2 73.1 0 142.8-119.4 258.3-266.8 258.3-146.7 0-266.2-115.5-266.2-258.3 0-25.2 4-50.3 11.2-73.1h-78.7v361.6c0 18.9 15.1 34 34.1 34h596.5c19 0 34-15.1 34-34z m-158.4-297.5c0-92-77-166.8-172.5-166.8-94.8 0-171.8 74.8-171.8 166.8s77 166.9 171.8 166.9c95.5 0 172.5-74.8 172.5-166.9z m158.4-200.9v-92c0-21.2-17.3-38.5-38.5-38.5h-97.1v0c-21.2 0-38.5 17.3-38.5 38.5v92c0 21.2 17.3 38.5 38.5 38.5h97.1c21.2 0 38.5-17.3 38.5-38.5z m97.1-116v637.2c0 60.3-49.6 110-109.9 110h-637.3c-60.2 0-109.9-49.7-109.9-110v-637.2c0-60.3 49.7-110 109.9-110v0h637.3c60.3 0 109.9 49.7 109.9 110z" /></svg>