<svg height="1000" width="857.1" xmlns="http://www.w3.org/2000/svg"><path d="m571.4 500c0-78.7-64.1-142.9-142.8-142.9s-142.9 64.2-142.9 142.9 64.2 142.9 142.9 142.9 142.8-64.2 142.8-142.9z m77 0c0 121.7-98.2 219.9-219.8 219.9s-219.9-98.2-219.9-219.9 98.2-219.9 219.9-219.9 219.8 98.2 219.8 219.9z m60.3-228.8c0 28.5-22.9 51.3-51.3 51.3s-51.4-22.8-51.4-51.3 22.9-51.3 51.4-51.3 51.3 22.8 51.3 51.3z m-280.1-122.8c-62.5 0-196.5-5-252.8 17.3-19.6 7.8-34.1 17.3-49.1 32.4s-24.6 29.6-32.4 49.1c-22.3 56.4-17.3 190.3-17.3 252.8s-5 196.4 17.3 252.8c7.8 19.5 17.3 34 32.4 49.1s29.5 24.6 49.1 32.4c56.3 22.3 190.3 17.3 252.8 17.3s196.4 5 252.8-17.3c19.5-7.8 34-17.3 49.1-32.4s24.5-29.6 32.3-49.1c22.4-56.4 17.3-190.3 17.3-252.8s5.1-196.4-17.3-252.8c-7.8-19.5-17.3-34-32.3-49.1s-29.6-24.6-49.1-32.4c-56.4-22.3-190.3-17.3-252.8-17.3z m428.5 351.6c0 59.2 0.6 117.7-2.7 176.9-3.4 68.6-19 129.5-69.2 179.7s-111.1 65.8-179.7 69.2c-59.2 3.3-117.8 2.8-176.9 2.8s-117.8 0.5-176.9-2.8c-68.7-3.4-129.5-19-179.7-69.2s-65.9-111.1-69.2-179.7c-3.4-59.2-2.8-117.7-2.8-176.9s-0.6-117.7 2.8-176.9c3.3-68.6 19-129.5 69.2-179.7s111-65.8 179.7-69.2c59.1-3.3 117.7-2.8 176.9-2.8s117.7-0.5 176.9 2.8c68.6 3.4 129.4 19 179.7 69.2s65.8 111.1 69.2 179.7c3.3 59.2 2.7 117.7 2.7 176.9z" /></svg>