<svg height="1000" width="1000.0" xmlns="http://www.w3.org/2000/svg"><path d="m1000 522.9c0 19.5-1.1 39-3.9 58h-642.3c0 111.1 97.7 191.4 204.8 191.4 72.5 0 142.3-35.7 179.7-98.8h236c-63.6 179.2-233.8 299.2-423.5 299.2-68.7 0-137.3-16.2-198.7-46.4-62.5 31.8-150.1 64.8-219.8 64.8-93.8 0-132.3-57.5-132.3-146.8 0-51.9 11.2-103.8 25.1-153.5 8.9-32.3 44.7-98.2 60.8-127.7 68.7-124.5 159.1-243.9 265.1-338.2-85.4 36.8-178 129.5-238.3 197.5 46.9-204.2 228.8-348.7 438.1-348.7 8.4 0 16.7 0 25.1 0.5 69.2-31.8 165.7-65.3 241.6-65.3 90.4 0 168 34.6 168 136.7 0 53.6-20.7 111.7-41.9 159.6 36.9 66.5 56.4 141.8 56.4 217.7z m-39.1-357.2c0-62.5-44.6-101-106-101-46.9 0-99.9 19-141.7 39.1 90.4 35.2 167.9 99.9 219.3 182.5 13.9-36.9 28.4-81.5 28.4-120.6z m-889.5 690.3c0 64.8 38.5 99.9 102.1 99.9 49.7 0 105-22.3 148.5-46.3-91-53.6-161.3-139-195.9-238.8-25.7 53.5-54.7 125-54.7 185.2z m281.3-397.9h406.2c-3.9-107.7-98.7-185.2-203.1-185.2-104.9 0-199.2 77.5-203.1 185.2z" /></svg>