<svg height="1000" width="1000.0" xmlns="http://www.w3.org/2000/svg"><path d="m399.6 895.6c-106.6-26.2-197.6-87.6-256.2-170.2v0c-45.7 98.8-58 183.1-9.5 222.1 39.1 32.4 189.2 6.7 265.7-51.9z m-12.9-463.7h252.3c0-80.9-49.2-128.3-128.4-128.3v0c-77.6 0-123.9 51.3-123.9 128.3z m575.4-209.2h-19c63-264.6-125.6-218.2-299.7-103.8 192.5 54.6 335.4 235.5 306.4 438.6h-560.8c0 83.1 23.4 151.8 126.1 151.8 65.3 0 107.7-35.8 119.9-92.7h301.4c-52.5 169.1-222.7 292.4-423.6 292.4-30.7 0-60.2-2.7-88.7-8.3-34 39-254.5 145.6-344.9 76.4-210.3-161.3 182-682.5 360.5-772.9v-13.4c-143.4 44.7-307.4 208.2-367.2 301.4 10.6-282.9 269.6-421.3 509.5-386.7 99.4-59.7 199.8-104.4 280.7-105.5v0h3.9c20.7 0 40.2 3.3 57.5 10 59.7 22.4 73.1 103.8 38 212.7z" /></svg>