<svg height="1000" width="573.1" xmlns="http://www.w3.org/2000/svg"><path d="m336.5 857.1h-96c-10 0-17.8-7.8-17.8-17.8v-184.2h-160.8c-10 0-17.8-7.8-17.8-17.8v-57.5c0-10 7.8-17.9 17.8-17.9h160.8v-47.4h-160.8c-10 0-17.8-7.8-17.8-17.8v-58.1c0-9.5 7.8-17.8 17.8-17.8h119.5l-179.2-322.6c-2.8-5.6-2.8-12.3 0-17.8 3.4-5.6 9.5-9 15.7-9h108.2c6.7 0 12.9 3.9 16.2 10.1l120 237.1c13.4 26.3 22.3 48.6 31.2 69.8 9.5-24 21.8-47.4 32.4-72l106.6-234.4c2.8-6.7 9.5-10.6 16.2-10.6h106.5c6.2 0 11.8 3.4 15.1 9 3.4 5 3.4 11.7 0.6 17.3l-174.7 323.1h120c10 0 17.8 8.3 17.8 17.8v58.1c0 10-7.8 17.8-17.8 17.8h-161.8v47.4h161.8c10 0 17.8 7.9 17.8 17.9v57.5c0 10-7.8 17.8-17.8 17.8h-161.8v184.2c0 10-8.4 17.8-17.9 17.8z" /></svg>