<svg height="1000" width="1142.9" xmlns="http://www.w3.org/2000/svg"><path d="m1004.5 430.8c80.9 33.5 138.4 112.7 138.4 204.8 0 122.2-101 221.5-224.9 221.5-4.5 0-8.4-0.5-12.3-0.5h-674.7-0.5-1.1-2.8c-125-7.3-226.6-102.7-226.6-226.6 0-83.1 45.2-155.7 112.7-195.3-4.4-14.5-6.7-29.6-6.7-45.7 0-85.4 69.8-154.6 156.8-154.6 35.7 0 69.2 12.3 96 32.3 54.7-112.7 170.8-190.8 306.4-190.8 188 0 339.8 150.1 339.8 334.8 0 6.7-0.5 13.4-0.5 20.1z m-743.3 148.4c0 94.3 74.2 147.4 162.9 147.4 54.7 0 94.3-17.3 133.9-55.3-16.1-20.1-34-39.6-50.7-59.7-22.9 22.3-48 36.3-80.4 36.3-39.6 0-73.7-26.2-73.7-67.5 0-40.8 34.1-67.6 72.6-67.6 122.7 0 149 214.3 327.5 214.3 87.1 0 160.8-54.7 160.8-146.2 0-92.6-74.3-146.7-162.4-146.7-54.7 0-95.4 15.6-134.5 54.1 17.8 19.5 34.6 40.2 51.9 60.2 22.3-21.7 47.4-35.7 79.2-35.7 36.9 0 73.7 26.3 73.7 65.3 0 43-31.3 70.3-73.1 70.3-118.9 0-150.7-214.2-324.8-214.2-86.5 0-162.9 53-162.9 145z" /></svg>