<svg height="1000" width="1000.0" xmlns="http://www.w3.org/2000/svg"><path d="m464.3 285.7c0-59.1-48-107.1-107.2-107.1s-107.1 48-107.1 107.1c0 16.2 3.9 31.8 10.6 46.3-14.5-6.7-30.1-10.6-46.3-10.6-59.2 0-107.2 48-107.2 107.2s48 107.1 107.2 107.1 107.1-48 107.1-107.1c0-16.2-3.9-31.8-10.6-46.3 14.5 6.7 30.2 10.6 46.3 10.6 59.2 0 107.2-48 107.2-107.2z m474.9 392.9c0 12.8-51.4 64.1-64.2 64.1-14.5 0-59.7-52.4-71.4-64.1l-53.6 53.5 122.8 122.8c10 10.1 15.6 24 15.6 38 0 31.2-35.7 66.9-67 66.9-13.9 0-27.9-5.6-37.9-15.6l-374.5-374.4c-58.6 43.5-130 73.1-203.6 73.1-121.7 0-205.4-84.3-205.4-205.4 0-183 183-366.1 366.1-366.1 121.1 0 205.3 83.7 205.3 205.4 0 73.6-29.5 145.1-73.1 203.7l198.1 198.1 53.6-53.6c-11.7-11.7-64.2-56.9-64.2-71.4 0-12.9 51.4-64.2 64.2-64.2 4.5 0 9.5 2.2 12.8 5.6 20.7 20.6 176.4 167.4 176.4 183.6z" /></svg>