<svg height="1000" width="834.0" xmlns="http://www.w3.org/2000/svg"><path d="m750 125q35.2 0 59.6 24.4t24.4 59.6v416q0 35.2-24.4 59.6t-59.6 24.4h-666q-35.2 0-59.6-24.4t-24.4-59.6v-416q0-35.2 24.4-59.6t59.6-24.4h666z m-375 125v84h84v-84h-84z m0 125v84h84v-84h-84z m-125-125v84h84v-84h-84z m0 125v84h84v-84h-84z m-41 84v-84h-84v84h84z m0-125v-84h-84v84h84z m375 291v-84h-334v84h334z m0-166v-84h-84v84h84z m0-125v-84h-84v84h84z m125 125v-84h-84v84h84z m0-125v-84h-84v84h84z m-293 625l-166-168h334z" /></svg>