<svg height="1000" width="1000.0" xmlns="http://www.w3.org/2000/svg"><path d="m833.3 208.3h-666.6c-46.1 0-83 37.3-83 83.4l-0.4 416.6c0 46.1 37.3 83.4 83.4 83.4h666.6c46.1 0 83.4-37.3 83.4-83.4v-416.6c0-46.1-37.3-83.4-83.4-83.4z m-375 125h83.4v83.4h-83.4v-83.4z m0 125h83.4v83.4h-83.4v-83.4z m-125-125h83.4v83.4h-83.4v-83.4z m0 125h83.4v83.4h-83.4v-83.4z m-41.6 83.4h-83.4v-83.4h83.4v83.4z m0-125h-83.4v-83.4h83.4v83.4z m375 291.6h-333.4v-83.3h333.4v83.3z m0-166.6h-83.4v-83.4h83.4v83.4z m0-125h-83.4v-83.4h83.4v83.4z m125 125h-83.4v-83.4h83.4v83.4z m0-125h-83.4v-83.4h83.4v83.4z" /></svg>