<svg height="1000" width="1000.0" xmlns="http://www.w3.org/2000/svg"><path d="m833.3 125h-666.6c-46.1 0-83 37.3-83 83.3l-0.4 416.7c0 46 37.3 83.3 83.4 83.3h666.6c46.1 0 83.4-37.3 83.4-83.3v-416.7c0-46-37.3-83.3-83.4-83.3z m-375 125h83.4v83.3h-83.4v-83.3z m0 125h83.4v83.3h-83.4v-83.3z m-125-125h83.4v83.3h-83.4v-83.3z m0 125h83.4v83.3h-83.4v-83.3z m-41.6 83.3h-83.4v-83.3h83.4v83.3z m0-125h-83.4v-83.3h83.4v83.3z m375 291.7h-333.4v-83.3h333.4v83.3z m0-166.7h-83.4v-83.3h83.4v83.3z m0-125h-83.4v-83.3h83.4v83.3z m125 125h-83.4v-83.3h83.4v83.3z m0-125h-83.4v-83.3h83.4v83.3z m-291.7 625l166.7-166.6h-333.4l166.7 166.6z" /></svg>