<svg height="1000" width="750.0" xmlns="http://www.w3.org/2000/svg"><path d="m0 125h750v750h-750v-750z m197.3 627q29.3 64.4 105.4 64.4 48.9 0 77.2-26.4t28.3-79.1v-242.1h-70.3v240.2q0 44.9-37.1 44.9-25.4 0-46.9-37.1z m248-7.9q37.1 72.3 128.9 72.3 52.8 0 85-26.4t32.2-71.2q0-43-22.5-66.5t-71.2-44.9l-17.6-7.8q-23.5-9.8-33.2-18.5t-9.8-24.5q0-11.7 8.8-20.5t24.4-8.8q29.3 0 46.9 29.3l52.7-35.1q-31.2-56.7-99.6-56.7-46.9 0-75.2 26.4t-28.3 67.4 21.5 64.4 64.4 41.1l17.6 7.8q19.5 9.7 28.3 13.6t15.7 12.7 6.8 20.6q0 15.6-12.7 25.3t-34.2 9.8q-44.9 0-70.3-43z" /></svg>