<svg height="1000" width="894.5" xmlns="http://www.w3.org/2000/svg"><path d="m0 300.8q87.9-56.7 160.2-69.4t117.1 10.8 76.2 69.3 44.9 93.8 15.7 96.7q5.8 72.2-36.2 141.6t-112.3 92.7-162.1-31.2v234.4l-103.5-66.5v-572.2z m99.6 74.2v236.3q80.1 48.9 127.9 41t68.4-47.8 20.5-110.4q0-91.8-33.2-132.8t-81.1-34.2-102.5 47.9z m484.4-140.6q-7.8 152.3 0 302.7 5.8 41 28.3 59.6t51.8 15.6 58.6-11.7 48.8-20.5l19.5-9.8v-302.7l103.5 11.7v404.3q0 54.7-15.6 98.6t-39.1 70.3-52.7 45-59.6 26.3-53.7 11.7-39 4h-15.7l-35.1-99.7q68.3 0 115.2-16.6t64.5-39 26.3-45.9 6.9-39.1l-2-15.6q-82 31.2-143.5 34.2t-92.8-14.7-49.8-40-22.5-40.1l-3.9-19.5v-302.7z" /></svg>