<svg height="1000" width="834.0" xmlns="http://www.w3.org/2000/svg"><path d="m714.8 312.5q48.9 0 84 35.2t35.2 83.9v158.2q0 48.9-35.2 84t-84 35.2h-298.8q0 11.7 9.8 25.4t19.5 13.6h179.7v70.4q0 48.8-35.2 83.9t-83.9 35.2h-177.8q-50.8 0-84.9-35.2t-34.2-83.9v-156.3q0-48.8 34.2-84t84.9-35.1h218.8q48.8 0 83-35.2t34.2-84v-111.3h50.7z m-179.6 492.2q-29.3 0-29.3 37.1 0 29.3 29.3 29.3 13.6 0 21.4-8.8t7.9-20.5q0-37.1-29.3-37.1z m-416.1-76.2q-48.8 0-83.9-34.2t-35.2-84.9v-156.3q0-50.8 35.2-84.9t83.9-34.2h296.9q0-13.7-8.8-27.4t-20.5-13.6h-177.7v-70.3q0-48.9 34.2-84t84.9-35.2h177.8q48.8 0 83.9 35.2t35.2 84v156.2q0 50.8-35.2 85t-83.9 34.1h-218.8q-48.8 0-84 35.2t-35.1 84v111.3h-48.9z m177.8-490.2q31.2 0 31.2-37.1 0-29.3-31.2-29.3-29.3 0-29.3 29.3 0 37.1 29.3 37.1z" /></svg>