<svg height="1000" width="857.1" xmlns="http://www.w3.org/2000/svg"><path d="m799.1 587.1c0-78.7-63.6-114.4-130.6-133.4-30.7-8.4-55.8-15.6-66.9-49.1-0.6-2.8-3.4-13.4-3.4-15.6 0-26.8 21.2-46.4 47.4-46.4 12.3 0 29.6-0.5 39.7 8.4h-0.6c10.6 7.8 15.6 16.7 21.8 28.5l51.9-39.7c-8.4-11.7-16.8-25.6-27.4-35.7v0c-26.2-23.4-50.8-27.3-85.4-27.3-58.5 0-113.8 48-113.8 108.8 0 4.5 0.6 8.4 1.1 12.8 12.3 75.9 50.8 99.4 118.9 118.9 33.5 9.5 80.9 24.6 81.5 65.8v2.8c0.5 44.7-36.9 71.5-78.7 71.5-45.8 0-75.4-43.6-93.2-80.4-64.7-133.4-74.8-300.2-266.8-300.2-115.5 0-219.3 106.6-215.4 221v0.5c3.9 119.4 86 224.9 212.1 224.9 59.7 0 115.5-13.9 155.7-61.4v0c6.7-8.9 12.8-18.4 17.3-28.4l-33.5-60.9c-31.2 59.2-69.8 84.9-136.7 84.9-88.2 0-149-78.2-149-162.4 0-77.6 71.4-152.4 149.5-152.4 89.3 0 121.7 46.4 152.9 126.2 37.4 95.9 77.6 254.4 207.1 254.4 77.5 0 144.5-56.3 144.5-136.1z m58-355v535.8c0 88.7-71.9 160.7-160.7 160.7h-535.7c-88.7 0-160.7-72-160.7-160.7v-535.8c0-88.7 72-160.7 160.7-160.7h535.7c88.8 0 160.7 72 160.7 160.7z" /></svg>