<svg height="1000" width="1000.0" xmlns="http://www.w3.org/2000/svg"><path d="m714.3 392.9c0-19.6-16.2-35.8-35.7-35.8-197.6 0-324.8 82.6-453.7 224.9-6.7 7.3-10.6 15.1-10.6 25.1 0 19.6 16.2 35.8 35.7 35.8 10 0 17.9-3.9 25.1-10.6 27.4-24.6 51.9-51.4 78.7-76.5 101-91 187.5-127.2 324.8-127.2 19.5 0 35.7-16.2 35.7-35.7z m285.7-110.5c0 35.7-3.9 72-11.2 107.7-35.7 173.5-147.3 286.2-302.4 363.2-75.4 38-159.6 60.3-244.4 60.3-53.6 0-108.9-8.9-159.6-26.2-26.8-8.9-80.4-44.1-102.7-44.1-27.9 0-61.4 113.8-109.9 113.8-35.2 0-45.8-17.3-60.9-42.9-5-9.5-8.9-12.9-8.9-24.6 0-58 110.5-103.2 110.5-135.6 0-5-14.5-34.6-16.8-45.7-3.3-19-5-38.5-5-58.1 0-177.4 141.2-304.1 299.7-356.6 114.4-37.9 357.7 6.2 435.3-67.5 30.7-28.4 45.7-54.7 92.6-54.7 63.1 0 83.7 163.5 83.7 211z" /></svg>