<svg height="1000" width="750.0" xmlns="http://www.w3.org/2000/svg"><path d="m291 125q0 58.6-21.5 111.3l-66.4-66.4q5.9-21.5 5.9-44.9h82z m-291 52.7l52.7-52.7 697.3 697.3-52.7 52.7-119.2-119.1q-37.1 54.6-37.1 119.1h-82q0-99.6 60.5-177.7l-60.5-58.6q-84 101.5-84 236.3h-84q0-168 109.4-296.9l-103.5-103.5q-128.9 109.4-296.9 109.4v-84q132.8 0 238.3-84l-60.6-60.5q-78.1 60.5-177.7 60.5v-82q64.5 0 119.1-37.1z m459-52.7q0 125-66.4 234.4l-60.6-60.6q43-82 43-173.8h84z m246.1 546.9l-66.4-66.4q54.7-21.5 111.3-21.5v82q-23.4 0-44.9 5.9z m-189.5-189.5q109.4-66.4 234.4-66.4v84q-91.8 0-173.8 43z" /></svg>