<svg height="1000" width="1000.0" xmlns="http://www.w3.org/2000/svg"><path d="m416.7 125h-83.4c0 15.2-1.8 30-5 44.4l66.5 66.4c14-34.3 21.9-71.6 21.9-110.8z m-291.7 53.1l118.3 118.4c-33.7 23.1-74.3 36.8-118.3 36.8v83.4c67.1 0 128.5-23 177.7-60.9l59.4 59.4c-64.4 52.9-147.1 84.8-237.1 84.8v83.3c113.1 0 216.5-41 296.3-108.9l104.3 104.4c-67.9 79.7-108.9 183.1-108.9 296.2h83.3c0-90 31.9-172.7 84.8-237.3l59.4 59.4c-37.9 49.4-60.9 110.8-60.9 177.9h83.4c0-44 13.7-84.6 37.1-118.3l118.3 118.3 52.9-53.1-696.9-696.9-53.1 53.1z m458.3-53.1h-83.3c0 62.5-15.6 121.5-42.7 173.3l61 61.1c41.1-68.8 65-148.6 65-234.4z m247.3 546.7c14.4-3.2 29.2-5 44.4-5v-83.4c-39.2 0-76.5 8-110.6 21.9l66.2 66.5z m-190-190l61.1 61c51.8-27.1 110.8-42.7 173.3-42.7v-83.3c-85.8 0-165.6 23.9-234.4 65z" /></svg>