<svg height="1000" width="857.1" xmlns="http://www.w3.org/2000/svg"><path d="m785.2 460.9c0-26.2-5.1-94.8-14-117.1-10.6-26.8-16.7-41.9-16.7-72 0-25.7 5.5-50.8 5.5-75.9 0-10.6-0.5-21.8-5.5-30.7-2.3-0.6-5.1-0.6-7.3-0.6-21.8 0-43.5 5-65.3 5-66.4 0-129.4-26.7-195.9-26.7-51.8 0-102.1 19.5-150.1 38.5-37.9 15-79.8 32.9-112.7 57.4-112.7 85.4-151.8 241.7-151.8 376.2 0 45.2 14 89.2 14 134.4 0 25.7-12.3 49.1-12.3 73.7 0 15.6 8.9 28.5 25.7 28.5 27.3 0 53.5-12.3 81.4-12.3 63.7 0 125.6 17.3 189.2 17.3 49.7 0 112.2-3.9 158.5-20.1 146.8-51.9 257.3-221.5 257.3-375.6z m71.4-1.1c0 185.8-128.9 381.7-305.3 444.2-55.2 19.5-123.8 24.6-181.9 24.6-63.6 0-126.1-16.2-189.2-16.2-26.7 0-53.5 16.2-81.4 16.2-55.3 0-97.1-49.7-97.1-102.7 0-26.2 12.3-49.7 12.3-75.3 0-45.2-14-89.3-14-135.1 0-158.5 48.5-333.7 180.2-433.6 38-29 85.4-49.6 129.5-66.9 56.9-22.9 114.4-43.6 176.3-43.6 66.5 0 129.5 26.8 194.8 26.8 21.2 0 42.4-5.6 64.2-5.6 63.6 0 86.5 45.2 86.5 103.3 0 25.1-5.6 50.8-5.6 75.9 0 20.1 5 27.9 11.7 45.7 12.8 32.4 19 106.6 19 142.3z" /></svg>