<svg height="1000" width="834.0" xmlns="http://www.w3.org/2000/svg"><path d="m709 791v-236.3q0-60.6-43-103.5t-103.5-43q-29.3 0-58.6 16.6t-44.9 42v-50.8h-125v375h125v-220.7q0-25.4 17.6-43.9t43.9-18.6 44.9 18.6 18.6 43.9v220.7h125z m-521.5-445.3q31.3 0 53.7-21.5t22.5-52.7-22.5-53.7-53.7-22.5-53.7 22.5-22.5 53.7 22.5 52.7 53.7 21.5z m62.5 445.3v-375h-125v375h125z m500-707q35.2 0 59.6 24.4t24.4 57.6v668q0 33.2-24.4 57.6t-59.6 24.4h-666q-35.2 0-59.6-24.4t-24.4-57.6v-668q0-33.2 24.4-57.6t59.6-24.4h666z" /></svg>