<svg height="1000" width="857.1" xmlns="http://www.w3.org/2000/svg"><path d="m370 229.4v0c-11.2 1.1-7.3 11.1-13.4 11.1-5.6 0.6-4.5-12.3 13.4-11.1z m48.5 7.8c-5.6 1.6-6.1-9-16.2-6.2v0c16.2-7.2 21.8 3.9 16.2 6.2z m-195.8 238.2c-5.1-1.6-3.9 8.4-9 16.2-3.9 7.3-13.9 12.9-6.1 14v0c2.8 0.5 10.6-6.2 13.9-14 2.8-9.5 5.6-14.5 1.2-16.2z m477.1 200.4c0-10.1-21.8-19.5-30.7-23.5 15.1-50.2 8.4-70.3-1.7-117.7-7.8-35.7-40.7-84.3-66.4-99.3 6.7 5.5 19 21.7 31.8 46.3 22.3 41.8 44.7 103.8 30.1 155.1-5.5 20.1-18.9 22.9-27.9 23.5-39 4.4-16.1-46.9-32.3-116.7-18.4-78.1-37.4-83.7-41.9-89.8-22.9-101.6-48-91.5-55.2-129.5-6.2-34 29.6-61.9-19-71.4-15.1-2.8-36.3-17.9-44.6-19s-12.9-56.3 18.4-58c30.7-2.3 36.3 34.6 30.7 49.1-9 14.5 0.5 20.1 15.6 15.1 12.3-4 4.5-36.3 7.3-40.8-7.9-46.9-27.4-53.6-47.5-57.5-77 6.2-42.4 91-50.2 83.2-11.2-11.7-43.5-1.1-43.5-8.4 0.5-43.5-14-68.6-34.1-69.2-22.3-0.5-31.2 30.7-32.3 48.6-1.7 16.7 9.4 51.9 17.8 49.1 5.6-1.7 15.1-12.9 5-12.3-5 0-12.8-12.3-13.9-26.8-0.6-14.5 5-29 24-28.4 21.7 0.5 21.7 44 19.5 45.7-7.2 5-16.2 14.5-17.3 16.2-7.2 11.7-21.2 15.1-26.8 20.1-9.5 10-11.7 21.2-4.4 25.1 25.6 14.5 17.3 31.2 53 32.4 23.4 1.1 40.7-3.4 56.9-8.4 12.3-3.9 51.9-12.3 60.3-26.8 3.9-6.1 8.3-6.1 11.1-4.5 5.6 2.8 6.7 13.4-7.2 16.8-19.6 5.6-39.1 16.2-56.9 22.9-17.3 7.2-22.9 10-39.1 12.8-36.8 6.7-64.2-13.4-39.6 10.6 8.3 7.8 16.2 12.8 37.4 12.3 46.8-1.7 98.7-58.1 103.8-32.9 1.1 5.5-14.6 12.2-26.8 18.4-43.6 21.2-74.2 63.6-102.2 49.1-25.1-13.4-50.2-75.4-49.6-47.5 0.5 43-56.4 81-30.1 130.1-17.3 4.4-55.9 86.5-61.4 128.9-3.4 24.5 2.2 54.7-3.9 71.4-8.4 24.6-46.4-23.4-34.1-82 2.3-10.1 0-12.3-2.8-7.3-15 27.4-6.7 65.9 5.6 92.6 5 11.8 17.9 16.8 27.4 26.8 19.5 22.4 96.5 79.3 109.9 93.2 17.3 16.2 12.3 54.2-23.5 58.1v0c18.5 34.6 36.3 37.9 35.8 94.3 21.2-11.2 12.8-35.7 3.9-51.4-6.2-11.1-14-16.2-12.3-18.9 1.1-1.7 12.3-11.2 18.4-3.9 19 21.2 54.7 25.1 92.6 20 38.5-4.4 79.8-17.8 98.8-48.5 8.9-14.5 15.1-19.5 19-16.7 4.5 2.2 6.1 12.2 5.6 29-0.6 17.8-7.8 36.2-12.9 51.3-5 17.3-6.7 29 10.1 29.6 4.4-31.3 13.4-62 15.6-93.2 2.8-35.7-22.9-101.6 5-134.5 7.3-8.9 16.2-10 28.5-10 1.7-44.7 70.3-41.3 93.2-22.9z m-350.5-461.5c2.3-14-4.4-24-7.8-25.1-6.7-1.7-5.6 8.3-2.2 7.2v0c2.2 0 5 3.4 3.9 8.4-1.1 6.7-0.6 11.2 4.5 11.2 0.5 0 1.6 0 1.6-1.7z m233.8 109.9c-2.2-10.6-10-6.7-18.9-12.3-10.6-6.7-12.9-17.8-16.8-13.9v0c-11.7 12.8 14.5 39.6 25.7 41.8 6.7 1.2 11.7-7.8 10-15.6z m-99.3-118.8c0.6-13.4-11.1-20.1-13.9-19.6-7.3 0.6-5.1 3.9-1.7 5v0c4.5 1.2 8.9 9 10 17.3 0 1.2 5.6-1.1 5.6-2.7z m30.2-130.1c0.5-2.8-6.7-6.1-11.8-10-4.4-4.5-8.9-8.4-13.4-8.4-11.1 1.1-5.5 12.9-7.2 18.4v0c-2.2 6.2-10.6 11.2-5 15.7 5 3.9 8.3-6.2 18.9-10.1 2.8-1.1 15.7 0.6 18.5-5.6z m315.2 748.4c68.7 42.4-25.6 77.5-66.4 98.2-31.8 16.2-74.2 51.9-89.8 66.9-11.7 11.2-60.3 16.8-87.6 2.8-31.8-16.2-15.1-41.8-64.2-43.5-24.5-0.6-48.5-0.6-72.5-0.6-21.2 0.6-42.4 1.7-64.2 2.3-73.7 1.7-80.9 49.1-128.4 47.4-32.3-1.1-73.1-26.8-143.4-41.3-49.1-10-96.5-12.8-106.6-34.6s12.3-46.3 14-67.5c1.7-28.5-21.2-67-4.5-81.5 14.5-12.8 45.2-3.3 65.3-14.5 21.2-12.3 30.1-21.8 30.1-48 7.9 26.8-0.5 48.6-17.8 59.2-10.6 6.7-30.1 10-46.3 8.3-12.9-1.1-20.7 0.6-24 5.6-5 6.2-3.4 17.3 2.8 31.8s13.4 24 12.2 41.9c-0.5 17.8-20.6 39-17.3 54.1 1.2 5.6 6.7 10.6 20.7 14.5 22.3 6.2 63.1 12.3 102.7 21.8 44.1 11.1 89.8 31.2 118.3 27.3 84.8-11.7 36.2-102.6 22.9-124.4v0c-72-112.7-119.5-186.4-157.4-157.4-9.5 7.8-10.1-19-9.5-29.6 1.7-36.8 20.1-50.2 31.3-78.6 21.2-54.2 37.3-116.1 69.7-147.9 24-31.3 62-82 69.2-108.8-6.1-58.1-7.8-119.5-8.9-173-1.1-57.5 7.8-107.7 72.5-142.9 15.6-8.4 36.3-11.7 58.1-11.7 38.5-0.6 81.4 10.6 108.8 30.7 43.5 32.4 70.8 101 67.5 150.1-2.2 38.5 4.5 78.1 16.7 119.4 14.5 48.6 37.4 82.6 74.3 121.7 44 46.8 78.6 138.9 88.7 197.5 8.9 54.7-3.4 88.7-15.1 90.4-17.8 2.8-29 59.2-84.8 56.9-35.7-1.6-39.1-22.8-49.1-41.3-16.2-28.4-32.4-19.5-38.5 10.6-3.4 15.1-1.1 37.4 3.9 54.2 10 35.1 6.7 68.1 0.5 108.8-11.7 77 54.2 91.5 98.3 54.7 43.5-36.3 53-41.9 107.7-60.8 83.1-28.5 55.2-53.6 10.6-68.7-40.2-13.4-41.9-80.9-27.4-93.7 3.4 72.5 41.3 83.1 56.9 93.2z" /></svg>