<svg height="1000" width="1000.0" xmlns="http://www.w3.org/2000/svg"><path d="m214.3 785.7c0 59.2-48 107.2-107.2 107.2s-107.1-48-107.1-107.2 48-107.1 107.1-107.1 107.2 48 107.2 107.1z m0-285.7c0 59.2-48 107.1-107.2 107.1s-107.1-47.9-107.1-107.1 48-107.1 107.1-107.1 107.2 47.9 107.2 107.1z m785.7 232.1v107.2c0 9.5-8.4 17.8-17.9 17.8h-678.5c-9.5 0-17.9-8.3-17.9-17.8v-107.2c0-9.4 8.4-17.8 17.9-17.8h678.5c9.5 0 17.9 8.4 17.9 17.8z m-785.7-517.8c0 59.1-48 107.1-107.2 107.1s-107.1-48-107.1-107.1 48-107.2 107.1-107.2 107.2 48 107.2 107.2z m785.7 232.1v107.2c0 9.5-8.4 17.8-17.9 17.8h-678.5c-9.5 0-17.9-8.3-17.9-17.8v-107.2c0-9.5 8.4-17.8 17.9-17.8h678.5c9.5 0 17.9 8.3 17.9 17.8z m0-285.7v107.2c0 9.4-8.4 17.8-17.9 17.8h-678.5c-9.5 0-17.9-8.4-17.9-17.8v-107.2c0-9.5 8.4-17.8 17.9-17.8h678.5c9.5 0 17.9 8.3 17.9 17.8z" /></svg>