<svg height="1000" width="1000.0" xmlns="http://www.w3.org/2000/svg"><path d="m212.6 904c0 61.4-48 96-106 96-35.2 0-70.9-11.7-96-36.8l31.8-49.1c15.1 13.9 38 25.1 59.2 25.1 19.5 0 40.1-9.5 40.1-31.8 0-31.3-35.7-33-58.6-31.3l-14.5-31.2c20.1-25.7 38.5-54.2 62.5-75.9v-0.6c-17.8 0-36.2 1.1-54.1 1.1v29.6h-59.1v-84.8h185.8v49.1l-53 64.2c37.4 8.9 61.9 37.9 61.9 76.4z m1.1-349.9v88.8h-202c-1.7-10.1-3.3-20.1-3.3-30.2 0-103.2 126.1-118.8 126.1-165.7 0-19-11.7-29-30.1-29-19.6 0-35.8 16.7-45.2 32.3l-47.5-32.9c18.4-38.5 56.4-60.3 98.8-60.3 51.9 0 96.5 30.7 96.5 86 0 82.6-121.1 101-122.7 144.5h70.8v-33.5h58.6z m786.3 178v107.2c0 9.5-8.4 17.8-17.9 17.8h-678.5c-10.1 0-17.9-8.3-17.9-17.8v-107.2c0-10 7.8-17.8 17.9-17.8h678.5c9.5 0 17.9 7.8 17.9 17.8z m-785.7-501.6v55.2h-187v-55.2h59.8c0-45.2 0.5-90.4 0.5-135.6v-6.7h-1.1c-6.1 12.2-17.3 20.6-27.9 30.1l-39.6-42.4 75.9-70.9h59.1v225.5h60.3z m785.7 215.9v107.2c0 9.5-8.4 17.8-17.9 17.8h-678.5c-10.1 0-17.9-8.3-17.9-17.8v-107.2c0-10 7.8-17.8 17.9-17.8h678.5c9.5 0 17.9 7.8 17.9 17.8z m0-285.7v107.2c0 9.4-8.4 17.8-17.9 17.8h-678.5c-10.1 0-17.9-8.4-17.9-17.8v-107.2c0-9.5 7.8-17.8 17.9-17.8h678.5c9.5 0 17.9 8.3 17.9 17.8z" /></svg>