<svg height="1000" width="1000.0" xmlns="http://www.w3.org/2000/svg"><path d="m791.7 83.3h-583.4c-46 0-83.3 37.3-83.3 83.4v583.3c0 46 37.3 83.3 83.3 83.3h166.7l125 125 125-125h166.7c46 0 83.3-37.3 83.3-83.3v-583.3c0-46.1-37.3-83.4-83.3-83.4z m-250 666.7h-83.4v-83.3h83.4v83.3z m86-322.7l-37.3 38.3c-30 30-48.7 55.2-48.7 117.7h-83.4v-20.8c0-46 18.8-87.7 48.8-117.9l51.9-52.5c15-15 24.3-35.8 24.3-58.8 0-46-37.3-83.3-83.3-83.3s-83.3 37.3-83.3 83.3h-83.4c0-92 74.6-166.6 166.7-166.6s166.7 74.5 166.7 166.6c0 36.7-14.8 69.8-39 94z" /></svg>