<svg height="1000" width="834.0" xmlns="http://www.w3.org/2000/svg"><path d="m250 750q35.2 0 59.6 24.4t24.4 58.6-24.4 58.6-59.6 24.4-58.6-24.4-23.4-58.6 23.4-58.6 58.6-24.4z m-250-666h136.7l39.1 82h615.2q17.6 0 30.3 12.7t12.7 30.3q0 9.8-5.9 19.5l-148.4 269.5q-23.4 43-74.2 43h-310.6l-37.1 68.4v5.8q0 9.8 9.8 9.8h482.4v84h-500q-35.2 0-59.6-24.4t-24.4-59.6q0-21.5 11.7-39.1l54.7-103.5-148.4-316.4h-84v-82z m667 666q34.2 0 58.6 24.4t24.4 58.6-24.4 58.6-58.6 24.4-58.6-24.4-24.4-58.6 24.4-58.6 58.6-24.4z" /></svg>