<svg height="1000" width="1000.0" xmlns="http://www.w3.org/2000/svg"><path d="m823.8 301.3l0.6-0.7-155.2-154.8-44.2 44.2 87.9 87.9c-39.1 15-67.1 52.7-67.1 97.1 0 57.5 46.7 104.2 104.2 104.2 14.8 0 29-3.2 41.7-8.8v300.4c0 23-18.8 41.7-41.7 41.7s-41.7-18.7-41.7-41.7v-187.5c0-46-37.3-83.3-83.3-83.3h-41.7v-291.7c0-46-37.3-83.3-83.3-83.3h-250c-46 0-83.3 37.3-83.3 83.3v666.7h416.6v-312.5h62.5v208.3c0 57.5 46.7 104.2 104.2 104.2s104.2-46.7 104.2-104.2v-395.8c0-28.7-11.7-54.8-30.4-73.7z m-323.8 115.4h-250v-208.4h250v208.4z m250 0c-22.9 0-41.7-18.8-41.7-41.7s18.8-41.7 41.7-41.7 41.7 18.8 41.7 41.7-18.8 41.7-41.7 41.7z" /></svg>