<svg height="1000" width="750.0" xmlns="http://www.w3.org/2000/svg"><path d="m375 916q0-154.3 109.4-264.6t265.6-110.4q0 156.3-109.4 265.6t-265.6 109.4z m-267.6-488.3q0-66.4 60.6-93.7-60.6-29.3-60.6-93.8 0-42.9 31.3-74.2t74.2-31.2q33.2 0 58.6 19.5v-7.8q0-43 30.3-74.2t73.2-31.3 73.2 31.3 30.3 74.2v7.8q27.4-19.5 58.6-19.5 43 0 74.2 31.2t31.3 74.2q0 64.5-60.6 93.8 60.6 27.3 60.6 93.7 0 43-31.3 73.3t-74.2 30.3q-33.2 0-58.6-17.6v7.8q0 43-30.3 73.2t-73.2 30.3-73.2-30.3-30.3-73.2v-7.8q-27.4 17.6-58.6 17.6-43 0-74.2-30.3t-31.3-73.3z m267.6-199.2q-43 0-73.2 31.3t-30.3 74.2 30.3 73.2 73.2 30.3 73.2-30.3 30.3-73.2-30.3-74.2-73.2-31.3z m-375 312.5q156.3 0 265.6 110.4t109.4 264.6q-156.2 0-265.6-109.4t-109.4-265.6z" /></svg>