<svg height="1000" width="1000.0" xmlns="http://www.w3.org/2000/svg"><path d="m500 916.7c207.1 0 375-167.9 375-375-207.1 0-375 167.9-375 375z m-266.5-489.6c0 57.5 46.7 104.2 104.2 104.2 21.9 0 42.3-6.9 59-18.4l-0.9 7.9c0 57.5 46.7 104.2 104.2 104.2s104.2-46.7 104.2-104.2l-0.9-7.9c16.9 11.7 37.1 18.4 59 18.4 57.5 0 104.2-46.7 104.2-104.2 0-41.5-24.4-77.1-59.6-93.8 35-16.6 59.6-52.3 59.6-93.7 0-57.5-46.7-104.2-104.2-104.2-21.9 0-42.3 6.9-59 18.3l0.9-7.9c0-57.5-46.7-104.1-104.2-104.1s-104.2 46.6-104.2 104.1l0.9 7.9c-16.9-11.6-37.1-18.3-59-18.3-57.5 0-104.2 46.7-104.2 104.2 0 41.4 24.4 77.1 59.6 93.7-35.2 16.7-59.6 52.3-59.6 93.8z m266.5-197.9c57.5 0 104.2 46.6 104.2 104.1s-46.7 104.2-104.2 104.2-104.2-46.7-104.2-104.2 46.7-104.1 104.2-104.1z m-375 312.5c0 207 167.9 375 375 375 0-207.1-167.9-375-375-375z" /></svg>