<svg height="1000" width="1000.0" xmlns="http://www.w3.org/2000/svg"><path d="m291.7 750c-46.1 0-82.9 37.3-82.9 83.3s36.8 83.4 82.9 83.4 83.3-37.3 83.3-83.4-37.3-83.3-83.3-83.3z m-250-666.7v83.4h83.3l149.8 316-56.3 102.1c-6.4 12.1-10.2 25.6-10.2 40.2 0 46 37.3 83.3 83.4 83.3h500v-83.3h-482.3c-5.9 0-10.4-4.6-10.4-10.4 0-1.9 0.4-3.6 1.2-5l37.3-67.9h310.4c31.3 0 58.6-17.3 72.9-43l149-270.4c3.3-5.8 5.2-12.7 5.2-20 0-23.1-18.7-41.6-41.7-41.6h-616l-39.6-83.4h-136z m666.6 666.7c-46 0-82.9 37.3-82.9 83.3s36.9 83.4 82.9 83.4 83.4-37.3 83.4-83.4-37.3-83.3-83.4-83.3z" /></svg>