<svg height="1000" width="750.0" xmlns="http://www.w3.org/2000/svg"><path d="m583 209q-26.4 0-43.9-18.6t-17.6-43.9q0-19.5 15.6-47.9t31.3-45.9l15.6-19.5q62.5 70.3 62.5 113.3 0 25.4-18.6 43.9t-44.9 18.6z m-208 0q-25.4 0-43.9-18.6t-18.6-43.9q0-19.5 15.6-47.9t31.3-45.9l15.6-19.5q62.5 70.3 62.5 113.3 0 25.4-18.6 43.9t-43.9 18.6z m-208 0q-26.4 0-44.9-18.6t-18.6-43.9q0-19.5 15.6-47.9t31.3-45.9l15.6-19.5q62.5 70.3 62.5 113.3 0 25.4-17.6 43.9t-43.9 18.6z m497.1 125l85.9 250v332q0 17.6-12.7 30.3t-28.3 12.7h-43q-15.6 0-28.3-12.7t-12.7-30.3v-41h-500v41q0 17.6-12.7 30.3t-28.3 12.7h-43q-15.6 0-28.3-12.7t-12.7-30.3v-332l85.9-250q15.7-43 60.6-43h457q44.9 0 60.6 43z m-518.6 416q26.4 0 44.9-18.6t18.6-43.9-18.6-43.9-44.9-18.6-43.9 18.6-17.6 43.9 17.6 43.9 43.9 18.6z m459 0q26.4 0 43.9-18.6t17.6-43.9-17.6-43.9-43.9-18.6-44.9 18.6-18.6 43.9 18.6 43.9 44.9 18.6z m-520.5-209h582l-62.5-187.5h-457z" /></svg>