<svg height="1000" width="1000.0" xmlns="http://www.w3.org/2000/svg"><path d="m382.1 701.3c65 65 170.6 65 235.6 0s65-170.7 0-235.7l-235.6 235.7z m367.9-617.6l-500-0.4c-46 0-83.3 37.3-83.3 83.4v666.6c0 46.1 37.3 83.4 83.3 83.4h500c46 0 83.3-37.3 83.3-83.4v-666.6c0-46.1-37.3-83-83.3-83z m-333.3 83c22.9 0 41.6 18.7 41.6 41.6s-18.7 41.7-41.6 41.7-41.7-18.7-41.7-41.7 18.8-41.6 41.7-41.6z m-125 0c22.9 0 41.6 18.7 41.6 41.6s-18.7 41.7-41.6 41.7-41.7-18.7-41.7-41.7 18.8-41.6 41.7-41.6z m208.3 666.6c-138.1 0-250-111.8-250-250s111.9-250 250-250 250 111.9 250 250-111.9 250-250 250z" /></svg>