<svg height="1000" width="750.0" xmlns="http://www.w3.org/2000/svg"><path d="m664.1 250l85.9 250v334q0 15.6-12.7 28.3t-28.3 12.7h-43q-15.6 0-28.3-12.7t-12.7-28.3v-43h-500v43q0 15.6-12.7 28.3t-28.3 12.7h-43q-15.6 0-28.3-12.7t-12.7-28.3v-334l85.9-250q15.7-41 60.6-41h103.5v-84h250v84h103.5q44.9 0 60.6 41z m-518.6 416q26.4 0 44.9-17.6t18.6-43.9-18.6-44.9-44.9-18.6-43.9 18.6-17.6 44.9 17.6 43.9 43.9 17.6z m459 0q26.4 0 43.9-17.6t17.6-43.9-17.6-44.9-43.9-18.6-44.9 18.6-18.6 44.9 18.6 43.9 44.9 17.6z m-520.5-207h582l-62.5-187.5h-457z" /></svg>