<svg height="1000" width="687.5" xmlns="http://www.w3.org/2000/svg"><path d="m656.3 300.8q31.2 31.2 31.2 74.2v396.5q0 43-30.3 73.2t-73.2 30.3-74.2-30.3-31.3-73.2v-209h-62.5v312.5h-416v-666q0-35.2 24.4-59.6t59.6-24.4h250q33.2 0 57.6 24.4t24.4 59.6v291h43q33.2 0 57.6 24.4t24.4 59.6v187.5q0 15.6 12.7 28.3t29.3 12.7 29.3-12.7 12.7-28.3v-300.8q-21.5 7.8-41 7.8-43 0-74.2-30.3t-31.3-73.2q0-33.2 18.6-59.6t49.8-38.1l-87.9-87.8 43-43 156.2 154.3h-1.9z m-322.3 115.2v-207h-250v207h250z m249 0q16.6 0 29.3-11.7t12.7-29.3-12.7-29.3-29.3-11.7-29.3 11.7-12.7 29.3 12.7 29.3 29.3 11.7z" /></svg>