<svg height="1000" width="666.0" xmlns="http://www.w3.org/2000/svg"><path d="m214.8 701.2l236.4-236.4q48.8 48.9 48.8 118.2t-48.8 118.2-118.2 48.8-118.2-48.8z m369.2-617.2q33.2 0 57.6 24.4t24.4 57.6v668q0 33.2-24.4 57.6t-57.6 24.4h-500q-35.2 0-59.6-24.4t-24.4-57.6v-668q0-33.2 24.4-57.6t59.6-24.4h500z m-334 82q-17.6 0-29.3 12.7t-11.7 29.3 11.7 29.3 29.3 12.7 29.3-12.7 11.7-29.3-11.7-29.3-29.3-12.7z m-125 0q-17.6 0-29.3 12.7t-11.7 29.3 11.7 29.3 29.3 12.7 29.3-12.7 11.7-29.3-11.7-29.3-29.3-12.7z m209 668q103.5 0 176.7-73.3t73.3-176.7-73.3-176.8-176.7-73.2-176.8 73.2-73.2 176.8 73.2 176.7 176.8 73.3z" /></svg>