<svg height="1000" width="666.0" xmlns="http://www.w3.org/2000/svg"><path d="m584 334q33.2 0 57.6 24.4t24.4 57.6v418q0 33.2-24.4 57.6t-57.6 24.4h-500q-35.2 0-59.6-24.4t-24.4-57.6v-418q0-33.2 24.4-57.6t59.6-24.4h41v-84q0-85.9 61.5-147.5t147.5-61.5 146.5 61.5 60.5 147.5v84h43z m-251-212.9q-53.7 0-90.8 38.1t-37.1 90.8h3.9v84h253.9v-84q0-52.7-38.1-90.8t-91.8-38.1z m251 712.9v-418h-500v418h500z m-251-125q-34.2 0-58.6-24.4t-24.4-59.6 24.4-59.6 58.6-24.4 58.6 24.4 24.4 59.6-24.4 59.6-58.6 24.4z" /></svg>