<svg height="1000" width="1000.0" xmlns="http://www.w3.org/2000/svg"><path d="m750 333.3h-41.7v-83.3c0-115-93.3-208.3-208.3-208.3s-208.3 93.3-208.3 208.3v83.3h-41.7c-46 0-83.3 37.3-83.3 83.4v416.6c0 46.1 37.3 83.4 83.3 83.4h500c46 0 83.3-37.3 83.3-83.4v-416.6c0-46.1-37.3-83.4-83.3-83.4z m-250-212.5c71.3 0 129.2 57.9 129.2 129.2v83.3h-254.2v-83.3h-4.2c0-71.3 58-129.2 129.2-129.2z m250 712.5h-500v-416.6h500v416.6z m-250-125c46 0 83.3-37.3 83.3-83.3s-37.3-83.3-83.3-83.3-83.3 37.3-83.3 83.3 37.3 83.3 83.3 83.3z" /></svg>