<svg height="1000" width="1000.0" xmlns="http://www.w3.org/2000/svg"><path d="m186.9 756.7c-1.1 0-2.2-0.6-3.3-1.1-65.3-43.5-130.6-115-171.9-181.4-7.8-11.1-11.7-24.5-11.7-38.5 0-29 20.1-52.4 36.3-74.2 64.7-88.2 151.2-160.7 252.2-203.7-8.4-15.1-61.4-107.7-61.4-117.7 0-6.7 3.9-12.9 9.5-16.2 11.2-6.2 61.4-35.7 71.4-35.7 6.2 0 12.3 3.3 15.7 8.9l69.2 127.8c35.1-7.3 71.4-10.6 107.1-10.6 202 0 381.7 114.4 488.8 282.9 7.3 11.2 11.2 24.6 11.2 38.5s-3.9 27.4-11.2 38.5c-66.4 104.4-163.5 190.9-277.3 239.4 8.4 15.1 61.4 107.7 61.4 117.8 0 6.7-3.4 12.8-9.5 16.1-11.2 6.2-61.4 35.8-70.9 35.8-6.7 0-12.8-3.4-16.2-9l-69.2-127.8-35.7-66.4-247.7-457.6 3.9-3.9c-19 7.9-37.4 16.2-55.3 26.3 6.7 12.8 272.9 501.6 272.9 505.5 0 2.8-2.2 4.5-5 5.1-12.3 2.8-27.9 1.6-40.2 1.6-6.1 0-31.2 1.2-33.5-3.9l-254.4-469.3c-16.2 11.7-31.3 24.6-45.8 38 12.3 21.7 225.4 414 225.4 417.4 0 4.4-2.7 5.6-6.1 5.6-9.5 0-83.7-22.9-86.5-27.9l-59.1-110-125-230.4c-15.7 18.9-30.2 38.5-43.6 59.1 7.3 10.6 16.8 21.8 22.9 32.9 7.8 14.5 98.2 179.2 98.2 182.5 0 2.8-2.8 5.6-5.6 5.6z m463.2-56.9l27.4 50.8c104.3-42.5 190.2-120.6 251.1-214.9-62-95.4-150.1-174.7-256.2-217.1 49.7 47.5 77.6 112.8 77.6 181.4 0 78.7-36.8 152.9-99.9 199.8z m-176.9-342.7c0 14.6 12.3 26.8 26.8 26.8 30.7 0 60.3 12.3 82 34.1s34.1 51.3 34.1 82c0 14.5 12.2 26.8 26.8 26.8s26.7-12.3 26.7-26.8c0-93.7-75.8-169.6-169.6-169.6-14.5 0-26.8 12.2-26.8 26.7z m204.3-36.2l-5.1-2.3 3.9 3.9z" /></svg>