<svg height="1000" width="857.1" xmlns="http://www.w3.org/2000/svg"><path d="m857.1 464.3v71.4c0 227.7-180.2 392.9-428.5 392.9s-428.6-165.2-428.6-392.9v-71.4c0-19.5 16.2-35.7 35.7-35.7h214.3c19.5 0 35.7 16.2 35.7 35.7v71.4c0 102.1 118.9 107.2 142.9 107.2s142.8-5.1 142.8-107.2v-71.4c0-19.5 16.2-35.7 35.7-35.7h214.3c19.6 0 35.7 16.2 35.7 35.7z m-571.4-357.2v214.3c0 19.6-16.2 35.7-35.7 35.7h-214.3c-19.5 0-35.7-16.1-35.7-35.7v-214.3c0-19.5 16.2-35.7 35.7-35.7h214.3c19.5 0 35.7 16.2 35.7 35.7z m571.4 0v214.3c0 19.6-16.1 35.7-35.7 35.7h-214.3c-19.5 0-35.7-16.1-35.7-35.7v-214.3c0-19.5 16.2-35.7 35.7-35.7h214.3c19.6 0 35.7 16.2 35.7 35.7z" /></svg>