<svg height="1000" width="571.4" xmlns="http://www.w3.org/2000/svg"><path d="m571.4 392.9v232.1c0 29.6-24 53.6-53.5 53.6s-53.6-24-53.6-53.6v-196.4h-35.7v508.9c0 34.6-27.9 62.5-62.5 62.5s-62.5-27.9-62.5-62.5v-258.9h-35.7v258.9c0 34.6-27.9 62.5-62.5 62.5s-62.5-27.9-62.5-62.5v-508.9h-35.8v196.4c0 29.6-24 53.6-53.5 53.6s-53.6-24-53.6-53.6v-232.1c0-59.2 48-107.2 107.1-107.2h357.2c59.1 0 107.1 48 107.1 107.2z m-160.7-250c0 69.2-55.8 125-125 125s-125-55.8-125-125 55.8-125 125-125 125 55.8 125 125z" /></svg>