<svg height="1000" width="1142.9" xmlns="http://www.w3.org/2000/svg"><path d="m1127.2 6.1c9.5 6.7 15.7 17.9 15.7 29.6v785.7c0 14.5-9 27.9-22.4 33l-357.1 142.8c-8.9 3.9-17.9 3.9-26.8 0l-343.7-137.3-343.8 137.3c-4.5 2.2-8.9 2.8-13.4 2.8-7.2 0-13.9-2.2-20.1-6.1-9.5-6.7-15.6-17.9-15.6-29.6v-785.7c0-14.5 8.9-27.9 22.3-33l357.2-142.8c8.9-3.9 17.8-3.9 26.7 0l343.8 137.3 343.8-137.3c11.1-4.5 23.4-3.4 33.4 3.3z m-716.5 75.4v708.7l321.4 128.3v-708.7z m-339.3 121.1v708.7l303.6-121.1v-708.7z m1000 594.8v-708.7l-303.5 121.1v708.7z" /></svg>