<svg height="1000" width="571.4" xmlns="http://www.w3.org/2000/svg"><path d="m285.7 607.1c24.6 0 48.6-2.7 71.4-8.3v365.5c0 19.5-16.1 35.7-35.7 35.7h-71.4c-19.5 0-35.7-16.2-35.7-35.7v-365.5c22.9 5.6 46.9 8.3 71.4 8.3z m0-607.1c157.9 0 285.7 127.8 285.7 285.7s-127.8 285.7-285.7 285.7-285.7-127.8-285.7-285.7 127.8-285.7 285.7-285.7z m0 125c10.1 0 17.9-7.8 17.9-17.9s-7.8-17.8-17.9-17.8c-108.2 0-196.4 88.2-196.4 196.4 0 10.1 7.8 17.9 17.8 17.9s17.9-7.8 17.9-17.9c0-88.7 72-160.7 160.7-160.7z" /></svg>