<svg height="1000" width="1000.0" xmlns="http://www.w3.org/2000/svg"><path d="m285.7 0c9.5 0 17.9 8.4 17.9 17.9v821.4c0 6.7-3.9 12.8-9.5 15.6l-267.9 142.9c-2.8 1.6-5.6 2.2-8.3 2.2-9.5 0-17.9-8.4-17.9-17.9v-821.4c0-6.7 3.9-12.8 9.5-15.6l267.8-142.9c2.8-1.6 5.6-2.2 8.4-2.2z m696.4 0c9.5 0 17.9 8.4 17.9 17.9v821.4c0 6.7-3.9 12.8-9.5 15.6l-267.8 142.9c-2.8 1.6-5.6 2.2-8.4 2.2-9.5 0-17.9-8.4-17.9-17.9v-821.4c0-6.7 3.9-12.8 9.5-15.6l267.9-142.9c2.8-1.6 5.6-2.2 8.3-2.2z m-625 0c2.8 0 5.6 0.6 7.9 1.7l285.7 142.8c6.1 3.4 10 9.5 10 16.2v821.4c0 9.5-8.4 17.9-17.8 17.9-2.8 0-5.6-0.6-7.9-1.7l-285.7-142.8c-6.1-3.4-10-9.5-10-16.2v-821.4c0-9.5 8.4-17.9 17.8-17.9z" /></svg>