<svg height="1000" width="1142.9" xmlns="http://www.w3.org/2000/svg"><path d="m1132.3 474.9c13.9 13.9 13.9 36.3 0 50.2l-164.1 164.1c-6.7 7.2-18.4 7.2-25.1 0l-25.1-25.1c-7.3-6.7-7.3-18.5 0-25.1l103.2-103.3h-164.1v125c0 10.1-7.8 17.9-17.8 17.9h-35.7c-10.1 0-17.9-7.8-17.9-17.9v-125h-73.1c-17.8 180.3-170.2 321.4-355.5 321.4-203.6 0-367.7-170.2-356.5-376.6 9.4-184.2 163.5-333.2 347.6-337.6 189.2-4.5 346 137.8 364.4 321.4h73.1v-125c0-10.1 7.8-17.9 17.9-17.9h35.7c10 0 17.8 7.8 17.8 17.9v125h164.1l-103.2-103.3c-7.3-6.6-7.3-18.4 0-25.1l25.1-25.1c6.7-7.2 18.4-7.2 25.1 0z m-775.2 310.8c157.4 0 285.8-128.3 285.8-285.7s-128.4-285.7-285.8-285.7-285.7 128.3-285.7 285.7 128.4 285.7 285.7 285.7z" /></svg>