<svg height="1000" width="1142.9" xmlns="http://www.w3.org/2000/svg"><path d="m1060.8 510.6c14 14 14 36.3 0 50.2l-164 164.1c-6.7 7.2-18.5 7.2-25.1 0l-25.2-25.1c-7.2-6.7-7.2-18.4 0-25.1l103.3-103.3h-164.1v125c0 10.1-7.8 17.9-17.8 17.9h-35.8c-10 0-17.8-7.8-17.8-17.9v-125h-73.7c-17.8 160.7-154 285.7-319.2 285.7-189.7 0-340.9-164-319.2-358.2 16.8-150.7 141.2-271.2 293-283.5 176.9-13.9 327 115.5 345.4 284.6h73.7v-125c0-10 7.8-17.9 17.8-17.9h35.8c10 0 17.8 7.9 17.8 17.9v125h164.1l-103.3-103.2c-7.2-6.7-7.2-18.5 0-25.1l25.2-25.2c6.6-7.2 18.4-7.2 25.1 0z m-739.4 275.1c137.9 0 250-112.2 250-250s-112.1-250-250-250-250 112.2-250 250 112.2 250 250 250z" /></svg>