<svg height="1000" width="1071.4" xmlns="http://www.w3.org/2000/svg"><path d="m857.1 232.1c0-10 7.9-17.8 17.9-17.8h160.7c19.5 0 35.7 16.2 35.7 35.7v160.7c0 10.1-7.8 17.9-17.8 17.9h-35.7c-10.1 0-17.9-7.8-17.9-17.9v-74.8l-141.7 142.3c54.6 68.7 82 159.6 65.2 257.3-23.4 135.6-133.9 242.2-270 261.2-159.6 22.3-300.8-73.2-349.4-212.1-176.3-8.9-315.3-160.7-303.5-342.1 10-152.9 131.1-280.1 283.4-297.4 89.9-10.6 173.6 17.3 237.8 68.1l142.3-141.8h-74.8c-10.1 0-17.9-7.8-17.9-17.8v-35.7c0-10.1 7.8-17.9 17.9-17.9h160.7c19.5 0 35.7 16.2 35.7 35.7v160.7c0 10.1-7.8 17.9-17.8 17.9h-35.8c-10 0-17.8-7.8-17.8-17.9v-74.7l-141.8 142.3c22.4 27.9 39.7 59.7 51.9 94.3 69.2 3.3 132.3 29 183.1 69.2l142.3-141.8h-74.8c-10 0-17.9-7.8-17.9-17.8v-35.8z m-285.7 232.2c0-11.2-1.1-21.8-2.2-32.4-120 18.4-212.1 121.7-212.1 246.7 0 11.1 1.2 21.7 2.3 32.3 120-18.4 212-121.6 212-246.6z m-500 0c0 126.1 94.3 230.5 216 247.2-1.1-10.6-1.7-21.8-1.7-32.9 0-157.4 113.9-288.5 264-315.9-39.1-87.6-126.7-148.4-228.3-148.4-137.8 0-250 112.2-250 250z m535.7 464.3c137.9 0 250-112.2 250-250 0-126.1-94.3-230.5-215.9-247.2 1.1 10.6 1.7 21.7 1.7 32.9 0 157.4-113.9 288.5-264 315.8 39.1 87.6 126.7 148.5 228.2 148.5z" /></svg>