<svg height="1000" width="857.1" xmlns="http://www.w3.org/2000/svg"><path d="m821.4 71.4c19.6 0 35.7 16.2 35.7 35.7v232.2c0 10-7.8 17.8-17.8 17.8h-35.7c-10.1 0-17.9-7.8-17.9-17.8v-146.2l-118.8 119.4 78.1 78.1c6.7 7.3 6.7 18.4 0 25.1l-25.7 25.7c-6.7 6.7-17.8 6.7-25.1 0l-78.1-78.7-43.6 44.1c44.1 54.7 70.4 124.5 70.4 200.3 0 177.5-144 321.5-321.5 321.5s-321.4-144-321.4-321.5 144-321.4 321.4-321.4c75.9 0 145.7 26.2 200.4 70.3l43.5-43.5-96-96c-6.7-7.2-6.7-18.4 0-25.1l25.7-25.7c6.7-6.7 17.8-6.7 25.1 0l96 96 118.8-118.8h-145.6c-10.1 0-17.9-7.9-17.9-17.9v-35.7c0-10.1 7.8-17.9 17.9-17.9h232.1z m-500 785.7c137.9 0 250-112.1 250-250s-112.1-250-250-250-250 112.2-250 250 112.2 250 250 250z" /></svg>