<svg height="1000" width="1000.0" xmlns="http://www.w3.org/2000/svg"><path d="m964.3 0c19.5 0 35.7 16.2 35.7 35.7v232.2c0 10-7.8 17.8-17.9 17.8h-35.7c-10 0-17.8-7.8-17.8-17.8v-146.2l-127.8 128.3 87 87.1c6.7 7.2 6.7 18.4 0 25.1l-25.6 25.6c-6.7 6.7-17.9 6.7-25.1 0l-87.1-87.6-55.2 55.8c63.6 75.9 98.7 176.9 89.2 286.3-16.1 185.8-165.1 337.1-351 355.5-248.3 25.1-455.9-182.5-430.8-430.8 18.4-185.9 169.7-334.9 355.5-351 109.4-9.5 210.4 25.6 286.3 89.2l55.2-55.2-87-87.1c-6.7-7.2-6.7-18.4 0-25.1l25.6-25.6c6.7-6.7 17.9-6.7 25.1 0l87.1 87 127.8-127.8h-145.7c-10 0-17.8-7.8-17.8-17.8v-35.7c0-10.1 7.8-17.9 17.8-17.9h232.2z m-250 607.1c0-177.4-144-321.4-321.4-321.4s-321.5 144-321.5 321.4 144 321.5 321.5 321.5 321.4-144 321.4-321.5z" /></svg>