<svg height="1000" width="1000.0" xmlns="http://www.w3.org/2000/svg"><path d="m76.9 27.7c250.6 298.9 302.4 635.7 369 985 55.1 24.7 102.8 16.1 147.5-5.9-102.6-354.2-145.9-679.2-516.5-979.1z m737.2 102.4c-104.8 122.9-240.6 316.6-286.7 499.5 30.2 72.2 61.9 219.6 82.4 301 26.4-228.9 99.9-617.6 204.3-800.5z m185.9 243.9c-146.4 188.4-274.3 361.3-280.1 620.3 35.5 31.6 65.8 23.9 96.2 17.4-46.6-221.9 95.2-427.2 183.9-637.7z m-178.4 34c-55.1 77.8-103.8 157.2-124.5 244.2-35.6 125.4-54.8 234-56.4 362.4 12.2 11.3 28.7 11.2 46.3 7.9 3.6-81.3 8.1-159.8 36-254.8 23.7-122.4 48.1-245.8 98.6-359.7z m-709.6 5.8c78.8 103.4 129.2 214.1 174.2 330.4 48.7 63.7 85.1 120.8 117.6 182-18.5-85.6-29.5-169.4-67.7-259.7-57.7-77.5-93.1-167.3-224.1-252.7z m-112 159c119.6 141.7 260.6 237.5 257.5 416.4 35.5 24.1 82.2 22 133.3 9.8-78.4-245.1-224.3-324.6-390.8-426.2z" /></svg>