<svg height="1000" width="857.1" xmlns="http://www.w3.org/2000/svg"><path d="m731.6 469.9v63.6c0 17.8-10.6 29-28.5 29h-112.7c-17.9 0-29-11.2-29-29v-63.6c0-17.9 11.1-29.1 29-29.1h112.7c17.9 0 28.5 11.2 28.5 29.1z m-273.5 128.3v-139.5c0-39.6-26.2-65.8-65.8-65.8h-74.2c-25.1 0-43.5 10.6-53.6 29-10-18.4-28.5-29-53.6-29h-72.5c-39.1 0-65.9 26.2-65.9 65.8v139.5c0 8.4 4 12.3 11.8 12.3h30.7c8.3 0 12.2-3.9 12.2-12.3v-128.3c0-17.9 10.6-29.1 29.1-29.1h52.4c17.9 0 29 11.2 29 29.1v128.3c0 8.4 3.4 12.3 11.7 12.3h30.2c8.3 0 12.3-3.9 12.3-12.3v-128.3c0-17.9 11.1-29.1 29-29.1h54.1c17.9 0 28.5 11.2 28.5 29.1v128.3c0 8.4 3.9 12.3 12.2 12.3h30.7c7.8 0 11.7-3.9 11.7-12.3z m328.7-53.6v-85.9c0-39.6-26.8-65.8-66.4-65.8h-147.3c-39.6 0-66.4 26.2-66.4 65.8v228.8c0 8.4 4.5 11.7 12.3 11.7h30.7c8.3 0 11.7-3.3 11.7-11.7v-100.4c10.6 14.5 27.3 23.4 52.4 23.4h106.6c39.6 0 66.4-26.8 66.4-65.9z m70.3-343.7v598.2c0 71.4-58 129.5-129.4 129.5h-598.2c-71.5 0-129.5-58.1-129.5-129.5v-598.2c0-71.4 58-129.5 129.5-129.5h598.2c71.4 0 129.4 58.1 129.4 129.5z" /></svg>