<svg height="1000" width="1000.0" xmlns="http://www.w3.org/2000/svg"><path d="m333.1 234.9v654.6c0 17.3-8.3 33.5-27.3 33.5-6.7 0-12.8-1.7-18.4-4.5l-259.5-130c-15.6-7.8-27.9-27.9-27.9-44.6v-636.2c0-13.9 6.7-26.8 21.8-26.8 8.9 0 16.7 4.5 24.5 8.4l285.2 142.8c0.5 0.6 1.6 2.3 1.6 2.8z m35.8 56.4l298 483.3-298-148.5v-334.8z m631.1 10v588.2c0 18.4-10.6 31.3-29 31.3-9.5 0-18.4-2.8-26.2-7.3l-246.1-122.8z m-1.7-66.9c0 2.2-288.5 470.4-310.8 506.1l-217.6-353.8 180.8-294.1c6.1-10 17.3-15.6 29-15.6 5 0 10 1.1 14.5 3.4l301.9 150.6c1.1 0.6 2.2 1.7 2.2 3.4z" /></svg>