<svg height="1000" width="1000.0" xmlns="http://www.w3.org/2000/svg"><path d="m625 375h-250v250h250v-250z m-83.3 166.7h-83.4v-83.4h83.4v83.4z m333.3-83.4v-83.3h-83.3v-83.3c0-46.1-37.3-83.4-83.4-83.4h-83.3v-83.3h-83.3v83.3h-83.4v-83.3h-83.3v83.3h-83.3c-46.1 0-83.4 37.3-83.4 83.4v83.3h-83.3v83.3h83.3v83.4h-83.3v83.3h83.3v83.3c0 46.1 37.3 83.4 83.4 83.4h83.3v83.3h83.3v-83.3h83.4v83.3h83.3v-83.3h83.3c46.1 0 83.4-37.3 83.4-83.4v-83.3h83.3v-83.3h-83.3v-83.4h83.3z m-166.7 250h-416.6v-416.6h416.6v416.6z" /></svg>