<svg height="1000" width="714.3" xmlns="http://www.w3.org/2000/svg"><path d="m463.2 176.3c106 52.5 179.7 161.9 179.7 288 0 165.2-125 301.3-285.8 319.2v73.6h53.6c10.1 0 17.9 7.9 17.9 17.9v35.7c0 10.1-7.8 17.9-17.9 17.9h-53.6v53.5c0 10.1-7.8 17.9-17.8 17.9h-35.7c-10.1 0-17.9-7.8-17.9-17.9v-53.5h-53.6c-10 0-17.8-7.8-17.8-17.9v-35.7c0-10 7.8-17.9 17.8-17.9h53.6v-73.6c-160.7-17.9-285.7-154-285.7-319.2 0-126.1 73.7-235.5 179.7-288-58.6-34-104.4-87.6-127.2-152.3-4.5-11.7 4.4-24 16.7-24h38.5c7.3 0 13.4 4.5 16.2 11.2 32.4 77.5 108.8 131.7 197.5 131.7s165.2-54.2 197.6-131.7c2.8-6.7 8.9-11.2 20.6-11.2h34.1c12.2 0 21.2 12.3 16.7 24-22.9 64.7-68.6 118.3-127.2 152.3z m-141.8 538c137.9 0 250-112.2 250-250s-112.1-250-250-250-250 112.2-250 250 112.2 250 250 250z" /></svg>