<svg height="1000" width="1000.0" xmlns="http://www.w3.org/2000/svg"><path d="m791.7 458.3h-70.9c0 31.1-6.4 59.8-18.1 85.5l51.3 51.2c23.7-40.6 37.7-87.1 37.7-136.7z m-167.3 6.9c0-2.3 0.6-4.6 0.6-6.9v-250c0-69.1-56-125-125-125s-125 55.9-125 125v7.7l249.4 249.2z m-446.3-340.2l-53.1 53.1 250.4 250.4v30c0 69 55.6 125 124.6 125 9.4 0 18.3-1.2 27.1-3.1l69.2 69.2c-29.8 13.7-62.5 21.4-96.3 21.4-115 0-220.8-87.5-220.8-212.5h-70.9c0 142.3 113.4 259.8 250 280v136.5h83.4v-136.7c37.7-5.6 73.5-18.7 105.8-37.7l174.4 174.4 53.1-52.9-696.9-697.1z" /></svg>