<svg height="1000" width="428.6" xmlns="http://www.w3.org/2000/svg"><path d="m258.9 785.7c0-24.5-20.1-44.6-44.6-44.6s-44.7 20.1-44.7 44.6 20.1 44.7 44.7 44.7 44.6-20.1 44.6-44.7z m116.1-89.3v-392.8c0-9.5-8.4-17.9-17.9-17.9h-285.7c-9.5 0-17.8 8.4-17.8 17.9v392.8c0 9.5 8.3 17.9 17.8 17.9h285.7c9.5 0 17.9-8.4 17.9-17.9z m-107.1-473.2c0-5-3.9-8.9-9-8.9h-89.3c-5 0-8.9 3.9-8.9 8.9s3.9 8.9 8.9 8.9h89.3c5.1 0 9-3.9 9-8.9z m160.7-8.9v571.4c0 39.1-32.4 71.4-71.5 71.4h-285.7c-39 0-71.4-32.3-71.4-71.4v-571.4c0-39.1 32.4-71.4 71.4-71.4h285.7c39.1 0 71.5 32.3 71.5 71.4z" /></svg>