<svg height="1000" width="1071.4" xmlns="http://www.w3.org/2000/svg"><path d="m428.6 642.9h214.3v-53.6h-71.5v-250h-63.6l-82.6 76.4 43 44.7c13.4-11.7 21.8-17.9 30.7-31.8h1.1v160.7h-71.4v53.6z m285.7-142.9c0 101.6-61.4 232.1-178.6 232.1s-178.6-130.5-178.6-232.1 61.4-232.1 178.6-232.1 178.6 130.5 178.6 232.1z m285.7 142.9v-285.8c-78.7 0-142.9-64.1-142.9-142.8h-642.8c0 78.7-64.2 142.8-142.9 142.8v285.8c78.7 0 142.9 64.1 142.9 142.8h642.8c0-78.7 64.2-142.8 142.9-142.8z m71.4-464.3v642.8c0 19.6-16.2 35.7-35.7 35.7h-1000c-19.5 0-35.7-16.1-35.7-35.7v-642.8c0-19.6 16.2-35.7 35.7-35.7h1000c19.5 0 35.7 16.1 35.7 35.7z" /></svg>