<svg height="1000" width="834.0" xmlns="http://www.w3.org/2000/svg"><path d="m417 84q172.8 0 294.9 122.1t122.1 293.9-122.1 293.9-294.9 122.1-294.9-122.1-122.1-293.9 122.1-293.9 294.9-122.1z m0 750q137.7 0 235.3-97.7t97.7-236.3-97.7-236.3-235.3-97.7-235.4 97.7-97.6 236.3 97.6 236.3 235.4 97.7z m145.5-375q-25.4 0-43.9-18.6t-18.6-44.9 18.6-43.9 43.9-17.6 43.9 17.6 18.6 43.9-18.6 44.9-43.9 18.6z m-292 0q-26.4 0-43.9-18.6t-17.6-44.9 17.6-43.9 43.9-17.6 44.9 17.6 18.6 43.9-18.6 44.9-44.9 18.6z m146.5 125q71.3 0 128.9 40t83 104.5h-425.8q25.4-64.4 84-104.5t129.9-40z" /></svg>