<svg height="1000" width="857.1" xmlns="http://www.w3.org/2000/svg"><path d="m704.2 727.1c-20 3.4-40.7 5-61.3 5-207.1 0-375-167.9-375-375 0-70.8 20.6-140 58-199.2-148.4 44.1-254.5 180.3-254.5 342.1 0 197 160.2 357.1 357.2 357.1 107.7 0 208.7-49.1 275.6-130z m113.3-47.4c-69.7 151.2-222.6 248.9-388.9 248.9-236.1 0-428.6-192.6-428.6-428.6 0-231.6 181.4-419.6 412.4-428 15.6-0.6 28.4 8.4 34 21.7 6.2 14 2.3 30.2-8.3 40.2-63.7 58.1-98.8 137.3-98.8 223.2 0 167.5 136.1 303.6 303.6 303.6 44 0 86.5-9.5 127.2-28.4 13.9-6.2 29.6-3.4 40.2 7.2s13.4 26.8 7.2 40.2z" /></svg>