<svg height="1000" width="1000.0" xmlns="http://www.w3.org/2000/svg"><path d="m916.7 125h-625c-28.8 0-51.5 14.6-66.5 36.7l-225.2 338.1 225.2 338.1c15 22.1 40.4 37.1 69.2 37.1h622.3c46 0 83.3-37.3 83.3-83.3v-583.4c0-46-37.3-83.3-83.3-83.3z m-541.7 437.5c-34.6 0-62.5-27.9-62.5-62.5s27.9-62.5 62.5-62.5 62.5 27.9 62.5 62.5-27.9 62.5-62.5 62.5z m208.3 0c-34.5 0-62.5-27.9-62.5-62.5s28-62.5 62.5-62.5 62.5 27.9 62.5 62.5-27.9 62.5-62.5 62.5z m208.4 0c-34.6 0-62.5-27.9-62.5-62.5s27.9-62.5 62.5-62.5 62.5 27.9 62.5 62.5-27.9 62.5-62.5 62.5z" /></svg>