<svg height="1000" width="1000.0" xmlns="http://www.w3.org/2000/svg"><path d="m500 333.3c-92.1 0-166.7 74.6-166.7 166.7s74.6 166.7 166.7 166.7 166.7-74.6 166.7-166.7-74.6-166.7-166.7-166.7z m372.5 125c-19.2-173.7-157.1-311.6-330.8-330.8v-85.8h-83.4v85.8c-173.7 19.2-311.6 157.1-330.8 330.8h-85.8v83.4h85.8c19.2 173.7 157.1 311.6 330.8 330.8v85.8h83.4v-85.8c173.7-19.2 311.6-157.1 330.8-330.8h85.8v-83.4h-85.8z m-372.5 333.4c-161 0-291.7-130.7-291.7-291.7s130.7-291.7 291.7-291.7 291.7 130.7 291.7 291.7-130.7 291.7-291.7 291.7z" /></svg>