<svg height="1000" width="791.0" xmlns="http://www.w3.org/2000/svg"><path d="m543 679.7h248v70.3h-359.4v-62.5l173.9-189.5q19.5-21.4 37.1-42.9 13.7-15.6 23.4-35.2 7.8-13.6 11.7-27.3 3.9-15.6 3.9-27.4 0-17.5-5.8-35.1-5.9-15.6-15.6-25.4-9.8-13.7-24.5-19.5t-34.1-5.9q-23.5 0-39.1 7.8-17.6 7.8-29.3 19.5-11.7 15.7-15.6 31.3-5.9 17.6-5.9 37.1h-89.8q1.9-33.2 11.7-62.5 11.7-31.2 35.2-54.7t56.6-37.1q35.1-11.7 78.1-11.7 39.1 0 70.3 9.8 33.2 11.7 52.8 29.2 21.4 19.6 33.2 46.9t11.7 60.6q0 25.4-7.8 48.8-9.8 23.4-23.5 48.8-15.6 25.4-33.2 48.9-25.4 29.3-44.9 48.8z m-543-220.7h334v82h-334v-82z" /></svg>