<svg height="1000" width="1000.0" xmlns="http://www.w3.org/2000/svg"><path d="m437.1 26.9c-96.5 0-174.4 77.9-174.4 174.4l348.8 0c0-96.5-77.9-174.4-174.4-174.4z m348.8 139.7c-8.9 0-17.8 3.4-24.6 10.2l-94.2 94.2-460 0-94.2-94.2c-13.7-13.7-35.6-13.6-49.1 0-13.6 13.6-13.6 35.3 0 49l94.3 94.3 0 160.2-122.1 0c-19.1 0-34.8 15.8-34.8 34.9 0 19 15.7 34.8 34.8 34.8l122.1 0c0 63.3 12.5 111.8 31.5 149.4l-110 123.7c-12.5 14.7-11.5 36.5 2.7 49.6 7.1 6 15.2 8.7 23.4 8.7 9.8 0 19.1-3.8 26.2-11.4l99.7-112.8c0 0 72 71.9 170.6 71.9l0-488.3 69.8 0 0 376c15.3-28.8 45.7-48.7 80-48.7l83.2 0 0-83.2c0-49.3 41.2-90.6 90.5-90.6l65.2 0c31.2 0 59.1 16.6 75.5 41.2 4.1-5.8 6.6-12.8 6.6-20.3 0-19.1-15.8-34.9-34.8-34.9l-122.1 0 0-160.2 94.2-94.3c13.7-13.7 13.6-35.3 0-49-6.8-6.8-15.6-10.2-24.4-10.2z m-58.5 384.1c-18 0-32.6 14.6-32.6 32.6l0 141.1-141.2 0c-17.9 0-32.5 14.6-32.5 32.6l0 65.2c0 18 14.6 32.6 32.5 32.6l141.2 0 0 141.2c0 17.9 14.6 32.5 32.6 32.5l65.1 0c18 0 32.6-14.6 32.6-32.5l0-141.2 141.1 0c18 0 32.6-14.6 32.6-32.6l0-65.2c0-18-14.6-32.6-32.6-32.6l-141.1 0 0-141.1c0-18-14.6-32.6-32.6-32.6l-65.1 0z" /></svg>