<svg height="1000" width="873.0" xmlns="http://www.w3.org/2000/svg"><path d="m230.5 148.4q-64.5 46.9-103.5 117.2t-43 150.4h-84q3.9-97.6 49.8-183.6t122.1-142.6z m558.6 267.6q-3.9-80.1-44-150.4t-104.5-117.2l60.6-58.6q76.1 56.7 121.1 142.6t50.7 183.6h-83.9z m-82.1 21.5v228.5l84 84v41h-709v-41l84-84v-228.5q0-95.7 58.6-168.9t148.4-94.8v-27.3q0-27.4 18.6-44.9t44.9-17.6 44 17.6 17.5 44.9v27.3q91.8 21.5 150.4 94.8t58.6 168.9z m-271.5 478.5q-33.2 0-57.6-24.4t-24.4-57.6h166q0 15.6-5.8 31.2-17.6 41.1-60.6 48.9-7.8 1.9-17.6 1.9z" /></svg>