<svg height="1000" width="1285.7" xmlns="http://www.w3.org/2000/svg"><path d="m1285.7 428.6h-71.4v357.1h71.4v214.3h-214.3v-71.4h-500v71.4h-214.3v-214.3h71.5v-71.4h-214.3v71.4h-214.3v-214.3h71.4v-357.1h-71.4v-214.3h214.3v71.4h500v-71.4h214.3v214.3h-71.5v71.4h214.3v-71.4h214.3v214.3z m-142.8-142.9v71.4h71.4v-71.4h-71.4z m-357.2-214.3v71.5h71.4v-71.5h-71.4z m-714.3 0v71.5h71.5v-71.5h-71.5z m71.5 642.9v-71.4h-71.5v71.4h71.5z m714.2-71.4h-71.4v71.4h71.4v-71.4z m-642.8 0h500v-71.5h71.4v-357.1h-71.4v-71.4h-500v71.4h-71.4v357.1h71.4v71.5z m285.7 285.7v-71.5h-71.4v71.5h71.4z m714.3 0v-71.5h-71.4v71.5h71.4z m-71.4-142.9v-357.1h-71.5v-71.5h-214.3v214.3h71.5v214.3h-214.3v-71.4h-214.3v71.4h71.4v71.4h500v-71.4h71.5z" /></svg>