<svg height="1000" width="857.1" xmlns="http://www.w3.org/2000/svg"><path d="m517.3 323.7c0 49.1-39.6 88.7-88.7 88.7s-88.8-39.6-88.8-88.7 39.7-88.8 88.8-88.8 88.7 39.7 88.7 88.8z m119.4 202.5c-10-20.1-38.5-37.4-75.9-7.8 0 0-50.8 40.2-132.2 40.2s-132.3-40.2-132.3-40.2c-37.4-29.6-65.8-12.3-75.9 7.8-17.8 35.7 2.3 53 47.5 82.6 38.5 24.6 92 34.1 126.1 37.4l-28.5 29c-40.2 40.2-79.2 79.3-106.6 106.1-16.2 16.1-16.2 42.4 0 58.5l5.1 5.1c16.1 16.1 42.4 16.1 58.5 0l106.6-106.6c40.2 40.7 79.3 79.8 106.6 106.6 16.2 16.1 42.4 16.1 58.6 0l5-5.1c16.2-16.1 16.2-42.4 0-58.5l-106.6-106.1-29-29c34.6-3.3 87.1-12.8 125.6-37.4 45.2-29.6 65.3-46.9 47.4-82.6z m-27.3-202.5c0-99.9-80.9-180.8-180.8-180.8s-180.8 80.9-180.8 180.8 80.9 180.8 180.8 180.8 180.8-81 180.8-180.8z m247.7-91.6v535.8c0 88.7-71.9 160.7-160.7 160.7h-535.7c-88.7 0-160.7-72-160.7-160.7v-535.8c0-88.7 72-160.7 160.7-160.7h535.7c88.8 0 160.7 72 160.7 160.7z" /></svg>