<svg height="1000" width="714.3" xmlns="http://www.w3.org/2000/svg"><path d="m357.1 506.1c-139.5 0-253.3-113.2-253.3-252.8 0-140 113.8-253.3 253.3-253.3s253.4 113.3 253.4 253.3c0 139.6-113.8 252.8-253.4 252.8z m0-377.8c-68.6 0-124.4 55.9-124.4 125 0 68.7 55.8 124.5 124.4 124.5s124.5-55.8 124.5-124.5c0-69.1-55.8-125-124.5-125z m291.9 408.5c24.5 50.3-3.4 74.2-67 115.5-53.5 34.1-127.2 47.5-175.7 52.5l40.7 40.2 149 149c22.3 22.9 22.3 59.7 0 82l-6.7 7.3c-22.9 22.3-59.7 22.3-82.6 0-37.4-38-92.1-92.7-149-149.6l-149 149.6c-22.9 22.3-59.7 22.3-82 0l-6.7-7.3c-22.9-22.3-22.9-59.1 0-82 37.9-38 92.1-92.7 149-149l40.2-40.2c-48-5-122.8-17.9-176.9-52.5-63.7-41.3-91.6-65.2-67-115.5 14.5-28.4 54.1-52.4 106.6-11.1 0 0 70.8 56.3 185.2 56.3s185.3-56.3 185.3-56.3c52.5-41.3 92.1-17.3 106.6 11.1z" /></svg>