<svg height="1000" width="1281.3" xmlns="http://www.w3.org/2000/svg"><path d="m266.7 934.7c-5.5 11.7-21.7 27.9-35.7 33.5-19.5 6.7-43.5-6.1-44.6-19.5-1.1-17.3 41.8-48.6 60.3-51.9 17.8-3.4 26.2 23.4 20 37.9z m748.4 0c5 11.7 21.2 27.9 35.7 33.5 19 6.7 43.5-6.1 44.1-19.5 1.6-17.3-41.9-48.6-60.3-51.9-17.3-3.4-25.7 23.4-19.5 37.9z m26.8-60.8c10 20.1 49.6 49.6 74.7 56.3 34.1 9.5 66.4-6.7 66.4-30.6 0-36.9-69.7-86-102.1-89.3-30.7-3.9-50.8 39.6-39 63.6z m-803.1 0c-10 20.1-49.1 49.6-74.2 56.3-34 9.5-66.4-6.7-66.4-30.6 0-36.9 69.8-86 102.1-89.3 30.7-3.9 50.8 39.6 38.5 63.6z m407.4-627.2h0.6c-15.1 0-29.6 2.7-42.4 8.3 19.5 6.2 34 24 34 44.7 0 26.2-22.9 47.4-51.3 47.4-19 0-35.8-10-44.7-24-1.7 7.8-2.8 15.1-2.8 23.4 0 55.3 47.5 99.9 106.6 99.9s107.1-44.6 107.1-99.9-47.9-99.8-107.1-99.8z m169.6-121.7c-73.6-80.9-167.9-98.8-260-48.5 51.9-116.1 252.2-100.5 260 48.5z m418.6 691.4c2.8 3.9-0.6 14-6.2 23.4 2.3 7.3 3.9 14.6 3.9 22.4 1.7 65.3-91.5 132.2-151.7 134.5-35.8 1.6-71.5-17.3-88.2-48.6-234.4 8.4-468.8 10-702.6 0-17.3 31.3-53 49.7-88.7 48.6-59.7-2.3-152.9-69.2-151.8-134.5 0.6-7.8 1.7-15.1 3.9-22.4-5.6-9.4-8.9-19.5-6.1-23.4 2.2-3.3 9.5-3.3 17.3-0.6 6.7-10.6 14.5-19.5 22.9-28.4-2.3-9.5-2.3-17.9 1.1-21.2 3.9-3.4 12.8-2.2 21.7 2.2 9.5-6.7 20.7-13.4 33-19 0-10 2.7-17.8 7.2-20.6 6.7-3.4 18.4-1.1 28.5 8.9 11.7-1.7 23.4-1.7 34 1.1 7.3 1.7 14.5 5.6 21.2 10.6v-40.7c-3.3 0-6.1 0-10-1.1-36.3-6.7-75.9-31.8-84.8-73.7-3.4-13.9-3.4-29 0-45.2 6.6-27.9 30.6-44.1 51.8-53 1.7-12.3 16.8-29 30.7-32.9 15.7-3.9 25.7 9.5 29.1 21.2h7.2c10.1 1.1 26.2 3.3 33.5 12.8 1.1 1.1 2.2 2.8 2.8 3.9 11.1-1.1 22.9-2.8 34-3.9-5-3.9-10.6-7.2-16.7-9.5-10.6-18.4-28.5-22.8-50.8-24 0-1.6 0-3.3 0.6-5.5-40.8-1.1-91-11.8-113.3-36.9-25.7-28.4-30.2-77-25.1-113.8 4.4-36.3 19.5-78.1 50.2-99.9 17.3-11.7 44.6-1.7 46.9 20.1 1.1 9.5 2.8 41.9 11.7 46.9 10 5 26.2 7.2 42.4 6.7 16.7-16.2 34.6-30.2 54.7-41.3-30.7-2.8-59.7 3.3-90.4 7.8l26.2-25.7c25.7-24.5 59.7-45.7 91-61.9 48.5-24.6 103.2-43 157.3-48-38.5-16.2-82.6-24.6-123.3-34.1 157.9-33.4 360.5-45.7 504.5 77.6 37.4 31.8 66.9 74.8 88.1 123.9 22.9 2.8 51.9 3.3 67.6-5h0.5c9-5 10.6-36.9 11.7-46.9 2.3-21.2 29.6-31.8 46.9-19.5 30.7 21.7 45.8 63.6 50.8 99.3 4.5 36.8 0.6 85.4-25.7 113.8-22.3 25.1-70.8 36.3-111 37.4v5.6c-22.9 0.6-41.9 5-53 24-6.2 2.2-11.8 5.6-17.3 9.5 11.7 1.1 23.4 2.8 34.6 3.9 0.5-1.7 1.6-3.4 2.8-4.5 7.8-8.9 24-11.7 33.4-12.8h7.3c3.3-11.2 13.9-24.6 29-21.2s29 20.6 30.7 32.9c22.3 8.9 45.8 25.1 51.9 53 3.9 16.8 3.3 31.3 0.6 45.2-9.5 41.9-49.2 67.6-85.4 73.7-2.8 0.5-6.7 1.1-9.5 1.1 0 14 0 27.3-0.6 40.7 6.7-5 13.4-8.9 21.2-10.6 10.6-2.8 22.4-2.8 34.1-1.1 10-10 22.3-12.3 28.4-8.9 4.5 2.8 7.9 10.6 7.9 20.6 11.7 5.6 23.4 12.3 32.9 19 8.9-4.4 17.3-5.6 21.2-2.2 3.3 3.3 3.9 11.7 1.1 21.2 8.4 8.9 16.7 18.4 22.9 28.4 7.8-2.7 14.5-2.7 17.3 0.6z m-153.5-531.2c0 12.8-2.8 24-5 30.1 35.7 13.9 54.1 45.7 62.5 73.7 2.2-21.8-5.6-81.5-28.5-105.5-15-15.1-29-10.6-29 1.7z m-43.5 55.8v0c26.8 32.3 35.1 85.9 26.2 130 22.3-4.5 42.4-12.9 54.1-25.1 4-4.5 7.9-10.1 10.1-15.7-2.2-44-21.2-88.1-61.4-101-6.7 6.7-19 10.1-29 11.8v0z m-20.7 2.2c-7.8 0-16.7 0-24.5-0.6 15.6 42.4 25.7 88.2 29.6 133.4 7.2 0 15.6-0.6 24-1.7 12.2-50.2-0.6-106.6-29.1-131.1z m-872.7 45.8c8.3-28 26.8-59.8 62.5-73.7-2.3-6.1-5-17.3-5-30.1 0-12.3-14.6-16.8-29.1-1.7-23.4 24-30.7 83.7-28.4 105.5z m20.1 56.9c11.7 12.8 31.8 20.6 54.1 25.1-8.9-44.1-0.6-97.7 26.2-130v0 0 0c-10-1.7-22.3-5.1-29-11.8-40.2 12.9-58.6 57-61.4 101 2.8 5.6 6.2 11.2 10.1 15.7z m98.7 30.1c5.1-45.8 19-90.4 40.8-131.1-10.6 2.2-20.7 6.1-30.7 10l-25.1 10.6v-0.5c-15.1 29-20.7 70.8-11.2 109.3 9.5 1.1 17.9 1.7 26.2 1.7z m537.4 21.8v0c7.3 36.8 10.1 73.6 15.6 110.5 2.3 12.8 6.2 15.6 18.5 9.4 32.9-16.7 46.8-80.9 47.4-117.7-26.8-1.7-54.1-1.7-81.5-2.2z m-157.3-357.7c-86.5 0-157.4 70.3-157.4 156.8 0 87 70.9 157.3 157.4 157.3s157.3-70.3 157.3-157.3c0-86.5-70.8-156.8-157.3-156.8z m127.2 356.6c-39.1-0.6-78.7-0.6-117.8 0v-0.6c-0.5 10.6 0.6 78.7 9 84.8 22.9 11.2 81.4 9.5 105.4 2.2 11.2-3.3 5.1-76.4 3.4-86.4z m-149.6 111c9.5-5 5.1-93.7 2.8-111v-0.6c-40.2 0.6-79.8 0.6-119.4 1.7-3.9 18.9-9.5 101 3.9 106.6 26.8 11.7 86 10.6 112.7 3.3z m-219.8-105.5c-11.2 40.8 0.5 93.2 45.7 113.3 11.2 5 17.9 5 20.1-8.9 3.9-17.9 5-75.9 10.1-107.7v0c-25.1 0.5-50.8 1.7-75.9 3.3z m-70.9 70.3c1.1 10.1-7.8 16.2-19 20.1 90.4 97.1 191.4 176.9 322 219.9 139.5-39.6 238.9-123.9 337.1-221-10.1-3.9-17.9-10.6-16.8-19 0.6-2.2 1.1-3.3 1.7-5v0-0.5 0.5c-18.4-1.7-36.8-3.9-54.7-5.6-19.5 68.1-74.2 109.4-96.5 65.3-5.6-10.6-7.3-24-9.5-34.6-7.8 17.3-27.4 16.8-50.8 18.4-27.3 2.3-65.3 2.8-91-6.1-6.1 26.8-22.8 26.8-55.2 29.6-29 2.8-100.4 8.4-113.3-22.3-2.2 59.1-72.5 20.6-93.2-14.5-6.7-11.8-11.1-23.5-14.5-36.3-16.2 1.7-32.3 3.3-48.5 5.6 1.1 1.6 1.6 3.9 2.2 5.5z m-46.9 350.5c1.1-5 1.7-10.6 1.7-16.7-11.7-48-38.5-102.7-69.2-111.7-46.3-13.9-142.3 48.6-136.7 112.8 26.2 40.1 82.6 73.6 122.2 75.3 36.8 1.7 74.2-22.9 82-59.7z m1.7-95.4c6.7 18.4 13.4 42.9 15.1 66.4 69.2-40.2 142.8-73.7 218.7-97.1-79.8-42.4-140.6-98.8-200.9-159.1-4.4 2.8-10.6 5.1-16.2 7.3-0.5 1.7-0.5 3.3-1.1 5 9.5 5.6 16.2 12.3 12.3 20.7-4.5 8.3-17.9 15.6-31.2 18.9-4.5 5.6-10.7 10.1-16.2 13.4h-0.6c-0.5 27.9-0.5 55.8 0.6 83.7 7.8 14 14.5 28.5 19.5 40.8z m38.5 92.6c213.2 8.4 426.3 7.3 639 0-75.9-44.1-152.9-85.4-238.9-109.4-28.4 12.9-57.5 23.5-87 31.8-4.5 1.7-4.5 1.7-9 0-24.5-7.8-48-16.7-72-27.3-83.1 24-159.6 60.3-232.1 104.9h-0.6v0.6c0.6 0 0.6 0 0.6-0.6z m660.7-25.7c1.7-23.4 8.9-48.5 15.6-66.9 4.5-12.3 10.6-26.3 18.5-39.7l-0.6 0.6c1.1-28.5 1.7-56.9 1.7-85.4-6.2-3.3-11.7-8.3-16.8-13.9-13.4-2.8-26.8-10.6-31.2-18.4-3.9-8.4 2.8-15.7 12.3-21.2-0.6-1.2-1.2-3.4-1.2-5.1-6.1-1.6-11.1-3.9-15.6-6.7-65.3 60.9-135 117.2-213.7 158.5 80.3 24 156.8 58.1 231 98.2z m218.8 12.9c6.1-64.2-89.9-126.7-136.8-112.8-30.1 9-57.4 63.7-69.1 111.7 0 6.1 0.5 11.7 1.6 16.7 7.8 36.8 45.2 61.4 82.1 59.7 39.6-1.7 95.9-35.2 122.2-75.3z" /></svg>