<svg height="1000" width="1000.0" xmlns="http://www.w3.org/2000/svg"><path d="m214.3 303.6v321.4c0 9.5-8.4 17.9-17.9 17.9-4.4 0-9.5-1.7-12.8-5.1l-160.7-160.7c-3.4-3.3-5-8.3-5-12.8s1.6-9.5 5-12.8l160.7-160.8c3.3-3.3 8.4-5 12.8-5 9.5 0 17.9 8.4 17.9 17.9z m785.7 428.5v107.2c0 9.5-8.4 17.8-17.9 17.8h-964.2c-9.5 0-17.9-8.3-17.9-17.8v-107.2c0-9.4 8.4-17.8 17.9-17.8h964.2c9.5 0 17.9 8.4 17.9 17.8z m0-214.2v107.1c0 9.5-8.4 17.9-17.9 17.9h-607.1c-9.5 0-17.9-8.4-17.9-17.9v-107.1c0-9.5 8.4-17.9 17.9-17.9h607.1c9.5 0 17.9 8.4 17.9 17.9z m0-214.3v107.1c0 9.5-8.4 17.9-17.9 17.9h-607.1c-9.5 0-17.9-8.4-17.9-17.9v-107.1c0-9.5 8.4-17.9 17.9-17.9h607.1c9.5 0 17.9 8.4 17.9 17.9z m0-214.3v107.1c0 9.5-8.4 17.9-17.9 17.9h-964.2c-9.5 0-17.9-8.4-17.9-17.9v-107.1c0-9.5 8.4-17.9 17.9-17.9h964.2c9.5 0 17.9 8.4 17.9 17.9z" /></svg>