<svg height="1000" width="834.0" xmlns="http://www.w3.org/2000/svg"><path d="m521.5 259.8h283.2q7.8 0 18.5 9.7t10.8 23.5l-248.1 166h-7.8l-56.6-35.2v-164z m0 224.6l52.7 35.1q3.9 2 7.8 2h5.9l1.9-2q-3.9 2 56.7-38.1t125-81l62.5-41v298.8q0 23.4-12.7 35.2t-32.2 11.7h-267.6v-220.7 0z m-271.5-76.2q25.4 0 40 24.4t14.7 67.4-14.7 66.4-42 23.4q-25.3 0-41-24.4t-15.6-65.4 15.6-66.4 43-25.4z m-250-230.5l490.2-93.7v832l-490.2-101.5v-636.8z m328.1 425.8q31.3-41 31.3-105.5t-30.3-104.4-79.1-40.1q-50.8 0-82 41t-31.3 109.4q0 62.5 31.3 101.6t80 39 80.1-41z" /></svg>