<svg height="1000" width="1000.0" xmlns="http://www.w3.org/2000/svg"><path d="m500 125c-207.1 0-375 167.9-375 375s167.9 375 375 375c34.6 0 62.5-27.9 62.5-62.5 0-16.2-6-30.8-16.2-41.9-9.8-11-15.7-25.4-15.7-41.4 0-34.6 27.9-62.5 62.5-62.5h73.6c115 0 208.3-93.4 208.3-208.4 0-184.1-167.9-333.3-375-333.3z m-229.2 375c-34.5 0-62.5-27.9-62.5-62.5s28-62.5 62.5-62.5 62.5 27.9 62.5 62.5-27.9 62.5-62.5 62.5z m125-166.7c-34.5 0-62.5-27.9-62.5-62.5s28-62.5 62.5-62.5 62.5 27.9 62.5 62.5-27.9 62.5-62.5 62.5z m208.4 0c-34.6 0-62.5-27.9-62.5-62.5s27.9-62.5 62.5-62.5 62.5 27.9 62.5 62.5-27.9 62.5-62.5 62.5z m125 166.7c-34.6 0-62.5-27.9-62.5-62.5s27.9-62.5 62.5-62.5 62.5 27.9 62.5 62.5-27.9 62.5-62.5 62.5z" /></svg>