<svg height="1000" width="750.0" xmlns="http://www.w3.org/2000/svg"><path d="m375 125q156.3 0 265.6 97.7t109.4 236.3q0 85.9-61.5 146.5t-147.5 60.5h-72.2q-27.4 0-45 18.6t-17.5 43.9q0 23.5 15.6 41 15.6 19.6 15.6 43 0 25.4-18.6 43.9t-43.9 18.6q-156.2 0-265.6-109.4t-109.4-265.6 109.4-265.6 265.6-109.4z m-229.5 375q26.4 0 44.9-18.6t18.6-43.9-18.6-43.9-44.9-18.6-43.9 18.6-17.6 43.9 17.6 43.9 43.9 18.6z m125-166q26.4 0 44.9-18.6t18.6-44.9-18.6-43.9-44.9-17.6-43.9 17.6-17.6 43.9 17.6 44.9 43.9 18.6z m209 0q26.4 0 43.9-18.6t17.6-44.9-17.6-43.9-43.9-17.6-44.9 17.6-18.6 43.9 18.6 44.9 44.9 18.6z m125 166q26.4 0 43.9-18.6t17.6-43.9-17.6-43.9-43.9-18.6-44.9 18.6-18.6 43.9 18.6 43.9 44.9 18.6z" /></svg>