<svg height="1000" width="1000.0" xmlns="http://www.w3.org/2000/svg"><path d="m500 250c102.1 0 196.3 8.1 303.8 26.5 19.5 74.3 29.5 149.5 29.5 223.5s-10 149.2-29.5 223.5c-107.5 18.4-201.7 26.5-303.8 26.5s-196.2-8.1-303.7-26.5c-19.6-74.3-29.6-149.5-29.6-223.5s10-149.2 29.6-223.5c107.5-18.4 201.6-26.5 303.7-26.5z m0-83.3c-113.7 0-217.7 10-331.5 30l-38.5 6.8-10.4 37.3c-24.2 86.3-36.3 172.7-36.3 259.2s12.1 172.9 36.3 259.2l10.4 37.3 38.5 6.8c113.8 20 217.8 30 331.5 30s217.7-10 331.5-30l38.5-6.8 10.4-37.3c24.2-86.3 36.3-172.7 36.3-259.2s-12.1-172.9-36.3-259.2l-10.4-37.3-38.5-6.8c-113.8-20-217.7-30-331.5-30z" /></svg>