<svg height="1000" width="785.7" xmlns="http://www.w3.org/2000/svg"><path d="m783.5 772.9c0 87-66.4 153.4-153.5 153.4-49.1 0-96.5-21.2-131.1-55.8l-433.6-433c-39.6-40.2-63.1-94.9-63.1-151.2 0-118.3 93.2-212.6 211.5-212.6 56.9 0 111.6 22.8 152.4 63l337.6 338.2c3.3 3.3 5.6 7.8 5.6 12.3 0 11.7-31.3 42.9-43 42.9-5 0-9.5-2.2-12.8-5.5l-338.2-338.8c-26.8-26.2-63.1-42.9-101-42.9-79.3 0-140.6 64.1-140.6 142.8 0 38 15.6 74.2 42.4 101l433 433.6c21.2 21.2 50.8 35.2 80.9 35.2 47.5 0 82.6-35.2 82.6-82.6 0-30.7-13.9-59.7-35.1-80.9l-324.3-324.3c-8.9-8.3-21.2-13.3-33.4-13.3-21.3 0-37.4 15.6-37.4 37.3 0 12.3 5.5 24 13.9 33l228.8 228.8c3.4 3.3 5.6 7.8 5.6 12.2 0 11.8-31.8 43.6-43.5 43.6-4.5 0-9-2.3-12.3-5.6l-228.8-228.8c-22.3-21.8-35.2-52.5-35.2-83.2 0-61.3 48-109.3 109.4-109.3 31.3 0 61.4 12.8 83.2 35.1l324.2 324.2c35.1 34.6 55.8 82.1 55.8 131.2z" /></svg>