<svg height="1000" width="1000.0" xmlns="http://www.w3.org/2000/svg"><path d="m984.4 6.1c11.7 8.4 17.3 21.8 15 35.8l-142.8 857.1c-1.7 10.6-8.4 19.5-17.9 25.1-5 2.8-11.1 4.5-17.3 4.5-4.4 0-8.9-1.1-13.4-2.8l-294-120-166.3 182.5c-6.7 7.8-16.2 11.7-26.3 11.7-4.4 0-8.9-0.6-12.8-2.2-14-5.6-22.9-19-22.9-33.5v-252.2l-263.4-107.7c-12.8-5.1-21.2-16.8-22.3-30.7-1.1-13.4 6.1-26.3 17.9-33l928.5-535.7c11.7-7.2 26.8-6.7 38 1.1z m-190.9 836.5l123.4-738.2-800.3 461.4 187.5 76.5 481.6-356.6-266.7 444.8z" /></svg>