<svg height="1000" width="1000.0" xmlns="http://www.w3.org/2000/svg"><path d="m833.3 166.7h-132l-76.3-83.4h-250l-76.2 83.4h-132.1c-46.1 0-83.4 37.3-83.4 83.3v500c0 46 37.3 83.3 83.4 83.3h666.6c46.1 0 83.4-37.3 83.4-83.3v-500c0-46-37.3-83.3-83.4-83.3z m-333.3 125c67.9 0 127.7 33.1 165.8 83.3h-165.8c-69 0-125 56-125 125 0 14.8 2.9 28.5 7.7 41.7h-86.9c-2.7-13.6-4.1-27.3-4.1-41.7 0-115 93.3-208.3 208.3-208.3z m0 416.6c-67.9 0-127.7-32.9-165.6-83.3h165.6c69 0 125-56 125-125 0-14.6-2.9-28.5-7.7-41.7h86.9c2.7 13.6 4.1 27.3 4.1 41.7 0 115-93.3 208.3-208.3 208.3z" /></svg>