<svg height="1000" width="857.1" xmlns="http://www.w3.org/2000/svg"><path d="m847.7 360.5v0c7.2 33.5 5.5 72-2.3 113.8-36.2 184.2-158.5 247.8-315.3 247.8h-24.5c-19 0-34.6 13.9-38 32.9l-2.2 10.6-30.7 193.1-1.1 8.4c-3.9 18.9-19.5 32.9-38.5 32.9h-140.1c-15.6 0-25.6-12.8-23.4-28.5 10-62.5 19.5-125 29.6-187.5s20.1-124.4 30.1-186.9c1.7-13.4 10.6-20.6 24-20.6 22.3 0 44.6-0.6 73.1 0 40.2 0.5 86.5-1.7 131.7-11.8 60.3-13.4 114.9-37.9 160.1-80.3 40.8-38 68.1-84.8 86.5-137.3 8.4-24.6 15.1-49.1 19.6-74.2 1.1-6.7 2.8-5.6 6.7-2.8 30.7 22.9 48 53.6 54.7 90.4z m-96-157.4c0 45.8-10.6 89.3-25.7 131.7-29 84.3-83.7 144.6-168.5 175.8-45.2 16.2-92.7 22.9-140.6 23.4-33.5 0.6-67 0-100.5 0-36.3 0-59.1 17.9-65.8 53.6-7.9 42.4-38.5 240-47.5 295.8-0.5 3.9-2.2 5.6-6.7 5.6h-164.6c-16.7 0-29-14.6-26.8-30.7l129.5-820.9c3.3-21.2 22.3-37.4 44.1-37.4h333.7c24 0 79.2 10.6 116.6 25.1 79.2 30.7 122.8 93.2 122.8 178z" /></svg>