<svg height="1000" width="695.3" xmlns="http://www.w3.org/2000/svg"><path d="m439.5 335.9q0-66.4-101.6-66.4h-29.3q-13.7 0-25.4 8.8t-13.7 22.5l-27.3 117.2v5.8q0 9.8 6.8 16.6t16.6 6.9h23.5q29.3 0 54.7-5.9t47.8-17.6 35.2-34.2 12.7-53.7z m255.8 64.5q0 113.3-93.7 181.6-91.8 68.4-259.8 68.4h-25.4q-13.7 0-25.4 8.8t-13.7 22.4l-31.2 134.8q-3.9 13.7-17.6 24.4t-29.3 10.8h-89.8q-13.7 0-22.5-7.8t-8.8-21.5q0-3.9 5.9-27.4h62.5q15.6 0 28.3-9.7t14.7-23.5l31.2-134.7q3.9-13.7 16.6-23.5t26.4-9.7h25.4q166 0 257.8-68.4t91.8-179.7q0-54.7-21.5-85.9 78.1 39 78.1 140.6z m-78.1-78.1q0 111.3-93.8 181.6-91.8 68.4-259.7 68.4h-25.4q-13.7 0-25.4 8.8t-13.7 22.4l-31.2 132.8q-3.9 15.7-16.6 26.4t-30.3 10.7h-89.8q-13.7 0-22.5-7.8t-8.8-21.5v-7.8l128.9-552.7q2-13.7 15.6-24.4t29.3-10.8h189.5q27.3 0 51.7 1t51.8 5.9 47.8 12.7 41.1 21.5 33.2 31.2 20.5 43.9 7.8 57.7z" /></svg>