<svg height="1000" width="1000.0" xmlns="http://www.w3.org/2000/svg"><path d="m495.5 660.7l64.8-64.7-84.9-84.8-64.7 64.7v31.2h53.6v53.6h31.2z m245.6-401.8c-5.1-5-13.4-4.4-18.4 0.6l-195.4 195.3c-5 5-5.5 13.4-0.5 18.4s13.4 4.5 18.4-0.5l195.3-195.4c5-5 5.6-13.3 0.6-18.4z m44.6 331.5v106c0 88.8-72 160.7-160.7 160.7h-464.3c-88.7 0-160.7-71.9-160.7-160.7v-464.3c0-88.7 72-160.7 160.7-160.7h464.3c22.3 0 44.6 4.5 65.3 14 5 2.2 8.9 7.2 10 12.8 1.2 6.2-0.5 11.7-5 16.2l-27.3 27.3c-5.1 5.1-11.7 6.7-17.9 4.5-8.4-2.2-16.7-3.3-25.1-3.3h-464.3c-49.1 0-89.3 40.1-89.3 89.2v464.3c0 49.1 40.2 89.3 89.3 89.3h464.3c49.1 0 89.3-40.2 89.3-89.3v-70.3c0-4.4 1.7-8.9 5-12.3l35.7-35.7c5.6-5.6 12.9-6.7 19.6-3.9s11.1 8.9 11.1 16.2z m-53.6-411.8l160.8 160.7-375 375h-160.8v-160.7z m247.8 73.6l-51.3 51.4-160.7-160.7 51.3-51.4c20.6-20.6 55.2-20.6 75.9 0l84.8 84.8c20.7 20.7 20.7 55.3 0 75.9z" /></svg>