<svg height="1000" width="857.1" xmlns="http://www.w3.org/2000/svg"><path d="m202.6 857.1l50.7-50.7-131.1-131.2-50.8 50.8v59.7h71.5v71.4h59.7z m291.8-517.8c0-7.3-5-12.3-12.3-12.3-3.3 0-6.7 1.1-9.4 3.9l-302.5 302.5c-2.8 2.8-3.9 6.1-3.9 9.5 0 7.2 5 12.2 12.3 12.2 3.3 0 6.7-1.1 9.5-3.9l302.4-302.4c2.8-2.8 3.9-6.2 3.9-9.5z m-30.1-107.2l232.1 232.2-464.3 464.3h-232.1v-232.2z m381.1 53.6c0 19-7.8 37.4-20.6 50.2l-92.7 92.7-232.1-232.2 92.6-92c12.9-13.4 31.3-21.3 50.3-21.3s37.3 7.9 50.7 21.3l131.2 130.5c12.8 13.4 20.6 31.8 20.6 50.8z" /></svg>