<svg height="1000" width="857.1" xmlns="http://www.w3.org/2000/svg"><path d="m225.4 618.3l84.9 84.8-29 29h-31.3v-53.5h-53.6v-31.3z m231.1-217.6c4.4 3.9 3.3 11.7-1.7 16.7l-162.4 162.4c-5 5-12.8 6.1-16.7 1.7-4.5-3.9-3.4-11.7 1.6-16.8l162.4-162.4c5.1-5 12.9-6.1 16.8-1.6z m-152.9 385l303.5-303.6-160.7-160.7-303.5 303.6v160.7h160.7z m339.3-339.3l51.3-51.3c20.6-20.7 20.6-55.3 0-75.9l-84.8-84.8c-20.7-20.7-55.3-20.7-75.9 0l-51.4 51.3z m214.2-214.3v535.8c0 88.7-71.9 160.7-160.7 160.7h-535.7c-88.7 0-160.7-72-160.7-160.7v-535.8c0-88.7 72-160.7 160.7-160.7h535.7c88.8 0 160.7 72 160.7 160.7z" /></svg>