<svg height="1000" width="1000.0" xmlns="http://www.w3.org/2000/svg"><path d="m687.5 541.7c-50.2 0-128.1 13.9-187.5 41.8-59.4-27.9-137.3-41.8-187.5-41.8-90.2 0-270.8 45.2-270.8 135.4v114.6h916.6v-114.6c0-90.2-180.6-135.4-270.8-135.4z m-166.7 187.5h-416.6v-52.1c0-22.3 106.6-72.9 208.3-72.9s208.3 50.6 208.3 72.9v52.1z m375 0h-312.5v-52.1c0-19-8.3-35.8-21.6-50.8 36.8-12.5 81.8-22.1 125.8-22.1 101.7 0 208.3 50.6 208.3 72.9v52.1z m-583.3-229.2c80.6 0 145.8-65.4 145.8-145.8s-65.2-145.9-145.8-145.9c-80.4 0-145.8 65.5-145.8 145.9s65.4 145.8 145.8 145.8z m0-229.2c46 0 83.3 37.3 83.3 83.4s-37.3 83.3-83.3 83.3-83.3-37.3-83.3-83.3 37.3-83.4 83.3-83.4z m375 229.2c80.6 0 145.8-65.4 145.8-145.8s-65.2-145.9-145.8-145.9c-80.4 0-145.8 65.5-145.8 145.9s65.4 145.8 145.8 145.8z m0-229.2c46 0 83.3 37.3 83.3 83.4s-37.3 83.3-83.3 83.3-83.3-37.3-83.3-83.3 37.3-83.4 83.3-83.4z" /></svg>