<svg height="1000" width="857.1" xmlns="http://www.w3.org/2000/svg"><path d="m714.3 714.3c0-39.1-32.4-71.4-71.4-71.4s-71.5 32.3-71.5 71.4 32.4 71.4 71.5 71.4 71.4-32.4 71.4-71.4z m-428.6-428.6c0-39-32.4-71.4-71.4-71.4s-71.4 32.4-71.4 71.4 32.3 71.4 71.4 71.4 71.4-32.3 71.4-71.4z m571.4 428.6c0 118.3-95.9 214.3-214.2 214.3s-214.3-96-214.3-214.3 96-214.3 214.3-214.3 214.2 96 214.2 214.3z m-53.5-607.2c0 7.9-2.8 15.1-7.3 21.2l-589.3 785.8c-6.7 8.9-17.3 14.5-28.4 14.5h-89.3c-19.5 0-35.7-16.2-35.7-35.7 0-7.9 2.8-15.1 7.2-21.2l589.3-785.8c6.7-8.9 17.3-14.5 28.5-14.5h89.3c19.5 0 35.7 16.2 35.7 35.7z m-375 178.6c0 118.3-96 214.3-214.3 214.3s-214.3-96-214.3-214.3 96-214.3 214.3-214.3 214.3 96 214.3 214.3z" /></svg>