<svg height="1000" width="1000.0" xmlns="http://www.w3.org/2000/svg"><path d="m791.3 479.2c14.1 0 28.3 1.2 42 3.1v-482.3l-833.3 833.3h481.9c-1.9-13.7-3.1-27.5-3.1-41.6 0-172.5 140-312.5 312.5-312.5z m154.7 332.9c0.9-6.7 1.5-13.3 1.5-20.4 0-6.9-0.6-13.8-1.5-20.5l44-34.3c4-3.2 5-8.8 2.5-13.4l-41.7-72c-2.5-4.6-8.1-6.3-12.7-4.6l-51.8 20.8c-10.9-8.3-22.5-15.2-35.3-20.4l-7.7-55.2c-0.8-5-5.2-8.8-10.4-8.8h-83.3c-5.2 0-9.6 3.8-10.2 8.8l-7.7 55.2c-12.7 5.2-24.4 12.3-35.2 20.4l-51.9-20.8c-4.8-1.9-10.2 0-12.7 4.6l-41.7 72c-2.7 4.6-1.4 10.2 2.5 13.4l44 34.3c-0.9 6.7-1.5 13.6-1.5 20.5s0.6 13.7 1.5 20.4l-44 34.4c-3.9 3.1-5 8.7-2.5 13.3l41.7 72.1c2.7 4.6 8.1 6.2 12.7 4.6l51.9-20.9c10.8 8.4 22.5 15.2 35.2 20.4l7.7 55.2c0.8 5 5.2 8.8 10.2 8.8h83.3c5.2 0 9.4-3.8 10.2-8.8l7.7-55.2c12.7-5.2 24.4-12.3 35.2-20.4l51.9 20.9c4.8 1.8 10.2 0 12.7-4.6l41.7-72.1c2.7-4.6 1.4-10.2-2.5-13.3l-43.8-34.4z m-154.7 42.1c-34.6 0-62.5-27.9-62.5-62.5s27.9-62.5 62.5-62.5 62.5 27.9 62.5 62.5-28 62.5-62.5 62.5z" /></svg>