<svg height="1000" width="1000.0" xmlns="http://www.w3.org/2000/svg"><path d="m833.3 645.8c-51.8 0-102-8.3-148.7-23.7-14.4-4.6-30.8-1.3-42.3 10.2l-91.7 91.9c-118.1-60-214.4-156.5-274.6-274.4l91.7-91.9c11.5-11.4 14.8-27.9 10.2-42.3-15.4-46.9-23.7-97.1-23.7-148.9 0-23.2-18.6-41.7-41.7-41.7h-145.8c-23 0-41.7 18.5-41.7 41.7 0 391.2 317.1 708.3 708.3 708.3 23.2 0 41.7-18.5 41.7-41.7v-145.8c0-23.1-18.5-41.7-41.7-41.7z m0-479.1v-20.9c0-57.5-46.6-104.1-104.1-104.1s-104.2 46.6-104.2 104.1v20.9c-23.1 0-41.7 18.7-41.7 41.6v166.7c0 22.9 18.6 41.7 41.7 41.7h208.3c23.2 0 41.7-18.8 41.7-41.7v-166.7c0-22.9-18.5-41.6-41.7-41.6z m-33.3 0h-141.7v-20.9c0-39.1 31.7-70.8 70.9-70.8s70.8 31.7 70.8 70.8v20.9z" /></svg>