<svg height="1000" width="1000.0" xmlns="http://www.w3.org/2000/svg"><path d="m612.7 395.8l95.6-95.6v158.1h20.9l118.9-118.9-89.6-89.4 89.4-89.4-118.7-118.9h-20.9v158.1l-95.6-95.6-29.4 29.3 116.5 116.5-116.5 116.5 29.4 29.3z m137.3-274.3l39.2 39.1-39.2 39.2v-78.3z m0 178.7l39.2 39.2-39.2 39.1v-78.3z m83.3 345.6c-51.8 0-101.8-8.3-148.7-23.7-14.4-4.6-30.8-1.3-42.3 10.2l-91.7 91.9c-118.1-60-214.4-156.5-274.6-274.4l91.7-91.9c11.5-11.4 14.8-27.9 10.2-42.3-15.4-46.9-23.7-97.1-23.7-148.9 0-23.2-18.6-41.7-41.7-41.7h-145.8c-23.2 0-41.7 18.5-41.7 41.7 0 391.2 317.1 708.3 708.3 708.3 23.2 0 41.7-18.5 41.7-41.7v-145.8c0-23.1-18.5-41.7-41.7-41.7z" /></svg>