<svg height="1000" width="857.1" xmlns="http://www.w3.org/2000/svg"><path d="m714.3 665.7c0-2.8 0-6.1-1.1-8.9-3.4-10-84.9-51.3-100.5-60.3-10.6-6.1-23.4-18.4-36.2-18.4-24.6 0-60.9 73.1-82.6 73.1-11.2 0-25.1-10-35.2-15.6-73.7-41.3-124.4-92.1-165.7-165.7-5.6-10.1-15.7-24-15.7-35.2 0-21.8 73.1-58 73.1-82.6 0-12.8-12.2-25.6-18.4-36.3-8.9-15.6-50.2-97-60.2-100.4-2.8-1.1-6.2-1.1-9-1.1-14.5 0-42.9 6.7-56.3 12.3-36.9 16.7-63.6 87-63.6 125.5 0 37.4 15 71.4 27.9 106 44.6 122.3 177.4 255.1 299.6 299.7 34.6 12.8 68.7 27.9 106.1 27.9 38.5 0 108.8-26.8 125.5-63.6 5.6-13.4 12.3-41.9 12.3-56.4z m142.8-433.6v535.8c0 88.7-71.9 160.7-160.7 160.7h-535.7c-88.7 0-160.7-72-160.7-160.7v-535.8c0-88.7 72-160.7 160.7-160.7h535.7c88.8 0 160.7 72 160.7 160.7z" /></svg>