<svg height="1000" width="750.0" xmlns="http://www.w3.org/2000/svg"><path d="m709 646.5q15.6 0 28.3 11.7t12.7 29.3v146.5q0 15.6-12.7 28.3t-28.3 12.7q-193.4 0-356.5-94.7t-257.8-257.8-94.7-356.5q0-15.6 12.7-28.3t28.3-12.7h146.5q17.6 0 29.3 12.7t11.7 28.3q0 78.1 23.5 148.5 7.8 25.3-9.8 42.9l-91.8 91.8q91.8 181.7 275.4 275.4l91.8-91.8q17.6-17.6 42.9-9.8 70.4 23.5 148.5 23.5z m0-480.5q15.6 0 28.3 12.7t12.7 30.3v166q0 17.6-12.7 29.3t-28.3 11.7h-209q-17.6 0-29.3-11.7t-11.7-29.3v-166q0-17.6 11.7-30.3t29.3-12.7v-19.5q0-43 30.3-74.2t73.2-31.3 74.2 31.3 31.3 74.2v19.5z m-33.2 0v-19.5q0-29.3-21.5-50.8t-50.8-21.5-49.8 21.5-20.5 50.8v19.5h142.6z" /></svg>