<svg height="1000" width="1000.0" xmlns="http://www.w3.org/2000/svg"><path d="m833.3 645.8c-51.8 0-101.8-8.3-148.7-23.7-14.4-4.6-30.8-1.3-42.3 10.2l-91.7 91.9c-118.1-60-214.4-156.5-274.6-274.4l91.7-91.9c11.5-11.4 14.8-27.9 10.2-42.3-15.4-46.9-23.7-97.1-23.7-148.9 0-23.2-18.6-41.7-41.7-41.7h-145.8c-23.2 0-41.7 18.5-41.7 41.7 0 391.2 317.1 708.3 708.3 708.3 23.2 0 41.7-18.5 41.7-41.7v-145.8c0-23.1-18.5-41.7-41.7-41.7z m-41.6-145.8h83.3c0-207.1-167.9-375-375-375v83.3c161 0 291.7 130.7 291.7 291.7z m-166.7 0h83.3c0-115-93.3-208.3-208.3-208.3v83.3c69 0 125 56 125 125z" /></svg>