<svg height="1000" width="785.7" xmlns="http://www.w3.org/2000/svg"><path d="m785.7 692c0 20.1-8.9 59.1-17.3 77.5-11.7 27.4-43 45.2-68.1 59.2-32.9 17.8-66.4 28.4-103.8 28.4-51.9 0-98.7-21.2-146.2-38.5-34-12.2-66.9-27.3-97.6-46.3-94.9-58.6-209.3-173-267.9-267.8-19-30.7-34-63.7-46.3-97.7-17.3-47.4-38.5-94.3-38.5-146.2 0-37.4 10.6-70.9 28.5-103.8 13.9-25.1 31.8-56.4 59.1-68.1 18.4-8.3 57.5-17.3 77.6-17.3 3.9 0 7.8 0 11.7 1.7 11.7 3.9 24 31.3 29.6 42.4 17.8 31.8 35.1 64.2 53.5 95.4 9 14.5 25.7 32.4 25.7 49.7 0 34-101 83.7-101 113.8 0 15.1 14 34.6 21.8 48 56.3 101.6 126.6 171.9 228.2 228.3 13.4 7.8 32.9 21.7 48 21.7 30.1 0 79.8-101 113.8-101 17.3 0 35.2 16.8 49.7 25.7 31.3 18.4 63.6 35.7 95.4 53.6 11.2 5.6 38.5 17.8 42.4 29.5 1.7 4 1.7 7.9 1.7 11.8z" /></svg>