<svg height="1000" width="1000.0" xmlns="http://www.w3.org/2000/svg"><path d="m270.8 229.2l229.2 229.1 291.7-291.6-41.7-41.7-250 250-187.5-187.5h145.8v-62.5h-250v250h62.5v-145.8z m716.9 465.4c-126.9-120.6-298.7-194.6-487.7-194.6s-360.8 74-487.7 194.6c-7.7 7.7-12.3 18.1-12.3 29.6s4.6 21.8 12.3 29.3l103.1 103.4c7.5 7.5 17.9 12.3 29.6 12.3 11.3 0 21.7-4.6 29.2-11.9 32.9-30.6 70.4-56.7 111-77.3 13.8-6.9 23.3-21 23.3-37.5v-129.4c60.3-19.4 124.6-29.8 191.5-29.8s131.3 10.4 191.7 30v129.4c0 16.5 9.6 30.6 23.3 37.5 40.6 20.4 78.1 46.5 111 77.3 7.5 7.3 17.8 11.9 29.2 11.9s21.9-4.6 29.6-12.3l103.1-103.4c7.5-7.5 12.3-17.9 12.3-29.3s-4.8-22.1-12.5-29.8z" /></svg>