<svg height="1000" width="750.0" xmlns="http://www.w3.org/2000/svg"><path d="m709 646.5q15.6 0 28.3 11.7t12.7 29.3v146.5q0 15.6-12.7 28.3t-28.3 12.7q-193.4 0-356.5-94.7t-257.8-257.8-94.7-356.5q0-15.6 12.7-28.3t28.3-12.7h146.5q17.6 0 29.3 12.7t11.7 28.3q0 78.1 23.5 148.5 7.8 25.3-9.8 42.9l-91.8 91.8q91.8 181.7 275.4 275.4l91.8-91.8q17.6-17.6 42.9-9.8 70.4 23.5 148.5 23.5z m-43-146.5q0-121.1-84.9-206.1t-206.1-84.9v-84q156.3 0 265.6 109.4t109.4 265.6h-84z m-166 0q0-52.7-36.1-88.9t-88.9-36.1v-84q85.9 0 147.5 61.5t61.5 147.5h-84z" /></svg>