<svg height="1000" width="916.0" xmlns="http://www.w3.org/2000/svg"><path d="m916 625v84h-82v-84h82z m0-166v82h-82v-82h82z m0 332q0 31.3-25.4 57.6t-56.6 26.4v-84h82z m-332-666v84h-84v-84h84z m332 166v84h-82v-84h82z m-82-166q31.2 0 56.6 26.4t25.4 57.6h-82v-84z m-750 750q-35.2 0-59.6-24.4t-24.4-59.6v-166h416v250h-332z m0-584v84h-84v-84h84z m500 500v84h-84v-84h84z m166-666v84h-84v-84h84z m0 666v84h-84v-84h84z m-666-666v84h-84q0-31.3 26.4-57.6t57.6-26.4z m0 334v82h-84v-82h84z m332-334v84h-82v-84h82z m-166 0v84h-84v-84h84z" /></svg>