<svg height="1000" width="916.0" xmlns="http://www.w3.org/2000/svg"><path d="m834 625h82v84h-82v-84z m0-166h82v82h-82v-82z m82 332q0 31.3-25.4 57.6t-56.6 26.4v-84h82z m-416-666h84v84h-84v-84z m334 166h82v84h-82v-84z m0-166q31.2 0 56.6 26.4t25.4 57.6h-82v-84z m-834 166h84v84h-84v-84z m666-166h84v84h-84v-84z m0 666h84v84h-84v-84z m-582-666v84h-84q0-31.3 26.4-57.6t57.6-26.4z m250 0h82v84h-82v-84z m-168 0h84v84h-84v-84z m-166 334h584v416h-500q-35.2 0-59.6-24.4t-24.4-59.6v-332z m84 332h416l-132.8-177.7-105.5 134.7-74.2-89.8z" /></svg>