<svg height="1000" width="1285.7" xmlns="http://www.w3.org/2000/svg"><path d="m1285.7 0c-162.4 107.7-179.7 185.8-193.6 209.8-13.4 24.6-23.5 121.1-46.9 168-23.4 47.4-108.8 84.8-132.8 100.4-23.4 15.7-56.9 76.5-84.3 128.9-123.3-5-245.5 25.2-351.5 88.2 0 0-51.4 29.6-169.1 99.9 59.1-19.5 87-33.5 87-33.5 147.4-56.3 186.4-83.1 305.3-102.7 91.5-15 209.8-2.7 259.5 3.9 2.2 0 3.9 1.2 5.5 1.7 7.9 4.5 10.6 14 6.2 21.8l-108.3 192.5c-5 9.5-15.6 14.5-26.2 12.3-26.8-5-88.2-13.4-197.5-13.4-158.5 0-287.4 48.5-443.1 50.8-131.2 1.6-182.5-51.9-195.3-69.2 0-0.6-0.6-1.1-0.6-1.7 0-2.2 1.1-3.3 3.3-3.3 0 0 77.1 0 207.1-30.7 147.9-281.8 279.6-380.6 423-380.6 0 0 143.9 0 181.9 124.4 45.7-79.8 56.9-98.8 56.9-98.8 10.6-18.9 70.3-155.1 173.6-284v0c103.8-128.9 181.9-160.7 239.9-184.7z" /></svg>