<svg height="1000" width="857.1" xmlns="http://www.w3.org/2000/svg"><path d="m583.7 569.2c0 47.4-32.4 85.9-72 85.9-16.2 0-29-2.8-39-8.3v-154.6c10-6.2 22.8-9.5 39-9.5 39.6 0 72 38.5 72 86.5z m-191.4-238.8c0 47.9-32.4 86.5-72 86.5-16.2 0-29-2.8-39-8.4v-154.6c10-6.1 22.8-9.5 39-9.5 39.6 0 72 38.5 72 86z m313.6 240.5c0-99.9-75.3-180.8-168-180.8-7.2 0-14.5 0.5-21.7 1.6-8.4 28.5-22.9 54.2-43.5 75.9-31.3 34.1-73.1 54.2-117.8 56.4v354.9l117.8-22.9v-114.9c19.5 7.2 41.3 10.6 65.2 10.6 92.7 0 168-80.9 168-180.8z m-191.4-238.3c0-99.9-75.3-180.8-168.5-180.8-27.4 0-54.7 7.2-78.7 20.1h-103.8v468.7l117.8-22.9v-114.9c19.5 6.7 41.2 10.6 64.7 10.6 93.2 0 168.5-80.9 168.5-180.8z m342.6-100.5v535.8c0 88.7-71.9 160.7-160.7 160.7h-535.7c-88.7 0-160.7-72-160.7-160.7v-535.8c0-88.7 72-160.7 160.7-160.7h535.7c88.8 0 160.7 72 160.7 160.7z" /></svg>