<svg height="1000" width="834.0" xmlns="http://www.w3.org/2000/svg"><path d="m459 675.8q103.5 0 160.1-68.4t56.7-160.1q0-101.6-76.2-174.8t-182.6-73.3-182.6 73.3-76.2 174.8q0 66.4 35.2 123 11.7 21.5 35.1 21.5 17.6 0 30.3-12.7t12.7-28.3q0-9.8-7.8-21.5-21.5-39.1-21.5-82 0-68.4 50.8-116.2t123-47.9 124 47.9 51.8 116.2q0 58.6-32.2 100.6t-100.6 41.9q-23.5 0-39.1-16.6t-15.6-40q0-17.6 18.6-55.7t18.5-69.3q0-54.7-60.5-54.7-27.4 0-47.9 22.5t-20.5 71.3q0 15.6 2 31.2t3.9 23.5l1.9 5.8-76.2 232.4-1.9 7.8v3 2.9q0 19.5 12.7 33.2t32.2 13.7q27.4 0 39.1-23.5l1.9 2 2-7.8 39-134.8q37.2 39.1 89.9 39.1z m291-591.8q35.2 0 59.6 24.4t24.4 57.6v668q0 33.2-24.4 57.6t-59.6 24.4h-666q-35.2 0-59.6-24.4t-24.4-57.6v-668q0-33.2 24.4-57.6t59.6-24.4h666z" /></svg>