<svg height="1000" width="857.1" xmlns="http://www.w3.org/2000/svg"><path d="m857.1 500c0 236.6-191.9 428.6-428.5 428.6-42.4 0-82.6-6.2-121.7-17.9 16.2-25.7 34.6-58.6 43.5-91.5 0 0 5.1-19 30.2-117.7 14.5 28.4 58 53.5 104.3 53.5 137.9 0 231.6-125.5 231.6-294.1 0-126.6-107.7-245.5-271.7-245.5-203.2 0-305.8 146.2-305.8 267.9 0 73.6 27.9 139.5 87.6 164 9.4 3.9 18.4 0 21.2-11.1 2.2-7.3 6.7-26.3 8.9-34.1 2.8-11.1 1.7-14.5-6.1-24-17.3-20.6-28.5-46.8-28.5-84.2 0-108.3 80.9-205.4 210.9-205.4 115 0 178.6 70.3 178.6 164.6 0 123.4-54.7 227.7-136.2 227.7-44.6 0-78.1-36.8-67.5-82.6 12.9-54.1 38-112.7 38-151.8 0-35.1-19-64.7-58.1-64.7-45.7 0-82.6 47.4-82.6 111 0 0 0 40.8 14 68.1-46.9 198.7-55.2 233.3-55.2 233.3-7.9 32.4-8.4 68.6-7.3 98.8-151.2-66.4-256.7-217.1-256.7-392.9 0-236.6 192-428.6 428.6-428.6s428.5 192 428.5 428.6z" /></svg>