<svg height="1000" width="785.7" xmlns="http://www.w3.org/2000/svg"><path d="m642.9 446.4v35.7c0 10.1-7.9 17.9-17.9 17.9h-196.4v196.4c0 10.1-7.8 17.9-17.9 17.9h-35.7c-10 0-17.9-7.8-17.9-17.9v-196.4h-196.4c-10 0-17.8-7.8-17.8-17.9v-35.7c0-10 7.8-17.8 17.8-17.8h196.4v-196.5c0-10 7.9-17.8 17.9-17.8h35.7c10.1 0 17.9 7.8 17.9 17.8v196.5h196.4c10 0 17.9 7.8 17.9 17.8z m71.4 250v-464.3c0-49.1-40.2-89.2-89.3-89.2h-464.3c-49.1 0-89.3 40.1-89.3 89.2v464.3c0 49.1 40.2 89.3 89.3 89.3h464.3c49.1 0 89.3-40.2 89.3-89.3z m71.4-464.3v464.3c0 88.8-72 160.7-160.7 160.7h-464.3c-88.7 0-160.7-71.9-160.7-160.7v-464.3c0-88.7 72-160.7 160.7-160.7h464.3c88.7 0 160.7 72 160.7 160.7z" /></svg>