<svg height="1000" width="857.1" xmlns="http://www.w3.org/2000/svg"><path d="m678.6 535.7v-71.4c0-19.5-16.2-35.7-35.7-35.7h-142.9v-142.9c0-19.5-16.2-35.7-35.7-35.7h-71.4c-19.6 0-35.8 16.2-35.8 35.7v142.9h-142.8c-19.5 0-35.7 16.2-35.7 35.7v71.4c0 19.5 16.2 35.7 35.7 35.7h142.8v142.9c0 19.5 16.2 35.7 35.8 35.7h71.4c19.5 0 35.7-16.2 35.7-35.7v-142.9h142.9c19.5 0 35.7-16.2 35.7-35.7z m178.5-35.7c0 236.6-191.9 428.6-428.5 428.6s-428.6-192-428.6-428.6 192-428.6 428.6-428.6 428.5 192 428.5 428.6z" /></svg>