<svg height="1000" width="834.0" xmlns="http://www.w3.org/2000/svg"><path d="m834 226.6v72.2 146.5q0 76.2-19.5 134.8-35.2 117.2-132.9 199.2-103.5 85.9-236.3 93.7-136.7 9.8-251.9-62.5-105.5-68.3-156.3-181.6-29.3-64.4-35.1-128.9-2-35.2-2-146.5v-71.3-75.2q0-27.3 14.6-48.8t40.1-29.3q15.6-3.9 31.2-3.9h39.1 74.2 144.6 41 31.2q48.8 0 147.5 1t147.4 1q52.8 0 68.4 3.9 27.3 7.8 43 33.2 11.7 17.5 11.7 62.5z m-166 189.4q9.7-29.3-11.7-52.7-19.6-25.4-52.8-19.5-9.7 0-18.5 5.8t-13.7 9.8-15.6 14.6l-12.7 12.7q-109.4 107.4-125 121.1-3.9-1.9-109.4-103.5-13.7-13.7-29.3-27.3-21.5-21.5-27.3-25.4-25.4-17.6-52.8-3.9-29.3 11.7-34.2 41.9t16.6 51.8q2 0 113.3 109.4l54.7 50.8q2 3.9 10.8 12.7t13.6 12.7 13.7 9.7 16.6 7.8q29.3 5.9 52.7-15.6 7.8-7.8 17.6-16.6t21.5-20.5l17.6-17.6q101.5-97.6 113.3-107.4l10.7-10.7 12.7-12.7t9.8-11.8 7.8-15.6z" /></svg>