<svg height="1000" width="834.0" xmlns="http://www.w3.org/2000/svg"><path d="m710.9 205.1q123.1 123 123.1 294.9t-122.1 293.9-294.9 122.1-294.9-122.1-122.1-293.9 122.1-293.9 293.9-122.1h43v343.7q41 23.5 41 72.3 0 35.2-24.4 59.6t-58.6 24.4-58.6-24.4-24.4-59.6q0-46.9 41-72.3v-87.9q-54.7 13.7-89.8 58.6t-35.2 101.6q0 68.4 48.8 117.2t118.2 48.8 118.2-48.8 48.8-117.2-48.8-117.2l58.6-58.6q72.2 72.3 72.2 175.8t-73.2 176.8-176.8 73.2-176.7-73.2-73.3-176.8q0-91.8 59.6-161.1t149.4-85v-84q-125 15.6-208 109.4t-83 220.7q0 138.7 97.6 236.3t235.4 97.7 235.3-97.7 97.7-236.3q0-136.7-97.7-236.3z" /></svg>