<svg height="1000" width="834.0" xmlns="http://www.w3.org/2000/svg"><path d="m648.4 593.8l-66.4-68.4q2-13.7 2-25.4 0-68.4-48.8-117.2t-119.2-48.8q-7.8 0-25.4 1.9l-66.4-68.3q44.9-17.6 91.8-17.6 103.5 0 176.8 73.2t73.2 176.8q0 48.8-17.6 93.8z m-232.4-427.8q-82 0-156.2 39.1l-60.6-60.6q101.6-60.5 216.8-60.5 173.8 0 295.9 122.1t122.1 293.9q0 117.2-62.5 216.8l-60.6-60.5q39.1-74.3 39.1-156.3 0-138.7-97.7-236.3t-236.3-97.7z m-363.3-62.5l41.1 43 697.2 697.3-52.7 52.7-312.5-314.5-9.8 2q-33.2 0-57.6-24.4t-24.4-59.6v-7.8l-66.4-66.4q-17.6 37.1-17.6 74.2 0 95.7 84 144.5l-43 72.3q-56.6-33.2-90.8-90.8t-34.2-126q0-74.2 41-134.8l-60.5-60.5q-62.5 85.9-62.5 195.3 0 91.8 44.9 168t121.1 121.1l-43 72.2q-93.7-56.6-150.4-152.3t-56.6-209q0-142.6 87.9-255.9l-87.9-87.8z" /></svg>