<svg height="1000" width="1000.0" xmlns="http://www.w3.org/2000/svg"><path d="m731.7 593.3c11.6-28.7 18.3-60.2 18.3-93.3 0-138.1-111.9-250-250-250-33.1 0-64.6 6.7-93.5 18.3l67.7 67.7c8.5-1.4 17-2.7 25.8-2.7 92.1 0 166.7 74.6 166.7 166.7 0 9-0.9 17.7-2.3 26l67.3 67.3z m-231.7-426.6c184.2 0 333.3 149.1 333.3 333.3 0 56.5-14.5 109.2-39.3 155.6l61.2 61.3c38.8-63.1 61.5-137.3 61.5-216.9 0-230.2-186.7-416.7-416.7-416.7-79.6 0-153.8 22.7-216.9 61.5l60.9 60.8c46.4-24.8 99.5-38.9 156-38.9z m-363.7-62.5l-53 53.1 87.7 87.7c-54.8 70.4-87.7 158.8-87.7 255 0 154 83.8 288.1 208.2 360.2l41.6-72.1c-99.3-57.5-166.4-165-166.4-288.1 0-73.1 23.7-140.6 63.7-195.6l59.8 59.8c-25.4 39.1-40.2 85.6-40.2 135.8 0 92.5 50.2 172.9 124.8 216.3l42.1-72.5c-49.8-29-83.6-82.1-83.6-143.8 0-26.9 7.1-51.9 18.4-74.4l65.8 65.9-0.8 8.5c0 46 37.3 83.3 83.3 83.3l8.5-0.8 313.4 313.3 53.1-53.1-738.7-738.5z" /></svg>