<svg height="1000" width="857.1" xmlns="http://www.w3.org/2000/svg"><path d="m857.1 500c0 236-192.5 428.6-428.5 428.6s-428.6-192.6-428.6-428.6c0-135.6 62.5-260.6 171.3-342.1 31.8-24 76.5-17.8 99.9 14 24 31.2 17.3 76.4-13.9 99.9-72.6 54.7-114.4 137.8-114.4 228.2 0 157.4 128.3 285.7 285.7 285.7s285.7-128.3 285.7-285.7c0-90.4-41.9-173.5-114.4-228.2-31.3-23.5-38-68.7-14-99.9 23.5-31.8 68.7-38 99.9-14 108.8 81.5 171.3 206.5 171.3 342.1z m-357.1-428.6v357.2c0 39-32.4 71.4-71.4 71.4s-71.5-32.4-71.5-71.4v-357.2c0-39 32.4-71.4 71.5-71.4s71.4 32.4 71.4 71.4z" /></svg>