<svg height="1000" width="928.6" xmlns="http://www.w3.org/2000/svg"><path d="m214.3 857.1h500v-142.8h-500v142.8z m0-357.1h500v-214.3h-89.3c-29.6 0-53.6-24-53.6-53.6v-89.2h-357.1v357.1z m642.8 35.7c0-19.5-16.1-35.7-35.7-35.7s-35.7 16.2-35.7 35.7 16.2 35.7 35.7 35.7 35.7-16.2 35.7-35.7z m71.5 0v232.2c0 9.4-8.4 17.8-17.9 17.8h-125v89.3c0 29.6-24 53.6-53.6 53.6h-535.7c-29.5 0-53.5-24-53.5-53.6v-89.3h-125c-9.5 0-17.9-8.4-17.9-17.8v-232.2c0-58.6 48.5-107.1 107.1-107.1h35.8v-303.6c0-29.6 24-53.6 53.5-53.6h375c29.6 0 70.3 16.8 91.5 38l84.9 84.8c21.2 21.2 37.9 61.9 37.9 91.5v142.9h35.7c58.6 0 107.2 48.5 107.2 107.1z" /></svg>