<svg height="1000" width="1000.0" xmlns="http://www.w3.org/2000/svg"><path d="m500 83.3c-230.2 0-416.7 186.5-416.7 416.7s186.5 416.7 416.7 416.7 416.7-186.5 416.7-416.7-186.5-416.7-416.7-416.7z m-41.7 747.1c-164.3-20.4-291.6-160.4-291.6-330.4 0-25.6 3.1-50.6 8.7-74.6l199.6 199.6v41.7c0 46 37.3 83.3 83.3 83.3v80.4z m287.3-105.6c-10.6-33.8-41.8-58.1-78.9-58.1h-41.7v-125c0-22.9-18.7-41.7-41.7-41.7h-250v-83.3h83.4c22.9 0 41.6-18.8 41.6-41.7v-83.3h83.4c46 0 83.3-37.3 83.3-83.4v-17.3c122.1 49.4 208.3 169 208.3 309 0 86.7-33.3 165.4-87.7 224.8z" /></svg>