<svg height="1000" width="857.1" xmlns="http://www.w3.org/2000/svg"><path d="m500 767.9v-107.2c0-10-7.8-17.8-17.9-17.8h-107.1c-10 0-17.9 7.8-17.9 17.8v107.2c0 10 7.9 17.8 17.9 17.8h107.1c10.1 0 17.9-7.8 17.9-17.8z m142.9-375c0-102.2-107.2-178.6-203.2-178.6-90.9 0-159 39-207 118.8-5 7.9-2.8 17.9 4.5 23.5l73.6 55.8c2.8 2.2 6.7 3.3 10.6 3.3 5.1 0 10.6-2.2 14-6.7 26.2-33.4 37.4-43.5 48-51.3 9.5-6.7 27.9-13.4 48-13.4 35.7 0 68.6 22.9 68.6 47.4 0 29.1-15.1 43.6-49.1 59.2-39.6 17.9-93.8 64.2-93.8 118.3v20.1c0 10 7.9 17.8 17.9 17.8h107.1c10.1 0 17.9-7.8 17.9-17.8v0c0-12.8 16.2-40.2 42.4-55.3 42.4-24 100.5-56.3 100.5-141.1z m214.2 107.1c0 236.6-191.9 428.6-428.5 428.6s-428.6-192-428.6-428.6 192-428.6 428.6-428.6 428.5 192 428.5 428.6z" /></svg>