<svg height="1000" width="571.4" xmlns="http://www.w3.org/2000/svg"><path d="m392.9 700.9v133.9c0 12.3-10.1 22.3-22.4 22.3h-133.9c-12.3 0-22.3-10-22.3-22.3v-133.9c0-12.3 10-22.3 22.3-22.3h133.9c12.3 0 22.4 10 22.4 22.3z m176.3-334.8c0 106-72 146.7-125 176.3-32.9 19-53.6 57.5-53.6 73.7v0c0 12.2-9.5 26.8-22.3 26.8h-133.9c-12.3 0-20.1-19-20.1-31.3v-25.1c0-67.5 67-125.6 116.1-147.9 42.9-19.5 60.8-37.9 60.8-73.6 0-31.3-40.8-59.2-86-59.2-25.1 0-47.9 7.8-60.2 16.2-13.4 9.5-26.8 22.9-59.7 64.2-4.5 5.5-11.2 8.9-17.3 8.9-5.1 0-9.5-1.7-14-4.5l-91.5-69.7c-9.5-7.3-11.7-19.6-5.6-29.6 60.3-99.9 145.1-148.4 258.9-148.4 119.5 0 253.4 95.4 253.4 223.2z" /></svg>