<svg height="1000" width="1000.0" xmlns="http://www.w3.org/2000/svg"><path d="m371.7 268.4c-31.3 48-54.2 99.9-76.5 152.4-32.4-67.6-68.1-135.1-152.3-135.1h-125c-10.1 0-17.9-7.8-17.9-17.8v-107.2c0-10 7.8-17.8 17.9-17.8h125c99.3 0 172.4 46.3 228.8 125.5z m628.3 445.9c0 4.5-1.7 9.5-5 12.8l-178.6 178.6c-3.3 3.3-8.4 5-12.8 5-9.5 0-17.9-8.4-17.9-17.8v-107.2c-165.7 0-267.8 19.5-371.1-125.5 30.7-48 53.6-99.9 75.9-152.4 32.4 67.5 68.1 135.1 152.4 135.1h142.8v-107.2c0-10 7.8-17.8 17.9-17.8 5 0 9.5 2.2 13.4 5.5l178 178.1c3.3 3.3 5 8.3 5 12.8z m0-500c0 4.5-1.7 9.5-5 12.8l-178.6 178.6c-3.3 3.3-8.4 5-12.8 5-9.5 0-17.9-7.8-17.9-17.8v-107.2h-142.8c-74.3 0-109.4 50.8-140.7 111.1-16.2 31.2-30.1 63.6-43.5 95.4-61.9 144-134.5 293.5-315.8 293.5h-125c-10.1 0-17.9-7.8-17.9-17.8v-107.2c0-10 7.8-17.8 17.9-17.8h125c74.2 0 109.3-50.8 140.6-111.1 16.2-31.2 30.1-63.6 43.5-95.4 62-144 134.5-293.5 315.9-293.5h142.8v-107.2c0-10 7.8-17.8 17.9-17.8 5 0 9.5 2.2 13.4 5.5l178 178.1c3.3 3.3 5 8.3 5 12.8z" /></svg>