<svg height="1000" width="1000.0" xmlns="http://www.w3.org/2000/svg"><path d="m1000 472.1c0 43.5-24.6 80.9-60.8 99.3 4.4 17.3 6.7 35.2 6.7 53.6 0 176.3-199.2 319.2-444.8 319.2-245 0-444.2-142.9-444.2-319.2 0-17.9 2.3-35.7 6.2-52.5-37.4-18.4-63.1-56.3-63.1-100.4 0-61.4 49.7-111.1 111-111.1 31.9 0 60.3 13.4 81 35.2 75.3-52.4 175.7-86.5 287.4-90.4l64.7-290.7c2.2-10.1 12.8-16.8 22.9-14.5l205.9 45.2c13.4-26.8 41.8-45.8 74.2-45.8 46.3 0 83.7 37.4 83.7 83.1 0 46.4-37.4 83.8-83.7 83.8-45.8 0-83.1-37.4-83.1-83.2l-186.4-41.3-58.1 263.4c112.2 3.4 213.8 36.8 289.7 89.3 20-21.2 48.5-34.1 79.8-34.1 61.3 0 111 49.7 111 111.1z m-766.7 111c0 46.4 37.3 83.8 83.1 83.8 46.3 0 83.7-37.4 83.7-83.8 0-45.7-37.4-83.1-83.7-83.1-45.8 0-83.1 37.4-83.1 83.1z m452 198.2c8.3-8.4 8.3-20.7 0-29.1-7.8-7.8-20.7-7.8-28.5 0-33.5 34.1-105.5 45.8-156.8 45.8s-123.3-11.7-156.8-45.8c-7.8-7.8-20.7-7.8-28.5 0-8.3 7.8-8.3 20.7 0 29.1 53 53 155.2 56.9 185.3 56.9s132.3-3.9 185.3-56.9z m-1.7-114.4c45.8 0 83.1-37.4 83.1-83.8 0-45.7-37.3-83.1-83.1-83.1-46.3 0-83.7 37.4-83.7 83.1 0 46.4 37.4 83.8 83.7 83.8z" /></svg>