<svg height="1000" width="857.1" xmlns="http://www.w3.org/2000/svg"><path d="m530.1 637.8c5.1-5 14-5 19.6 0 5.5 5.6 5.5 14.5 0 20.1-24.6 24-62.5 35.7-116.1 35.7h-0.6-0.5c-53.6 0-91.5-11.7-115.5-35.7-5.6-5.6-5.6-14.5 0-20.1 5-5 13.9-5 19.5 0 18.4 19 50.2 28.5 96 28.5h0.5 0.6c45.8 0 77.6-9.5 96.5-28.5z m-155.7-122.7c0 27.3-22.3 50.7-49.6 50.7-27.9 0-49.7-23.4-49.7-50.7s21.8-49.7 49.7-49.7c27.3 0 49.6 22.3 49.6 49.7z m303.1-243.3c-21.8 0-39.7-17.9-39.7-39.7 0-22.3 17.9-40.1 39.7-40.1 22.3 0 40.1 17.8 40.1 40.1 0 21.8-17.8 39.7-40.1 39.7z m1.1-200.4c98.2 0 178.5 80.4 178.5 179.2v498.8c0 98.8-80.3 179.2-178.5 179.2h-500c-98.2 0-178.6-80.4-178.6-179.2v-498.8c0-98.8 80.4-179.2 178.6-179.2h500z m58.6 453.2c25.6-10.1 44.1-35.2 44.1-64.8 0-37.9-30.7-69.2-68.7-69.2-22.3 0-41.8 10.6-54.7 26.8-52.4-37.4-126.6-61.4-209.2-64.2l46.3-147.8 114.9 27.3c0.6 36.8 30.7 67 67.6 67 37.3 0 68-30.2 68-67.6s-30.7-68-68-68c-27.4 0-51.4 17.3-62 41.3l-126.7-30.2c-6.7-1.7-13.9 2.3-16.1 9.5l-53.1 168.5c-83.7 1.7-158.4 25.7-212.6 63.1-12.2-14.5-31.2-24-51.9-24-37.9 0-68.6 31.2-68.6 69.2 0 27.9 16.2 51.9 40.2 63.1-2.8 10-3.9 20-3.9 30.1 0 111.6 138.4 202 309.1 202 170.2 0 308.6-90.4 308.6-202 0-10.1-1.1-20.1-3.3-30.1z m-195.3-59.2c27.9 0 49.6 22.3 49.6 49.7s-21.7 50.7-49.6 50.7c-27.4 0-49.7-23.4-49.7-50.7s22.3-49.7 49.7-49.7z" /></svg>