<svg height="1000" width="1285.7" xmlns="http://www.w3.org/2000/svg"><path d="m842.1 797.4c0 6.2-2.8 11.2-6.7 16.2-43 48.6-131.7 59.7-192 59.7-60.8 0-150.1-10.6-193.1-59.7-3.9-5-6.7-10-6.7-16.2 0-12.8 10.6-23.4 22.9-23.4 6.7 0 11.7 2.8 16.8 6.7 46.8 39.6 98.7 46.3 159 46.3s112.7-6.7 160.2-46.3c5-3.9 10-6.7 16.7-6.7 12.3 0 22.9 10.6 22.9 23.4z m-296.3-218.2c0 45.2-36.9 82.1-82.1 82.1-44.6 0-83.1-36.9-83.1-82.1s37.9-83.1 83.1-83.1 82.1 37.9 82.1 83.1z m359.3 0c0 45.2-36.8 82.1-82 82.1-44.6 0-83.1-36.9-83.1-82.1s37.9-83.1 83.1-83.1 82 37.9 82 83.1z m-673.5-164.6c-14.5-10-31.8-15-49.1-15-49.1 0-89.3 40.1-89.3 89.2 0 25.7 11.2 50.3 30.1 67.6 21.2-57 61.4-104.4 108.3-141.8z m895.6 229.4c0-94.3-64.7-166.9-138.9-216-99.3-65.8-229.9-93.7-347.7-93.7-118.3 0-248.3 27.9-348.2 93.7-74.2 49.1-138.9 121.7-138.9 216s64.7 166.8 138.9 215.9c99.9 65.9 229.9 93.8 348.2 93.8 117.8 0 248.4-27.9 347.7-93.8 74.2-49.1 138.9-121.6 138.9-215.9z m65.3-155.2c0-49.1-40.2-89.2-89.3-89.2-18.4 0-36.8 6.1-51.9 16.7 46.9 37.9 86.5 85.9 107.2 142.9 21.2-16.8 34-43 34-70.4z m-80.3-376.6c0-36.3-29.6-65.9-65.3-65.9-36.3 0-65.9 29.6-65.9 65.9 0 35.7 29.6 65.3 65.9 65.3 35.7 0 65.3-29.6 65.3-65.3z m126.6 376.6c0 48.6-26.2 93.8-68 118.3 1.6 11.8 2.7 24.6 2.7 36.9 0 109.9-71.9 197-160.1 255-108.3 70.9-245 101-372.8 101-128.3 0-265-30.1-373.3-101-88.2-58-160.2-145.1-160.2-255 0-13.4 1.2-26.8 3.4-39.6-39.1-24.6-63.6-68.7-63.6-115.6 0-74.7 60.8-135.6 135.6-135.6 32.3 0 64.2 11.8 88.7 33.5 104.9-67.5 232.7-96.5 356-98.8l80.4-254.4c3.3-9.5 12.3-16.2 22.3-16.2 12.8 0 189.7 44.1 214.3 50.2 17.9-40.7 58-67.5 102.7-67.5 61.4 0 111.6 50.8 111.6 112.2s-50.2 111.6-111.6 111.6-111.6-49.7-112.2-111.1l-189.2-44.6-69.7 220.4c117.2 5 237.1 35.7 336.5 99.9 25.1-22.3 57.5-35.2 90.9-35.2 74.8 0 135.6 60.9 135.6 135.6z" /></svg>