<svg height="1000" width="1000.0" xmlns="http://www.w3.org/2000/svg"><path d="m611 651.2c5.1 5.1 5.1 12.9 0 17.3-31.8 31.8-93.1 34.6-111 34.6s-79.2-2.8-111-34.6c-5.1-4.4-5.1-12.2 0-17.3 4.4-4.4 12.2-4.4 16.7 0 20.1 20.7 63.6 27.4 94.3 27.4s73.7-6.7 94.3-27.4c4.5-4.4 12.3-4.4 16.7 0z m-171.3-101c0 27.4-22.3 49.7-49.6 49.7-27.9 0-50.3-22.3-50.3-49.7 0-27.9 22.4-50.2 50.3-50.2 27.3 0 49.6 22.3 49.6 50.2z m220.5 0c0 27.4-22.4 49.7-50.3 49.7-27.3 0-49.6-22.3-49.6-49.7 0-27.9 22.3-50.2 49.6-50.2 27.9 0 50.3 22.3 50.3 50.2z m140-66.9c0-36.9-30.1-66.4-66.9-66.4-19 0-35.8 7.8-48 20-45.2-31.2-106.1-51.3-173.6-53.5l35.2-158 111.6 25.2c0 27.3 22.3 49.6 49.6 49.6 27.9 0 50.3-22.9 50.3-50.2s-22.4-50.2-50.3-50.2c-19.5 0-36.2 11.7-44.6 27.9l-123.3-27.4c-6.2-1.6-12.3 2.8-14 9l-38.5 174.1c-66.9 2.8-127.2 22.9-172.4 54.1-12.3-12.8-29.6-20.6-48.6-20.6-36.8 0-66.9 29.5-66.9 66.4 0 26.7 15.6 49.1 37.9 60.2-2.2 10.1-3.3 20.7-3.3 31.3 0 106 119.4 191.9 266.2 191.9 147.3 0 266.7-85.9 266.7-191.9 0-10.6-1.1-21.8-3.9-31.8 21.8-11.2 36.8-33.5 36.8-59.7z m199.8 16.7c0 276.2-223.8 500-500 500s-500-223.8-500-500 223.8-500 500-500 500 223.8 500 500z" /></svg>