<svg height="1000" width="857.1" xmlns="http://www.w3.org/2000/svg"><path d="m524 630c3.9 3.9 3.9 10.6 0 14.5-27.3 27.4-79.8 29.6-95.4 29.6s-68.1-2.2-95.5-29.6c-3.9-3.9-3.9-10.6 0-14.5 4-4.4 10.7-4.4 14.6 0 17.3 17.3 54.6 23.5 80.9 23.5s63.6-6.2 80.9-23.5c3.9-4.4 10.6-4.4 14.5 0z m-146.8-87c0 23.4-19.5 42.9-42.9 42.9s-43-19.5-43-42.9c0-24 19.5-43 43-43s42.9 19 42.9 43z m188.6 0c0 23.4-19.5 42.9-42.9 42.9s-43-19.5-43-42.9c0-24 19.5-43 43-43s42.9 19 42.9 43z m120-57.5c0-31.3-25.6-56.9-57.5-56.9-15.6 0-30.1 6.7-40.7 17.3-39.1-26.8-91.5-44.1-149-45.8l30.2-135.6 95.4 21.8c0.5 23.4 19.5 42.4 42.9 42.4s43-19.5 43-43-19.5-43-43-43c-16.7 0-31.2 9.5-38.5 24l-105.4-23.4c-5.6-1.7-10.6 2.2-11.7 7.3l-33.5 149.5c-57.5 2.2-109.4 19.5-147.9 46.3-10.6-11.1-25.1-17.8-41.3-17.8-31.8 0-57.5 25.6-57.5 56.9 0 22.9 13.4 42.4 32.4 51.9-1.7 8.4-2.8 17.8-2.8 26.8 0 90.9 102.1 164.6 228.2 164.6s228.8-73.7 228.8-164.6c0-9.5-1.1-18.4-3.3-27.4 18.4-9.5 31.2-29 31.2-51.3z m171.3-253.4v535.8c0 88.7-71.9 160.7-160.7 160.7h-535.7c-88.7 0-160.7-72-160.7-160.7v-535.8c0-88.7 72-160.7 160.7-160.7h535.7c88.8 0 160.7 72 160.7 160.7z" /></svg>