<svg height="1000" width="857.1" xmlns="http://www.w3.org/2000/svg"><path d="m843.2 589.3c0 1.1 0 2.8-0.6 3.9-47.4 197.5-210.3 335.4-416.3 335.4-108.8 0-214.2-43-293.5-118.3l-72 72c-6.7 6.7-15.6 10.6-25.1 10.6-19.5 0-35.7-16.2-35.7-35.8v-250c0-19.5 16.2-35.7 35.7-35.7h250c19.5 0 35.7 16.2 35.7 35.7 0 9.5-3.9 18.5-10.6 25.2l-76.4 76.4c52.4 49.1 122.2 77 194.2 77 99.3 0 191.4-51.3 243.3-136.1 13.4-21.8 20.1-43 29.6-65.3 2.7-7.8 8.3-12.9 16.7-12.9h107.1c10.1 0 17.9 8.4 17.9 17.9z m13.9-446.4v250c0 19.5-16.1 35.7-35.7 35.7h-250c-19.5 0-35.7-16.2-35.7-35.7 0-9.5 3.9-18.5 10.6-25.2l77-77c-53-49.1-122.7-76.4-194.7-76.4-99.4 0-191.4 51.3-243.3 136.1-13.4 21.8-20.1 43-29.6 65.3-2.8 7.8-8.4 12.9-16.7 12.9h-111.1c-10 0-17.9-8.4-17.9-17.9v-3.9c48-198.1 212.7-335.4 418.6-335.4 109.3 0 215.9 43.6 295.2 118.3l72.5-72c6.7-6.7 15.6-10.6 25.1-10.6 19.6 0 35.7 16.2 35.7 35.8z" /></svg>