<svg height="1000" width="857.1" xmlns="http://www.w3.org/2000/svg"><path d="m857.1 142.9v250c0 19.5-16.1 35.7-35.7 35.7h-250c-14.5 0-27.3-9-32.9-22.3-5.6-12.9-2.8-28.5 7.8-38.6l77-77c-52.4-48.5-121.6-76.4-194.7-76.4-157.4 0-285.7 128.3-285.7 285.7s128.3 285.7 285.7 285.7c88.7 0 170.7-40.2 225.4-111 2.8-3.9 7.8-6.2 12.9-6.7 5 0 10 1.6 13.9 5l76.5 77c6.7 6.1 6.7 16.7 1.1 24-81.5 98.2-202 154.6-329.8 154.6-236.1 0-428.6-192.6-428.6-428.6s192.5-428.6 428.6-428.6c109.9 0 216.5 44.1 295.2 118.3l72.5-72c10.1-10.6 25.7-13.3 39.1-7.8 12.8 5.6 21.7 18.4 21.7 33z" /></svg>