<svg height="1000" width="1000.0" xmlns="http://www.w3.org/2000/svg"><path d="m357.1 603.8v39.1c0 14.5-8.9 27.3-21.7 32.9-4.5 1.7-9.5 2.8-14 2.8-9.5 0-18.4-3.4-25.1-10.6l-285.7-285.7c-13.9-14-13.9-36.3 0-50.3l285.7-285.7c10.1-10.6 25.7-13.4 39.1-7.8 12.8 5.6 21.7 18.4 21.7 32.9v38.5l-221.5 222.1c-13.9 14-13.9 36.3 0 50.3z m642.9 21.2c0 116.1-87.6 286.8-91.5 294.1-2.8 6.1-8.9 9.5-15.6 9.5-1.7 0-3.4 0-5.1-0.6-8.3-2.8-13.4-10.6-12.8-19 16.2-152.3-2.8-252.7-59.2-315.2-47.4-53.1-124.4-81.5-244.4-91v140.1c0 14.5-8.9 27.3-21.7 32.9-4.5 1.7-9.5 2.8-14 2.8-9.5 0-18.4-3.4-25.1-10.6l-285.7-285.7c-14-14-14-36.3 0-50.3l285.7-285.7c10-10.6 25.7-13.4 39.1-7.8 12.8 5.6 21.7 18.4 21.7 32.9v146.2c154 10.6 264 51.4 334.3 123.4 84.3 86.5 94.3 203.6 94.3 284z" /></svg>