<svg height="1000" width="1000.0" xmlns="http://www.w3.org/2000/svg"><path d="m1000 625c0 78.1-39.1 180.2-70.9 251.7-6.1 12.8-12.2 30.7-20.6 42.4-3.9 5.6-7.8 9.5-15.6 9.5-11.2 0-17.9-9-17.9-19.6 0-8.9 2.2-18.9 2.8-27.9 1.7-22.8 2.8-45.7 2.8-68.6 0-266.2-157.9-312.5-398.5-312.5h-125v142.9c0 19.5-16.1 35.7-35.7 35.7-9.5 0-18.4-3.9-25.1-10.6l-285.7-285.7c-6.7-6.7-10.6-15.7-10.6-25.2s3.9-18.4 10.6-25.1l285.7-285.7c6.7-6.7 15.6-10.6 25.1-10.6 19.6 0 35.7 16.2 35.7 35.7v142.9h125c183.1 0 410.8 32.4 488.3 224.9 23.5 59.1 29.6 123.3 29.6 185.8z" /></svg>