<svg height="1000" width="666.0" xmlns="http://www.w3.org/2000/svg"><path d="m466.8 634.8q0 39-15.6 58.6t-45.9 19.5-45.9-19.5-15.6-56.7v-33.2q0-39 15.6-58.6t45.9-19.5 45.9 19.5 15.6 56.7v33.2z m-35.2-37.1q0-21.5-6.8-32.3t-19.5-10.7-18.6 9.8-5.8 31.2v44.9q0 21.5 5.8 32.3t19.6 10.7 19.5-9.8 5.8-31.2v-44.9z m-197.2 5.8h19.5q13.7 0 19.5-6.8t5.9-18.6-5.9-17.6-17.5-5.8-18.6 5.8-6.8 15.7h-35.2q0-15.7 7.8-26.4t21.5-17.6 29.3-6.8q29.3 0 45.9 13.7t16.6 39q0 11.7-7.8 22.5t-19.5 16.6q15.6 5.8 22.4 16.6t6.9 26.4q0 23.4-17.6 38t-46.9 14.7q-27.3 0-44.9-13.7t-17.6-39h37.1q0 11.7 7.8 17.5t19.6 5.9 19.5-6.8 7.8-16.6q0-27.4-31.2-27.4h-17.6v-29.3z m99.6-353.5q136.7 0 234.4 97.7t97.6 235.3-97.6 235.4-235.4 97.6-235.3-97.6-97.7-234.4h84q0 101.5 73.2 175.8t175.8 74.2 176.8-74.2 74.2-176.8-74.2-175.8-175.8-73.2v166l-209-209 209-207v166z" /></svg>