<svg height="1000" width="666.0" xmlns="http://www.w3.org/2000/svg"><path d="m277.3 619.1l9.8-89.8h99.6v29.3h-70.3l-3.9 39.1q11.7-7.9 25.4-7.9 25.4 0 40 15.7t14.7 44.9q0 15.6-7.8 29.3t-20.5 21.5-32.3 7.8q-15.6 0-29.3-6.9t-21.4-18.5-7.9-25.4h35.2q0 9.8 6.8 15.6t16.6 5.9q11.8 0 18.6-7.8t6.8-23.5-7.8-23.4-21.5-7.8q-11.7 0-19.5 5.8l-3.9 4z m56.7-369.1q136.7 0 234.4 97.7t97.6 235.3-97.6 235.4-235.4 97.6-235.3-97.6-97.7-234.4h84q0 101.5 73.2 175.8t175.8 74.2 176.8-74.2 74.2-176.8-74.2-175.8-175.8-73.2v166l-209-209 209-207v166z" /></svg>