<svg height="1000" width="1071.4" xmlns="http://www.w3.org/2000/svg"><path d="m714.3 839.3c0 9.5-8.4 17.8-17.9 17.8h-535.7c-20.6 0-17.8-21.7-17.8-35.7v-89.3-232.1h-107.2c-19.5 0-35.7-16.2-35.7-35.7 0-8.4 2.8-16.8 8.4-22.9l178.5-214.3c6.7-7.8 16.8-12.3 27.4-12.3s20.6 4.5 27.3 12.3l178.6 214.3c5.6 6.1 8.4 14.5 8.4 22.9 0 19.5-16.2 35.7-35.7 35.7h-107.2v214.3h321.4c5.1 0 10.6 2.2 14 6.1l89.3 107.2c2.2 3.3 3.9 7.8 3.9 11.7z m357.1-232.2c0 8.4-2.8 16.8-8.3 22.9l-178.6 214.3c-6.7 7.8-16.8 12.8-27.4 12.8s-20.6-5-27.3-12.8l-178.6-214.3c-5.6-6.1-8.3-14.5-8.3-22.9 0-19.5 16.1-35.7 35.7-35.7h107.1v-214.3h-321.4c-5 0-10.6-2.2-14-6.7l-89.3-107.1c-2.2-2.8-3.9-7.3-3.9-11.2 0-9.4 8.4-17.8 17.9-17.8h535.7c20.7 0 17.9 21.7 17.9 35.7v89.3 232.1h107.1c19.5 0 35.7 16.2 35.7 35.7z" /></svg>