<svg height="1000" width="1000.0" xmlns="http://www.w3.org/2000/svg"><path d="m987.7 694.6c-126.9-120.6-298.7-194.6-487.7-194.6s-360.8 74-487.7 194.6c-7.7 7.5-12.3 18.1-12.3 29.6s4.6 21.8 12.3 29.3l103.1 103.2c7.5 7.5 17.9 12.3 29.4 12.3 11.2 0 21.7-4.6 29.2-11.9 33.1-30.6 70.4-56.7 111-77.1 13.8-6.9 23.3-21 23.3-37.5v-129.4c60.5-19.4 124.8-29.8 191.7-29.8s131.3 10.4 191.7 30v129.4c0 16.5 9.6 30.6 23.3 37.5 40.6 20.4 78.1 46.5 111 77.1 7.5 7.3 17.8 11.9 29.2 11.9s21.9-4.6 29.6-12.3l103.1-103.2c7.5-7.5 12.3-17.9 12.3-29.3-0.2-11.7-4.8-22.3-12.5-29.8z m-106-434l-59-58.9-148.3 148.3 58.9 59s143.8-146.7 148.4-148.4z m-340-177.3h-83.4v208.4h83.4v-208.4z m-275 325.7l58.9-59-148.3-148.3-59 58.9c4.6 1.7 148.4 148.4 148.4 148.4z" /></svg>