<svg height="1000" width="928.6" xmlns="http://www.w3.org/2000/svg"><path d="m803.6 250c0-29.6-24-53.6-53.6-53.6s-53.6 24-53.6 53.6 24 53.6 53.6 53.6 53.6-24 53.6-53.6z m125-160.7c0 185.3-51.4 308.6-183.6 441.4-32.4 31.8-69.2 64.7-108.8 98.2l-11.2 211.5c-0.6 5.6-3.9 11.2-8.9 14.5l-214.3 125c-2.8 1.7-5.6 2.2-8.9 2.2-4.5 0-9-1.6-12.9-5l-35.7-35.7c-4.5-5-6.1-11.7-4.5-17.9l47.5-154-156.8-156.8-154 47.5c-1.7 0.5-3.4 0.5-5.1 0.5-4.4 0-9.5-1.7-12.8-5l-35.7-35.7c-5.6-6.2-6.7-15.1-2.8-21.8l125-214.3c3.3-5 8.9-8.3 14.5-8.9l211.5-11.2c33.5-39.6 66.4-76.4 98.2-108.8 139.5-138.9 246.1-183.6 440.3-183.6 10 0 19 7.8 19 17.9z" /></svg>