<svg height="1000" width="1000.0" xmlns="http://www.w3.org/2000/svg"><path d="m296.3 355.2l-59-59c-37.5 48.4-60.6 104.2-67.7 162.1h84.2c6-36.4 20.2-71.6 42.5-103.1z m-42.6 186.5h-84.1c7.1 57.9 30.2 113.7 67.7 162l58.9-58.9c-22.2-31.5-36.4-66.7-42.5-103.1z m42.1 221.4c48.4 37.7 104.6 60 162.5 67.1v-84.2c-36.4-6-71.4-20.4-102.7-42.7l-59.8 59.8z m245.9-593.5v-127.9l-189.6 189.5 189.6 185.5v-163c118.1 19.8 208.3 122.5 208.3 246.3s-90.2 226.5-208.3 246.2v84.2c164.3-20.6 291.6-160.4 291.6-330.4s-127.3-309.8-291.6-330.4z" /></svg>