<svg height="1000" width="1000.0" xmlns="http://www.w3.org/2000/svg"><path d="m686.9 104.8c136 64.6 233.7 196.9 248.5 353.5h62.5c-21.2-256.6-235.8-458.3-497.9-458.3-9.4 0-18.3 0.8-27.7 1.5l159 158.9 55.6-55.6z m-260.6-32.1c-24.4-24.4-64-24.4-88.4 0l-265.2 265.2c-24.4 24.4-24.4 64 0 88.3l500.8 500.9c24.4 24.4 64 24.4 88.4 0l265.2-265.2c24.4-24.4 24.4-64 0-88.4l-500.8-500.8z m191.6 810.2l-501-500.8 265.2-265.2 500.8 500.8-265 265.2z m-304.8 12.3c-136-64.6-233.7-196.9-248.5-353.5h-62.5c21.2 256.6 235.8 458.3 497.9 458.3 9.4 0 18.3-0.8 27.7-1.5l-158.9-158.9-55.7 55.6z" /></svg>