<svg height="1000" width="945.3" xmlns="http://www.w3.org/2000/svg"><path d="m927.7 531.3q17.6 19.5 17.6 44.9t-17.6 44.9l-265.6 263.7q-17.6 19.5-43.9 19.5t-44-19.5l-501.9-500q-17.6-17.6-17.6-44t17.6-43.9l265.6-265.6q17.6-17.6 43.9-17.6t44 17.6l103.5 101.5-60.5 58.6-86-85.9-236.3 234.3 470.7 472.7 236.3-236.3-91.8-91.8 58.6-58.6z m-617.2 322.2l56.7-54.7 158.2 158.2-27.4 2q-195.3 0-338.8-132.8t-159.2-326.2h62.5q11.7 117.2 78.1 210.9t169.9 142.6z m314.5-478.5q-17.6 0-29.3-12.7t-11.7-28.3v-168q0-15.6 11.7-28.3t29.3-12.7v-21.5q0-43 30.3-73.2t73.2-30.3 74.2 30.3 31.3 73.2v21.5q15.6 0 28.3 12.7t12.7 28.3v168q0 15.6-12.7 28.3t-28.3 12.7h-209z m33.2-271.5v21.5h142.6v-21.5q0-29.3-21.5-49.8t-50.8-20.5-49.8 20.5-20.5 49.8z" /></svg>