<svg height="1000" width="996.1" xmlns="http://www.w3.org/2000/svg"><path d="m685.5 105.5l-56.6 54.7-158.2-158.2 27.3-2q195.4 0 338.9 132.8t159.2 326.2h-62.5q-11.7-117.2-79.1-211t-169-142.5z m-261.7-33.2l502 501.9q17.6 17.6 17.6 44t-17.6 43.9l-265.6 265.6q-17.6 17.6-44 17.6t-43.9-17.6l-502-501.9q-17.6-17.6-17.6-44t17.6-43.9l265.6-265.6q17.6-17.6 44-17.6t43.9 17.6z m191.4 810.5l265.7-265.6-500-500-265.7 265.6z m-304.7 11.7l56.7-54.7 158.2 158.2-27.4 2q-195.3 0-338.8-132.8t-159.2-326.2h62.5q11.7 117.2 78.1 211t169.9 142.5z" /></svg>