<svg height="1000" width="1000.0" xmlns="http://www.w3.org/2000/svg"><path d="m969 532.1l-107.1-107.1-59 59 92.3 92.3-235.6 235.6-471.5-471.5 235.7-235.6 87.2 87.3 59-59-102.1-102.1c-24.4-24.3-63.9-24.3-88.3 0l-265.2 265.3c-24.4 24.3-24.4 63.9 0 88.3l500.8 500.8c24.4 24.4 64 24.4 88.3 0l265.3-265.2c24.5-24.2 24.5-63.7 0.2-88.1z m-616.3 321.4c-136-64.5-233.7-196.8-248.5-353.5h-62.5c21.2 256.7 235.8 458.3 497.9 458.3 9.4 0 18.3-0.8 27.7-1.4l-159-159-55.6 55.6z m314-478.5h208.3c23.1 0 41.7-18.7 41.7-41.7v-166.6c0-23-18.6-41.7-41.7-41.7v-20.8c0-57.5-46.7-104.2-104.2-104.2s-104.1 46.7-104.1 104.2v20.8c-23.2 0-41.7 18.7-41.7 41.7v166.6c0 23 18.5 41.7 41.7 41.7z m33.3-270.8c0-39.2 31.7-70.9 70.8-70.9s70.9 31.7 70.9 70.9v20.8h-141.7v-20.8z" /></svg>