<svg height="1000" width="928.6" xmlns="http://www.w3.org/2000/svg"><path d="m571.4 446.4v35.7c0 9.5-8.3 17.9-17.8 17.9h-125v125c0 9.5-8.4 17.9-17.9 17.9h-35.7c-9.5 0-17.9-8.4-17.9-17.9v-125h-125c-9.4 0-17.8-8.4-17.8-17.9v-35.7c0-9.5 8.4-17.8 17.8-17.8h125v-125c0-9.5 8.4-17.9 17.9-17.9h35.7c9.5 0 17.9 8.4 17.9 17.9v125h125c9.5 0 17.8 8.3 17.8 17.8z m71.5 17.9c0-137.8-112.2-250-250-250s-250 112.2-250 250 112.1 250 250 250 250-112.2 250-250z m285.7 464.3c0 39.6-31.8 71.4-71.5 71.4-18.9 0-37.3-7.8-50.2-21.2l-191.4-190.9c-65.3 45.2-143.4 69.2-222.6 69.2-217.1 0-392.9-175.7-392.9-392.8s175.8-392.9 392.9-392.9 392.8 175.8 392.8 392.9c0 79.2-24 157.4-69.2 222.6l191.4 191.4c12.9 12.9 20.7 31.3 20.7 50.3z" /></svg>