<svg height="1000" width="1000.0" xmlns="http://www.w3.org/2000/svg"><path d="m0 322.3l197.3-72.3h11.7v500h-84v-400.4l-125 43v-70.3z m990.2 277.3q9.8 15.6 9.8 41t-9.8 44.9q-11.7 21.5-29.3 35.2-19.5 13.7-46.8 21.5-25.4 7.8-58.6 7.8-39.1 0-67.4-9.8t-47.9-27.3q-17.5-17.6-28.3-39.1t-10.7-42.9h80.1q0 15.6 5.8 27.3 7.8 11.7 17.6 17.6 9.8 7.8 23.4 9.7 11.7 4 27.4 4 31.2 0 47.8-11.8t16.6-33.2q0-7.8-1.9-15.6-3.9-7.8-11.7-13.7-9.8-7.8-23.5-11.7-15.6-5.8-39-11.7-31.3-5.9-54.7-15.6t-39.1-21.5q-17.6-11.7-27.3-29.3t-9.8-41 9.8-41q9.7-21.5 27.3-36.2t44.9-24.4q25.4-7.8 56.7-7.8 35.1 0 62.5 9.8t44.9 23.4q19.5 15.6 29.3 37.1t9.7 44.9h-82q0-7.8-3.9-19.5t-11.7-17.6q-9.8-7.8-19.5-11.7-13.7-5.9-28.4-5.9t-26.3 4-19.6 9.7q-5.8 5.9-11.7 15.6-1.9 7.9-1.9 16.6t2.9 15.7 10.7 12.7 23.5 9.7q15.6 5.9 37.1 9.8 29.3 7.8 54.7 15.6 23.4 9.8 42.9 23.5 17.6 11.7 25.4 31.2z m-414-306.6q21.5 25.4 31.2 66.4 11.7 41 11.7 99.6v80.1q0 58.6-11.7 99.6-9.7 41-31.2 66.4-21.5 27.3-50.8 37.1-29.3 11.7-66.4 11.7-35.2 0-66.4-11.7-29.3-9.8-50.8-37.1-21.5-23.5-33.2-66.4-11.7-39.1-11.7-99.6v-80.1q0-56.7 11.7-99.6 11.7-41 32.2-66.4t50.8-36.2 67.4-10.7 66.4 10.7 50.8 36.2z m-39.1 257.8v-105.5q0-35.1-3.9-62.5-5.9-25.4-15.6-41t-25.4-22.5-33.2-6.8q-19.5 0-35.2 5.9-13.6 7.8-24.4 23.4t-16.6 41q-3.9 25.4-3.9 64.5v103.5q0 39 3.9 64.4 5.9 25.4 17.6 41.1 9.8 17.5 24.4 24.4t34.2 6.8 34.2-6.8 24.4-23.5 14.6-42.9 4.9-63.5z" /></svg>