<svg height="1000" width="1000.0" xmlns="http://www.w3.org/2000/svg"><path d="m125 208.3h83.3v-83.3c-46 0-83.3 37.3-83.3 83.3z m0 333.4h83.3v-83.4h-83.3v83.4z m166.7 333.3h83.3v-83.3h-83.3v83.3z m-166.7-500h83.3v-83.3h-83.3v83.3z m416.7-250h-83.4v83.3h83.4v-83.3z m250 0v83.3h83.3c0-46-37.3-83.3-83.3-83.3z m-583.4 750v-83.3h-83.3c0 46 37.3 83.3 83.3 83.3z m-83.3-166.7h83.3v-83.3h-83.3v83.3z m250-583.3h-83.3v83.3h83.3v-83.3z m83.3 750h83.4v-83.3h-83.4v83.3z m333.4-333.3h83.3v-83.4h-83.3v83.4z m0 333.3c46 0 83.3-37.3 83.3-83.3h-83.3v83.3z m0-500h83.3v-83.3h-83.3v83.3z m0 333.3h83.3v-83.3h-83.3v83.3z m-166.7 166.7h83.3v-83.3h-83.3v83.3z m0-666.7h83.3v-83.3h-83.3v83.3z m-333.3 500h416.6v-416.6h-416.6v416.6z m83.3-333.3h250v250h-250v-250z" /></svg>