<svg height="1000" width="750.0" xmlns="http://www.w3.org/2000/svg"><path d="m0 209q0-35.2 24.4-59.6t59.6-24.4v84h-84z m0 332v-82h84v82h-84z m166 334v-84h84v84h-84z m-166-500v-84h84v84h-84z m416-250v84h-82v-84h82z m250 0q35.2 0 59.6 24.4t24.4 59.6h-84v-84z m-582 750q-35.2 0-59.6-24.4t-24.4-59.6h84v84z m-84-166v-84h84v84h-84z m250-584v84h-84v-84h84z m84 750v-84h82v84h-82z m332-334v-82h84v82h-84z m0 334v-84h84q0 35.2-24.4 59.6t-59.6 24.4z m0-500v-84h84v84h-84z m0 334v-84h84v84h-84z m-166 166v-84h84v84h-84z m0-666v-84h84v84h-84z m-334 500v-418h418v418h-418z m84-334v250h250v-250h-250z" /></svg>