<svg height="1000" width="1142.9" xmlns="http://www.w3.org/2000/svg"><path d="m837.1 765.1v-409.1c0-15.6-12.9-28.4-27.9-28.4h-51.9c-15.1 0-27.9 12.8-27.9 28.4v409.1c0 15 12.8 27.9 27.9 27.9h51.9c15 0 27.9-12.9 27.9-27.9z m-158.5 0v-296.3c0-15.1-12.9-28-27.9-28h-56.4c-15.1 0-27.9 12.9-27.9 28v296.3c0 15 12.8 27.9 27.9 27.9h56.4c15 0 27.9-12.9 27.9-27.9z m-163 0v-239.4c0-15.1-12.8-27.9-27.9-27.9h-56.3c-15.1 0-27.9 12.8-27.9 27.9v239.4c0 15 12.8 27.9 27.9 27.9h56.3c15.1 0 27.9-12.9 27.9-27.9z m-162.9 0v-202c0-15.1-12.9-27.9-27.9-27.9h-56.4c-15.1 0-27.9 12.8-27.9 27.9v202c0 15 12.8 27.9 27.9 27.9h56.4c15 0 27.9-12.9 27.9-27.9z m790.2-81.5c0 123.9-101 224.3-224.4 224.3h-694.2c-123.3 0-224.3-100.4-224.3-224.3 0-86.5 50.8-165.7 128.9-202.6-3.9-13.4-5.6-27.3-5.6-40.7 0-84.3 68.7-152.9 152.9-152.9 36.9 0 72.6 13.4 100.5 37.4 33.5-136.2 156.2-232.7 296.8-232.7 168.6 0 305.9 137.3 305.9 305.8 0 22.9-2.3 45.7-7.9 68.1 100.5 24.5 171.4 114.9 171.4 217.6z" /></svg>