<svg height="1000" width="1000.0" xmlns="http://www.w3.org/2000/svg"><path d="m333.3 479.2c0-34.6-27.9-62.5-62.5-62.5s-62.5 27.9-62.5 62.5 28 62.5 62.5 62.5 62.5-27.9 62.5-62.5z m291.7-208.4c0-34.6-27.9-62.5-62.5-62.5h-125c-34.6 0-62.5 27.9-62.5 62.5s27.9 62.5 62.5 62.5h125c34.6 0 62.5-27.9 62.5-62.5z m-270.8 354.2c-34.6 0-62.5 27.9-62.5 62.5s27.9 62.5 62.5 62.5 62.5-27.9 62.5-62.5-27.9-62.5-62.5-62.5z m145.8-583.3c-252.7 0-458.3 205.6-458.3 458.3s205.6 458.3 458.3 458.3 458.3-205.6 458.3-458.3-205.6-458.3-458.3-458.3z m0 833.3c-206.9 0-375-168.3-375-375s168.1-375 375-375 375 168.3 375 375-168.1 375-375 375z m229.2-458.3c-34.6 0-62.5 27.9-62.5 62.5s27.9 62.5 62.5 62.5 62.5-27.9 62.5-62.5-27.9-62.5-62.5-62.5z m-83.4 208.3c-34.5 0-62.5 27.9-62.5 62.5s28 62.5 62.5 62.5 62.5-27.9 62.5-62.5-27.9-62.5-62.5-62.5z" /></svg>