<svg height="1000" width="1000.0" xmlns="http://www.w3.org/2000/svg"><path d="m500 208.3c-161 0-291.7 130.7-291.7 291.7h83.4c0-115 93.3-208.3 208.3-208.3s208.3 93.3 208.3 208.3h83.4c0-161-130.7-291.7-291.7-291.7z m41.7 387.1c36.6-16 62.5-52.7 62.5-95.4 0-57.5-46.7-104.2-104.2-104.2s-104.2 46.7-104.2 104.2c0 42.7 25.9 79.4 62.5 95.4v137.3l-142.3 142.3 59 59 125-125 125 125 59-59-142.3-142.3v-137.3z m-41.7-553.7c-253.1 0-458.3 205.2-458.3 458.3h83.3c0-207.1 167.9-375 375-375s375 167.9 375 375h83.3c0-253.1-205.2-458.3-458.3-458.3z" /></svg>