<svg height="1000" width="1000.0" xmlns="http://www.w3.org/2000/svg"><path d="m500 416.7c-46 0-83.3 37.3-83.3 83.3s37.3 83.3 83.3 83.3 83.3-37.3 83.3-83.3-37.3-83.3-83.3-83.3z m291.7-291.7h-583.4c-46 0-83.3 37.3-83.3 83.3v583.4c0 46 37.3 83.3 83.3 83.3h583.4c46 0 83.3-37.3 83.3-83.3v-583.4c0-46-37.3-83.3-83.3-83.3z m-72.9 375c0 9.6-0.9 19.2-2.1 28.5l61.6 48.4c5.5 4.4 7.1 12.3 3.4 18.5l-58.4 101.1c-3.5 6.2-11.2 8.7-17.9 6.2l-72.7-29.4c-15 11.7-31.4 21.3-49.4 28.8l-10.8 77.3c-0.8 6.9-6.9 12.3-14.2 12.3h-116.6c-7.3 0-13.4-5.4-14.4-12.3l-10.8-77.3c-17.7-7.3-34.2-17.1-49.4-28.8l-72.5 29.2c-6.7 2.5-14.2 0-17.9-6.2l-58.4-101.1c-3.7-6.2-2-14.2 3.4-18.5l61.6-48.2c-1.2-9.3-2-18.7-2-28.5 0-9.6 0.8-19.2 2-28.5l-61.6-48.2c-5.4-4.3-7.1-12.3-3.4-18.5l58.4-101.1c3.7-6.2 11.2-8.7 17.9-6.2l72.5 29.2c15-11.5 31.4-21.3 49.4-28.8l10.8-77.3c1-6.9 7.1-12.3 14.4-12.3h116.6c7.3 0 13.4 5.4 14.4 12.3l10.8 77.3c17.8 7.3 34.2 17.1 49.4 28.8l72.5-29.2c6.7-2.5 14.2 0 17.9 6.2l58.4 101.1c3.7 6.2 2.1 14.2-3.4 18.5l-61.6 48.4c1.2 9.1 2.1 18.7 2.1 28.3z" /></svg>