<svg height="1000" width="1000.0" xmlns="http://www.w3.org/2000/svg"><path d="m208.3 83.3c0-22.9-18.5-41.6-41.6-41.6s-41.7 18.7-41.7 41.6v166.7h-83.3v250h250v-250h-83.4v-166.7z m166.7 583.4c0 54.3 35 100.2 83.3 117.3v174.3h83.4v-174.3c48.3-17.3 83.3-63 83.3-117.3v-83.4h-250v83.4z m-333.3 0c0 54.3 35 100.2 83.3 117.3v174.3h83.3v-174.3c48.4-17.3 83.4-63 83.4-117.3v-83.4h-250v83.4z m833.3-416.7v-166.7c0-22.9-18.5-41.6-41.7-41.6s-41.6 18.7-41.6 41.6v166.7h-83.4v250h250v-250h-83.3z m-333.3-166.7c0-22.9-18.6-41.6-41.7-41.6s-41.7 18.7-41.7 41.6v166.7h-83.3v250h250v-250h-83.3v-166.7z m166.6 583.4c0 54.3 35 100.2 83.4 117.3v174.3h83.3v-174.3c48.3-17.3 83.3-63 83.3-117.3v-83.4h-250v83.4z" /></svg>