<svg height="1000" width="1000.0" xmlns="http://www.w3.org/2000/svg"><path d="m625 375h-250c-23.1 0-41.7 18.8-41.7 41.7v500c0 22.9 18.6 41.6 41.7 41.6h250c23.1 0 41.7-18.7 41.7-41.6v-500c0-22.9-18.6-41.7-41.7-41.7z m-125 250c-46 0-83.3-37.3-83.3-83.3s37.3-83.4 83.3-83.4 83.3 37.3 83.3 83.4-37.3 83.3-83.3 83.3z m-206.2-372.9l58.9 58.9c37.7-37.7 89.8-61 147.3-61s109.6 23.3 147.3 61l59-58.9c-52.8-52.7-125.7-85.4-206.3-85.4s-153.5 32.7-206.2 85.4z m206.2-252.1c-126.5 0-241 51.3-324.2 134.2l59 58.9c67.9-67.9 161.7-109.8 265.2-109.8s197.3 41.9 265.2 109.8l59-58.9c-83.2-82.9-197.7-134.2-324.2-134.2z" /></svg>