<svg height="1000" width="1000.0" xmlns="http://www.w3.org/2000/svg"><path d="m541.7 375h-83.4v83.3h83.4v-83.3z m166.6 0h-83.3v83.3h83.3v-83.3z m125 270.8c-51.8 0-101.8-8.3-148.7-23.7-14.4-4.6-30.8-1.3-42.3 10.2l-91.7 91.9c-118.1-60-214.4-156.5-274.6-274.4l91.7-91.9c11.5-11.4 14.8-27.9 10.2-42.3-15.4-46.9-23.7-97.1-23.7-148.9 0-23.2-18.6-41.7-41.7-41.7h-145.8c-23.2 0-41.7 18.5-41.7 41.7 0 391.2 317.1 708.3 708.3 708.3 23.2 0 41.7-18.5 41.7-41.7v-145.8c0-23.1-18.5-41.7-41.7-41.7z m-41.6-270.8v83.3h83.3v-83.3h-83.3z" /></svg>