<svg height="1000" width="810.5" xmlns="http://www.w3.org/2000/svg"><path d="m714.8 541l87.9 68.4q13.7 11.7 5.9 27.3l-84 144.6q-7.8 15.6-25.4 7.8l-103.5-41.1q-35.2 25.4-70.3 41.1l-15.6 109.3q-2 17.6-21.5 17.6h-166q-17.6 0-21.5-17.6l-15.6-109.3q-37.2-15.7-70.4-41.1l-103.5 41.1q-17.5 5.8-25.4-7.8l-83.9-144.6q-7.9-15.6 5.8-27.3l87.9-68.4q-1.9-23.4-1.9-41t1.9-41l-87.9-68.4q-13.7-11.7-5.8-27.3l83.9-144.5q9.8-15.7 25.4-7.9l103.5 41.1q35.2-25.4 70.4-41.1l15.6-109.3q3.9-17.6 21.5-17.6h166q19.5 0 21.5 17.6l15.6 109.3q37.1 15.7 70.3 41.1l103.5-41.1q17.6-5.8 25.4 7.9l84 144.5q7.8 15.6-5.9 27.3l-87.9 68.4q4 23.4 4 41t-4 41z m-309.5 105.5q59.5 0 102.5-43t43-103.5-43-103.5-102.5-43-102.6 43-42.9 103.5 42.9 103.5 102.6 43z" /></svg>