<svg height="1000" width="1000.0" xmlns="http://www.w3.org/2000/svg"><path d="m230.9 27.7c-126.2 0-230.9 103.8-230.9 232.3 0 110.7 77.9 203.2 180.3 226.6l1.1 85.2-101.8 0 0 102.1 103.2 0 1.3 102.8 102.1-1.3-1.3-101.5 101.1 0 0-102.1-102.5 0-1.1-85.4c102-23.7 179.5-116 179.5-226.4 0-128.5-104.7-232.3-231-232.3z m0 103.5c73.2 0 130.2 57.8 130.2 128.8 0 71-57 128.8-130.2 128.8-73.1 0-130.1-57.8-130.1-128.8 0-71 57-128.8 130.1-128.8z m500.6 257.8l0 102.2 90.6 0-100.7 100.7c-33.2-18.6-71.3-29.2-111.5-29.2-126.4 0-231.2 103.9-231.2 232.5 0 128.5 104.8 232.5 231.2 232.5 126.3 0 231.1-104 231.1-232.5 0-50.4-16.1-97-43.3-135l100.1-100.1 0 84.5 102.2 0 0-255.5-32 0 0-0.1-236.5 0z m-121.6 277.3c73.2 0 130.2 57.8 130.2 128.9 0 71-57 128.9-130.2 128.9-73.3 0-130.3-57.9-130.3-128.9 0-71.1 57-128.9 130.3-128.9z" /></svg>