<svg height="1000" width="925.8" xmlns="http://www.w3.org/2000/svg"><path d="m154.3 125h320.3q31.3-3.9 57.6 17.6t28.3 54.7v108.4 108.4l70.4-115.3q58.6 91.8 164 264.7t130.9 215.8h-470.7q-56.7 58.6-101.6 76.2-82 35.1-171.9 7.8t-138.6-103.5q-52.8-76.2-41-173.9t80-160.1v-207q-3.9-35.2 16.6-64.5t55.7-29.3z m23.4 103.5v140.6q78.2-25.3 160.2 2t126.9 95.7v-238.3h-287.1z m78.2 222.7q-58.6 1.9-99.6 36.1t-60.6 92.8q-15.6 66.4 25.4 127.9t109.4 71.3q66.4 11.7 125-33.2t62.5-113.3q9.7-70.3-41-126.9t-121.1-54.7z m375 31.2l-121.1 199.2h244.1z" /></svg>