<svg height="1000" width="857.1" xmlns="http://www.w3.org/2000/svg"><path d="m560.8 614.4l196.5-196.4c13.9-14 13.9-36.3 0-50.3l-196.5-196.4c-10-10.6-25.6-13.4-38.5-7.8-13.4 5.6-22.3 18.4-22.3 32.9v89.3c-320.3 0-357.1 183.6-357.1 321.4 0 112.2 89.8 221 93.1 225.5 4 4.5 9 6.7 14 6.7 2.2 0 5-0.6 7.3-1.7 7.2-2.8 11.7-10.6 10.6-18.4-16.8-134.5-6.2-218.2 34.6-264 34-38.5 93.1-55.2 197.5-55.2v89.3c0 14.5 8.9 27.3 22.3 32.9 3.9 1.7 9 2.8 13.4 2.8 9.5 0 18.4-3.9 25.1-10.6z m296.3-382.3v535.8c0 88.7-71.9 160.7-160.7 160.7h-535.7c-88.7 0-160.7-72-160.7-160.7v-535.8c0-88.7 72-160.7 160.7-160.7h535.7c88.8 0 160.7 72 160.7 160.7z" /></svg>