<svg height="1000" width="857.1" xmlns="http://www.w3.org/2000/svg"><path d="m714.3 666.9c0-65.9-53.6-119.5-118.9-119.5-31.2 0-59.7 12.3-80.9 32.4l-134.5-67c0.6-4.4 1.1-8.3 1.1-12.8s-0.5-8.4-1.1-12.8l134.5-67c21.2 20.1 49.7 32.4 80.9 32.4 65.3 0 118.9-53.6 118.9-119.5 0-65.2-53.6-118.8-118.9-118.8-65.8 0-119.4 53.6-119.4 118.8 0 4.5 0.6 8.4 1.1 12.9l-134.5 66.9c-21.2-19.5-49.6-31.8-80.9-31.8-65.3 0-118.8 53.1-118.8 118.9s53.5 118.9 118.8 118.9c31.3 0 59.7-12.3 80.9-31.8l134.5 66.9c-0.5 4.5-1.1 8.4-1.1 12.9 0 65.2 53.6 118.8 119.4 118.8 65.3 0 118.9-53.6 118.9-118.8z m142.8-434.8v535.8c0 88.7-71.9 160.7-160.7 160.7h-535.7c-88.7 0-160.7-72-160.7-160.7v-535.8c0-88.7 72-160.7 160.7-160.7h535.7c88.8 0 160.7 72 160.7 160.7z" /></svg>