<svg height="1000" width="857.1" xmlns="http://www.w3.org/2000/svg"><path d="m678.6 571.4c98.7 0 178.5 79.8 178.5 178.6s-79.8 178.6-178.5 178.6-178.6-79.8-178.6-178.6c0-6.1 0.6-12.8 1.1-19l-200.9-100.4c-31.8 29.6-74.8 48-121.6 48-98.8 0-178.6-79.8-178.6-178.6s79.8-178.6 178.6-178.6c46.8 0 89.8 18.4 121.6 48l200.9-100.4c-0.5-6.2-1.1-12.9-1.1-19 0-98.8 79.8-178.6 178.6-178.6s178.5 79.8 178.5 178.6-79.8 178.6-178.5 178.6c-46.9 0-89.9-18.4-121.7-48l-200.9 100.4c0.6 6.2 1.1 12.9 1.1 19s-0.5 12.8-1.1 19l200.9 100.4c31.8-29.6 74.8-48 121.7-48z" /></svg>