<svg height="1000" width="1000.0" xmlns="http://www.w3.org/2000/svg"><path d="m655.2 63.3c-14.6 0-28.7 15.3-42.1 58.7-32.5-63.8-65-72.4-97.5 0-34.8-69.9-72.8-48.5-111.8 0-46.8-103.1-82.2-27.7-121.3-9.6-136.6-23.6-101.2 303 127.7 127.6 40.9 55.2 90.1 74.4 156.4 19.2 41.5 50.6 83 53.6 124.5 6.4 48.9 15.3 86.3 17.5 51.1-63.9 76.4-52.6 32.1-71.2-25.5-86.1-20.7-23.7-41.5-52.3-61.5-52.3z m-251.2 219.1c-51.1 33.8-96.3 46-135.6 39.4-10.5-1.7-20.3-4.9-29.3-9.2-26.2 37.1-41.3 84.8-46.4 128.4-24.5 206.2 134.7 386 187.8 476 62.1 105.1 213.6 96.2 263.1-4.1 50.1-101.6 191.9-252.4 167-446.8-7.1-55.8-23.8-119.3-59.4-163.3-10.9 3.6-21.5 3.1-30.9 2-7.1-0.8-14.1-2.1-21-3.9-21.4 19.3-46.3 31.2-73.1 29.7-24-1.4-45.3-12.7-64.4-29.9-30 18.8-60.5 26.7-89.6 21.3-26.9-5-49.2-19.9-68.2-39.6z m390.8 16.7c30.8 48.9 43.8 108.4 50.4 159.4 0 0.7 0.1 1.5 0.2 2.2 6 24.4 11.3 52.3 15.4 84.6 29.3 230 148.6 109 138.6 53.5 0 0-57.8-232.2-115.3-271.2-27.9-19-61.8-26.2-89.3-28.5z m-601.3 4.6c-34.6 12-82 34.4-116.6 73.9-60.8 69.5-76.9 288.1-76.9 288.1 6.3 45.5 94.6 55.3 148.5-47.6-5.6-62-4.1-124.5 3-184.3 5.1-42.9 17.9-89.8 42-130.1z m179.3 189.5c25.9 0 47 22 47 49.1 0 27.1-21.1 49.1-47 49.1-26 0-47-22-47-49.1 0-27.1 21-49.1 47-49.1z m283.9 3.2c25.9 0 47 21.9 47 49 0 27.1-21.1 49.1-47 49.1-25.9 0-47-22-47-49.1 0-27.1 21.1-49 47-49z m-127.8 238.1c81.9 0.2 87.8 16.7 87.8 16.7-28.4 35.7-87.9 10.1-91.5 52.5l-3 87.3 50.2 7.4-53.8 1.5-57.6 3.7 53.1-12.6 1.6-88.2c-4.8-38.9-51.3-14.1-97.1-49.1 0 0 12.6-18.2 102.1-19.1 2.8-0.1 5.6-0.1 8.2-0.1z" /></svg>