<svg height="1000" width="1142.9" xmlns="http://www.w3.org/2000/svg"><path d="m1010.6 867.7c14-13.9 36.3-13.9 50.2 0l71.5 71.5-50.3 50.2-46.3-46.3-46.3 46.3c-6.7 7.3-16.2 10.6-25.1 10.6s-18.4-3.3-25.1-10.6l-46.3-46.3-46.4 46.3c-13.9 13.9-36.2 13.9-50.2 0l-46.3-46.3-46.3 46.3c-14 13.9-36.3 13.9-50.2 0l-46.4-46.3-46.3 46.3c-13.9 13.9-36.2 13.9-50.2 0l-46.3-46.3-46.3 46.3c-14 13.9-36.3 13.9-50.3 0l-46.3-46.3-46.3 46.3c-13.9 13.9-36.3 13.9-50.2 0l-46.3-46.3-46.3 46.3c-14 13.9-36.3 13.9-50.3 0l-71.4-71.4 50.2-50.3 46.3 46.4 46.4-46.4c13.9-13.9 36.2-13.9 50.2 0l46.3 46.4 46.3-46.4c14-13.9 36.3-13.9 50.2 0l46.4 46.4 46.3-46.4c13.9-13.9 36.2-13.9 50.2 0l46.3 46.4 46.3-46.4c14-13.9 36.3-13.9 50.3 0l46.3 46.4 46.3-46.4c13.9-13.9 36.3-13.9 50.2 0l46.3 46.4 46.3-46.4c14-13.9 36.3-13.9 50.3 0l46.3 46.4z m-878.3-21.2c-14 14-36.3 14-50.3 0l-71.4-71.4 50.2-50.2 46.3 45.7 46.4-45.7c13.9-14 36.2-14 50.2 0l46.3 45.7 35.7-35.7v-163.5l-117.2-175.2c-12.8-19.5-3.9-46.3 18.4-54.1l98.8-32.4v-166.8h71.4v-71.5h142.9v-71.4h142.9v71.4h142.8v71.5h71.4v166.8l98.8 32.4c22.3 7.8 31.3 34.6 18.4 54.1l-117.2 175.2v163.5l10.6-10c14-14 36.3-14 50.3 0l46.3 45.7 46.3-45.7c14-14 36.3-14 50.2 0l71.5 71.4-50.3 50.2-46.3-46.3-46.3 46.3c-6.7 7.3-16.2 10.6-25.1 10.6s-18.4-3.3-25.1-10.6l-46.3-46.3-46.4 46.3c-13.9 14-36.2 14-50.2 0l-46.3-46.3-46.3 46.3c-14 14-36.3 14-50.2 0l-46.4-46.3-46.3 46.3c-13.9 14-36.2 14-50.2 0l-46.3-46.3-46.3 46.3c-14 14-36.3 14-50.3 0l-46.3-46.3-46.3 46.3c-13.9 14-36.3 14-50.2 0l-46.3-46.3z m224.8-632.2v71.4l214.3-71.4 214.3 71.4v-71.4h-71.4v-71.4h-285.7v71.4h-71.5z" /></svg>