<svg height="1000" width="1000.0" xmlns="http://www.w3.org/2000/svg"><path d="m980.5 785.7l19.5 174.7c1.1 10-2.2 20.1-8.9 27.9-6.7 7.2-16.8 11.7-26.8 11.7h-928.6c-10 0-20.1-4.5-26.8-11.7-6.7-7.8-10-17.9-8.9-27.9l19.5-174.7h961z m-51.9-468.2l48 432.5h-953.2l48-432.5c2.3-17.8 17.3-31.8 35.7-31.8h142.9v71.4c0 39.7 31.8 71.5 71.4 71.5s71.5-31.8 71.5-71.5v-71.4h214.2v71.4c0 39.7 31.9 71.5 71.5 71.5s71.4-31.8 71.4-71.5v-71.4h142.9c18.4 0 33.4 14 35.7 31.8z m-214.3-103.2v142.8c0 19.6-16.2 35.8-35.7 35.8s-35.7-16.2-35.7-35.8v-142.8c0-78.7-64.2-142.9-142.9-142.9s-142.9 64.2-142.9 142.9v142.8c0 19.6-16.1 35.8-35.7 35.8s-35.7-16.2-35.7-35.8v-142.8c0-118.3 96-214.3 214.3-214.3s214.3 96 214.3 214.3z" /></svg>