<svg height="1000" width="928.6" xmlns="http://www.w3.org/2000/svg"><path d="m357.1 857.1c0 39.1-32.3 71.5-71.4 71.5s-71.4-32.4-71.4-71.5 32.4-71.4 71.4-71.4 71.4 32.4 71.4 71.4z m500 0c0 39.1-32.3 71.5-71.4 71.5s-71.4-32.4-71.4-71.5 32.4-71.4 71.4-71.4 71.4 32.4 71.4 71.4z m71.5-607.1v285.7c0 17.9-14 33.5-31.8 35.7l-582.6 68.1c2.8 12.8 7.2 25.7 7.2 39.1 0 12.8-7.8 24.5-13.4 35.7h513.4c19.6 0 35.7 16.2 35.7 35.7s-16.1 35.7-35.7 35.7h-571.4c-19.5 0-35.7-16.2-35.7-35.7 0-17.3 25.1-59.2 34-76.5l-98.7-459.2h-113.9c-19.5 0-35.7-16.2-35.7-35.7s16.2-35.7 35.7-35.7h142.9c37.4 0 38.5 44.6 44.1 71.4h670.2c19.5 0 35.7 16.2 35.7 35.7z" /></svg>