<svg height="1000" width="839.8" xmlns="http://www.w3.org/2000/svg"><path d="m416 375v-125h-125v-84h125v-125h84v125h125v84h-125v125h-84z m-166 375q35.2 0 59.6 24.4t24.4 58.6-24.4 58.6-59.6 24.4-58.6-24.4-23.4-58.6 23.4-58.6 58.6-24.4z m417 0q34.2 0 58.6 24.4t24.4 58.6-24.4 58.6-58.6 24.4-58.6-24.4-24.4-58.6 24.4-58.6 58.6-24.4z m-409.2-134.8q0 9.8 9.8 9.8h482.4v84h-500q-35.2 0-59.6-24.4t-24.4-59.6q0-21.5 11.7-39.1l54.7-103.5-148.4-316.4h-84v-82h136.7l39.1 82 39 84 93.8 197.3 5.9 11.7h291l115.2-209 46.9-84 72.2 41-160.1 291q-23.4 43-74.2 43h-310.6l-37.1 68.4v5.8z" /></svg>