<svg height="1000" width="1142.9" xmlns="http://www.w3.org/2000/svg"><path d="m1071.4 428.6c39.6 0 71.5 31.8 71.5 71.4s-31.9 71.4-71.5 71.4h-8.3l-64.2 369.4c-6.2 34.1-35.7 59.2-70.3 59.2h-714.3c-34.6 0-64.2-25.1-70.3-59.2l-64.2-369.4h-8.4c-39.6 0-71.4-31.8-71.4-71.4s31.8-71.4 71.4-71.4h1000z m-800.8 446.4c19.6-1.7 34.6-19 33-38.5l-17.9-232.1c-1.7-19.6-19-34.6-38.5-33s-34.6 19-32.9 38.5l17.8 232.2c1.7 18.4 17.3 32.9 35.8 32.9h2.7z m229.4-35.7v-232.2c0-19.5-16.2-35.7-35.7-35.7s-35.7 16.2-35.7 35.7v232.2c0 19.5 16.2 35.7 35.7 35.7s35.7-16.2 35.7-35.7z m214.3 0v-232.2c0-19.5-16.2-35.7-35.7-35.7s-35.7 16.2-35.7 35.7v232.2c0 19.5 16.1 35.7 35.7 35.7s35.7-16.2 35.7-35.7z m196.4 2.8l17.9-232.2c1.6-19.5-13.4-36.8-33-38.5s-36.8 13.4-38.5 33l-17.8 232.1c-1.7 19.5 13.4 36.8 32.9 38.5h2.8c18.4 0 34-14.5 35.7-32.9z m-645.1-679.2l-51.9 230h-73.6l56.3-246.1c14.5-65.3 72-111.1 139-111.1h93.2c0-19.5 16.2-35.7 35.7-35.7h214.3c19.5 0 35.7 16.2 35.7 35.7h93.2c66.9 0 124.4 45.8 138.9 111.1l56.4 246.1h-73.7l-51.9-230c-7.8-32.9-36.2-55.8-69.7-55.8h-93.2c0 19.6-16.2 35.8-35.7 35.8h-214.3c-19.5 0-35.7-16.2-35.7-35.8h-93.2c-33.5 0-62 22.9-69.8 55.8z" /></svg>