<svg height="1000" width="928.6" xmlns="http://www.w3.org/2000/svg"><path d="m357.1 803.6c0 15.6 7.3 53.5-17.8 53.5h-178.6c-88.7 0-160.7-71.9-160.7-160.7v-392.8c0-88.8 72-160.7 160.7-160.7h178.6c9.5 0 17.8 8.3 17.8 17.8 0 15.6 7.3 53.6-17.8 53.6h-178.6c-49.1 0-89.3 40.2-89.3 89.3v392.8c0 49.1 40.2 89.3 89.3 89.3h160.7c14 0 35.7-2.8 35.7 17.9z m517.9-303.6c0 9.5-3.9 18.4-10.6 25.1l-303.6 303.6c-6.7 6.7-15.6 10.6-25.1 10.6-19.5 0-35.7-16.2-35.7-35.7v-160.7h-250c-19.5 0-35.7-16.2-35.7-35.8v-214.2c0-19.6 16.2-35.8 35.7-35.8h250v-160.7c0-19.5 16.2-35.7 35.7-35.7 9.5 0 18.4 3.9 25.1 10.6l303.6 303.6c6.7 6.7 10.6 15.6 10.6 25.1z" /></svg>