<svg height="1000" width="1000.0" xmlns="http://www.w3.org/2000/svg"><path d="m142.9 803.6v107.1c0 10.1-7.9 17.9-17.9 17.9h-107.1c-10.1 0-17.9-7.8-17.9-17.9v-107.1c0-10.1 7.8-17.9 17.9-17.9h107.1c10 0 17.9 7.8 17.9 17.9z m214.2-71.5v178.6c0 10.1-7.8 17.9-17.8 17.9h-107.2c-10 0-17.8-7.8-17.8-17.9v-178.6c0-10 7.8-17.8 17.8-17.8h107.2c10 0 17.8 7.8 17.8 17.8z m214.3-142.8v321.4c0 10.1-7.8 17.9-17.8 17.9h-107.2c-10 0-17.8-7.8-17.8-17.9v-321.4c0-10.1 7.8-17.9 17.8-17.9h107.2c10 0 17.8 7.8 17.8 17.9z m214.3-214.3v535.7c0 10.1-7.8 17.9-17.8 17.9h-107.2c-10 0-17.8-7.8-17.8-17.9v-535.7c0-10 7.8-17.9 17.8-17.9h107.2c10 0 17.8 7.9 17.8 17.9z m214.3-285.7v821.4c0 10.1-7.8 17.9-17.9 17.9h-107.1c-10 0-17.9-7.8-17.9-17.9v-821.4c0-10.1 7.9-17.9 17.9-17.9h107.1c10.1 0 17.9 7.8 17.9 17.9z" /></svg>