<svg height="1000" width="1142.9" xmlns="http://www.w3.org/2000/svg"><path d="m798 325.3c0 0-0.6-0.5 0 0v0z m145.1 113.9c108.2 0 199.8 80.9 199.8 191.4 0 117.7-93.8 204.2-209.9 204.2-296.3 0-351-445.8-642.3-445.8-112.7 0-194.7 71.9-194.7 187.5 0 119.4 89.3 191.4 204.8 191.4 75.9 0 162.4-31.9 223.8-75.9 10-7.3 30.1-29.1 40.7-29.1s19.5 9 19.5 19.6c0 13.9-23.4 34-33.5 42.9-73.1 63.7-179.1 109.4-276.2 109.4-149 0-275.1-105.4-275.1-258.9s120.5-266.2 272.9-266.2c330.9 0 397.3 439.2 646.2 439.2 74.8 0 131.1-48.6 131.1-125 0-70.9-54.7-124.5-125-124.5-31.2 0-62.5 20.7-83.7 20.7-15 0-28.4-12.8-28.4-27.9 0-20.7 9.4-42.4 9.4-64.7 0-118.9-90.9-204.8-208.7-204.8-94.8 0-142.8 65.8-158.4 65.8-11.2 0-20.1-8.9-20.1-20.1 0-10 7.2-18.4 13.9-25.7 45.2-51.3 115.5-78.1 183.6-78.1 141.8 0 248.3 104.4 248.3 246.1 0 12.3-0.5 24.6-2.2 36.8 21.2-5.5 43-8.3 64.2-8.3z" /></svg>