<svg height="1000" width="857.1" xmlns="http://www.w3.org/2000/svg"><path d="m654.6 593.2c0-97.1-94.3-130.6-173.6-148.4l-58-13.4c-42.4-10.1-74.2-17.3-74.2-49.7 0-29.6 31.2-43 80.3-43 87.6 0 89.3 64.2 143.4 64.2 36.3 0 58.1-28.5 58.1-60.8 0-64.2-106.6-106.1-212.1-106.1-96.5 0-208.7 41.9-208.7 155.2 0 93.7 62.5 127.2 144 146.7l81.5 20.1c49.6 12.3 80.3 17.9 80.3 53.6 0 28.5-31.8 50.2-80.9 50.2-103.2 0-108.8-85.9-168.5-85.9-39.1 0-56.4 27.9-56.4 58.6 0 68.6 104.9 124.4 230.5 124.4 104.9 0 214.3-52.4 214.3-165.7z m202.5 121.1c0 118.3-95.9 214.3-214.2 214.3-49.1 0-94.4-16.8-130.6-44.7-26.8 5.6-55.3 9-83.7 9-217.1 0-392.9-175.8-392.9-392.9 0-28.5 3.4-56.9 8.9-83.7-27.9-36.3-44.6-81.5-44.6-130.6 0-118.3 96-214.3 214.3-214.3 49.1 0 94.3 16.8 130.6 44.7 26.8-5.6 55.2-9 83.7-9 217 0 392.8 175.8 392.8 392.9 0 28.5-3.3 56.9-8.9 83.7 27.9 36.3 44.6 81.5 44.6 130.6z" /></svg>