<svg height="1000" width="709.0" xmlns="http://www.w3.org/2000/svg"><path d="m625 41q35.2 0 59.6 24.4t24.4 59.6v750q0 35.2-24.4 59.6t-59.6 24.4h-416q-35.2 0-59.6-24.4t-24.4-59.6v-125h84v84h416v-668h-416v84h-84v-125q0-35.2 24.4-59.6t59.6-24.4h416z m-341.8 418q19.5 0 35.2 15.6t15.6 37.1v146.5q0 19.5-16.6 35.2t-38.1 15.6h-228.5q-19.5 0-35.2-16.6t-15.6-38.1v-146.5q0-17.6 15.6-33.2t35.2-15.6v-62.5q0-43 35.1-74.2t80.1-31.3 81.1 31.3 36.1 74.2v62.5z m-54.7 0v-62.5q0-25.4-17.6-40.1t-43.9-14.6-44.9 14.6-18.6 40.1v62.5h125z" /></svg>