<svg height="1000" width="916.0" xmlns="http://www.w3.org/2000/svg"><path d="m834 209q33.2 0 57.6 24.4t24.4 57.6v418q0 33.2-24.4 57.6t-57.6 24.4h-750q-35.2 0-59.6-24.4t-24.4-57.6v-418q0-33.2 24.4-57.6t59.6-24.4h750z m-84 500v-418h-584v418h584z m-375-43q-17.6 0-29.3-11.7t-11.7-29.3v-125q0-17.6 11.7-29.3t29.3-11.7v-43q0-33.2 24.4-57.6t58.6-24.4 58.6 24.4 24.4 57.6v43q17.6 0 30.3 11.7t12.7 29.3v125q0 17.6-12.7 29.3t-30.3 11.7h-166z m33.2-250v43h99.6v-43q0-19.5-14.6-34.2t-35.2-14.6-35.1 14.6-14.7 34.2z" /></svg>