<svg height="1000" width="857.1" xmlns="http://www.w3.org/2000/svg"><path d="m632.8 599.9c-27.9 89.8-109.9 150.1-204.2 150.1s-176.4-60.3-204.3-150.1c-6.1-19 4.5-38.5 23.5-44.7 18.4-6.1 38.5 4.5 44.6 23.5 18.4 59.7 73.7 99.9 136.2 99.9s117.7-40.2 136.1-99.9c6.2-19 26.3-29.6 45.2-23.5 18.4 6.2 29.1 25.7 22.9 44.7z m-275.7-242.8c0 39.7-31.8 71.5-71.4 71.5s-71.4-31.8-71.4-71.5 31.8-71.4 71.4-71.4 71.4 31.8 71.4 71.4z m285.8 0c0 39.7-31.9 71.5-71.5 71.5s-71.4-31.8-71.4-71.5 31.8-71.4 71.4-71.4 71.5 31.8 71.5 71.4z m142.8 142.9c0-197-160.1-357.1-357.1-357.1s-357.2 160.1-357.2 357.1 160.2 357.1 357.2 357.1 357.1-160.1 357.1-357.1z m71.4 0c0 236.6-191.9 428.6-428.5 428.6s-428.6-192-428.6-428.6 192-428.6 428.6-428.6 428.5 192 428.5 428.6z" /></svg>