<svg height="1000" width="928.6" xmlns="http://www.w3.org/2000/svg"><path d="m664.6 799.1h98.8l-40.2-121.6-6.7-26.3c-0.5-4.4-1.1-7.8-1.1-11.1h-2.2l-1.7 11.1c-1.7 6.7-2.2 15.1-6.1 26.3z m-253.9 4.5c0 5-2.2 9.5-5.6 13.4l-178 178c-3.9 3.3-8.4 5-12.8 5s-8.9-1.7-12.8-5l-178.6-178.6c-5-5.6-6.7-12.8-3.9-19.5s9.5-11.2 16.7-11.2h107.2v-767.8c0-10.1 7.8-17.9 17.8-17.9h107.2c10 0 17.8 7.8 17.8 17.9v767.8h107.2v0c10 0 17.8 7.8 17.8 17.9z m516.2 137.2v59.2h-160.7v-59.2h41.8l-26.2-80.3h-135.6l-26.2 80.3h41.8v59.2h-160.1v-59.2h39l128.4-369.4h90.4l128.3 369.4h39.1z m-49.7-642.3v130.1h-325.9v-50.3l206-295.2c4.4-6.6 8.9-12.2 11.7-15l6.1-5v-1.7c-2.2 0-4.5 0.5-7.8 0.5-4.5 1.2-10 1.7-16.7 1.7h-129.5v64.2h-67v-127.8h316.4v49.7l-205.9 295.7c-3.3 5-7.8 10.1-11.7 14.5l-6.1 5.6v1.7l7.8-1.7c5-0.5 10-0.5 16.7-0.5h138.4v-66.5h67.5z" /></svg>