<svg height="1000" width="1000.0" xmlns="http://www.w3.org/2000/svg"><path d="m410.7 803.6c0 5-2.2 9.5-5.6 13.4l-178 178c-3.9 3.3-8.4 5-12.8 5s-8.9-1.7-12.8-5l-178.6-178.6c-5-5.6-6.7-12.8-3.9-19.5s9.5-11.2 16.7-11.2h107.2v-767.8c0-10.1 7.8-17.9 17.8-17.9h107.2c10 0 17.8 7.8 17.8 17.9v767.8h107.2v0c10 0 17.8 7.8 17.8 17.9z m589.3 71.4v107.1c0 10.1-7.8 17.9-17.9 17.9h-464.2c-10.1 0-17.9-7.8-17.9-17.9v-107.1c0-10 7.8-17.9 17.9-17.9h464.2c10.1 0 17.9 7.9 17.9 17.9z m-107.1-285.7v107.1c0 10.1-7.9 17.9-17.9 17.9h-357.1c-10.1 0-17.9-7.8-17.9-17.9v-107.1c0-10.1 7.8-17.9 17.9-17.9h357.1c10 0 17.9 7.8 17.9 17.9z m-107.2-285.7v107.1c0 10.1-7.8 17.9-17.8 17.9h-250c-10.1 0-17.9-7.8-17.9-17.9v-107.1c0-10.1 7.8-17.9 17.9-17.9h250c10 0 17.8 7.8 17.8 17.9z m-107.1-285.7v107.1c0 10-7.8 17.9-17.9 17.9h-142.8c-10.1 0-17.9-7.9-17.9-17.9v-107.1c0-10.1 7.8-17.9 17.9-17.9h142.8c10.1 0 17.9 7.8 17.9 17.9z" /></svg>