<svg height="1000" width="1000.0" xmlns="http://www.w3.org/2000/svg"><path d="m708.3 83.3h-416.6c-46.1 0-83.4 37.3-83.4 83.4v666.6c0 46.1 37.3 83 83.4 83l416.6 0.4c46.1 0 83.4-37.3 83.4-83.4v-666.6c0-46.1-37.3-83.4-83.4-83.4z m-208.3 83.4c46 0 83.3 37.3 83.3 83.3s-37.3 83.3-83.3 83.3-83.3-37.3-83.3-83.3 37.3-83.3 83.3-83.3z m0 666.6c-115 0-208.3-93.3-208.3-208.3s93.3-208.3 208.3-208.3 208.3 93.3 208.3 208.3-93.3 208.3-208.3 208.3z m0-333.3c-69 0-125 56-125 125s56 125 125 125 125-56 125-125-56-125-125-125z" /></svg>