<svg height="1000" width="584.0" xmlns="http://www.w3.org/2000/svg"><path d="m500 84q35.2 0 59.6 24.4t24.4 57.6v668q0 33.2-24.4 57.6t-59.6 24.4h-416q-35.2 0-59.6-24.4t-24.4-57.6v-668q0-33.2 24.4-57.6t59.6-24.4h416z m-208 82q-34.2 0-58.6 24.4t-24.4 59.6 24.4 59.6 58.6 24.4 58.6-24.4 24.4-59.6-24.4-59.6-58.6-24.4z m-1 668q86 0 147.5-61.5t61.5-147.5-61.5-147.5-147.5-61.5-146.5 61.5-60.5 147.5 60.5 147.5 146.5 61.5z m1-334q51.8 0 87.9 36.1t36.1 88.9-36.1 88.9-87.9 36.1-88.9-36.1-37.1-88.9 37.1-88.9 88.9-36.1z" /></svg>