<svg height="1000" width="1000.0" xmlns="http://www.w3.org/2000/svg"><path d="m293.5 777.9c0 39.1-31.8 71.4-71.4 71.4-39.1 0-71.4-32.3-71.4-71.4 0-39.6 32.3-71.4 71.4-71.4 39.6 0 71.4 31.8 71.4 71.4z m277.9 115c0 39.6-31.8 71.4-71.4 71.4s-71.4-31.8-71.4-71.4 31.8-71.5 71.4-71.5 71.4 31.8 71.4 71.5z m-392.8-392.9c0 39.6-31.8 71.4-71.5 71.4s-71.4-31.8-71.4-71.4 31.8-71.4 71.4-71.4 71.5 31.8 71.5 71.4z m670.7 277.9c0 39.1-32.3 71.4-71.4 71.4-39.6 0-71.4-32.3-71.4-71.4 0-39.6 31.8-71.4 71.4-71.4 39.1 0 71.4 31.8 71.4 71.4z m-537.9-555.8c0 49.1-40.2 89.3-89.3 89.3s-89.3-40.2-89.3-89.3 40.2-89.3 89.3-89.3 89.3 40.2 89.3 89.3z m652.9 277.9c0 39.6-31.8 71.4-71.4 71.4s-71.5-31.8-71.5-71.4 31.8-71.4 71.5-71.4 71.4 31.8 71.4 71.4z m-357.2-392.9c0 59.2-47.9 107.2-107.1 107.2s-107.1-48-107.1-107.2 47.9-107.1 107.1-107.1 107.1 48 107.1 107.1z m295.8 115c0 69.2-56.4 125-125 125-69.2 0-125-55.8-125-125 0-68.6 55.8-125 125-125 68.6 0 125 56.4 125 125z" /></svg>