<svg height="1000" width="857.1" xmlns="http://www.w3.org/2000/svg"><path d="m628.9 675.2c0-15.6-6.1-21.7-16.7-28.4-72-43-155.7-64.2-249.5-64.2-54.7 0-107.1 7.2-160.1 19-12.9 2.8-23.5 11.1-23.5 29 0 13.9 10.6 27.3 27.4 27.3 5 0 13.9-2.8 20.6-4.4 43.5-9 89.3-15.1 135.6-15.1 82.1 0 159.6 20.1 221.6 57.5 6.7 3.9 11.1 6.1 18.4 6.1 13.9 0 26.2-11.2 26.2-26.8z m53.6-120c0-15-5.6-25.6-19.6-34-85.3-50.8-193.6-78.7-305.8-78.7-71.9 0-121.1 10.1-169 23.5-17.9 5-26.8 17.3-26.8 35.7s15 33.5 33.5 33.5c7.8 0 12.2-2.3 20.6-4.5 39.1-10.6 85.9-18.4 140.1-18.4 106 0 202.5 27.9 272.3 69.2 6.1 3.3 12.3 7.2 21.2 7.2 19 0 33.5-15 33.5-33.5z m60.2-138.3c0-20.7-8.9-31.3-22.3-39.1-96.5-56.4-228.8-82.6-354.9-82.6-74.2 0-142.3 8.4-203.1 26.2-15.6 4.5-30.1 17.9-30.1 41.3 0 22.9 17.3 40.8 40.1 40.8 8.4 0 16.2-2.8 22.4-4.5 54.1-15.1 112.7-20.7 171.3-20.7 116 0 236.6 25.7 314.1 72 7.9 4.5 13.4 6.7 22.4 6.7 21.2 0 40.1-16.7 40.1-40.1z m114.4 83.1c0 236.6-191.9 428.6-428.5 428.6s-428.6-192-428.6-428.6 192-428.6 428.6-428.6 428.5 192 428.5 428.6z" /></svg>