<svg height="1000" width="928.6" xmlns="http://www.w3.org/2000/svg"><path d="m661.8 534l143.4-139.5-198.6-29-36.8-5.6-16.8-33.4-88.7-179.7v537.4l32.9 17.3 177.5 93.7-33.5-198.1-6.7-36.8z m252.3-146.2l-202.6 197.6 48 279c3.9 24.6-5 39.1-22.3 39.1-6.2 0-14-2.3-22.4-6.7l-250.5-131.7-250.6 131.7c-8.3 4.4-16.2 6.7-22.3 6.7-17.3 0-26.2-14.5-22.3-39.1l48-279-203.1-197.6c-24-24-16.2-47.4 17.3-52.4l280.1-40.8 125.5-253.9c7.3-15 17.3-22.8 27.4-22.8v0c10 0 19.5 7.8 27.3 22.8l125.6 253.9 280.1 40.8c33.5 5 41.3 28.4 16.8 52.4z" /></svg>