<svg height="1000" width="857.1" xmlns="http://www.w3.org/2000/svg"><path d="m693.1 361c0-59.1-48.6-107.7-108.3-107.7-59.1 0-107.7 48.6-107.7 107.7 0 59.8 48.6 107.8 107.7 107.8 59.7 0 108.3-48 108.3-107.8z m-340.4 328.2c0 61.4-49.1 110.5-110.5 110.5-42.4 0-79.3-24-97.7-59.2 18.4 7.3 36.3 14.5 54.7 22.3 44.7 17.9 96-3.9 114.4-49.1 17.9-44.6-3.9-96-49.1-113.8l-45.7-18.4c7.2-1.7 15.6-2.8 23.4-2.8 61.4 0 110.5 49.1 110.5 110.5z m504.4-457.1v535.8c0 88.7-71.9 160.7-160.7 160.7h-535.7c-88.7 0-160.7-72-160.7-160.7v-85.4l96 38.5c14.5 67.5 74.8 118.3 146.2 118.3 78.1 0 142.3-59.7 149.5-135.6l192.6-140.6c111.6 0 201.4-90.4 201.4-200.9 0-111.6-89.8-201.5-201.4-201.5-110 0-199.8 89.3-200.9 199.2l-125.6 179.7c-5-0.5-10-0.5-15.6-0.5-27.9 0-54.1 7.2-76.5 20.6l-165.7-66.4v-261.2c0-88.7 72-160.7 160.7-160.7h535.7c88.8 0 160.7 72 160.7 160.7z m-137.8 130.1c0 74.2-60.3 134.5-135 134.5-74.3 0-134.5-60.3-134.5-134.5 0-74.8 60.2-135.1 134.5-135.1 74.7 0 135 60.3 135 135.1z" /></svg>