<svg height="1000" width="785.7" xmlns="http://www.w3.org/2000/svg"><path d="m714.3 392.9c0-19.6-16.2-35.8-35.7-35.8s-35.7 16.2-35.7 35.8 16.1 35.7 35.7 35.7 35.7-16.2 35.7-35.7z m71.4 0c0 46.8-29.6 85.9-71.4 101v220.4c0 118.3-112.2 214.3-250 214.3s-250-96-250-214.3v-73.7c-121.1-15-214.3-104.3-214.3-212v-285.7c0-19.6 16.2-35.8 35.7-35.8 3.4 0 6.2 0.6 8.9 1.2 12.3-21.8 35.8-36.9 62.5-36.9 39.7 0 71.5 31.8 71.5 71.5s-31.8 71.4-71.5 71.4c-12.8 0-25.1-3.9-35.7-10.1v224.4c0 78.7 80.4 142.8 178.6 142.8s178.6-64.1 178.6-142.8v-224.4c-10.6 6.2-22.9 10.1-35.7 10.1-39.7 0-71.5-31.8-71.5-71.4s31.8-71.5 71.5-71.5c26.7 0 50.2 15.1 62.5 36.9 2.7-0.6 5.5-1.2 8.9-1.2 19.5 0 35.7 16.2 35.7 35.8v285.7c0 107.7-93.2 197-214.3 212v73.7c0 78.7 80.4 142.8 178.6 142.8s178.6-64.1 178.6-142.8v-220.4c-41.9-15.1-71.5-54.2-71.5-101 0-59.2 48-107.2 107.2-107.2s107.1 48 107.1 107.2z" /></svg>