<svg height="1000" width="1000.0" xmlns="http://www.w3.org/2000/svg"><path d="m982.1 500c10.1 0 17.9 7.8 17.9 17.9v35.7c0 10-7.8 17.8-17.9 17.8h-964.2c-10.1 0-17.9-7.8-17.9-17.8v-35.7c0-10.1 7.8-17.9 17.9-17.9h964.2z m-712.6-35.7c-10.6-13.4-20.1-28.5-28.4-44.7-17.9-36.2-26.8-71.4-26.8-104.9 0-68 25.1-125 74.8-172.4s122.7-70.9 219.3-70.9c21.2 0 51.9 3.9 93.2 10.6 24.5 4.5 57.4 13.4 98.7 26.8 3.9 14.5 7.8 36.8 11.8 65.9 5 44.1 7.8 78.1 7.8 102.1 0 7.8-1.1 16.2-2.8 25.1l-6.7 1.7-46.9-3.4-7.8-1.1c-19-56.4-38.5-94.3-57.5-114.4-32.9-34-72.5-50.8-117.2-50.8-42.4 0-76.4 11.2-101.5 33s-37.4 49.1-37.4 81.4c0 27.4 12.3 53 36.8 78.2s76.5 49.1 155.7 71.9c26.8 7.9 58.6 20.1 96.5 36.9 20.1 9.5 38 18.9 53.1 29h-414.7z m283 142.8h229.3c2.8 15.7 3.9 33 3.9 51.4 0 40.2-7.2 79.8-22.9 118.3-8.3 20.6-21.2 39.6-39.6 58-13.4 12.9-33.5 27.9-60.8 45.2-27.9 16.8-55.8 29.6-85.4 36.9-29.6 7.8-67 11.7-113.3 11.7-30.7 0-67.5-1.1-108.8-12.9l-78.1-22.3c-21.8-6.1-34.6-11.1-40.2-15.6-2.2-2.2-4.5-6.1-4.5-12.3v-7.2c0-4.5 1.2-33.5-1.1-87.1-1.1-27.9 1.1-47.4 1.1-58.6v-24.5l57-1.2c20.6 47.5 30.1 75.9 36.2 86 13.4 21.7 28.5 39 44.7 52.4s35.7 24 58.6 31.8c22.3 8.4 47.4 12.3 73.6 12.3 23.5 0 49.7-5 77.6-15 28.5-9.5 51.3-25.7 68.1-48 17.3-22.4 26.2-46.4 26.2-72 0-31.3-15.1-60.3-45.2-87.6-12.3-10.6-37.9-24-76.4-39.7z" /></svg>