<svg height="1000" width="857.1" xmlns="http://www.w3.org/2000/svg"><path d="m483.3 468.2l50.2-15.1v-34.6c0-59.1-50.2-106.6-109.4-106.6s-109.4 46.9-109.4 106.1v157.9c0 14.5-11.7 26.2-26.2 26.2s-25.7-11.7-25.7-26.2v-67h-84.2v68.1c0 60.8 49.1 109.4 109.9 109.4 59.7 0 109.4-48 109.4-107.7v-156.3c0-14.5 11.7-26.2 26.2-26.2 14 0 25.7 11.7 25.7 26.2v30.2z m185.8 108.8v-68.1h-83.7v70.3c0 14.6-11.7 26.3-26.2 26.3-14 0-25.7-11.7-25.7-26.3v-68.6l-50.2 14.5-33.5-15.6v68.6c0 59.7 49.6 108.3 109.9 108.3s109.4-48.6 109.4-109.4z m188-77c0 236.6-191.9 428.6-428.5 428.6s-428.6-192-428.6-428.6 192-428.6 428.6-428.6 428.5 192 428.5 428.6z" /></svg>