<svg height="1000" width="1000.0" xmlns="http://www.w3.org/2000/svg"><path d="m105.4 819l56.1 23.1v-376.1l-101.1 244c-17.5 42.3 2.7 91.2 45 109z m812.5-154.6l-206.6-498.6c-13-31.2-43.4-50.6-75.3-51.2-11-0.2-22.2 1.9-33.3 6.2l-306.9 127.1c-31.2 12.9-50.4 43.1-51.2 75-0.2 11.3 1.7 22.5 6.2 33.6l206.5 498.5c13.1 31.7 43.7 50.8 76.2 51.2 10.9 0 21.7-1.8 32.3-6.2l306.9-127.1c42.3-17.5 62.7-66.2 45.2-108.5z m-589.8-299.8c-22.9 0-41.6-18.8-41.6-41.7s18.7-41.7 41.6-41.7 41.7 18.8 41.7 41.7-18.8 41.7-41.7 41.7z m-83.3 458.3c0 45.9 37.5 83.4 83.3 83.4h60.7l-144-347.5v264.1z" /></svg>