<svg height="1000" width="857.1" xmlns="http://www.w3.org/2000/svg"><path d="m500.6 764v93.1h-138.4l-88.8-140.6-13.4-23.4c-3.3-3.9-5-7.8-6.1-11.7h-1.7c-1.1 3.9-3.3 7.8-5 11.7-3.3 6.7-8.4 15.6-13.9 24.5l-86.5 139.5h-144v-93.1h71.4l110-162.4-103.3-151.8h-76.4v-93.8h154l77.5 127.3c5.1 7.8 9 16.1 12.9 23.4 3.3 3.9 5 7.8 6.1 11.7h1.7c1.1-3.9 3.3-7.8 6.1-11.7l14-23.4 78.1-127.3h143.4v93.8h-69.7l-102.7 149 113.8 165.2h60.9z m355.4-379v115h-286.8l-1.7-15.1c-1.1-7.8-2.2-18.4-2.2-25.6 0-152.4 195.3-165.2 195.3-246.1 0-29-26.2-48.6-55.8-48.6-21.2 0-40.2 10.1-54.1 21.8-7.3 6.1-14 13.9-20.1 21.2l-58.6-51.3c10-14 21.2-25.7 35.1-36.9 23.5-18.4 57.5-36.3 105-36.3 80.9 0 137.2 47.5 137.2 121.7 0 133.9-185.2 145.1-193 224.9h129.4v-44.7h70.3z" /></svg>