<svg height="1000" width="834.0" xmlns="http://www.w3.org/2000/svg"><path d="m750 166q35.2 0 59.6 24.4t24.4 59.6v500q0 35.2-24.4 59.6t-59.6 24.4h-666q-35.2 0-59.6-24.4t-24.4-59.6v-500q0-35.2 24.4-59.6t59.6-24.4h666z m-509.8 509.8q-74.2-72.3-74.2-175.8t74.2-177.7l-58.6-58.6q-97.6 97.6-97.6 236.3t97.6 236.3z m176.8-9.8q69.3 0 118.2-48.8t48.8-117.2-48.8-117.2-118.2-48.8-118.2 48.8-48.8 117.2 48.8 117.2 118.2 48.8z m235.3 70.3q97.7-97.6 97.7-236.3t-97.7-236.3l-58.5 60.5q72.2 72.3 72.2 175.8t-72.2 177.7z m-235.3-320.3q34.2 0 58.6 24.4t24.4 59.6-24.4 59.6-58.6 24.4-58.6-24.4-24.4-59.6 24.4-59.6 58.6-24.4z" /></svg>