<svg height="1000" width="1000.0" xmlns="http://www.w3.org/2000/svg"><path d="m833.3 166.7h-666.6c-46.1 0-83.4 37.3-83.4 83.3v500c0 46 37.3 83.3 83.4 83.3h666.6c46.1 0 83.4-37.3 83.4-83.3v-500c0-46-37.3-83.3-83.4-83.3z m-510.2 510.2l-58.9 58.9c-64.8-65.2-97.5-150.4-97.5-235.8s32.7-170.6 97.7-235.6l58.9 58.9c-48.7 48.6-73.3 112.7-73.3 176.7s24.4 128.1 73.1 176.9z m176.9-10.2c-92.1 0-166.7-74.6-166.7-166.7s74.6-166.7 166.7-166.7 166.7 74.6 166.7 166.7-74.6 166.7-166.7 166.7z m235.6 68.9l-58.9-58.9c48.9-48.6 73.3-112.7 73.3-176.7s-24.6-128.1-73.1-176.9l58.9-58.9c64.8 65.2 97.5 150.4 97.5 235.8s-32.7 170.6-97.7 235.6z m-235.6-318.9c-46 0-83.3 37.3-83.3 83.3s37.3 83.3 83.3 83.3 83.3-37.3 83.3-83.3-37.3-83.3-83.3-83.3z" /></svg>