<svg height="1000" width="1000.0" xmlns="http://www.w3.org/2000/svg"><path d="m416.7 264.6v-87.1c-33.4 8.5-64.4 22.3-92.9 40l61 61c10.2-5.2 20.8-10.2 31.9-13.9z m-297.3-39.2l98.1 98.1c-32.1 51.3-50.8 111.5-50.8 176.5 0 92.1 37.7 175 98.1 235.2l-98.1 98.1h250v-250l-93.2 93.2c-45.4-45.2-73.5-107.5-73.5-176.5 0-41.7 10.4-80.8 28.5-115.4l336.9 336.9c-10.2 5.4-20.8 10.2-31.9 14.1v86.9c33.4-8.5 64.4-22.3 93-40l98.3 98.3 53.1-53.1-655.6-655.4-52.9 53.1z m713.9-58.7h-250v250l93.2-93.2c45.4 45.3 73.5 107.5 73.5 176.5 0 41.7-10.4 80.8-28.5 115.4l61 61.1c32.1-51.3 50.8-111.5 50.8-176.5 0-92.1-37.7-175-98.1-235.2l98.1-98.1z" /></svg>