<svg height="1000" width="916.0" xmlns="http://www.w3.org/2000/svg"><path d="m0 375v-84h84v84h-84z m0 166v-82h84v82h-84z m0-332q0-35.2 24.4-59.6t59.6-24.4v84h-84z m334 666v-84h82v84h-82z m-334-166v-84h84v84h-84z m84 166q-35.2 0-59.6-24.4t-24.4-59.6h84v84z m750-750q33.2 0 57.6 24.4t24.4 59.6v166h-416v-250h334z m0 584v-84h82v84h-82z m-500-500v-84h82v84h-82z m-168 666v-84h84v84h-84z m0-666v-84h84v84h-84z m668 666v-84h82q0 35.2-24.4 59.6t-57.6 24.4z m0-334v-82h82v82h-82z m-334 334v-84h84v84h-84z m166 0v-84h84v84h-84z" /></svg>