<svg height="1000" width="928.6" xmlns="http://www.w3.org/2000/svg"><path d="m285.7 767.9v-107.2c0-10-7.8-17.8-17.8-17.8h-178.6c-10.1 0-17.9 7.8-17.9 17.8v107.2c0 10 7.8 17.8 17.9 17.8h178.6c10 0 17.8-7.8 17.8-17.8z m0-214.3v-107.2c0-10-7.8-17.8-17.8-17.8h-178.6c-10.1 0-17.9 7.8-17.9 17.8v107.2c0 10 7.8 17.8 17.9 17.8h178.6c10 0 17.8-7.8 17.8-17.8z m285.7 214.3v-107.2c0-10-7.8-17.8-17.8-17.8h-178.6c-10 0-17.9 7.8-17.9 17.8v107.2c0 10 7.9 17.8 17.9 17.8h178.6c10 0 17.8-7.8 17.8-17.8z m-285.7-428.6v-107.2c0-10-7.8-17.8-17.8-17.8h-178.6c-10.1 0-17.9 7.8-17.9 17.8v107.2c0 10 7.8 17.8 17.9 17.8h178.6c10 0 17.8-7.8 17.8-17.8z m285.7 214.3v-107.2c0-10-7.8-17.8-17.8-17.8h-178.6c-10 0-17.9 7.8-17.9 17.8v107.2c0 10 7.9 17.8 17.9 17.8h178.6c10 0 17.8-7.8 17.8-17.8z m285.7 214.3v-107.2c0-10-7.8-17.8-17.8-17.8h-178.6c-10 0-17.8 7.8-17.8 17.8v107.2c0 10 7.8 17.8 17.8 17.8h178.6c10 0 17.8-7.8 17.8-17.8z m-285.7-428.6v-107.2c0-10-7.8-17.8-17.8-17.8h-178.6c-10 0-17.9 7.8-17.9 17.8v107.2c0 10 7.9 17.8 17.9 17.8h178.6c10 0 17.8-7.8 17.8-17.8z m285.7 214.3v-107.2c0-10-7.8-17.8-17.8-17.8h-178.6c-10 0-17.8 7.8-17.8 17.8v107.2c0 10 7.8 17.8 17.8 17.8h178.6c10 0 17.8-7.8 17.8-17.8z m0-214.3v-107.2c0-10-7.8-17.8-17.8-17.8h-178.6c-10 0-17.8 7.8-17.8 17.8v107.2c0 10 7.8 17.8 17.8 17.8h178.6c10 0 17.8-7.8 17.8-17.8z m71.5-178.6v607.2c0 49.1-40.2 89.2-89.3 89.2h-750c-49.1 0-89.3-40.1-89.3-89.2v-607.2c0-49.1 40.2-89.3 89.3-89.3h750c49.1 0 89.3 40.2 89.3 89.3z" /></svg>