<svg height="1000" width="1000.0" xmlns="http://www.w3.org/2000/svg"><path d="m214.3 642.9c0-39.7-31.8-71.5-71.4-71.5s-71.5 31.8-71.5 71.5 31.8 71.4 71.5 71.4 71.4-31.8 71.4-71.4z m107.1-250c0-39.7-31.8-71.5-71.4-71.5s-71.4 31.8-71.4 71.5 31.8 71.4 71.4 71.4 71.4-31.8 71.4-71.4z m238.9 268.4l56.3-213.2c4.5-19-6.7-38.5-25.6-43.5v0c-19-5-38.5 6.7-43.6 25.6l-56.3 213.2c-44.1 3.4-82.6 34.1-94.9 79.3-15.1 57.4 19.5 116 76.5 131.1 57.4 15.1 116-19.5 131.1-76.5 11.7-45.2-7.3-90.9-43.5-116z m368.3-18.4c0-39.7-31.8-71.5-71.5-71.5s-71.4 31.8-71.4 71.5 31.8 71.4 71.4 71.4 71.5-31.8 71.5-71.4z m-357.2-357.2c0-39.6-31.8-71.4-71.4-71.4s-71.4 31.8-71.4 71.4 31.8 71.4 71.4 71.4 71.4-31.8 71.4-71.4z m250 107.2c0-39.7-31.8-71.5-71.4-71.5s-71.4 31.8-71.4 71.5 31.8 71.4 71.4 71.4 71.4-31.8 71.4-71.4z m178.6 250c0 95.9-27.3 188.6-78.7 269.5-6.7 10-17.8 16.2-30.1 16.2h-782.4c-12.3 0-23.4-6.2-30.1-16.2-51.4-80.4-78.7-173.6-78.7-269.5 0-275.7 224.3-500 500-500s500 224.3 500 500z" /></svg>