<svg height="1000" width="1000.0" xmlns="http://www.w3.org/2000/svg"><path d="m916 125q35.2 0 59.6 24.4t24.4 59.6v582q0 35.2-24.4 59.6t-59.6 24.4h-621.1q-44.9 0-70.3-37.1l-224.6-337.9 224.6-337.9q25.4-37.1 66.4-37.1h625z m-541 437.5q25.4 0 43.9-18.6t18.6-43.9-18.6-43.9-43.9-18.6-43.9 18.6-18.6 43.9 18.6 43.9 43.9 18.6z m208 0q26.4 0 44.9-18.6t18.6-43.9-18.6-43.9-44.9-18.6-43.9 18.6-17.6 43.9 17.6 43.9 43.9 18.6z m209 0q26.4 0 43.9-18.6t17.6-43.9-17.6-43.9-43.9-18.6-44.9 18.6-18.6 43.9 18.6 43.9 44.9 18.6z" /></svg>