<svg height="1000" width="1000.0" xmlns="http://www.w3.org/2000/svg"><path d="m499.8 83.3c-230.2 0-416.5 186.5-416.5 416.7s186.3 416.7 416.5 416.7c230.2 0 416.9-186.5 416.9-416.7s-186.7-416.7-416.9-416.7z m0.2 750c-184.2 0-333.3-149.1-333.3-333.3s149.1-333.3 333.3-333.3 333.3 149.1 333.3 333.3-149.1 333.3-333.3 333.3z m145.8-375c34.6 0 62.5-27.9 62.5-62.5s-27.9-62.5-62.5-62.5-62.5 28-62.5 62.5 28 62.5 62.5 62.5z m-291.6 0c34.6 0 62.5-27.9 62.5-62.5s-27.9-62.5-62.5-62.5-62.5 28-62.5 62.5 27.9 62.5 62.5 62.5z m145.8 270.9c97.1 0 179.4-60.7 212.7-145.9h-425.4c33.3 85.2 115.6 145.9 212.7 145.9z" /></svg>