<svg height="1000" width="1071.4" xmlns="http://www.w3.org/2000/svg"><path d="m250 250c0-39.6-31.8-71.4-71.4-71.4s-71.5 31.8-71.5 71.4 31.9 71.4 71.5 71.4 71.4-31.8 71.4-71.4z m595.4 321.4c0 19-7.8 37.4-20.6 50.3l-274 274.5c-13.4 12.8-31.8 20.7-50.8 20.7s-37.4-7.9-50.2-20.7l-399-399.5c-28.5-27.9-50.8-82.1-50.8-121.7v-232.1c0-39.1 32.4-71.5 71.4-71.5h232.2c39.6 0 93.7 22.4 122.2 50.8l399 398.4c12.8 13.4 20.6 31.9 20.6 50.8z m214.3 0c0 19-7.8 37.4-20.6 50.3l-274 274.5c-13.4 12.8-31.8 20.7-50.8 20.7-29 0-43.5-13.4-62.5-33l262.3-262.2c12.8-12.9 20.6-31.3 20.6-50.3s-7.8-37.4-20.6-50.8l-399-398.4c-28.5-28.4-82.6-50.8-122.2-50.8h125c39.6 0 93.7 22.4 122.2 50.8l399 398.4c12.8 13.4 20.6 31.9 20.6 50.8z" /></svg>