<svg height="1000" width="1000.0" xmlns="http://www.w3.org/2000/svg"><path d="m571.4 785.7h357.2v-71.4h-357.2v71.4z m-214.3-285.7h571.5v-71.4h-571.5v71.4z m357.2-285.7h214.3v-71.4h-214.3v71.4z m285.7 464.3v142.8c0 19.6-16.2 35.7-35.7 35.7h-928.6c-19.5 0-35.7-16.1-35.7-35.7v-142.8c0-19.6 16.2-35.7 35.7-35.7h928.6c19.5 0 35.7 16.1 35.7 35.7z m0-285.7v142.8c0 19.5-16.2 35.7-35.7 35.7h-928.6c-19.5 0-35.7-16.2-35.7-35.7v-142.8c0-19.6 16.2-35.8 35.7-35.8h928.6c19.5 0 35.7 16.2 35.7 35.8z m0-285.8v142.9c0 19.5-16.2 35.7-35.7 35.7h-928.6c-19.5 0-35.7-16.2-35.7-35.7v-142.9c0-19.5 16.2-35.7 35.7-35.7h928.6c19.5 0 35.7 16.2 35.7 35.7z" /></svg>