<svg height="1000" width="1142.9" xmlns="http://www.w3.org/2000/svg"><path d="m1017.9 500c69.2 0 125 55.8 125 125v214.3c0 10-7.9 17.8-17.9 17.8h-53.6v35.8c0 59.1-48 107.1-107.1 107.1s-107.2-48-107.2-107.1v-35.8h-571.4v35.8c0 59.1-48 107.1-107.1 107.1s-107.2-48-107.2-107.1v-35.8h-53.5c-10.1 0-17.9-7.8-17.9-17.8v-214.3c0-69.2 55.8-125 125-125h15.6l58.6-233.8c17.3-70.3 85.4-123.3 157.9-123.3h71.5v-125c0-10.1 7.8-17.9 17.8-17.9h250c10.1 0 17.9 7.8 17.9 17.9v125h71.4c72.6 0 140.6 53 157.9 123.3l58.6 233.8h15.7z m-839.3 267.9c49.1 0 89.3-40.2 89.3-89.3s-40.2-89.3-89.3-89.3-89.3 40.2-89.3 89.3 40.2 89.3 89.3 89.3z m109.3-267.9h567l-49.7-199.2c-1.6-6.2-12.8-15.1-19.5-15.1h-428.6c-6.7 0-17.8 8.9-19.5 15.1z m676.4 267.9c49.1 0 89.3-40.2 89.3-89.3s-40.2-89.3-89.3-89.3-89.3 40.2-89.3 89.3 40.2 89.3 89.3 89.3z" /></svg>