<svg height="1000" width="714.3" xmlns="http://www.w3.org/2000/svg"><path d="m469.9 319.2c0 59.1-48.6 107.7-107.7 107.7-22.9 0-44.1-7.3-62-19.5-20.1 21.7-42.4 49.1-64.2 81.4-90.9 136.8-129.4 298-112.7 479.4 1.1 16.2-10.6 30.1-26.2 31.8h-2.8c-14.5 0-27.3-11.2-29-26.2-21.8-244.4 55.8-417.4 124.4-519.6 25.1-37.3 50.3-67.5 73.7-92-6.1-13.4-8.9-27.9-8.9-43 0-59.7 48-107.7 107.7-107.7 59.1 0 107.7 48 107.7 107.7z m212.6 6.1c0 179.2-145.7 324.8-325.4 324.8-24.5 0-49.1-2.8-73.1-7.8-15.6-3.9-25.1-19.5-21.7-35.2 3.9-15 19-25.1 34.6-21.7 19.5 5 40.2 7.2 60.2 7.2 147.4 0 267.3-119.9 267.3-267.3s-119.9-267.3-267.3-267.3-267.3 120-267.3 267.3c0 43 10.1 83.7 29.1 121.7 7.2 14.5 1.6 31.8-12.3 39-14.5 7.3-31.8 1.7-39.1-12.8-23.4-45.2-35.7-96.5-35.7-147.9 0-179.7 146.2-325.3 325.3-325.3 179.7 0 325.4 145.6 325.4 325.3z" /></svg>