<svg height="1000" width="857.1" xmlns="http://www.w3.org/2000/svg"><path d="m45.2 72l30.1 15.1c3.9 1.6 106.1 2.7 117.8 2.7 49.1 0 98.2-2.2 147.3-2.2 147.9 0 297.4-3.3 445.3 1.7 12.3 0.5 24-7.3 31.3-17.3l23.4-0.6c5 0 10.6 0.6 15.6 0.6 1.1 62.5 1.1 125 1.1 187.5 0 20.1 0.6 41.3-2.7 60.8-12.3 4.5-25.2 8.4-38 10.1-12.8-22.4-21.8-46.9-30.1-71.5-3.9-11.1-17.9-86.5-18.4-87.6-3.9-5-9-8.4-15.1-10.6-4.5-1.7-31.3-1.1-36.8-1.1-68.7 0-147.9-3.9-215.4 3.9-2.8 24.6-5.1 50.8-4.5 75.9l0.6 84.8v-29c0.5 91 1.6 181.4 1.6 271.8 0 42.9-6.7 88.1 5.6 129.4 42.4 21.8 92.6 25.1 136.2 44.7 1.1 8.9 2.8 18.4 2.8 27.9 0 5-0.6 10.6-1.7 16.2l-19 0.5c-79.2 2.2-157.4-10-237.2-10-56.3 0-112.7 10-169 10-0.6-9.5-1.7-19.5-1.7-29v-5c21.2-34.1 97.6-34.6 132.8-55.3 13.9-31.2 10-295.2 10-344.3 0-7.8-2.7-16.2-2.7-24.5 0-22.9 3.9-154.1-4.5-163.5-7.8-8.4-80.9-6.7-90.4-6.7-23.5 0-154.6 12.2-168 21.2-26.2 17.3-26.8 129.4-60.2 132.2-10.1-6.1-24-15-31.3-24.5v-213.8z m685.8 715.4c19.6 0 93.8 66.4 108.8 78.1 8.4 6.7 14.6 16.2 14.6 27.4s-6.2 20.6-14.6 27.3c-15 11.7-89.2 78.1-108.8 78.1-25.6 0-16.7-59.7-16.7-69.7h-571.4c0 10 8.9 69.7-16.8 69.7-19.5 0-93.7-66.4-108.8-78.1-8.4-6.7-14.5-16.2-14.5-27.3s6.1-20.7 14.5-27.4c15.1-11.7 89.3-78.1 108.8-78.1 25.7 0 16.8 59.7 16.8 69.7h571.4c0-10-8.9-69.7 16.7-69.7z" /></svg>