<svg height="1000" width="1000.0" xmlns="http://www.w3.org/2000/svg"><path d="m973.2 785.7c24.6 0 32.4 15.6 17.3 35.2l-70.3 90.4c-15.1 19.5-39.6 19.5-54.7 0l-70.3-90.4c-15.1-19.6-7.3-35.2 17.3-35.2h44.6v-571.4h-44.6c-24.6 0-32.4-15.6-17.3-35.2l70.3-90.4c15.1-19.5 39.6-19.5 54.7 0l70.3 90.4c15.1 19.6 7.3 35.2-17.3 35.2h-44.6v571.4h44.6z m-928-713.7l30.1 15.1c3.9 1.6 106.1 2.7 117.8 2.7 49.1 0 98.2-2.2 147.3-2.2 40.2 0 79.8 0.6 120 0.6h163.5c22.3 0 35.1 5 50.2-16.2l23.4-0.6c5.1 0 10.6 0.6 15.7 0.6 1.1 62.5 1.1 125 1.1 187.5 0 19.5 0.5 41.3-2.8 60.8-12.3 4.5-25.1 8.4-38 10.1-12.8-22.4-21.7-46.9-30.1-71.5-3.9-11.1-17.3-86.5-18.4-87.6-11.7-14.5-24.6-11.7-41.9-11.7-50.7 0-103.7-2.2-154 3.9-2.8 24.6-5 50.8-4.4 75.9 0.5 156.8 2.2 313.6 2.2 470.4 0 43-6.7 88.2 5.6 129.5 42.4 21.7 92.6 25.1 136.1 44.6 1.2 9 2.8 18.4 2.8 27.9 0 5.1-0.5 10.6-1.6 16.2l-19 0.6c-79.3 2.2-157.4-10.1-237.2-10.1-56.3 0-112.7 10.1-169.1 10.1-0.5-9.5-1.6-19.6-1.6-29v-5.1c21.2-34 97.6-34.6 132.8-55.2 12.2-27.4 10.6-178.6 10.6-213.7 0-112.8-3.4-225.5-3.4-338.2v-65.3c0-10 2.3-50.2-4.4-58-7.9-8.4-81-6.7-90.4-6.7-20.7 0-80.4 9.5-96.6 21.2-26.8 18.4-26.8 130-60.2 132.2-10.1-6.1-24-15-31.3-24.5v-213.8z" /></svg>