<svg height="1000" width="857.1" xmlns="http://www.w3.org/2000/svg"><path d="m142.9 250c0-19.5-16.2-35.7-35.8-35.7s-35.7 16.2-35.7 35.7 16.2 35.7 35.7 35.7 35.8-16.2 35.8-35.7z m642.8 321.4c0-20.6-15.6-70.8-41.8-71.4 11.7-13.4 19.5-39.6 19.5-57.5 0-26.2-10.6-48.5-29.6-66.4 6.7-11.7 10.1-25.1 10.1-38.5 0-25.7-12.9-57.5-36.3-70.3 1.7-10 2.8-20.6 2.8-31.3 0-65.2-41.3-93.1-103.3-93.1h-71.4c-65.8 0-129.4 19.5-190.8 40.7-30.2 10.6-81.5 30.7-112.8 30.7h-17.8v357.1h17.8c44.1 0 110.5 95.5 135.6 127.8 14 17.3 27.4 34.6 43 50.8 54.1 56.9 35.7 142.3 71.4 178.6 76.5 0 89.3-41.9 89.3-107.2 0-65.8-53.5-113.3-53.5-178.5h196.4c37.4 0 71.4-33.5 71.4-71.5z m71.4 0.6c0 77-65.8 142.3-142.8 142.3h-98.2c16.7 34.6 26.8 68.1 26.8 107.1 0 36.9-2.3 70.3-19.6 103.8-27.3 54.2-83.1 74.8-141.2 74.8-18.9 0-36.8-7.8-50.2-20.6-55.8-54.7-38.5-142.9-71.4-179.2-21.2-22.3-40.7-46.3-59.7-70.8-16.8-21.8-54.7-72-76.5-86.5h-152.9c-39.6 0-71.4-31.9-71.4-71.5v-357.1c0-39.6 31.8-71.4 71.4-71.4h160.7c15.7 0 60.9-16.8 77.1-22.4 80.3-27.9 150.1-49.1 236-49.1h62.5c101.6 0 174.7 60.3 174.1 164.6v2.8c21.8 27.9 33.5 63.7 33.5 99.4 0 7.8-0.6 16.2-1.7 24 14 24.5 21.2 52.4 21.2 80.3 0 12.9-1.7 26.2-5 38.5 17.9 26.8 27.3 58.6 27.3 91z" /></svg>