<svg height="1000" width="642.9" xmlns="http://www.w3.org/2000/svg"><path d="m267.9 482.1v-250c0-10-7.9-17.8-17.9-17.8s-17.9 7.8-17.9 17.8v250c0 10.1 7.9 17.9 17.9 17.9s17.9-7.8 17.9-17.9z m375 196.5c0 19.5-16.2 35.7-35.8 35.7h-239.4l-28.4 269.5c-1.1 8.9-8.4 16.2-17.3 16.2h-0.6c-8.9 0-16.2-6.1-17.8-15.1l-42.4-270.6h-225.5c-19.5 0-35.7-16.2-35.7-35.7 0-91.5 69.2-178.6 142.9-178.6v-285.7c-39.1 0-71.5-32.4-71.5-71.4s32.4-71.5 71.5-71.5h357.1c39.1 0 71.4 32.4 71.4 71.5s-32.3 71.4-71.4 71.4v285.7c73.7 0 142.9 87.1 142.9 178.6z" /></svg>