<svg height="1000" width="857.1" xmlns="http://www.w3.org/2000/svg"><path d="m142.9 750c0-19.5-16.2-35.7-35.8-35.7s-35.7 16.2-35.7 35.7 16.2 35.7 35.7 35.7 35.8-16.2 35.8-35.7z m642.8-321.4c0-38-34-71.5-71.4-71.5h-196.4c0-65.2 53.5-112.7 53.5-178.5 0-65.3-12.8-107.2-89.3-107.2-35.7 36.3-17.3 121.7-71.4 178.6-15.6 16.2-29 33.5-43 50.8-25.1 32.3-91.5 127.8-135.6 127.8h-17.8v357.1h17.8c31.3 0 82.6 20.1 112.8 30.7 61.4 21.2 125 40.7 190.8 40.7h67.5c63.1 0 107.2-25.1 107.2-93.1 0-10.7-1.1-21.3-2.8-31.3 23.4-12.8 36.3-44.6 36.3-70.3 0-13.4-3.4-26.8-10.1-38.5 19-17.9 29.6-40.2 29.6-66.4 0-17.9-7.8-44.1-19.5-57.5 26.2-0.6 41.8-50.8 41.8-71.4z m71.4-0.6c0 32.4-9.4 64.2-27.3 91 3.3 12.3 5 25.6 5 38.5 0 27.9-7.2 55.8-21.2 80.3 1.1 7.8 1.7 16.2 1.7 24 0 35.7-11.7 71.5-33.5 99.4 1.1 105.4-70.9 167.4-174.1 167.4h-20.1-51.9c-79.2 0-152.9-23.5-226.5-49.1-16.2-5.6-61.4-22.4-77.1-22.4h-160.7c-39.6 0-71.4-31.8-71.4-71.4v-357.1c0-39.6 31.8-71.5 71.4-71.5h152.9c21.8-14.5 59.7-64.7 76.5-86.5 19-24.5 38.5-48.5 59.7-71.4 33.5-35.7 15.6-123.9 71.4-178.6 13.4-12.8 31.3-20.6 50.2-20.6 58.1 0 113.9 20.6 141.2 74.8 17.3 34 19.6 66.4 19.6 103.8 0 39-10.1 72.5-26.8 107.1h98.2c77 0 142.8 65.3 142.8 142.3z" /></svg>