<svg height="1000" width="928.6" xmlns="http://www.w3.org/2000/svg"><path d="m142.9 750c0-19.5-16.2-35.7-35.8-35.7-20 0-35.7 16.2-35.7 35.7 0 20.1 15.7 35.7 35.7 35.7 19.6 0 35.8-15.6 35.8-35.7z m89.2-285.7v357.1c0 19.6-16.1 35.7-35.7 35.7h-160.7c-19.5 0-35.7-16.1-35.7-35.7v-357.1c0-19.5 16.2-35.7 35.7-35.7h160.7c19.6 0 35.7 16.2 35.7 35.7z m660.8 0c0 29.6-11.8 61.4-30.7 83.1 6.1 17.9 8.3 34.6 8.3 42.4 1.2 27.9-7.2 54.2-24 76.5 6.2 20.6 6.2 43 0 65.3-5.5 20.6-16.1 39-30.1 52.4 3.4 41.9-6.1 75.9-27.3 101-24 28.5-60.9 43-110 43.6h-20.1-42.4-9.5c-79.8 0-155.1-26.3-215.4-46.9-35.1-12.3-68.6-24-88.1-24.6-19-0.5-35.7-16.1-35.7-35.7v-357.7c0-18.4 15.6-34 34-35.7 20.6-1.7 74.2-68.1 98.8-100.4 20.1-25.7 39-49.7 56.3-67 21.8-21.8 27.9-55.2 34.6-87.6 6.2-32.9 12.9-67.5 36.9-91 6.7-6.7 15.6-10.6 25.1-10.6 125 0 125 99.9 125 142.9 0 45.7-16.2 78.1-31.3 107.1-6.1 12.3-11.7 17.9-16.2 35.7h154.6c58.1 0 107.2 49.2 107.2 107.2z" /></svg>