<svg height="1000" width="1000.0" xmlns="http://www.w3.org/2000/svg"><path d="m500 250v52.7q0 11.8-3.9 21.5l-95.7 220.7q-15.6 39.1-56.6 39.1h-281.3q-25.4 0-43.9-18.6t-18.6-43.9v-271.5q0-25.4 17.6-44.9l207-205.1 33.2 33.2q13.7 13.7 13.7 33.2l-2 9.8-27.3 132.8h216.8q15.6 0 28.3 11.7t12.7 29.3z m437.5 166q25.4 0 43.9 18.6t18.6 43.9v271.5q0 25.4-17.6 44.9l-207 205.1-33.2-33.2q-13.7-13.7-13.7-33.2l2-9.8 27.3-132.8h-216.8q-15.6 0-28.3-11.7t-12.7-29.3v-52.7q0-11.8 3.9-21.5l95.7-220.7q15.6-39.1 56.7-39.1h281.2z" /></svg>