<svg height="1000" width="1000.0" xmlns="http://www.w3.org/2000/svg"><path d="m571.4 252.2l176.4 176.4-319.2 319.2-176.4-176.4z m-117.7 546.3l344.8-344.8c14-14 14-36.3 0-50.2l-202-202c-13.4-13.4-36.8-13.4-50.2 0l-344.8 344.8c-14 14-14 36.3 0 50.2l202 202c6.7 6.7 15.6 10.1 25.1 10.1s18.4-3.4 25.1-10.1z m496.1-355.4l-506.2 506.7c-27.9 27.3-73.6 27.3-101 0l-70.3-70.3c41.9-41.9 41.9-110 0-151.8s-109.9-41.9-151.8 0l-69.7-70.3c-27.9-27.4-27.9-73.1 0-101l506.1-505.6c27.4-27.9 73.1-27.9 101 0l69.8 69.7c-41.9 41.9-41.9 110 0 151.8s109.9 41.9 151.8 0l70.3 69.8c27.3 27.9 27.3 73.6 0 101z" /></svg>