<svg height="1000" width="802.7" xmlns="http://www.w3.org/2000/svg"><path d="m720.7 189.5l58.6 58.5-58.6 60.6q82 101.6 82 232.4 0 113.3-62.5 207l-60.5-60.5q39.1-68.4 39.1-146.5 0-121.1-85-206t-206.1-85q-78.1 0-146.4 39.1l-60.6-60.6q93.8-62.5 207-62.5 130.9 0 234.4 82z m-168-148.5v84h-250v-84h250z m-167.9 351.6v-58.6h84v142.6z m-332.1-226.6l418 418 320.3 322.3-52.7 52.7-103.5-105.5q-93.8 62.5-207.1 62.5-156.2 0-265.6-109.4t-109.4-265.6q0-113.3 62.5-207l-115.2-115.2z m375 668q78.2 0 146.5-41l-398.4-398.5q-41 68.4-41 146.5 0 121.1 85.9 207t207 86z" /></svg>