<svg height="1000" width="785.7" xmlns="http://www.w3.org/2000/svg"><path d="m724.3 737.7c0 14-5.5 27.9-15.6 38l-75.9 75.9c-10 10-24 15.6-37.9 15.6s-27.9-5.6-38-15.6l-164-164.1-164.1 164.1c-10 10-24 15.6-38 15.6s-27.9-5.6-37.9-15.6l-75.9-75.9c-10-10.1-15.6-24-15.6-38s5.6-27.9 15.6-37.9l164.1-164.1-164.1-164c-10-10.1-15.6-24-15.6-38s5.6-27.9 15.6-37.9l75.9-75.9c10-10.1 24-15.7 37.9-15.7s28 5.6 38 15.7l164.1 164 164-164c10.1-10.1 24-15.7 38-15.7s27.9 5.6 37.9 15.7l75.9 75.9c10.1 10 15.6 24 15.6 37.9s-5.5 27.9-15.6 38l-164.1 164 164.1 164.1c10.1 10 15.6 24 15.6 37.9z" /></svg>