<svg height="1000" width="1000.0" xmlns="http://www.w3.org/2000/svg"><path d="m483.8 540.6c-6.7-10-15.3-19.1-25.7-27.3-10.6-8.1-23.3-14.5-38.5-19.8 12.7-5.6 23.7-12.7 33.3-20.8 9.6-8.3 17.5-17.1 23.8-26.4s11-19.2 14.3-29.4c3.2-10.2 4.8-20.2 4.8-30.2 0-23.2-3.9-43.4-11.4-61.1-7.7-17.5-18.6-32.3-32.5-43.9s-30.6-20.7-50.2-26.7c-19.6-6-41.1-9-64.6-9-22.9 0-44 3.4-63.3 10.3s-36.1 16.2-50 28.3c-14 12.1-24.8 26.4-32.8 42.9s-11.6 34.6-11.6 54h82.5c0-10.7 1.9-20.2 5.8-28.8s9.2-15.8 16.1-21.7c6.8-6 14.7-10.6 24.1-13.9s19.4-5 30.2-5c25.4 0 44.2 6.4 56.7 19.6 12.3 13.1 18.5 31.2 18.5 54.8 0 11.2-1.6 21.6-5 30.8-3.3 9.4-8.5 17.3-15.6 23.7-7.1 6.7-15.8 11.7-26.2 15.5s-22.7 5.6-37.1 5.6h-49v65.2h49c13.9 0 26.6 1.7 37.9 4.8s20.8 8.1 28.7 14.8c8 6.6 14 15.2 18.4 25.4s6.4 22.3 6.4 36.5c0 25.8-7.3 45.6-22 59.1s-34.8 20.4-60.5 20.4c-12.3 0-23.3-1.6-33.3-5.2s-18.5-8.5-25.4-15c-7.1-6.4-12.5-14.1-16.3-23.3-3.9-9-5.8-19-5.8-30h-83.1c0 22.9 4.4 43.1 13.3 60.4 8.8 17.5 20.6 32.1 35.6 43.8s32.3 20.4 51.9 26.2c19.6 5.8 40.2 8.8 61.7 8.8 23.5 0 45.4-3.4 65.8-9.6 20.2-6.5 37.9-15.9 52.7-28.1s26.5-27.5 34.8-45.7c8.3-18.1 12.5-38.7 12.5-61.8 0-12.3-1.4-24.2-4.6-35.7-3.1-11.6-7.9-22.5-14.3-32.5z m386 57.9c-6-11.8-14.8-22-26.3-30.8s-25.6-16-42-22.1c-16.7-6-35.5-11.2-56.3-15.6-14.6-3.1-26.4-6.2-36-9.6-9.6-3.1-17.3-6.6-22.9-10.4s-9.6-8.1-11.9-12.7c-2.3-4.6-3.4-10-3.4-16s1.3-11.7 3.8-17.3c2.5-5.5 6.2-10.2 11.2-14.4s11.3-7.5 19-10c7.5-2.5 16.5-3.8 26.7-3.8 10.4 0 19.6 1.5 27.5 4.6 7.9 2.9 14.6 7.1 19.8 12.3 5.4 5.2 9.3 11.1 12 17.5 2.8 6.7 4 13.3 4 20.2h81.3c0-16.2-3.4-31.4-9.8-45.4-6.7-14-16.1-26.3-28.6-36.7s-27.7-18.5-45.6-24.3c-18.1-6.1-38.3-9-61.1-9-21.4 0-40.8 2.9-57.9 8.7-17.3 5.9-31.8 14-44.1 24-12.1 10-21.5 21.7-28 35s-9.7 27.3-9.7 41.9c0 15.2 3.1 28.5 9.5 40.2 6.3 11.7 15.2 21.7 26.7 30.2s25 15.8 41 21.9c15.9 6 33.6 11 53 15 16.2 3.3 29.3 6.8 39.5 10.6s18 7.9 23.6 12.3c5.6 4.4 9.4 8.9 11.2 13.9s3 10.5 3 16.3c0 13.1-5.7 23.7-16.7 31.9-11.3 8.1-27.5 12.3-48.8 12.3-9.1 0-18.1-1.1-26.6-3.2-8.8-2-16.5-5.4-23.4-10.2-6.8-4.6-12.5-10.8-17-18.3-4.4-7.5-7.1-16.9-7.8-28.1h-78.9c0 15 3.3 29.6 9.8 43.9s16.2 27.3 29.2 38.6c12.9 11.4 28.9 20.6 47.9 27.5 18.9 7.1 41 10.6 65.6 10.6 22.1 0 42.1-2.7 60.2-7.9 18.1-5.4 33.5-12.9 46.3-22.5 12.9-9.8 22.7-21.3 29.5-34.6s10.5-28.1 10.5-44.2c0-16.4-3.2-30.4-9-42.3z" /></svg>