<svg height="1000" width="1000.0" xmlns="http://www.w3.org/2000/svg"><path d="m0 321.5v70.2l125-41.7v400h83.3v-500h-10.6l-197.7 71.5z m991 277c-6-11.8-14.7-22-26.2-30.8s-25.6-16-42.1-22.1c-16.7-6-35.4-11.2-56.2-15.6-14.6-3.1-26.5-6.2-36.1-9.6-9.6-3.1-17.3-6.6-22.9-10.4s-9.6-8.1-11.9-12.7c-2.3-4.6-3.3-10-3.3-16s1.2-11.7 3.7-17.3c2.5-5.5 6.3-10.2 11.3-14.4s11.2-7.5 19-10c7.5-2.5 16.4-3.8 26.6-3.8 10.4 0 19.6 1.5 27.5 4.6 7.9 2.9 14.6 7.1 19.8 12.3 5.4 5.2 9.4 11.1 12.1 17.5 2.7 6.7 4 13.3 4 20.2h81.2c0-16.2-3.3-31.4-9.8-45.4s-16-26.3-28.5-36.7c-12.5-10.4-27.7-18.5-45.7-24.3-18.1-6.1-38.3-9-60.8-9-21.4 0-40.8 2.9-57.9 8.7-17.3 5.9-31.9 14-44.2 24-12.1 10-21.4 21.7-27.9 35s-9.8 27.3-9.8 41.9c0 15.2 3.1 28.5 9.6 40.2 6.2 11.7 15.2 21.7 26.7 30.2s25 15.8 41 21.9c15.8 6 33.5 11 52.9 15 16.3 3.3 29.4 6.8 39.6 10.6s17.9 7.9 23.5 12.3c5.7 4.4 9.4 8.9 11.3 13.9s2.9 10.5 2.9 16.3c0 13.1-5.6 23.7-16.7 31.9-11.2 8.1-27.5 12.3-48.7 12.3-9.2 0-18.1-1.1-26.7-3.2-8.7-2-16.4-5.4-23.3-10.2-6.9-4.6-12.5-10.8-17.1-18.3-4.4-7.5-7.1-16.9-7.7-28.1h-78.9c0 15 3.3 29.6 9.7 43.9s16.3 27.3 29.2 38.6c12.9 11.4 29 20.6 47.9 27.5 19 7.1 41.1 10.6 65.7 10.6 22 0 42-2.7 60.2-7.9 18.1-5.4 33.5-12.9 46.2-22.5 12.9-9.8 22.7-21.3 29.6-34.6s10.4-28.1 10.4-44.2c-0.2-16.4-3.1-30.4-9.2-42.3z m-415.2-305c-14.1-16.8-31.2-28.9-51-36.4-20-7.5-42.1-11.3-66.7-11.3-24.1 0-46.2 3.8-66.2 11.3s-37.1 19.6-51.1 36.4c-14.1 16.9-25 39-32.7 66.1-7.7 27.3-11.4 60.4-11.4 99.6v79.8c0 39.1 3.9 72.5 11.6 99.8 8 27.2 19 49.5 33.2 66.6 14.3 17.1 31.4 29.6 51.2 37.3 20 7.7 42.1 11.5 66.3 11.5 24.3 0 46.6-4 66.4-11.5 19.8-7.7 36.7-20 50.8-37.3 14-17.1 25-39.4 32.8-66.6s11.4-60.7 11.4-99.8v-79.8c0-39.2-3.9-72.3-11.4-99.6-8-27.1-19-49.2-33.2-66.1z m-38.1 257.5c0 25-1.7 46.1-5 63.6s-8.5 31.7-15.2 42.5-15 18.7-24.6 23.7c-9.8 5-21 7.5-33.9 7.5-12.7 0-24-2.5-34-7.5s-18.3-12.9-25.2-23.7c-6.9-10.8-12.1-25-15.6-42.5s-5.4-38.6-5.4-63.6v-104.3c0-25.2 1.6-46.3 5.2-63.4s8.7-30.8 15.4-41.4c6.9-10.6 15.2-18.1 25-22.7s21-6.9 33.7-6.9c12.7 0 24 2.3 33.8 6.9s18.1 12.3 25 22.7c6.9 10.6 11.9 24.4 15.4 41.4s5.2 38.4 5.2 63.4v104.3z" /></svg>