<svg height="1000" width="1000.0" xmlns="http://www.w3.org/2000/svg"><path d="m788.3 208.8c-8.5-24.6-31.8-42.1-59.1-42.1h-458.4c-27.3 0-50.6 17.5-59.1 42.1l-86.7 249.5v333.4c0 22.9 18.7 41.6 41.7 41.6h41.6c23.2 0 41.7-18.7 41.7-41.6v-41.7h500v41.7c0 22.9 18.8 41.6 41.7 41.6h41.6c23.2 0 41.7-18.7 41.7-41.6v-333.4l-86.7-249.5z m-517.5 416.2c-34.5 0-62.5-27.9-62.5-62.5s28-62.5 62.5-62.5 62.5 27.9 62.5 62.5-27.9 62.5-62.5 62.5z m458.4 0c-34.6 0-62.5-27.9-62.5-62.5s27.9-62.5 62.5-62.5 62.5 27.9 62.5 62.5-27.9 62.5-62.5 62.5z m-520.9-208.3l62.5-187.5h458.4l62.5 187.5h-583.4z" /></svg>