<svg height="1000" width="1000.0" xmlns="http://www.w3.org/2000/svg"><path d="m793.1 189.6l-59.3 59.4c-64-51.5-145.5-82.3-234-82.3-76.3 0-146.9 22.9-206 61.8l60.6 60.7c42.9-24.8 92.5-39.2 145.6-39.2 161 0 291.7 130.6 291.7 291.7 0 53.1-14.4 102.7-39.2 145.6l60.6 60.6c39-59.2 61.9-130 61.9-206.2 0-88.6-30.8-169.8-82.3-234l59.4-59.4-59-58.7z m-168.1-147.9h-250v83.3h250v-83.3z m-166.7 351.4l83.4 83.4v-143.2h-83.4v59.8z m-332.5-226.4l-53.1 52.9 114.8 114.8c-39.4 59.4-62.5 130.6-62.5 207.3 0 207.1 167.5 375 374.8 375 76.7 0 147.9-23.2 207.3-62.5l104.2 104.1 52.9-53.1-738.4-738.5z m374.2 666.6c-161 0-291.7-130.6-291.7-291.6 0-53.6 14.6-103.6 39.8-146.7l398.6 398.5c-43.2 25.2-93.2 39.8-146.7 39.8z" /></svg>