<svg height="1000" width="857.1" xmlns="http://www.w3.org/2000/svg"><path d="m641.2 626.1c0-9.5-3.9-18.4-10.6-25.1l-101-101 101-101c6.7-6.7 10.6-15.6 10.6-25.1s-3.9-19-10.6-25.7l-50.2-50.2c-6.7-6.7-16.2-10.6-25.7-10.6s-18.4 3.9-25.1 10.6l-101 101-101-101c-6.7-6.7-15.7-10.6-25.1-10.6s-19 3.9-25.7 10.6l-50.2 50.2c-6.7 6.7-10.6 16.2-10.6 25.7s3.9 18.4 10.6 25.1l101 101-101 101c-6.7 6.7-10.6 15.6-10.6 25.1s3.9 19 10.6 25.7l50.2 50.2c6.7 6.7 16.2 10.6 25.7 10.6s18.4-3.9 25.1-10.6l101-101 101 101c6.7 6.7 15.6 10.6 25.1 10.6s19-3.9 25.7-10.6l50.2-50.2c6.7-6.7 10.6-16.2 10.6-25.7z m215.9-126.1c0 236.6-191.9 428.6-428.5 428.6s-428.6-192-428.6-428.6 192-428.6 428.6-428.6 428.5 192 428.5 428.6z" /></svg>