<svg height="1000" width="571.4" xmlns="http://www.w3.org/2000/svg"><path d="m285.7 642.9c0-14-4.4-27.4-11.1-38.5-7.3-11.2-36.9-49.2-48.6-86.5-1.7-6.2-7.2-9-11.7-9s-10.1 2.8-11.7 9c-11.8 37.3-41.3 75.3-48.6 86.5-6.7 11.1-11.1 24.5-11.1 38.5 0 39.6 31.8 71.4 71.4 71.4s71.4-31.8 71.4-71.4z m285.7-71.5c0 158-127.8 285.7-285.7 285.7s-285.7-127.7-285.7-285.7c0-56.3 17.3-108.8 45.2-153.4 28.5-44.7 147.9-195.9 193.1-346.6 7.2-24 29.6-35.7 47.4-35.7s40.8 11.7 47.4 35.7c45.2 150.7 164.7 301.9 193.1 346.6s45.2 97.1 45.2 153.4z" /></svg>