<svg height="1000" width="834.0" xmlns="http://www.w3.org/2000/svg"><path d="m417 84q172.8 0 294.9 122.1t122.1 293.9-122.1 293.9-294.9 122.1-294.9-122.1-122.1-293.9 122.1-293.9 294.9-122.1z m-42 746.1v-660.2q-125 15.6-208 109.4t-83 220.7 84 220.7 207 109.4z m84-660.2v39.1h119.1q-56.6-31.3-119.1-39.1z m0 121.1v43h246.1q-13.7-23.5-29.3-43h-216.8z m0 125v43h289q-3.9-17.6-9.7-43h-279.3z m0 414.1q62.5-7.8 119.1-39.1h-119.1v39.1z m216.8-121.1q15.6-19.5 29.3-43h-246.1v43h216.8z m62.5-125q5.8-25.4 9.7-43h-289v43h279.3z" /></svg>