<svg height="1000" width="1000.0" xmlns="http://www.w3.org/2000/svg"><path d="m794.6 205.4l-59 59c60.4 60.2 97.7 143.5 97.7 235.6 0 184.2-149.1 333.3-333.3 333.3s-333.3-149.1-333.3-333.3c0-170 127.3-310 291.6-330.4v84.2c-118.1 19.7-208.3 122.5-208.3 246.2 0 138.1 111.9 250 250 250s250-111.9 250-250c0-69-27.9-131.5-73.1-176.9l-59 59c30 30.2 48.8 71.9 48.8 117.9 0 92.1-74.6 166.7-166.7 166.7s-166.7-74.6-166.7-166.7c0-77.5 53.4-142.3 125-160.8v88.9c-24.8 14.4-41.6 41.1-41.6 71.9 0 46 37.3 83.3 83.3 83.3s83.3-37.3 83.3-83.3c0-30.8-16.8-57.3-41.6-71.9v-344.8h-41.7c-230.2 0-416.7 186.5-416.7 416.7 0 230 186.5 416.7 416.7 416.7 230 0 416.7-186.7 416.7-416.7 0-115-46.7-219.2-122.1-294.6z" /></svg>