<svg height="1000" width="1000.0" xmlns="http://www.w3.org/2000/svg"><path d="m513.5 196.8l0.1 45.6 27.9 12-79.9 245.5-145.7-7.9 0-30.5 9.9-22.7 0-162.8-13.8-24.6 1.1-51.5c-0.9-23.9-29.6-20.2-29.5 0l1 51.5-13.7 24.6 0 162.8 9.9 22.7 0 30.5-197.2 31.9 18.8 169.4-102.4 17.8 0 139.2 63.6 21.7c5-89.2 78.9-160.1 169.4-160.1 63.5 0 118.9 34.9 148 86.5l155.2 0c-0.6-7.6-0.9-15.4-0.9-23.3 0-155.2 125.8-281 281-281 62.9 0 136.9 28.6 183.7 63.5l-6.6-33.6-20.1-20.3c5.1-8.5 2.4-16.9-5.7-25.4l-33 7.1c-15.2-10.3-37.7-15.8-67.8-21.1l-45.5-210.4 15.9 0.1-12.9-54.2-310.8-3z m57.6 58.9l203.8 1 37.6 206.3c-68.5 7.8-109.1 23.1-163.8 50.3l-154.7-9.4 77.1-248.2z" /></svg>