<svg height="1000" width="1101.0" xmlns="http://www.w3.org/2000/svg"><path d="m478.2 303.6v65.3c0 9.4-8.3 17.3-17.8 17.3h-166.3v453.1c0 10-7.8 17.8-17.3 17.8h-75.3c-10.1 0-17.9-7.8-17.9-17.8v-453.1h-165.7c-10.1 0-17.9-7.9-17.9-17.3v-65.3c0-10.1 7.8-17.9 17.9-17.9h442.5c9.5 0 17.8 7.8 17.8 17.9z m579.3-1.7l42.9 536.3c0.6 5-1.1 9.5-4.4 13.4-3.4 3.3-7.8 5.5-12.9 5.5h-74.7c-9 0-16.8-7.2-17.3-16.1l-25.7-328.2-105.5 237.2c-2.8 6.7-8.9 10.6-16.1 10.6h-67c-6.7 0-12.8-3.9-16.2-10.6l-104.9-238.3-25.1 329.3c-0.6 8.9-8.4 16.1-17.3 16.1h-75.4c-5 0-9.4-2.2-12.8-5.5-3.3-3.9-5-8.4-5-13.4l43.5-536.3c0.6-8.9 8.4-16.2 17.3-16.2h79.3c7.2 0 13.3 4.5 16.1 10.6l122.8 290.2c3.9 8.9 7.8 19 11.2 28.5 3.9-9.5 7.2-19.6 11.1-28.5l123.4-290.2c2.7-6.1 8.9-10.6 16.1-10.6h78.7c9.5 0 17.3 7.3 17.9 16.2z" /></svg>