<svg height="1000" width="1000.0" xmlns="http://www.w3.org/2000/svg"><path d="m833.3 416.7h-125v-47.5c71.9-18.6 125-83.2 125-160.9h-125v-41.6c0-22.9-18.5-41.7-41.6-41.7h-333.4c-22.9 0-41.6 18.8-41.6 41.7v41.6h-125c0 77.5 53.3 142.3 125 160.9v47.5h-125c0 77.5 53.3 142.3 125 160.8v47.5h-125c0 77.5 53.3 142.3 125 160.8v47.5c0 23 18.7 41.7 41.6 41.7h333.4c23.1 0 41.6-18.7 41.6-41.7v-47.5c71.9-18.5 125-83.1 125-160.8h-125v-47.5c71.9-18.5 125-83.3 125-160.8z m-333.3 375c-46 0-83.3-37.3-83.3-83.4s37.3-83.3 83.3-83.3 83.3 37.3 83.3 83.3-37.3 83.4-83.3 83.4z m0-208.4c-46 0-83.3-37.3-83.3-83.3s37.3-83.3 83.3-83.3 83.3 37.3 83.3 83.3-37.3 83.3-83.3 83.3z m0-208.3c-46 0-83.3-37.3-83.3-83.3s37.3-83.4 83.3-83.4 83.3 37.3 83.3 83.4-37.3 83.3-83.3 83.3z" /></svg>