<svg height="1000" width="666.0" xmlns="http://www.w3.org/2000/svg"><path d="m666 416q0 58.6-35.1 102.6t-89.9 59.5v46.9h125q0 56.6-35.1 101.6t-89.9 58.6v48.8q0 15.6-11.7 28.3t-29.3 12.7h-334q-15.6 0-28.3-12.7t-12.7-28.3v-48.8q-54.7-13.7-89.8-58.6t-35.2-101.6h125v-46.9q-54.7-15.6-89.8-59.5t-35.2-102.6h125v-46.9q-54.7-13.6-89.8-58.6t-35.2-101.5h125v-43q0-15.6 12.7-28.3t28.3-12.7h334q17.6 0 29.3 12.7t11.7 28.3v43h125q0 56.6-35.1 101.5t-89.9 58.6v46.9h125z m-333 375q34.2 0 58.6-24.4t24.4-58.6-24.4-58.6-58.6-24.4-58.6 24.4-24.4 58.6 24.4 58.6 58.6 24.4z m0-207q34.2 0 58.6-24.4t24.4-59.6-24.4-59.6-58.6-24.4-58.6 24.4-24.4 59.6 24.4 59.6 58.6 24.4z m0-209q34.2 0 58.6-24.4t24.4-58.6-24.4-58.6-58.6-24.4-58.6 24.4-24.4 58.6 24.4 58.6 58.6 24.4z" /></svg>