<svg height="1000" width="1000.0" xmlns="http://www.w3.org/2000/svg"><path d="m714.3 17.9c0-10.1 7.8-17.9 17.8-17.9h160.8c19.5 0 35.7 16.2 35.7 35.7v160.7c0 10.1-7.8 17.9-17.9 17.9h-35.7c-10 0-17.9-7.8-17.9-17.9v-74.7l-141.7 142.3c43.5 54.6 70.3 124.4 70.3 200.3 0 165.2-125 301.3-285.7 319.2v73.6h53.6c10 0 17.8 7.9 17.8 17.9v35.7c0 10.1-7.8 17.9-17.8 17.9h-53.6v53.5c0 10.1-7.8 17.9-17.9 17.9h-35.7c-10 0-17.8-7.8-17.8-17.9v-53.5h-53.6c-10 0-17.9-7.8-17.9-17.9v-35.7c0-10 7.9-17.9 17.9-17.9h53.6v-73.6c-160.7-17.9-285.7-154-285.7-319.2 0-75.9 26.7-145.7 70.3-200.3l-29-29.6-56.4 61.9c-6.7 7.3-17.9 7.8-25.1 1.7l-26.8-24.6c-7.3-6.1-7.8-17.8-1.1-25.1l58.6-64.1-62-62.5v74.7c0 10.1-7.8 17.9-17.8 17.9h-35.7c-10.1 0-17.9-7.8-17.9-17.9v-160.7c0-19.5 16.2-35.7 35.7-35.7h160.7c10.1 0 17.9 7.8 17.9 17.9v35.7c0 10-7.8 17.8-17.9 17.8h-74.2l59.2 59.7 48-52.4c6.6-7.3 17.8-7.8 25.1-1.7l26.8 24.6c7.2 6.1 7.8 17.8 1.1 25.1l-50.3 55.2 31.9 31.3c54.6-43.6 124.4-70.3 200.3-70.3s145.6 26.7 200.3 70.3l142.3-141.8h-74.8c-10 0-17.8-7.8-17.8-17.8v-35.7z m-250 696.4c137.8 0 250-112.2 250-250s-112.2-250-250-250-250 112.2-250 250 112.2 250 250 250z" /></svg>