<svg height="1000" width="857.1" xmlns="http://www.w3.org/2000/svg"><path d="m571.4 17.9c0-10.1 7.8-17.9 17.9-17.9h160.7c19.5 0 35.7 16.2 35.7 35.7v160.7c0 10.1-7.8 17.9-17.8 17.9h-35.8c-10 0-17.8-7.8-17.8-17.9v-74.7l-141.8 142.3c43.6 54.6 70.4 124.4 70.4 200.3 0 165.2-125 301.3-285.8 319.2v73.6h53.6c10.1 0 17.9 7.9 17.9 17.9v35.7c0 10.1-7.8 17.9-17.9 17.9h-53.6v53.5c0 10.1-7.8 17.9-17.8 17.9h-35.7c-10.1 0-17.9-7.8-17.9-17.9v-53.5h-53.6c-10 0-17.8-7.8-17.8-17.9v-35.7c0-10 7.8-17.9 17.8-17.9h53.6v-73.6c-168.5-18.4-298.5-168.5-284.6-344.9 11.7-151.8 132.3-276.2 282.9-293.5 90.4-10.6 174.1 17.3 237.8 68.1l142.3-141.8h-74.8c-10.1 0-17.9-7.8-17.9-17.8v-35.7z m-250 696.4c137.9 0 250-112.2 250-250s-112.1-250-250-250-250 112.2-250 250 112.2 250 250 250z" /></svg>