<svg height="1000" width="857.1" xmlns="http://www.w3.org/2000/svg"><path d="m392.9 750v-571.4c0-10.1-7.9-17.9-17.9-17.9h-267.9c-10 0-17.8 7.8-17.8 17.9v571.4c0 10 7.8 17.9 17.8 17.9h267.9c10 0 17.9-7.9 17.9-17.9z m375-214.3v-357.1c0-10.1-7.9-17.9-17.9-17.9h-267.9c-10 0-17.8 7.8-17.8 17.9v357.1c0 10.1 7.8 17.9 17.8 17.9h267.9c10 0 17.9-7.8 17.9-17.9z m89.2-428.6v785.8c0 19.5-16.1 35.7-35.7 35.7h-785.7c-19.5 0-35.7-16.2-35.7-35.7v-785.8c0-19.5 16.2-35.7 35.7-35.7h785.7c19.6 0 35.7 16.2 35.7 35.7z" /></svg>