<svg height="1000" width="1285.7" xmlns="http://www.w3.org/2000/svg"><path d="m363.3 556.4c0 29-23.5 52.4-51.9 52.4-29 0-52.5-23.4-52.5-52.4 0-28.5 23.5-51.9 52.5-51.9 28.4 0 51.9 23.4 51.9 51.9z m644-0.6c0 29-23.5 52.5-52.5 52.5s-52.5-23.5-52.5-52.5 23.5-51.9 52.5-51.9 52.5 22.9 52.5 51.9z m-580.4 0.6c0-59.2-48.6-107.7-107.7-107.7-59.7 0-107.7 48.5-107.7 107.7 0 59.7 48 107.7 107.7 107.7 59.1 0 107.7-48 107.7-107.7z m643.4-0.6c0-59.1-48-107.7-107.7-107.7-59.1 0-107.7 48.6-107.7 107.7 0 59.7 48.6 107.7 107.7 107.7 59.7 0 107.7-48 107.7-107.7z m-596 0.6c0 85.9-69.2 155.7-155.1 155.7s-155.7-69.8-155.7-155.7c0-85.4 69.8-155.2 155.7-155.2s155.1 69.8 155.1 155.2z m644-0.6c0 85.9-69.8 155.1-155.7 155.1-85.4 0-155.1-69.2-155.1-155.1s69.7-155.1 155.1-155.1c85.9 0 155.7 69.2 155.7 155.1z m-537.9 1.7c0-142.3-115.6-257.8-257.9-257.8-141.7 0-257.2 115.5-257.2 257.8s115.5 257.8 257.2 257.8c142.3 0 257.9-115.5 257.9-257.8z m372.7-319.8c-92.1-40.2-195.8-61.9-310.2-61.9s-228.3 21.7-319.8 61.4c176.9 0.5 319.8 143.4 319.8 320.3 0-173.6 137.8-314.8 310.2-319.8z m267.3 319.8c0-142.3-114.9-257.8-257.2-257.8s-257.8 115.5-257.8 257.8 115.5 257.8 257.8 257.8 257.2-115.5 257.2-257.8z m-148.4-315.9h213.7c-33.5 39.1-58 91.5-64.2 127.8 38.5 53 61.4 117.8 61.4 188.1 0 176.9-143.4 319.7-319.7 319.7-100.5 0-189.8-45.7-248.4-117.7 0 0-26.2 31.2-71.9 99.9-7.9-16.2-47.5-72.6-71.5-100.5-58.6 72.6-148.4 118.3-248.9 118.3-176.3 0-319.7-142.8-319.7-319.7 0-70.3 22.9-135.1 61.4-188.1-6.2-36.3-30.7-88.7-64.2-127.8h203.7c109.4-73.1 268.4-118.8 439.2-118.8s319.7 45.7 429.1 118.8z" /></svg>