<svg height="1000" width="1000.0" xmlns="http://www.w3.org/2000/svg"><path d="m357.1 785.7c0-39-32.3-71.4-71.4-71.4s-71.4 32.4-71.4 71.4 32.4 71.4 71.4 71.4 71.4-32.3 71.4-71.4z m-214.2-285.7h214.2v-142.9h-88.1c-2.3 0-10.6 3.4-12.3 5.1l-108.8 108.8c-1.7 1.7-5 10-5 12.3v16.7z m714.2 285.7c0-39-32.3-71.4-71.4-71.4s-71.4 32.4-71.4 71.4 32.4 71.4 71.4 71.4 71.4-32.3 71.4-71.4z m142.9-607.1v571.4c0 41.3-43.5 35.7-71.4 35.7 0 78.7-64.2 142.9-142.9 142.9s-142.8-64.2-142.8-142.9h-214.3c0 78.7-64.2 142.9-142.9 142.9s-142.8-64.2-142.8-142.9h-35.8c-27.9 0-71.4 5.6-71.4-35.7 0-19.5 16.2-35.7 35.7-35.7v-178.6c0-39.6-5.6-83.7 25.1-114.4l110.5-110.5c14-13.9 40.8-25.1 60.9-25.1h89.2v-107.1c0-19.6 16.2-35.7 35.8-35.7h571.4c19.5 0 35.7 16.1 35.7 35.7z" /></svg>