<svg height="1000" width="642.9" xmlns="http://www.w3.org/2000/svg"><path d="m642.9 464.3c0 216.5-176.4 392.8-392.9 392.8h-89.3c-10 0-17.8-7.8-17.8-17.8v-341l-120 36.9c-1.7 0.5-3.4 0.5-5 0.5-3.9 0-7.3-1.1-10.6-3.3-4.5-3.4-7.3-9-7.3-14.5v-71.5c0-7.8 5-14.5 12.8-17.3l130.1-39.6v-51.9l-120 36.8c-1.7 0.6-3.4 0.6-5 0.6-3.9 0-7.3-1.1-10.6-3.3-4.5-3.4-7.3-9-7.3-14.6v-71.4c0-7.8 5-14.5 12.8-17.3l130.1-39.6v-139.5c0-10.1 7.8-17.9 17.8-17.9h89.3c10 0 17.9 7.8 17.9 17.9v101l209.2-64.7c5-1.7 11.2-0.6 15.6 2.7s7.3 9 7.3 14.6v71.4c0 7.8-5 14.5-12.8 17.3l-219.3 67.5v51.9l209.2-64.7c5-1.7 11.2-0.6 15.6 2.8s7.3 8.9 7.3 14.5v71.4c0 7.8-5 14.5-12.8 17.3l-219.3 67.5v271.8c139.5-9.5 250-125.6 250-267.3 0-10.1 7.8-17.9 17.8-17.9h89.3c10 0 17.9 7.8 17.9 17.9z" /></svg>