<svg height="1000" width="857.1" xmlns="http://www.w3.org/2000/svg"><path d="m714.3 340.4c-21.2 9.5-43.5 15.6-67.5 19 24.5-14.5 42.9-38 51.9-65.3-22.9 13.4-48 23.4-74.8 28.4-21.2-22.8-51.9-36.8-85.4-36.8-64.7 0-117.2 52.5-117.2 117.2 0 8.9 0.6 18.4 2.8 26.8-97.6-5-184.1-51.4-242.2-122.8-10 17.3-16.2 38-16.2 59.2 0 40.7 19 76.4 50.8 97.6-19.5-0.5-37.9-6.1-55.8-14.5v1.1c0 57 43 104.4 96.6 115-10.1 2.8-17.9 4.5-28.5 4.5-7.3 0-14.5-1.2-21.8-2.3 15.1 46.3 58.1 80.4 109.4 81.5-40.2 31.2-90.4 50.2-145.6 50.2-9.5 0-19-0.5-27.9-1.7 51.9 33 113.2 52.5 179.6 52.5 215.4 0 333.8-178.6 333.8-333.7 0-5 0-10-0.6-15.1 22.9-16.2 43-36.8 58.6-60.8z m142.8-108.3v535.8c0 88.7-71.9 160.7-160.7 160.7h-535.7c-88.7 0-160.7-72-160.7-160.7v-535.8c0-88.7 72-160.7 160.7-160.7h535.7c88.8 0 160.7 72 160.7 160.7z" /></svg>