<svg height="1000" width="834.0" xmlns="http://www.w3.org/2000/svg"><path d="m654.3 388.7q43-35.2 54.7-58.6-25.4 11.7-60.6 17.6 35.2-25.4 46.9-62.5-39 21.4-72.3 27.3-23.4-27.3-60.5-32.2t-69.3 9.7-51.8 48.9-9.8 75.2q-130.8-7.8-230.4-115.3-21.5 39.1-8.8 85t42 63.5q-21.5-2-46.9-13.7 2 84 85.9 111.3-23.4 5.9-46.8 2 23.4 70.3 103.5 78.1-29.3 25.4-76.2 38.1t-87.9 6.8q87.9 54.7 179.7 50.8 136.7-5.9 221.7-96.7t86.9-235.3z m95.7-304.7q35.2 0 59.6 24.4t24.4 57.6v668q0 33.2-24.4 57.6t-59.6 24.4h-666q-35.2 0-59.6-24.4t-24.4-57.6v-668q0-33.2 24.4-57.6t59.6-24.4h666z" /></svg>