<svg height="1000" width="1000.0" xmlns="http://www.w3.org/2000/svg"><path d="m535.7 142.9c0-19.6-16.2-35.8-35.7-35.8s-35.7 16.2-35.7 35.8 16.2 35.7 35.7 35.7 35.7-16.2 35.7-35.7z m464.3 517.8v196.4c0 7.3-4.5 14-11.2 16.8-2.2 0.5-4.4 1.1-6.7 1.1-4.4 0-8.9-1.7-12.8-5l-51.9-51.9c-87.6 105.4-245 173-417.4 173s-329.8-67.6-417.4-173l-51.9 51.9c-3.4 3.3-8.4 5-12.8 5-2.3 0-4.5-0.6-6.7-1.1-6.7-2.8-11.2-9.5-11.2-16.8v-196.4c0-10 7.8-17.8 17.9-17.8h196.4c7.2 0 13.9 4.4 16.7 11.1s1.1 14-3.9 19.5l-55.8 55.9c50.2 67.5 146.8 116.6 257.3 131.6v-361h-107.2c-19.5 0-35.7-16.2-35.7-35.7v-71.4c0-19.6 16.2-35.8 35.7-35.8h107.2v-90.9c-42.4-24.6-71.5-70.3-71.5-123.3 0-78.7 64.2-142.9 142.9-142.9s142.9 64.2 142.9 142.9c0 53-29.1 98.7-71.5 123.3v90.9h107.2c19.5 0 35.7 16.2 35.7 35.8v71.4c0 19.5-16.2 35.7-35.7 35.7h-107.2v361c110.5-15 207.1-64.1 257.3-131.6l-55.8-55.9c-5-5.5-6.7-12.8-3.9-19.5s9.5-11.1 16.7-11.1h196.4c10.1 0 17.9 7.8 17.9 17.8z" /></svg>