<svg height="1000" width="785.7" xmlns="http://www.w3.org/2000/svg"><path d="m275.1 269.5c12.3 0 21.8-10 21.8-21.7s-9.5-21.8-21.8-21.8c-11.7 0-21.2 10-21.2 21.8s9.5 21.7 21.2 21.7z m235.5 0c11.7 0 21.2-10 21.2-21.7s-9.5-21.8-21.2-21.8c-12.3 0-21.8 10-21.8 21.8s9.5 21.7 21.8 21.7z m-453.1 102.7c31.2 0 56.9 25.7 56.9 56.9v240c0 31.8-25.1 57.5-56.9 57.5s-57.5-25.7-57.5-57.5v-240c0-31.2 25.7-56.9 57.5-56.9z m591.5 10.6v371.7c0 34-27.3 61.3-60.8 61.3h-41.9v126.7c0 31.8-25.7 57.5-57.5 57.5s-57.4-25.7-57.4-57.5v-126.7h-77v126.7c0 31.8-25.7 57.5-57.5 57.5-31.3 0-56.9-25.7-56.9-57.5l-0.6-126.7h-41.3c-34 0-61.4-27.3-61.4-61.3v-371.7h512.3z m-129.5-226c78.2 40.2 131.2 117.2 131.2 205.9h-516.2c0-88.7 53-165.7 131.7-205.9l-39.6-73.1c-2.3-3.9-1.2-8.9 2.8-11.2 3.9-1.6 8.9-0.5 11.1 3.4l40.2 73.7c34-15.1 72-23.5 112.2-23.5s78.1 8.4 112.1 23.5l40.2-73.7c2.2-3.9 7.3-5 11.2-3.4 3.9 2.3 5 7.3 2.8 11.2z m266.2 272.3v240c0 31.8-25.7 57.5-57.5 57.5-31.2 0-56.9-25.7-56.9-57.5v-240c0-31.8 25.7-56.9 56.9-56.9 31.8 0 57.5 25.1 57.5 56.9z" /></svg>