<svg height="1000" width="1000.0" xmlns="http://www.w3.org/2000/svg"><path d="m607.1 464.3c0-19.5-16.1-35.7-35.7-35.7h-142.8c-19.6 0-35.7 16.2-35.7 35.7s16.1 35.7 35.7 35.7h142.8c19.6 0 35.7-16.2 35.7-35.7z m321.5-107.2v535.8c0 19.5-16.2 35.7-35.7 35.7h-785.8c-19.5 0-35.7-16.2-35.7-35.7v-535.8c0-19.5 16.2-35.7 35.7-35.7h785.8c19.5 0 35.7 16.2 35.7 35.7z m35.7-250v142.9c0 19.5-16.2 35.7-35.7 35.7h-857.2c-19.5 0-35.7-16.2-35.7-35.7v-142.9c0-19.5 16.2-35.7 35.7-35.7h857.2c19.5 0 35.7 16.2 35.7 35.7z" /></svg>