<svg height="1000" width="1071.4" xmlns="http://www.w3.org/2000/svg"><path d="m357.1 785.7c0-39.6-31.8-71.4-71.4-71.4s-71.4 31.8-71.4 71.4 31.8 71.4 71.4 71.4 71.4-31.8 71.4-71.4z m-214.2-285.7h214.2v-142.9h-88.1c-3.4 0.6-9.5 2.8-12.3 5.1l-108.8 108.8c-1.7 2.8-4.5 8.9-5 12.3v16.7z m714.2 285.7c0-39.6-31.8-71.4-71.4-71.4s-71.4 31.8-71.4 71.4 31.8 71.4 71.4 71.4 71.4-31.8 71.4-71.4z m71.5-375v-107.1c0-10.1-7.8-17.9-17.9-17.9h-125v-125c0-10-7.8-17.8-17.8-17.8h-107.2c-10 0-17.8 7.8-17.8 17.8v125h-125c-10.1 0-17.9 7.8-17.9 17.9v107.1c0 10.1 7.8 17.9 17.9 17.9h125v125c0 10 7.8 17.8 17.8 17.8h107.2c10 0 17.8-7.8 17.8-17.8v-125h125c10.1 0 17.9-7.8 17.9-17.9z m142.8-303.6v642.9c0 19.5-16.2 35.7-35.7 35.7h-107.1c0 78.7-63.6 142.9-142.9 142.9-78.7 0-142.8-64.2-142.8-142.9h-214.3c0 78.7-63.6 142.9-142.9 142.9s-142.8-64.2-142.8-142.9h-71.5c-19.5 0-35.7-16.2-35.7-35.7s16.2-35.7 35.7-35.7v-232.2c0-19.5 11.2-46.8 25.1-60.8l110.5-110.5c14-13.9 41.3-25.1 60.9-25.1h89.2v-178.6c0-19.5 16.2-35.7 35.8-35.7h642.8c19.5 0 35.7 16.2 35.7 35.7z" /></svg>