<svg height="1000" width="785.7" xmlns="http://www.w3.org/2000/svg"><path d="m309.7 848.8c24.6 10.6 51.3 17.8 78.1 17.8 127.3 0 209.9-50.8 209.9-186.9 0-34.6-4.5-70.9-22.9-100.5-51.9-83.7-126.7-88.1-216.5-88.1-16.8 0-40.8 0-56.4 5.6 0 59.1-0.6 118.3-0.6 176.8 0 38.6-5 142.9 8.4 175.3z m-7.8-416.3c20.1 3.3 40.7 3.9 60.8 3.9 115 0 197-32.4 197-161.3 0-108.8-96.5-146.2-189.7-146.2-24.6 0-48.6 3.4-72.6 7.3 0 56.3 4.5 112.7 4.5 169 0 29.6-0.6 59.2-0.6 88.8 0 12.8 0 25.6 0.6 38.5z m-301.9 496.1l1.1-52.5c35.7-8.9 72-9.5 106.6-24 19.5-32.9 16.7-90.9 16.7-128.3 0-12.3 1.2-545.8-12.2-572-8.4-16.2-90.4-20.1-108.9-22.3l-2.2-46.4c132.8-2.2 265.6-11.7 397.9-11.7 25.1 0 50.8 0.6 75.9 0.6 126.1 0 265.1 60.3 265.1 205.3 0 99.9-75.9 137.3-154.6 173 106 24 200.3 96 200.3 213.2 0 192-174.7 255.6-338.2 255.6-49.1 0-98.2-3.4-147.3-3.4-99.9 0-200.9 9-300.2 12.9z" /></svg>