<svg height="1000" width="1000.0" xmlns="http://www.w3.org/2000/svg"><path d="m508.9 946.4c0-5-3.9-8.9-8.9-8.9-44.1 0-80.4-36.3-80.4-80.4 0-5-3.9-8.9-8.9-8.9s-8.9 3.9-8.9 8.9c0 54.2 44.1 98.3 98.2 98.3 5 0 8.9-3.9 8.9-9z m455.4-160.7c0 39.1-32.4 71.4-71.4 71.4h-250c0 78.7-64.2 142.9-142.9 142.9s-142.9-64.2-142.9-142.9h-250c-39 0-71.4-32.3-71.4-71.4 82.6-69.7 178.6-194.7 178.6-464.3 0-107.1 88.7-224.3 236.6-246.1-2.8-6.7-4.5-13.9-4.5-21.7 0-29.6 24-53.6 53.6-53.6s53.6 24 53.6 53.6c0 7.8-1.7 15-4.5 21.7 147.9 21.8 236.6 139 236.6 246.1 0 269.6 96 394.6 178.6 464.3z" /></svg>