<svg height="1000" width="785.7" xmlns="http://www.w3.org/2000/svg"><path d="m454.8 479.4c6.1 46.8-50.8 83.7-90.4 59.7-44.6-19.6-44.6-90.4-1.1-110.5 37.4-22.9 91.5 7.2 91.5 50.8z m61.9-11.8c-10-79.2-99.8-131.7-172.9-98.7-46.4 20.6-77.6 69.7-75.4 121.6 2.8 68.1 67.5 123.9 135.6 117.8s121.1-72.6 112.7-140.7z m133.4-302.4c-24.5-32.4-66.4-38-103.2-44.1-104.4-16.7-211.5-17.3-315.9 1.1-34.6 5.6-73.6 11.7-95.4 43 35.7 33.5 86.5 38.5 132.3 44.1 82.5 10.6 167.4 11.1 250 0.5 46.3-5.6 97.6-10 132.2-44.6z m31.8 577.5c-15.6 54.7-6.7 128.4-64.7 160.2-99.9 55.2-221 61.4-330.9 41.9-58.1-10.6-126.1-29.1-158-83.8-13.9-53.5-22.8-108.2-31.8-162.9l3.4-8.9 10-5c166.3 109.9 399 109.9 565.9 0 26.2 7.8 6.7 39.6 6.1 58.5z m101-536.2c-18.9 122.2-40.7 243.8-61.9 365.5-6.2 35.7-40.8 55.8-69.8 70.9-104.3 52.4-226 61.3-340.4 49.1-77.5-8.4-156.8-29.1-219.8-77.6-29.6-22.9-29.6-61.9-35.2-94.9-19.5-114.4-41.8-228.8-55.8-344.3 6.7-50.2 63.1-72 104.9-87.6 55.8-20.6 115.5-30.1 174.7-35.7 126.1-12.3 255-7.8 377.2 27.9 43.5 12.8 90.4 30.7 120 68.1 13.4 17.3 8.9 39 6.1 58.6z" /></svg>