<?xml version="1.0" encoding="utf-8"?>
<!-- Generator: Adobe Illustrator 24.3.0, SVG Export Plug-In . SVG Version: 6.00 Build 0)  -->
<svg version="1.1" id="Calque_1" xmlns="http://www.w3.org/2000/svg" xmlns:xlink="http://www.w3.org/1999/xlink" x="0px" y="0px"
	 viewBox="0 0 1000 1000" style="enable-background:new 0 0 1000 1000;" xml:space="preserve">
<path d="M500,129.5C500,129.5,375,0,0,0v857.1c378.9,0,500,142.9,500,142.9s121.1-142.9,500-142.9V0C625,0,500,129.5,500,129.5
	L500,129.5z M125,142.9c158.9,15.2,256.3,57.2,312.5,91.2v575.3c-56.2-33.9-153.6-75.9-312.5-91.2V142.9z M875,718.2
	c-158.9,15.3-256.4,57.3-312.5,91.2V234.1c56.1-34,153.6-76,312.5-91.2V718.2z"/>
</svg>
