<svg height="1000" width="857.1" xmlns="http://www.w3.org/2000/svg"><path d="m571.4 500c0-78.7-64.1-142.9-142.8-142.9s-142.9 64.2-142.9 142.9 64.2 142.9 142.9 142.9 142.8-64.2 142.8-142.9z m285.7-60.8v123.9c0 8.3-6.7 18.4-15.6 20l-103.2 15.7c-6.2 17.8-12.9 34.6-21.8 50.8 19 27.3 39.1 51.9 59.7 77 3.4 3.9 5.6 8.9 5.6 13.9s-1.7 8.9-5 12.8c-13.4 17.9-88.7 99.9-107.7 99.9-5 0-10.1-2.2-14.5-5l-77-60.3c-16.2 8.4-33.5 15.7-50.8 21.3-3.9 34-7.3 70.3-16.2 103.7-2.2 9-10 15.7-20.1 15.7h-123.9c-10 0-18.9-7.3-20.1-16.8l-15.6-102.6c-17.3-5.6-34-12.3-50.2-20.7l-78.7 59.7c-3.9 3.4-8.9 5-13.9 5s-10.1-2.2-14-6.1c-29.6-26.8-68.6-61.4-92.1-93.8-2.8-3.9-3.9-8.3-3.9-12.8 0-5 1.7-8.9 4.5-12.8 19-25.7 39.6-50.2 58.6-76.5-9.5-17.8-17.3-36.2-22.9-55.2l-102.1-15.1c-9.5-1.7-16.2-10.6-16.2-20.1v-123.9c0-8.3 6.7-18.4 15.1-20l103.8-15.7c5.5-17.8 12.8-34.6 21.7-51.3-18.9-26.8-39-51.9-59.7-77-3.3-3.9-5.6-8.4-5.6-13.4s2.3-8.9 5.1-12.8c13.3-18.5 88.7-99.9 107.7-99.9 5 0 10 2.2 14.5 5.5l77 59.8c16.2-8.4 33.5-15.7 50.8-21.3 3.9-34 7.2-70.3 16.1-103.7 2.3-9 10.1-15.7 20.1-15.7h123.9c10.1 0 19 7.3 20.1 16.8l15.6 102.6c17.3 5.6 34.1 12.3 50.3 20.7l79.2-59.7c3.3-3.4 8.4-5 13.4-5s10 2.2 13.9 5.5c29.6 27.4 68.7 62 92.1 94.9 2.8 3.4 3.9 7.8 3.9 12.3 0 5-1.7 8.9-4.4 12.8-19 25.7-39.7 50.2-58.6 76.5 9.4 17.8 17.3 36.2 22.8 54.7l102.2 15.6c9.4 1.7 16.1 10.6 16.1 20.1z" /></svg>