<svg height="1000" width="1071.4" xmlns="http://www.w3.org/2000/svg"><path d="m344.3 780.7l-27.9 27.9c-7.2 7.2-18.4 7.2-25.7 0l-260-260.1c-7.3-7.2-7.3-18.4 0-25.6l260-260.1c7.3-7.2 18.5-7.2 25.7 0l27.9 27.9c7.3 7.3 7.3 18.5 0 25.7l-219.3 219.3 219.3 219.3c7.3 7.3 7.3 18.4 0 25.7z m329.8-595.4l-208.1 720.4c-2.8 9.5-12.9 15.1-21.8 12.3l-34.6-9.5c-9.5-2.8-15.1-12.9-12.3-22.3l208.2-720.5c2.8-9.5 12.8-15 21.7-12.2l34.6 9.4c9.5 2.8 15.1 12.9 12.3 22.4z m366.6 363.2l-260 260.1c-7.3 7.2-18.4 7.2-25.7 0l-27.9-27.9c-7.2-7.3-7.2-18.4 0-25.7l219.3-219.3-219.3-219.3c-7.2-7.2-7.2-18.4 0-25.7l27.9-27.9c7.3-7.2 18.4-7.2 25.7 0l260 260.1c7.3 7.2 7.3 18.4 0 25.6z" /></svg>