<svg height="1000" width="1071.4" xmlns="http://www.w3.org/2000/svg"><path d="m500 500c0-78.7-64.2-142.9-142.9-142.9s-142.8 64.2-142.8 142.9 64.2 142.9 142.8 142.9 142.9-64.2 142.9-142.9z m428.6 285.7c0-39-32.4-71.4-71.5-71.4s-71.4 32.4-71.4 71.4c0 39.6 32.4 71.4 71.4 71.4 39.7 0 71.5-32.3 71.5-71.4z m0-571.4c0-39.1-32.4-71.4-71.5-71.4s-71.4 32.3-71.4 71.4c0 39.6 32.4 71.4 71.4 71.4 39.7 0 71.5-32.4 71.5-71.4z m-214.3 234.9v103.3c0 7.2-5.6 15.6-12.8 16.7l-86.5 13.4c-4.5 14.5-10.6 28.4-17.9 42.4 15.6 22.3 32.4 43 50.2 64.2 2.3 3.3 3.9 6.7 3.9 11.1 0 3.9-1.1 7.8-3.9 10.6-11.1 15.1-73.6 83.2-89.8 83.2-4.5 0-8.4-1.7-11.7-3.9l-64.2-50.2c-14 7.2-27.9 12.8-43 17.3-2.8 28.4-5.6 59.1-12.8 86.5-2.3 7.8-8.9 13.3-16.8 13.3h-103.8c-7.8 0-15.6-6.1-16.7-13.9l-12.8-85.4c-14.5-4.5-28.5-10.6-41.9-17.3l-65.8 49.7c-2.8 2.8-7.3 3.9-11.2 3.9-4.5 0-8.4-1.7-11.7-4.5-14.5-13.4-80.4-73.1-80.4-89.3 0-3.9 1.7-7.2 3.9-10.6 16.2-21.2 33-41.8 49.1-63.6-7.8-15.1-14.5-30.1-19.5-45.7l-84.8-13.4c-7.8-1.2-13.4-8.4-13.4-16.2v-103.3c0-7.2 5.6-15.6 12.8-16.7l86.5-13.4c4.5-14.5 10.6-28.4 17.9-42.4-15.6-22.3-32.4-43-50.2-64.2-2.3-3.3-3.9-7.2-3.9-11.1s1.1-7.8 3.9-11.2c11.1-15.1 73.6-82.6 89.8-82.6 4.5 0 8.4 1.7 11.7 3.9l64.2 50.2c14-7.2 27.9-12.8 43-17.8 2.8-27.9 5.6-58.6 12.8-85.9 2.2-7.9 8.9-13.4 16.7-13.4h103.8c7.9 0 15.7 6.1 16.8 13.9l12.8 85.4c14.5 4.5 28.5 10.6 41.9 17.3l65.8-49.7c3.4-2.8 7.3-3.9 11.2-3.9 4.4 0 8.3 1.7 11.7 4.5 14.5 13.4 80.4 73.6 80.4 89.3 0 3.9-1.7 7.2-4 10.6-16.1 21.7-32.9 41.8-48.5 63.6 7.3 15.1 13.9 30.1 19 45.7l84.8 12.9c7.8 1.7 13.4 8.9 13.4 16.7z m357.1 297.5v78.1c0 8.3-72 16.2-83.1 17.3-4.5 10.6-10.1 20.1-16.8 29 5.1 11.2 28.5 67 28.5 77 0 1.7-0.6 2.8-2.2 3.9-6.7 3.9-66.4 39.6-69.2 39.6-7.3 0-49.1-55.8-54.7-64.1-5.6 0.5-11.2 1.1-16.8 1.1s-11.1-0.6-16.7-1.1c-5.6 8.3-47.4 64.1-54.7 64.1-2.8 0-62.5-35.7-69.2-39.6-1.7-1.1-2.2-2.8-2.2-3.9 0-9.5 23.4-65.8 28.4-77-6.7-8.9-12.2-18.4-16.7-29-11.2-1.1-83.1-9-83.1-17.3v-78.1c0-8.4 71.9-16.2 83.1-17.3 4.5-10.1 10-20.1 16.7-29.1-5-11.1-28.4-67.5-28.4-77 0-1.1 0.5-2.8 2.2-3.9 6.7-3.3 66.4-39 69.2-39 7.3 0 49.1 55.2 54.7 63.6 5.6-0.6 11.2-1.1 16.7-1.1s11.2 0.5 16.8 1.1c15.6-21.8 32.4-43.6 51.3-62.5l3.4-1.1c2.8 0 62.5 35.1 69.2 39 1.6 1.1 2.2 2.8 2.2 3.9 0 10.1-23.4 65.9-28.5 77 6.7 9 12.3 19 16.8 29.1 11.1 1.1 83.1 8.9 83.1 17.3z m0-571.5v78.1c0 8.4-72 16.2-83.1 17.3-4.5 10.7-10.1 20.1-16.8 29.1 5.1 11.1 28.5 66.9 28.5 77 0 1.6-0.6 2.8-2.2 3.9-6.7 3.9-66.4 39.6-69.2 39.6-7.3 0-49.1-55.8-54.7-64.2-5.6 0.6-11.2 1.1-16.8 1.1s-11.1-0.5-16.7-1.1c-5.6 8.4-47.4 64.2-54.7 64.2-2.8 0-62.5-35.7-69.2-39.6-1.7-1.1-2.2-2.8-2.2-3.9 0-9.5 23.4-65.9 28.4-77-6.7-9-12.2-18.4-16.7-29.1-11.2-1.1-83.1-8.9-83.1-17.3v-78.1c0-8.3 71.9-16.2 83.1-17.3 4.5-10 10-20.1 16.7-29-5-11.2-28.4-67.5-28.4-77 0-1.1 0.5-2.8 2.2-3.9 6.7-3.4 66.4-39.1 69.2-39.1 7.3 0 49.1 55.3 54.7 63.6 5.6-0.5 11.2-1.1 16.7-1.1s11.2 0.6 16.8 1.1c15.6-21.7 32.4-43.5 51.3-62.5l3.4-1.1c2.8 0 62.5 35.2 69.2 39.1 1.6 1.1 2.2 2.8 2.2 3.9 0 10-23.4 65.8-28.5 77 6.7 8.9 12.3 19 16.8 29 11.1 1.1 83.1 9 83.1 17.3z" /></svg>