<?xml version="1.0" encoding="utf-8"?>
<!-- Generator: Adobe Illustrator 24.3.0, SVG Export Plug-In . SVG Version: 6.00 Build 0)  -->
<svg version="1.1" id="Calque_1" xmlns="http://www.w3.org/2000/svg" xmlns:xlink="http://www.w3.org/1999/xlink" x="0px" y="0px"
	 viewBox="0 0 1000 1000" style="enable-background:new 0 0 1000 1000;" xml:space="preserve">
<path d="M817,0c0,0,39.7,78.6,19.9,105.3c-35.3,47.5-174.4,47.5-174.4,47.5l62.3,91.5c0,0,183.9-32.4,213.7-94.3
	C965.6,93.4,817,0,817,0z M188.9,5.6c0,0-148.6,19.2-138,130.3C60.8,238.4,295,252.7,295,252.7c18.3-32.8,37.4-74,63.2-106.8
	c0,0-178.5,18.5-202-44.7C131.6,35.2,188.9,5.6,188.9,5.6L188.9,5.6z M509,133.3c-35.8,0.1-70.7-23.9-105.1-14.1
	C322,226.6,268,359.1,215.4,481.1c67,103.7,113.3,174.6,114,263.6c0,0-83.3,89.1-74.7,135.4c11.1,59.1,107.8,107.7,107.8,107.7
	c91.1,10.2,182,20.6,287.5,1.7c0,0,94.6-68.4,95.3-106.6c0.9-48.9-74-138.2-74-138.2c9.7-87.5,81.6-166.6,133.2-254.1
	c-33.4-118.2-90.2-250.4-184.8-365.8C581.6,108.7,544.9,133.1,509,133.3L509,133.3z M865,246.2c-56.7-0.2-126.3,28.9-126.3,28.9
	c53.1,97.8,47.4,101.1,111.9,140.3s149.4,11.2,149.4,11.2s-29.3-130.4-85.6-168.3C901.4,249.5,883.9,246.2,865,246.2z M142.9,250
	c-15.6-0.1-30.8,2.4-45,8.3C40.2,286.1,0,448.4,0,448.4s119.5,14.4,167.9-14C218.3,404.8,279.8,289,279.8,289
	C240.9,272.6,189.8,250.2,142.9,250z M330.2,445.6c0,0,45.5-9.9,81.1,11.2c21.9,12.9,12.9,67.1,12.9,67.1s-68.9,6-88.4-16.8
	C317,485.1,330.2,445.6,330.2,445.6z M671.4,451.2c0,0,10.1,40-19.5,64.3c-21.2,17.4-72.8,8.4-72.8,8.4s-7-44.3,22.4-67.1
	C629.5,435,671.4,451.2,671.4,451.2L671.4,451.2z M625,808.2c0,0,46.8,14.4,39.4,44.8c-6.8,28.2-45.5,55.1-73.9,47.6
	c-18.4-4.9-12.9-21.7-6-39.2c6.6-16.9,24.5,1,34.9-14C630.7,831.3,625,808.2,625,808.2L625,808.2z M366.5,799.1
	c0,0,0.1,32.2,11.2,48.3c10.3,15,30.4-0.2,37,16.8c6.7,17.5,9.6,34.3-8.5,39.1c-28,7.6-66-19.3-72.7-47.5
	C326.2,825.5,366.5,799.1,366.5,799.1L366.5,799.1z"/>
</svg>
