<svg height="1000" width="928.6" xmlns="http://www.w3.org/2000/svg"><path d="m310.8 714.3h332.1v-332z m-25.1-25.1l332-332.1h-332v332.1z m642.9 42.9v107.2c0 10-7.8 17.8-17.9 17.8h-125v125c0 10.1-7.8 17.9-17.8 17.9h-107.2c-10 0-17.8-7.8-17.8-17.9v-125h-482.2c-10 0-17.8-7.8-17.8-17.8v-482.2h-125c-10.1 0-17.9-7.8-17.9-17.8v-107.2c0-10 7.8-17.8 17.9-17.8h125v-125c0-10.1 7.8-17.9 17.8-17.9h107.2c10 0 17.8 7.8 17.8 17.9v125h474.9l137.3-137.8c7.2-6.7 18.4-6.7 25.6 0 6.7 7.2 6.7 18.4 0 25.6l-137.8 137.3v474.9h125c10.1 0 17.9 7.8 17.9 17.8z" /></svg>