<?xml version="1.0" encoding="UTF-8" standalone="no"?>
<!-- Generator: Adobe Illustrator 24.3.0, SVG Export Plug-In . SVG Version: 6.00 Build 0)  -->

<svg
   xmlns:dc="http://purl.org/dc/elements/1.1/"
   xmlns:cc="http://creativecommons.org/ns#"
   xmlns:rdf="http://www.w3.org/1999/02/22-rdf-syntax-ns#"
   xmlns:svg="http://www.w3.org/2000/svg"
   xmlns="http://www.w3.org/2000/svg"
   xmlns:sodipodi="http://sodipodi.sourceforge.net/DTD/sodipodi-0.dtd"
   xmlns:inkscape="http://www.inkscape.org/namespaces/inkscape"
   version="1.1"
   id="Calque_1"
   x="0px"
   y="0px"
   viewBox="0 0 1000 1000"
   xml:space="preserve"
   sodipodi:docname="uf06d-ekylibre.svg"
   width="1000"
   height="1000"
   inkscape:version="0.92.5 (2060ec1f9f, 2020-04-08)"><metadata
   id="metadata39"><rdf:RDF><cc:Work
       rdf:about=""><dc:format>image/svg+xml</dc:format><dc:type
         rdf:resource="http://purl.org/dc/dcmitype/StillImage" /><dc:title></dc:title></cc:Work></rdf:RDF></metadata><defs
   id="defs37" /><sodipodi:namedview
   pagecolor="#ffffff"
   bordercolor="#666666"
   borderopacity="1"
   objecttolerance="10"
   gridtolerance="10"
   guidetolerance="10"
   inkscape:pageopacity="0"
   inkscape:pageshadow="2"
   inkscape:window-width="1920"
   inkscape:window-height="997"
   id="namedview35"
   showgrid="false"
   fit-margin-top="0"
   fit-margin-left="0"
   fit-margin-right="0"
   fit-margin-bottom="0"
   inkscape:zoom="0.50971429"
   inkscape:cx="657.64002"
   inkscape:cy="318.39855"
   inkscape:window-x="0"
   inkscape:window-y="28"
   inkscape:window-maximized="1"
   inkscape:current-layer="Calque_1" />
<g
   id="g32"
   transform="matrix(0.28587444,0,0,0.28382827,0,287.70513)">
	<g
   id="g18">
		<path
   d="m 323.8,1059.4 c -6.2,-52.8 -37,-86.2 -82.7,-86.2 -44,0 -73.9,34.3 -82.7,86.2 z M 0,1100.8 V 1099 C 0,960 99.4,850 240.2,850 c 164.5,0 240.2,120.6 240.2,260.5 0,10.6 0,22.9 -0.9,34.3 H 161 c 13.2,51.9 51,78.3 103,78.3 39.6,0 71.3,-15 105.6,-48.4 l 92.4,76.6 c -45.8,58.1 -111.8,96.8 -206.8,96.8 C 105.6,1348 0,1248.6 0,1100.8"
   id="path2"
   inkscape:connector-curvature="0" />
		<polygon
   points="721.2,1016.7 855.6,851.3 1052.1,851.3 880.3,1049.7 1056.7,1345.8 865.7,1345.8 766,1177.6 721.2,1229.7 721.2,1345.8 547.5,1345.8 547.5,692.9 721.2,692.9 "
   id="polygon4" />
		<path
   d="m 1069.5,1451.9 53.9,-121.6 c 27.4,16.5 56.7,26.5 75.9,26.5 17.4,0 29.2,-4.6 40.2,-20.1 L 1045.7,851.3 h 181.9 l 98.7,298 93.2,-298 h 178.3 l -181,482.7 c -43,115.2 -89.6,160.9 -188.3,160.9 -61.2,-0.1 -113.3,-17.4 -159,-43"
   id="path6"
   inkscape:connector-curvature="0" />
		<rect
   x="1699.3"
   y="692.90002"
   width="44.799999"
   height="652.90002"
   id="rect8" />
		<path
   d="m 1926.9,853.1 h 44.8 v 492.8 h -44.8 z m 0.2,-160.2 h 44.5 V 740 h -44.5 z"
   id="path10"
   inkscape:connector-curvature="0" />
		<path
   d="m 2571.8,1101.4 v -1.9 c 0,-125.1 -86.8,-205.3 -186.6,-205.3 -98.9,0 -194.1,83.1 -194.1,204.4 v 1.9 c 0,122.3 95.2,204.4 194.1,204.4 103.5,-0.1 186.6,-75.7 186.6,-203.5 m -378,133.4 v 113.8 h -45.7 V 692.9 h 45.7 v 275 c 41.1,-62.5 101.7,-117.6 196,-117.6 114.8,0 231.4,92.4 231.4,247.3 v 1.9 c 0,154.9 -116.6,249.2 -231.4,249.2 -95.2,0 -156.8,-54.2 -196,-113.9"
   id="path12"
   inkscape:connector-curvature="0" />
		<path
   d="m 2751.4,850 h 46.8 v 147 c 38.2,-87 119.5,-150.9 216,-147 v 52.4 h -4.8 c -112.8,0 -211.2,85.1 -211.2,243.7 v 202.5 h -46.8 z"
   id="path14"
   inkscape:connector-curvature="0" />
		<path
   d="M 3450.6,1076.7 C 3444,980.6 3389,892 3279.9,892 c -94.2,0 -166.9,79.3 -175.3,184.7 z m -394.5,23.3 v -1.9 c 0,-138 97,-248.1 225.7,-248.1 133.4,0 218.2,108.2 218.2,249 0,8.4 0,11.2 -0.9,18.6 h -394.5 c 8.4,118.5 93.3,187.5 186.5,187.5 73.7,0 124,-32.6 163.2,-74.6 l 31.7,28 c -48.5,52.2 -105.4,89.5 -196.8,89.5 -124.9,0 -233.1,-99.7 -233.1,-248"
   id="path16"
   inkscape:connector-curvature="0" />
	</g>
	<g
   id="g30">
		<g
   id="g24">
			<path
   d="m 1136.5,132.6 c -32,0 -57.8,27.2 -57.8,60.7 0,33.5 25.8,60.7 57.8,60.7 32,0 58,-27.2 58,-60.7 0.1,-33.5 -26,-60.7 -58,-60.7 z m 14.9,71.7 c -13.1,0 -23.8,-11.5 -23.8,-25.6 0,-14.1 10.6,-25.6 23.8,-25.6 13.1,0 23.8,11.5 23.8,25.6 0,14.1 -10.7,25.6 -23.8,25.6 z"
   id="path20"
   inkscape:connector-curvature="0" />
			<path
   d="m 1337.1,132.6 c -32,0 -57.8,27.2 -57.8,60.7 0,33.5 25.8,60.7 57.8,60.7 32,0 58,-27.2 58,-60.7 0,-33.5 -26,-60.7 -58,-60.7 z m 14.9,71.7 c -13.1,0 -23.8,-11.5 -23.8,-25.6 0,-14.1 10.6,-25.6 23.8,-25.6 13.1,0 23.8,11.5 23.8,25.6 -0.1,14.1 -10.7,25.6 -23.8,25.6 z"
   id="path22"
   inkscape:connector-curvature="0" />
		</g>
		<path
   d="m 1347.3,693 c -1.8,9.2 -5.8,18.3 -9.8,25.5 -2.8,5 -10.2,3.8 -11.5,-1.8 -0.1,-0.4 -0.2,-0.9 -0.3,-1.3 -1.5,-6 -9.9,-6 -11.9,-0.2 -1.7,5 -4.1,10.2 -7.5,14.9 -2.6,3.7 -8.3,3.3 -10.5,-0.7 -3.7,-6.7 -9,-18.6 -13.6,-36.6 h -0.6 c -2.5,8.5 -4.3,18.3 -5.3,25.5 -0.8,5.1 -7.1,7.2 -10.6,3.5 -8.6,-8.9 -12,-21.2 -12.9,-29 h -43.3 c -0.9,7.8 -4.2,19.9 -12.7,28.8 -3.5,3.7 -9.9,1.7 -10.7,-3.4 -1.1,-7.2 -2.8,-16.9 -5.2,-25.4 h -0.6 c -4.5,17.9 -9.7,29.7 -13.4,36.4 -2.2,4 -7.9,4.4 -10.5,0.7 -3.3,-4.7 -5.7,-9.8 -7.3,-14.8 -2,-5.9 -10.5,-5.2 -11.9,0.9 0,0.1 -0.1,0.2 -0.1,0.4 -1.3,5.6 -8.8,6.8 -11.5,1.7 -3.9,-7.2 -7.8,-16.2 -9.6,-25.3 H 855.6 v 51.1 h 742.3 V 693 Z"
   id="path26"
   inkscape:connector-curvature="0" />
		<path
   d="m 1404.9,82.5 c 19.4,-6.7 38.9,-14.6 58.5,-23.8 1.6,-0.7 2.8,-2.1 3.3,-3.7 L 1479,18 c 1.8,-5.3 -3.9,-10 -8.9,-7.4 -36.8,19.4 -73,33.7 -108.7,43.7 -38.2,-19.1 -82,-28.2 -128.3,-28.2 -44.1,0 -85.2,8.4 -121.2,25.7 -36.2,-10.9 -72.2,-26.2 -108,-45.7 -4.9,-2.7 -10.6,1.9 -9,7.3 l 11.6,37.1 c 0.5,1.7 1.7,3 3.3,3.8 19.4,9.5 39,17.7 58.7,24.9 -57.5,46.7 -93.7,125.6 -93.7,241.8 0,145.7 58.9,271.5 144.7,332.8 2.6,-6.4 6.4,-11 11.7,-11.1 4.8,-0.1 8.1,1.2 10.3,3 2.8,2.3 6.8,2 8.9,-0.9 2.6,-3.5 6.8,-6.6 13.5,-6.9 6.7,-0.3 10.6,2.8 13.2,8.4 1.4,3.3 5.5,3.8 8.6,2 3.4,-1.9 7.8,-2.2 12.5,-2 10.8,0.1 12.5,13 11.6,44.1 0,0.3 -0.1,0.8 -0.1,1.1 9,1.3 18.1,2 27.3,2 5.3,0 10.5,-0.7 15.7,-1.1 -0.1,-0.6 -0.2,-1.4 -0.3,-2 -1,-31 0.8,-43.9 11.7,-44.1 4.7,-0.3 9.2,0 12.6,2 3.1,1.8 7.2,1.2 8.7,-2.1 2.5,-5.6 6.6,-8.7 13.3,-8.4 6.8,0.3 11.1,3.4 13.8,7 2.1,2.8 6.1,3.1 8.9,0.9 2.2,-1.8 5.6,-3.2 10.5,-3.1 7,0.1 11.4,7.6 13.9,17 90.4,-58.8 153.4,-188.2 153.4,-338.8 -0.1,-113.5 -37,-191.2 -94.3,-238.3 z m -268.8,478 c -1.5,6.4 -10.7,6.4 -12.1,-0.1 l -7.9,-34.6 8.9,12 c 2.5,3.3 7.5,3.4 10,0 l 9.7,-12.9 z m 29,-89.1 c -1.5,6.4 -10.7,6.4 -12.1,-0.1 l -7.9,-34.6 8.9,12 c 2.5,3.3 7.5,3.4 10,0 l 9.7,-12.9 z m 77.6,-50.4 c -1.5,6.4 -10.7,6.4 -12.1,-0.1 l -7.9,-34.6 8.9,12 c 2.5,3.3 7.5,3.4 10,0 l 9.7,-12.9 z m 77.6,50.4 c -1.5,6.4 -10.7,6.4 -12.1,-0.1 l -7.9,-34.6 8.9,12 c 2.5,3.3 7.5,3.4 10,0 l 9.7,-12.9 z m 28.9,89.1 c -1.5,6.4 -10.7,6.4 -12.1,-0.1 l -7.9,-34.6 8.9,12 c 2.5,3.3 7.5,3.4 10,0 l 9.7,-12.9 z m 66.2,-252.7 c -54.8,23.9 -108.9,-0.6 -153.4,-47.5 -2,14 -13.1,32.3 -20,42.3 -2.5,3.6 -7.7,3.6 -10.2,0 -5.7,-8.2 -14.3,-22.1 -18.4,-34.6 -46.7,47.3 -103.6,69.8 -159.6,42.4 -64.9,-31.7 -47.8,-148.8 29.8,-222.6 1.7,-1.6 4,-2.1 6.2,-1.4 0.1,0 0.1,0 0.2,0.1 11.3,3.6 22.7,6.7 34.1,9.6 2.1,0.5 4.3,1 6.4,1.4 9.1,2.1 18.3,4 27.5,5.6 2.8,0.5 5.6,1 8.4,1.4 9.6,1.5 19.2,2.7 28.9,3.7 1.7,0.2 3.4,0.4 5,0.5 11.5,1 23.1,1.6 34.7,1.7 1.5,0 3,0 4.5,0 9.9,0 19.7,-0.2 29.7,-0.8 2.9,-0.2 5.9,-0.4 8.8,-0.6 9.2,-0.7 18.4,-1.7 27.7,-2.9 2.4,-0.3 4.8,-0.6 7.2,-0.9 11.7,-1.8 23.5,-3.9 35.3,-6.5 0.3,-0.1 0.6,-0.2 0.9,-0.2 11.2,-2.5 22.4,-5.5 33.6,-8.9 1.2,-0.3 2.3,-0.6 3.5,-0.9 2,-0.6 4.2,-0.2 5.8,1.1 87.8,72.6 85.2,191 23.4,218 z"
   id="path28"
   inkscape:connector-curvature="0" />
	</g>
</g>
</svg>