<svg height="1000" width="3500.0" xmlns="http://www.w3.org/2000/svg"><path d="m0-24l0 800 800 0 0-800-800 0z m50 50l700 0 0 700-700 0 0-700z m1983.8 75l-40 21.4c-4.4 15.7-11.6 27.6-21.8 36.1l0 63.9c-1.5 3.5-3.5 5.4-6.1 5.9-1.5 22.9-5.6 41.1-12.5 54.6l3 9.4 0 45.1c-2 23.9-3 44.3-3 60.9l-12.1 14.9 0 18.3-3.2 6.1 0 9.2c-2 9.4-2.9 17.6-2.9 24.4-12.2 25.4-17.4 56.6-15.7 93.7-0.5 23.9-0.5 44.1 0 60.8 13.2 9.2 21.4 20.3 24.7 33.3l9.2 0c8.4 2.7 16.6 3.7 24.7 2.9l9.2-11.8 3.5-18.5c-6.6-45.5-1.6-86.9 15.1-124.2l0-9.1-2.9-9.3 2.9-6c8.9-24.6 14.1-45.7 15.7-63.4l6.1-3.4c-1.8-20-0.9-37 2.9-51.4l3.2-18 12.1-9.4 3.5-8.9 0-15.3 0-9.1c15-35.1 22-69.3 21.2-102.9 11.2-8.5 17.5-18.7 18.8-30.4-5.4-7.7-7.4-15.7-6.1-24.2-12.7-9.7-17.9-21.8-15.6-36.2-12-6.7-23.3-9.9-33.9-9.4z m311 0.5c-8.3 6.2-16.7 9.8-25.1 10.8-3.8 12.6-9.9 22.8-18.3 30.3-5.1 29.3-0.8 54.2 12.7 74.7l0 39.8c-1.1 6.2-1.4 14.4-1.1 24.4l1.1 2.9 1.5 3 0 18.3 1.4 9.4 4.3 8.9c-1.3 15.4-4.9 28.8-11 40 2.6 11.2 3.4 21.2 2.7 30.1l-8.5 6.4-1.5 7.5-6.9 33.6c11.7 10.7 19.1 23.5 22.2 38.2l5.6 6.2c15.2 3.5 28.8 3.5 40.5 0 3.3-3.7 6.5-6.3 9.8-7.8 4.3-13.5 12.1-21.1 23.3-22.8l4.5-10.8 4.3-3 1-4.5c3.3-4 5.1-8.1 5.4-12.3l3.4-3 1.1-3c8.1-7.7 14.1-15.4 18-23.1 12.9-1.8 20.7 1.7 23.2 10.5l4.1 1.4c21.8-1.5 40.6 1 56.1 7.5 19.3-1.8 35 3.3 47.2 15.3 8.9 0 15.8 3.7 20.6 10.9 7.1-0.5 16.1 6.9 27 22 24.4 10 41.9 26.3 52.5 49l0 5.9-1.1 9.4c13.2 16.1 9 36-12.6 59.7-12.7 3.9-22.9 9.6-30.8 16.8-8.4-2.7-15.7-3.8-22-3.1-6.9 1.5-12.9 1.5-18 0l-4.2 1.6-4.5 1.5c-19.6 0-35.8 2-48.5 6-14.5-5.3-27.9-6.8-40.3-4.6-3-2.5-5.4-5.4-7.2-8.9l-2.6-1.8c-8.7-14-16.1-22.3-22.2-25l-2.7-3c-0.2-13.2-3.5-24-9.8-32.2-7.1-1.3-13.7-1.3-19.6 0-24.6 42.3-28.7 70.8-12.5 85.5 6.6 16.9 17.9 26.7 33.6 29.2l7.2 7.5c15.5 1.5 28.3 7 38.5 16.7l6.8 0c3.3-4.7 7.1-8.3 11.4-10.8l11.1 3.3c6.9-0.5 12.4 0.5 16.8 3 9.3-1 17.2-2.6 23.6-4.9l15.3 3.5 5.6-1.6 6.9 0 5.3 0 7.2 0 4.2-1.9 3.9 0 19.7 0c10.6-3.2 20.5-4.2 29.4-2.9 15.7-13 31.9-20.6 48.7-22.9 3-4.7 5.7-8.2 8-10.7 50.7-7.5 70.4-50.2 58.7-128.2-14.7-14.2-21.7-30.9-20.9-50.3-13.2-8.4-23-19-29.1-31.7-7.3-4.2-12.9-9.3-16.7-15.3l-4.5 0c-5.4-1.5-10.5-2.1-15.3-1.6-7.2-9.9-12.2-19.6-15.2-29-8.1-4.5-14.6-9.6-19.4-15.3l-2.8-1.6c-18-7.5-32.4-17.1-43.3-28.8l-3.9 0c-4 1.5-7.8 2.1-11.4 1.6l-2.6-4.8c-16.3-3.5-29.6-9.8-40-18.5-6.4 1.8-11.6 3-15.7 3.5-13.2-8.8-26-11.9-38.7-9.4-6.4-3.7-11.6-7.9-15.6-12.4l-3.9 0-5.7 0-4.2 3c-5.3 0-10-0.4-14-1.4l-4.3 0c-8.6 3-16.4 4-23.2 3.3-6.9 6.2-13.9 9.7-21.3 10.5-3.3 4.7-7 7.8-10.8 9.3-4.3-16.4-3.8-31.1 1.3-44.3-6.9-24.9-5.1-46.8 5.6-65.5-0.5-12 0.9-22.2 3.9-30.6l0-4.4c0.3-12-0.2-22.2-1.2-30.6-1.1-1-1.5-2-1.5-3l-2.6-3-1.6-3.4c-2.5-7.5-5.4-13.6-8.4-18.3l-4.2 0c-5.4-1.5-10.4-2.5-15.2-3-7.1-0.2-13.1-1.2-18-2.9z m-168.5 22.3l-35.2 19.9c0.2 14.9-2.2 28-7.5 39.2 2.8 1.7 4.3 3.4 4.8 5.1 2.1 1.5 2.9 3.1 2.7 4.9 5.1 13.4 10 24.2 14.8 32.2 14.3 1.5 26.1 6.3 35.5 14.5 9.9-3.5 20-4.2 30.2-2.2 17.7 18.9 34.4 23.7 50.1 14.5 3.6-9.4 4.4-19.3 2.4-29.5l-17.5-7.5-5-7c-8.2-22.7-19-40.9-32.7-54.6-0.5-8.9-3.1-16.3-7.6-22-14-4.5-25.7-7-35-7.5z m-2026.3 2.2l0 500 500 0 0-100-400 0 0-100 400 0 0-100-400 0 0-100 400 0 0-100-500 0z m925.3 7.2c-1.5 0-3 0.2-4.5 0.3-11.4 15.7-25.1 27.2-40.8 34.4l-5.8 18.7c-7.6 27.4-12 49.6-13.3 66.7l-5.6 5.4c-5.8 20.4-14.8 36.3-27 47.8 2.5 22.4-3 41-16.4 55.9-1.5 17.7-7 32-16.4 42.7 0.2 29.8-6.1 55.5-18.8 77.2 1 14.9-2.5 26.6-10.9 34.8 0.2 13.2-2.4 24.7-8 34.4-20.6 11.2-31.5 27.2-32.8 48.1 0.3 26.9 9.3 48.2 27 63.9 13.2 0 24.2 0.8 32.8 2.5 2.8-2 5.5-2.7 8-2.5 15.5-11.2 30.9-18.4 46.4-21.4 2.3-3 4.9-4.7 8-5.2l8.1-5.6c8.9-10.9 19.7-17.1 32.7-18.6l0-7.9c14.9-4.3 26.8-11.3 35.4-21.3 12.7 2.2 22.6 7.6 29.7 16.1 27.4 4.2 50.1 13.9 68.2 29.1 55 34.3 108.4 38 160 10.9l0-8.3c-4.6-6.5-7.3-13.5-8-21.2-9.9-4.3-17.2-9.7-21.7-16.1-25.2 0.5-44.3-8.4-57.2-26.6-18.6-5.2-24-14-16.4-26.4-19.8-8.2-32.4-22.5-38-42.7 6.6-8.4 12.1-14.6 16.4-18.5 8.9-4.3 16-7.1 21.6-8.3 3.5-6.5 9-10.8 16.4-13 3.3-6.5 7-11.9 11.1-16.1l7.9-7.8 8-3.1 11.1-5.2 2.7-7.8 8.4 0 27-16.1c9.7-10 19.6-17 29.7-21.2 7.4-14.7 12-28.1 13.8-40-17-6.3-31.5-6.3-43.5 0-13.2 12.4-26.8 19.5-40.8 21.2-8.1 14.9-19.1 24.7-32.8 29.2l-19 3c-4.3 12.2-12.5 20.2-24.4 23.9-13.2 4.2-24 8.5-32.3 13-17.1 13.2-34.2 21.4-51.8 24.3-9.6 11-19.5 19-29.7 24-7.8 16.6-20.6 24.6-38.1 23.9-8.4 11.7-18.5 18.7-30.1 21.2-3.6 9.5-8.9 16.5-16.3 21.3-11.7 7.4-18 5.8-19-5.2 1.5-33.9 8.8-56.1 22-66.6-1-22.9 4.2-42.4 15.9-58.6 1.3-10.7 1.3-20.5 0-29.5l5.8-10.5 5.3-8.1 2.7-7.8 2.6-8 2.7-8.1c15.2-18.4 25.3-36.2 30.1-53.1l5.4-5.5 24.3-23.9c7.9-16.2 17.1-28.6 27.5-37.3l0-8 0-8.1 2.7-18.3c0-11.5 0.9-21.3 2.6-29.5-18.1-18.7-38.3-27.7-60.6-26.9z m2305.2 152c-1.6 2-3.2 2.8-4.7 2.5-37.6 2.8-70.2 12.2-97.8 28.1l-7.2 14.1-19.1 4.5c-12.2 8.5-23.4 14-33.6 16.4-1 3-2.5 4.6-4.8 4.9-3.1 8-6.2 14.3-9.5 18.7-22.9 26.2-36.5 52.7-40.5 79.6-1.3 5.4-3.7 10.2-7.2 14.2l0 9.2 5 11.6-5 16.5c2.5 9 4.2 16.7 5 23.5l4.5 37.3 2.4 7.2 7.2 4.4 5 16.4c10.1 9.7 17.1 19.1 21.2 28.1l7.2 2.5 4.7 6.7 12.2 2.7 7.2 2.2 4.5 5 7.3 0 4.9 2.2 45.3 18.6 9.5-2.2c7.4-1.5 13.7-1.5 19.1 0l7.2-2.7 14.2 0 19.4-2.2c18-3.5 33.9-5 47.6-4.5l4.9-9.2 6.8 0c9.2-4.5 18.8-7 28.9-7.2 8.2-9.2 18.5-13.1 31-11.9 4-7.2 9.6-11.9 16.7-13.9l-2.3-21.2c-17.8 1.7-32.9 1-45.4-2.2-12.1 4.2-23.2 4.9-33.4 2.2-53.3 11.2-103.5 8.9-150.5-6.8-4.3-7.9-9.8-13.4-16.7-16.4 9.7-12.9 19.9-22.4 30.8-28.4l9.5-9.4 12.2-7 11.9-4.5c19-21 38.9-35.7 59.7-44.4l2.3-7.1 7.2-2.3c13.2-15.2 27.6-26.1 43.1-32.8 4.9-13.5 13.6-22.1 26.3-25.8l4.5-28c18.3-22.6 18.3-44.6 0-65.7-11.9-8.3-23.8-12.8-35.8-13.8l-4.5-2.6c-15.5 0.2-28.3-2.1-38.4-7.1z m-345.2 8.1c-7.4 9.8-17.2 12.3-29.7 7.5-7.8 17.2-20.1 27.7-36.8 31.5-4.6 9.4-8 18.4-10 26.8-17.1-9.4-33.4-12.6-49.4-9.7l-34.7 43.3-2.7 9.7-2.3 19.4-5 22-4.9 2.7c-1.7 12.4-5.1 22.9-10 31.4-0.2 17.7-3.5 33-9.8 46.2 2.3 6 3.1 12.4 2.3 19.4-20.3 31.1-27.7 62.7-22.1 94.5 12.1 12.7 25.4 20.8 39.6 24.3l9.9-2.2c5.3-6.3 8.6-12.7 9.8-19.4l22.2-12.4c7.1-9.9 14.6-17.3 22.5-22-7.3-45.5 1.7-85.1 27.1-118.7 5-28.2 17.5-50.8 37.3-68 26.4-54 72.6-62.1 138.6-24.2 20.6-9.5 28.7-22.5 24.7-38.9l-4.9-7.1-2.8-2.6c-11.4-9.7-19.6-18.6-24.7-26.6l0-2.6c-13.4-3.8-25-9.3-34.7-16.8l-4.8-2.6c-17 2.2-32 0.6-44.7-4.9z m-1572.3 15.4c-50 24.6-63.3 55.6-39.7 92.9l9.2 3c4.1 31.9 11.4 56.6 22 74.1 10.9 17.4 20 32.8 27.1 46.2 15.7 13 26.7 23.1 32.8 30.3 6.1 7.2 23.5 20.1 52.2 38.8l55.1 2.9 0 9.1c-12.9 14.9-19 30.9-18.3 48.1-12.1 14.5-17.1 29.5-15.1 45.2-35.6 79.4-46.9 158.6-33.9 237.5 6.8 4.7 12 10.8 15.6 18.3 11.2 7.2 20.2 14.2 27.3 20.9 16.3 0 30.7-2.9 43.2-8.9l0-21.4c-22.9-43.6-26.9-86.7-12.2-129.2-1.3-33.9 6.8-62.8 24.4-86.9-1.1-37.6 9.2-67.8 30.7-90.5 9.4-45 31.8-78 67.4-99.2 17-23.9 35.5-41 55.3-51.2l6.1-18 9.1-5.9 49.2-48.2c7.3-31.6 5.3-59.6-6.1-84-30.5-20-60.3-20.9-89.2-3l0 15-18.3 5.9c-7.4 15.7-11.5 30.7-12.2 45.2l-12.5 5.9c-4.1 15-13.3 26-27.5 33-4.8 11.9-10.9 21.9-18.3 30.2-2.8 19.6-11.9 33.7-27.6 42.1-4.1 12-10.2 21.9-18.3 29.9-56.4-15.5-94.1-80.3-113.2-194.9-17.2-6.9-30.5-17.1-39.6-30.3-9.9 0-18.1-1-24.7-2.9z m1901.1 51.5l21.2 4.9c-5.3 25.1-19.6 41.4-43 48.9-16.5 23.9-37.9 32.5-64.3 25.8-7.1 9.4-15.9 13.3-26.3 11.8 2.3-20.9 12.5-35.6 30.8-44.3 15.7-22.2 36.5-33.1 62.2-32.9 5.8-6.7 12.3-11.4 19.4-14.2z m-1196.6 18.3l-15 12.3c-5.8 9.8-11.7 17.2-17.5 22.4l0 9.7c-8.4 29.4-16.3 67.8-23.9 115.1-6.9 5.3-12 11.1-15.3 17.5-7.6 99.9 15.9 131.8 70.5 96l2.3-7.5c-6.6-15.5-10-29.3-10-41.7 3.5-12.2 7.8-22.1 12.7-29.6 2.2-10.7 6.4-19.9 12.5-27.3 14.2-52.3 28.9-86.5 44.2-102.7-2.8-37.8-22.9-59.2-60.5-64.2z" /></svg>