<svg height="1000" width="928.6" xmlns="http://www.w3.org/2000/svg"><path d="m714.3 750c0-19.5-16.2-35.7-35.7-35.7s-35.7 16.2-35.7 35.7 16.1 35.7 35.7 35.7 35.7-16.2 35.7-35.7z m142.8 0c0-19.5-16.1-35.7-35.7-35.7s-35.7 16.2-35.7 35.7 16.2 35.7 35.7 35.7 35.7-16.2 35.7-35.7z m71.5-125v178.6c0 29.5-24 53.5-53.6 53.5h-821.4c-29.6 0-53.6-24-53.6-53.5v-178.6c0-29.6 24-53.6 53.6-53.6h259.5l75.3 75.9c20.6 20.1 47.4 31.3 75.9 31.3s55.2-11.2 75.9-31.3l75.9-75.9h258.9c29.6 0 53.6 24 53.6 53.6z m-181.4-317.5c5.6 13.4 2.8 29-7.8 39l-250 250c-6.7 7.3-16.2 10.6-25.1 10.6s-18.4-3.3-25.1-10.6l-250-250c-10.6-10-13.4-25.6-7.8-39 5.5-12.9 18.4-21.8 32.9-21.8h142.8v-250c0-19.5 16.2-35.7 35.8-35.7h142.8c19.5 0 35.7 16.2 35.7 35.7v250h142.9c14.5 0 27.3 8.9 32.9 21.8z" /></svg>