<?xml version="1.0" encoding="utf-8"?>
<!-- Generator: Adobe Illustrator 24.3.0, SVG Export Plug-In . SVG Version: 6.00 Build 0)  -->
<svg version="1.1" id="Calque_1" xmlns="http://www.w3.org/2000/svg" xmlns:xlink="http://www.w3.org/1999/xlink" x="0px" y="0px"
	 viewBox="0 0 3500 1500" style="enable-background:new 0 0 3500 1500;" xml:space="preserve">
<g>
	<g>
		<path d="M323.8,1059.4c-6.2-52.8-37-86.2-82.7-86.2c-44,0-73.9,34.3-82.7,86.2H323.8z M0,1100.8v-1.8c0-139,99.4-249,240.2-249
			c164.5,0,240.2,120.6,240.2,260.5c0,10.6,0,22.9-0.9,34.3H161c13.2,51.9,51,78.3,103,78.3c39.6,0,71.3-15,105.6-48.4l92.4,76.6
			c-45.8,58.1-111.8,96.8-206.8,96.8C105.6,1348,0,1248.6,0,1100.8"/>
		<polygon points="547.5,692.9 721.2,692.9 721.2,1016.7 855.6,851.3 1052.1,851.3 880.3,1049.7 1056.7,1345.8 865.7,1345.8 
			766,1177.6 721.2,1229.7 721.2,1345.8 547.5,1345.8 		"/>
		<path d="M1069.5,1451.9l53.9-121.6c27.4,16.5,56.7,26.5,75.9,26.5c17.4,0,29.2-4.6,40.2-20.1l-193.8-485.4h181.9l98.7,298
			l93.2-298h178.3l-181,482.7c-43,115.2-89.6,160.9-188.3,160.9C1167.3,1494.8,1115.2,1477.5,1069.5,1451.9"/>
		<rect x="1699.3" y="692.9" width="44.8" height="652.9"/>
		<path d="M1926.9,853.1h44.8v492.8h-44.8V853.1z M1927.1,692.9h44.5v47.1h-44.5V692.9z"/>
		<path d="M2571.8,1101.4v-1.9c0-125.1-86.8-205.3-186.6-205.3c-98.9,0-194.1,83.1-194.1,204.4v1.9c0,122.3,95.2,204.4,194.1,204.4
			C2488.7,1304.8,2571.8,1229.2,2571.8,1101.4 M2193.8,1234.8v113.8h-45.7V692.9h45.7v275c41.1-62.5,101.7-117.6,196-117.6
			c114.8,0,231.4,92.4,231.4,247.3v1.9c0,154.9-116.6,249.2-231.4,249.2C2294.6,1348.7,2233,1294.5,2193.8,1234.8"/>
		<path d="M2751.4,850h46.8v147c38.2-87,119.5-150.9,216-147v52.4h-4.8c-112.8,0-211.2,85.1-211.2,243.7v202.5h-46.8V850z"/>
		<path d="M3450.6,1076.7C3444,980.6,3389,892,3279.9,892c-94.2,0-166.9,79.3-175.3,184.7H3450.6z M3056.1,1100v-1.9
			c0-138,97-248.1,225.7-248.1c133.4,0,218.2,108.2,218.2,249c0,8.4,0,11.2-0.9,18.6h-394.5c8.4,118.5,93.3,187.5,186.5,187.5
			c73.7,0,124-32.6,163.2-74.6l31.7,28c-48.5,52.2-105.4,89.5-196.8,89.5C3164.3,1348,3056.1,1248.3,3056.1,1100"/>
	</g>
	<g>
		<g>
			<path d="M1136.5,132.6c-32,0-57.8,27.2-57.8,60.7c0,33.5,25.8,60.7,57.8,60.7c32,0,58-27.2,58-60.7
				C1194.6,159.8,1168.5,132.6,1136.5,132.6z M1151.4,204.3c-13.1,0-23.8-11.5-23.8-25.6c0-14.1,10.6-25.6,23.8-25.6
				c13.1,0,23.8,11.5,23.8,25.6C1175.2,192.8,1164.5,204.3,1151.4,204.3z"/>
			<path d="M1337.1,132.6c-32,0-57.8,27.2-57.8,60.7c0,33.5,25.8,60.7,57.8,60.7c32,0,58-27.2,58-60.7
				C1395.1,159.8,1369.1,132.6,1337.1,132.6z M1352,204.3c-13.1,0-23.8-11.5-23.8-25.6c0-14.1,10.6-25.6,23.8-25.6
				c13.1,0,23.8,11.5,23.8,25.6C1375.7,192.8,1365.1,204.3,1352,204.3z"/>
		</g>
		<path d="M1347.3,693c-1.8,9.2-5.8,18.3-9.8,25.5c-2.8,5-10.2,3.8-11.5-1.8c-0.1-0.4-0.2-0.9-0.3-1.3c-1.5-6-9.9-6-11.9-0.2
			c-1.7,5-4.1,10.2-7.5,14.9c-2.6,3.7-8.3,3.3-10.5-0.7c-3.7-6.7-9-18.6-13.6-36.6h-0.6c-2.5,8.5-4.3,18.3-5.3,25.5
			c-0.8,5.1-7.1,7.2-10.6,3.5c-8.6-8.9-12-21.2-12.9-29h-43.3c-0.9,7.8-4.2,19.9-12.7,28.8c-3.5,3.7-9.9,1.7-10.7-3.4
			c-1.1-7.2-2.8-16.9-5.2-25.4h-0.6c-4.5,17.9-9.7,29.7-13.4,36.4c-2.2,4-7.9,4.4-10.5,0.7c-3.3-4.7-5.7-9.8-7.3-14.8
			c-2-5.9-10.5-5.2-11.9,0.9c0,0.1-0.1,0.2-0.1,0.4c-1.3,5.6-8.8,6.8-11.5,1.7c-3.9-7.2-7.8-16.2-9.6-25.3H855.6v51.1h742.3V693
			H1347.3z"/>
		<path d="M1404.9,82.5c19.4-6.7,38.9-14.6,58.5-23.8c1.6-0.7,2.8-2.1,3.3-3.7l12.3-37c1.8-5.3-3.9-10-8.9-7.4
			c-36.8,19.4-73,33.7-108.7,43.7c-38.2-19.1-82-28.2-128.3-28.2c-44.1,0-85.2,8.4-121.2,25.7c-36.2-10.9-72.2-26.2-108-45.7
			c-4.9-2.7-10.6,1.9-9,7.3l11.6,37.1c0.5,1.7,1.7,3,3.3,3.8c19.4,9.5,39,17.7,58.7,24.9c-57.5,46.7-93.7,125.6-93.7,241.8
			c0,145.7,58.9,271.5,144.7,332.8c2.6-6.4,6.4-11,11.7-11.1c4.8-0.1,8.1,1.2,10.3,3c2.8,2.3,6.8,2,8.9-0.9
			c2.6-3.5,6.8-6.6,13.5-6.9c6.7-0.3,10.6,2.8,13.2,8.4c1.4,3.3,5.5,3.8,8.6,2c3.4-1.9,7.8-2.2,12.5-2c10.8,0.1,12.5,13,11.6,44.1
			c0,0.3-0.1,0.8-0.1,1.1c9,1.3,18.1,2,27.3,2c5.3,0,10.5-0.7,15.7-1.1c-0.1-0.6-0.2-1.4-0.3-2c-1-31,0.8-43.9,11.7-44.1
			c4.7-0.3,9.2,0,12.6,2c3.1,1.8,7.2,1.2,8.7-2.1c2.5-5.6,6.6-8.7,13.3-8.4c6.8,0.3,11.1,3.4,13.8,7c2.1,2.8,6.1,3.1,8.9,0.9
			c2.2-1.8,5.6-3.2,10.5-3.1c7,0.1,11.4,7.6,13.9,17c90.4-58.8,153.4-188.2,153.4-338.8C1499.1,207.3,1462.2,129.6,1404.9,82.5z
			 M1136.1,560.5c-1.5,6.4-10.7,6.4-12.1-0.1l-7.9-34.6l8.9,12c2.5,3.3,7.5,3.4,10,0l9.7-12.9L1136.1,560.5z M1165.1,471.4
			c-1.5,6.4-10.7,6.4-12.1-0.1l-7.9-34.6l8.9,12c2.5,3.3,7.5,3.4,10,0l9.7-12.9L1165.1,471.4z M1242.7,421
			c-1.5,6.4-10.7,6.4-12.1-0.1l-7.9-34.6l8.9,12c2.5,3.3,7.5,3.4,10,0l9.7-12.9L1242.7,421z M1320.3,471.4
			c-1.5,6.4-10.7,6.4-12.1-0.1l-7.9-34.6l8.9,12c2.5,3.3,7.5,3.4,10,0l9.7-12.9L1320.3,471.4z M1349.2,560.5
			c-1.5,6.4-10.7,6.4-12.1-0.1l-7.9-34.6l8.9,12c2.5,3.3,7.5,3.4,10,0l9.7-12.9L1349.2,560.5z M1415.4,307.8
			c-54.8,23.9-108.9-0.6-153.4-47.5c-2,14-13.1,32.3-20,42.3c-2.5,3.6-7.7,3.6-10.2,0c-5.7-8.2-14.3-22.1-18.4-34.6
			c-46.7,47.3-103.6,69.8-159.6,42.4c-64.9-31.7-47.8-148.8,29.8-222.6c1.7-1.6,4-2.1,6.2-1.4c0.1,0,0.1,0,0.2,0.1
			c11.3,3.6,22.7,6.7,34.1,9.6c2.1,0.5,4.3,1,6.4,1.4c9.1,2.1,18.3,4,27.5,5.6c2.8,0.5,5.6,1,8.4,1.4c9.6,1.5,19.2,2.7,28.9,3.7
			c1.7,0.2,3.4,0.4,5,0.5c11.5,1,23.1,1.6,34.7,1.7c1.5,0,3,0,4.5,0c9.9,0,19.7-0.2,29.7-0.8c2.9-0.2,5.9-0.4,8.8-0.6
			c9.2-0.7,18.4-1.7,27.7-2.9c2.4-0.3,4.8-0.6,7.2-0.9c11.7-1.8,23.5-3.9,35.3-6.5c0.3-0.1,0.6-0.2,0.9-0.2
			c11.2-2.5,22.4-5.5,33.6-8.9c1.2-0.3,2.3-0.6,3.5-0.9c2-0.6,4.2-0.2,5.8,1.1C1479.8,162.4,1477.2,280.8,1415.4,307.8z"/>
	</g>
</g>
</svg>
