<svg height="1000" width="571.4" xmlns="http://www.w3.org/2000/svg"><path d="m544.6 729.4l19.6 88.7c2.2 8.9-2.8 17.8-11.2 20.6-2.2 0.6-54.1 18.4-121.1 18.4-174.1 0-314.2-104.9-361-268.9h-53c-10.1 0-17.9-8.4-17.9-17.9v-63c0-9.5 7.8-17.9 17.9-17.9h36.8c-0.6-17.9-0.6-39.1 0.5-58.6h-37.3c-10.1 0-17.9-7.8-17.9-17.9v-63.6c0-10 7.8-17.8 17.9-17.8h54.6c49.7-156.3 192.6-260.1 359.4-260.1 58.1 0 106 12.3 108.3 12.9 4.4 1.1 8.3 4.4 11.1 8.3 2.3 3.9 2.8 9 1.7 13.4l-24 88.8c-2.2 9.4-11.7 15-21.2 12.2-0.5 0-38.5-9.5-78.1-9.5-93.8 0-172.4 50.8-209.8 134h261.1c5.6 0 10.6 2.2 14 6.7 3.3 3.9 5 9.5 3.9 14.5l-13.4 63.6c-1.7 8.4-8.9 14.5-17.9 14.5h-272.3c-1.7 17.9-1.1 36.8 0 58.6h256.2c5.5 0 10.6 2.8 13.9 6.7 3.3 4.5 4.5 10 3.3 15.1l-13.3 62.5c-1.7 8.3-9 14.5-17.3 14.5h-216c35.7 87 116.1 141.7 210.9 141.7 48.6 0 88.2-13.4 88.8-13.4 4.4-1.7 10-1.1 14.5 1.1 4.4 2.8 7.2 7.3 8.3 11.8z" /></svg>