<svg height="1000" width="857.1" xmlns="http://www.w3.org/2000/svg"><path d="m421.3 589.3c0 4.5-2.2 9.5-5.6 12.8l-185.2 185.3 80.3 80.3c6.7 6.7 10.6 15.7 10.6 25.2 0 19.5-16.2 35.7-35.7 35.7h-250c-19.5 0-35.7-16.2-35.7-35.7v-250c0-19.6 16.2-35.8 35.7-35.8 9.5 0 18.4 3.9 25.1 10.6l80.4 80.4 185.3-185.3c3.3-3.3 8.3-5.5 12.8-5.5s9.5 2.2 12.8 5.5l63.6 63.7c3.4 3.3 5.6 8.3 5.6 12.8z m435.8-482.2v250c0 19.6-16.1 35.8-35.7 35.8-9.5 0-18.4-3.9-25.1-10.6l-80.3-80.4-185.3 185.3c-3.4 3.3-8.4 5.5-12.8 5.5s-9.5-2.2-12.9-5.5l-63.6-63.7c-3.3-3.3-5.6-8.3-5.6-12.8s2.3-9.5 5.6-12.8l185.3-185.3-80.4-80.3c-6.7-6.7-10.6-15.7-10.6-25.2 0-19.5 16.2-35.7 35.7-35.7h250c19.6 0 35.7 16.2 35.7 35.7z" /></svg>