<svg height="1000" width="785.7" xmlns="http://www.w3.org/2000/svg"><path d="m285.7 107.1c0-19.5-16.2-35.7-35.7-35.7s-35.7 16.2-35.7 35.7 16.2 35.8 35.7 35.8 35.7-16.2 35.7-35.8z m500-17.8v178.6c0 5.5-2.2 10.6-6.7 13.9-3.3 2.8-7.2 3.9-11.1 3.9-1.2 0-2.3 0-3.9-0.5l-250-53.6c-7.9-1.7-14-8.9-14-17.3h-142.9v56.9c81.5 16.7 142.9 88.7 142.9 175.2v446.5c0 19.5-16.2 35.7-35.7 35.7h-285.7c-19.6 0-35.7-16.2-35.7-35.7v-446.5c0-79.8 52.4-147.9 125-170.2v-61.9h-17.9c-118.3 0-181.9 122.2-182.5 123.3-6.1 12.3-19 19.5-31.8 19.5-5.6 0-11.1-1.1-16.2-3.9-17.3-8.9-24.5-30.1-15.6-48 2.8-5.5 58.6-113.8 170.8-150.1-8.4-13.9-14-30.1-14-48 0-49.1 40.2-89.2 89.3-89.2s89.3 40.1 89.3 89.2c0 12.9-2.8 24.6-7.8 35.8h168.5c0-8.4 6.1-15.7 14-17.3l250-53.6c1.6-0.6 2.7-0.6 3.9-0.6 3.9 0 7.8 1.1 11.1 3.9 4.5 3.4 6.7 8.4 6.7 14z" /></svg>