<svg height="1000" width="857.1" xmlns="http://www.w3.org/2000/svg"><path d="m819.2 265.6c5.6 5.6 10.6 12.3 15.6 20.1h-263.4v-263.4c7.8 5 14.5 10.1 20.1 15.6z m-265.6 91.5h303.5v589.3c0 29.6-24 53.6-53.5 53.6h-750c-29.6 0-53.6-24-53.6-53.6v-892.8c0-29.6 24-53.6 53.6-53.6h446.4v303.6c0 29.5 24 53.5 53.6 53.5z m89.3 410.8v-35.8c0-10-7.9-17.8-17.9-17.8h-392.9c-10 0-17.8 7.8-17.8 17.8v35.8c0 10 7.8 17.8 17.8 17.8h392.9c10 0 17.9-7.8 17.9-17.8z m0-142.9v-35.7c0-10.1-7.9-17.9-17.9-17.9h-392.9c-10 0-17.8 7.8-17.8 17.9v35.7c0 10 7.8 17.9 17.8 17.9h392.9c10 0 17.9-7.9 17.9-17.9z m0-142.9v-35.7c0-10-7.9-17.8-17.9-17.8h-392.9c-10 0-17.8 7.8-17.8 17.8v35.7c0 10.1 7.8 17.9 17.8 17.9h392.9c10 0 17.9-7.8 17.9-17.9z" /></svg>