<svg height="1000" width="1071.4" xmlns="http://www.w3.org/2000/svg"><path d="m214.3 892.9v-71.5c0-19.5-16.2-35.7-35.7-35.7h-71.5c-19.5 0-35.7 16.2-35.7 35.7v71.5c0 19.5 16.2 35.7 35.7 35.7h71.5c19.5 0 35.7-16.2 35.7-35.7z m0-214.3v-71.5c0-19.5-16.2-35.7-35.7-35.7h-71.5c-19.5 0-35.7 16.2-35.7 35.7v71.5c0 19.5 16.2 35.7 35.7 35.7h71.5c19.5 0 35.7-16.2 35.7-35.7z m0-214.3v-71.4c0-19.6-16.2-35.8-35.7-35.8h-71.5c-19.5 0-35.7 16.2-35.7 35.8v71.4c0 19.5 16.2 35.7 35.7 35.7h71.5c19.5 0 35.7-16.2 35.7-35.7z m571.4 428.6v-285.8c0-19.5-16.2-35.7-35.7-35.7h-428.6c-19.5 0-35.7 16.2-35.7 35.7v285.8c0 19.5 16.2 35.7 35.7 35.7h428.6c19.5 0 35.7-16.2 35.7-35.7z m-571.4-642.9v-71.4c0-19.6-16.2-35.7-35.7-35.7h-71.5c-19.5 0-35.7 16.1-35.7 35.7v71.4c0 19.5 16.2 35.7 35.7 35.7h71.5c19.5 0 35.7-16.2 35.7-35.7z m785.7 642.9v-71.5c0-19.5-16.2-35.7-35.7-35.7h-71.4c-19.6 0-35.8 16.2-35.8 35.7v71.5c0 19.5 16.2 35.7 35.8 35.7h71.4c19.5 0 35.7-16.2 35.7-35.7z m-214.3-428.6v-285.7c0-19.6-16.2-35.7-35.7-35.7h-428.6c-19.5 0-35.7 16.1-35.7 35.7v285.7c0 19.5 16.2 35.7 35.7 35.7h428.6c19.5 0 35.7-16.2 35.7-35.7z m214.3 214.3v-71.5c0-19.5-16.2-35.7-35.7-35.7h-71.4c-19.6 0-35.8 16.2-35.8 35.7v71.5c0 19.5 16.2 35.7 35.8 35.7h71.4c19.5 0 35.7-16.2 35.7-35.7z m0-214.3v-71.4c0-19.6-16.2-35.8-35.7-35.8h-71.4c-19.6 0-35.8 16.2-35.8 35.8v71.4c0 19.5 16.2 35.7 35.8 35.7h71.4c19.5 0 35.7-16.2 35.7-35.7z m0-214.3v-71.4c0-19.6-16.2-35.7-35.7-35.7h-71.4c-19.6 0-35.8 16.1-35.8 35.7v71.4c0 19.5 16.2 35.7 35.8 35.7h71.4c19.5 0 35.7-16.2 35.7-35.7z m71.4-89.3v750c0 49.1-40.1 89.3-89.3 89.3h-892.8c-49.1 0-89.3-40.2-89.3-89.3v-750c0-49.1 40.2-89.3 89.3-89.3h892.8c49.2 0 89.3 40.2 89.3 89.3z" /></svg>