<?xml version="1.0" encoding="utf-8"?>
<!-- Generator: Adobe Illustrator 24.3.0, SVG Export Plug-In . SVG Version: 6.00 Build 0)  -->
<svg version="1.1" id="Calque_1" xmlns="http://www.w3.org/2000/svg" xmlns:xlink="http://www.w3.org/1999/xlink" x="0px" y="0px"
	 viewBox="0 0 1000 1000" style="enable-background:new 0 0 1000 1000;" xml:space="preserve">
<path d="M892.8,946.4v35.7c0,9.5-8.4,17.9-17.8,17.9h-750c-9.5,0-17.9-8.4-17.9-17.9v-35.7c0-9.5,8.4-17.8,17.9-17.8h750
	C884.5,928.6,892.8,936.9,892.8,946.4z M750,357.1c0,213.8-250,232.7-250,375c0,39.1,19.5,91,37.3,125l-2.2-0.5l0.6,0.5
	C381.8,786.3,250,688.6,250,500c0-213.7,250-232.7,250-375c0-39.1-19.6-91-36.9-125l1.7,0.6L464.2,0C618.3,70.9,750,168.5,750,357.1
	z"/>
</svg>
