<svg height="1000" width="928.6" xmlns="http://www.w3.org/2000/svg"><path d="m357.1 678.6c0 40.7-21.2 107.1-71.4 107.1s-71.4-66.4-71.4-107.1 21.2-107.2 71.4-107.2 71.4 66.4 71.4 107.2z m357.2 0c0 40.7-21.2 107.1-71.4 107.1s-71.5-66.4-71.5-107.1 21.2-107.2 71.5-107.2 71.4 66.4 71.4 107.2z m89.3 0c0-85.4-51.9-160.7-142.9-160.7-36.8 0-72 6.7-108.8 11.7-29 4.4-58 6.1-87.6 6.1s-58.6-1.7-87.6-6.1c-36.3-5-72-11.7-108.8-11.7-91 0-142.9 75.3-142.9 160.7 0 170.7 156.3 197 292.4 197h93.8c136.1 0 292.4-26.3 292.4-197z m125-98.2c0 61.9-6.2 127.7-34.1 184.7-73.6 149-276.2 163.5-421.3 163.5-147.3 0-362.2-12.9-438.6-163.5-28.5-56.4-34.6-122.8-34.6-184.7 0-81.5 22.3-158.5 75.9-221-10.1-30.7-15.1-63.1-15.1-94.9 0-41.8 9.5-83.7 28.5-121.6 88.2 0 144.5 38.5 211.5 90.9 56.3-13.4 114.4-19.5 172.4-19.5 52.5 0 105.5 5.6 156.3 17.8 66.4-51.9 122.7-89.2 209.8-89.2 19 37.9 28.4 79.8 28.4 121.6 0 31.8-5 63.6-15 93.8 53.6 63 75.9 140.6 75.9 222.1z" /></svg>