<svg height="1000" width="571.4" xmlns="http://www.w3.org/2000/svg"><path d="m569.2 634.5v204.8c0 10-7.8 17.8-17.9 17.8h-533.4c-10.1 0-17.9-7.8-17.9-17.8v-83.7c0-9.5 7.8-17.9 17.9-17.9h54.1v-213.7h-53c-10.1 0-17.9-7.8-17.9-17.9v-73.1c0-10 7.8-17.8 17.9-17.8h53v-124.5c0-127.2 102.7-219.3 244.4-219.3 111.6 0 183.6 67 186.9 69.8 6.7 6.1 7.3 16.7 1.7 24l-57.5 70.8c-3.3 4-7.2 6.2-12.2 6.7-4.5 0.6-9.5-1.1-12.9-3.9-0.5-0.5-48.5-38.5-104.9-38.5-63 0-105.4 38-105.4 94.9v120h170.2c10 0 17.8 7.8 17.8 17.8v73.1c0 10.1-7.8 17.9-17.8 17.9h-170.2v211.5h231v-101c0-10.1 7.8-17.9 17.8-17.9h90.4c10.1 0 17.9 7.8 17.9 17.9z" /></svg>