<svg height="1000" width="1000.0" xmlns="http://www.w3.org/2000/svg"><path d="m286.8 666.9l45.2-166.9h-88.7l41.9 167.4c0.5 1.1 0.5 2.2 1.1 3.4 0-1.2 0.5-2.8 0.5-3.9z m64.8-238.3l19.5-71.5h-163l17.9 71.5h125.6z m107.1 0h77.6l-19.6-71.5h-39z m250.6 238.8l43.5-167.4h-90.4l45.2 166.9c0.5 1.6 0.5 2.7 1.1 3.9 0-1.2 0.6-2.3 0.6-3.4z m61.9-238.8l18.4-71.5h-165.7l19 71.5h128.3z m228.8 17.8v35.7c0 10.1-7.8 17.9-17.9 17.9h-118.8l-91.5 343.8c-2.3 7.8-9.5 13.3-17.3 13.3h-88.8c-7.8 0-15-5.5-17.3-13.3l-92.6-343.8h-116.6l-93.2 343.8c-2.2 7.8-8.9 13.3-17.3 13.3h-88.7c-7.9 0-15.1-5.5-16.8-13.3l-89.3-343.8h-116c-10.1 0-17.9-7.8-17.9-17.9v-35.7c0-10 7.8-17.8 17.9-17.8h97.6l-18.4-71.5h-79.2c-10.1 0-17.9-7.8-17.9-17.8v-35.7c0-10.1 7.8-17.9 17.9-17.9h60.8l-49.7-191.9c-1.7-5.6-0.5-11.2 2.8-15.7 3.4-3.9 8.9-6.7 14.5-6.7h76.5c8.3 0 15.6 5.6 17.3 13.4l50.2 200.9h200.3l54.2-200.9c2.2-7.8 9.4-13.4 17.3-13.4h70.3c8.3 0 15 5.6 17.3 13.4l54.7 200.9h203.6l51.9-200.9c1.7-7.8 9-13.4 17.3-13.4h76.5c5.6 0 11.1 2.8 14.5 6.7 3.3 4.5 4.5 10.6 2.8 15.7l-50.8 191.9h61.9c10.1 0 17.9 7.8 17.9 17.9v35.7c0 10-7.8 17.8-17.9 17.8h-80.9l-18.9 71.5h99.8c10.1 0 17.9 7.8 17.9 17.8z" /></svg>