<svg height="1000" width="571.4" xmlns="http://www.w3.org/2000/svg"><path d="m0 927.5l9.5-47.5c35.7-11.1 74.2-15.6 107.7-32.9 12.8-16.2 19-36.8 22.9-56.4 7.2-37.9 128.9-585.3 127.2-630v-13.9c-30.7-16.8-68.1-12.3-101.6-17.9l10.6-57.5c72 3.4 145.1 9 217.7 9 59.1 0 118.3-5.6 177.4-9-2.2 16.8-6.1 33.5-10.6 49.7-38.5 13.4-79.2 19.5-117.2 34.6-12.2 30.1-15 63.1-20.6 94.9-26.8 144.5-62.5 289-92.1 432.4-5.6 26.8-32.9 137.9-30.7 161.3l0.6 10.1c34 7.8 68.6 11.7 103.2 17.3-1.1 18.4-4.4 36.8-8.9 55.2-12.3 0-24 1.7-36.3 1.7-31.8 0-64.7-10.6-96.5-11.2-38.5-0.5-77-1.1-115-1.1-49.6 0-98.2 8.4-147.3 11.2z" /></svg>