<svg height="1000" width="1000.0" xmlns="http://www.w3.org/2000/svg"><path d="m142.9 732.1v107.2c0 9.5-8.4 17.8-17.9 17.8h-107.1c-9.5 0-17.9-8.3-17.9-17.8v-107.2c0-9.4 8.4-17.8 17.9-17.8h107.1c9.5 0 17.9 8.4 17.9 17.8z m0-214.2v107.1c0 9.5-8.4 17.9-17.9 17.9h-107.1c-9.5 0-17.9-8.4-17.9-17.9v-107.1c0-9.5 8.4-17.9 17.9-17.9h107.1c9.5 0 17.9 8.4 17.9 17.9z m0-214.3v107.1c0 9.5-8.4 17.9-17.9 17.9h-107.1c-9.5 0-17.9-8.4-17.9-17.9v-107.1c0-9.5 8.4-17.9 17.9-17.9h107.1c9.5 0 17.9 8.4 17.9 17.9z m857.1 428.5v107.2c0 9.5-8.4 17.8-17.9 17.8h-750c-9.4 0-17.8-8.3-17.8-17.8v-107.2c0-9.4 8.4-17.8 17.8-17.8h750c9.5 0 17.9 8.4 17.9 17.8z m-857.1-642.8v107.1c0 9.5-8.4 17.9-17.9 17.9h-107.1c-9.5 0-17.9-8.4-17.9-17.9v-107.1c0-9.5 8.4-17.9 17.9-17.9h107.1c9.5 0 17.9 8.4 17.9 17.9z m857.1 428.6v107.1c0 9.5-8.4 17.9-17.9 17.9h-750c-9.4 0-17.8-8.4-17.8-17.9v-107.1c0-9.5 8.4-17.9 17.8-17.9h750c9.5 0 17.9 8.4 17.9 17.9z m0-214.3v107.1c0 9.5-8.4 17.9-17.9 17.9h-750c-9.4 0-17.8-8.4-17.8-17.9v-107.1c0-9.5 8.4-17.9 17.8-17.9h750c9.5 0 17.9 8.4 17.9 17.9z m0-214.3v107.1c0 9.5-8.4 17.9-17.9 17.9h-750c-9.4 0-17.8-8.4-17.8-17.9v-107.1c0-9.5 8.4-17.9 17.8-17.9h750c9.5 0 17.9 8.4 17.9 17.9z" /></svg>