<svg height="1000" width="1000.0" xmlns="http://www.w3.org/2000/svg"><path d="m214.3 660.7v35.7c0 9.5-8.4 17.9-17.9 17.9h-35.7c-9.5 0-17.8-8.4-17.8-17.9v-35.7c0-9.5 8.3-17.8 17.8-17.8h35.7c9.5 0 17.9 8.3 17.9 17.8z m0-142.8v35.7c0 9.5-8.4 17.8-17.9 17.8h-35.7c-9.5 0-17.8-8.3-17.8-17.8v-35.7c0-9.5 8.3-17.9 17.8-17.9h35.7c9.5 0 17.9 8.4 17.9 17.9z m0-142.9v35.7c0 9.5-8.4 17.9-17.9 17.9h-35.7c-9.5 0-17.8-8.4-17.8-17.9v-35.7c0-9.5 8.3-17.9 17.8-17.9h35.7c9.5 0 17.9 8.4 17.9 17.9z m642.8 285.7v35.7c0 9.5-8.3 17.9-17.8 17.9h-535.7c-9.5 0-17.9-8.4-17.9-17.9v-35.7c0-9.5 8.4-17.8 17.9-17.8h535.7c9.5 0 17.8 8.3 17.8 17.8z m0-142.8v35.7c0 9.5-8.3 17.8-17.8 17.8h-535.7c-9.5 0-17.9-8.3-17.9-17.8v-35.7c0-9.5 8.4-17.9 17.9-17.9h535.7c9.5 0 17.8 8.4 17.8 17.9z m0-142.9v35.7c0 9.5-8.3 17.9-17.8 17.9h-535.7c-9.5 0-17.9-8.4-17.9-17.9v-35.7c0-9.5 8.4-17.9 17.9-17.9h535.7c9.5 0 17.8 8.4 17.8 17.9z m71.5 392.9v-464.3c0-9.5-8.4-17.9-17.9-17.9h-821.4c-9.5 0-17.9 8.4-17.9 17.9v464.3c0 9.4 8.4 17.8 17.9 17.8h821.4c9.5 0 17.9-8.4 17.9-17.8z m71.4-607.2v607.2c0 49.1-40.2 89.2-89.3 89.2h-821.4c-49.1 0-89.3-40.1-89.3-89.2v-607.2c0-49.1 40.2-89.3 89.3-89.3h821.4c49.1 0 89.3 40.2 89.3 89.3z" /></svg>