<svg height="1000" width="1071.4" xmlns="http://www.w3.org/2000/svg"><path d="m232.1 714.3c-49.1 0-89.2-40.2-89.2-89.3v-392.9c0-49.1 40.1-89.2 89.2-89.2h607.2c49.1 0 89.3 40.1 89.3 89.2v392.9c0 49.1-40.2 89.3-89.3 89.3h-607.2z m-17.8-482.2v392.9c0 9.5 8.4 17.9 17.8 17.9h607.2c9.5 0 17.8-8.4 17.8-17.9v-392.9c0-9.4-8.3-17.8-17.8-17.8h-607.2c-9.4 0-17.8 8.4-17.8 17.8z m767.8 517.9h89.3v53.6c0 29.5-40.1 53.5-89.3 53.5h-892.8c-49.1 0-89.3-24-89.3-53.5v-53.6h89.3 892.8z m-401.7 53.6c5 0 8.9-3.9 8.9-9s-3.9-8.9-8.9-8.9h-89.3c-5.1 0-9 3.9-9 8.9s3.9 9 9 9h89.3z" /></svg>