<svg height="1000" width="928.6" xmlns="http://www.w3.org/2000/svg"><path d="m812.5 678.6c0-14.5-5.6-27.9-15.6-38l-116.1-116c-10-10.1-24-15.7-37.9-15.7-16.2 0-29.1 6.2-40.2 17.9 18.4 18.4 40.2 34 40.2 62.5 0 29.6-24 53.6-53.6 53.6-28.5 0-44.1-21.8-62.5-40.2-11.7 11.1-18.4 24-18.4 40.7 0 14 5.6 27.9 15.6 38l115 115.5c10 10 23.9 15 37.9 15s27.9-5 37.9-14.5l82.1-81.4c10-10.1 15.6-23.5 15.6-37.4z m-392.3-393.4c0-14-5.6-27.9-15.6-38l-115-115.5c-10-10-24-15.6-37.9-15.6s-27.9 5.6-38 15l-82 81.5c-10 10.1-15.6 23.4-15.6 37.4 0 14.5 5.6 27.9 15.6 37.9l116.1 116.1c10 10.1 24 15.1 37.9 15.1 16.2 0 29-5.6 40.2-17.3-18.4-18.4-40.2-34.1-40.2-62.5 0-29.6 24-53.6 53.6-53.6 28.4 0 44.1 21.8 62.5 40.2 11.7-11.2 18.4-24 18.4-40.7z m499.4 393.4c0 42.4-17.3 83.7-47.4 113.3l-82 81.4c-30.2 30.2-70.9 46.3-113.3 46.3-43 0-83.7-16.7-113.8-47.4l-115-115.5c-30.1-30.1-46.3-70.9-46.3-113.3 0-44.1 17.8-85.9 49.1-116.6l-49.1-49.1c-30.7 31.2-72 49.1-116.1 49.1-42.4 0-83.7-16.8-113.8-46.9l-116.1-116.1c-30.7-30.7-46.9-70.8-46.9-113.8 0-42.4 17.3-83.7 47.5-113.3l82-81.5c30.1-30.1 70.9-46.3 113.3-46.3 42.9 0 83.7 16.8 113.8 47.5l115 115.5c30.1 30.1 46.3 70.8 46.3 113.3 0 44-17.9 85.9-49.1 116.6l49.1 49.1c30.7-31.3 72-49.1 116.1-49.1 42.4 0 83.7 16.7 113.8 46.9l116.1 116c30.7 30.7 46.8 70.9 46.8 113.9z" /></svg>