<?xml version="1.0" encoding="utf-8"?>
<!-- Generator: Adobe Illustrator 24.3.0, SVG Export Plug-In . SVG Version: 6.00 Build 0)  -->
<svg version="1.1" id="Calque_1" xmlns="http://www.w3.org/2000/svg" xmlns:xlink="http://www.w3.org/1999/xlink" x="0px" y="0px"
	 viewBox="0 0 1000 1000" style="enable-background:new 0 0 1000 1000;" xml:space="preserve">
<path d="M785.7,384V616c0,29.6-24,53.6-53.5,53.6s-53.6-24-53.6-53.6V419.7h-35.7v508.9c0,34.6-27.9,62.5-62.5,62.5
	c-34.6,0-62.5-27.9-62.5-62.5V669.6h-35.7v258.9c0,34.6-27.9,62.5-62.5,62.5s-62.5-27.9-62.5-62.5V419.7h-35.8V616
	c0,29.6-24,53.6-53.5,53.6s-53.6-24-53.6-53.6V384c0-59.2,48-107.2,107.1-107.2h357.2C737.7,276.8,785.7,324.8,785.7,384L785.7,384z
	 M625,133.9c0,69.2-55.8,125-125,125s-125-55.8-125-125s55.8-125,125-125S625,64.8,625,133.9z"/>
</svg>
