<?xml version="1.0" encoding="utf-8"?>
<!-- Generator: Adobe Illustrator 24.3.0, SVG Export Plug-In . SVG Version: 6.00 Build 0)  -->
<svg version="1.1" id="Calque_1" xmlns="http://www.w3.org/2000/svg" xmlns:xlink="http://www.w3.org/1999/xlink" x="0px" y="0px"
	 viewBox="0 0 928.6 1000" style="enable-background:new 0 0 928.6 1000;" xml:space="preserve">
<path d="M656.5,367.5L820,204l-59.7-59.7L596.8,307.8L656.5,367.5z M906,204c0,9.5-3.3,18.4-10,25.1L178.2,946.8
	c-6.7,6.7-15.6,10-25.1,10s-18.4-3.3-25.1-10L17.5,836.2c-6.7-6.7-10-15.7-10-25.1s3.3-18.5,10-25.2L735.1,68.4
	c6.7-6.7,15.7-10,25.2-10s18.4,3.3,25.1,10l110.5,110.5C902.6,185.6,905.9,194.5,906,204L906,204z M152,98l54.7,16.7L152,131.5
	l-16.7,54.7l-16.8-54.7l-54.7-16.8L118.5,98l16.8-54.7L152,98z M347.3,188.4l109.4,33.5l-109.4,33.5l-33.5,109.3l-33.5-109.3
	L171,221.9l109.3-33.5L313.8,79L347.3,188.4z M866.3,455.1l54.7,16.8l-54.7,16.7l-16.8,54.7l-16.7-54.7l-54.7-16.7l54.7-16.8
	l16.7-54.7L866.3,455.1z M509.1,98l54.7,16.7l-54.7,16.8l-16.7,54.7l-16.7-54.7L421,114.7L475.7,98l16.7-54.7L509.1,98z"/>
</svg>
