<svg height="1000" width="1000.0" xmlns="http://www.w3.org/2000/svg"><path d="m714.3 625v-107.1c0-10.1-7.8-17.9-17.9-17.9h-125v-125c0-10-7.8-17.9-17.8-17.9h-107.2c-10 0-17.8 7.9-17.8 17.9v125h-125c-10.1 0-17.9 7.8-17.9 17.9v107.1c0 10 7.8 17.9 17.9 17.9h125v125c0 10 7.8 17.8 17.8 17.8h107.2c10 0 17.8-7.8 17.8-17.8v-125h125c10.1 0 17.9-7.9 17.9-17.9z m-357.2-410.7h285.8v-71.4h-285.8v71.4z m-214.2 0v714.3h-17.9c-68.6 0-125-56.4-125-125v-464.3c0-68.7 56.4-125 125-125h17.9z m660.7 0v714.3h-607.2v-714.3h89.3v-89.3c0-29.6 24-53.6 53.6-53.6h321.4c29.6 0 53.6 24 53.6 53.6v89.3h89.3z m196.4 125v464.3c0 68.6-56.4 125-125 125h-17.9v-714.3h17.9c68.6 0 125 56.3 125 125z" /></svg>