<?xml version="1.0" encoding="utf-8"?>
<!-- Generator: Adobe Illustrator 24.3.0, SVG Export Plug-In . SVG Version: 6.00 Build 0)  -->
<svg version="1.1" id="Calque_1" xmlns="http://www.w3.org/2000/svg" xmlns:xlink="http://www.w3.org/1999/xlink" x="0px" y="0px"
	 viewBox="0 0 1000 1000" style="enable-background:new 0 0 1000 1000;" xml:space="preserve">
<path d="M597.3,65c-97.3,0.5-189.8,25.2-280.5,58.6c-32.5-8.1-65.1-17.3-95.4-0.7c-2.1,26.6,8.3,48.1,17.3,70.2
	c-53.6,108.6-73.1,228.5-43.4,364.9c55,24.2,109.9,41.8,164.9,52.2c-61.4-2-114.1-23.2-164.2-40.9c-69.1,87.7-69,191.5-70,292.8
	c-9.6,11.4-23.8,19.2-22.6,39.1c21.5,12.6,52.9,3.1,83.3-4.4c255.7,84.5,399.7,6,581.5-17.3c21.3,19.3,45.6,31.4,76.2,27.8
	c-0.9-30-13.5-62.8-32.7-97.3c33.1-81.9,50.4-168.9,26-269.4c-68.4,38.4-137.7,57.5-208.3,54.2c93.3-11.2,151.4-28.2,209.1-67
	c69.5-104.3,53.4-264.6,28.7-394.6c23.9-19.2,21.2-40.5,29.7-66.4c-40.9,1.9-69.1,12.8-105.5,30.7C724.1,74.2,659.7,64.7,597.3,65
	L597.3,65z M672.1,236.2c4.7,66.7-0.9,136.6-18.2,195.9c-98.3,11-189.8,32.3-317.1,0c-4.4-104.1,19.7-150.9,44.9-195.5
	C473.2,265.6,565.9,244.2,672.1,236.2L672.1,236.2z M501.8,288.1c-36.8,19.3-24.5,11-44.8,11c-7.7,0-15.3,0.1-23.1,0
	c-5.4-0.1-11,0-16.3-1.1c-3.7-1.3-5.3-5-9.1-6.3l-35.2,23.6c3.6,1,5.8,4.1,8.9,5.9c5.6,2.5,11.8,2.3,17.8,2.4
	c7.7,0.1,15.4,0.1,23.2,0.1c7.3-0.1,14.7,0,22.1-0.1c29.1,0.5,16.1-27.4,43.9-0.3c2.6,4.2,5.7,8.1,9.6,11.1c4.1,2,7.3,5,11.9,5.3
	c6.9-0.5,12.7-4.6,19.1-7.1c5.9-2.1,12.2-2.8,18.5-3.1c5.9,0,11.8,0.1,17.5-1.7c7.1-2,13.5-5.5,20.3-8.4c4.8-1.4,10.8-4.7,15.8-2.7
	l0.8,1l36.3-21.7l-1.6-2.2c-5.9-4.7-11.9-2.3-18.5-0.3c-6.8,2.4-13.1,6.1-19.9,8.4c-1.8,0.6-3.6,1.5-5.4,2.1
	c-3.7,1-7.6,0.2-11.4,0.5c-6.4,0.2-13,0.5-19.2,2.3c-6.4,2-12.1,5.1-18.1,7.9c-1.1,0.2-2.3,0.8-3.4,0.7c-2.6-0.3-4.1-4.1-7-3.9
	c-4.1-2.3-6.7-6.4-9.3-10.2c-4.5-5.1-10.4-9.1-16.4-12.2C506.4,288.5,504.2,288.1,501.8,288.1L501.8,288.1z M530.3,402.1
	c4.1,5.1,8.9,9,15.1,11.2c6.8,1.7,13.8,1.6,20.8,1.7c7.2,0.3,14.3-1.1,21.2-3.2c16-6.4,33-13.2,44.3-26.4
	c-29,9.8-55.6,28.3-11.2,0.6c-6.4,2.6-13.4,4.4-20.4,4.4c-6.6,0-13.3,0.1-19.9-0.8c-6.3-1.4-10.9-4.8-14.6-10
	C538,347.2,548.6,379.6,530.3,402.1L530.3,402.1z M511,392c7.2-17.2,0.2-1.8-10.5-15.1c-4.6-4-10.3-4.2-16.2-3.5
	c-7.1,0.7-14.2,1.7-20.7,4.7c-5.7,2.7-11.4,3.8-17.8,2.7c-5.9-1-11.7-2.6-17.7-3.2c-6.8-1.6-13.1-4.4-19.5-6.8l-34.6,24.2
	c6.8,1.3,12.9,4.4,19.6,6.4c5.9,1.1,11.8,2.4,17.8,3.6c6.5,1.2,12.9,1.1,19.2-0.9c6.4-3,13.1-4.6,20-5.6c4.6-0.3,9.8-1.4,14.1,1
	c3.9,4.1,7.7,8.4,11.6,12.5c3.9,4.4,9,6.8,14.7,7.8C544,412.4,511.7,403.6,511,392z"/>
</svg>
