<svg height="1000" width="928.6" xmlns="http://www.w3.org/2000/svg"><path d="m664.1 324.2l163.5-163.5-59.7-59.7-163.5 163.5z m249.4-163.5c0 9.5-3.3 18.4-10 25.1l-717.7 717.7c-6.7 6.7-15.6 10-25.1 10s-18.4-3.3-25.1-10l-110.5-110.5c-6.7-6.7-10-15.7-10-25.1s3.3-18.5 10-25.2l717.6-717.6c6.7-6.7 15.7-10 25.2-10s18.4 3.3 25.1 10l110.5 110.5c6.7 6.7 10 15.6 10 25.1z m-753.9-106l54.7 16.7-54.7 16.8-16.7 54.7-16.8-54.7-54.7-16.8 54.7-16.7 16.8-54.7z m195.3 90.4l109.4 33.5-109.4 33.5-33.5 109.3-33.5-109.3-109.3-33.5 109.3-33.5 33.5-109.4z m519 266.7l54.7 16.8-54.7 16.7-16.8 54.7-16.7-54.7-54.7-16.7 54.7-16.8 16.7-54.7z m-357.2-357.1l54.7 16.7-54.7 16.8-16.7 54.7-16.7-54.7-54.7-16.8 54.7-16.7 16.7-54.7z" /></svg>