<svg height="1000" width="642.9" xmlns="http://www.w3.org/2000/svg"><path d="m642.9 392.9v71.4c0 165.2-125 301.3-285.8 319.2v73.6h142.9c19.5 0 35.7 16.2 35.7 35.8s-16.2 35.7-35.7 35.7h-357.1c-19.6 0-35.8-16.2-35.8-35.7s16.2-35.8 35.8-35.8h142.8v-73.6c-160.7-17.9-285.7-154-285.7-319.2v-71.4c0-19.6 16.2-35.8 35.7-35.8s35.7 16.2 35.7 35.8v71.4c0 137.8 112.2 250 250 250s250-112.2 250-250v-71.4c0-19.6 16.2-35.8 35.7-35.8s35.8 16.2 35.8 35.8z m-142.9-214.3v285.7c0 98.2-80.4 178.6-178.6 178.6s-178.5-80.4-178.5-178.6v-285.7c0-98.2 80.3-178.6 178.5-178.6s178.6 80.4 178.6 178.6z" /></svg>