<svg height="1000" width="1000.0" xmlns="http://www.w3.org/2000/svg"><path d="m488.1 28c-323.8 9.7-504.7 218.4-469.9 443.8 56.4 35.2 149.5 65 311.7 111.1 162.2 46.2 425.3 31.7 534.1-25.3 69.3-36.3 90.6-65.5 122-132.9-6.3-202.3-174.1-406.3-497.9-396.7z m-129 112.7c3.2 0 6.4 0.1 9.5 0.2 59 3.3-27.6 102.8-63.6 138-36 35.2-64.4 50.3-138.2 59.1-49.9 6 24.1-105.2 60.3-140.7 34.2-33.5 84.2-56.2 132-56.6z m326.2 107.1c41.1-10.9 100.6 11.4 133.9 45.2 32.9 33.3 108.3 113.8 41.5 135.1-77.6 24.7-121.2-0.9-149.3-45-34.3-53.9-96.5-116.6-26.1-135.3z m-412.7 144.2c4-0.3 8.2 2.4 12.3 3.1 8.3 1.2 19.3-3.3 25.1 2.7 11.5 12.1 10.5 35.1 2.8 49.9-9.6 18.5-41.8 33.3-53 33.3-11.2 0-44.9-9.7-47.5-27.7-3.9-27.9 31.7-52.5 58.6-61 0.6-0.2 1.2-0.3 1.7-0.3z m51.8 219c-43.3 77.4-72.8 90.9-74.1 160.6-1.7 89.3-10.6 184 65.8 228 96.7 43.2 343.8 51.1 356.6-82.8-3.3-49.8-2.9-102.9-28.8-145.2-30-49.2-51.9-79.9-59.7-129.7-86.1 3.4-173-11.4-259.8-30.9z" /></svg>