<svg height="1000" width="785.7" xmlns="http://www.w3.org/2000/svg"><path d="m767.9 89.3c35.7 35.7 0 125-53.6 178.6l-89.9 89.8 89.3 388.4c1.7 6.7-1.1 13.9-6.7 18.4l-71.4 53.6c-2.8 2.2-6.7 3.3-10.6 3.3-1.1 0-2.2 0-3.9-0.5-5-1.1-9.5-3.9-11.7-9l-155.7-283.4-144.5 144.5 29.5 108.3c1.7 6.1 0 12.2-4.4 17.2l-53.6 53.6c-3.4 3.4-8.4 5-12.8 5h-1.2c-5.5-0.5-10-2.7-13.4-7.2l-105.4-140.6-140.6-105.5c-4.5-2.8-6.7-7.8-7.3-12.8s1.7-10.1 5-14l53.6-54.1c3.3-3.4 8.4-5 12.8-5 1.7 0 3.4 0 4.5 0.5l108.3 29.6 144.5-144.5-283.5-155.7c-5-2.8-8.4-7.8-9.5-13.4-0.5-5 1.1-11.2 5-15.1l71.5-71.4c4.4-3.9 11.1-6.2 16.7-4.5l371.1 88.7 89.3-89.2c53.6-53.6 142.8-89.3 178.6-53.6z" /></svg>