<svg height="1000" width="928.6" xmlns="http://www.w3.org/2000/svg"><path d="m928.6 612.7c0 57.5-33 105.5-93.8 105.5-68.1 0-85.9-61.9-147.3-61.9-44.6 0-61.4 27.9-61.4 69.1 0 43.6 17.9 85.4 17.3 128.4v2.8c-6.1 0-12.3 0-18.4 0.5-57.5 5.6-115.5 16.8-173.5 16.8-39.7 0-81-15.6-81-61.4 0-61.4 62-79.2 62-147.3 0-60.8-48-93.8-105.5-93.8-58.6 0-112.7 32.4-112.7 96.6 0 70.8 54.1 101.5 54.1 140 0 19.6-12.3 36.9-25.7 49.7-17.3 16.2-41.8 19.5-65.2 19.5-45.8 0-91.6-6.1-136.8-13.4-10-1.6-20.6-2.8-30.7-4.4l-7.2-1.1c-1.1-0.6-2.8-0.6-2.8-1.2v-571.4c2.2 1.7 35.2 5.6 40.7 6.7 45.2 7.3 91 13.4 136.8 13.4 23.4 0 47.9-3.3 65.2-19.5 13.4-12.9 25.7-30.2 25.7-49.7 0-38.5-54.1-69.2-54.1-140.1 0-64.1 54.1-96.5 113.3-96.5 56.9 0 104.9 32.9 104.9 93.7 0 68.1-62 86-62 147.4 0 45.7 41.3 61.4 81 61.4 64.1 0 127.7-14.6 191.4-17.9v1.1c-1.7 2.2-5.6 35.2-6.7 40.8-7.3 45.2-13.4 90.9-13.4 136.7 0 23.4 3.3 48 19.5 65.3 12.8 13.4 30.1 25.6 49.7 25.6 38.5 0 69.2-54.1 140-54.1 64.2 0 96.6 54.1 96.6 112.7z" /></svg>