<svg height="1000" width="928.6" xmlns="http://www.w3.org/2000/svg"><path d="m428.6 535.7v214.3c0 59.2-48 107.1-107.2 107.1h-214.3c-59.1 0-107.1-47.9-107.1-107.1v-392.9c0-157.3 128.3-285.7 285.7-285.7h35.7c19.6 0 35.7 16.2 35.7 35.7v71.5c0 19.5-16.1 35.7-35.7 35.7h-35.7c-78.7 0-142.8 64.2-142.8 142.8v17.9c0 29.6 24 53.6 53.5 53.6h125c59.2 0 107.2 48 107.2 107.1z m500 0v214.3c0 59.2-48 107.1-107.2 107.1h-214.3c-59.1 0-107.1-47.9-107.1-107.1v-392.9c0-157.3 128.3-285.7 285.7-285.7h35.7c19.6 0 35.7 16.2 35.7 35.7v71.5c0 19.5-16.1 35.7-35.7 35.7h-35.7c-78.7 0-142.8 64.2-142.8 142.8v17.9c0 29.6 24 53.6 53.5 53.6h125c59.2 0 107.2 48 107.2 107.1z" /></svg>