<svg height="1000" width="928.6" xmlns="http://www.w3.org/2000/svg"><path d="m428.6 178.6v392.8c0 157.4-128.4 285.7-285.7 285.7h-35.8c-19.5 0-35.7-16.1-35.7-35.7v-71.4c0-19.5 16.2-35.7 35.7-35.7h35.8c78.6 0 142.8-64.2 142.8-142.9v-17.8c0-29.6-24-53.6-53.6-53.6h-125c-59.1 0-107.1-48-107.1-107.1v-214.3c0-59.2 48-107.2 107.1-107.2h214.3c59.2 0 107.2 48 107.2 107.2z m500 0v392.8c0 157.4-128.4 285.7-285.7 285.7h-35.8c-19.5 0-35.7-16.1-35.7-35.7v-71.4c0-19.5 16.2-35.7 35.7-35.7h35.8c78.6 0 142.8-64.2 142.8-142.9v-17.8c0-29.6-24-53.6-53.6-53.6h-125c-59.1 0-107.1-48-107.1-107.1v-214.3c0-59.2 48-107.2 107.1-107.2h214.3c59.2 0 107.2 48 107.2 107.2z" /></svg>