<svg height="1000" width="1000.0" xmlns="http://www.w3.org/2000/svg"><path d="m1000 357.1c0 9.5-3.9 18.5-10.6 25.2l-285.7 285.7c-6.7 6.7-15.6 10.6-25.1 10.6-19.6 0-35.7-16.2-35.7-35.7v-142.9h-125c-240.6 0-398.5 46.3-398.5 312.5 0 22.9 1.1 45.8 2.8 68.6 0.6 9 2.8 19 2.8 27.9 0 10.6-6.7 19.6-17.9 19.6-7.8 0-11.7-3.9-15.6-9.5-8.4-11.7-14.5-29.6-20.6-42.4-31.8-71.5-70.9-173.6-70.9-251.7 0-62.5 6.1-126.7 29.6-185.8 77.5-192.5 305.2-224.9 488.3-224.9h125v-142.9c0-19.5 16.1-35.7 35.7-35.7 9.5 0 18.4 3.9 25.1 10.6l285.7 285.7c6.7 6.7 10.6 15.7 10.6 25.1z" /></svg>