<svg height="1000" width="1071.4" xmlns="http://www.w3.org/2000/svg"><path d="m620 555.8v-2.2l-13.4-178.6c-0.6-10-9.5-17.9-19-17.9h-103.8c-9.5 0-18.4 7.9-19 17.9l-13.3 178.6v2.2c-0.6 8.9 7.8 15.6 16.1 15.6h136.2c8.4 0 16.7-6.7 16.2-15.6z m423.5 260.6c0 16.2-4.4 40.7-25.6 40.7h-392.9c9.5 0 17.3-7.8 16.7-17.8l-11.1-142.9c-0.6-10-9.5-17.8-19-17.8h-151.8c-9.5 0-18.4 7.8-19 17.8l-11.1 142.9c-0.6 10 7.2 17.8 16.7 17.8h-392.8c-21.2 0-25.7-24.5-25.7-40.7 0-22.3 6.1-44.6 14.5-64.7l232.7-582.6c5.6-14 20.7-26.2 35.7-26.2h189.2c-9.5 0-18.4 7.8-19 17.8l-8.3 107.2c-0.6 10 6.7 17.8 16.7 17.8h92.6c10.1 0 17.3-7.8 16.8-17.8l-8.4-107.2c-0.6-10-9.5-17.8-19-17.8h189.2c15.1 0 30.1 12.2 35.7 26.2l232.7 582.6c8.4 20.1 14.5 42.4 14.5 64.7z" /></svg>