<svg height="1000" width="785.7" xmlns="http://www.w3.org/2000/svg"><path d="m214.3 750c0 59.2-48 107.1-107.2 107.1s-107.1-47.9-107.1-107.1 48-107.1 107.1-107.1 107.2 47.9 107.2 107.1z m285.7 68.6c0.6 10.1-2.8 19.6-9.5 26.8-6.7 7.8-16.2 11.7-26.2 11.7h-75.3c-18.5 0-33.5-13.9-35.2-32.3-16.2-170.2-151.2-305.3-321.4-321.5-18.4-1.6-32.4-16.7-32.4-35.1v-75.3c0-10.1 3.9-19.6 11.7-26.3 6.2-6.1 15.1-9.5 24-9.5h2.8c118.9 9.5 231 61.4 315.3 146.2 84.8 84.3 136.7 196.5 146.2 315.3z m285.7 1.2c0.6 9.4-2.8 18.9-10 26.2-6.7 7.2-15.7 11.1-25.7 11.1h-79.8c-19 0-34.6-14.5-35.7-33.4-18.4-324.3-276.8-582.6-601-601.6-19-1.1-33.5-16.7-33.5-35.2v-79.8c0-10 3.9-18.9 11.2-25.6 6.7-6.7 15.6-10.1 24.5-10.1h1.7c195.3 10.1 378.9 92.1 517.3 231.1 138.9 138.3 221 321.9 231 517.3z" /></svg>