<svg height="1000" width="1000.0" xmlns="http://www.w3.org/2000/svg"><path d="m285.7 696.4v107.2c0 29.5-24 53.5-53.6 53.5h-178.5c-29.6 0-53.6-24-53.6-53.5v-107.2c0-29.5 24-53.5 53.6-53.5h178.5c29.6 0 53.6 24 53.6 53.5z m0-285.7v107.2c0 29.5-24 53.5-53.6 53.5h-178.5c-29.6 0-53.6-24-53.6-53.5v-107.2c0-29.6 24-53.6 53.6-53.6h178.5c29.6 0 53.6 24 53.6 53.6z m357.2 285.7v107.2c0 29.5-24 53.5-53.6 53.5h-178.6c-29.6 0-53.6-24-53.6-53.5v-107.2c0-29.5 24-53.5 53.6-53.5h178.6c29.6 0 53.6 24 53.6 53.5z m-357.2-571.4v107.1c0 29.6-24 53.6-53.6 53.6h-178.5c-29.6 0-53.6-24-53.6-53.6v-107.1c0-29.6 24-53.6 53.6-53.6h178.5c29.6 0 53.6 24 53.6 53.6z m357.2 285.7v107.2c0 29.5-24 53.5-53.6 53.5h-178.6c-29.6 0-53.6-24-53.6-53.5v-107.2c0-29.6 24-53.6 53.6-53.6h178.6c29.6 0 53.6 24 53.6 53.6z m357.1 285.7v107.2c0 29.5-24 53.5-53.6 53.5h-178.5c-29.6 0-53.6-24-53.6-53.5v-107.2c0-29.5 24-53.5 53.6-53.5h178.5c29.6 0 53.6 24 53.6 53.5z m-357.1-571.4v107.1c0 29.6-24 53.6-53.6 53.6h-178.6c-29.6 0-53.6-24-53.6-53.6v-107.1c0-29.6 24-53.6 53.6-53.6h178.6c29.6 0 53.6 24 53.6 53.6z m357.1 285.7v107.2c0 29.5-24 53.5-53.6 53.5h-178.5c-29.6 0-53.6-24-53.6-53.5v-107.2c0-29.6 24-53.6 53.6-53.6h178.5c29.6 0 53.6 24 53.6 53.6z m0-285.7v107.1c0 29.6-24 53.6-53.6 53.6h-178.5c-29.6 0-53.6-24-53.6-53.6v-107.1c0-29.6 24-53.6 53.6-53.6h178.5c29.6 0 53.6 24 53.6 53.6z" /></svg>