<svg height="1000" width="928.6" xmlns="http://www.w3.org/2000/svg"><path d="m142.9 321.4c0 19.6-16.2 35.7-35.8 35.7-20 0-35.7-16.1-35.7-35.7 0-20.1 15.7-35.7 35.7-35.7 19.6 0 35.8 15.6 35.8 35.7z m89.2 285.7v-357.1c0-19.5-16.1-35.7-35.7-35.7h-160.7c-19.5 0-35.7 16.2-35.7 35.7v357.1c0 19.6 16.2 35.8 35.7 35.8h160.7c19.6 0 35.7-16.2 35.7-35.8z m630.1-83.1c18.9 21.2 30.7 53.6 30.7 83.1-0.6 58.1-49.1 107.2-107.2 107.2h-154.6c4.5 17.8 10.1 23.4 16.2 35.7 14.5 29 31.3 61.4 31.3 107.1 0 43 0 142.9-125 142.9-9.5 0-18.4-3.9-25.1-10.6-24-23.4-30.7-58-36.9-91-6.7-32.3-12.8-65.8-34.6-87.6-17.3-17.3-36.2-41.3-56.3-66.9-24.6-32.4-78.2-98.8-98.8-100.5-18.4-1.7-34-17.3-34-35.7v-357.7c0-19.5 16.7-35.2 35.7-35.7 19.5-0.6 53-12.3 88.1-24.6 60.3-20.6 135.6-46.8 215.4-46.8h9.5 42.4 20.1c49.1 0.5 86 15 110 43.5 21.2 25.1 30.7 59.1 27.3 101 14 13.4 24.6 31.8 30.1 52.4 6.2 22.4 6.2 44.7 0 65.3 16.8 22.4 25.2 48.6 24 76.5 0 7.8-2.2 24.5-8.3 42.4z" /></svg>