<svg height="1000" width="928.6" xmlns="http://www.w3.org/2000/svg"><path d="m428.6 571.4v214.3c0 39.1-32.4 71.4-71.5 71.4h-285.7c-39 0-71.4-32.3-71.4-71.4v-214.3c0-39 32.4-71.4 71.4-71.4h285.7c39.1 0 71.5 32.4 71.5 71.4z m0-428.5v214.2c0 39.1-32.4 71.5-71.5 71.5h-285.7c-39 0-71.4-32.4-71.4-71.5v-214.2c0-39.1 32.4-71.5 71.4-71.5h285.7c39.1 0 71.5 32.4 71.5 71.5z m500 428.5v214.3c0 39.1-32.4 71.4-71.5 71.4h-285.7c-39 0-71.4-32.3-71.4-71.4v-214.3c0-39 32.4-71.4 71.4-71.4h285.7c39.1 0 71.5 32.4 71.5 71.4z m0-428.5v214.2c0 39.1-32.4 71.5-71.5 71.5h-285.7c-39 0-71.4-32.4-71.4-71.5v-214.2c0-39.1 32.4-71.5 71.4-71.5h285.7c39.1 0 71.5 32.4 71.5 71.5z" /></svg>