<svg height="1000" width="857.1" xmlns="http://www.w3.org/2000/svg"><path d="m26.8 124.4c-10.1-0.5-18.4-0.5-25.1-2.2l-1.7-49.1c7.3-0.6 14.5-0.6 22.3-0.6 19.6 0 40.8 0.6 62.5 2.3 52.5 2.8 83.7 3.9 92.7 3.9 31.8 0 63-0.6 93.7-1.7 30.1-1.1 57.5-2.2 81.5-2.8 23.4 0 39.6-0.5 48-1.1l-0.6 7.8 1.1 35.7v5.1c-22.3 3.3-45.2 5-69.2 5-22.3 0-36.8 4.4-44.1 13.9-5 5.6-7.2 30.2-7.2 73.7 0 13.4 0.6 24 0.6 32.4l0.5 127.7 7.8 156.3c2.3 45.2 11.2 82.6 28.5 112.7 12.8 21.8 30.7 39.1 53.6 51.4 33.4 17.8 66.4 26.2 98.7 26.2 38 0 73.7-5 106.6-15.6 19.5-6.2 38-15.1 55.3-28.5 17.3-12.8 29.5-24.6 36.2-35.7 14.5-22.3 24-44.1 29.6-63.6 7.8-27.4 11.7-69.8 11.7-127.8 0-99.9-7.2-102.7-15.6-228.8l-2.2-32.9c-1.7-24-5.6-40.8-13.4-49.1-12.3-12.9-26.8-19.6-43-19l-55.8 1.1-7.8-1.7 1.1-48h46.9l114.4 5.6c37.9 1.7 74.2-1.7 109.4-5.6l10 1.1c2.2 14 3.3 23.5 3.3 28.5s-1.1 10.6-2.2 17.3c-15.1 3.9-30.7 6.7-46.9 7.3-26.2 3.9-41.3 6.7-44 9.4-5.1 5.1-8.4 12.3-8.4 22.9 0 7.3 1.1 18.4 1.7 32.4 0 0 4.4 10 12.2 221 2.8 84.2-2.8 141.2-8.3 169.6s-13.4 51.4-22.9 68.1c-14.5 24.5-35.7 47.4-62.5 68.6-27.4 20.7-60.8 37.4-101.6 49.7s-88.2 18.4-142.3 18.4c-61.4 0-114.4-8.4-158.5-25.7s-77.5-40.1-99.9-68-37.9-64.2-46.3-108.9c-6.1-30.6-8.9-74.7-8.9-132.2v-185.8c0-70.3-3.3-110-9.5-118.9-8.9-12.8-36.3-20.6-82-21.8z m830.3 786.3v-35.7c0-10-7.8-17.9-17.8-17.9h-821.4c-10.1 0-17.9 7.9-17.9 17.9v35.7c0 10.1 7.8 17.9 17.9 17.9h821.4c10 0 17.8-7.8 17.8-17.9z" /></svg>