<svg height="1000" width="928.6" xmlns="http://www.w3.org/2000/svg"><path d="m904 227.7c-24.5 35.7-55.2 67.5-90.4 93.2 0.6 7.8 0.6 15.6 0.6 23.4 0 238.3-181.4 512.8-512.9 512.8-102.1 0-196.9-29.5-276.7-80.9 14.5 1.7 28.4 2.3 43.5 2.3 84.2 0 161.8-28.5 223.8-77-79.3-1.7-145.7-53.6-168.6-125 11.2 1.6 22.3 2.7 34.1 2.7 16.1 0 32.3-2.2 47.4-6.1-82.6-16.7-144.5-89.3-144.5-176.9v-2.2c24 13.4 51.9 21.7 81.4 22.9-48.5-32.4-80.3-87.7-80.3-150.2 0-33.4 8.9-64.1 24.5-90.9 88.8 109.4 222.1 180.8 371.7 188.6-2.8-13.4-4.5-27.3-4.5-41.3 0-99.3 80.4-180.2 180.3-180.2 51.9 0 98.7 21.7 131.7 56.9 40.7-7.8 79.8-22.9 114.4-43.6-13.4 41.9-41.9 77.1-79.3 99.4 36.3-3.9 71.5-14 103.8-27.9z" /></svg>