<?xml version="1.0" encoding="utf-8"?>
<!-- Generator: Adobe Illustrator 24.3.0, SVG Export Plug-In . SVG Version: 6.00 Build 0)  -->
<svg version="1.1" id="Calque_1" xmlns="http://www.w3.org/2000/svg" xmlns:xlink="http://www.w3.org/1999/xlink" x="0px" y="0px"
	 viewBox="0 0 571.4 1000" style="enable-background:new 0 0 571.4 1000;" xml:space="preserve">
<path d="M333.1,69.6c-12.9-46.7-80.3-48.9-94.9,0C162.3,325.7,0,395.3,0,575.7c0,159.8,127.8,289.1,285.7,289.1
	s285.7-129.3,285.7-289.1C571.4,394.3,409.4,326.8,333.1,69.6z M285.7,761c-100.2,0-181.8-81.6-181.8-181.8c0-14.3,11.6-26,26-26
	s26,11.6,26,26c0,71.6,58.3,129.9,129.9,129.9c14.3,0,26,11.6,26,26S300,761,285.7,761z"/>
</svg>
