<svg height="1000" width="928.6" xmlns="http://www.w3.org/2000/svg"><path d="m714.3 821.4c0-19.5-16.2-35.7-35.7-35.7s-35.7 16.2-35.7 35.7 16.1 35.7 35.7 35.7 35.7-16.1 35.7-35.7z m142.8 0c0-19.5-16.1-35.7-35.7-35.7s-35.7 16.2-35.7 35.7 16.2 35.7 35.7 35.7 35.7-16.1 35.7-35.7z m71.5-125v178.6c0 29.6-24 53.6-53.6 53.6h-821.4c-29.6 0-53.6-24-53.6-53.6v-178.6c0-29.5 24-53.5 53.6-53.5h238.3c15 41.3 54.6 71.4 101 71.4h142.8c46.3 0 86-30.1 101-71.4h238.3c29.6 0 53.6 24 53.6 53.5z m-181.4-361.6c-5.6 13.4-18.4 22.3-32.9 22.3h-142.9v250c0 19.6-16.2 35.8-35.7 35.8h-142.8c-19.6 0-35.8-16.2-35.8-35.8v-250h-142.8c-14.5 0-27.4-8.9-32.9-22.3-5.6-12.8-2.8-28.4 7.8-38.5l250-250c6.7-7.2 16.2-10.6 25.1-10.6s18.4 3.4 25.1 10.6l250 250c10.6 10.1 13.4 25.7 7.8 38.5z" /></svg>