<svg height="1000" width="1000.0" xmlns="http://www.w3.org/2000/svg"><path d="m653.1 27.7c0 0-157.2 77.8-195.4 142.9-38.2 65-14.6 270.1-14.6 270.1 0 0 167.2-149 198.3-213.8 31.1-64.7 11.7-199.2 11.7-199.2z m247.2 1.6c-53.9-0.1-115.8 4.8-148.1 24.6-64.6 39.7-81.6 175.8-81.6 175.8 0 0 141.7 31.9 201.1-8.4 59.5-40.3 128.3-186.9 128.3-186.9 0 0-45.8-5.1-99.7-5.1z m-506.7 55.3c0 0-18.2 121.8-23 179.9 0 0-117.1 71.9-146.7 143.8-29.5 71.8 6.4 262.3 6.4 262.3 0 0 147.4-116.2 174.9-192.6 27.5-76.3-11.6-236-11.6-236l0-157.4z m317.5 174.4c-16.2 0-32 2-46.4 7-76.3 26.4-198.2 198.1-198.2 198.1 0 0 179.1 25.3 247.8-7.8 68.6-33.2 145.7-159.6 145.7-159.6 0 0-78.5-37.7-148.9-37.7z m-512.9 20.9l-56.9 244.7c0 0-66.7 45.4-115.1 126.4-46.9 78.6 23.4 248.3 23.4 259.5 0 0 142.4-135.4 148.6-209.2 3.5-40.9-19-107.4-22.3-185.9-3.4-78.6 12.4-169.1 22.3-235.5z m327.3 230.4c-36.8 0.3-70 4.8-91.1 9.6-72.1 32.1-180.7 186.9-180.7 186.9 0 0 184.3 34.8 247.8 5.6 63.5-29.2 123.9-148.1 123.9-148.1l217.2-36.6c0 0-134.7 0-189.9 3.9-39-16.4-85.4-21.6-127.2-21.3z m-242.7 133.5c0 0-143.4 178.7-182.7 234-39.3 55.3-100.1 149.9-100.1 149.9l36 0c0 0 38.8-86.6 72-141.8 33.3-55.2 174.8-242.1 174.8-242.1z m14.6 96.8c-19.7 0.1-37.9 2.4-52.5 8.1-71.9 27.8-154.5 192.5-154.5 192.5 0 0 163.8 19 233.2-8.4 69.4-27.4 142.2-138.2 142.2-138.2 50.4-3.5 142.7-20.7 169-20.8l-5 0-154.6 0c0 0-100.6-33.6-177.8-33.2z" /></svg>