<?xml version="1.0" encoding="utf-8"?>
<!-- Generator: Adobe Illustrator 24.3.0, SVG Export Plug-In . SVG Version: 6.00 Build 0)  -->
<svg version="1.1" id="Calque_1" focusable="false" xmlns="http://www.w3.org/2000/svg" xmlns:xlink="http://www.w3.org/1999/xlink"
	 x="0px" y="0px" viewBox="0 0 1000 1000" style="enable-background:new 0 0 1000 1000;" xml:space="preserve">
<path d="M500,500c124.3,0,225-100.7,225-225S624.2,50,500,50S275,150.7,275,275S375.7,500,500,500z M289,795.3
	c0,23.4,18.8,42.2,42.2,42.2s42.2-18.8,42.2-42.2s-18.8-42.2-42.2-42.2C307.8,753.1,289,771.9,289,795.3z M668.7,557.3v86.1
	c64.2,13,112.5,70,112.5,137.8v73.3c0,13.4-9.5,25-22.7,27.6l-56.6,11.2c-7.6,1.6-14.9-3.3-16.5-11.1l-5.4-27.6
	c-1.6-7.6,3.3-15.1,11.1-16.5l33.9-6.9v-50.1c0-110.4-168.8-114.4-168.8,3.3v46.9l33.9,6.9c7.6,1.6,12.5,9,11.1,16.5l-5.4,27.6
	c-1.6,7.6-9,12.5-16.5,11.1l-54.8-7.4c-13.9-1.9-24.3-13.7-24.3-27.9v-77c0-67.9,48.3-124.6,112.5-137.8V564
	c-3.9,1.2-7.7,1.9-11.6,3.3c-31.6,11.1-65.6,17.2-100.9,17.2s-69.3-6.2-100.9-17.2c-13-4.6-26.2-7.4-39.7-9.1v143.4
	c40.6,12.1,70.3,49.4,70.3,93.9c0,54.3-44.1,98.4-98.4,98.4s-98.4-44.1-98.4-98.4c0-44.5,29.7-81.7,70.3-93.9V560.3
	c-111.9,18.8-197.2,115.1-197.2,232.2v78.8c0,43.4,35.3,78.7,78.8,78.7h630c43.4,0,78.8-35.3,78.8-78.8v-78.8
	C893.7,665.9,793.9,563.5,668.7,557.3L668.7,557.3z"/>
</svg>
