<?xml version="1.0" encoding="utf-8"?>
<!-- Generator: Adobe Illustrator 24.3.0, SVG Export Plug-In . SVG Version: 6.00 Build 0)  -->
<svg version="1.1" id="Calque_1" xmlns="http://www.w3.org/2000/svg" xmlns:xlink="http://www.w3.org/1999/xlink" x="0px" y="0px"
	 viewBox="0 0 1000 1000" style="enable-background:new 0 0 1000 1000;" xml:space="preserve">
<path d="M500,0C331.5,0,191.7,138.7,191.7,310.1c0,147.9,103.9,271.3,240.6,302.5l1.5,113.8H297.9v136.4h137.7l1.8,137.2l136.4-1.8
	L572,862.8h134.9V726.4H570.2l-1.5-114c136.2-31.6,239.6-154.8,239.6-302.3C808.3,138.7,668.5,0,500,0L500,0z M500,138.2
	c97.7,0,173.7,77.1,173.7,171.9s-76,172-173.7,172s-173.7-77.2-173.7-172S402.3,138.2,500,138.2z"/>
</svg>
