<?xml version="1.0" encoding="utf-8"?>
<!-- Generator: Adobe Illustrator 24.3.0, SVG Export Plug-In . SVG Version: 6.00 Build 0)  -->
<svg version="1.1" id="Calque_1" focusable="false" xmlns="http://www.w3.org/2000/svg" xmlns:xlink="http://www.w3.org/1999/xlink"
	 x="0px" y="0px" viewBox="0 0 787.5 1000" style="enable-background:new 0 0 787.5 1000;" xml:space="preserve">
<path d="M393.8,500c124.3,0,225-100.7,225-225S518,50,393.8,50s-225,100.7-225,225S269.5,500,393.8,500z M551.2,556.2h-29.4
	c-39,17.9-82.4,28.1-128.1,28.1s-88.9-10.2-128.1-28.1h-29.4C105.8,556.2,0,662.1,0,792.5v73.1C0,912.2,37.8,950,84.4,950h618.8
	c46.6,0,84.4-37.8,84.4-84.4v-73.1C787.5,662.1,681.7,556.2,551.2,556.2z"/>
</svg>
