<svg height="1000" width="928.6" xmlns="http://www.w3.org/2000/svg"><path d="m428.6 196.4v607.2c0 19.5-16.2 35.7-35.7 35.7-9.5 0-18.5-3.9-25.2-10.6l-185.8-185.8h-146.2c-19.5 0-35.7-16.2-35.7-35.8v-214.2c0-19.6 16.2-35.8 35.7-35.8h146.2l185.8-185.8c6.7-6.7 15.7-10.6 25.2-10.6 19.5 0 35.7 16.2 35.7 35.7z m214.3 303.6c0 55.8-34.1 109.9-86.5 131.1-4.5 2.3-9.5 2.8-14 2.8-19.5 0-35.7-15.6-35.7-35.7 0-42.4 64.7-30.7 64.7-98.2s-64.7-55.8-64.7-98.2c0-20.1 16.2-35.7 35.7-35.7 4.5 0 9.5 0.5 14 2.8 52.4 20.6 86.5 75.3 86.5 131.1z m142.8 0c0 113.3-68.1 218.8-173 262.8-4.4 1.7-9.5 2.8-13.9 2.8-20.1 0-36.3-16.2-36.3-35.7 0-15.6 8.9-26.2 21.8-32.9 15-7.8 29-14.5 42.4-24.6 55.2-40.1 87.6-104.3 87.6-172.4s-32.4-132.3-87.6-172.4c-13.4-10.1-27.4-16.8-42.4-24.6-12.9-6.7-21.8-17.3-21.8-32.9 0-19.5 16.2-35.7 35.7-35.7 5 0 10.1 1.1 14.5 2.8 104.9 44.1 173 149.5 173 262.8z m142.9 0c0 171.3-102.1 326.5-259.5 394-4.5 1.6-9.5 2.8-14.5 2.8-19.6 0-35.7-16.2-35.7-35.8 0-16.1 8.3-25.1 21.7-32.9 7.8-4.4 16.8-7.2 25.1-11.7 15.7-8.4 31.3-17.9 45.8-28.5 91.5-67.5 145.6-174.1 145.6-287.9s-54.1-220.4-145.6-287.9c-14.5-10.6-30.1-20.1-45.8-28.5-8.3-4.5-17.3-7.3-25.1-11.7-13.4-7.8-21.7-16.8-21.7-32.9 0-19.6 16.1-35.8 35.7-35.8 5 0 10 1.2 14.5 2.8 157.4 67.5 259.5 222.7 259.5 394z" /></svg>