<svg height="1000" width="857.1" xmlns="http://www.w3.org/2000/svg"><path d="m541.9 694.2v117.7c0 25.2-7.3 37.4-21.8 37.4-8.4 0-16.8-3.9-25.1-12.2v-168c8.3-8.4 16.7-12.3 25.1-12.3 14.5 0 21.8 12.8 21.8 37.4z m188.6 0.6v25.6h-50.3v-25.6c0-25.2 8.4-38 25.2-38s25.1 12.8 25.1 38z m-539.1-121.7h59.7v-52.5h-174.1v52.5h58.6v317.5h55.8v-317.5z m160.7 317.5h49.7v-275.6h-49.7v210.9c-11.1 15.6-21.7 23.4-31.8 23.4-6.7 0-10.6-3.9-11.7-11.7-0.6-1.7-0.6-7.8-0.6-19.5v-203.1h-49.6v218.1c0 19.6 1.6 32.4 4.4 40.8 4.5 13.9 16.2 20.6 32.4 20.6 17.9 0 36.8-11.1 56.9-34v30.1z m239.4-82.6v-109.9c0-25.7-1.1-44.1-5-55.2-6.1-20.7-20.1-31.3-39.6-31.3-18.4 0-35.7 10.1-51.9 30.1v-121.1h-49.7v370h49.7v-26.8c16.7 20.7 34 30.7 51.9 30.7 19.5 0 33.5-10.6 39.6-30.7 3.9-11.7 5-30.1 5-55.8z m188.6-5.5v-7.3h-50.7c0 20.1-0.6 31.3-1.2 34-2.8 13.4-10 20.1-22.3 20.1-17.3 0-25.7-12.8-25.7-38.5v-48.5h99.9v-57.5c0-29.6-5-50.8-15-64.7-14.5-19-34.1-28.5-59.2-28.5-25.7 0-45.2 9.5-59.7 28.5-10.6 13.9-15.6 35.1-15.6 64.7v96.5c0 29.6 5.6 51.4 16.2 64.8 14.5 18.9 34 28.4 60.2 28.4s46.9-10 60.3-29.5c6.1-9 10.6-19 11.7-30.2 1.1-5 1.1-16.2 1.1-32.3z m-339.3-509.5v-117.2c0-25.7-7.2-38.5-23.9-38.5-16.2 0-24 12.8-24 38.5v117.2c0 25.6 7.8 39 24 39 16.7 0 23.9-13.4 23.9-39z m401.3 419.1c0 64.1-0.6 132.8-14.5 195.3-10.6 44.1-46.3 76.4-89.3 80.9-102.7 11.7-206.5 11.7-309.7 11.7s-207.1 0-309.7-11.7c-43-4.5-79.3-36.8-89.3-80.9-14.5-62.5-14.5-131.2-14.5-195.3v0c0-64.8 0.5-132.9 14.5-195.4 10.6-44 46.3-76.4 89.8-81.4 102.1-11.2 205.9-11.2 309.2-11.2s207 0 309.7 11.2c43 5 79.2 37.4 89.3 81.4 14.5 62.5 14.5 130.6 14.5 195.4z m-556.9-712.1h56.9l-67.5 222.7v151.2h-55.8v-151.2c-5.1-27.4-16.2-66.5-34.1-118.3-12.3-34.6-24.5-69.8-36.3-104.4h59.2l39.6 146.8z m206.4 185.8v97.7c0 29.6-5 51.9-15.6 65.8-13.9 19-33.5 28.5-59.1 28.5-25.2 0-44.7-9.5-58.6-28.5-10.6-14.5-15.7-36.2-15.7-65.8v-97.7c0-29.5 5.1-51.3 15.7-65.3 13.9-18.9 33.4-28.4 58.6-28.4 25.6 0 45.2 9.5 59.1 28.4 10.6 14 15.6 35.8 15.6 65.3z m187-90.4v278.5h-50.8v-30.7c-20.1 23.4-39.1 34.6-57.5 34.6-16.2 0-27.9-6.7-32.9-20.7-2.8-8.3-4.5-21.7-4.5-41.8v-219.9h50.8v204.8c0 11.7 0 18.4 0.6 19.6 1.1 7.8 5 12.2 11.7 12.2 10 0 20.6-7.8 31.8-24v-212.6h50.8z" /></svg>