<svg height="1000" width="642.9" xmlns="http://www.w3.org/2000/svg"><path d="m599.9 482.1c0 4.5-2.2 9.5-5.6 12.9l-260 260c-3.4 3.4-8.4 5.6-12.9 5.6s-9.5-2.2-12.8-5.6l-260.1-260c-3.3-3.4-5.5-8.4-5.5-12.9s2.2-9.4 5.5-12.8l28-27.9c3.3-3.3 7.8-5.6 12.8-5.6 4.4 0 9.5 2.3 12.8 5.6l219.3 219.3 219.3-219.3c3.4-3.3 8.4-5.6 12.9-5.6s9.5 2.3 12.8 5.6l27.9 27.9c3.4 3.4 5.6 8.4 5.6 12.8z m0-214.2c0 4.4-2.2 9.4-5.6 12.8l-260 260c-3.4 3.4-8.4 5.6-12.9 5.6s-9.5-2.2-12.8-5.6l-260.1-260c-3.3-3.4-5.5-8.4-5.5-12.8s2.2-9.5 5.5-12.9l28-27.9c3.3-3.3 7.8-5.6 12.8-5.6 4.4 0 9.5 2.3 12.8 5.6l219.3 219.3 219.3-219.3c3.4-3.3 8.4-5.6 12.9-5.6s9.5 2.3 12.8 5.6l27.9 27.9c3.4 3.4 5.6 8.4 5.6 12.9z" /></svg>