<svg height="1000" width="1000.0" xmlns="http://www.w3.org/2000/svg"><path d="m714.3 500c0-12.3-6.2-24-16.8-30.1l-285.7-178.6c-11.1-7.3-25.1-7.3-36.2-1.1s-18.5 18.4-18.5 31.2v357.2c0 12.8 7.3 25.1 18.5 31.2 5.5 2.8 11.1 4.5 17.3 4.5 6.7 0 13.4-1.7 18.9-5.6l285.7-178.6c10.6-6.1 16.8-17.8 16.8-30.1z m285.7 0c0 79.8 0 164.6-17.9 242.2-11.7 54.7-55.2 94.9-107.7 101-123.8 13.9-249.4 13.9-374.4 13.9s-250.6 0-374.4-13.9c-52.5-6.1-96-46.3-108.3-101-17.3-77.6-17.3-162.4-17.3-242.2s0-164.6 17.9-242.2c12.2-54.7 55.2-94.9 107.7-101 123.8-13.9 249.4-13.9 374.4-13.9s250.6 0 374.4 13.9c52.5 6.1 96 46.3 108.3 101 17.3 77.6 17.3 162.4 17.3 242.2z" /></svg>