<svg height="1000" width="571.4" xmlns="http://www.w3.org/2000/svg"><path d="m332 535.7c0 4.5-2.2 9.5-5.5 12.8l-260.1 260.1c-3.3 3.3-8.4 5.6-12.8 5.6s-9.5-2.3-12.9-5.6l-27.9-27.9c-3.3-3.4-5.5-8.4-5.5-12.8s2.2-9.5 5.5-12.9l219.3-219.3-219.3-219.3c-3.3-3.3-5.5-8.4-5.5-12.8s2.2-9.5 5.5-12.9l27.9-27.9c3.4-3.3 8.4-5.5 12.9-5.5s9.5 2.2 12.8 5.5l260.1 260.1c3.3 3.3 5.5 8.4 5.5 12.8z m214.3 0c0 4.5-2.2 9.5-5.6 12.8l-260 260.1c-3.4 3.3-8.4 5.6-12.8 5.6s-9.5-2.3-12.9-5.6l-27.9-27.9c-3.3-3.4-5.6-8.4-5.6-12.8s2.3-9.5 5.6-12.9l219.3-219.3-219.3-219.3c-3.3-3.3-5.6-8.4-5.6-12.8s2.3-9.5 5.6-12.9l27.9-27.9c3.4-3.3 8.4-5.5 12.9-5.5s9.4 2.2 12.8 5.5l260 260.1c3.4 3.3 5.6 8.4 5.6 12.8z" /></svg>