<svg height="1000" width="1000.0" xmlns="http://www.w3.org/2000/svg"><path d="m1000 500c0 9.5-3.9 18.4-10.6 25.1l-142.9 142.9c-6.7 6.7-15.6 10.6-25.1 10.6-19.5 0-35.7-16.2-35.7-35.7v-71.5h-214.3v214.3h71.5c19.5 0 35.7 16.2 35.7 35.7 0 9.5-3.9 18.4-10.6 25.1l-142.9 142.9c-6.7 6.7-15.6 10.6-25.1 10.6s-18.4-3.9-25.1-10.6l-142.9-142.9c-6.7-6.7-10.6-15.6-10.6-25.1 0-19.5 16.2-35.7 35.7-35.7h71.5v-214.3h-214.3v71.5c0 19.5-16.2 35.7-35.7 35.7-9.5 0-18.4-3.9-25.1-10.6l-142.9-142.9c-6.7-6.7-10.6-15.6-10.6-25.1s3.9-18.4 10.6-25.1l142.9-142.9c6.7-6.7 15.6-10.6 25.1-10.6 19.5 0 35.7 16.2 35.7 35.7v71.5h214.3v-214.3h-71.5c-19.5 0-35.7-16.2-35.7-35.7 0-9.5 3.9-18.4 10.6-25.1l142.9-142.9c6.7-6.7 15.6-10.6 25.1-10.6s18.4 3.9 25.1 10.6l142.9 142.9c6.7 6.7 10.6 15.6 10.6 25.1 0 19.5-16.2 35.7-35.7 35.7h-71.5v214.3h214.3v-71.5c0-19.5 16.2-35.7 35.7-35.7 9.5 0 18.4 3.9 25.1 10.6l142.9 142.9c6.7 6.7 10.6 15.6 10.6 25.1z" /></svg>