<svg height="1000" width="857.1" xmlns="http://www.w3.org/2000/svg"><path d="m473.2 485.5c0-31.8-39-53.6-65.8-37.4-31.8 15.1-31.8 66.4 0.5 79.8 29 17.3 69.8-8.9 65.3-42.4z m44.7-8.9c6.1 49.1-32.4 97.1-81.5 101.5s-95.4-35.7-97.7-85.4c-1.6-36.8 21.2-72.5 54.7-87.6 52.5-23.4 117.2 14.5 124.5 71.5z m95.9-218.2c-24.5 25.1-61.9 28.4-94.8 32.3-59.7 7.8-120.6 7.3-180.8 0-33-4.4-69.2-8.3-94.9-32.3 15.6-22.4 43.5-26.8 68.6-30.7 75.4-13.4 152.4-12.9 227.7-0.6 26.8 3.9 56.9 8.4 74.2 31.3z m23.5 416.3c0-13.4 13.9-36.3-5-41.9-120 79.3-287.4 79.3-408 0l-6.7 3.4-2.8 6.7c6.7 39 12.9 78.6 22.9 117.1 22.9 39.7 72 53.1 113.9 60.3 79.2 14.5 166.8 10.1 238.8-29.6 41.9-23.4 35.2-76.4 46.9-116z m72.5-386.8c2.3-13.3 5-29.5-4.4-41.8-21.2-26.8-54.7-39.6-86.5-49.1-88.2-25.7-181.4-29-271.8-20.1-43 3.9-85.9 11.2-126.1 25.7-30.2 11.7-70.9 27.3-75.9 63 10 83.7 26.2 165.8 40.2 248.9 4.4 23.4 4.4 51.3 25.6 68.1 45.2 34.6 102.7 49.7 158.5 55.8 82.6 8.9 170.2 2.8 245.6-35.2 21.2-11.1 45.7-25.6 50.2-51.3 15.6-87.6 30.7-175.2 44.6-264z m147.3-55.8v535.8c0 88.7-71.9 160.7-160.7 160.7h-535.7c-88.7 0-160.7-72-160.7-160.7v-535.8c0-88.7 72-160.7 160.7-160.7h535.7c88.8 0 160.7 72 160.7 160.7z" /></svg>