<svg height="1000" width="857.1" xmlns="http://www.w3.org/2000/svg"><path d="m857.1 750v71.4c0 19.6-16.1 35.7-35.7 35.7h-785.7c-19.5 0-35.7-16.1-35.7-35.7v-71.4c0-19.5 16.2-35.7 35.7-35.7h785.7c19.6 0 35.7 16.2 35.7 35.7z m0-285.7v71.4c0 19.5-16.1 35.7-35.7 35.7h-785.7c-19.5 0-35.7-16.2-35.7-35.7v-71.4c0-19.5 16.2-35.7 35.7-35.7h785.7c19.6 0 35.7 16.2 35.7 35.7z m0-285.7v71.4c0 19.5-16.1 35.7-35.7 35.7h-785.7c-19.5 0-35.7-16.2-35.7-35.7v-71.4c0-19.6 16.2-35.7 35.7-35.7h785.7c19.6 0 35.7 16.1 35.7 35.7z" /></svg>