<svg height="1000" width="928.6" xmlns="http://www.w3.org/2000/svg"><path d="m245 709.3l-142.9 142.8c-3.9 3.4-8.3 5-12.8 5s-8.9-1.6-12.8-5c-6.7-7.2-6.7-18.4 0-25.6l142.8-142.9c7.3-6.7 18.4-6.7 25.7 0 6.7 7.2 6.7 18.4 0 25.7z m94.3 22.8v178.6c0 10.1-7.8 17.9-17.9 17.9s-17.8-7.8-17.8-17.9v-178.6c0-10 7.8-17.8 17.8-17.8s17.9 7.8 17.9 17.8z m-125-125c0 10.1-7.8 17.9-17.9 17.9h-178.5c-10.1 0-17.9-7.8-17.9-17.9s7.8-17.8 17.9-17.8h178.5c10.1 0 17.9 7.8 17.9 17.8z m705.3 71.5c0 42.9-16.7 83.1-47.4 113.3l-82 81.4c-30.2 30.2-70.3 46.3-113.3 46.3s-83.7-16.7-113.8-47.4l-186.4-186.9c-9.5-9.5-16.8-20.1-23.5-31.3l133.4-10 152.4 152.9c20 20.1 55.8 20.6 75.8 0.5l82.1-81.4c10-10.1 15.6-23.5 15.6-37.4 0-14.5-5.6-27.9-15.6-38l-152.9-153.4 10-133.4c11.2 6.7 21.8 13.9 31.3 23.4l187.5 187.5c30.1 30.7 46.8 70.9 46.8 113.9z m-344.3-404l-133.3 10-152.4-152.9c-10-10-23.4-15.6-37.9-15.6s-27.9 5.6-38 15l-82 81.5c-10 10.1-15.6 23.4-15.6 37.4 0 14.5 5.6 27.9 15.6 37.9l152.9 152.9-10 134c-11.2-6.7-21.8-14-31.3-23.5l-187.5-187.5c-30.1-30.7-46.9-70.8-46.9-113.8s16.8-83.1 47.5-113.3l82-81.5c30.1-30.1 70.3-46.3 113.3-46.3s83.7 16.8 113.8 47.5l186.4 186.9c9.5 9.5 16.7 20.1 23.4 31.3z m353.3 46.8c0 10.1-7.8 17.9-17.9 17.9h-178.6c-10 0-17.8-7.8-17.8-17.9s7.8-17.8 17.8-17.8h178.6c10.1 0 17.9 7.8 17.9 17.8z m-303.6-303.5v178.5c0 10.1-7.8 17.9-17.9 17.9s-17.8-7.8-17.8-17.9v-178.5c0-10.1 7.8-17.9 17.8-17.9s17.9 7.8 17.9 17.9z m227.1 84.2l-142.8 142.9c-3.9 3.3-8.4 5-12.9 5s-8.9-1.7-12.8-5c-6.7-7.3-6.7-18.4 0-25.7l142.9-142.8c7.2-6.7 18.4-6.7 25.6 0 6.7 7.2 6.7 18.4 0 25.6z" /></svg>