<svg height="1000" width="928.6" xmlns="http://www.w3.org/2000/svg"><path d="m785.7 519v177.4c0 88.8-72 160.7-160.7 160.7h-464.3c-88.7 0-160.7-71.9-160.7-160.7v-464.3c0-88.7 72-160.7 160.7-160.7h464.3c22.3 0 44.6 4.5 65.3 14 5 2.2 8.9 7.2 10 12.8 1.2 6.2-0.5 11.7-5 16.2l-27.3 27.3c-3.4 3.4-8.4 5.6-12.9 5.6-1.6 0-3.3-0.5-5-1.1-8.4-2.2-16.7-3.3-25.1-3.3h-464.3c-49.1 0-89.3 40.1-89.3 89.2v464.3c0 49.1 40.2 89.3 89.3 89.3h464.3c49.1 0 89.3-40.2 89.3-89.3v-141.7c0-4.5 1.7-8.9 5-12.3l35.7-35.7c3.9-3.9 8.4-5.6 12.9-5.6 2.2 0 4.4 0.6 6.7 1.7 6.7 2.8 11.1 8.9 11.1 16.2z m128.9-272.9l-454.2 454.2c-17.9 17.9-45.8 17.9-63.6 0l-240-239.9c-17.8-17.9-17.8-45.8 0-63.6l61.4-61.4c17.8-17.9 45.8-17.9 63.6 0l146.8 146.7 361-361c17.9-17.9 45.8-17.9 63.6 0l61.4 61.4c17.9 17.8 17.9 45.7 0 63.6z" /></svg>