<svg height="1000" width="785.7" xmlns="http://www.w3.org/2000/svg"><path d="m357.1 35.7v357.2c0 45.2-29 85.9-71.4 101v434.7c0 39-32.4 71.4-71.4 71.4h-71.4c-39.1 0-71.5-32.4-71.5-71.4v-434.7c-42.4-15.1-71.4-55.8-71.4-101v-357.2c0-19.5 16.2-35.7 35.7-35.7s35.7 16.2 35.7 35.7v232.2c0 19.5 16.2 35.7 35.7 35.7s35.8-16.2 35.8-35.7v-232.2c0-19.5 16.1-35.7 35.7-35.7s35.7 16.2 35.7 35.7v232.2c0 19.5 16.2 35.7 35.7 35.7s35.7-16.2 35.7-35.7v-232.2c0-19.5 16.2-35.7 35.7-35.7s35.7 16.2 35.7 35.7z m428.6 0v892.9c0 39-32.4 71.4-71.4 71.4h-71.4c-39.1 0-71.5-32.4-71.5-71.4v-285.7h-125c-9.5 0-17.8-8.4-17.8-17.9v-446.4c0-98.2 80.3-178.6 178.5-178.6h142.9c19.5 0 35.7 16.2 35.7 35.7z" /></svg>