<svg height="1000" width="1000.0" xmlns="http://www.w3.org/2000/svg"><path d="m500 214.3c-232.1 0-428.6 130.6-428.6 285.7 0 83.1 55.8 162.4 152.4 217.1l48.5 27.9-15 53.5c-10.6 39.7-24.6 70.4-39.1 96 56.4-23.4 107.7-55.2 153.5-95.4l23.9-21.2 31.9 3.4c24 2.7 48.5 4.4 72.5 4.4 232.1 0 428.6-130.6 428.6-285.7s-196.5-285.7-428.6-285.7z m500 285.7c0 197.5-223.8 357.1-500 357.1-27.3 0-54.7-1.6-80.9-4.4-73.1 64.7-160.2 110.5-256.7 135-20.1 5.6-41.9 9.5-63.6 12.3h-2.8c-11.2 0-21.2-8.9-24-21.2v-0.6c-2.8-13.9 6.7-22.3 15.1-32.3 35.1-39.6 75.3-73.1 101.5-166.3-114.9-65.3-188.6-166.3-188.6-279.6 0-197.5 223.8-357.1 500-357.1v0c276.2 0 500 159.6 500 357.1z" /></svg>