<svg height="1000" width="857.1" xmlns="http://www.w3.org/2000/svg"><path d="m428.6 535.7v250c0 19.5-16.2 35.7-35.7 35.7-9.5 0-18.5-3.9-25.2-10.6l-80.3-80.3-185.3 185.2c-3.3 3.4-8.4 5.6-12.8 5.6s-9.5-2.2-12.8-5.6l-63.7-63.6c-3.3-3.3-5.5-8.3-5.5-12.8s2.2-9.5 5.5-12.8l185.3-185.3-80.4-80.4c-6.7-6.7-10.6-15.6-10.6-25.1 0-19.5 16.2-35.7 35.8-35.7h250c19.5 0 35.7 16.2 35.7 35.7z m421.3-375c0 4.5-2.2 9.5-5.6 12.8l-185.3 185.3 80.4 80.4c6.7 6.7 10.6 15.6 10.6 25.1 0 19.5-16.2 35.7-35.7 35.7h-250c-19.5 0-35.7-16.2-35.7-35.7v-250c0-19.5 16.2-35.7 35.7-35.7 9.5 0 18.4 3.9 25.1 10.6l80.4 80.3 185.2-185.2c3.4-3.4 8.4-5.6 12.9-5.6s9.4 2.2 12.8 5.6l63.6 63.6c3.4 3.3 5.6 8.4 5.6 12.8z" /></svg>