<svg height="1000" width="785.7" xmlns="http://www.w3.org/2000/svg"><path d="m214.3 410.7v107.2c0 29.5-24 53.5-53.6 53.5h-107.1c-29.6 0-53.6-24-53.6-53.5v-107.2c0-29.6 24-53.6 53.6-53.6h107.1c29.6 0 53.6 24 53.6 53.6z m285.7 0v107.2c0 29.5-24 53.5-53.6 53.5h-107.1c-29.6 0-53.6-24-53.6-53.5v-107.2c0-29.6 24-53.6 53.6-53.6h107.1c29.6 0 53.6 24 53.6 53.6z m285.7 0v107.2c0 29.5-24 53.5-53.6 53.5h-107.1c-29.6 0-53.6-24-53.6-53.5v-107.2c0-29.6 24-53.6 53.6-53.6h107.1c29.6 0 53.6 24 53.6 53.6z" /></svg>