<svg height="1000" width="1000.0" xmlns="http://www.w3.org/2000/svg"><path d="m428.6 928.6h500v-357.2h-232.2c-29.5 0-53.5-24-53.5-53.5v-232.2h-214.3v642.9z m142.8-803.6v-35.7c0-9.5-8.3-17.9-17.8-17.9h-392.9c-9.5 0-17.8 8.4-17.8 17.9v35.7c0 9.5 8.3 17.9 17.8 17.9h392.9c9.5 0 17.8-8.4 17.8-17.9z m142.9 375h166.8l-166.8-166.9v166.9z m285.7 71.4v375c0 29.6-24 53.6-53.6 53.6h-535.7c-29.6 0-53.6-24-53.6-53.6v-89.3h-303.5c-29.6 0-53.6-24-53.6-53.5v-750c0-29.6 24-53.6 53.6-53.6h607.1c29.6 0 53.6 24 53.6 53.6v183c7.2 4.5 13.9 9.5 20.1 15.6l227.7 227.7c21.2 21.2 37.9 62 37.9 91.5z" /></svg>