<svg height="1000" width="857.1" xmlns="http://www.w3.org/2000/svg"><path d="m428.6 71.4c236.6 0 428.5 192 428.5 428.6s-191.9 428.6-428.5 428.6-428.6-192-428.6-428.6 192-428.6 428.6-428.6z m71.4 695.9v-106c0-10.1-7.8-18.4-17.3-18.4h-107.1c-10.1 0-18.5 8.3-18.5 18.4v106c0 10 8.4 18.4 18.5 18.4h107.1c9.5 0 17.3-8.4 17.3-18.4z m-1.1-192l10-346.5c0-3.9-1.6-7.8-5.6-10-3.3-2.8-8.3-4.5-13.3-4.5h-122.8c-5 0-10.1 1.7-13.4 4.5-3.9 2.2-5.6 6.1-5.6 10l9.5 346.5c0 7.8 8.4 14 19 14h103.2c10.1 0 18.4-6.2 19-14z" /></svg>