<svg height="1000" width="1000.0" xmlns="http://www.w3.org/2000/svg"><path d="m946.4 214.3c29.6 0 53.6 24 53.6 53.6v678.5c0 29.6-24 53.6-53.6 53.6h-535.7c-29.6 0-53.6-24-53.6-53.6v-160.7h-303.5c-29.6 0-53.6-24-53.6-53.6v-375c0-29.5 17.3-70.8 37.9-91.5l227.7-227.7c20.7-20.6 62-37.9 91.5-37.9h232.2c29.6 0 53.6 24 53.6 53.6v183c21.7-12.8 49.6-22.3 71.4-22.3h232.1z m-303.5 118.8l-166.9 166.9h166.9v-166.9z m-357.2-214.2l-166.8 166.8h166.8v-166.8z m109.4 361l176.3-176.3v-232.2h-214.3v232.2c0 29.5-24 53.5-53.5 53.5h-232.2v357.2h285.7v-142.9c0-29.5 17.3-70.8 38-91.5z m533.5 448.7v-642.9h-214.3v232.2c0 29.5-24 53.5-53.6 53.5h-232.1v357.2h500z" /></svg>