<svg height="1000" width="1000.0" xmlns="http://www.w3.org/2000/svg"><path d="m309.7 745l43.5-78.7c-64.7-46.9-103.2-122.2-103.2-202 0-44.1 11.7-87.6 34-125.6-87 44.7-159.6 115-212.6 197 58.1 89.9 140.1 165.2 238.3 209.3z m217.1-423.6c0-14.5-12.3-26.8-26.8-26.8-93.2 0-169.6 76.5-169.6 169.7 0 14.5 12.2 26.8 26.7 26.8s26.8-12.3 26.8-26.8c0-64.2 52.5-116.1 116.1-116.1 14.5 0 26.8-12.3 26.8-26.8z m202.6-106.6c0 1.2 0 4-0.6 5.1-117.8 210.3-234.4 421.8-352.1 632.2l-27.4 49.7c-3.3 5.6-9.5 8.9-15.6 8.9-10 0-63.1-32.4-74.8-39-5.6-3.4-8.9-9-8.9-15.7 0-8.9 19-39 24.6-48.5-108.3-49.1-199.3-132.8-263.4-233.3-7.3-11.1-11.2-24.5-11.2-38.5 0-13.4 3.9-27.3 11.2-38.5 110.5-169.6 282.9-282.9 488.8-282.9 33.5 0 67.5 3.3 100.4 9.5l30.2-54.2c3.3-5.5 8.9-8.9 15.6-8.9 10.1 0 62.5 32.4 74.2 39.1 5.6 3.3 9 8.9 9 15z m20.6 249.5c0 103.8-64.2 196.4-160.7 233.2l156.2-280.1c2.8 15.6 4.5 31.3 4.5 46.9z m250 71.4c0 14.5-3.9 26.2-11.2 38.5-17.3 28.5-39 55.8-60.8 80.9-109.4 125.6-260 202-428 202l41.3-73.6c162.4-14 300.2-112.7 387.3-247.8-41.3-64.2-94.3-120.5-157.4-164l35.2-62.5c69.2 46.3 138.9 116 182.4 188 7.3 12.3 11.2 24 11.2 38.5z" /></svg>