<svg height="1000" width="857.1" xmlns="http://www.w3.org/2000/svg"><path d="m462.6 679.7c0 61.4-57.5 83.1-110.5 83.1-57.5 0-131.7-25.1-131.7-94.3 0-73.1 85.4-91.5 143.4-91.5 5.6 0 11.2 0 17.3 1.1 34.1 24.6 81.5 53.6 81.5 101.6z m-41.3-304.1c0 42.4-24 77.5-69.7 77.5-63.7 0-93.8-83.7-93.8-136.7 0-41.8 21.8-82 69.2-82 63.6 0 94.3 88.7 94.3 141.2z m59.2-143.5l49.1-35.7h-147.9c-92.1 0-189.7 56.4-189.7 158 0 70.3 55.2 120.5 124.4 120.5 7.8 0 16.2-0.6 24-1.7-4.5 10.1-7.3 19.5-7.3 30.1 0 21.3 9.5 36.3 22.4 52.5-48 3.4-102.2 9.5-143.4 35.2-33 20.6-58.1 54.1-58.1 93.7 0 83.2 94.3 110.5 161.8 110.5 86 0 197-43.5 197-145.6 0-98.8-109.3-116.7-109.3-163 0-45.2 83.7-56.4 83.7-148.4 0-49.1-21.2-73.7-53-106.1h46.3z m162.4 250h71.4v-35.7h-71.4v-71.4h-35.8v71.4h-71.4v35.7h71.4v89.3h35.8v-89.3z m214.2-250v535.8c0 88.7-71.9 160.7-160.7 160.7h-535.7c-88.7 0-160.7-72-160.7-160.7v-535.8c0-88.7 72-160.7 160.7-160.7h535.7c88.8 0 160.7 72 160.7 160.7z" /></svg>