<svg height="1000" width="1071.4" xmlns="http://www.w3.org/2000/svg"><path d="m993.9 519.5c0-15.6-17.3-19.5-29.6-19.5h-607.2c-29.5 0-68.6 18.4-87.6 41.3l-164 202.6c-5.1 6.7-10.1 13.9-10.1 22.3 0 15.6 17.3 19.5 29.6 19.5h607.1c29.6 0 68.7-18.4 87.7-41.8l164-202.6c5-6.1 10.1-13.4 10.1-21.8z m-636.8-90.9h428.6v-89.3c0-29.6-24-53.6-53.6-53.6h-321.4c-29.6 0-53.6-24-53.6-53.6v-35.7c0-29.5-24-53.5-53.5-53.5h-178.6c-29.6 0-53.6 24-53.6 53.5v476l142.9-175.7c32.4-39.7 92.1-68.1 142.8-68.1z m708.2 90.9c0 24.6-10.6 48-25.7 67l-164.6 202.6c-31.8 39-92.6 68-142.9 68h-607.1c-68.6 0-125-56.3-125-125v-535.7c0-68.6 56.4-125 125-125h178.6c68.6 0 125 56.4 125 125v17.9h303.5c68.7 0 125 56.3 125 125v89.3h107.2c37.9 0 75.9 17.3 92.6 53 5.6 11.7 8.4 24.5 8.4 37.9z" /></svg>