<svg height="1000" width="1000.0" xmlns="http://www.w3.org/2000/svg"><path d="m928.6 332.6c0-156.8-106.1-189.7-195.3-189.7-83.2 0-176.9 89.8-206 124.4-13.3 16.2-41.3 16.2-54.6 0-29.1-34.6-122.8-124.4-206-124.4-89.2 0-195.3 32.9-195.3 189.7 0 102.1 103.3 197 104.4 198.1l324.2 312.5 323.7-311.9c1.6-1.7 104.9-96.6 104.9-198.7z m71.4 0c0 133.9-122.8 246.1-127.8 251.1l-347.6 334.8c-6.7 6.7-15.7 10.1-24.6 10.1s-17.9-3.4-24.6-10.1l-348.2-335.9c-4.4-3.9-127.2-116.1-127.2-250 0-163.5 99.9-261.2 266.7-261.2 97.7 0 189.2 77 233.3 120.6 44.1-43.6 135.6-120.6 233.3-120.6 166.8 0 266.7 97.7 266.7 261.2z" /></svg>