<svg height="1000" width="857.1" xmlns="http://www.w3.org/2000/svg"><path d="m580.4 678.6c0 24.5-20.1 44.6-44.7 44.6s-44.6-20.1-44.6-44.6 20.1-44.7 44.6-44.7 44.7 20.1 44.7 44.7z m142.8 0c0 24.5-20.1 44.6-44.6 44.6s-44.7-20.1-44.7-44.6 20.1-44.7 44.7-44.7 44.6 20.1 44.6 44.7z m62.5 89.3v-178.6c0-9.5-8.4-17.9-17.8-17.9h-678.6c-9.5 0-17.9 8.4-17.9 17.9v178.6c0 9.4 8.4 17.8 17.9 17.8h678.6c9.4 0 17.8-8.4 17.8-17.8z m-686.4-267.9h658.5l-87.6-269c-2.8-9.5-13.4-16.7-23.4-16.7h-436.4c-10.1 0-20.7 7.2-23.5 16.7z m757.8 89.3v178.6c0 49.1-40.1 89.2-89.2 89.2h-678.6c-49.1 0-89.3-40.1-89.3-89.2v-178.6c0-15.1 4.5-27.9 8.9-41.9l110-338.1c12.8-39.1 50.2-66.4 91.5-66.4h436.4c41.3 0 78.6 27.3 91.5 66.4l109.9 338.1c4.5 14 8.9 26.8 8.9 41.9z" /></svg>