<svg height="1000" width="857.1" xmlns="http://www.w3.org/2000/svg"><path d="m714.3 750v-500c0-19.5-16.2-35.7-35.7-35.7h-71.5c-19.5 0-35.7 16.2-35.7 35.7v178.6h-285.7v-178.6c0-19.5-16.2-35.7-35.7-35.7h-71.4c-19.6 0-35.7 16.2-35.7 35.7v500c0 19.5 16.1 35.7 35.7 35.7h71.4c19.5 0 35.7-16.2 35.7-35.7v-178.6h285.7v178.6c0 19.5 16.2 35.7 35.7 35.7h71.5c19.5 0 35.7-16.2 35.7-35.7z m142.8-517.9v535.8c0 88.7-71.9 160.7-160.7 160.7h-535.7c-88.7 0-160.7-72-160.7-160.7v-535.8c0-88.7 72-160.7 160.7-160.7h535.7c88.8 0 160.7 72 160.7 160.7z" /></svg>