<svg height="1000" width="785.7" xmlns="http://www.w3.org/2000/svg"><path d="m214.3 732.1v35.8c0 9.4-8.4 17.8-17.9 17.8h-35.7c-9.5 0-17.8-8.4-17.8-17.8v-35.8c0-9.4 8.3-17.8 17.8-17.8h35.7c9.5 0 17.9 8.4 17.9 17.8z m0-142.8v35.7c0 9.5-8.4 17.9-17.9 17.9h-35.7c-9.5 0-17.8-8.4-17.8-17.9v-35.7c0-9.5 8.3-17.9 17.8-17.9h35.7c9.5 0 17.9 8.4 17.9 17.9z m142.8 0v35.7c0 9.5-8.3 17.9-17.8 17.9h-35.7c-9.5 0-17.9-8.4-17.9-17.9v-35.7c0-9.5 8.4-17.9 17.9-17.9h35.7c9.5 0 17.8 8.4 17.8 17.9z m-142.8-142.9v35.7c0 9.5-8.4 17.9-17.9 17.9h-35.7c-9.5 0-17.8-8.4-17.8-17.9v-35.7c0-9.5 8.3-17.8 17.8-17.8h35.7c9.5 0 17.9 8.3 17.9 17.8z m428.6 285.7v35.8c0 9.4-8.4 17.8-17.9 17.8h-35.7c-9.5 0-17.9-8.4-17.9-17.8v-35.8c0-9.4 8.4-17.8 17.9-17.8h35.7c9.5 0 17.9 8.4 17.9 17.8z m-142.9-142.8v35.7c0 9.5-8.4 17.9-17.9 17.9h-35.7c-9.5 0-17.8-8.4-17.8-17.9v-35.7c0-9.5 8.3-17.9 17.8-17.9h35.7c9.5 0 17.9 8.4 17.9 17.9z m-142.9-142.9v35.7c0 9.5-8.3 17.9-17.8 17.9h-35.7c-9.5 0-17.9-8.4-17.9-17.9v-35.7c0-9.5 8.4-17.8 17.9-17.8h35.7c9.5 0 17.8 8.3 17.8 17.8z m285.8 142.9v35.7c0 9.5-8.4 17.9-17.9 17.9h-35.7c-9.5 0-17.9-8.4-17.9-17.9v-35.7c0-9.5 8.4-17.9 17.9-17.9h35.7c9.5 0 17.9 8.4 17.9 17.9z m-142.9-142.9v35.7c0 9.5-8.4 17.9-17.9 17.9h-35.7c-9.5 0-17.8-8.4-17.8-17.9v-35.7c0-9.5 8.3-17.8 17.8-17.8h35.7c9.5 0 17.9 8.3 17.9 17.8z m142.9 0v35.7c0 9.5-8.4 17.9-17.9 17.9h-35.7c-9.5 0-17.9-8.4-17.9-17.9v-35.7c0-9.5 8.4-17.8 17.9-17.8h35.7c9.5 0 17.9 8.3 17.9 17.8z m-142.9 482.2h214.3v-642.9h-142.9v17.9c0 29.5-24 53.5-53.5 53.5h-250c-29.6 0-53.6-24-53.6-53.5v-17.9h-142.9v642.9h214.3v-125c0-9.5 8.4-17.9 17.9-17.9h178.5c9.5 0 17.9 8.4 17.9 17.9v125z m0-660.7v-178.6c0-9.5-8.4-17.9-17.9-17.9h-35.7c-9.5 0-17.8 8.4-17.8 17.9v53.6h-71.5v-53.6c0-9.5-8.3-17.9-17.8-17.9h-35.7c-9.5 0-17.9 8.4-17.9 17.9v178.6c0 9.4 8.4 17.8 17.9 17.8h35.7c9.5 0 17.8-8.4 17.8-17.8v-53.6h71.5v53.6c0 9.4 8.3 17.8 17.8 17.8h35.7c9.5 0 17.9-8.4 17.9-17.8z m285.7-17.9v714.3c0 19.5-16.2 35.7-35.7 35.7h-714.3c-19.5 0-35.7-16.2-35.7-35.7v-714.3c0-19.5 16.2-35.7 35.7-35.7h178.6v-160.7c0-29.6 24-53.6 53.6-53.6h250c29.5 0 53.5 24 53.5 53.6v160.7h178.6c19.5 0 35.7 16.2 35.7 35.7z" /></svg>