<svg height="1000" width="857.1" xmlns="http://www.w3.org/2000/svg"><path d="m785.7 535.7c0-111-71.4-205.9-71.4-303.6v-17.8h-357.2v17.8c0 59.2-50.2 98.8-90.9 134.5-25.7 22.9-51.4 44.1-80.9 62.5-12.3 7.8-25.1 14.5-38 21.2s-75.9 34.6-75.9 49.7c0 47.4 17.9 89.3 71.5 89.3 71.4 0 107.7-53.6 142.8-53.6v321.4c0 37.4 33.5 71.5 71.4 71.5 38.5 0 71.5-33 71.5-71.5v-184.7c14.5 11.2 39 19.6 57.4 19.6 26.3 0 48.6-10.6 66.5-29.6 11.7 6.7 25.1 10 38.5 10 25.6 0 57.4-12.8 70.3-36.2 10 1.6 20.6 2.2 31.2 2.2 65.9 0 93.2-40.7 93.2-102.7z m-71.4-428.6c0-19.5-16.2-35.7-35.7-35.7s-35.7 16.2-35.7 35.7 16.1 35.8 35.7 35.8 35.7-16.2 35.7-35.8z m142.8 426.4c0 102.7-58 177.4-164.6 176.9l-2.8-0.6c-27.9 22.3-63.6 34.1-99.3 34.1-7.8 0-16.2-0.6-24-1.7-19 10.6-44.6 18.4-66.4 20.6v94.3c0 78.2-65.3 142.9-143.4 142.9-77 0-142.3-65.8-142.3-142.9v-208.7c-21.8 9-48 12.3-71.4 12.3-93.8 0-142.9-72-142.9-160.7 0-74.8 95.4-98.8 147.3-131.1 26.2-16.8 49.1-35.8 72-55.8 18.4-16.2 66.4-54.2 66.4-81v-160.7c0-39.6 31.8-71.4 71.4-71.4h357.2c39.6 0 71.4 31.8 71.4 71.4v160.7c0 35.2 20.7 90.4 32.9 124.5 20.7 56.9 38.5 115.5 38.5 176.9z" /></svg>