<svg height="1000" width="571.4" xmlns="http://www.w3.org/2000/svg"><path d="m410.7 321.4c0 9.5-8.4 17.9-17.8 17.9s-17.9-8.4-17.9-17.9c0-38.5-59.7-53.5-89.3-53.5-9.5 0-17.8-8.4-17.8-17.9s8.3-17.9 17.8-17.9c51.9 0 125 27.4 125 89.3z m89.3 0c0-111.6-113.3-178.5-214.3-178.5s-214.3 66.9-214.3 178.5c0 35.7 14.5 73.1 38 100.5 10.6 12.3 22.9 24 34 36.8 39.6 47.4 73.1 103.2 78.7 166.3h127.2c5.6-63.1 39.1-118.9 78.7-166.3 11.2-12.8 23.5-24.5 34.1-36.8 23.4-27.4 37.9-64.8 37.9-100.5z m71.4 0c0 57.5-18.9 107.2-57.4 149.6s-89.3 102.1-93.8 161.8c16.2 9.5 26.2 27.4 26.2 45.8 0 13.4-5 26.2-13.9 35.7 8.9 9.5 13.9 22.3 13.9 35.7 0 18.4-9.5 35.2-25.1 45.2 4.5 7.8 7.3 17.3 7.3 26.2 0 36.3-28.5 53.6-60.9 53.6-14.5 32.4-46.8 53.6-82 53.6s-67.5-21.2-82-53.6c-32.4 0-60.8-17.3-60.8-53.6 0-8.9 2.7-18.4 7.2-26.2-15.6-10-25.1-26.8-25.1-45.2 0-13.4 5-26.2 14-35.7-9-9.5-14-22.3-14-35.7 0-18.4 10-36.3 26.2-45.8-4.4-59.7-55.2-119.4-93.7-161.8s-57.5-92.1-57.5-149.6c0-151.8 144.5-250 285.7-250s285.7 98.2 285.7 250z" /></svg>