<svg height="1000" width="1071.4" xmlns="http://www.w3.org/2000/svg"><path d="m214.3 651.8v53.6c0 5-3.9 8.9-8.9 8.9h-53.6c-5 0-8.9-3.9-8.9-8.9v-53.6c0-5 3.9-8.9 8.9-8.9h53.6c5 0 8.9 3.9 8.9 8.9z m71.4-142.9v53.6c0 5-3.9 8.9-8.9 8.9h-125c-5 0-8.9-3.9-8.9-8.9v-53.6c0-5 3.9-8.9 8.9-8.9h125c5 0 8.9 3.9 8.9 8.9z m-71.4-142.8v53.5c0 5.1-3.9 9-8.9 9h-53.6c-5 0-8.9-3.9-8.9-9v-53.5c0-5.1 3.9-9 8.9-9h53.6c5 0 8.9 3.9 8.9 9z m571.4 285.7v53.6c0 5-3.9 8.9-8.9 8.9h-482.2c-5 0-8.9-3.9-8.9-8.9v-53.6c0-5 3.9-8.9 8.9-8.9h482.2c5 0 8.9 3.9 8.9 8.9z m-357.1-142.9v53.6c0 5-3.9 8.9-9 8.9h-53.5c-5.1 0-9-3.9-9-8.9v-53.6c0-5 3.9-8.9 9-8.9h53.5c5.1 0 9 3.9 9 8.9z m-71.5-142.8v53.5c0 5.1-3.9 9-8.9 9h-53.6c-5 0-8.9-3.9-8.9-9v-53.5c0-5.1 3.9-9 8.9-9h53.6c5 0 8.9 3.9 8.9 9z m214.3 142.8v53.6c0 5-3.9 8.9-8.9 8.9h-53.6c-5 0-8.9-3.9-8.9-8.9v-53.6c0-5 3.9-8.9 8.9-8.9h53.6c5 0 8.9 3.9 8.9 8.9z m-71.4-142.8v53.5c0 5.1-3.9 9-8.9 9h-53.6c-5 0-8.9-3.9-8.9-9v-53.5c0-5.1 3.9-9 8.9-9h53.6c5 0 8.9 3.9 8.9 9z m214.3 142.8v53.6c0 5-3.9 8.9-8.9 8.9h-53.6c-5 0-8.9-3.9-8.9-8.9v-53.6c0-5 3.9-8.9 8.9-8.9h53.6c5 0 8.9 3.9 8.9 8.9z m214.3 142.9v53.6c0 5-3.9 8.9-9 8.9h-53.5c-5.1 0-9-3.9-9-8.9v-53.6c0-5 3.9-8.9 9-8.9h53.5c5.1 0 9 3.9 9 8.9z m-285.7-285.7v53.5c0 5.1-3.9 9-9 9h-53.5c-5.1 0-9-3.9-9-9v-53.5c0-5.1 3.9-9 9-9h53.5c5.1 0 9 3.9 9 9z m142.8 0v53.5c0 5.1-3.9 9-8.9 9h-53.6c-5 0-8.9-3.9-8.9-9v-53.5c0-5.1 3.9-9 8.9-9h53.6c5 0 8.9 3.9 8.9 9z m142.9 0v196.4c0 5-3.9 8.9-9 8.9h-125c-5 0-8.9-3.9-8.9-8.9v-53.6c0-5 3.9-8.9 8.9-8.9h62.5v-133.9c0-5.1 3.9-9 9-9h53.5c5.1 0 9 3.9 9 9z m71.4 419.6v-500h-928.6v500h928.6z m71.4-500v500c0 39.6-31.8 71.4-71.4 71.4h-928.6c-39.6 0-71.4-31.8-71.4-71.4v-500c0-39.6 31.8-71.4 71.4-71.4h928.6c39.6 0 71.4 31.8 71.4 71.4z" /></svg>