<svg height="1000" width="785.7" xmlns="http://www.w3.org/2000/svg"><path d="m151.2 527.3l-56.3 56.4c-15.1-36.8-23.5-77-23.5-119.4v-71.4c0-19.6 16.2-35.8 35.7-35.8s35.8 16.2 35.8 35.8v71.4c0 21.7 3.3 43 8.3 63z m621.7-335.9l-201.5 201.5v71.4c0 98.2-80.3 178.6-178.5 178.6-21.2 0-41.9-3.9-60.9-10.6l-53.5 53.5c34 17.9 73.1 28.5 114.4 28.5 137.8 0 250-112.2 250-250v-71.4c0-19.6 16.1-35.8 35.7-35.8s35.7 16.2 35.7 35.8v71.4c0 165.2-125 301.3-285.7 319.2v73.6h142.8c19.6 0 35.7 16.2 35.7 35.8s-16.1 35.7-35.7 35.7h-357.1c-19.5 0-35.7-16.2-35.7-35.7s16.2-35.8 35.7-35.8h142.8v-73.6c-47.4-5-92-21.2-131.1-45.2l-141.7 141.7c-7.3 7.3-18.5 7.3-25.7 0l-45.8-45.7c-7.2-7.3-7.2-18.5 0-25.7l688.7-688.6c7.2-7.3 18.4-7.3 25.6 0l45.8 45.7c7.2 7.3 7.2 18.5 0 25.7z m-212.1-73.7l-346.5 346.6v-285.7c0-98.2 80.3-178.6 178.6-178.6 77 0 142.8 49.7 167.9 117.7z" /></svg>