<svg height="1000" width="857.1" xmlns="http://www.w3.org/2000/svg"><path d="m642.9 607.1c0 19.6-16.2 35.8-35.8 35.8h-357.1c-19.5 0-35.7-16.2-35.7-35.8s16.2-35.7 35.7-35.7h357.1c19.6 0 35.8 16.2 35.8 35.7z m-285.8-250c0 39.7-31.8 71.5-71.4 71.5s-71.4-31.8-71.4-71.5 31.8-71.4 71.4-71.4 71.4 31.8 71.4 71.4z m285.8 0c0 39.7-31.9 71.5-71.5 71.5s-71.4-31.8-71.4-71.5 31.8-71.4 71.4-71.4 71.5 31.8 71.5 71.4z m142.8 142.9c0-197-160.1-357.1-357.1-357.1s-357.2 160.1-357.2 357.1 160.2 357.1 357.2 357.1 357.1-160.1 357.1-357.1z m71.4 0c0 236.6-191.9 428.6-428.5 428.6s-428.6-192-428.6-428.6 192-428.6 428.6-428.6 428.5 192 428.5 428.6z" /></svg>