<svg height="1000" width="857.1" xmlns="http://www.w3.org/2000/svg"><path d="m132.3 789.1h128.9v-387.3h-128.9v387.3z m137.2-506.7c-0.5-38-27.9-67-72-67s-73.1 29-73.1 67c0 36.8 27.9 66.9 71.5 66.9h0.5v0c45.2 0 73.1-30.1 73.1-66.9z m326.5 506.7h128.9v-222.1c0-118.9-63.6-174.1-148.4-174.1-69.2 0-99.9 38.5-116.7 65.2h1.1v-56.3h-128.9s1.7 36.3 0 387.3v0h128.9v-216.6c0-11.1 0.6-22.8 3.9-31.2 9.5-22.9 30.7-46.9 66.5-46.9 46.3 0 64.7 35.2 64.7 87.6v207.1z m261.1-557v535.8c0 88.7-71.9 160.7-160.7 160.7h-535.7c-88.7 0-160.7-72-160.7-160.7v-535.8c0-88.7 72-160.7 160.7-160.7h535.7c88.8 0 160.7 72 160.7 160.7z" /></svg>