<svg height="1000" width="785.7" xmlns="http://www.w3.org/2000/svg"><path d="m782.4 615.5c-112.2 278.5-381.2 109.9-381.2 109.9-82.6 166.9-218.7 274-376.1 274.6-13.9 0-25.1-11.2-25.1-25.1s11.2-24.6 25.1-24.6c131.1-0.5 245.5-87 320.3-224.3-83.7 32.4-241.6 56.9-329.2-167.4 222.1-91.5 324.2 22.9 363.3 92.6 20.1-49.6 34.6-103.8 44-162.4 0 0-284.5 44.7-304.6-199.7 242.7-97.7 310.8 156.2 310.8 156.2 3.3-34 6.7-107.1 6.7-108.8 0 0-216.5-150.1-77.6-336.5 253.9 87.6 125 330.9 125 330.9 1.1 3.4 1.1 48.6 0 68.1 0 0 92.1-181.4 277.9-117.2-8.4 272.9-289 216.5-289 216.5-9 55.8-22.9 108.8-40.8 158 0 0 169.1-187 350.5-40.8z" /></svg>