<svg height="1000" width="857.1" xmlns="http://www.w3.org/2000/svg"><path d="m696.4 71.4c88.8 0 160.7 72 160.7 160.7v535.8c0 88.7-71.9 160.7-160.7 160.7h-404.5c18.4-26.3 48.5-71.5 60.2-117.2 0 0 5-19 29.6-116.6 15.1 28.4 58 53 103.8 53 136.2 0 228.8-124.5 228.8-290.8 0-125.5-106.6-242.7-268.4-242.7-201.5 0-303 144.5-303 265.1 0 72.5 27.9 137.2 87 161.8 9.5 3.9 18.4 0 21.2-10.6 1.7-7.3 6.2-26.2 8.4-34.1 2.8-10.6 1.7-14.5-6.2-23.4-16.7-20.6-27.9-46.3-27.9-83.7 0-107.1 80.4-202.6 208.8-202.6 113.8 0 176.3 69.2 176.3 162.4 0 122.2-54.1 225.5-134.5 225.5-44.1 0-77.6-36.9-67-82.1 12.9-53.5 37.4-111.6 37.4-150.1 0-34.6-18.4-63.6-56.9-63.6-45.2 0-81.5 46.9-81.5 109.4 0 0 0 40.2 13.4 67.5-46.3 196.4-54.7 231-54.7 231-12.2 51.4-7.2 111.1-3.9 141.8h-102.1c-88.7 0-160.7-72-160.7-160.7v-535.8c0-88.7 72-160.7 160.7-160.7h535.7z" /></svg>