<svg height="1000" width="1071.4" xmlns="http://www.w3.org/2000/svg"><path d="m357.1 321.4c0 59.2-47.9 107.2-107.1 107.2s-107.1-48-107.1-107.2 47.9-107.1 107.1-107.1 107.1 48 107.1 107.1z m571.5 214.3v250h-785.7v-107.1l178.5-178.6 89.3 89.3 285.7-285.7z m53.5-392.8h-892.8c-9.5 0-17.9 8.3-17.9 17.8v678.6c0 9.5 8.4 17.8 17.9 17.8h892.8c9.5 0 17.9-8.3 17.9-17.8v-678.6c0-9.5-8.4-17.8-17.9-17.8z m89.3 17.8v678.6c0 49.1-40.1 89.3-89.3 89.3h-892.8c-49.1 0-89.3-40.2-89.3-89.3v-678.6c0-49.1 40.2-89.3 89.3-89.3h892.8v0c49.2 0 89.3 40.2 89.3 89.3z" /></svg>