<svg height="1000" width="857.1" xmlns="http://www.w3.org/2000/svg"><path d="m660.7 500c0 12.8-6.7 24.6-17.8 30.7l-303.6 178.6c-5.6 3.3-11.7 5-17.9 5s-12.2-1.7-17.8-4.5c-11.2-6.7-17.9-18.4-17.9-31.2v-357.2c0-12.8 6.7-24.5 17.9-31.2 11.1-6.2 25.1-6.2 35.7 0.5l303.6 178.6c11.1 6.1 17.8 17.9 17.8 30.7z m71.4 0c0-167.4-136.1-303.6-303.5-303.6s-303.6 136.2-303.6 303.6 136.2 303.6 303.6 303.6 303.5-136.2 303.5-303.6z m125 0c0 236.6-191.9 428.6-428.5 428.6s-428.6-192-428.6-428.6 192-428.6 428.6-428.6 428.5 192 428.5 428.6z" /></svg>