<svg height="1000" width="857.1" xmlns="http://www.w3.org/2000/svg"><path d="m285.7 714.3c0-39.6-31.8-71.4-71.4-71.4s-71.4 31.8-71.4 71.4 31.8 71.4 71.4 71.4 71.4-31.8 71.4-71.4z m195.9 52.4c-9.5-172.9-146.8-310.2-319.8-319.7-5-0.6-10 1.7-13.4 5s-5.5 7.8-5.5 12.8v71.5c0 9.5 7.2 17.3 16.7 17.8 114.4 8.4 206.5 100.5 214.8 214.9 0.6 9.5 8.4 16.7 17.9 16.7h71.4c5.1 0 9.5-2.2 12.9-5.6s5.5-8.3 5-13.4z m214.3 0.6c-9.5-290.2-244.4-525.1-534.6-534.6-5.6-0.6-9.5 1.1-12.9 5-3.3 3.4-5.5 7.8-5.5 12.9v71.4c0 9.5 7.8 17.3 17.3 17.8 231.5 8.4 420.2 197 428.5 428.6 0.6 9.5 8.4 17.3 17.9 17.3h71.4c5 0 9.5-2.2 12.8-5.6 4-3.3 5.6-7.8 5.1-12.8z m161.2-535.2v535.8c0 88.7-71.9 160.7-160.7 160.7h-535.7c-88.7 0-160.7-72-160.7-160.7v-535.8c0-88.7 72-160.7 160.7-160.7h535.7c88.8 0 160.7 72 160.7 160.7z" /></svg>