<svg height="1000" width="714.3" xmlns="http://www.w3.org/2000/svg"><path d="m582 315.3c0-74.8-53-125-131.7-125h-178.5v0 250h178.5c78.7 0 131.7-50.2 131.7-125z m132.3 0c0 143.4-103.8 243.9-252.8 243.9h-189.7v65.8h281.8c10 0 17.8 7.8 17.8 17.9v71.4c0 10-7.8 17.8-17.8 17.8h-281.8v107.2c0 10-7.8 17.8-17.9 17.8h-93.2c-10 0-17.8-7.8-17.8-17.8v-107.2h-125c-10.1 0-17.9-7.8-17.9-17.8v-71.4c0-10.1 7.8-17.9 17.9-17.9h125v-65.8h-125c-10.1 0-17.9-7.9-17.9-17.9v-83.2c0-10 7.8-17.8 17.9-17.8h125v-351c0-10.1 7.8-17.9 17.8-17.9h300.8v0c149 0 252.8 100.5 252.8 243.9z" /></svg>