<svg height="1000" width="928.6" xmlns="http://www.w3.org/2000/svg"><path d="m785.7 551.9v144.5c0 88.8-72 160.7-160.7 160.7h-464.3c-88.7 0-160.7-71.9-160.7-160.7v-464.3c0-88.7 72-160.7 160.7-160.7h142.3v0 0c9.5 0 17.9 7.8 17.9 17.9 0 8.9-6.2 16.2-14.5 17.8-27.9 9.5-53.1 20.7-74.3 33.5-2.7 1.1-5.5 2.3-8.9 2.3h-62.5c-49.1 0-89.3 40.1-89.3 89.2v464.3c0 49.1 40.2 89.3 89.3 89.3h464.3c49.1 0 89.3-40.2 89.3-89.3v-119.4c0-6.7 3.9-12.8 10-16.2 11.2-5 21.2-12.3 30.2-20.6 5-5 12.8-7.3 19.5-4.5s11.7 8.9 11.7 16.2z m132.3-276.8l-214.3 214.3c-6.7 7.3-15.6 10.6-25.1 10.6-4.5 0-9.5-1.1-14-2.8-12.8-5.6-21.7-18.4-21.7-32.9v-107.2h-89.3c-122.8 0-200.9 23.5-244.4 73.1-45.2 51.9-58.6 135.6-41.3 264 1.1 7.8-3.9 15.6-11.2 19-2.2 0.5-4.5 1.1-6.7 1.1-5.6 0-11.2-2.8-14.5-7.3-3.9-5.5-92.6-131.1-92.6-242.7 0-149.6 46.8-321.4 410.7-321.4h89.3v-107.2c0-14.5 8.9-27.3 21.7-32.9 4.5-1.7 9.5-2.8 14-2.8 9.5 0 18.4 3.9 25.1 10.6l214.3 214.3c13.9 13.9 13.9 36.3 0 50.2z" /></svg>