<svg height="1000" width="1000.0" xmlns="http://www.w3.org/2000/svg"><path d="m535.7 500c19.5 0 35.7 16.2 35.7 35.7s-16.2 35.7-35.7 35.7-35.7-16.2-35.7-35.7 16.2-35.7 35.7-35.7z m167.4 35.7l282.9 222.1c10.1 7.3 15.1 19.5 14 31.3-1.7 12.2-8.9 22.8-19.5 28.4l-71.5 35.7c-5 2.8-10.6 3.9-16.1 3.9-6.2 0-12.3-1.6-17.3-4.4l-385.1-216-61.4 36.8c-2.2 1.2-4.4 2.3-6.7 2.8 5.1 17.3 7.3 35.8 5.6 54.2-5 57.4-43.5 112.1-104.9 151.2-47.4 30.1-102.1 46.9-154.6 46.9-50.2 0-92.6-15.1-123.9-43.6-31.8-29.5-47.9-71.9-44-115.5 5-56.9 43.5-112.1 104.3-151.2 47.4-30.1 102.7-46.9 155.1-46.9 31.3 0 59.8 6.2 84.3 17.3 3.4-5 7.3-8.9 12.3-12.2l68.1-40.8-68.1-40.7c-5-3.4-8.9-7.3-12.3-12.3-24.5 11.2-53 17.3-84.3 17.3-52.4 0-107.7-16.7-155.1-46.9-60.8-39-99.3-94.3-104.3-151.2-3.9-43.5 12.2-85.9 44-115 31.3-29 73.7-44 123.9-44 52.5 0 107.2 16.7 154.6 46.8 61.4 38.5 99.9 93.8 104.9 151.3 1.7 18.4-0.5 36.8-5.6 54.1 2.3 0.5 4.5 1.7 6.7 2.8l61.4 36.8 385.1-215.9c5-2.8 11.1-4.5 17.3-4.5 5.5 0 11.1 1.1 16.1 3.9l71.5 35.7c10.6 5.6 17.8 16.2 19.5 28.5 1.1 11.7-3.9 24-14 31.2z m-380-145.1c34-31.2 12.8-87.6-47.4-125.5-34.1-21.8-73.7-33-107.2-33-25.6 0-48.5 6.7-63 20.1-34.1 31.3-12.9 87.6 47.4 125.6 34 21.8 73.1 32.9 107.1 32.9 25.7 0 48.6-6.7 63.1-20.1z m-47.4 415.8c60.2-38 81.4-94.3 47.4-125.6-14.5-13.4-37.4-20.1-63.1-20.1-34 0-73.1 11.2-107.1 32.9-60.3 38-81.5 94.3-47.4 125.6 14.5 13.4 37.4 20.1 63 20.1 33.5 0 73.1-11.2 107.2-32.9z m99.3-342.1l53.6 32.4v-6.2c0-12.8 7.2-24.5 18.4-31.2l7.8-4.5-44.1-26.2-14.5 14.5c-4.5 4.4-7.8 8.9-12.3 12.8-1.6 1.7-2.8 2.2-3.9 3.4z m125 125l53.6 17.8 410.7-321.4-71.4-35.7-428.6 240.5v63.1l-89.3 53.5 5 4.5c1.1 1.7 2.3 2.2 3.9 3.4 4.5 4.4 7.8 8.9 12.3 13.3l14.5 14.6z m392.9 232.1l71.4-35.7-290.2-227.7-98.8 77c-1.6 2.3-4.4 2.8-7.2 4z" /></svg>