<svg height="1000" width="857.1" xmlns="http://www.w3.org/2000/svg"><path d="m751.1 732.7c0-45.8-37.4-94.3-82-94.3-39.1 0-63.6 31.8-63.6 73.1 0 40.2 25.6 74.2 78.7 74.2 36.2 0 66.9-21.7 66.9-53z m-340.4 70.9c0 5-2.2 9.5-5.6 13.4l-178 178c-3.9 3.3-8.4 5-12.8 5s-8.9-1.7-12.8-5l-178.6-178.6c-5-5.6-6.7-12.8-3.9-19.5s9.5-11.2 16.7-11.2h107.2v-767.8c0-10.1 7.8-17.9 17.8-17.9h107.2c10 0 17.8 7.8 17.8 17.9v767.8h107.2v0c10 0 17.8 7.8 17.8 17.9z m418.5-38.5c0 112.7-61.3 234.9-194.2 234.9-25.1 0-45.7-3.9-60.2-8.9-9-2.8-16.8-5.6-23.5-8.4l21.8-63.1c5 2.3 11.2 4.5 17.3 6.2 11.2 3.9 25.7 7.2 41.9 7.2 66.9 0 101.5-55.8 112.1-113.8h-1.1c-15.6 16.7-48.5 28.5-81.5 28.5-80.9 0-133.9-63.7-133.9-136.2 0-77 59.2-140.1 141.2-140.1 88.7 0 160.1 72.6 160.1 193.7z m-16.7-400.1v63.6h-261.7v-63.6h93.2v-241.1c0-7.3 0.5-14.5 0.5-20.1v-8.9h-1.1l-3.9 6.7c-2.8 4.4-7.2 10-14.5 17.3l-34.6 32.3-45.8-48 107.2-103.2h68.6v365h92.1z" /></svg>