<svg height="1000" width="1000.0" xmlns="http://www.w3.org/2000/svg"><path d="m821.4 500c0-177.5-143.9-321.4-321.4-321.4s-321.4 143.9-321.4 321.4 143.9 321.4 321.4 321.4 321.4-143.9 321.4-321.4z m154 154.6c-1.6 5.6-6.1 9.5-11.1 11.1l-163 53.6v170.8c0 5.5-2.8 11.1-7.2 14.5-5 3.3-10.6 4.4-16.2 2.2l-162.9-52.4-100.5 138.3c-3.3 4.5-8.9 7.3-14.5 7.3s-11.2-2.8-14.5-7.3l-100.5-138.3-162.9 52.4c-5.6 2.2-11.2 1.1-16.2-2.2-4.4-3.4-7.2-9-7.2-14.5v-170.8l-163-53.6c-5-1.6-9.5-5.5-11.1-11.1s-1.2-11.7 2.2-16.2l100.4-138.4-100.4-138.4c-3.4-5-3.9-10.6-2.2-16.2s6.1-9.5 11.1-11.1l163-53.6v-170.8c0-5.5 2.8-11.1 7.2-14.5 5-3.3 10.6-4.4 16.2-2.2l162.9 52.4 100.5-138.3c6.7-9 22.3-9 29 0l100.5 138.3 162.9-52.4c5.6-2.2 11.2-1.1 16.2 2.2 4.4 3.4 7.2 9 7.2 14.5v170.8l163 53.6c5 1.6 9.5 5.5 11.1 11.1s1.2 11.2-2.2 16.2l-100.4 138.4 100.4 138.4c3.4 4.5 3.9 10.6 2.2 16.2z" /></svg>