<svg height="1000" width="928.6" xmlns="http://www.w3.org/2000/svg"><path d="m634.5 560.3l170.7-165.8-235.4-34.6-105.5-213.1-105.5 213.1-235.5 34.6 170.8 165.8-40.8 234.9 211-111 210.4 111z m294.1-199.3c0 10.1-7.3 19.6-14.5 26.8l-202.6 197.6 48 279c0.5 3.9 0.5 7.3 0.5 11.2 0 15-6.7 27.9-22.8 27.9-7.8 0-15.7-2.8-22.4-6.7l-250.5-131.7-250.6 131.7c-7.2 3.9-14.5 6.7-22.3 6.7-16.2 0-23.4-13.4-23.4-27.9 0-3.9 0.5-7.3 1.1-11.2l48-279-203.1-197.6c-6.7-7.2-14-16.7-14-26.8 0-16.7 17.3-23.4 31.2-25.6l280.2-40.8 125.5-253.9c5.1-10.6 14.6-22.8 27.4-22.8s22.3 12.2 27.3 22.8l125.6 253.9 280.1 40.8c13.4 2.2 31.3 8.9 31.3 25.6z" /></svg>