<svg height="1000" width="785.7" xmlns="http://www.w3.org/2000/svg"><path d="m285.7 410.7v321.4c0 10.1-7.8 17.9-17.8 17.9h-35.8c-10 0-17.8-7.8-17.8-17.9v-321.4c0-10 7.8-17.8 17.8-17.8h35.8c10 0 17.8 7.8 17.8 17.8z m142.9 0v321.4c0 10.1-7.8 17.9-17.9 17.9h-35.7c-10 0-17.9-7.8-17.9-17.9v-321.4c0-10 7.9-17.8 17.9-17.8h35.7c10.1 0 17.9 7.8 17.9 17.8z m142.8 0v321.4c0 10.1-7.8 17.9-17.8 17.9h-35.7c-10.1 0-17.9-7.8-17.9-17.9v-321.4c0-10 7.8-17.8 17.9-17.8h35.7c10 0 17.8 7.8 17.8 17.8z m71.5 404v-529h-500v529c0 26.8 15 42.4 17.8 42.4h464.3c2.8 0 17.9-15.6 17.9-42.4z m-375-600.4h250l-26.8-65.3c-1.7-2.2-6.7-5.6-9.5-6.1h-176.9c-3.4 0.5-7.8 3.9-9.5 6.1z m517.8 17.8v35.8c0 10-7.8 17.8-17.8 17.8h-53.6v529c0 61.4-40.2 113.9-89.3 113.9h-464.3c-49.1 0-89.3-50.3-89.3-111.6v-531.3h-53.5c-10.1 0-17.9-7.8-17.9-17.8v-35.8c0-10 7.8-17.8 17.9-17.8h172.4l39.1-93.2c11.1-27.4 44.6-49.7 74.2-49.7h178.5c29.6 0 63.1 22.3 74.3 49.7l39 93.2h172.5c10 0 17.8 7.8 17.8 17.8z" /></svg>