<svg height="1000" width="857.1" xmlns="http://www.w3.org/2000/svg"><path d="m612.2 602.1l-81.5 81.5c-7.3 7.2-18.4 7.2-25.7 0l-76.4-76.5-76.5 76.5c-7.2 7.2-18.4 7.2-25.6 0l-81.5-81.5c-7.3-7.2-7.3-18.4 0-25.6l76.4-76.5-76.4-76.5c-7.3-7.2-7.3-18.4 0-25.6l81.5-81.5c7.2-7.2 18.4-7.2 25.6 0l76.5 76.5 76.4-76.5c7.3-7.2 18.4-7.2 25.7 0l81.5 81.5c7.2 7.2 7.2 18.4 0 25.6l-76.5 76.5 76.5 76.5c7.2 7.2 7.2 18.4 0 25.6z m119.9-102.1c0-167.4-136.1-303.6-303.5-303.6s-303.6 136.2-303.6 303.6 136.2 303.6 303.6 303.6 303.5-136.2 303.5-303.6z m125 0c0 236.6-191.9 428.6-428.5 428.6s-428.6-192-428.6-428.6 192-428.6 428.6-428.6 428.5 192 428.5 428.6z" /></svg>