<?xml version="1.0" encoding="utf-8"?>
<!-- Generator: Adobe Illustrator 24.3.0, SVG Export Plug-In . SVG Version: 6.00 Build 0)  -->
<svg version="1.1" id="Calque_1" focusable="false" xmlns="http://www.w3.org/2000/svg" xmlns:xlink="http://www.w3.org/1999/xlink"
	 x="0px" y="0px" viewBox="0 0 1000 1000" style="enable-background:new 0 0 1000 1000;" xml:space="preserve">
<path d="M150,450c55.2,0,100-44.8,100-100s-44.8-100-100-100S50,294.8,50,350S94.8,450,150,450z M850,450c55.2,0,100-44.8,100-100
	s-44.8-100-100-100s-100,44.8-100,100S794.8,450,850,450z M900,500H800c-27.5,0-52.3,11.1-70.5,29.1c63,34.5,107.7,96.9,117.3,170.9
	H950c27.7,0,50-22.3,50-50v-50C1000,544.8,955.2,500,900,500z M500,500c96.7,0,175-78.3,175-175s-78.3-175-175-175
	s-175,78.3-175,175S403.3,500,500,500z M620,550h-13c-32.5,15.6-68.6,25-107,25s-74.4-9.4-107-25h-13c-99.4,0-180,80.6-180,180v45
	c0,41.4,33.6,75,75,75h450c41.4,0,75-33.6,75-75v-45C800,630.6,719.4,550,620,550z M270.5,529.1c-18.1-18-43-29.1-70.5-29.1H100
	C44.8,500,0,544.8,0,600v50c0,27.7,22.3,50,50,50h103C162.8,625.9,207.5,563.6,270.5,529.1L270.5,529.1z"/>
</svg>
