<svg height="1000" width="1000.0" xmlns="http://www.w3.org/2000/svg"><path d="m644.6 27.5c-2.3 0-51.2 29.3-56.7 32.1-1.4 0.9-1.8 2.3-1.8 3.2 0 7.8 19.2 53.9 23.3 63.1-5.5 7.3-10 15.6-13.7 23.8-9.2 0.9-68.2 7.4-68.2 14.2l0 64.1c0 6.9 59 13.3 68.2 14.2 3.7 8.8 8.2 16.5 13.7 23.8-4.1 9.1-23.3 55.4-23.3 63.2 0 0.9 0.4 2.3 1.8 3.2 5.5 3.2 54.4 32.5 56.7 32.5 6 0 40.3-45.8 44.9-52.7 4.6 0.5 9.1 0.9 13.7 0.9 4.6 0 9.2-0.4 13.8-0.9 4.6 6.9 38.9 52.7 44.9 52.7 2.3 0 51.3-29.3 56.7-32.5 1.4-0.9 1.8-1.9 1.8-3.2 0-8.3-19.1-54.1-23.3-63.2 5.5-7.3 10-15 13.7-23.8 9.1-0.9 68.2-7.3 68.2-14.2l0-64.1c0-6.8-59.1-13.3-68.2-14.2-3.7-8.2-8.2-16.5-13.7-23.8 4.2-9.2 23.3-54.9 23.3-63.1 0-0.9-0.4-2.3-1.8-3.2-5.4-3.2-54.4-32.1-56.7-32.1l-2.8 0.9c-15.5 15.6-29.3 33.5-42.1 51.3-4.6-0.4-9.3-0.9-13.8-0.9-4.5 0-9.1 0.5-13.7 0.9-4.6-6.8-38.9-52.2-44.9-52.2z m-394.1 109.9c-6.4 0-11.9 4.5-13.7 11-5.9 22.4-8.2 47.6-10.5 70.5-12.4 4.1-23.8 8.7-35.3 14.6l-52.6-41.2c-2.8-1.8-6-3.2-9.7-3.2-13.3 0-64.5 55.4-73.6 67.8-2.3 2.7-3.2 5.9-3.2 9.1 0 3.2 1.3 6.5 3.2 9.2 14.6 17.4 28.4 34.3 41.2 52.6-6 11.5-11 22.9-14.7 34.8l-71 11c-5.9 0.9-10.5 7.8-10.5 13.7l0 84.7c0 6.4 4.6 12.3 11 13.3l69.6 11c4.1 12.8 9.6 25.1 16 37.5-13.2 17.9-27 34.8-40.3 52.2-1.8 2.8-3.2 5.5-3.2 8.7 0 13.3 54.1 62.2 66 73.2 2.7 2.3 5.8 3.7 9.5 3.7 3.2 0 6.9-0.9 9.2-3.2l54-40.8c11 5.5 22.5 10.5 34.4 14.2l10.5 70.1c0.9 6.4 7.3 11.4 13.7 11.4l85.1 0c6.5 0 11.9-4.5 13.8-10.9 5.9-22.5 8.2-47.7 10.5-71 12.4-3.7 23.8-8.2 35.3-14.2l52.7 41.2c2.7 1.8 5.9 3.2 9.5 3.2 13.3 0 64.6-55.8 73.7-68.2 2.3-2.3 3.2-5.5 3.2-8.7 0-3.6-1.3-6.4-3.2-9.1-14.6-17.4-28.4-34.4-41.2-52.7 6-11.5 11-22.9 14.7-34.8l71-11c5.9-0.9 10.5-7.8 10.5-13.7l0-84.7c0-6.4-4.6-12.3-11-13.7l-69.6-10.6c-4.2-12.8-9.6-25.1-15.6-37.5 12.8-17.9 26.6-34.4 39.8-52.2 1.9-2.8 3.3-5.5 3.3-8.7 0-12.8-54-62.2-65.9-73.2-2.8-2.3-6-3.7-9.7-3.7-3.2 0-6.4 0.9-9.1 3.2l-54 40.8c-11-5.5-22.5-10.5-34.4-14.2l-10.5-70.1c-0.9-6.4-7.3-11.4-13.8-11.4l-85.1 0z m452.7 0c32.1 0 58.7 26.5 58.7 58.6 0 32-26.1 58.6-58.7 58.6-32 0-58.6-26.1-58.6-58.6 0-32.1 26.6-58.6 58.6-58.6z m-410.2 175.7c64.6 0 117.3 52.7 117.3 117.2 0 64.6-52.8 117.3-117.3 117.3-64.4 0-117.1-52.7-117.1-117.3 0-64.5 52.6-117.2 117.1-117.2z m351.6 183.2c-2.3 0-51.2 29.3-56.7 32-1.4 0.9-1.8 2.3-1.8 3.2 0 7.8 19.2 54.1 23.3 63.2-5.5 7.4-10 15.6-13.7 23.8-9.2 1-68.2 7.3-68.2 14.2l0 37.5c8.6-2.8 17.8-4.3 27.2-4.3l83.2 0 0-83.2c0-25.2 10.8-48.4 28-65-9.3-11.3-18.4-21.4-21.3-21.4z m83.8 53.8c-18 0-32.6 14.6-32.6 32.6l0 141.2-141.1 0c-18 0-32.6 14.6-32.6 32.6l0 65.1c0 18 14.6 32.6 32.6 32.6l141.1 0 0 141.2c0 17.9 14.6 32.5 32.6 32.5l65.2 0c18 0 32.6-14.6 32.6-32.5l0-141.2 141.1 0c18 0 32.6-14.6 32.6-32.6l0-65.1c0-18-14.6-32.6-32.6-32.6l-141.1 0 0-141.2c0-18-14.6-32.6-32.6-32.6l-65.2 0z" /></svg>