<svg height="1000" width="928.6" xmlns="http://www.w3.org/2000/svg"><path d="m570.9 662.4l56.9 113.8c-43 132.8-166.9 223.8-306.4 223.8-176.9 0-321.4-144.5-321.4-321.4 0-135.1 84.8-255.6 211.5-301.9l9.5 73.1c-91 40.2-149.6 129.4-149.6 228.8 0 137.8 112.2 250 250 250 143.4 0 259.5-122.8 249.5-266.2z m305.8 55.8l32.3 63.6-142.8 71.4c-5 2.8-10.6 3.9-16.2 3.9-13.4 0-26.2-7.8-31.8-19.5l-133.4-266.2h-263.4c-17.8 0-33.5-13.9-35.7-31.8l-53.6-434.7c-0.5-5.6 1.7-17.8 3.4-23.4 10.6-38.5 46.3-63.6 85.9-63.6 49.1 0 89.3 40.1 89.3 89.2 0 50.8-44.6 94.4-96 88.8l20.7 161.2h236v71.5h-227.1l8.9 71.4h253.9c13.4 0 26.3 7.8 31.9 19.5l127.2 253.9z" /></svg>