<svg height="1000" width="857.1" xmlns="http://www.w3.org/2000/svg"><path d="m382.3 426.9c0 0 0-0.6-70.4-123.9-5.5-8.9-13.4-19-29-19h-102.7c-6.7 0-11.7 2.3-14.5 6.2-2.8 4.4-2.2 10.6 0.6 16.2l69.7 120.5v0.6l-109.3 193c-3.4 5.6-2.8 11.2 0 15.7s7.2 7.2 13.4 7.2h103.2c15.1 0 22.9-10.6 27.9-20.1 107.1-189.1 111.1-196.4 111.1-196.4z m348.2-277.3c-2.8-4.5-7.3-6.7-13.4-6.7h-104.4c-15 0-21.7 9.4-27.3 19.5-222.1 394-229.4 406.8-229.4 406.8s0 0.6 146.2 268.4c5.1 8.9 12.9 19.5 29.1 19.5h102.6c6.2 0 11.2-2.2 14-6.7s2.8-10-0.6-15.6l-145.1-265.6v-0.6l228.3-403.4c2.8-5.6 2.8-11.2 0-15.6z m126.6 82.5v535.8c0 88.7-71.9 160.7-160.7 160.7h-535.7c-88.7 0-160.7-72-160.7-160.7v-535.8c0-88.7 72-160.7 160.7-160.7h535.7c88.8 0 160.7 72 160.7 160.7z" /></svg>