<svg height="1000" width="857.1" xmlns="http://www.w3.org/2000/svg"><path d="m696.4 71.4c88.8 0 160.7 72 160.7 160.7v535.8c0 88.7-71.9 160.7-160.7 160.7h-535.7c-88.7 0-160.7-72-160.7-160.7v-535.8c0-88.7 72-160.7 160.7-160.7h535.7z m-417.9 204.8h-207.1v439.2h213.2c79.8 0 154.6-37.9 154.6-127.2 0-55.3-26.3-96-79.8-111.6 39-19 59.7-47.5 59.7-91.6 0-87.6-65.3-108.8-140.6-108.8z m-12.3 177.5h-98.2v-102.7h90.9c34.6 0 66.4 9.5 66.4 50.2 0 37.4-24.5 52.5-59.1 52.5z m5 186.9h-103.2v-121.1h105.4c42.4 0 69.2 18.4 69.2 63.1s-31.8 58-71.4 58z m362.7 17.9c-51.3 0-78.1-30.2-78.1-80.9h229.4c0.5-5.6 0.5-11.2 0.5-16.8 0-93.7-55.2-172.4-155.1-172.4-96.6 0-163 73.1-163 168.5 0 99.4 62.5 166.9 163 166.9 76.4 0 125.5-34.1 149-106.6h-77c-8.4 26.8-42.4 41.3-68.7 41.3z m-5.6-204.3c43.6 0 65.3 26.3 69.2 68.1h-141.7c2.8-41.8 30.7-68.1 72.5-68.1z m-90.4-148.4h178.1v43h-178.1v-43z" /></svg>