<svg height="1000" width="1142.9" xmlns="http://www.w3.org/2000/svg"><path d="m1031.3 189.2h-285.2v69.2h285.2v-69.2z m-140.7 237.7c-66.9 0-111.6 41.9-116 108.8h227.6c-6.1-67.5-41.3-108.8-111.6-108.8z m9 326.4c42.4 0 97.1-22.8 110.4-66.4h123.4c-38 116.7-116.7 171.4-238.3 171.4-160.7 0-260.6-108.9-260.6-267.3 0-152.9 105.5-269.6 260.6-269.6 159.6 0 247.8 125.6 247.8 276.3 0 8.9-0.6 17.8-1.2 26.2h-367.1c0 81.5 42.9 129.4 125 129.4z m-745-27.9h165.2c63 0 114.4-22.3 114.4-93.1 0-72-43-100.5-111.1-100.5h-168.5v193.6z m0-299.6h156.8c55.2 0 94.3-24 94.3-83.7 0-64.8-50.2-80.4-106-80.4h-145.1v164.1z m-154.6-284.1h331.5c120.5 0 224.9 34.1 224.9 174.1 0 70.9-33 116.7-96 146.8 86.5 24.6 128.3 89.9 128.3 178 0 142.9-120 204.3-247.7 204.3h-341v-703.2z" /></svg>