<svg height="1000" width="1285.7" xmlns="http://www.w3.org/2000/svg"><path d="m357.1 910.7l214.3-107.1v-175.3l-214.3 91.6v190.8z m-35.7-253.3l225.5-96.6-225.5-96.5-225.4 96.5z m607.2 253.3l214.3-107.1v-175.3l-214.3 91.6v190.8z m-35.7-253.3l225.4-96.6-225.4-96.5-225.5 96.5z m-250-163.5l214.2-92.1v-148.5l-214.2 91.6v149z m-35.8-211.5l246.1-105.5-246.1-105.5-246.1 105.5z m607.2 289v232.2c0 26.8-15.1 51.9-39.6 63.6l-250 125c-10.1 5.6-20.7 7.8-31.8 7.8s-21.8-2.2-31.9-7.8l-250-125c-1.6-0.6-2.7-1.1-3.9-2.2-1.1 1.1-2.2 1.6-3.9 2.2l-250 125c-10 5.6-20.6 7.8-31.8 7.8s-21.7-2.2-31.8-7.8l-250-125c-24.5-11.7-39.6-36.8-39.6-63.6v-232.2c0-28.4 17.3-54.1 43.5-65.8l242.2-103.8v-223.2c0-28.5 17.3-54.2 43.5-65.9l250-107.1c9-3.9 18.5-5.6 27.9-5.6s19 1.7 27.9 5.6l250 107.1c26.3 11.7 43.6 37.4 43.6 65.9v223.2l242.2 103.8c26.7 11.7 43.5 37.4 43.5 65.8z" /></svg>