<svg height="1000" width="1000.0" xmlns="http://www.w3.org/2000/svg"><path d="m487.7 914.1v36.8c-157.3-4.5-295.2-89.3-372.7-214.9l32.3-18.9v0c11.7 19.5 25.7 37.9 40.8 55.2l36.2-31.8c52.5 59.7 123.9 102.1 205.4 118.3l-9.5 48c21.8 3.9 44.6 6.7 67.5 7.3z m-333.7-295.8l-46.3 15.6c7.8 21.8 16.7 42.4 27.3 62.5l-31.8 18.4c-34.6-63.6-54.7-137.2-54.7-214.8s20.1-151.2 54.7-214.8l31.8 18.4c-10.6 19.5-20 40.7-27.3 62.5l45.8 15.6c-12.9 36.8-19.6 77-19.6 118.3s7.3 81.5 20.1 118.3z m698.7 98.8l32.3 18.9c-77.5 125.6-215.4 210.4-372.7 214.9v-36.8c22.9-0.6 45.7-3.4 67.5-7.3l-9.5-48c81.5-16.2 152.9-58.6 205.4-118.3l36.2 31.8c15.1-17.3 29.1-35.7 40.8-55.2z m-84.3-309.2l-130 44.7c5 15 7.8 30.7 7.8 47.4s-2.8 32.4-7.8 47.4l129.5 44.7c-11.8 35.1-30.7 66.9-54.7 94.3l-103.3-90.4c-20.6 24-49.1 40.7-82 47.4l26.8 134.5c-17.3 3.4-35.7 5.6-54.7 5.6s-37.4-2.3-54.7-5.6l26.8-134.5c-32.9-6.7-61.4-23.4-82-47.4l-103.3 90.4c-24-27.4-42.9-59.2-54.7-94.3l129.5-44.7c-5-15-7.8-30.7-7.8-47.4s2.8-32.4 7.8-47.4l-130-44.7c12.3-35.1 31.2-66.9 55.2-94.3l103.3 90.4c20.6-24 49.1-41.3 82-48l-26.8-133.9c17.3-3.9 35.7-5.6 54.7-5.6s37.4 1.7 54.7 5.6l-26.8 133.9c32.9 6.7 61.4 24 82 48l103.3-90.4c24 27.4 42.9 59.2 55.2 94.3z m-280.7-358.8v36.8c-22.9 0.6-45.7 2.8-67.5 7.3l9.5 48c-81.5 15.6-152.9 58-205.4 117.7l-36.2-31.2c-15.1 16.7-28.5 35.1-40.8 54.7l-31.8-18.4c77.6-126.2 214.9-210.4 372.2-214.9v0z m463.8 450.9c0 77.6-20.1 151.2-54.7 214.8l-31.8-18.4c10.6-20.1 19.5-40.7 27.3-62.5l-46.3-15.6c12.8-36.8 20.1-77 20.1-118.3s-6.7-81.5-19.6-118.3l45.8-15.6c-7.3-21.8-16.7-43-27.3-62.5l31.8-18.4c34.6 63.6 54.7 137.2 54.7 214.8z m-67-236l-31.8 18.4c-12.3-19.6-25.7-38-40.8-54.7l-36.2 31.2c-52.5-59.7-123.9-102.1-205.4-117.7l9.5-48c-21.8-4.5-44.6-6.7-67.5-7.3v-36.8c157.3 4.5 294.6 88.7 372.2 214.9z m90.9 236c0-262.3-213.1-475.4-475.4-475.4v0c-262.3 0-475.4 213.1-475.4 475.4s213.1 475.4 475.4 475.4 475.4-213.1 475.4-475.4z m24.6 0c0 276.2-223.8 500-500 500s-500-223.8-500-500 223.8-500 500-500v0c276.2 0 500 223.8 500 500z" /></svg>