<svg height="1000" width="857.1" xmlns="http://www.w3.org/2000/svg"><path d="m819.2 212.1c20.6 20.6 37.9 61.9 37.9 91.5v642.8c0 29.6-24 53.6-53.5 53.6h-750c-29.6 0-53.6-24-53.6-53.6v-892.8c0-29.6 24-53.6 53.6-53.6h500c29.5 0 70.8 17.3 91.5 37.9z m-247.8-136.2v209.8h209.9c-3.4-9.5-8.4-19-12.3-22.9l-174.7-174.6c-3.9-3.9-13.4-9-22.9-12.3z m214.3 852.7v-571.5h-232.1c-29.6 0-53.6-24-53.6-53.5v-232.2h-428.6v857.2h714.3z m-517.8-500c6.1-7.8 17.3-9.5 25.1-3.4l28.4 21.2c7.8 6.2 9.5 17.3 3.4 25.1l-101.6 135.6 101.6 135.6c6.1 7.9 4.4 19-3.4 25.2l-28.4 21.2c-7.8 6.1-19 4.4-25.1-3.4l-126.2-168c-4.4-6.1-4.4-15 0-21.2z m447.5 167.9c4.5 6.2 4.5 15.1 0 21.2l-126.1 168c-6.2 7.8-17.3 9.5-25.1 3.4l-28.5-21.2c-7.8-6.2-9.5-17.3-3.3-25.2l101.5-135.6-101.5-135.6c-6.2-7.8-4.5-18.9 3.3-25.1l28.5-21.2c7.8-6.1 18.9-4.4 25.1 3.4z m-346 257.3c-10-1.7-16.2-11.2-14.5-20.7l77-463.7c1.7-10 11.2-16.2 20.7-14.5l35.1 5.6c10.1 1.7 16.2 11.2 14.5 20.6l-77 463.8c-1.7 10-11.1 16.1-20.6 14.5z" /></svg>