<svg height="1000" width="857.1" xmlns="http://www.w3.org/2000/svg"><path d="m819.2 212.1c20.6 20.6 37.9 61.9 37.9 91.5v642.8c0 29.6-24 53.6-53.5 53.6h-750c-29.6 0-53.6-24-53.6-53.6v-892.8c0-29.6 24-53.6 53.6-53.6h500c29.5 0 70.8 17.3 91.5 37.9z m-247.8-136.2v209.8h209.9c-3.4-9.5-8.4-19-12.3-22.9l-174.7-174.6c-3.9-3.9-13.4-9-22.9-12.3z m214.3 852.7v-571.5h-232.1c-29.6 0-53.6-24-53.6-53.5v-232.2h-428.6v857.2h714.3z m-286.8-330.9c13.9 11.1 29.6 21.2 46.9 31.2 23.4-2.8 45.2-3.9 65.2-3.9 37.4 0 84.9 4.5 98.8 27.3 3.9 5.6 7.3 15.7 1.1 29.1-0.5 0.5-1.1 1.6-1.6 2.2v0.6c-1.7 10-10.1 21.2-39.7 21.2-35.7 0-89.8-16.2-136.7-40.8-77.5 8.4-159 25.7-218.7 46.3-57.5 98.3-101.6 146.2-135.1 146.2-5.6 0-10.6-1.1-15.6-3.9l-13.4-6.7c-1.7-0.5-2.2-1.6-3.3-2.7-2.8-2.8-5.1-9-3.4-20.1 5.6-25.7 35.7-68.7 104.9-104.9 4.5-2.8 10.1-1.2 12.9 3.3 0.5 0.6 1.1 1.7 1.1 2.2 17.3-28.4 37.4-64.7 59.7-109.9 25.1-50.2 44.6-99.3 58-146.2-17.8-60.8-23.4-123.3-13.4-160.2 3.9-13.9 12.3-22.3 23.5-22.3h11.7 0.5c8.4 0 15.1 2.8 19.6 8.4 6.7 7.8 8.3 20.1 5 37.9-0.6 1.7-1.1 3.4-2.2 4.5 0.5 1.7 0.5 2.8 0.5 4.5v16.7c-0.5 35.2-1.1 68.6-7.8 107.1 19.5 58.6 48.6 106.1 81.5 132.9z m-321.4 229.3c16.7-7.8 40.7-31.8 76.4-88.2-41.8 32.4-68.1 69.2-76.4 88.2z m222.1-513.4c-5.6 15.6-5.6 42.4-1.2 73.7 1.7-9 2.8-17.3 3.9-24.6 1.2-9.5 2.8-17.3 4-24 0.5-1.6 1.1-2.8 2.2-4.4-0.6-0.6-0.6-1.7-1.1-2.8-0.6-10.1-3.9-16.2-7.3-20.1 0 1.1-0.5 1.7-0.5 2.2z m-69.2 368.9c49.1-19.6 103.8-35.2 158.4-45.2-5.5-4.5-11.1-8.4-16.1-12.9-27.4-24-51.9-57.4-70.9-98.2-10.6 34.1-26.2 70.3-46.3 110-8.4 15.6-16.8 31.2-25.1 46.3z m360.4-9c-2.7-2.7-17.3-13.3-78.1-13.3 27.4 10 52.5 15.6 69.2 15.6 5 0 7.8 0 10.1-0.6 0-0.5-0.6-1.1-1.2-1.7z" /></svg>