<svg height="1000" width="1000.0" xmlns="http://www.w3.org/2000/svg"><path d="m160.7 214.3c49.1 0 89.3 40.2 89.3 89.3v607.1c0 49.1-40.2 89.3-89.3 89.3h-71.4c-49.1 0-89.3-40.2-89.3-89.3v-607.1c0-49.1 40.2-89.3 89.3-89.3h71.4z m767.9 90.9c42.4 24.6 71.4 70.9 71.4 123.4v428.5c0 78.7-64.2 142.9-142.9 142.9h-482.1c-49.1 0-89.3-40.2-89.3-89.3v-857.1c0-29.6 24-53.6 53.6-53.6h375c29.6 0 70.9 17.3 91.5 37.9l84.8 84.9c20.7 20.6 38 61.9 38 91.5v90.9z m-410.7 551.9v-71.4c0-10-7.9-17.8-17.9-17.8h-71.4c-10.1 0-17.9 7.8-17.9 17.8v71.4c0 10.1 7.8 17.9 17.9 17.9h71.4c10 0 17.9-7.8 17.9-17.9z m0-142.8v-71.4c0-10.1-7.9-17.9-17.9-17.9h-71.4c-10.1 0-17.9 7.8-17.9 17.9v71.4c0 10 7.8 17.8 17.9 17.8h71.4c10 0 17.9-7.8 17.9-17.8z m0-142.9v-71.4c0-10-7.9-17.9-17.9-17.9h-71.4c-10.1 0-17.9 7.9-17.9 17.9v71.4c0 10.1 7.8 17.9 17.9 17.9h71.4c10 0 17.9-7.8 17.9-17.9z m142.8 285.7v-71.4c0-10-7.8-17.8-17.8-17.8h-71.5c-10 0-17.8 7.8-17.8 17.8v71.4c0 10.1 7.8 17.9 17.8 17.9h71.5c10 0 17.8-7.8 17.8-17.9z m0-142.8v-71.4c0-10.1-7.8-17.9-17.8-17.9h-71.5c-10 0-17.8 7.8-17.8 17.9v71.4c0 10 7.8 17.8 17.8 17.8h71.5c10 0 17.8-7.8 17.8-17.8z m0-142.9v-71.4c0-10-7.8-17.9-17.8-17.9h-71.5c-10 0-17.8 7.9-17.8 17.9v71.4c0 10.1 7.8 17.9 17.8 17.9h71.5c10 0 17.8-7.8 17.8-17.9z m142.9 285.7v-71.4c0-10-7.8-17.8-17.9-17.8h-71.4c-10.1 0-17.9 7.8-17.9 17.8v71.4c0 10.1 7.8 17.9 17.9 17.9h71.4c10.1 0 17.9-7.8 17.9-17.9z m0-142.8v-71.4c0-10.1-7.8-17.9-17.9-17.9h-71.4c-10.1 0-17.9 7.8-17.9 17.9v71.4c0 10 7.8 17.8 17.9 17.8h71.4c10.1 0 17.9-7.8 17.9-17.8z m0-142.9v-71.4c0-10-7.8-17.9-17.9-17.9h-71.4c-10.1 0-17.9 7.9-17.9 17.9v71.4c0 10.1 7.8 17.9 17.9 17.9h71.4c10.1 0 17.9-7.8 17.9-17.9z m53.5-214.3v-142.8h-89.2c-29.6 0-53.6-24-53.6-53.6v-89.3h-357.2v285.7h500z" /></svg>