<svg height="1000" width="857.1" xmlns="http://www.w3.org/2000/svg"><path d="m819.2 212.1c20.6 20.6 37.9 61.9 37.9 91.5v642.8c0 29.6-24 53.6-53.5 53.6h-750c-29.6 0-53.6-24-53.6-53.6v-892.8c0-29.6 24-53.6 53.6-53.6h500c29.5 0 70.8 17.3 91.5 37.9z m-247.8-136.2v209.8h209.9c-3.4-9.5-8.4-19-12.3-22.9l-174.7-174.6c-3.9-3.9-13.4-9-22.9-12.3z m214.3 852.7v-571.5h-232.1c-29.6 0-53.6-24-53.6-53.5v-232.2h-428.6v857.2h714.3z m-553.6-130.6v59.1h182.5v-59.1h-51.9v-93.2h76.5c24 0 45.7-1.1 65.8-8.4 50.2-17.3 81.5-69.2 81.5-130s-30.1-107.7-76.5-127.2c-21.2-8.4-46.8-10.6-72.5-10.6h-205.4v59.7h51.4v309.7h-51.4z m197-156.3h-66.4v-149.5h67c19.5 0 34.6 3.3 46.3 10 20.1 11.8 31.3 34.6 31.3 64.2 0 31.3-11.2 55.3-34.6 67-11.8 5.6-26.3 8.3-43.6 8.3z" /></svg>