<svg height="1000" width="857.1" xmlns="http://www.w3.org/2000/svg"><path d="m365 601.6c-1.2 3.9-28.5-9-35.8-11.8-7.2-3.3-40.1-21.7-48.5-27.3s-40.2-31.8-44.1-33.5v0c-20.1 30.7-45.8 67-74.8 101-10 11.7-40.1 49.7-58.6 61.4-2.8 1.7-18.9 3.4-21.2 2.2 9-6.7 34.6-38.5 45.8-51.3 13.9-16.2 80.3-108.8 91.5-130 11.7-21.2 46.9-91.5 48.6-98.2-5.6-0.6-49.7 14.5-61.4 18.4-11.2 3.3-41.9 10.6-44.1 12.3-2.2 2.2-0.6 8.9-1.7 11.1s-11.1 7.3-17.3 8.4c-5.6 1.7-18.4 2.2-26.2 0-7.3-1.7-14-8.9-15.6-11.7 0 0-2.3-3.4-2.8-12.9 6.7-2.2 17.8-2.8 30.1-6.1s42.4-12.3 58.6-17.9 47.4-17.3 56.9-19.5c10.1-1.7 35.2-18.4 48.6-22.9s22.8-10 23.4-7.2 0 15-0.6 18.4c-0.5 2.8-27.3 55.2-31.2 63.6-2.2 4.5-17.9 34-43 73.1 9 3.9 27.9 11.7 35.7 15.6 9.5 4.5 75.9 32.4 79.3 33.5s9.5 26.8 8.4 31.3z m-114.4-271.2c1.6 9.4-1.2 13.4-2.3 15.6-5.6 10.6-19.5 17.8-27.9 21.2s-22.3 6.7-33.5 6.7c-5-0.6-15-2.2-27.3-14.5-6.7-7.3-11.7-26.8-9.5-24.6s18.4 4.5 25.7 2.8 24.5-6.7 32.3-8.9c8.4-2.8 25.2-7.3 30.7-7.8 5.6 0 10.1 2.2 11.8 9.5z m389.5 71.9l35.1 126.7-77.5-23.4z m-618.3 446.5l387.2-129.5v-575.9l-387.2 130v575.4z m692.5-176.9l56.9 17.3-101-366.7-55.8-17.3-120.5 299.2 56.9 17.3 25.1-61.4 117.7 36.2z m-280.7-536.9l319.7 102.7v-212z m173.5 738.3l88.2 7.3-30.1 89.3-22.3-36.9c-45.2 29.1-101 51.4-154.1 60.3-16.1 3.4-34.6 6.7-50.7 6.7h-46.9c-59.2 0-166.9-35.2-213.7-69.2-3.4-2.8-4.5-5-4.5-8.9 0-6.2 4.5-10.6 10-10.6 5.1 0 31.3 16.2 38.5 19.5 50.3 25.1 120.6 48 176.9 48 69.8 0 117.2-8.9 180.8-36.3 18.5-8.3 34.6-19 51.9-28.4z m250-602.1v602.1c-431.3-137.3-431.9-137.3-431.9-137.3-8.9 4-409 139-414.6 139-4.5 0-8.4-2.8-10-7.3 0-0.5-0.6-1.1-0.6-1.6v-601.6c0.6-1.7 1.1-4.5 2.2-5.6 3.4-3.9 7.8-5 11.2-6.1 1.7-0.6 35.7-11.7 83.1-27.9v-214.3l311.4 110.5c3.9-1.1 351-121.1 356.1-121.1 6.1 0 11.1 4.5 11.1 11.7v233.3z" /></svg>