<svg height="1000" width="857.1" xmlns="http://www.w3.org/2000/svg"><path d="m597.1 598.8l-89.3 89.3-84.3 84.8-16.7 16.7c-49.1 48.6-117.7 65.3-180.2 49.7-11.8 51.3-57.5 89.3-112.2 89.3-63.1 0-114.4-51.4-114.4-115 0-54.1 37.4-99.9 88.2-111.6-16.2-63 0.5-132.2 49.6-181.4l6.7-6.6 84.3 84.8-6.1 6.1c-27.9 27.4-27.4 72 0 99.9 27.3 27.3 71.9 27.3 99.3 0l16.7-16.7 84.3-84.9 89.8-89.2z m-190.3-380.6l6.7 6.7-84.8 84.8-6.7-6.7c-27.4-27.3-72-27.3-99.3 0s-27.4 72.6 0 99.9l16.1 16.2 84.9 84.8 89.2 89.3-84.2 84.8-89.9-89.3-84.2-84.8v0l-16.8-16.7c-51.3-50.8-66.9-123.9-47.4-189.2-51.3-11.2-89.3-56.9-89.3-111.6 0-63.6 51.4-115 114.4-115 57.5 0 104.4 41.9 113.3 96 61.9-14.5 129.5 2.8 178 50.8z m450.3 595.4c0 63.6-51.3 115-114.4 115-55.8 0-102.1-39.6-112.7-92.1v0c-64.7 20.1-138.9 4.5-190.3-46.9l-6.1-6.7 84.3-84.8 6.7 6.7c27.3 27.3 71.9 27.3 99.3 0s27.3-72 0-99.3l-16.8-16.8-84.8-84.8-89.3-89.3 84.9-84.8 89.2 89.3 84.9 84.8 16.1 16.7c48.6 48.6 65.9 117.2 50.3 179.7 55.8 7.8 98.7 55.3 98.7 113.3z m-1.1-627.2c0 58-43.5 106-99.3 113.8 18.4 64.2 2.2 136.2-48.6 187l-6.6 6.7-84.3-84.9 6.7-6.7c27.3-27.3 27.3-71.9 0-99.3s-72-27.3-99.3 0l-16.8 16.8-84.8 84.8-89.3 89.3-84.8-84.9v0l89.8-89.2 84.8-84.9 16.2-16.7c50.8-50.8 123.4-67 188.1-48 7.8-55.8 55.8-98.8 113.8-98.8 63.1 0 114.4 51.4 114.4 115z" /></svg>