<svg height="1000" width="1285.7" xmlns="http://www.w3.org/2000/svg"><path d="m990 466.5l10 176.4c4.5 78.6-160.2 142.8-357.1 142.8s-361.6-64.2-357.2-142.8l10.1-176.4 320.3 101c8.9 2.8 17.8 3.9 26.8 3.9s17.8-1.1 26.7-3.9z m295.7-180.8c0 7.8-5 14.5-12.3 17.3l-625 196.4c-2.2 0.6-3.9 0.6-5.5 0.6s-3.4 0-5.6-0.6l-363.9-114.9c-31.8 25.1-54.1 86.5-58.6 161.8 21.2 12.3 35.2 34.6 35.2 60.8 0 25.2-12.8 46.9-32.4 59.8l32.4 241.6c0.6 5-1.1 10-4.5 13.9s-8.3 6.2-13.4 6.2h-107.1c-5 0-10-2.3-13.4-6.2s-5-8.9-4.5-13.9l32.4-241.6c-19.5-12.9-32.4-34.6-32.4-59.8 0-26.7 15.1-49.6 36.3-61.9 3.4-65.3 20.1-135.6 54.7-184.2l-185.8-58c-7.3-2.8-12.3-9.5-12.3-17.3s5-14.5 12.3-17.3l625-196.4c2.2-0.6 3.9-0.6 5.6-0.6s3.3 0 5.5 0.6l625 196.4c7.3 2.8 12.3 9.5 12.3 17.3z" /></svg>