<svg height="1000" width="857.1" xmlns="http://www.w3.org/2000/svg"><path d="m324.8 729.9c0 30.1-27.4 36.8-51.9 36.8-24 0-59.7-3.9-59.7-35.1 0-30.7 30.1-35.7 54.7-35.7 23.4 0 56.9 3.9 56.9 34z m-20.1-260c0 27.9-11.2 47.4-41.3 47.4-30.7 0-43-17.9-43-46.9s11.2-50.2 43-50.2c28.5 0 41.3 23.4 41.3 49.7z m92.6-41.9v-69.7c-24 8.9-49.6 16.1-75.3 16.1-18.4-10.6-39.6-16.1-61.4-16.1-63.6 0-113.8 46.8-113.8 111.6 0 34.6 22.8 82.6 57.4 94.3v1.6c-17.8 7.9-21.2 29.6-21.2 47.5 0 18.4 6.7 33.5 22.9 42.9v1.7c-37.9 12.3-63 36.3-63 77.6 0 70.9 67.5 91 126.6 91 71.5 0 125-26.3 125-105 0-55.8-50.7-72.5-97.1-80.9-15.6-2.8-42.4-13.9-42.4-33.5 0-18.4 10.1-26.2 27.4-29 56.9-11.1 93.2-55.2 93.2-113.8 0-10.1-2.3-19.5-5.6-29 8.9-2.3 18.4-4.5 27.3-7.3z m32.9 233.8h76.5c-1.1-15-1.1-30.7-1.1-45.7v-216c0-12.8 0-25.7 1.1-38.5h-76.5c1.7 12.8 1.7 26.8 1.7 39.6v218.8c0 13.9 0 27.9-1.7 41.8z m284.1-8.9v-67.5c-11.2 7.8-24.6 11.7-38 11.7-25.1 0-29.5-25.1-29.5-45.8v-125.5h29c10 0 19.5 1.1 29.6 1.1v-65.3h-58.6c0-19-1.2-37.9 1.6-56.9h-78.1c1.7 10 2.2 20.1 2.2 30.7v26.2h-33.4v65.3c6.7-0.6 13.4-1.7 20.6-1.7 3.9 0 8.4 0.6 12.8 0.6v1.1h-1.1v121.1c0 60.3 9 118.3 82.6 118.3 20.7 0 41.9-3.4 60.3-13.4z m-198.7-394c0-26.2-19.5-50.8-46.8-50.8s-47.5 24-47.5 50.8c0 26.3 20.7 49.7 47.5 49.7s46.8-24 46.8-49.7z m341.5-26.8v535.8c0 88.7-71.9 160.7-160.7 160.7h-535.7c-88.7 0-160.7-72-160.7-160.7v-535.8c0-88.7 72-160.7 160.7-160.7h535.7c88.8 0 160.7 72 160.7 160.7z" /></svg>