<svg height="1000" width="714.3" xmlns="http://www.w3.org/2000/svg"><path d="m547.4 747.2c0-75.3-74.7-121.1-128.9-160.1-8.9-1.2-17.8-1.2-27.3-1.2-90.4 0-225.5 29.1-225.5 144 0 108.8 117.2 147.9 208.2 147.9 82.6 0 173.5-34.6 173.5-130.6z m-65.3-478.8c0-82.6-47.9-222.6-148.4-222.6-31.2 0-63.6 15.6-83.1 40.1-19.6 25.1-25.7 58.1-25.7 89.3 0 83.7 47.4 215.4 147.9 215.4 27.3 0 60.8-13.4 79.8-33.5 23.4-24.5 29.5-55.8 29.5-88.7z m-62.5-268.4h232.7l-76.4 49.1h-73.7c52.5 44.1 84.3 93.2 84.3 163.5 0 144.5-132.3 160.7-132.3 231.6 0 73.7 172.5 98.2 172.5 255.6 0 34-10.1 67.5-27.4 96.5-56.9 97.7-176.9 132.3-283.5 132.3-83.7 0-186.9-21.8-233.8-99.9-13.4-21.8-20.1-47.5-20.1-73.1 0-63.1 39.1-115.5 91-147.9 65.3-40.7 150.1-50.8 225.4-55.8-20-25.7-35.1-48.6-35.1-82 0-17.9 4.5-31.8 11.7-47.5-12.8 1.1-25.1 2.3-37.9 2.3-108.9 0-195.9-79.3-195.9-190.3 0-61.4 28.5-121.7 75.3-161.9 59.7-51.9 145.7-72.5 223.2-72.5z" /></svg>