<svg height="1000" width="1000.0" xmlns="http://www.w3.org/2000/svg"><path d="m500 0c276.2 0 500 223.8 500 500s-223.8 500-500 500-500-223.8-500-500 223.8-500 500-500z m0 71.4c-72.5 0-141.2 18.4-201.5 50.3l108.3 108.2c29.6-10 60.8-15.6 93.2-15.6 32.9 0 63.6 5.6 93.2 15.6l108.3-108.2c-60.3-31.9-129-50.3-201.5-50.3z m-378.3 630.1l108.2-108.3c-10-29.6-15.6-60.8-15.6-93.2 0-32.9 5.6-63.6 15.6-93.2l-108.2-108.3c-31.9 60.3-50.3 129-50.3 201.5s18.4 141.2 50.3 201.5z m378.3 227.1c72.5 0 141.2-18.4 201.5-50.3l-108.3-108.2c-29.6 10-60.3 15.6-93.2 15.6-32.4 0-63.6-5.6-93.2-15.6l-108.3 108.2c60.3 31.9 129 50.3 201.5 50.3z m0-214.3c118.3 0 214.3-96 214.3-214.3s-96-214.3-214.3-214.3-214.3 96-214.3 214.3 96 214.3 214.3 214.3z m270.1-121.1l108.2 108.3c31.9-60.3 50.3-129 50.3-201.5s-18.4-141.2-50.3-201.5l-108.2 108.3c10 29.6 15.6 60.8 15.6 93.2s-5.6 63.6-15.6 93.2z" /></svg>