<svg height="1000" width="1000.0" xmlns="http://www.w3.org/2000/svg"><path d="m150.7 449.8c-3.9-9.5-4.5-19-4.5-29 0-15.7 10.1-40.8 19.5-52.5-0.5-14.5 5.6-44.1 16.8-53.6 0-103.2 79.8-233.2 173-277.9 57.4-27.3 117.7-36.8 180.8-36.8 49.1 0 102.7 11.7 148.4 30.7 131.1 55.2 160.7 157.9 188.6 289.1l0.6 2.7c16.2 24.6 30.7 53.6 30.7 83.8 0 15-10.1 30.1-10.1 43.5 0 1.1 3.4 5.6 3.9 6.7 48 70.8 91.6 147.9 91.6 236 0 19.6-10.6 87.6-41.9 87.6-21.8 0-45.8-53-53.6-67.5-0.5-0.5-1.1-0.5-1.6-0.5l-2.8 2.2c-17.9 46.3-37.4 89.8-73.7 124.4 31.8 30.7 83.2 27.9 92.6 80.9-2.7 6.2-1.6 12.9-6.1 19-31.8 48-117.2 54.1-168.5 54.1-68.1 0-123.4-17.8-187.5-36.8-13.4-3.9-33.5-1.7-48-3.3-34.1 37.4-117.2 47.4-165.2 47.4-42.4 0-206.5-2.8-206.5-75.3 0-31.3 6.7-40.2 28.5-60.3 17.3-3.4 30.1-12.8 50.2-14 2.8 0 5-0.5 7.8-1.1 0.6-0.5 1.1-0.5 1.1-2.2l-1.1-1.7c-38.5-8.9-92.6-106-101-146.2l-2.8-1.7c-3.9 0-5.5 8.4-6.7 11.2-12.2 28.5-41.3 59.2-73.6 62.5h-0.6c-4.4 0-2.8-4.5-6.1-5.6-7.8-18.4-12.9-35.1-12.9-55.8 0-111.6 53.6-194.2 140.7-260z" /></svg>