<svg height="1000" width="1137.3" xmlns="http://www.w3.org/2000/svg"><path d="m681.9 518.4c145.1-5.6 225.5 113.9 291.3 224.3 39.1 66.5 84.8 105.5 141.2 155.2-60.3 37.4-136.7 62.5-201.5 91.5-107.1-89.8-44.6-446.4-216.5-446.4l-5.6 1.1-3.3 2.2c2.2 2.8 5 5.6 7.3 7.8 46.3 39.1 64.7 47.5 67.5 113.9l0.5 18.4c1.7 41.8-10.6 82.6-18.9 123.3-37.4-1.1-73.7 11.2-111.1 11.2-13.9 0-27.3-1.7-40.2-5.6-1.1-8.9-1.1-17.9-1.1-26.2 0-17.3-0.5-36.9 1.7-53.6 2.8-18.4 65.3-58 64.2-84.8-10.6-1.1-17.9 5-24 13.4-25.7 37.9-91.5 81.4-138.4 81.4-32.4 0-109.4-138.9-148.5-166.8-6.1-4.5-10-10.6-15-16.8-31.3 7.3-270.7 62.5-286.3 62.5-11.7 0-22.3-9.4-22.3-21.2 0-10.6 6.7-20.6 17.3-22.8l271.2-59.2c-18.4-33.5 24-34 41.8-39.1 6.2-1.6 12.3-7.8 18.5-7.8 12.2 0 22.8 17.3 26.7 27.4 12.3-2.8 88.8-20.7 96-20.7 12.3 0 23.5 9 23.5 21.8 0 10.6-6.7 20.1-17.9 22.3l-101.6 22.3-0.5 9c-0.6 19.5 88.1 116.6 103.8 116.6 35.1 0 106.6-80.9 106.6-116.6 0-59.7-83.2-24.6-83.2-65.3 0-6.7 2.2-12.9 5.6-19l-38-10.6c17.3-17.9 24-40.7 24-65.3 0-10.6-1.1-21.8-2.7-32.4 28.4-5.5 51.8-8.9 80.3-8.9 110.5 0 88.7 16.8 127.2 105.5l27.9-14c-4.4 66.4-70.3 34.1-68 60.3z m33.5-131.1c-21.8-25.1-31.2-37.4-44.1-43-13.4-6.1-30.7-4.5-70.9-4.5-41.8 0-83.1 6.2-121 24 12.2-22.8 25.6-32.9 50.2-42.4 53-20.1 78.1-59.1 114.4-99.3 18.9 13.4 27.3 46.9 54.7 45.2l6.7-0.6v42.5l12.2 0.5c72.6-27.9 145.1-58.6 207.1-106 93.7-71.4 102.6-97.1 157.9-194.2l3.9-5c-1.1 27.3-12.3 53-24 77.5-59.2 123.9-152.9 194.8-285.2 226.6-24 5.6-51.3 6.1-73.1 17.3 2.8 19 25.7 35.1 25.7 44.6 0 6.7-10.6 14-14.5 16.8z m-123.3 513.9c30.7-20.1 118.3-38.5 155.1-38.5 18.4 0 54.7 87.6 64.2 107.2-43.5 16.1-89.3 25.1-136.2 25.1-23.4 0-46.9-2.3-69.7-6.2z m-133.4-361l26.8-6.7 60.8 98.8-40.7 26.7z m279.6 288.5c0.5 2.8 1.7 6.1 1.7 8.9 0 14.5-96 24.6-113.3 27.4l-3.9-24c34.6-3.9 73.1-12.9 107.7-12.3h7.8z m-255-350.5l-53.6 11.2-3.4-9.5c12.9-1.1 24.6-7.2 37.4-7.2 7.3 0 13.4 1.6 19.6 5.5z m108.8 353.8h17.3l5.6 46.3-22.9 6.7v-53z m496.1-831.4v0-0.6 0.6z m0 0l-0.6 2.7-1.1 1.2 0.6-1.7z m0 0l0.5-0.6z" /></svg>