<svg height="1000" width="928.6" xmlns="http://www.w3.org/2000/svg"><path d="m435.3 263.4c0 62.5-32.4 136.7-104.4 136.7-90.4 0-145.1-113.8-145.1-192 0-62.5 32.4-136.7 104.4-136.7 90.9 0 145.1 113.9 145.1 192z m-190.9 269.5c0 54.2-28.4 110.5-89.8 110.5-89.3 0-154.6-109.4-154.6-190.3 0-54.1 29-111 89.8-111 89.3 0 154.6 109.9 154.6 190.8z m219.9-15c136.7 0 321.4 196.9 321.4 328.6 0 70.9-58 82.1-114.9 82.1-74.8 0-135.1-50.3-206.5-50.3-74.8 0-138.4 49.7-219.3 49.7-54.2 0-102.1-18.4-102.1-81.5 0-132.2 184.7-328.6 321.4-328.6z m133.4-117.8c-72 0-104.4-74.2-104.4-136.7 0-78.1 54.1-192 145.1-192 72 0 104.3 74.2 104.3 136.7 0 78.2-54.6 192-145 192z m241-58c60.9 0 89.9 56.9 89.9 111 0 80.9-65.3 190.3-154.6 190.3-61.4 0-89.8-56.3-89.8-110.5 0-80.9 65.2-190.8 154.5-190.8z" /></svg>