<svg height="1000" width="714.3" xmlns="http://www.w3.org/2000/svg"><path d="m713.2 105.5v40.7c0 19-15.1 51.9-34.1 51.9-9.5 0-20.6-1.7-30.1 0.6-8.9 2.2-15.6 8.3-17.9 17.3-2.8 10.6-1.6 24-1.6 35.7v642.8c0 19-15.1 34.1-34.1 34.1h-60.2c-19 0-34.1-15.1-34.1-34.1v-679.7h-79.8v679.7c0 19-15 34.1-34 34.1h-60.3c-19 0-34-15.1-34-34.1v-276.8c-54.2-4.4-100.5-15.6-136.7-32.9-46.9-21.7-82.6-55.2-107.2-99.9-23.4-42.9-35.7-91.5-35.7-144.5 0-61.9 16.7-115.5 49.1-159.6 32.9-44.1 72-73.7 116.6-88.7 41.9-14 130.1-20.7 232.7-20.7h267.3c19 0 34.1 15.1 34.1 34.1z" /></svg>