<svg height="1000" width="1000.0" xmlns="http://www.w3.org/2000/svg"><path d="m10.6 487.7c5.6-159.6 87.1-306.9 234.9-404 0.6 0 3.9-1.1 2.3 1.7-11.8 11.1-224.4 261.7-28.5 456.5 100.5 99.8 181.4 5 181.4 5 77.5-101-1.1-253.9-1.1-253.9-20.1-50.3-92.1-80.9-92.1-80.9l58-64.2c49.1 21.2 87.1 78.1 87.1 78.1 1.6-59.7-44.1-123.9-44.1-123.9l89.8-102.1 89.3 101c-41.3 58-44.1 126.1-44.1 126.1 27.9-46.3 87.6-79.2 87.6-79.2l57.5 64.2c-55.2 17.8-91.5 80.3-91.5 80.3-31.8 57.5-54.7 180.3 1.1 256.7 65.3 89.9 176.9-5.6 176.9-5.6 207-185.2-21.2-453.7-21.2-453.7-12.3-11.1 1.7-5.5 1.7-5.5 101 73.6 231 170.2 234.4 412.9 3.9 293.5-201.5 502.8-488.9 502.8-280.7 0-498.9-234.4-490.5-512.3z" /></svg>