<svg height="1000" width="1000.0" xmlns="http://www.w3.org/2000/svg"><path d="m466.5 652.3l-8.4 205.4-1.1 12.3-234.3-16.2c-29.1-2.2-53.1-29.6-63.7-54.1-22.3-51.9 6.7-113.3 23.5-163 0 0 42.9 6.7 284 15.6z m-215.9-327l100.4 211.5-82-51.3c-125.6 143.4-137.3 250-137.3 250l-106-199.2c-21.8-32.4-2.3-67.6-2.3-67.6s19.6-35.1 63.7-104.9l-78.2-48z m686.9 288.5l-104.9 200.4c-14.5 36.2-54.7 39.6-54.7 39.6s-39.6 3.9-122.2 6.7l4.5 91.5-128.4-204.8 117.8-202 3.9 96.5c189.1 22.9 284-27.9 284-27.9z m-438.1-515.6c0 0-26.2 34.6-147.8 242.8l-176.9-104.4-10.6-6.7 125.5-198.6c15.6-24.6 50.8-33.5 78.1-30.7 55.8 5 96 59.1 131.7 97.6z m365.6 171.3l118.3 202.6c15 25.1 6.1 60.3-8.4 83.7-30.1 46.9-97.1 58-147.3 72 0 0-19-39.6-147.9-243.3l174.7-108.8z m-79.8-126.1l79.2-46.3-122.8 208.1-233.8-11.1 84.3-48c-67-178-155.7-239.4-155.7-239.4l226 0.6c39.1-3.4 60.3 30.1 60.3 30.1s21.7 34 62.5 106z" /></svg>