<svg height="1000" width="1285.7" xmlns="http://www.w3.org/2000/svg"><path d="m437.5 765.6l8.9-134.5-8.9-291.8c-0.6-7.3-6.1-13.4-13.4-13.4-6.7 0-12.8 6.1-12.8 13.4l-7.8 291.8 7.8 134.5c0.5 7.3 6.1 12.9 12.8 12.9 7.3 0 12.8-5.6 13.4-12.9z m165.2-16.2l6.1-117.7-6.7-327c0-5.6-2.8-10.6-7.2-13.4-2.8-1.7-5.6-2.8-9-2.8s-6.1 1.1-8.9 2.8c-4.5 2.8-7.2 7.8-7.2 13.4l-0.6 3.3-5.6 323.1s0 0.6 6.2 131.7v0.6c0 3.3 1.1 6.7 3.3 9.5 3.4 3.9 7.8 6.1 12.8 6.1 4.5 0 8.4-2.2 11.2-5 3.3-2.8 5-6.7 5-11.2z m-583.2-189.7l11.2 71.4-11.2 70.4c-0.5 2.7-2.2 5-5 5s-4.5-2.3-5-5l-9.5-70.4 9.5-71.4c0.5-2.8 2.2-5 5-5s4.5 2.2 5 5z m48-44.1l14.5 115.5-14.5 113.3c-0.5 2.8-2.8 5-5.6 5s-5-2.2-5-5.5l-12.8-112.8 12.8-115.5c0-2.8 2.3-5 5-5s5.1 2.2 5.6 5z m156.3 252.8v0 0z m-104.9-274l13.9 136.7-13.9 132.3c0 3.3-2.8 6.1-6.2 6.1s-6.1-2.8-6.7-6.1l-11.7-132.3 11.7-136.7c0.6-3.9 3.4-6.7 6.7-6.7s6.2 2.8 6.2 6.7z m52.4-3.9l12.9 140.6-12.9 136.2c-0.5 4.5-3.9 7.3-7.8 7.3s-7.2-2.8-7.2-7.3l-11.8-136.2 11.8-140.6c0-4.5 3.3-7.2 7.2-7.2s7.3 2.7 7.8 7.2z m52.5 10.1l11.7 130.5-11.7 137.3c-0.6 5-4.5 8.9-9 8.9s-8.3-3.9-8.3-8.9l-11.2-137.3 11.2-130.5c0-4.5 3.9-8.4 8.3-8.4s8.4 3.9 9 8.4z m213.7 265v0 0z m-161.3-346.5l11.7 212-11.7 137.3v0c0 5.6-4.4 10.1-9.5 10.1-5.5 0-9.4-4.5-10-10.1l-10-137.3 10-212c0.6-5.6 4.5-10.1 10-10.1 5.1 0 9.5 4.5 9.5 10.1z m52.5-48l10.6 261.2-10.6 136.1v0c0 6.2-5 10.6-10.6 10.6-6.2 0-10.6-4.4-11.2-10.6l-8.9-136.1 8.9-261.2c0.6-6.1 5-10.6 11.2-10.6 5.6 0 10.6 4.5 10.6 10.6z m54.7-22.3l10 282.3-10 135.1v0c-0.6 6.7-5.6 11.7-12.3 11.7-6.1 0-11.2-5-11.7-11.7l-9-135.1 9-282.3c0-6.7 5.6-12.3 11.7-12.3 6.7 0 11.7 5.6 12.3 12.3z m218.7 414v0 0 0 0 0 0z m-110.5-416.3l8.4 284.6-8.4 133.4v0c0 7.8-6.1 14-13.9 14s-13.4-6.2-14-14l-7.8-133.4 7.8-284.6c0-7.8 6.2-13.9 14-13.9s13.9 6.1 13.9 13.9z m55.3 10.6l7.8 274.6-7.8 131.7v0c0 8.4-6.7 15.1-15.1 15.1s-15.1-6.7-15.6-15.1l-6.7-131.7 6.7-274.6c0.5-8.9 7.2-15.6 15.6-15.6s14.5 6.7 15.1 15.6z m118.3 274.6l-7.8 128.9v0 0c0 9.5-7.8 17.3-17.3 17.3s-17.3-7.8-17.9-17.3l-3.3-63.6-3.4-65.3 6.7-354.9v-1.7c0.6-5 2.8-10 6.7-13.4 2.8-2.2 6.7-3.9 11.2-3.9 2.8 0 6.1 1.1 8.3 2.8 5.1 2.8 8.4 8.4 9 14.5z m620.5-10.6c0 87-70.9 157.4-157.9 157.4h-438.6c-9.5-1.2-17.3-8.4-17.3-18.5v-501.6c0-9.5 3.3-14 15.6-18.4 30.7-12.3 65.3-19 101-19 145.7 0 265.1 111.6 277.9 253.9 19-7.8 39.6-12.3 61.4-12.3 87 0 157.9 70.9 157.9 158.5z" /></svg>