<svg height="1000" width="857.1" xmlns="http://www.w3.org/2000/svg"><path d="m196.4 785.7v71.4h-196.4v-71.4h196.4z m196.5-71.4c19.5 0 35.7 16.2 35.7 35.7v142.9c0 19.5-16.2 35.7-35.7 35.7h-142.9c-19.5 0-35.7-16.2-35.7-35.7v-142.9c0-19.5 16.2-35.7 35.7-35.7h142.9z m89.2-214.3v71.4h-482.1v-71.4h482.1z m-357.1-285.7v71.4h-125v-71.4h125z m732.1 571.4v71.4h-410.7v-71.4h410.7z m-535.7-642.8c19.6 0 35.7 16.1 35.7 35.7v142.8c0 19.6-16.1 35.7-35.7 35.7h-142.8c-19.6 0-35.7-16.1-35.7-35.7v-142.8c0-19.6 16.1-35.7 35.7-35.7h142.8z m357.2 285.7c19.5 0 35.7 16.2 35.7 35.7v142.8c0 19.6-16.2 35.8-35.7 35.8h-142.9c-19.5 0-35.7-16.2-35.7-35.8v-142.8c0-19.5 16.2-35.7 35.7-35.7h142.9z m178.5 71.4v71.4h-125v-71.4h125z m0-285.7v71.4h-482.1v-71.4h482.1z" /></svg>