<svg height="1000" width="1000.0" xmlns="http://www.w3.org/2000/svg"><path d="m882.8 324.8c0 75.3-61.4 136.1-136.1 136.1-75.4 0-136.2-60.8-136.2-136.1s60.8-136.2 136.2-136.2c74.7 0 136.1 60.8 136.1 136.2z m-429.7 414c0-77.5-61.9-139.5-139.5-139.5-10 0-20.1 1.1-30.1 3.4l58 23.4c56.9 22.9 84.8 87.1 62 144s-87.7 84.8-144.6 61.4c-22.9-9-45.7-18.4-68.6-27.4 23.4 44.1 69.7 74.2 123.3 74.2 77.6 0 139.5-61.9 139.5-139.5z m463.2-413.5c0-93.7-76.5-170.2-170.2-170.2-94.3 0-170.8 76.5-170.8 170.2 0 94.3 76.5 170.2 170.8 170.2 93.7 0 170.2-75.9 170.2-170.2z m83.7 0c0 140.7-113.8 253.9-253.9 253.9l-243.9 178.1c-8.9 95.9-90.4 171.3-188.6 171.3-90.4 0-166.8-64.2-185.3-149.6l-128.3-51.3v-239.4l217.1 87.6c28.4-17.3 61.4-26.8 96.5-26.8 6.7 0 13.4 0.6 19.5 1.1l158.5-227.1c1.1-138.9 115-251.7 254.5-251.7 140.1 0 253.9 113.9 253.9 253.9z" /></svg>