<svg height="1000" width="1071.4" xmlns="http://www.w3.org/2000/svg"><path d="m592.6 397.3v-65.8c0-31.3-25.6-56.9-56.9-56.9s-56.9 25.6-56.9 56.9v341.5c0 130.6-108.3 236-239.4 236-132.3 0-239.4-107.1-239.4-239.4v-148.4h183v146.2c0 31.8 25.7 56.9 57 56.9s56.9-25.1 56.9-56.9v-346c0-127.8 109.3-230.4 238.8-230.4 130 0 238.9 103.2 238.9 232.1v75.9l-108.9 32.4z m295.8 123.9h183v148.4c0 132.3-107.1 239.4-239.4 239.4-131.7 0-239.4-106-239.4-237.1v-149.6l73.1 34.1 108.9-32.4v150.7c0 31.2 25.6 56.3 56.9 56.3s56.9-25.1 56.9-56.3v-153.5z" /></svg>