<svg height="1000" width="928.6" xmlns="http://www.w3.org/2000/svg"><path d="m847.7 433c45.7 0 80.9 33.5 80.9 79.3 0 35.7-18.4 60.8-51.9 72.5l-96 32.9 31.2 93.2c2.8 8.4 3.9 17.3 3.9 26.3 0 44.1-35.7 80.9-79.8 80.9-35.1 0-66.4-21.8-77.5-55.3l-30.7-92-173 59.1 30.7 91.5c2.8 8.4 4.5 17.3 4.5 26.3 0 43.5-35.8 80.9-80.4 80.9-35.2 0-65.9-21.8-77-55.3l-30.7-90.9-85.4 29.5c-8.9 2.8-18.4 5.1-27.9 5.1-45.2 0-79.2-33.5-79.2-78.7 0-34.6 22.3-65.9 55.2-77l87.1-29.6-58.6-174.7-87.1 30.2c-8.9 2.8-17.8 4.4-26.8 4.4-44.6 0-79.2-34-79.2-78.7 0-34.6 22.3-65.8 55.2-77l87.7-29.5-29.6-88.8c-2.8-8.3-4.5-17.3-4.5-26.2 0-44.1 35.7-80.9 80.4-80.9 35.1 0 65.8 21.8 77 55.2l30.1 89.3 173-58.6-30.1-89.3c-2.8-8.3-4.5-17.3-4.5-26.2 0-44.1 36.3-80.9 80.4-80.9 35.1 0 66.4 22.3 77.5 55.2l29.6 89.9 90.4-30.7c7.8-2.2 15.6-3.4 24-3.4 43.5 0 80.9 32.4 80.9 77.1 0 34.6-26.8 63.6-58 74.2l-87.6 30.1 58.6 176.4 91.5-31.3c8.4-2.8 17.3-4.5 25.7-4.5z m-443.1 146.2l173-58.6-58.6-175.7-173 59.7z" /></svg>