<svg height="1000" width="1214.3" xmlns="http://www.w3.org/2000/svg"><path d="m346 625c-38.5 22.3-91 35.7-149.6 35.7h-71.4v-35.7h-35.7c-10.1 0-17.9-20.1-17.9-44.6 0-10.1 1.7-19.6 3.9-27.4-42.9-1.1-75.3-8.4-75.3-17.3s32.4-16.2 75.3-17.3c-2.2-7.8-3.9-17.3-3.9-27.3 0-24.6 7.8-44.7 17.9-44.7h35.7v-35.7h71.4c58.6 0 111.1 13.4 149.6 35.7h621.1c41.3 7.3 78.7 13.4 104.3 17.9 107.2 17.8 142.9 53.6 142.9 71.4s-35.7 53.6-142.9 71.4c-25.6 4.5-63 10.6-104.3 17.9h-621.1z m624.4-140.6c17.9 12.3 29.6 30.7 29.6 51.3s-11.7 39.1-29.6 51.4l45.2 16.7c22.9-16.2 38-40.7 38-68.1s-15.1-51.9-38-68.1z m-621.6 149.5h566.4s-121.1 21.2-254.5 44.7c-71.4 0-125 53.5-125 53.5l-160.7 160.8s-54.1 35.7-89.3 35.7h-53.6l-51.9-259h16.2c56.9 0 111.1-12.8 152.4-35.7z m-152.4-232.1h-16.2l51.9-258.9h53.6c36.3 0 71.4 17.8 89.3 35.7l160.7 160.7c0 0 53.6 53.6 125 53.6 133.4 23.4 254.5 44.6 254.5 44.6h-566.4c-41.3-22.9-95.5-35.7-152.4-35.7z" /></svg>