<?xml version="1.0" encoding="utf-8"?>
<!-- Generator: Adobe Illustrator 24.3.0, SVG Export Plug-In . SVG Version: 6.00 Build 0)  -->
<svg version="1.1" id="Calque_1" xmlns="http://www.w3.org/2000/svg" xmlns:xlink="http://www.w3.org/1999/xlink" x="0px" y="0px"
	 viewBox="0 0 1000 1000" style="enable-background:new 0 0 1000 1000;" xml:space="preserve">
<g>
	<path d="M906.3,960.4c-5.9-33.7-4.9-48.3-3.5-70.4c1.4-22.1,4.8-381.1,4-397.9c-0.8-16.7,4.9-38.9-42.9-105.3
		c-6.2-8.6-9.8-15.6-12.1-22.1h-94.3c-2.2,6.5-5.9,13.5-12.1,22.1c-47.8,66.4-42,88.6-42.9,105.3c-0.8,16.7,2.5,375.7,4,397.9
		c1.4,22.1,2.4,36.7-3.5,70.4c-5.9,33.8,13.7,38,21.4,39.6h160.4C892.6,998.5,912.2,994.2,906.3,960.4z M880.8,747.7H747V533.1
		h133.9v214.6H880.8z"/>
	<path d="M846.9,317.8c-1.8-19.1-2.5-77-2.3-94h0.4c3.3-4.1,4.2-19.8-0.4-25.2H844c-0.2-7.2,0.3-14.2,0.3-17.2
		c0-3.6-3.9-10.2-9.6-10.2h-60.1c-5.7,0-9.6,6.5-9.6,10.2c0,3,0.6,10,0.3,17.2h-0.6c-4.6,5.4-3.7,21.1-0.4,25.2h0.4
		c0.2,17-0.4,74.9-2.3,94c-1,10.9-1,19.4-1.4,27h87.3C847.9,337.1,848,328.7,846.9,317.8z"/>
</g>
<g>
	<path d="M296.9,960.4c-5.9-33.7-4.9-48.3-3.5-70.4c1.4-22.1,4.8-381.1,4-397.9c-0.8-16.7,4.9-38.9-42.9-105.3
		c-6.2-8.6-9.8-15.6-12.1-22.1h-94.3c-2.2,6.5-5.9,13.5-12.1,22.1c-47.8,66.4-42,88.6-42.9,105.3c-0.8,16.7,2.5,375.7,4,397.9
		c1.4,22.1,2.4,36.7-3.5,70.4c-5.9,33.8,13.7,38,21.4,39.6h160.4C283.2,998.5,302.8,994.2,296.9,960.4z M250.7,747.7H116.8V533.1
		h133.9V747.7z"/>
	<path d="M237.5,317.8c-1.8-19.1-2.5-77-2.3-94h0.4c3.3-4.1,4.2-19.8-0.4-25.2h-0.6c-0.2-7.2,0.3-14.2,0.3-17.2
		c0-3.6-3.9-10.2-9.6-10.2h-60.1c-5.7,0-9.6,6.5-9.6,10.2c0,3,0.6,10,0.3,17.2h-0.6c-4.6,5.4-3.7,21.1-0.4,25.2h0.4
		c0.2,17-0.4,74.9-2.3,94c-1,10.9-1,19.4-1.4,27h87.3C238.5,337.1,238.5,328.7,237.5,317.8z"/>
</g>
<g>
	<path d="M622.5,952.3c-7.1-40.7-5.9-58.3-4.2-85s5.7-459.8,4.8-480c-1-20.2,6-46.9-51.7-127c-7.4-10.3-11.9-18.8-14.6-26.6H443
		c-2.7,7.9-7.1,16.3-14.5,26.6c-57.7,80.2-50.7,106.8-51.7,127s3,453.3,4.8,480c1.7,26.7,2.9,44.3-4.2,85
		c-7.1,40.8,16.5,45.9,25.8,47.7h193.6C606,998.2,629.6,993,622.5,952.3z M593.2,695.7H406.8v-259h186.5V695.7z"/>
	<path d="M447.2,209.5h105.3c-0.5-9.2-0.4-19.4-1.7-32.6c-2.2-23.1-3-92.9-2.8-113.4h0.5c4-4.9,5-23.9-0.5-30.4h-0.7
		c-0.3-8.7,0.4-17.1,0.4-20.8c0-4.4-4.6-12.3-11.6-12.3h-72.5c-6.9,0-11.6,7.9-11.6,12.3c0,3.7,0.7,12,0.4,20.8h-0.7
		c-5.5,6.5-4.5,25.5-0.5,30.4h0.5c0.2,20.5-0.5,90.3-2.8,113.4C447.6,190.1,447.7,200.3,447.2,209.5z"/>
</g>
</svg>
