<svg height="1000" width="857.1" xmlns="http://www.w3.org/2000/svg"><path d="m835.4 461.5v110.5c-39.1 8.9-78.1 12.8-110.5 12.8-78.1 164.1-218.2 304.7-265.1 330.9-29.6 16.8-57.5 17.9-90.4-1.6-57.5-34.6-275.1-213.2-347.6-774.6h157.9c39.6 337.1 136.7 510.1 243.3 639.5 59.1-59.1 116.1-137.8 160.1-226.5-105.4-53.6-169.6-171.4-169.6-308.6 0-139 79.8-243.9 216.5-243.9 132.8 0 205.4 82.6 205.4 224.9 0 53-11.2 113.3-32.4 159.6 0 0-98.2 19.5-134.5-43.5 7.3-24 17.3-65.3 17.3-102.7 0-66.4-24-98.8-60.2-98.8-38.5 0-65.3 36.3-65.3 106 0 142.3 90.4 223.8 207.6 223.8 20.6 0 44-2.2 67.5-7.8z" /></svg>