<svg height="1000" width="857.1" xmlns="http://www.w3.org/2000/svg"><path d="m542.4 432.5c0-80.4-41.8-128.4-112.2-128.4-92.6 0-191.9 92.1-191.9 241.1 0 83.1 41.3 130.6 113.8 130.6 112.2 0 190.3-128.4 190.3-243.3z m314.7 67.5c0 173.5-123.8 238.8-229.9 242.2-7.2 0-10 0.5-17.8 0.5-34.6 0-62-10-79.3-29.5-10.6-12.3-16.7-27.9-18.4-46.3-34.6 43.5-94.8 85.9-170.2 85.9-120 0-188.6-74.2-188.6-203.7 0-178 123.3-322.5 274-322.5 65.3 0 117.7 27.9 145.6 75.3l1.2-10.6 6.1-31.3c0.6-4.4 4.5-10 8.4-10h65.8c2.8 0 5.6 3.9 7.3 6.1 1.6 1.7 2.2 6.2 1.6 9l-66.9 342.6c-2.3 10.6-2.8 19-2.8 26.8 0 30.1 8.9 36.3 31.8 36.3 37.9-1.2 160.7-16.8 160.7-170.8 0-217.1-140.1-357.1-357.1-357.1-197 0-357.2 160.1-357.2 357.1s160.2 357.1 357.2 357.1c82 0 162.4-28.4 226-80.3 7.8-6.7 18.9-5.6 25.1 2.2l22.9 27.4c2.8 3.9 4.4 8.3 3.9 13.4-0.6 4.4-2.8 8.9-6.7 12.2-75.9 62-172.5 96.6-271.2 96.6-236.1 0-428.6-192.6-428.6-428.6s192.5-428.6 428.6-428.6c256.1 0 428.5 172.5 428.5 428.6z" /></svg>