<?xml version="1.0" encoding="utf-8"?>
<!-- Generator: Adobe Illustrator 24.3.0, SVG Export Plug-In . SVG Version: 6.00 Build 0)  -->
<svg version="1.1" id="Calque_1" xmlns="http://www.w3.org/2000/svg" xmlns:xlink="http://www.w3.org/1999/xlink" x="0px" y="0px"
	 viewBox="0 0 1000 1000" style="enable-background:new 0 0 1000 1000;" xml:space="preserve">
<g>
	<path d="M622.5,952.3c-7.1-40.7-5.9-58.3-4.2-85s5.7-459.8,4.8-480c-1-20.2,6-46.9-51.7-127c-7.4-10.3-11.9-18.8-14.6-26.6H443
		c-2.7,7.9-7.1,16.3-14.5,26.6c-57.7,80.2-50.7,106.8-51.7,127s3,453.3,4.8,480c1.7,26.7,2.9,44.3-4.2,85
		c-7.1,40.8,16.5,45.9,25.8,47.7h193.6C606,998.2,629.6,993,622.5,952.3z M593.2,695.7H406.8v-259h186.5V695.7z"/>
	<path d="M447.2,209.5h105.3c-0.5-9.2-0.4-19.4-1.7-32.6c-2.2-23.1-3-92.9-2.8-113.4h0.5c4-4.9,5-23.9-0.5-30.4h-0.7
		c-0.3-8.7,0.4-17.1,0.4-20.8c0-4.4-4.6-12.3-11.6-12.3h-72.5c-6.9,0-11.6,7.9-11.6,12.3c0,3.7,0.7,12,0.4,20.8h-0.7
		c-5.5,6.5-4.5,25.5-0.5,30.4h0.5c0.2,20.5-0.5,90.3-2.8,113.4C447.6,190.1,447.7,200.3,447.2,209.5z"/>
</g>
</svg>
