<svg height="1000" width="857.1" xmlns="http://www.w3.org/2000/svg"><path d="m839.3 821.4c0 19.6-16.2 35.7-35.7 35.7h-257.8c1.6 35.8 6.1 73.1 6.1 109.4 0 18.4-15.1 33.5-34 33.5h-178.6c-19 0-34.1-15.1-34.1-33.5 0-36.3 4.5-73.6 6.2-109.4h-257.8c-19.6 0-35.7-16.1-35.7-35.7 0-9.5 3.9-18.4 10.6-25.1l224.3-224.9h-127.8c-19.5 0-35.7-16.2-35.7-35.7 0-9.5 3.9-18.4 10.6-25.1l224.3-224.9h-109.9c-19.5 0-35.7-16.2-35.7-35.7 0-9.5 3.9-18.4 10.6-25.1l214.3-214.3c6.7-6.7 15.6-10.6 25.1-10.6s18.4 3.9 25.1 10.6l214.3 214.3c6.7 6.7 10.6 15.6 10.6 25.1 0 19.5-16.2 35.7-35.7 35.7h-110l224.4 224.9c6.7 6.7 10.6 15.6 10.6 25.1 0 19.5-16.2 35.7-35.8 35.7h-127.7l224.3 224.9c6.7 6.7 10.6 15.6 10.6 25.1z" /></svg>