<svg height="1000" width="1285.7" xmlns="http://www.w3.org/2000/svg"><path d="m174.7 433.6c0 17.9-7.3 35.2-20.1 46.9-11.2 10-26.3 14.5-49.7 14.5h-9.5v-122.8h9.5c23.4 0 38 3.9 49.7 15.1 12.8 11.1 20.1 28.4 20.1 46.3z m991-36.3c0 19-12.2 29-35.7 29h-10.6v-56.3h11.2c22.9 0 35.1 9.5 35.1 27.3z m-953.6 36.3c0-54.7-40.8-93.2-99.9-93.2h-53v185.8h53c27.9 0 48.5-6.1 66.4-21.2 21.2-17.8 33.5-44.1 33.5-71.4z m16.7 92.6h36.3v-185.8h-36.3v185.8z m178.6-56.3c0-29.6-12.3-43-53.6-58.1-21.8-7.8-27.9-13.4-27.9-23.4 0-11.7 11.2-20.7 26.8-20.7 11.1 0 20.1 4.5 29.6 15.1l18.9-24.5c-15.6-14-34.6-20.7-54.7-20.7-32.9 0-58 22.9-58 53 0 25.7 11.7 39.1 45.8 51.4 13.9 5 21.2 7.8 25.1 10.6 7.2 4.4 10.6 11.1 10.6 18.9 0 15.1-11.7 26.3-27.9 26.3-17.3 0-31.3-8.4-39.6-24.6l-23.5 22.3c16.8 24.6 36.8 35.7 64.2 35.7 37.9 0 64.2-25.1 64.2-61.3z m155.1 50.2v-43c-14.5 14.5-27.3 20.7-43.5 20.7-36.9 0-62.5-26.8-62.5-64.2 0-35.7 26.8-64.2 60.8-64.2 17.3 0 30.1 6.2 45.2 21.2v-42.9c-15.6-7.9-29-11.2-44.6-11.2-54.7 0-98.8 43-98.8 97.1 0 54.7 43 97.1 98.2 97.1 15.6 0 29-2.8 45.2-10.6z m687.5 337v-294c-89.3 55.8-403.5 234.3-911.3 329.8h875.6c19.5 0 35.7-16.2 35.7-35.8z m-474.9-422.4c0-55.8-45.2-101-101-101s-101 45.2-101 101 45.2 101 101 101 101-45.2 101-101z m84.8 96.6l80.4-190.9h-39.6l-50.3 125-49.6-125h-39.6l79.2 190.9h19.5z m96.6-5.1h102.7v-31.2h-66.5v-50.2h64.2v-31.3h-64.2v-41.3h66.5v-31.8h-102.7v185.8z m218.2 0h44.6l-58.6-78.1c27.4-5.6 42.4-24 42.4-52.5 0-35.1-24-55.2-65.8-55.2h-54.2v185.8h36.3v-74.2h5z m111-380v707.6c0 41.3-32.9 74.8-73.6 74.8h-1138.4c-40.8 0-73.7-33.5-73.7-74.8v-707.6c0-41.3 32.9-74.8 73.7-74.8h1138.4c40.7 0 73.6 33.5 73.6 74.8z" /></svg>