<svg height="1000" width="1285.7" xmlns="http://www.w3.org/2000/svg"><path d="m374.4 520.6h-7.2c-17.3 0-26.2 6.2-26.2 17.9 0 7.3 3.9 12.3 11.1 12.3 12.9 0 21.8-12.3 22.3-30.2z m220.5-20h34.6c0-2.3 3.3-21.2-14.5-21.2-10.1 0-17.3 7.8-20.1 21.2z m301.3 20h-6.7c-17.8 0-26.8 6.2-26.8 17.9 0 7.3 4.5 12.3 11.2 12.3 12.8 0 21.7-12.3 22.3-30.2z m178-14.5c0-15-6.1-22.8-16.7-22.8-14 0-24 16.1-24 39.6 0 15.6 5 23.4 15.6 23.4 14.5 0 25.1-16.2 25.1-40.2z m-806.3-78.6h48.5l-24.5 146.2h-31.3l17.9-112.2-39.7 112.2h-21.7l-2.3-111.6-18.9 111.6h-29.6l24.5-146.2h45.2l1.2 90.9z m141.1 59.7c0 6.1-1.1 13.4-2.2 23.4-2.8 17.3-8.9 54.1-9.5 63.1h-26.2l0.6-12.3c-7.9 10-18.5 14.5-32.4 14.5-17.3 0-29-13.4-29-32.4 0-29 20.6-45.7 55.2-45.7 3.4 0 7.8 0 12.8 0.5 0.6-3.9 1.2-5.6 1.2-7.2 0-8.4-5.6-11.2-20.1-11.2-15.6 0-27.9 3.9-32.9 5.6 0 0 0-2.2 3.9-26.8 15.6-4.5 26.2-6.1 37.3-6.1 27.4 0 41.3 11.7 41.3 34.6z m87.1-32.4l-4.5 27.3c-8.3-1.1-16.7-1.6-22.8-1.6-10.1 0-15.1 3.3-15.1 9.5 0 5.5 1.1 7.2 14.5 12.8 15.6 7.2 22.3 17.3 22.3 33.5 0 27.3-15.6 40.2-48.5 39.6-19 0-25.7-1.7-32.4-3.4 0 0 0-1.1 3.9-27.3 10 2.8 19 4.5 28.5 4.5 12.2 0 17.8-3.4 17.8-10.6 0-5.6-2.2-7.3-14.5-13.4-16.7-7.8-24-17.9-24-33 0-22.3 11.7-40.1 46.9-40.1 7.2 0 19.5 0.5 27.9 2.2z m49.1 0h15.6l-3.9 29h-16.2c-3.3 22.3-8.9 50.8-8.9 54.1 0 6.2 3.4 9 10.6 9 3.9 0 6.7-0.6 8.9-1.1l-4.4 26.2c-8.4 2.8-15.1 3.9-22.3 3.9-16.2 0-24.6-8.9-25.2-26.2 0-5.1 2.3-19 4.5-31.3 0 0 1.7-11.1 14-81.5h30.6z m113.3 40.7c0 8.4-1.1 17.3-3.9 29.1h-62c-2.2 17.3 9 24.5 26.8 24.5 11.2 0 21.2-2.2 32.4-7.8l-5 30.1c-10.6 2.8-21.2 4.5-31.8 4.5-35.2 0-53.1-18.4-53.1-53 0-40.8 22.9-70.3 54.2-70.3 25.6 0 42.4 16.7 42.4 42.9z m77.5-41.3c-3.9 6.7-8.9 19.6-12.2 34.6-17.3-1.6-20.1 12.3-31.3 84.9h-31.2l1.6-7.9c6.2-36.8 12.3-74.2 16.2-111h28.5c0.5 6.1-1.1 12.3-1.7 18.4 9.5-14.5 16.8-21.7 30.1-19z m104.4-22.8l-5 31.8c-11.2-5.6-19-7.8-27.9-7.8-23.5 0-39.6 22.8-39.6 54.6 0 22.4 10.6 35.8 29 35.8 7.8 0 16.2-2.3 26.8-7.3l-5.6 32.9c-11.7 3.4-19 4.5-27.9 4.5-33.5 0-54.7-24-54.7-63.1 0-52.4 29-88.7 70.9-88.7 13.4 0 29.5 5.6 34 7.3z m90.4 55.8c0 6.1-0.6 13.4-2.2 23.4-2.8 17.3-8.4 54.1-9.5 63.1h-25.7l0.6-12.3c-7.8 10-18.4 14.5-33 14.5-17.2 0-28.4-13.4-28.4-32.4 0-29 20.1-45.7 54.7-45.7 3.9 0 8.3 0 12.8 0.5 1.1-3.9 1.1-5.6 1.1-7.2 0-8.4-5.6-11.2-20.1-11.2-15 0-27.9 3.9-32.9 5.6 0 0 0-2.2 4.5-26.8 15.6-4.5 25.6-6.1 37.4-6.1 26.8 0 40.7 11.7 40.7 34.6z m78.7-33c-3.9 6.7-8.9 19.6-11.7 34.6-17.9-1.6-20.1 12.3-31.8 84.9h-31.3l1.7-7.9c6.7-36.8 12.3-74.2 16.2-111h29c0 6.1-1.1 12.3-2.2 18.4 10-14.5 17.3-21.7 30.1-19z m78.7-26.7h31.2l-24 146.2h-29.6l1.7-10.6c-8.9 8.9-17.3 12.8-29 12.8-22.9 0-37.9-19.5-37.9-49.1 0-39.6 23.4-73.1 51.3-73.1 11.7 0 21.2 5 29.6 16.2z m61.9 72.5c0-167.4-135.6-303.6-303.6-303.6-68.6 0-131.7 22.9-183 61.4v0c45.8 41.9 79.2 96.6 95.4 158.5h-27.9c-16.2-55.3-46.8-103.8-88.1-141.2-41.3 37.4-72 85.9-88.2 141.2h-27.9c16.2-61.9 49.7-116.6 95.4-158.5v0c-51.3-38.5-114.4-61.4-183-61.4-168 0-303.6 136.2-303.6 303.6s135.6 303.6 303.6 303.6c68.6 0 131.7-22.9 183-61.4v0c-43-39.6-75.3-90.4-92.1-147.3h27.9c16.8 50.2 46.4 95.4 84.9 130 38.5-34.6 68-79.8 84.8-130h27.9c-16.8 56.9-49.1 107.7-92.1 147.3v0c51.3 38.5 114.4 61.4 183 61.4 168 0 303.6-136.2 303.6-303.6z m135.6-357.1v714.2c0 39.1-32.4 71.5-71.4 71.5h-1142.9c-39 0-71.4-32.4-71.4-71.5v-714.2c0-39.1 32.4-71.5 71.4-71.5h1142.9c39 0 71.4 32.4 71.4 71.5z" /></svg>