<svg height="1000" width="1285.7" xmlns="http://www.w3.org/2000/svg"><path d="m425.2 642.9h-175.2c-29.6 0-46.3-33.5-28.5-57l105-140c-23.5-11.2-49.2-17.3-76.5-17.3-98.2 0-178.6 80.3-178.6 178.5s80.4 178.6 178.6 178.6c86.5 0 158.5-61.4 175.2-142.8z m-103.8-71.5h103.8c-6.7-31.2-21.2-59.7-41.8-82.6z m267.9 0l160.7-214.3h-267.9l-55.2 73.7c37.4 36.8 62.5 85.9 70.3 140.6h92.1z m625 35.7c0-98.2-80.4-178.5-178.6-178.5-24 0-46.3 5-67.5 13.4l97.1 145.1c11.2 16.7 6.7 39-9.5 49.6-6.1 4.5-13.4 6.2-20.1 6.2-11.7 0-22.9-5.6-29.6-16.2l-97.1-145.1c-31.8 32.4-51.9 76.4-51.9 125.5 0 98.3 80.4 178.6 178.6 178.6s178.6-80.3 178.6-178.6z m71.4 0c0 137.9-112.2 250-250 250s-250-112.1-250-250c0-73.6 32.4-140 83.2-185.8l-36.3-54.7-197 261.7c-6.7 9.5-17.3 14.6-28.5 14.6h-109.9c-17.3 121.1-121.1 214.2-247.2 214.2-137.8 0-250-112.1-250-250s112.2-250 250-250c43.5 0 84.3 11.2 120 30.7l76.4-102.1h-125c-19.5 0-35.7-16.2-35.7-35.7s16.2-35.7 35.7-35.7h214.3v71.4h242.8l-47.5-71.4h-123.9c-19.5 0-35.7-16.2-35.7-35.7s16.2-35.7 35.7-35.7h142.9c11.7 0 22.9 6.1 29.6 15.6l149 223.2c32.3-15.6 68.6-24.6 107.1-24.6 137.8 0 250 112.2 250 250z" /></svg>