<svg height="1000" width="1285.7" xmlns="http://www.w3.org/2000/svg"><path d="m1102.1 552.5h-77c0 0 7.8-20.7 36.8-99.9-0.5 0.5 7.9-20.7 12.3-34.1l6.7 30.7c17.3 85.4 21.2 103.3 21.2 103.3z m-805.8-36.3l-32.3-164.6c-4.5-22.9-21.8-30.2-41.9-30.2h-149.6l-1.1 7.3c102.7 26.2 187 82 224.9 187.5z m99.9-194.8l-90.4 244.4-9.5-49.6c-19.5-51.9-66.9-99.9-120.5-121.7l75.3 284.6h97.7l145.6-357.7h-98.2z m77.6 358.3h92.6l58-358.3h-92.6z m428.5-349.3c-18.4-7.3-47.4-15.1-83.1-15.1-91.5 0-155.7 48.5-156.3 118.3-0.5 51.3 45.8 79.8 81 97.1 36.2 17.3 48 29 48 44.6 0 24-29.1 34.6-55.3 34.6-37.4 0-57.5-4.4-87-18.4l-12.3-6.1-12.9 80.3c21.8 10.1 61.4 19 103.3 19 97.1 0.6 160.1-48 161.3-122.2 0-40.7-25.2-71.4-78.2-97.1-32.3-16.2-51.9-27.9-51.9-44.6 0-15.1 16.8-30.7 53-30.7 30.2-0.6 52.5 5.5 69.2 13.4l8.4 4.4z m237.2-9h-71.4c-22.3 0-39.1 6.7-48.6 30.2l-137.2 328.1h97.1c15.6-44.1 19.5-53.6 19.5-53.6h118.3c0 0 2.8 12.3 11.1 53.6h86z m146.2-178.5v714.2c0 39.1-32.4 71.5-71.4 71.5h-1142.9c-39 0-71.4-32.4-71.4-71.5v-714.2c0-39.1 32.4-71.5 71.4-71.5h1142.9c39 0 71.4 32.4 71.4 71.5z" /></svg>