<svg height="1000" width="857.1" xmlns="http://www.w3.org/2000/svg"><path d="m214.3 678.6c0-39.6-31.8-71.5-71.4-71.5s-71.5 31.9-71.5 71.5 31.8 71.4 71.5 71.4 71.4-31.8 71.4-71.4z m571.4 0c0-39.6-31.8-71.5-71.4-71.5s-71.4 31.9-71.4 71.5 31.8 71.4 71.4 71.4 71.4-31.8 71.4-71.4z m-25.7-221l-40.1-214.3c-3.4-16.7-17.9-29-35.2-29h-512.3c-17.3 0-31.8 12.3-35.1 29l-40.2 214.3c-3.9 22.3 12.8 42.4 35.2 42.4h592.6c22.3 0 39.1-20.1 35.1-42.4z m-126.1-341.5c0-15.1-11.7-26.8-26.8-26.8h-357.1c-14.5 0-26.8 11.7-26.8 26.8s12.3 26.8 26.8 26.8h357.1c15.1 0 26.8-11.8 26.8-26.8z m223.2 404.5v336.5h-71.4v71.5c0 39.6-31.8 71.4-71.4 71.4s-71.4-31.8-71.4-71.4v-71.5h-428.6v71.5c0 39.6-31.8 71.4-71.4 71.4s-71.5-31.8-71.5-71.4v-71.5h-71.4v-336.5c0-45.7 3.9-79.8 14-124.4l57.4-253.3c10.6-89.3 166.9-142.9 357.2-142.9s346.5 53.6 357.1 142.9l58.6 253.3c10.1 44.6 12.8 78.7 12.8 124.4z" /></svg>