<svg height="1000" width="1285.7" xmlns="http://www.w3.org/2000/svg"><path d="m66.4 380.6h49.7l-25.1-60.3z m346.5 293.5l41.3-44.1-39-44.1h-91v27.4h79.3v30.7h-79.3v30.1h88.7z m88.2-43.5l55.3 61.4v-121.1z m160.7-26.2c0-13.4-10-18.5-22.3-18.5h-46.9v38.5h46.4c12.8 0 22.8-6.1 22.8-20z m161.3-2.3c0-13.9-12.3-16.2-23.4-16.2h-45.8v34.1h45.2c12.3 0 24-2.8 24-17.9z m-155.1-260c0-14-12.3-16.2-23.5-16.2h-45.7v33.5h45.2c12.3 0 24-2.8 24-17.3z m256.1 38.5h49.7l-24.6-60.3z m-534-86.5v151.2h-36.9v-118.3l-52.4 118.3h-31.8l-52.5-118.3v118.3h-73.6l-14-33.5h-75.3l-14 33.5h-39l64.7-151.2h53.6l61.3 143.4v-143.4h59.2l47.4 102.7 43-102.7h60.3z m310.2 310.3c0 60.8-66.4 50.7-107.7 50.7v50.8h-70.3l-44.6-50.2-46.3 50.2h-142.9v-151.2h145.1l44.6 49.7 45.8-49.7h115.5c34 0 60.8 11.7 60.8 49.7z m-162.4-190.3v31.2h-121v-151.2h121v31.8h-84.8v27.3h82.6v30.7h-82.6v30.2h84.8z m747.8 311.9v127.8c0 40.7-32.9 74.8-73.6 74.8h-1138.4c-40.8 0-73.7-34.1-73.7-74.8v-378.4h61.9l14-34h30.7l13.9 34h121.7v-25.6l10.6 25.6h63l11.2-26.2v26.2h301.9v-55.2l5.6-0.6c5 0 5.6 3.9 5.6 7.9v47.9h155.7v-12.8c36.2 19 85.9 12.8 123.8 12.8l14-34h31.2l14 34h126.7v-32.3l18.9 32.3h101.6v-210.9h-100.4v24.6l-14-24.6h-103.2v24.6l-12.9-24.6h-138.9c-20.7 0-42.4 2.2-60.8 12.3v-12.3h-96v12.3c-11.2-10.1-26.3-12.3-40.8-12.3h-350.4l-24 54.1-24-54.1h-110.5v24.6l-12.3-24.6h-94.3l-43.5 99.9v-218.2c0-40.7 32.9-74.8 73.7-74.8h1138.4c40.7 0 73.6 34.1 73.6 74.8v378.4h-67c-15.6 0-32.3 2.7-45.2 12.2v-12.2h-98.7c-14 0-32.9 2.2-43.6 12.2v-12.2h-176.3v12.2c-13.4-9.5-32.9-12.2-48.5-12.2h-116.7v12.2c-11.7-11.1-35.7-12.2-50.7-12.2h-130.6l-30.2 32.3-27.9-32.3h-194.7v210.9h191.4l30.7-32.9 29 32.9h117.7v-49.7h11.8c16.7 0 34-0.5 50.2-7.2v56.9h97.1v-55.3h4.4c5.6 0 6.7 0.6 6.7 6.7v48.6h295.2c16.2 0 36.3-3.4 49.2-13.4v13.4h93.7c17.9 0 36.8-1.7 53-9.5z m-423-130.6c0 16.8-8.9 33.5-25.6 40.2 20 7.3 23.9 20.7 23.9 40.2v30.1h-36.2v-25.1c0-25.7-8.4-30.1-32.4-30.1h-38.5v55.2h-36.3v-151.2h86c28.4 0 59.1 5 59.1 40.7z m-154.6-260.6c0 17.3-9.4 34.1-25.6 40.8 20.6 7.2 24 20 24 40.1v29.6h-36.3c-0.6-32.4 7.8-54.7-32.4-54.7h-39v54.7h-35.7v-151.2l85.3 0.5c29.1 0 59.7 4.5 59.7 40.2z m295.2 339.9v31.2h-120.5v-151.2h120.5v31.2h-84.2v27.4h82.6v30.7h-82.6v30.1z m-237.7-380.6v151.2h-36.8v-151.2h36.8z m386.7 363.8c0 35.7-24.5 48-56.9 48h-70.3v-32.4h70.3c9 0 19-2.2 19-13.9 0-32.4-93.2 12.3-93.2-59.7 0-30.7 23.4-45.2 51.3-45.2h72.6v31.8h-66.4c-9.5 0-20.1 1.7-20.1 13.9 0 33 93.7-15 93.7 57.5z m133.4-27.9v56.4c-10.6 15.6-31.2 19.5-49.1 19.5h-69.7v-32.4h69.7c8.9 0 18.4-2.7 18.4-13.9 0-31.8-93.2 12.3-93.2-59.7 0-30.7 24-45.2 51.9-45.2h72v31.8h-65.8c-10.1 0-20.1 1.7-20.1 13.9 0 26.8 63-0.5 85.9 29.6z m-92.1-335.4v150.7h-51.3l-68.1-113.3v113.3h-73.6l-14.6-33.5h-74.7l-14 33.5h-41.8c-49.7 0-72-25.7-72-74.2 0-50.8 22.9-77 74.2-77h35.2v32.9c-38-0.5-72.6-8.9-72.6 43 0 25.6 6.2 43.5 35.2 43.5h16.2l51.3-118.9h54.1l60.8 142.9v-142.9h55.3l63.6 105v-105h36.8z" /></svg>