<?xml version="1.0" encoding="utf-8"?>
<!-- Generator: Adobe Illustrator 24.3.0, SVG Export Plug-In . SVG Version: 6.00 Build 0)  -->
<svg version="1.1" id="Calque_1" xmlns="http://www.w3.org/2000/svg" xmlns:xlink="http://www.w3.org/1999/xlink" x="0px" y="0px"
	 viewBox="0 0 1000 1000" style="enable-background:new 0 0 1000 1000;" xml:space="preserve">
<path d="M250,857.1c0-39.6-31.8-71.4-71.4-71.4s-71.5,31.8-71.5,71.4s31.8,71.5,71.5,71.5S250,896.8,250,857.1L250,857.1z
	 M464.3,857.1c0-39.6-31.8-71.4-71.5-71.4s-71.4,31.8-71.4,71.4s31.8,71.5,71.4,71.5S464.3,896.8,464.3,857.1z M250,642.9
	c0-39.7-31.8-71.5-71.4-71.5s-71.5,31.8-71.5,71.5s31.8,71.4,71.5,71.4S250,682.5,250,642.9L250,642.9z M678.6,857.1
	c0-39.6-31.9-71.4-71.5-71.4s-71.4,31.8-71.4,71.4s31.8,71.5,71.4,71.5S678.6,896.8,678.6,857.1z M464.3,642.9
	c0-39.7-31.8-71.5-71.5-71.5s-71.4,31.8-71.4,71.5s31.8,71.4,71.4,71.4S464.3,682.5,464.3,642.9z M250,428.6
	c0-39.6-31.8-71.5-71.4-71.5s-71.5,31.9-71.5,71.5s31.8,71.4,71.5,71.4S250,468.2,250,428.6L250,428.6z M678.6,642.9
	c0-39.7-31.9-71.5-71.5-71.5s-71.4,31.8-71.4,71.5s31.8,71.4,71.4,71.4S678.6,682.5,678.6,642.9z M464.3,428.6
	c0-39.6-31.8-71.5-71.5-71.5s-71.4,31.9-71.4,71.5s31.8,71.4,71.4,71.4S464.3,468.2,464.3,428.6z M892.8,857.1V642.9
	c0-39.1-32.3-71.5-71.4-71.5l0,0c-39,0-71.4,32.4-71.4,71.5v214.2c0,39.1,32.4,71.5,71.4,71.5l0,0
	C860.5,928.6,892.8,896.2,892.8,857.1z M678.6,428.6c0-39.6-31.9-71.5-71.5-71.5s-71.4,31.9-71.4,71.5s31.8,71.4,71.4,71.4
	S678.6,468.2,678.6,428.6z M892.8,250V107.1c0-19.5-16.1-35.7-35.7-35.7H142.8c-19.5,0-35.7,16.2-35.7,35.7V250
	c0,19.5,16.2,35.7,35.7,35.7h714.3C876.7,285.7,892.8,269.5,892.8,250L892.8,250z M892.8,428.6c0-39.6-31.8-71.5-71.4-71.5
	S750,389,750,428.6s31.8,71.4,71.4,71.4S892.8,468.2,892.8,428.6z M964.3,71.4v857.2c0,39-32.4,71.4-71.5,71.4H107.1
	c-39,0-71.4-32.4-71.4-71.4V71.4c0-39,32.4-71.4,71.4-71.4h785.7C931.9,0,964.3,32.4,964.3,71.4z"/>
</svg>
