<svg height="1000" width="1000.0" xmlns="http://www.w3.org/2000/svg"><path d="m1000 785.7v214.3h-1000v-214.3c54.7 0 83.7-24.5 106.6-44.1 19-16.7 31.8-27.3 60.3-27.3s40.7 10.6 60.2 27.3c22.9 19.6 51.4 44.1 106.6 44.1 54.7 0 83.2-24.5 106.6-44.1 19-16.7 31.2-27.3 59.7-27.3s41.3 10.6 60.3 27.3c22.8 19.6 51.9 44.1 106.6 44.1s83.7-24.5 106.5-44.1c19-16.7 31.8-27.3 60.3-27.3 27.9 0 40.7 10.6 59.7 27.3 22.9 19.6 51.9 44.1 106.6 44.1z m0-178.6v107.2c-28.5 0-40.7-10.6-60.3-27.4-22.8-19.5-51.3-44-106-44-55.2 0-83.7 24.5-106.6 44-19.5 16.8-31.8 27.4-60.2 27.4s-41.3-10.6-60.3-27.4c-22.9-19.5-51.4-44-106.6-44-54.7 0-83.1 24.5-106.6 44-19 16.8-31.2 27.4-59.7 27.4s-41.3-10.6-60.3-27.4c-22.8-19.5-51.9-44-106.5-44-55.3 0-83.8 24.5-106.6 44-19 16.8-31.8 27.4-60.3 27.4v-107.2c0-59.1 48-107.1 107.1-107.1h35.8v-250h142.8v250h142.9v-250h142.8v250h142.9v-250h142.8v250h35.8c59.1 0 107.1 48 107.1 107.1z m-714.3-482.1c0 59.2-31.8 89.3-71.4 89.3s-71.4-31.8-71.4-71.4c0-69.2 71.4-51.4 71.4-142.9 26.8 0 71.4 65.8 71.4 125z m285.7 0c0 59.2-31.8 89.3-71.4 89.3s-71.4-31.8-71.4-71.4c0-69.2 71.4-51.4 71.4-142.9 26.8 0 71.4 65.8 71.4 125z m285.7 0c0 59.2-31.8 89.3-71.4 89.3s-71.4-31.8-71.4-71.4c0-69.2 71.4-51.4 71.4-142.9 26.8 0 71.4 65.8 71.4 125z" /></svg>