<svg height="1000" width="1142.9" xmlns="http://www.w3.org/2000/svg"><path d="m438.1 562.5h115.5c-10.6 117.7-78.2 189.2-174.7 189.2-120.5 0-193.6-92.7-193.6-241.1 0-147.3 80.3-239.4 181.9-239.4 111.6 0 174.1 69.2 183.6 186.4h-113.3c-3.9-47.4-27.3-74.8-65.3-74.8-41.8 0-67 44.7-67 132.8 0 64.2 11.2 124.5 72 124.5 38.5 0 56.4-33.5 60.9-77.6z m397.3 0h114.9c-10.6 117.7-77.5 189.2-174.1 189.2-120.5 0-193.6-92.7-193.6-241.1 0-147.3 80.3-239.4 181.9-239.4 111.6 0 174.1 69.2 183.6 186.4h-113.8c-3.4-47.4-27.4-74.8-64.8-74.8-41.8 0-66.9 44.7-66.9 132.8 0 64.2 10.6 124.5 71.4 124.5 38.5 0 56.9-33.5 61.4-77.6z m200.3-66.4c0-149.6-7.8-214.3-42.4-261.2-7.3-9.5-19-15.6-28.5-22.3-35.1-25.7-198.6-35.1-388.9-35.1s-361.6 9.4-396.2 35.1c-10.1 7.3-22.3 12.8-29.6 22.3-34.6 46.4-41.8 111.6-41.8 261.2 0 150.1 7.8 214.8 41.8 261.2 7.8 10.6 19.5 15 29.6 22.8 34.6 25.7 205.9 36.3 396.2 36.3s353.8-10 388.9-36.3c9.5-7.2 21.8-11.7 28.5-22.8 35.2-45.8 42.4-111.1 42.4-261.2z m107.2-424.7v857.2h-1142.9v-857.2h1142.9z" /></svg>