<svg height="1000" width="1142.9" xmlns="http://www.w3.org/2000/svg"><path d="m816.4 464.3c0 26.2-21.2 48-48 48h-391.7c-26.8 0-48-21.8-48-48s21.2-48 48-48h391.7c26.8 0 48 21.8 48 48z m119.4 0c0-32.9-4.4-64.2-12.8-94.9h-548c-26.8 0-48-21.2-48-47.4 0-26.8 21.2-48 48-48h506.7c-64.2-104.4-179.1-173.6-309.7-173.6-200.9 0-364.4 163-364.4 363.9 0 32.9 4.5 64.2 12.8 94.9h548c26.8 0 48 21.2 48 47.4 0 26.8-21.2 48-48 48h-506.7c64.2 104.3 179.1 173.5 310.3 173.5 200.3 0 363.8-162.9 363.8-363.8z m207.1-142.3c0 26.2-21.2 47.4-48 47.4h-73.1c6.1 30.7 9.5 62.5 9.5 94.9 0 253.3-206 459.8-459.3 459.8-185.8 0-346-110.5-418.5-269.5h-105.5c-26.8 0-48-21.2-48-48 0-26.2 21.2-47.4 48-47.4h73.7c-6.2-30.7-9.5-62.5-9.5-94.9 0-253.4 205.9-459.8 459.8-459.8 185.3 0 345.4 110.5 418 269.5h104.9c26.8 0 48 21.2 48 48z" /></svg>