<svg height="1000" width="857.1" xmlns="http://www.w3.org/2000/svg"><path d="m553.6 348.2v276.8c0 10-7.8 17.9-17.9 17.9h-89.3c-10 0-17.8-7.9-17.8-17.9v-276.8c0-83.7-68.1-151.8-151.8-151.8h-151.8v642.9c0 10-7.8 17.8-17.9 17.8h-89.2c-10.1 0-17.9-7.8-17.9-17.8v-750c0-10.1 7.8-17.9 17.9-17.9h258.9c152.9 0 276.8 123.9 276.8 276.8z m214.3-258.9v491.1c0 152.9-123.9 276.7-276.8 276.7h-259c-10 0-17.8-7.8-17.8-17.8v-535.7c0-10.1 7.8-17.9 17.8-17.9h89.3c10.1 0 17.9 7.8 17.9 17.9v428.5h151.8c83.7 0 151.8-68 151.8-151.7v-491.1c0-10.1 7.8-17.9 17.8-17.9h89.3c10 0 17.9 7.8 17.9 17.9z" /></svg>