<svg height="1000" width="857.1" xmlns="http://www.w3.org/2000/svg"><path d="m641.7 599.3v60.9c0 78.6-125.5 107.7-204.2 107.7-152.9 0-267.9-116.7-267.9-270.7 0-151.2 113.9-265.1 265.1-265.1 55.3 0 199.8 19.6 199.8 108.3v60.8c0 5.1-3.9 9-8.9 9h-65.9c-5 0-8.9-3.9-8.9-9v-39c0-35.2-67.5-51.4-113.3-51.4-104.4 0-176.9 75.4-176.9 183.6 0 112.2 75.9 194.2 181.4 194.2 40.1 0 116-15.1 116-50.2v-39.1c0-5 3.9-8.9 8.4-8.9h66.4c4.5 0 8.9 3.9 8.9 8.9z m-213.1-456.4c-197 0-357.2 160.1-357.2 357.1s160.2 357.1 357.2 357.1 357.1-160.1 357.1-357.1-160.1-357.1-357.1-357.1z m428.5 357.1c0 236.6-191.9 428.6-428.5 428.6s-428.6-192-428.6-428.6 192-428.6 428.6-428.6v0c236.6 0 428.5 192 428.5 428.6z" /></svg>