<svg height="1000" width="1142.9" xmlns="http://www.w3.org/2000/svg"><path d="m571.4 285.7h-214.3v214.3h214.3v-214.3z m71.5 357.2v71.4h-357.2v-71.4h357.2z m0-428.6v357.1h-357.2v-357.1h357.2v0z m357.1 428.6v71.4h-285.7v-71.4h285.7z m0-142.9v71.4h-285.7v-71.4h285.7z m0-142.9v71.5h-285.7v-71.5h285.7z m0-142.8v71.4h-285.7v-71.4h285.7z m-857.1 535.7v-535.7h-71.5v535.7c0 19.5 16.2 35.7 35.7 35.7s35.8-16.2 35.8-35.7z m928.5 0v-607.1h-857.1v607.1c0 12.3-2.2 24.6-6.2 35.7h827.6c19.5 0 35.7-16.2 35.7-35.7z m71.5-678.6v678.6c0 59.2-48 107.1-107.2 107.1h-928.6c-59.1 0-107.1-47.9-107.1-107.1v-607.1h142.9v-71.5h1000z" /></svg>