<svg height="1000" width="1000.0" xmlns="http://www.w3.org/2000/svg"><path d="m721 392.9c0 3.3 4.4 18.9 5.6 22.8 15 45.8 50.2 55.3 92 67 93.2 26.2 181.4 75.9 181.4 185.3 0 111-92.6 189.1-200.9 189.1-179.7 0-235.5-219.8-287.4-353.8-42.9-110.4-88.2-175.2-212.6-175.2-110.5 0-207.6 106.1-207.6 214.9 0 115.5 86.5 222.6 206.5 222.6 53 0 108.3-11.1 144-53v0c17.3-19.5 34-40.7 46.3-64.7l46.9 84.8c-6.2 14-15.1 27.3-24.6 39.1l0.6 0.5c-56.4 65.3-133.4 84.8-216.6 84.8-168.5 0-294.6-149-294.6-313 0-159.1 138.4-306.9 299.1-306.9 266.7 0 280.1 231 370.5 416.8 24.6 51.4 66.4 111.6 130.1 111.6 58 0 109.3-37.4 109.3-98.7 0-132.9-243.8-42.5-278.4-260.7-1.1-6.1-1.7-12.2-1.7-18.4 0-82.6 77.6-153.4 159.6-150.6 49.1 1.6 78.7 3.3 117.8 37.9h-0.6c15.1 14 26.2 32.9 37.9 49.1l-71.9 55.3c-8.4-15.7-16.2-28.5-30.2-39.1v-0.6c-13.4-12.2-37.4-11.7-54.1-11.7-36.3 0-66.4 27.4-66.4 64.8z" /></svg>