<svg height="1000" width="1000.0" xmlns="http://www.w3.org/2000/svg"><path d="m947.5 52.5c69.8 69.7 70.4 183 0 252.2l-125.5 124.4 58 58.1c7.3 7.2 7.3 18.4 0 25.6l-117.2 117.2c-7.2 7.3-18.4 7.3-25.6 0l-58.6-58.6-336.5 336.5c-13.4 13.4-31.3 20.7-50.2 20.7h-113.3l-142.9 71.4-35.7-35.7 71.4-142.9v-113.3c0-18.9 7.3-36.8 20.7-50.2l336.5-336.5-58.6-58.6c-7.3-7.2-7.3-18.4 0-25.6l117.2-117.2c7.2-7.3 18.4-7.3 25.6 0l58.1 58 124.4-125.5c69.2-70.4 182.5-69.8 252.2 0z m-661.8 768.9l321.4-321.4-107.1-107.1-321.4 321.4v107.1h107.1z" /></svg>