<svg height="1000" width="1000.0" xmlns="http://www.w3.org/2000/svg"><path d="m901.2 0c50.8 0 97.7 37.9 97.7 91 0 29.5-11.7 58-25.1 84.2-43.6 82.6-189.8 355.5-259.5 419.7-34.1 31.8-74.2 50.7-121.7 50.7-94.3 0-171.3-80.3-171.3-174.1 0-44.6 18.4-88.1 51.4-118.3l356-323.1c19.5-17.8 45.2-30.1 72.5-30.1z m-507.2 577c29 56.4 82 98.8 143.4 115l0.5 39.6c3.4 159-107.1 268.4-266.7 268.4-189.2 0-271.2-150.7-271.2-322 20.6 14 92.6 71.4 116.1 71.4 13.9 0 25.6-7.8 30.7-20.6 47.4-123.9 121.6-146.2 247.2-151.8z" /></svg>