<svg height="1000" width="1000.0" xmlns="http://www.w3.org/2000/svg"><path d="m620.5 248.9c0-75.9-71.4-88.7-132.2-88.7h-39.1c-23.4 0-46.9 18.4-52.4 41.3l-35.2 154c-1.1 2.8-1.1 6.1-1.1 8.9 0 18.4 14.5 30.7 32.4 30.7h29.5c96 0 198.1-32.4 198.1-146.2z m337.1 84.8c0 99.9-43 179.7-122.8 238.8-96.5 70.9-224.9 89.9-341.5 89.9h-34c-23.5 0-46.9 18.4-51.9 41.3l-40.8 176.3c-6.1 26.8-33.5 48.6-61.4 48.6h-118.8c-22.9 0-41.9-16.2-41.9-39.6 0-12.3 4.5-24.6 7.3-36.3h84.2c25.7 0 50.8-20.1 57-44.7l40.7-176.3c5.6-24.6 31.3-45.2 56.4-45.2h34c116.1 0 242.8-18.4 338.7-89.3 78.7-58 121.1-136.2 121.1-234.9 0-40.2-6.1-81.5-28.4-115.5 74.2 37.4 102.1 107.1 102.1 186.9z m-102.1-103.2c0 99.9-43.6 179.7-123.4 238.8-95.9 70.9-224.3 89.9-341.5 89.9h-33.5c-23.4 0-46.8 18.4-52.4 41.8l-40.7 175.8c-6.2 26.8-33.5 48.5-60.9 48.5h-119.4c-22.9 0-41.3-15.6-41.3-39.6 0-3.9 0.6-7.8 1.1-11.1l167.4-726.1c6.2-26.7 33.5-48.5 61.4-48.5h247.8c161.8 0 335.4 29.6 335.4 230.5z" /></svg>