<svg height="1000" width="1000.0" xmlns="http://www.w3.org/2000/svg"><path d="m487.2 412.9c0 62-54.2 112.8-120.6 112.8s-120.5-50.8-120.5-112.8c0-62.5 54.1-112.7 120.5-112.7s120.6 50.2 120.6 112.7z m280.1 0c0 62-53.6 112.8-120.5 112.8-66.4 0-120.6-50.8-120.6-112.8 0-62.5 54.2-112.7 120.6-112.7 66.9 0 120.5 50.2 120.5 112.7z m125.6 100.5v-372.2c0-64.2-20.7-89.3-79.8-89.3h-620.6c-61.9 0-79.2 21.2-79.2 89.3v375.5c132.2 69.2 245.5 57 307.5 54.7 26.2-0.5 42.9 4.5 53 15.1 1.6 1.7 3.3 3.3 5.6 5 11.7 11.2 22.8 20.1 34 28.5 2.2-30.7 19.5-50.2 65.8-48.6 63.1 2.8 179.2 15.1 313.7-58z m90.9-2.8c-35.7 44.1-103.8 98.2-207.6 140.6 110 374.5-268.4 434.2-262.2 242.2 0 3.4-0.6-103.2-0.6-182.5-8.4-1.6-16.7-3.9-26.8-6.1 0 79.8-0.6 192-0.6 188.6 6.2 192-372.2 132.3-262.2-242.2-103.8-42.4-171.9-96.5-207.6-140.6-17.9-26.8 1.7-55.2 31.2-34.6 3.9 2.8 8.4 5.6 12.3 8.4v-387.3c0-53.6 40.2-97.1 89.9-97.1h701.4c49.7 0 89.8 43.5 89.8 97.1v387.3l11.8-8.4c29.5-20.6 49.1 7.8 31.2 34.6z" /></svg>