<svg height="1000" width="1000.0" xmlns="http://www.w3.org/2000/svg"><path d="m893.6 27.7c-9.1 0-18.6 3.5-26.8 11.3-13.2-18.1-56.7-15.2-52.1 21.7-36.1-18.3-63.8 3.7-55 36.8-47.3-12.5-86.9 4.4-76.5 41.9-49.5-18.1-63.1 29.2-57.3 37.9-52.7-19.9-56.2 38.2-51.5 41.4-35.5-4.9-54.9 3.6-40 40.9-27.8-1.7-44.8 7.9-39.9 40.8-39.6-7.6-29.2 23.2-29.4 45.9-39.2-10.4-31.2 5.8-29.2 36.1 62.1 128.1 30.6 204.2-78.9 321.5 135.3-89.2 243.6-48 304.8-3.5 25.8 1.9 35.2-8.4 23.3-37.3 42.5 5.6 51.8-12.8 42.5-39 41.2 4.4 41.2-20.6 38.8-40.7 35.1 11.3 57.7-12.1 38.8-40.6 27.4 2.4 54.2-22.5 34.9-54.5 42.2 0.1 39.7-31.1 34.8-54.4 54-10.7 52.3-43 41.5-79 50.1-12.9 45.5-46.1 41.5-79 55.4-14.5 44.8-55.9 25.2-79.1 26.2-21.9 22.3-55.8-14.5-65.7 13.9-40.9 4.2-71.2-39.4-70.4-2.3-20.3-18.2-33-35.6-33z m-626.4 289.7c-79.9 0.2-169.2 19.8-169.2 19.8 76.3 27.8 174.6 31.3 164.5 126.8 0 0-105.4 134.9-171.4 196.1-80.1 74.4-134.8 172.8-44 277.4l-21.7 25.8c5.5 37.6 30.8 45.6 56.6 52.7l26.4-26.4c27.6 17 56.8 28.7 78.9 34.7 0 0-13-74.9-2.4-110 21-69.2 85.9-135.1 124.2-178 86.1-92.4 212.2-252.2 66-393.9-21.3-19.1-63.1-25.1-107.9-25z m240.3 361.9c-52.5 0.6-105.6 18.2-157 45.2 0 0-115.8 118.2-143.7 193.4-12.6 34.1-7.8 108.6-7.8 108.6 65.6 7.7 122.5-22.8 157.6-61.2 50.1-54.9 137.6-91.6 137.8-90.5 76.6-8.3 119.9 37.8 114.2 75.2 0 0 83.6-196.2 25.5-233.8-39.3-25.4-80.2-36.4-121.5-36.9-1.7 0-3.4 0-5.1 0z" /></svg>