<svg height="1000" width="857.1" xmlns="http://www.w3.org/2000/svg"><path d="m431.4 736v70.9c-0.6 157.4-0.6 163-3.4 170.2-4.5 11.7-14.5 19.6-28.4 22.3-40.2 6.7-165.8-39.6-192-70.8-5.6-6.2-8.4-13.4-9.5-20.1-0.6-5 0.6-10.1 2.2-14.5 2.8-7.8 7.8-14 120-146.8 0 0 0.6 0 33.5-39.1 11.2-13.9 31.2-18.4 49.7-11.7 18.4 7.3 28.4 22.9 27.9 39.6z m-83.2-140c-1.1 19.5-12.3 34-29 39l-67 21.8c-150.1 48-155.1 49.1-162.9 49.1-12.3-0.5-23.5-7.8-30.1-20.1-4.5-8.9-7.9-24-9.5-41.8-6.2-54.7 1.1-136.7 17.3-162.4 7.8-12.3 18.9-18.4 31.2-17.9 8.4 0 15.1 3.4 176.9 69.2 0 0-0.5 0.6 46.9 19 16.7 6.7 27.3 24 26.2 44.1z m461 165.7c-5.6 40.2-88.8 145.7-126.7 160.7-12.9 5.1-25.7 3.9-35.2-3.9-6.7-5-13.4-15-102.7-160.1l-26.2-43c-10-15.6-8.4-35.7 4.5-51.3 12.3-15.1 30.1-20.1 46.3-14.5 0 0 0.6 0.5 66.4 22.3 150.1 49.1 155.1 50.8 161.3 55.8 10 7.8 14.5 19.5 12.3 34z m-375-352.7c2.7 58.1-21.8 65.3-30.2 68.1-7.8 2.3-32.3 9.5-63.6-39.6-205.4-324.2-210.9-333.7-210.9-333.7-2.8-11.7 0.5-24.6 10.6-34.6 30.7-31.8 197.5-78.7 241-67.5 14 3.3 24 12.3 27.4 25.1 2.2 13.9 22.3 314.7 25.7 382.2z m369.4 60.3c1.1 14-3.9 25.7-14.5 32.9-6.7 4.5-13.4 6.7-183.6 48-27.4 6.2-42.4 10.1-50.8 12.9l0.5-1.2c-16.7 4.5-35.7-3.3-46.3-20s-10-35.2 0-48.6c0 0 0.6-0.6 41.9-56.9 91.5-125 96-131.2 102.7-135.6 10.6-7.3 23.4-7.3 36.2-1.1 36.3 17.3 109.4 126.1 113.9 167.9v1.7z" /></svg>