<svg height="1000" width="1142.9" xmlns="http://www.w3.org/2000/svg"><path d="m571.4 849.9c-14.5 0-92.6-78.1-92.6-93.2 0-27.3 71.4-42.4 92.6-42.4s92.7 15.1 92.7 42.4c0 15.1-78.2 93.2-92.7 93.2z m150.7-151.2c-7.8 0-68.6-55.8-150.7-55.8-82.6 0-142.3 55.8-150.6 55.8-13.4 0-94.3-80.4-94.3-93.8 0-5 2.2-9.5 5.5-12.8 59.7-59.2 156.8-92.1 239.4-92.1s179.7 32.9 239.4 92.1c3.4 3.3 5.6 7.8 5.6 12.8 0 13.4-80.9 93.8-94.3 93.8z m152.3-151.8c-4.4 0-9.4-2.3-12.8-4.5-92.1-71.4-169.6-113.8-290.2-113.8-168.5 0-296.8 118.3-303 118.3-12.8 0-93.2-80.4-93.2-93.8 0-4.4 2.3-8.9 5.6-12.3 99.9-99.8 250.6-155.1 390.6-155.1s290.8 55.3 390.7 155.1c3.3 3.4 5.5 7.9 5.5 12.3 0 13.4-80.3 93.8-93.2 93.8z m151.3-151.3c-4.5 0-9-2.2-12.3-5-128.9-113.3-267.9-176.3-442-176.3s-313 63-441.9 176.3c-3.4 2.8-7.8 5-12.3 5-12.8 0-93.8-80.3-93.8-93.7 0-5 2.3-9.5 5.6-12.8 141.2-140.1 344.9-217.7 542.4-217.7s401.3 77.6 542.4 217.7c3.4 3.3 5.6 7.8 5.6 12.8 0 13.4-80.9 93.7-93.7 93.7z" /></svg>