<svg height="1000" width="1000.0" xmlns="http://www.w3.org/2000/svg"><path d="m250 732.1v107.2c0 10-7.8 17.8-17.9 17.8h-107.1c-10 0-17.9-7.8-17.9-17.8v-107.2c0-10 7.9-17.8 17.9-17.8h107.1c10.1 0 17.9 7.8 17.9 17.8z m-107.1-214.2v107.1c0 10-7.9 17.9-17.9 17.9h-107.1c-10.1 0-17.9-7.9-17.9-17.9v-107.1c0-10.1 7.8-17.9 17.9-17.9h107.1c10 0 17.9 7.8 17.9 17.9z m321.4 214.2v107.2c0 10-7.8 17.8-17.9 17.8h-107.1c-10.1 0-17.9-7.8-17.9-17.8v-107.2c0-10 7.8-17.8 17.9-17.8h107.1c10.1 0 17.9 7.8 17.9 17.8z m-107.2-214.2v107.1c0 10-7.8 17.9-17.8 17.9h-107.2c-10 0-17.8-7.9-17.8-17.9v-107.1c0-10.1 7.8-17.9 17.8-17.9h107.2c10 0 17.8 7.8 17.8 17.9z m-320.3-89.3c-20.6 0-36.8-16.2-36.8-36.3v-72h286.8v72c0 20.1-16.2 36.3-36.2 36.3h-213.8z m641.8 303.5v107.2c0 10-7.8 17.8-17.9 17.8h-107.1c-10.1 0-17.9-7.8-17.9-17.8v-107.2c0-10 7.8-17.8 17.9-17.8h107.1c10.1 0 17.9 7.8 17.9 17.8z m-107.2-214.2v107.1c0 10-7.8 17.9-17.8 17.9h-107.2c-10 0-17.8-7.9-17.8-17.9v-107.1c0-10.1 7.8-17.9 17.8-17.9h107.2c10 0 17.8 7.8 17.8 17.9z m321.5 214.2v107.2c0 10-7.9 17.8-17.9 17.8h-107.1c-10.1 0-17.9-7.8-17.9-17.8v-107.2c0-10 7.8-17.8 17.9-17.8h107.1c10 0 17.9 7.8 17.9 17.8z m-107.2-214.2v107.1c0 10-7.8 17.9-17.8 17.9h-107.2c-10 0-17.8-7.9-17.8-17.9v-107.1c0-10.1 7.8-17.9 17.8-17.9h107.2c10 0 17.8 7.8 17.8 17.9z m214.3-227.7v7.2h-286.8v-5.5c0-20.7-17.9-58.1-213.2-57-195.3 0.6-213.2 36.3-213.2 57v5.5h-286.8v-7.2c0-37.4 67-218.8 500-218.8 432.5 0 500 181.4 500 218.8z m0 227.7v107.1c0 10-7.8 17.9-17.9 17.9h-107.1c-10 0-17.9-7.9-17.9-17.9v-107.1c0-10.1 7.9-17.9 17.9-17.9h107.1c10.1 0 17.9 7.8 17.9 17.9z m0-197.6v72c0 20.1-16.2 36.3-36.3 36.3h-214.3c-20 0-36.2-16.2-36.2-36.3v-72h286.8z" /></svg>