<svg height="1000" width="1000.0" xmlns="http://www.w3.org/2000/svg"><path d="m946.3 27.7l-188.8 189.3c-66.9-50.4-150.9-80.5-242-80.5-218.6 0-396 172.9-396 384.6 0 92.9 34.1 178.3 90.9 244.9l-210.4 211.1 53.7 50.6 209.6-210.3c68.5 55.1 156.4 88.3 252.2 88.3 218.5 0 396-172.9 396-384.6 0-97.3-37.5-186.4-99.3-254.3l187.8-188.5-53.7-50.6z m-430.8 183.5c70.5 0 135.6 22.2 188.3 59.8l-439.4 440.9c-42.1-52.5-67.2-118.7-67.2-190.8 0-171.9 142.3-309.9 318.3-309.9z m243 109.4c46.9 54 75.2 123.9 75.2 200.5 0 171.9-142.3 309.9-318.2 309.9-75.2 0-144.2-25.1-198.6-67.4l441.6-443z" /></svg>