<?xml version="1.0" encoding="utf-8"?>
<!-- Generator: Adobe Illustrator 24.3.0, SVG Export Plug-In . SVG Version: 6.00 Build 0)  -->
<svg version="1.1" id="Calque_1" xmlns="http://www.w3.org/2000/svg" xmlns:xlink="http://www.w3.org/1999/xlink" x="0px" y="0px"
	 viewBox="0 0 1000 1000" style="enable-background:new 0 0 1000 1000;" xml:space="preserve">
<path d="M992,342C715.2,86,284.7,86,8,342c-10.4,9.6-10.6,25.9-0.5,35.9L60.9,431c9.6,9.5,25,9.7,35,0.6
	c228-208.9,580.2-208.9,808.2,0c10,9.1,25.4,8.9,35-0.6l53.5-53.1C1002.7,367.9,1002.5,351.6,992,342L992,342z M500,650
	c-55.2,0-100,44.8-100,100c0,55.2,44.8,100,100,100s100-44.8,100-100C600,694.8,555.2,650,500,650z M816.7,519.4
	c-180.1-159.3-453.5-159.1-633.3,0c-10.8,9.5-11.1,26.1-0.9,36.2l53.8,53.1c9.4,9.2,24.5,9.9,34.5,1.2
	c131.2-113.4,327.7-113.1,458.6,0c10,8.6,25.1,8,34.5-1.2l53.8-53.1C827.8,545.5,827.4,528.9,816.7,519.4z"/>
</svg>
