<svg height="1000" width="1142.9" xmlns="http://www.w3.org/2000/svg"><path d="m118.3 428.6l347.7 371.1-167.5-371.1h-180.2z m453.1 430.8l194.8-430.8h-389.5z m-271.2-502.3l113.9-214.2h-146.2l-160.8 214.2h193.1z m376.7 442.6l347.7-371.1h-180.3z m-295.8-442.6h380.6l-113.8-214.2h-152.9z m461.5 0h193.1l-160.7-214.2h-146.2z m78.7-271.2l214.3 285.8c10.6 13.3 9.5 32.9-2.2 45.7l-535.7 571.4c-6.7 7.3-16.2 11.2-26.3 11.2s-19.5-3.9-26.2-11.2l-535.7-571.4c-11.7-12.8-12.8-32.4-2.2-45.7l214.2-285.8c6.7-9.4 17.3-14.5 28.5-14.5h642.9c11.1 0 21.7 5.1 28.4 14.5z" /></svg>