<svg height="1000" width="928.6" xmlns="http://www.w3.org/2000/svg"><path d="m678.6 392.9c0-19.6-16.2-35.8-35.7-35.8h-71.5v-71.4c0-19.5-16.2-35.7-35.7-35.7s-35.7 16.2-35.7 35.7v71.4h-71.4c-19.6 0-35.7 16.2-35.7 35.8s16.1 35.7 35.7 35.7h71.4v71.4c0 19.5 16.2 35.7 35.7 35.7s35.7-16.2 35.7-35.7v-71.4h71.5c19.5 0 35.7-16.2 35.7-35.7z m-321.5 464.2c0 39.7-31.8 71.5-71.4 71.5s-71.4-31.8-71.4-71.5 31.8-71.4 71.4-71.4 71.4 31.8 71.4 71.4z m500 0c0 39.7-31.8 71.5-71.4 71.5s-71.4-31.8-71.4-71.5 31.8-71.4 71.4-71.4 71.4 31.8 71.4 71.4z m71.5-607.1v285.7c0 17.9-13.4 33.5-31.8 35.7l-582.6 68.1c2.2 12.3 7.2 26.2 7.2 39.1s-7.8 24.5-13.4 35.7h513.4c19.6 0 35.7 16.2 35.7 35.7s-16.1 35.7-35.7 35.7h-571.4c-19.5 0-35.7-16.2-35.7-35.7 0-17.3 26.2-60.3 34-76.5l-98.7-459.2h-113.9c-19.5 0-35.7-16.2-35.7-35.7s16.2-35.7 35.7-35.7h142.9c37.9 0 38.5 44.6 44.1 71.4h670.2c19.5 0 35.7 16.2 35.7 35.7z" /></svg>