<svg height="1000" width="1000.0" xmlns="http://www.w3.org/2000/svg"><path d="m714.3 571.4h170.2c-6.7 7.3-11.2 11.2-12.3 12.3l-347.6 334.8c-6.7 6.7-15.7 10.1-24.6 10.1s-17.9-3.4-24.6-10.1l-348.2-335.9c-1.1-0.6-5.5-4.5-11.7-11.2h205.9c16.2 0 30.7-11.1 34.6-26.8l39.1-156.8 106 372.2c4.5 15.1 18.4 25.7 34.6 25.7v0c15.6 0 29.6-10.6 34.1-25.7l81.4-270.6 31.3 62.5c6.1 11.7 18.4 19.5 31.8 19.5z m285.7-238.8c0 64.2-27.9 122.8-57.5 167.4h-205.9l-61.9-123.3c-6.2-12.9-20.7-20.7-34.6-19.6-15.1 1.7-27.4 11.2-31.3 25.7l-72 240-109.3-382.8c-4.5-15.1-18.5-25.7-35.2-25.7-16.2 0-30.1 11.1-34 26.8l-64.8 258.9h-236c-29.6-44.6-57.5-103.2-57.5-167.4 0-163.5 99.9-261.2 266.7-261.2 97.7 0 189.2 77 233.3 120.6 44.1-43.6 135.6-120.6 233.3-120.6 166.8 0 266.7 97.7 266.7 261.2z" /></svg>