<svg height="1000" width="857.1" xmlns="http://www.w3.org/2000/svg"><path d="m0 0h857.1v776.8l-433 188.6-424.1-188.6v-776.8z m801.3 740.5v-516.7h-745.5v516.7l368.9 164.1z m0-572.5v-112.2h-745.5v112.2h745.5z m-700.3 166.3v64.1h-20.6v-64.1h20.6z m0 82.6v64.1h-20.6v-64.1h20.6z m0 82.5v64.2h-20.6v-64.2h20.6z m0 82.6v64.2h-20.6v-64.2h20.6z m0 82.6v64.2h-20.6v-64.2h20.6z m14.5 79.8l8.4-19 58.6 26.3-8.4 18.4z m75.9 33.5l8.4-19 58.6 25.7-8.4 19z m75.3 33.5l8.4-19 58.6 25.7-8.4 19z m75.9 32.9l8.4-18.4 58 25.7-8.3 18.9z m102.2 7.3l58.5-25.7 8.4 18.4-58.6 26.2z m75.3-33.5l58.6-25.7 8.4 19-58.6 25.7z m75.9-33.5l58.6-25.7 8.3 19-58.5 25.7z m75.3-32.9l58.6-26.3 8.4 19-58.6 25.7z m-526.8-669.7v20.1h-63.6v-20.1h63.6z m90.4 0v20.1h-64.1v-20.1h64.1z m90.4 0v20.1h-64.1v-20.1h64.1z m89.9 0v20.1h-63.6v-20.1h63.6z m90.4 0v20.1h-63.6v-20.1h63.6z m90.4 0v20.1h-64.2v-20.1h64.2z m90.4 0v20.1h-64.2v-20.1h64.2z m89.8 0v20.1h-63.6v-20.1h63.6z m-675.2 189.8v44h-20.6v-64.1h64.1v20.1h-43.5z m133.9-20.1v20.1h-64.1v-20.1h64.1z m90.4 0v20.1h-64.1v-20.1h64.1z m89.9 0v20.1h-63.6v-20.1h63.6z m90.4 0v20.1h-63.6v-20.1h63.6z m90.4 0v20.1h-64.2v-20.1h64.2z m90.4 0v20.1h-64.2v-20.1h64.2z m69.7 64.1v-44h-43.5v-20.1h64.2v64.1h-20.7z m0 82.6v-64.1h20.7v64.1h-20.7z m0 82.6v-64.1h20.7v64.1h-20.7z m0 82.6v-64.2h20.7v64.2h-20.7z m0 82.6v-64.2h20.7v64.2h-20.7z m0 82.6v-64.2h20.7v64.2h-20.7z m-332-19.5c-96 0-174.7-78.2-174.7-174.7 0-96 78.7-174.7 174.7-174.7 96.5 0 174.7 78.7 174.7 174.7 0 96.5-78.2 174.7-174.7 174.7z m-92.1-212.6c0 84.8 148.5 22.8 148.5 72.5 0 25.1-45.8 27.3-62.5 27.3-23.5 0-57-5-68.7-28.4h-1.6l-17.3 35.1c28.4 17.9 55.8 23.5 90.4 23.5 37.3 0 97.6-11.2 97.6-59.7 0-92.1-150.1-31.3-150.1-72.6 0-25.1 39.6-28.4 56.9-28.4 20.7 0 55.8 6.1 68.1 25.1h1.7l16.7-32.4c-29-11.7-52.4-22.9-84.8-22.9-38.5 0-94.9 12.3-94.9 60.9z" /></svg>