<svg height="1000" width="857.1" xmlns="http://www.w3.org/2000/svg"><path d="m785.7 857.1c0 98.3-203.7 142.9-392.8 142.9s-392.9-44.6-392.9-142.9c0-75.8 113.3-111.6 208.1-127.7 19.6-3.4 38 9.4 41.3 29s-9.4 37.9-29 41.3c-114.9 20.1-147.3 51.3-149 58 5.6 19 112.8 70.9 321.5 70.9s315.8-51.9 321.4-72c-1.7-5.6-34.1-36.8-149-56.9-19.5-3.4-32.4-21.8-29-41.3s21.7-32.4 41.3-29c94.8 16.1 208.1 51.9 208.1 127.7z m-214.3-500v214.3c0 19.6-16.2 35.7-35.7 35.7h-35.7v214.3c0 19.6-16.2 35.7-35.7 35.7h-142.9c-19.5 0-35.7-16.1-35.7-35.7v-214.3h-35.7c-19.5 0-35.7-16.1-35.7-35.7v-214.3c0-39.6 31.8-71.4 71.4-71.4h214.3c39.6 0 71.4 31.8 71.4 71.4z m-53.5-214.2c0 69.2-55.8 125-125 125s-125-55.8-125-125 55.8-125 125-125 125 55.8 125 125z" /></svg>