<svg height="1000" width="1285.7" xmlns="http://www.w3.org/2000/svg"><path d="m1284 578.1c17.9 156.8-109.9 288.5-265.6 278.5-119.4-7.8-218.7-103.3-231-222.7-8.9-84.8 24.5-161.2 81.5-212.6l-39.7-59.7c-70.3 58.6-114.9 146.2-114.9 244.4 0 20.1-15.6 36.9-35.7 36.9h-142.9v0h-38.5c-17.3 121.1-121.1 214.2-247.2 214.2-137.8 0-250-112.1-250-250s112.2-250 250-250c29.6 0 58 5.6 84.8 15.1l13.4-25.1c-43-38.5-99.3-61.4-169.6-61.4h-35.7c-19.6 0-35.8-16.2-35.8-35.7s16.2-35.7 35.8-35.7h71.4c125 0 188.6 51.3 214.3 71.4h285.7 64.2l-47.5-71.4h-123.9c-21.7 0-39-19.5-35.1-41.9 2.8-17.3 19.5-29.5 36.8-29.5h141.2c11.7 0 22.9 6.1 29.6 15.6l39 58.6 63.7-63.6c6.7-6.7 16.1-10.6 25.6-10.6h56.4c19.5 0 35.7 16.1 35.7 35.7v71.4c0 19.5-16.2 35.7-35.7 35.7h-99.9l64.2 96c45.2-21.8 97.6-30.7 153.4-20.1 106.6 19.5 189.8 108.8 202 216.5z m-1034 207.6c86.5 0 158.5-61.4 175.2-142.8h-175.2c-12.3 0-24-6.7-30.7-17.3-6.1-10.6-6.7-24-0.5-35.2l82-154.6c-16.2-4.4-32.9-7.2-50.8-7.2-98.2 0-178.6 80.3-178.6 178.5s80.4 178.6 178.6 178.6z m785.7 0c98.2 0 178.6-80.3 178.6-178.6s-80.4-178.5-178.6-178.5c-24 0-46.3 5-67.5 13.4l97.1 145.1c11.2 16.7 6.7 39-9.5 49.6-6.1 4.5-13.4 6.2-20.1 6.2-11.7 0-22.9-5.6-29.6-16.2l-97.1-145.1c-31.8 32.4-51.9 76.4-51.9 125.5 0 98.3 80.4 178.6 178.6 178.6z" /></svg>