<svg height="1000" width="1142.9" xmlns="http://www.w3.org/2000/svg"><path d="m481.6 575.9c0-83.7-67.5-151.2-151.2-151.2-83.2 0-150.7 67.5-150.7 151.2 0 83.1 67.5 150.7 150.7 150.7 83.7 0 151.2-67.6 151.2-150.7z m481.6-0.6c0-83.1-67.6-150.6-150.7-150.6-83.7 0-151.2 67.5-151.2 150.6 0 83.7 67.5 151.3 151.2 151.3 83.1 0 150.7-67.6 150.7-151.3z m179.7-451.4v752.2c0 32.9-26.8 59.7-60.3 59.7h-1022.3c-33.5 0-60.3-26.8-60.3-59.7v-752.2c0-32.9 26.8-59.7 60.3-59.7h240.5c32.9 0 60.2 26.8 60.2 59.7v89.8h420.8v-89.8c0-32.9 27.4-59.7 60.3-59.7h240.5c33.5 0 60.3 26.8 60.3 59.7z" /></svg>