<svg height="1000" width="1000.0" xmlns="http://www.w3.org/2000/svg"><path d="m71.4 785.7h571.5v-71.4h-571.5v71.4z m0-285.7h571.5v-71.4h-571.5v71.4z m875 250c0-29.6-24-53.6-53.5-53.6s-53.6 24-53.6 53.6 24 53.6 53.6 53.6 53.5-24 53.5-53.6z m-875-535.7h571.5v-71.4h-571.5v71.4z m875 250c0-29.6-24-53.6-53.5-53.6s-53.6 24-53.6 53.6 24 53.6 53.6 53.6 53.5-24 53.5-53.6z m0-285.7c0-29.6-24-53.6-53.5-53.6s-53.6 24-53.6 53.6 24 53.5 53.6 53.5 53.5-24 53.5-53.5z m53.6 464.3v214.2h-1000v-214.2h1000z m0-285.8v214.3h-1000v-214.3h1000z m0-285.7v214.3h-1000v-214.3h1000z" /></svg>