<svg height="1000" width="714.3" xmlns="http://www.w3.org/2000/svg"><path d="m0 333.1c0-205.9 188.6-333.1 379.5-333.1 175.2 0 334.8 120.5 334.8 305.2 0 173.6-88.7 366.1-286.3 366.1-46.9 0-106-23.4-128.9-66.9-42.4 167.9-39.1 193-132.8 321.4l-7.8 2.8-5-5.6c-3.4-35.2-8.4-69.8-8.4-104.9 0-113.9 52.4-278.5 78.1-389-13.9-28.4-17.8-63-17.8-94.3 0-56.3 39-127.8 102.6-127.8 46.9 0 72 35.7 72 79.8 0 72.6-49.1 140.7-49.1 211 0 48 39.6 81.4 86 81.4 128.3 0 167.9-185.2 167.9-284 0-132.3-93.7-204.2-220.4-204.2-147.3 0-261.2 106-261.2 255.5 0 72 44.1 108.9 44.1 126.2 0 14.5-10.6 65.8-29 65.8-2.8 0-6.7-1.1-9.5-1.7-79.8-24-108.8-130.5-108.8-203.7z" /></svg>