<svg height="1000" width="714.3" xmlns="http://www.w3.org/2000/svg"><path d="m357.1 359.4c160.8 17.8 285.8 154 285.8 319.2 0 189.7-164.1 340.9-358.3 319.2-150.7-16.8-271.2-141.2-283.5-293-13.9-176.9 115.5-327 284.6-345.4v-73.7h-89.3c-10 0-17.8-7.8-17.8-17.8v-35.8c0-10 7.8-17.8 17.8-17.8h89.3v-92.1l-51.3 51.3c-7.3 6.7-18.4 6.7-25.1 0l-25.7-25.6c-6.7-6.7-6.7-17.9 0-25.1l112.7-112.2c14-13.9 36.3-13.9 50.2 0l112.8 112.2c6.7 7.2 6.7 18.4 0 25.1l-25.7 25.6c-6.7 6.7-17.9 6.7-25.1 0l-51.4-51.3v92.1h89.3c10.1 0 17.9 7.8 17.9 17.8v35.8c0 10-7.8 17.8-17.9 17.8h-89.3v73.7z m-35.7 569.2c137.9 0 250-112.2 250-250s-112.1-250-250-250-250 112.1-250 250 112.2 250 250 250z" /></svg>