<svg height="1000" width="857.1" xmlns="http://www.w3.org/2000/svg"><path d="m321.4 857.1l53.6-250-53.6-71.4-71.4-35.7z m142.9 0l71.4-357.1-71.4 35.7-53.6 71.4z m89.3-563.6c-0.6-1.1-1.1-2.2-2.3-3.3-5-3.9-45.2-4.5-53.5-4.5-31.8 0-62 4.5-93.2 10.6-3.9 1.1-7.8 1.1-11.7 1.1s-7.9 0-11.8-1.1c-31.2-6.1-61.3-10.6-93.2-10.6-8.3 0-48.5 0.6-53.5 4.5-1.1 1.1-1.7 2.2-2.3 3.3 0.6 5 1.2 10.1 2.3 15.1 3.3 4.5 6.1 2.8 8.3 9.5 14.6 39.6 21.3 70.3 71.5 70.3 72 0 51.9-66.4 75.3-66.4h6.7c23.4 0 3.4 66.4 75.3 66.4 50.3 0 57-30.7 71.5-70.3 2.2-6.7 5-5 8.3-9.5 1.2-5 1.7-10.1 2.3-15.1z m232.1 490.5c0 91-59.7 144.6-149 144.6h-487.7c-89.3 0-149-53.6-149-144.6 0-101 17.9-253.9 121.7-304.1l-50.3-122.8h119.4c-7.8-22.8-12.2-46.8-12.2-71.4 0-6.1 0.5-12.3 1.1-17.8-21.8-4.5-108.3-22.4-108.3-53.6 0-32.9 94.9-50.8 117.2-55.3 11.7-41.8 39.6-105.4 68.1-138.4 11.2-12.8 25.1-20.6 42.4-20.6 33.5 0 60.3 34.6 93.8 34.6s60.2-34.6 93.7-34.6c17.3 0 31.3 7.8 42.4 20.6 28.5 33 56.4 96.6 68.1 138.4 22.3 4.5 117.2 22.4 117.2 55.3 0 31.2-86.5 49.1-108.3 53.6 2.8 30.1-1.1 60.2-11.1 89.2h119.4l-45.8 125.6c99.9 51.9 117.2 202 117.2 301.3z" /></svg>