<?xml version="1.0" encoding="utf-8"?>
<!-- Generator: Adobe Illustrator 24.3.0, SVG Export Plug-In . SVG Version: 6.00 Build 0)  -->
<svg version="1.1" id="Calque_1" focusable="false" xmlns="http://www.w3.org/2000/svg" xmlns:xlink="http://www.w3.org/1999/xlink"
	 x="0px" y="0px" viewBox="0 0 1142.9 1000" style="enable-background:new 0 0 1142.9 1000;" xml:space="preserve">
<path d="M1114.3,414.3H1000V300c0-15.7-12.9-28.6-28.6-28.6h-57.1c-15.7,0-28.6,12.9-28.6,28.6v114.3H771.5
	c-15.7,0-28.6,12.9-28.6,28.6V500c0,15.7,12.9,28.6,28.6,28.6h114.3v114.3c0,15.7,12.9,28.6,28.6,28.6h57.1
	c15.7,0,28.6-12.9,28.6-28.6V528.6h114.3c15.7,0,28.6-12.9,28.6-28.6v-57.1C1142.9,427.1,1130,414.3,1114.3,414.3z M400,500
	c126.3,0,228.6-102.3,228.6-228.6S526.3,42.8,400,42.8S171.4,145.2,171.4,271.4S273.8,500,400,500z M560,557.1h-29.8
	c-39.6,18.2-83.8,28.6-130.2,28.6s-90.4-10.4-130.2-28.6H240c-132.5,0-240,107.5-240,240v74.3c0,47.3,38.4,85.7,85.7,85.7h628.6
	c47.3,0,85.7-38.4,85.7-85.7v-74.3C800,664.6,692.5,557.1,560,557.1z"/>
</svg>
