<?xml version="1.0" encoding="utf-8"?>
<!-- Generator: Adobe Illustrator 24.3.0, SVG Export Plug-In . SVG Version: 6.00 Build 0)  -->
<svg version="1.1" id="Calque_1" focusable="false" xmlns="http://www.w3.org/2000/svg" xmlns:xlink="http://www.w3.org/1999/xlink"
	 x="0px" y="0px" viewBox="0 0 1142.9 1000" style="enable-background:new 0 0 1142.9 1000;" xml:space="preserve">
<path d="M1053,471.4l81.4-81.4c11.3-11.3,11.3-29.5,0-40.7l-40.7-40.7c-11.3-11.3-29.5-11.3-40.7,0L971.6,390l-81.4-81.4
	c-11.3-11.3-29.5-11.3-40.7,0l-40.7,40.7c-11.3,11.3-11.3,29.5,0,40.7l81.4,81.4l-81.4,81.4c-11.3,11.3-11.3,29.5,0,40.7l40.7,40.7
	c11.3,11.3,29.5,11.3,40.7,0l81.4-81.4l81.4,81.4c11.3,11.3,29.5,11.3,40.7,0l40.7-40.7c11.3-11.3,11.3-29.5,0-40.7L1053,471.4z
	 M400.1,500c126.3,0,228.6-102.3,228.6-228.6S526.3,42.8,400.1,42.8S171.5,145.1,171.5,271.4S273.8,500,400.1,500z M560.1,557.2
	h-29.8c-39.6,18.2-83.8,28.6-130.2,28.6s-90.4-10.4-130.2-28.6H240c-132.5,0-240,107.5-240,240v74.3c0,47.3,38.4,85.7,85.7,85.7
	h628.7c47.3,0,85.7-38.4,85.7-85.7v-74.3C800.1,664.7,692.6,557.2,560.1,557.2z"/>
</svg>
