<?xml version="1.0" encoding="utf-8"?>
<!-- Generator: Adobe Illustrator 24.3.0, SVG Export Plug-In . SVG Version: 6.00 Build 0)  -->
<svg version="1.1" id="Calque_1" xmlns="http://www.w3.org/2000/svg" xmlns:xlink="http://www.w3.org/1999/xlink" x="0px" y="0px"
	 viewBox="0 0 1000 1000" style="enable-background:new 0 0 1000 1000;" xml:space="preserve">
<path d="M763.3,0c-4.4,0.1-9.1,0.6-14.4,1.8c-38.5,8.7-19.1,30.7-46.8,40.7s-55.7-4.6-67.2,42.7c-11.4,47.4,65.2,79.3,65.2,79.3
	s-104,209.1-270.7,225.8C262.6,407,155.8,241.1,138.3,227.6c-29.5-22.7-81.8-33.6-63.1,20.3l50.9,146.5
	c-19.7,12.2-48.3,15.5-75.3,20.3c31.3,38.6,65,75,130.2,83.4c8.5,41.2-25.1,53-53.5,68.3c0,0,17.6,81.5,283,83.3
	S647.1,429,647.1,429c20.3,2.1,43.4,4.9,44.8,26.4c1.3,19.7,26,103.8-67.2,193.1c-93.2,89.4-396.8,38-396.8,38
	c119.6,75.1,272.4,94.6,384.6,92.3l114,134.3l-11.9,57.2c-6,28.6,25.7,44.7,44.5,9.9l28.5-57l89.5-56.9
	c21.4-13.6,18.1-52.8-21.8-33.5l-90.1,43.6c0,0-107.1-83.8-91.2-129.1c9.2-26.4,68.3-54.8,103.7-98.3
	c59.7-73.3,13.9-173.6,35.8-212.1c21.9-38.6,61.8-17.5,87.8-60.8c25.9-43.4-63.3-67.4-26-106.7l73.9,8.7c-3.7-33-5.9-34-33.5-55.5
	c0,0-12.4-25-14.4-41.5c-2.1-16.6-16.1-62.7-16.1-62.7s19.6-71.7,2.1-92.2s-46.2,4.1-67.2-2c-17.7-5.1-28.8-23.7-55-24.2
	C764.5,0,763.9,0,763.3,0L763.3,0z M822.7,150c21,0,38.1,17.7,38.1,39.6c0,21.8-17.1,39.5-38.1,39.5c-21.1,0-38.2-17.7-38.2-39.5
	C784.5,167.7,801.6,150,822.7,150L822.7,150z M461.4,815.2l-15.1,35.3l-92.1-1.5c-7.1,11.5-2,18,0,29.5c0,0,65.1,13.8,87.8,30.2
	c22,15.9,44.6,62.6,44.6,62.6c29.2,44,65.4,11.3,51.8-9.4c-17.8-27.2-41.8-45.7-51.1-84.8c-1.3-4,31.9-54,35.3-55.4L461.4,815.2
	L461.4,815.2z"/>
</svg>
