<svg height="1000" width="1000.0" xmlns="http://www.w3.org/2000/svg"><path d="m480.8 27.7c0 0-176.8 205.5-114.8 291.8 0.2 0.4 0.5 0.7 0.7 1 0.3 0.4 0.5 0.7 0.8 1 19.2-9.3 58.5-17.7 80.2-22.8 10.4-25.8 15.7-81.4 24.7-113.6 18.1 20.8 4.9 73.3 13.9 103.3 17.2 3.1 97.9 15.9 113.8 21.7 32.8-94.9-119.3-282.4-119.3-282.4z m-293.5 54.2c0 0-10.4 103.3 4.6 191.8 27.4 0.5 55 3.4 81.2 10.9 14.7 4.2 29.5 10.1 43 18.5-5.6-25.7-3-52.4 3.1-76.8 5.4-21.6 13.6-42.7 23.2-63-2-1.4-4-2.8-6-4.1-67.7-46.2-149.1-77.3-149.1-77.3z m566 14.1c0 0-71.7 18.7-139.6 51.7 14.4 29 26.9 59.7 33.5 91.3 3.2 15.6 4.8 32.1 4 48.6 19.1-15 42.1-24.6 64.9-30.9 11.2-3.1 22.7-5.4 34.3-7.3 9-77.3 2.9-153.4 2.9-153.4z m73.3 191.6c-67.9 0.4-140.7 11.3-168.5 51.9 15.5 10.3 51.4 52.2 63.9 65.2 13.6-5.6 86.4-47.5 105.6-37.4-18.5 17.2-67.6 20.9-82.5 64.3 4.8 17.1 15.6 69.3 15.6 87.7 0 2-0.1 4-0.1 6 100.6 3.2 206-226.4 206-226.4 0 0-63-11-133-11.3-2.4 0-4.7 0-7 0z m-653.2 30.2c-81.9 0.7-166.4 21.6-166.4 21.6 0 0 127.7 233.4 230.1 216.4-2.3-11.8-3.4-24-3.4-36.5 0-15.7 2.8-48.8 6.4-63.6 3.5-14.8-61.6-34.2-76.6-54 20.1-3.2 84 26.5 93.4 14.5 9.4-12 41.8-47.1 53.7-57.3 31-26.8-80.6-41.6-137.2-41.1z m344.5 7.3c-14.3 0.1-28.4 1.4-42 4.2-79.2 16.2-187.9 27-198.3 169.3-10.3 142.2 62.6 187.2 150.8 207.7 88.3 20.4 228.8-28 268.5-94.5 39.7-66.6 33.7-162.9-6.2-215-33-43.2-104.3-72.2-172.8-71.7z m369.1 179.6c-7.8 8-15.8 15.7-24.3 22.8-29.3 24.5-65.6 44.8-108 40.3-2.3 9.1-5.3 18.1-8.8 26.8 21.3 9.4 39.9 24.2 56.1 40.2 10.9 10.9 21.1 22.7 30.7 35.1 83-23.1 167.3-73.2 167.3-73.2 0 0-45.7-45-103.2-85.2-3.2-2.3-6.5-4.6-9.8-6.8z m-766.1 47.4c-65.3 42.6-120.9 98.5-120.9 98.5 0 0 99 57.4 189.3 77.6 9.9-22 21.6-43.7 35.6-63.2 10.7-15 23.3-29.4 38.2-41.1-5.1-8.4-9.5-17.1-13.3-26-41.3 7.8-79.3-9.3-110.2-31.3-6.4-4.6-12.6-9.5-18.7-14.5z m603.2 82.9c-7.7 11.2-34 44.6-43.7 54.4 28.9 24.8 65.6 53.6 72.4 90.5-20-31.1-71.3-61.6-100.7-70.3-13 6.5-49.4 18.3-63.6 22.9-26 8.3-8.4 53.2 1 74.5 41.9 94.4 301 68.4 301 68.4 0 0-75.8-201.3-166.4-240.4z m-436.1 22.7c-77.8 58-114 256.7-114 256.7 0 0 271.4-22.1 291.6-126.6 2.7-13.9 1-28.6-4-43.3-17.5-2-64.5-11.8-80.8-16.7-38.9 32.6-63.2 69.4-95.2 71.8 8.7-18.1 42-61.2 60-87-11.3-9.7-47.2-43.3-57.6-54.9z m256.4 85.2c-10.9 1.7-21.9 2.9-33.2 3.4 3.3 15.7 3.8 32.2 0.5 49.2-8.5 43.8-40.7 73.1-74.6 93.2-0.4 0.2-0.8 0.4-1.1 0.6 59.6 73.9 175.8 138.4 175.8 138.4 0 0 15.5-63 20.7-133.8-32.4-13.2-63.3-34.1-79.1-69.8-11.8-26.7-13.6-54.4-9-81.2z" /></svg>