<?xml version="1.0" encoding="utf-8"?>
<!-- Generator: Adobe Illustrator 24.3.0, SVG Export Plug-In . SVG Version: 6.00 Build 0)  -->
<svg version="1.1" id="Calque_1" xmlns="http://www.w3.org/2000/svg" xmlns:xlink="http://www.w3.org/1999/xlink" x="0px" y="0px"
	 viewBox="0 0 1000 1000" style="enable-background:new 0 0 1000 1000;" xml:space="preserve">
<path d="M969.1,9.8c-91.5,0.3-229.8,46.8-315.8,109.6c-68.6-7.5-198.2-30.4-300.1-8c-147.7,32.5-188.9,61-198.5,123.1
	c-6.1,38.8,87.3,82.9,87.3,82.9c9.2-19.5,4.1-44.7-0.3-69.6l203.5,44.5l32.8,59.4c23-55,68.5-127.4,163.9-92.6
	c68.7,108.1,231.3,151.8,315.7,173.6c0,0-44.1-136-84.5-214c51.5-74.2,109-208.7,109-208.7C977.9,9.8,973.6,9.7,969.1,9.8z
	 M125.9,228.6C9.2,356-11.1,538.9,93.9,725.3c21.4,37.9,221.1,236.2,393.8,262.3c152.7,23,503.4-110.3,503.4-110.3l-20.9-49.2
	l-307,58.1l336.8-95.3c0,0-81.1-195.1-190.7-261.5s-333.9-123-333.9-123l-45.2-90.9L271,273c6.6,30.8,0.3,63.6-14.5,91.7
	C207.8,326.5,133.6,292.4,125.9,228.6L125.9,228.6z M469.5,513.7c0,0-106.4,94.7-116.3,166.5c-9.9,71.7,38.8,226.9,38.8,226.9
	s-107.4-153.2-95.4-235.4C308.7,589.4,469.5,513.7,469.5,513.7L469.5,513.7z M655.6,620.6c29.3,0,53,24,53,53.7
	c0,29.6-23.7,53.6-53,53.6s-53-24-53-53.6C602.6,644.6,626.3,620.6,655.6,620.6z M113.1,785.6C82.4,798,38.9,795.9,0,789.2
	l102.4,137.1c65.1,20.8,139.6,20.9,204.8,18.8C235.6,899.1,167.9,849.2,113.1,785.6L113.1,785.6z"/>
</svg>
