<svg height="1000" width="857.1" xmlns="http://www.w3.org/2000/svg"><path d="m607.1 0c137.9 0 250 79.8 250 178.6v500c0 96.5-106.5 174.6-240.5 178l118.9 112.7c11.7 11.2 3.9 30.7-12.3 30.7h-589.3c-16.2 0-24-19.5-12.2-30.7l118.8-112.7c-133.9-3.4-240.5-81.5-240.5-178v-500c0-98.8 112.2-178.6 250-178.6h357.1z m-446.4 732.1c49.1 0 89.3-40.1 89.3-89.2s-40.2-89.3-89.3-89.3-89.3 40.1-89.3 89.3 40.2 89.2 89.3 89.2z m232.2-303.5v-285.7h-303.6v285.7h303.6z m303.5 303.5c49.1 0 89.3-40.1 89.3-89.2s-40.2-89.3-89.3-89.3-89.3 40.1-89.3 89.3 40.2 89.2 89.3 89.2z m89.3-303.5v-285.7h-321.4v285.7h321.4z" /></svg>