<svg height="1000" width="1000.0" xmlns="http://www.w3.org/2000/svg"><path d="m208.3 666.7c0 161 130.7 291.6 291.7 291.6s291.7-130.6 291.7-291.6v-166.7h-583.4v166.7z m463.6-484.6l87.5-87.5-34.4-34.4-96 96c-39.2-19.3-82.5-31.2-129-31.2s-89.8 11.9-129 31.2l-96-96-34.4 34.4 87.5 87.5c-72.3 52.9-119.8 137.9-119.8 234.6v41.6h583.4v-41.6c0-96.7-47.5-181.7-119.8-234.6z m-296.9 192.9c-23.1 0-41.7-18.7-41.7-41.7s18.6-41.6 41.7-41.6c23.1 0 41.7 18.7 41.7 41.6s-18.6 41.7-41.7 41.7z m250 0c-23.1 0-41.7-18.7-41.7-41.7s18.6-41.6 41.7-41.6c23.1 0 41.7 18.7 41.7 41.6s-18.6 41.7-41.7 41.7z" /></svg>