<svg height="1000" width="1000.0" xmlns="http://www.w3.org/2000/svg"><path d="m652.7 166.7h-69.4v-83.4h-166.6v83.4h-69.4c-30.8 0-55.6 24.8-55.6 55.6v639c0 30.6 24.8 55.6 55.6 55.6h305.6c30.6 0 55.6-24.8 55.6-55.6v-639c-0.2-30.8-25-55.6-55.8-55.6z m-113.1 581.2h-79.2v-79.1h79.2v79.1z m56.2-219.1s-15.8 17.5-27.9 29.5c-20.2 20.2-34.6 47.7-34.6 66.7h-66.6c0-34.6 19.1-63.5 38.7-83.1l38.8-39.4c11.2-11.2 18.3-26.9 18.3-44.2 0-34.5-27.9-62.5-62.5-62.5s-62.5 28-62.5 62.5h-62.5c0-68.9 56-125 125-125s125 56.1 125 125c0 27.5-11 52.5-29.2 70.5z" /></svg>