<svg height="1000" width="1000.0" xmlns="http://www.w3.org/2000/svg"><path d="m125 875h83.3v-83.3h-83.3v83.3z m166.7 0h83.3v-83.3h-83.3v83.3z m-83.4-583.3h-83.3v83.3h83.3v-83.3z m-83.3 416.6h83.3v-83.3h-83.3v83.3z m250-583.3h-83.3v83.3h83.3v-83.3z m-166.7 0h-83.3v83.3h83.3v-83.3z m500 0h-83.3v83.3h83.3v-83.3z m83.4 250h83.3v-83.3h-83.3v83.3z m0-250v83.3h83.3v-83.3h-83.3z m-166.7 750h83.3v-83.3h-83.3v83.3z m-83.3-750h-83.4v333.3h-333.3v83.4h333.3v333.3h83.4v-333.3h333.3v-83.4h-333.3v-333.3z m250 750h83.3v-83.3h-83.3v83.3z m0-166.7h83.3v-83.3h-83.3v83.3z" /></svg>