<svg height="1000" width="1000.0" xmlns="http://www.w3.org/2000/svg"><path d="m458.3 875h83.4v-83.3h-83.4v83.3z m0-166.7h83.4v-83.3h-83.4v83.3z m0-500h83.4v-83.3h-83.4v83.3z m0 166.7h83.4v-83.3h-83.4v83.3z m0 166.7h83.4v-83.4h-83.4v83.4z m-166.6 333.3h83.3v-83.3h-83.3v83.3z m0-666.7h83.3v-83.3h-83.3v83.3z m0 333.4h83.3v-83.4h-83.3v83.4z m-166.7 333.3h83.3v-750h-83.3v750z m666.7-500h83.3v-83.3h-83.3v83.3z m-166.7 500h83.3v-83.3h-83.3v83.3z m166.7-166.7h83.3v-83.3h-83.3v83.3z m0-583.3v83.3h83.3v-83.3h-83.3z m0 416.7h83.3v-83.4h-83.3v83.4z m0 333.3h83.3v-83.3h-83.3v83.3z m-166.7-333.3h83.3v-83.4h-83.3v83.4z m0-333.4h83.3v-83.3h-83.3v83.3z" /></svg>