<svg height="1000" width="1000.0" xmlns="http://www.w3.org/2000/svg"><path d="m583.3 208.3c0-46-37.3-83.3-83.3-83.3h-41.7v-41.7c0-22.9-18.7-41.6-41.6-41.6h-166.7c-22.9 0-41.7 18.7-41.7 41.6v41.7h-41.6c-46.1 0-83.4 37.3-83.4 83.3v625c0 46.1 37.3 83.4 83.4 83.4h333.3c46 0 83.3-37.3 83.3-83.4h333.4v-625h-333.4z m-83.3 541.7h-83.3v-83.3h83.3v83.3z m0-375h-83.3v-83.3h83.3v83.3z m166.7 375h-83.4v-83.3h83.4v83.3z m0-375h-83.4v-83.3h83.4v83.3z m166.6 375h-83.3v-83.3h83.3v83.3z m0-375h-83.3v-83.3h83.3v83.3z" /></svg>