<svg height="1000" width="1000.0" xmlns="http://www.w3.org/2000/svg"><path d="m416.7 833.3h-208.4v83.4h208.4v83.3l125-125-125-125v83.3z m166.6 0v83.4h208.4v-83.4h-208.4z m-83.3-500c46 0 83.3-37.3 83.3-83.3s-37.3-83.3-83.3-83.3-83.1 37.3-83.1 83.3c0.2 46 37.1 83.3 83.1 83.3z m208.3-333.3h-416.6c-46.1 0-83.4 37.3-83.4 83.3v583.4c0 46 37.3 83.3 83.4 83.3h416.6c46.1 0 83.4-37.3 83.4-83.3v-583.4c0-46-37.3-83.3-83.4-83.3z m-416.6 83.3h416.6v437.5c0-69.3-138.9-104.1-208.3-104.1s-208.3 34.8-208.3 104.1v-437.5z" /></svg>