<svg height="1000" width="1000.0" xmlns="http://www.w3.org/2000/svg"><path d="m791.7 166.7h-583.4c-46 0-83.3 37.3-83.3 83.3v500c0 46 37.3 83.3 83.3 83.3h583.4c46 0 83.3-37.3 83.3-83.3v-500c0-46-37.3-83.3-83.3-83.3z m-333.4 291.6h-62.5v-20.8h-83.3v125h83.3v-20.8h62.5v41.6c0 23-18.5 41.7-41.6 41.7h-125c-23.2 0-41.7-18.7-41.7-41.7v-166.6c0-22.9 18.5-41.7 41.7-41.7h125c23.1 0 41.6 18.8 41.6 41.7v41.6z m291.7 0h-62.5v-20.8h-83.3v125h83.3v-20.8h62.5v41.6c0 23-18.5 41.7-41.7 41.7h-125c-23.1 0-41.6-18.7-41.6-41.7v-166.6c0-22.9 18.5-41.7 41.6-41.7h125c23.2 0 41.7 18.8 41.7 41.7v41.6z" /></svg>