<svg height="1000" width="1000.0" xmlns="http://www.w3.org/2000/svg"><path d="m666.7 200c41.2 0 75-33.5 75-75s-33.8-75-75-75c-41.5 0-75 33.5-75 75s33.5 75 75 75z m125 300c-115 0-208.4 93.3-208.4 208.3s93.4 208.4 208.4 208.4 208.3-93.4 208.3-208.4-93.3-208.3-208.3-208.3z m0 354.2c-80.7 0-145.9-65.2-145.9-145.9s65.2-145.8 145.9-145.8 145.8 65.2 145.8 145.8-65.2 145.9-145.8 145.9z m-175-437.5h175v-75h-133.4l-80.6-136.1c-12.3-20.8-35-34.8-61-34.8-19.6 0-37.3 8-50 20.9l-154.2 153.9c-12.9 12.9-20.8 30.6-20.8 50.2 0 26.3 13.9 48.4 35.4 61.3l139.6 84.6v208.3h75v-270l-93.8-69.6 96.7-97.1 72.1 103.4z m-408.4 83.3c-115 0-208.3 93.3-208.3 208.3s93.3 208.4 208.3 208.4 208.4-93.4 208.4-208.4-93.4-208.3-208.4-208.3z m0 354.2c-80.6 0-145.8-65.2-145.8-145.9s65.2-145.8 145.8-145.8 145.9 65.2 145.9 145.8-65.2 145.9-145.9 145.9z" /></svg>