<svg height="1000" width="1000.0" xmlns="http://www.w3.org/2000/svg"><path d="m125 541.7h83.3v-83.4h-83.3v83.4z m0 166.6h83.3v-83.3h-83.3v83.3z m83.3 166.7v-83.3h-83.3c0 46 37.3 83.3 83.3 83.3z m-83.3-500h83.3v-83.3h-83.3v83.3z m500 500h83.3v-83.3h-83.3v83.3z m166.7-750h-416.7c-46 0-83.3 37.3-83.3 83.3v416.7c0 46 37.3 83.3 83.3 83.3h416.7c46 0 83.3-37.3 83.3-83.3v-416.7c0-46-37.3-83.3-83.3-83.3z m0 500h-416.7v-416.7h416.7v416.7z m-333.4 250h83.4v-83.3h-83.4v83.3z m-166.6 0h83.3v-83.3h-83.3v83.3z" /></svg>