<svg height="1000" width="1000.0" xmlns="http://www.w3.org/2000/svg"><path d="m375 291.7h-83.3v83.3h83.3v-83.3z m0 166.6h-83.3v83.4h83.3v-83.4z m0-333.3c-46 0-83.3 37.3-83.3 83.3h83.3v-83.3z m166.7 500h-83.4v83.3h83.4v-83.3z m250-500v83.3h83.3c0-46-37.3-83.3-83.3-83.3z m-250 0h-83.4v83.3h83.4v-83.3z m-166.7 583.3v-83.3h-83.3c0 46 37.3 83.3 83.3 83.3z m416.7-166.6h83.3v-83.4h-83.3v83.4z m0-166.7h83.3v-83.3h-83.3v83.3z m0 333.3c46 0 83.3-37.3 83.3-83.3h-83.3v83.3z m-583.4-416.6h-83.3v500c0 46 37.3 83.3 83.3 83.3h500v-83.3h-500v-500z m416.7-83.4h83.3v-83.3h-83.3v83.3z m0 500h83.3v-83.3h-83.3v83.3z" /></svg>