<svg height="1000" width="1000.0" xmlns="http://www.w3.org/2000/svg"><path d="m872.5 458.3c-19.2-173.7-157.1-311.6-330.8-330.8v-85.8h-83.4v85.8c-47 5.2-91.2 19.4-131.4 40.4l62.5 62.5c34.1-14.1 71.4-22.1 110.6-22.1 161 0 291.7 130.7 291.7 291.7 0 39.2-7.9 76.5-21.9 110.6l62.5 62.5c21-40.2 35-84.3 40.2-131.4h85.8v-83.4h-85.8z m-747.5-280.2l84.8 84.8c-44.6 54.6-74.2 121.7-82.3 195.4h-85.8v83.4h85.8c19.2 173.7 157.1 311.6 330.8 330.8v85.8h83.4v-85.8c73.7-8.1 140.8-37.9 195.4-82.5l84.8 85 53.1-52.9-696.9-697.1-53.1 53.1z m552.7 552.7c-49.2 38-110.6 60.9-177.7 60.9-161 0-291.7-130.7-291.7-291.7 0-67.1 23-128.5 60.9-177.7l408.5 408.5z" /></svg>