<svg height="1000" width="1000.0" xmlns="http://www.w3.org/2000/svg"><path d="m708.3 833.3c-11.8 0-23.5-2.5-31.8-6.2-29.4-15.6-50.7-36.9-71.3-99.4-21.4-64.8-61.2-95.4-99.8-125.2-32.9-25.4-67.1-51.7-96.4-105.2-21.9-40-34-83.5-34-122.3 0-116.9 91.5-208.3 208.3-208.3s208.4 91.4 208.4 208.3h83.3c0-163.5-128.1-291.7-291.7-291.7s-291.6 128.2-291.6 291.7c0 52.7 15.8 110.4 44.3 162.5 38 69 82.7 103.3 118.8 131.3 33.7 26 58.1 44.7 71.4 85.2 25 75.6 57.3 118.3 113.6 147.9 21.7 9.8 44.6 14.8 68.5 14.8 91.9 0 166.7-74.8 166.7-166.7h-83.3c0 46-37.3 83.3-83.4 83.3z m-390.2-723.5l-58.9-59c-82.9 83-134.2 197.5-134.2 324.2s51.3 241.3 134.2 324.2l58.9-59c-67.9-67.9-109.8-161.7-109.8-265.2s41.9-197.3 109.8-265.2z m161.1 265.2c0 57.5 46.6 104.2 104.1 104.2s104.2-46.7 104.2-104.2-46.7-104.2-104.2-104.2-104.1 46.7-104.1 104.2z" /></svg>