<?xml version="1.0" encoding="utf-8"?>
<!-- Generator: Adobe Illustrator 24.3.0, SVG Export Plug-In . SVG Version: 6.00 Build 0)  -->
<svg version="1.1" id="Calque_1" xmlns="http://www.w3.org/2000/svg" xmlns:xlink="http://www.w3.org/1999/xlink" x="0px" y="0px"
	 viewBox="0 0 1000 1000" style="enable-background:new 0 0 1000 1000;" xml:space="preserve">
<path d="M617.2,781.2H148.4c-12.9,0-23.4,10.5-23.4,23.4v46.9c0,12.9,10.5,23.4,23.4,23.4h468.8c12.9,0,23.4-10.5,23.4-23.4v-46.9
	C640.6,791.8,630.1,781.2,617.2,781.2z M847.5,282.2L728.8,163.5c-9.1-9.1-24-9.1-33.1,0l-16.6,16.6c-9.1,9.1-9.1,24,0,33.1
	l55.2,55.2v91c0,41.2,30.6,75.1,70.3,80.9v235.5c0,19.3-15.8,35.2-35.2,35.2s-35.2-15.8-35.2-35.2v-46.9
	c0-71.2-57.7-128.9-128.9-128.9h-11.7V218.8c0-51.7-42-93.8-93.8-93.8H265.6c-51.7,0-93.8,42-93.8,93.8v515.6h421.9V570.3h11.7
	c32.4,0,58.6,26.2,58.6,58.6v40.7c0,55.2,39.6,105.5,94.5,111.2c63,6.3,116.5-43.2,116.5-105V348.5C875,323.6,865,299.8,847.5,282.2
	L847.5,282.2z M500,406.2H265.6V218.8H500V406.2z"/>
</svg>
