<svg height="1000" width="1000.0" xmlns="http://www.w3.org/2000/svg"><path d="m833.3 272.7v454.6c-108.1-32.1-220-48.3-333.3-48.3s-225 16.2-333.3 48.3v-454.6c108.1 32.1 220 48.3 333.3 48.3s225-16.2 333.3-48.3z m59.6-106c-3.9 0-8.3 0.8-12.9 2.5-122.5 45.6-251.2 68.5-380 68.5s-257.5-22.9-380-68.5c-4.6-1.7-9-2.5-13.1-2.5-13.8 0-23.6 9.8-23.6 26v614.6c0.2 16.2 9.8 26 23.6 26 3.9 0 8.3-0.8 12.9-2.5 122.5-45.6 251.2-68.5 380-68.5s257.5 22.9 380 68.5c4.6 1.7 9 2.5 12.9 2.5 13.8 0 23.8-9.8 23.6-26v-614.6c0.4-16.2-9.6-26-23.4-26z" /></svg>