<svg height="1000" width="1000.0" xmlns="http://www.w3.org/2000/svg"><path d="m830.8 880c-45.6-122.5-68.5-251.2-68.5-380s22.9-257.5 68.5-380c1.7-4.6 2.5-9 2.5-13.1 0-13.8-9.8-23.6-26-23.6h-614.6c-16.2 0.2-26 9.8-26 23.6 0 3.9 0.8 8.3 2.5 12.9 45.6 122.5 68.5 251.2 68.5 380s-22.9 257.5-68.5 380c-1.7 4.8-2.5 9.2-2.5 13.3 0 13.8 9.8 23.6 26 23.6h614.6c16.2 0 26-10 26-23.8 0-3.9-0.8-8.3-2.5-12.9z m-558.1-46.7c32.1-108.1 48.3-220 48.3-333.3s-16.2-225-48.3-333.3h454.6c-32.1 108.1-48.3 220-48.3 333.3s16.2 225 48.3 333.3h-454.6z" /></svg>