<svg height="1000" width="1000.0" xmlns="http://www.w3.org/2000/svg"><path d="m647.9 231.2l-189.6-189.5v127.9c-164.3 20.4-291.6 160.4-291.6 330.4s127.3 310 291.6 330.4v-84.1c-118.1-19.8-208.3-122.5-208.3-246.3s90.2-226.5 208.3-246.2v162.9l189.6-185.4z m182.5 227.1c-7.1-57.9-30.2-113.7-67.7-162l-58.9 58.9c22.2 31.5 36.4 66.7 42.5 103.1h84.1z m-288.7 287.7v84.4c57.9-7.1 114.1-29.6 162.5-67.1l-59.8-59.8c-31.3 22.1-66.3 36.3-102.7 42.5z m162.1-101.2l58.9 59c37.5-48.4 60.6-104.2 67.7-162.1h-84.2c-6 36.4-20.2 71.6-42.5 103.1z" /></svg>