<svg height="1000" width="1000.0" xmlns="http://www.w3.org/2000/svg"><path d="m717.1 375l-182.5-273.1c-7.9-12.1-21.3-17.7-34.6-17.7s-26.7 5.8-34.6 17.7l-182.5 273.1h-199.6c-22.9 0-41.6 18.8-41.6 41.7 0 3.9 0.6 7.7 1.4 11.2l105.7 386.3c9.7 35 42 60.8 80.4 60.8h541.6c38.4 0 70.7-25.8 80.2-61l105.7-386.3c1-3.3 1.6-7.1 1.6-11 0-23-18.7-41.7-41.6-41.7h-199.6z m-342.1 0l125-183.3 125 183.3h-250z m125 333.3c-46 0-83.3-37.3-83.3-83.3s37.3-83.3 83.3-83.3 83.3 37.3 83.3 83.3-37.3 83.3-83.3 83.3z" /></svg>