<svg height="1000" width="1000.0" xmlns="http://www.w3.org/2000/svg"><path d="m809.6 540.6c1.7-13.3 2.9-26.8 2.9-40.6s-1.2-27.3-2.9-40.6l88.1-69c7.9-6.2 10.2-17.5 5-26.6l-83.3-144.4c-5.2-9-16.1-12.7-25.4-9l-103.8 41.9c-21.4-16.5-45-30.4-70.4-41l-15.6-110.5c-1.9-9.8-10.5-17.5-20.9-17.5h-166.6c-10.5 0-19 7.7-20.7 17.5l-15.6 110.5c-25.4 10.6-48.9 24.3-70.4 41l-103.8-41.9c-9.3-3.5-20.2 0-25.4 9l-83.3 144.4c-5.2 8.9-2.9 20.2 5 26.6l87.9 69c-1.7 13.3-2.9 26.9-2.9 40.6s1.2 27.3 2.9 40.6l-87.9 69c-7.9 6.2-10.2 17.5-5 26.7l83.3 144.3c5.2 9 16.1 12.7 25.4 9l103.8-41.9c21.5 16.5 45 30.4 70.4 41.1l15.6 110.4c1.7 9.8 10.2 17.5 20.7 17.5h166.6c10.5 0 19-7.7 20.7-17.5l15.6-110.4c25.4-10.7 48.9-24.4 70.4-41.1l103.8 41.9c9.3 3.5 20.2 0 25.4-9l83.3-144.3c5.2-9 2.9-20.3-5-26.7l-87.9-69z m-309.6 105.2c-80.6 0-145.8-65.2-145.8-145.8s65.2-145.8 145.8-145.8 145.8 65.2 145.8 145.8-65.2 145.8-145.8 145.8z" /></svg>