<svg height="1000" width="1000.0" xmlns="http://www.w3.org/2000/svg"><path d="m41.7 375h83.3v-83.3h-83.3v83.3z m0 166.7h83.3v-83.4h-83.3v83.4z m0-333.4h83.3v-83.3c-46 0-83.3 37.3-83.3 83.3z m333.3 666.7h83.3v-83.3h-83.3v83.3z m-333.3-166.7h83.3v-83.3h-83.3v83.3z m83.3 166.7v-83.3h-83.3c0 46 37.3 83.3 83.3 83.3z m750-750h-333.3v250h416.6v-166.7c0-46-37.3-83.3-83.3-83.3z m0 583.3h83.3v-83.3h-83.3v83.3z m-500-500h83.3v-83.3h-83.3v83.3z m-166.7 666.7h83.4v-83.3h-83.4v83.3z m0-666.7h83.4v-83.3h-83.4v83.3z m666.7 666.7c46 0 83.3-37.3 83.3-83.3h-83.3v83.3z m0-333.3h83.3v-83.4h-83.3v83.4z m-333.3 333.3h83.3v-83.3h-83.3v83.3z m166.6 0h83.4v-83.3h-83.4v83.3z" /></svg>