<svg height="1000" width="1000.0" xmlns="http://www.w3.org/2000/svg"><path d="m500 83.3c-230.2 0-416.7 186.5-416.7 416.7s186.5 416.7 416.7 416.7 416.7-186.5 416.7-416.7-186.5-416.7-416.7-416.7z m-41.7 747.1c-164.3-20.4-291.6-160.4-291.6-330.4s127.3-310 291.6-330.4v660.8z m83.4-660.8c42.9 5.4 83.3 18.7 119.6 38.7h-119.6v-38.7z m0 122.1h218.3c10.4 13.1 20 27.1 28.3 41.6h-246.6v-41.6z m0 125h280.8c3.5 13.5 6.3 27.5 8.1 41.6h-288.9v-41.6z m0 413.7v-38.7h119.6c-36.3 20-76.7 33.3-119.6 38.7z m218.3-122.1h-218.3v-41.6h246.6c-8.3 14.5-17.9 28.5-28.3 41.6z m62.5-125h-280.8v-41.6h288.7c-1.6 14.1-4.6 28.1-7.9 41.6z" /></svg>