<svg height="1000" width="857.1" xmlns="http://www.w3.org/2000/svg"><path d="m781.8 863.3l-3.3 3.3c-41.9 41.9-90.4 74.8-144.6 97.7-56.3 23.4-115.5 35.7-176.9 35.7s-121.1-12.3-176.9-35.7c-54.1-22.9-103.2-55.8-144.5-97.7-41.9-41.3-74.8-89.8-97.7-143.9-13.9-34.1-25.1-69.2-30.1-105.5v0c-2.2-15.6 19.5-19 26.8-20.1 17.3-2.8 29-1.7 31.2 11.2 0.6 0.5 0.6 1.1 0.6 2.2 2.2 11.2 7.8 44.6 25.7 88.7 18.4 45.8 46.9 88.2 84.8 126.1 36.3 36.3 78.7 64.8 126.1 84.9 48.6 20.6 100.5 31.2 154 31.2 53 0 104.9-10.6 154-31.2 46.9-20.1 89.3-48.6 125.6-84.9l3.4-3.3c3.9-3.9 8.3-5 13.9-3.4 5 1.2 11.2 5.6 18.4 12.3v0c17.9 18.4 14 27.4 9.5 32.4z m-263.4-343.2l-36.8 36.8 35.1 35.2c3.9 3.9 11.2 12.3-3.9 27.3-6.1 6.2-12.2 9.5-17.8 9.5-3.9 0-7.3-1.7-10.6-5.6l-34.6-34-36.9 36.8c-1.1 1.1-3.9 2.8-8.3 2.8-5 0-11.2-2.8-17.3-8.9l-1.1-1.1c-3.9-3.4-10.1-9.5-10.1-16.2 0-3.4 1.7-6.2 4.5-9.5l36.8-36.3-36.8-36.8c-6.2-6.1-3.4-14 7.8-25.1 6.7-6.7 12.3-10.1 17.3-10.1 2.8 0 5 1.1 7.2 2.8l36.3 36.9 36.3-36.3c6.1-6.2 16.2-3.4 26.8 7.2 6.7 6.7 13.9 16.2 6.1 24.6z m262.9 31.8c0 44.1-9 87.1-25.7 127.2-16.8 39.1-40.2 73.7-70.3 103.8s-65.3 53.6-104.4 70.3c-40.2 17.3-83.1 25.7-127.2 25.7s-87.1-8.4-127.2-25.7c-39.1-16.7-74.3-40.1-104.4-70.3s-53.6-64.7-69.8-103.8c-3.3-7.2-8.3-21.2-8.3-22.3h-0.6c-5-15.6 17.3-22.3 24-24.5 16.2-5.1 28.5-7.3 33.5 6.7 13.4 35.7 34 70.3 54.1 93.1h0.6v-189.1-1.1c1.1-46.9 20.6-94.4 56.9-129.5 37.4-36.8 87.6-57.5 141.2-57.5 109.4 0 198.1 88.2 198.1 196.4 0 109.4-89.3 198.1-198.1 198.1-21.8 0-38-1.6-62.5-8.9-2.8-1.1-15.6-6.7-7.3-34 2.3-7.3 9-28.5 24.6-24 1.1 0 28.4 6.7 43 6.7 77.5 0 138.3-60.3 138.3-137.3 0-36.3-14.5-70.3-40.1-95.4-25.7-25.7-60.3-39.6-97.7-39.6-38.5 0-73.7 15.6-99.3 44.6-22.3 25.1-35.7 58.6-35.7 89.3v230.5c40.1 24.5 86.5 37.3 135 37.3 71.4 0 140.6-28.4 190.3-78.1 50.2-50.2 78.1-117.7 78.1-188.6 0-71.4-27.9-138.4-78.7-189.2-50.2-50.2-117.1-78.1-189.1-78.1s-139.5 27.9-189.8 78.1c-0.5 0.6-32.3 33.5-42.9 48.6l-1.2 1.1c-6.6 9.5-12.8 18.4-40.7 12.3-13.9-3.4-29-11.8-29-24v-379.5c0-10 7.8-21.2 21.2-21.2h489.4c16.7 0 16.7 23.4 16.7 30.7 0 7.8 0 30.7-16.7 30.7h-452.6v269.5h0.6c31.2-32.9 85.4-67.5 117.2-80.9 39.6-16.7 84.2-25.7 128.9-25.7 44.1 0 87 8.4 127.2 25.7 39.1 16.7 74.2 40.2 104.4 70.3s53.5 64.7 70.3 103.8c16.7 40.7 25.7 83.2 25.7 127.8z m-17.3-324.2c10.6 9.5 3.3 19.5-7.3 31.8-6.7 6.7-14 14.5-21.8 14.5-3.3 0-6.1-1.1-8.9-3.9-40.2-34.6-76.4-58-115.5-74.2-48.6-21.2-100.5-31.3-154-31.3-47.5 0-99.4 9.5-146.2 27.4-14.5 5.5-22.4-13.4-25.1-20.7-3.4-8.9-5.1-16.2-4.5-21.2 1.1-5.6 3.9-9.5 8.9-11.1 45.8-20.1 108.3-31.9 166.9-31.9 60.8 0 120.5 12.3 176.3 35.8 51.4 21.7 93.2 48.5 131.2 84.8z" /></svg>