<svg height="1000" width="1000.0" xmlns="http://www.w3.org/2000/svg"><path d="m865.5 823.7c16.8-8.4 29.6 4.4 12.3 26.7s-156.3 149.6-389.5 149.6-411.8-159.6-466.5-225.4c-15.1-17.3 2.2-25.2 12.2-18.5 163.5 99.4 419.1 262.9 831.5 67.6z m115.5-64.2c8.4 11.1 0 60.3-14.5 96-14.5 35.1-35.7 59.7-47.4 69.2-12.3 10-21.2 6.1-14.5-8.4s42.9-103.8 28.4-122.8c-14.5-18.4-82.6-9.5-107.1-7.2-24 2.2-29 4.4-31.3-0.6-5-12.8 48.6-34.6 83.7-39 35.2-4 91.6-1.7 102.7 12.8z m-219.8-247.2c0 61.4 71.9 117.7 71.9 117.7l-126.6 125c-49.7-46.9-87.1-85.9-87.1-85.9-5.6-5.6-10-12.3-13.9-18.4-101 157.9-409.6 147.8-409.6-96.6 0-227.6 269.5-258.3 378.3-262.2v-70.9c0-15.1 5.6-83.7-79.2-83.7 0 0-84.8 0-121.1 110.5l-164.1-15.1c0-109.9 104.4-232.7 300.8-232.7 195.9 0 250.6 127.2 250.6 183.6v328.7z m-375 11.7c0 113.3 188 140.1 188-38.5v-90.4c-75.3 2.2-188 23.4-188 128.9z" /></svg>