<svg height="1000" width="1000.0" xmlns="http://www.w3.org/2000/svg"><path d="m857.1 142.9c39.1 0 71.5 32.3 71.5 71.4v714.3c0 39-32.4 71.4-71.5 71.4h-785.7c-39 0-71.4-32.4-71.4-71.4v-714.3c0-39.1 32.4-71.4 71.4-71.4h71.5v-53.6c0-49.1 40.1-89.3 89.2-89.3h35.8c49.1 0 89.2 40.2 89.2 89.3v53.6h214.3v-53.6c0-49.1 40.2-89.3 89.3-89.3h35.7c49.1 0 89.3 40.2 89.3 89.3v53.6h71.4z m-214.2-53.6v160.7c0 10 7.8 17.9 17.8 17.9h35.7c10.1 0 17.9-7.9 17.9-17.9v-160.7c0-10.1-7.8-17.9-17.9-17.9h-35.7c-10 0-17.8 7.8-17.8 17.9z m-428.6 0v160.7c0 10 7.8 17.9 17.8 17.9h35.8c10 0 17.8-7.9 17.8-17.9v-160.7c0-10.1-7.8-17.9-17.8-17.9h-35.8c-10 0-17.8 7.8-17.8 17.9z m642.8 839.3v-571.5h-785.7v571.5h785.7z m-357.1-321.5h125c10 0 17.9 7.9 17.9 17.9v35.7c0 10.1-7.9 17.9-17.9 17.9h-125v125c0 10-7.8 17.8-17.9 17.8h-35.7c-10 0-17.8-7.8-17.8-17.8v-125h-125c-10.1 0-17.9-7.8-17.9-17.9v-35.7c0-10 7.8-17.9 17.9-17.9h125v-125c0-10 7.8-17.8 17.8-17.8h35.7c10.1 0 17.9 7.8 17.9 17.8v125z" /></svg>