<svg height="1000" width="1000.0" xmlns="http://www.w3.org/2000/svg"><path d="m498.3 0c85.4-0.6 172.5 21.2 251.7 67 87.6 50.7 154 123.8 196.4 207.6l-414-21.8c-117.2-6.7-228.8 59.1-267.3 169.6l-154.1-236.6c96-119.4 240-185.2 387.3-185.8z m-416.8 226l188 370c53 104.3 165.2 168 281.3 146.2l-128.4 251.7c-239.4-36.9-422.4-243.9-422.4-493.9 0-101 30.1-195.3 81.5-274z m885 94.3c87.6 225.5 0 487.7-216.5 612.7-87.6 50.8-184.2 71.5-277.9 66.4l226-347.6c64.2-98.8 63.1-227.7-13.4-317z m-466.5 11.2c93.2 0 168.5 75.3 168.5 168.5s-75.3 168.5-168.5 168.5-168.5-75.3-168.5-168.5 75.3-168.5 168.5-168.5z" /></svg>