<svg height="1000" width="1000.0" xmlns="http://www.w3.org/2000/svg"><path d="m357.1 500c0-39.6-31.8-71.4-71.4-71.4s-71.4 31.8-71.4 71.4 31.8 71.4 71.4 71.4 71.4-31.8 71.4-71.4z m214.3 0c0-39.6-31.8-71.4-71.4-71.4s-71.4 31.8-71.4 71.4 31.8 71.4 71.4 71.4 71.4-31.8 71.4-71.4z m214.3 0c0-39.6-31.8-71.4-71.4-71.4s-71.4 31.8-71.4 71.4 31.8 71.4 71.4 71.4 71.4-31.8 71.4-71.4z m214.3 0c0 197.5-223.8 357.1-500 357.1-40.7 0-80.4-3.3-117.7-10-63.7 63.6-146.8 107.1-242.8 127.8-15.1 2.8-31.2 5.6-48 7.2-8.9 1.2-17.3-5-19.5-13.3v0c-2.2-9 4.5-14.6 11.1-20.7 35.2-32.9 77.1-59.1 91.6-176.9-106.6-65.3-174.7-162.4-174.7-271.2 0-197.5 223.8-357.1 500-357.1s500 159.6 500 357.1z" /></svg>