<svg height="1000" width="1000.0" xmlns="http://www.w3.org/2000/svg"><path d="m928.6 910.7v-607.1c0-9.5-8.4-17.9-17.9-17.9h-607.1c-9.5 0-17.9 8.4-17.9 17.9v607.1c0 9.5 8.4 17.9 17.9 17.9h607.1c9.5 0 17.9-8.4 17.9-17.9z m71.4-607.1v607.1c0 49.1-40.2 89.3-89.3 89.3h-607.1c-49.1 0-89.3-40.2-89.3-89.3v-607.1c0-49.1 40.2-89.3 89.3-89.3h607.1c49.1 0 89.3 40.2 89.3 89.3z m-214.3-214.3v89.3h-71.4v-89.3c0-9.5-8.4-17.9-17.9-17.9h-607.1c-9.5 0-17.9 8.4-17.9 17.9v607.1c0 9.5 8.4 17.9 17.9 17.9h89.3v71.4h-89.3c-49.1 0-89.3-40.2-89.3-89.3v-607.1c0-49.1 40.2-89.3 89.3-89.3h607.1c49.1 0 89.3 40.2 89.3 89.3z" /></svg>