<svg height="1000" width="857.1" xmlns="http://www.w3.org/2000/svg"><path d="m0 71.4h857.1v857.2h-857.1v-857.2z m506.7 178.6l-6.7 18.4 41.9 46.3-17.3 63.6 13.9 14 59.7-31.8 59.7 31.8 14-14-17.3-63.6 41.8-46.3-6.7-18.4h-53l-29.6-53.6h-17.8l-29.6 53.6h-53z m-149 91c22.9 0 31.8 8.3 31.3 44l97-11.7c0-85.4-58.5-101-123.8-101-97.1 0-147.9 39.1-147.9 134v40.1h-53.6v71.5h42.4c5.6 0 11.2 0 11.2 4.4v213.2c0 10.6-2.8 13.9-12.8 15.1l-40.8 3.9v49.1h250v-48l-83.1-7.8c-10.1-1.1-6.2-2.8-6.2-14v-215.9h106.6l21.2-71.5h-128.9c-5.6 0 1.1-3.9 1.1-8.3v-44.7c0-33.5 1.1-52.4 36.3-52.4z m338.7 462.6v-48l-30.1-5c-10.6-1.7-5.6-2.8-5.6-14v-290.2h-153.4l-12.9 56.4 46.3 12.3c7.3 2.2 12.9 7.2 12.9 15v206.5c0 10.6-4.5 12.8-14.5 14l-39.1 5v48h196.4z" /></svg>