<svg height="1000" width="1285.7" xmlns="http://www.w3.org/2000/svg"><path d="m1088.7 556.9c0 20.1-13.4 34.6-30.1 38-2.2 0.5-7.3 1.1-10.1 1.1h-85.3v-78.1h85.3c2.8 0 7.9 0.5 10.1 1.1 16.7 3.3 30.1 18.4 30.1 37.9z m-10-118.8c0 19.5-13.4 32.3-29.6 35.1-1.7 0.6-5.6 0.6-8.4 0.6h-77.5v-72h77.5c2.8 0 6.7 0.5 8.4 0.5 16.2 2.8 29.6 16.2 29.6 35.8z m-672.4 91.5v-171.9h-127.3v171.9c0 41.8-28.4 73.1-79.8 73.1-43.5 0-86.5-12.9-127.8-32.9v62.5c67 18.4 151.8 18.4 151.8 18.4 141.8 0 183-54.2 183-121.1z m398.4 102.7v-63.1c-29 15.1-65.9 29.6-111.6 32.9-80.4 6.2-128.4-32.9-128.4-102.1s48-108.3 128.4-102.1c45.7 3.3 82 17.3 111.6 32.3v-62.5c-59.7-15-116.1-17.3-116.1-17.3-196.4-8.9-252.2 68.7-252.2 149.6s55.8 158.5 252.2 149.6c0 0 56.4-2.3 116.1-17.3z m409.6-64.2c0-41.3-36.8-68.1-84.8-71.4v-1.7c43.5-6.2 67.5-34.6 67.5-67.5 0-42.5-35.2-67-82.6-69.2-3.4 0-9.5-0.6-14.5-0.6h-253.9v284.6h274c54.1 0 94.3-29 94.3-74.2z m71.4-425.2v714.2c0 39.1-32.4 71.5-71.4 71.5h-1142.9c-39 0-71.4-32.4-71.4-71.5v-714.2c0-39.1 32.4-71.5 71.4-71.5h1142.9c39 0 71.4 32.4 71.4 71.5z" /></svg>