<svg height="1000" width="1000.0" xmlns="http://www.w3.org/2000/svg"><path d="m491.1 71.4c-34.6 0-62.5 27.9-62.5 62.5v366.1h-17.9v-294.6c0-34.6-27.9-62.5-62.5-62.5s-62.5 27.9-62.5 62.5v294.6 142.9l-85.9-114.4c-13.4-17.9-34.6-28.5-56.9-28.5-39.7 0-71.5 32.4-71.5 71.4 0 15.7 5.1 30.7 14.5 43l214.3 285.7c13.4 17.9 34.6 28.5 56.9 28.5h384c25.6 0 48-18.4 53-43.6l42.4-226c1.7-10.6 2.8-21.7 2.8-32.9v-277.9c0-34.6-27.9-62.5-62.5-62.5s-62.5 27.9-62.5 62.5v151.8h-17.9v-294.6c0-34.6-27.9-62.5-62.5-62.5s-62.5 27.9-62.5 62.5v294.6h-17.8v-366.1c0-34.6-27.9-62.5-62.5-62.5z m0-71.4c50.2 0 96.5 28.5 119.4 73.7 7.8-1.7 15.6-2.3 23.4-2.3 73.7 0 134 60.3 134 134v9.4c77.5-4.4 142.8 55.3 142.8 133.4v277.9c0 15.6-1.7 31.3-4.4 46.3l-42.5 225.5c-10.6 59.1-62.5 102.1-122.7 102.1h-384c-44.6 0-87.6-21.8-114.4-56.9l-214.2-285.7c-18.5-24.6-28.5-55.3-28.5-86 0-78.7 63.6-142.8 142.9-142.8 23.4 0 51.9 5.6 71.4 18.9v-242.1c0-73.7 60.3-134 133.9-134 7.8 0 15.6 0.6 23.5 2.3 22.8-45.2 69.1-73.7 119.4-73.7z" /></svg>