<svg height="1000" width="1142.9" xmlns="http://www.w3.org/2000/svg"><path d="m455.4 71.4c-36.3 0-62 29.6-62 64.8 0 5 0.6 10.6 1.7 15.6l83.7 348.2h-14.5l-64.7-269c-6.7-27.9-31.9-48-60.9-48-35.7 0-61.9 29.6-61.9 64.2 0 5.6 1.1 11.2 2.2 16.2 5.6 24 77.6 319.7 77.6 324.2v126.7l-171.3-128.4c-12.3-9.4-27.4-14.5-43-14.5-38.5 0-70.9 30.7-70.9 69.8 0 24 12.3 46.9 31.3 61.4l282.9 211.5c12.3 9.4 27.3 14.5 42.4 14.5h387.3c24.5 0 45.7-16.8 51.9-40.8l55.8-223.7c8.4-32.4 2.8-64.8 10.6-97.1l64.7-266.8c1.1-4.4 1.7-9.5 1.7-14.5 0-34.6-28.5-62.5-63.1-62.5-29 0-54.1 21.8-60.8 49.1l-55.2 227.7h-14.5l73.6-305.2c1.1-5.1 1.7-10.1 1.7-15.7 0-34.6-26.8-63-62.5-63-28.5 0-53.6 20.1-60.3 48l-80.9 335.9h-70.9l-91.5-380.6c-6.7-27.9-31.8-48-60.2-48z m359.9 928.6h-387.3c-30.7 0-60.8-10-85.4-28.5l-282.9-212c-36.8-27.9-59.7-71.4-59.7-118.3 0-78.1 64.7-141.2 142.3-141.2 58.6 0 91 32.4 135.6 65.8l-68.6-285.7c-2.3-11.1-3.9-22.3-3.9-32.9 0-68.6 49.6-126.7 118.3-134.5 10.6-64.7 65.3-112.7 131.7-112.7 61.9 0 115.5 42.4 130 102.7l57.5 238.8 46.3-194.2c14.5-60.2 68.1-102.7 130-102.7 64.7 0 118.9 44.7 131.1 107.7 68.7 7.3 121.1 64.2 121.1 133.4 0 10.6-1.1 21.2-3.9 31.8l-64.7 266.2c-2.8 12.3-2.8 24.6-2.8 37.4 0 20.1-2.8 40.7-7.3 60.3l-56.3 223.7c-14 55.8-63.6 94.9-121.1 94.9z" /></svg>