<svg height="1000" width="857.1" xmlns="http://www.w3.org/2000/svg"><path d="m839.3 892.9c10 0 17.8 7.8 17.8 17.8v71.4c0 10.1-7.8 17.9-17.8 17.9h-821.4c-10.1 0-17.9-7.8-17.9-17.9v-71.4c0-10 7.8-17.8 17.9-17.8h821.4z m-766.8-35.8c10.6-188 164.1-289 266.8-357.1-102.7-68.1-256.2-169.1-266.8-357.1h712.1c-10.6 188-164.1 289-266.7 357.1 102.6 68.1 256.1 169.1 266.7 357.1h-712.1z m766.8-857.1c10 0 17.8 7.8 17.8 17.9v71.4c0 10-7.8 17.8-17.8 17.8h-821.4c-10.1 0-17.9-7.8-17.9-17.8v-71.4c0-10.1 7.8-17.9 17.9-17.9h821.4z" /></svg>