<svg height="1000" width="857.1" xmlns="http://www.w3.org/2000/svg"><path d="m718.8 361c20.6 0 41.2 4 59.7 12.9 53.5 24 78.6 68.1 78.6 126.1v98.8c0 35.1-4.4 70.3-12.8 103.8l-47.4 189.1c-15.6 63.7-72.6 108.3-138.4 108.3h-372.8c-78.7 0-142.8-64.2-142.8-142.9v-223.7l-133.4-350.5c-6.2-16.2-9.5-33.5-9.5-50.8 0-78.6 64.2-142.8 142.9-142.8 59.1 0 112.7 36.8 133.3 92.1l9.5 24.5v-63c0-78.7 64.2-142.9 142.9-142.9s142.8 64.2 142.8 142.9v145.6c9-1.7 17.9-2.8 26.8-2.8 51.4 0 98.2 29.6 120.6 75.3z m-120.6-3.9c-24.5 0-46.9 14.6-56.9 36.9l-41.3 90.9-39.6 86.5h30.7c37.4 0 70.3 26.3 78.1 62.5l85.9-188.6c3.9-7.8 5.6-16.7 5.6-25.7 0-34.6-27.9-62.5-62.5-62.5z m123.3 75.4c-42.4 0-55.8 34-70.8 67.5l-73.7 161.8c-3.9 7.8-5.6 16.8-5.6 25.7 0 34.6 27.9 62.5 62.5 62.5 24.6 0 46.9-14.5 56.9-36.8l89.3-196.5c2.8-5.5 5.1-14.5 5.1-21.2 0-37.4-26.8-63-63.7-63z m-650.1-200.4c0 9 1.7 17.3 4.5 25.7l138.4 362.7v38.5l56.9-61.9c15.1-16.2 36.8-25.7 59.2-25.7h110.4l59.2-130v-298.5c0-39.7-31.8-71.5-71.4-71.5s-71.5 31.8-71.5 71.5v357.1h-35.7l-111.6-293.5c-10.6-27.4-37.4-45.8-66.9-45.8-39.7 0-71.5 32.4-71.5 71.4z m587.1 696.5c32.9 0 61.4-22.3 69.2-54.2l47.4-189.1c7.3-27.9 10.6-57.5 10.6-86.5v-50.8l-78.7 173c-12.8 28.4-41.8 46.9-73.1 46.9-39 0-73.1-28.5-79.2-67.6-15.1 19.6-38.5 31.8-63.6 31.8h-116.1v-17.8h116.1c34 0 64.7-27.9 64.7-62.5 0-34.1-25.7-62.5-60.3-62.5h-165.1c-17.3 0-34.1 7.2-45.8 20.1l-70.3 75.9v171.8c0 39.7 31.8 71.5 71.4 71.5h372.8z" /></svg>