<svg height="1000" width="1142.9" xmlns="http://www.w3.org/2000/svg"><path d="m1142.9 214.3h-71.5v571.4h71.5v214.3h-214.3v-71.4h-714.3v71.4h-214.3v-214.3h71.4v-571.4h-71.4v-214.3h214.3v71.4h714.3v-71.4h214.3v214.3z m-142.9-142.9v71.5h71.4v-71.5h-71.4z m-928.6 0v71.5h71.5v-71.5h-71.5z m71.5 857.2v-71.5h-71.5v71.5h71.5z m785.7-71.5v-71.4h71.4v-571.4h-71.4v-71.4h-714.3v71.4h-71.4v571.4h71.4v71.4h714.3z m142.8 71.5v-71.5h-71.4v71.5h71.4z m-357.1-571.5h214.3v428.6h-500v-142.8h-214.3v-428.6h500v142.8z m-428.6 214.3h357.2v-285.7h-357.2v285.7z m571.4 142.9v-285.7h-142.8v214.3h-214.3v71.4h357.1z" /></svg>