<svg height="1000" width="1000.0" xmlns="http://www.w3.org/2000/svg"><path d="m529.6 498.3c0 18.4-12.9 35.7-32.4 35.7-18.4 0-35.7-13.4-35.7-32.3 0-18.4 13.4-35.7 32.9-35.7 17.9 0 35.2 12.8 35.2 32.3z m8.3 32.4l195.4-324.2c-26.3 24.5-270.7 249.4-277.4 261.1l-194.7 323.7c25.6-24 270.6-250 276.7-260.6z m361.1-30.7c0 73.1-20.1 145.1-58 207-5.6-2.8-29.1-19.5-33.5-19.5-3.9 0-7.3 3.3-7.3 7.3 0 7.2 26.3 20.6 32.9 24.5-55.2 83.7-140.6 144-237.7 168l-8.9-37.4c-0.6-5-3.9-5.6-8.4-5.6-3.9 0-6.1 5.6-5.6 8.4l9 37.9c-26.8 5.6-54.2 8.4-81.5 8.4-73.1 0-145.1-20.7-207.6-58.6 3.4-5.6 24.6-36.3 24.6-40.7 0-3.9-3.4-7.3-7.3-7.3-7.8 0-24.5 33.5-29.6 40.2-84.2-55.8-145.1-142.3-168.5-241.1l38.5-8.4c4.5-1.1 5.6-4.4 5.6-8.3s-5.6-6.2-8.9-5.6l-38 8.4c-5-25.7-7.8-51.4-7.8-77.6 0-74.8 21.2-148.4 60.8-211.5 5.6 3.4 32.4 21.8 36.9 21.8 3.9 0 7.2-2.8 7.2-6.7 0-7.8-29.6-22.9-36.3-27.4 57-83.1 143.5-142.8 241.7-165.2l8.3 37.4c1.2 4.5 4.5 5.6 8.4 5.6s6.2-5.6 5.6-8.9l-8.4-36.8c24.6-4.5 49.7-7.3 74.8-7.3v0c74.8 0 147.9 21.2 211.5 60.8-3.9 5.6-21.8 31.8-21.8 36.3 0 3.9 2.8 7.3 6.7 7.3 7.8 0 22.9-29.1 26.8-35.8 82.6 55.8 141.8 141.2 164.6 238.3l-31.2 6.7c-5 1.1-5.6 4.5-5.6 8.9 0 4 5.6 6.2 8.4 5.6l31.8-7.2c5 25.6 7.8 51.9 7.8 78.1z m47.4 0c0-246.7-199.7-446.4-446.4-446.4s-446.4 199.7-446.4 446.4 199.7 446.4 446.4 446.4 446.4-199.7 446.4-446.4z m53.6 0c0 276.2-223.8 500-500 500s-500-223.8-500-500 223.8-500 500-500 500 223.8 500 500z" /></svg>