<svg height="1000" width="1000.0" xmlns="http://www.w3.org/2000/svg"><path d="m973.8 165.7c7.2 7.3 7.2 18.5 0 25.7l-78.7 78.7c-10.1 10-24 15.6-38 15.6h-750c-19.5 0-35.7-16.2-35.7-35.7v-142.9c0-19.5 16.2-35.7 35.7-35.7h321.5v-35.7c0-19.5 16.2-35.7 35.7-35.7h71.4c19.5 0 35.7 16.2 35.7 35.7v35.7h285.7c14 0 27.9 5.6 38 15.7z m-545.2 512.9h142.8v285.7c0 19.5-16.2 35.7-35.7 35.7h-71.4c-19.5 0-35.7-16.2-35.7-35.7v-285.7z m464.3-250c19.5 0 35.7 16.2 35.7 35.7v142.8c0 19.6-16.2 35.8-35.7 35.8h-750c-14 0-27.9-5.6-38-15.7l-78.7-78.7c-7.2-7.2-7.2-18.4 0-25.6l78.7-78.7c10.1-10 24-15.6 38-15.6h285.7v-107.2h142.8v107.2h321.5z" /></svg>