<svg height="1000" width="1000.0" xmlns="http://www.w3.org/2000/svg"><path d="m833.1 127.2c-58.5-39-127.2-61.4-200.3-61.4-118.8 0-223.8 60.9-297.4 152.4-53.6 67-91 161.8-93.8 270.1v23.4c2.8 108.3 40.2 203.1 93.8 270.1 73.6 91.5 178.6 152.4 297.4 152.4 73.1 0 141.8-22.4 200.3-61.4-88.1 79.2-205.3 127.2-333.1 127.2-7.8 0-16.2 0-24-0.6-265.1-12.2-476-231-476-499.4 0-276.2 223.8-500 500-500h1.7c127.2 0.6 243.3 48.5 331.4 127.2z m166.9 372.8c0 145.6-62.5 276.2-161.8 367.7-38 22.9-79.8 35.2-123.9 35.2-51.4 0-99.9-16.7-142.3-46.9 113.3-41.3 197-184.7 197-356 0-170.8-83.2-314.2-196.5-356 42.5-29.6 90.4-46.3 141.8-46.3 45.2 0 87.6 12.8 126.1 36.2 98.2 91.5 159.6 221.6 159.6 366.1z" /></svg>