<svg height="1000" width="1142.9" xmlns="http://www.w3.org/2000/svg"><path d="m1000 696.4v-535.7c0-9.5-8.4-17.8-17.9-17.8h-892.8c-9.5 0-17.9 8.3-17.9 17.8v535.7c0 9.5 8.4 17.9 17.9 17.9h892.8c9.5 0 17.9-8.4 17.9-17.9z m71.4-535.7v535.7c0 49.1-40.1 89.3-89.3 89.3h-410.7v71.4h196.5c10 0 17.8 7.9 17.8 17.9v35.7c0 10.1-7.8 17.9-17.8 17.9h-464.3c-10.1 0-17.9-7.8-17.9-17.9v-35.7c0-10 7.8-17.9 17.9-17.9h196.4v-71.4h-410.7c-49.1 0-89.3-40.2-89.3-89.3v-535.7c0-49.1 40.2-89.3 89.3-89.3h892.8c49.2 0 89.3 40.2 89.3 89.3z" /></svg>