<svg height="1000" width="1000.0" xmlns="http://www.w3.org/2000/svg"><path d="m581.5 392.3c0-32.4-11.2-55.2-33.5-67.5-11.2-6.2-26.8-10.1-65.3-10.1h-68.6v156.8h90.4c49.1 0 77-29 77-79.2z m29 159l114.4 208.2c2.8 5.6 2.8 12.3-0.6 17.3-2.8 5.6-8.9 8.9-15 8.9h-84.9c-6.7 0-12.8-3.3-15.6-9.5l-108.2-203.7h-86.5v195.4c0 10-7.8 17.8-17.9 17.8h-74.8c-10 0-17.8-7.8-17.8-17.8v-535.8c0-10 7.8-17.8 17.8-17.8h164.1c58.6 0 84.3 5 106 13.4 63.1 23.4 102.1 85.4 102.1 161.3 0 68.6-34 126.6-88.1 153.4 1.6 2.8 3.3 5.6 5 8.9z m-110.5-462c-226.6 0-410.7 184.1-410.7 410.7s184.1 410.7 410.7 410.7 410.7-184.1 410.7-410.7-184.1-410.7-410.7-410.7z m500 410.7c0 276.2-223.8 500-500 500s-500-223.8-500-500 223.8-500 500-500v0c276.2 0 500 223.8 500 500z" /></svg>