<svg height="1000" width="1000.0" xmlns="http://www.w3.org/2000/svg"><path d="m916 125q35.2 0 59.6 24.4t24.4 59.6v582q0 35.2-24.4 59.6t-59.6 24.4h-832q-35.2 0-59.6-24.4t-24.4-59.6v-582q0-35.2 24.4-59.6t59.6-24.4h832z m-583 125q-51.7 0-87.9 36.1t-36.1 88.9 36.1 88.9 87.9 36.1 88.9-36.1 37.1-88.9-37.1-88.9-88.9-36.1z m251 500v-41q0-39.1-46.9-70.3t-102.5-44.9-101.6-13.7-101.6 13.7-101.5 44.9-45.9 70.3v41h500z m160.1-166q-15.6-43-15.6-84t15.6-84h68.4l62.5-82-82-84q-86 64.5-115.3 166-11.7 43-11.7 84t11.7 84q29.3 101.5 115.3 166l82-84-62.5-82h-68.4z" /></svg>