<svg height="1000" width="1000.0" xmlns="http://www.w3.org/2000/svg"><path d="m334 416v84h-125v125h-84v-125h-125v-84h125v-125h84v125h125z m416 43q-19.5 0-37.1-5.9 37.1-54.7 37.1-119.1 0-66.4-37.1-119.2 17.6-5.8 37.1-5.8 52.7 0 88.9 36.1t36.1 87.9-36.1 88.9-88.9 37.1z m-208 0q-51.8 0-88.9-37.1t-37.1-88.9 37.1-87.9 88.9-36.1 87.9 36.1 36.1 87.9-36.1 88.9-87.9 37.1z m276.4 89.8q72.2 11.7 126.9 43t54.7 74.2v84h-125v-84q0-66.4-56.6-117.2z m-277.4-7.8q78.1 0 164.1 35.2t85.9 89.8v84h-500v-84q0-54.7 86-89.8t164-35.2z" /></svg>