<svg height="1000" width="916.0" xmlns="http://www.w3.org/2000/svg"><path d="m646.5 541q48.8 0 109.4 14.7t110.3 46.8 49.8 75.2v113.3h-916v-113.3q0-42.9 49.8-75.2t110.4-46.8 111.3-14.7q97.6 0 187.5 43 89.8-43 187.5-43z m-168 187.5v-50.8q0-19.5-68.3-46.8t-139.7-27.4-139.6 27.4-68.4 46.8v50.8h416z m375 0v-50.8q0-19.5-68.3-46.8t-138.7-27.4q-62.5 0-127 23.5 21.5 23.4 21.5 50.7v50.8h312.5z m-582-228.5q-60.6 0-103.5-43t-43-103.5 43-102.5 103.5-42 102.5 42 42 102.5-42 103.5-102.5 43z m-1-228.5q-34.2 0-58.6 24.4t-24.4 58.6 24.4 58.6 58.6 24.4 58.6-24.4 24.4-58.6-24.4-58.6-58.6-24.4z m376 228.5q-60.6 0-103.5-43t-43-103.5 43-102.5 103.5-42 102.5 42 42 102.5-42 103.5-102.5 43z m-1-228.5q-34.2 0-58.6 24.4t-24.4 58.6 24.4 58.6 58.6 24.4 58.6-24.4 24.4-58.6-24.4-58.6-58.6-24.4z" /></svg>