<svg height="1000" width="666.0" xmlns="http://www.w3.org/2000/svg"><path d="m149.4 225.6q-24.4-24.4-24.4-58.6t24.4-58.6 58.6-24.4 58.6 24.4 24.4 58.6-24.4 58.6-58.6 24.4-58.6-24.4z m-65.4 440.4q0 52.8 36.1 88.9t88.9 36.1h250v84h-250q-86 0-147.5-61.5t-61.5-147.5v-375h84v375z m582 169.9l-58.6 60.6-146.5-146.5h-210.9q-52.7 0-88.9-36.1t-36.1-88.9v-240.2q0-39.1 27.3-66.4t66.5-27.4h1.9q19.5 0 39.1 9.8 17.5 7.8 29.3 21.5l58.6 64.4q33.2 37.1 87.8 61.5t105.5 22.5v91.8q-56.6 0-119.1-26.4t-109.4-65.4v154.3h142.6z" /></svg>