<svg height="1000" width="1285.7" xmlns="http://www.w3.org/2000/svg"><path d="m281.3 554.7h95.4l-0.6-147.9z m572.5-55.3c0-61.9-35.7-107.7-109.9-107.7h-30.2v216.6h29c69.8 0 111.1-50.8 111.1-108.9z m-320.3-210.3l0.5 421.8c0 10.6-8.3 19-18.4 19h-120.5c-10.1 0-18.4-8.4-18.4-19v-34.6h-162.4l-30.7 45.2c-3.4 5.1-9.5 8.4-15.6 8.4h-149c-15.7 0-24.6-17.3-15.1-29.6l310.3-422.4c3.3-5 8.9-7.8 15-7.8h185.3c10.6 0 19 8.4 19 19z m461.5 210.3c0 146.8-107.2 230.5-251.1 230.5h-150.7c-10.6 0-19-8.4-19-19v-421.8c0-10.6 8.4-19 19-19h149.5c145.1 0 252.3 82.6 252.3 229.3z m87 0.6c0 0 2.3 145.1-82.6 230.5h-28.4c75.9-90.4 77.5-231.1 77.5-231.1s1.2-110.4-75.3-228.8h24c82.6 94.4 84.8 229.4 84.8 229.4z m102.7 0c0 0 2.2 145.1-83.1 230.5h-28.5c75.9-90.4 77.6-231.1 77.6-231.1s1.1-110.4-74.8-228.8h24c82.6 94.4 84.8 229.4 84.8 229.4z m101 0c0 0 2.2 145.1-82.6 230.5h-28.4c75.3-90.4 77-231.1 77-231.1s1.1-110.4-74.8-228.8h24c82.6 94.4 84.8 229.4 84.8 229.4z" /></svg>