<svg height="1000" width="750.0" xmlns="http://www.w3.org/2000/svg"><path d="m666 125q35.2 0 59.6 24.4t24.4 59.6v582q0 35.2-24.4 59.6t-59.6 24.4h-582q-35.2 0-59.6-24.4t-24.4-59.6v-582q0-35.2 24.4-59.6t59.6-24.4h173.8q13.7-37.1 45.9-60.5t71.3-23.5 71.3 23.5 45.9 60.5h173.8z m-291 0q-17.6 0-29.3 12.7t-11.7 29.3 11.7 29.3 29.3 12.7 29.3-12.7 11.7-29.3-11.7-29.3-29.3-12.7z m0 166q-52.7 0-88.9 37.1t-36.1 88.9 36.1 87.9 88.9 36.1 88.9-36.1 36.1-87.9-36.1-88.9-88.9-37.1z m250 500v-58.6q0-37.1-45.9-68.3t-102.5-45.9-101.6-14.7-101.6 14.7-102.5 45.9-45.9 68.3v58.6h500z" /></svg>