<svg height="1000" width="1285.7" xmlns="http://www.w3.org/2000/svg"><path d="m575.9 535.7c-19.5-0.5-38-11.7-46.9-30.7-12.3-25.1-36.8-40.7-64.7-40.7-39.6 0-71.4 31.8-71.4 71.4 0 19 6.7 37.4 20 49.7l5.6 4.4c12.3 11.2 28.5 17.3 45.8 17.3 27.9 0 52.4-15.6 64.7-40.7 8.9-19 27.4-30.1 46.9-30.7z m317-71.4c0-19-6.7-37.4-20.1-49.7l-5.6-4.4c-12.3-11.2-28.5-17.3-45.8-17.3-27.9 0-52.4 15.6-64.7 40.7-8.9 19-27.3 30.1-46.9 30.7 19.6 0.5 38 11.7 46.9 30.7 12.3 25.1 36.8 40.7 64.7 40.7 39.6 0 71.5-31.8 71.5-71.4z m-237.8-123.3c-12.8 26.2-45.2 37.3-71.4 24.5-23.4-11.7-48.5-17.3-74.8-17.3-19.5 0-37.9 3.4-55.2 9.5 3.3 0 7.2-0.6 10.6-0.6 68.6 0 131.7 40.2 161.3 102.2 12.8 26.7 1.1 58.6-25.7 71.4-6.7 3.3-14 5-21.8 5 7.8 0 15.1 1.7 21.8 5 26.8 12.9 38.5 44.7 25.7 71.5-29.6 61.9-92.7 102.1-161.3 102.1v0h-3.4v0c-8.3-1.1-16.1-1.7-24.5-2.2l-161.8-15.1-133.4 67c-5.6 2.7-10.6 3.9-16.2 3.9-12.8 0-25.7-7.3-31.8-19.6l-89.3-178.5c-8.4-17.3-2.2-38 14-47.5l116.6-66.4 82.6-149c12.8-114.9 69.7-220.4 160.1-294.6 22.9-19 57-15.6 75.4 7.2 18.9 22.9 15.6 56.4-7.3 75.4-25.1 21.2-47.4 45.2-65.3 71.4 43.5-29.6 93.8-49.7 149-56.4 29.6-3.9 56.4 16.8 59.7 46.4 3.9 29.5-16.7 56.3-46.3 59.7-32.4 3.9-62.5 15-88.7 30.7 17.8-4 36.3-5.6 55.2-5.6 42.4 0 83.7 9.5 121.7 27.9 26.8 13.4 37.9 45.2 24.5 72z m537.4-89.3l89.3 178.5c8.4 17.3 2.2 38-13.9 47.5l-116.7 66.4-82.6 149c-12.8 114.9-69.7 220.4-160.1 294.6-10.1 8.4-22.3 12.3-34.1 12.3-15.6 0-30.6-6.7-41.3-19.5-18.9-22.9-15.6-56.4 7.3-75.4 25.1-21.2 47.4-45.2 65.3-71.4-43.5 29.6-93.8 49.7-149 56.4-2.2 0.5-4.5 0.5-6.7 0.5-26.8 0-49.7-20.1-53-46.9-3.9-29.5 16.7-56.3 46.3-59.7 32.4-3.9 62.5-15 88.7-30.7-17.8 4-36.2 5.6-55.2 5.6-42.4 0-83.7-9.5-121.7-27.9-26.8-13.4-37.9-45.2-24.5-72 12.8-26.2 45.2-37.3 71.4-24.5 23.4 11.7 48.6 17.3 74.8 17.3 19.5 0 37.9-3.4 55.2-9.5-3.3 0-7.2 0.6-10.6 0.6-68.6 0-131.7-40.2-161.2-102.2-12.9-26.7-1.2-58.6 25.6-71.4 6.7-3.3 14-5 21.8-5-7.8 0-15.1-1.7-21.8-5-26.8-12.9-38.5-44.7-25.6-71.5 29.5-61.9 92.6-102.1 161.2-102.1v0h3.4 0.5c7.8 1.1 15.7 1.7 23.5 2.2l162.4 15.1 133.3-67c5.6-2.7 10.6-3.9 16.2-3.9 12.8 0 25.7 7.3 31.8 19.6z" /></svg>