<svg height="1000" width="791.0" xmlns="http://www.w3.org/2000/svg"><path d="m145.5 541q16.6 0 29.3 12.7t12.7 29.3-12.7 29.3-29.3 12.7-29.3-12.7-12.7-29.3 12.7-29.3 29.3-12.7z m0 168q16.6 0 29.3 11.7t12.7 29.3-12.7 29.3-29.3 11.7-29.3-11.7-12.7-29.3 12.7-29.3 29.3-11.7z m0-334q16.6 0 29.3 12.7t12.7 29.3-12.7 29.3-29.3 12.7-29.3-12.7-12.7-29.3 12.7-29.3 29.3-12.7z m-125 21.5q20.5 0 20.5 20.5t-20.5 20.5-20.5-20.5 20.5-20.5z m125-187.5q16.6 0 29.3 11.7t12.7 29.3-12.7 29.3-29.3 11.7-29.3-11.7-12.7-29.3 12.7-29.3 29.3-11.7z m625 228.5q-20.5 0-20.5-20.5t20.5-20.5 20.5 20.5-20.5 20.5z m-291-146.5q-16.6 0-29.3-11.7t-12.7-29.3 12.7-29.3 29.3-11.7 29.3 11.7 12.7 29.3-12.7 29.3-29.3 11.7z m0-144.5q-20.5 0-20.5-21.5t20.5-21.5 20.5 21.5-20.5 21.5z m-459 416q20.5 0 20.5 20.5t-20.5 20.5-20.5-20.5 20.5-20.5z m292 291q21.5 0 21.5 21.5t-21.5 21.5-21.5-21.5 21.5-21.5z m0-707q-21.5 0-21.5-21.5t21.5-21.5 21.5 21.5-21.5 21.5z m0 144.5q-17.6 0-29.3-11.7t-11.7-29.3 11.7-29.3 29.3-11.7 29.3 11.7 11.7 29.3-11.7 29.3-29.3 11.7z m0 230.5q25.4 0 43.9 17.6t18.6 43.9-18.6 44.9-43.9 18.6-43.9-18.6-18.6-44.9 18.6-43.9 43.9-17.6z m333 19.5q16.6 0 29.3 12.7t12.7 29.3-12.7 29.3-29.3 12.7-29.3-12.7-12.7-29.3 12.7-29.3 29.3-12.7z m0 168q16.6 0 29.3 11.7t12.7 29.3-12.7 29.3-29.3 11.7-29.3-11.7-12.7-29.3 12.7-29.3 29.3-11.7z m0-334q16.6 0 29.3 12.7t12.7 29.3-12.7 29.3-29.3 12.7-29.3-12.7-12.7-29.3 12.7-29.3 29.3-12.7z m0-166q16.6 0 29.3 11.7t12.7 29.3-12.7 29.3-29.3 11.7-29.3-11.7-12.7-29.3 12.7-29.3 29.3-11.7z m125 353.5q20.5 0 20.5 20.5t-20.5 20.5-20.5-20.5 20.5-20.5z m-291 146.5q16.6 0 29.3 11.7t12.7 29.3-12.7 29.3-29.3 11.7-29.3-11.7-12.7-29.3 12.7-29.3 29.3-11.7z m0 144.5q20.5 0 20.5 21.5t-20.5 21.5-20.5-21.5 20.5-21.5z m-167-500q25.4 0 43.9 18.6t18.6 44.9-18.6 43.9-43.9 17.6-43.9-17.6-18.6-43.9 18.6-44.9 43.9-18.6z m0 355.5q17.6 0 29.3 11.7t11.7 29.3-11.7 29.3-29.3 11.7-29.3-11.7-11.7-29.3 11.7-29.3 29.3-11.7z m167-187.5q26.4 0 43.9 17.6t17.6 43.9-17.6 44.9-43.9 18.6-44.9-18.6-18.6-44.9 18.6-43.9 44.9-17.6z m0-168q26.4 0 43.9 18.6t17.6 44.9-17.6 43.9-43.9 17.6-44.9-17.6-18.6-43.9 18.6-44.9 44.9-18.6z" /></svg>