<svg height="1000" width="785.7" xmlns="http://www.w3.org/2000/svg"><path d="m204.2 173.5c-47.9 0-87-39-87-87 0-47.4 39.1-86.5 87-86.5s86.5 39.1 86.5 86.5c0 48-38.5 87-86.5 87z m307.5 358.3c0 60.3-64.2 46.9-78.7 22.3l-204.8-244.4c-8.9-14.5-15.6-7.8-15.6-7.8s-3.9 4.5 2.2 11.7l68.1 77.6 0.6 197.5c-48 139.5-89.9 255.1-89.9 255.1-26.2 74.7-48 139.5-66.9 148.4-22.9 11.7-39.6 8.9-57.5 0.5-23.4-10.6-30.1-39-28.5-55.8 0 0 1.2-8.9 110-344.8l2.8-232.2-47.5 91.6 19.6 123.8c7.2 46.9-32.4 53-32.4 53-38 6.2-45.8-37.9-45.8-39l-25.6-166.9c117.2-211.5 117.7-212.6 117.7-212.6v0c8.9-13.4 29-19 63.1-19 30.1 0 49.1 9 59.7 22.4v0l236.6 290.7c3.3 2.2 5.6 5.6 7.8 9.5l1.7 1.7-0.6 0.5c2.8 5 3.9 10.6 3.9 16.2z m-224.9 83.7c53.6 142.3 101.6 250 101.6 250 16.2 41.3 44.1 100.5 3.3 123.9-40.1 23.4-72.5-3.9-81.4-22.9v0h-0.6c-1.7-4.4-3.3-8.9-4.5-13.9l-69.2-195.9z m459.9 330.4c11.7 18.4 21.7 31.8 15.6 35.7-10.6 6.7-14-12.8-25.7-31.8 0 0-63.1-95.4-236-368.9 3.3 1.1 9.4-3.9 9.4-3.9s6.2-5 6.2-9.5c171.9 280.7 230.5 378.4 230.5 378.4z" /></svg>