<svg height="1000" width="1000.0" xmlns="http://www.w3.org/2000/svg"><path d="m806.6 418q82.1 5.8 137.7 65.4t55.7 141.6q0 85.9-61.5 147.5t-147.5 61.5h-541q-103.5 0-176.8-73.3t-73.2-176.7q0-97.7 64.5-168t158.2-80.1q41-78.1 115.2-124t162.1-45.9q113.3 0 199.2 72.3t107.4 179.7z m-15.6 332q52.8 0 88.9-37.1t36.1-87.9-36.1-87.9-88.9-37.1h-62.5v-21.5q0-93.7-67.4-161.1t-161.1-67.4q-113.3 0-183.6 91.8 80.1 23.4 131.8 89.8t51.8 152.4h-84q0-70.3-48.8-119.2t-117.2-48.8-117.2 48.8-48.8 118.2 48.8 118.2 117.2 48.8h541z" /></svg>