<svg height="1000" width="666.0" xmlns="http://www.w3.org/2000/svg"><path d="m591.8 41q31.2 0 52.7 22.5t21.5 53.7v599.6q0 31.2-21.5 52.7t-52.7 21.5h-349.6q-31.3 0-53.7-21.5t-22.5-52.7v-599.6q0-31.3 22.5-53.7t53.7-22.5h349.6z m-174.8 84q-34.2 0-58.6 24.4t-24.4 58.6 24.4 58.6 58.6 24.4 58.6-24.4 24.4-58.6-24.4-58.6-58.6-24.4z m0 562.5q69.3 0 118.2-48.8t48.8-118.2-48.8-118.2-118.2-48.8-118.2 48.8-48.8 118.2 48.8 118.2 118.2 48.8z m-104.5-167q0-104.5 104.5-104.5t104.5 104.5-104.5 104.5-104.5-104.5z m-228.5-311.5v666h416v84h-416q-35.2 0-59.6-24.4t-24.4-59.6v-666h84z" /></svg>