<svg height="1000" width="834.0" xmlns="http://www.w3.org/2000/svg"><path d="m750 84q35.2 0 59.6 24.4t24.4 57.6v500q0 35.2-24.4 59.6t-59.6 24.4h-500q-35.2 0-59.6-24.4t-24.4-59.6v-500q0-33.2 24.4-57.6t59.6-24.4h500z m-353.5 312.5v-43q0-25.4-18.6-43.9t-43.9-18.6h-105.5v250h62.5v-82h43q25.4 0 43.9-18.6t18.6-43.9z m207 82v-125q0-25.4-17.6-43.9t-44.9-18.6h-103.5v250h103.5q27.4 0 44.9-17.6t17.6-44.9z m168-125v-62.5h-125v250h62.5v-82h62.5v-62.5h-62.5v-43h62.5z m-480.5 43v-43h43v43h-43z m-207-146.5v584h582v82h-582q-35.2 0-59.6-24.4t-24.4-57.6v-584h84z m416 228.5v-125h41v125h-41z" /></svg>