<?xml version="1.0" encoding="utf-8"?>
<!-- Generator: Adobe Illustrator 24.3.0, SVG Export Plug-In . SVG Version: 6.00 Build 0)  -->
<svg version="1.1" id="Calque_1" xmlns="http://www.w3.org/2000/svg" xmlns:xlink="http://www.w3.org/1999/xlink" x="0px" y="0px"
	 viewBox="0 0 834 1000" style="enable-background:new 0 0 834 1000;" xml:space="preserve">
<path d="M517.6,500l309.8-309.8c8.7-8.7,8.7-22.9,0-31.6c-61.1-61.1-160.1-61.1-221.1,0l-215,215.1L345,327.4
	c8-20.3,12.4-42.5,12.4-65.6c0-98.7-80-178.7-178.7-178.7S0,163,0,261.7s80,178.7,178.7,178.7c8.5,0,16.7-0.6,24.9-1.7l61.3,61.3
	l-61.3,61.3c-8.1-1.1-16.4-1.7-24.9-1.7C80,559.5,0,639.5,0,738.2S80,917,178.7,917s178.7-80,178.7-178.7c0-23.2-4.4-45.3-12.4-65.6
	l46.3-46.3l215,215.1c61.1,61.1,160.1,61.1,221.1,0c8.7-8.7,8.7-22.9,0-31.6L517.6,500z M178.7,321.2c-32.8,0-59.6-26.7-59.6-59.6
	c0-32.8,26.7-59.6,59.6-59.6s59.6,26.7,59.6,59.6C238.3,294.6,211.6,321.2,178.7,321.2z M178.7,797.9c-32.8,0-59.6-26.7-59.6-59.6
	c0-32.8,26.7-59.6,59.6-59.6s59.6,26.7,59.6,59.6C238.3,771,211.6,797.9,178.7,797.9z"/>
</svg>
