<svg height="1000" width="834.0" xmlns="http://www.w3.org/2000/svg"><path d="m318.4 318.4l515.6 515.6v41h-125l-293-291-97.6 97.6q15.6 33.2 15.6 68.4 0 68.4-48.8 117.2t-118.2 48.8-118.2-48.8-48.8-117.2 48.8-117.2 117.2-48.8q37.1 0 68.4 13.7l99.6-97.7-99.6-97.7q-31.3 13.7-68.4 13.7-68.3 0-117.2-48.8t-48.8-117.2 48.8-117.2 118.2-48.8 118.2 48.8 48.8 117.2q0 35.2-15.6 68.4z m-151.4 15.6q34.2 0 58.6-24.4t24.4-59.6-24.4-59.6-58.6-24.4-58.6 24.4-24.4 59.6 24.4 59.6 58.6 24.4z m0 500q34.2 0 58.6-24.4t24.4-59.6-24.4-59.6-58.6-24.4-58.6 24.4-24.4 59.6 24.4 59.6 58.6 24.4z m250-312.5q20.5 0 20.5-21.5t-20.5-21.5-20.5 21.5 20.5 21.5z m292-396.5h125v41l-293 293-82-84z" /></svg>