<svg height="1000" width="834.0" xmlns="http://www.w3.org/2000/svg"><path d="m750 875h84v84h-84q-85.9 0-166-41-80.1 39-168 39t-166-39q-82 41-166 41h-84v-84h84q87.9 0 166-54.7 76.2 52.7 167 52.7t167-52.7q78.1 54.7 166 54.7z m-668-84l-80-277.3q-5.9-15.7 1.9-33.2 7.8-15.7 25.4-19.6l54.7-17.5v-193.4q0-35.2 24.4-59.6t57.6-24.4h125v-125h250v125h125q35.2 0 59.6 24.4t24.4 59.6v193.4l52.7 17.5q17.6 3.9 25.4 19.6t2 33.2l-78.1 277.3h-2q-93.7 0-166-82-74.2 82-168 82t-166-82q-72.3 82-166 82h-2z m84-541v166l250-82 250 82v-166h-500z" /></svg>