<svg height="1000" width="916.0" xmlns="http://www.w3.org/2000/svg"><path d="m459 291q-39.1 0-76.2 15.6l-89.8-89.8q80-29.3 164-29.3 154.3 0 279.3 86.9t179.7 225.6q-44.9 117.2-142.6 197.3l-121.1-121.1q13.7-37.1 13.7-76.2 0-85.9-60.5-147.5t-146.5-61.5z m-418-113.3l52.8-52.7 740.2 738.3-52.7 52.7-123.1-121.1-17.6-17.6q-87.9 35.2-181.6 35.2-154.3 0-279.3-86.9t-179.7-225.6q48.8-125 156.3-207l-19.6-19.6z m230.5 230.5q-21.5 44.9-21.5 91.8 0 85.9 61.5 147.5t147.5 61.5q46.9 0 91.8-23.5l-64.5-64.4q-15.6 3.9-27.3 3.9-52.7 0-88.9-36.1t-36.1-88.9q0-13.7 1.9-27.3z m179.7-33.2h7.8q50.8 0 87.9 37.1t37.1 87.9l-2 7.8z" /></svg>