<svg height="1000" width="834.0" xmlns="http://www.w3.org/2000/svg"><path d="m291 490.2q21.5 0 37.1 14.7t15.7 36.1-15.7 37.1-37.1 15.7-36.1-15.7-14.7-37.1 14.7-36.1 36.1-14.7z m250 0q21.5 0 37.1 14.7t15.7 36.1-15.7 37.1-37.1 15.7-36.1-15.7-14.7-37.1 14.7-36.1 36.1-14.7z m-124-406.2q172.8 0 294.9 122.1t122.1 293.9-122.1 293.9-294.9 122.1-294.9-122.1-122.1-293.9 122.1-293.9 294.9-122.1z m0 750q137.7 0 235.3-97.7t97.7-236.3q0-46.9-13.7-93.7-46.8 9.7-93.7 9.7-103.5 0-193.4-46.9t-146.5-128.9q-64.4 156.3-216.8 224.6-1.9 19.6-1.9 35.2 0 138.7 97.6 236.3t235.4 97.7z" /></svg>