<svg height="1000" width="808.6" xmlns="http://www.w3.org/2000/svg"><path d="m683.6 517.6q58.6 33.2 91.8 91.8t33.2 123q-56.6 33.2-123.1 34.2t-126.9-34.2q-17.6-9.7-33.2-21.5 3.9 19.6 3.9 39.1 0 68.4-34.2 126t-90.8 90.8q-56.6-33.2-90.8-90.8t-34.2-126q0-19.5 3.9-39.1-17.6 13.7-33.2 21.5-60.5 33.2-127 33.2t-123-33.2q0-66.4 33.2-124t91.8-92.8q15.6-7.8 35.2-15.6-19.6-7.8-35.2-17.6-58.6-33.2-91.8-91.8t-33.2-123q56.6-33.2 123-34.2t127 34.2q15.6 7.8 33.2 21.5-3.9-19.6-3.9-39.1 0-68.4 34.2-126t90.8-90.8q56.6 33.2 90.8 90.8t34.2 126q0 19.5-3.9 39.1 17.6-13.7 33.2-21.5 60.5-35.2 126.9-34.2t123.1 34.2q0 64.4-33.2 123t-91.8 91.8q-15.6 9.8-35.2 17.6 19.6 7.8 35.2 17.6z m-279.3 148.4q68.4 0 117.2-48.8t48.8-117.2-48.8-117.2-117.2-48.8-117.2 48.8-48.8 117.2 48.8 117.2 117.2 48.8z" /></svg>