<?xml version="1.0" encoding="utf-8"?>
<!-- Generator: Adobe Illustrator 24.3.0, SVG Export Plug-In . SVG Version: 6.00 Build 0)  -->
<svg version="1.1" id="Calque_1" xmlns="http://www.w3.org/2000/svg" xmlns:xlink="http://www.w3.org/1999/xlink" x="0px" y="0px"
	 viewBox="0 0 1000 1000" style="enable-background:new 0 0 1000 1000;" xml:space="preserve">
<path d="M799.2,518.9c41.8,23.7,74.6,56.5,98.3,98.3c23.7,41.8,35.6,85.8,35.6,131.7c-40.4,23.7-84.4,35.9-131.9,36.6
	c-47.5,0.7-92.8-11.5-135.9-36.6c-12.6-6.9-24.4-14.6-35.6-23c2.8,14,4.2,28,4.2,41.9c0,48.8-12.2,93.8-36.6,135
	c-24.4,41.1-56.8,73.6-97.3,97.3c-40.4-23.7-72.8-56.1-97.3-97.3s-36.6-86.1-36.6-135c0-13.9,1.4-27.9,4.2-41.9
	c-12.6,9.8-24.4,17.5-35.6,23c-43.2,23.7-88.5,35.6-136,35.6c-47.5,0-91.4-11.9-131.7-35.6c0-47.4,11.9-91.7,35.6-132.8
	c23.7-41.1,56.5-74.3,98.3-99.4c11.1-5.6,23.7-11.1,37.7-16.7c-14-5.6-26.6-11.9-37.7-18.9c-41.8-23.7-74.6-56.5-98.3-98.3
	s-35.6-85.8-35.6-131.7c40.4-23.7,84.3-35.9,131.7-36.6c47.4-0.7,92.8,11.5,136,36.6c11.1,5.6,23,13.2,35.6,23
	c-2.8-14-4.2-28-4.2-41.9c0-48.8,12.2-93.8,36.6-135C427.2,56.1,459.6,23.7,500,0c40.4,23.7,72.8,56.1,97.3,97.3
	c24.4,41.1,36.6,86.1,36.6,135c0,13.9-1.4,27.9-4.2,41.9c12.6-9.8,24.4-17.5,35.6-23c43.2-25.1,88.5-37.3,135.9-36.6
	c47.4,0.7,91.4,12.9,131.9,36.6c0,46-11.9,89.9-35.6,131.7c-23.7,41.8-56.5,74.6-98.3,98.3c-11.1,7-23.7,13.3-37.7,18.9
	C775.5,505.6,788,511.9,799.2,518.9z M500,677.8c48.8,0,90.7-17.4,125.5-52.3s52.3-76.7,52.3-125.5c0-48.8-17.4-90.7-52.3-125.5
	c-34.8-34.8-76.7-52.3-125.5-52.3s-90.7,17.4-125.5,52.3c-34.8,34.8-52.3,76.7-52.3,125.5c0,48.8,17.4,90.7,52.3,125.5
	S451.2,677.8,500,677.8z"/>
</svg>
