<svg height="1000" width="916.0" xmlns="http://www.w3.org/2000/svg"><path d="m205.1 416q-9.8-7.8-13.7-15.6-21.5-43-21.5-91.8t25.4-91.8q15.6-35.2 58.6-70.3 37.1-27.4 95.7-46.9 50.8-15.6 121.1-15.6 78.1 0 128.9 19.5 48.8 11.7 95.7 50.8 39.1 31.2 58.6 78.1 21.5 48.9 21.5 101.6h-168q0-21.5-7.8-46.9-5.8-25.4-25.4-37.1-19.5-19.5-41-25.4-33.2-7.8-58.6-7.8t-58.6 7.8q-15.6 3.9-41 21.5-19.5 13.7-25.4 29.3-7.8 25.4-7.8 37.1 0 43 41 66.4 27.4 17.6 84 37.1h-261.7z m710.9 84v84h-177.7q1.9 1.9 2.9 3.9t2 5.9 2.9 5.8q15.6 39.1 15.6 91.8 0 46.9-19.5 95.7-15.6 35.2-58.6 70.3-41 35.2-91.8 46.9-50.8 15.6-121.1 15.6-29.3 0-78.1-7.8-25.4-3.9-76.2-19.5-25.4-13.7-66.4-39.1-27.3-15.6-54.7-48.8-25.4-33.2-37.1-66.4-11.7-39.1-11.7-87.9h166q0 41 11.7 66.4 9.8 15.6 33.2 41 19.6 19.5 50.8 25.4 41 7.8 66.4 7.8t58.6-7.8q5.9-3.9 19.5-9.8t17.6-11.7q19.5-11.7 25.4-29.3 7.8-23.4 7.8-37.1 0-25.4-3.9-37.1-5.8-21.5-25.4-33.2-33.2-23.4-48.8-29.3-3.9-1.9-14.7-5.9t-14.6-5.8h-496.1v-84h916z" /></svg>