<svg height="1000" width="857.1" xmlns="http://www.w3.org/2000/svg"><path d="m737.7 500c0 14.5-0.5 28.5-2.8 42.4l-131.7-7.8 125 43.5v0c-7.2 28.5-18.4 54.7-32.3 78.7l-119.4-57.5 98.7 88.2c-16.7 22.9-36.8 43-59.7 60.3l-87.6-99.4 57.5 120c-24 14.5-50.2 25.1-78.1 32.9l-44.1-127.2 7.8 133.9c-14 2.3-27.9 3.4-42.4 3.4-14 0-28.5-1.1-42.4-3.4l7.8-132.8-43.6 126.1c-27.9-7.2-54.1-18.4-78.1-32.9l57.5-120-87.6 99.4c-22.9-16.8-43-37.4-60.3-60.3l99.4-88.2-119.5 58.1c-13.9-24.6-25.1-50.8-32.3-78.7l125-44.1-132.3 7.8c-1.7-13.9-2.8-27.9-2.8-42.4s1.1-29 2.8-43l132.8 7.8-125.5-44c7.2-27.9 18.4-54.2 32.3-78.2l119.5 58.1-98.8-88.8c17.3-22.8 37.4-42.9 59.7-60.2l88.2 99.3-57.5-120c24-13.9 50.2-25.1 78.1-32.3l43 125-7.3-131.7c13.4-2.3 27.9-3.4 41.9-3.4 14.5 0 28.4 1.1 42.4 3.4l-7.8 132.2 43.5-125.5c27.9 7.2 54.1 18.4 78.1 32.9l-57.5 119.4 88.2-99.3c22.3 17.3 42.4 37.4 59.7 60.2l-98.7 88.8 118.8-58.1c14.5 24 25.1 50.8 32.4 78.7l-125 43.5 132.2-7.8c2.3 14 2.8 28.5 2.8 43z m16.8 0c0-181.4-146.2-328.1-325.9-328.1-180.3 0-325.9 146.7-325.9 328.1 0 180.8 145.6 327.6 325.9 327.6 179.7 0 325.9-146.8 325.9-327.6z m40.7-213.7v427.4l-366.6 213.8-366.7-213.8v-427.4l366.7-213.8z m-366.6 673l395.1-229.9v-459.3l-395.1-229.4-395.1 229.4v459.3z m428.5-709.3v500l-428.5 250-428.6-250v-500l428.6-250z" /></svg>