<svg height="1000" width="834.0" xmlns="http://www.w3.org/2000/svg"><path d="m832 591.8q0 89.8-25.4 158.2-48.8 128.9-187.5 158.2-39 7.8-83.9 7.8h-468.8-5.9v-1.9l87.9-87.9 242.2-242.2 1-1t2.9-1q7.8-7.8 13.7-5.8 7.8 3.9 7.8 15.6v123 7.9q0 1.9 3.9 1.9 91.8-1.9 107.4-1.9 15.7-2 37.2-9.8 54.6-17.6 68.3-82 5.9-31.3 5.9-64.5v-222.6q0-5.9 5.8-11.8l181.7-181.6q0-2 3.9-7.8l1.9 1.9h2v7.8q0 46.9-2 439.5z m-636.7 64.5q0 5.8-5.8 11.7l-183.6 183.6-5.9 5.8v-9.7-217.8-219.7q0-87.9 23.4-154.3 48.9-134.8 193.4-164.1 37.1-7.8 82-7.8h146.5 173.8 146.5 7.8q-1.9 0-3.9 3.9 0 1.9-1.9 1.9-52.8 54.7-161.2 163.1l-163 163.1q-5.9 3.9-5.9 5.9-7.8 5.8-13.7 1.9-1.9-3.9-7.8-11.7v-5.8-62.5-60.6-5.9q0-1.9-1.9-1.9-97.7 1.9-115.3 3.9-7.8 0-25.4 5.9-60.5 17.5-72.2 85.9-5.9 29.3-5.9 66.4-1.9 48.8 0 218.8z" /></svg>