<svg height="1000" width="856.6" xmlns="http://www.w3.org/2000/svg"><path d="m415.2 170.2c0-29.6-2.8-55.2-38.5-55.2-15.1 0-30.2 5-43.6 12.8-84.2 46.3-118.8 166.3-118.8 256.7 0 60.3 20.6 140.6 94.3 140.6 16.7 0 37.9 4.5 42.4-15.1 17.9-85.9 35.7-172.4 53.6-258.3 5.6-26.8 10.6-54.2 10.6-81.5z m420.7 366.1c0 5.6-7.2 11.1-12.8 11.1l-3.3-0.5c-38-5.6-71.5-15.6-110-15.6-69.7 0-133.9 20.6-195.8 51.8-7.9 4-9.5 7.3-11.8 15.1-10 38-16.7 77-26.2 115-33.5 130-142.3 286.8-291.3 286.8-101.6 0-164.1-69.2-164.1-169.1 0-54.1 35.2-159.6 100.5-159.6 22.9 0 112.7 29.6 113.3 53-1.1 4.5-87.6 49.1-87.6 124.5 0 22.9 11.1 40.7 36.2 40.7 88.8 0 129.5-161.8 138.4-229.9v-5c0-4.5-17.8-2.3-21.2-2.3-167.9 0-266.2-93.7-266.2-262.8 0-159.6 103.8-354.3 274-383.9 19.6-3.4 39.1-5 59.2-5 135 0 208.7 63 208.7 200.9 0 93.1-31.8 179.1-45.2 270l1.7 1.7c60.2-34 123.8-66.4 195.3-66.4 7.2 0 22.9 4.5 29.6 7.3 14.5 5.5 78.6 106.5 78.6 122.2z" /></svg>