<svg height="1000" width="666.0" xmlns="http://www.w3.org/2000/svg"><path d="m232.4 562.5h17.6q11.7 0 20.5-8.8t8.8-16.6v-7.8q-3.9-3.9-3.9-7.8t-7.8-3.9h-21.5q-3.9 3.9-8.8 3.9t-4.9 7.8v7.8h-41q0-11.7 3.9-20.5t12.7-16.6 16.6-7.8q2 0 10.8-2t10.7-1.9q15.6 0 25.4 3.9 3.9 1.9 9.8 3.9t9.7 3.9q5.9 2 13.7 17.6 3.9 7.8 3.9 19.5v13.7q-3.9 7.8-3.9 11.7 0 7.8-9.8 7.8-3.9 0-11.7 9.8 17.6 7.8 21.5 15.6 7.8 17.6 7.8 25.4 0 15.6-3.9 21.5-2 1.9-5.9 7.8t-7.8 7.8q-7.8 7.8-19.5 7.8-3.9 0-12.7 2t-12.7 1.9q-17.6 0-21.5-3.9-1.9-1.9-9.7-3.9t-9.8-3.9q-5.9-1.9-13.7-15.6-3.9-9.8-3.9-25.4h33.2v7.8q3.9 3.9 3.9 7.8t9.8 3.9h19.5q3.9-3.9 8.8-3.9t4.9-7.8v-21.5q-3.9-3.9-3.9-7.8t-9.8-3.9h-25.4v-29.3z m238.3 29.3q0 25.4-3.9 33.2l-11.7 25.4q-13.7 11.7-21.5 11.7-3.9 0-12.7 2t-12.7 1.9q-15.6 0-25.4-3.9-3.9-1.9-9.8-5.8t-9.7-5.9q-5.9-2-13.7-25.4-3.9-11.7-3.9-33.2v-29.3q0-25.4 3.9-33.2l13.7-25.4q11.7-11.7 19.5-11.7 3.9 0 12.7-2t12.7-1.9q17.6 0 25.4 3.9 3.9 1.9 9.8 5.8t11.7 5.9q3.9 2 11.7 25.4 3.9 11.7 3.9 33.2v29.3z m-37.1-33.2v-21.5q-3.9-7.8-3.9-11.7l-9.8-7.8q-3.9-5.9-11.7-5.9t-11.7 5.9l-9.8 7.8q-3.9 7.8-3.9 11.7v84q3.9 7.8 3.9 11.7l9.8 9.8q3.9 3.9 11.7 3.9t11.7-3.9l9.8-9.8q3.9-7.8 3.9-11.7v-62.5z m-433.6-16.6q0-137.7 97.7-235.4t236.3-97.6v-168l207 209-207 209v-168q-103.5 0-176.8 74.2t-73.2 176.8 73.2 175.8 175.8 73.2 176.8-73.2 74.2-176.8h82q0 138.7-97.6 236.3t-235.4 97.7-235.3-97.7-97.7-235.3z" /></svg>