<svg height="1000" width="857.1" xmlns="http://www.w3.org/2000/svg"><path d="m483.3 287.4c0 17.8-3.9 35.1-7.3 52.4-11.7 55.8-22.9 111.7-34.6 167.5-1.7 7.8-1.7 7.8-10 8.3-5.6 0.6-11.8 1.1-17.3 1.1-48 0-61.4-51.9-61.4-90.9 0-58.1 22.9-135.6 77-166.3 8.9-4.5 18.4-7.8 28.4-7.8 22.9 0 25.2 16.7 25.2 35.7z m271.2 236.6c0-10-41.3-75.3-50.8-79.2-4.5-1.7-14-4.5-19-4.5-45.7 0-87 20.6-126.1 43l-1.1-1.2c8.9-59.7 29-112.7 29-174.6 0-88.7-47.4-130-135-130-12.9 0-25.7 1.6-38 3.3-109.9 19.5-176.9 145.1-176.9 248.3 0 109.4 63.1 169.7 171.9 169.7 2.2 0 13.9-1.1 13.9 1.6 0 1.2 0 1.7-0.5 2.8-2.3 21.2-9 44.7-14.5 65.3-8.4 30.7-37.4 83.7-74.8 83.7-16.2 0-23.4-11.1-23.4-26.2 0-48.5 55.8-77.6 56.9-80.4 0-2.2-2.8-4.4-3.9-5.5-17.3-15.7-45.8-28.5-69.2-28.5-42.4 0-65.3 68.1-65.3 102.7 0 64.7 40.7 109.4 106 109.4 96.5 0 166.9-101.6 188.6-185.3 6.2-24.6 10.6-49.7 16.8-74.2 1.1-5 2.8-7.3 7.8-10.1 39.6-20.1 81.4-33.5 126.6-33.5 24.6 0 46.4 4.5 70.9 10.1 0.6 0.5 1.7 0.5 2.3 0.5 3.3 0 7.8-3.9 7.8-7.2z m102.6-291.9v535.8c0 88.7-71.9 160.7-160.7 160.7h-535.7c-88.7 0-160.7-72-160.7-160.7v-535.8c0-88.7 72-160.7 160.7-160.7h535.7c88.8 0 160.7 72 160.7 160.7z" /></svg>