<svg height="1000" width="666.0" xmlns="http://www.w3.org/2000/svg"><path d="m0 542q0-137.7 97.7-235.4t236.3-97.6v-168l207 209-207 209v-168q-103.5 0-176.8 74.2t-73.2 176.8 73.2 175.8 175.8 73.2 176.8-73.2 74.2-176.8h82q0 138.7-97.6 236.3t-235.4 97.7-235.3-97.7-97.7-235.3z m283.2 124h-33.2v-136.7l-41 11.7v-29.3l74.2-23.4h3.9v177.7h-3.9z m183.6-74.2q0 25.4-3.9 33.2l-13.7 25.4q-11.7 11.7-19.5 11.7-3.9 0-12.7 2t-12.7 1.9q-17.6 0-25.4-3.9-3.9-1.9-9.8-5.8t-11.7-5.9q-3.9-2-11.7-25.4-3.9-11.7-3.9-33.2v-29.3q0-25.4 3.9-33.2l11.7-25.4q13.7-11.7 21.5-11.7 3.9 0 12.7-2t12.7-1.9q15.6 0 25.4 3.9 3.9 1.9 9.8 5.8t9.7 5.9q5.9 2 13.7 25.4 3.9 11.7 3.9 33.2v29.3z m-33.2-33.2v-21.5q-3.9-7.8-3.9-11.7l-9.8-7.8q-3.9-5.9-11.7-5.9t-11.7 5.9l-9.8 7.8q-3.9 7.8-3.9 11.7v84q3.9 7.8 3.9 11.7t3.9 5.9 5.9 3.9q3.9 3.9 11.7 3.9t11.7-3.9l9.8-9.8q3.9-7.8 3.9-11.7v-62.5z" /></svg>