<svg height="1000" width="834.0" xmlns="http://www.w3.org/2000/svg"><path d="m433.6 314.5q222.7 210.9 322.3 222.6 1.9-21.5 1.9-37.1 0-48.8-13.7-97.7-7.8 17.6-21.4 19.6t-30.3-10.8-30.3-28.3-28.3-36.1-19.5-29.3-6.9-12.7q-91.8-128.9-318.3-121.1-62.5 25.4-109.4 70.3 126.9-58.6 253.9 60.6z m279.3 355.4q21.5-39 31.2-76.1-64.4-5.9-167-57.7t-170.8-100.6l-68.4-48.8q-144.5-113.3-248.1 17.6-15.6 46.9-15.6 95.7 0 74.2 31.3 142.6 17.5-50.8 48.8-50.8 29.3 0 79.1 26.4t81.1 36.1q19.5 5.9 60.5 19.5l61.5 20.5t51.8 12.7 58.6 5.9q23.4 0 42.9-2.9t39.1-8.8 30.3-8.8 30.3-11.7 23.4-10.8z m-296.9 171.9q148.5 0 250-109.4-87.9 25.4-163.1 25.4t-122-13.7l-48.9-15.6q-50.7-15.6-60.5 11.7t13.7 74.3q62.5 27.3 130.8 27.3z m0-757.8q171.9 0 294.9 122.1t123.1 293.9-122.1 293.9-294.9 122.1-294.9-122.1-122.1-293.9 122.1-293.9 293.9-122.1z" /></svg>