<svg height="1000" width="875.0" xmlns="http://www.w3.org/2000/svg"><path d="m666 41q86 0 147.5 61.5t61.5 147.5q0 43-51.8 131.8t-101.5 180.7-44 146.5q0 9.8-10.7 9.8t-10.7-9.8q3.9-54.7-45-146.5t-100.6-180.7-51.7-131.8q0-85.9 60.5-147.5t146.5-61.5z m1 125q-34.2 0-58.6 24.4t-24.4 59.6 24.4 59.6 58.6 24.4 58.6-24.4 24.4-59.6-24.4-59.6-58.6-24.4z m-583-41h361.3q-39 62.5-39 134.8 0 50.7 62.5 162.1l-466.8 466.8-2-13.7v-666q0-35.2 24.4-59.6t59.6-24.4z m521.5 537.1l-99.6-99.6 27.3-29.3q46.9 76.2 72.3 128.9z m119.1 296.9h-615.2l306.6-308.6z m109.4-484.4v400.4l-2 13.7-140.6-140.7q5.9-17.5 13.7-36.1t17.6-39 18.5-37.2 23.4-41.9 21.5-38.1 24.4-42z m-638.7 46.9q-33.2 0-52.7-13.7t-19.6-37.1q0-27.3 35.2-41 19.5-5.9 43-5.9h9.7q25.4 19.6 35.2 29.3t9.8 23.5q0 17.5-17.6 31.2t-43 13.7z m-48.8-238.3q0-19.5 10.7-30.3t24.4-10.7q25.4 0 40.1 23.4t14.6 48.9q0 21.4-12.7 30.2t-26.3 8.8q-21.5 0-36.2-22.4t-14.6-47.9z m101.5 121.1l-13.6-11.7q-11.7-9.8-11.7-17.6 0-13.7 13.6-23.4 33.2-25.4 33.2-56.7 0-27.3-27.3-50.8h23.4l17.6-17.5h-84q-41 0-63.5 22.4t-22.4 53.7q0 25.4 17.6 45t48.8 19.5h9.8l-4 15.6q0 13.7 11.8 27.4-46.9 1.9-78.2 21.4-31.2 17.6-31.2 48.9 0 25.4 22.5 42t65.4 16.6q48.8 0 77.1-23.5t28.4-52.7q0-31.3-33.3-58.6z" /></svg>