<svg height="1000" width="1000.0" xmlns="http://www.w3.org/2000/svg"><path d="m553 571.4l35.7-142.8h-141.7l-35.7 142.8h141.7z m428.6-281.2l-31.3 125c-2.2 7.8-8.9 13.4-17.3 13.4h-182.4l-35.8 142.8h173.6c5.6 0 10.6 2.8 13.9 6.7 3.4 4.5 5.1 10.1 3.4 15.7l-31.3 125c-1.6 7.8-8.9 13.3-17.3 13.3h-182.4l-45.2 183.1c-2.3 7.8-9.5 13.4-17.3 13.4h-125c-5.6 0-11.2-2.8-14.5-6.7-3.4-4.5-4.5-10.1-3.4-15.7l43.5-174.1h-141.7l-45.2 183.1c-2.2 7.8-9.5 13.4-17.3 13.4h-125.6c-5 0-10.6-2.8-13.9-6.7-3.4-4.5-4.5-10.1-3.4-15.7l43.6-174.1h-173.6c-5.6 0-10.6-2.7-13.9-6.7-3.4-4.4-4.5-10-3.4-15.6l31.3-125c2.2-7.8 8.9-13.4 17.3-13.4h182.4l35.8-142.8h-173.6c-5.6 0-10.6-2.8-13.9-6.7-3.4-4.5-5.1-10.1-3.4-15.7l31.3-125c1.6-7.8 8.9-13.3 17.3-13.3h182.4l45.2-183.1c2.3-7.8 9.5-13.4 17.9-13.4h125c5 0 10.6 2.8 13.9 6.7 3.4 4.5 4.5 10.1 3.4 15.6l-43.5 174.2h141.7l45.2-183.1c2.2-7.8 9.5-13.4 17.9-13.4h125c5 0 10.6 2.8 13.9 6.7 3.4 4.5 4.5 10.1 3.4 15.6l-43.6 174.2h173.6c5.6 0 10.6 2.7 13.9 6.7 3.4 4.4 4.5 10 3.4 15.6z" /></svg>