<svg height="1000" width="916.0" xmlns="http://www.w3.org/2000/svg"><path d="m166 84v166h84v250h-250v-250h84v-166q0-17.6 11.7-30.3t29.3-12.7 29.3 12.7 11.7 30.3z m168 582v-82h250v82q0 41-23.5 73.3t-60.5 43.9v175.8h-84v-175.8q-37.1-11.7-59.6-43.9t-22.4-73.3z m-334 0v-82h250v82q0 41-23.4 73.3t-60.6 43.9v175.8h-82v-175.8q-37.1-11.7-60.6-43.9t-23.4-73.3z m834-416h82v250h-250v-250h84v-166q0-17.6 12.7-30.3t29.3-12.7 29.3 12.7 12.7 30.3v166z m-334-166v166h84v250h-250v-250h82v-166q0-17.6 12.7-30.3t29.3-12.7 29.3 12.7 12.7 30.3z m166 582v-82h250v82q0 41-22.4 73.3t-59.6 43.9v175.8h-84v-175.8q-37.1-11.7-60.5-43.9t-23.5-73.3z" /></svg>