<svg height="1000" width="834.0" xmlns="http://www.w3.org/2000/svg"><path d="m808.6 482.4q25.4 25.4 25.4 59.6t-25.4 57.6l-291 293q-25.4 23.4-59.6 23.4t-57.6-23.4l-375-375q-25.4-25.4-25.4-58.6v-293q0-33.2 24.4-57.6t59.6-24.4h291q35.2 0 58.6 23.4z m-663.1-191.4q26.4 0 44.9-17.6t18.6-43.9-18.6-44.9-44.9-18.6-43.9 18.6-17.6 44.9 17.6 43.9 43.9 17.6z m491.2 345.7q29.3-31.2 29.3-74.2t-30.3-73.2-73.2-30.3-74.2 29.3l-29.3 31.2-31.3-31.2q-29.3-29.3-74.2-29.3-43 0-73.2 30.3t-30.3 73.2 31.3 74.2l177.7 177.8z" /></svg>