<svg height="1000" width="916.0" xmlns="http://www.w3.org/2000/svg"><path d="m459 209q121.1 0 206 84.9t85 206.1h-84q0-85.9-60.5-147.5t-146.5-61.5-147.5 61.5-61.5 147.5h-84q0-121.1 86-206.1t207-84.9z m41 386.7v136.7l142.6 142.6-58.6 58.6-125-125-125 125-58.6-58.6 140.6-142.6v-136.7q-27.3-11.7-44.9-38.1t-17.6-57.6q0-43 31.3-73.2t74.2-30.3 73.2 30.3 30.3 73.2q0 68.4-62.5 95.7z m-41-554.7q189.4 0 323.2 134.8t133.8 324.2h-82q0-156.2-110.4-265.6t-265.6-109.4-264.6 109.4-109.4 265.6h-84q0-189.5 134.8-324.2t324.2-134.8z" /></svg>