<svg height="1000" width="709.0" xmlns="http://www.w3.org/2000/svg"><path d="m62.5 916v-312.5h-62.5v-228.5q0-35.2 24.4-59.6t59.6-24.4h125q33.2 0 57.6 24.4t24.4 59.6v228.5h-62.5v312.5h-166z m521.5 0h-125v-250h-125l105.5-316.4q7.8-27.3 30.2-43t47.9-15.6h5.8q27.4 0 48.9 15.6t29.3 43l107.4 316.4h-125v250z m-438.5-666q-34.2 0-58.6-24.4t-24.4-58.6 24.4-58.6 58.6-24.4 58.6 24.4 24.4 58.6-24.4 58.6-58.6 24.4z m375 0q-34.2 0-58.6-24.4t-24.4-58.6 24.4-58.6 58.6-24.4 58.6 24.4 24.4 58.6-24.4 58.6-58.6 24.4z" /></svg>