<svg height="1000" width="1285.7" xmlns="http://www.w3.org/2000/svg"><path d="m918 612.7c0-44.6-28.5-82.6-67.6-97.6-2.7 17.3-7.2 34.6-12.8 51.3-5.6 17.9-22.3 29-40.2 29-4.4 0-8.9-0.5-13.4-1.6-22.8-7.9-34.6-31.9-27.3-54.2 8.4-25.6 12.8-52.4 12.8-79.8 0-139.5-113.8-253.3-253.9-253.3-100.4 0-190.8 59.7-231 149 39.1 10 75.3 30.1 104.9 59.1 16.8 16.8 16.8 44.1 0 60.8s-44.1 16.8-60.8 0c-26.8-26.7-62.5-41.8-100.5-41.8-78.6 0-142.8 63.6-142.8 142.3s64.2 142.3 142.8 142.3h583.7c58.6 0 106.1-47.4 106.1-105.5z m85.3 0c0 105.5-85.9 190.9-191.4 190.9h-583.7c-126.1 0-228.2-102.1-228.2-227.7 0-114.4 84.8-208.7 194.8-224.9 46.3-136.2 175.2-229.9 320.8-229.9 175.8 0 320.9 134.5 337.6 305.8 85.4 18.4 150.1 94.9 150.1 185.8z m139.6 0c0 63.6-18.5 125-54.2 178-8.3 12.3-21.7 18.5-35.7 18.5v0c-8.4 0-16.7-2.3-24-7.3-19.5-12.8-24.5-39.6-11.1-59.2 26.2-38.5 39.6-83.1 39.6-130 0-46.3-13.4-91.5-39.6-130-13.4-19.5-8.4-45.8 11.1-59.2s46.3-7.8 59.7 11.8c35.7 52.4 54.2 113.8 54.2 177.4z m142.8 0c0 88.8-25.7 174.1-74.8 247.2-8.3 12.3-21.7 19-35.7 19v0c-7.8 0-16.2-2.2-23.4-7.2-19.5-13.4-25.1-39.7-11.7-59.2 39-59.2 60.2-128.3 60.2-199.8s-21.2-140.6-60.2-199.2c-13.4-19.5-7.8-46.3 11.7-59.1 19.5-13.4 45.7-8.4 59.1 11.7 49.1 72.5 74.8 157.9 74.8 246.6z" /></svg>