<svg height="1000" width="994.1" xmlns="http://www.w3.org/2000/svg"><path d="m791 478.5q-128.9 0-220.7 91.8t-91.8 220.7q0 17.6 3.9 43h-482.4l834-834-2 482.4q-23.4-3.9-41-3.9z m154.3 334l44.9 33.2q5.9 5.9 2 13.7l-41 72.2q-3.9 7.9-13.7 5.9l-50.8-21.5q-15.6 11.7-35.1 19.5l-7.8 56.7q-2 7.8-11.8 7.8h-82q-9.8 0-11.7-7.8l-7.8-56.7q-17.6-5.8-35.2-19.5l-50.8 21.5q-9.7 2-13.6-5.9l-41.1-72.2q-3.9-7.8 2-13.7l44.9-33.2q-1.9-9.8-1.9-20.5t1.9-20.5l-44.9-35.2q-5.9-5.8-2-13.6l41.1-72.3q5.8-5.9 13.6-3.9l50.8 21.5q15.6-11.7 35.2-21.5l7.8-54.7q1.9-7.8 11.7-7.8h82q9.8 0 11.8 7.8l7.8 54.7q17.5 7.8 35.1 21.5l50.8-21.5q9.8-2 13.7 3.9l41 72.3q3.9 7.8-2 13.6l-44.9 35.2q2 7.8 2 19.5 0 7.8-2 21.5z m-154.3 41q25.4 0 44-17.6t18.5-43.9-18.5-44.9-44-18.6-43.9 18.6-18.6 44.9 18.6 43.9 43.9 17.6z" /></svg>