<svg height="1000" width="1000.0" xmlns="http://www.w3.org/2000/svg"><path d="m988.3 695.3q11.7 11.7 11.7 29.3t-11.7 29.3l-103.5 103.5q-11.8 11.7-29.3 11.7t-29.3-11.7q-50.8-46.9-111.4-78.1-23.4-9.8-23.4-37.1v-128.9q-91.8-29.3-191.4-29.3t-191.4 29.3v128.9q0 27.3-23.4 39.1-62.5 31.2-111.4 76.1-11.7 11.7-29.3 11.7t-29.3-11.7l-103.5-103.5q-11.7-11.7-11.7-29.3t11.7-29.3q205.1-195.3 488.3-195.3t488.3 195.3z m-107.4-433.6l-148.5 146.5-58.6-58.6 148.5-148.4z m-339.9-177.7v207h-82v-207h82z m-273.4 324.2q-144.6-146.5-148.5-146.5l58.6-60.5 148.5 148.4z" /></svg>