<svg height="1000" width="750.0" xmlns="http://www.w3.org/2000/svg"><path d="m584 125v209h-43v-209h43z m-84 84v125h-125v-43h84v-41h-84v-125h125v41h-84v43h84z m125-84h125v125h-84v84h-41v-209z m84 84v-43h-43v43h43z m0 437.5q15.6 0 28.3 11.7t12.7 29.3v146.5q0 15.6-12.7 28.3t-28.3 12.7q-193.4 0-356.5-94.7t-257.8-257.8-94.7-356.5q0-15.6 12.7-28.3t28.3-12.7h146.5q17.6 0 29.3 12.7t11.7 28.3q0 78.1 23.5 148.5 7.8 25.3-9.8 42.9l-91.8 91.8q93.7 181.7 275.4 275.4l91.8-91.8q17.6-17.6 42.9-9.8 70.4 23.5 148.5 23.5z" /></svg>