<svg height="1000" width="835.9" xmlns="http://www.w3.org/2000/svg"><path d="m656.3 500l167.9 166q11.7 13.7 11.7 30.3t-11.7 28.3l-181.6 181.7q-11.7 11.7-29.3 11.7t-29.3-11.7l-166-166.1-166 166.1q-11.8 11.7-29.3 11.7t-29.3-11.7l-181.7-181.7q-11.7-11.7-11.7-28.3t11.7-30.3l166-166-166-164.1q-11.7-13.6-11.7-30.2t11.7-30.3l181.7-179.7q11.7-11.7 28.3-11.7t30.3 11.7l166 166 166-166q11.7-11.7 29.3-11.7t29.3 11.7l179.7 179.7q13.6 13.7 13.6 30.3t-13.6 30.2z m-238.3-125q-17.6 0-29.3 12.7t-11.7 29.3 11.7 29.3 29.3 12.7 30.2-12.7 12.7-29.3-12.7-29.3-30.2-12.7z m-195.3 82l150.3-152.3-150.3-150.4-152.4 152.3z m112.3 84q16.6 0 29.3-11.7t12.7-29.3-12.7-29.3-29.3-11.7-29.3 11.7-12.7 29.3 12.7 29.3 29.3 11.7z m83 84q17.5 0 30.2-12.7t12.7-29.3-12.7-29.3-30.2-12.7-29.3 12.7-11.7 29.3 11.7 29.3 29.3 12.7z m84-166q-17.6 0-29.3 11.7t-11.8 29.3 11.8 29.3 29.3 11.7 29.3-11.7 11.7-29.3-11.7-29.3-29.3-11.7z m111.3 388.7l150.4-152.4-150.4-150.4-152.4 152.4z" /></svg>