<svg height="1000" width="857.1" xmlns="http://www.w3.org/2000/svg"><path d="m491.1 669.6v89.3c0 10.1-7.8 17.9-17.9 17.9h-89.3c-10 0-17.8-7.8-17.8-17.9v-89.3c0-10 7.8-17.8 17.8-17.8h89.3v0c10.1 0 17.9 7.8 17.9 17.8z m142.8-276.7c0 79.2-55.2 110.4-96 133.3-29 16.8-46.8 27.4-46.8 45.2v17.9c0 10-7.8 17.8-17.9 17.8h-89.3c-10 0-17.8-7.8-17.8-17.8v-38c0-68.6 49.1-90.4 88.7-108.2 33.5-15.6 54.1-26.2 54.1-51.4 0-32.3-40.7-56.3-77.5-56.3-19.6 0-40.2 6.1-53.1 15-12.2 8.4-23.9 20.7-44.6 46.4-3.3 4.4-8.4 6.7-13.9 6.7-4 0-7.9-1.2-10.6-3.4l-60.3-45.7c-7.3-5.6-8.9-16.2-3.9-24 45.7-72 109.9-107.2 194.7-107.2v0c91.6 0 194.2 72.6 194.2 169.7z m-205.3-250c-197 0-357.2 160.1-357.2 357.1s160.2 357.1 357.2 357.1 357.1-160.1 357.1-357.1-160.1-357.1-357.1-357.1z m428.5 357.1c0 236.6-191.9 428.6-428.5 428.6s-428.6-192-428.6-428.6 192-428.6 428.6-428.6v0c236.6 0 428.5 192 428.5 428.6z" /></svg>