<svg height="1000" width="834.0" xmlns="http://www.w3.org/2000/svg"><path d="m585.9 679.7h248.1v70.3h-359.4v-62.5l173.8-189.5q19.6-21.4 35.2-42.9 13.7-15.6 23.4-35.2 7.8-13.6 11.8-27.3 3.9-15.6 3.9-27.4 0-17.5-5.9-35.1-5.9-15.6-15.6-25.4-9.8-13.7-23.5-19.5t-33.2-5.9q-23.4 0-41 7.8t-27.3 19.5q-11.7 15.7-17.6 31.3-3.9 17.6-5.9 37.1h-87.9q0-33.2 11.8-62.5 11.7-31.2 34.1-54.7t57.7-37.1q33.2-11.7 76.1-11.7 39.1 0 72.3 9.8 31.2 11.7 52.7 29.2 19.6 19.6 31.3 46.9t11.7 60.6q0 25.4-7.8 48.8t-23.4 48.8q-13.7 25.4-33.3 48.9-25.3 29.3-42.9 48.8z m-335.9-388.7v168h166v82h-166v168h-84v-168h-166v-82h166v-168h84z" /></svg>