<svg height="1000" width="1000.0" xmlns="http://www.w3.org/2000/svg"><path d="m666 334v125h125v82h-125v125h-82v-125h-125v-82h125v-125h82z m-582 166q0 85.9 45.9 157.2t120.1 106.5v89.8q-109.4-39-179.7-135.7t-70.3-217.8 70.3-217.8 179.7-135.7v89.8q-74.2 35.2-120.1 106.5t-45.9 157.2z m541-375q154.3 0 264.6 110.4t110.4 264.6-110.4 264.6-264.6 110.4-264.6-110.4-110.4-264.6 110.4-264.6 264.6-110.4z m0 666q121.1 0 206.1-84.9t84.9-206.1-84.9-206.1-206.1-84.9-206.1 84.9-84.9 206.1 84.9 206.1 206.1 84.9z" /></svg>