<svg height="1000" width="834.0" xmlns="http://www.w3.org/2000/svg"><path d="m832 638.7q3.9 17.6-12.7 35.1t-53.7 29.3l-3.9 2-125-39.1 33.2-11.7q41-13.7 41-25.4-3.9-19.5-72.2-7.8l-70.3 23.4-119.2 41v43l187.5-62.5 125 39.1-193.3 66.4-119.2 41v-2 2l-134.7-43v-76.1 37.1q-78.2 27.3-164.1 11.7-5.9 0-21.5-2.9t-23.4-3.9-21.5-3-22.5-4.9-19.5-5.8-16.6-5.9-12.7-7.8-9.8-9.8-2.9-10.7q-3.9-48.8 66.4-72.3l115.2 35.2-29.3 11.7q-29.3 9.8-11.7 25.4 17.6 17.6 48.9 7.8l125-43v-85.9l-52.8-15.6 52.8-17.6v-345.7l171.8 44.9q177.8 46.9 175.8 185.6-1.9 175.8-160.1 130.8v-228.5q0-11.7-13.7-17.6t-26.4-1.9-12.7 17.6v289l11.7-3.9q113.3-39 203.2-33.2 156.2 11.7 167.9 68.4z m-765.6-23.5h1 2.9l191.4-64.4 52.8 15.6v37.1l-132.9 46.9z" /></svg>