<svg height="1000" width="714.8" xmlns="http://www.w3.org/2000/svg"><path d="m296.9 263.7q-9.8 3.9-31.3 15.6l-60.5-62.5q42.9-27.3 91.8-39.1v86z m-296.9-39.1l52.7-52.7 654.3 656.2-52.7 52.8-97.7-97.7q-42.9 27.3-93.7 39.1v-86q13.7-5.8 33.2-15.6l-337.9-335.9q-27.3 54.7-27.3 115.2 0 103.5 74.2 175.8l91.8-91.8v250h-250l99.6-99.6q-99.6-97.7-99.6-234.4 0-95.7 50.8-175.8z m714.8-58.6l-99.6 99.6q99.6 97.7 99.6 234.4 0 95.7-50.7 175.8l-62.5-60.6q29.3-54.7 29.3-115.2 0-103.5-74.3-175.8l-91.8 91.8v-250h250z" /></svg>