<svg height="1000" width="666.0" xmlns="http://www.w3.org/2000/svg"><path d="m466.8 632.8q0 39.1-15.6 58.6t-44.9 19.5-45-19.5-15.6-56.6v-33.2q0-37.1 15.6-56.7t45-19.5 44.9 19.5 15.6 54.7v33.2z m-35.2-35.1q0-23.5-5.8-33.2t-19.5-9.8-19.6 9.8-5.8 29.3v44.9q0 21.5 5.8 32.2t19.6 10.7 19.5-9.7 5.8-31.3v-42.9z m-144.5 111.3h-37.1v-138.7l-43 13.7v-29.3l76.2-27.4h3.9v181.7z m46.9-459q136.7 0 234.4 97.7t97.6 235.3-97.6 235.4-235.4 97.6-235.3-97.6-97.7-234.4h84q0 101.5 73.2 175.8t175.8 74.2 176.8-74.2 74.2-176.8-74.2-175.8-175.8-73.2v166l-209-209 209-207v166z" /></svg>