<svg height="1000" width="648.4" xmlns="http://www.w3.org/2000/svg"><path d="m449.2 375q17.6 0 29.3 12.7t11.7 28.3v500q0 17.6-11.7 30.3t-29.3 12.7h-250q-17.6 0-29.3-12.7t-11.7-30.3v-500q0-15.6 11.7-28.3t29.3-12.7h250z m-125 250q35.2 0 59.6-24.4t24.4-58.6-24.4-58.6-59.6-24.4-59.6 24.4-24.4 58.6 24.4 58.6 59.6 24.4z m-207-373q85.9-86 207-86t207.1 86l-60.6 58.5q-60.5-60.5-146.5-60.5t-148.4 60.5z m207-252q191.4 0 324.2 134.8l-58.6 58.6q-109.3-109.4-265.6-109.4-154.3 0-265.6 109.4l-58.6-58.6q134.8-134.8 324.2-134.8z" /></svg>