<svg height="1000" width="705.1" xmlns="http://www.w3.org/2000/svg"><path d="m308.6 541q9.8 13.7 15.6 31.3 3.9 17.5 3.9 35.1 0 35.2-12.7 62.5t-34.1 44.9q-23.5 19.6-52.8 29.3-31.2 9.8-66.4 9.8-31.2 0-60.5-8.8t-52.8-26.3-35.1-45q-13.7-25.4-13.7-60.5h82q0 17.6 5.9 31.2t16.6 23.5 26.4 13.6q13.6 5.9 33.2 5.9 39 0 60.5-19.5 21.5-21.5 21.5-60.6 0-19.5-5.9-35.1t-19.5-25.4q-9.8-9.8-27.3-15.6-17.6-4-39.1-4h-48.8v-64.4h48.8q21.5 0 37.1-5.9t25.4-15.6q11.7-9.8 16.6-23.4t4.9-31.3q0-35.1-17.6-54.7-19.5-19.5-56.6-19.5-17.6 0-31.3 4.9t-23.4 12.7q-9.8 9.7-15.6 22.4t-5.9 28.4h-84q0-29.3 13.7-52.8 9.7-23.4 31.2-42.9t50.8-29.3q27.4-9.8 62.5-9.8t63.5 7.8 49.8 26.4 33.2 43.9q11.7 27.4 11.7 62.5 0 15.6-3.9 29.3t-15.6 29.3q-7.8 13.7-23.5 27.4-11.7 11.7-33.2 21.4 23.5 7.9 39.1 19.6t25.4 27.3z m386.7 58.6q7.8 15.6 9.8 41 0 25.4-9.8 44.9-11.7 21.5-31.2 35.2-17.6 13.7-45 21.5t-60.5 7.8q-37.1 0-65.4-9.8t-47.9-27.3-29.3-39.1-9.7-42.9h78.1q0 15.6 7.8 27.3t17.6 17.6q9.7 7.8 23.4 9.7 11.7 4 25.4 4 33.2 0 49.8-11.8t16.6-33.2q0-7.8-3.9-15.6-2-7.8-9.8-13.7-9.7-7.8-25.4-11.7-15.6-5.8-39-11.7-29.3-5.9-52.8-15.6-25.3-9.8-41-21.5-17.6-13.7-27.3-29.3-7.8-19.5-7.8-41 0-23.5 7.8-41 11.7-21.5 29.3-36.2t42.9-24.4q25.4-7.8 58.6-7.8 35.2 0 60.6 9.8 27.3 9.7 44.9 23.4 19.5 15.6 29.3 37.1t9.8 44.9h-80.1q0-7.8-3.9-19.5-5.9-11.7-13.7-17.6-7.8-7.8-19.5-11.7-11.7-5.9-27.4-5.9t-26.3 4-18.6 9.7-11.7 15.6q-3.9 7.9-3.9 16.6t2.9 15.7 11.7 12.7 22.5 9.7q17.6 5.9 37.1 9.8 29.3 7.8 56.7 15.6 23.4 9.8 41 23.5 17.5 11.7 27.3 31.2z" /></svg>