<svg height="1000" width="750.0" xmlns="http://www.w3.org/2000/svg"><path d="m375 416q35.2 0 59.6 24.4t24.4 59.6-24.4 59.6-59.6 24.4-59.6-24.4-24.4-59.6 24.4-59.6 59.6-24.4z m291-291q35.2 0 59.6 24.4t24.4 59.6v582q0 35.2-24.4 59.6t-59.6 24.4h-582q-35.2 0-59.6-24.4t-24.4-59.6v-582q0-35.2 24.4-59.6t59.6-24.4h582z m-72.2 375q0-13.7-2-29.3l62.5-46.9q7.8-9.7 2-19.5l-58.6-101.6q-5.9-9.7-17.6-5.8l-72.3 29.3q-23.4-17.6-48.8-29.3l-11.7-76.2q-2-11.7-13.7-11.7h-117.2q-11.7 0-13.7 11.7l-11.7 78.1q-27.3 9.8-48.8 27.4l-72.3-29.3q-11.7-3.9-17.6 7.8l-58.5 99.6q-5.9 11.7 1.9 19.5l62.5 46.9q-1.9 15.6-1.9 29.3t1.9 29.3l-62.5 46.9q-7.8 9.7-1.9 19.5l58.5 101.6q5.9 9.7 17.6 5.8l72.3-29.3q23.4 17.6 48.8 29.3l11.7 76.2q2 11.7 13.7 11.7h117.2q11.7 0 13.7-11.7l11.7-78.1q27.3-9.8 48.8-27.4l72.3 29.3q11.7 3.9 17.6-7.8l58.6-99.6q5.8-11.7-2-19.5l-62.5-46.9q2-15.6 2-29.3z" /></svg>