<svg height="1000" width="857.1" xmlns="http://www.w3.org/2000/svg"><path d="m837.1 864.4c0 66.4-53.6 120.5-120.6 120.5s-121.1-54.1-121.1-120.5c0-67 54.2-121.1 121.1-121.1s120.6 54.1 120.6 121.1z m-130.1-156.8c-84.8 11.2-150.6 83.7-150.6 171.9 0 27.3 6.7 54.1 18.4 77-50.2 26.8-118.3 43.5-211.5 43.5-296.9 0-343.2-209.8-343.2-237.7 0-28.5 16.7-121.7 121.6-121.7s119.5 89.9 119.5 108.3c0 0 0 19-12.9 45.2 35.7 33.5 120 33.5 120 33.5 84.3 0 147.9-41.3 147.9-102.7 0-62-71.4-92.1-234.4-168.5-162.9-77-224.3-133.4-224.3-273.5 0-140.6 93.7-282.9 327.5-282.9s322 131.1 322 221-76.4 112.1-104.9 112.1c-27.9 0-131.1 9.5-131.1-145.6-18.4-20.6-98.8-20.6-98.8-20.6-80.9 0-116.6 61.3-116.6 98.7 0 38 15 84.8 183.6 140.6 258.3 86 267.8 198.2 267.8 301.4z" /></svg>