<svg height="1000" width="928.6" xmlns="http://www.w3.org/2000/svg"><path d="m473.2 71.4c100.5-1.1 183.6 55.3 225.5 145.7 12.8 27.3 15 69.7 15 99.9 0 35.7-2.8 70.8-5 106.5 4.5 2.3 10.6 4 15.6 4 20.1 0 36.9-15.1 57-15.1 18.9 0 46.3 13.4 46.3 35.7 0 53.6-112.2 43.5-112.2 90.4 0 8.4 3.4 16.2 6.7 24 26.8 58.6 77.6 115 137.8 140.1 14.5 6.1 29.1 9.5 44.7 12.8 10 2.2 15.6 9.5 15.6 19.5 0 38-96.5 53.6-122.2 57.5-11.2 17.3-2.8 58-32.4 58-22.9 0-45.7-7.2-70.3-7.2-11.7 0-23.4 0.6-34.6 2.8-66.4 11.1-88.7 82.6-197.5 82.6-104.9 0-130.1-71.5-194.8-82.6-11.7-2.2-23.4-2.8-35.1-2.8-25.2 0-49.1 8.4-69.2 8.4-31.3 0-21.8-41.3-33.5-59.2-25.7-3.9-122.2-19.5-122.2-57.5 0-10 5.6-17.3 15.6-19.5 15.6-3.3 30.1-6.7 44.6-12.8 59.7-24.6 111.6-81.5 137.9-140.1 3.3-7.8 6.7-15.6 6.7-24 0-46.9-112.8-37.9-112.8-89.8 0-21.8 25.7-35.8 45.2-35.8 17.3 0 34.6 14.6 56.4 14.6 6.1 0 12.3-1.2 17.9-4-2.3-35.1-5.1-70.3-5.1-106 0-30.1 2.3-73.1 15.1-100.4 49.1-106.1 132.3-144.6 243.3-145.7z" /></svg>