<svg height="1000" width="928.6" xmlns="http://www.w3.org/2000/svg"><path d="m463.7 375.6c11.7 0 22.9 3.3 33 10l123.8 82.6c22.9 15.1 43.6 33.5 61.4 54.1l81.5 94.9c13.9 16.2 20.1 37.9 16.2 59.1l-40.2 230.5c-4.5 23.4-23.4 41.3-47.4 44.1l-294.1 31.2-196.4 17.9h-5.1c-29 0-53.5-23.4-53.5-53.6 0-27.9 23.4-50.2 51.3-53.5l145.1-17.9h-250c-30.7 0-55.3-25.7-53.6-56.4 1.7-29 27.4-50.7 56.4-50.7l246.6-0.6-290.7-35.7c-30.1-3.4-51.9-30.7-47.4-61.4 4.4-26.8 29-44.6 55.8-44.6h5.5l268.5 33.4-195.9-52.4c-27.9-7.3-49.1-32.9-44.7-61.4 4.5-26.8 27.4-45.2 53.1-45.2 3.9 0 7.2 0.6 11.1 1.1l250 53.6 121.1 20.6c1.1 0 2.2 0.6 3.4 0.6 16.7 0 25.1-22.9 10-32.9l-103.8-69.8c-25.7-17.3-31.8-51.9-13.4-76.4 10.1-14 26.2-21.2 42.4-21.2z m-39 112.7l103.8 69.7-121.7-20.6-2.8-1.1-20.1-21.2-132.8-146.2c-1.1-1.2-1.7-2.8-2.8-3.9-17.3-22.9-13.4-56.4 10.6-74.8 22.4-17.3 54.2-11.7 73.7 8.9l79.2 82c-1.6 1.7-3.3 2.8-5 4.5-11.7 16.2-16.2 35.7-12.8 55.2 3.3 19 14.5 36.3 30.7 47.5z m494.9-253.4l8.4 148.5c1.7 27.3-0.5 55.2-6.1 82l-26.8 122.2c-4.5 21.2-17.9 38.5-37.4 48.6l-59.2 30.1c0.6-22.3-6.6-43.5-21.7-60.8l-81.5-94.9c-19-21.8-40.7-41.3-65.3-57.5l-123.9-82.6c-12.2-8.3-26.7-12.8-42.4-12.8-18.9 0-36.2 7.8-49.1 20.6l-131.1-174.1c-18.4-24.5-12.9-59.1 12.8-76.4 24-16.8 56.9-8.9 74.8 14.5l148.4 196.4-146.2-253.9c-15.6-26.2-6.7-60.2 20.7-74.8 25.6-13.3 58-2.7 72.5 22.4l134.5 234.3-75.9-188c-10.6-26.8-3.3-59.2 22.3-72.6 27.4-14.5 60.9-2.8 73.7 25.1l107.7 231.6 56.4 109.4c8.9 17.3 35.1 10.1 34-8.9l-6.7-125c-1.7-30.7 22.3-56.4 53-56.9 29 0 52.5 24.5 54.1 53.5z" /></svg>