<svg height="1000" width="752.0" xmlns="http://www.w3.org/2000/svg"><path d="m369.1 521.5l45 37.1q7.8 7.8 3.9 11.7l-41 72.3q-4 3.9-13.7 3.9l-52.8-21.5q-25.3 17.6-37.1 21.5l-9.7 52.7q-7.8 9.8-11.7 9.8h-84q-3.9 0-6.9-2.9t-0.9-6.9l-7.9-52.7q-13.6-3.9-39-21.5l-56.7 17.6q-5.8 3.9-13.6-5.9l-41-70.3q0-7.8 3.9-15.6l44.9-33.2v-43l-44.9-33.2q-7.9-7.8-3.9-11.7l41-72.3q3.9-3.9 13.6-3.9l52.8 21.5q25.4-17.6 39-21.5l7.9-52.7q7.8-9.8 11.7-9.8h84q11.7 0 11.7 9.8l9.7 52.7q11.8 3.9 37.1 21.5l52.8-17.6q5.8-3.9 13.7 5.9l41 70.3q0 7.8-3.9 11.7l-45 33.2v43z m-159.1 62.5q34.1 0 58.6-24.4t24.4-59.6-24.4-59.6-58.6-24.4-58.6 24.4-24.4 59.6 24.4 59.6 58.6 24.4z m458-543q35.1 0 59.5 24.4t24.5 59.6v750q0 35.2-24.5 59.6t-59.5 24.4h-416q-35.2 0-59.6-24.4t-24.4-59.6v-125h84v84h416v-668h-416v84h-84v-125q0-35.2 24.4-59.6t59.6-24.4h416z" /></svg>