<svg height="1000" width="857.1" xmlns="http://www.w3.org/2000/svg"><path d="m714.3 640.6c0-7.8-4.5-13.4-12.3-15-50.8-10.6-89.3-46.4-110.5-93.2-2.2-4.5-3.9-9-3.9-14 0-25.1 69.2-20.1 69.2-55.8 0-15.1-18.4-24.5-31.8-24.5-12.3 0-22.3 8.9-35.2 8.9-2.2 0-4.4-0.6-6.7-1.1 1.7-21.2 2.8-43 2.8-64.2 0-19-1.1-45.8-9.4-63.6-26.8-58.1-78.2-92.1-142.3-92.1-69.8 0-122.8 26.2-153.5 92.1-8.4 17.8-10.1 44.6-10.1 64.2 0 21.2 1.7 42.4 3.4 63.6-2.8 0.5-5.6 1.1-8.4 1.1-12.3 0-22.9-8.9-34.6-8.9-13.9 0-30.7 9.4-30.7 25.1 0 34.6 69.2 30.1 69.2 55.2 0 5-1.6 9.5-3.9 14-21.7 46.8-59.1 82-110.5 93.2-7.8 1.6-12.2 7.2-12.2 15 0 26.3 59.1 35.7 77 38.5 5 13.4 2.8 36.9 22.3 36.9 14.5 0 28.4-5.6 43-5.6 59.1 0 74.7 53 142.8 53 70.9 0 84.3-53 144-53 14.5 0 29 5 43.5 5 19 0 17.3-23.4 21.8-36.3 17.8-2.8 77-12.2 77-38.5z m142.8-408.5v535.8c0 88.7-71.9 160.7-160.7 160.7h-535.7c-88.7 0-160.7-72-160.7-160.7v-535.8c0-88.7 72-160.7 160.7-160.7h535.7c88.8 0 160.7 72 160.7 160.7z" /></svg>