<svg height="1000" width="857.1" xmlns="http://www.w3.org/2000/svg"><path d="m713.7 640.6c0-7.8-4.4-13.4-12.2-15-50.8-11.2-89.3-46.4-110.5-93.2-1.7-4.5-3.9-9-3.9-14 0-25.1 69.7-20.1 69.7-55.8 0-15.1-18.4-24.5-31.8-24.5-12.8 0-22.9 8.9-35.2 8.9-2.2 0-4.4-0.6-6.7-1.1 1.2-21.2 2.8-42.4 2.8-63.6 0-19.6-1.1-46.4-9.4-63.7-26.8-58-78.7-92-142.3-92-69.8 0-122.8 25.6-153.5 92-8.4 17.3-9.5 44.1-9.5 63.7 0 21.2 1.7 42.4 2.8 63.6-2.2 1.1-5 1.1-7.8 1.1-12.9 0-22.9-8.4-34.6-8.4-14 0-31.3 8.9-31.3 24.6 0 34.6 69.8 30.1 69.8 55.2 0 5-2.2 9.5-3.9 14-21.8 46.8-59.2 82-110.5 93.2-7.8 1.6-12.3 7.2-12.3 15 0 25.7 59.2 35.2 76.5 38 5 13.4 2.8 36.8 22.8 36.8 14 0 27.9-5 43-5 58.6 0 74.2 53 142.3 53 70.9 0 84.3-53 143.4-53 15.1 0 29 4.4 43.6 4.4 19.5 0 17.3-23.4 22.3-36.2 17.3-2.8 76.4-12.3 76.4-38z m143.4-140.6c0 236.6-191.9 428.6-428.5 428.6s-428.6-192-428.6-428.6 192-428.6 428.6-428.6 428.5 192 428.5 428.6z" /></svg>