<svg height="1000" width="750.0" xmlns="http://www.w3.org/2000/svg"><path d="m334 708q0-16.6 11.7-29.3t29.3-12.7 29.3 12.7 11.7 29.3-11.7 29.3-29.3 12.7-29.3-12.7-11.7-29.3z m0-583h41q156.3 0 265.6 109.4t109.4 265.6-109.4 265.6-265.6 109.4-265.6-109.4-109.4-265.6q0-89.8 40-168.9t110.4-129.9v-2l283.2 283.2-58.6 58.6-226.6-224.6q-64.4 80.1-64.4 183.6 0 121.1 84.9 206.1t206.1 84.9 206.1-84.9 84.9-206.1q0-109.4-71.3-191.4t-178.7-97.7v80.1h-82v-166z m291 375q0 17.6-12.7 29.3t-29.3 11.7-29.3-11.7-12.7-29.3 12.7-29.3 29.3-11.7 29.3 11.7 12.7 29.3z m-500 0q0-17.6 12.7-29.3t29.3-11.7 29.3 11.7 12.7 29.3-12.7 29.3-29.3 11.7-29.3-11.7-12.7-29.3z" /></svg>