<svg height="1000" width="714.3" xmlns="http://www.w3.org/2000/svg"><path d="m585.9 617.2c0 79.8-27.9 150.1-82 208.7-56.4 61.4-127.8 89.8-210.9 89.8-82.6 0-154.6-27.9-211-89.8-54.1-58.6-82-128.9-82-208.7 0-165.7 125-301.4 293-301.4 34.6 0 69.2 5.6 101.5 17.3-11.1 21.8-18.9 45.8-21.7 70.4-25.1-10.6-52.5-15.7-79.8-15.7-126.7 0-219.9 108.3-219.9 231.1 0 125 92.6 227.1 219.9 227.1s219.3-102.1 219.3-227.1c0-31.8-5.6-63.1-17.9-92.7 24.6-5 48-14.5 68.7-27.3 15.6 37.4 22.8 78.1 22.8 118.3z m-113.8-105.5c0 140.6-56.9 257.8-177.5 333.7l-7.8 0.6c-11.7 0-23.4-1.1-34.6-2.8 161.3-61.4 190.9-306.4 190.9-455.9 0-19 0-38.5-1.7-57.5 20.1 58.6 30.7 120 30.7 181.9z m-30.7-183v1.1c-29-85.4-69.2-168-114.9-245.5 70.3 47.4 108.8 162.4 114.9 244.4z m136.2 113.3c-34.6 0-65.3-18.5-89.3-41.9 56.9-31.2 128.9-79.8 161.8-137.8 3.9-7.8 10.6-22.3 11.7-31.3-32.3 72.6-114.9 129.5-191.9 147.3-12.3-18.9-19.6-40.1-19.6-63 0-26.8 13.4-62.5 33.5-82 22.9-21.8 56.9-33 87.6-41.3 44.7-12.3 80.9-46.9 100.5-88.8 29 41.3 41.3 91.6 41.3 141.2 0 25.1-3.9 70.9-13.4 94.9-20.7 50.2-62.5 102.7-122.2 102.7z" /></svg>