<svg height="1000" width="1000.0" xmlns="http://www.w3.org/2000/svg"><path d="m766.7 366.6c-4.4-18.9-23.4-30.7-42.9-26.2-79.8 19-152.4 34.6-223.8 34.6s-144-15.6-223.8-34.6c-19.5-4.5-38.5 7.3-42.9 26.2-4.5 19.6 7.2 38.5 26.2 43 59.1 13.9 114.4 26.2 169.1 32.4-2.3 188.6-22.9 241-46.3 301.3l-5.1 11.7c-7.2 18.4 2.3 39.1 20.7 46.3 3.9 1.7 8.4 2.3 12.8 2.3 14.5 0 27.9-8.4 33.5-22.9l4.5-11.2c15.6-40.1 30.1-77.5 39.6-144.5h23.4c9.5 67 24 104.4 39.6 144.5l4.5 11.2c5.6 14.5 19 22.9 33.5 22.9 4.4 0 8.9-0.6 12.8-2.3 18.4-7.2 27.9-27.9 20.7-46.3l-5.1-11.7c-23.4-60.3-44-112.7-46.3-301.3 54.7-6.2 110-18.5 169.1-32.4 19-4.5 30.7-23.4 26.2-43z m-195.3-80.9c0-39.6-31.8-71.4-71.4-71.4s-71.4 31.8-71.4 71.4 31.8 71.4 71.4 71.4 71.4-31.8 71.4-71.4z m321.5 214.3c0 217.1-175.8 392.9-392.9 392.9s-392.9-175.8-392.9-392.9 175.8-392.9 392.9-392.9 392.9 175.8 392.9 392.9z m-392.9-428.6c-236 0-428.6 192.6-428.6 428.6s192.6 428.6 428.6 428.6 428.6-192.6 428.6-428.6-192.6-428.6-428.6-428.6z m500 428.6c0 276.2-223.8 500-500 500s-500-223.8-500-500 223.8-500 500-500v0c276.2 0 500 223.8 500 500z" /></svg>