<svg height="1000" width="857.1" xmlns="http://www.w3.org/2000/svg"><path d="m802.5 453.7c11.7 12.3 17.8 29 16.1 45.7l-24.5 307.5c-2.8 31.3-28.5 54.7-59.2 54.7-1.6 0-3.3 0-5-0.6-32.9-2.2-56.9-31.2-54.7-63.6l19.6-239.4-79.8 4.5c19.5 40.2 30.6 85.9 30.6 133.9 0 80.4-31.2 153.5-82.5 207.6l-76.5-76.4c31.3-34.6 50.8-80.9 50.8-131.2 0-108.2-87.6-195.8-195.3-195.8-50.8 0-96.6 19.5-131.7 51.3l-76.5-77c43-40.7 97.7-68.7 158.5-78.7l147.3-167.4-83.1-48.6-101 89.9c-24.6 22.3-62 20.1-83.7-4.5s-19.6-61.9 4.4-83.7l133.4-118.8c19-17.3 46.9-20.1 69.2-6.7 271.8 157.9 272.3 157.9 272.3 157.9 14.5 8.4 22.9 22.9 26.8 37.9 5.6 21.8 1.7 46.3-14.5 65.3l-114.4 129.5 207-11.2c17.3-1.1 34.1 5 46.4 17.9z m-110.5-255c-54.7 0-99.4-44.1-99.4-99.4 0-54.7 44.7-99.3 99.4-99.3 55.2 0 99.9 44.6 99.9 99.3 0 55.3-44.7 99.4-99.9 99.4z m-349.9 693c40.2 0 78.1-12.8 109.4-34l77.5 77.6c-51.3 40.7-116.6 64.7-186.9 64.7-168 0-304.2-136.2-304.2-303.6 0-70.8 24-135.6 64.8-187.5l77.5 77.6c-21.2 31.2-33.4 69.2-33.4 109.9 0 107.7 87.6 195.3 195.3 195.3z" /></svg>