<svg height="1000" width="857.1" xmlns="http://www.w3.org/2000/svg"><path d="m585.9 580.9c0-27.9-5-55.8-15.6-82-14.5 8.9-30.7 15.6-47.4 19 8.9 20 12.3 41.8 12.3 63.6 0 85.9-63.7 156.2-150.7 156.2-87.6 0-151.2-70.3-151.2-156.2 0-84.3 64.1-158.5 151.2-158.5 19 0 37.4 3.3 54.7 10.6 1.6-16.7 7.2-33.5 15-48.6-22.3-7.8-45.7-11.7-69.7-11.7-115.5 0-201.5 93.2-201.5 207.6s86.5 204.8 201.5 204.8 201.4-90.9 201.4-204.8z m-99.3-198.1c1.1 13.4 1.1 26.8 1.1 39.6 0 103.3-20.1 271.2-131.1 313.6 7.8 1.2 15.6 1.7 23.4 1.7h5.6c82.6-52.4 122.2-132.8 122.2-229.3 0-43-7.2-85.4-21.2-125.6z m0 0c-2.8-54.1-33.5-137.8-79.2-168.5 31.2 53 59.1 109.9 79.2 168.5z m186.9-58.6c0-34-8.3-68.6-28.4-97.1-13.4 28.5-38.5 52.5-69.2 60.8-44.1 12.3-83.2 33-83.2 85.4 0 15.1 5.1 30.2 13.4 43 53.1-12.3 109.4-51.3 131.7-101.6-3.3 44.7-86.5 98.8-118.8 116.7 16.2 16.1 37.4 29 61.4 29 40.7 0 69.7-36.3 83.7-70.9 6.7-16.7 9.4-48 9.4-65.3z m183.6-92.1v535.8c0 88.7-71.9 160.7-160.7 160.7h-535.7c-88.7 0-160.7-72-160.7-160.7v-535.8c0-88.7 72-160.7 160.7-160.7h535.7c88.8 0 160.7 72 160.7 160.7z" /></svg>