<svg height="1000" width="1000.0" xmlns="http://www.w3.org/2000/svg"><path d="m214.3 464.3h89.3v-125h-89.3v125z m467.1 185.3v-51.4c-48 16.8-87.6 20.7-135.6 21.2-107.7 0.6-203.2-44.1-267.9-94.3l0.6 53.6c60.8 55.2 154 98.8 270 98.2 48.6 0 94.4-10 132.9-27.3z m-324.3-185.3h357.2v-125h-357.2v125z m642.9-17.9c0 70.9-20.1 137.9-55.2 196.5 31.2 35.7 49.6 79.8 49.6 127.7 0 116.7-110.5 211.5-247.2 211.5-92.6 0-173-43.5-215.4-107.7-10.6 0.6-21.2 0.6-31.8 0.6s-21.2 0-31.8-0.6c-42.4 64.2-122.8 107.7-215.4 107.7-136.7 0-247.2-94.8-247.2-211.5 0-47.9 18.4-92 49.6-127.7-35.1-58.6-55.2-125.6-55.2-196.5 0-236.6 223.8-428.5 500-428.5s500 191.9 500 428.5z" /></svg>