<svg height="1000" width="857.1" xmlns="http://www.w3.org/2000/svg"><path d="m287.4 508.4v71.4h-140.6v-71.4h140.6z m0-142.3v70.8h-140.6v-70.8h140.6z m423 285.1v71.5h-190.3v-71.5 0h190.3z m0-142.8v71.4h-375v-71.4h375z m0-142.3v70.8h-375v-70.8h375z m75.3 479.9v-692c0-6.1-5-11.1-11.1-11.1h-17.9v0l-210.9 142.8-117.2-95.4-117.2 95.4-211-142.8h-17.8c-6.1 0-11.2 5-11.2 11.1v692c0 6.1 5.1 11.1 11.2 11.1h692c6.1 0 11.1-5 11.1-11.1z m-477.1-619.4l103.2-83.7h-226.5z m239.9 0l123.4-83.7h-226.6z m308.6-72.6v692c0 45.7-36.8 82.6-82.5 82.6h-692c-45.8 0-82.6-36.9-82.6-82.6v-692c0-45.7 36.8-82.6 82.6-82.6h692c45.7 0 82.5 36.9 82.5 82.6z" /></svg>