<svg height="1000" width="345.7" xmlns="http://www.w3.org/2000/svg"><path d="m345.7 521.5q0 62.5-12.7 105.5t-35.1 70.3-54.7 40-69.4 12.7q-39 0-72.2-11.7-31.3-13.7-52.8-41-23.4-27.4-37.1-70.3-11.7-43-11.7-105.5v-86q0-62.5 12.7-105.4t35.2-70.3 54.6-39.1 70.4-11.7 70.3 11.7 54.7 39.1 35.1 70.3 12.7 105.4v86z m-87.9-99.6q0-37.1-5.8-66.4-5.9-27.4-15.7-45-11.7-15.6-27.3-23.4t-35.2-7.8q-21.5 0-37.1 7.8t-25.4 23.4q-11.7 17.6-17.5 44t-5.9 67.4v111.3q0 39.1 5.9 68.4 5.8 25.4 17.5 44.9 9.8 17.6 25.4 25.4t37.1 7.8 37.1-7.8 25.4-25.4 15.7-44.9 5.8-68.4v-111.3z" /></svg>