<svg height="1000" width="1000.0" xmlns="http://www.w3.org/2000/svg"><path d="m687.5 500c57.5 0 103.8-46.7 103.8-104.2s-46.3-104.1-103.8-104.1c-57.5 0-104.2 46.6-104.2 104.1s46.7 104.2 104.2 104.2z m-312.5-41.7c69 0 124.6-56 124.6-125s-55.6-125-124.6-125c-69 0-125 56.1-125 125s56 125 125 125z m312.5 125c-76.5 0-229.2 38.4-229.2 114.6v93.8h458.4v-93.8c0-76.2-152.7-114.6-229.2-114.6z m-312.5-41.6c-97.3 0-291.7 48.7-291.7 145.8v104.2h291.7v-93.8c0-35.4 14-97.3 98.8-144.6-36.3-7.7-71.5-11.6-98.8-11.6z" /></svg>