<svg height="1000" width="1000.0" xmlns="http://www.w3.org/2000/svg"><path d="m458.3 833.3v-125h-166.6v152.1c0 31.3 25 56.3 56.2 56.3h306.3c31.2 0 56.2-25 56.2-56.3v-152.1h-183.3c-2.1 0-68.8 125-68.8 125z m62.5-687.5v52.1l-33.3 64.6-133.3 247.9v-281.2h125v-83.4h41.6z m125 83.4v229.1h-41.6v-229.1h41.6z m0 385.4v131.2l-66.6-4.1 66.6-127.1z m-250 52.1v68.7l-41.6 16.7v-85.4h41.6z m187.5-583.4h-166.6v83.4h-68.8c-31.2 0-56.2 25-56.2 56.2v625l166.6-68.7v-175h-83.3l166.7-312.5v229.1h83.3l-147.9 275 231.2 16.7v-589.6c0-31.2-25-56.2-56.2-56.2h-68.8v-83.4z" /></svg>