<svg height="1000" width="1000.0" xmlns="http://www.w3.org/2000/svg"><path d="m500 291.7v-166.7h-416.7v750h833.4v-583.3h-416.7z m-250 500h-83.3v-83.4h83.3v83.4z m0-166.7h-83.3v-83.3h83.3v83.3z m0-166.7h-83.3v-83.3h83.3v83.3z m0-166.6h-83.3v-83.4h83.3v83.4z m166.7 500h-83.4v-83.4h83.4v83.4z m0-166.7h-83.4v-83.3h83.4v83.3z m0-166.7h-83.4v-83.3h83.4v83.3z m0-166.6h-83.4v-83.4h83.4v83.4z m416.6 500h-333.3v-83.4h83.3v-83.3h-83.3v-83.3h83.3v-83.4h-83.3v-83.3h333.3v416.7z m-83.3-333.4h-83.3v83.4h83.3v-83.4z m0 166.7h-83.3v83.3h83.3v-83.3z" /></svg>