<svg height="1000" width="1000.0" xmlns="http://www.w3.org/2000/svg"><path d="m833.3 333.3h-117c-18.8-32.5-44.6-60.6-75.7-81.6l67.7-67.7-58.9-59-90.6 90.6c-18.8-4.6-38.6-7.3-58.8-7.3s-40 2.7-58.7 7.3l-90.7-90.6-58.9 59 67.7 67.7c-31.1 21-56.9 49.1-75.6 81.6h-117.1v83.4h87.1c-2.3 13.5-3.8 27.5-3.8 41.6v41.7h-83.3v83.3h83.3v41.7c0 14.2 1.5 28.1 3.8 41.7h-87.1v83.3h117.1c43.1 74.6 123.7 125 216.2 125s173.1-50.4 216.3-125h117v-83.3h-87c2.2-13.6 3.7-27.5 3.7-41.7v-41.7h83.3v-83.3h-83.3v-41.7c0-14.1-1.5-28.1-3.7-41.6h87v-83.4z m-250 333.4h-166.6v-83.4h166.6v83.4z m0-166.7h-166.6v-83.3h166.6v83.3z" /></svg>