<?xml version="1.0" encoding="utf-8"?>
<!-- Generator: Adobe Illustrator 24.3.0, SVG Export Plug-In . SVG Version: 6.00 Build 0)  -->
<svg version="1.1" id="Calque_1" xmlns="http://www.w3.org/2000/svg" xmlns:xlink="http://www.w3.org/1999/xlink" x="0px" y="0px"
	 viewBox="0 0 1000 1000" style="enable-background:new 0 0 1000 1000;" xml:space="preserve">
<path d="M975,750H596.2c-1.2,31-23,50-51.2,50h-95c-29.2,0-51.6-27.3-51.2-50H25c-13.8,0-25,11.2-25,25v25c0,55,45,100,100,100h800
	c55,0,100-45,100-100v-25C1000,761.2,988.8,750,975,750z M900,175c0-41.2-33.7-75-75-75H175c-41.2,0-75,33.8-75,75v525h800V175z
	 M800,600H200V200h600V600z"/>
</svg>
