<svg height="1000" width="1000.0" xmlns="http://www.w3.org/2000/svg"><path d="m401.7 318.3c9.3-20.8 15-43.9 15-68.3 0-92.1-74.6-166.7-166.7-166.7s-166.7 74.6-166.7 166.7 74.6 166.7 166.7 166.7c24.4 0 47.5-5.7 68.3-15l98.4 98.3-98.4 98.3c-20.8-9.3-43.9-15-68.3-15-92.1 0-166.7 74.6-166.7 166.7s74.6 166.7 166.7 166.7 166.7-74.6 166.7-166.7c0-24.4-5.7-47.5-15-68.3l98.3-98.4 291.7 291.7h125v-41.7l-515-515z m-151.7 15c-46 0-83.3-37.3-83.3-83.3s37.3-83.3 83.3-83.3 83.3 37.3 83.3 83.3-37.3 83.3-83.3 83.3z m0 500c-46 0-83.3-37.3-83.3-83.3s37.3-83.3 83.3-83.3 83.3 37.3 83.3 83.3-37.3 83.3-83.3 83.3z m250-312.5c-11.5 0-20.8-9.3-20.8-20.8s9.3-20.8 20.8-20.8 20.8 9.3 20.8 20.8-9.3 20.8-20.8 20.8z m291.7-395.8l-250 250 83.3 83.3 291.7-291.6v-41.7z" /></svg>