<svg height="1000" width="1000.0" xmlns="http://www.w3.org/2000/svg"><path d="m833.3 875c-57.9 0-115.8-19.6-166.6-55.2-101.7 71.2-231.7 71.2-333.4 0-50.8 35.6-108.7 55.2-166.6 55.2h-83.4v83.3h83.4c57.3 0 114.1-14.3 166.6-41.4 105 53.9 228.4 53.9 333.4 0 52.5 26.9 109.3 41.4 166.6 41.4h83.4v-83.3h-83.4z m-668.9-83.3h2.3c66.6 0 126-36.7 166.6-83.4 40.7 46.7 100 83.4 166.7 83.4s126-36.7 166.7-83.4c40.8 46.7 99.8 83.4 166.6 83.4h2.3l79-278.6c3.5-10.6 2.5-22.3-2.5-32.3-5.2-10-14.2-17.5-25-20.6l-53.8-17.7v-192.5c0-46-37.3-83.3-83.3-83.3h-125v-125h-250v125h-125c-46 0-83.3 37.3-83.3 83.3v192.5l-53.6 17.5c-10.8 3.3-19.8 10.6-25 20.6s-6 21.7-2.5 32.3l78.8 278.8z m85.6-541.7h500v165.2l-250-81.9-250 81.9v-165.2z" /></svg>