<svg height="1000" width="2412.1" xmlns="http://www.w3.org/2000/svg"><path d="m1892.8 27.7l0 493c0 43.6 2.4 83 7.3 118.3 5.6 34.5 20.3 64.3 44 89.2 9.7 10.4 20.9 19.1 33.4 26 13.3 7 26 12.4 38.6 16.5 12.5 3.5 24.2 5.9 34.7 7.3 10.4 2.1 18.7 3.1 25 3.1l5.2-45.6c-12.6 0-28.6-3.5-48.1-10.4-18.8-6.9-34.3-16.9-46.9-30.1-7.7-7.6-14.4-16.3-20-26-4.9-10.4-8.9-23.2-12.4-38.4-2.8-15.9-5.4-35.5-7.5-59-1.4-23.5-2-53.1-2-88.4l0-455.5-51.3 0z m293.8 42.5c-11.8 0-22 4.6-30.4 13.6-8.3 9-12.4 19.4-12.4 31.2 0 11.7 3.6 21.9 11.3 30.9 7.7 9 17.9 13.6 30.4 13.6 13.3 0 23.5-4.6 31.2-13.6 7.7-9 11.6-19.2 11.6-30.9 0-11.8-4.1-22.2-12.5-31.2-7.7-9-17.3-13.6-29.2-13.6z m-658.6 179c-23.4 0-42.5 19.9-42.5 44.3 0 24.5 19.1 44.3 42.5 44.3 23.5 0 42.5-19.8 42.5-44.3 0-24.4-19-44.3-42.5-44.3z m-1277.1 10.9c-35.5 0-68.7 6.7-99.3 19.9-30.7 12.4-57.1 30.3-79.4 53.8-22.3 23.5-40.2 52.2-53.4 86.1-12.6 33.9-18.8 72-18.8 114.2 0 35.9 6 69.2 17.9 99.7 12.5 30.4 30 56.7 52.3 78.8 22.3 22.2 49.1 39.4 80.5 51.8 32 12.5 67.5 18.8 106.6 18.8 12.5 0 24.4-0.2 35.6-0.9 11.8-0.7 22.6-1.8 32.4-3.2l-4.1-42.5c-16.7 2.1-36.4 2.9-58.7 2.9-30 0-57.9-4.3-83.7-13.3-25.8-9-48.5-22.5-68-40.5-18.9-18.6-33.8-41.5-44.9-68.4-10.5-27-15.6-59-15.6-95.7l417.1 0c1.4-4.1 2.2-8.3 2.2-12.4 0-4.8 0-10.9 0-18.5 0-16.6-2.8-38-8.3-63.6-4.9-26.3-15.5-51.7-31.6-76.6-15.3-24.9-37.1-46-65.6-63.3-28.6-18-66.5-27.1-113.2-27.1z m523 0c-37.6 0-69.9 11.5-96.4 34.3-25.8 22.2-45 50.9-57.5 86.2l-3 0-2.2-108.1-46.9 0c1.3 27 2.4 54.2 3.1 81.2 0.7 26.3 0.9 52.8 0.9 79.8l0 337.2 51.2 0 0-269.9c0-16.6 1.7-32.7 5.2-48.6 8.4-43.6 24.8-78.6 49.2-104.9 25.1-26.2 55.4-39.3 91-39.3 5.6 0 10.5 0 14.7 0 4.9 0 9.8 0.7 14.7 2l0-46.8c-7.7-2-15.6-3.1-24-3.1z m1763.6 0c-27.2 0-51.3 3.9-72.2 11.5-20.3 7.6-37.4 18.1-51.4 31.2-13.9 13.2-24.3 27.9-31.3 44.5-6.9 16.6-10.4 33.6-10.4 50.9 0 60.9 45.5 105.9 136.1 135 39.8 12.4 69.3 27 88.9 43.6 19.5 15.9 29.1 38.3 29.1 67.4 0 25.6-10.1 47.9-30.3 67.3-20.2 19.4-52.2 29.2-96.2 29.2-25.1 0-48.3-3.9-69.9-11.6-21.6-7.6-40.3-16-55.6-25.7l-18.8 43.4c18.8 11.1 39.9 19.8 63.6 26 24.4 6.9 50 10.4 76.4 10.4 28.6 0 54.1-3.7 76.5-11.3 22.3-6.9 41.1-16.7 56.5-29.2 16-13.1 27.8-28.4 35.5-45.7 8.3-17.9 12.5-36.9 12.5-56.9 0-37.4-11.5-67-34.5-88.4-22.3-22.1-56.5-41.1-102.5-57-18.8-6.2-35.4-12.5-50.1-18.7-13.9-6.3-26.2-13.2-36.7-20.8-9.8-7.6-17.2-16.6-22.8-26.9-4.9-10.4-7.6-22.6-7.6-36.4 0-24.2 8.9-44.9 26.3-62.2 18.2-18 44.5-26.9 79.4-26.9 29.3 0 53.1 4.1 71.2 12.4 18.1 7.7 31.3 14.2 39.7 19.7l19.9-41.6c-14.7-9.7-32.4-17.5-53.3-23.7-20.9-6.2-43.6-9.5-68-9.5z m-1349.2 8.3l-188.5 2.1-2 0c-21.6 0-42.7 4.1-63.6 12.4-20.9 7.6-39.8 19.2-56.5 34.4-16.1 15.2-29.5 33.9-39.9 56-9.8 21.5-14.5 45.6-14.5 72.6 0 25.6 4.7 49.1 14.5 70.5 9.7 20.8 23.3 39.3 40.8 55.2-0.7 2.8-2 8.6-4.1 17.6-2.1 8.3-4.2 17.7-6.3 28.1-1.4 10.3-2.7 20.5-4.1 30.9-0.7 10.4-0.5 18 0.9 22.9 3.5 17.2 8.4 30.1 14.7 38.4 7 8.3 15.7 14.6 26.1 18.7 11.2 4.2 24.3 7.9 39.7 11.3 16 2.8 35.6 7.8 58.6 14.7 39.8 12.5 69.5 26.6 89 42.5 19.5 16.6 29.2 39.5 29.2 68.5 0 25.6-10.1 48-30.3 67.4-20.3 19.4-52.3 29.2-96.2 29.2-25.1 0-48.4-4-70-11.6-21.6-7.6-40.3-16.3-55.6-26l-18.8 43.7c18.9 11 40.2 19.7 63.9 26 24.4 6.9 49.7 10.4 76.2 10.4 28.6 0 54.1-4 76.4-11.6 22.3-6.9 41.1-16.9 56.4-30 16-12.5 27.9-27.7 35.6-45.7 8.4-17.3 12.5-36 12.5-56.1 0-37.3-11.4-66.9-34.4-89-22.3-21.5-56.5-40.2-102.5-56.1-18.9-6.2-35.9-10.8-51.3-13.6-15.3-3.4-28.5-6.9-39.6-10.3-10.5-4.2-19-9.6-25.2-16.6-6.3-6.9-9.3-17.3-9.3-31.1 0-0.7 0.2-4.2 0.9-10.4 1.4-6.3 2.5-13.4 3.2-21.7 1.4-8.3 1.8-14.2 1.1-17.7 23.7 12.5 51.1 18.6 82.5 18.6 19.5 0 39.5-3.1 59.7-9.3 20.9-6.9 39.7-17.4 56.4-31.2 17.4-14.5 31.7-32.6 42.8-54 11.2-22.2 16.9-48.3 16.9-78.7 0.7-27-5-52.4-16.9-76-11.8-24.2-28.4-44.2-50-60.1l81.6 9.3 0-44.6z m972 4.1l0 498.2 51.2 0 0-498.2-51.2 0z m-1915.5 29.2c37.7 0 67.5 6.9 89.8 20.8 23 13.8 40.4 30.3 52.3 49.7 12.5 19.4 20.6 39.2 24.1 59.2 3.5 20.1 5.2 36.6 5.2 49.8l-362.7 0c2.8-18.7 8.3-38.3 16.7-59 8.4-21.5 19.8-41.1 34.5-58.4 15.3-17.9 34.4-32.7 57.4-44.5 23-11.8 50.7-17.6 82.7-17.6z m750 6.2c1.4 0 2.7 0.1 4.1 0.1 23 0 42.6 4.4 58.6 13.3 16.7 8.3 30.3 19.2 40.8 32.4 11.1 13.1 19.1 27.5 24 43.4 4.8 15.2 7.3 30.2 7.3 44.7 0 22.9-3.7 42.4-11.4 59-7 16.6-16.9 30.6-29.4 41.6-11.9 11.1-25.7 19.4-41.7 24.9-15.3 5.5-31.4 8.4-48.2 8.4-15.3 0-30.6-2.9-46-8.4-15.3-5.5-29.3-13.8-41.9-24.9-12.5-11-22.9-24.5-31.3-40.4-7.7-16.6-11.5-36-11.5-58.1 0-16.6 2.3-32.9 7.2-48.9 5.6-16.6 14.1-31.1 25.2-43.6 11.2-13.1 24.8-23.3 40.8-31 14-7.2 30.3-11.5 49.2-12.4 1.3-0.1 2.7-0.1 4.2-0.1z m357.8 15.5c-23.5 0-42.5 19.8-42.5 44.3 0 24.5 19 44.3 42.5 44.3 23.5 0 42.5-19.8 42.5-44.3 0-24.5-19-44.3-42.5-44.3z m349 1.8c-23.4 0-42.5 19.8-42.5 44.3 0 24.5 19.1 44.3 42.5 44.3 23.5 0 42.5-19.8 42.5-44.3 0-24.5-19-44.3-42.5-44.3z m-175.4 106.6c-59.9 0-108.5 50.6-108.5 113.1 0 62.5 48.6 113.2 108.5 113.2 59.9 0 108.5-50.7 108.5-113.2 0-62.5-48.6-113.1-108.5-113.1z m-245.9 67c-23.5 0-42.5 19.8-42.5 44.3 0 24.5 19 44.3 42.5 44.3 23.4 0 42.5-19.8 42.5-44.3 0-24.5-19.1-44.3-42.5-44.3z m497.3 0c-23.5 0-42.5 19.8-42.5 44.3 0 24.5 19 44.3 42.5 44.3 23.5 0 42.5-19.8 42.5-44.3 0-24.5-19-44.3-42.5-44.3z m-426.8 175.4c-23.5 0-42.5 19.9-42.5 44.3 0 24.5 19 44.3 42.5 44.3 23.5 0 42.5-19.8 42.5-44.3 0-24.4-19-44.3-42.5-44.3z m359.9 9.1c-23.5 0-42.5 19.8-42.5 44.3 0 24.4 19 44.3 42.5 44.3 23.5 0 42.5-19.9 42.5-44.3 0-24.5-19-44.3-42.5-44.3z m-182.7 68.7c-23.4 0-42.5 19.8-42.5 44.3 0 24.5 19.1 44.3 42.5 44.3 23.5 0 42.5-19.8 42.5-44.3 0-24.5-19-44.3-42.5-44.3z" /></svg>