<svg height="1000" width="1000.0" xmlns="http://www.w3.org/2000/svg"><path d="m626.9 678.8l119.4-127.8c15.6-16.4 30-32.7 43.3-48.9 13.1-16.3 24.6-32.5 34.2-48.6 9.5-16.2 17-32.2 22.2-48.5 5.5-16.2 8.2-32.7 8.2-49.4 0-22.3-3.8-42.5-11.3-60.8-7.5-18.1-18.3-33.8-32.7-46.5s-31.9-22.5-52.7-29.5c-20.8-6.9-44.6-10.5-71.2-10.5-28.8 0-54.6 4.4-77.1 13.4s-41.5 21-56.9 36.4-27.1 33.6-35 54.2c-7.5 19.6-11.3 40.6-11.7 62.7h89.2c0.2-12.9 1.9-25.2 5.4-36.2 3.8-12.1 9.4-22.5 16.9-31.3s16.9-15.4 28.1-20.4c11.5-4.8 24.8-7.3 40.2-7.3 12.7 0 24 2.1 33.8 6.4s18.1 10.3 24.8 17.8c6.6 7.5 11.8 16.6 15.4 26.8 3.5 10.4 5.2 21.7 5.2 34 0 8.9-1.3 18.1-3.6 27.1s-6.2 18.7-12 29.1c-5.9 10.5-13.6 21.9-23.2 34.6-9.5 12.5-21.8 26.9-36.4 43.1l-174 189.8v61.5h359.6v-71.3h-248.1z m-543.6-220.5v83.4h333.4v-83.4h-333.4z" /></svg>