<svg height="1000" width="1000.0" xmlns="http://www.w3.org/2000/svg"><path d="m854.2 458.3h-62.5v-166.6c0-46.1-37.3-83.4-83.4-83.4h-166.6v-62.5c0-57.5-46.7-104.1-104.2-104.1s-104.2 46.6-104.2 104.1v62.5h-166.6c-46.1 0-83 37.3-83 83.4l-0.2 158.3h62.3c62.1 0 112.5 50.4 112.5 112.5s-50.4 112.5-112.5 112.5h-62.3l-0.2 158.3c0 46.1 37.3 83.4 83.4 83.4h158.3v-62.5c0-62.1 50.4-112.5 112.5-112.5s112.5 50.4 112.5 112.5v62.5h158.3c46.1 0 83.4-37.3 83.4-83.4v-166.6h62.5c57.5 0 104.1-46.7 104.1-104.2s-46.6-104.2-104.1-104.2z" /></svg>