<svg height="1000" width="1000.0" xmlns="http://www.w3.org/2000/svg"><path d="m125 208.3h-83.3v666.7c0 46 37.3 83.3 83.3 83.3h666.7v-83.3h-666.7v-666.7z m458.3 291.7v-166.7c0-46-37.3-83.3-83.3-83.3h-41.7c-46 0-83.3 37.3-83.3 83.3v41.7c0 46 37.3 83.3 83.3 83.3h41.7v41.7h-125v83.3h125c46 0 83.3-37.3 83.3-83.3z m-125-125v-41.7h41.7v41.7h-41.7z m416.7-333.3h-583.3c-46.1 0-83.4 37.3-83.4 83.3v583.3c0 46.1 37.3 83.4 83.4 83.4h583.3c46 0 83.3-37.3 83.3-83.4v-583.3c0-46-37.3-83.3-83.3-83.3z m0 333.3h-83.3v-83.3h-83.4v83.3h-83.3v83.3h83.3v83.4h83.4v-83.4h83.3v250h-583.3v-583.3h583.3v250z" /></svg>