<svg height="1000" width="1000.0" xmlns="http://www.w3.org/2000/svg"><path d="m612.3 712.7c-31 24-70.8 37.3-112.3 37.3s-81.2-13.3-112.3-37.3c-8.9-7.1-22.1-5.4-29.2 3.8s-5.4 22 3.8 29.1c38.1 29.6 87.1 46.1 137.7 46.1s99.6-16.5 137.7-46.1c9.2-7.1 10.8-20.2 3.8-29.1-7.1-9.2-20.3-10.9-29.2-3.8z m-216.5-191.9c0 23-18.6 41.7-41.6 41.7s-41.7-18.7-41.7-41.7c0-23 18.7-41.6 41.7-41.6s41.6 18.6 41.6 41.6z m104.2-520.8c-276 0-500 224-500 500s224 500 500 500 500-224 500-500-224-500-500-500z m331.7 617.5c-45.4 155.8-177.9 269-335 269-157.3 0-290-113.6-335.2-269.8-49.6-4.2-88.6-49.2-88.6-104.6 0-52.9 35.6-96.5 81.9-104v-0.2c87.1-61 158.5-145.4 170.6-210.4l0.2 0.2v-0.6c56.5 109.4 262.5 216.2 492.7 210.8 4.2-0.6 8.2-1.4 12.3-1.4 53.2 0 96.3 47.2 96.3 105.6 0.2 57.9-42.5 105-95.2 105.4z m-144.2-96.7c0 23-18.7 41.7-41.7 41.7s-41.6-18.7-41.6-41.7c0-23 18.6-41.6 41.6-41.6s41.7 18.6 41.7 41.6z" /></svg>