<svg height="1000" width="1000.0" xmlns="http://www.w3.org/2000/svg"><path d="m668.5 678.8l119.4-127.8c15.6-16.4 30-32.7 43.4-48.9 13.1-16.3 24.5-32.5 34.1-48.6 9.6-16.2 17.1-32.2 22.3-48.5 5.4-16.2 8.1-32.7 8.1-49.4 0-22.3-3.7-42.5-11.2-60.8-7.5-18.1-18.3-33.8-32.7-46.5s-31.9-22.5-52.7-29.5c-20.9-6.9-44.6-10.5-71.3-10.5-28.7 0-54.6 4.4-77.1 13.4s-41.4 21-56.8 36.4-27.1 33.6-35 54.2c-7.5 19.6-11.3 40.6-11.7 62.7h89.2c0.2-12.9 1.8-25.2 5.4-36.2 3.7-12.1 9.4-22.5 16.9-31.3s16.8-15.4 28.1-20.4c11.4-4.8 24.8-7.3 40.2-7.3 12.7 0 23.9 2.1 33.7 6.4s18.2 10.3 24.8 17.8c6.7 7.5 11.9 16.6 15.4 26.8 3.6 10.4 5.3 21.7 5.3 34 0 8.9-1.3 18.1-3.6 27.1s-6.2 18.7-12.1 29.1c-5.8 10.5-13.5 21.9-23.1 34.6-9.6 12.5-21.9 26.9-36.5 43.1l-173.9 189.8v61.5h359.6v-71.3h-248.2z m-335.2-387.1h-83.3v166.6h-166.7v83.4h166.7v166.6h83.3v-166.6h166.7v-83.4h-166.7v-166.6z" /></svg>