<svg height="1000" width="1000.0" xmlns="http://www.w3.org/2000/svg"><path d="m125 208.3h-83.3v666.7c0 46 37.3 83.3 83.3 83.3h666.7v-83.3h-666.7v-666.7z m750-166.6h-583.3c-46.1 0-83.4 37.3-83.4 83.3v583.3c0 46.1 37.3 83.4 83.4 83.4h583.3c46 0 83.3-37.3 83.3-83.4v-583.3c0-46-37.3-83.3-83.3-83.3z m0 666.6h-583.3v-583.3h583.3v583.3z m-250-500h-83.3c-46.1 0-83.4 37.3-83.4 83.4v83.3c0 46 37.3 83.3 83.4 83.3h83.3v83.4h-166.7v83.3h166.7c46 0 83.3-37.3 83.3-83.3v-250c0-46.1-37.3-83.4-83.3-83.4z m0 166.7h-83.3v-83.3h83.3v83.3z" /></svg>