<svg height="1000" width="1000.0" xmlns="http://www.w3.org/2000/svg"><path d="m833.3 83.3h-666.6c-46.1 0-83.4 37.3-83.4 83.4v666.6c0 46.1 37.3 83.4 83.4 83.4h666.6c46.1 0 83.4-37.3 83.4-83.4v-666.6c0-46.1-37.3-83.4-83.4-83.4z m-500 750h-166.6v-166.6h166.6v166.6z m0-250h-166.6v-166.6h166.6v166.6z m0-250h-166.6v-166.6h166.6v166.6z m250 500h-166.6v-166.6h166.6v166.6z m0-250h-166.6v-166.6h166.6v166.6z m0-250h-166.6v-166.6h166.6v166.6z m250 500h-166.6v-166.6h166.6v166.6z m0-250h-166.6v-166.6h166.6v166.6z m0-250h-166.6v-166.6h166.6v166.6z" /></svg>