<svg height="1000" width="1000.0" xmlns="http://www.w3.org/2000/svg"><path d="m791.7 166.7h-583.4c-46 0-83.3 37.3-83.3 83.3v500c0 46 37.3 83.3 83.3 83.3h583.4c46 0 83.3-37.3 83.3-83.3v-500c0-46-37.3-83.3-83.3-83.3z m-333.4 458.3h-62.5v-83.3h-83.3v83.3h-62.5v-250h62.5v104.2h83.3v-104.2h62.5v250z m291.7-41.7c0 23-18.5 41.7-41.7 41.7h-31.2v62.5h-62.5v-62.5h-31.3c-23.1 0-41.6-18.7-41.6-41.7v-166.6c0-23 18.5-41.7 41.6-41.7h125c23.2 0 41.7 18.7 41.7 41.7v166.6z m-145.8-20.8h83.3v-125h-83.3v125z" /></svg>