<svg height="1000" width="1000.0" xmlns="http://www.w3.org/2000/svg"><path d="m333.3 416.7h-125v-125h-83.3v125h-125v83.3h125v125h83.3v-125h125v-83.3z m416.7 41.6c69 0 124.6-56 124.6-125s-55.6-125-124.6-125c-13.3 0-26 2.1-38.1 6.1 23.5 33.7 37.7 74.8 37.7 118.9s-14.2 85.2-37.7 119c12.1 3.9 24.8 6 38.1 6z m-208.3 0c68.9 0 124.6-56 124.6-125s-55.7-125-124.6-125c-69 0-125 56.1-125 125s56 125 125 125z m275.8 90c34.6 30.2 57.5 69.2 57.5 118.4v83.3h125v-83.3c0-64.2-99-103.6-182.5-118.4z m-275.8-6.6c-83.4 0-250 41.6-250 125v83.3h500v-83.3c0-83.4-166.7-125-250-125z" /></svg>