<svg height="1000" width="1000.0" xmlns="http://www.w3.org/2000/svg"><path d="m738.8 500.8l165.8-165.8c16.2-16.2 16.2-42.7 0-59l-180.6-180.6c-16.3-16.2-42.7-16.2-59 0l-165.8 165.9-165.9-165.7c-8.1-8.1-18.7-12.3-29.3-12.3s-21.3 4.2-29.4 12.3l-180.8 180.7c-16.3 16.2-16.3 42.7 0 58.9l165.8 165.8-165.8 165.7c-16.3 16.2-16.3 42.7 0 58.9l180.6 180.6c16.2 16.3 42.7 16.3 58.9 0l165.9-165.8 165.8 165.8c8.1 8.2 18.8 12.3 29.4 12.3s21.2-4.1 29.4-12.3l180.6-180.6c16.2-16.2 16.2-42.7 0-58.9l-165.6-165.9z m-238.8-125.8c22.9 0 41.7 18.8 41.7 41.7s-18.8 41.6-41.7 41.6-41.7-18.7-41.7-41.6 18.8-41.7 41.7-41.7z m-196.2 81.7l-151.1-151.1 151.3-151.2 151 151-151.2 151.3z m112.9 85c-22.9 0-41.7-18.8-41.7-41.7s18.8-41.7 41.7-41.7 41.6 18.8 41.6 41.7-18.7 41.7-41.6 41.7z m83.3 83.3c-22.9 0-41.7-18.7-41.7-41.7s18.8-41.6 41.7-41.6 41.7 18.7 41.7 41.6-18.8 41.7-41.7 41.7z m83.3-166.7c23 0 41.7 18.8 41.7 41.7s-18.7 41.7-41.7 41.7-41.6-18.8-41.6-41.7 18.7-41.7 41.6-41.7z m111.1 389l-151.1-151 151.3-151.3 151 151-151.2 151.3z" /></svg>