<svg height="1000" width="1000.0" xmlns="http://www.w3.org/2000/svg"><path d="m645.8 437.5c34.6 0 62.5-27.9 62.5-62.5s-27.9-62.5-62.5-62.5-62.5 27.9-62.5 62.5 28 62.5 62.5 62.5z m-291.6 0c34.6 0 62.5-27.9 62.5-62.5s-27.9-62.5-62.5-62.5-62.5 27.9-62.5 62.5 27.9 62.5 62.5 62.5z m145.8 291.7c108.8 0 201-69.6 235.4-166.7h-470.8c34.4 97.1 126.7 166.7 235.4 166.7z m-0.2-666.7c-230.2 0-416.5 186.5-416.5 416.7s186.3 416.6 416.5 416.6c230.2 0 416.9-186.4 416.9-416.6s-186.7-416.7-416.9-416.7z m0.2 750c-184.2 0-333.3-149.2-333.3-333.3s149.1-333.4 333.3-333.4 333.3 149.2 333.3 333.4-149.1 333.3-333.3 333.3z" /></svg>