<svg height="1000" width="1000.0" xmlns="http://www.w3.org/2000/svg"><path d="m872.5 461.9c-19.2-173.8-157.1-311.7-330.8-330.9v-85.8h-83.4v85.8c-47 5.3-91.2 19.4-131.4 40.5l62.5 62.5c34.1-14 71.4-21.9 110.6-21.9 161 0 291.7 130.6 291.7 291.7 0 39.1-7.9 76.4-21.9 110.6l62.5 62.5c21-40.2 35-84.4 40.2-131.5h85.8v-83.3h-85.8z m-747.5-280.2l84.8 84.8c-44.6 54.5-74.4 121.6-82.5 195.4h-85.6v83.3h85.8c19.2 173.8 157.1 311.7 330.8 330.8v85.9h83.4v-85.9c73.7-8.1 140.8-37.9 195.4-82.5l85 85 52.9-52.9-696.9-697.1-53.1 53.2z m552.7 552.7c-49.2 37.9-110.8 60.8-177.7 60.8-161 0-291.7-130.6-291.7-291.7 0-67 23-128.5 60.9-177.7l408.5 408.6z" /></svg>