<svg height="1000" width="1000.0" xmlns="http://www.w3.org/2000/svg"><path d="m892.1 482.5l-374.8-374.8c-15-15-35.8-24.4-59-24.4h-291.6c-46.1 0-83.4 37.3-83.4 83.4v291.6c0 23.2 9.4 44 24.6 59l375 375c15 15 35.8 24.4 58.8 24.4 23.1 0 43.9-9.4 58.9-24.4l291.7-291.7c15-15.2 24.4-36 24.4-58.9 0-23.2-9.4-44-24.6-59.2z m-662.9-190.8c-34.6 0-62.5-27.9-62.5-62.5s27.9-62.5 62.5-62.5 62.5 27.9 62.5 62.5-27.9 62.5-62.5 62.5z m490.4 344.6l-177.9 177.9-178-177.9c-18.7-19-30.4-45-30.4-73.8 0-57.5 46.7-104.2 104.2-104.2 28.7 0 55 11.7 73.7 30.7l30.5 30.4 30.4-30.4c18.9-19 45-30.7 73.7-30.7 57.5 0 104.2 46.7 104.2 104.2 0 28.8-11.7 54.8-30.4 73.8z" /></svg>