<svg height="1000" width="1000.0" xmlns="http://www.w3.org/2000/svg"><path d="m274.2 149.2l-59.6-59.6c-99.8 76-165.6 193.5-171.9 327.1h83.3c6.5-110.4 63.4-207.1 148.2-267.5z m558.1 267.5h83.3c-6.2-133.6-72.1-251.1-171.8-327.1l-59.4 59.4c84.6 60.6 141.4 157.3 147.9 267.7z m-82.3 20.8c0-128.1-89-235-208.3-263.3v-28.4c0-34.5-27.9-62.5-62.5-62.5s-62.5 28-62.5 62.5v28.4c-119.4 28.3-208.4 135.2-208.4 263.3v229.2l-83.3 83.3v41.7h708.3v-41.7l-83.3-83.3v-229.2z m-270.8 479.2c5.8 0 11.4-0.7 16.8-1.7 27.1-5.6 49.4-24.4 60-49.2 4.2-10 6.5-20.8 6.5-32.5h-166.7c0 46.1 37.3 83.4 83.4 83.4z" /></svg>