<svg height="1000" width="1000.0" xmlns="http://www.w3.org/2000/svg"><path d="m166.7 166.7h291.6v-83.4h-291.6c-46.1 0-83.4 37.3-83.4 83.4v291.6h83.4v-291.6z m250 375l-166.7 208.3h500l-125-166.7-84.6 112.9-123.7-154.5z m291.6-187.5c0-34.6-27.9-62.5-62.5-62.5s-62.5 27.9-62.5 62.5 28 62.5 62.5 62.5 62.5-27.9 62.5-62.5z m125-270.9h-291.6v83.4h291.6v291.6h83.4v-291.6c0-46.1-37.3-83.4-83.4-83.4z m0 750h-291.6v83.4h291.6c46.1 0 83.4-37.3 83.4-83.4v-291.6h-83.4v291.6z m-666.6-291.6h-83.4v291.6c0 46.1 37.3 83.4 83.4 83.4h291.6v-83.4h-291.6v-291.6z" /></svg>