<svg height="1000" width="1000.0" xmlns="http://www.w3.org/2000/svg"><path d="m833.3 208.3h-132l-76.3-83.3h-250l-76.2 83.3h-132.1c-46.1 0-83.4 37.3-83.4 83.4v500c0 46 37.3 83.3 83.4 83.3h291.6v-87.1c-118.1-20-208.3-122.7-208.3-246.2h83.3c0 91.8 74.8 166.6 166.7 166.6s166.7-74.8 166.7-166.6h83.3c0 123.5-90.2 226.2-208.3 246.2v87.1h291.6c46.1 0 83.4-37.3 83.4-83.3v-500c0-46.1-37.3-83.4-83.4-83.4z m-250 333.4c0 46-37.3 83.3-83.3 83.3s-83.3-37.3-83.3-83.3v-166.7c0-46 37.3-83.3 83.3-83.3s83.3 37.3 83.3 83.3v166.7z" /></svg>