<?xml version="1.0" encoding="utf-8"?>
<!-- Generator: Adobe Illustrator 24.3.0, SVG Export Plug-In . SVG Version: 6.00 Build 0)  -->
<svg version="1.1" id="Calque_1" xmlns="http://www.w3.org/2000/svg" xmlns:xlink="http://www.w3.org/1999/xlink" x="0px" y="0px"
	 viewBox="0 0 1000 1000" style="enable-background:new 0 0 1000 1000;" xml:space="preserve">
<path d="M700.5,41.7h-401c-47.4,0-85.9,38.5-85.9,85.9v744.7c0,47.4,38.5,85.9,85.9,85.9h401c47.4,0,85.9-38.5,85.9-85.9V127.6
	C786.4,80.2,747.9,41.7,700.5,41.7z M500,901c-31.7,0-57.3-25.6-57.3-57.3c0-31.7,25.6-57.3,57.3-57.3s57.3,25.6,57.3,57.3
	C557.3,875.4,531.7,901,500,901z M700.5,707.7c0,11.8-9.7,21.5-21.5,21.5H321c-11.8,0-21.5-9.7-21.5-21.5V149.1
	c0-11.8,9.7-21.5,21.5-21.5h358c11.8,0,21.5,9.7,21.5,21.5V707.7z"/>
</svg>
