<svg height="1000" width="1000.0" xmlns="http://www.w3.org/2000/svg"><path d="m916.7 125h-833.4c-46 0-83.3 37.3-83.3 83.3v583.4c0 46 37.3 83.3 83.3 83.3h833.4c46 0 82.9-37.3 82.9-83.3l0.4-583.4c0-46-37.3-83.3-83.3-83.3z m-583.4 125c69 0 125 56 125 125 0 69.2-56 125-125 125s-125-55.8-125-125c0-69 56.1-125 125-125z m250 500h-500v-41.7c0-83.3 166.7-129.1 250-129.1s250 45.8 250 129.1v41.7z m160.5-166.7h68.3l62.9 83.4-83.1 83.1c-54.4-40.8-95-99-113.8-166.5-7.3-26.6-11.4-54.3-11.4-83.3s4.1-56.7 11.6-83.3c18.6-67.5 59.2-125.7 113.8-166.5l82.9 83.1-62.9 83.4h-68.3c-9.2 26-14.6 54.1-14.6 83.3s5.2 57.3 14.6 83.3z" /></svg>