<svg height="1000" width="1000.0" xmlns="http://www.w3.org/2000/svg"><path d="m833.3 250h-91c4.6-13.1 7.7-26.9 7.7-41.7 0-68.9-56-125-125-125-43.5 0-81.9 22.3-104.2 56.1l-20.8 28.3-20.8-28.3c-22.3-33.8-60.7-56.1-104.2-56.1-69 0-125 56.1-125 125 0 14.8 2.9 28.6 7.7 41.7h-91c-46.1 0-83 37.3-83 83.3l-0.4 458.4c0 46 37.3 83.3 83.4 83.3h666.6c46.1 0 83.4-37.3 83.4-83.3v-458.4c0-46-37.3-83.3-83.4-83.3z m-208.3-83.3c22.9 0 41.7 18.7 41.7 41.6s-18.8 41.7-41.7 41.7-41.7-18.7-41.7-41.7 18.8-41.6 41.7-41.6z m-250 0c22.9 0 41.7 18.7 41.7 41.6s-18.8 41.7-41.7 41.7-41.7-18.7-41.7-41.7 18.8-41.6 41.7-41.6z m458.3 625h-666.6v-83.4h666.6v83.4z m0-208.4h-666.6v-250h211.6l-86.6 118.2 67.7 48.5 140.6-191.5 41.7 56.7 98.9 134.8 67.7-48.5-86.6-118.2h211.6v250z" /></svg>