<svg height="1000" width="1000.0" xmlns="http://www.w3.org/2000/svg"><path d="m416.7 666.7h166.6c23.2 0 41.7-18.8 41.7-41.7v-125c0-22.9-18.5-41.7-41.7-41.7v-41.6c0-46.1-37.3-83.4-83.3-83.4s-83.3 37.3-83.3 83.4v41.6c-23.2 0-41.7 18.8-41.7 41.7v125c0 22.9 18.5 41.7 41.7 41.7z m33.3-250c0-27.7 22.3-50 50-50s50 22.5 50 50v41.6h-100v-41.6z m258.3-375h-416.6c-46.1 0-83.4 37.3-83.4 83.3v750c0 46 37.3 83.3 83.4 83.3h416.6c46.1 0 83.4-37.3 83.4-83.3v-750c0-46-37.3-83.3-83.4-83.3z m0 750h-416.6v-583.4h416.6v583.4z" /></svg>