<svg height="1000" width="1000.0" xmlns="http://www.w3.org/2000/svg"><path d="m875 208.3h-750c-46 0-83.3 37.3-83.3 83.4v416.6c0 46.1 37.3 83.4 83.3 83.4h750c46 0 83.3-37.3 83.3-83.4v-416.6c0-46.1-37.3-83.4-83.3-83.4z m-83.3 500h-583.4v-416.6h583.4v416.6z m-375-41.6h166.6c23.2 0 41.7-18.8 41.7-41.7v-125c0-22.9-18.5-41.7-41.7-41.7v-41.6c0-46.1-37.3-83.4-83.3-83.4s-83.3 37.3-83.3 83.4v41.6c-23.2 0-41.7 18.8-41.7 41.7v125c0 22.9 18.5 41.7 41.7 41.7z m33.3-250c0-27.7 22.3-50 50-50s50 22.5 50 50v41.6h-100v-41.6z" /></svg>