<svg height="1000" width="1000.0" xmlns="http://www.w3.org/2000/svg"><path d="m500 291.7c115 0 208.3 93.3 208.3 208.3 0 26.9-5.4 52.5-14.8 76l121.9 121.9c62.9-52.5 112.5-120.4 143.1-197.9-72.3-182.9-250-312.5-458.5-312.5-58.3 0-114.2 10.4-166 29.2l90 89.8c23.5-9.2 49.1-14.8 76-14.8z m-416.7-113.6l114 114c-68.8 53.7-123.1 125.2-155.6 207.9 72 182.9 250 312.5 458.3 312.5 64.6 0 126.2-12.5 182.7-35.2l17.7 17.7 121.5 121.7 53.1-52.9-738.5-738.8-53.2 53.1z m230.5 230.2l64.3 64.4c-1.8 9-3.1 17.9-3.1 27.3 0 69 56 125 125 125 9.4 0 18.3-1.2 27.1-3.1l64.4 64.4c-27.7 13.7-58.6 22-91.5 22-115 0-208.3-93.3-208.3-208.3 0-32.9 8.3-63.7 22.1-91.7z m179.3-32.7l131.3 131.3 0.6-6.9c0-69-56-125-125-125l-6.9 0.6z" /></svg>