<?xml version="1.0" encoding="utf-8"?>
<!-- Generator: Adobe Illustrator 24.3.0, SVG Export Plug-In . SVG Version: 6.00 Build 0)  -->
<svg version="1.1" id="Calque_1" xmlns="http://www.w3.org/2000/svg" xmlns:xlink="http://www.w3.org/1999/xlink" x="0px" y="0px"
	 viewBox="0 0 1000 1000" style="enable-background:new 0 0 1000 1000;" xml:space="preserve">
<g>
	<g>
		<path d="M861.1,441.9v-4c0-5.5-4.4-10.2-10.2-10.2h-12.7v-22.4h32v-29.7H25v29.7h31.7v86.1H104c5.1-15.8,14-30.2,26-42.2
			c20.4-20.6,47.7-32,76.8-32c47.9,0,88.3,31.1,102.5,74.1h276.3c14.2-43.1,54.8-74.1,102.5-74.1s88.3,31.1,102.5,74.1H838v-8.4
			h12.7c5.5,0,10.2-4.4,10.2-10.2v-5.8H975v-25.1L861.1,441.9L861.1,441.9z"/>
	</g>
	<g>
		<path d="M206.8,426c-54.8,0-99.2,44.4-99.2,99.2s44.4,99.2,99.2,99.2S306,580,306,525.2S261.6,426,206.8,426z M206.8,582.6
			c-31.6,0-57.3-25.6-57.3-57.3s25.6-57.3,57.3-57.3s57.3,25.6,57.3,57.3S238.4,582.6,206.8,582.6z"/>
	</g>
	<g>
		<path d="M688.4,426c-54.8,0-99.2,44.4-99.2,99.2s44.4,99.2,99.2,99.2s99.2-44.4,99.2-99.2S743.3,426,688.4,426z M688.4,582.6
			c-31.6,0-57.3-25.6-57.3-57.3s25.6-57.3,57.3-57.3c31.6,0,57.3,25.6,57.3,57.3S720.1,582.6,688.4,582.6z"/>
	</g>
</g>
</svg>
