<?xml version="1.0" encoding="utf-8"?>
<!-- Generator: Adobe Illustrator 24.3.0, SVG Export Plug-In . SVG Version: 6.00 Build 0)  -->
<svg version="1.1" id="Calque_1" xmlns="http://www.w3.org/2000/svg" xmlns:xlink="http://www.w3.org/1999/xlink" x="0px" y="0px"
	 viewBox="0 0 500 500" style="enable-background:new 0 0 500 500;" xml:space="preserve">
<style type="text/css">
	.st0{fill:none;}
</style>
<path d="M422.7,222.8V221c0-2.5-2-4.6-4.6-4.6h-5.7v-10.1h14.4v-13.4H46v13.4h14.3v38.8h21.3c2.3-7.1,6.3-13.6,11.7-19
	c9.2-9.3,21.5-14.4,34.6-14.4c21.6,0,39.8,14,46.2,33.4h124.5c6.4-19.4,24.7-33.4,46.2-33.4s39.8,14,46.2,33.4h21.3v-3.8h5.7
	c2.5,0,4.6-2,4.6-4.6v-2.6H474v-11.3H422.7z"/>
<g>
	<path class="st0" d="M127.9,234.6C127.9,234.6,127.9,234.6,127.9,234.6C127.9,234.6,127.9,234.6,127.9,234.6L127.9,234.6z"/>
	<path class="st0" d="M113.5,281.8c-0.7-0.5-1.3-1-2-1.5C112.1,280.8,112.8,281.3,113.5,281.8z"/>
	<path class="st0" d="M115.6,283.1c-0.7-0.4-1.4-0.8-2.1-1.3C114.1,282.2,114.8,282.7,115.6,283.1z"/>
	<path class="st0" d="M133.7,235.3c0.4,0.1,0.7,0.2,1.1,0.3C134.4,235.4,134.1,235.3,133.7,235.3z"/>
	<path class="st0" d="M127.9,286.2L127.9,286.2c-1.9,0-3.7-0.2-5.5-0.6C124.2,286,126,286.2,127.9,286.2z"/>
	<path class="st0" d="M120.6,285.1c-1.7-0.5-3.4-1.2-5-2.1C117.1,283.9,118.8,284.6,120.6,285.1z"/>
	<path class="st0" d="M108.8,277.7c-0.4-0.5-0.8-1-1.2-1.5C107.9,276.8,108.4,277.3,108.8,277.7z"/>
	<path class="st0" d="M108.8,277.7c0.5,0.6,1.1,1.2,1.7,1.7C109.9,278.9,109.3,278.3,108.8,277.7z"/>
	<path d="M127.9,215.7c-24.6,0-44.7,20.1-44.7,44.7c0,24.6,20.1,44.7,44.7,44.7s44.7-20.1,44.7-44.7
		C172.6,235.8,152.5,215.7,127.9,215.7z M127.9,286.2L127.9,286.2L127.9,286.2c-1.9,0-3.7-0.2-5.5-0.6c-0.6-0.1-1.2-0.3-1.8-0.5
		c-1.7-0.5-3.4-1.2-5-2.1c-0.7-0.4-1.4-0.8-2.1-1.3s-1.3-1-2-1.5c-0.3-0.3-0.7-0.6-1-0.8c-0.6-0.5-1.2-1.1-1.7-1.7
		c-0.4-0.5-0.8-1-1.2-1.5c-0.4-0.5-0.7-0.9-1.1-1.4c-0.5-0.7-0.9-1.4-1.3-2.1s-0.8-1.5-1.1-2.3c-0.3-0.8-0.6-1.6-0.9-2.4
		c-0.3-0.8-0.5-1.6-0.6-2.5c-0.3-1.7-0.5-3.4-0.5-5.2c-0.1-14.3,11.5-25.8,25.8-25.8c0,0,0,0,0,0h0h0c2,0,3.9,0.2,5.8,0.7
		c0.4,0.1,0.7,0.2,1.1,0.3c10.9,3,18.9,13,18.9,24.9C153.7,274.7,142.1,286.2,127.9,286.2z"/>
	<path d="M111.5,280.3c-0.3-0.3-0.7-0.6-1-0.8C110.8,279.7,111.1,280,111.5,280.3z"/>
	<path d="M134.8,235.5c10.9,3,18.9,13,18.9,24.9c0,14.3-11.6,25.8-25.8,25.8h0c14.2,0,25.8-11.5,25.8-25.8
		C153.7,248.6,145.7,238.5,134.8,235.5z"/>
	<path d="M122.4,285.6c-0.6-0.1-1.2-0.3-1.8-0.5C121.2,285.3,121.8,285.5,122.4,285.6z"/>
	<path d="M106.5,274.8c-0.5-0.7-0.9-1.4-1.3-2.1C105.6,273.4,106,274.1,106.5,274.8z"/>
	<path d="M103.3,268.1c-0.3-0.8-0.5-1.6-0.6-2.5C102.8,266.4,103,267.2,103.3,268.1z"/>
	<path d="M104.1,270.4c-0.3-0.8-0.6-1.6-0.9-2.4C103.5,268.9,103.8,269.7,104.1,270.4z"/>
	<path d="M107.5,276.2c-0.4-0.5-0.7-0.9-1.1-1.4C106.8,275.3,107.2,275.8,107.5,276.2z"/>
	<path d="M127.9,234.6c-14.3,0-25.9,11.5-25.8,25.8C102.1,246.2,113.6,234.6,127.9,234.6z"/>
	<path d="M127.9,234.6L127.9,234.6c2,0,3.9,0.2,5.8,0.7C131.8,234.8,129.9,234.6,127.9,234.6z"/>
	<path d="M105.2,272.7c-0.4-0.7-0.8-1.5-1.1-2.3C104.4,271.2,104.8,271.9,105.2,272.7z"/>
</g>
<g>
	<path class="st0" d="M350.1,235.1c0.7,0.2,1.5,0.3,2.2,0.6C351.6,235.5,350.9,235.3,350.1,235.1z"/>
	<path class="st0" d="M362.1,241.2c0.1,0,0.1,0.1,0.2,0.1C362.3,241.3,362.2,241.3,362.1,241.2z"/>
	<path d="M344.9,215.7c-24.6,0-44.7,20.1-44.7,44.7c0,24.6,20.1,44.7,44.7,44.7s44.7-20.1,44.7-44.7
		C389.6,235.8,369.5,215.7,344.9,215.7z M369.9,266.9c-1.1,4.1-3.1,7.9-5.9,10.9c-0.6,0.6-1.1,1.2-1.8,1.7c-0.6,0.6-1.2,1.1-1.9,1.6
		c-0.7,0.5-1.3,1-2.1,1.4c-0.7,0.4-1.4,0.8-2.2,1.2c-3.4,1.6-7.2,2.5-11.2,2.5c-1.8,0-3.5-0.2-5.2-0.5c-1.7-0.3-3.3-0.9-4.8-1.5
		c-1.2-0.5-2.3-1.1-3.3-1.7c-2.5-1.5-4.7-3.4-6.5-5.7c-3.7-4.5-5.9-10.2-5.9-16.4c0-14.3,11.5-25.8,25.8-25.8c1.8,0,3.5,0.2,5.2,0.5
		c0.7,0.2,1.5,0.3,2.2,0.6c0.9,0.3,1.8,0.6,2.6,0.9c1.2,0.5,2.3,1.1,3.3,1.7c1.4,0.8,2.7,1.8,3.8,2.9c0.1,0,0.1,0.1,0.2,0.1
		c0.9,0.8,1.7,1.7,2.5,2.7c3.7,4.5,5.9,10.2,5.9,16.4C370.7,262.6,370.4,264.8,369.9,266.9z"/>
	<path d="M334.8,284.2c-1.2-0.5-2.3-1.1-3.3-1.7C332.6,283.1,333.7,283.7,334.8,284.2z"/>
	<path d="M339.7,285.7c-1.7-0.3-3.3-0.9-4.8-1.5C336.4,284.8,338,285.3,339.7,285.7z"/>
	<path d="M362.2,279.5c-0.6,0.6-1.2,1.1-1.9,1.6C361,280.6,361.6,280.1,362.2,279.5z"/>
	<path d="M358.3,282.5c-0.7,0.4-1.4,0.8-2.2,1.2C356.8,283.3,357.5,282.9,358.3,282.5z"/>
	<path d="M360.3,281.1c-0.7,0.5-1.3,1-2.1,1.4C359,282,359.7,281.6,360.3,281.1z"/>
	<path d="M369.9,266.9c-1.1,4.1-3.1,7.9-5.9,10.9C366.8,274.7,368.8,271,369.9,266.9z"/>
	<path d="M325,276.8c1.8,2.2,4,4.2,6.5,5.7C329,280.9,326.8,279,325,276.8z"/>
	<path d="M370.7,260.4c0,2.2-0.3,4.4-0.8,6.5C370.4,264.8,370.7,262.6,370.7,260.4c0-6.2-2.2-11.9-5.9-16.4
		C368.5,248.5,370.7,254.2,370.7,260.4z"/>
	<path d="M344.9,234.6c-14.3,0-25.8,11.5-25.8,25.8c0,6.2,2.2,11.9,5.9,16.4c-3.7-4.5-5.9-10.2-5.9-16.4
		C319.1,246.2,330.6,234.6,344.9,234.6z"/>
	<path d="M355,236.6c1.2,0.5,2.3,1.1,3.3,1.7C357.2,237.7,356.1,237.1,355,236.6z"/>
	<path d="M364.8,244c-0.8-0.9-1.6-1.8-2.5-2.7C363.2,242.2,364,243.1,364.8,244z"/>
	<path d="M352.3,235.7c0.9,0.3,1.8,0.6,2.6,0.9C354.1,236.3,353.2,236,352.3,235.7z"/>
	<path d="M358.3,238.3c1.4,0.8,2.7,1.8,3.8,2.9C361,240.1,359.7,239.2,358.3,238.3z"/>
</g>
</svg>
