<?xml version="1.0" encoding="utf-8"?>
<!-- Generator: Adobe Illustrator 24.3.0, SVG Export Plug-In . SVG Version: 6.00 Build 0)  -->
<svg version="1.1" id="Calque_1" xmlns="http://www.w3.org/2000/svg" xmlns:xlink="http://www.w3.org/1999/xlink" x="0px" y="0px"
	 viewBox="0 0 1000 1000" style="enable-background:new 0 0 1000 1000;" xml:space="preserve">
<path d="M959.1,708.4l-181.2-110c-0.4,0-1.2-0.4-1.6,0c-0.4,0.4-0.8,0.8-0.8,1.2l-3.4,14.8l-90-62.6v-91.2c0,0,0,0,0-0.2l58.2-179.2
	h21.6c0.8,0,1.6-0.8,1.6-1.6V257c0-0.8-0.8-1.6-1.6-1.6H535.7c-0.4,0-0.8,0.4-1.2,0.8l-16.2,21.4H389.7c-0.4,0-0.8,0.4-1.2,0.8
	l-54.2,70.8c-0.4,0.4-0.4,0.8-0.4,1.2v20.4h-79.2v-0.2h-157l-58,54.2l31.2,18l33-36h44c-6,10.4-9.4,22.6-9.4,35.6v127.2
	c-0.2,0.4-0.2,1,0.2,1.2l27.8,42.8c-0.7,0.9-1.4,1.7-2,2.6c-1.4,1.9-2.8,4-4.1,6c0,0,0,0.1-0.1,0.1c-0.6,1.1-1.3,2.1-1.9,3.2
	c0,0-0.1,0.1-0.1,0.1c-0.6,1.1-1.2,2.2-1.7,3.3c0,0,0,0.1-0.1,0.1c-2.3,4.7-4.1,9.6-5.4,14.7c0,0,0,0,0,0.1
	c-0.3,1.2-0.6,2.4-0.8,3.6c-0.1,0.3-0.1,0.6-0.2,0.8c-0.2,0.9-0.4,1.9-0.5,2.8c-0.1,0.4-0.1,0.8-0.2,1.2c-0.1,0.9-0.2,1.8-0.3,2.6
	c0,0.4-0.1,0.8-0.1,1.3c-0.1,0.9-0.2,1.8-0.2,2.7c0,0.4-0.1,0.8-0.1,1.2c-0.1,1.3-0.1,2.6-0.1,3.9c0,44.4,36.2,80.6,80.6,80.6
	s80.6-36.2,80.6-80.6c0-1.1,0-2.1-0.1-3.2c-0.1-1.9-0.2-3.8-0.4-5.6c-0.1-1-0.2-2-0.3-3h172.6c0.9,51.1,42.7,92.2,94,92.4
	c0,0,0.1,0,0.1,0c0,0,0.1,0,0.1,0c51.8,0,94-42.2,94-94c0-15.2-3.6-29.6-10-42.2l20.8-17l84,57.2l-13.8,60.8
	c-0.4,0.4-0.4,0.4-0.4,0.8c0,1.4,0.8,2.2,2,1.8h206.2c0.8,0,1.2-0.4,1.6-1.2C960.1,709.8,960.1,709,959.1,708.4z M229.3,701
	c-20.6,0-37-16.4-37-37c0-20.4,16.8-37,37-37c20.6,0,37,16.4,37,37S249.9,701,229.3,701z M532.7,292.8h65.6v151.8h-65.6V292.8z
	 M528.7,650.6c0-26,21-47.2,47.2-47.2c26,0,47.2,21,47.2,47.2c0,26-21,47.2-47.2,47.2C549.9,698,528.7,676.4,528.7,650.6z
	 M667.5,444.6h-49.8V292.8h99.8L667.5,444.6z"/>
</svg>
