<?xml version="1.0" encoding="utf-8"?>
<!-- Generator: Adobe Illustrator 24.3.0, SVG Export Plug-In . SVG Version: 6.00 Build 0)  -->
<svg version="1.1" id="Calque_1" xmlns="http://www.w3.org/2000/svg" xmlns:xlink="http://www.w3.org/1999/xlink" x="0px" y="0px"
	 viewBox="0 0 1000 1000" style="enable-background:new 0 0 1000 1000;" xml:space="preserve">
<style type="text/css">
	.st0{fill:none;}
</style>
<path d="M105.7,796c0,20.3,16.6,36.8,36.8,36.8s36.8-16.6,36.8-36.8s-16.4-36.8-36.8-36.8C122.3,759.2,105.7,775.8,105.7,796z
	 M123.2,796c0-10.6,8.7-19.3,19.3-19.3c10.6,0,19.3,8.7,19.3,19.3s-8.7,19.3-19.3,19.3C131.9,815.4,123.2,806.7,123.2,796z"/>
<path d="M372.5,757.2c0,41.6,34,75.6,75.6,75.6s75.6-34,75.6-75.6c0-41.6-33.6-75.6-75.6-75.6C406.5,681.6,372.5,715.7,372.5,757.2z
	 M408.4,757.2c0-21.8,17.9-39.7,39.7-39.7s39.7,17.9,39.7,39.7c0,21.8-17.9,39.7-39.7,39.7S408.4,779.1,408.4,757.2z"/>
<g>
	<polygon class="st0" points="490.7,346 490.7,426.8 571.6,346 	"/>
	<polygon class="st0" points="490.7,460.6 490.7,494.2 639,346 605.4,346 	"/>
	<path d="M881.5,253.9l-83.6-83.6c-2.3-2.2-5.3-3.4-8.5-3.5h-227c-3.2,0-6.2,1.3-8.5,3.5l-83.6,83.6c-2.2,2.3-3.5,5.3-3.5,8.5v59.7
		H193.4c-0.9,0-1.9,0.1-2.7,0.4c-1.9,0.4-3.6,1.3-5,2.5c-0.6,0.5-1.2,1.1-1.7,1.8c-0.1,0.2-0.4,0.4-0.5,0.6l-83.2,106.9
		c-1.7,2.1-2.5,4.6-2.5,7.3v155.3H61.9c-6.6,0-11.9,5.3-11.9,11.9v71.7c0,6.6,5.3,11.9,11.9,11.9v83.6c0,6.6,5.3,11.9,11.9,11.9
		l25.2,0c3.8-20.5,21.9-36.2,43.4-36.2c21.8,0,39.7,15.7,43.4,36.2l176.9,0c-3.5-9.6-5.4-20-5.4-30.8c0-49.9,40.8-90.7,90.7-90.7
		c50.4,0,90.7,40.8,90.7,90.7c0,10.8-1.9,21.1-5.4,30.8l52.9,0c4.5,0,8.5-2.5,10.6-6.5c2-3.9,1.7-8.7-0.8-12.3L490.7,617.1V528
		l182-182H873c6.6,0,11.9-5.3,11.9-11.9v-71.7C885,259.2,883.7,256.1,881.5,253.9z M490.7,346h80.8l-80.8,80.8V346z M490.7,494.2
		v-33.6L605.4,346H639L490.7,494.2z"/>
</g>
<path d="M658.1,618.1c0,0-2.3,16.5,0,24.4c2.5,8.8,4.8,14.7,4.9,23.7c0.1,9.4-4.9,15.6-4.9,25c0.2,8.9,4.7,14.2,4.9,23.1
	c0.2,9.6-5.1,16-4.9,25.5c0.3,8.7,4.6,13.9,4.9,22.6c0.4,9.7-2.4,16.6-4.9,26.1c-2.1,7.9,0,24.4,0,24.4s24.7-7.1,38.8-6.8
	c12.6,0.4,21.1,6.4,33.7,6.8c14.2,0.4,24.9-7.1,39.1-6.8c12.5,0.4,20.8,6.4,33.3,6.8c14.3,0.4,25.1-7.2,39.4-6.8
	c12.4,0.4,20.6,6.7,33.1,6.8c13,0.1,21.9-6.6,34.9-6.8c13.8-0.2,37.6,6.8,37.6,6.8s2.9-16.6,0-24.4c-3.2-8.6-8-12.7-8.5-21.7
	c-0.6-10.5,9.2-16.5,8.5-27c-0.6-8.9-7.8-12.3-8.5-21.2c-0.7-10.7,8.7-16.8,8.5-27.5c-0.3-9.9-8.6-15-8.5-25
	c0.1-9.6,5.3-14.6,8.5-23.7c2.7-7.8,0-24.4,0-24.4s-20.8,4-32.7,4.4c-14.1,0.5-25.7-4.7-39.8-4.4c-12,0.4-21,4-33.1,4.4
	c-14,0.4-25.4-4.7-39.4-4.4c-12.1,0.3-21.2,4-33.3,4.4c-13.9,0.4-25.2-4.7-39.1-4.4c-12.2,0.3-21.5,4.1-33.7,4.4
	C683.1,622.7,658.1,618.1,658.1,618.1L658.1,618.1z M769.7,648.3c3.3,0,6.4,1.3,8.8,3.6l18,18c4.7,4.8,4.7,12.5-0.1,17.3
	c-4.8,4.7-12.4,4.7-17.2,0l-18-18c-4.8-4.7-4.9-12.4-0.2-17.2c2-2.1,4.7-3.3,7.6-3.6C769,648.3,769.4,648.3,769.7,648.3L769.7,648.3
	z M889,650.4c6.7,0,12.2,5.5,12.2,12.2l0,0c0,6.7-5.5,12.2-12.2,12.2c0,0,0,0,0,0c-6.7,0-12.2-5.5-12.2-12.2l0,0
	C876.9,655.9,882.3,650.4,889,650.4C889,650.4,889,650.4,889,650.4z M848.2,690.9c6.7-0.1,12.3,5.3,12.4,12c0.1,3.4-1.3,6.7-3.9,9.1
	l-11.8,11.8c-4.8,4.7-12.5,4.7-17.3-0.1c-4.7-4.8-4.7-12.4,0-17.2l11.8-11.8c2.2-2.3,5.3-3.7,8.5-3.8
	C848,691,848.1,690.9,848.2,690.9L848.2,690.9z M724.6,702.5c6.7-0.1,12.3,5.2,12.4,11.9c0.1,3.3-1.2,6.5-3.6,8.9l-11.8,12
	c-4.8,4.8-12.5,4.8-17.3,0c-4.8-4.8-4.8-12.5,0-17.3l0,0l11.8-11.8C718.4,704,721.4,702.6,724.6,702.5L724.6,702.5z M769.8,733.3
	c3.3,0,6.5,1.3,8.8,3.7l12,12c5.2,4.3,5.8,12,1.5,17.2c-4.3,5.2-12,5.8-17.2,1.5c-0.6-0.5-1.1-1-1.6-1.6l-11.9-11.8
	c-4.8-4.7-4.9-12.4-0.2-17.2c2-2,4.6-3.3,7.4-3.6C769,733.4,769.4,733.3,769.8,733.3L769.8,733.3z M866.5,751.9
	c3.3,0,6.4,1.4,8.7,3.8l5.9,5.8c5,4.5,5.3,12.3,0.8,17.2c-4.5,5-12.3,5.3-17.2,0.8c-0.3-0.2-0.5-0.5-0.7-0.7l-5.9-5.9
	c-4.8-4.7-4.9-12.4-0.2-17.2c2-2.1,4.7-3.3,7.6-3.6C865.8,751.9,866.2,751.9,866.5,751.9L866.5,751.9z"/>
</svg>
