<?xml version="1.0" encoding="utf-8"?>
<!-- Generator: Adobe Illustrator 24.3.0, SVG Export Plug-In . SVG Version: 6.00 Build 0)  -->
<svg version="1.1" id="Calque_1" xmlns="http://www.w3.org/2000/svg" xmlns:xlink="http://www.w3.org/1999/xlink" x="0px" y="0px"
	 viewBox="0 0 500 500" style="enable-background:new 0 0 500 500;" xml:space="preserve">
<style type="text/css">
	.st0{fill:none;}
</style>
<g>
	<rect x="100" y="214" class="st0" width="300" height="21.5"/>
	<g>
		<polygon points="249.6,90 250,90.9 250.4,90 		"/>
		<polygon points="249.6,90 250,90.9 250.4,90 		"/>
	</g>
	<path d="M432,214v-19H307.9l-48-105h1.4V77.1h-22.7V90h1.4l-48,105H68v19h20v21.5l-20,29v118h28.5v-35.9h3v35.9h30.7v-35.9h3v35.9
		h8.8v-39c0-12.4,10.1-22.5,22.5-22.5c12.4,0,22.5,10.1,22.5,22.5v39h10.6v-35.9h3v35.9h30.6v-35.9h3v35.9h30.7v-35.9h3v35.9h30.7
		v-35.9h3v35.9H313v-39c0-12.4,10.1-22.5,22.5-22.5c12.4,0,22.5,10.1,22.5,22.5v39h8v-35.9h3v35.9h30.7v-35.9h3v35.9H432v-118
		l-20-29V214H432z M250,90.9l-0.4-0.9h0.8L250,90.9L297.5,195h-95.2L250,90.9z M400,235.5H100V214h300V235.5z"/>
	<path d="M335.5,327c-9.1,0-16.5,7.4-16.5,16.5v60c0,9.1,7.4,16.5,16.5,16.5c9.1,0,16.5-7.4,16.5-16.5v-60
		C352,334.4,344.6,327,335.5,327z"/>
	<path d="M164.5,327c-9.1,0-16.5,7.4-16.5,16.5v60c0,9.1,7.4,16.5,16.5,16.5c9.1,0,16.5-7.4,16.5-16.5v-60
		C181,334.4,173.6,327,164.5,327z"/>
</g>
</svg>
