<?xml version="1.0" encoding="utf-8"?>
<!-- Generator: Adobe Illustrator 22.1.0, SVG Export Plug-In . SVG Version: 6.00 Build 0)  -->
<svg version="1.1" id="Calque_1" xmlns="http://www.w3.org/2000/svg" xmlns:xlink="http://www.w3.org/1999/xlink" x="0px" y="0px"
	 viewBox="0 0 500 500" style="enable-background:new 0 0 500 500;" xml:space="preserve">
<path d="M478.8001404,354.8000488l-90.6000977-55c-0.1999512,0-0.5999756-0.2000122-0.8000488,0
	c-0.1999512,0.2000122-0.3999023,0.3999634-0.3999023,0.5999756l-1.6999512,7.4000244l-45-31.2999878v-45.6000366
	c0,0,0,0,0-0.0999756l29.0998535-89.6000366h10.8000488c0.4000244,0,0.8000488-0.3999634,0.8000488-0.7999878v-11.2999878
	c0-0.4000244-0.4000244-0.7999878-0.8000488-0.7999878H267.1000671c-0.2000122,0-0.4000244,0.1999512-0.6000366,0.3999634
	l-8.0999756,10.7000122h-64.3000488c-0.1999512,0-0.3999634,0.2000122-0.5999756,0.3999634l-27.1000366,35.4000244
	c-0.1999512,0.2000122-0.1999512,0.3999634-0.1999512,0.5999756V186h-39.6000366v-0.0999756h-78.499939l-29,27.0999756l15.5999756,9
	l16.5-18h22c-3,5.2000122-4.7000122,11.3000488-4.7000122,17.8000488v63.5999756
	c-0.0999756,0.2000122-0.0999756,0.5,0.1000366,0.5999756l13.8990479,21.3985596
	c-0.3439941,0.4275513-0.6826172,0.859375-1.0092773,1.3009033c-0.723877,0.9715576-1.4001465,1.9794922-2.0337524,3.0158691
	c-0.0106812,0.0174561-0.0206909,0.0354004-0.031311,0.0528564c-0.3230591,0.5321045-0.6343384,1.0720215-0.9331055,1.619751
	c-0.0135498,0.0247803-0.0265503,0.0498657-0.0400391,0.074646c-0.2966309,0.5466309-0.5813599,1.1004639-0.8530273,1.6618042
	c-0.0091553,0.0189819-0.0183716,0.0379639-0.0275269,0.0569458c-1.128479,2.3391724-2.0375977,4.8006592-2.6970825,7.3603516
	c-0.0025024,0.0097656-0.0046387,0.0196533-0.0071411,0.0294189c-0.1514893,0.5881958-0.2872925,1.1824951-0.4125366,1.7805786
	c-0.0290527,0.1395264-0.0552368,0.2800903-0.0828857,0.420166c-0.0935059,0.4718628-0.1787109,0.9467773-0.2554932,1.4243164
	c-0.0307007,0.1915894-0.0600586,0.383667-0.0880127,0.5761108c-0.0637207,0.4369507-0.1187744,0.8765869-0.1682739,1.3179321
	c-0.0234985,0.2103271-0.0484009,0.420166-0.0686646,0.6314087c-0.0432739,0.4498291-0.0754395,0.902832-0.1036987,1.3568115
	c-0.0120239,0.1940308-0.0286255,0.3869629-0.0379028,0.5817261c-0.0307007,0.6431274-0.0493164,1.2893677-0.0493164,1.9398804
	c0,22.2000122,18.0999756,40.2999878,40.2999878,40.2999878s40.2999878-18.1000366,40.2999878-40.2999878
	c0-0.5394287-0.0197144-1.0744629-0.0410767-1.6090088c-0.0440063-0.9420166-0.1194458-1.8781128-0.2075806-2.7975464
	c-0.0482788-0.5032349-0.0995483-1.0018921-0.1513062-1.4934692h86.3203125
	c0.4309082,25.529541,21.3479614,46.1010742,46.9796753,46.2000122c0.0178223,0,0.0354004-0.0013428,0.0532227-0.0013428
	c0.015686,0.000061,0.0310669,0.0012817,0.0467529,0.0013428c25.9000244,0,47-21.0999756,47-47
	c0-7.5999756-1.8000488-14.7999878-5-21.0999756l10.4000244-8.5l42,28.5999756l-6.9000244,30.4000244
	c-0.1999512,0.2000122-0.1999512,0.2000122-0.1999512,0.3999634c0,0.7000122,0.3999023,1.1000366,1,0.9000244h103.0999756
	c0.4000244,0,0.5999756-0.2000122,0.7999268-0.6000366C479.3001404,355.5,479.3001404,355.1000366,478.8001404,354.8000488z
	 M113.9000549,351.1000366c-10.2999878,0-18.5-8.2000122-18.5-18.5c0-10.2000122,8.3999634-18.5,18.5-18.5
	c10.2999878,0,18.5,8.2000122,18.5,18.5S124.2000427,351.1000366,113.9000549,351.1000366z M265.6000671,147h32.7999268v75.9000244
	h-32.7999268V147z M263.6000671,325.9000244c0-13,10.5-23.6000366,23.5999756-23.6000366
	c13,0,23.6000977,10.5,23.6000977,23.6000366c0,13-10.5,23.5999756-23.6000977,23.5999756
	C274.2000427,349.6000366,263.6000671,338.8000488,263.6000671,325.9000244z M333.0000916,222.9000244h-24.9000244V147h49.9000244
	L333.0000916,222.9000244z"/>
</svg>
