<?xml version="1.0" encoding="utf-8"?>
<!-- Generator: Adobe Illustrator 24.3.0, SVG Export Plug-In . SVG Version: 6.00 Build 0)  -->
<svg version="1.1" id="Calque_1" xmlns="http://www.w3.org/2000/svg" xmlns:xlink="http://www.w3.org/1999/xlink" x="0px" y="0px"
	 viewBox="0 0 1000 1000" style="enable-background:new 0 0 1000 1000;" xml:space="preserve">
<style type="text/css">
	.st0{fill:none;}
</style>
<g>
	<path d="M825.4,447.6V444c0-5-4-9.2-9.2-9.2h-11.4v-20.2h28.8v-26.8H72v26.8h28.6v77.6h42.6c4.6-14.2,12.6-27.2,23.4-38
		c18.4-18.6,43-28.8,69.2-28.8c43.2,0,79.6,28,92.4,66.8h249c12.8-38.8,49.4-66.8,92.4-66.8s79.6,28,92.4,66.8h42.6v-7.6H816
		c5,0,9.2-4,9.2-9.2v-5.2H928v-22.6L825.4,447.6L825.4,447.6z"/>
	<g>
		<path class="st0" d="M235.8,471.2L235.8,471.2L235.8,471.2L235.8,471.2z"/>
		<path class="st0" d="M207,565.6c-1.4-1-2.6-2-4-3C204.2,563.6,205.6,564.6,207,565.6z"/>
		<path class="st0" d="M211.2,568.2c-1.4-0.8-2.8-1.6-4.2-2.6C208.2,566.4,209.6,567.4,211.2,568.2z"/>
		<path class="st0" d="M247.4,472.6c0.8,0.2,1.4,0.4,2.2,0.6C248.8,472.8,248.2,472.6,247.4,472.6z"/>
		<path class="st0" d="M235.8,574.4L235.8,574.4c-3.8,0-7.4-0.4-11-1.2C228.4,574,232,574.4,235.8,574.4z"/>
		<path class="st0" d="M221.2,572.2c-3.4-1-6.8-2.4-10-4.2C214.2,569.8,217.6,571.2,221.2,572.2z"/>
		<path class="st0" d="M197.6,557.4c-0.8-1-1.6-2-2.4-3C195.8,555.6,196.8,556.6,197.6,557.4z"/>
		<path class="st0" d="M197.6,557.4c1,1.2,2.2,2.4,3.4,3.4C199.8,559.8,198.6,558.6,197.6,557.4z"/>
		<path d="M235.8,433.4c-49.2,0-89.4,40.2-89.4,89.4s40.2,89.4,89.4,89.4s89.4-40.2,89.4-89.4C325.2,473.6,285,433.4,235.8,433.4z
			 M235.8,574.4L235.8,574.4L235.8,574.4c-3.8,0-7.4-0.4-11-1.2c-1.2-0.2-2.4-0.6-3.6-1c-3.4-1-6.8-2.4-10-4.2
			c-1.4-0.8-2.8-1.6-4.2-2.6s-2.6-2-4-3c-0.6-0.6-1.4-1.2-2-1.6c-1.2-1-2.4-2.2-3.4-3.4c-0.8-1-1.6-2-2.4-3c-0.8-1-1.4-1.8-2.2-2.8
			c-1-1.4-1.8-2.8-2.6-4.2s-1.6-3-2.2-4.6c-0.6-1.6-1.2-3.2-1.8-4.8s-1-3.2-1.2-5c-0.6-3.4-1-6.8-1-10.4
			c-0.2-28.6,23-51.6,51.6-51.6l0,0l0,0l0,0c4,0,7.8,0.4,11.6,1.4c0.8,0.2,1.4,0.4,2.2,0.6c21.8,6,37.8,26,37.8,49.8
			C287.4,551.4,264.2,574.4,235.8,574.4z"/>
		<path d="M203,562.6c-0.6-0.6-1.4-1.2-2-1.6C201.6,561.4,202.2,562,203,562.6z"/>
		<path d="M249.6,473c21.8,6,37.8,26,37.8,49.8c0,28.6-23.2,51.6-51.6,51.6l0,0c28.4,0,51.6-23,51.6-51.6
			C287.4,499.2,271.4,479,249.6,473z"/>
		<path d="M224.8,573.2c-1.2-0.2-2.4-0.6-3.6-1C222.4,572.6,223.6,573,224.8,573.2z"/>
		<path d="M193,551.6c-1-1.4-1.8-2.8-2.6-4.2C191.2,548.8,192,550.2,193,551.6z"/>
		<path d="M186.6,538.2c-0.6-1.6-1-3.2-1.2-5C185.6,534.8,186,536.4,186.6,538.2z"/>
		<path d="M188.2,542.8c-0.6-1.6-1.2-3.2-1.8-4.8C187,539.8,187.6,541.4,188.2,542.8z"/>
		<path d="M195,554.4c-0.8-1-1.4-1.8-2.2-2.8C193.6,552.6,194.4,553.6,195,554.4z"/>
		<path d="M235.8,471.2c-28.6,0-51.8,23-51.6,51.6C184.2,494.4,207.2,471.2,235.8,471.2z"/>
		<path d="M235.8,471.2L235.8,471.2c4,0,7.8,0.4,11.6,1.4C243.6,471.6,239.8,471.2,235.8,471.2z"/>
		<path d="M190.4,547.4c-0.8-1.4-1.6-3-2.2-4.6C188.8,544.4,189.6,545.8,190.4,547.4z"/>
	</g>
	<g>
		<path class="st0" d="M680.2,472.2c1.4,0.4,3,0.6,4.4,1.2C683.2,473,681.8,472.6,680.2,472.2z"/>
		<path class="st0" d="M704.2,484.4c0.2,0,0.2,0.2,0.4,0.2C704.6,484.6,704.4,484.6,704.2,484.4z"/>
		<path d="M669.8,433.4c-49.2,0-89.4,40.2-89.4,89.4s40.2,89.4,89.4,89.4s89.4-40.2,89.4-89.4S719,433.4,669.8,433.4z M719.8,535.8
			c-2.2,8.2-6.2,15.8-11.8,21.8c-1.2,1.2-2.2,2.4-3.6,3.4c-1.2,1.2-2.4,2.2-3.8,3.2c-1.4,1-2.6,2-4.2,2.8c-1.4,0.8-2.8,1.6-4.4,2.4
			c-6.8,3.2-14.4,5-22.4,5c-3.6,0-7-0.4-10.4-1s-6.6-1.8-9.6-3c-2.4-1-4.6-2.2-6.6-3.4c-5-3-9.4-6.8-13-11.4
			c-7.4-9-11.8-20.4-11.8-32.8c0-28.6,23-51.6,51.6-51.6c3.6,0,7,0.4,10.4,1c1.4,0.4,3,0.6,4.4,1.2c1.8,0.6,3.6,1.2,5.2,1.8
			c2.4,1,4.6,2.2,6.6,3.4c2.8,1.6,5.4,3.6,7.6,5.8c0.2,0,0.2,0.2,0.4,0.2c1.8,1.6,3.4,3.4,5,5.4c7.4,9,11.8,20.4,11.8,32.8
			C721.4,527.2,720.8,531.6,719.8,535.8z"/>
		<path d="M649.6,570.4c-2.4-1-4.6-2.2-6.6-3.4C645.2,568.2,647.4,569.4,649.6,570.4z"/>
		<path d="M659.4,573.4c-3.4-0.6-6.6-1.8-9.6-3C652.8,571.6,656,572.6,659.4,573.4z"/>
		<path d="M704.4,561c-1.2,1.2-2.4,2.2-3.8,3.2C702,563.2,703.2,562.2,704.4,561z"/>
		<path d="M696.6,567c-1.4,0.8-2.8,1.6-4.4,2.4C693.6,568.6,695,567.8,696.6,567z"/>
		<path d="M700.6,564.2c-1.4,1-2.6,2-4.2,2.8C698,566,699.4,565.2,700.6,564.2z"/>
		<path d="M719.8,535.8c-2.2,8.2-6.2,15.8-11.8,21.8C713.6,551.4,717.6,544,719.8,535.8z"/>
		<path d="M630,555.6c3.6,4.4,8,8.4,13,11.4C638,563.8,633.6,560,630,555.6z"/>
		<path d="M721.4,522.8c0,4.4-0.6,8.8-1.6,13C720.8,531.6,721.4,527.2,721.4,522.8c0-12.4-4.4-23.8-11.8-32.8
			C717,499,721.4,510.4,721.4,522.8z"/>
		<path d="M669.8,471.2c-28.6,0-51.6,23-51.6,51.6c0,12.4,4.4,23.8,11.8,32.8c-7.4-9-11.8-20.4-11.8-32.8
			C618.2,494.4,641.2,471.2,669.8,471.2z"/>
		<path d="M690,475.2c2.4,1,4.6,2.2,6.6,3.4C694.4,477.4,692.2,476.2,690,475.2z"/>
		<path d="M709.6,490c-1.6-1.8-3.2-3.6-5-5.4C706.4,486.4,708,488.2,709.6,490z"/>
		<path d="M684.6,473.4c1.8,0.6,3.6,1.2,5.2,1.8C688.2,474.6,686.4,474,684.6,473.4z"/>
		<path d="M696.6,478.6c2.8,1.6,5.4,3.6,7.6,5.8C702,482.2,699.4,480.4,696.6,478.6z"/>
	</g>
</g>
</svg>
