<?xml version="1.0" encoding="utf-8"?>
<!-- Generator: Adobe Illustrator 24.3.0, SVG Export Plug-In . SVG Version: 6.00 Build 0)  -->
<svg version="1.1" id="Calque_1" xmlns="http://www.w3.org/2000/svg" xmlns:xlink="http://www.w3.org/1999/xlink" x="0px" y="0px"
	 viewBox="0 0 1000 1000" style="enable-background:new 0 0 1000 1000;" xml:space="preserve">
<style type="text/css">
	.st0{fill:none;}
</style>
<g>
	<g>
		<path class="st0" d="M840.9,455.5c1.5,0.6,3,1.3,4.4,2c-5.4-7.1-13.7-12.3-26.8-14.4c-15.7-2.4-41,6.3-69.1,17.6
			C786.3,450.3,822.6,447.8,840.9,455.5z"/>
		<polygon class="st0" points="550.7,355.5 615.5,355.5 623.5,204.1 550.5,204.1 		"/>
		<path class="st0" d="M514.5,355.5h14.6V204.1c0,0-20.4,0-20.2,0L514.5,355.5z"/>
		<path class="st0" d="M863.6,505.7c3.2-1.1,6.3-1.9,9.4-2.5c-2.3-14-7.1-23.4-14.1-30.1c2.3,8.5,3.2,17.7,4.1,26.5
			C863.2,501.6,863.4,503.6,863.6,505.7z"/>
		<path class="st0" d="M676.4,489.8l110.1,18.4v-10.8l-84.6-14C692.6,486.3,684.1,488.4,676.4,489.8z"/>
		<polygon class="st0" points="679.1,204.3 632.3,204.3 624.3,355.7 653.1,355.7 		"/>
		<path class="st0" d="M650.2,474.8l-8.1,9.3l13.4,2.2c1.3-0.1,2.7-0.2,4-0.3c7.2-1.3,15-3.1,23.6-5.8L650.2,474.8z"/>
		<path d="M809.5,562.1v-19.4h2.4c6.2,0,11.2-4.8,11.2-11.2v-56.4c0-6.4-5-11.2-11.2-11.2h-14.2c-6.4,0-11.2,5-11.2,11.2v3.7
			l-49.2-8.2c40.2-13.7,82-18,101.4-9.8c4.2,1.7,8.1,3.6,11.7,5.8c4,9.7,5.2,21.4,6.5,33.4c0.4,2.6,0.6,5.3,0.9,7.9
			c-12.6,5.2-24.8,13.7-30.9,25.3h40.2v3.9c-22.5,0.6-39.6,3.4-39.6,6.9c0,3.9,21.4,7,47.8,7c26.4,0,47.8-3.1,47.8-7
			c0-3.5-17.2-6.3-39.8-6.9v-3.9h40.4c0-17.4-17.2-31.4-38.4-31.4c-2,0-4.3,0.2-6.6,0.5c-3.2-19.9-11.5-31.2-23.3-39.1
			c-5.6-12.6-15.9-22.6-35.9-25.8c-21.2-3.4-55.8,11-92.6,26.2c-3,1.2-6.1,2.5-9.1,3.7L656.5,457v-76.5h-1.8l4.6-3.4l9-50.6
			l21.6-125.2l3.4-20.6l-4.8-6H484.9l-4.6,4.6l4.2,99.2l-46.2-50c0,0-251-11.4-282.2,0c-31.2,11.4-44.2,37.6-47,52.8
			c-6.6,38.8,0,165.8,0,165.8l29.8,52.8h53.2L150.6,628c22.2,0.7,42.7,8.4,59.2,20.9l48.3-149h294.6v130.7
			c7.5-1.7,15.3-2.7,23.4-2.7c8.1,0,16,1,23.6,2.7V499.9h23.4L786.5,527v4.5c0,6.4,5,11.2,11.2,11.2h8v23h141v-3.6H809.5z
			 M873,503.1c-3,0.6-6.2,1.5-9.4,2.5c-0.2-2-0.4-4.1-0.7-6.2c-0.9-8.8-1.8-18-4.1-26.5C865.9,479.8,870.7,489.1,873,503.1z
			 M818.5,443.1c13.1,2.1,21.3,7.2,26.8,14.4c-1.4-0.7-2.9-1.3-4.4-2c-18.3-7.7-54.6-5.2-91.5,5.2
			C777.5,449.4,802.8,440.7,818.5,443.1z M529.1,355.5h-14.6l-5.6-151.4c-0.2,0,20.2,0,20.2,0V355.5z M615.5,355.5h-64.8l-0.2-151.4
			h73L615.5,355.5z M632.3,204.3h46.8l-26,151.4h-28.8L632.3,204.3z M655.5,486.3l-13.4-2.2l8.1-9.3l33,5.5
			c-8.6,2.7-16.4,4.5-23.6,5.8C658.2,486.2,656.8,486.3,655.5,486.3z M786.5,508.2l-110.1-18.4c7.7-1.4,16.2-3.5,25.6-6.4l84.6,14
			V508.2z"/>
	</g>
	<path d="M147.3,637.5c-52.2,0-93.8,42.2-94,93.8c0,51.6,42.4,94,94,94s94-42.2,94-93.8S198.9,637.5,147.3,637.5z M147.3,784.3
		c-29,0-52.8-23.8-52.8-52.8s24-52.8,52.8-52.8c29,0,52.8,24,52.8,52.8C200.1,760.5,176.5,784.3,147.3,784.3z"/>
	<path d="M576.1,637.5c-52.2,0-93.8,42.2-94,93.8c0,51.6,42.4,94,94,94s94-42.2,94-93.8S627.7,637.5,576.1,637.5z M576.1,784.3
		c-29,0-52.8-23.8-52.8-52.8s24-52.8,52.8-52.8c29,0,52.8,24,52.8,52.8C628.9,760.5,605.3,784.3,576.1,784.3z"/>
</g>
</svg>
