<?xml version="1.0" encoding="utf-8"?>
<!-- Generator: Adobe Illustrator 22.1.0, SVG Export Plug-In . SVG Version: 6.00 Build 0)  -->
<svg version="1.1" id="Calque_1" xmlns="http://www.w3.org/2000/svg" xmlns:xlink="http://www.w3.org/1999/xlink" x="0px" y="0px"
	 viewBox="0 0 500 500" style="enable-background:new 0 0 500 500;" xml:space="preserve">
<style type="text/css">
	.st0{fill:none;}
</style>
<g>
	<g>
		<path d="M117.2999878,253.6999512c-20.4000244,0-36.7000122,16.5-36.7000122,36.7000122s16.5,36.7000122,36.7000122,36.7000122
			S154,310.5999146,154,290.3999634C154,270.1999512,137.4000244,253.6999512,117.2999878,253.6999512z M117.2999878,307.2999268
			c-9.2999878,0-16.9000244-7.5999756-16.9000244-16.8999634S108,273.499939,117.2999878,273.499939
			s16.9000244,7.6000366,16.9000244,16.9000244S126.5999756,307.2999268,117.2999878,307.2999268z"/>
	</g>
	<g>
		<path d="M307.1000366,253.6999512c-20.4000244,0-36.7000122,16.5-36.7000122,36.7000122s16.5,36.7000122,36.7000122,36.7000122
			s36.7000122-16.500061,36.7000122-36.7000122C343.8000488,270.1999512,327.2000732,253.6999512,307.1000366,253.6999512z
			 M307.1000366,307.2999268c-9.2999878,0-16.9000244-7.5999756-16.9000244-16.8999634s7.6000366-16.9000244,16.9000244-16.9000244
			s16.9000244,7.6000366,16.9000244,16.9000244S316.4000244,307.2999268,307.1000366,307.2999268z"/>
	</g>
	<g>
		<polygon class="st0" points="289.2999878,231.7999878 294.2999878,231.7999878 294.2999878,179.8999634 287.4000244,179.8999634 
					"/>
		<polygon class="st0" points="329.7000122,180 326.9000244,231.8999634 336.7999878,231.8999634 345.7000122,180 		"/>
		<polygon class="st0" points="301.6000366,231.7999878 323.8000488,231.7999878 326.6000366,179.8999634 301.6000366,179.8999634 
					"/>
		<path d="M117.2999878,250c17.0180664,0,31.6160889,10.6417847,37.553833,25.6528931v-96.8551025
			c-1.3312378-2.8861694-3.2346802-4.6978149-5.3538208-4.6978149c-3.4273071,0-6.2948608,4.7302246-7.0800171,11.1000366
			h-13.4399414c-0.7851562-6.369812-3.65271-11.1000366-7.0800171-11.1000366s-6.2949219,4.7302246-7.0800781,11.1000366h-13.539917
			c-0.7851562-6.369812-3.65271-11.1000366-7.0800171-11.1000366s-6.2948608,4.7302246-7.0800171,11.1000366H53
			l-1.3598022,11.7195435L23,211.5l18.2000122,75.3999634h35.8609009C78.8383789,266.237915,96.1801147,250,117.2999878,250z"/>
		<path d="M273.3746948,268.1733398v-83.0108643h-5.9995117c-0.7918091-6.350708-3.6546631-11.0625-7.0751953-11.0625
			s-6.2833862,4.711792-7.0751953,11.0625h-13.5495605c-0.7918091-6.350708-3.6546631-11.0625-7.0751953-11.0625
			s-6.2833862,4.711792-7.0752563,11.0625h-13.5495605c-0.7918091-6.350708-3.6546631-11.0625-7.0751953-11.0625
			c-1.8161011,0-3.4710693,1.3372192-4.7462158,3.5338745v132.3286743h71.6036377
			c-3.2183228-5.7980957-5.0574341-12.4656982-5.0574341-19.562561
			C266.7000122,282.1887817,269.1605835,274.5516968,273.3746948,268.1733398z"/>
		<path d="M158.7999878,169.2000122v143.6999512h37.3000488V169.2000122H158.7999878z M161.2537842,267.5951538v-10.2000122
			h32.4000244v10.2000122H161.2537842z M193.6538086,271.6799316v10.2000122h-32.4000244v-10.2000122H193.6538086z
			 M161.2537842,253.3103027v-10.2000122h32.4000244v10.2000122H161.2537842z M161.2537842,239.1253662V228.925415h32.4000244
			v10.1999512H161.2537842z M161.2537842,224.8405762V214.640564h32.4000244v10.2000122H161.2537842z M161.2537842,210.6557007
			v-10.2000122h32.4000244v10.2000122H161.2537842z M161.2537842,196.3707886v-10.2000122h32.4000244v10.2000122H161.2537842z
			 M161.2537842,182.1859741v-10.1999512h32.4000244v10.1999512H161.2537842z M161.2537842,285.8648682h32.4000244v10.2000122
			h-32.4000244V285.8648682z M193.6538086,310.3497925h-32.4000244v-10.2000122h32.4000244V310.3497925z"/>
		<path d="M451,314.0999756c0-7.2000122,5.7999878-13,13-13v-6.3999634l-29.2999878-6l-24.9000244-16.8000488L382.2000122,277
			l-22.5999756-10.2999878l-21.5999756-26.178833v-0.2211914h-0.6000366l1.6000366-1.2000122l3.0999756-17.3999634
			l7.4000244-42.9000244l1.2000122-7.0999756l-1.6000366-1.9000244h-69.7000122l-1.5999756,1.6000366v91.2109375
			C285.1636353,254.8500366,295.565918,250,307.1000366,250C329.4000244,250,347.5,268.0999756,347.5,290.3999634
			c0,14.0720215-7.211731,26.4656372-18.1338501,33.7000122H455.680542C452.8184204,321.71875,451,318.1295776,451,314.0999756z
			 M294.2999878,231.7999878h-5l-1.8999634-51.9000244h6.8999634V231.7999878z M323.8000488,231.7999878h-22.2000122v-51.9000244h25
			L323.8000488,231.7999878z M326.9000244,231.8999634L329.7000122,180h16l-8.9000244,51.8999634H326.9000244z"/>
	</g>
	<g>
		<path d="M464.0002441,302.2999878c-6.5,0-11.8000488,5.3000488-11.8000488,11.7999878
			c0,6.5,5.3000488,11.7999878,11.8000488,11.7999878s11.7998047-5.2999878,11.7998047-11.7999878
			S470.5002441,302.2999878,464.0002441,302.2999878z M464.0002441,319.5c-2.9001465,0-5.4001465-2.3999634-5.4001465-5.3999634
			s2.5-5.4000244,5.4001465-5.4000244c3,0,5.3999023,2.4000244,5.3999023,5.4000244S466.9001465,319.5,464.0002441,319.5z"/>
	</g>
</g>
</svg>
