<?xml version="1.0" encoding="utf-8"?>
<!-- Generator: Adobe Illustrator 24.3.0, SVG Export Plug-In . SVG Version: 6.00 Build 0)  -->
<svg version="1.1" id="Calque_1" xmlns="http://www.w3.org/2000/svg" xmlns:xlink="http://www.w3.org/1999/xlink" x="0px" y="0px"
	 viewBox="0 0 1000 1000" style="enable-background:new 0 0 1000 1000;" xml:space="preserve">
<g>
	<g>
		<path d="M562.1,940.1c-17.3,15.9-59.4-3-93.6-41.6c-34.4-38.6-48.2-82.6-30.6-97.8c17.3-15.9,59.4,3,93.6,41.6
			C566.1,880.9,579.7,924.9,562.1,940.1"/>
	</g>
	<path d="M967.7,214L854.5,67.6c-6.6-8.4-16.6-13.3-27.4-13.3h-15.2H188.3h-15.4c-10.5,0-20.8,4.9-27.4,13.3L32.3,214
		c-4.7,5.8-7.3,13.3-7.3,21.1h22.5v35.8c0,7,2.3,14,6.6,19.7l151.8,205.6c6.1,8.4,15.9,13.3,26.4,13.3h200.2l-7.5,12.9l-75.3,129.8
		h39.8c-6.1,0-11,4.9-11,11s4.9,11,11,11h221.1c6.1,0,11-4.9,11-11s-4.9-11-11-11h40l-75.1-129.8l-7.5-12.9h200
		c10.5,0,20.4-4.9,26.4-13.3l151.8-205.6c4.2-5.8,6.6-12.6,6.6-19.7v-35.8H975C975,227.6,972.4,220.1,967.7,214z"/>
</g>
</svg>
