<?xml version="1.0" encoding="utf-8"?>
<!-- Generator: Adobe Illustrator 24.3.0, SVG Export Plug-In . SVG Version: 6.00 Build 0)  -->
<svg version="1.1" id="Calque_1" xmlns="http://www.w3.org/2000/svg" xmlns:xlink="http://www.w3.org/1999/xlink" x="0px" y="0px"
	 viewBox="0 0 1000 1000" style="enable-background:new 0 0 1000 1000;" xml:space="preserve">
<style type="text/css">
	.st0{fill:none;}
</style>
<g>
	<rect x="108.5" y="409.8" class="st0" width="783" height="56.1"/>
	<g>
		<polygon points="499,86.2 500,88.6 501,86.2 		"/>
		<polygon points="499,86.2 500,88.6 501,86.2 		"/>
	</g>
	<path d="M975,409.8v-49.6H651.1l-125.3-274h3.7V52.5h-59.2v33.7h3.7l-125.3,274H25v49.6h52.2v56.1L25,541.6v308h74.4v-93.7h7.8
		v93.7h80.1v-93.7h7.8v93.7h23V747.8c0-32.4,26.4-58.7,58.7-58.7s58.7,26.4,58.7,58.7v101.8h27.7v-93.7h7.8v93.7h79.9v-93.7h7.8
		v93.7h80.1v-93.7h7.8v93.7h80.1v-93.7h7.8v93.7h29.8V747.8c0-32.4,26.4-58.7,58.7-58.7c32.4,0,58.7,26.4,58.7,58.7v101.8h20.9
		v-93.7h7.8v93.7h80.1v-93.7h7.8v93.7H975v-308l-52.2-75.7v-56.1L975,409.8L975,409.8z M500,88.6l-1-2.3h2.1L500,88.6l124,271.7
		H375.5L500,88.6z M891.5,465.9h-783v-56.1h783V465.9z"/>
	<path d="M723.1,704.7c-23.8,0-43.1,19.3-43.1,43.1v156.6c0,23.8,19.3,43.1,43.1,43.1c23.8,0,43.1-19.3,43.1-43.1V747.8
		C766.2,724.1,746.9,704.7,723.1,704.7z"/>
	<path d="M276.9,704.7c-23.8,0-43.1,19.3-43.1,43.1v156.6c0,23.8,19.3,43.1,43.1,43.1s43.1-19.3,43.1-43.1V747.8
		C319.9,724.1,300.6,704.7,276.9,704.7z"/>
</g>
</svg>
