<?xml version="1.0" encoding="utf-8"?>
<!-- Generator: Adobe Illustrator 22.1.0, SVG Export Plug-In . SVG Version: 6.00 Build 0)  -->
<svg version="1.1" id="Calque_1" xmlns="http://www.w3.org/2000/svg" xmlns:xlink="http://www.w3.org/1999/xlink" x="0px" y="0px"
	 viewBox="0 0 500 500" style="enable-background:new 0 0 500 500;" xml:space="preserve">
<style type="text/css">
	.st0{fill:none;}
</style>
<g>
	<g>
		<path class="st0" d="M422.8000183,225.3999786c0.7485352,0.3155518,1.4755859,0.6436157,2.1907959,0.9794312
			c-2.717041-3.5664062-6.8604736-6.1503296-13.3908691-7.1793823c-7.8624268-1.2158203-20.5219727,3.1536865-34.5684814,8.793396
			C395.521698,222.7766266,413.6453552,221.5329742,422.8000183,225.3999786z"/>
		<polygon class="st0" points="277.6999817,175.3999786 310.1000061,175.3999786 314.1000061,99.7000275 277.6000061,99.7000275 		
			"/>
		<path class="st0" d="M259.6000061,175.3999786h7.2999878V99.7000275c0,0-10.2000122,0-10.0999756,0L259.6000061,175.3999786z"/>
		<path class="st0" d="M434.1474304,250.4808502c1.5922852-0.5288696,3.1657715-0.953125,4.685791-1.2695312
			c-1.1303711-7.0199585-3.5465088-11.6813965-7.0629883-15.0722656c1.1258545,4.2740479,1.5964355,8.8610229,2.0297852,13.2609863
			C433.9389343,248.4425201,434.0379333,249.4719391,434.1474304,250.4808502z"/>
		<path class="st0" d="M340.5309143,242.555191l55.0690308,9.1781616v-5.3918457l-42.2767944-7.0067139
			C348.6319275,240.8147736,344.4010925,241.8524323,340.5309143,242.555191z"/>
		<polygon class="st0" points="341.8999939,99.8000031 318.4999695,99.8000031 314.4999695,175.5000153 328.8999939,175.5000153 		
			"/>
		<path class="st0" d="M327.4290466,235.0431671l-4.0501099,4.6533203l6.7141724,1.1190796
			c0.6625977-0.0327148,1.3397217-0.0786133,2.024292-0.1307983c3.590332-0.6390991,7.491333-1.5717773,11.8044434-2.9081421
			L327.4290466,235.0431671z"/>
		<path d="M407.1000671,278.7000122V269h1.1999512c3.0999756,0,5.5999756-2.4000244,5.5999756-5.6000366v-28.1999359
			c0-3.2000122-2.5-5.6000366-5.5999756-5.6000366h-7.1000977c-3.1999512,0-5.5999756,2.5-5.5999756,5.6000366v1.8251343
			l-24.5784912-4.1193237c20.1072998-6.8400269,40.9956055-8.9922485,50.6784668-4.9058228
			c2.1226807,0.8713989,4.0703125,1.821167,5.8500977,2.911499c2.0008545,4.84198,2.6176758,10.6818848,3.25,16.6884766
			c0.1755371,1.3163452,0.2819824,2.6326904,0.4387207,3.9490356c-6.3095703,2.6030884-12.3972168,6.84935-15.4387207,12.6509857
			h20.0999756v1.9523315c-11.2449951,0.2849121-19.7999268,1.7194824-19.7999268,3.4476318
			c0,1.9329834,10.7003174,3.5,23.8999023,3.5c13.199707,0,23.9000244-1.5670166,23.9000244-3.5
			c0-1.7332764-8.6055908-3.1713867-19.9000244-3.4502563v-1.949707h20.1999512
			c0-8.6999969-8.5998535-15.6999969-19.1999512-15.6999969c-1.0231934,0-2.1367188,0.0805664-3.3026123,0.225769
			c-1.5998535-9.951416-5.7398682-15.6125488-11.6306152-19.5291138
			c-2.8051758-6.3085938-7.9378662-11.2963257-17.9667969-12.8966675c-10.5999756-1.7000122-27.9000244,5.5-46.2999268,13.1000366
			c-1.5018311,0.6088257-3.0281982,1.2387085-4.5561523,1.8671265l-30.6438599-5.1358643v-38.2313232h-0.9000244
			l2.2999878-1.7000122l4.5-25.2999878l10.7999878-62.5999756l1.7000122-10.2999878l-2.3999634-3H244.7999573l-2.2999878,2.2999878
			l2.1000366,49.5999756l-23.1000366-25c0,0-125.5-5.6999512-141.0999756,0
			c-15.6000366,5.7000122-22.1000366,18.8000488-23.5,26.4000244c-3.3000488,19.3999634,0,82.8999634,0,82.8999634
			l14.8999634,26.4000244h26.5795898l-20.7416382,64.0414276c11.1085205,0.3461914,21.3369141,4.182251,29.6134033,10.4563599
			l24.1282959-74.4977875h147.3203735v65.3453217c3.7601318-0.8701172,7.6726074-1.3453369,11.7000122-1.3453369
			c4.0612183,0,8.0078125,0.4828491,11.7999878,1.3671875v-65.3671722h11.6943359l81.7056274,13.5414886v2.2584839
			c0,3.2000122,2.5,5.6000366,5.5999756,5.6000366h4v11.5h70.5v-1.7999878H407.1000671z M438.8332214,249.211319
			c-1.5200195,0.3164062-3.0935059,0.7406616-4.685791,1.2695312c-0.1094971-1.0089111-0.2084961-2.0383301-0.3474121-3.0808105
			c-0.4333496-4.3999634-0.9039307-8.9869385-2.0297852-13.2609863
			C435.2867126,237.5299225,437.7028503,242.1913605,438.8332214,249.211319z M411.5999451,219.2000275
			c6.5303955,1.0290527,10.6738281,3.6129761,13.3908691,7.1793823c-0.71521-0.3358154-1.4422607-0.6638794-2.1907959-0.9794312
			c-9.1546631-3.8670044-27.2783203-2.6233521-45.7685547,2.5934448
			C391.0779724,222.353714,403.7375183,217.9842072,411.5999451,219.2000275z M266.8999939,175.3999786h-7.2999878
			l-2.7999878-75.6999512c-0.1000366,0,10.0999756,0,10.0999756,0V175.3999786z M310.1000061,175.3999786h-32.4000244
			l-0.0999756-75.6999512h36.5L310.1000061,175.3999786z M318.4999695,99.8000031h23.4000244l-13,75.7000122h-14.4000244
			L318.4999695,99.8000031z M330.0931091,240.815567l-6.7141724-1.1190796l4.0501099-4.6533203l16.4927979,2.7334595
			c-4.3131104,1.3363647-8.2141113,2.269043-11.8044434,2.9081421
			C331.4328308,240.7369537,330.7557068,240.7828522,330.0931091,240.815567z M395.5999451,251.7333527l-55.0690308-9.1781616
			c3.8701782-0.7027588,8.1010132-1.7404175,12.7922363-3.2203979l42.2767944,7.0067139V251.7333527z"/>
	</g>
	<path d="M75.9999695,316.3999634c-26.0999756,0-46.9000244,21.1000366-47,46.9000244c0,25.7999878,21.2000732,47,47,47
		s47-21.1000366,47-46.9000244S101.7998962,316.3999634,75.9999695,316.3999634z M75.9999695,389.7999878
		c-14.5,0-26.4000244-11.9000244-26.4000244-26.4000244S61.5999451,337,75.9999695,337c14.5,0,26.4000244,12,26.4000244,26.3999634
		C102.3999939,377.8999634,90.5999451,389.7999878,75.9999695,389.7999878z"/>
	<path d="M290.3999939,316.3999634c-26.0999756,0-46.9000244,21.1000366-47,46.9000244c0,25.7999878,21.2000732,47,47,47
		s47-21.1000366,47-46.9000244S316.1999207,316.3999634,290.3999939,316.3999634z M290.3999939,389.7999878
		c-14.5,0-26.4000244-11.9000244-26.4000244-26.4000244S275.9999695,337,290.3999939,337
		c14.5,0,26.4000244,12,26.4000244,26.3999634C316.8000183,377.8999634,304.9999695,389.7999878,290.3999939,389.7999878z"/>
</g>
</svg>
