<?xml version="1.0" encoding="utf-8"?>
<!-- Generator: Adobe Illustrator 24.3.0, SVG Export Plug-In . SVG Version: 6.00 Build 0)  -->
<svg version="1.1" id="Calque_1" xmlns="http://www.w3.org/2000/svg" xmlns:xlink="http://www.w3.org/1999/xlink" x="0px" y="0px"
	 viewBox="0 0 1000 1000" style="enable-background:new 0 0 1000 1000;" xml:space="preserve">
<g>
	<g>
		<path d="M553.1,876.3c-14.8,13.6-50.8-2.6-80-35.6c-29.4-33-41.2-70.6-26.2-83.6c14.8-13.6,50.8,2.6,80,35.6
			C556.5,825.7,568.1,863.3,553.1,876.3"/>
	</g>
	<path d="M899.9,255.5l-96.8-125.2c-5.6-7.2-14.2-11.4-23.4-11.4h-13H233.5h-13.2c-9,0-17.8,4.2-23.4,11.4l-96.8,125.2
		c-4,5-6.2,11.4-6.2,18h19.2v30.6c0,6,2,12,5.6,16.8l129.8,175.8c5.2,7.2,13.6,11.4,22.6,11.4h171.2l-6.4,11l-64.4,111h34
		c-5.2,0-9.4,4.2-9.4,9.4s4.2,9.4,9.4,9.4h189c5.2,0,9.4-4.2,9.4-9.4s-4.2-9.4-9.4-9.4h34.2l-64.2-111l-6.4-11h171
		c9,0,17.4-4.2,22.6-11.4l129.8-175.8c3.6-5,5.6-10.8,5.6-16.8v-30.6h19C906.1,267.1,903.9,260.7,899.9,255.5z"/>
</g>
</svg>
