<?xml version="1.0" encoding="utf-8"?>
<!-- Generator: Adobe Illustrator 24.3.0, SVG Export Plug-In . SVG Version: 6.00 Build 0)  -->
<svg version="1.1" id="Calque_1" xmlns="http://www.w3.org/2000/svg" xmlns:xlink="http://www.w3.org/1999/xlink" x="0px" y="0px"
	 viewBox="0 0 1000 1000" style="enable-background:new 0 0 1000 1000;" xml:space="preserve">
<path d="M973.9,715.1l-187-113.5c-0.4,0-1.2-0.4-1.7,0c-0.4,0.4-0.8,0.8-0.8,1.2l-3.5,15.3L688,553.5v-94.1c0,0,0,0,0-0.2
	l60.1-184.9h22.3c0.8,0,1.7-0.8,1.7-1.7v-23.3c0-0.8-0.8-1.7-1.7-1.7H536.9c-0.4,0-0.8,0.4-1.2,0.8l-16.7,22.1H386.2
	c-0.4,0-0.8,0.4-1.2,0.8L329,344.4c-0.4,0.4-0.4,0.8-0.4,1.2v21.1h-81.7v-0.2h-162L25,422.4L57.2,441l34.1-37.2h45.4
	c-6.2,10.7-9.7,23.3-9.7,36.7v131.3c-0.2,0.4-0.2,1,0.2,1.2l28.7,44.2c-0.7,0.9-1.4,1.8-2.1,2.7c-1.4,2-2.9,4.1-4.2,6.2
	c0,0,0,0.1-0.1,0.1c-0.6,1.1-1.3,2.2-2,3.3l-0.1,0.1c-0.6,1.1-1.2,2.3-1.8,3.4c0,0,0,0.1-0.1,0.1c-2.4,4.9-4.2,9.9-5.6,15.2
	c0,0,0,0,0,0.1c-0.3,1.2-0.6,2.5-0.8,3.7c-0.1,0.3-0.1,0.6-0.2,0.8c-0.2,0.9-0.4,2-0.5,2.9c-0.1,0.4-0.1,0.8-0.2,1.2
	c-0.1,0.9-0.2,1.9-0.3,2.7c0,0.4-0.1,0.8-0.1,1.3c-0.1,0.9-0.2,1.9-0.2,2.8c0,0.4-0.1,0.8-0.1,1.2c-0.1,1.3-0.1,2.7-0.1,4
	c0,45.8,37.4,83.2,83.2,83.2s83.2-37.4,83.2-83.2c0-1.1,0-2.2-0.1-3.3c-0.1-2-0.2-3.9-0.4-5.8c-0.1-1-0.2-2.1-0.3-3.1h178.1
	c0.9,52.7,44.1,95.2,97,95.4h0.1h0.1c53.5,0,97-43.6,97-97c0-15.7-3.7-30.5-10.3-43.6l21.5-17.5l86.7,59l-14.2,62.7
	c-0.4,0.4-0.4,0.4-0.4,0.8c0,1.4,0.8,2.3,2.1,1.9h212.8c0.8,0,1.2-0.4,1.7-1.2C974.9,716.6,974.9,715.7,973.9,715.1z M220.7,707.5
	c-21.3,0-38.2-16.9-38.2-38.2c0-21.1,17.3-38.2,38.2-38.2c21.3,0,38.2,16.9,38.2,38.2C258.9,690.6,241.9,707.5,220.7,707.5z
	 M533.8,286.2h67.7v156.7h-67.7V286.2z M529.7,655.5c0-26.8,21.7-48.7,48.7-48.7c26.8,0,48.7,21.7,48.7,48.7
	c0,26.8-21.7,48.7-48.7,48.7C551.6,704.4,529.7,682.1,529.7,655.5z M672.9,442.9h-51.4V286.2h103L672.9,442.9z"/>
</svg>
