<?xml version="1.0" encoding="utf-8"?>
<!-- Generator: Adobe Illustrator 22.1.0, SVG Export Plug-In . SVG Version: 6.00 Build 0)  -->
<svg version="1.1" id="Calque_1" xmlns="http://www.w3.org/2000/svg" xmlns:xlink="http://www.w3.org/1999/xlink" x="0px" y="0px"
	 viewBox="0 0 500 500" style="enable-background:new 0 0 500 500;" xml:space="preserve">
<g>
	<g>
		<path d="M408.1999512,301.4000244c-13.6999512,0-24.7999268,11.0999756-24.7999268,24.7999878V365h-6.2999878v-2.7000122
			c0,0-1.7000122-6.5999756-1.8999634-9.8999634c-0.2000122-3.2999878,1.8999634-10.6000366,1.8999634-13
			c0-2.4000244-2.3000488-8.1000366-2.5-10.4000244c-0.2000122-2.2999878,2.5-9.5,2.5-11.9000244
			c-0.2999878-2.3999634-3.2999878-8.5-3.6000366-10.5999756c-0.2000122-2.1000366,2.2999878-13.7999878,2.2999878-16.2000122
			s-2-5.2999878-2.5-8.2000122s3.5-23.2999878,3.5-23.2999878s-3.5-1-7.7000122-2.2999878v-54.9000244H131v55
			c-3.7000122,1.1000366-7.7000122,2.1000366-7.7000122,2.1000366s0,8.3999634,0,11.8999634c0,3.4000244,3,4.9000244,3.2000122,6.5
			c0.2000122,1.6000366-3.2000122,11-3.2000122,12.9000244c0,1.8999634,2.6000366,10.0999756,2.1000366,12.5
			c-0.5,2.5-2.1000366,9.8999634-2.1000366,12.7999878c0,3,2.3000488,7.7000122,3,10.5
			c0.6000366,2.8999634-2.6999512,15.0999756-1.8999634,18.7000122c0.7999878,3.5999756-1.1000366,8.0999756-1.1000366,10.7000122
			c0,2.7000122,1.5,6.8999634,1.8000488,9.0999756c0.0267944,0.1407471,0.0402222,0.3112183,0.045105,0.5h-8.545105v-38.5999756
			c0-13.7000122-11.1000366-24.7999878-24.8000488-24.7999878C78.0999756,301.5,67,312.5999756,67,326.2999878v90
			C67,429.8999634,78.0999756,441,91.7999878,441c13.6000366,0,24.8000488-11.1000366,24.8000488-24.7999878v-38.6000366h13.4588623
			c0.1464844,0.1092529,0.2710571,0.2124634,0.3411255,0.3000488C130.5,378,130.7000122,378.2000122,131,378.2999878v51.5
			h238.1000366v-51c0.3328247-0.2440796,0.9190674-0.5993652,1.6186523-1h12.6813354v38.4000244
			C383.4000244,429.8999634,394.5,441,408.1999512,441C421.9000244,441,433,429.8999634,433,416.2000122v-90
			C433,312.5,421.9000244,301.4000244,408.1999512,301.4000244z M248.9000244,353.2000732
			c-0.1000366,1-1.4000244,3.7999878-2.1000366,5.2000122c-2.3999634,4.5-4.1999512,14.7000122-4.2999878,16.2000122
			c-0.0999756,2.3999634,0.7999878,5.0999756,1.7000122,7.5c0.2000122,0.5,0.3999634,1.2000122,0.5999756,1.7000122
			c-0.0999756,0.3999634-0.3999634,1-0.5999756,1.5c-0.7000122,1.7000122-1.5,3.7999878-1.7000122,6.0999756
			c-0.2999878,2.9000244,0.7000122,5,1.5,6.5c0.6000366,1.1000366,0.7999878,1.7000122,0.7999878,2.6000366v7.3999634
			L242,407.2999878L238.9000244,407.5c0,0-1.2000122,0.0999756-2.8000488,0.0999756c-1.7999878,0-2.8999634-0.0999756-3.5-0.2000122
			c-2.0999756-1-4.6999512-1.7999878-7.2999878-2.5999756c-1-0.2999878-2.5-0.7999878-3.2999878-1.1000366
			c0,0-0.1000366,0-0.1000366-0.0999756c-6.5999756-5.7000122-10.7999878-8.7999878-15.1999512-9.7000122
			c-1.6000366-0.2999878-10.7000122-2.1000366-15.9000244-2.2999878c-1.3999634-0.7000122-4-2.4000244-4.8999634-3.2000122
			c-2.9000244-2.6000366-7-3.5-12.5-4.7000122c-1.7000122-0.4000244-4.3000488-0.9000244-5.6000366-1.2999878
			c-1.0999756-0.7000122-2.2000122-1.4000244-3.2000122-2c-0.3999634-0.2999878-1-0.6000366-1.5-0.9000244
			c-1.5999756-2.7999878-4.5999756-5-8.3999634-5.7999878c-2-0.3999634-3.9000244-0.5-5.6000366-0.5c-0.6999512,0-1.2999878,0-2,0
			c-0.5,0-1.0999756,0-1.5,0c-0.0999756,0-0.2999878,0-0.2999878,0c-0.5-0.2000122-1-0.2999878-1.5999756-0.5
			c-1.5-0.5-5.2000122-1.7000122-6.9000244-2.3999634c-0.3999634-0.2999878-0.8999634-0.7000122-1.5-1
			c0.7000122-4.1000366,0.4000244-5.7000122,0.2999878-6.5c-0.1999512-1.1000366-0.5-2.2000122-0.7999878-3.4000244
			c-0.2999878-1.0999756-0.8999634-3.2000122-0.8999634-4.0999756c0-0.4000244,0.1999512-1.2000122,0.3999634-1.9000244
			c0.6000366-2.7999878,1.4000244-6.5,0.6000366-10.5c0-1.3999634,0.5999756-5.2999878,1-7.3999634
			c0.8999634-5.6000366,1.3999634-8.7000122,0.7999878-11.5c-0.4000244-1.7000122-1-3.4000244-1.6000366-5.1000366
			c-0.3999634-1.0999756-1.0999756-3-1.1999512-3.7999878c0-0.8999634,0.3999634-3.5,1.6999512-10.2000122
			c0.1000366-0.2999878,0.1000366-0.5999756,0.2000122-0.7999878c0.6000366-3.0999756-0.0999756-6.5-1.2999878-11.7999878
			c-0.2000122-0.7999878-0.4000244-1.7000122-0.5-2.3999634c0.2999878-1,0.7999878-2.7000122,1.0999756-3.9000244
			c1.6000366-5.2999878,2.3000488-7.7999878,1.9000244-10.3999634c-0.4000244-2.7999878-1.7999878-4.7000122-2.7999878-6
			c2.5,1.3999634,5.0999756,2.5999756,7.5,3.0999756c3.6999512,0.7999878,10.1999512,1.5,13.8999634,1.9000244
			c1.7999878,2.5,5.1000366,6.2999878,9.2000122,7.7999878c4,1.5,10.5999756,1.3999634,14.7000122,1.2000122
			c2.5999756,3.2000122,5.8999634,6.2999878,9.0999756,7.0999756c1.1000366,0.2999878,2.6000366,0.5,4.5,0.7000122
			c1.9000244,0.2999878,6.2999878,0.9000244,7.7999878,1.4000244c1.7000122,1.7999878,4.7000122,2.7999878,9,3.2999878
			c2.2000122,0.2000122,4.9000244,0.2999878,7.1000366-0.2000122c0.5999756,0.2999878,1.2000122,0.7000122,1.5999756,1
			c0.3000488,2.7000122,2.4000244,5.2000122,6.4000244,7.5c2.7000122,1.5,5.7999878,2.7000122,7.8999634,3
			c1.5,0.2000122,7.6000366,1.5,12.8000488,2.5999756c0.5,2.4000244,0.7999878,6.1000366-0.6000366,9.6000366
			C244.5,321,244.3999634,323,244.7000122,332.8000488c0,1.0999756,0.0999756,2.3999634,0.0999756,2.7000122
			c-0.0999756,1.5999756,0.6000366,3,2.1000366,6c0.5,1,1.2999878,2.5,1.5999756,3.2000122
			c0,1.0999756,0.1000366,2.0999756,0.2999878,3.0999756C249,349.6000366,249.2000122,351.2000732,248.9000244,353.2000732z
			 M234.500061,298.2999268c-1.3000488-0.2000122-4.5-1.7999878-5.6000366-2.7000122
			c-0.2999878-1.8999634-1.5-4.8999634-6.2999878-7.3999634c-2.2999878-1.2000122-5.5-2.2999878-8.4000244-1.2000122
			c-1.3999634,0.2000122-4.5-0.1000366-5.7999878-0.5c-2.3999634-2.5-6.8999634-3.2999878-13.7999878-4.2000122
			c-1.1000366-0.2000122-2.4000244-0.2999878-3.1000366-0.5c-1.0999756-0.7000122-3.5-3.2000122-5.1999512-5.6000366
			L184.5,273.7999268l-3.1999512,0.2999878c-4.5,0.5-10.7000122,0.5-12.5-0.2999878
			c-1.7000122-0.7000122-4.3000488-3.7999878-5.5-5.7000122L162,266l-2.7999878-0.2999878c-0.1000366,0-10.6000366-1-15.2000122-2
			c-0.2000122-0.1000366-0.5-0.1000366-0.7999878-0.2000122c1-0.1000366,1.8999634-0.2000122,2.5999756-0.2000122
			c4.9000244-0.5,7.8000488-0.7000122,10.5-2.0999756c1.7000122-0.9000244,3.5-2.2999878,6.8000488-5
			c0.7999878-0.6000366,1.8999634-1.5,2.5999756-2.1000366c0.7000122-0.1999512,1.7999878-0.3999634,2.5-0.5999756
			c4.9000244-1.1000366,8.5-1.9000244,11.2999878-4.2999878c0.5-0.3000488,2-1.4000244,7-4.2000122l0.1000366-0.1000366
			c0.7999878-0.2999878,2.2999878-0.7999878,4.0999756-1.3999634l105.9000244,39.8999634
			c-0.7000122,0.2999878-1.2999878,0.7000122-1.8999634,1c-1.4000244,0.7999878-2.4000244,1.6000366-3.2000122,2.2999878
			c-0.4000244,0.2999878-1,0.7999878-1.1000366,0.9000244c0,0-0.0999756,0-0.3999634,0
			c-4.2999878,0-10.1000366,0-14.2000122,1.5999756c-2.7999878,1.1000366-5.6000366,3.5-8.2000122,5.7999878
			c-1.2000122,1.1000366-2.4000244,2.1000366-3.2999878,2.7999878c-1.4000244,0.7999878-8,2.5-14.4000244,3.7000122
			C246.4000244,300.6999512,236.8000488,298.6999512,234.500061,298.2999268z M306.3999634,397.2000732
			c-2.8999634,0.0999756-5.0999756,1.2000122-7.7999878,2.5c-0.8999634,0.499939-2.999939,1.499939-4.0999756,1.8999023
			c-2.7999878,0-5.8999634,0.4000244-8.7000122,1.2000122c-2.8999634,0.7999878-5.2999878,1.9000244-7.0999756,3.2999878
			c-0.9000244,0.2999878-2.2999878,0.6000366-3.2000122,0.7999878C272.8999634,407.5,270.7999878,408,268.8999634,408.7999878
			c-1.8999634,0.5-7.5999756,1.5999756-13.7000122,2.7000122v-10.4000244c0-2.8999634-1-4.8999634-1.6999512-6.3999634
			c-0.5-1.1000366-0.7000122-1.5-0.7000122-1.9000244c0.0999756-1.0999756,0.5999756-2.3999634,1.0999756-3.7000122
			c0.8000488-1.8999634,1.5-3.7000122,1.2000122-5.7000122C254.8999634,382.2999878,254.5,381.0999756,254,379.7999878
			c-0.4000244-1.1000366-1.2000122-3.2999878-1.2000122-4c0.0999756-1.6000366,1.7999878-9.7999878,3.2000122-12.5
			c0.2999878-0.5,2.7000122-5.1000366,3.0999756-8.2999878C259.5,351.8999634,259.2000122,349.5999756,259,347.5
			c-0.1000366-1-0.2000122-1.9000244-0.2000122-2.7999878c0-1.7000122-0.9000244-3.5-2.6000366-6.7000122
			c-0.3999634-0.7000122-0.8999634-1.7000122-1.2000122-2.2999878c0-0.5,0-1.2999878-0.0999756-2.6000366
			c-0.1000366-2.2999878-0.2999878-8.3999634-0.1000366-10c1.8000488-4.7000122,1.7000122-9.3999634,1.2000122-12.8999634
			c5.6000366-1.2000122,12.1000366-2.9000244,14.7000122-4.7999878c1.4000244-1,2.7000122-2.2000122,4.2000122-3.5
			s3.9000244-3.5,5-3.9000244c2.1000366-0.7999878,7.2000122-0.7999878,10-0.7999878c4.6000366,0,7-2.0999756,8.7000122-3.3999634
			c0.6000366-0.5,1.1000366-1,1.7999878-1.2999878c1.7999878-1.1000366,4.1000366-2.2000122,6-3V397.2000732z
			 M312.8999634,279.4000244L207,239.5c0.4000244-0.1000366,0.7999878-0.2000122,1.1000366-0.2000122
			c4.0999756-1.0999756,6.7999878-3,8.3999634-5.7999878c0.1000366-0.1000366,0.1000366-0.2000122,0.2000122-0.2999878
			c5-0.9000244,12.5-2.8000488,15.5-3.9000244c3.7000122-1.3999634,6-3.5,7.3999634-4.7999878
			c2.3000488-0.7000122,6.1000366-1.9000244,9.2000122-3C249.5,221.8999634,250.2000122,222.2999878,251,222.7000122
			c7.4000244,4,10.7999878,4.8999634,12.9000244,5.2999878c1.7999878,0.2999878,3.5,0.5,5.0999756,0.7000122
			c0.4000244,0,1,0.0999756,1.4000244,0.1999512c1.3999634,1.3000488,3.2999878,2.6000366,5.5,3.8000488
			c5.3999634,3.0999756,8.5,3.5,9.7000122,3.5999756c0.5,0.1000366,1.5999756,0.4000244,2.2999878,0.5
			c2.7000122,0.7000122,5.7000122,1.4000244,8.5999756,1.4000244c2.5,0.3999634,9.4000244,2.3999634,11.7000122,3.2999878
			C318,248.7999878,320.5,249.7000122,321.8000488,250.2000122c2.0999756,0.7999878,4.5,1.0999756,9.3999634,1.6999512
			c2,0.3000488,5.2000122,0.7000122,6.5,1c2,1,7.7000122,4.5,9.6000366,5.7000122
			c1.2999878,0.7999878,1.8999634,1.2000122,2.3999634,1.5c0.2000122,0.1000366,0.5,0.2999878,0.9000244,0.5
			c-1.2000122,0.7999878-2.2999878,1.7999878-3.5,2.9000244c-0.9000244,0.7999878-2.2999878,2.0999756-3.1000366,2.5
			c-5.5,0.5999756-8.5,3.8999634-11.3999634,7.7000122c0,0-0.7999878,0.8999634-4.2000122,2.2000122
			c-2.5,0.8999634-5.4000244,1.7000122-7.7000122,2.3999634c-1.7999878,0.5-3.1000366,0.9000244-4.1000366,1.2000122
			C315.8999634,279.6000366,314.0999756,279.5,312.8999634,279.4000244z M367.3139038,353.0391235l-2.8486328-1.4595337
			c-0.0021362,0.4150391,0.0063477,0.8231201,0.034729,1.2203979c0.2000122,3.2000122,1.2999878,8.1000366,1.8999634,10.4000244
			l-0.1999512,5.6999512c-4.5,2.4000244-5.5,3.4000244-6.5,4.7999878C358.5,375.3999634,357.3000488,376.8999634,356.5,377.7999878
			c-1.8999634,0.5-4.8999634,1.0999756-6.2999878,1.2999878c-0.0999756,0-0.2000122,0-0.2000122,0
			c-4.5,0-7.3999634,2.2999878-10.2999878,4.5c-0.5999756,0.5-1.5,1.2000122-2.0999756,1.5
			c-1.4000244,0.3999634-4.6000366,1-6.2000122,1.2999878c-4.5,0.7999878-6.5,1.2000122-8.7000122,2.5999756
			c0,0-2.7000122,1.7999878-5.4000244,3.7000122V289c1.2999878-0.1000366,2.6000366-0.2999878,3.7999878-0.7999878
			c0.4000244-0.2000122,1.7999878-0.5,3-0.9000244c7.4000244-2,14.4000244-4.2000122,17.5-8.2000122
			C344.2999878,275.5,345,275.5,345.7999878,275.3999634c3.6000366-0.2999878,6.5-2.8999634,9.1000366-5.2000122
			c0.5999756-0.5999756,1.5-1.3999634,2-1.7999878l7.7999878-1.2000122c0,0.2000122-0.1000366,0.4000244-0.1000366,0.6000366
			c-2,11.5-1.8999634,14-1.5,15.7999878c0.4000244,2.2000122,1.2000122,4,1.7999878,5.5
			c0.2000122,0.3999634,0.4000244,1,0.5,1.3999634c-0.0999756,1.2000122-0.5999756,3.7999878-0.8999634,5.6000366
			c-1.1000366,6.5999756-1.5,9.0999756-1.2999878,11.2000122c0.2000122,2,1,4,1.8999634,6.5
			c0.4000244,1,0.9000244,2.5,1.2000122,3.3999634c-0.2000122,0.7999878-0.5999756,2.2000122-0.8999634,3.2000122
			c-1.1000366,4.1000366-1.7999878,6.7999878-1.6000366,9.4000244c0.2000122,1.8999634,0.7999878,3.8999634,1.5,6.2000122
			c0.2999878,1,0.7999878,2.5999756,1,3.3999634c-0.0999756,0.7000122-0.3999634,2.2000122-0.5999756,3.2000122
			c-0.4089966,2.1472168-0.7636719,4.0304565-0.987915,5.7351074l3.9697876,2.0339966L367.3139038,353.0391235z"/>
		
			<rect x="264.2589417" y="241.3852386" transform="matrix(0.3883103 -0.9215286 0.9215286 0.3883103 -68.7739029 398.4599304)" width="2.9999115" height="19.2993698"/>
		
			<rect x="200.8200226" y="370.6013489" transform="matrix(0.3926005 -0.9197091 0.9197091 0.3926005 -226.8774719 417.070343)" width="2.9999671" height="19.3998566"/>
		
			<rect x="181.7016296" y="305.6021118" transform="matrix(0.9853926 -0.1702977 0.1702977 0.9853926 -50.76371 35.7826385)" width="2.999999" height="16.400116"/>
		
			<rect x="217.5023956" y="346.1196594" transform="matrix(0.3926868 -0.9196723 0.9196723 0.3926868 -194.2346649 417.5046082)" width="3.000087" height="19.4005661"/>
		
			<rect x="252.5651703" y="281.1810303" transform="matrix(0.3883103 -0.9215286 0.9215286 0.3883103 -112.599823 412.0264282)" width="2.9999115" height="19.2993698"/>
		
			<rect x="170.1920776" y="259.2874451" transform="matrix(0.9197448 -0.3925167 0.3925167 0.9197448 -87.9261856 91.5399933)" width="19.399086" height="2.9998593"/>
		
			<rect x="267.2875366" y="366.182312" transform="matrix(0.9197438 -0.3925192 0.3925192 0.9197438 -122.0923996 138.2315063)" width="19.3990574" height="2.9998474"/>
		
			<rect x="156.0140686" y="326.0921936" transform="matrix(0.7204297 -0.693528 0.693528 0.7204297 -187.2843781 202.4887848)" width="2.999877" height="14.8993692"/>
		
			<rect x="210.5013428" y="270.8039856" transform="matrix(0.9546904 -0.2976007 0.2976007 0.9546904 -71.1716461 77.1409531)" width="14.500124" height="3.0000384"/>
		
			<rect x="279.1063538" y="325.6071472" transform="matrix(0.7100102 -0.7041914 0.7041914 0.7100102 -146.8996429 297.4932861)" width="17.2999859" height="2.9999855"/>
		
			<rect x="330.8446045" y="340.1902771" transform="matrix(0.4946078 -0.8691162 0.8691162 0.4946078 -133.8711853 464.3638)" width="2.9999282" height="14.1997662"/>
		
			<rect x="292.8453979" y="341.1904602" transform="matrix(0.4946078 -0.8691162 0.8691162 0.4946078 -153.9449615 431.8435669)" width="2.9999435" height="14.1997395"/>
		
			<rect x="199.0429535" y="330.1872864" transform="matrix(0.4946078 -0.8691162 0.8691162 0.4946078 -191.7889404 344.7574158)" width="2.9999435" height="14.1997395"/>
		
			<rect x="307.2181702" y="256.1401672" transform="matrix(0.4946097 -0.8691152 0.8691152 0.4946097 -72.7627716 401.3506165)" width="2.9999435" height="14.1997395"/>
		
			<rect x="342.7988281" y="320.2984924" transform="matrix(0.9806035 -0.1960021 0.1960021 0.9806035 -56.2514305 75.1754608)" width="17.7999325" height="2.9999881"/>
		
			<rect x="215.9510956" y="313.4724121" transform="matrix(0.4551961 -0.8903912 0.8903912 0.4551961 -169.5488586 369.8456421)" width="3.0000322" height="20.0001793"/>
		
			<rect x="332.1991272" y="355.9524841" transform="matrix(0.2531125 -0.9674369 0.9674369 0.2531125 -105.8156662 596.9420166)" width="2.999877" height="22.0991554"/>
		
			<rect x="330.4844971" y="302.1853027" transform="matrix(0.9197448 -0.3925167 0.3925167 0.9197448 -91.9000092 157.9002075)" width="19.3990574" height="2.9998474"/>
		
			<rect x="172.8688812" y="357.0827332" transform="matrix(0.7071068 -0.7071068 0.7071068 0.7071068 -200.3759918 233.414978)" width="17.3998375" height="2.9999602"/>
		
			<rect x="153.7627411" y="295.3419495" transform="matrix(0.4946078 -0.8691162 0.8691162 0.4946078 -184.3885651 287.7930908)" width="2.9999435" height="14.1997395"/>
		
			<rect x="287.8459167" y="378.1897888" transform="matrix(0.4946078 -0.8691162 0.8691162 0.4946078 -188.6283722 446.1976013)" width="2.9999585" height="14.1997662"/>
		
			<rect x="150.9814301" y="356.1522827" transform="matrix(0.3543969 -0.9350951 0.9350951 0.3543969 -241.2329712 377.1014709)" width="3.0000265" height="14.200098"/>
		<path d="M364.465271,351.5795898l2.8486328,1.4595337l1.367981-2.6700439l-3.9697876-2.0339966
			C364.5599365,349.4916992,364.470459,350.5647583,364.465271,351.5795898z"/>
		<path d="M348.3898926,339.97229l-1.367981,2.6700439l17.4433594,8.9372559
			c0.005188-1.0148315,0.0946655-2.0878906,0.2468262-3.2445068L348.3898926,339.97229z"/>
		
			<rect x="238.4969788" y="233.6953278" transform="matrix(0.9547251 -0.2974895 0.2974895 0.9547251 -58.8419609 83.7555313)" width="14.4996881" height="2.9999294"/>
	</g>
	<polygon points="359.3999939,60 140.6000061,60 80.5999985,95.4000015 131,196.1999969 369,196.1999969 419.3999939,95.4000015 	
		"/>
</g>
</svg>
