<?xml version="1.0" encoding="utf-8"?>
<!-- Generator: Adobe Illustrator 24.3.0, SVG Export Plug-In . SVG Version: 6.00 Build 0)  -->
<svg version="1.1" id="Calque_1" xmlns="http://www.w3.org/2000/svg" xmlns:xlink="http://www.w3.org/1999/xlink" x="0px" y="0px"
	 viewBox="0 0 500 500" style="enable-background:new 0 0 500 500;" xml:space="preserve">
<g>
	<path d="M276.5,438.7c-7.4,6.8-25.4-1.3-40-17.8c-14.7-16.5-20.6-35.3-13.1-41.8c7.4-6.8,25.4,1.3,40,17.8
		C278.2,413.4,284,432.2,276.5,438.7"/>
</g>
<path d="M449.9,128.3l-48.4-62.6c-2.8-3.6-7.1-5.7-11.7-5.7h-6.5H116.7h-6.6c-4.5,0-8.9,2.1-11.7,5.7L50,128.3c-2,2.5-3.1,5.7-3.1,9
	h9.6v15.3c0,3,1,6,2.8,8.4l64.9,87.9c2.6,3.6,6.8,5.7,11.3,5.7h85.6l-3.2,5.5l-32.2,55.5h17c-2.6,0-4.7,2.1-4.7,4.7
	c0,2.6,2.1,4.7,4.7,4.7h94.5c2.6,0,4.7-2.1,4.7-4.7c0-2.6-2.1-4.7-4.7-4.7h17.1l-32.1-55.5l-3.2-5.5h85.5c4.5,0,8.7-2.1,11.3-5.7
	l64.9-87.9c1.8-2.5,2.8-5.4,2.8-8.4v-15.3h9.5C453,134.1,451.9,130.9,449.9,128.3z"/>
</svg>
