<?xml version="1.0" encoding="utf-8"?>
<!-- Generator: Adobe Illustrator 24.3.0, SVG Export Plug-In . SVG Version: 6.00 Build 0)  -->
<svg version="1.1" id="Calque_1" xmlns="http://www.w3.org/2000/svg" xmlns:xlink="http://www.w3.org/1999/xlink" x="0px" y="0px"
	 viewBox="0 0 500 500" style="enable-background:new 0 0 500 500;" xml:space="preserve">
<path d="M449.5,374.8l6.4-106.9l-96.4-48.2V96.1H412v-19H88v19h52.5v123.6l-96.4,48.2l6.4,106.9l6-100.7l87.5,43.8l6.2,105l6.3-105
	l87.5-43.7l6,100.7l6-100.7l87.5,43.8l6.3,105l6.2-105l87.5-43.8L449.5,374.8z M340.5,96.1v123.4L250,264.7l-90.5-45.2V96.1H340.5z
	 M150.3,309.8l-83.8-41.9l82.7-41.3h2l82.8,41.3L150.3,309.8z M349.8,309.9l-83.8-42l82.8-41.3h2l82.7,41.4L349.8,309.9z"/>
</svg>
