<?xml version="1.0" encoding="utf-8"?>
<!-- Generator: Adobe Illustrator 22.1.0, SVG Export Plug-In . SVG Version: 6.00 Build 0)  -->
<svg version="1.1" id="Calque_1" xmlns="http://www.w3.org/2000/svg" xmlns:xlink="http://www.w3.org/1999/xlink" x="0px" y="0px"
	 viewBox="0 0 500 500" style="enable-background:new 0 0 500 500;" xml:space="preserve">
<g>
	<path d="M408.2000427,300.3999939c-13.6999512,0-24.7999878,11.0999756-24.7999878,24.7999878v38.7999878h-14.2999878V200.5999451
		H131.0000305v163.2000122h-14.3999634v-38.5999756c0-13.7000122-11.1000366-24.7999878-24.8000488-24.7999878
		c-13.7000122,0.0999756-24.7999878,11.1999512-24.7999878,24.8999634v90c0,13.5999756,11.0999756,24.7000122,24.7999878,24.7000122
		c13.6000366,0,24.8000488-11.1000366,24.8000488-24.7999878v-38.6000366h14.3999634v52.2000122h70.0907593
		c14.8428955,7.0479736,31.425293,11,48.9092407,11s34.0664062-3.9520264,48.9092407-11h70.1907959v-52h14.2999878v38.4000244
		c0,13.6999512,11.0999756,24.7999878,24.7999878,24.7999878s24.7999878-11.1000366,24.7999878-24.7999878v-90
		C433.0000305,311.4999695,421.9000549,300.3999939,408.2000427,300.3999939z M359.7896423,357.7931213l-3.8302612,1.6415405
		l-3.9752808,1.7036743c-6.7678223,19.1986694-18.81073,35.9290161-34.3823242,48.4443359l6.5855103-1.321106l5.4440918-1.0921631
		l0.0493164,0.2459106l0.6194458,3.0878296l-5.0723267,1.0175781l-6.4563599,1.295166l-7.5352173,1.5116577
		c-9.1031494,6.2814331-19.2105713,11.2034302-30.0297852,14.4724121
		c-9.8853149,2.9868774-20.3605347,4.5999756-31.2064209,4.5999756s-21.321167-1.6130981-31.2064819-4.5999756
		c-21.3410645-6.4481812-39.9174805-19.3278809-53.4634399-36.3787231l-3.0960693,1.3268433l-2.9702759,1.2730103
		l-5.378479,2.3050537l-1.3392334-3.124939l4.6248169-1.9820557l2.9550781-1.2664795l3.0645142-1.3133545
		c-13.3692627-17.9902344-21.2904663-40.2575073-21.2904663-64.3393555c0-15.1794434,3.1520386-29.6356812,8.8261719-42.7572021
		l-4.2559814,1.8239746l-4.0479126,1.7348022l-0.5365601,0.2299805l-1.3392944-3.124939l3.6152954-1.5493774l4.2149658-1.8064575
		l4.4713745-1.9162598c13.3518066-27.2710571,37.8499756-48.1344604,67.5221558-56.6046143l-4.6127319-1.9542236
		l-3.8799438-1.6437378l0.1941528-0.458252l1.1322021-2.6724243l3.0372925,1.2867432l4.6442261,1.9675293l4.9085693,2.0795288
		c7.7848511-1.788147,15.8869629-2.7350464,24.2060547-2.7350464c39.2419434,0,73.6686401,21.027771,92.611084,52.4037476
		l3.0062866-1.2883911l2.9129639-1.2484131l4.2601929-1.8258057l1.3392944,3.124939l-3.8953857,1.6694946l-2.9077759,1.2461548
		l-2.9955444,1.2838135c8.762146,15.6098633,13.7688599,33.5978394,13.7688599,52.734436
		c0,10.9645386-1.6467896,21.5510864-4.6968384,31.5313721l3.8317261-1.6422119l3.7191162-1.5938721l0.8362427-0.3583984
		l1.3392944,3.1248779L359.7896423,357.7931213z"/>
	<polygon points="369.0000305,195.1999817 419.3999939,94.4000015 359.3999939,58.9999771 140.6000061,58.9999771 
		80.6000061,94.4000015 131.0000305,195.1999817 	"/>
	
		<rect x="297.4459839" y="231.4848175" transform="matrix(0.3900896 -0.9207769 0.9207769 0.3900896 -42.295681 424.316803)" width="3.4000797" height="25.2006474"/>
	
		<rect x="214.1572418" y="400.0948486" transform="matrix(0.393921 -0.9191443 0.9191443 0.393921 -248.5449982 448.5594482)" width="3.3998339" height="25.298748"/>
	<polygon points="150.0636902,345.4923401 149.6531677,345.8860779 150.2794495,346.539032 163.0818176,359.8870544 
		165.535614,357.5335999 152.1069031,343.5326233 	"/>
	<path d="M350.3968811,322.9352722l-2.4252319,1.1773071l-22.3305664-22.3305664
		c-7.7183838-24.805542-27.3175049-44.4047241-52.1230469-52.1231079l-26.1422729-26.1422729
		c-3.6911621,0.0932007-7.3774414,0.3912964-11.0428467,0.8833008c-2.0971069,0.2814941-4.1871338,0.6255493-6.2668457,1.0375977
		c-19.1102905,3.786377-37.3457642,13.0802612-52.1558838,27.8903809
		c-6.3444214,6.3444214-11.6726074,13.3192749-15.9940186,20.7202148c-0.9293213,1.5914917-1.8096313,3.2035522-2.6453247,4.8326416
		c-7.0842896,13.8093872-10.8144531,28.8953247-11.1768188,44.0493164l26.456604,26.456604
		c7.77948,24.3429565,27.0197754,43.5831909,51.3627319,51.3626709l26.5016479,26.5016479
		c25.255188-0.6039429,50.3286133-10.5426025,69.6021118-29.8161011
		c9.7293701-9.7293701,17.0733032-20.9388428,22.045166-32.9014893c0.6101685-1.4681396,1.184021-2.9475708,1.7225952-4.4371338
		c3.7501831-10.3731079,5.7684326-21.2312012,6.0435181-32.1269531c0.0165405-0.6540527,0.0228882-1.3083496,0.0268555-1.9625854
		l0.0264282-0.0128174l-0.0256348-0.0528564L350.3968811,322.9352722z M314.6261902,290.7670593l-30.0932617-30.0932617
		C297.2809143,267.5168152,307.7831726,278.0190125,314.6261902,290.7670593z M185.8310852,360.6671448l28.8018188,28.8017578
		C202.5387878,382.7730408,192.526886,372.7612,185.8310852,360.6671448z"/>
</g>
</svg>
