<?xml version="1.0" encoding="utf-8"?>
<!-- Generator: Adobe Illustrator 24.3.0, SVG Export Plug-In . SVG Version: 6.00 Build 0)  -->
<svg version="1.1" id="Calque_1" xmlns="http://www.w3.org/2000/svg" xmlns:xlink="http://www.w3.org/1999/xlink" x="0px" y="0px"
	 viewBox="0 0 1000 1000" style="enable-background:new 0 0 1000 1000;" xml:space="preserve">
<style type="text/css">
	.st0{fill:none;}
</style>
<g>
	<polygon class="st0" points="202.4,195 297.5,195 250,90.9 	"/>
	<line class="st0" x1="297.5" y1="195" x2="202.4" y2="195"/>
</g>
<g>
	<path d="M251,807.7l-10.4-9c-3.6-3-6.8-6.2-10.2-9.4s-7-6-10.8-8.4s-7.8-4.8-12-6.8s-8.4-3.8-13.2-5.2l-0.4,1.2
		c2.4,4.2,5.4,7.8,8.4,11.4c3.2,3.4,6.4,6.8,9.8,9.8c3.2,3,7,5.8,10.8,8.2s7.8,4.8,11.6,7.4l11.4,7.6l11.4,7.6
		c7.6,4.8,15.4,9.8,23.2,14.6l0.8-1c-6.6-6.4-13.4-12.6-20.2-18.8L251,807.7z"/>
	<path d="M936,699.5c-7.8,4.8-15.4,9.6-23.2,14.6l-11.4,7.6l-11.4,7.6c-3.8,2.6-7.8,5-11.6,7.4s-7.4,5.2-10.8,8.2s-6.8,6.4-9.8,9.8
		s-6,7.2-8.4,11.4l0.2,0.4L814,753.3c4-1.2,7.6-2.8,11.2-4.6c4.2-2,8.2-4.4,12-6.8c3.8-2.4,7.4-5.2,10.8-8.4
		c3.4-3.2,6.8-6.4,10.2-9.4l10.4-9l10.2-9.2c6.8-6.2,13.6-12.4,20.2-18.8l-0.8-1c-7.8,4.8-15.4,9.6-23.2,14.6l-11.4,7.6l-11.4,7.6
		c-3.8,2.6-7.8,5-11.6,7.4s-7.4,5.2-10.8,8.2s-6.8,6.4-9.8,9.8c-3,3.4-5.8,7-8.2,11.2l-34.6-12.8c3.6-1.2,6.8-2.8,10.2-4.2
		c4.2-2,8.2-4.4,12-6.8c3.8-2.4,7.4-5.2,10.8-8.4c3.4-3.2,6.8-6.4,10.2-9.4l10.4-9l10.2-9.2c6.8-6.2,13.6-12.4,20.2-18.8l-0.8-1
		c-7.8,4.8-15.4,9.6-23.2,14.6l-11.4,7.6l-11.4,7.6c-3.8,2.6-7.8,5-11.6,7.4s-7.4,5.2-10.8,8.2c-3.4,3-6.8,6.4-9.8,9.8
		c-2.8,3.2-5.6,6.8-8,10.6l-33.6-12.4c3.2-1.2,6-2.6,9-4c4.2-2,8.2-4.4,12-6.8c3.8-2.4,7.4-5.2,10.8-8.4c3.4-3.2,6.8-6.4,10.2-9.4
		l10.4-9l10.2-9.2c6.8-6.2,13.6-12.4,20.2-18.8l-0.8-1c-7.8,4.8-15.4,9.6-23.2,14.6l-11.4,7.6l-11.4,7.6c-3.8,2.6-7.8,5-11.6,7.4
		s-7.4,5.2-10.8,8.2c-3.4,3-6.8,6.4-9.8,9.8c-2.6,3-5.2,6.4-7.6,10l-118-44c37.6-8.6,61.4-21.2,61.4-35.2v-30c0-7.6-6.8-14.6-19-21
		l188.4-70.2l-6-16.2h-0.2l0.2-0.8c-2.4-4.2-5.4-7.8-8.4-11.4c-3.2-3.4-6.4-6.8-9.8-9.8c-3.2-3-7-5.8-10.8-8.2
		c-3.8-2.4-7.8-4.8-11.6-7.4l-11.4-7.6l-11.4-7.6c-7.6-4.8-15.4-9.8-23.2-14.6l-0.8,1c6.6,6.4,13.4,12.6,20.2,18.8l10.2,9.2l10.4,9
		c3.6,3,6.8,6.2,10.2,9.4c3.4,3.2,7,6,10.8,8.4s7.8,4.8,12,6.8c4,2,8.2,3.6,12.8,5l-205.6,76.6c-3.6-1.2-7.6-2.2-11.6-3.2
		c0-0.2,0-0.6-0.2-0.8v-17.2c0.2-0.6,0.2-1.2,0.2-1.8c0-10.2-17.8-19.2-45.8-25.2V423.5h284v-38h-248l-96-210h2.8v-25.8h-45.4v25.8
		h2.8l-96,210H136v38h284v113.4c-28,6-45.8,15-45.8,25.2v19.8c-4,1-7.8,2-11.6,3.2l-206.4-76.8l-6,16l-0.2-0.4
		c-4.8,1.2-9,3.2-13.2,5.2s-8.2,4.4-12,6.8s-7.4,5.2-10.8,8.4s-6.8,6.4-10.2,9.4l-10.4,9l-10.2,9.2c-6.8,6.2-13.6,12.4-20.2,18.8
		l1,0.8c7.8-4.8,15.4-9.6,23.2-14.6l11.4-7.6l11.4-7.6c3.8-2.6,7.8-5,11.6-7.4c3.8-2.4,7.4-5.2,10.8-8.2s6.8-6.4,9.8-9.8
		s6-7.2,8.4-11.4l-0.2-0.4l35.6,13.2c-4,1.2-7.6,2.8-11.2,4.6c-4.2,2-8.2,4.4-12,6.8c-3.8,2.4-7.4,5.2-10.8,8.4
		c-3.4,3.2-6.8,6.4-10.2,9.4l-10.4,9l-10.2,9.2c-6.8,6.2-13.6,12.4-20.2,18.8l0.8,1c7.8-4.8,15.4-9.6,23.2-14.6l11.4-7.6l11.4-7.6
		c3.8-2.6,7.8-5,11.6-7.4s7.4-5.2,10.8-8.2c3.4-3,6.8-6.4,9.8-9.8c3-3.4,5.8-7,8.2-11.2l34.6,12.8c-3.6,1.2-6.8,2.8-10.2,4.4
		c-4.2,2-8.2,4.4-12,6.8c-3.8,2.4-7.4,5.2-10.8,8.4c-3.4,3.2-6.8,6.4-10.2,9.4l-10.4,9l-10.2,9.2c-6.8,6.2-13.6,12.4-20.2,18.8
		l0.8,1c7.8-4.8,15.4-9.6,23.2-14.6l11.4-7.6l11.4-7.6c3.8-2.6,7.8-5,11.6-7.4s7.4-5.2,10.8-8.2s6.8-6.4,9.8-9.8
		c2.8-3.2,5.6-6.8,8-10.6l33.6,12.4c-3.2,1.2-6.2,2.6-9,4c-4.2,2-8.2,4.4-12,6.8c-3.8,2.4-7.4,5.2-10.8,8.4
		c-3.4,3.2-6.8,6.4-10.2,9.4l-10.4,9l-10.2,9.2c-6.8,6.2-13.6,12.4-20.2,18.8l0.8,1c7.8-4.8,15.4-9.6,23.2-14.6l11.4-7.6l11.4-7.6
		c3.8-2.6,7.8-5,11.6-7.4s7.4-5.2,10.8-8.2s6.8-6.4,9.8-9.8c2.6-3,5.2-6.4,7.6-10l75.8,28.2c-12.2,6.4-19,13.4-19,21v30
		c0,14,23.8,26.6,61.4,35.2l-230.8,86l6,16.2h0.2l-0.2,0.8c2.4,4.2,5.4,7.8,8.4,11.4c3.2,3.4,6.4,6.8,9.8,9.8c3.2,3,7,5.8,10.8,8.2
		s7.8,4.8,11.6,7.4l11.4,7.6l11.4,7.6c7.6,4.8,15.4,9.8,23.2,14.6l0.8-1c-6.6-6.4-13.4-12.6-20.2-18.8l-10.2-9.2l-10.4-9
		c-3.6-3-6.8-6.2-10.2-9.4s-7-6-10.8-8.4s-7.8-4.8-12-6.8c-4-2-8.2-3.6-12.8-5l257-95.8c25.6,3.6,54.8,5.6,85.8,5.6s60.4-2,85.8-5.6
		l257.8,96l6-15.8l0.2,0.4c4.8-1.2,9-3.2,13.2-5.2s8.2-4.4,12-6.8c3.8-2.4,7.4-5.2,10.8-8.4c3.4-3.2,6.8-6.4,10.2-9.4l10.4-9
		l10.2-9.2c6.8-6.2,13.6-12.4,20.2-18.8L936,699.5z M500,177.3l95,208.2H404.6L500,177.3z"/>
	<path d="M749,483.3l10.4,9c3.6,3,6.8,6.2,10.2,9.4s7,6,10.8,8.4c3.8,2.4,7.8,4.8,12,6.8s8.4,3.8,13.2,5.2l0.4-1.2
		c-2.4-4.2-5.4-7.8-8.4-11.4c-3.2-3.4-6.4-6.8-9.8-9.8c-3.2-3-7-5.8-10.8-8.2c-3.8-2.4-7.8-4.8-11.6-7.4l-11.4-7.6l-11.4-7.6
		c-7.6-4.8-15.4-9.8-23.2-14.6l-0.8,1c6.6,6.4,13.4,12.6,20.2,18.8L749,483.3z"/>
	<path d="M288.8,794.3l-10.4-9c-3.6-3-6.8-6.2-10.2-9.4c-3.4-3.2-7-6-10.8-8.4c-3.8-2.4-7.8-4.8-12-6.8s-8.4-3.8-13.2-5.2l-0.8,1.2
		c2.4,4.2,5.4,7.8,8.4,11.4c3.2,3.4,6.4,6.8,9.8,9.8c3.2,3,7,5.8,10.8,8.2s7.8,4.8,11.6,7.4l11.8,7.6l11.4,7.6
		c7.6,4.8,15.4,9.8,23.2,14.6l0.8-1c-6.6-6.4-13.4-12.6-20.2-18.8L288.8,794.3z"/>
	<path d="M326.6,780.9l-10.4-9c-3.6-3-6.8-6.2-10.2-9.4c-3.4-3.2-7-6-10.8-8.4s-7.8-4.8-12-6.8s-8.4-3.8-13.2-5.2l-0.4,1.2
		c2.4,4.2,5.4,7.8,8.4,11.4c3.2,3.4,6.4,6.8,9.8,9.8c3.2,3,7,5.8,10.8,8.2s7.8,4.8,11.6,7.4l11.4,7.6l11.4,7.6
		c7.6,4.8,15.4,9.8,23.2,14.6l0.8-1c-6.6-6.4-13.4-12.6-20.2-18.8L326.6,780.9z"/>
	<path d="M711.2,496.7l10.4,9c3.6,3,6.8,6.2,10.2,9.4c3.4,3.2,7,6,10.8,8.4s7.8,4.8,12,6.8s8.4,3.8,13.2,5.2l0.4-1.2
		c-2.4-4.2-5.4-7.8-8.4-11.4c-3.2-3.4-6.4-6.8-9.8-9.8c-3.2-3-7-5.8-10.8-8.2c-3.8-2.4-7.8-4.8-11.6-7.4l-11.4-7.6l-11.4-7.6
		c-7.6-4.8-15.4-9.8-23.2-14.6l-0.8,1c6.6,6.4,13.4,12.6,20.2,18.8L711.2,496.7z"/>
	<path d="M673.4,510.1l10.4,9c3.6,3,6.8,6.2,10.2,9.4s7,6,10.8,8.4s7.8,4.8,12,6.8s8.4,3.8,13.2,5.2l0.4-1.2
		c-2.4-4.2-5.4-7.8-8.4-11.4c-3.2-3.4-6.4-6.8-9.8-9.8c-3.2-3-7-5.8-10.8-8.2s-7.8-4.8-11.6-7.4l-11.4-7.6l-11.4-7.6
		c-7.6-4.8-15.4-9.8-23.2-14.6l-0.8,1c6.6,6.4,13.4,12.6,20.2,18.8L673.4,510.1z"/>
</g>
</svg>
