<?xml version="1.0" encoding="utf-8"?>
<!-- Generator: Adobe Illustrator 24.3.0, SVG Export Plug-In . SVG Version: 6.00 Build 0)  -->
<svg version="1.1" id="Calque_1" xmlns="http://www.w3.org/2000/svg" xmlns:xlink="http://www.w3.org/1999/xlink" x="0px" y="0px"
	 viewBox="0 0 1000 1000" style="enable-background:new 0 0 1000 1000;" xml:space="preserve">
<style type="text/css">
	.st0{fill:none;}
</style>
<g>
	<path d="M83.8,812.9c0,21.4,17.5,38.9,38.9,38.9s38.9-17.5,38.9-38.9S144.3,774,122.7,774C101.4,774,83.8,791.6,83.8,812.9z
		 M102.3,812.9c0-11.2,9.2-20.4,20.4-20.4s20.4,9.2,20.4,20.4c0,11.2-9.2,20.4-20.4,20.4C111.5,833.4,102.3,824.2,102.3,812.9z"/>
	<path d="M365.7,771.9c0,43.9,35.9,79.9,79.9,79.9s79.9-35.9,79.9-79.9c0-43.9-35.5-79.9-79.9-79.9
		C401.6,692.1,365.7,728.1,365.7,771.9z M403.6,771.9c0-23,18.9-41.9,41.9-41.9s41.9,18.9,41.9,41.9c0,23-18.9,41.9-41.9,41.9
		S403.6,795,403.6,771.9z"/>
	<g>
		<polygon class="st0" points="490.6,337.5 490.6,422.9 576,337.5 		"/>
		<polygon class="st0" points="490.6,458.6 490.6,494.1 647.2,337.5 611.7,337.5 		"/>
		<path d="M903.4,240.2l-88.3-88.3c-2.4-2.3-5.6-3.6-9-3.7H566.3c-3.4,0-6.5,1.4-9,3.7L469,240.2c-2.3,2.4-3.7,5.6-3.7,9v63.1H176.5
			c-1,0-2,0.1-2.9,0.4c-2,0.4-3.8,1.4-5.3,2.6c-0.6,0.5-1.3,1.2-1.8,1.9c-0.1,0.2-0.4,0.4-0.5,0.6L78.1,430.8
			c-1.8,2.2-2.6,4.9-2.6,7.7v164.1H37.6c-7,0-12.6,5.6-12.6,12.6v75.7c0,7,5.6,12.6,12.6,12.6v88.3c0,7,5.6,12.6,12.6,12.6h26.6
			c4-21.7,23.1-38.2,45.8-38.2c23,0,41.9,16.6,45.8,38.2h186.9c-3.7-10.1-5.7-21.1-5.7-32.5c0-52.7,43.1-95.8,95.8-95.8
			c53.2,0,95.8,43.1,95.8,95.8c0,11.4-2,22.3-5.7,32.5h55.9c4.8,0,9-2.6,11.2-6.9c2.1-4.1,1.8-9.2-0.8-13L490.6,623.9v-94.1
			l192.3-192.3h211.6c7,0,12.6-5.6,12.6-12.6v-75.7C907.1,245.8,905.7,242.6,903.4,240.2z M490.6,337.5h85.4l-85.4,85.4V337.5z
			 M490.6,494.1v-35.5l121.2-121.1h35.5L490.6,494.1z"/>
	</g>
	<path d="M667.4,625c0,0-2.4,17.4,0,25.8c2.6,9.3,5.1,15.5,5.2,25c0.1,9.9-5.2,16.5-5.2,26.4c0.2,9.4,5,15,5.2,24.4
		c0.2,10.1-5.4,16.9-5.2,26.9c0.3,9.2,4.9,14.7,5.2,23.9c0.4,10.2-2.5,17.5-5.2,27.6c-2.2,8.3,0,25.8,0,25.8s26.1-7.5,41-7.2
		c13.3,0.4,22.3,6.8,35.6,7.2c15,0.4,26.3-7.5,41.3-7.2c13.2,0.4,22,6.8,35.2,7.2c15.1,0.4,26.5-7.6,41.6-7.2
		c13.1,0.4,21.8,7.1,35,7.2c13.7,0.1,23.1-7,36.9-7.2c14.6-0.2,39.7,7.2,39.7,7.2s3.1-17.5,0-25.8c-3.4-9.1-8.5-13.4-9-22.9
		c-0.6-11.1,9.7-17.4,9-28.5c-0.6-9.4-8.2-13-9-22.4c-0.7-11.3,9.2-17.7,9-29.1c-0.3-10.5-9.1-15.8-9-26.4c0.1-10.1,5.6-15.4,9-25
		c2.9-8.2,0-25.8,0-25.8s-22,4.2-34.5,4.6c-14.9,0.5-27.1-5-42-4.6c-12.7,0.4-22.2,4.2-35,4.6c-14.8,0.4-26.8-5-41.6-4.6
		c-12.8,0.3-22.4,4.2-35.2,4.6c-14.7,0.4-26.6-5-41.3-4.6c-12.9,0.3-22.7,4.3-35.6,4.6C693.8,629.8,667.4,625,667.4,625L667.4,625z
		 M785.3,656.9c3.5,0,6.8,1.4,9.3,3.8l19,19c5,5.1,5,13.2-0.1,18.3c-5.1,5-13.1,5-18.2,0l-19-19c-5.1-5-5.2-13.1-0.2-18.2
		c2.1-2.2,5-3.5,8-3.8C784.5,656.9,785,656.9,785.3,656.9L785.3,656.9z M911.3,659.1c7.1,0,12.9,5.8,12.9,12.9l0,0
		c0,7.1-5.8,12.9-12.9,12.9l0,0c-7.1,0-12.9-5.8-12.9-12.9l0,0C898.5,664.9,904.2,659.1,911.3,659.1L911.3,659.1z M868.2,701.9
		c7.1-0.1,13,5.6,13.1,12.7c0.1,3.6-1.4,7.1-4.1,9.6l-12.5,12.5c-5.1,5-13.2,5-18.3-0.1c-5-5.1-5-13.1,0-18.2l12.5-12.5
		c2.3-2.4,5.6-3.9,9-4C868,702,868.1,701.9,868.2,701.9L868.2,701.9z M737.6,714.1c7.1-0.1,13,5.5,13.1,12.6
		c0.1,3.5-1.3,6.9-3.8,9.4l-12.5,12.7c-5.1,5.1-13.2,5.1-18.3,0s-5.1-13.2,0-18.3l0,0l12.5-12.5
		C731.1,715.7,734.3,714.2,737.6,714.1L737.6,714.1z M785.4,746.7c3.5,0,6.9,1.4,9.3,3.9l12.7,12.7c5.5,4.5,6.1,12.7,1.6,18.2
		c-4.5,5.5-12.7,6.1-18.2,1.6c-0.6-0.5-1.2-1.1-1.7-1.7l-12.6-12.5c-5.1-5-5.2-13.1-0.2-18.2c2.1-2.1,4.9-3.5,7.8-3.8
		C784.5,746.8,785,746.7,785.4,746.7L785.4,746.7z M887.5,766.3c3.5,0,6.8,1.5,9.2,4l6.2,6.1c5.3,4.8,5.6,13,0.8,18.2
		c-4.8,5.3-13,5.6-18.2,0.8c-0.3-0.2-0.5-0.5-0.7-0.7l-6.2-6.2c-5.1-5-5.2-13.1-0.2-18.2c2.1-2.2,5-3.5,8-3.8
		C886.8,766.3,887.2,766.3,887.5,766.3L887.5,766.3z"/>
</g>
</svg>
