<?xml version="1.0" encoding="utf-8"?>
<!-- Generator: Adobe Illustrator 24.3.0, SVG Export Plug-In . SVG Version: 6.00 Build 0)  -->
<svg version="1.1" id="Calque_1" xmlns="http://www.w3.org/2000/svg" xmlns:xlink="http://www.w3.org/1999/xlink" x="0px" y="0px"
	 viewBox="0 0 1000 1000" style="enable-background:new 0 0 1000 1000;" xml:space="preserve">
<style type="text/css">
	.st0{fill:none;}
</style>
<g>
	<path d="M83.4,810.5c0,21.3,17.4,38.6,38.6,38.6s38.6-17.4,38.6-38.6c0-21.2-17.2-38.6-38.6-38.6
		C100.8,771.9,83.4,789.3,83.4,810.5z M101.7,810.5c0-11.1,9.1-20.2,20.2-20.2s20.2,9.1,20.2,20.2c0,11.1-9.1,20.2-20.2,20.2
		C110.9,830.9,101.7,821.7,101.7,810.5z"/>
	<path d="M363.1,769.8c0,43.6,35.6,79.3,79.3,79.3s79.3-35.6,79.3-79.3s-35.2-79.3-79.3-79.3C398.7,690.6,363.1,726.3,363.1,769.8z
		 M400.7,769.8c0-22.9,18.8-41.6,41.6-41.6c22.9,0,41.6,18.8,41.6,41.6c0,22.9-18.8,41.6-41.6,41.6
		C419.5,811.5,400.7,792.8,400.7,769.8z"/>
	<line class="st0" x1="487" y1="458.9" x2="487" y2="494.1"/>
	<g>
		<path class="st0" d="M872.2,618.3c-25.5,32.2-64.8,53-109,53c-44.7,0-84.5-21.3-109.9-54.3l-6.5,2.8l-1.6-3.8l5.6-2.4
			c-16.5-22.7-26.3-50.8-26.3-81c0-76.4,62.3-138.7,138.7-138.7c39.8,0,75.7,16.9,101,43.8h61.1v-15c0-28.9-23.5-52.4-52.4-52.4
			H653.4c-28.9,0-52.4,23.5-52.4,52.4v288.6h324.4v-93.1L872.2,618.3L872.2,618.3z M673.5,706.6h-47.3v-25.5h47.3V706.6z
			 M731.4,706.6h-47.3v-25.5h47.3V706.6z M742,706.6v-25.5h47.3v25.5H742z M846.9,706.6h-47.3v-25.5h47.3V706.6z M904.8,706.6h-47.3
			v-25.5h47.3V706.6z"/>
		<path d="M756.9,397.9c-0.2,0-0.5,0-0.7,0l0,0C756.4,397.9,756.7,397.9,756.9,397.9z"/>
		<path d="M856.6,441.2c-0.9-1-2.1-2.2-3.1-3.4h-0.2C854.4,438.9,855.5,439.9,856.6,441.2z"/>
		<polygon points="836.1,437.7 809.3,426.4 807.7,430.2 831,440 835.8,442.1 837.4,438.3 		"/>
		<rect x="719.7" y="623.2" transform="matrix(0.3939 -0.9191 0.9191 0.3939 -149.4877 1050.348)" width="4.1" height="30.6"/>
		<rect x="649.2" y="552.8" transform="matrix(0.7217 -0.6922 0.6922 0.7217 -209.5714 607.8911)" width="4.1" height="23.5"/>
		<rect x="876.3" y="486.8" transform="matrix(0.916 -0.4013 0.4013 0.916 -127.6489 394.6491)" width="4.1" height="30.5"/>
		<path d="M852.1,464.7l1.6,3.8l17.5-7.5c-0.7-1.3-1.5-2.4-2.2-3.5L852.1,464.7z"/>
		<path d="M871.4,460.9l0.9-0.3c-0.7-1.3-1.6-2.3-2.4-3.5l-0.7,0.3C870,458.6,870.7,459.7,871.4,460.9z"/>
		<rect x="626.3" y="681.2" width="47.3" height="25.5"/>
		<rect x="684.2" y="681.2" width="47.3" height="25.5"/>
		<rect x="742" y="681.2" width="47.3" height="25.5"/>
		<rect x="799.7" y="681.2" width="47.3" height="25.5"/>
		<rect x="857.6" y="681.2" width="47.3" height="25.5"/>
	</g>
	<path d="M956.9,731.6V618.3H975V437.7h-18.1v-18.1h-14.7c-1.7-36.9-32.2-66.4-69.4-66.4H653.4c-38.4,0-69.5,31.2-69.5,69.5v308.8
		h171.7v50.5H597.2L487,623V423.5v-84.7h84.8h316c6.9,0,12.5-5.6,12.5-12.5v-75.2c0.1-3.4-1.3-6.6-3.6-8.9L809,154.6
		c-2.4-2.3-5.6-3.6-8.9-3.7h-238c-3.4,0-6.5,1.4-8.9,3.7l-87.6,87.6c-2.3,2.4-3.7,5.6-3.7,8.9v62.6H175.3c-0.9,0-2,0.1-2.8,0.4
		c-2,0.4-3.8,1.4-5.2,2.6c-0.6,0.5-1.3,1.2-1.8,1.9c-0.1,0.2-0.4,0.4-0.5,0.6L77.7,431.3c-1.8,2.2-2.6,4.8-2.6,7.7v162.8H37.5
		c-6.9,0-12.5,5.6-12.5,12.5v75.2c0,6.9,5.6,12.5,12.5,12.5v87.6c0,6.9,5.6,12.5,12.5,12.5h26.4c4-21.5,23-37.9,45.5-37.9
		c22.9,0,41.6,16.5,45.5,37.9h185.5c-3.7-10.1-5.7-21-5.7-32.3c0-52.3,42.8-95.1,95.1-95.1c52.8,0,95.1,42.8,95.1,95.1
		c0,11.3-2,22.1-5.7,32.3h55.5h376.4c5.5,0,10-4.5,10-10s-4.5-10-10-10h-188v-50.5H956.9z M601,422.7c0-28.9,23.5-52.4,52.4-52.4
		h219.4c28.9,0,52.4,23.5,52.4,52.4v15h-61.1c-25.3-27-61.1-43.8-101-43.8c-76.4,0-138.7,62.3-138.7,138.7c0,30.3,9.6,58.3,26.3,81
		l-5.6,2.4l1.6,3.8l6.5-2.8c25.5,32.9,65.1,54.3,109.9,54.3c44,0,83.6-20.9,109-53h53.2v93.1H601V422.7z M673.3,603.9l-15.3,6.5
		c-16.2-21.8-25.8-48.9-25.8-77.9c0-1,0-2.3,0-3.4l43.9,43.9c9.5,20.3,26,36.8,46.2,46.2l40.3,40.3c32.5-0.8,64.6-13.5,89.2-38.3
		c1-1,2.1-2.1,3-3.1c22.7-24.2,34.5-55.1,35.2-86.1l-40.6-40.6c-4.7-10-11.1-19-18.9-26.7c-7.8-7.8-16.9-14.2-26.7-18.9l-44.1-44.2
		c1,0,2.1,0,3.1,0c34.9,0,66.6,13.7,90.1,36.1h0.2c1,1,2.1,2.2,3.1,3.4c4.8,4.9,9.3,10.3,13.3,15.9c0.8,1,1.6,2.3,2.4,3.5
		c13.7,20.8,21.7,45.4,21.7,72c0,32.7-12.2,62.6-32,85.6c-24,27.8-59.4,45.3-99,45.3c-37.3,0-71-15.7-94.8-40.8
		c-2.6-2.8-5.2-5.8-7.7-8.8l14.3-6.2L673.3,603.9z"/>
</g>
</svg>
