<svg height="1000" width="1000.0" xmlns="http://www.w3.org/2000/svg"><path d="m500 458.3c-46 0-83.3 37.3-83.3 83.4s37.3 83.3 83.3 83.3 83.3-37.3 83.3-83.3-37.3-83.4-83.3-83.4z m250 83.4c0-138.2-111.9-250-250-250s-250 111.8-250 250c0 92.5 50.2 172.9 124.8 216.2l42.1-72.5c-49.8-28.9-83.6-82.1-83.6-143.7 0-92.1 74.6-166.7 166.7-166.7s166.7 74.6 166.7 166.7c0 61.6-33.8 114.8-83.6 143.5l42.1 72.5c74.6-43.1 124.8-123.5 124.8-216z m-250-416.7c-230.2 0-416.7 186.5-416.7 416.7 0 153.9 83.8 288.1 208.2 360.2l41.6-72.1c-99.3-57.5-166.4-165-166.4-288.1 0-184.2 149.1-333.4 333.3-333.4s333.3 149.2 333.3 333.4c0 123.1-67 230.6-166.4 288.3l41.6 72.1c124.4-72.3 208.2-206.5 208.2-360.4 0-230.2-186.7-416.7-416.7-416.7z" /></svg>