<?xml version="1.0" encoding="utf-8"?>
<!-- Generator: Adobe Illustrator 24.3.0, SVG Export Plug-In . SVG Version: 6.00 Build 0)  -->
<svg version="1.1" id="Calque_1" xmlns="http://www.w3.org/2000/svg" xmlns:xlink="http://www.w3.org/1999/xlink" x="0px" y="0px"
	 viewBox="0 0 1000 1000" style="enable-background:new 0 0 1000 1000;" xml:space="preserve">
<path d="M960.2,787.8L975,541.2L752.6,430V144.8h121.1V101H126.3v43.8h121.1V430L25,541.2l14.8,246.6l13.8-232.3l201.9,101
	l14.3,242.2l14.5-242.2l201.9-100.8L500,788l13.8-232.3l201.9,101L730.2,899l14.3-242.2l201.9-101L960.2,787.8z M708.8,144.8v284.7
	L500,533.8L291.2,429.5V144.8H708.8z M270,637.8L76.7,541.2l190.8-95.3h4.6l191,95.3L270,637.8z M730.2,638.1l-193.3-96.9l191-95.3
	h4.6l190.8,95.5L730.2,638.1z"/>
</svg>
