<?xml version="1.0" encoding="utf-8"?>
<!-- Generator: Adobe Illustrator 24.3.0, SVG Export Plug-In . SVG Version: 6.00 Build 0)  -->
<svg version="1.1" id="Calque_1" xmlns="http://www.w3.org/2000/svg" xmlns:xlink="http://www.w3.org/1999/xlink" x="0px" y="0px"
	 viewBox="0 0 1000 1000" style="enable-background:new 0 0 1000 1000;" xml:space="preserve">
<g>
	<path d="M456,507.1l-33-10.4c-2-12.4-4.4-24.6-7.4-36.4c6-17.4,13-33.8,19-50.8c0.8-2.6,1.4-5.2,1.4-8.6c0-3-0.6-6-1.4-8.2
		c-7.4-21.8-20-44.8-29.6-63c-1.2-2.2-2.8-3.6-4.4-3.6s-3.4,1.2-4.4,3.4l-25.6,39.6c-5.2-5.6-10.8-10-16.2-13.8l-5-68.2
		c-0.6-6.4-3.4-11.2-6.6-11.2l-39.8-0.2c-3.4,0-5.8,4.4-6.6,10.4c-3,22.2-3.8,46.4-5.2,69c-5.6,3.8-11.2,8.6-16.4,14.2l-25-39.8
		c-1.4-2.2-3-3.6-4.6-3.6c-6.2,0-30.4,54.2-34.8,66.4c-0.8,2.6-1.6,5.2-1.6,8.6s1,6.4,2,9c6.6,16.6,13.2,33.4,19.2,51.2
		c-3,11.2-5.6,22.4-7.2,34.2l-33.4,10.4c-2.8,1-5,7.6-5,13.2v82.4c0,6.4,2.2,12.2,5.2,13.4l33,10c2,12.6,4.4,24.8,7.4,36.6
		c-6,17.4-13,33.8-19,50.8c-0.8,2.6-1.4,5.2-1.4,8.6c0,3,0.6,6,1.4,8.6c7.4,21.6,20,44.6,29.6,62.4c1.2,2.6,2.8,4,4.4,4
		s3-1.2,4.4-3.4l25.6-39.6c5.2,5.6,10.8,10,16.2,13.8l5,68.2c0.6,6.4,3.4,11.2,6.6,11.2h40c3.4,0,5.8-4.4,6.6-10.4
		c2.8-22.2,3.8-46.4,5.2-69c5.6-3.8,11.2-8.6,16.4-14.2l25,40c1.4,2,3,3.4,4.6,3.4c6.2,0,30.4-54.6,34.8-66.4c1-2.6,1.6-5.4,1.6-8.6
		c0-3.2-1-6.6-2-9.2c-6.6-16.6-13.2-33-19.2-51.2c3-10.8,5.2-22,7.2-33.8l33.2-10.4c2.8-1,5-7.6,5-13.2v-82.4
		C461.2,514.1,459,508.3,456,507.1z"/>
	<path d="M810,507.1l-33-10.4c-2-12.4-4.4-24.6-7.4-36.4c6-17.4,13-33.8,19-50.8c0.8-2.6,1.4-5.2,1.4-8.6c0-3-0.6-6-1.4-8.2
		c-7.4-21.8-20-44.8-29.6-63c-1.2-2.2-2.8-3.6-4.4-3.6c-1.6,0-3.4,1.2-4.4,3.4l-25.6,39.6c-5.2-5.6-10.8-10-16.2-13.8l-5-68.2
		c-0.6-6.4-3.4-11.2-6.6-11.2l-39.8-0.2c-3.4,0-5.8,4.4-6.6,10.4c-3,22.2-3.8,46.4-5.2,69c-5.6,3.8-11.2,8.6-16.4,14.2l-25-39.8
		c-1.4-2.2-3-3.6-4.6-3.6c-6.2,0-30.4,54.2-34.8,66.4c-0.8,2.6-1.6,5.2-1.6,8.6s1,6.4,2,9c6.6,16.6,13.2,33.4,19.2,51.2
		c-3,11.2-5.6,22.4-7.2,34.2l-33.4,10.4c-2.8,1-5,7.6-5,13.2v82.4c0,6.4,2.2,12.2,5.2,13.4l33,10c2,12.6,4.4,24.8,7.4,36.6
		c-6,17.4-13,33.8-19,50.8c-0.8,2.6-1.4,5.2-1.4,8.6c0,3,0.6,6,1.4,8.6c7.4,21.6,20,44.6,29.6,62.4c1.2,2.6,2.8,4,4.4,4
		s3-1.2,4.4-3.4l25.6-39.6c5.2,5.6,10.8,10,16.2,13.8l5,68.2c0.6,6.4,3.4,11.2,6.6,11.2h40c3.4,0,5.8-4.4,6.6-10.4
		c2.8-22.2,3.8-46.4,5.2-69c5.6-3.8,11.2-8.6,16.4-14.2l25,40c1.4,2,3,3.4,4.6,3.4c6.2,0,30.4-54.6,34.8-66.4c1-2.6,1.6-5.4,1.6-8.6
		c0-3.2-1-6.6-2-9.2c-6.6-16.6-13.2-33-19.2-51.2c3-10.8,5.2-22,7.2-33.8l33.2-10.4c2.8-1,5-7.6,5-13.2v-82.4
		C815.2,514.1,813,508.3,810,507.1z"/>
	<polygon points="176,154.1 176,192.1 304,192.1 304,255.9 342,255.9 342,192.1 658,192.1 658,255.9 696,255.9 696,192.1 824,192.1 
		824,154.1 	"/>
</g>
</svg>
