<?xml version="1.0" encoding="utf-8"?>
<!-- Generator: Adobe Illustrator 24.3.0, SVG Export Plug-In . SVG Version: 6.00 Build 0)  -->
<svg version="1.1" id="Calque_1" xmlns="http://www.w3.org/2000/svg" xmlns:xlink="http://www.w3.org/1999/xlink" x="0px" y="0px"
	 viewBox="0 0 1000 1000" style="enable-background:new 0 0 1000 1000;" xml:space="preserve">
<style type="text/css">
	.st0{fill:none;}
</style>
<g>
	<g>
		<path d="M222.8,511.6c-42.8,0-77,34.6-77,77c0,42.4,34.6,77,77,77s77-34.6,77-77C299.8,546.3,265,511.6,222.8,511.6z M222.8,624.1
			c-19.5,0-35.5-15.9-35.5-35.5s15.9-35.5,35.5-35.5s35.5,15.9,35.5,35.5S242.4,624.1,222.8,624.1z"/>
	</g>
	<g>
		<path d="M621.1,511.6c-42.8,0-77,34.6-77,77c0,42.4,34.6,77,77,77c42.4,0,77-34.6,77-77C698.1,546.3,663.2,511.6,621.1,511.6z
			 M621.1,624.1c-19.5,0-35.5-15.9-35.5-35.5s15.9-35.5,35.5-35.5s35.5,15.9,35.5,35.5S640.6,624.1,621.1,624.1z"/>
	</g>
	<g>
		<polygon class="st0" points="583.7,465.7 594.2,465.7 594.2,356.8 579.7,356.8 		"/>
		<polygon class="st0" points="668.5,357 662.6,465.9 683.4,465.9 702,357 		"/>
		<polygon class="st0" points="609.5,465.7 656.1,465.7 662,356.8 609.5,356.8 		"/>
		<path d="M222.8,503.9c35.7,0,66.3,22.3,78.8,53.8V354.5c-2.8-6.1-6.8-9.9-11.2-9.9c-7.2,0-13.2,9.9-14.9,23.3h-28.2
			c-1.6-13.4-7.7-23.3-14.9-23.3c-7.2,0-13.2,9.9-14.9,23.3h-28.4c-1.6-13.4-7.7-23.3-14.9-23.3c-7.2,0-13.2,9.9-14.9,23.3H87.9
			l-2.9,24.6L25,423.1l38.2,158.2h75.2C142.2,537.9,178.5,503.9,222.8,503.9z"/>
		<path d="M550.3,542V367.8h-12.6c-1.7-13.3-7.7-23.2-14.8-23.2c-7.2,0-13.2,9.9-14.8,23.2h-28.4c-1.7-13.3-7.7-23.2-14.8-23.2
			c-7.2,0-13.2,9.9-14.8,23.2h-28.4c-1.7-13.3-7.7-23.2-14.8-23.2c-3.8,0-7.3,2.8-10,7.4v277.6h150.2c-6.8-12.2-10.6-26.2-10.6-41
			C536.3,571.4,541.5,555.4,550.3,542z"/>
		<path d="M309.9,334.4v301.5h78.3V334.4H309.9z M315.1,540.8v-21.4h68v21.4H315.1z M383,549.4v21.4h-68v-21.4H383z M315.1,510.8
			v-21.4h68v21.4H315.1z M315.1,481.1v-21.4h68v21.4H315.1z M315.1,451.1v-21.4h68v21.4H315.1z M315.1,421.3v-21.4h68v21.4H315.1z
			 M315.1,391.4V370h68v21.4H315.1z M315.1,361.6v-21.4h68v21.4H315.1z M315.1,579.1h68v21.4h-68V579.1z M383,630.5h-68v-21.4h68
			V630.5z"/>
		<path d="M923,638.4c0-15.1,12.2-27.3,27.3-27.3v-13.4l-61.5-12.6l-52.2-35.2l-57.9,10.7l-47.4-21.6L685.9,484v-0.5h-1.3l3.4-2.5
			l6.5-36.5l15.5-90l2.5-14.9l-3.4-4H562.9l-3.4,3.4v191.4c15.4-16.3,37.3-26.5,61.5-26.5c46.8,0,84.8,38,84.8,84.8
			c0,29.5-15.1,55.5-38,70.7h265C926.8,654.4,923,646.8,923,638.4z M594.2,465.7h-10.5l-4-108.9h14.5V465.7z M656.1,465.7h-46.6
			V356.8H662L656.1,465.7z M662.6,465.9l5.9-108.9H702l-18.7,108.9H662.6z"/>
	</g>
	<g>
		<path d="M950.2,613.6c-13.6,0-24.8,11.1-24.8,24.8c0,13.6,11.1,24.8,24.8,24.8S975,652,975,638.4
			C975,624.7,963.9,613.6,950.2,613.6z M950.2,649.7c-6.1,0-11.3-5-11.3-11.3c0-6.3,5.2-11.3,11.3-11.3c6.3,0,11.3,5,11.3,11.3
			C961.6,644.7,956.3,649.7,950.2,649.7z"/>
	</g>
</g>
</svg>
