<?xml version="1.0" encoding="utf-8"?>
<!-- Generator: Adobe Illustrator 24.3.0, SVG Export Plug-In . SVG Version: 6.00 Build 0)  -->
<svg version="1.1" id="Calque_1" xmlns="http://www.w3.org/2000/svg" xmlns:xlink="http://www.w3.org/1999/xlink" x="0px" y="0px"
	 viewBox="0 0 1000 1000" style="enable-background:new 0 0 1000 1000;" xml:space="preserve">
<path d="M899,749.5l12.8-213.8L719,439.3V192.1h105v-38H176v38h105v247.2L88.2,535.7L101,749.5l12-201.4l175,87.6l12.4,210l12.6-210
	l175-87.4l12,201.4l12-201.4l175,87.6l12.6,210l12.4-210l175-87.6L899,749.5z M681,192.1v246.8l-181,90.4l-181-90.4V192.1H681z
	 M300.6,619.5L133,535.7l165.4-82.6h4L468,535.7L300.6,619.5z M699.6,619.7l-167.6-84l165.6-82.6h4L867,535.9L699.6,619.7z"/>
</svg>
