<?xml version="1.0" encoding="utf-8"?>
<!-- Generator: Adobe Illustrator 24.3.0, SVG Export Plug-In . SVG Version: 6.00 Build 0)  -->
<svg version="1.1" id="Calque_1" xmlns="http://www.w3.org/2000/svg" xmlns:xlink="http://www.w3.org/1999/xlink" x="0px" y="0px"
	 viewBox="0 0 1000 1000" style="enable-background:new 0 0 1000 1000;" xml:space="preserve">
<style type="text/css">
	.st0{fill:none;}
</style>
<g>
	<path d="M102.6,796c0,20.3,16.6,36.8,36.8,36.8s36.8-16.6,36.8-36.8s-16.4-36.8-36.8-36.8C119.2,759.2,102.6,775.8,102.6,796z
		 M120.1,796c0-10.6,8.7-19.3,19.3-19.3s19.3,8.7,19.3,19.3s-8.7,19.3-19.3,19.3C128.8,815.4,120.1,806.7,120.1,796z"/>
	<path d="M369.4,757.2c0,41.6,34,75.6,75.6,75.6s75.6-34,75.6-75.6S487,681.6,445,681.6C403.4,681.6,369.4,715.7,369.4,757.2z
		 M405.3,757.2c0-21.8,17.9-39.7,39.7-39.7s39.7,17.9,39.7,39.7s-17.9,39.7-39.7,39.7S405.3,779.1,405.3,757.2z"/>
	<line class="st0" x1="487.6" y1="460.6" x2="487.6" y2="494.2"/>
	<g>
		<path class="st0" d="M855,612.6c-24.3,30.7-61.8,50.6-104,50.6c-42.6,0-80.6-20.3-104.8-51.8l-6.2,2.7l-1.5-3.6l5.3-2.3
			c-15.7-21.7-25.1-48.5-25.1-77.3c0-72.9,59.4-132.3,132.3-132.3c38,0,72.2,16.1,96.3,41.8h58.3v-14.3c0-27.6-22.4-50-50-50H646.3
			c-27.6,0-50,22.4-50,50v275.3h309.4v-88.8H855z M665.5,696.9h-45.1v-24.3h45.1V696.9z M720.7,696.9h-45.1v-24.3h45.1V696.9z
			 M730.8,696.9v-24.3h45.1v24.3H730.8z M830.9,696.9h-45.1v-24.3h45.1V696.9z M886.1,696.9h-45.1v-24.3h45.1V696.9z"/>
		<path d="M745.1,402.4c-0.2,0-0.5,0-0.7,0l0,0C744.6,402.4,744.9,402.4,745.1,402.4z"/>
		<path d="M840.2,443.7c-0.9-1-2-2.1-3-3.2h-0.2C838.1,441.5,839.1,442.5,840.2,443.7z"/>
		<polygon points="820.6,440.4 795,429.6 793.5,433.2 815.7,442.6 820.3,444.6 821.8,440.9 		"/>
		<rect x="709.6" y="617.3" transform="matrix(0.3939 -0.9191 0.9191 0.3939 -149.5775 1037.0194)" width="3.9" height="29.2"/>
		<rect x="642.3" y="550.2" transform="matrix(0.7217 -0.6922 0.6922 0.7217 -209.3158 602.1871)" width="3.9" height="22.4"/>
		<rect x="858.9" y="487.2" transform="matrix(0.916 -0.4013 0.4013 0.916 -129.0114 387.6221)" width="3.9" height="29.1"/>
		<path d="M835.9,466.1l1.5,3.6l16.7-7.2c-0.7-1.2-1.4-2.3-2.1-3.3L835.9,466.1z"/>
		<path d="M854.3,462.5l0.9-0.3c-0.7-1.2-1.5-2.2-2.3-3.3l-0.7,0.3C852.9,460.3,853.6,461.4,854.3,462.5z"/>
		<rect x="620.5" y="672.6" width="45.1" height="24.3"/>
		<rect x="675.7" y="672.6" width="45.1" height="24.3"/>
		<rect x="730.8" y="672.6" width="45.1" height="24.3"/>
		<rect x="785.9" y="672.6" width="45.1" height="24.3"/>
		<rect x="841.1" y="672.6" width="45.1" height="24.3"/>
	</g>
	<path d="M935.8,720.7V612.6h17.3V440.4h-17.3v-17.3h-14c-1.6-35.2-30.7-63.3-66.2-63.3H646.3c-36.6,0-66.3,29.8-66.3,66.3v294.6
		h163.8v48.2H592.7L487.6,617.1V426.8V346h80.9h301.4c6.6,0,11.9-5.3,11.9-11.9v-71.7c0.1-3.2-1.2-6.3-3.4-8.5l-83.6-83.6
		c-2.3-2.2-5.3-3.4-8.5-3.5h-227c-3.2,0-6.2,1.3-8.5,3.5l-83.6,83.6c-2.2,2.3-3.5,5.3-3.5,8.5v59.7H190.3c-0.9,0-1.9,0.1-2.7,0.4
		c-1.9,0.4-3.6,1.3-5,2.5c-0.6,0.5-1.2,1.1-1.7,1.8c-0.1,0.2-0.4,0.4-0.5,0.6L97.2,434.3c-1.7,2.1-2.5,4.6-2.5,7.3v155.3H58.8
		c-6.6,0-11.9,5.3-11.9,11.9v71.7c0,6.6,5.3,11.9,11.9,11.9V776c0,6.6,5.3,11.9,11.9,11.9h25.2c3.8-20.5,21.9-36.2,43.4-36.2
		c21.8,0,39.7,15.7,43.4,36.2h176.9c-3.5-9.6-5.4-20-5.4-30.8c0-49.9,40.8-90.7,90.7-90.7c50.4,0,90.7,40.8,90.7,90.7
		c0,10.8-1.9,21.1-5.4,30.8h52.9h359c5.2,0,9.5-4.3,9.5-9.5s-4.3-9.5-9.5-9.5H762.8v-48.2H935.8z M596.3,426.1c0-27.6,22.4-50,50-50
		h209.3c27.6,0,50,22.4,50,50v14.3h-58.3c-24.1-25.8-58.3-41.8-96.3-41.8c-72.9,0-132.3,59.4-132.3,132.3c0,28.9,9.2,55.6,25.1,77.3
		l-5.3,2.3l1.5,3.6l6.2-2.7c24.3,31.4,62.1,51.8,104.8,51.8c42,0,79.7-19.9,104-50.6h50.7v88.8H596.3V426.1z M665.3,598.9l-14.6,6.2
		c-15.5-20.8-24.6-46.6-24.6-74.3c0-1,0-2.2,0-3.2l41.9,41.9c9.1,19.4,24.8,35.1,44.1,44.1l38.4,38.4c31-0.8,61.6-12.9,85.1-36.5
		c1-1,2-2,2.9-3c21.7-23.1,32.9-52.6,33.6-82.1l-38.7-38.7c-4.5-9.5-10.6-18.1-18-25.5c-7.4-7.4-16.1-13.5-25.5-18L747.8,406
		c1,0,2,0,3,0c33.3,0,63.5,13.1,85.9,34.4h0.2c1,1,2,2.1,3,3.2c4.6,4.7,8.9,9.8,12.7,15.2c0.8,1,1.5,2.2,2.3,3.3
		c13.1,19.8,20.7,43.3,20.7,68.7c0,31.2-11.6,59.7-30.5,81.7c-22.9,26.5-56.7,43.2-94.4,43.2c-35.6,0-67.7-15-90.4-38.9
		c-2.5-2.7-5-5.5-7.3-8.4l13.6-5.9L665.3,598.9z"/>
</g>
</svg>
