<?xml version="1.0" encoding="utf-8"?>
<!-- Generator: Adobe Illustrator 24.3.0, SVG Export Plug-In . SVG Version: 6.00 Build 0)  -->
<svg version="1.1" id="Calque_1" xmlns="http://www.w3.org/2000/svg" xmlns:xlink="http://www.w3.org/1999/xlink" x="0px" y="0px"
	 viewBox="0 0 500 500" style="enable-background:new 0 0 500 500;" xml:space="preserve">
<style type="text/css">
	.st0{fill:none;}
</style>
<g>
	<polygon class="st0" points="202.4,195 297.5,195 250,90.9 	"/>
	<line x1="297.5" y1="195" x2="202.4" y2="195"/>
</g>
<g>
	<path d="M125.5,406.1l-5.2-4.5c-1.8-1.5-3.4-3.1-5.1-4.7c-1.7-1.6-3.5-3-5.4-4.2c-1.9-1.2-3.9-2.4-6-3.4c-2.1-1-4.2-1.9-6.6-2.6
		l-0.2,0.6c1.2,2.1,2.7,3.9,4.2,5.7c1.6,1.7,3.2,3.4,4.9,4.9c1.6,1.5,3.5,2.9,5.4,4.1s3.9,2.4,5.8,3.7l5.7,3.8l5.7,3.8
		c3.8,2.4,7.7,4.9,11.6,7.3l0.4-0.5c-3.3-3.2-6.7-6.3-10.1-9.4L125.5,406.1z"/>
	<path d="M468,352c-3.9,2.4-7.7,4.8-11.6,7.3l-5.7,3.8l-5.7,3.8c-1.9,1.3-3.9,2.5-5.8,3.7c-1.9,1.2-3.7,2.6-5.4,4.1
		s-3.4,3.2-4.9,4.9s-3,3.6-4.2,5.7l0.1,0.2l-17.8-6.6c2-0.6,3.8-1.4,5.6-2.3c2.1-1,4.1-2.2,6-3.4c1.9-1.2,3.7-2.6,5.4-4.2
		c1.7-1.6,3.4-3.2,5.1-4.7l5.2-4.5l5.1-4.6c3.4-3.1,6.8-6.2,10.1-9.4l-0.4-0.5c-3.9,2.4-7.7,4.8-11.6,7.3l-5.7,3.8l-5.7,3.8
		c-1.9,1.3-3.9,2.5-5.8,3.7c-1.9,1.2-3.7,2.6-5.4,4.1s-3.4,3.2-4.9,4.9c-1.5,1.7-2.9,3.5-4.1,5.6l-17.3-6.4c1.8-0.6,3.4-1.4,5.1-2.1
		c2.1-1,4.1-2.2,6-3.4c1.9-1.2,3.7-2.6,5.4-4.2c1.7-1.6,3.4-3.2,5.1-4.7l5.2-4.5l5.1-4.6c3.4-3.1,6.8-6.2,10.1-9.4l-0.4-0.5
		c-3.9,2.4-7.7,4.8-11.6,7.3l-5.7,3.8l-5.7,3.8c-1.9,1.3-3.9,2.5-5.8,3.7c-1.9,1.2-3.7,2.6-5.4,4.1c-1.7,1.5-3.4,3.2-4.9,4.9
		c-1.4,1.6-2.8,3.4-4,5.3l-16.8-6.2c1.6-0.6,3-1.3,4.5-2c2.1-1,4.1-2.2,6-3.4c1.9-1.2,3.7-2.6,5.4-4.2c1.7-1.6,3.4-3.2,5.1-4.7
		l5.2-4.5l5.1-4.6c3.4-3.1,6.8-6.2,10.1-9.4l-0.4-0.5c-3.9,2.4-7.7,4.8-11.6,7.3l-5.7,3.8l-5.7,3.8c-1.9,1.3-3.9,2.5-5.8,3.7
		c-1.9,1.2-3.7,2.6-5.4,4.1c-1.7,1.5-3.4,3.2-4.9,4.9c-1.3,1.5-2.6,3.2-3.8,5l-59-22c18.8-4.3,30.7-10.6,30.7-17.6v-15
		c0-3.8-3.4-7.3-9.5-10.5l94.2-35.1l-3-8.1l-0.1,0l0.1-0.4c-1.2-2.1-2.7-3.9-4.2-5.7c-1.6-1.7-3.2-3.4-4.9-4.9
		c-1.6-1.5-3.5-2.9-5.4-4.1c-1.9-1.2-3.9-2.4-5.8-3.7l-5.7-3.8l-5.7-3.8c-3.8-2.4-7.7-4.9-11.6-7.3l-0.4,0.5
		c3.3,3.2,6.7,6.3,10.1,9.4l5.1,4.6l5.2,4.5c1.8,1.5,3.4,3.1,5.1,4.7c1.7,1.6,3.5,3,5.4,4.2c1.9,1.2,3.9,2.4,6,3.4
		c2,1,4.1,1.8,6.4,2.5l-102.8,38.3c-1.8-0.6-3.8-1.1-5.8-1.6c0-0.1,0-0.3-0.1-0.4v-8.6c0.1-0.3,0.1-0.6,0.1-0.9
		c0-5.1-8.9-9.6-22.9-12.6V214h142v-19H307.9l-48-105h1.4V77.1h-22.7V90h1.4l-48,105H68v19h142v56.7c-14,3-22.9,7.5-22.9,12.6v9.9
		c-2,0.5-3.9,1-5.8,1.6L78.1,256.4l-3,8l-0.1-0.2c-2.4,0.6-4.5,1.6-6.6,2.6s-4.1,2.2-6,3.4s-3.7,2.6-5.4,4.2
		c-1.7,1.6-3.4,3.2-5.1,4.7l-5.2,4.5l-5.1,4.6c-3.4,3.1-6.8,6.2-10.1,9.4L32,298c3.9-2.4,7.7-4.8,11.6-7.3l5.7-3.8l5.7-3.8
		c1.9-1.3,3.9-2.5,5.8-3.7c1.9-1.2,3.7-2.6,5.4-4.1s3.4-3.2,4.9-4.9s3-3.6,4.2-5.7l-0.1-0.2l17.8,6.6c-2,0.6-3.8,1.4-5.6,2.3
		c-2.1,1-4.1,2.2-6,3.4c-1.9,1.2-3.7,2.6-5.4,4.2c-1.7,1.6-3.4,3.2-5.1,4.7l-5.2,4.5l-5.1,4.6c-3.4,3.1-6.8,6.2-10.1,9.4l0.4,0.5
		c3.9-2.4,7.7-4.8,11.6-7.3l5.7-3.8l5.7-3.8c1.9-1.3,3.9-2.5,5.8-3.7c1.9-1.2,3.7-2.6,5.4-4.1c1.7-1.5,3.4-3.2,4.9-4.9
		c1.5-1.7,2.9-3.5,4.1-5.6l17.3,6.4c-1.8,0.6-3.4,1.4-5.1,2.2c-2.1,1-4.1,2.2-6,3.4c-1.9,1.2-3.7,2.6-5.4,4.2
		c-1.7,1.6-3.4,3.2-5.1,4.7l-5.2,4.5l-5.1,4.6c-3.4,3.1-6.8,6.2-10.1,9.4l0.4,0.5c3.9-2.4,7.7-4.8,11.6-7.3l5.7-3.8l5.7-3.8
		c1.9-1.3,3.9-2.5,5.8-3.7c1.9-1.2,3.7-2.6,5.4-4.1s3.4-3.2,4.9-4.9c1.4-1.6,2.8-3.4,4-5.3l16.8,6.2c-1.6,0.6-3.1,1.3-4.5,2
		c-2.1,1-4.1,2.2-6,3.4c-1.9,1.2-3.7,2.6-5.4,4.2c-1.7,1.6-3.4,3.2-5.1,4.7l-5.2,4.5l-5.1,4.6c-3.4,3.1-6.8,6.2-10.1,9.4l0.4,0.5
		c3.9-2.4,7.7-4.8,11.6-7.3l5.7-3.8l5.7-3.8c1.9-1.3,3.9-2.5,5.8-3.7c1.9-1.2,3.7-2.6,5.4-4.1s3.4-3.2,4.9-4.9
		c1.3-1.5,2.6-3.2,3.8-5l37.9,14.1c-6.1,3.2-9.5,6.7-9.5,10.5v15c0,7,11.9,13.3,30.7,17.6l-115.4,43l3,8.1l0.1,0l-0.1,0.4
		c1.2,2.1,2.7,3.9,4.2,5.7c1.6,1.7,3.2,3.4,4.9,4.9c1.6,1.5,3.5,2.9,5.4,4.1c1.9,1.2,3.9,2.4,5.8,3.7l5.7,3.8l5.7,3.8
		c3.8,2.4,7.7,4.9,11.6,7.3l0.4-0.5c-3.3-3.2-6.7-6.3-10.1-9.4l-5.1-4.6l-5.2-4.5c-1.8-1.5-3.4-3.1-5.1-4.7c-1.7-1.6-3.5-3-5.4-4.2
		c-1.9-1.2-3.9-2.4-6-3.4c-2-1-4.1-1.8-6.4-2.5l128.5-47.9c12.8,1.8,27.4,2.8,42.9,2.8c15.5,0,30.2-1,42.9-2.8l128.9,48l3-7.9
		l0.1,0.2c2.4-0.6,4.5-1.6,6.6-2.6c2.1-1,4.1-2.2,6-3.4c1.9-1.2,3.7-2.6,5.4-4.2c1.7-1.6,3.4-3.2,5.1-4.7l5.2-4.5l5.1-4.6
		c3.4-3.1,6.8-6.2,10.1-9.4L468,352z M250,90.9L297.5,195h-95.2L250,90.9z"/>
	<path d="M374.5,243.9l5.2,4.5c1.8,1.5,3.4,3.1,5.1,4.7s3.5,3,5.4,4.2c1.9,1.2,3.9,2.4,6,3.4c2.1,1,4.2,1.9,6.6,2.6l0.2-0.6
		c-1.2-2.1-2.7-3.9-4.2-5.7c-1.6-1.7-3.2-3.4-4.9-4.9c-1.6-1.5-3.5-2.9-5.4-4.1c-1.9-1.2-3.9-2.4-5.8-3.7l-5.7-3.8l-5.7-3.8
		c-3.8-2.4-7.7-4.9-11.6-7.3l-0.4,0.5c3.3,3.2,6.7,6.3,10.1,9.4L374.5,243.9z"/>
	<path d="M144.4,399.4l-5.2-4.5c-1.8-1.5-3.4-3.1-5.1-4.7c-1.7-1.6-3.5-3-5.4-4.2c-1.9-1.2-3.9-2.4-6-3.4c-2.1-1-4.2-1.9-6.6-2.6
		l-0.4,0.6c1.2,2.1,2.7,3.9,4.2,5.7c1.6,1.7,3.2,3.4,4.9,4.9c1.6,1.5,3.5,2.9,5.4,4.1s3.9,2.4,5.8,3.7l5.9,3.8l5.7,3.8
		c3.8,2.4,7.7,4.9,11.6,7.3l0.4-0.5c-3.3-3.2-6.7-6.3-10.1-9.4L144.4,399.4z"/>
	<path d="M163.3,392.7l-5.2-4.5c-1.8-1.5-3.4-3.1-5.1-4.7c-1.7-1.6-3.5-3-5.4-4.2c-1.9-1.2-3.9-2.4-6-3.4c-2.1-1-4.2-1.9-6.6-2.6
		l-0.2,0.6c1.2,2.1,2.7,3.9,4.2,5.7c1.6,1.7,3.2,3.4,4.9,4.9c1.6,1.5,3.5,2.9,5.4,4.1c1.9,1.2,3.9,2.4,5.8,3.7l5.7,3.8l5.7,3.8
		c3.8,2.4,7.7,4.9,11.6,7.3l0.4-0.5c-3.3-3.2-6.7-6.3-10.1-9.4L163.3,392.7z"/>
	<path d="M355.6,250.6l5.2,4.5c1.8,1.5,3.4,3.1,5.1,4.7c1.7,1.6,3.5,3,5.4,4.2c1.9,1.2,3.9,2.4,6,3.4c2.1,1,4.2,1.9,6.6,2.6l0.2-0.6
		c-1.2-2.1-2.7-3.9-4.2-5.7c-1.6-1.7-3.2-3.4-4.9-4.9c-1.6-1.5-3.5-2.9-5.4-4.1c-1.9-1.2-3.9-2.4-5.8-3.7l-5.7-3.8l-5.7-3.8
		c-3.8-2.4-7.7-4.9-11.6-7.3l-0.4,0.5c3.3,3.2,6.7,6.3,10.1,9.4L355.6,250.6z"/>
	<path d="M336.7,257.3l5.2,4.5c1.8,1.5,3.4,3.1,5.1,4.7c1.7,1.6,3.5,3,5.4,4.2c1.9,1.2,3.9,2.4,6,3.4c2.1,1,4.2,1.9,6.6,2.6l0.2-0.6
		c-1.2-2.1-2.7-3.9-4.2-5.7c-1.6-1.7-3.2-3.4-4.9-4.9c-1.6-1.5-3.5-2.9-5.4-4.1c-1.9-1.2-3.9-2.4-5.8-3.7l-5.7-3.8l-5.7-3.8
		c-3.8-2.4-7.7-4.9-11.6-7.3l-0.4,0.5c3.3,3.2,6.7,6.3,10.1,9.4L336.7,257.3z"/>
</g>
</svg>
