<?xml version="1.0" encoding="utf-8"?>
<!-- Generator: Adobe Illustrator 24.3.0, SVG Export Plug-In . SVG Version: 6.00 Build 0)  -->
<svg version="1.1" id="Calque_1" xmlns="http://www.w3.org/2000/svg" xmlns:xlink="http://www.w3.org/1999/xlink" x="0px" y="0px"
	 viewBox="0 0 500 500" style="enable-background:new 0 0 500 500;" xml:space="preserve">
<path d="M228,248.6l-16.5-5.2c-1-6.2-2.2-12.3-3.7-18.2c3-8.7,6.5-16.9,9.5-25.4c0.4-1.3,0.7-2.6,0.7-4.3c0-1.5-0.3-3-0.7-4.1
	c-3.7-10.9-10-22.4-14.8-31.5c-0.6-1.1-1.4-1.8-2.2-1.8c-0.8,0-1.7,0.6-2.2,1.7l-12.8,19.8c-2.6-2.8-5.4-5-8.1-6.9l-2.5-34.1
	c-0.3-3.2-1.7-5.6-3.3-5.6l-19.9-0.1c-1.7,0-2.9,2.2-3.3,5.2c-1.5,11.1-1.9,23.2-2.6,34.5c-2.8,1.9-5.6,4.3-8.2,7.1l-12.5-19.9
	c-0.7-1.1-1.5-1.8-2.3-1.8c-3.1,0-15.2,27.1-17.4,33.2c-0.4,1.3-0.8,2.6-0.8,4.3c0,1.7,0.5,3.2,1,4.5c3.3,8.3,6.6,16.7,9.6,25.6
	c-1.5,5.6-2.8,11.2-3.6,17.1l-16.7,5.2c-1.4,0.5-2.5,3.8-2.5,6.6v41.2c0,3.2,1.1,6.1,2.6,6.7l16.5,5c1,6.3,2.2,12.4,3.7,18.3
	c-3,8.7-6.5,16.9-9.5,25.4c-0.4,1.3-0.7,2.6-0.7,4.3c0,1.5,0.3,3,0.7,4.3c3.7,10.8,10,22.3,14.8,31.2c0.6,1.3,1.4,2,2.2,2
	s1.5-0.6,2.2-1.7l12.8-19.8c2.6,2.8,5.4,5,8.1,6.9l2.5,34.1c0.3,3.2,1.7,5.6,3.3,5.6h20c1.7,0,2.9-2.2,3.3-5.2
	c1.4-11.1,1.9-23.2,2.6-34.5c2.8-1.9,5.6-4.3,8.2-7.1l12.5,20c0.7,1,1.5,1.7,2.3,1.7c3.1,0,15.2-27.3,17.4-33.2
	c0.5-1.3,0.8-2.7,0.8-4.3c0-1.6-0.5-3.3-1-4.6c-3.3-8.3-6.6-16.5-9.6-25.6c1.5-5.4,2.6-11,3.6-16.9l16.6-5.2
	c1.4-0.5,2.5-3.8,2.5-6.6v-41.2C230.6,252.1,229.5,249.2,228,248.6z"/>
<path d="M405,248.6l-16.5-5.2c-1-6.2-2.2-12.3-3.7-18.2c3-8.7,6.5-16.9,9.5-25.4c0.4-1.3,0.7-2.6,0.7-4.3c0-1.5-0.3-3-0.7-4.1
	c-3.7-10.9-10-22.4-14.8-31.5c-0.6-1.1-1.4-1.8-2.2-1.8c-0.8,0-1.7,0.6-2.2,1.7l-12.8,19.8c-2.6-2.8-5.4-5-8.1-6.9l-2.5-34.1
	c-0.3-3.2-1.7-5.6-3.3-5.6l-19.9-0.1c-1.7,0-2.9,2.2-3.3,5.2c-1.5,11.1-1.9,23.2-2.6,34.5c-2.8,1.9-5.6,4.3-8.2,7.1l-12.5-19.9
	c-0.7-1.1-1.5-1.8-2.3-1.8c-3.1,0-15.2,27.1-17.4,33.2c-0.4,1.3-0.8,2.6-0.8,4.3c0,1.7,0.5,3.2,1,4.5c3.3,8.3,6.6,16.7,9.6,25.6
	c-1.5,5.6-2.8,11.2-3.6,17.1l-16.7,5.2c-1.4,0.5-2.5,3.8-2.5,6.6v41.2c0,3.2,1.1,6.1,2.6,6.7l16.5,5c1,6.3,2.2,12.4,3.7,18.3
	c-3,8.7-6.5,16.9-9.5,25.4c-0.4,1.3-0.7,2.6-0.7,4.3c0,1.5,0.3,3,0.7,4.3c3.7,10.8,10,22.3,14.8,31.2c0.6,1.3,1.4,2,2.2,2
	s1.5-0.6,2.2-1.7l12.8-19.8c2.6,2.8,5.4,5,8.1,6.9l2.5,34.1c0.3,3.2,1.7,5.6,3.3,5.6h20c1.7,0,2.9-2.2,3.3-5.2
	c1.4-11.1,1.9-23.2,2.6-34.5c2.8-1.9,5.6-4.3,8.2-7.1l12.5,20c0.7,1,1.5,1.7,2.3,1.7c3.1,0,15.2-27.3,17.4-33.2
	c0.5-1.3,0.8-2.7,0.8-4.3c0-1.6-0.5-3.3-1-4.6c-3.3-8.3-6.6-16.5-9.6-25.6c1.5-5.4,2.6-11,3.6-16.9l16.6-5.2
	c1.4-0.5,2.5-3.8,2.5-6.6v-41.2C407.6,252.1,406.5,249.2,405,248.6z"/>
<polygon points="88,72.1 88,91.1 152,91.1 152,123 171,123 171,91.1 329,91.1 329,123 348,123 348,91.1 412,91.1 412,72.1 "/>
</svg>
