<?xml version="1.0" encoding="utf-8"?>
<!-- Generator: Adobe Illustrator 24.3.0, SVG Export Plug-In . SVG Version: 6.00 Build 0)  -->
<svg version="1.1" id="Calque_1" xmlns="http://www.w3.org/2000/svg" xmlns:xlink="http://www.w3.org/1999/xlink" x="0px" y="0px"
	 viewBox="0 0 1000 1000" style="enable-background:new 0 0 1000 1000;" xml:space="preserve">
<style type="text/css">
	.st0{fill:none;}
</style>
<g>
	<rect x="200" y="430.9" class="st0" width="600" height="43"/>
	<g>
		<polygon points="499.2,182.9 500,184.7 500.8,182.9 		"/>
		<polygon points="499.2,182.9 500,184.7 500.8,182.9 		"/>
	</g>
	<path d="M864,430.9v-38H615.8l-96-210h2.8v-25.8h-45.4v25.8h2.8l-96,210H136v38h40v43l-40,58v236h57v-71.8h6v71.8h61.4v-71.8h6
		v71.8H284v-78c0-24.8,20.2-45,45-45s45,20.2,45,45v78h21.2v-71.8h6v71.8h61.2v-71.8h6v71.8h61.4v-71.8h6v71.8h61.4v-71.8h6v71.8
		H626v-78c0-24.8,20.2-45,45-45s45,20.2,45,45v78h16v-71.8h6v71.8h61.4v-71.8h6v71.8H864v-236l-40-58v-43H864z M500,184.7l-0.8-1.8
		h1.6L500,184.7l95,208.2H404.6L500,184.7z M800,473.9H200v-43h600V473.9z"/>
	<path d="M671,656.9c-18.2,0-33,14.8-33,33v120c0,18.2,14.8,33,33,33s33-14.8,33-33v-120C704,671.7,689.2,656.9,671,656.9z"/>
	<path d="M329,656.9c-18.2,0-33,14.8-33,33v120c0,18.2,14.8,33,33,33s33-14.8,33-33v-120C362,671.7,347.2,656.9,329,656.9z"/>
</g>
</svg>
