<?xml version="1.0" encoding="utf-8"?>
<!-- Generator: Adobe Illustrator 24.3.0, SVG Export Plug-In . SVG Version: 6.00 Build 0)  -->
<svg version="1.1" id="Calque_1" xmlns="http://www.w3.org/2000/svg" xmlns:xlink="http://www.w3.org/1999/xlink" x="0px" y="0px"
	 viewBox="0 0 1000 1000" style="enable-background:new 0 0 1000 1000;" xml:space="preserve">
<style type="text/css">
	.st0{fill:none;}
</style>
<g>
	<polygon class="st0" points="202.4,195 297.5,195 250,90.9 	"/>
	<line class="st0" x1="297.5" y1="195" x2="202.4" y2="195"/>
</g>
<g>
	<path d="M229.3,834.5l-11.3-9.8c-3.9-3.3-7.4-6.7-11.1-10.2c-3.7-3.5-7.6-6.5-11.7-9.1c-4.1-2.6-8.5-5.2-13-7.4
		c-4.6-2.2-9.1-4.1-14.3-5.7l-0.4,1.3c2.6,4.6,5.9,8.5,9.1,12.4c3.5,3.7,7,7.4,10.7,10.7c3.5,3.3,7.6,6.3,11.7,8.9
		c4.1,2.6,8.5,5.2,12.6,8l12.4,8.3l12.4,8.3c8.3,5.2,16.7,10.7,25.2,15.9l0.9-1.1c-7.2-7-14.6-13.7-22-20.4L229.3,834.5z"/>
	<path d="M973.9,716.8c-8.5,5.2-16.7,10.4-25.2,15.9l-12.4,8.3l-12.4,8.3c-4.1,2.8-8.5,5.4-12.6,8c-4.1,2.6-8,5.7-11.7,8.9
		s-7.4,7-10.7,10.7s-6.5,7.8-9.1,12.4l0.2,0.4l-38.7-14.3c4.3-1.3,8.3-3,12.2-5c4.6-2.2,8.9-4.8,13-7.4c4.1-2.6,8-5.7,11.7-9.1
		c3.7-3.5,7.4-7,11.1-10.2l11.3-9.8l11.1-10c7.4-6.7,14.8-13.5,22-20.4l-0.9-1.1c-8.5,5.2-16.7,10.4-25.2,15.9l-12.4,8.3l-12.4,8.3
		c-4.1,2.8-8.5,5.4-12.6,8c-4.1,2.6-8,5.7-11.7,8.9s-7.4,7-10.7,10.7c-3.3,3.7-6.3,7.6-8.9,12.2l-37.6-13.9c3.9-1.3,7.4-3,11.1-4.6
		c4.6-2.2,8.9-4.8,13-7.4c4.1-2.6,8-5.7,11.7-9.1c3.7-3.5,7.4-7,11.1-10.2l11.3-9.8l11.1-10c7.4-6.7,14.8-13.5,22-20.4l-0.9-1.1
		c-8.5,5.2-16.7,10.4-25.2,15.9l-12.4,8.3l-12.4,8.3c-4.1,2.8-8.5,5.4-12.6,8c-4.1,2.6-8,5.7-11.7,8.9c-3.7,3.3-7.4,7-10.7,10.7
		c-3,3.5-6.1,7.4-8.7,11.5L761.5,746c3.5-1.3,6.5-2.8,9.8-4.3c4.6-2.2,8.9-4.8,13-7.4c4.1-2.6,8-5.7,11.7-9.1
		c3.7-3.5,7.4-7,11.1-10.2l11.3-9.8l11.1-10c7.4-6.7,14.8-13.5,22-20.4l-0.9-1.1c-8.5,5.2-16.7,10.4-25.2,15.9l-12.4,8.3l-12.4,8.3
		c-4.1,2.8-8.5,5.4-12.6,8c-4.1,2.6-8,5.7-11.7,8.9c-3.7,3.3-7.4,7-10.7,10.7c-2.8,3.3-5.7,7-8.3,10.9l-128.3-47.8
		c40.9-9.3,66.7-23,66.7-38.3v-32.6c0-8.3-7.4-15.9-20.7-22.8L880,526.6l-6.5-17.6h-0.2l0.2-0.9c-2.6-4.6-5.9-8.5-9.1-12.4
		c-3.5-3.7-7-7.4-10.7-10.7c-3.5-3.3-7.6-6.3-11.7-8.9c-4.1-2.6-8.5-5.2-12.6-8l-12.4-8.3l-12.4-8.3c-8.3-5.2-16.7-10.7-25.2-15.9
		l-0.9,1.1c7.2,7,14.6,13.7,22,20.4l11.1,10l11.3,9.8c3.9,3.3,7.4,6.7,11.1,10.2c3.7,3.5,7.6,6.5,11.7,9.1c4.1,2.6,8.5,5.2,13,7.4
		c4.3,2.2,8.9,3.9,13.9,5.4l-223.5,83.3c-3.9-1.3-8.3-2.4-12.6-3.5c0-0.2,0-0.7-0.2-0.9v-18.7c0.2-0.7,0.2-1.3,0.2-2
		c0-11.1-19.3-20.9-49.8-27.4V416.8h308.7v-41.3H625.9L521.5,147.3h3v-28h-49.3v28h3L373.9,375.5H104.3v41.3H413v123.3
		c-30.4,6.5-49.8,16.3-49.8,27.4V589c-4.3,1.1-8.5,2.2-12.6,3.5L126.3,509l-6.5,17.4l-0.2-0.4c-5.2,1.3-9.8,3.5-14.3,5.7
		c-4.6,2.2-8.9,4.8-13,7.4c-4.1,2.6-8,5.7-11.7,9.1c-3.7,3.5-7.4,7-11.1,10.2L58,568.2l-11.1,10c-7.4,6.7-14.8,13.5-22,20.4l1.1,0.9
		c8.5-5.2,16.7-10.4,25.2-15.9l12.4-8.3l12.4-8.3c4.1-2.8,8.5-5.4,12.6-8s8-5.7,11.7-8.9c3.7-3.3,7.4-7,10.7-10.7
		c3.3-3.7,6.5-7.8,9.1-12.4l-0.2-0.4l38.7,14.3c-4.3,1.3-8.3,3-12.2,5c-4.6,2.2-8.9,4.8-13,7.4c-4.1,2.6-8,5.7-11.7,9.1
		c-3.7,3.5-7.4,7-11.1,10.2l-11.3,9.8l-11.1,10c-7.4,6.7-14.8,13.5-22,20.4l0.9,1.1c8.5-5.2,16.7-10.4,25.2-15.9l12.4-8.3l12.4-8.3
		c4.1-2.8,8.5-5.4,12.6-8c4.1-2.6,8-5.7,11.7-8.9c3.7-3.3,7.4-7,10.7-10.7c3.3-3.7,6.3-7.6,8.9-12.2l37.6,13.9
		c-3.9,1.3-7.4,3-11.1,4.8c-4.6,2.2-8.9,4.8-13,7.4c-4.1,2.6-8,5.7-11.7,9.1c-3.7,3.5-7.4,7-11.1,10.2l-11.3,9.8l-11.1,10
		c-7.4,6.7-14.8,13.5-22,20.4l0.9,1.1c8.5-5.2,16.7-10.4,25.2-15.9l12.4-8.3l12.4-8.3c4.1-2.8,8.5-5.4,12.6-8
		c4.1-2.6,8-5.7,11.7-8.9s7.4-7,10.7-10.7c3-3.5,6.1-7.4,8.7-11.5l36.5,13.5c-3.5,1.3-6.7,2.8-9.8,4.3c-4.6,2.2-8.9,4.8-13,7.4
		c-4.1,2.6-8,5.7-11.7,9.1c-3.7,3.5-7.4,7-11.1,10.2l-11.3,9.8l-11.1,10c-7.4,6.7-14.8,13.5-22,20.4l0.9,1.1
		c8.5-5.2,16.7-10.4,25.2-15.9l12.4-8.3l12.4-8.3c4.1-2.8,8.5-5.4,12.6-8s8-5.7,11.7-8.9c3.7-3.3,7.4-7,10.7-10.7
		c2.8-3.3,5.7-7,8.3-10.9l82.4,30.7c-13.3,7-20.7,14.6-20.7,22.8v32.6c0,15.2,25.9,28.9,66.7,38.3l-250.9,93.5l6.5,17.6h0.2
		l-0.2,0.9c2.6,4.6,5.9,8.5,9.1,12.4c3.5,3.7,7,7.4,10.7,10.7c3.5,3.3,7.6,6.3,11.7,8.9c4.1,2.6,8.5,5.2,12.6,8l12.4,8.3l12.4,8.3
		c8.3,5.2,16.7,10.7,25.2,15.9l0.9-1.1c-7.2-7-14.6-13.7-22-20.4l-11.1-10l-11.3-9.8c-3.9-3.3-7.4-6.7-11.1-10.2
		c-3.7-3.5-7.6-6.5-11.7-9.1c-4.1-2.6-8.5-5.2-13-7.4c-4.3-2.2-8.9-3.9-13.9-5.4L407,703.2c27.8,3.9,59.6,6.1,93.3,6.1
		c33.7,0,65.7-2.2,93.3-6.1l280.2,104.3l6.5-17.2l0.2,0.4c5.2-1.3,9.8-3.5,14.3-5.7c4.6-2.2,8.9-4.8,13-7.4c4.1-2.6,8-5.7,11.7-9.1
		c3.7-3.5,7.4-7,11.1-10.2l11.3-9.8l11.1-10c7.4-6.7,14.8-13.5,22-20.4L973.9,716.8z M500,149.2l103.3,226.3h-207L500,149.2z"/>
	<path d="M770.7,481.8l11.3,9.8c3.9,3.3,7.4,6.7,11.1,10.2s7.6,6.5,11.7,9.1c4.1,2.6,8.5,5.2,13,7.4c4.6,2.2,9.1,4.1,14.3,5.7
		l0.4-1.3c-2.6-4.6-5.9-8.5-9.1-12.4c-3.5-3.7-7-7.4-10.7-10.7c-3.5-3.3-7.6-6.3-11.7-8.9s-8.5-5.2-12.6-8l-12.4-8.3l-12.4-8.3
		c-8.3-5.2-16.7-10.7-25.2-15.9l-0.9,1.1c7.2,7,14.6,13.7,22,20.4L770.7,481.8z"/>
	<path d="M270.4,819.9l-11.3-9.8c-3.9-3.3-7.4-6.7-11.1-10.2c-3.7-3.5-7.6-6.5-11.7-9.1c-4.1-2.6-8.5-5.2-13-7.4
		c-4.6-2.2-9.1-4.1-14.3-5.7L208,779c2.6,4.6,5.9,8.5,9.1,12.4c3.5,3.7,7,7.4,10.7,10.7c3.5,3.3,7.6,6.3,11.7,8.9
		c4.1,2.6,8.5,5.2,12.6,8l12.8,8.3l12.4,8.3c8.3,5.2,16.7,10.7,25.2,15.9l0.9-1.1c-7.2-7-14.6-13.7-22-20.4L270.4,819.9z"/>
	<path d="M311.5,805.3l-11.3-9.8c-3.9-3.3-7.4-6.7-11.1-10.2c-3.7-3.5-7.6-6.5-11.7-9.1c-4.1-2.6-8.5-5.2-13-7.4
		c-4.6-2.2-9.1-4.1-14.3-5.7l-0.4,1.3c2.6,4.6,5.9,8.5,9.1,12.4c3.5,3.7,7,7.4,10.7,10.7c3.5,3.3,7.6,6.3,11.7,8.9
		c4.1,2.6,8.5,5.2,12.6,8l12.4,8.3l12.4,8.3c8.3,5.2,16.7,10.7,25.2,15.9l0.9-1.1c-7.2-7-14.6-13.7-22-20.4L311.5,805.3z"/>
	<path d="M729.6,496.4l11.3,9.8c3.9,3.3,7.4,6.7,11.1,10.2s7.6,6.5,11.7,9.1c4.1,2.6,8.5,5.2,13,7.4c4.6,2.2,9.1,4.1,14.3,5.7
		l0.4-1.3c-2.6-4.6-5.9-8.5-9.1-12.4c-3.5-3.7-7-7.4-10.7-10.7c-3.5-3.3-7.6-6.3-11.7-8.9c-4.1-2.6-8.5-5.2-12.6-8L735,489
		l-12.4-8.3c-8.3-5.2-16.7-10.7-25.2-15.9l-0.9,1.1c7.2,7,14.6,13.7,22,20.4L729.6,496.4z"/>
	<path d="M688.5,511l11.3,9.8c3.9,3.3,7.4,6.7,11.1,10.2s7.6,6.5,11.7,9.1s8.5,5.2,13,7.4c4.6,2.2,9.1,4.1,14.3,5.7l0.4-1.3
		c-2.6-4.6-5.9-8.5-9.1-12.4c-3.5-3.7-7-7.4-10.7-10.7c-3.5-3.3-7.6-6.3-11.7-8.9c-4.1-2.6-8.5-5.2-12.6-8l-12.4-8.3l-12.4-8.3
		c-8.3-5.2-16.7-10.7-25.2-15.9l-0.9,1.1c7.2,7,14.6,13.7,22,20.4L688.5,511z"/>
</g>
</svg>
