<?xml version="1.0" encoding="utf-8"?>
<!-- Generator: Adobe Illustrator 24.3.0, SVG Export Plug-In . SVG Version: 6.00 Build 0)  -->
<svg version="1.1" id="Calque_1" xmlns="http://www.w3.org/2000/svg" xmlns:xlink="http://www.w3.org/1999/xlink" x="0px" y="0px"
	 viewBox="0 0 1000 1000" style="enable-background:new 0 0 1000 1000;" xml:space="preserve">
<g>
	<path d="M950,70.1V17.3H50v52.8h177.8v318.6H50v52.8h173.3l0.3,0.8c1.7-0.3,3.1-0.6,4.7-0.8h14.4c6.4,0.8,12.5,2.8,18.3,5.8
		c5.8,3.1,11.1,7.2,15.6,12.2c4.4,4.7,8.1,10.6,10.3,16.9c4.7,12.5,5,26.9,0,40c-5,12.8-14.7,24.2-27.2,30.8
		c-3.1,1.7-6.4,3.1-9.7,4.2l-5.3,1.4l-7.5,1.9l-3.6,0.8l-3.6,1.1l-7.2,2.2l-7.2,2.5l-3.6,1.4l-3.6,1.4c-9.4,3.6-18.3,8.1-27.2,13.1
		c-8.6,5-16.9,10.6-25,16.7c-31.9,24.4-56.7,57.5-71.1,94.4c-14.7,36.9-18.6,77.5-12.2,116.1c6.7,38.3,23.3,75,48.6,104.2
		c25,29.2,58.1,51.1,93.9,63.3c35.8,11.9,75,13.9,111.4,5.8c-36.7,5.8-75,1.9-109.2-11.9c-34.2-13.9-64.4-36.7-86.4-65.6
		c-22.2-28.6-35.6-63.3-39.7-98.9c-3.9-35.6,1.9-71.7,16.7-103.6c14.7-31.9,38.1-59.4,66.7-78.9c7.2-4.7,14.4-9.2,22.2-13.1
		s15.8-7.5,23.9-10l3.1-1.1l3.1-0.8l6.1-1.9l6.1-1.4l3.1-0.8l3.1-0.6l6.4-1.1l8.3-1.9c5.6-1.4,11.1-3.3,16.4-5.8
		c21.1-9.7,38.6-27.2,48.1-48.9c9.7-21.4,10.8-46.7,3.9-69.4c-2.2-7.2-5.3-14.2-8.9-20.6h253.3c-6.4,0-11.7,5.3-11.7,11.7V494
		c0,6.4,5,11.7,11.7,11.7h37.8c6.4,0,11.7,5,11.7,11.7v33.9c0,6.4,5,11.7,11.7,11.7h60.6c6.4,0,11.7-5,11.7-11.7V517
		c0-6.4,5-11.7,11.7-11.7h37.8c6.4,0,11.7-5,11.7-11.7v-40.6c0-6.4-5-11.7-11.7-11.7H950v-52.8H772.2V70.1H950z M719.4,388.7H280.6
		V70.1h438.9V388.7z"/>
	<path d="M682.5,639.2l-11.4-35.8c-0.8-3.3-3.9-5.3-7.2-5.3c-3.3,0-6.1,2.2-7.2,5.3L645.6,639c0,0.6-0.3,0.8,0,1.1
		c-0.6,1.9-0.8,3.6-0.8,5.6c0,10.6,8.9,19.4,19.4,19.4s19.4-8.9,19.4-19.4c0-1.9-0.3-3.9-0.8-5.8
		C682.5,639.8,682.5,639.5,682.5,639.2z"/>
	<path d="M682.5,740.3l-11.4-35.8c-0.8-3.3-3.9-5.3-7.2-5.3c-3.3,0-6.1,2.2-7.2,5.3l-11.1,35.6c0,0.6-0.3,0.8,0,1.1
		c-0.6,1.9-0.8,3.6-0.8,5.6c0,10.6,8.9,19.4,19.4,19.4s19.4-8.9,19.4-19.4c0-1.9-0.3-3.9-0.8-5.8
		C682.5,740.9,682.5,740.6,682.5,740.3z"/>
	<path d="M682.5,837.3l-11.4-35.8c-0.8-3.3-3.9-5.3-7.2-5.3c-3.3,0-6.1,2.2-7.2,5.3L645.6,837c0,0.6-0.3,0.8,0,1.1
		c-0.6,1.9-0.8,3.6-0.8,5.6c0,10.6,8.9,19.4,19.4,19.4s19.4-8.9,19.4-19.4c0-1.9-0.3-3.9-0.8-5.8
		C682.5,837.8,682.5,837.6,682.5,837.3z"/>
	<path d="M682.5,934.2l-11.4-35.8c-0.8-3.3-3.9-5.3-7.2-5.3c-3.3,0-6.1,2.2-7.2,5.3L645.6,934c0,0.6-0.3,0.8,0,1.1
		c-0.6,1.9-0.8,3.6-0.8,5.6c0,10.6,8.9,19.4,19.4,19.4s19.4-8.9,19.4-19.4c0-1.9-0.3-3.9-0.8-5.8
		C682.5,934.8,682.5,934.5,682.5,934.2z"/>
	<path d="M771.7,619c-0.3-0.3-0.3-0.3-0.6-0.6l-26.4-26.7c-2.2-2.2-5.8-3.1-8.9-1.4c-3.1,1.4-4.4,4.7-3.9,7.8l6.4,36.9
		c0,0.6,0,0.8,0.3,1.1c0.6,1.9,0.8,3.6,1.9,5.3c4.7,9.4,16.7,13.1,26.1,8.3c9.4-4.7,13.1-16.7,8.3-26.1
		C774.2,622,773.1,620.3,771.7,619z"/>
	<path d="M821.7,713.4c-0.8-1.7-1.9-3.3-3.3-4.7c-0.3-0.3-0.3-0.3-0.6-0.6l-26.7-26.7c-2.2-2.2-5.8-3.1-8.9-1.4
		c-3.1,1.4-4.4,4.7-3.9,7.8l6.4,36.9c0,0.6,0,0.8,0.6,1.1c0.6,1.9,0.8,3.6,1.9,5.3c4.7,9.4,16.7,13.1,26.1,8.3
		C822.8,734.8,826.4,722.8,821.7,713.4z"/>
	<path d="M866.4,799.5c-0.8-1.7-1.9-3.3-3.3-4.7c-0.3-0.3-0.3-0.3-0.6-0.6l-26.7-26.7c-2.2-2.2-5.8-3.1-8.9-1.4
		c-3.1,1.4-4.4,4.7-3.9,7.8l6.4,36.9c0,0.6,0.3,0.8,0.6,1.1c0.6,1.9,0.8,3.6,1.9,5.3c4.7,9.4,16.7,13.1,26.1,8.3
		C867.5,820.9,871.1,809,866.4,799.5z"/>
	<path d="M907.8,880.9c-0.3-0.3-0.3-0.3-0.6-0.6l-26.7-26.7c-2.2-2.2-5.8-3.1-8.9-1.4c-3.1,1.4-4.4,4.7-3.9,7.8l6.4,36.9
		c0,0.3,0.3,0.6,0.6,1.1c0.6,1.9,0.8,3.6,1.9,5.3c4.7,9.4,16.7,13.1,26.1,8.3c9.4-4.7,13.1-16.7,8.3-26.1
		C910.3,884,909.2,882.3,907.8,880.9z"/>
	<path d="M591.7,590.3c-3.1-1.7-6.7-0.8-8.9,1.4l-26.7,26.7c-0.3,0.3-0.3,0.3-0.6,0.6c-1.4,1.4-2.5,3.1-3.3,4.7
		c-4.7,9.4-1.1,21.4,8.3,26.1c9.4,4.7,21.4,1.1,26.1-8.3c1.1-1.7,1.4-3.3,1.9-5.3c0.6-0.3,0.6-0.6,0.6-1.1l6.4-36.9
		C596.1,595.1,594.7,591.7,591.7,590.3z"/>
	<path d="M545.3,680.1c-3.1-1.7-6.7-0.8-8.9,1.4l-26.7,26.7c-0.3,0.3-0.3,0.3-0.6,0.6c-1.4,1.4-2.5,3.1-3.3,4.7
		c-4.7,9.4-1.1,21.4,8.3,26.1c9.4,4.7,21.4,1.1,26.1-8.3c1.1-1.7,1.4-3.3,1.9-5.3c0.6-0.3,0.6-0.6,0.6-1.1l6.4-36.9
		C549.7,684.8,548.3,681.5,545.3,680.1z"/>
	<path d="M500.6,766.2c-3.1-1.7-6.7-0.8-8.9,1.4L465,794.2c-0.3,0.3-0.3,0.3-0.6,0.6c-1.4,1.4-2.5,3.1-3.3,4.7
		c-4.7,9.4-1.1,21.4,8.3,26.1c9.4,4.7,21.4,1.1,26.1-8.3c1.1-1.7,1.4-3.3,1.9-5.3c0.3-0.3,0.6-0.6,0.6-1.1l6.4-36.9
		C505,770.9,503.6,767.6,500.6,766.2z"/>
	<path d="M455.8,852.3c-3.1-1.7-6.7-0.8-8.9,1.4l-26.7,26.7c-0.3,0.3-0.3,0.3-0.6,0.6c-1.4,1.4-2.5,3.1-3.3,4.7
		c-4.7,9.4-1.1,21.4,8.3,26.1s21.4,1.1,26.1-8.3c1.1-1.7,1.4-3.3,1.9-5.3c0.3-0.6,0.6-0.8,0.6-1.1l6.4-36.9
		C460.3,857,458.9,853.7,455.8,852.3z"/>
</g>
</svg>
