<?xml version="1.0" encoding="utf-8"?>
<!-- Generator: Adobe Illustrator 24.3.0, SVG Export Plug-In . SVG Version: 6.00 Build 0)  -->
<svg version="1.1" id="Calque_1" xmlns="http://www.w3.org/2000/svg" xmlns:xlink="http://www.w3.org/1999/xlink" x="0px" y="0px"
	 viewBox="0 0 1000 1000" style="enable-background:new 0 0 1000 1000;" xml:space="preserve">
<g>
	<path d="M848.7,317.4H345.5c-48.9,0-91.7,28.4-112.5,69.5c-22.8-19.4-57.3-38.8-93.9-24c-36.2,14.6-60.5,59.1-60.5,110.7h2v13h1.4
		L35.2,588.9H25v14.4h11l13.8,79.3l13.8-79.3h14.2l14,79.3l13.6-79.3h14.2l14,79.3l13.6-79.3h11.4v-14.4h-10.2l-46.8-102.3h1.4v-13
		h2c0-40.2,18.2-75.7,44-86.3c21.8-8.8,47.4,0.4,74.1,26.2c-2.4,9.6-3.6,19.6-3.6,30v21.2c0,34,13.6,64.7,35.6,87.5H359
		c14.4-11.8,32.4-19.2,52.3-19.2s38,7.4,52.3,19.2h51.1c14.4-11.8,32.4-19.2,52.3-19.2c20,0,38,7.4,52.3,19.2h319.7
		c22-22.8,35.8-53.5,35.8-87.5v-21.2C974.8,374.1,918.1,317.4,848.7,317.4z M138.1,588.9H45.4l46.4-101.5L138.1,588.9z"/>
	<path d="M483.3,575.9c0.6,1.2,1.2,2.2,1.8,3.4c1.6,3.2,3,6.6,4.2,10c2.6-7.4,5.8-14.6,10.4-21h-20.8
		C480.5,570.7,481.9,573.3,483.3,575.9z"/>
	<path d="M333.1,589.7c1.2-3.4,2.6-7,4.2-10.4c0.6-1,1-2,1.6-3c1.4-2.8,3-5.6,4.8-8.2h-69.9C290.9,580.1,311.1,587.5,333.1,589.7z"
		/>
	<path d="M634.8,568.3c4.8,6.8,8.4,14.4,11,22.6h199.4l-10.6,80.9h15.6l6.6-51.1l6.6,51.1h15.6l-10.8-80.9h73.3v-22.6H634.8z"/>
	<path d="M567.2,549.1c-36.8,0-66.7,30-66.7,66.7s30,66.7,66.7,66.7s66.7-29.8,66.7-66.7S604,549.1,567.2,549.1z M567.2,643.8
		c-15.4,0-28-12.6-28-28s12.6-28,28-28c15.4,0,28,12.6,28,28S582.6,643.8,567.2,643.8z"/>
	<path d="M411.4,549.1c-36.8,0-66.7,30-66.7,66.7s29.8,66.7,66.7,66.7c36.8,0,66.7-29.8,66.7-66.7S448.2,549.1,411.4,549.1z
		 M411.4,643.8c-15.4,0-28-12.6-28-28s12.6-28,28-28c15.4,0,28,12.6,28,28S426.8,643.8,411.4,643.8z"/>
</g>
</svg>
