<?xml version="1.0" encoding="utf-8"?>
<!-- Generator: Adobe Illustrator 24.3.0, SVG Export Plug-In . SVG Version: 6.00 Build 0)  -->
<svg version="1.1" id="Calque_1" xmlns="http://www.w3.org/2000/svg" xmlns:xlink="http://www.w3.org/1999/xlink" x="0px" y="0px"
	 viewBox="0 0 1000 1000" style="enable-background:new 0 0 1000 1000;" xml:space="preserve">
<path d="M99.2,375.8h36l-12.7,34.4l0,0l-12.7,34.2l0,0l-27.1,68.8l0,0l-0.8,1.9l-6.3,16l0,0l0,0l3.8,7.1l41.9,8.1v22.9l-36.9,34.2
	l28.8,30l2.9-1.9c0.8,0,13.8-7.7,39.8-22.9c20-11,63.6-10,79.8-9l-2.9,12.7l-70.8,11v39l23.8,3.8c-6.3,10-9,20.8-9,32.7
	c0,36.9,30,66.1,66.1,66.1c36.9,0,66.1-30,66.1-66.1c0-11.9-2.9-22.9-8.1-31.9l2.9-1.9l26.3,30h251.7c11.9,39.8,48.8,67.9,91.7,67.9
	c53.1,0,95.9-43.1,95.9-95.9c0-5.2,0-11-0.8-17.1l36.9,26.3l-10,59l5.2,6.3h158l5.2-2.9l11.5-30.4l-3.3-5.6L939,687.3l-1.9-59
	l-2.9-4.2l-51.7-27.9h-5.2l-41.9,26l-136.9-85l11-15.2h102.1l5.2-3.8l10-56.1l23.8-138.6l0,0l3.8-22.9l-5.2-6.3h-225l-5.4,5.4
	l5.2,72.9h-8.1l-30-137.7H388.6l-3.8,66.9H276.3l-2.9,31.9H91.9L25,396.6l36,20.8L99.2,375.8z M810,494.6h-31.9l9-167.5h51.7
	L810,494.6z M696.6,494.6V327h80.6l-9,167.5h-72.1H696.6z M672.9,327v167.5h-16L650.6,327H672.9z M616.2,667.5
	c0-31.9,25-56.9,56.9-56.9c31.9,0,56.9,26.3,56.9,56.9c0,31.9-26.3,56.9-56.9,56.9C642.4,724.4,616.2,699.8,616.2,667.5z
	 M207.7,700.3c0-20,16-36,36-36s36,16,36,36c0,20-16,36-36,36C224.8,736.3,207.7,720.3,207.7,700.3z"/>
</svg>
