<?xml version="1.0" encoding="utf-8"?>
<!-- Generator: Adobe Illustrator 24.3.0, SVG Export Plug-In . SVG Version: 6.00 Build 0)  -->
<svg version="1.1" id="Calque_1" xmlns="http://www.w3.org/2000/svg" xmlns:xlink="http://www.w3.org/1999/xlink" x="0px" y="0px"
	 viewBox="0 0 500 500" style="enable-background:new 0 0 500 500;" xml:space="preserve">
<path d="M412,95.2v-19H88v19h64v114.7H88v19h62.4l0.1,0.3c0.6-0.1,1.1-0.2,1.7-0.3h5.2c2.3,0.3,4.5,1,6.6,2.1c2.1,1.1,4,2.6,5.6,4.4
	c1.6,1.7,2.9,3.8,3.7,6.1c1.7,4.5,1.8,9.7,0,14.4c-1.8,4.6-5.3,8.7-9.8,11.1c-1.1,0.6-2.3,1.1-3.5,1.5l-1.9,0.5l-2.7,0.7l-1.3,0.3
	l-1.3,0.4l-2.6,0.8l-2.6,0.9l-1.3,0.5l-1.3,0.5c-3.4,1.3-6.6,2.9-9.8,4.7c-3.1,1.8-6.1,3.8-9,6c-11.5,8.8-20.4,20.7-25.6,34
	c-5.3,13.3-6.7,27.9-4.4,41.8c2.4,13.8,8.4,27,17.5,37.5c9,10.5,20.9,18.4,33.8,22.8c12.9,4.3,27,5,40.1,2.1
	c-13.2,2.1-27,0.7-39.3-4.3s-23.2-13.2-31.1-23.6c-8-10.3-12.8-22.8-14.3-35.6c-1.4-12.8,0.7-25.8,6-37.3
	c5.3-11.5,13.7-21.4,24-28.4c2.6-1.7,5.2-3.3,8-4.7c2.8-1.4,5.7-2.7,8.6-3.6l1.1-0.4l1.1-0.3l2.2-0.7l2.2-0.5l1.1-0.3l1.1-0.2
	l2.3-0.4l3-0.7c2-0.5,4-1.2,5.9-2.1c7.6-3.5,13.9-9.8,17.3-17.6c3.5-7.7,3.9-16.8,1.4-25c-0.8-2.6-1.9-5.1-3.2-7.4h142.5l0.1,0.3
	c0.6-0.1,1.1-0.2,1.7-0.3h5.2c2.3,0.3,4.5,1,6.6,2.1c2.1,1.1,4,2.6,5.6,4.4c1.6,1.7,2.9,3.8,3.7,6.1c1.7,4.5,1.8,9.7,0,14.4
	c-1.8,4.6-5.3,8.7-9.8,11.1c-1.1,0.6-2.3,1.1-3.5,1.5l-1.9,0.5l-2.7,0.7l-1.3,0.3l-1.3,0.4l-2.6,0.8l-2.6,0.9l-1.3,0.5l-1.3,0.5
	c-3.4,1.3-6.6,2.9-9.8,4.7c-3.1,1.8-6.1,3.8-9,6c-11.5,8.8-20.4,20.7-25.6,34c-5.3,13.3-6.7,27.9-4.4,41.8
	c2.4,13.8,8.4,27,17.5,37.5c9,10.5,20.9,18.4,33.8,22.8c12.9,4.3,27,5,40.1,2.1c-13.2,2.1-27,0.7-39.3-4.3
	c-12.3-5-23.2-13.2-31.1-23.6c-8-10.3-12.8-22.8-14.3-35.6c-1.4-12.8,0.7-25.8,6-37.3s13.7-21.4,24-28.4c2.6-1.7,5.2-3.3,8-4.7
	c2.8-1.4,5.7-2.7,8.6-3.6l1.1-0.4l1.1-0.3l2.2-0.7l2.2-0.5l1.1-0.3l1.1-0.2l2.3-0.4l3-0.7c2-0.5,4-1.2,5.9-2.1
	c7.6-3.5,13.9-9.8,17.3-17.6c3.5-7.7,3.9-16.8,1.4-25c-0.8-2.6-1.9-5.1-3.2-7.4h50v-19h-64V95.2H412z M329,209.9H171V95.2h158V209.9
	z"/>
</svg>
