<?xml version="1.0" encoding="utf-8"?>
<!-- Generator: Adobe Illustrator 24.3.0, SVG Export Plug-In . SVG Version: 6.00 Build 0)  -->
<svg version="1.1" id="Calque_1" xmlns="http://www.w3.org/2000/svg" xmlns:xlink="http://www.w3.org/1999/xlink" x="0px" y="0px"
	 viewBox="0 0 500 500" style="enable-background:new 0 0 500 500;" xml:space="preserve">
<path d="M353.4,95.4H412v-19H88v19h66.9c-2.4,2.4-4.8,5-7.1,7.8c-13,15.5-23.2,34.8-29.3,55.7c-15.1,50.8-14.7,136.2,72.4,254.9
	l5.5-4c3.2,4.6,6.4,9.2,9.8,13.8l16.9-12.4c-21.3-29.1-38.5-58-51.2-86l-10.9,4.9c-37.2-74.7-35.3-130-24.6-165.9
	c12.6-42.9,38.4-63.4,49.2-68.8h137.2c-2.4,2.4-4.8,5-7.1,7.8c-13,15.5-23.2,34.8-29.3,55.7c-15.1,50.8-14.7,136.2,72.4,254.9l5.5-4
	c3.2,4.6,6.4,9.2,9.8,13.8l16.9-12.4c-21.7-29.6-38.9-58.5-51.2-86l-10.9,4.9c-37.2-74.7-35.2-130-24.6-165.9
	C316.8,121.3,342.6,100.8,353.4,95.4z"/>
</svg>
