<?xml version="1.0" encoding="utf-8"?>
<!-- Generator: Adobe Illustrator 24.3.0, SVG Export Plug-In . SVG Version: 6.00 Build 0)  -->
<svg version="1.1" id="Calque_1" xmlns="http://www.w3.org/2000/svg" xmlns:xlink="http://www.w3.org/1999/xlink" x="0px" y="0px"
	 viewBox="0 0 1000 1000" style="enable-background:new 0 0 1000 1000;" xml:space="preserve">
<g>
	<g>
		<path d="M583.4,766.3c10.1,10.1,0.2,35.6-21.3,57.1c-22,22-47.3,31.3-57.1,21.3c-10.1-10.1-0.2-35.6,21.3-57.1
			C548.1,765.9,573.6,756.5,583.4,766.3"/>
		<path d="M520.5,731.5c-3.5,13.3-30.6,17.5-60.1,9.6c-29.7-8.2-50.8-26-47-39.3c3.5-13.3,30.6-17.5,60.1-9.6
			C503.2,700.6,524.2,718.1,520.5,731.5"/>
		<path d="M547.1,934.3c-5.4,12.9-33,13.1-61.1,0.7c-28.3-12.4-46.6-32.8-40.9-45.4c5.4-12.9,33-13.1,61.1-0.7
			C534.5,901.3,553,921.7,547.1,934.3"/>
	</g>
	<g>
		<path d="M269.9,766.3c10.1,10.1,0.2,35.6-21.3,57.1c-22,22-47.3,31.3-57.1,21.3c-10.1-10.1-0.2-35.6,21.3-57.1
			C234.4,765.9,260.1,756.5,269.9,766.3"/>
		<path d="M207,731.5c-3.5,13.3-30.6,17.5-60.1,9.6c-29.5-8-51-26-47-39.3c3.5-13.3,30.6-17.5,60.1-9.6
			C189.5,700.6,210.7,718.1,207,731.5"/>
		<path d="M233.4,934.3c-5.4,12.9-33,13.1-61.1,0.7c-28.3-12.4-46.6-32.8-40.9-45.4c5.4-12.9,33-13.1,61.1-0.7
			C221,901.3,239.3,921.7,233.4,934.3"/>
	</g>
	<g>
		<path d="M897.1,766.3c10.1,10.1,0.2,35.6-21.3,57.1c-22,22-47.3,31.3-57.1,21.3c-10.1-10.1-0.2-35.6,21.3-57.1
			C861.8,765.9,887,756.5,897.1,766.3"/>
		<path d="M834.2,731.5c-3.5,13.3-30.6,17.5-60.1,9.6c-29.5-8.2-50.8-26-47-39.3c3.5-13.3,30.6-17.5,60.1-9.6
			C816.9,700.6,837.9,718.1,834.2,731.5"/>
		<path d="M860.8,934.3c-5.4,12.9-33,13.1-61.1,0.7c-28.3-12.4-46.6-32.8-40.9-45.4c5.4-12.9,33-13.1,61.1-0.7
			C848.2,901.3,866.5,921.7,860.8,934.3"/>
	</g>
	<path d="M975,236.9c0-7.5-2.6-15-7.3-21.1L854.5,69.4c-6.6-8.4-16.6-13.3-27.4-13.3h-11.2c-1.4-0.2-2.6-0.2-4-0.2H188.3
		c-1.2,0-2.6,0-3.7,0.2h-11.7c-10.5,0-20.8,4.9-27.4,13.3L32.3,215.9c-4.7,5.8-7.3,13.3-7.3,21.1h22.5v35.6c0,7,2.3,14,6.6,19.7
		l121.6,164.9l-40.5,70.4L84,615.9h27.4c-4.2,0-7.5,3.3-7.5,7.5c0,4.2,3.3,7.5,7.5,7.5h150.2c4.2,0,7.5-3.5,7.7-7.5
		c0-4.2-3.3-7.5-7.5-7.5h27.1l-51.2-88.4l-9.6-16.6c1.4,0.2,2.8,0.2,4.2,0.2h226l-9.4,16.4l-51.2,88.4h27.1c-4.2,0-7.5,3.3-7.5,7.5
		c0,4.2,3.3,7.5,7.5,7.5h150.4c4.2,0,7.5-3.5,7.5-7.5c0-4.2-3.3-7.5-7.5-7.5h27.4l-51.2-88.4l-9.4-16.4h226c1.4,0,2.8,0,4.2-0.2
		l-9.6,16.6l-51.2,88.4h27.1c-4.2,0-7.5,3.3-7.5,7.5c0,4.2,3.3,7.5,7.5,7.5h150.4c4.2,0,7.5-3.5,7.5-7.5c0-4.2-3.3-7.5-7.5-7.5h27.4
		l-51.2-88.4l-40.5-70.4l121.6-164.9c4.2-5.8,6.6-12.6,6.6-19.7v-35.6H975L975,236.9z"/>
</g>
</svg>
