<?xml version="1.0" encoding="utf-8"?>
<!-- Generator: Adobe Illustrator 24.3.0, SVG Export Plug-In . SVG Version: 6.00 Build 0)  -->
<svg version="1.1" id="Calque_1" xmlns="http://www.w3.org/2000/svg" xmlns:xlink="http://www.w3.org/1999/xlink" x="0px" y="0px"
	 viewBox="0 0 1000 1000" style="enable-background:new 0 0 1000 1000;" xml:space="preserve">
<style type="text/css">
	.st0{fill:none;}
</style>
<path class="st0" d="M245.4,174.6h9.2c14.9,0,27.8,8.3,34.5,20.4h8.4L250,91l-47.5,104h8.4C217.6,182.8,230.6,174.6,245.4,174.6z"/>
<g>
	<g>
		<path class="st0" d="M375.8,360.1h21.9c17.7-31.8,51.4-53.2,90-53.2h24c38.9,0,72.6,21.7,90,53.2h21.9L500,88.7L375.8,360.1z"/>
		<path d="M975,409.7v-49.6H651.1l-125.3-274h3.7V52.4h-59.2v33.7h3.9l-125.3,274H25v49.6h49.6v164.4H25v49.6h49.6v104.9h54.8v156.6
			c0,34.5,27.9,62.4,62.4,62.4s62.4-27.9,62.4-62.4V658.7c0-13-3.9-25.1-10.7-35c-11.2-16.4-30.3-27.4-51.7-27.4s-40.5,11-51.7,27.4
			c-6.8,9.9-10.7,21.9-10.7,35v47.8h-23.5v-82.7h21.9c12.3-22.4,36.3-37.8,63.9-37.8c27.4,0,51.2,15.4,63.7,37.8H346l26.1-49.6
			H105.9V409.7h279v0.3v153.7h230.2V410v-0.3h279v164.4H627.9l26.1,49.6h90.3c12.3-22.4,36.3-37.8,63.9-37.8
			c27.4,0,51.4,15.4,63.9,37.8h21.9v82.7h-23.5v-47.8c0-13-3.9-25.1-10.7-35c-11.2-16.4-30.3-27.4-51.7-27.4
			c-21.4,0-40.2,11-51.4,27.4c-6.8,9.9-10.7,21.9-11,35v226.5c0,34.5,27.9,62.4,62.4,62.4c34.5,0,62.4-27.9,62.4-62.4V728.6h54.8
			V623.7H975v-49.6h-49.6V409.7L975,409.7L975,409.7z M602,360.1c-17.5-31.6-51.4-53.2-90-53.2h-24c-38.6,0-72.6,21.4-90,53.2H376
			L500,88.7l124,271.4H602z"/>
	</g>
	<path d="M542.3,736.7l73.3-102.6H384.4l72.8,102l-4.2-3.7h-71.8l26.1,22.2h59.5v115.1h-9.4v-38.9c0-13.8-11.2-25.1-25.1-25.1
		s-25.1,11.2-25.1,25.1v91.3c0,13.8,11.2,25.1,25.1,25.1s25.1-11.2,25.1-25.1v-39.4h27.7V775.1L500,796l14.9-20.9v107.8h27.7v39.4
		c0,13.8,11.2,25.1,25.1,25.1c13.8,0,25.1-11.2,25.1-25.1v-91.3c0-13.8-11.2-25.1-25.1-25.1c-13.8,0-25.1,11.2-25.1,25.1v39.1h-9.4
		V755h59.5l26.1-22.2H547L542.3,736.7z"/>
	<polygon points="615.1,574.1 384.9,574.1 383.9,574.1 357.8,623.7 377.1,623.7 622.9,623.7 642.2,623.7 616.1,574.1 	"/>
</g>
</svg>
