<?xml version="1.0" encoding="utf-8"?>
<!-- Generator: Adobe Illustrator 24.3.0, SVG Export Plug-In . SVG Version: 6.00 Build 0)  -->
<svg version="1.1" id="Calque_1" xmlns="http://www.w3.org/2000/svg" xmlns:xlink="http://www.w3.org/1999/xlink" x="0px" y="0px"
	 viewBox="0 0 1000 1000" style="enable-background:new 0 0 1000 1000;" xml:space="preserve">
<style type="text/css">
	.st0{fill:none;}
</style>
<g>
	<path class="st0" d="M301.6,690h16.2c1.2-75.2,16.8-134.8,35.4-134.8l49,104.8h195l49-104.8c18.8,0,34,59.6,35.4,134.8h16.6V429.6
		H301.6V690z"/>
	<polygon class="st0" points="404.8,391.6 595.2,391.6 500,183.4 	"/>
	<path d="M871,572.2c-18.2,0-33,14.8-33,33V657h-12V429.6h38v-38H615.8l-96-210.2h2.8v-25.8h-45.4v25.8h3l-96,210.2H136v38h38V657
		h-12v-51.6c0-18.2-14.8-33-33-33s-33,14.8-33,33v120c0,18.4,14.8,33,33,33s33-14.8,33-33V674h36V429.6h77.6v279.8h42.2
		c1.2,75.4,16.6,135,35.4,135l49-104.8h195l49,104.8c18.6,0,34-59.6,35.4-135h42.6V429.6H802V674h36v51.2c0,18.2,14.8,33,33,33
		s33-14.6,33-33v-120C904,587,889.2,572.2,871,572.2z M500,183.4l95.2,208.2H404.8L500,183.4z M698.2,690h-16.6
		c-1.2-75.2-16.6-134.8-35.4-134.8l-49,104.8h-195l-49-104.8c-18.6,0-34,59.6-35.4,134.8h-16.2V429.6h396.6V690z"/>
</g>
</svg>
