<?xml version="1.0" encoding="utf-8"?>
<!-- Generator: Adobe Illustrator 24.3.0, SVG Export Plug-In . SVG Version: 6.00 Build 0)  -->
<svg version="1.1" id="Calque_1" xmlns="http://www.w3.org/2000/svg" xmlns:xlink="http://www.w3.org/1999/xlink" x="0px" y="0px"
	 viewBox="0 0 1000 1000" style="enable-background:new 0 0 1000 1000;" xml:space="preserve">
<style type="text/css">
	.st0{fill:none;}
</style>
<path class="st0" d="M245.4,174.6h9.2c14.9,0,27.8,8.3,34.5,20.4h8.4L250,91l-47.5,104h8.4C217.6,182.8,230.6,174.6,245.4,174.6z"/>
<g>
	<g>
		<path class="st0" d="M404.8,392.8h16.8c13.6-24.4,39.4-40.8,69-40.8H509c29.8,0,55.6,16.6,69,40.8h16.8l-94.8-208L404.8,392.8z"/>
		<path d="M864,430.8v-38H615.8l-96-210h2.8V157h-45.4v25.8h3l-96,210H136v38h38v126h-38v38h38v80.4h42v120
			c0,26.4,21.4,47.8,47.8,47.8s47.8-21.4,47.8-47.8V621.6c0-10-3-19.2-8.2-26.8c-8.6-12.6-23.2-21-39.6-21s-31,8.4-39.6,21
			c-5.2,7.6-8.2,16.8-8.2,26.8v36.6h-18v-63.4h16.8c9.4-17.2,27.8-29,49-29c21,0,39.2,11.8,48.8,29H382l20-38H198v-126h213.8v0.2
			v117.8h176.4V431v-0.2H802v126H598l20,38h69.2c9.4-17.2,27.8-29,49-29c21,0,39.4,11.8,49,29H802v63.4h-18v-36.6
			c0-10-3-19.2-8.2-26.8c-8.6-12.6-23.2-21-39.6-21c-16.4,0-30.8,8.4-39.4,21c-5.2,7.6-8.2,16.8-8.4,26.8v173.6
			c0,26.4,21.4,47.8,47.8,47.8c26.4,0,47.8-21.4,47.8-47.8v-120h42v-80.4h38v-38h-38v-126H864z M578.2,392.8
			c-13.4-24.2-39.4-40.8-69-40.8h-18.4c-29.6,0-55.6,16.4-69,40.8H405l95-208l95,208H578.2z"/>
	</g>
	<path d="M532.4,681.4l56.2-78.6H411.4l55.8,78.2l-3.2-2.8h-55l20,17h45.6v88.2h-7.2v-29.8c0-10.6-8.6-19.2-19.2-19.2
		S429,743,429,753.6v70c0,10.6,8.6,19.2,19.2,19.2s19.2-8.6,19.2-19.2v-30.2h21.2v-82.6l11.4,16l11.4-16v82.6h21.2v30.2
		c0,10.6,8.6,19.2,19.2,19.2s19.2-8.6,19.2-19.2v-70c0-10.6-8.6-19.2-19.2-19.2c-10.6,0-19.2,8.6-19.2,19.2v30h-7.2v-88.2H571l20-17
		h-55L532.4,681.4z"/>
	<polygon points="588.2,556.8 411.8,556.8 411,556.8 391,594.8 405.8,594.8 594.2,594.8 609,594.8 589,556.8 	"/>
</g>
</svg>
