<?xml version="1.0" encoding="utf-8"?>
<!-- Generator: Adobe Illustrator 24.3.0, SVG Export Plug-In . SVG Version: 6.00 Build 0)  -->
<svg version="1.1" id="Calque_1" xmlns="http://www.w3.org/2000/svg" xmlns:xlink="http://www.w3.org/1999/xlink" x="0px" y="0px"
	 viewBox="0 0 500 500" style="enable-background:new 0 0 500 500;" xml:space="preserve">
<style type="text/css">
	.st0{fill:none;}
</style>
<g>
	<path class="st0" d="M150.8,345h8.1c0.6-37.6,8.4-67.4,17.7-67.4l24.5,52.4h97.5l24.5-52.4c9.4,0,17,29.8,17.7,67.4h8.3V214.8
		H150.8V345z"/>
	<polygon class="st0" points="202.4,195.8 297.6,195.8 250,91.7 	"/>
	<path d="M435.5,286.1c-9.1,0-16.5,7.4-16.5,16.5v25.9h-6V214.8h19v-19H307.9l-48-105.1h1.4V77.8h-22.7v12.9h1.5l-48,105.1H68v19h19
		v113.7h-6v-25.8c0-9.1-7.4-16.5-16.5-16.5S48,293.6,48,302.7v60c0,9.2,7.4,16.5,16.5,16.5S81,371.8,81,362.7V337h18V214.8h38.8
		v139.9h21.1c0.6,37.7,8.3,67.5,17.7,67.5l24.5-52.4h97.5l24.5,52.4c9.3,0,17-29.8,17.7-67.5h21.3V214.8H401V337h18v25.6
		c0,9.1,7.4,16.5,16.5,16.5c9.1,0,16.5-7.3,16.5-16.5v-60C452,293.5,444.6,286.1,435.5,286.1z M250,91.7l47.6,104.1h-95.2L250,91.7z
		 M349.1,345h-8.3c-0.6-37.6-8.3-67.4-17.7-67.4L298.6,330h-97.5l-24.5-52.4c-9.3,0-17,29.8-17.7,67.4h-8.1V214.8h198.3V345z"/>
</g>
</svg>
