<?xml version="1.0" encoding="utf-8"?>
<!-- Generator: Adobe Illustrator 24.3.0, SVG Export Plug-In . SVG Version: 6.00 Build 0)  -->
<svg version="1.1" id="Calque_1" xmlns="http://www.w3.org/2000/svg" xmlns:xlink="http://www.w3.org/1999/xlink" x="0px" y="0px"
	 viewBox="0 0 1000 1000" style="enable-background:new 0 0 1000 1000;" xml:space="preserve">
<path d="M705.1,417.1c0,0-8-1.2-21-1.7V124.6h156.1V78.3H50v46.3h156.1v292.9c-84.1,11.7-195.6,75.4-4.6,368
	c106.3-41.7,174.1,80.2,316.8,136.1c-113.2-83.9-235.4-386.1-244.9-504.6c0,0-8-1.2-21-1.7V124.6h385.4v292.9
	c-84.1,11.7-195.6,75.4-4.6,368c106.3-41.7,174.1,80.2,316.8,136.1C836.8,837.8,714.6,535.6,705.1,417.1z"/>
</svg>
