<?xml version="1.0" encoding="utf-8"?>
<!-- Generator: Adobe Illustrator 24.3.0, SVG Export Plug-In . SVG Version: 6.00 Build 0)  -->
<svg version="1.1" id="Calque_1" xmlns="http://www.w3.org/2000/svg" xmlns:xlink="http://www.w3.org/1999/xlink" x="0px" y="0px"
	 viewBox="0 0 1000 1000" style="enable-background:new 0 0 1000 1000;" xml:space="preserve">
<path d="M668.2,432c0,0-6.6-1-17.2-1.4V192.2h128v-38H131v38h128v240.2c-69,9.6-160.4,61.8-3.8,301.8C342.4,700,398,800,515,845.8
	C422.2,777,322,529.2,314.2,432c0,0-6.6-1-17.2-1.4V192.2h316v240.2c-69,9.6-160.4,61.8-3.8,301.8C696.4,700,752,800,869,845.8
	C776.2,777,676,529.2,668.2,432z"/>
</svg>
