<?xml version="1.0" encoding="utf-8"?>
<!-- Generator: Adobe Illustrator 24.3.0, SVG Export Plug-In . SVG Version: 6.00 Build 0)  -->
<svg version="1.1" id="Calque_1" xmlns="http://www.w3.org/2000/svg" xmlns:xlink="http://www.w3.org/1999/xlink" x="0px" y="0px"
	 viewBox="0 0 1000 1000" style="enable-background:new 0 0 1000 1000;" xml:space="preserve">
<path d="M950,72.2V19.4H50v52.8h177.8v245.8c-6.7,39.2-9.7,75.6-10.8,108.1c-12.5-68.3-23.6-154.2-24.2-216.4
	c-13.1,108.9-9.4,192.8,0,254.4c-23.1-52.2-48.1-121.9-59.2-178.9c6.1,112.2,23.6,186.7,42.8,235.8c-30-28.3-65-71.1-85-114.4
	c24.4,98.3,53.3,151.7,79.2,180.3c-32.5,0-71.7-9.2-97.2-31.4c38.9,68.9,74.2,93.3,102.8,97.5c-30,28.3-67.8,53.9-95,55.6
	c48.1,30.3,85.3,21.4,112.5,0c-23.1,52.5-53.6,109.4-78.9,134.7c48.9-13.9,81.7-53.6,103.1-96.7c-12.5,68.3-31.1,147.2-50,192.2
	c43.1-55.6,66.4-120.8,79.2-179.4c0,73.9-4.2,163.1-13.9,221.1c30.6-89.4,41.1-170.6,43.1-235.8c12.5,68.3,23.9,155,24.4,217.8
	c13.1-108.9,9.4-192.8,0-254.4c23.1,52.2,48.1,121.9,59.2,178.9c-6.1-112.5-23.6-186.9-42.8-235.8c30,28.3,64.7,70.8,84.7,114.2
	c-24.4-98.1-53.1-151.4-78.9-180c32.5,0,71.7,9.2,97.2,31.4c-39.2-69.2-74.4-93.3-103.1-97.5c30-28.3,67.5-53.9,95-55.6
	c-48.1-30.3-85-21.4-112.2,0c23.1-52.5,53.6-109.4,78.9-135c-45.3,12.8-76.7,47.8-98.1,87.2v-17.8c12.2-60.8,28.3-125.6,44.7-164.7
	c-18.1,23.6-32.8,48.6-44.7,74.4V72.2h438.9v245.8c-6.7,39.2-9.7,75.6-10.8,108.1c-12.5-68.3-23.6-154.2-24.2-216.4
	c-13.1,108.9-9.4,192.8,0,254.4c-23.1-52.2-48.1-121.9-59.2-178.9c6.1,112.2,23.6,186.7,42.8,235.8c-30-28.3-65-71.1-85-114.4
	c24.4,98.3,53.3,151.7,79.2,180.3c-32.5,0-71.7-9.2-97.2-31.4c38.9,68.9,74.2,93.3,102.8,97.5c-30,28.3-67.8,53.9-95,55.6
	c48.1,30.3,85.3,21.4,112.5,0c-23.1,52.5-53.6,109.4-78.9,134.7c48.9-13.9,81.7-53.6,103.1-96.7c-12.5,68.3-31.1,147.2-50,192.2
	c43.1-55.6,66.4-120.8,79.2-179.4c0,73.9-4.2,163.1-13.9,221.1c30.6-89.4,41.1-170.6,43.1-235.8c12.5,68.3,23.9,155,24.4,217.8
	c13.1-108.9,9.4-192.8,0-254.4c23.1,52.2,48.1,121.9,59.2,178.9c-6.1-112.5-23.6-186.9-42.8-235.8c30,28.3,64.7,70.8,84.7,114.2
	c-24.4-98.1-53.1-151.4-78.9-180c32.5,0,71.7,9.2,97.2,31.4c-39.2-69.2-74.4-93.3-103.1-97.5c30-28.3,67.5-53.9,95-55.6
	c-48.1-30.3-85-21.4-112.2,0c23.1-52.5,53.6-109.4,78.9-135c-45.3,12.8-76.7,47.8-98.1,87.2v-17.8c12.2-60.8,28.3-125.6,44.7-164.7
	c-18.1,23.6-32.8,48.6-44.7,74.4V72.2H950z"/>
</svg>
