<?xml version="1.0" encoding="utf-8"?>
<!-- Generator: Adobe Illustrator 24.3.0, SVG Export Plug-In . SVG Version: 6.00 Build 0)  -->
<svg version="1.1" id="Calque_1" xmlns="http://www.w3.org/2000/svg" xmlns:xlink="http://www.w3.org/1999/xlink" x="0px" y="0px"
	 viewBox="0 0 1000 1000" style="enable-background:new 0 0 1000 1000;" xml:space="preserve">
<path d="M925.4,629.2c-11.6,0-21,9.4-21,21V683h-7.8V509.6H626l-104.6-229h3.2v-28.2h-49.4v28.2h3.2l-104.6,229H103.4v173.2h-7.8
	v-32.4c0-11.6-9.4-21-21-21s-21,9.4-21,21v76.2c0,11.6,9.4,21,21,21s21-9.4,21-21v-33h23V642h122.2v24h-9.4c-2.8,0-5.2,0.6-5.6,1.6
	l-4.2,9.4c-5.4,0.6-10.4,1.2-15.2,2.2c-7.4-1.6-14.2-3.8-21.2-5.4c-1-0.2-2-0.4-3.4-0.4c-1.2,0-2.4,0-3.4,0.4
	c-9,2.2-18.4,5.8-25.8,8.6c-1,0.2-1.6,0.8-1.6,1.2s0.4,0.8,1.4,1.2l16.4,7.2c-2.4,1.6-4.2,3.2-5.8,4.8l-28.2,1.4
	c-2.8,0.2-4.8,0.8-4.8,1.8v11.6c0,0.8,1.8,1.4,4.2,1.8c9.2,0.8,19.2,1.2,28.6,1.6c1.8,1.8,3.8,3.2,6,4.8l-16.6,7.2
	c-0.8,0.4-1.4,1-1.4,1.4c0,1.8,22.6,8.8,27.4,10c1,0.2,2,0.4,3.4,0.4s2.8-0.2,3.8-0.6c7-1.8,13.6-3.8,21.2-5.4c4.4,1,9.2,1.6,14,2.2
	l4.2,9.6c0.4,0.8,3.2,1.4,5.4,1.4h34.2c2.8,0,5.2-0.6,5.6-1.6l4.2-9.4c5.2-0.6,10.2-1.2,15-2.2c7.4,1.6,14.2,3.8,21.2,5.4
	c1,0.2,2,0.4,3.4,0.4c1.2,0,2.4,0,3.4-0.4c9.2-2.2,18.6-5.8,26.2-8.6c1-0.2,1.6-0.8,1.6-1.2s-0.4-0.8-1.4-1.2l-16.4-7.2
	c2.4-1.6,4.2-3.2,5.8-4.8l28.2-1.4c2.8-0.2,4.8-0.8,4.8-1.8l-0.2-11.6c0-0.8-1.8-1.4-4.2-1.8c-9.2-1-19.2-1.2-28.6-1.6
	c-1.8-1.8-3.8-3.2-6-4.8l16.6-7.2c1-0.4,1.6-1,1.6-1.4c0-1.8-22.4-8.8-27.4-10c-1,0-1.8-0.4-3.4-0.4s-2.8,0.2-3.8,0.6
	c-7,1.8-13.8,3.8-21.2,5.4c-4.6-1-9.4-1.8-14.2-2.2l-4.2-9.6c-0.4-0.8-3.2-1.4-5.4-1.4h-10.2v-23.8h237.4V666h-9.4
	c-2.8,0-5.2,0.6-5.6,1.6l-4.2,9.4c-5.4,0.6-10.4,1.2-15.2,2.2c-7.4-1.6-14.2-3.8-21.2-5.4c-1-0.2-2-0.4-3.4-0.4
	c-1.2,0-2.4,0-3.4,0.4c-9,2.2-18.4,5.8-25.8,8.6c-1,0.2-1.6,0.8-1.6,1.2s0.4,0.8,1.4,1.2l16.4,7.2c-2.4,1.6-4.2,3.2-5.8,4.8
	l-28.2,1.4c-2.8,0.2-4.8,0.8-4.8,1.8v11.6c0,0.8,1.8,1.4,4.2,1.8c9.2,0.8,19.2,1.2,28.6,1.6c1.8,1.8,3.8,3.2,6,4.8l-16.6,7.2
	c-0.8,0.4-1.4,1-1.4,1.4c0,1.8,22.6,8.8,27.4,10c1,0.2,2,0.4,3.4,0.4s2.8-0.2,3.8-0.6c7-1.8,13.6-3.8,21.2-5.4c4.4,1,9.2,1.6,14,2.2
	l4.2,9.6c0.4,0.8,3.2,1.4,5.4,1.4h34.2c2.8,0,5.2-0.6,5.6-1.6l4.2-9.4c5.2-0.6,10.2-1.2,15-2.2c7.4,1.6,14.2,3.8,21.2,5.4
	c1,0.2,2,0.4,3.4,0.4c1.2,0,2.4,0,3.4-0.4c9.2-2.2,18.6-5.8,26.2-8.6c1-0.2,1.6-0.8,1.6-1.2s-0.4-0.8-1.4-1.2l-16.4-7.2
	c2.4-1.6,4.2-3.2,5.8-4.8l28.2-1.4c2.8-0.2,4.8-0.8,4.8-1.8l-0.2-11.6c0-0.8-1.8-1.4-4.2-1.8c-9.2-1-19.2-1.2-28.6-1.6
	c-1.8-1.8-3.8-3.2-6-4.8l16.6-7.2c1-0.4,1.6-1,1.6-1.4c0-1.8-22.4-8.8-27.4-10c-1,0-1.8-0.4-3.4-0.4s-2.8,0.2-3.8,0.6
	c-7,1.8-13.8,3.8-21.2,5.4c-4.6-1-9.4-1.8-14.2-2.2l-4.2-9.6c-0.4-0.8-3.2-1.4-5.4-1.4h-10.2v-23.8h237.4V666h-9.4
	c-2.8,0-5.2,0.6-5.6,1.6l-4.2,9.4c-5.4,0.6-10.4,1.2-15.2,2.2c-7.4-1.6-14.2-3.8-21.2-5.4c-1-0.2-2-0.4-3.4-0.4
	c-1.2,0-2.4,0-3.4,0.4c-9,2.2-18.4,5.8-25.8,8.6c-1,0.2-1.6,0.8-1.6,1.2s0.4,0.8,1.4,1.2l16.4,7.2c-2.4,1.6-4.2,3.2-5.8,4.8
	l-28.2,1.4c-2.8,0.2-4.8,0.8-4.8,1.8v11.6c0,0.8,1.8,1.4,4.2,1.8c9.2,0.8,19.2,1.2,28.6,1.6c1.8,1.8,3.8,3.2,6,4.8l-16.6,7.2
	c-0.8,0.4-1.4,1-1.4,1.4c0,1.8,22.6,8.8,27.4,10c1,0.2,2,0.4,3.4,0.4s2.8-0.2,3.8-0.6c7-1.8,13.6-3.8,21.2-5.4c4.4,1,9.2,1.6,14,2.2
	l4.2,9.6c0.4,0.8,3.2,1.4,5.4,1.4h34.2c2.8,0,5.2-0.6,5.6-1.6l4.2-9.4c5.2-0.6,10.2-1.2,15-2.2c7.4,1.6,14.2,3.8,21.2,5.4
	c1,0.2,2,0.4,3.4,0.4c1.2,0,2.4,0,3.4-0.4c9.2-2.2,18.6-5.8,26.2-8.6c1-0.2,1.6-0.8,1.6-1.2s-0.4-0.8-1.4-1.2l-16.4-7.2
	c2.4-1.6,4.2-3.2,5.8-4.8l28.2-1.4c2.8-0.2,4.8-0.8,4.8-1.8l-0.2-11.6c0-0.8-1.8-1.4-4.2-1.8c-9.2-1-19.2-1.2-28.6-1.6
	c-1.8-1.8-3.8-3.2-6-4.8l16.6-7.2c1-0.4,1.6-1,1.6-1.4c0-1.8-22.4-8.8-27.4-10c-1,0-1.8-0.4-3.4-0.4s-2.8,0.2-3.8,0.6
	c-7,1.8-13.8,3.8-21.2,5.4c-4.6-1-9.4-1.8-14.2-2.2l-4.2-9.6c-0.4-0.8-3.2-1.4-5.4-1.4h-10.2v-23.8h122v51.6h23v32.8
	c0,11.6,9.4,21,21,21s21-9.4,21-21v-76.2C946.4,638.6,937,629.2,925.4,629.2z M396.2,509.6l103.8-227l103.8,227H396.2z"/>
</svg>
