<?xml version="1.0" encoding="utf-8"?>
<!-- Generator: Adobe Illustrator 24.3.0, SVG Export Plug-In . SVG Version: 6.00 Build 0)  -->
<svg version="1.1" id="Calque_1" xmlns="http://www.w3.org/2000/svg" xmlns:xlink="http://www.w3.org/1999/xlink" x="0px" y="0px"
	 viewBox="0 0 1000 1000" style="enable-background:new 0 0 1000 1000;" xml:space="preserve">
<style type="text/css">
	.st0{fill:none;}
</style>
<g>
	<path class="st0" d="M266.7,723.4h19c1.4-88.4,19.8-158.5,41.6-158.5L385,688.1h229.3l57.6-123.2c22.1,0,40,70.1,41.6,158.5H733
		V417.2H266.7V723.4z"/>
	<polygon class="st0" points="388.1,372.5 611.9,372.5 500,127.8 	"/>
	<path d="M936.2,584.9c-21.4,0-38.8,17.4-38.8,38.8v60.9h-14.1V417.2H928v-44.7H636.2L523.3,125.4h3.3V95.1h-53.4v30.3h3.5
		L363.8,372.5H72v44.7h44.7v267.4h-14.1v-60.7c0-21.4-17.4-38.8-38.8-38.8S25,602.5,25,623.9V765c0,21.6,17.4,38.8,38.8,38.8
		s38.8-17.4,38.8-38.8v-60.4h42.3V417.2h91.2v329h49.6c1.4,88.7,19.5,158.7,41.6,158.7L385,781.7h229.3l57.6,123.2
		c21.9,0,40-70.1,41.6-158.7h50.1v-329h91.5v287.4h42.3v60.2c0,21.4,17.4,38.8,38.8,38.8c21.4,0,38.8-17.2,38.8-38.8V623.7
		C975,602.3,957.6,584.9,936.2,584.9z M500,127.8l111.9,244.8H388.1L500,127.8z M733,723.4h-19.5c-1.4-88.4-19.5-158.5-41.6-158.5
		l-57.6,123.2H385l-57.6-123.2c-21.9,0-40,70.1-41.6,158.5h-19V417.2H733V723.4z"/>
</g>
</svg>
