<?xml version="1.0" encoding="utf-8"?>
<!-- Generator: Adobe Illustrator 24.3.0, SVG Export Plug-In . SVG Version: 6.00 Build 0)  -->
<svg version="1.1" id="Calque_1" xmlns="http://www.w3.org/2000/svg" xmlns:xlink="http://www.w3.org/1999/xlink" x="0px" y="0px"
	 viewBox="0 0 500 500" style="enable-background:new 0 0 500 500;" xml:space="preserve">
<style type="text/css">
	.st0{fill:none;}
</style>
<path class="st0" d="M245.4,174.6h9.2c14.9,0,27.8,8.3,34.5,20.4h8.4L250,91l-47.5,104h8.4C217.6,182.8,230.6,174.6,245.4,174.6z"/>
<g>
	<g>
		<path class="st0" d="M202.4,195h8.4c6.8-12.2,19.7-20.4,34.5-20.4h9.2c14.9,0,27.8,8.3,34.5,20.4h8.4L250,91L202.4,195z"/>
		<path d="M432,214v-19H307.9l-48-105h1.4V77.1h-22.7V90h1.5l-48,105H68v19h19v63H68v19h19v40.2h21v60c0,13.2,10.7,23.9,23.9,23.9
			c13.2,0,23.9-10.7,23.9-23.9v-86.8c0-5-1.5-9.6-4.1-13.4c-4.3-6.3-11.6-10.5-19.8-10.5s-15.5,4.2-19.8,10.5
			c-2.6,3.8-4.1,8.4-4.1,13.4v18.3h-9V296h8.4c4.7-8.6,13.9-14.5,24.5-14.5c10.5,0,19.6,5.9,24.4,14.5H191l10-19H99v-63h106.9
			c0,0,0,0.1,0,0.1V273h88.2v-58.9c0,0,0-0.1,0-0.1H401v63H299l10,19h34.6c4.7-8.6,13.9-14.5,24.5-14.5c10.5,0,19.7,5.9,24.5,14.5
			h8.4v31.7h-9v-18.3c0-5-1.5-9.6-4.1-13.4c-4.3-6.3-11.6-10.5-19.8-10.5c-8.2,0-15.4,4.2-19.7,10.5c-2.6,3.8-4.1,8.4-4.2,13.4v86.8
			c0,13.2,10.7,23.9,23.9,23.9c13.2,0,23.9-10.7,23.9-23.9v-60h21V296h19v-19h-19v-63H432z M289.1,195
			c-6.7-12.1-19.7-20.4-34.5-20.4h-9.2c-14.8,0-27.8,8.2-34.5,20.4h-8.4L250,91l47.5,104H289.1z"/>
	</g>
	<path d="M266.2,339.3l28.1-39.3h-88.6l27.9,39.1l-1.6-1.4h-27.5l10,8.5h22.8v44.1h-3.6v-14.9c0-5.3-4.3-9.6-9.6-9.6
		c-5.3,0-9.6,4.3-9.6,9.6v35c0,5.3,4.3,9.6,9.6,9.6c5.3,0,9.6-4.3,9.6-9.6v-15.1h10.6V354l5.7,8l5.7-8v41.3h10.6v15.1
		c0,5.3,4.3,9.6,9.6,9.6s9.6-4.3,9.6-9.6v-35c0-5.3-4.3-9.6-9.6-9.6c-5.3,0-9.6,4.3-9.6,9.6v15h-3.6v-44.1h22.8l10-8.5H268
		L266.2,339.3z"/>
	<polygon points="294.1,277 205.9,277 205.5,277 195.5,296 202.9,296 297.1,296 304.5,296 294.5,277 	"/>
</g>
</svg>
