<?xml version="1.0" encoding="utf-8"?>
<!-- Generator: Adobe Illustrator 24.3.0, SVG Export Plug-In . SVG Version: 6.00 Build 0)  -->
<svg version="1.1" id="Calque_1" xmlns="http://www.w3.org/2000/svg" xmlns:xlink="http://www.w3.org/1999/xlink" x="0px" y="0px"
	 viewBox="0 0 1000 1000" style="enable-background:new 0 0 1000 1000;" xml:space="preserve">
<style type="text/css">
	.st0{fill:none;}
</style>
<g>
	<path d="M938.6,753c-18.3,0-33.2,14.9-33.2,33.2v52.2h-12.1V455.6h-24.2v399.9h24.2l0,0h12.1V907c0,18.3,14.9,33.2,33.2,33.2
		c18.3,0,33.2-14.7,33.2-33.2V786.2C971.8,767.9,956.9,753,938.6,753z"/>
	<g>
		<g>
			<path d="M481.7,557.9l-4.6-14.5c-0.4-1.2-1.6-2.2-3-2.2s-2.4,0.8-3,2.2l-4.6,14.7c0,0.2,0,0.2-0.2,0.2c-0.2,0.8-0.4,1.6-0.4,2.4
				c0,4.2,3.6,7.9,7.9,7.9c4.2,0,7.9-3.6,7.9-7.9c0-0.8-0.2-1.4-0.4-2.2C481.9,558.3,481.7,558.1,481.7,557.9"/>
			<path d="M481.7,599.2l-4.6-14.5c-0.4-1.2-1.6-2.2-3-2.2s-2.4,0.8-3,2.2l-4.6,14.7c0,0.2,0,0.2-0.2,0.2c-0.2,0.8-0.4,1.6-0.4,2.4
				c0,4.2,3.6,7.9,7.9,7.9c4.2,0,7.9-3.6,7.9-7.9c0-0.8-0.2-1.4-0.4-2.2C481.9,599.6,481.7,599.2,481.7,599.2"/>
			<path d="M481.7,638.8l-4.6-14.5c-0.4-1.2-1.6-2.2-3-2.2s-2.4,0.8-3,2.2l-4.6,14.7c0,0.2,0,0.2-0.2,0.2c-0.2,0.8-0.4,1.6-0.4,2.4
				c0,4.2,3.6,7.9,7.9,7.9c4.2,0,7.9-3.6,7.9-7.9c0-0.8-0.2-1.4-0.4-2.2C481.9,639,481.7,638.8,481.7,638.8"/>
			<path d="M481.7,678.3l-4.6-14.5c-0.4-1.2-1.6-2.2-3-2.2s-2.4,0.8-3,2.2l-4.6,14.7c0,0.2,0,0.2-0.2,0.2c-0.2,0.8-0.4,1.6-0.4,2.4
				c0,4.2,3.6,7.9,7.9,7.9c4.2,0,7.9-3.6,7.9-7.9c0-0.8-0.2-1.4-0.4-2.2C481.9,678.7,481.7,678.5,481.7,678.3"/>
			<path d="M443.8,556.3l2.6-14.9c0.2-1.4-0.4-2.6-1.6-3.2c-1.2-0.6-2.6-0.4-3.6,0.6l-10.9,10.9c-0.2,0.2-0.2,0.2-0.2,0.2
				c-0.6,0.6-1,1.2-1.4,2c-2,3.8-0.4,8.7,3.4,10.7c3.8,2,8.7,0.4,10.7-3.4c0.4-0.6,0.6-1.4,0.8-2.2
				C443.8,556.7,443.8,556.5,443.8,556.3"/>
			<path d="M424.9,592.9l2.6-14.9c0.2-1.4-0.4-2.6-1.6-3.2c-1.2-0.6-2.6-0.4-3.6,0.6l-10.9,10.9c-0.2,0.2-0.2,0.2-0.2,0.2
				c-0.6,0.6-1,1.2-1.4,2c-2,3.8-0.4,8.7,3.4,10.7c3.8,2,8.7,0.4,10.7-3.4c0.4-0.6,0.6-1.4,0.8-2.2
				C424.9,593.3,424.9,592.9,424.9,592.9"/>
			<path d="M406.6,628.2l2.6-14.9c0.2-1.4-0.4-2.6-1.6-3.2c-1.2-0.6-2.6-0.4-3.6,0.6l-10.9,10.9c-0.2,0.2-0.2,0.2-0.2,0.2
				c-0.6,0.6-1,1.2-1.4,2c-2,3.8-0.4,8.7,3.4,10.7c3.8,2,8.7,0.4,10.7-3.4c0.4-0.6,0.6-1.4,0.8-2.2
				C406.6,628.4,406.6,628.2,406.6,628.2"/>
			<path d="M388.2,663.2l2.6-14.9c0.2-1.4-0.4-2.6-1.6-3.2c-1.2-0.6-2.6-0.4-3.6,0.6l-10.9,10.9c-0.2,0.2-0.2,0.2-0.2,0.2
				c-0.6,0.6-1,1.2-1.4,2c-2,3.8-0.4,8.7,3.4,10.7c3.8,2,8.7,0.4,10.7-3.4c0.4-0.6,0.6-1.4,0.8-2.2
				C388.2,663.6,388.2,663.2,388.2,663.2"/>
			<path d="M504.8,556.3l-2.6-14.9c-0.2-1.4,0.4-2.6,1.6-3.2c1.2-0.6,2.6-0.4,3.6,0.6l10.9,10.9c0.2,0.2,0.2,0.2,0.2,0.2
				c0.6,0.6,1,1.2,1.4,2c2,3.8,0.4,8.7-3.4,10.7c-3.8,2-8.7,0.4-10.7-3.4c-0.4-0.6-0.6-1.4-0.8-2.2
				C504.8,556.7,504.8,556.5,504.8,556.3"/>
			<path d="M523.8,592.9l-2.6-14.9c-0.2-1.4,0.4-2.6,1.6-3.2c1.2-0.6,2.6-0.4,3.6,0.6l10.9,10.9c0.2,0.2,0.2,0.2,0.2,0.2
				c0.6,0.6,1,1.2,1.4,2c2,3.8,0.4,8.7-3.4,10.7c-3.8,2-8.7,0.4-10.7-3.4c-0.4-0.6-0.6-1.4-0.8-2.2
				C523.8,593.3,523.8,592.9,523.8,592.9"/>
			<path d="M542.1,628.2l-2.6-14.9c-0.2-1.4,0.4-2.6,1.6-3.2c1.2-0.6,2.6-0.4,3.6,0.6l10.9,10.9c0.2,0.2,0.2,0.2,0.2,0.2
				c0.6,0.6,1,1.2,1.4,2c2,3.8,0.4,8.7-3.4,10.7c-3.8,2-8.7,0.4-10.7-3.4c-0.4-0.6-0.6-1.4-0.8-2.2
				C542.1,628.4,542.1,628.2,542.1,628.2"/>
			<path d="M560.2,663.2l-2.6-14.9c-0.2-1.4,0.4-2.6,1.6-3.2c1.2-0.6,2.6-0.4,3.6,0.6l10.9,10.9c0.2,0.2,0.2,0.2,0.2,0.2
				c0.6,0.6,1,1.2,1.4,2c2,3.8,0.4,8.7-3.4,10.7c-3.8,2-8.7,0.4-10.7-3.4c-0.4-0.6-0.6-1.4-0.8-2.2
				C560.2,663.6,560.2,663.2,560.2,663.2"/>
		</g>
		<g>
			<g>
				<path d="M723.7,557.9c0,0.2-0.2,0.4,0,0.4c-0.2,0.8-0.4,1.4-0.4,2.2c0,4.2,3.6,7.9,7.9,7.9s7.9-3.6,7.9-7.9
					c0-0.8-0.2-1.6-0.4-2.4c-0.2,0-0.2-0.2-0.2-0.2l-4.6-14.7c-0.4-1.4-1.6-2.2-3-2.2c-1.4,0-2.4,1-3,2.2L723.7,557.9"/>
				<path d="M723.7,599.2c0,0.2-0.2,0.4,0,0.4c-0.2,0.8-0.4,1.4-0.4,2.2c0,4.2,3.6,7.9,7.9,7.9s7.9-3.6,7.9-7.9
					c0-0.8-0.2-1.6-0.4-2.4c-0.2,0-0.2-0.2-0.2-0.2l-4.6-14.7c-0.4-1.4-1.6-2.2-3-2.2c-1.4,0-2.4,1-3,2.2L723.7,599.2"/>
				<path d="M723.7,638.8c0,0.2-0.2,0.4,0,0.4c-0.2,0.8-0.4,1.4-0.4,2.2c0,4.2,3.6,7.9,7.9,7.9s7.9-3.6,7.9-7.9
					c0-0.8-0.2-1.6-0.4-2.4c-0.2,0-0.2-0.2-0.2-0.2l-4.6-14.7c-0.4-1.4-1.6-2.2-3-2.2c-1.4,0-2.4,1-3,2.2L723.7,638.8"/>
				<path d="M723.7,678.3c0,0.2-0.2,0.4,0,0.4c-0.2,0.8-0.4,1.4-0.4,2.2c0,4.2,3.6,7.9,7.9,7.9s7.9-3.6,7.9-7.9
					c0-0.8-0.2-1.6-0.4-2.4c-0.2,0-0.2-0.2-0.2-0.2l-4.6-14.7c-0.4-1.4-1.6-2.2-3-2.2c-1.4,0-2.4,1-3,2.2L723.7,678.3"/>
				<path d="M761.6,556.3c0,0.2,0,0.4,0.2,0.4c0.2,0.8,0.4,1.4,0.8,2.2c2,3.8,6.8,5.2,10.7,3.4c3.8-2,5.2-6.8,3.4-10.7
					c-0.4-0.6-0.8-1.4-1.4-2c-0.2-0.2-0.2-0.2-0.2-0.2l-10.9-10.9c-1-1-2.4-1.2-3.6-0.6c-1.2,0.6-1.8,2-1.6,3.2L761.6,556.3"/>
				<path d="M780.5,592.9c0,0.2,0,0.4,0.2,0.4c0.2,0.8,0.4,1.4,0.8,2.2c2,3.8,6.8,5.2,10.7,3.4c3.8-2,5.2-6.8,3.4-10.7
					c-0.4-0.6-0.8-1.4-1.4-2c-0.2-0.2-0.2-0.2-0.2-0.2l-10.9-10.9c-1-1-2.4-1.2-3.6-0.6c-1.2,0.6-1.8,2-1.6,3.2L780.5,592.9"/>
				<path d="M798.8,628.2c0,0.2,0.2,0.4,0.2,0.4c0.2,0.8,0.4,1.4,0.8,2.2c2,3.8,6.8,5.2,10.7,3.4c3.8-2,5.2-6.8,3.4-10.7
					c-0.4-0.6-0.8-1.4-1.4-2c-0.2-0.2-0.2-0.2-0.2-0.2l-10.9-10.9c-1-1-2.4-1.2-3.6-0.6c-1.2,0.6-1.8,2-1.6,3.2L798.8,628.2"/>
				<path d="M817.1,663.2c0,0.2,0.2,0.2,0.2,0.4c0.2,0.8,0.4,1.4,0.8,2.2c2,3.8,6.8,5.2,10.7,3.4c3.8-2,5.2-6.8,3.4-10.7
					c-0.4-0.6-0.8-1.4-1.4-2c-0.2-0.2-0.2-0.2-0.2-0.2l-10.9-10.9c-1-1-2.4-1.2-3.6-0.6c-1.2,0.6-1.8,2-1.6,3.2L817.1,663.2"/>
				<path d="M700.6,556.3c0,0.2,0,0.4-0.2,0.4c-0.2,0.8-0.4,1.4-0.8,2.2c-2,3.8-6.8,5.2-10.7,3.4c-3.8-2-5.2-6.8-3.4-10.7
					c0.4-0.6,0.8-1.4,1.4-2c0.2-0.2,0.2-0.2,0.2-0.2l10.9-10.9c1-1,2.4-1.2,3.6-0.6c1.2,0.6,1.8,2,1.6,3.2L700.6,556.3"/>
				<path d="M681.6,592.9c0,0.2,0,0.4-0.2,0.4c-0.2,0.8-0.4,1.4-0.8,2.2c-2,3.8-6.8,5.2-10.7,3.4c-3.8-2-5.2-6.8-3.4-10.7
					c0.4-0.6,0.8-1.4,1.4-2c0.2-0.2,0.2-0.2,0.2-0.2l10.9-10.9c1-1,2.4-1.2,3.6-0.6c1.2,0.6,1.8,2,1.6,3.2L681.6,592.9"/>
				<path d="M663.5,628.2c0,0.2-0.2,0.4-0.2,0.4c-0.2,0.8-0.4,1.4-0.8,2.2c-2,3.8-6.8,5.2-10.7,3.4c-3.8-2-5.2-6.8-3.4-10.7
					c0.4-0.6,0.8-1.4,1.4-2c0.2-0.2,0.2-0.2,0.2-0.2l10.9-10.9c1-1,2.4-1.2,3.6-0.6c1.2,0.6,1.8,2,1.6,3.2L663.5,628.2"/>
				<path d="M645.2,663.2c0,0.2-0.2,0.2-0.2,0.4c-0.2,0.8-0.4,1.4-0.8,2.2c-2,3.8-6.8,5.2-10.7,3.4c-3.8-2-5.2-6.8-3.4-10.7
					c0.4-0.6,0.8-1.4,1.4-2c0.2-0.2,0.2-0.2,0.2-0.2l10.9-10.9c1-1,2.4-1.2,3.6-0.6c1.2,0.6,1.8,2,1.6,3.2L645.2,663.2"/>
			</g>
		</g>
	</g>
	<g>
		<polygon class="st0" points="177,689 235,689 235,571 204.8,571 		"/>
		<polygon class="st0" points="257.2,440.1 257.2,550 282.9,550 		"/>
		<polygon class="st0" points="235,550 235,442.3 209.6,550 		"/>
		<polygon class="st0" points="257.2,571 257.2,689 315.4,689 287.8,571 		"/>
		<g>
			<path d="M833.6,116.7l4.6-26.2l13.5-2.6v3.4h-2.6c-0.8,0-1.6,0.4-1.6,1.2v0.8c0,1.2,0.8,2,1.6,2h2.6v1.2h-2.6
				c-0.8,0-1.6,1.2-1.6,2v0.8c0,1.2,0.8,1.6,1.6,1.6h2.6v1.2h-2.6c-0.8,0-1.6,0.4-1.6,2v0.8c0,1.2,0.8,1.6,1.6,1.6h2.6v0.8h-2.6
				c-0.8,0-1.6,0.4-1.6,1.2v1.2c0,0.8,0.8,1.6,1.6,1.6h2.6v2h-2.6c-0.8,0-1.6,0.8-1.6,1.6v1.2c0,0.8,0.8,1.2,1.6,1.2h2.6v4.2
				l18.5-4.2h3.4c0.8,0,1.6-0.4,1.6-1.2v-1.2c0-0.8-0.8-1.6-1.6-1.6h-2v-2h2c0.8,0,1.6-0.8,1.6-1.6v-1.2c0-0.8-0.8-1.2-1.6-1.2h-2
				v-1.6h2c0.8,0,1.6-0.4,1.6-1.6v-0.8c0-1.6-0.8-2-1.6-2h-2v-1.2h2c0.8,0,1.6-0.4,1.6-1.6v-0.8c0-0.8-0.8-2-1.6-2h-2v-1.2h2
				c0.8,0,1.6-0.8,1.6-2v-0.8c0-0.8-0.8-1.2-1.6-1.2h-2v-3.4l13.5,2.6l3.4,20.5l11.9-3.4l-5.8-26.2l-23.2-6.2v-8.1h-20.1v8.1
				l-23.2,6.2l-7.7,35.4v20.9l0,0h12.7v-20.3L833.6,116.7L833.6,116.7z"/>
			<path d="M850.6,63.4h22.4c0.8,0,1.6-0.4,1.6-1.2v-0.8c0-1.2-0.8-1.6-1.6-1.6h-22.4c-0.8,0-1.2,0.4-1.2,1.6v0.8
				C849.4,63,849.8,63.4,850.6,63.4z"/>
			<path d="M880.8,270.8v-1.2c0-2-1.2-3-2.4-3h-5.4v-2h5.4c1.2,0,2.4-1.6,2.4-2.6v-1.2c0-2-1.2-2.6-2.4-2.6h-5.4v-1.6h5.4
				c1.2,0,2.4-0.8,2.4-3v-1.2c0-2-1.2-2.2-2.4-2.2h-5.4v-2.6h5.4c1.2,0,2.4-0.4,2.4-1.6v-2c0-1.2-1.2-2.2-2.4-2.2h-5.4v-3.2h5.4
				c1.2,0,2.4-1.2,2.4-2.2v-2c0-1.2-1.2-1.6-2.4-1.6h-0.4l7.2-7.2l0.8-6.2v-8.9h-34.4l-9.7,11.9v10.5h-2.4c-1.2,0-2.2,0.4-2.2,1.6v2
				c0,1.2,1.2,2.2,2.2,2.2h2.4v3h-2.4c-1.2,0-2.2,1.2-2.2,2.2v2c0,1.2,1.2,1.6,2.2,1.6h2.4v2.6h-2.4c-1.2,0-2.2,0.4-2.2,2.2v1.2
				c0,2.4,1.2,3,2.2,3h2.4v1.6h-2.4c-1.2,0-2.2,0.8-2.2,2.6v1.2c0,1.2,1.2,2.6,2.2,2.6h2.4v2h-2.4c-1.2,0-2.2,1.2-2.2,3v1.2
				c0,1.2,1.2,2,2.2,2h2.4v25.4H292.2v-11.7c0-13.9-11.3-25.2-25.2-25.2h-42.3c-13.9,0-25.2,11.3-25.2,25.2v82.2
				c0,13.9,11.3,25.2,25.2,25.2h0.2l-85.6,366.1c6.8,2,13.3,4.6,19.3,7.9l13.5-57.8H235v230.4h22.1V709.9h63.2l13.5,57.8
				c6-3.2,12.5-6,19.3-7.9l-85.8-366.1c13.7-0.2,25-11.5,25-25.2v-48.7h116.2l181.8,67.7l-182.8,68.1h-34v21.5h63.6
				c-2.6,0-4.8,2-4.8,4.8v16.7c0,2.6,2,4.8,4.8,4.8h15.5c2.6,0,4.8,2,4.8,4.8v13.9c0,2.6,2,4.8,4.8,4.8h24.8c2.6,0,4.8-2,4.8-4.8
				v-13.9c0-2.6,2-4.8,4.8-4.8h15.5c2.6,0,4.8-2,4.8-4.8V482c-0.2-2.6-2.2-4.8-5-4.8h182.4c-2.6,0-4.8,2.2-4.8,4.8v16.7
				c0,2.6,2,4.8,4.8,4.8H710c2.6,0,4.8,2,4.8,4.8v13.9c0,2.6,2,4.8,4.8,4.8h24.8c2.6,0,4.8-2,4.8-4.8v-13.9c0-2.6,2-4.8,4.8-4.8
				h15.5c2.6,0,4.8-2,4.8-4.8V482c0-2.6-2-4.8-4.8-4.8h100.3v-21.5h-65.4l-182.8-68.1l181.8-67.7h38.7h51.7v-21.5v-26.6h-13.1
				L880.8,270.8L880.8,270.8z M235,689h-58l27.6-117.8h30.2V689H235z M235,550h-25.2L235,442.3V550z M315.4,689H257V571.2h30.8
				L315.4,689z M282.9,550h-25.8V440.1L282.9,550z M773,455.6H438l167.5-62.4L773,455.6z M605.5,381.7l-166.5-62h333.2L605.5,381.7z
				"/>
			<path d="M968,107.9l-6.2,2l0.4-13.5l-120.6,32.4l0.6,12.9h-42.5l-8.5-15.9l-36.6-1.2l11.1,27.2l37,0.4h39.5v12.7l9.7-2v19.3
				l-13.5-2.6l-4.6-25.6H821l7.7,34.8l23.2,6.2v8.1h20.1V195l23.2-6.2l5.8-27.4l-12.7,2.2l-2.6,15.9l-13.5,2.6v-23l29.8-5.4v-16.5
				l33.6-8.9l0.8,14.7l33.6-9.3c3.4-1.2,5-3,5-6.6v-14.7C974.6,108.3,971.8,106.2,968,107.9z"/>
		</g>
	</g>
	<path d="M112.2,765.9C64.1,765.9,25,805,25,853.1s39.1,87.2,87.2,87.2s87.2-39.1,87.2-87.2S160.3,765.9,112.2,765.9z M112.2,895.2
		c-23.2,0-42.1-18.9-42.1-42.1S89,811,112.2,811s42.1,18.9,42.1,42.1S135.5,895.2,112.2,895.2z"/>
	<path d="M380.2,765.9c-48.1,0-87.2,39.1-87.2,87.2s39.1,87.2,87.2,87.2s87.2-39.1,87.2-87.2S428.3,765.9,380.2,765.9z M380.2,895.2
		c-23.2,0-42.1-18.9-42.1-42.1S357,811,380.2,811s42.1,18.9,42.1,42.1S403.6,895.2,380.2,895.2z"/>
</g>
</svg>
