<?xml version="1.0" encoding="utf-8"?>
<!-- Generator: Adobe Illustrator 24.3.0, SVG Export Plug-In . SVG Version: 6.00 Build 0)  -->
<svg version="1.1" id="Calque_1" xmlns="http://www.w3.org/2000/svg" xmlns:xlink="http://www.w3.org/1999/xlink" x="0px" y="0px"
	 viewBox="0 0 1000 1000" style="enable-background:new 0 0 1000 1000;" xml:space="preserve">
<style type="text/css">
	.st0{fill:none;}
</style>
<g>
	<path d="M83.8,812.7c0,21.4,17.5,38.8,38.8,38.8s38.8-17.5,38.8-38.8c0-21.3-17.3-38.8-38.8-38.8
		C101.3,773.8,83.8,791.3,83.8,812.7z M102.3,812.7c0-11.2,9.2-20.4,20.4-20.4s20.4,9.2,20.4,20.4c0,11.2-9.2,20.4-20.4,20.4
		C111.5,833.2,102.3,824,102.3,812.7z"/>
	<path d="M365.4,771.7c0,43.9,35.9,79.8,79.8,79.8s79.8-35.9,79.8-79.8c0-43.9-35.5-79.8-79.8-79.8
		C401.3,691.9,365.4,727.9,365.4,771.7z M403.3,771.7c0-23,18.9-41.9,41.9-41.9c23,0,41.9,18.9,41.9,41.9s-18.9,41.9-41.9,41.9
		C422.2,813.6,403.3,794.8,403.3,771.7z"/>
	<path id="Shape_2_" d="M969.7,568.4c5.5-3.7,7-11.2,3.4-16.7c-3.7-5.5-11.2-7-16.7-3.4L927,567.9c-1,0.6-1.7,1.5-2.4,2.4
		c-14.3-18.9-32.5-34.4-53.4-45.6c0.4-0.4,0.7-1.1,1.1-1.6l11.9-24.1c1.9-3.9,1.7-8.4-0.7-12c-2.4-3.6-6.5-5.7-10.9-5.4
		c-4.3,0.3-8.1,2.9-10,6.8l-12,24.2c-0.4,1-0.6,1.9-0.8,3c-67-24.2-142.1-1.7-184.8,55.4c-42.8,57.1-43.2,135.5-1,193
		c0,0-0.1,0.1-0.2,0.1l-26.5,21.2c-5.2,4.2-6,11.7-1.9,16.9c4.2,5.2,11.7,6,16.9,1.9l26.7-21.2c0.2-0.1,0.3-0.4,0.5-0.6
		c56.9,58.2,148.1,65.2,213.3,16.5c65.2-48.8,84.2-138.2,44.5-209.2c1.2-0.3,2.1-0.8,3.1-1.4L969.7,568.4z M921.7,680.2
		c-6.7,0-12-5.4-12-12c0-63.2-51.2-114.4-114.4-114.4s-114.4,51.2-114.4,114.4s51.3,114.3,114.4,114.3c36.5,0,66.3-29.7,66.3-66.3
		s-29.8-66.1-66.3-66.1c-23.3,0-42.1,18.9-42.1,42.1c0,23.2,18.9,42.1,42.1,42.1c6.7,0,12,5.4,12,12c0,6.7-5.4,12-12,12
		c-36.5,0-66.3-29.7-66.3-66.3s29.7-66.3,66.3-66.3c49.8,0,90.4,40.3,90.4,90.4s-40.5,90.5-90.4,90.5c-76.4,0-138.5-62-138.5-138.5
		s62-138.4,138.5-138.4s138.5,62,138.5,138.4c0,3.2-1.3,6.2-3.5,8.6C928,678.9,924.9,680.2,921.7,680.2z"/>
	<g>
		<polygon class="st0" points="490.2,337.6 490.2,422.9 575.6,337.6 		"/>
		<polygon class="st0" points="490.2,458.6 490.2,494.1 646.8,337.6 611.3,337.6 		"/>
		<path d="M902.7,240.4l-88.2-88.2c-2.4-2.3-5.6-3.6-9-3.7H565.9c-3.4,0-6.5,1.4-9,3.7l-88.2,88.2c-2.3,2.4-3.7,5.6-3.7,9v63H176.4
			c-1,0-2,0.1-2.9,0.4c-2,0.4-3.8,1.4-5.3,2.6c-0.6,0.5-1.3,1.2-1.8,1.9c-0.1,0.2-0.4,0.4-0.5,0.6L78.1,430.9
			c-1.8,2.2-2.6,4.9-2.6,7.7v163.9H37.6c-7,0-12.6,5.6-12.6,12.6v75.7c0,7,5.6,12.6,12.6,12.6v88.2c0,7,5.6,12.6,12.6,12.6h26.6
			c4-21.6,23.1-38.2,45.8-38.2c23,0,41.9,16.6,45.8,38.2h186.7c-3.7-10.1-5.7-21.1-5.7-32.5c0-52.7,43.1-95.7,95.7-95.7
			c53.2,0,95.7,43.1,95.7,95.7c0,11.4-2,22.3-5.7,32.5H591c4.8,0,9-2.6,11.2-6.9c2.1-4.1,1.8-9.2-0.8-13L490.2,623.8v-94.1
			l192.1-192.1h211.4c7,0,12.6-5.6,12.6-12.6v-75.7C906.4,246,905.1,242.7,902.7,240.4z M490.2,337.6h85.3l-85.3,85.3V337.6z
			 M490.2,494.1v-35.5l121.1-121h35.5L490.2,494.1z"/>
	</g>
</g>
</svg>
