<?xml version="1.0" encoding="utf-8"?>
<!-- Generator: Adobe Illustrator 22.1.0, SVG Export Plug-In . SVG Version: 6.00 Build 0)  -->
<svg version="1.1" id="Calque_1" xmlns="http://www.w3.org/2000/svg" xmlns:xlink="http://www.w3.org/1999/xlink" x="0px" y="0px"
	 viewBox="0 0 500 500" style="enable-background:new 0 0 500 500;" xml:space="preserve">
<g>
	<polygon points="359.3999939,59 140.6000061,59 80.5999985,94.4000015 131,195.1999969 369,195.1999969 419.3999939,94.4000015 	
		"/>
	<g>
		<path d="M408.1999512,300.4000244c-13.6999512,0-24.7999268,11.0999756-24.7999268,24.7999878V364h-14.2999878V200.5999756H131
			v163.2000122h-14.3999634v-38.5999756c0-13.7000122-11.1000366-24.7999878-24.8000488-24.7999878
			C78.0999756,300.5,67,311.5999756,67,325.2999878v90C67,428.8999634,78.0999756,440,91.7999878,440
			c13.6000366,0,24.8000488-11.1000366,24.8000488-24.7999878v-38.6000366H131v52.2000122h70.0907593
			c14.8428345,7.0479736,31.425293,11,48.9092407,11s34.0663452-3.9520264,48.9092407-11h70.1907959v-52h14.2999878v38.4000244
			C383.4000244,428.8999634,394.5,440,408.1999512,440C421.9000244,440,433,428.8999634,433,415.2000122v-90
			C433,311.5,421.9000244,300.4000244,408.1999512,300.4000244z M359.789978,357.7918091l-3.8302002,1.6415405l-3.9751587,1.7036133
			c-6.7675781,19.1989746-18.8104858,35.9296265-34.3820801,48.4451904l6.5853271-1.321106l5.4437866-1.0921021l0.0493774,0.2460938
			l0.6193848,3.0875854l-5.0718994,1.0174561l-6.4562988,1.2952271l-7.5349731,1.5115967
			c-9.1033325,6.2817383-19.2111816,11.2039795-30.0307617,14.4730835
			c-9.8853149,2.9868774-20.3605957,4.5999756-31.2064819,4.5999756s-21.321106-1.6130981-31.2064209-4.5999756
			c-21.3413086-6.4482422-39.9179688-19.328186-53.4639282-36.3793335l-3.0960693,1.3269043l-2.9702759,1.2729492
			l-5.3782349,2.3049316l-1.3392334-3.124939l4.6245728-1.9819336l2.9550781-1.2664795l3.0645752-1.3133545
			c-13.3690186-17.9901123-21.2900391-40.2572021-21.2900391-64.3387451c0-15.1796875,3.1521606-29.6361084,8.8264771-42.7578125
			l-4.2561035,1.8240356l-4.0479736,1.7348022l-0.5369873,0.2301636l-1.3392334-3.124939l3.6156616-1.5495605l4.2150269-1.8064575
			l4.4714966-1.9163818c13.3520508-27.2710571,37.8504028-48.1343384,67.5227051-56.604248l-4.612793-1.9542236
			l-3.9172974-1.6595459l0.1796875-0.4241333l1.1466675-2.706543l3.074707,1.3026123l4.6442261,1.9675293l4.9086914,2.0795898
			c7.7845459-1.7880249,15.8862915-2.7348633,24.2050171-2.7348633c39.2416382,0,73.6681519,21.0274048,92.6106567,52.4029541
			l3.0062256-1.2883911l2.9130249-1.2484131l4.2599487-1.8256836l1.3392334,3.124939l-3.8951416,1.6693115l-2.9077759,1.2462158
			l-2.9954224,1.2837524c8.7624512,15.6100464,13.7692871,33.5983887,13.7692871,52.7352905
			c0,10.9639893-1.6466675,21.5500488-4.6964111,31.5299683l3.831604-1.6421509l3.7190552-1.5938721l0.8352661-0.3579712
			l1.3392334,3.124939L359.789978,357.7918091z"/>
		<path d="M250,246.0999756c-43.7000122,0-79.2000122,35.5-79.2000122,79.2000122S206.2999878,404.5,250,404.5
			s79.2000122-35.5,79.2000122-79.2000122S293.7000122,246.0999756,250,246.0999756z M250,398.5999756
			c-40.3999634,0-73.2999878-32.9000244-73.2999878-73.2999878C176.7000122,284.8999634,209.6000366,252,250,252
			c40.4000244,0,73.2999878,32.8999634,73.2999878,73.2999878C323.2999878,365.6999512,290.4000244,398.5999756,250,398.5999756z"/>
		<path d="M250,282.5999756c-23.5,0-42.7000122,19.2000122-42.7000122,42.7000122S226.4000244,368,250,368
			c23.6000366,0,42.7000122-19.2000122,42.7000122-42.7000122S273.6000366,282.5999756,250,282.5999756z M250,363
			c-20.7999878,0-37.7000122-16.8999634-37.7000122-37.7000122c0-20.7999878,16.9000244-37.7000122,37.7000122-37.7000122
			s37.7000122,16.8999634,37.7000122,37.7000122C287.7000122,346.0999756,270.7999878,363,250,363z"/>
		
			<rect x="297.4108582" y="231.4663086" transform="matrix(0.3900917 -0.920776 0.920776 0.3900917 -42.3004723 424.2724304)" width="3.4000797" height="25.2006474"/>
		
			<rect x="248.4083557" y="311.4712219" transform="matrix(0.3900917 -0.920776 0.920776 0.3900917 -145.8541107 427.9477539)" width="3.4000797" height="25.2006474"/>
		
			<rect x="214.1843109" y="400.1121216" transform="matrix(0.393919 -0.9191452 0.9191452 0.393919 -248.5443726 448.5958252)" width="3.3998339" height="25.2987232"/>
		
			<rect x="189.5071564" y="315.2119446" transform="matrix(0.9844629 -0.175593 0.175593 0.9844629 -54.2658768 38.639164)" width="3.4001198" height="21.5008087"/>
		
			<rect x="236.0579376" y="368.1115417" transform="matrix(0.3939181 -0.9191455 0.9191455 0.3939181 -205.8739777 449.3063354)" width="3.399822" height="25.2987518"/>
		
			<rect x="299.15802" y="288.0252075" transform="matrix(0.3900896 -0.9207769 0.9207769 0.3900896 -93.3125839 460.3778076)" width="3.4000559" height="25.2006474"/>
		
			<rect x="174.1912842" y="255.0869598" transform="matrix(0.9191478 -0.3939128 0.3939128 0.9191478 -86.0451584 94.3607101)" width="25.2987518" height="3.399822"/>
		
			<rect x="301.0090942" y="394.6095581" transform="matrix(0.9207796 -0.3900833 0.3900833 0.9207796 -129.7494659 153.7295837)" width="25.200634" height="3.400028"/>
		
			<rect x="155.910965" y="342.0105286" transform="matrix(0.7217036 -0.6922022 0.6922022 0.7217036 -199.5921936 206.9783783)" width="3.3999801" height="19.3998966"/>
		
			<rect x="226.2079773" y="267.8065796" transform="matrix(0.9207731 -0.3900985 0.3900985 0.9207731 -86.2140808 114.51091)" width="25.200634" height="3.4000516"/>
		
			<rect x="280.8869629" y="361.7816772" transform="matrix(0.919145 -0.3939193 0.3939193 0.919145 -119.4485397 145.0189209)" width="25.2987633" height="3.3997939"/>
		
			<rect x="334.8990173" y="326.4985657" transform="matrix(0.8996077 -0.4366989 0.4366989 0.8996077 -108.8443222 182.9324036)" width="17.0998745" height="3.3999603"/>
		
			<rect x="231.4966736" y="229.6889496" transform="matrix(0.9547193 -0.297508 0.297508 0.9547193 -57.9699478 81.4973984)" width="14.4997177" height="2.9999385"/>
		
			<rect x="267.7325745" y="404.7625732" transform="matrix(0.4559916 -0.8899841 0.8899841 0.4559916 -223.9134674 466.0087585)" width="3.00003" height="22.8003979"/>
	</g>
</g>
</svg>
