<?xml version="1.0" encoding="utf-8"?>
<!-- Generator: Adobe Illustrator 24.3.0, SVG Export Plug-In . SVG Version: 6.00 Build 0)  -->
<svg version="1.1" id="Calque_1" xmlns="http://www.w3.org/2000/svg" xmlns:xlink="http://www.w3.org/1999/xlink" x="0px" y="0px"
	 viewBox="0 0 1000 1000" style="enable-background:new 0 0 1000 1000;" xml:space="preserve">
<path d="M776.1,72.4H950V19.6H50v52.8h170c-32.2,40-61.4,92.2-80,155.3c-31.9,108.1-39.4,279.4,62.2,500h-76.7l211.1,252.8h111.1
	l-97.2-252.8h-55.8c-108.6-214.4-104.2-377.2-75-476.4c30.3-101.7,90-160,123.1-178.9h310.6c-32.2,40-61.4,92.2-80,155.3
	c-31.9,108.1-39.4,279.4,62.2,500h-76.7L770,980.4h111.1l-97.2-252.8h-55.8c-108.6-214.4-104.2-377.2-75-476.4
	C683.3,149.6,743.1,91.2,776.1,72.4z"/>
</svg>
