<?xml version="1.0" encoding="utf-8"?>
<!-- Generator: Adobe Illustrator 24.3.0, SVG Export Plug-In . SVG Version: 6.00 Build 0)  -->
<svg version="1.1" id="Calque_1" xmlns="http://www.w3.org/2000/svg" xmlns:xlink="http://www.w3.org/1999/xlink" x="0px" y="0px"
	 viewBox="0 0 1000 1000" style="enable-background:new 0 0 1000 1000;" xml:space="preserve">
<g>
	<path d="M849.1,317.2H345.3c-49,0-91.8,28.4-112.6,69.6c-22.8-19.4-57.4-38.8-94-24c-36.2,14.6-60.6,59.2-60.6,110.8h2v13h1.4
		L34.7,589H24.5v14.4h11l13.8,79.4l13.8-79.4h14.2l14,79.4l13.6-79.4h14.2l14,79.4l13.6-79.4h11.4V589h-10.2l-46.8-102.4h1.4v-13h2
		c0-40.2,18.2-75.8,44-86.4c21.8-8.8,47.4,0.4,74.2,26.2c-2.4,9.6-3.6,19.6-3.6,30v21.2c0,34,13.6,64.8,35.6,87.6h104.2
		c14.4-11.8,32.4-19.2,52.4-19.2s38,7.4,52.4,19.2h51.2c14.4-11.8,32.4-19.2,52.4-19.2s38,7.4,52.4,19.2h320
		c22-22.8,35.8-53.6,35.8-87.6v-21.2C975.3,374,918.5,317.2,849.1,317.2z M137.7,589H44.9l46.4-101.6L137.7,589z"/>
	<path d="M483.3,576c0.6,1.2,1.2,2.2,1.8,3.4c1.6,3.2,3,6.6,4.2,10c2.6-7.4,5.8-14.6,10.4-21h-20.8
		C480.5,570.8,481.9,573.4,483.3,576z"/>
	<path d="M332.9,589.8c1.2-3.4,2.6-7,4.2-10.4c0.6-1,1-2,1.6-3c1.4-2.8,3-5.6,4.8-8.2h-70C290.7,580.2,310.9,587.6,332.9,589.8z"/>
	<path d="M634.9,568.4c4.8,6.8,8.4,14.4,11,22.6h199.6l-10.6,81h15.6l6.6-51.2l6.6,51.2h15.6l-10.8-81h73.4v-22.6H634.9z"/>
	<path d="M567.3,549.2c-36.8,0-66.8,30-66.8,66.8s30,66.8,66.8,66.8s66.8-29.8,66.8-66.8S604.1,549.2,567.3,549.2z M567.3,644
		c-15.4,0-28-12.6-28-28s12.6-28,28-28s28,12.6,28,28S582.7,644,567.3,644z"/>
	<path d="M411.3,549.2c-36.8,0-66.8,30-66.8,66.8s29.8,66.8,66.8,66.8c36.8,0,66.8-29.8,66.8-66.8S448.1,549.2,411.3,549.2z
		 M411.3,644c-15.4,0-28-12.6-28-28s12.6-28,28-28s28,12.6,28,28S426.7,644,411.3,644z"/>
</g>
</svg>
