<?xml version="1.0" encoding="utf-8"?>
<!-- Generator: Adobe Illustrator 24.3.0, SVG Export Plug-In . SVG Version: 6.00 Build 0)  -->
<svg version="1.1" id="Calque_1" xmlns="http://www.w3.org/2000/svg" xmlns:xlink="http://www.w3.org/1999/xlink" x="0px" y="0px"
	 viewBox="0 0 1000 1000" style="enable-background:new 0 0 1000 1000;" xml:space="preserve">
<style type="text/css">
	.st0{fill:none;}
</style>
<g>
	<path d="M935.6,751.3c-18.2,0-33,14.8-33,33v51.8h-12V455.9h-24v397.2h24l0,0h12v51.2c0,18.2,14.8,33,33,33s33-14.6,33-33v-120
		C968.6,766.1,953.8,751.3,935.6,751.3z"/>
	<g>
		<g>
			<path d="M481.8,557.5l-4.6-14.4c-0.4-1.2-1.6-2.2-3-2.2s-2.4,0.8-3,2.2l-4.6,14.6c0,0.2,0,0.2-0.2,0.2c-0.2,0.8-0.4,1.6-0.4,2.4
				c0,4.2,3.6,7.8,7.8,7.8c4.2,0,7.8-3.6,7.8-7.8c0-0.8-0.2-1.4-0.4-2.2C482,557.9,481.8,557.7,481.8,557.5"/>
			<path d="M481.8,598.5l-4.6-14.4c-0.4-1.2-1.6-2.2-3-2.2s-2.4,0.8-3,2.2l-4.6,14.6c0,0.2,0,0.2-0.2,0.2c-0.2,0.8-0.4,1.6-0.4,2.4
				c0,4.2,3.6,7.8,7.8,7.8c4.2,0,7.8-3.6,7.8-7.8c0-0.8-0.2-1.4-0.4-2.2C482,598.9,481.8,598.5,481.8,598.5"/>
			<path d="M481.8,637.9l-4.6-14.4c-0.4-1.2-1.6-2.2-3-2.2s-2.4,0.8-3,2.2l-4.6,14.6c0,0.2,0,0.2-0.2,0.2c-0.2,0.8-0.4,1.6-0.4,2.4
				c0,4.2,3.6,7.8,7.8,7.8c4.2,0,7.8-3.6,7.8-7.8c0-0.8-0.2-1.4-0.4-2.2C482,638.1,481.8,637.9,481.8,637.9"/>
			<path d="M481.8,677.1l-4.6-14.4c-0.4-1.2-1.6-2.2-3-2.2s-2.4,0.8-3,2.2l-4.6,14.6c0,0.2,0,0.2-0.2,0.2c-0.2,0.8-0.4,1.6-0.4,2.4
				c0,4.2,3.6,7.8,7.8,7.8c4.2,0,7.8-3.6,7.8-7.8c0-0.8-0.2-1.4-0.4-2.2C482,677.5,481.8,677.3,481.8,677.1"/>
			<path d="M444.2,555.9l2.6-14.8c0.2-1.4-0.4-2.6-1.6-3.2c-1.2-0.6-2.6-0.4-3.6,0.6l-10.8,10.8c-0.2,0.2-0.2,0.2-0.2,0.2
				c-0.6,0.6-1,1.2-1.4,2c-2,3.8-0.4,8.6,3.4,10.6s8.6,0.4,10.6-3.4c0.4-0.6,0.6-1.4,0.8-2.2C444.2,556.3,444.2,556.1,444.2,555.9"
				/>
			<path d="M425.4,592.3l2.6-14.8c0.2-1.4-0.4-2.6-1.6-3.2c-1.2-0.6-2.6-0.4-3.6,0.6L412,585.7c-0.2,0.2-0.2,0.2-0.2,0.2
				c-0.6,0.6-1,1.2-1.4,2c-2,3.8-0.4,8.6,3.4,10.6s8.6,0.4,10.6-3.4c0.4-0.6,0.6-1.4,0.8-2.2C425.4,592.7,425.4,592.3,425.4,592.3"
				/>
			<path d="M407.2,627.3l2.6-14.8c0.2-1.4-0.4-2.6-1.6-3.2c-1.2-0.6-2.6-0.4-3.6,0.6l-10.8,10.8c-0.2,0.2-0.2,0.2-0.2,0.2
				c-0.6,0.6-1,1.2-1.4,2c-2,3.8-0.4,8.6,3.4,10.6s8.6,0.4,10.6-3.4c0.4-0.6,0.6-1.4,0.8-2.2C407.2,627.5,407.2,627.3,407.2,627.3"
				/>
			<path d="M389,662.1l2.6-14.8c0.2-1.4-0.4-2.6-1.6-3.2c-1.2-0.6-2.6-0.4-3.6,0.6l-10.8,10.8c-0.2,0.2-0.2,0.2-0.2,0.2
				c-0.6,0.6-1,1.2-1.4,2c-2,3.8-0.4,8.6,3.4,10.6s8.6,0.4,10.6-3.4c0.4-0.6,0.6-1.4,0.8-2.2C389,662.5,389,662.1,389,662.1"/>
			<path d="M504.8,555.9l-2.6-14.8c-0.2-1.4,0.4-2.6,1.6-3.2c1.2-0.6,2.6-0.4,3.6,0.6l10.8,10.8c0.2,0.2,0.2,0.2,0.2,0.2
				c0.6,0.6,1,1.2,1.4,2c2,3.8,0.4,8.6-3.4,10.6c-3.8,2-8.6,0.4-10.6-3.4c-0.4-0.6-0.6-1.4-0.8-2.2
				C504.8,556.3,504.8,556.1,504.8,555.9"/>
			<path d="M523.6,592.3l-2.6-14.8c-0.2-1.4,0.4-2.6,1.6-3.2c1.2-0.6,2.6-0.4,3.6,0.6l10.8,10.8c0.2,0.2,0.2,0.2,0.2,0.2
				c0.6,0.6,1,1.2,1.4,2c2,3.8,0.4,8.6-3.4,10.6c-3.8,2-8.6,0.4-10.6-3.4c-0.4-0.6-0.6-1.4-0.8-2.2
				C523.6,592.7,523.6,592.3,523.6,592.3"/>
			<path d="M541.8,627.3l-2.6-14.8c-0.2-1.4,0.4-2.6,1.6-3.2c1.2-0.6,2.6-0.4,3.6,0.6l10.8,10.8c0.2,0.2,0.2,0.2,0.2,0.2
				c0.6,0.6,1,1.2,1.4,2c2,3.8,0.4,8.6-3.4,10.6c-3.8,2-8.6,0.4-10.6-3.4c-0.4-0.6-0.6-1.4-0.8-2.2
				C541.8,627.5,541.8,627.3,541.8,627.3"/>
			<path d="M559.8,662.1l-2.6-14.8c-0.2-1.4,0.4-2.6,1.6-3.2c1.2-0.6,2.6-0.4,3.6,0.6l10.8,10.8c0.2,0.2,0.2,0.2,0.2,0.2
				c0.6,0.6,1,1.2,1.4,2c2,3.8,0.4,8.6-3.4,10.6c-3.8,2-8.6,0.4-10.6-3.4c-0.4-0.6-0.6-1.4-0.8-2.2
				C559.8,662.5,559.8,662.1,559.8,662.1"/>
		</g>
		<g>
			<g>
				<path d="M722.2,557.5c0,0.2-0.2,0.4,0,0.4c-0.2,0.8-0.4,1.4-0.4,2.2c0,4.2,3.6,7.8,7.8,7.8s7.8-3.6,7.8-7.8
					c0-0.8-0.2-1.6-0.4-2.4c-0.2,0-0.2-0.2-0.2-0.2l-4.6-14.6c-0.4-1.4-1.6-2.2-3-2.2s-2.4,1-3,2.2L722.2,557.5"/>
				<path d="M722.2,598.5c0,0.2-0.2,0.4,0,0.4c-0.2,0.8-0.4,1.4-0.4,2.2c0,4.2,3.6,7.8,7.8,7.8s7.8-3.6,7.8-7.8
					c0-0.8-0.2-1.6-0.4-2.4c-0.2,0-0.2-0.2-0.2-0.2l-4.6-14.6c-0.4-1.4-1.6-2.2-3-2.2s-2.4,1-3,2.2L722.2,598.5"/>
				<path d="M722.2,637.9c0,0.2-0.2,0.4,0,0.4c-0.2,0.8-0.4,1.4-0.4,2.2c0,4.2,3.6,7.8,7.8,7.8s7.8-3.6,7.8-7.8
					c0-0.8-0.2-1.6-0.4-2.4c-0.2,0-0.2-0.2-0.2-0.2l-4.6-14.6c-0.4-1.4-1.6-2.2-3-2.2s-2.4,1-3,2.2L722.2,637.9"/>
				<path d="M722.2,677.1c0,0.2-0.2,0.4,0,0.4c-0.2,0.8-0.4,1.4-0.4,2.2c0,4.2,3.6,7.8,7.8,7.8s7.8-3.6,7.8-7.8
					c0-0.8-0.2-1.6-0.4-2.4c-0.2,0-0.2-0.2-0.2-0.2l-4.6-14.6c-0.4-1.4-1.6-2.2-3-2.2s-2.4,1-3,2.2L722.2,677.1"/>
				<path d="M759.8,555.9c0,0.2,0,0.4,0.2,0.4c0.2,0.8,0.4,1.4,0.8,2.2c2,3.8,6.8,5.2,10.6,3.4c3.8-2,5.2-6.8,3.4-10.6
					c-0.4-0.6-0.8-1.4-1.4-2c-0.2-0.2-0.2-0.2-0.2-0.2l-10.8-10.8c-1-1-2.4-1.2-3.6-0.6c-1.2,0.6-1.8,2-1.6,3.2L759.8,555.9"/>
				<path d="M778.6,592.3c0,0.2,0,0.4,0.2,0.4c0.2,0.8,0.4,1.4,0.8,2.2c2,3.8,6.8,5.2,10.6,3.4c3.8-2,5.2-6.8,3.4-10.6
					c-0.4-0.6-0.8-1.4-1.4-2c-0.2-0.2-0.2-0.2-0.2-0.2l-10.8-10.8c-1-1-2.4-1.2-3.6-0.6c-1.2,0.6-1.8,2-1.6,3.2L778.6,592.3"/>
				<path d="M796.8,627.3c0,0.2,0.2,0.4,0.2,0.4c0.2,0.8,0.4,1.4,0.8,2.2c2,3.8,6.8,5.2,10.6,3.4c3.8-2,5.2-6.8,3.4-10.6
					c-0.4-0.6-0.8-1.4-1.4-2c-0.2-0.2-0.2-0.2-0.2-0.2l-10.8-10.8c-1-1-2.4-1.2-3.6-0.6c-1.2,0.6-1.8,2-1.6,3.2L796.8,627.3"/>
				<path d="M815,662.1c0,0.2,0.2,0.2,0.2,0.4c0.2,0.8,0.4,1.4,0.8,2.2c2,3.8,6.8,5.2,10.6,3.4c3.8-2,5.2-6.8,3.4-10.6
					c-0.4-0.6-0.8-1.4-1.4-2c-0.2-0.2-0.2-0.2-0.2-0.2l-10.8-10.8c-1-1-2.4-1.2-3.6-0.6c-1.2,0.6-1.8,2-1.6,3.2L815,662.1"/>
				<path d="M699.2,555.9c0,0.2,0,0.4-0.2,0.4c-0.2,0.8-0.4,1.4-0.8,2.2c-2,3.8-6.8,5.2-10.6,3.4c-3.8-2-5.2-6.8-3.4-10.6
					c0.4-0.6,0.8-1.4,1.4-2c0.2-0.2,0.2-0.2,0.2-0.2l10.8-10.8c1-1,2.4-1.2,3.6-0.6c1.2,0.6,1.8,2,1.6,3.2L699.2,555.9"/>
				<path d="M680.4,592.3c0,0.2,0,0.4-0.2,0.4c-0.2,0.8-0.4,1.4-0.8,2.2c-2,3.8-6.8,5.2-10.6,3.4c-3.8-2-5.2-6.8-3.4-10.6
					c0.4-0.6,0.8-1.4,1.4-2c0.2-0.2,0.2-0.2,0.2-0.2l10.8-10.8c1-1,2.4-1.2,3.6-0.6c1.2,0.6,1.8,2,1.6,3.2L680.4,592.3"/>
				<path d="M662.4,627.3c0,0.2-0.2,0.4-0.2,0.4c-0.2,0.8-0.4,1.4-0.8,2.2c-2,3.8-6.8,5.2-10.6,3.4c-3.8-2-5.2-6.8-3.4-10.6
					c0.4-0.6,0.8-1.4,1.4-2c0.2-0.2,0.2-0.2,0.2-0.2l10.8-10.8c1-1,2.4-1.2,3.6-0.6c1.2,0.6,1.8,2,1.6,3.2L662.4,627.3"/>
				<path d="M644.2,662.1c0,0.2-0.2,0.2-0.2,0.4c-0.2,0.8-0.4,1.4-0.8,2.2c-2,3.8-6.8,5.2-10.6,3.4c-3.8-2-5.2-6.8-3.4-10.6
					c0.4-0.6,0.8-1.4,1.4-2c0.2-0.2,0.2-0.2,0.2-0.2l10.8-10.8c1-1,2.4-1.2,3.6-0.6c1.2,0.6,1.8,2,1.6,3.2L644.2,662.1"/>
			</g>
		</g>
	</g>
	<g>
		<polygon class="st0" points="179.2,687.7 236.8,687.7 236.8,570.5 206.8,570.5 		"/>
		<polygon class="st0" points="258.8,440.5 258.8,549.7 284.4,549.7 		"/>
		<polygon class="st0" points="236.8,549.7 236.8,442.7 211.6,549.7 		"/>
		<polygon class="st0" points="258.8,570.5 258.8,687.7 316.6,687.7 289.2,570.5 		"/>
		<g>
			<path d="M831.4,119.3l4.6-26l13.4-2.6v3.4h-2.6c-0.8,0-1.6,0.4-1.6,1.2v0.8c0,1.2,0.8,2,1.6,2h2.6v1.2h-2.6c-0.8,0-1.6,1.2-1.6,2
				v0.8c0,1.2,0.8,1.6,1.6,1.6h2.6v1.2h-2.6c-0.8,0-1.6,0.4-1.6,2v0.8c0,1.2,0.8,1.6,1.6,1.6h2.6v0.8h-2.6c-0.8,0-1.6,0.4-1.6,1.2
				v1.2c0,0.8,0.8,1.6,1.6,1.6h2.6v2h-2.6c-0.8,0-1.6,0.8-1.6,1.6v1.2c0,0.8,0.8,1.2,1.6,1.2h2.6v4.2l18.4-4.2h3.4
				c0.8,0,1.6-0.4,1.6-1.2v-1.2c0-0.8-0.8-1.6-1.6-1.6h-2v-2h2c0.8,0,1.6-0.8,1.6-1.6v-1.2c0-0.8-0.8-1.2-1.6-1.2h-2v-1.6h2
				c0.8,0,1.6-0.4,1.6-1.6v-0.8c0-1.6-0.8-2-1.6-2h-2v-1.2h2c0.8,0,1.6-0.4,1.6-1.6v-0.8c0-0.8-0.8-2-1.6-2h-2v-1.2h2
				c0.8,0,1.6-0.8,1.6-2v-0.8c0-0.8-0.8-1.2-1.6-1.2h-2v-3.4l13.4,2.6l3.4,20.4l11.8-3.4l-5.8-26l-23-6.2v-8h-20v8l-23,6.2
				l-7.6,35.2v20.8l0,0H831v-20.2H831.4z"/>
			<path d="M848.2,66.3h22.2c0.8,0,1.6-0.4,1.6-1.2v-0.8c0-1.2-0.8-1.6-1.6-1.6h-22.2c-0.8,0-1.2,0.4-1.2,1.6v0.8
				C847,65.9,847.4,66.3,848.2,66.3z"/>
			<path d="M878.2,272.3v-1.2c0-2-1.2-3-2.4-3h-5.4v-2h5.4c1.2,0,2.4-1.6,2.4-2.6v-1.2c0-2-1.2-2.6-2.4-2.6h-5.4v-1.6h5.4
				c1.2,0,2.4-0.8,2.4-3v-1.2c0-2-1.2-2.2-2.4-2.2h-5.4v-2.6h5.4c1.2,0,2.4-0.4,2.4-1.6v-2c0-1.2-1.2-2.2-2.4-2.2h-5.4v-3.2h5.4
				c1.2,0,2.4-1.2,2.4-2.2v-2c0-1.2-1.2-1.6-2.4-1.6h-0.4l7.2-7.2l0.8-6.2v-8.8h-34.2l-9.6,11.8v10.4h-2.4c-1.2,0-2.2,0.4-2.2,1.6v2
				c0,1.2,1.2,2.2,2.2,2.2h2.4v3h-2.4c-1.2,0-2.2,1.2-2.2,2.2v2c0,1.2,1.2,1.6,2.2,1.6h2.4v2.6h-2.4c-1.2,0-2.2,0.4-2.2,2.2v1.2
				c0,2.4,1.2,3,2.2,3h2.4v1.6h-2.4c-1.2,0-2.2,0.8-2.2,2.6v1.2c0,1.2,1.2,2.6,2.2,2.6h2.4v2h-2.4c-1.2,0-2.2,1.2-2.2,3v1.2
				c0,1.2,1.2,2,2.2,2h2.4v25.2h-546v-11.6c0-13.8-11.2-25-25-25h-42c-13.8,0-25,11.2-25,25v81.6c0,13.8,11.2,25,25,25h0.2
				l-85,363.6c6.8,2,13.2,4.6,19.2,7.8l13.4-57.4h62.4v228.8h22V708.5h62.8l13.4,57.4c6-3.2,12.4-6,19.2-7.8L269,394.5
				c13.6-0.2,24.8-11.4,24.8-25v-48.4h115.4l180.6,67.2l-181.6,67.6h-33.8v21.4h63.2c-2.6,0-4.8,2-4.8,4.8v16.6c0,2.6,2,4.8,4.8,4.8
				H453c2.6,0,4.8,2,4.8,4.8v13.8c0,2.6,2,4.8,4.8,4.8h24.6c2.6,0,4.8-2,4.8-4.8v-13.8c0-2.6,2-4.8,4.8-4.8h15.4
				c2.6,0,4.8-2,4.8-4.8v-16.6c-0.2-2.6-2.2-4.8-5-4.8h181.2c-2.6,0-4.8,2.2-4.8,4.8v16.6c0,2.6,2,4.8,4.8,4.8h15.4
				c2.6,0,4.8,2,4.8,4.8v13.8c0,2.6,2,4.8,4.8,4.8h24.6c2.6,0,4.8-2,4.8-4.8v-13.8c0-2.6,2-4.8,4.8-4.8h15.4c2.6,0,4.8-2,4.8-4.8
				v-16.6c0-2.6-2-4.8-4.8-4.8h99.6v-21.4h-65l-181.6-67.6l180.6-67.2h38.4h51.4v-21.4v-26.4h-13V272.3z M236.8,687.7h-57.6
				l27.4-117h30v117H236.8z M236.8,549.7h-25l25-107V549.7z M316.6,687.7h-58v-117h30.6L316.6,687.7z M284.4,549.7h-25.6V440.5
				L284.4,549.7z M771.2,455.9H438.4l166.4-62L771.2,455.9z M604.8,382.5l-165.4-61.6h331L604.8,382.5z"/>
			<path d="M964.8,110.5l-6.2,2l0.4-13.4l-119.8,32.2l0.6,12.8h-42.2l-8.4-15.8l-36.4-1.2l11,27l36.8,0.4h39.2v12.6l9.6-2v19.2
				l-13.4-2.6l-4.6-25.4h-12.6l7.6,34.6l23,6.2v8h20v-8l23-6.2l5.8-27.2l-12.6,2.2l-2.6,15.8l-13.4,2.6v-22.8l29.6-5.4v-16.4
				l33.4-8.8l0.8,14.6l33.4-9.2c3.4-1.2,5-3,5-6.6v-14.6C971.4,110.9,968.6,108.9,964.8,110.5z"/>
		</g>
	</g>
	<path d="M114.8,764.1c-47.8,0-86.6,38.8-86.6,86.6s38.8,86.6,86.6,86.6s86.6-38.8,86.6-86.6S162.6,764.1,114.8,764.1z M114.8,892.5
		c-23,0-41.8-18.8-41.8-41.8s18.8-41.8,41.8-41.8s41.8,18.8,41.8,41.8S138,892.5,114.8,892.5z"/>
	<path d="M381,764.1c-47.8,0-86.6,38.8-86.6,86.6s38.8,86.6,86.6,86.6s86.6-38.8,86.6-86.6S428.8,764.1,381,764.1z M381,892.5
		c-23,0-41.8-18.8-41.8-41.8s18.8-41.8,41.8-41.8s41.8,18.8,41.8,41.8S404.2,892.5,381,892.5z"/>
</g>
</svg>
