<?xml version="1.0" encoding="utf-8"?>
<!-- Generator: Adobe Illustrator 24.3.0, SVG Export Plug-In . SVG Version: 6.00 Build 0)  -->
<svg version="1.1" id="Calque_1" xmlns="http://www.w3.org/2000/svg" xmlns:xlink="http://www.w3.org/1999/xlink" x="0px" y="0px"
	 viewBox="0 0 1000 1000" style="enable-background:new 0 0 1000 1000;" xml:space="preserve">
<path d="M706.8,190.8H824v-38H176v38h133.8c-4.8,4.8-9.6,10-14.2,15.6c-26,31-46.4,69.6-58.6,111.4
	c-30.2,101.6-29.4,272.4,144.8,509.8l11-8c6.4,9.2,12.8,18.4,19.6,27.6l33.8-24.8c-42.6-58.2-77-116-102.4-172l-21.8,9.8
	c-74.4-149.4-70.6-260-49.2-331.8c25.2-85.8,76.8-126.8,98.4-137.6h274.4c-4.8,4.8-9.6,10-14.2,15.6c-26,31-46.4,69.6-58.6,111.4
	c-30.2,101.6-29.4,272.4,144.8,509.8l11-8c6.4,9.2,12.8,18.4,19.6,27.6l33.8-24.8c-43.4-59.2-77.8-117-102.4-172l-21.8,9.8
	c-74.4-149.4-70.4-260-49.2-331.8C633.6,242.6,685.2,201.6,706.8,190.8z"/>
</svg>
