<?xml version="1.0" encoding="utf-8"?>
<!-- Generator: Adobe Illustrator 22.1.0, SVG Export Plug-In . SVG Version: 6.00 Build 0)  -->
<svg version="1.1" id="Calque_1" xmlns="http://www.w3.org/2000/svg" xmlns:xlink="http://www.w3.org/1999/xlink" x="0px" y="0px"
	 viewBox="0 0 500 500" style="enable-background:new 0 0 500 500;" xml:space="preserve">
<path d="M57.7,190.4h17.3l-6.1,16.5l0,0l-6.1,16.4l0,0l-13,33l0,0l-0.4,0.9l-3,7.7l0,0l0,0l1.8,3.4l20.1,3.9v11l-17.7,16.4L64.4,314
	l1.4-0.9c0.4,0,6.6-3.7,19.1-11c9.6-5.3,30.5-4.8,38.3-4.3l-1.4,6.1l-34,5.3v18.7l11.4,1.8c-3,4.8-4.3,10-4.3,15.7
	c0,17.7,14.4,31.7,31.7,31.7c17.7,0,31.7-14.4,31.7-31.7c0-5.7-1.4-11-3.9-15.3l1.4-0.9l12.6,14.4h120.8c5.7,19.1,23.4,32.6,44,32.6
	c25.5,0,46-20.7,46-46c0-2.5,0-5.3-0.4-8.2l17.7,12.6l-4.8,28.3l2.5,3H470l2.5-1.4l5.5-14.6l-1.6-2.7l-15.7-7.3l-0.9-28.3l-1.4-2
	l-24.8-13.4h-2.5L411,308.7l-65.7-40.8l5.3-7.3h49l2.5-1.8l4.8-26.9l11.4-66.5l0,0l1.8-11l-2.5-3h-108L307,154l2.5,35h-3.9
	l-14.4-66.1h-94.6l-1.8,32.1h-52.1l-1.4,15.3H54.2l-32.1,30.1l17.3,10L57.7,190.4z M398.8,247.4h-15.3l4.3-80.4h24.8L398.8,247.4z
	 M344.4,247.4V167h38.7l-4.3,80.4h-34.6H344.4z M333,167v80.4h-7.7l-3-80.4H333z M305.8,330.4c0-15.3,12-27.3,27.3-27.3
	s27.3,12.6,27.3,27.3c0,15.3-12.6,27.3-27.3,27.3S305.8,345.9,305.8,330.4z M109.8,346.1c0-9.6,7.7-17.3,17.3-17.3
	s17.3,7.7,17.3,17.3c0,9.6-7.7,17.3-17.3,17.3C118,363.4,109.8,355.7,109.8,346.1z"/>
</svg>
