<?xml version="1.0" encoding="utf-8"?>
<!-- Generator: Adobe Illustrator 24.3.0, SVG Export Plug-In . SVG Version: 6.00 Build 0)  -->
<svg version="1.1" id="Calque_1" xmlns="http://www.w3.org/2000/svg" xmlns:xlink="http://www.w3.org/1999/xlink" x="0px" y="0px"
	 viewBox="0 0 1000 1000" style="enable-background:new 0 0 1000 1000;" xml:space="preserve">
<path d="M115.3,380.8h34.6l-12.2,33l0,0l-12.2,32.8l0,0l-26,66l0,0l-0.8,1.8l-6,15.4l0,0l0,0l3.6,6.8l40.2,7.8v22l-35.4,32.8
	l27.6,28.8l2.8-1.8c0.8,0,13.2-7.4,38.2-22c19.2-10.6,61-9.6,76.6-8.6l-2.8,12.2l-68,10.6v37.4l22.8,3.6c-6,9.6-8.6,20-8.6,31.4
	c0,35.4,28.8,63.4,63.4,63.4c35.4,0,63.4-28.8,63.4-63.4c0-11.4-2.8-22-7.8-30.6l2.8-1.8l25.2,28.8h241.6
	c11.4,38.2,46.8,65.2,88,65.2c51,0,92-41.4,92-92c0-5,0-10.6-0.8-16.4l35.4,25.2l-9.6,56.6l5,6h151.6l5-2.8l11-29.2l-3.2-5.4
	l-31.4-14.6l-1.8-56.6l-2.8-4l-49.6-26.8h-5l-40.2,25l-131.4-81.6l10.6-14.6h98l5-3.6l9.6-53.8l22.8-133l0,0l3.6-22l-5-6h-216
	l-5.2,5.2l5,70h-7.8l-28.8-132.2H393.1l-3.6,64.2H285.3l-2.8,30.6H108.3l-64.2,60.2l34.6,20L115.3,380.8z M797.5,494.8h-30.6
	l8.6-160.8h49.6L797.5,494.8z M688.7,494.8V334h77.4l-8.6,160.8h-69.2H688.7z M665.9,334v160.8h-15.4l-6-160.8H665.9z M611.5,660.8
	c0-30.6,24-54.6,54.6-54.6s54.6,25.2,54.6,54.6c0,30.6-25.2,54.6-54.6,54.6S611.5,691.8,611.5,660.8z M219.5,692.2
	c0-19.2,15.4-34.6,34.6-34.6s34.6,15.4,34.6,34.6c0,19.2-15.4,34.6-34.6,34.6C235.9,726.8,219.5,711.4,219.5,692.2z"/>
</svg>
