<?xml version="1.0" encoding="utf-8"?>
<!-- Generator: Adobe Illustrator 24.3.0, SVG Export Plug-In . SVG Version: 6.00 Build 0)  -->
<svg version="1.1" id="Calque_1" xmlns="http://www.w3.org/2000/svg" xmlns:xlink="http://www.w3.org/1999/xlink" x="0px" y="0px"
	 viewBox="0 0 1000 1000" style="enable-background:new 0 0 1000 1000;" xml:space="preserve">
<g>
	<g>
		<path d="M571.3,727.7c8.6,8.6,0.2,30.4-18.2,48.8c-18.8,18.8-40.4,26.8-48.8,18.2c-8.6-8.6-0.2-30.4,18.2-48.8
			C541.1,727.3,562.9,719.3,571.3,727.7"/>
		<path d="M517.5,697.9c-3,11.4-26.2,15-51.4,8.2c-25.4-7-43.4-22.2-40.2-33.6c3-11.4,26.2-15,51.4-8.2
			C502.7,671.5,520.7,686.5,517.5,697.9"/>
		<path d="M540.3,871.3c-4.6,11-28.2,11.2-52.2,0.6c-24.2-10.6-39.8-28-35-38.8c4.6-11,28.2-11.2,52.2-0.6
			C529.5,843.1,545.3,860.5,540.3,871.3"/>
	</g>
	<g>
		<path d="M303.3,727.7c8.6,8.6,0.2,30.4-18.2,48.8c-18.8,18.8-40.4,26.8-48.8,18.2c-8.6-8.6-0.2-30.4,18.2-48.8
			C272.9,727.3,294.9,719.3,303.3,727.7"/>
		<path d="M249.5,697.9c-3,11.4-26.2,15-51.4,8.2c-25.2-6.8-43.6-22.2-40.2-33.6c3-11.4,26.2-15,51.4-8.2
			C234.5,671.5,252.7,686.5,249.5,697.9"/>
		<path d="M272.1,871.3c-4.6,11-28.2,11.2-52.2,0.6c-24.2-10.6-39.8-28-35-38.8c4.6-11,28.2-11.2,52.2-0.6
			C261.5,843.1,277.1,860.5,272.1,871.3"/>
	</g>
	<g>
		<path d="M839.5,727.7c8.6,8.6,0.2,30.4-18.2,48.8c-18.8,18.8-40.4,26.8-48.8,18.2c-8.6-8.6-0.2-30.4,18.2-48.8
			C809.3,727.3,830.9,719.3,839.5,727.7"/>
		<path d="M785.7,697.9c-3,11.4-26.2,15-51.4,8.2c-25.2-7-43.4-22.2-40.2-33.6c3-11.4,26.2-15,51.4-8.2
			C770.9,671.5,788.9,686.5,785.7,697.9"/>
		<path d="M808.5,871.3c-4.6,11-28.2,11.2-52.2,0.6c-24.2-10.6-39.8-28-35-38.8c4.6-11,28.2-11.2,52.2-0.6
			C797.7,843.1,813.3,860.5,808.5,871.3"/>
	</g>
	<path d="M906.1,275.1c0-6.4-2.2-12.8-6.2-18l-96.8-125.2c-5.6-7.2-14.2-11.4-23.4-11.4h-9.6c-1.2-0.2-2.2-0.2-3.4-0.2H233.5
		c-1,0-2.2,0-3.2,0.2h-10c-9,0-17.8,4.2-23.4,11.4l-96.8,125.2c-4,5-6.2,11.4-6.2,18h19.2v30.4c0,6,2,12,5.6,16.8l104,141
		l-34.6,60.2l-43.8,75.6h23.4c-3.6,0-6.4,2.8-6.4,6.4s2.8,6.4,6.4,6.4h128.4c3.6,0,6.4-3,6.6-6.4c0-3.6-2.8-6.4-6.4-6.4h23.2
		l-43.8-75.6l-8.2-14.2c1.2,0.2,2.4,0.2,3.6,0.2h193.2l-8,14l-43.8,75.6h23.2c-3.6,0-6.4,2.8-6.4,6.4s2.8,6.4,6.4,6.4h128.6
		c3.6,0,6.4-3,6.4-6.4c0-3.6-2.8-6.4-6.4-6.4h23.4l-43.8-75.6l-8-14h193.2c1.2,0,2.4,0,3.6-0.2l-8.2,14.2l-43.8,75.6h23.2
		c-3.6,0-6.4,2.8-6.4,6.4s2.8,6.4,6.4,6.4h128.6c3.6,0,6.4-3,6.4-6.4c0-3.6-2.8-6.4-6.4-6.4h23.4l-43.8-75.6l-34.6-60.2l104-141
		c3.6-5,5.6-10.8,5.6-16.8v-30.4L906.1,275.1L906.1,275.1z"/>
</g>
</svg>
