<?xml version="1.0" encoding="utf-8"?>
<!-- Generator: Adobe Illustrator 24.3.0, SVG Export Plug-In . SVG Version: 6.00 Build 0)  -->
<svg version="1.1" id="Calque_1" xmlns="http://www.w3.org/2000/svg" xmlns:xlink="http://www.w3.org/1999/xlink" x="0px" y="0px"
	 viewBox="0 0 500 500" style="enable-background:new 0 0 500 500;" xml:space="preserve">
<path d="M358.1,216c0,0-3.3-0.5-8.6-0.7V96.1h64v-19h-324v19h64v120.1c-34.5,4.8-80.2,30.9-1.9,150.9C195.2,350,223,400,281.5,422.9
	C235.1,388.5,185,264.6,181.1,216c0,0-3.3-0.5-8.6-0.7V96.1h158v120.1c-34.5,4.8-80.2,30.9-1.9,150.9C372.2,350,400,400,458.5,422.9
	C412.1,388.5,362,264.6,358.1,216z"/>
</svg>
