<?xml version="1.0" encoding="utf-8"?>
<!-- Generator: Adobe Illustrator 24.3.0, SVG Export Plug-In . SVG Version: 6.00 Build 0)  -->
<svg version="1.1" id="Calque_1" xmlns="http://www.w3.org/2000/svg" xmlns:xlink="http://www.w3.org/1999/xlink" x="0px" y="0px"
	 viewBox="0 0 500 500" style="enable-background:new 0 0 500 500;" xml:space="preserve">
<g>
	<path d="M346.1,253.9c-0.9-0.6-1.8-1.1-2.7-1.5c-1-0.4-2-0.8-3-1.1c-1.3-0.3-2.6-0.5-3.9-0.5c-1.3,0-2.7,0.2-3.9,0.5
		c1.4,1.1,2.7,2.4,4,3.8c0.6,0.7,1.2,1.3,1.8,2c0.6,0.7,1.1,1.4,1.7,2.2c2.9,4,5.6,8.8,8,14.4c7.1,16.8,11,39,11,62.5
		s-3.9,45.7-11,62.5c-2.4,5.5-5,10.3-7.9,14.2c-0.6,0.8-1.1,1.5-1.7,2.2c-0.6,0.8-1.2,1.5-1.9,2.2c-1.2,1.3-2.5,2.5-3.7,3.6
		c1.2,0.3,2.5,0.5,3.8,0.5c1.3,0,2.5-0.2,3.7-0.4c1.1-0.3,2.1-0.6,3.2-1.1c0.9-0.4,1.8-0.9,2.7-1.5c15.3-9.9,26.5-43,26.5-82.2
		C372.6,296.9,361.3,263.8,346.1,253.9z"/>
	<path d="M334.8,410.7c0.6-0.8,1.2-1.6,1.7-2.4c10.1-15.1,16.9-41.8,16.9-72.2c0-30.4-6.8-57.1-16.9-72.2c-0.5-0.8-1.1-1.6-1.7-2.3
		c-0.6-0.8-1.2-1.5-1.8-2.2c-2-2.3-4-4.1-6.2-5.5c-0.8-0.5-1.7-1-2.6-1.4c-1-0.5-2-0.8-3.1-1.1c-1.3-0.3-2.6-0.5-3.9-0.5
		c-1.4,0-2.7,0.2-4,0.5c1.4,1.1,2.7,2.4,4,3.8c0.6,0.7,1.3,1.4,1.9,2.2c0.5,0.7,1.1,1.3,1.6,2.1c2.2,3,4.2,6.5,6.2,10.5
		c0.5,1.1,1,2.1,1.5,3.3c0.1,0.2,0.2,0.4,0.3,0.6c0.4,1,0.8,2,1.2,3c6.3,16.4,9.8,37.4,9.8,59.5c0,22.1-3.4,43-9.7,59.4
		c-0.4,1.1-0.8,2.1-1.3,3.1c-0.1,0.2-0.2,0.3-0.2,0.5c-0.5,1.1-1,2.3-1.5,3.3c-1.9,3.9-3.9,7.3-6.1,10.3c-0.5,0.7-1,1.4-1.6,2.1
		c-0.7,0.8-1.3,1.6-2,2.3c-1.2,1.3-2.5,2.5-3.8,3.6c1.3,0.3,2.5,0.5,3.8,0.5c1.3,0,2.5-0.2,3.7-0.4c1.1-0.3,2.2-0.7,3.3-1.2
		c0.9-0.4,1.7-0.9,2.6-1.5c2.1-1.4,4.1-3.1,6-5.3C333.6,412.3,334.2,411.5,334.8,410.7z"/>
	<path d="M315.7,410.4c0.5-0.7,1.1-1.5,1.6-2.2c2.4-3.6,4.6-7.8,6.6-12.6c0.5-1.3,1-2.6,1.5-3.9c0.5-1.4,1-2.8,1.5-4.3
		c4.5-14.3,7.2-32,7.2-51.2c0-19.2-2.7-37-7.3-51.3c-0.5-1.5-1-2.9-1.5-4.2c-0.5-1.3-1-2.6-1.5-3.9c-2-4.9-4.2-9.1-6.7-12.8
		c-0.5-0.8-1-1.5-1.6-2.2c-0.6-0.8-1.2-1.6-1.9-2.3c-2-2.3-4-4.1-6.2-5.5c-0.8-0.5-1.7-1-2.5-1.4c-1-0.5-2-0.8-3.1-1.1
		c-1.3-0.3-2.7-0.5-4-0.5c-1.3,0-2.6,0.2-3.9,0.5c1.4,1.1,2.7,2.4,4,3.8c0.6,0.7,1.3,1.4,1.9,2.2c0.5,0.7,1.1,1.3,1.6,2.1
		c2.2,3,4.2,6.5,6.2,10.5c0.5,1.1,1.1,2.3,1.6,3.5c0,0.1,0.1,0.2,0.1,0.3c0.4,1,0.8,2,1.2,3c2.8,7.2,5,15.4,6.7,24.1
		c0.5,2.8,1,5.7,1.4,8.7c0.6,4.5,1.1,9.1,1.4,13.9c0.3,4.2,0.4,8.5,0.4,12.9c0,4.3-0.1,8.6-0.4,12.7c-0.3,4.7-0.7,9.4-1.4,13.9
		c-0.4,3-0.9,5.9-1.4,8.8c-1.6,8.7-3.8,16.8-6.6,24c-0.4,1.1-0.8,2.1-1.3,3.1c0,0.1-0.1,0.1-0.1,0.2c-0.5,1.3-1.1,2.5-1.7,3.6
		c-1.9,3.9-3.9,7.3-6.1,10.3c-0.5,0.7-1,1.4-1.6,2.1c-0.7,0.8-1.3,1.6-2,2.3c-1.2,1.3-2.5,2.6-3.8,3.6c1.2,0.3,2.5,0.5,3.8,0.5
		c1.3,0,2.5-0.2,3.8-0.5c1.1-0.3,2.2-0.7,3.3-1.2c0.9-0.4,1.7-0.9,2.6-1.5c2.1-1.4,4.1-3.2,6-5.4C314.4,412.2,315,411.3,315.7,410.4
		z"/>
	<path d="M296.5,410.4c0.5-0.7,1.1-1.5,1.6-2.2c2.4-3.6,4.6-7.8,6.6-12.6c0.6-1.4,1.1-2.8,1.6-4.2c0.5-1.3,0.9-2.6,1.4-4
		c3.5-11,5.9-24.1,6.8-38.4c0.3-4.2,0.4-8.5,0.4-12.8c0-4.3-0.1-8.6-0.4-12.7c-0.9-14.3-3.3-27.5-6.9-38.5c-0.4-1.4-0.9-2.7-1.4-4
		c-0.5-1.4-1-2.8-1.6-4.1c-2-4.9-4.2-9.1-6.7-12.8c-0.5-0.8-1-1.5-1.6-2.2c-0.6-0.8-1.2-1.6-1.9-2.3c-2-2.3-4-4.1-6.2-5.5
		c-0.8-0.6-1.7-1-2.6-1.5c-1-0.5-2-0.8-3.1-1.1c-1.3-0.3-2.6-0.5-3.9-0.5c-1.3,0-2.6,0.2-3.9,0.5c1.3,1.1,2.7,2.4,3.9,3.8
		c0.6,0.7,1.3,1.4,1.9,2.2c0.5,0.7,1.1,1.4,1.6,2.1c2.2,3,4.3,6.6,6.2,10.5c0.5,1.1,1.1,2.3,1.6,3.5c0,0.1,0.1,0.2,0.1,0.3
		c0.4,1,0.8,2,1.2,3c2.8,7.2,5,15.4,6.7,24.1c0.5,2.9,1,5.9,1.4,8.9c0.6,4.4,1,9,1.3,13.6c0.3,4.2,0.4,8.5,0.4,12.9
		c0,4.3-0.1,8.6-0.4,12.7c-0.3,4.7-0.7,9.2-1.3,13.7c-0.4,3.1-0.9,6.1-1.4,9c-1.6,8.7-3.8,16.8-6.6,24c-0.4,1.1-0.8,2.1-1.3,3.1
		c0,0.1-0.1,0.1-0.1,0.2c-0.5,1.3-1.1,2.5-1.7,3.6c-1.9,3.9-3.9,7.4-6.1,10.4c-0.5,0.7-1,1.4-1.6,2.1c-0.6,0.8-1.3,1.6-2,2.3
		c-1.2,1.3-2.5,2.5-3.8,3.6c1.2,0.3,2.5,0.5,3.8,0.5s2.5-0.2,3.8-0.5c1.1-0.3,2.2-0.7,3.3-1.2c0.9-0.4,1.7-0.9,2.6-1.5
		c2.1-1.4,4.1-3.2,6.1-5.4C295.2,412.2,295.8,411.3,296.5,410.4z"/>
	<path d="M277.2,410.5c0.5-0.7,1.1-1.4,1.6-2.2c2.4-3.6,4.7-7.9,6.6-12.7c0.6-1.4,1.1-2.8,1.6-4.2c0.5-1.3,0.9-2.6,1.4-4
		c3.5-11,5.9-24.1,6.8-38.4c0.3-4.2,0.4-8.5,0.4-12.8c0-4.3-0.1-8.6-0.4-12.7c-0.9-14.3-3.3-27.5-6.9-38.5c-0.4-1.4-0.9-2.7-1.4-4
		c-0.5-1.4-1-2.8-1.6-4.1c-2-4.9-4.2-9.2-6.7-12.8c-0.5-0.8-1-1.5-1.6-2.2c-0.6-0.8-1.2-1.6-1.9-2.3c-2-2.2-4-4.1-6.1-5.5
		c-0.8-0.6-1.7-1-2.6-1.5c-1-0.5-2-0.8-3.1-1.1c-1.3-0.3-2.6-0.5-3.9-0.5c-1.3,0-2.6,0.2-3.9,0.5c1.3,1.1,2.6,2.4,3.9,3.7
		c0.6,0.7,1.3,1.4,1.9,2.2c0.5,0.7,1.1,1.4,1.6,2.1c2.2,3,4.2,6.5,6.1,10.4c0.5,1.1,1.1,2.3,1.6,3.5c0.1,0.1,0.1,0.3,0.2,0.4
		c0.4,1,0.8,1.9,1.2,2.9c2.8,7.3,5,15.4,6.7,24.2c0.5,2.9,1,5.9,1.4,8.9c0.6,4.4,1,9,1.3,13.6c0.3,4.2,0.4,8.5,0.4,12.8
		c0,4.3-0.1,8.6-0.4,12.8c-0.3,4.7-0.7,9.2-1.3,13.7c-0.4,3.1-0.9,6.1-1.4,9c-1.6,8.7-3.9,16.9-6.7,24.1c-0.4,1-0.8,2-1.2,2.9
		c-0.1,0.1-0.1,0.3-0.2,0.4c-0.5,1.2-1.1,2.5-1.6,3.6c-1.9,3.9-3.9,7.3-6.1,10.3c-0.5,0.7-1,1.4-1.6,2.1c-0.7,0.8-1.3,1.6-2,2.3
		c-1.2,1.3-2.5,2.5-3.8,3.6c1.2,0.3,2.5,0.5,3.8,0.5c1.3,0,2.5-0.2,3.7-0.4c1.1-0.3,2.2-0.7,3.3-1.2c0.9-0.4,1.7-0.9,2.6-1.5
		c2.1-1.4,4.1-3.2,6.1-5.4C275.9,412.2,276.6,411.4,277.2,410.5z"/>
	<path d="M258,410.5c0.5-0.7,1.1-1.4,1.6-2.2c2.4-3.6,4.6-7.8,6.6-12.6c0.6-1.4,1.1-2.8,1.6-4.2c0.5-1.3,0.9-2.6,1.4-4
		c3.5-11.1,6-24.2,6.9-38.5c0.3-4.2,0.4-8.5,0.4-12.9c0-4.3-0.1-8.6-0.4-12.7c-0.9-14.4-3.3-27.6-6.9-38.7c-0.4-1.4-0.9-2.7-1.4-4
		c-0.5-1.4-1-2.8-1.6-4.1c-2-4.8-4.2-9.1-6.6-12.7c-0.5-0.8-1-1.5-1.6-2.2c-0.6-0.8-1.2-1.6-1.9-2.3c-1.9-2.2-4-4.1-6.1-5.4
		c-0.8-0.6-1.7-1.1-2.6-1.5c-1-0.5-2-0.8-3.1-1.1c-1.3-0.3-2.7-0.5-4-0.5c-1.3,0-2.7,0.2-4,0.5c1.4,1.1,2.7,2.4,4,3.8
		c0.6,0.7,1.3,1.4,1.9,2.2c0.5,0.7,1.1,1.4,1.6,2.1c2.2,3,4.2,6.5,6.1,10.4c0.5,1.1,1.1,2.3,1.6,3.5c0.1,0.1,0.1,0.3,0.2,0.4
		c0.4,1,0.8,1.9,1.2,2.9c2.8,7.2,5,15.3,6.6,23.9c0.5,2.9,1,5.8,1.4,8.8c0.6,4.3,1,8.8,1.3,13.3c0.3,4.4,0.4,9,0.4,13.5
		s-0.2,9.1-0.4,13.5c-0.3,4.5-0.7,9-1.3,13.3c-0.4,3-0.9,6-1.4,8.9c-1.6,8.6-3.8,16.7-6.6,23.8c-0.4,1-0.8,2-1.2,2.9
		c-0.1,0.1-0.1,0.3-0.2,0.4c-0.5,1.3-1.1,2.5-1.7,3.7c-1.9,3.9-3.9,7.3-6,10.3c-0.5,0.7-1,1.4-1.6,2.1c-0.7,0.8-1.3,1.6-2,2.3
		c-1.2,1.3-2.4,2.5-3.7,3.5c1.2,0.3,2.5,0.4,3.7,0.4c1.2,0,2.4-0.1,3.6-0.4c1.1-0.3,2.2-0.7,3.3-1.2c0.9-0.4,1.7-0.9,2.6-1.4
		c2.1-1.4,4.1-3.1,6.1-5.3C256.7,412.2,257.3,411.3,258,410.5z"/>
	<path d="M238.8,410.5c0.5-0.7,1.1-1.4,1.6-2.2c2.4-3.6,4.6-7.8,6.6-12.6c0.6-1.4,1.1-2.8,1.6-4.2c0.5-1.3,0.9-2.6,1.4-4
		c3.5-10.9,5.9-23.8,6.9-37.8c0.3-4.4,0.5-9,0.5-13.6c0-4.6-0.2-9.1-0.4-13.5c-0.9-14.1-3.3-27-6.8-37.9c-0.4-1.4-0.9-2.7-1.4-4
		c-0.5-1.4-1-2.8-1.6-4.1c-2-4.8-4.2-9.1-6.6-12.7c-0.5-0.8-1-1.5-1.6-2.2c-0.6-0.8-1.2-1.6-1.9-2.3c-2-2.3-4-4.1-6.2-5.5
		c-0.8-0.5-1.7-1-2.6-1.4c-1-0.5-2-0.8-3.1-1.1c-1.3-0.3-2.6-0.5-3.9-0.5c-1.3,0-2.7,0.2-4,0.5c1.4,1.1,2.7,2.4,4,3.8
		c0.6,0.7,1.3,1.4,1.9,2.2c0.5,0.7,1.1,1.3,1.6,2c2.2,3,4.3,6.5,6.2,10.5c0.5,1.1,1.1,2.3,1.6,3.5c0.1,0.1,0.1,0.3,0.2,0.4
		c0.4,1,0.8,1.9,1.2,2.9c2.8,7.2,5,15.3,6.6,23.9c0.5,2.9,1,5.8,1.4,8.8c0.6,4.3,1,8.8,1.3,13.3c0.3,4.4,0.4,9,0.4,13.5
		c0,4.6-0.2,9.1-0.4,13.5c-0.3,4.5-0.7,9-1.3,13.3c-0.4,3-0.9,6-1.4,8.9c-1.6,8.6-3.8,16.7-6.6,23.8c-0.4,1-0.8,2-1.2,2.9
		c-0.1,0.1-0.1,0.3-0.2,0.4c-0.5,1.3-1.1,2.5-1.7,3.7c-1.9,3.9-3.9,7.3-6,10.3c-0.5,0.7-1,1.4-1.6,2.1c-0.6,0.8-1.3,1.6-2,2.3
		c-1.2,1.3-2.5,2.5-3.8,3.6c1.2,0.3,2.5,0.4,3.7,0.4c1.3,0,2.5-0.2,3.8-0.5c1.1-0.3,2.2-0.7,3.3-1.2c0.9-0.4,1.7-0.9,2.6-1.5
		c2.1-1.4,4.1-3.1,6-5.3C237.5,412.2,238.1,411.3,238.8,410.5z"/>
	<path d="M219.6,410.4c0.5-0.7,1.1-1.4,1.6-2.2c2.4-3.6,4.6-7.8,6.6-12.5c0.6-1.4,1.1-2.8,1.6-4.2c0.5-1.3,0.9-2.6,1.4-4
		c3.5-10.9,5.9-23.8,6.9-37.8c0.3-4.4,0.5-9,0.5-13.6c0-4.6-0.2-9.1-0.4-13.5c-0.9-14.1-3.3-27-6.8-37.9c-0.4-1.4-0.9-2.7-1.4-4
		c-0.5-1.4-1-2.8-1.6-4.1c-2-4.9-4.2-9.1-6.7-12.8c-0.5-0.8-1-1.5-1.6-2.2c-0.6-0.8-1.2-1.6-1.9-2.3c-2-2.2-4-4.1-6.2-5.4
		c-0.8-0.5-1.7-1-2.6-1.4c-1-0.5-2-0.8-3.1-1.1c-1.3-0.3-2.6-0.5-3.9-0.5c-1.4,0-2.7,0.2-4,0.5c1.4,1.1,2.7,2.4,4,3.8
		c0.6,0.7,1.3,1.4,1.9,2.2c0.5,0.7,1.1,1.3,1.6,2.1c2.2,3,4.3,6.5,6.2,10.5c0.5,1.1,1.1,2.3,1.6,3.5c0,0.1,0.1,0.2,0.1,0.3
		c0.4,1,0.8,2,1.2,3c2.8,7.3,5,15.4,6.7,24.2c0.5,2.9,1,5.9,1.4,8.9c0.6,4.4,1,9,1.3,13.7c0.3,4.2,0.4,8.5,0.4,12.8
		c0,4.3-0.1,8.6-0.4,12.8c-0.3,4.7-0.7,9.2-1.3,13.7c-0.4,3.1-0.9,6.1-1.4,9c-1.6,8.7-3.8,16.7-6.6,23.9c-0.4,1.1-0.8,2.1-1.3,3.1
		c0,0.1-0.1,0.1-0.1,0.2c-0.5,1.3-1.1,2.5-1.6,3.6c-1.9,3.9-3.9,7.4-6,10.4c-0.5,0.7-1,1.4-1.6,2.1c-0.6,0.8-1.3,1.6-2,2.3
		c-1.2,1.3-2.5,2.6-3.8,3.6c1.2,0.3,2.5,0.5,3.8,0.5c1.3,0,2.5-0.2,3.8-0.5c1.1-0.3,2.2-0.7,3.3-1.2c0.9-0.4,1.7-0.9,2.6-1.5
		c2.1-1.4,4.1-3.2,6.1-5.4C218.3,412.1,219,411.3,219.6,410.4z"/>
	<path d="M200.4,410.3c0.5-0.7,1.1-1.5,1.6-2.2c2.4-3.6,4.6-7.8,6.6-12.6c0.6-1.4,1.1-2.8,1.6-4.2c0.5-1.3,0.9-2.6,1.4-4
		c3.5-11,5.9-24.1,6.8-38.3c0.3-4.2,0.4-8.5,0.4-12.9c0-4.3-0.1-8.6-0.4-12.7c-0.9-14.3-3.3-27.5-6.8-38.6c-0.4-1.4-0.9-2.7-1.4-4
		c-0.5-1.4-1-2.8-1.6-4.1c-2-4.8-4.2-9.1-6.7-12.8c-0.5-0.8-1-1.5-1.6-2.2c-0.6-0.8-1.2-1.6-1.9-2.4c-2-2.3-4-4.1-6.2-5.5
		c-0.8-0.5-1.7-1-2.6-1.4c-1-0.5-2-0.8-3.1-1.1c-1.3-0.3-2.7-0.5-4-0.5c-1.3,0-2.6,0.2-3.9,0.5c1.4,1.1,2.7,2.4,4,3.8
		c0.6,0.7,1.3,1.4,1.9,2.2c0.5,0.7,1.1,1.3,1.6,2.1c2.2,3,4.3,6.5,6.2,10.5c0.5,1.1,1.1,2.3,1.6,3.5c0,0.1,0.1,0.2,0.1,0.3
		c0.4,1,0.8,2,1.2,3c2.8,7.2,5,15.4,6.7,24.1c0.5,2.9,1,5.9,1.4,8.9c0.6,4.4,1,9,1.3,13.6c0.3,4.2,0.4,8.5,0.4,12.9
		c0,4.3-0.1,8.6-0.4,12.7c-0.3,4.7-0.7,9.2-1.3,13.7c-0.4,3.1-0.9,6.1-1.4,9c-1.6,8.7-3.8,16.8-6.6,24c-0.4,1.1-0.8,2.1-1.3,3.1
		c0,0.1-0.1,0.1-0.1,0.2c-0.5,1.3-1.1,2.5-1.6,3.6c-1.9,3.9-3.9,7.4-6,10.4c-0.5,0.7-1,1.4-1.6,2.1c-0.6,0.8-1.3,1.6-2,2.3
		c-1.2,1.4-2.5,2.6-3.8,3.6c1.2,0.3,2.5,0.4,3.7,0.4c1.3,0,2.6-0.2,3.8-0.5c1.1-0.3,2.2-0.7,3.2-1.2c0.9-0.4,1.7-0.9,2.6-1.5
		c2.1-1.4,4.1-3.2,6.1-5.4C199.1,412,199.7,411.2,200.4,410.3z"/>
	<path d="M181.2,410.3c0.5-0.7,1.1-1.5,1.6-2.2c2.4-3.6,4.6-7.8,6.6-12.6c0.6-1.4,1.1-2.8,1.6-4.2c0.5-1.3,0.9-2.6,1.4-4
		c3.5-11,5.9-24.1,6.8-38.4c0.3-4.2,0.4-8.5,0.4-12.8c0-4.3-0.1-8.6-0.4-12.8c-0.9-14.3-3.3-27.5-6.8-38.6c-0.4-1.4-0.9-2.7-1.4-4
		c-0.5-1.4-1-2.8-1.6-4.1c-2-4.8-4.2-9.1-6.7-12.8c-0.5-0.8-1-1.5-1.6-2.2c-0.6-0.8-1.2-1.6-1.9-2.4c-2-2.3-4-4.1-6.2-5.5
		c-0.8-0.6-1.7-1-2.6-1.4c-1-0.5-2-0.8-3.1-1.1c-1.3-0.3-2.6-0.5-3.9-0.5c-1.3,0-2.6,0.2-3.9,0.5c1.3,1.1,2.7,2.4,3.9,3.8
		c0.6,0.7,1.3,1.4,1.9,2.2c0.5,0.7,1.1,1.4,1.6,2.1c2.2,3,4.3,6.6,6.2,10.5c0.5,1.1,1.1,2.3,1.6,3.5c0,0.1,0.1,0.2,0.1,0.3
		c0.4,1,0.8,2,1.2,3c2.8,7.2,5,15.4,6.7,24.1c0.5,2.9,1,5.9,1.4,8.9c0.6,4.4,1,9,1.3,13.6c0.3,4.2,0.4,8.5,0.4,12.9
		c0,4.3-0.1,8.6-0.4,12.7c-0.3,4.7-0.7,9.2-1.3,13.7c-0.4,3.1-0.9,6.1-1.4,9c-1.6,8.7-3.8,16.8-6.6,24c-0.4,1.1-0.8,2.1-1.3,3.1
		c0,0.1-0.1,0.1-0.1,0.2c-0.5,1.3-1.1,2.5-1.6,3.6c-1.9,3.9-3.9,7.4-6.1,10.4c-0.5,0.7-1,1.4-1.6,2.1c-0.6,0.8-1.3,1.6-2,2.3
		c-1.2,1.3-2.5,2.5-3.8,3.6c1.2,0.3,2.5,0.4,3.7,0.4c1.3,0,2.5-0.2,3.8-0.5c1.1-0.3,2.2-0.7,3.3-1.2c0.9-0.4,1.7-0.9,2.6-1.5
		c2.1-1.4,4.2-3.2,6.1-5.4C179.9,412,180.5,411.2,181.2,410.3z"/>
	<path d="M432,214v-19H307.9l-48-105h1.4V77.1h-22.7V90h1.4l-48,105H68v19h19v113.7h-2.5v8.5H87h12h9.2c0,47,16.2,85.1,36.1,85.1
		c1.3,0,2.5-0.2,3.8-0.5c1.1-0.3,2.2-0.7,3.3-1.2c0.9-0.4,1.7-0.9,2.6-1.5c2.1-1.4,4.1-3.2,6.1-5.4c0.7-0.8,1.3-1.6,2-2.4
		c0.5-0.7,1.1-1.4,1.6-2.2c2.4-3.6,4.7-7.9,6.6-12.7c0.6-1.4,1.1-2.8,1.6-4.2c0.5-1.3,0.9-2.6,1.4-4c3.5-11,5.9-24.1,6.8-38.4
		c0.3-4.2,0.4-8.5,0.4-12.8c0-4.3-0.1-8.6-0.4-12.8c-0.9-14.3-3.3-27.5-6.8-38.6c-0.4-1.4-0.9-2.7-1.4-4c-0.5-1.4-1-2.8-1.6-4.1
		c-2-4.9-4.2-9.2-6.7-12.8c-0.5-0.8-1-1.5-1.6-2.2c-0.6-0.8-1.2-1.6-1.9-2.3c-2-2.2-4-4.1-6.1-5.4c-0.8-0.6-1.7-1-2.6-1.4
		c-1-0.5-2-0.8-3.1-1.1c-1.3-0.3-2.6-0.5-3.9-0.5c-18.7,0-34.2,33.8-35.9,77H99V214h302v113.8h-9.4c-1.8-43.2-17.2-77-35.9-77
		c-1.3,0-2.7,0.2-3.9,0.5c5.8,4.8,11.1,12.3,15.3,22.4c7.1,16.8,11,39,11,62.5s-3.9,45.7-11,62.5c-4.3,9.9-9.4,17.5-15.2,22.2
		c1.2,0.3,2.5,0.5,3.8,0.5c19.9,0,36.1-38.1,36.1-85.1h23.7v-8.5H413V214H432z M202.4,195L250,90.9L297.5,195H202.4z"/>
</g>
</svg>
