<?xml version="1.0" encoding="utf-8"?>
<!-- Generator: Adobe Illustrator 24.3.0, SVG Export Plug-In . SVG Version: 6.00 Build 0)  -->
<svg version="1.1" id="Calque_1" xmlns="http://www.w3.org/2000/svg" xmlns:xlink="http://www.w3.org/1999/xlink" x="0px" y="0px"
	 viewBox="0 0 500 500" style="enable-background:new 0 0 500 500;" xml:space="preserve">
<g>
	<g>
		<path d="M285.6,364.4c4.3,4.3,0.1,15.2-9.1,24.4c-9.4,9.4-20.2,13.4-24.4,9.1c-4.3-4.3-0.1-15.2,9.1-24.4
			C270.5,364.2,281.4,360.2,285.6,364.4"/>
		<path d="M258.7,349.5c-1.5,5.7-13.1,7.5-25.7,4.1c-12.7-3.5-21.7-11.1-20.1-16.8c1.5-5.7,13.1-7.5,25.7-4.1
			C251.3,336.3,260.3,343.8,258.7,349.5"/>
		<path d="M270.1,436.2c-2.3,5.5-14.1,5.6-26.1,0.3c-12.1-5.3-19.9-14-17.5-19.4c2.3-5.5,14.1-5.6,26.1-0.3
			C264.7,422.1,272.6,430.8,270.1,436.2"/>
	</g>
	<g>
		<path d="M151.6,364.4c4.3,4.3,0.1,15.2-9.1,24.4c-9.4,9.4-20.2,13.4-24.4,9.1c-4.3-4.3-0.1-15.2,9.1-24.4
			C136.4,364.2,147.4,360.2,151.6,364.4"/>
		<path d="M124.7,349.5c-1.5,5.7-13.1,7.5-25.7,4.1s-21.8-11.1-20.1-16.8c1.5-5.7,13.1-7.5,25.7-4.1
			C117.2,336.3,126.3,343.8,124.7,349.5"/>
		<path d="M136,436.2c-2.3,5.5-14.1,5.6-26.1,0.3c-12.1-5.3-19.9-14-17.5-19.4c2.3-5.5,14.1-5.6,26.1-0.3
			C130.7,422.1,138.5,430.8,136,436.2"/>
	</g>
	<g>
		<path d="M419.7,364.4c4.3,4.3,0.1,15.2-9.1,24.4c-9.4,9.4-20.2,13.4-24.4,9.1c-4.3-4.3-0.1-15.2,9.1-24.4
			C404.6,364.2,415.4,360.2,419.7,364.4"/>
		<path d="M392.8,349.5c-1.5,5.7-13.1,7.5-25.7,4.1c-12.6-3.5-21.7-11.1-20.1-16.8c1.5-5.7,13.1-7.5,25.7-4.1
			C385.4,336.3,394.4,343.8,392.8,349.5"/>
		<path d="M404.2,436.2c-2.3,5.5-14.1,5.6-26.1,0.3c-12.1-5.3-19.9-14-17.5-19.4c2.3-5.5,14.1-5.6,26.1-0.3
			C398.8,422.1,406.6,430.8,404.2,436.2"/>
	</g>
	<path d="M453,138.1c0-3.2-1.1-6.4-3.1-9l-48.4-62.6c-2.8-3.6-7.1-5.7-11.7-5.7H385c-0.6-0.1-1.1-0.1-1.7-0.1H116.7
		c-0.5,0-1.1,0-1.6,0.1h-5c-4.5,0-8.9,2.1-11.7,5.7L50,129.1c-2,2.5-3.1,5.7-3.1,9h9.6v15.2c0,3,1,6,2.8,8.4l52,70.5L94,262.3
		l-21.9,37.8h11.7c-1.8,0-3.2,1.4-3.2,3.2s1.4,3.2,3.2,3.2H148c1.8,0,3.2-1.5,3.3-3.2c0-1.8-1.4-3.2-3.2-3.2h11.6l-21.9-37.8
		l-4.1-7.1c0.6,0.1,1.2,0.1,1.8,0.1h96.6l-4,7l-21.9,37.8h11.6c-1.8,0-3.2,1.4-3.2,3.2s1.4,3.2,3.2,3.2h64.3c1.8,0,3.2-1.5,3.2-3.2
		c0-1.8-1.4-3.2-3.2-3.2h11.7l-21.9-37.8l-4-7h96.6c0.6,0,1.2,0,1.8-0.1l-4.1,7.1l-21.9,37.8h11.6c-1.8,0-3.2,1.4-3.2,3.2
		s1.4,3.2,3.2,3.2h64.3c1.8,0,3.2-1.5,3.2-3.2c0-1.8-1.4-3.2-3.2-3.2h11.7L406,262.3l-17.3-30.1l52-70.5c1.8-2.5,2.8-5.4,2.8-8.4
		v-15.2H453z"/>
</g>
</svg>
