<?xml version="1.0" encoding="utf-8"?>
<!-- Generator: Adobe Illustrator 24.3.0, SVG Export Plug-In . SVG Version: 6.00 Build 0)  -->
<svg version="1.1" id="Calque_1" xmlns="http://www.w3.org/2000/svg" xmlns:xlink="http://www.w3.org/1999/xlink" x="0px" y="0px"
	 viewBox="0 0 1000 1000" style="enable-background:new 0 0 1000 1000;" xml:space="preserve">
<g>
	<path d="M750.8,511.9c-2.3-1.6-4.7-2.9-7-3.9c-2.6-1-5.2-2.1-7.8-2.9c-3.4-0.8-6.8-1.3-10.2-1.3s-7,0.5-10.2,1.3
		c3.7,2.9,7,6.3,10.4,9.9c1.6,1.8,3.1,3.4,4.7,5.2c1.6,1.8,2.9,3.7,4.4,5.7c7.6,10.4,14.6,23,20.9,37.6
		c18.5,43.8,28.7,101.8,28.7,163.1S774.6,845.9,756,889.8c-6.3,14.4-13,26.9-20.6,37.1c-1.6,2.1-2.9,3.9-4.4,5.7
		c-1.6,2.1-3.1,3.9-5,5.7c-3.1,3.4-6.5,6.5-9.7,9.4c3.1,0.8,6.5,1.3,9.9,1.3s6.5-0.5,9.7-1c2.9-0.8,5.5-1.6,8.4-2.9
		c2.3-1,4.7-2.3,7-3.9c39.9-25.8,69.2-112.2,69.2-214.5C820,624.1,790.5,537.7,750.8,511.9z"/>
	<path d="M721.3,921.1c1.6-2.1,3.1-4.2,4.4-6.3c26.4-39.4,44.1-109.1,44.1-188.4s-17.7-149-44.1-188.4c-1.3-2.1-2.9-4.2-4.4-6
		c-1.6-2.1-3.1-3.9-4.7-5.7c-5.2-6-10.4-10.7-16.2-14.4c-2.1-1.3-4.4-2.6-6.8-3.7c-2.6-1.3-5.2-2.1-8.1-2.9
		c-3.4-0.8-6.8-1.3-10.2-1.3c-3.7,0-7,0.5-10.4,1.3c3.7,2.9,7,6.3,10.4,9.9c1.6,1.8,3.4,3.7,5,5.7c1.3,1.8,2.9,3.4,4.2,5.5
		c5.7,7.8,11,17,16.2,27.4c1.3,2.9,2.6,5.5,3.9,8.6c0.3,0.5,0.5,1,0.8,1.6c1,2.6,2.1,5.2,3.1,7.8c16.4,42.8,25.6,97.6,25.6,155.3
		s-8.9,112.2-25.3,155c-1,2.9-2.1,5.5-3.4,8.1c-0.3,0.5-0.5,0.8-0.5,1.3c-1.3,2.9-2.6,6-3.9,8.6c-5,10.2-10.2,19.1-15.9,26.9
		c-1.3,1.8-2.6,3.7-4.2,5.5c-1.8,2.1-3.4,4.2-5.2,6c-3.1,3.4-6.5,6.5-9.9,9.4c3.4,0.8,6.5,1.3,9.9,1.3s6.5-0.5,9.7-1
		c2.9-0.8,5.7-1.8,8.6-3.1c2.3-1,4.4-2.3,6.8-3.9c5.5-3.7,10.7-8.1,15.7-13.8C718.2,925.3,719.8,923.2,721.3,921.1z"/>
	<path d="M671.5,920.3c1.3-1.8,2.9-3.9,4.2-5.7c6.3-9.4,12-20.4,17.2-32.9c1.3-3.4,2.6-6.8,3.9-10.2c1.3-3.7,2.6-7.3,3.9-11.2
		c11.7-37.3,18.8-83.5,18.8-133.6s-7-96.6-19.1-133.9c-1.3-3.9-2.6-7.6-3.9-11c-1.3-3.4-2.6-6.8-3.9-10.2
		c-5.2-12.8-11-23.8-17.5-33.4c-1.3-2.1-2.6-3.9-4.2-5.7c-1.6-2.1-3.1-4.2-5-6c-5.2-6-10.4-10.7-16.2-14.4c-2.1-1.3-4.4-2.6-6.5-3.7
		c-2.6-1.3-5.2-2.1-8.1-2.9c-3.4-0.8-7-1.3-10.4-1.3s-6.8,0.5-10.2,1.3c3.7,2.9,7,6.3,10.4,9.9c1.6,1.8,3.4,3.7,5,5.7
		c1.3,1.8,2.9,3.4,4.2,5.5c5.7,7.8,11,17,16.2,27.4c1.3,2.9,2.9,6,4.2,9.1c0,0.3,0.3,0.5,0.3,0.8c1,2.6,2.1,5.2,3.1,7.8
		c7.3,18.8,13,40.2,17.5,62.9c1.3,7.3,2.6,14.9,3.7,22.7c1.6,11.7,2.9,23.8,3.7,36.3c0.8,11,1,22.2,1,33.7c0,11.2-0.3,22.4-1,33.1
		c-0.8,12.3-1.8,24.5-3.7,36.3c-1,7.8-2.3,15.4-3.7,23c-4.2,22.7-9.9,43.8-17.2,62.6c-1,2.9-2.1,5.5-3.4,8.1c0,0.3-0.3,0.3-0.3,0.5
		c-1.3,3.4-2.9,6.5-4.4,9.4c-5,10.2-10.2,19.1-15.9,26.9c-1.3,1.8-2.6,3.7-4.2,5.5c-1.8,2.1-3.4,4.2-5.2,6c-3.1,3.4-6.5,6.8-9.9,9.4
		c3.1,0.8,6.5,1.3,9.9,1.3s6.5-0.5,9.9-1.3c2.9-0.8,5.7-1.8,8.6-3.1c2.3-1,4.4-2.3,6.8-3.9c5.5-3.7,10.7-8.4,15.7-14.1
		C668.1,925,669.6,922.7,671.5,920.3z"/>
	<path d="M621.4,920.3c1.3-1.8,2.9-3.9,4.2-5.7c6.3-9.4,12-20.4,17.2-32.9c1.6-3.7,2.9-7.3,4.2-11c1.3-3.4,2.3-6.8,3.7-10.4
		c9.1-28.7,15.4-62.9,17.7-100.2c0.8-11,1-22.2,1-33.4c0-11.2-0.3-22.4-1-33.1c-2.3-37.3-8.6-71.8-18-100.5c-1-3.7-2.3-7-3.7-10.4
		c-1.3-3.7-2.6-7.3-4.2-10.7c-5.2-12.8-11-23.8-17.5-33.4c-1.3-2.1-2.6-3.9-4.2-5.7c-1.6-2.1-3.1-4.2-5-6
		c-5.2-6-10.4-10.7-16.2-14.4c-2.1-1.6-4.4-2.6-6.8-3.9c-2.6-1.3-5.2-2.1-8.1-2.9c-3.4-0.8-6.8-1.3-10.2-1.3
		c-3.4,0-6.8,0.5-10.2,1.3c3.4,2.9,7,6.3,10.2,9.9c1.6,1.8,3.4,3.7,5,5.7c1.3,1.8,2.9,3.7,4.2,5.5c5.7,7.8,11.2,17.2,16.2,27.4
		c1.3,2.9,2.9,6,4.2,9.1c0,0.3,0.3,0.5,0.3,0.8c1,2.6,2.1,5.2,3.1,7.8c7.3,18.8,13,40.2,17.5,62.9c1.3,7.6,2.6,15.4,3.7,23.2
		c1.6,11.5,2.6,23.5,3.4,35.5c0.8,11,1,22.2,1,33.7c0,11.2-0.3,22.4-1,33.1c-0.8,12.3-1.8,24-3.4,35.8c-1,8.1-2.3,15.9-3.7,23.5
		c-4.2,22.7-9.9,43.8-17.2,62.6c-1,2.9-2.1,5.5-3.4,8.1c0,0.3-0.3,0.3-0.3,0.5c-1.3,3.4-2.9,6.5-4.4,9.4
		c-5,10.2-10.2,19.3-15.9,27.1c-1.3,1.8-2.6,3.7-4.2,5.5c-1.6,2.1-3.4,4.2-5.2,6c-3.1,3.4-6.5,6.5-9.9,9.4c3.1,0.8,6.5,1.3,9.9,1.3
		c3.4,0,6.5-0.5,9.9-1.3c2.9-0.8,5.7-1.8,8.6-3.1c2.3-1,4.4-2.3,6.8-3.9c5.5-3.7,10.7-8.4,15.9-14.1
		C618,925,619.5,922.7,621.4,920.3z"/>
	<path d="M571,920.6c1.3-1.8,2.9-3.7,4.2-5.7c6.3-9.4,12.3-20.6,17.2-33.1c1.6-3.7,2.9-7.3,4.2-11c1.3-3.4,2.3-6.8,3.7-10.4
		c9.1-28.7,15.4-62.9,17.7-100.2c0.8-11,1-22.2,1-33.4c0-11.2-0.3-22.4-1-33.1c-2.3-37.3-8.6-71.8-18-100.5c-1-3.7-2.3-7-3.7-10.4
		c-1.3-3.7-2.6-7.3-4.2-10.7c-5.2-12.8-11-24-17.5-33.4c-1.3-2.1-2.6-3.9-4.2-5.7c-1.6-2.1-3.1-4.2-5-6
		c-5.2-5.7-10.4-10.7-15.9-14.4c-2.1-1.6-4.4-2.6-6.8-3.9c-2.6-1.3-5.2-2.1-8.1-2.9c-3.4-0.8-6.8-1.3-10.2-1.3s-6.8,0.5-10.2,1.3
		c3.4,2.9,6.8,6.3,10.2,9.7c1.6,1.8,3.4,3.7,5,5.7c1.3,1.8,2.9,3.7,4.2,5.5c5.7,7.8,11,17,15.9,27.1c1.3,2.9,2.9,6,4.2,9.1
		c0.3,0.3,0.3,0.8,0.5,1c1,2.6,2.1,5,3.1,7.6c7.3,19.1,13,40.2,17.5,63.2c1.3,7.6,2.6,15.4,3.7,23.2c1.6,11.5,2.6,23.5,3.4,35.5
		c0.8,11,1,22.2,1,33.4s-0.3,22.4-1,33.4c-0.8,12.3-1.8,24-3.4,35.8c-1,8.1-2.3,15.9-3.7,23.5c-4.2,22.7-10.2,44.1-17.5,62.9
		c-1,2.6-2.1,5.2-3.1,7.6c-0.3,0.3-0.3,0.8-0.5,1c-1.3,3.1-2.9,6.5-4.2,9.4c-5,10.2-10.2,19.1-15.9,26.9c-1.3,1.8-2.6,3.7-4.2,5.5
		c-1.8,2.1-3.4,4.2-5.2,6c-3.1,3.4-6.5,6.5-9.9,9.4c3.1,0.8,6.5,1.3,9.9,1.3s6.5-0.5,9.7-1c2.9-0.8,5.7-1.8,8.6-3.1
		c2.3-1,4.4-2.3,6.8-3.9c5.5-3.7,10.7-8.4,15.9-14.1C567.6,925,569.4,922.9,571,920.6z"/>
	<path d="M520.9,920.6c1.3-1.8,2.9-3.7,4.2-5.7c6.3-9.4,12-20.4,17.2-32.9c1.6-3.7,2.9-7.3,4.2-11c1.3-3.4,2.3-6.8,3.7-10.4
		c9.1-29,15.7-63.2,18-100.5c0.8-11,1-22.2,1-33.7c0-11.2-0.3-22.4-1-33.1c-2.3-37.6-8.6-72-18-101c-1-3.7-2.3-7-3.7-10.4
		c-1.3-3.7-2.6-7.3-4.2-10.7c-5.2-12.5-11-23.8-17.2-33.1c-1.3-2.1-2.6-3.9-4.2-5.7c-1.6-2.1-3.1-4.2-5-6
		c-5-5.7-10.4-10.7-15.9-14.1c-2.1-1.6-4.4-2.9-6.8-3.9c-2.6-1.3-5.2-2.1-8.1-2.9c-3.4-0.8-7-1.3-10.4-1.3c-3.4,0-7,0.5-10.4,1.3
		c3.7,2.9,7,6.3,10.4,9.9c1.6,1.8,3.4,3.7,5,5.7c1.3,1.8,2.9,3.7,4.2,5.5c5.7,7.8,11,17,15.9,27.1c1.3,2.9,2.9,6,4.2,9.1
		c0.3,0.3,0.3,0.8,0.5,1c1,2.6,2.1,5,3.1,7.6c7.3,18.8,13,39.9,17.2,62.4c1.3,7.6,2.6,15.1,3.7,23c1.6,11.2,2.6,23,3.4,34.7
		c0.8,11.5,1,23.5,1,35.2s-0.5,23.8-1,35.2c-0.8,11.7-1.8,23.5-3.4,34.7c-1,7.8-2.3,15.7-3.7,23.2c-4.2,22.4-9.9,43.6-17.2,62.1
		c-1,2.6-2.1,5.2-3.1,7.6c-0.3,0.3-0.3,0.8-0.5,1c-1.3,3.4-2.9,6.5-4.4,9.7c-5,10.2-10.2,19.1-15.7,26.9c-1.3,1.8-2.6,3.7-4.2,5.5
		c-1.8,2.1-3.4,4.2-5.2,6c-3.1,3.4-6.3,6.5-9.7,9.1c3.1,0.8,6.5,1,9.7,1s6.3-0.3,9.4-1c2.9-0.8,5.7-1.8,8.6-3.1
		c2.3-1,4.4-2.3,6.8-3.7c5.5-3.7,10.7-8.1,15.9-13.8C517.5,925,519.1,922.7,520.9,920.6z"/>
	<path d="M470.8,920.6c1.3-1.8,2.9-3.7,4.2-5.7c6.3-9.4,12-20.4,17.2-32.9c1.6-3.7,2.9-7.3,4.2-11c1.3-3.4,2.3-6.8,3.7-10.4
		c9.1-28.4,15.4-62.1,18-98.7c0.8-11.5,1.3-23.5,1.3-35.5s-0.5-23.8-1-35.2c-2.3-36.8-8.6-70.5-17.7-98.9c-1-3.7-2.3-7-3.7-10.4
		c-1.3-3.7-2.6-7.3-4.2-10.7c-5.2-12.5-11-23.8-17.2-33.1c-1.3-2.1-2.6-3.9-4.2-5.7c-1.6-2.1-3.1-4.2-5-6
		c-5.2-6-10.4-10.7-16.2-14.4c-2.1-1.3-4.4-2.6-6.8-3.7c-2.6-1.3-5.2-2.1-8.1-2.9c-3.4-0.8-6.8-1.3-10.2-1.3c-3.4,0-7,0.5-10.4,1.3
		c3.7,2.9,7,6.3,10.4,9.9c1.6,1.8,3.4,3.7,5,5.7c1.3,1.8,2.9,3.4,4.2,5.2c5.7,7.8,11.2,17,16.2,27.4c1.3,2.9,2.9,6,4.2,9.1
		c0.3,0.3,0.3,0.8,0.5,1c1,2.6,2.1,5,3.1,7.6c7.3,18.8,13,39.9,17.2,62.4c1.3,7.6,2.6,15.1,3.7,23c1.6,11.2,2.6,23,3.4,34.7
		c0.8,11.5,1,23.5,1,35.2c0,12-0.5,23.8-1,35.2c-0.8,11.7-1.8,23.5-3.4,34.7c-1,7.8-2.3,15.7-3.7,23.2c-4.2,22.4-9.9,43.6-17.2,62.1
		c-1,2.6-2.1,5.2-3.1,7.6c-0.3,0.3-0.3,0.8-0.5,1c-1.3,3.4-2.9,6.5-4.4,9.7c-5,10.2-10.2,19.1-15.7,26.9c-1.3,1.8-2.6,3.7-4.2,5.5
		c-1.6,2.1-3.4,4.2-5.2,6c-3.1,3.4-6.5,6.5-9.9,9.4c3.1,0.8,6.5,1,9.7,1c3.4,0,6.5-0.5,9.9-1.3c2.9-0.8,5.7-1.8,8.6-3.1
		c2.3-1,4.4-2.3,6.8-3.9c5.5-3.7,10.7-8.1,15.7-13.8C467.4,925,468.9,922.7,470.8,920.6z"/>
	<path d="M420.7,920.3c1.3-1.8,2.9-3.7,4.2-5.7c6.3-9.4,12-20.4,17.2-32.6c1.6-3.7,2.9-7.3,4.2-11c1.3-3.4,2.3-6.8,3.7-10.4
		c9.1-28.4,15.4-62.1,18-98.7c0.8-11.5,1.3-23.5,1.3-35.5s-0.5-23.8-1-35.2c-2.3-36.8-8.6-70.5-17.7-98.9c-1-3.7-2.3-7-3.7-10.4
		c-1.3-3.7-2.6-7.3-4.2-10.7c-5.2-12.8-11-23.8-17.5-33.4c-1.3-2.1-2.6-3.9-4.2-5.7c-1.6-2.1-3.1-4.2-5-6
		c-5.2-5.7-10.4-10.7-16.2-14.1c-2.1-1.3-4.4-2.6-6.8-3.7c-2.6-1.3-5.2-2.1-8.1-2.9c-3.4-0.8-6.8-1.3-10.2-1.3
		c-3.7,0-7,0.5-10.4,1.3c3.7,2.9,7,6.3,10.4,9.9c1.6,1.8,3.4,3.7,5,5.7c1.3,1.8,2.9,3.4,4.2,5.5c5.7,7.8,11.2,17,16.2,27.4
		c1.3,2.9,2.9,6,4.2,9.1c0,0.3,0.3,0.5,0.3,0.8c1,2.6,2.1,5.2,3.1,7.8c7.3,19.1,13,40.2,17.5,63.2c1.3,7.6,2.6,15.4,3.7,23.2
		c1.6,11.5,2.6,23.5,3.4,35.8c0.8,11,1,22.2,1,33.4s-0.3,22.4-1,33.4c-0.8,12.3-1.8,24-3.4,35.8c-1,8.1-2.3,15.9-3.7,23.5
		c-4.2,22.7-9.9,43.6-17.2,62.4c-1,2.9-2.1,5.5-3.4,8.1c0,0.3-0.3,0.3-0.3,0.5c-1.3,3.4-2.9,6.5-4.2,9.4
		c-5,10.2-10.2,19.3-15.7,27.1c-1.3,1.8-2.6,3.7-4.2,5.5c-1.6,2.1-3.4,4.2-5.2,6c-3.1,3.4-6.5,6.8-9.9,9.4c3.1,0.8,6.5,1.3,9.9,1.3
		c3.4,0,6.5-0.5,9.9-1.3c2.9-0.8,5.7-1.8,8.6-3.1c2.3-1,4.4-2.3,6.8-3.9c5.5-3.7,10.7-8.4,15.9-14.1
		C417.3,924.8,419.1,922.7,420.7,920.3z"/>
	<path d="M370.5,920.1c1.3-1.8,2.9-3.9,4.2-5.7c6.3-9.4,12-20.4,17.2-32.9c1.6-3.7,2.9-7.3,4.2-11c1.3-3.4,2.3-6.8,3.7-10.4
		c9.1-28.7,15.4-62.9,17.7-100c0.8-11,1-22.2,1-33.7c0-11.2-0.3-22.4-1-33.1c-2.3-37.3-8.6-71.8-17.7-100.7c-1-3.7-2.3-7-3.7-10.4
		c-1.3-3.7-2.6-7.3-4.2-10.7c-5.2-12.5-11-23.8-17.5-33.4c-1.3-2.1-2.6-3.9-4.2-5.7c-1.6-2.1-3.1-4.2-5-6.3
		c-5.2-6-10.4-10.7-16.2-14.4c-2.1-1.3-4.4-2.6-6.8-3.7c-2.6-1.3-5.2-2.1-8.1-2.9c-3.4-0.8-7-1.3-10.4-1.3c-3.4,0-6.8,0.5-10.2,1.3
		c3.7,2.9,7,6.3,10.4,9.9c1.6,1.8,3.4,3.7,5,5.7c1.3,1.8,2.9,3.4,4.2,5.5c5.7,7.8,11.2,17,16.2,27.4c1.3,2.9,2.9,6,4.2,9.1
		c0,0.3,0.3,0.5,0.3,0.8c1,2.6,2.1,5.2,3.1,7.8c7.3,18.8,13,40.2,17.5,62.9c1.3,7.6,2.6,15.4,3.7,23.2c1.6,11.5,2.6,23.5,3.4,35.5
		c0.8,11,1,22.2,1,33.7c0,11.2-0.3,22.4-1,33.1c-0.8,12.3-1.8,24-3.4,35.8c-1,8.1-2.3,15.9-3.7,23.5c-4.2,22.7-9.9,43.8-17.2,62.6
		c-1,2.9-2.1,5.5-3.4,8.1c0,0.3-0.3,0.3-0.3,0.5c-1.3,3.4-2.9,6.5-4.2,9.4c-5,10.2-10.2,19.3-15.7,27.1c-1.3,1.8-2.6,3.7-4.2,5.5
		c-1.6,2.1-3.4,4.2-5.2,6c-3.1,3.7-6.5,6.8-9.9,9.4c3.1,0.8,6.5,1,9.7,1c3.4,0,6.8-0.5,9.9-1.3c2.9-0.8,5.7-1.8,8.4-3.1
		c2.3-1,4.4-2.3,6.8-3.9c5.5-3.7,10.7-8.4,15.9-14.1C367.2,924.5,368.7,922.4,370.5,920.1z"/>
	<path d="M320.4,920.1c1.3-1.8,2.9-3.9,4.2-5.7c6.3-9.4,12-20.4,17.2-32.9c1.6-3.7,2.9-7.3,4.2-11c1.3-3.4,2.3-6.8,3.7-10.4
		c9.1-28.7,15.4-62.9,17.7-100.2c0.8-11,1-22.2,1-33.4c0-11.2-0.3-22.4-1-33.4c-2.3-37.3-8.6-71.8-17.7-100.7c-1-3.7-2.3-7-3.7-10.4
		c-1.3-3.7-2.6-7.3-4.2-10.7c-5.2-12.5-11-23.8-17.5-33.4c-1.3-2.1-2.6-3.9-4.2-5.7c-1.6-2.1-3.1-4.2-5-6.3
		c-5.2-6-10.4-10.7-16.2-14.4c-2.1-1.6-4.4-2.6-6.8-3.7c-2.6-1.3-5.2-2.1-8.1-2.9c-3.4-0.8-6.8-1.3-10.2-1.3
		c-3.4,0-6.8,0.5-10.2,1.3c3.4,2.9,7,6.3,10.2,9.9c1.6,1.8,3.4,3.7,5,5.7c1.3,1.8,2.9,3.7,4.2,5.5c5.7,7.8,11.2,17.2,16.2,27.4
		c1.3,2.9,2.9,6,4.2,9.1c0,0.3,0.3,0.5,0.3,0.8c1,2.6,2.1,5.2,3.1,7.8c7.3,18.8,13,40.2,17.5,62.9c1.3,7.6,2.6,15.4,3.7,23.2
		c1.6,11.5,2.6,23.5,3.4,35.5c0.8,11,1,22.2,1,33.7c0,11.2-0.3,22.4-1,33.1c-0.8,12.3-1.8,24-3.4,35.8c-1,8.1-2.3,15.9-3.7,23.5
		c-4.2,22.7-9.9,43.8-17.2,62.6c-1,2.9-2.1,5.5-3.4,8.1c0,0.3-0.3,0.3-0.3,0.5c-1.3,3.4-2.9,6.5-4.2,9.4
		c-5,10.2-10.2,19.3-15.9,27.1c-1.3,1.8-2.6,3.7-4.2,5.5c-1.6,2.1-3.4,4.2-5.2,6c-3.1,3.4-6.5,6.5-9.9,9.4c3.1,0.8,6.5,1,9.7,1
		c3.4,0,6.5-0.5,9.9-1.3c2.9-0.8,5.7-1.8,8.6-3.1c2.3-1,4.4-2.3,6.8-3.9c5.5-3.7,11-8.4,15.9-14.1
		C317,924.5,318.6,922.4,320.4,920.1z"/>
	<path d="M975,407.7v-49.6H651.1l-125.3-274h3.7V50.4h-59.2v33.7h3.7l-125.3,274H25v49.6h49.6v296.7h-6.5v22.2h6.5h31.3h24
		c0,122.7,42.3,222.1,94.2,222.1c3.4,0,6.5-0.5,9.9-1.3c2.9-0.8,5.7-1.8,8.6-3.1c2.3-1,4.4-2.3,6.8-3.9c5.5-3.7,10.7-8.4,15.9-14.1
		c1.8-2.1,3.4-4.2,5.2-6.3c1.3-1.8,2.9-3.7,4.2-5.7c6.3-9.4,12.3-20.6,17.2-33.1c1.6-3.7,2.9-7.3,4.2-11c1.3-3.4,2.3-6.8,3.7-10.4
		c9.1-28.7,15.4-62.9,17.7-100.2c0.8-11,1-22.2,1-33.4c0-11.2-0.3-22.4-1-33.4c-2.3-37.3-8.6-71.8-17.7-100.7c-1-3.7-2.3-7-3.7-10.4
		c-1.3-3.7-2.6-7.3-4.2-10.7c-5.2-12.8-11-24-17.5-33.4c-1.3-2.1-2.6-3.9-4.2-5.7c-1.6-2.1-3.1-4.2-5-6
		c-5.2-5.7-10.4-10.7-15.9-14.1c-2.1-1.6-4.4-2.6-6.8-3.7c-2.6-1.3-5.2-2.1-8.1-2.9c-3.4-0.8-6.8-1.3-10.2-1.3
		c-48.8,0-89.3,88.2-93.7,201h-24.8v-297h788.2v297h-24.5c-4.7-112.7-44.9-201-93.7-201c-3.4,0-7,0.5-10.2,1.3
		c15.1,12.5,29,32.1,39.9,58.5c18.5,43.8,28.7,101.8,28.7,163.1s-10.2,119.3-28.7,163.1c-11.2,25.8-24.5,45.7-39.7,57.9
		c3.1,0.8,6.5,1.3,9.9,1.3c51.9,0,94.2-99.4,94.2-222.1h61.9v-22.2h-6.5v-297H975z M375.8,358.2L500,86.5l124,271.7H375.8z"/>
</g>
</svg>
