<?xml version="1.0" encoding="utf-8"?>
<!-- Generator: Adobe Illustrator 24.3.0, SVG Export Plug-In . SVG Version: 6.00 Build 0)  -->
<svg version="1.1" id="Calque_1" xmlns="http://www.w3.org/2000/svg" xmlns:xlink="http://www.w3.org/1999/xlink" x="0px" y="0px"
	 viewBox="0 0 1000 1000" style="enable-background:new 0 0 1000 1000;" xml:space="preserve">
<path d="M949.7,70.2V17.4H50v52.8h177.7v318.5H50v52.8h173.3l0.3,0.8c1.7-0.3,3.1-0.6,4.7-0.8h14.4c6.4,0.8,12.5,2.8,18.3,5.8
	c5.8,3.1,11.1,7.2,15.6,12.2c4.4,4.7,8.1,10.6,10.3,16.9c4.7,12.5,5,26.9,0,40c-5,12.8-14.7,24.2-27.2,30.8
	c-3.1,1.7-6.4,3.1-9.7,4.2l-5.3,1.4l-7.5,1.9l-3.6,0.8l-3.6,1.1l-7.2,2.2l-7.2,2.5l-3.6,1.4l-3.6,1.4c-9.4,3.6-18.3,8.1-27.2,13.1
	c-8.6,5-16.9,10.6-25,16.7c-31.9,24.4-56.6,57.5-71.1,94.4c-14.7,36.9-18.6,77.5-12.2,116.1c6.7,38.3,23.3,75,48.6,104.1
	c25,29.2,58,51.1,93.9,63.3c35.8,11.9,75,13.9,111.4,5.8c-36.7,5.8-75,1.9-109.1-11.9c-34.2-13.9-64.4-36.7-86.4-65.5
	c-22.2-28.6-35.5-63.3-39.7-98.9c-3.9-35.5,1.9-71.6,16.7-103.6s38-59.4,66.6-78.9c7.2-4.7,14.4-9.2,22.2-13.1
	c7.8-3.9,15.8-7.5,23.9-10l3.1-1.1l3.1-0.8l6.1-1.9l6.1-1.4l3.1-0.8l3.1-0.6l6.4-1.1l8.3-1.9c5.6-1.4,11.1-3.3,16.4-5.8
	c21.1-9.7,38.6-27.2,48-48.9c9.7-21.4,10.8-46.7,3.9-69.4c-2.2-7.2-5.3-14.2-8.9-20.5h395.7l0.3,0.8c1.7-0.3,3.1-0.6,4.7-0.8h14.4
	c6.4,0.8,12.5,2.8,18.3,5.8s11.1,7.2,15.6,12.2c4.4,4.7,8.1,10.6,10.3,16.9c4.7,12.5,5,26.9,0,40c-5,12.8-14.7,24.2-27.2,30.8
	c-3.1,1.7-6.4,3.1-9.7,4.2l-5.3,1.4l-7.5,1.9l-3.6,0.8l-3.6,1.1l-7.2,2.2l-7.2,2.5l-3.6,1.4l-3.6,1.4c-9.4,3.6-18.3,8.1-27.2,13.1
	c-8.6,5-16.9,10.6-25,16.7c-31.9,24.4-56.6,57.5-71.1,94.4c-14.7,36.9-18.6,77.5-12.2,116.1c6.7,38.3,23.3,75,48.6,104.1
	c25,29.2,58,51.1,93.9,63.3c35.8,11.9,75,13.9,111.4,5.8c-36.7,5.8-75,1.9-109.1-11.9s-64.4-36.7-86.4-65.5
	c-22.2-28.6-35.5-63.3-39.7-98.9c-3.9-35.5,1.9-71.6,16.7-103.6c14.7-31.9,38-59.4,66.6-78.9c7.2-4.7,14.4-9.2,22.2-13.1
	c7.8-3.9,15.8-7.5,23.9-10l3.1-1.1l3.1-0.8l6.1-1.9l6.1-1.4l3.1-0.8l3.1-0.6l6.4-1.1l8.3-1.9c5.6-1.4,11.1-3.3,16.4-5.8
	c21.1-9.7,38.6-27.2,48-48.9c9.7-21.4,10.8-46.7,3.9-69.4c-2.2-7.2-5.3-14.2-8.9-20.5H950v-52.8H772.3V70.2H949.7z M719.2,388.7
	H280.5V70.2h438.8V388.7z"/>
</svg>
