<?xml version="1.0" encoding="utf-8"?>
<!-- Generator: Adobe Illustrator 24.3.0, SVG Export Plug-In . SVG Version: 6.00 Build 0)  -->
<svg version="1.1" id="Calque_1" xmlns="http://www.w3.org/2000/svg" xmlns:xlink="http://www.w3.org/1999/xlink" x="0px" y="0px"
	 viewBox="0 0 1000 1000" style="enable-background:new 0 0 1000 1000;" xml:space="preserve">
<path d="M787.2,70.6H950V17.8H50v52.8h185.8c-6.7,6.7-13.3,13.9-19.7,21.7c-36.1,43.1-64.4,96.7-81.4,154.7
	C92.8,388.1,93.9,625.3,335.8,955l15.3-11.1c8.9,12.8,17.8,25.6,27.2,38.3l46.9-34.4c-59.2-80.8-106.9-161.1-142.2-238.9l-30.3,13.6
	C149.4,515,154.7,361.4,184.4,261.7c35-119.2,106.7-176.1,136.7-191.1h381.1c-6.7,6.7-13.3,13.9-19.7,21.7
	c-36.1,43.1-64.4,96.7-81.4,154.7C559.2,388.1,560.3,625.3,802.2,955l15.3-11.1c8.9,12.8,17.8,25.6,27.2,38.3l46.9-34.4
	c-60.3-82.2-108.1-162.5-142.2-238.9l-30.3,13.6C615.8,515,621.4,361.4,650.8,261.7C685.6,142.5,757.2,85.6,787.2,70.6z"/>
</svg>
