<?xml version="1.0" encoding="utf-8"?>
<!-- Generator: Adobe Illustrator 24.3.0, SVG Export Plug-In . SVG Version: 6.00 Build 0)  -->
<svg version="1.1" id="Calque_1" xmlns="http://www.w3.org/2000/svg" xmlns:xlink="http://www.w3.org/1999/xlink" x="0px" y="0px"
	 viewBox="0 0 500 500" style="enable-background:new 0 0 500 500;" xml:space="preserve">
<g>
	<path d="M424.6,158.6H172.7c-24.5,0-45.9,14.2-56.3,34.8c-11.4-9.7-28.7-19.4-47-12c-18.1,7.3-30.3,29.6-30.3,55.4h1v6.5h0.7
		l-23.4,51.2h-5.1v7.2h5.5l6.9,39.7l6.9-39.7h7.1l7,39.7l6.8-39.7h7.1l7,39.7l6.8-39.7h5.7v-7.2H74l-23.4-51.2h0.7v-6.5h1
		c0-20.1,9.1-37.9,22-43.2c10.9-4.4,23.7,0.2,37.1,13.1c-1.2,4.8-1.8,9.8-1.8,15v10.6c0,17,6.8,32.4,17.8,43.8h52.1
		c7.2-5.9,16.2-9.6,26.2-9.6s19,3.7,26.2,9.6h25.6c7.2-5.9,16.2-9.6,26.2-9.6s19,3.7,26.2,9.6h160c11-11.4,17.9-26.8,17.9-43.8
		v-10.6C487.7,187,459.3,158.6,424.6,158.6z M68.9,294.5H22.5l23.2-50.8L68.9,294.5z"/>
	<path d="M241.7,288c0.3,0.6,0.6,1.1,0.9,1.7c0.8,1.6,1.5,3.3,2.1,5c1.3-3.7,2.9-7.3,5.2-10.5h-10.4
		C240.3,285.4,241,286.7,241.7,288z"/>
	<path d="M166.5,294.9c0.6-1.7,1.3-3.5,2.1-5.2c0.3-0.5,0.5-1,0.8-1.5c0.7-1.4,1.5-2.8,2.4-4.1h-35
		C145.4,290.1,155.5,293.8,166.5,294.9z"/>
	<path d="M317.5,284.2c2.4,3.4,4.2,7.2,5.5,11.3h99.8l-5.3,40.5h7.8l3.3-25.6l3.3,25.6h7.8l-5.4-40.5H471v-11.3H317.5z"/>
	<path d="M283.7,274.6c-18.4,0-33.4,15-33.4,33.4s15,33.4,33.4,33.4s33.4-14.9,33.4-33.4S302.1,274.6,283.7,274.6z M283.7,322
		c-7.7,0-14-6.3-14-14s6.3-14,14-14s14,6.3,14,14S291.4,322,283.7,322z"/>
	<path d="M205.7,274.6c-18.4,0-33.4,15-33.4,33.4s14.9,33.4,33.4,33.4c18.4,0,33.4-14.9,33.4-33.4S224.1,274.6,205.7,274.6z
		 M205.7,322c-7.7,0-14-6.3-14-14s6.3-14,14-14s14,6.3,14,14S213.4,322,205.7,322z"/>
</g>
</svg>
