<?xml version="1.0" encoding="utf-8"?>
<!-- Generator: Adobe Illustrator 24.3.0, SVG Export Plug-In . SVG Version: 6.00 Build 0)  -->
<svg version="1.1" id="Calque_1" xmlns="http://www.w3.org/2000/svg" xmlns:xlink="http://www.w3.org/1999/xlink" x="0px" y="0px"
	 viewBox="0 0 500 500" style="enable-background:new 0 0 500 500;" xml:space="preserve">
<path d="M462.7,314.6c-5.8,0-10.5,4.7-10.5,10.5v16.4h-3.9v-86.7H313l-52.3-114.5h1.6v-14.1h-24.7v14.1h1.6l-52.3,114.5H51.7v86.6
	h-3.9v-16.2c0-5.8-4.7-10.5-10.5-10.5s-10.5,4.7-10.5,10.5v38.1c0,5.8,4.7,10.5,10.5,10.5s10.5-4.7,10.5-10.5v-16.5h11.5v-25.8h61.1
	V333h-4.7c-1.4,0-2.6,0.3-2.8,0.8l-2.1,4.7c-2.7,0.3-5.2,0.6-7.6,1.1c-3.7-0.8-7.1-1.9-10.6-2.7c-0.5-0.1-1-0.2-1.7-0.2
	c-0.6,0-1.2,0-1.7,0.2c-4.5,1.1-9.2,2.9-12.9,4.3c-0.5,0.1-0.8,0.4-0.8,0.6s0.2,0.4,0.7,0.6l8.2,3.6c-1.2,0.8-2.1,1.6-2.9,2.4
	l-14.1,0.7c-1.4,0.1-2.4,0.4-2.4,0.9v5.8c0,0.4,0.9,0.7,2.1,0.9c4.6,0.4,9.6,0.6,14.3,0.8c0.9,0.9,1.9,1.6,3,2.4l-8.3,3.6
	c-0.4,0.2-0.7,0.5-0.7,0.7c0,0.9,11.3,4.4,13.7,5c0.5,0.1,1,0.2,1.7,0.2s1.4-0.1,1.9-0.3c3.5-0.9,6.8-1.9,10.6-2.7
	c2.2,0.5,4.6,0.8,7,1.1l2.1,4.8c0.2,0.4,1.6,0.7,2.7,0.7h17.1c1.4,0,2.6-0.3,2.8-0.8l2.1-4.7c2.6-0.3,5.1-0.6,7.5-1.1
	c3.7,0.8,7.1,1.9,10.6,2.7c0.5,0.1,1,0.2,1.7,0.2c0.6,0,1.2,0,1.7-0.2c4.6-1.1,9.3-2.9,13.1-4.3c0.5-0.1,0.8-0.4,0.8-0.6
	s-0.2-0.4-0.7-0.6l-8.2-3.6c1.2-0.8,2.1-1.6,2.9-2.4l14.1-0.7c1.4-0.1,2.4-0.4,2.4-0.9l-0.1-5.8c0-0.4-0.9-0.7-2.1-0.9
	c-4.6-0.5-9.6-0.6-14.3-0.8c-0.9-0.9-1.9-1.6-3-2.4l8.3-3.6c0.5-0.2,0.8-0.5,0.8-0.7c0-0.9-11.2-4.4-13.7-5c-0.5,0-0.9-0.2-1.7-0.2
	s-1.4,0.1-1.9,0.3c-3.5,0.9-6.9,1.9-10.6,2.7c-2.3-0.5-4.7-0.9-7.1-1.1l-2.1-4.8c-0.2-0.4-1.6-0.7-2.7-0.7h-5.1v-11.9h118.7V333
	h-4.7c-1.4,0-2.6,0.3-2.8,0.8l-2.1,4.7c-2.7,0.3-5.2,0.6-7.6,1.1c-3.7-0.8-7.1-1.9-10.6-2.7c-0.5-0.1-1-0.2-1.7-0.2
	c-0.6,0-1.2,0-1.7,0.2c-4.5,1.1-9.2,2.9-12.9,4.3c-0.5,0.1-0.8,0.4-0.8,0.6s0.2,0.4,0.7,0.6l8.2,3.6c-1.2,0.8-2.1,1.6-2.9,2.4
	l-14.1,0.7c-1.4,0.1-2.4,0.4-2.4,0.9v5.8c0,0.4,0.9,0.7,2.1,0.9c4.6,0.4,9.6,0.6,14.3,0.8c0.9,0.9,1.9,1.6,3,2.4l-8.3,3.6
	c-0.4,0.2-0.7,0.5-0.7,0.7c0,0.9,11.3,4.4,13.7,5c0.5,0.1,1,0.2,1.7,0.2c0.7,0,1.4-0.1,1.9-0.3c3.5-0.9,6.8-1.9,10.6-2.7
	c2.2,0.5,4.6,0.8,7,1.1l2.1,4.8c0.2,0.4,1.6,0.7,2.7,0.7h17.1c1.4,0,2.6-0.3,2.8-0.8l2.1-4.7c2.6-0.3,5.1-0.6,7.5-1.1
	c3.7,0.8,7.1,1.9,10.6,2.7c0.5,0.1,1,0.2,1.7,0.2c0.6,0,1.2,0,1.7-0.2c4.6-1.1,9.3-2.9,13.1-4.3c0.5-0.1,0.8-0.4,0.8-0.6
	s-0.2-0.4-0.7-0.6l-8.2-3.6c1.2-0.8,2.1-1.6,2.9-2.4l14.1-0.7c1.4-0.1,2.4-0.4,2.4-0.9l-0.1-5.8c0-0.4-0.9-0.7-2.1-0.9
	c-4.6-0.5-9.6-0.6-14.3-0.8c-0.9-0.9-1.9-1.6-3-2.4l8.3-3.6c0.5-0.2,0.8-0.5,0.8-0.7c0-0.9-11.2-4.4-13.7-5c-0.5,0-0.9-0.2-1.7-0.2
	s-1.4,0.1-1.9,0.3c-3.5,0.9-6.9,1.9-10.6,2.7c-2.3-0.5-4.7-0.9-7.1-1.1l-2.1-4.8c-0.2-0.4-1.6-0.7-2.7-0.7h-5.1v-11.9h118.7V333
	h-4.7c-1.4,0-2.6,0.3-2.8,0.8l-2.1,4.7c-2.7,0.3-5.2,0.6-7.6,1.1c-3.7-0.8-7.1-1.9-10.6-2.7c-0.5-0.1-1-0.2-1.7-0.2
	c-0.6,0-1.2,0-1.7,0.2c-4.5,1.1-9.2,2.9-12.9,4.3c-0.5,0.1-0.8,0.4-0.8,0.6s0.2,0.4,0.7,0.6l8.2,3.6c-1.2,0.8-2.1,1.6-2.9,2.4
	l-14.1,0.7c-1.4,0.1-2.4,0.4-2.4,0.9v5.8c0,0.4,0.9,0.7,2.1,0.9c4.6,0.4,9.6,0.6,14.3,0.8c0.9,0.9,1.9,1.6,3,2.4l-8.3,3.6
	c-0.4,0.2-0.7,0.5-0.7,0.7c0,0.9,11.3,4.4,13.7,5c0.5,0.1,1,0.2,1.7,0.2c0.7,0,1.4-0.1,1.9-0.3c3.5-0.9,6.8-1.9,10.6-2.7
	c2.2,0.5,4.6,0.8,7,1.1l2.1,4.8c0.2,0.4,1.6,0.7,2.7,0.7h17.1c1.4,0,2.6-0.3,2.8-0.8l2.1-4.7c2.6-0.3,5.1-0.6,7.5-1.1
	c3.7,0.8,7.1,1.9,10.6,2.7c0.5,0.1,1,0.2,1.7,0.2c0.6,0,1.2,0,1.7-0.2c4.6-1.1,9.3-2.9,13.1-4.3c0.5-0.1,0.8-0.4,0.8-0.6
	s-0.2-0.4-0.7-0.6l-8.2-3.6c1.2-0.8,2.1-1.6,2.9-2.4l14.1-0.7c1.4-0.1,2.4-0.4,2.4-0.9l-0.1-5.8c0-0.4-0.9-0.7-2.1-0.9
	c-4.6-0.5-9.6-0.6-14.3-0.8c-0.9-0.9-1.9-1.6-3-2.4l8.3-3.6c0.5-0.2,0.8-0.5,0.8-0.7c0-0.9-11.2-4.4-13.7-5c-0.5,0-0.9-0.2-1.7-0.2
	s-1.4,0.1-1.9,0.3c-3.5,0.9-6.9,1.9-10.6,2.7c-2.3-0.5-4.7-0.9-7.1-1.1l-2.1-4.8c-0.2-0.4-1.6-0.7-2.7-0.7h-5.1v-11.9h61v25.8h11.5
	v16.4c0,5.8,4.7,10.5,10.5,10.5s10.5-4.7,10.5-10.5v-38.1C473.2,319.3,468.5,314.6,462.7,314.6z M198.1,254.8L250,141.3l51.9,113.5
	H198.1z"/>
</svg>
