<?xml version="1.0" encoding="utf-8"?>
<!-- Generator: Adobe Illustrator 24.3.0, SVG Export Plug-In . SVG Version: 6.00 Build 0)  -->
<svg version="1.1" id="Calque_1" xmlns="http://www.w3.org/2000/svg" xmlns:xlink="http://www.w3.org/1999/xlink" x="0px" y="0px"
	 viewBox="0 0 500 500" style="enable-background:new 0 0 500 500;" xml:space="preserve">
<g>
	<path d="M412,95.2v-19H88v19h64v114.7H88v19h62.4l0.1,0.3c0.6-0.1,1.1-0.2,1.7-0.3h5.2c2.3,0.3,4.5,1,6.6,2.1
		c2.1,1.1,4,2.6,5.6,4.4c1.6,1.7,2.9,3.8,3.7,6.1c1.7,4.5,1.8,9.7,0,14.4c-1.8,4.6-5.3,8.7-9.8,11.1c-1.1,0.6-2.3,1.1-3.5,1.5
		l-1.9,0.5l-2.7,0.7l-1.3,0.3l-1.3,0.4l-2.6,0.8l-2.6,0.9l-1.3,0.5l-1.3,0.5c-3.4,1.3-6.6,2.9-9.8,4.7c-3.1,1.8-6.1,3.8-9,6
		c-11.5,8.8-20.4,20.7-25.6,34c-5.3,13.3-6.7,27.9-4.4,41.8c2.4,13.8,8.4,27,17.5,37.5c9,10.5,20.9,18.4,33.8,22.8
		c12.9,4.3,27,5,40.1,2.1c-13.2,2.1-27,0.7-39.3-4.3s-23.2-13.2-31.1-23.6c-8-10.3-12.8-22.8-14.3-35.6c-1.4-12.8,0.7-25.8,6-37.3
		c5.3-11.5,13.7-21.4,24-28.4c2.6-1.7,5.2-3.3,8-4.7c2.8-1.4,5.7-2.7,8.6-3.6l1.1-0.4l1.1-0.3l2.2-0.7l2.2-0.5l1.1-0.3l1.1-0.2
		l2.3-0.4l3-0.7c2-0.5,4-1.2,5.9-2.1c7.6-3.5,13.9-9.8,17.3-17.6c3.5-7.7,3.9-16.8,1.4-25c-0.8-2.6-1.9-5.1-3.2-7.4h91.2
		c-2.3,0-4.2,1.9-4.2,4.2v14.7c0,2.3,1.8,4.2,4.2,4.2h13.6c2.3,0,4.2,1.8,4.2,4.2v12.2c0,2.3,1.8,4.2,4.2,4.2H320
		c2.3,0,4.2-1.8,4.2-4.2v-12.3c0-2.3,1.8-4.2,4.2-4.2H342c2.3,0,4.2-1.8,4.2-4.2v-14.6c0-2.3-1.8-4.2-4.2-4.2h70v-19h-64V95.2H412z
		 M329,209.9H171V95.2h158V209.9z"/>
	<path d="M315.7,300.1l-4.1-12.9c-0.3-1.2-1.4-1.9-2.6-1.9s-2.2,0.8-2.6,1.9l-4,12.8c0,0.2-0.1,0.3,0,0.4c-0.2,0.7-0.3,1.3-0.3,2
		c0,3.8,3.2,7,7,7s7-3.2,7-7c0-0.7-0.1-1.4-0.3-2.1C315.7,300.3,315.7,300.2,315.7,300.1z"/>
	<path d="M315.7,336.5l-4.1-12.9c-0.3-1.2-1.4-1.9-2.6-1.9s-2.2,0.8-2.6,1.9l-4,12.8c0,0.2-0.1,0.3,0,0.4c-0.2,0.7-0.3,1.3-0.3,2
		c0,3.8,3.2,7,7,7s7-3.2,7-7c0-0.7-0.1-1.4-0.3-2.1C315.7,336.7,315.7,336.6,315.7,336.5z"/>
	<path d="M315.7,371.4l-4.1-12.9c-0.3-1.2-1.4-1.9-2.6-1.9s-2.2,0.8-2.6,1.9l-4,12.8c0,0.2-0.1,0.3,0,0.4c-0.2,0.7-0.3,1.3-0.3,2
		c0,3.8,3.2,7,7,7s7-3.2,7-7c0-0.7-0.1-1.4-0.3-2.1C315.7,371.6,315.7,371.5,315.7,371.4z"/>
	<path d="M315.7,406.3l-4.1-12.9c-0.3-1.2-1.4-1.9-2.6-1.9s-2.2,0.8-2.6,1.9l-4,12.8c0,0.2-0.1,0.3,0,0.4c-0.2,0.7-0.3,1.3-0.3,2
		c0,3.8,3.2,7,7,7s7-3.2,7-7c0-0.7-0.1-1.4-0.3-2.1C315.7,406.5,315.7,406.4,315.7,406.3z"/>
	<path d="M347.8,292.8c-0.1-0.1-0.1-0.1-0.2-0.2l-9.5-9.6c-0.8-0.8-2.1-1.1-3.2-0.5c-1.1,0.5-1.6,1.7-1.4,2.8l2.3,13.3
		c0,0.2,0,0.3,0.1,0.4c0.2,0.7,0.3,1.3,0.7,1.9c1.7,3.4,6,4.7,9.4,3c3.4-1.7,4.7-6,3-9.4C348.7,293.9,348.3,293.3,347.8,292.8z"/>
	<path d="M365.8,326.8c-0.3-0.6-0.7-1.2-1.2-1.7c-0.1-0.1-0.1-0.1-0.2-0.2l-9.6-9.6c-0.8-0.8-2.1-1.1-3.2-0.5
		c-1.1,0.5-1.6,1.7-1.4,2.8l2.3,13.3c0,0.2,0,0.3,0.2,0.4c0.2,0.7,0.3,1.3,0.7,1.9c1.7,3.4,6,4.7,9.4,3
		C366.2,334.5,367.5,330.2,365.8,326.8z"/>
	<path d="M381.9,357.8c-0.3-0.6-0.7-1.2-1.2-1.7c-0.1-0.1-0.1-0.1-0.2-0.2l-9.6-9.6c-0.8-0.8-2.1-1.1-3.2-0.5
		c-1.1,0.5-1.6,1.7-1.4,2.8l2.3,13.3c0,0.2,0.1,0.3,0.2,0.4c0.2,0.7,0.3,1.3,0.7,1.9c1.7,3.4,6,4.7,9.4,3
		C382.3,365.5,383.6,361.2,381.9,357.8z"/>
	<path d="M396.8,387.1c-0.1-0.1-0.1-0.1-0.2-0.2l-9.6-9.6c-0.8-0.8-2.1-1.1-3.2-0.5c-1.1,0.5-1.6,1.7-1.4,2.8l2.3,13.3
		c0,0.1,0.1,0.2,0.2,0.4c0.2,0.7,0.3,1.3,0.7,1.9c1.7,3.4,6,4.7,9.4,3c3.4-1.7,4.7-6,3-9.4C397.7,388.2,397.3,387.6,396.8,387.1z"/>
	<path d="M283,282.5c-1.1-0.6-2.4-0.3-3.2,0.5l-9.6,9.6c-0.1,0.1-0.1,0.1-0.2,0.2c-0.5,0.5-0.9,1.1-1.2,1.7c-1.7,3.4-0.4,7.7,3,9.4
		c3.4,1.7,7.7,0.4,9.4-3c0.4-0.6,0.5-1.2,0.7-1.9c0.2-0.1,0.2-0.2,0.2-0.4l2.3-13.3C284.6,284.2,284.1,283,283,282.5z"/>
	<path d="M266.3,314.8c-1.1-0.6-2.4-0.3-3.2,0.5l-9.6,9.6c-0.1,0.1-0.1,0.1-0.2,0.2c-0.5,0.5-0.9,1.1-1.2,1.7
		c-1.7,3.4-0.4,7.7,3,9.4c3.4,1.7,7.7,0.4,9.4-3c0.4-0.6,0.5-1.2,0.7-1.9c0.2-0.1,0.2-0.2,0.2-0.4l2.3-13.3
		C267.9,316.5,267.4,315.3,266.3,314.8z"/>
	<path d="M250.2,345.8c-1.1-0.6-2.4-0.3-3.2,0.5l-9.6,9.6c-0.1,0.1-0.1,0.1-0.2,0.2c-0.5,0.5-0.9,1.1-1.2,1.7
		c-1.7,3.4-0.4,7.7,3,9.4c3.4,1.7,7.7,0.4,9.4-3c0.4-0.6,0.5-1.2,0.7-1.9c0.1-0.1,0.2-0.2,0.2-0.4l2.3-13.3
		C251.8,347.5,251.3,346.3,250.2,345.8z"/>
	<path d="M234.1,376.8c-1.1-0.6-2.4-0.3-3.2,0.5l-9.6,9.6c-0.1,0.1-0.1,0.1-0.2,0.2c-0.5,0.5-0.9,1.1-1.2,1.7
		c-1.7,3.4-0.4,7.7,3,9.4c3.4,1.7,7.7,0.4,9.4-3c0.4-0.6,0.5-1.2,0.7-1.9c0.1-0.2,0.2-0.3,0.2-0.4l2.3-13.3
		C235.7,378.5,235.2,377.3,234.1,376.8z"/>
</g>
</svg>
