<?xml version="1.0" encoding="utf-8"?>
<!-- Generator: Adobe Illustrator 24.3.0, SVG Export Plug-In . SVG Version: 6.00 Build 0)  -->
<svg version="1.1" id="Calque_1" xmlns="http://www.w3.org/2000/svg" xmlns:xlink="http://www.w3.org/1999/xlink" x="0px" y="0px"
	 viewBox="0 0 1000 1000" style="enable-background:new 0 0 1000 1000;" xml:space="preserve">
<path d="M824,192v-38H176v38h128v177c-4.8,28.2-7,54.4-7.8,77.8c-9-49.2-17-111-17.4-155.8c-9.4,78.4-6.8,138.8,0,183.2
	c-16.6-37.6-34.6-87.8-42.6-128.8c4.4,80.8,17,134.4,30.8,169.8c-21.6-20.4-46.8-51.2-61.2-82.4c17.6,70.8,38.4,109.2,57,129.8
	c-23.4,0-51.6-6.6-70-22.6c28,49.6,53.4,67.2,74,70.2c-21.6,20.4-48.8,38.8-68.4,40c34.6,21.8,61.4,15.4,81,0
	c-16.6,37.8-38.6,78.8-56.8,97c35.2-10,58.8-38.6,74.2-69.6c-9,49.2-22.4,106-36,138.4c31-40,47.8-87,57-129.2
	c0,53.2-3,117.4-10,159.2c22-64.4,29.6-122.8,31-169.8c9,49.2,17.2,111.6,17.6,156.8c9.4-78.4,6.8-138.8,0-183.2
	C373,687.4,391,737.6,399,778.6c-4.4-81-17-134.6-30.8-169.8c21.6,20.4,46.6,51,61,82.2c-17.6-70.6-38.2-109-56.8-129.6
	c23.4,0,51.6,6.6,70,22.6c-28.2-49.8-53.6-67.2-74.2-70.2c21.6-20.4,48.6-38.8,68.4-40c-34.6-21.8-61.2-15.4-80.8,0
	c16.6-37.8,38.6-78.8,56.8-97.2c-32.6,9.2-55.2,34.4-70.6,62.8v-12.8c8.8-43.8,20.4-90.4,32.2-118.6c-13,17-23.6,35-32.2,53.6V192
	h316v177c-4.8,28.2-7,54.4-7.8,77.8c-9-49.2-17-111-17.4-155.8c-9.4,78.4-6.8,138.8,0,183.2c-16.6-37.6-34.6-87.8-42.6-128.8
	c4.4,80.8,17,134.4,30.8,169.8c-21.6-20.4-46.8-51.2-61.2-82.4c17.6,70.8,38.4,109.2,57,129.8c-23.4,0-51.6-6.6-70-22.6
	c28,49.6,53.4,67.2,74,70.2c-21.6,20.4-48.8,38.8-68.4,40c34.6,21.8,61.4,15.4,81,0c-16.6,37.8-38.6,78.8-56.8,97
	c35.2-10,58.8-38.6,74.2-69.6c-9,49.2-22.4,106-36,138.4c31-40,47.8-87,57-129.2c0,53.2-3,117.4-10,159.2
	c22-64.4,29.6-122.8,31-169.8c9,49.2,17.2,111.6,17.6,156.8c9.4-78.4,6.8-138.8,0-183.2C727,687.4,745,737.6,753,778.6
	c-4.4-81-17-134.6-30.8-169.8c21.6,20.4,46.6,51,61,82.2c-17.6-70.6-38.2-109-56.8-129.6c23.4,0,51.6,6.6,70,22.6
	c-28.2-49.8-53.6-67.2-74.2-70.2c21.6-20.4,48.6-38.8,68.4-40c-34.6-21.8-61.2-15.4-80.8,0c16.6-37.8,38.6-78.8,56.8-97.2
	c-32.6,9.2-55.2,34.4-70.6,62.8v-12.8c8.8-43.8,20.4-90.4,32.2-118.6c-13,17-23.6,35-32.2,53.6V192H824z"/>
</svg>
