<?xml version="1.0" encoding="utf-8"?>
<!-- Generator: Adobe Illustrator 24.3.0, SVG Export Plug-In . SVG Version: 6.00 Build 0)  -->
<svg version="1.1" id="Calque_1" xmlns="http://www.w3.org/2000/svg" xmlns:xlink="http://www.w3.org/1999/xlink" x="0px" y="0px"
	 viewBox="0 0 1000 1000" style="enable-background:new 0 0 1000 1000;" xml:space="preserve">
<style type="text/css">
	.st0{fill:none;}
</style>
<path d="M105.7,796c0,20.3,16.6,36.8,36.8,36.8s36.8-16.6,36.8-36.8s-16.4-36.8-36.8-36.8C122.3,759.2,105.7,775.8,105.7,796z
	 M123.2,796c0-10.6,8.7-19.3,19.3-19.3c10.6,0,19.3,8.7,19.3,19.3s-8.7,19.3-19.3,19.3C131.9,815.4,123.2,806.7,123.2,796z"/>
<path d="M372.5,757.2c0,41.6,34,75.6,75.6,75.6s75.6-34,75.6-75.6c0-41.6-33.6-75.6-75.6-75.6C406.5,681.6,372.5,715.7,372.5,757.2z
	 M408.4,757.2c0-21.8,17.9-39.7,39.7-39.7s39.7,17.9,39.7,39.7c0,21.8-17.9,39.7-39.7,39.7S408.4,779.1,408.4,757.2z"/>
<path id="Shape_2_" d="M944.9,564.6c5.2-3.5,6.6-10.6,3.2-15.8c-3.5-5.2-10.6-6.6-15.8-3.2l-27.8,18.5c-0.9,0.6-1.6,1.4-2.3,2.3
	c-13.5-17.9-30.8-32.6-50.6-43.2c0.4-0.4,0.7-1,1-1.5l11.3-22.8c1.8-3.7,1.6-8-0.7-11.4c-2.3-3.4-6.2-5.4-10.3-5.1
	c-4.1,0.3-7.7,2.7-9.5,6.4L832,511.7c-0.4,0.9-0.6,1.8-0.8,2.8c-63.5-22.9-134.6-1.6-175.1,52.5s-40.9,128.4-0.9,182.8
	c0,0-0.1,0.1-0.2,0.1L629.9,770c-4.9,4-5.7,11.1-1.8,16c4,4.9,11.1,5.7,16,1.8l25.3-20.1c0.2-0.1,0.3-0.4,0.5-0.6
	c53.9,55.1,140.3,61.8,202.1,15.6s79.8-130.9,42.2-198.2c1.1-0.3,2-0.8,2.9-1.3L944.9,564.6z M899.5,670.5
	c-6.3,0-11.4-5.1-11.4-11.4c0-59.9-48.5-108.4-108.4-108.4c-59.9,0-108.4,48.5-108.4,108.4c0,59.9,48.6,108.3,108.4,108.3
	c34.6,0,62.8-28.1,62.8-62.8S814.3,642,779.7,642c-22.1,0-39.9,17.9-39.9,39.9c0,22,17.9,39.9,39.9,39.9c6.3,0,11.4,5.1,11.4,11.4
	c0,6.3-5.1,11.4-11.4,11.4c-34.6,0-62.8-28.1-62.8-62.8s28.1-62.8,62.8-62.8c47.2,0,85.6,38.2,85.6,85.6s-38.4,85.7-85.6,85.7
	c-72.4,0-131.2-58.7-131.2-131.2S707.2,528,779.7,528s131.2,58.7,131.2,131.1c0,3-1.2,5.9-3.3,8.1
	C905.4,669.3,902.5,670.5,899.5,670.5z"/>
<g>
	<polygon class="st0" points="490.7,346 490.7,426.8 571.6,346 	"/>
	<polygon class="st0" points="490.7,460.6 490.7,494.2 639,346 605.4,346 	"/>
	<path d="M881.5,253.9l-83.6-83.6c-2.3-2.2-5.3-3.4-8.5-3.5h-227c-3.2,0-6.2,1.3-8.5,3.5l-83.6,83.6c-2.2,2.3-3.5,5.3-3.5,8.5v59.7
		H193.4c-0.9,0-1.9,0.1-2.7,0.4c-1.9,0.4-3.6,1.3-5,2.5c-0.6,0.5-1.2,1.1-1.7,1.8c-0.1,0.2-0.4,0.4-0.5,0.6l-83.2,106.9
		c-1.7,2.1-2.5,4.6-2.5,7.3v155.3H61.9c-6.6,0-11.9,5.3-11.9,11.9v71.7c0,6.6,5.3,11.9,11.9,11.9v83.6c0,6.6,5.3,11.9,11.9,11.9
		l25.2,0c3.8-20.5,21.9-36.2,43.4-36.2c21.8,0,39.7,15.7,43.4,36.2l176.9,0c-3.5-9.6-5.4-20-5.4-30.8c0-49.9,40.8-90.7,90.7-90.7
		c50.4,0,90.7,40.8,90.7,90.7c0,10.8-1.9,21.1-5.4,30.8l52.9,0c4.5,0,8.5-2.5,10.6-6.5c2-3.9,1.7-8.7-0.8-12.3L490.7,617.1V528
		l182-182H873c6.6,0,11.9-5.3,11.9-11.9v-71.7C885,259.2,883.7,256.1,881.5,253.9z M490.7,346h80.8l-80.8,80.8V346z M490.7,494.2
		v-33.6L605.4,346H639L490.7,494.2z"/>
</g>
</svg>
