<?xml version="1.0" encoding="utf-8"?>
<!-- Generator: Adobe Illustrator 24.3.0, SVG Export Plug-In . SVG Version: 6.00 Build 0)  -->
<svg version="1.1" id="Calque_1" xmlns="http://www.w3.org/2000/svg" xmlns:xlink="http://www.w3.org/1999/xlink" x="0px" y="0px"
	 viewBox="0 0 500 500" style="enable-background:new 0 0 500 500;" xml:space="preserve">
<style type="text/css">
	.st0{fill:none;}
</style>
<g>
	<path d="M467.9,375.6c-9.1,0-16.5,7.4-16.5,16.5V418h-6V227.9h-12v198.6h12v0h6v25.6c0,9.1,7.4,16.5,16.5,16.5
		c9.1,0,16.5-7.3,16.5-16.5v-60C484.4,383,477,375.6,467.9,375.6z"/>
	<g>
		<g>
			<path d="M241,278.7l-2.3-7.2c-0.2-0.6-0.8-1.1-1.5-1.1s-1.2,0.4-1.5,1.1l-2.3,7.3c0,0.1,0,0.1-0.1,0.1c-0.1,0.4-0.2,0.8-0.2,1.2
				c0,2.1,1.8,3.9,3.9,3.9c2.1,0,3.9-1.8,3.9-3.9c0-0.4-0.1-0.7-0.2-1.1C241.1,278.9,241,278.8,241,278.7"/>
			<path d="M241,299.2l-2.3-7.2c-0.2-0.6-0.8-1.1-1.5-1.1s-1.2,0.4-1.5,1.1l-2.3,7.3c0,0.1,0,0.1-0.1,0.1c-0.1,0.4-0.2,0.8-0.2,1.2
				c0,2.1,1.8,3.9,3.9,3.9c2.1,0,3.9-1.8,3.9-3.9c0-0.4-0.1-0.7-0.2-1.1C241.1,299.4,241,299.2,241,299.2"/>
			<path d="M241,318.9l-2.3-7.2c-0.2-0.6-0.8-1.1-1.5-1.1s-1.2,0.4-1.5,1.1l-2.3,7.3c0,0.1,0,0.1-0.1,0.1c-0.1,0.4-0.2,0.8-0.2,1.2
				c0,2.1,1.8,3.9,3.9,3.9c2.1,0,3.9-1.8,3.9-3.9c0-0.4-0.1-0.7-0.2-1.1C241.1,319,241,318.9,241,318.9"/>
			<path d="M241,338.5l-2.3-7.2c-0.2-0.6-0.8-1.1-1.5-1.1s-1.2,0.4-1.5,1.1l-2.3,7.3c0,0.1,0,0.1-0.1,0.1c-0.1,0.4-0.2,0.8-0.2,1.2
				c0,2.1,1.8,3.9,3.9,3.9c2.1,0,3.9-1.8,3.9-3.9c0-0.4-0.1-0.7-0.2-1.1C241.1,338.7,241,338.6,241,338.5"/>
			<path d="M222.2,277.9l1.3-7.4c0.1-0.7-0.2-1.3-0.8-1.6c-0.6-0.3-1.3-0.2-1.8,0.3l-5.4,5.4c-0.1,0.1-0.1,0.1-0.1,0.1
				c-0.3,0.3-0.5,0.6-0.7,1c-1,1.9-0.2,4.3,1.7,5.3c1.9,1,4.3,0.2,5.3-1.7c0.2-0.3,0.3-0.7,0.4-1.1
				C222.2,278.1,222.2,278,222.2,277.9"/>
			<path d="M212.8,296.1l1.3-7.4c0.1-0.7-0.2-1.3-0.8-1.6c-0.6-0.3-1.3-0.2-1.8,0.3l-5.4,5.4c-0.1,0.1-0.1,0.1-0.1,0.1
				c-0.3,0.3-0.5,0.6-0.7,1c-1,1.9-0.2,4.3,1.7,5.3c1.9,1,4.3,0.2,5.3-1.7c0.2-0.3,0.3-0.7,0.4-1.1
				C212.8,296.3,212.8,296.1,212.8,296.1"/>
			<path d="M203.7,313.6l1.3-7.4c0.1-0.7-0.2-1.3-0.8-1.6c-0.6-0.3-1.3-0.2-1.8,0.3l-5.4,5.4c-0.1,0.1-0.1,0.1-0.1,0.1
				c-0.3,0.3-0.5,0.6-0.7,1c-1,1.9-0.2,4.3,1.7,5.3s4.3,0.2,5.3-1.7c0.2-0.3,0.3-0.7,0.4-1.1C203.7,313.7,203.7,313.6,203.7,313.6"
				/>
			<path d="M194.6,331l1.3-7.4c0.1-0.7-0.2-1.3-0.8-1.6c-0.6-0.3-1.3-0.2-1.8,0.3l-5.4,5.4c-0.1,0.1-0.1,0.1-0.1,0.1
				c-0.3,0.3-0.5,0.6-0.7,1c-1,1.9-0.2,4.3,1.7,5.3s4.3,0.2,5.3-1.7c0.2-0.3,0.3-0.7,0.4-1.1C194.6,331.2,194.6,331,194.6,331"/>
			<path d="M252.5,277.9l-1.3-7.4c-0.1-0.7,0.2-1.3,0.8-1.6c0.6-0.3,1.3-0.2,1.8,0.3l5.4,5.4c0.1,0.1,0.1,0.1,0.1,0.1
				c0.3,0.3,0.5,0.6,0.7,1c1,1.9,0.2,4.3-1.7,5.3c-1.9,1-4.3,0.2-5.3-1.7c-0.2-0.3-0.3-0.7-0.4-1.1
				C252.5,278.1,252.5,278,252.5,277.9"/>
			<path d="M261.9,296.1l-1.3-7.4c-0.1-0.7,0.2-1.3,0.8-1.6c0.6-0.3,1.3-0.2,1.8,0.3l5.4,5.4c0.1,0.1,0.1,0.1,0.1,0.1
				c0.3,0.3,0.5,0.6,0.7,1c1,1.9,0.2,4.3-1.7,5.3c-1.9,1-4.3,0.2-5.3-1.7c-0.2-0.3-0.3-0.7-0.4-1.1
				C261.9,296.3,261.9,296.1,261.9,296.1"/>
			<path d="M271,313.6l-1.3-7.4c-0.1-0.7,0.2-1.3,0.8-1.6c0.6-0.3,1.3-0.2,1.8,0.3l5.4,5.4c0.1,0.1,0.1,0.1,0.1,0.1
				c0.3,0.3,0.5,0.6,0.7,1c1,1.9,0.2,4.3-1.7,5.3c-1.9,1-4.3,0.2-5.3-1.7c-0.2-0.3-0.3-0.7-0.4-1.1C271,313.7,271,313.6,271,313.6"
				/>
			<path d="M280,331l-1.3-7.4c-0.1-0.7,0.2-1.3,0.8-1.6c0.6-0.3,1.3-0.2,1.8,0.3l5.4,5.4c0.1,0.1,0.1,0.1,0.1,0.1
				c0.3,0.3,0.5,0.6,0.7,1c1,1.9,0.2,4.3-1.7,5.3c-1.9,1-4.3,0.2-5.3-1.7c-0.2-0.3-0.3-0.7-0.4-1.1C280,331.2,280,331,280,331"/>
		</g>
		<g>
			<g>
				<path d="M361.2,278.7c0,0.1-0.1,0.2,0,0.2c-0.1,0.4-0.2,0.7-0.2,1.1c0,2.1,1.8,3.9,3.9,3.9s3.9-1.8,3.9-3.9
					c0-0.4-0.1-0.8-0.2-1.2c-0.1,0-0.1-0.1-0.1-0.1l-2.3-7.3c-0.2-0.7-0.8-1.1-1.5-1.1s-1.2,0.5-1.5,1.1L361.2,278.7"/>
				<path d="M361.2,299.2c0,0.1-0.1,0.2,0,0.2c-0.1,0.4-0.2,0.7-0.2,1.1c0,2.1,1.8,3.9,3.9,3.9s3.9-1.8,3.9-3.9
					c0-0.4-0.1-0.8-0.2-1.2c-0.1,0-0.1-0.1-0.1-0.1l-2.3-7.3c-0.2-0.7-0.8-1.1-1.5-1.1s-1.2,0.5-1.5,1.1L361.2,299.2"/>
				<path d="M361.2,318.9c0,0.1-0.1,0.2,0,0.2c-0.1,0.4-0.2,0.7-0.2,1.1c0,2.1,1.8,3.9,3.9,3.9s3.9-1.8,3.9-3.9
					c0-0.4-0.1-0.8-0.2-1.2c-0.1,0-0.1-0.1-0.1-0.1l-2.3-7.3c-0.2-0.7-0.8-1.1-1.5-1.1s-1.2,0.5-1.5,1.1L361.2,318.9"/>
				<path d="M361.2,338.5c0,0.1-0.1,0.2,0,0.2c-0.1,0.4-0.2,0.7-0.2,1.1c0,2.1,1.8,3.9,3.9,3.9s3.9-1.8,3.9-3.9
					c0-0.4-0.1-0.8-0.2-1.2c-0.1,0-0.1-0.1-0.1-0.1l-2.3-7.3c-0.2-0.7-0.8-1.1-1.5-1.1s-1.2,0.5-1.5,1.1L361.2,338.5"/>
				<path d="M380,277.9c0,0.1,0,0.2,0.1,0.2c0.1,0.4,0.2,0.7,0.4,1.1c1,1.9,3.4,2.6,5.3,1.7c1.9-1,2.6-3.4,1.7-5.3
					c-0.2-0.3-0.4-0.7-0.7-1c-0.1-0.1-0.1-0.1-0.1-0.1l-5.4-5.4c-0.5-0.5-1.2-0.6-1.8-0.3c-0.6,0.3-0.9,1-0.8,1.6L380,277.9"/>
				<path d="M389.4,296.1c0,0.1,0,0.2,0.1,0.2c0.1,0.4,0.2,0.7,0.4,1.1c1,1.9,3.4,2.6,5.3,1.7c1.9-1,2.6-3.4,1.7-5.3
					c-0.2-0.3-0.4-0.7-0.7-1c-0.1-0.1-0.1-0.1-0.1-0.1l-5.4-5.4c-0.5-0.5-1.2-0.6-1.8-0.3c-0.6,0.3-0.9,1-0.8,1.6L389.4,296.1"/>
				<path d="M398.5,313.6c0,0.1,0.1,0.2,0.1,0.2c0.1,0.4,0.2,0.7,0.4,1.1c1,1.9,3.4,2.6,5.3,1.7c1.9-1,2.6-3.4,1.7-5.3
					c-0.2-0.3-0.4-0.7-0.7-1c-0.1-0.1-0.1-0.1-0.1-0.1l-5.4-5.4c-0.5-0.5-1.2-0.6-1.8-0.3c-0.6,0.3-0.9,1-0.8,1.6L398.5,313.6"/>
				<path d="M407.6,331c0,0.1,0.1,0.1,0.1,0.2c0.1,0.4,0.2,0.7,0.4,1.1c1,1.9,3.4,2.6,5.3,1.7c1.9-1,2.6-3.4,1.7-5.3
					c-0.2-0.3-0.4-0.7-0.7-1c-0.1-0.1-0.1-0.1-0.1-0.1l-5.4-5.4c-0.5-0.5-1.2-0.6-1.8-0.3c-0.6,0.3-0.9,1-0.8,1.6L407.6,331"/>
				<path d="M349.7,277.9c0,0.1,0,0.2-0.1,0.2c-0.1,0.4-0.2,0.7-0.4,1.1c-1,1.9-3.4,2.6-5.3,1.7c-1.9-1-2.6-3.4-1.7-5.3
					c0.2-0.3,0.4-0.7,0.7-1c0.1-0.1,0.1-0.1,0.1-0.1l5.4-5.4c0.5-0.5,1.2-0.6,1.8-0.3c0.6,0.3,0.9,1,0.8,1.6L349.7,277.9"/>
				<path d="M340.3,296.1c0,0.1,0,0.2-0.1,0.2c-0.1,0.4-0.2,0.7-0.4,1.1c-1,1.9-3.4,2.6-5.3,1.7c-1.9-1-2.6-3.4-1.7-5.3
					c0.2-0.3,0.4-0.7,0.7-1c0.1-0.1,0.1-0.1,0.1-0.1l5.4-5.4c0.5-0.5,1.2-0.6,1.8-0.3c0.6,0.3,0.9,1,0.8,1.6L340.3,296.1"/>
				<path d="M331.3,313.6c0,0.1-0.1,0.2-0.1,0.2c-0.1,0.4-0.2,0.7-0.4,1.1c-1,1.9-3.4,2.6-5.3,1.7c-1.9-1-2.6-3.4-1.7-5.3
					c0.2-0.3,0.4-0.7,0.7-1c0.1-0.1,0.1-0.1,0.1-0.1l5.4-5.4c0.5-0.5,1.2-0.6,1.8-0.3c0.6,0.3,0.9,1,0.8,1.6L331.3,313.6"/>
				<path d="M322.2,331c0,0.1-0.1,0.1-0.1,0.2c-0.1,0.4-0.2,0.7-0.4,1.1c-1,1.9-3.4,2.6-5.3,1.7c-1.9-1-2.6-3.4-1.7-5.3
					c0.2-0.3,0.4-0.7,0.7-1c0.1-0.1,0.1-0.1,0.1-0.1l5.4-5.4c0.5-0.5,1.2-0.6,1.8-0.3c0.6,0.3,0.9,1,0.8,1.6L322.2,331"/>
			</g>
		</g>
	</g>
	<g>
		<polygon class="st0" points="89.7,343.8 118.5,343.8 118.5,285.2 103.5,285.2 		"/>
		<polygon class="st0" points="129.5,220.2 129.5,274.8 142.3,274.8 		"/>
		<polygon class="st0" points="118.5,274.8 118.5,221.3 105.9,274.8 		"/>
		<polygon class="st0" points="129.5,285.2 129.5,343.8 158.4,343.8 144.7,285.2 		"/>
		<g>
			<path d="M415.8,59.6l2.3-13l6.7-1.3v1.7h-1.3c-0.4,0-0.8,0.2-0.8,0.6v0.4c0,0.6,0.4,1,0.8,1h1.3v0.6h-1.3c-0.4,0-0.8,0.6-0.8,1
				v0.4c0,0.6,0.4,0.8,0.8,0.8h1.3v0.6h-1.3c-0.4,0-0.8,0.2-0.8,1v0.4c0,0.6,0.4,0.8,0.8,0.8h1.3V55h-1.3c-0.4,0-0.8,0.2-0.8,0.6
				v0.6c0,0.4,0.4,0.8,0.8,0.8h1.3v1h-1.3c-0.4,0-0.8,0.4-0.8,0.8v0.6c0,0.4,0.4,0.6,0.8,0.6h1.3v2.1l9.2-2.1h1.7
				c0.4,0,0.8-0.2,0.8-0.6v-0.6c0-0.4-0.4-0.8-0.8-0.8h-1v-1h1c0.4,0,0.8-0.4,0.8-0.8v-0.6c0-0.4-0.4-0.6-0.8-0.6h-1v-0.8h1
				c0.4,0,0.8-0.2,0.8-0.8v-0.4c0-0.8-0.4-1-0.8-1h-1v-0.6h1c0.4,0,0.8-0.2,0.8-0.8v-0.4c0-0.4-0.4-1-0.8-1h-1v-0.6h1
				c0.4,0,0.8-0.4,0.8-1v-0.4c0-0.4-0.4-0.6-0.8-0.6h-1v-1.7l6.7,1.3l1.7,10.2l5.9-1.7l-2.9-13l-11.5-3.1v-4h-10v4l-11.5,3.1
				l-3.8,17.6v10.4v0h6.3V59.6z"/>
			<path d="M424.2,33.1h11.1c0.4,0,0.8-0.2,0.8-0.6v-0.4c0-0.6-0.4-0.8-0.8-0.8h-11.1c-0.4,0-0.6,0.2-0.6,0.8v0.4
				C423.6,32.9,423.8,33.1,424.2,33.1z"/>
			<path d="M439.2,136.1v-0.6c0-1-0.6-1.5-1.2-1.5h-2.7v-1h2.7c0.6,0,1.2-0.8,1.2-1.3v-0.6c0-1-0.6-1.3-1.2-1.3h-2.7V129h2.7
				c0.6,0,1.2-0.4,1.2-1.5v-0.6c0-1-0.6-1.1-1.2-1.1h-2.7v-1.3h2.7c0.6,0,1.2-0.2,1.2-0.8v-1c0-0.6-0.6-1.1-1.2-1.1h-2.7V120h2.7
				c0.6,0,1.2-0.6,1.2-1.1v-1c0-0.6-0.6-0.8-1.2-0.8h-0.2l3.6-3.6l0.4-3.1V106h-17.1l-4.8,5.9v5.2h-1.2c-0.6,0-1.1,0.2-1.1,0.8v1
				c0,0.6,0.6,1.1,1.1,1.1h1.2v1.5h-1.2c-0.6,0-1.1,0.6-1.1,1.1v1c0,0.6,0.6,0.8,1.1,0.8h1.2v1.3h-1.2c-0.6,0-1.1,0.2-1.1,1.1v0.6
				c0,1.2,0.6,1.5,1.1,1.5h1.2v0.8h-1.2c-0.6,0-1.1,0.4-1.1,1.3v0.6c0,0.6,0.6,1.3,1.1,1.3h1.2v1h-1.2c-0.6,0-1.1,0.6-1.1,1.5v0.6
				c0,0.6,0.6,1,1.1,1h1.2v12.6h-273v-5.8c0-6.9-5.6-12.5-12.5-12.5h-21c-6.9,0-12.5,5.6-12.5,12.5v40.8c0,6.9,5.6,12.5,12.5,12.5
				h0.1L71,378.9c3.4,1,6.6,2.3,9.6,3.9l6.7-28.7h31.2v114.4h11V354.2h31.4l6.7,28.7c3-1.6,6.2-3,9.6-3.9l-42.6-181.8
				c6.8-0.1,12.4-5.7,12.4-12.5v-24.2h57.7l90.3,33.6l-90.8,33.8h-16.9v10.7h31.6c-1.3,0-2.4,1-2.4,2.4v8.3c0,1.3,1,2.4,2.4,2.4h7.7
				c1.3,0,2.4,1,2.4,2.4v6.9c0,1.3,1,2.4,2.4,2.4h12.3c1.3,0,2.4-1,2.4-2.4v-6.9c0-1.3,1-2.4,2.4-2.4h7.7c1.3,0,2.4-1,2.4-2.4V241
				c-0.1-1.3-1.1-2.4-2.5-2.4h90.6c-1.3,0-2.4,1.1-2.4,2.4v8.3c0,1.3,1,2.4,2.4,2.4h7.7c1.3,0,2.4,1,2.4,2.4v6.9
				c0,1.3,1,2.4,2.4,2.4h12.3c1.3,0,2.4-1,2.4-2.4v-6.9c0-1.3,1-2.4,2.4-2.4h7.7c1.3,0,2.4-1,2.4-2.4V241c0-1.3-1-2.4-2.4-2.4h49.8
				v-10.7h-32.5l-90.8-33.8l90.3-33.6H420h25.7v-10.7v-13.2h-6.5V136.1z M118.5,343.8H89.7l13.7-58.5h15V343.8z M118.5,274.8h-12.5
				l12.5-53.5V274.8z M158.4,343.8h-29v-58.5h15.3L158.4,343.8z M142.3,274.8h-12.8v-54.6L142.3,274.8z M385.7,227.9H219.3l83.2-31
				L385.7,227.9z M302.5,191.2l-82.7-30.8h165.5L302.5,191.2z"/>
			<path d="M482.5,55.2l-3.1,1l0.2-6.7l-59.9,16.1L420,72h-21.1l-4.2-7.9l-18.2-0.6L382,77l18.4,0.2H420v6.3l4.8-1v9.6l-6.7-1.3
				l-2.3-12.7h-6.3l3.8,17.3l11.5,3.1v4h10v-4l11.5-3.1l2.9-13.6l-6.3,1.1l-1.3,7.9l-6.7,1.3V80.7l14.8-2.7v-8.2l16.7-4.4l0.4,7.3
				l16.7-4.6c1.7-0.6,2.5-1.5,2.5-3.3v-7.3C485.8,55.4,484.4,54.4,482.5,55.2z"/>
		</g>
	</g>
	<path d="M57.5,382c-23.9,0-43.3,19.4-43.3,43.3s19.4,43.3,43.3,43.3s43.3-19.4,43.3-43.3S81.4,382,57.5,382z M57.5,446.2
		c-11.5,0-20.9-9.4-20.9-20.9s9.4-20.9,20.9-20.9s20.9,9.4,20.9,20.9S69.1,446.2,57.5,446.2z"/>
	<path d="M190.6,382c-23.9,0-43.3,19.4-43.3,43.3s19.4,43.3,43.3,43.3s43.3-19.4,43.3-43.3S214.5,382,190.6,382z M190.6,446.2
		c-11.5,0-20.9-9.4-20.9-20.9s9.4-20.9,20.9-20.9s20.9,9.4,20.9,20.9S202.2,446.2,190.6,446.2z"/>
</g>
</svg>
