<?xml version="1.0" encoding="utf-8"?>
<!-- Generator: Adobe Illustrator 24.3.0, SVG Export Plug-In . SVG Version: 6.00 Build 0)  -->
<svg version="1.1" id="Calque_1" xmlns="http://www.w3.org/2000/svg" xmlns:xlink="http://www.w3.org/1999/xlink" x="0px" y="0px"
	 viewBox="0 0 1000 1000" style="enable-background:new 0 0 1000 1000;" xml:space="preserve">
<g>
	<path d="M824,190.4v-38H176v38h128v229.4H176v38h124.8l0.2,0.6c1.2-0.2,2.2-0.4,3.4-0.6h10.4c4.6,0.6,9,2,13.2,4.2s8,5.2,11.2,8.8
		c3.2,3.4,5.8,7.6,7.4,12.2c3.4,9,3.6,19.4,0,28.8C343,521,336,529.2,327,534c-2.2,1.2-4.6,2.2-7,3l-3.8,1l-5.4,1.4l-2.6,0.6
		l-2.6,0.8l-5.2,1.6l-5.2,1.8l-2.6,1l-2.6,1c-6.8,2.6-13.2,5.8-19.6,9.4c-6.2,3.6-12.2,7.6-18,12c-23,17.6-40.8,41.4-51.2,68
		c-10.6,26.6-13.4,55.8-8.8,83.6c4.8,27.6,16.8,54,35,75c18,21,41.8,36.8,67.6,45.6c25.8,8.6,54,10,80.2,4.2
		c-26.4,4.2-54,1.4-78.6-8.6s-46.4-26.4-62.2-47.2c-16-20.6-25.6-45.6-28.6-71.2c-2.8-25.6,1.4-51.6,12-74.6s27.4-42.8,48-56.8
		c5.2-3.4,10.4-6.6,16-9.4c5.6-2.8,11.4-5.4,17.2-7.2l2.2-0.8l2.2-0.6l4.4-1.4l4.4-1l2.2-0.6l2.2-0.4l4.6-0.8l6-1.4
		c4-1,8-2.4,11.8-4.2c15.2-7,27.8-19.6,34.6-35.2c7-15.4,7.8-33.6,2.8-50c-1.6-5.2-3.8-10.2-6.4-14.8h182.4c-4.6,0-8.4,3.8-8.4,8.4
		v29.4c0,4.6,3.6,8.4,8.4,8.4h27.2c4.6,0,8.4,3.6,8.4,8.4v24.4c0,4.6,3.6,8.4,8.4,8.4H640c4.6,0,8.4-3.6,8.4-8.4v-24.6
		c0-4.6,3.6-8.4,8.4-8.4H684c4.6,0,8.4-3.6,8.4-8.4v-29.2c0-4.6-3.6-8.4-8.4-8.4h140v-38H696V190.4H824z M658,419.8H342V190.4h316
		V419.8z"/>
	<path d="M631.4,600.2l-8.2-25.8c-0.6-2.4-2.8-3.8-5.2-3.8s-4.4,1.6-5.2,3.8l-8,25.6c0,0.4-0.2,0.6,0,0.8c-0.4,1.4-0.6,2.6-0.6,4
		c0,7.6,6.4,14,14,14s14-6.4,14-14c0-1.4-0.2-2.8-0.6-4.2C631.4,600.6,631.4,600.4,631.4,600.2z"/>
	<path d="M631.4,673l-8.2-25.8c-0.6-2.4-2.8-3.8-5.2-3.8s-4.4,1.6-5.2,3.8l-8,25.6c0,0.4-0.2,0.6,0,0.8c-0.4,1.4-0.6,2.6-0.6,4
		c0,7.6,6.4,14,14,14s14-6.4,14-14c0-1.4-0.2-2.8-0.6-4.2C631.4,673.4,631.4,673.2,631.4,673z"/>
	<path d="M631.4,742.8l-8.2-25.8c-0.6-2.4-2.8-3.8-5.2-3.8s-4.4,1.6-5.2,3.8l-8,25.6c0,0.4-0.2,0.6,0,0.8c-0.4,1.4-0.6,2.6-0.6,4
		c0,7.6,6.4,14,14,14s14-6.4,14-14c0-1.4-0.2-2.8-0.6-4.2C631.4,743.2,631.4,743,631.4,742.8z"/>
	<path d="M631.4,812.6l-8.2-25.8c-0.6-2.4-2.8-3.8-5.2-3.8s-4.4,1.6-5.2,3.8l-8,25.6c0,0.4-0.2,0.6,0,0.8c-0.4,1.4-0.6,2.6-0.6,4
		c0,7.6,6.4,14,14,14s14-6.4,14-14c0-1.4-0.2-2.8-0.6-4.2C631.4,813,631.4,812.8,631.4,812.6z"/>
	<path d="M695.6,585.6c-0.2-0.2-0.2-0.2-0.4-0.4l-19-19.2c-1.6-1.6-4.2-2.2-6.4-1c-2.2,1-3.2,3.4-2.8,5.6l4.6,26.6
		c0,0.4,0,0.6,0.2,0.8c0.4,1.4,0.6,2.6,1.4,3.8c3.4,6.8,12,9.4,18.8,6s9.4-12,6-18.8C697.4,587.8,696.6,586.6,695.6,585.6z"/>
	<path d="M731.6,653.6c-0.6-1.2-1.4-2.4-2.4-3.4c-0.2-0.2-0.2-0.2-0.4-0.4l-19.2-19.2c-1.6-1.6-4.2-2.2-6.4-1
		c-2.2,1-3.2,3.4-2.8,5.6l4.6,26.6c0,0.4,0,0.6,0.4,0.8c0.4,1.4,0.6,2.6,1.4,3.8c3.4,6.8,12,9.4,18.8,6
		C732.4,669,735,660.4,731.6,653.6z"/>
	<path d="M763.8,715.6c-0.6-1.2-1.4-2.4-2.4-3.4c-0.2-0.2-0.2-0.2-0.4-0.4l-19.2-19.2c-1.6-1.6-4.2-2.2-6.4-1
		c-2.2,1-3.2,3.4-2.8,5.6l4.6,26.6c0,0.4,0.2,0.6,0.4,0.8c0.4,1.4,0.6,2.6,1.4,3.8c3.4,6.8,12,9.4,18.8,6
		C764.6,731,767.2,722.4,763.8,715.6z"/>
	<path d="M793.6,774.2c-0.2-0.2-0.2-0.2-0.4-0.4L774,754.6c-1.6-1.6-4.2-2.2-6.4-1c-2.2,1-3.2,3.4-2.8,5.6l4.6,26.6
		c0,0.2,0.2,0.4,0.4,0.8c0.4,1.4,0.6,2.6,1.4,3.8c3.4,6.8,12,9.4,18.8,6s9.4-12,6-18.8C795.4,776.4,794.6,775.2,793.6,774.2z"/>
	<path d="M566,565c-2.2-1.2-4.8-0.6-6.4,1l-19.2,19.2c-0.2,0.2-0.2,0.2-0.4,0.4c-1,1-1.8,2.2-2.4,3.4c-3.4,6.8-0.8,15.4,6,18.8
		c6.8,3.4,15.4,0.8,18.8-6c0.8-1.2,1-2.4,1.4-3.8c0.4-0.2,0.4-0.4,0.4-0.8l4.6-26.6C569.2,568.4,568.2,566,566,565z"/>
	<path d="M532.6,629.6c-2.2-1.2-4.8-0.6-6.4,1L507,649.8c-0.2,0.2-0.2,0.2-0.4,0.4c-1,1-1.8,2.2-2.4,3.4c-3.4,6.8-0.8,15.4,6,18.8
		c6.8,3.4,15.4,0.8,18.8-6c0.8-1.2,1-2.4,1.4-3.8c0.4-0.2,0.4-0.4,0.4-0.8l4.6-26.6C535.8,633,534.8,630.6,532.6,629.6z"/>
	<path d="M500.4,691.6c-2.2-1.2-4.8-0.6-6.4,1l-19.2,19.2c-0.2,0.2-0.2,0.2-0.4,0.4c-1,1-1.8,2.2-2.4,3.4c-3.4,6.8-0.8,15.4,6,18.8
		c6.8,3.4,15.4,0.8,18.8-6c0.8-1.2,1-2.4,1.4-3.8c0.2-0.2,0.4-0.4,0.4-0.8l4.6-26.6C503.6,695,502.6,692.6,500.4,691.6z"/>
	<path d="M468.2,753.6c-2.2-1.2-4.8-0.6-6.4,1l-19.2,19.2c-0.2,0.2-0.2,0.2-0.4,0.4c-1,1-1.8,2.2-2.4,3.4c-3.4,6.8-0.8,15.4,6,18.8
		c6.8,3.4,15.4,0.8,18.8-6c0.8-1.2,1-2.4,1.4-3.8c0.2-0.4,0.4-0.6,0.4-0.8l4.6-26.6C471.4,757,470.4,754.6,468.2,753.6z"/>
</g>
</svg>
