<?xml version="1.0" encoding="utf-8"?>
<!-- Generator: Adobe Illustrator 24.3.0, SVG Export Plug-In . SVG Version: 6.00 Build 0)  -->
<svg version="1.1" id="Calque_1" xmlns="http://www.w3.org/2000/svg" xmlns:xlink="http://www.w3.org/1999/xlink" x="0px" y="0px"
	 viewBox="0 0 1000 1000" style="enable-background:new 0 0 1000 1000;" xml:space="preserve">
<path d="M823.9,190.4v-38h-648v38h128v229.4h-128v38h124.8l0.2,0.6c1.2-0.2,2.2-0.4,3.4-0.6h10.4c4.6,0.6,9,2,13.2,4.2
	s8,5.2,11.2,8.8c3.2,3.4,5.8,7.6,7.4,12.2c3.4,9,3.6,19.4,0,28.8c-3.6,9.2-10.6,17.4-19.6,22.2c-2.2,1.2-4.6,2.2-7,3l-3.8,1
	l-5.4,1.4l-2.6,0.6l-2.6,0.8l-5.2,1.6l-5.2,1.8l-2.6,1l-2.6,1c-6.8,2.6-13.2,5.8-19.6,9.4c-6.2,3.6-12.2,7.6-18,12
	c-23,17.6-40.8,41.4-51.2,68c-10.6,26.6-13.4,55.8-8.8,83.6c4.8,27.6,16.8,54,35,75c18,21,41.8,36.8,67.6,45.6
	c25.8,8.6,54,10,80.2,4.2c-26.4,4.2-54,1.4-78.6-8.6s-46.4-26.4-62.2-47.2c-16-20.6-25.6-45.6-28.6-71.2c-2.8-25.6,1.4-51.6,12-74.6
	s27.4-42.8,48-56.8c5.2-3.4,10.4-6.6,16-9.4c5.6-2.8,11.4-5.4,17.2-7.2l2.2-0.8l2.2-0.6l4.4-1.4l4.4-1l2.2-0.6l2.2-0.4l4.6-0.8
	l6-1.4c4-1,8-2.4,11.8-4.2c15.2-7,27.8-19.6,34.6-35.2c7-15.4,7.8-33.6,2.8-50c-1.6-5.2-3.8-10.2-6.4-14.8h285l0.2,0.6
	c1.2-0.2,2.2-0.4,3.4-0.6h10.4c4.6,0.6,9,2,13.2,4.2c4.2,2.2,8,5.2,11.2,8.8c3.2,3.4,5.8,7.6,7.4,12.2c3.4,9,3.6,19.4,0,28.8
	c-3.6,9.2-10.6,17.4-19.6,22.2c-2.2,1.2-4.6,2.2-7,3l-3.8,1l-5.4,1.4l-2.6,0.6l-2.6,0.8l-5.2,1.6l-5.2,1.8l-2.6,1l-2.6,1
	c-6.8,2.6-13.2,5.8-19.6,9.4c-6.2,3.6-12.2,7.6-18,12c-23,17.6-40.8,41.4-51.2,68c-10.6,26.6-13.4,55.8-8.8,83.6
	c4.8,27.6,16.8,54,35,75c18,21,41.8,36.8,67.6,45.6c25.8,8.6,54,10,80.2,4.2c-26.4,4.2-54,1.4-78.6-8.6s-46.4-26.4-62.2-47.2
	c-16-20.6-25.6-45.6-28.6-71.2c-2.8-25.6,1.4-51.6,12-74.6s27.4-42.8,48-56.8c5.2-3.4,10.4-6.6,16-9.4c5.6-2.8,11.4-5.4,17.2-7.2
	l2.2-0.8l2.2-0.6l4.4-1.4l4.4-1l2.2-0.6l2.2-0.4l4.6-0.8l6-1.4c4-1,8-2.4,11.8-4.2c15.2-7,27.8-19.6,34.6-35.2
	c7-15.4,7.8-33.6,2.8-50c-1.6-5.2-3.8-10.2-6.4-14.8h100v-38h-128V190.4H823.9z M657.9,419.8h-316V190.4h316V419.8z"/>
</svg>
