<?xml version="1.0" encoding="utf-8"?>
<!-- Generator: Adobe Illustrator 24.3.0, SVG Export Plug-In . SVG Version: 6.00 Build 0)  -->
<svg version="1.1" id="Calque_1" xmlns="http://www.w3.org/2000/svg" xmlns:xlink="http://www.w3.org/1999/xlink" x="0px" y="0px"
	 viewBox="0 0 500 500" style="enable-background:new 0 0 500 500;" xml:space="preserve">
<path d="M412,96V77H88v19h64v88.5c-2.4,14.1-3.5,27.2-3.9,38.9c-4.5-24.6-8.5-55.5-8.7-77.9c-4.7,39.2-3.4,69.4,0,91.6
	c-8.3-18.8-17.3-43.9-21.3-64.4c2.2,40.4,8.5,67.2,15.4,84.9c-10.8-10.2-23.4-25.6-30.6-41.2c8.8,35.4,19.2,54.6,28.5,64.9
	c-11.7,0-25.8-3.3-35-11.3c14,24.8,26.7,33.6,37,35.1c-10.8,10.2-24.4,19.4-34.2,20c17.3,10.9,30.7,7.7,40.5,0
	c-8.3,18.9-19.3,39.4-28.4,48.5c17.6-5,29.4-19.3,37.1-34.8c-4.5,24.6-11.2,53-18,69.2c15.5-20,23.9-43.5,28.5-64.6
	c0,26.6-1.5,58.7-5,79.6c11-32.2,14.8-61.4,15.5-84.9c4.5,24.6,8.6,55.8,8.8,78.4c4.7-39.2,3.4-69.4,0-91.6
	c8.3,18.8,17.3,43.9,21.3,64.4c-2.2-40.5-8.5-67.3-15.4-84.9c10.8,10.2,23.3,25.5,30.5,41.1c-8.8-35.3-19.1-54.5-28.4-64.8
	c11.7,0,25.8,3.3,35,11.3c-14.1-24.9-26.8-33.6-37.1-35.1c10.8-10.2,24.3-19.4,34.2-20c-17.3-10.9-30.6-7.7-40.4,0
	c8.3-18.9,19.3-39.4,28.4-48.6c-16.3,4.6-27.6,17.2-35.3,31.4v-6.4c4.4-21.9,10.2-45.2,16.1-59.3c-6.5,8.5-11.8,17.5-16.1,26.8V96
	h158v88.5c-2.4,14.1-3.5,27.2-3.9,38.9c-4.5-24.6-8.5-55.5-8.7-77.9c-4.7,39.2-3.4,69.4,0,91.6c-8.3-18.8-17.3-43.9-21.3-64.4
	c2.2,40.4,8.5,67.2,15.4,84.9c-10.8-10.2-23.4-25.6-30.6-41.2c8.8,35.4,19.2,54.6,28.5,64.9c-11.7,0-25.8-3.3-35-11.3
	c14,24.8,26.7,33.6,37,35.1c-10.8,10.2-24.4,19.4-34.2,20c17.3,10.9,30.7,7.7,40.5,0c-8.3,18.9-19.3,39.4-28.4,48.5
	c17.6-5,29.4-19.3,37.1-34.8c-4.5,24.6-11.2,53-18,69.2c15.5-20,23.9-43.5,28.5-64.6c0,26.6-1.5,58.7-5,79.6
	c11-32.2,14.8-61.4,15.5-84.9c4.5,24.6,8.6,55.8,8.8,78.4c4.7-39.2,3.4-69.4,0-91.6c8.3,18.8,17.3,43.9,21.3,64.4
	c-2.2-40.5-8.5-67.3-15.4-84.9c10.8,10.2,23.3,25.5,30.5,41.1c-8.8-35.3-19.1-54.5-28.4-64.8c11.7,0,25.8,3.3,35,11.3
	c-14.1-24.9-26.8-33.6-37.1-35.1c10.8-10.2,24.3-19.4,34.2-20c-17.3-10.9-30.6-7.7-40.4,0c8.3-18.9,19.3-39.4,28.4-48.6
	c-16.3,4.6-27.6,17.2-35.3,31.4v-6.4c4.4-21.9,10.2-45.2,16.1-59.3c-6.5,8.5-11.8,17.5-16.1,26.8V96H412z"/>
</svg>
