<?xml version="1.0" encoding="utf-8"?>
<!-- Generator: Adobe Illustrator 24.3.0, SVG Export Plug-In . SVG Version: 6.00 Build 0)  -->
<svg version="1.1" id="Calque_1" xmlns="http://www.w3.org/2000/svg" xmlns:xlink="http://www.w3.org/1999/xlink" x="0px" y="0px"
	 viewBox="0 0 1000 1000" style="enable-background:new 0 0 1000 1000;" xml:space="preserve">
<style type="text/css">
	.st0{fill:none;}
</style>
<g>
	<path class="st0" d="M668,574.4C626,627.6,561,662,488,662c-73.8,0-139.6-35.2-181.4-89.6l-10.8,4.6l-2.6-6.2l9.2-4
		c-27.2-37.6-43.4-84-43.4-133.8c0-126.2,102.8-229,229-229c65.8,0,125,27.8,166.8,72.4h101v-24.8c0-47.8-38.8-86.6-86.6-86.6H306.8
		c-47.8,0-86.6,38.8-86.6,86.6v476.6h535.6V574.4H668z M340,720.4h-78v-42h78V720.4z M435.6,720.4h-78v-42h78V720.4z M453,720.4v-42
		h78v42H453z M626.4,720.4h-78v-42h78V720.4z M722,720.4h-78v-42h78V720.4z"/>
	<path d="M477.8,210.6c-0.4,0-0.8,0-1.2,0l0,0C477,210.6,477.4,210.6,477.8,210.6z"/>
	<path d="M642.4,282c-1.6-1.8-3.4-3.6-5.2-5.6h-0.4C638.8,278.2,640.6,280,642.4,282z"/>
	<polygon points="608.6,276.4 564.2,257.6 561.6,263.8 600,280.2 608,283.6 610.6,277.2 	"/>
	<rect x="416.4" y="582.6" transform="matrix(0.3939 -0.9191 0.9191 0.3939 -304.36 754.3107)" width="6.8" height="50.6"/>
	<rect x="299.8" y="466.4" transform="matrix(0.7217 -0.6922 0.6922 0.7217 -251.8999 345.0971)" width="6.8" height="38.8"/>
	<rect x="674.8" y="357.4" transform="matrix(0.916 -0.4013 0.4013 0.916 -96.5319 304.3228)" width="6.8" height="50.4"/>
	<path d="M635,320.8l2.6,6.2l29-12.4c-1.2-2-2.4-4-3.6-5.8L635,320.8z"/>
	<path d="M666.8,314.6l1.6-0.6c-1.2-2-2.6-3.8-4-5.8l-1.2,0.6C664.4,310.8,665.6,312.6,666.8,314.6z"/>
	<path d="M858.4,677.2c-18.2,0-33,14.8-33,33v51.4H808V574.4h30v-298h-30v-30h-24.2c-2.8-61-53.2-109.6-114.6-109.6H306.8
		c-63.4,0-114.8,51.6-114.8,114.8v510h-17.4v-51.4c0-18.2-14.8-33-33-33c-18.2,0-33,14.8-33,33v120c0,18.2,14.8,33,33,33
		c18.2,0,33-14.8,33-33v-51.6H192v17.6h616v-17.6h17.4v51.6c0,18.2,14.8,33,33,33s33-14.8,33-33v-120
		C891.4,692,876.6,677.2,858.4,677.2z M755.8,276.4h-101C613,231.8,553.8,204,488,204c-126.2,0-229,102.8-229,229
		c0,50,16,96.2,43.4,133.8l-9.2,4l2.6,6.2l10.8-4.6c42,54.4,107.6,89.6,181.4,89.6c72.8,0,138-34.4,180-87.6h87.8v153.8H220.2V251.6
		c0-47.8,38.8-86.6,86.6-86.6h362.4c47.8,0,86.6,38.8,86.6,86.6L755.8,276.4L755.8,276.4z M339.6,550.8l-25.2,10.8
		c-26.8-36-42.6-80.6-42.6-128.6c0-1.8,0-3.8,0-5.6l72.6,72.6c15.8,33.6,43,60.8,76.4,76.4l66.4,66.4
		c53.6-1.4,106.6-22.4,147.4-63.2c1.8-1.8,3.4-3.4,5-5.2c37.6-40,57-91,58.2-142.2l-67-67c-7.8-16.4-18.4-31.4-31.2-44.2
		s-27.8-23.4-44.2-31.2l-73-73c1.8,0,3.4,0,5.2,0c57.6,0,110,22.6,148.8,59.6h0.4c1.8,1.8,3.4,3.6,5.2,5.6c8,8.2,15.4,17,22,26.4
		c1.4,1.8,2.6,3.8,4,5.8c22.6,34.2,35.8,75,35.8,119c0,54-20,103.4-52.8,141.4c-39.6,45.8-98.2,74.8-163.4,74.8
		c-61.6,0-117.2-26-156.6-67.4c-4.4-4.6-8.6-9.6-12.6-14.6l23.6-10.2L339.6,550.8z"/>
	<rect x="262" y="678.4" width="78" height="42"/>
	<rect x="357.6" y="678.4" width="78" height="42"/>
	<rect x="453" y="678.4" width="78" height="42"/>
	<rect x="548.4" y="678.4" width="78" height="42"/>
	<rect x="644" y="678.4" width="78" height="42"/>
</g>
</svg>
