<?xml version="1.0" encoding="utf-8"?>
<!-- Generator: Adobe Illustrator 24.3.0, SVG Export Plug-In . SVG Version: 6.00 Build 0)  -->
<svg version="1.1" id="Calque_1" xmlns="http://www.w3.org/2000/svg" xmlns:xlink="http://www.w3.org/1999/xlink" x="0px" y="0px"
	 viewBox="0 0 1000 1000" style="enable-background:new 0 0 1000 1000;" xml:space="preserve">
<path d="M707.2,190.7H824v-38H176v38h134c-5,5-9.8,10.2-14.4,15.8c-26,31-46.4,69.6-58.6,111.4c-30.2,101.4-29.4,272.4,144.8,509.8
	l11.2-8c6.4,9.2,12.8,18.4,19.4,27.6l33.8-24.8c-42.6-58.2-77-116-102.4-172l-21.8,9.8c-74.2-149.4-70.4-259.8-49.2-331.6
	c25.4-86.4,77.4-127.2,98.8-137.8h274.2c-5,5-9.8,10.2-14.4,15.8c-26,31-46.4,69.6-58.6,111.4c-30.2,101.4-29.4,272.4,144.8,509.8
	l11-8c6.4,9.2,12.8,18.2,19.6,27.4l33.8-24.8c-43.4-59.2-77.8-117-102.4-172l-21.8,9.8c-74.2-149.4-70.4-259.8-49.2-331.6
	C633.8,242.1,685.8,201.3,707.2,190.7z"/>
</svg>
