<?xml version="1.0" encoding="utf-8"?>
<!-- Generator: Adobe Illustrator 24.3.0, SVG Export Plug-In . SVG Version: 6.00 Build 0)  -->
<svg version="1.1" id="Calque_1" xmlns="http://www.w3.org/2000/svg" xmlns:xlink="http://www.w3.org/1999/xlink" x="0px" y="0px"
	 viewBox="0 0 500 500" style="enable-background:new 0 0 500 500;" xml:space="preserve">
<path d="M353.6,95.4H412v-19H88v19h67c-2.5,2.5-4.9,5.1-7.2,7.9c-13,15.5-23.2,34.8-29.3,55.7c-15.1,50.7-14.7,136.2,72.4,254.9
	l5.6-4c3.2,4.6,6.4,9.2,9.7,13.8l16.9-12.4c-21.3-29.1-38.5-58-51.2-86l-10.9,4.9c-37.1-74.7-35.2-129.9-24.6-165.8
	c12.7-43.2,38.7-63.6,49.4-68.9h137.1c-2.5,2.5-4.9,5.1-7.2,7.9c-13,15.5-23.2,34.8-29.3,55.7c-15.1,50.7-14.7,136.2,72.4,254.9
	l5.5-4c3.2,4.6,6.4,9.1,9.8,13.7l16.9-12.4c-21.7-29.6-38.9-58.5-51.2-86l-10.9,4.9c-37.1-74.7-35.2-129.9-24.6-165.8
	C316.9,121.1,342.9,100.7,353.6,95.4z"/>
</svg>
