<?xml version="1.0" encoding="utf-8"?>
<!-- Generator: Adobe Illustrator 24.3.0, SVG Export Plug-In . SVG Version: 6.00 Build 0)  -->
<svg version="1.1" id="Calque_1" xmlns="http://www.w3.org/2000/svg" xmlns:xlink="http://www.w3.org/1999/xlink" x="0px" y="0px"
	 viewBox="0 0 500 500" style="enable-background:new 0 0 500 500;" xml:space="preserve">
<g>
	<path d="M140.9,305.9l-4-12.7c-0.3-1.1-1.4-1.9-2.6-1.9s-2.2,0.7-2.6,1.9l-4.1,12.9c0,0.1,0,0.2-0.1,0.2c-0.2,0.7-0.3,1.4-0.3,2.1
		c0,3.8,3.2,7,7,7c3.8,0,7-3.2,7-7c0-0.7-0.1-1.3-0.3-2C141,306.3,140.9,306.1,140.9,305.9z"/>
	<path d="M140.9,342.3l-4-12.7c-0.3-1.1-1.4-1.9-2.6-1.9s-2.2,0.7-2.6,1.9l-4.1,12.9c0,0.1,0,0.2-0.1,0.2c-0.2,0.7-0.3,1.4-0.3,2.1
		c0,3.8,3.2,7,7,7c3.8,0,7-3.2,7-7c0-0.7-0.1-1.3-0.3-2C141,342.6,140.9,342.4,140.9,342.3z"/>
	<path d="M140.9,377.2l-4-12.7c-0.3-1.1-1.4-1.9-2.6-1.9s-2.2,0.7-2.6,1.9l-4.1,12.9c0,0.1,0,0.2-0.1,0.2c-0.2,0.7-0.3,1.4-0.3,2.1
		c0,3.8,3.2,7,7,7c3.8,0,7-3.2,7-7c0-0.7-0.1-1.3-0.3-2C141,377.5,140.9,377.3,140.9,377.2z"/>
	<path d="M140.9,412.1l-4-12.7c-0.3-1.1-1.4-1.9-2.6-1.9s-2.2,0.7-2.6,1.9l-4.1,12.9c0,0.1,0,0.2-0.1,0.2c-0.2,0.7-0.3,1.4-0.3,2.1
		c0,3.8,3.2,7,7,7c3.8,0,7-3.2,7-7c0-0.7-0.1-1.3-0.3-2C141,412.4,140.9,412.3,140.9,412.1z"/>
	<path d="M108.4,288.5c-1.1-0.6-2.3-0.3-3.2,0.5l-9.5,9.6c-0.1,0.1-0.1,0.1-0.2,0.2c-0.5,0.5-0.9,1.1-1.2,1.7
		c-1.7,3.4-0.4,7.7,3,9.4c3.4,1.7,7.7,0.4,9.4-3c0.3-0.6,0.5-1.2,0.7-1.9c0.1-0.1,0.1-0.3,0.1-0.5l2.3-13.2
		C110,290.1,109.5,289,108.4,288.5z"/>
	<path d="M91.7,320.8c-1.1-0.6-2.3-0.3-3.2,0.5l-9.6,9.6c-0.1,0.1-0.1,0.1-0.2,0.2c-0.5,0.5-0.9,1.1-1.2,1.7c-1.7,3.4-0.4,7.7,3,9.4
		c3.4,1.7,7.7,0.4,9.4-3c0.3-0.6,0.5-1.2,0.7-1.9c0.2-0.2,0.2-0.4,0.2-0.5l2.3-13.2C93.3,322.4,92.8,321.3,91.7,320.8z"/>
	<path d="M75.6,351.8c-1.1-0.6-2.3-0.3-3.2,0.5l-9.6,9.6c-0.1,0.1-0.1,0.1-0.2,0.2c-0.5,0.5-0.9,1.1-1.2,1.7c-1.7,3.4-0.4,7.7,3,9.4
		c3.4,1.7,7.7,0.4,9.4-3c0.3-0.6,0.5-1.2,0.7-1.9c0.1-0.2,0.2-0.4,0.2-0.5l2.3-13.2C77.2,353.4,76.7,352.3,75.6,351.8z"/>
	<path d="M59.5,382.8c-1.1-0.6-2.3-0.3-3.2,0.5l-9.6,9.6c-0.1,0.1-0.1,0.1-0.2,0.2c-0.5,0.5-0.9,1.1-1.2,1.7c-1.7,3.4-0.4,7.7,3,9.4
		c3.4,1.7,7.7,0.4,9.4-3c0.3-0.6,0.5-1.2,0.7-1.9c0.1-0.3,0.2-0.5,0.2-0.5l2.3-13.2C61.1,384.4,60.6,383.3,59.5,382.8z"/>
	<path d="M173.3,298.8c-0.1-0.1-0.1-0.1-0.2-0.2l-9.6-9.6c-0.9-0.8-2.1-1.1-3.2-0.5c-1.1,0.5-1.6,1.6-1.4,2.8l2.3,13.2
		c0,0.2,0,0.4,0.2,0.5c0.2,0.7,0.4,1.3,0.7,1.9c1.7,3.4,6,4.7,9.4,3c3.4-1.7,4.7-6,3-9.4C174.2,299.9,173.8,299.3,173.3,298.8z"/>
	<path d="M191.2,332.8c-0.3-0.6-0.7-1.2-1.2-1.7c-0.1-0.1-0.1-0.1-0.2-0.2l-9.6-9.6c-0.9-0.8-2.1-1.1-3.2-0.5
		c-1.1,0.5-1.6,1.6-1.4,2.8l2.3,13.2c0,0.1,0,0.3,0.2,0.5c0.2,0.7,0.4,1.3,0.7,1.9c1.7,3.4,6,4.7,9.4,3
		C191.6,340.5,192.9,336.2,191.2,332.8z"/>
	<path d="M207.3,363.8c-0.3-0.6-0.7-1.2-1.2-1.7c-0.1-0.1-0.1-0.1-0.2-0.2l-9.6-9.6c-0.9-0.8-2.1-1.1-3.2-0.5
		c-1.1,0.5-1.6,1.6-1.4,2.8l2.3,13.2c0,0.1,0.1,0.3,0.2,0.5c0.2,0.7,0.4,1.3,0.7,1.9c1.7,3.4,6,4.7,9.4,3
		C207.7,371.5,209,367.2,207.3,363.8z"/>
	<path d="M222.2,393.1c-0.1-0.1-0.1-0.1-0.2-0.2l-9.6-9.6c-0.9-0.8-2.1-1.1-3.2-0.5c-1.1,0.5-1.6,1.6-1.4,2.8l2.3,13.2
		c0,0,0,0.2,0.2,0.5c0.2,0.7,0.4,1.3,0.7,1.9c1.7,3.4,6,4.7,9.4,3c3.4-1.7,4.7-6,3-9.4C223.1,394.2,222.7,393.6,222.2,393.1z"/>
	<path d="M367.4,306l-4.1-12.9c-0.3-1.2-1.4-1.9-2.6-1.9s-2.2,0.8-2.6,1.9l-4,12.8c0,0.2-0.1,0.3,0,0.4c-0.2,0.7-0.3,1.3-0.3,2
		c0,3.8,3.2,7,7,7s7-3.2,7-7c0-0.7-0.1-1.4-0.3-2.1C367.4,306.2,367.4,306.1,367.4,306z"/>
	<path d="M367.4,342.4l-4.1-12.9c-0.3-1.2-1.4-1.9-2.6-1.9s-2.2,0.8-2.6,1.9l-4,12.8c0,0.2-0.1,0.3,0,0.4c-0.2,0.7-0.3,1.3-0.3,2
		c0,3.8,3.2,7,7,7s7-3.2,7-7c0-0.7-0.1-1.4-0.3-2.1C367.4,342.6,367.4,342.5,367.4,342.4z"/>
	<path d="M367.4,377.3l-4.1-12.9c-0.3-1.2-1.4-1.9-2.6-1.9s-2.2,0.8-2.6,1.9l-4,12.8c0,0.2-0.1,0.3,0,0.4c-0.2,0.7-0.3,1.3-0.3,2
		c0,3.8,3.2,7,7,7s7-3.2,7-7c0-0.7-0.1-1.4-0.3-2.1C367.4,377.5,367.4,377.4,367.4,377.3z"/>
	<path d="M367.4,412.2l-4.1-12.9c-0.3-1.2-1.4-1.9-2.6-1.9s-2.2,0.8-2.6,1.9l-4,12.8c0,0.2-0.1,0.3,0,0.4c-0.2,0.7-0.3,1.3-0.3,2
		c0,3.8,3.2,7,7,7s7-3.2,7-7c0-0.7-0.1-1.4-0.3-2.1C367.4,412.4,367.4,412.3,367.4,412.2z"/>
	<path d="M399.5,298.7c-0.1-0.1-0.1-0.1-0.2-0.2l-9.5-9.6c-0.8-0.8-2.1-1.1-3.2-0.5c-1.1,0.5-1.6,1.7-1.4,2.8l2.3,13.3
		c0,0.2,0,0.3,0.1,0.4c0.2,0.7,0.3,1.3,0.7,1.9c1.7,3.4,6,4.7,9.4,3c3.4-1.7,4.7-6,3-9.4C400.4,299.8,400,299.2,399.5,298.7z"/>
	<path d="M417.5,332.7c-0.3-0.6-0.7-1.2-1.2-1.7c-0.1-0.1-0.1-0.1-0.2-0.2l-9.6-9.6c-0.8-0.8-2.1-1.1-3.2-0.5
		c-1.1,0.5-1.6,1.7-1.4,2.8l2.3,13.3c0,0.2,0,0.3,0.2,0.4c0.2,0.7,0.3,1.3,0.7,1.9c1.7,3.4,6,4.7,9.4,3
		C417.9,340.4,419.2,336.1,417.5,332.7z"/>
	<path d="M433.6,363.7c-0.3-0.6-0.7-1.2-1.2-1.7c-0.1-0.1-0.1-0.1-0.2-0.2l-9.6-9.6c-0.8-0.8-2.1-1.1-3.2-0.5
		c-1.1,0.5-1.6,1.7-1.4,2.8l2.3,13.3c0,0.2,0.1,0.3,0.2,0.4c0.2,0.7,0.3,1.3,0.7,1.9c1.7,3.4,6,4.7,9.4,3
		C434,371.4,435.3,367.1,433.6,363.7z"/>
	<path d="M449.7,394.7c-0.3-0.6-0.7-1.2-1.2-1.7c-0.1-0.1-0.1-0.1-0.2-0.2l-9.6-9.6c-0.8-0.8-2.1-1.1-3.2-0.5
		c-1.1,0.5-1.6,1.7-1.4,2.8l2.3,13.3c0,0.1,0.1,0.2,0.2,0.4c0.2,0.7,0.3,1.3,0.7,1.9c1.7,3.4,6,4.7,9.4,3
		C450.1,402.4,451.4,398.1,449.7,394.7z"/>
	<path d="M334.7,288.4c-1.1-0.6-2.4-0.3-3.2,0.5l-9.6,9.6c-0.1,0.1-0.1,0.1-0.2,0.2c-0.5,0.5-0.9,1.1-1.2,1.7
		c-1.7,3.4-0.4,7.7,3,9.4c3.4,1.7,7.7,0.4,9.4-3c0.4-0.6,0.5-1.2,0.7-1.9c0.2-0.1,0.2-0.2,0.2-0.4l2.3-13.3
		C336.3,290.1,335.8,288.9,334.7,288.4z"/>
	<path d="M318,320.7c-1.1-0.6-2.4-0.3-3.2,0.5l-9.6,9.6c-0.1,0.1-0.1,0.1-0.2,0.2c-0.5,0.5-0.9,1.1-1.2,1.7c-1.7,3.4-0.4,7.7,3,9.4
		c3.4,1.7,7.7,0.4,9.4-3c0.4-0.6,0.5-1.2,0.7-1.9c0.2-0.1,0.2-0.2,0.2-0.4l2.3-13.3C319.6,322.4,319.1,321.2,318,320.7z"/>
	<path d="M301.9,351.7c-1.1-0.6-2.4-0.3-3.2,0.5l-9.6,9.6c-0.1,0.1-0.1,0.1-0.2,0.2c-0.5,0.5-0.9,1.1-1.2,1.7
		c-1.7,3.4-0.4,7.7,3,9.4c3.4,1.7,7.7,0.4,9.4-3c0.4-0.6,0.5-1.2,0.7-1.9c0.1-0.1,0.2-0.2,0.2-0.4l2.3-13.3
		C303.5,353.4,303,352.2,301.9,351.7z"/>
	<path d="M285.8,382.7c-1.1-0.6-2.4-0.3-3.2,0.5l-9.6,9.6c-0.1,0.1-0.1,0.1-0.2,0.2c-0.5,0.5-0.9,1.1-1.2,1.7
		c-1.7,3.4-0.4,7.7,3,9.4c3.4,1.7,7.7,0.4,9.4-3c0.4-0.6,0.5-1.2,0.7-1.9c0.1-0.2,0.2-0.3,0.2-0.4l2.3-13.3
		C287.4,384.4,286.9,383.2,285.8,382.7z"/>
	<path d="M397.9,253.6V239c0-2.3-1.8-4.2-4.2-4.2h55.8v-19h0h-25l-161.1-60l160.2-59.7h25.8v-19h-404v19h30.8l160.2,59.7l-161.1,60
		h-30v19h56c-2.3,0-4.2,1.8-4.2,4.2v14.7c0,2.3,1.8,4.2,4.2,4.2h13.6c2.3,0,4.2,1.8,4.2,4.2v12.2c0,2.3,1.8,4.2,4.2,4.2h21.8
		c2.3,0,4.2-1.8,4.2-4.2V262c0-2.3,1.8-4.2,4.2-4.2h13.6c2.3,0,4.2-1.8,4.2-4.2V239c-0.2-2.3-2-4.2-4.4-4.2h160.8
		c-2.3,0-4.2,1.9-4.2,4.2v14.7c0,2.3,1.8,4.2,4.2,4.2h13.6c2.3,0,4.2,1.8,4.2,4.2v12.2c0,2.3,1.8,4.2,4.2,4.2h21.8
		c2.3,0,4.2-1.8,4.2-4.2V262c0-2.3,1.8-4.2,4.2-4.2h13.6C396,257.8,397.9,256,397.9,253.6z M103.2,96.1h293.6L250,150.8L103.2,96.1z
		 M102.4,215.8l147.6-55l147.6,55H102.4z"/>
</g>
</svg>
