<?xml version="1.0" encoding="utf-8"?>
<!-- Generator: Adobe Illustrator 24.3.0, SVG Export Plug-In . SVG Version: 6.00 Build 0)  -->
<svg version="1.1" id="Calque_1" xmlns="http://www.w3.org/2000/svg" xmlns:xlink="http://www.w3.org/1999/xlink" x="0px" y="0px"
	 viewBox="0 0 1000 1000" style="enable-background:new 0 0 1000 1000;" xml:space="preserve">
<path d="M787.8,70.4H950V17.6H50v52.8h186.1c-6.9,6.9-13.6,14.2-20,21.9c-36.1,43.1-64.4,96.7-81.4,154.7
	C92.8,387.9,93.9,625.4,335.8,955.1l15.6-11.1c8.9,12.8,17.8,25.6,26.9,38.3l46.9-34.4C366.1,867.1,318.3,786.8,283.1,709
	l-30.3,13.6C149.7,515.1,155,361.8,184.4,262.1c35.3-120,107.5-176.7,137.2-191.4h380.8c-6.9,6.9-13.6,14.2-20,21.9
	c-36.1,43.1-64.4,96.7-81.4,154.7c-41.9,140.8-40.8,378.3,201.1,708.1l15.3-11.1c8.9,12.8,17.8,25.3,27.2,38.1l46.9-34.4
	C831.4,865.7,783.6,785.4,749.4,709l-30.3,13.6c-103.1-207.5-97.8-360.8-68.3-460.6C685.8,141.8,758.1,85.1,787.8,70.4z"/>
</svg>
