<?xml version="1.0" encoding="utf-8"?>
<!-- Generator: Adobe Illustrator 24.3.0, SVG Export Plug-In . SVG Version: 6.00 Build 0)  -->
<svg version="1.1" id="Calque_1" xmlns="http://www.w3.org/2000/svg" xmlns:xlink="http://www.w3.org/1999/xlink" x="0px" y="0px"
	 viewBox="0 0 500 500" style="enable-background:new 0 0 500 500;" xml:space="preserve">
<style type="text/css">
	.st0{fill:none;}
</style>
<g>
	<path class="st0" d="M312.1,328.9l-0.2-7.8h-7.4C307.3,323.5,309.8,326.2,312.1,328.9z"/>
	<path class="st0" d="M125.8,340c-0.2-0.2-0.4-0.5-0.5-0.7h-1.7l0.5,25.2h29.5C140.8,359.8,133.2,349.8,125.8,340z"/>
	<path class="st0" d="M128.7,339.3c9.9,13.1,19.5,25.1,41.1,25.1v0.1h15.4l-0.5-25.2H128.7z"/>
	<path class="st0" d="M248.2,328.9l-0.2-7.8h-7.4C243.4,323.5,245.9,326.2,248.2,328.9z"/>
	<polygon class="st0" points="250,141.3 198.1,254.8 301.8,254.8 	"/>
	<path class="st0" d="M248.4,336.5l-0.1-3.2c-3.6-4.4-7.4-8.6-12.1-12.2H187l0.2,11.4c1,1.3,2.1,2.6,3.1,4H248.4z"/>
	<path class="st0" d="M189.6,340c-0.2-0.2-0.4-0.5-0.5-0.7h-1.6l0.5,25.2h29.3C204.6,359.8,197,349.8,189.6,340z"/>
	<path class="st0" d="M184.6,336.5l-0.1-3.1c-3.6-4.5-7.5-8.7-12.2-12.3h-49.2l0.2,11.3c1.1,1.4,2.1,2.7,3.2,4.1H184.6z"/>
	<path class="st0" d="M184.4,329l-0.2-7.9h-7.5C179.5,323.5,182.1,326.2,184.4,329z"/>
	<path class="st0" d="M120.5,328.9l-0.2-7.8h-7.4C115.7,323.5,118.2,326.2,120.5,328.9z"/>
	<path class="st0" d="M64.8,339.3c9.9,13.1,19.5,25.1,41.1,25.1c0,0,0,0,0,0.1h15.3l-0.5-25.2H64.8z"/>
	<path class="st0" d="M61.9,340c-0.2-0.2-0.4-0.5-0.5-0.7h-1.7l0.5,25.2h29.5C76.9,359.8,69.3,349.8,61.9,340z"/>
	<path class="st0" d="M120.7,336.5l-0.1-3.2c-3.6-4.4-7.4-8.6-12.1-12.2H59.3v1.5l0.2,9.9c1.1,1.3,2.1,2.7,3.2,4.1H120.7z"/>
	<path class="st0" d="M381.2,340c-0.2-0.2-0.4-0.5-0.5-0.7H379l0.5,25.2h29.4C396.2,359.8,388.6,349.8,381.2,340z"/>
	<path class="st0" d="M376.2,336.5l-0.1-3.1c-3.6-4.5-7.5-8.7-12.2-12.3h-49.2l0.2,11.3c1.1,1.4,2.1,2.7,3.2,4.1H376.2z"/>
	<path class="st0" d="M317.4,340c-0.2-0.2-0.4-0.5-0.5-0.7h-1.7l0.5,25.2h29.5C332.4,359.8,324.8,349.8,317.4,340z"/>
	<path class="st0" d="M440.1,336.5l-0.1-3.1c-3.6-4.5-7.5-8.7-12.2-12.3h-49.2l0.2,11.4c1,1.3,2.1,2.6,3.1,4H440.1z"/>
	<path class="st0" d="M320.3,339.3c9.9,13.1,19.5,25.1,41.1,25.1v0.1h15.3l-0.5-25.2H320.3z"/>
	<path class="st0" d="M192.5,339.3c9.9,13.1,19.5,25.1,41.1,25.1v0.1h15.3l-0.5-25.2H192.5z"/>
	<path class="st0" d="M384.1,339.3c9.9,13.1,19.5,25.1,41.1,25.1v0.1h15.5l-0.5-25.2H384.1z"/>
	<path class="st0" d="M253.5,340c-0.2-0.2-0.4-0.5-0.5-0.7h-1.7l0.5,25.2h29.5C268.5,359.8,260.9,349.8,253.5,340z"/>
	<path class="st0" d="M376,329l-0.2-7.9h-7.5C371.1,323.5,373.7,326.2,376,329z"/>
	<path class="st0" d="M312.3,336.5l-0.1-3.2c-3.6-4.4-7.4-8.6-12.1-12.2h-49.3l0.2,11.3c1.1,1.4,2.1,2.7,3.2,4.1H312.3z"/>
	<path class="st0" d="M439.9,329l-0.2-7.9h-7.5C435,323.6,437.6,326.2,439.9,329z"/>
	<path class="st0" d="M256.4,339.3c9.9,13.1,19.5,25.1,41.1,25.1v0.1h15.3l-0.5-25.2H256.4z"/>
	<path d="M462.7,314.6c-5.8,0-10.5,4.7-10.5,10.5v16.4h-3.9v-20.4v-26.4v-39.9H313l-52.3-114.5h1.6v-14.1h-24.7v14.1h1.6
		l-52.3,114.5H51.7v40v26.3v20.3h-3.9v-16.2c0-5.8-4.7-10.5-10.5-10.5s-10.5,4.7-10.5,10.5v38.1c0,5.8,4.7,10.5,10.5,10.5
		s10.5-4.7,10.5-10.5v-16.5H57l0.4,19l0.1,0v1.5h386.1v-1.4l0,0l0-0.6v-0.8h0l-0.4-17.7h9.1v16.4c0,5.8,4.7,10.5,10.5,10.5
		s10.5-4.7,10.5-10.5v-38.1C473.2,319.3,468.5,314.6,462.7,314.6z M184.2,321.1l0.2,7.9c-2.4-2.8-4.9-5.5-7.7-7.9H184.2z
		 M120.4,321.1l0.2,7.8c-2.3-2.8-4.8-5.4-7.6-7.8H120.4z M59.3,322.6v-1.5h49.2c4.6,3.5,8.5,7.8,12.1,12.2l0.1,3.2h-58
		c-1-1.4-2.1-2.7-3.2-4.1L59.3,322.6z M60.1,364.5l-0.5-25.2h1.7c0.2,0.2,0.4,0.5,0.5,0.7c7.4,9.8,15,19.8,27.7,24.5H60.1z
		 M105.9,364.5C105.9,364.4,105.9,364.4,105.9,364.5c-21.6-0.1-31.2-12.1-41.1-25.2h55.9l0.5,25.2H105.9z M123.2,321.1h49.2
		c4.7,3.6,8.6,7.8,12.2,12.3l0.1,3.1h-58c-1-1.4-2.1-2.7-3.2-4.1L123.2,321.1z M124,364.5l-0.5-25.2h1.7c0.2,0.2,0.4,0.5,0.5,0.7
		c7.4,9.8,15,19.8,27.7,24.5H124z M169.8,364.5L169.8,364.5c-21.6-0.1-31.2-12.1-41.1-25.2h56l0.5,25.2H169.8z M312,321.1l0.2,7.8
		c-2.3-2.7-4.8-5.4-7.6-7.8H312z M250,141.3l51.9,113.5H198.1L250,141.3z M248.2,328.9c-2.3-2.7-4.8-5.4-7.6-7.8h7.4L248.2,328.9z
		 M187,321.1h49.2c4.6,3.5,8.5,7.8,12.1,12.2l0.1,3.2h-58c-1-1.3-2-2.7-3.1-4L187,321.1z M188,364.5l-0.5-25.2h1.6
		c0.2,0.2,0.4,0.5,0.5,0.7c7.4,9.8,15,19.8,27.7,24.5H188z M233.6,364.5L233.6,364.5c-21.6-0.1-31.2-12.1-41.1-25.2h55.9l0.5,25.2
		H233.6z M250.9,321.1h49.3c4.6,3.5,8.5,7.8,12.1,12.2l0.1,3.2h-58c-1-1.4-2.1-2.7-3.2-4.1L250.9,321.1z M251.7,364.5l-0.5-25.2h1.7
		c0.2,0.2,0.4,0.5,0.5,0.7c7.4,9.8,15,19.8,27.7,24.5H251.7z M297.5,364.5L297.5,364.5c-21.6-0.1-31.2-12.1-41.1-25.2h55.9l0.5,25.2
		H297.5z M439.8,321.1l0.2,7.9c-2.4-2.8-4.9-5.5-7.7-7.9H439.8z M375.9,321.1l0.2,7.9c-2.4-2.8-4.9-5.5-7.7-7.9H375.9z M314.8,321.1
		h49.2c4.7,3.6,8.6,7.8,12.2,12.3l0.1,3.1h-58c-1-1.4-2.1-2.7-3.2-4.1L314.8,321.1z M315.6,364.5l-0.5-25.2h1.7
		c0.2,0.2,0.4,0.5,0.5,0.7c7.4,9.8,15,19.8,27.7,24.5H315.6z M361.4,364.5L361.4,364.5c-21.6-0.1-31.2-12.1-41.1-25.2h55.9l0.5,25.2
		H361.4z M378.7,321.1h49.2c4.7,3.6,8.6,7.8,12.2,12.3l0.1,3.1H382c-1-1.3-2-2.7-3.1-4L378.7,321.1z M379.5,364.5l-0.5-25.2h1.6
		c0.2,0.2,0.4,0.5,0.5,0.7c7.4,9.8,15,19.8,27.7,24.5H379.5z M425.2,364.5L425.2,364.5c-21.6-0.1-31.2-12.1-41.1-25.2h56.1l0.5,25.2
		H425.2z"/>
</g>
</svg>
