<?xml version="1.0" encoding="utf-8"?>
<!-- Generator: Adobe Illustrator 24.3.0, SVG Export Plug-In . SVG Version: 6.00 Build 0)  -->
<svg version="1.1" id="Calque_1" xmlns="http://www.w3.org/2000/svg" xmlns:xlink="http://www.w3.org/1999/xlink" x="0px" y="0px"
	 viewBox="0 0 500 500" style="enable-background:new 0 0 500 500;" xml:space="preserve">
<style type="text/css">
	.st0{fill:#FFFFFF;}
	.st1{fill:none;}
</style>
<g>
	<path d="M460.1,414.4c-15.5,0-28,12.5-28,28s12.5,28,28,28s28-12.5,28-28S475.5,414.4,460.1,414.4z M460.1,455.9
		c-7.5,0-13.5-6-13.5-13.5s6-13.5,13.5-13.5s13.5,6,13.5,13.5S467.5,455.9,460.1,455.9z"/>
	<g>
		<polygon class="st0" points="181.4,228 182.7,227.4 181.4,224.1 180,227.4 		"/>
		<polygon class="st0" points="181.4,233.4 180,233.9 181.4,237.2 182.7,233.9 		"/>
		<polygon class="st0" points="179.5,228.8 180,227.4 176.8,226.1 178.1,229.3 		"/>
		<polygon class="st0" points="183.3,232.6 182.7,233.9 186,235.3 184.6,232 		"/>
		<polygon class="st0" points="180,227.4 179.5,228.8 181.4,228 		"/>
		<polygon class="st0" points="182.7,233.9 183.3,232.6 181.4,233.4 		"/>
		<polygon class="st0" points="179.5,232.6 178.1,232 176.8,235.3 180,233.9 		"/>
		<polygon class="st0" points="183.3,228.8 184.6,229.3 186,226.1 182.7,227.4 		"/>
		<polygon class="st0" points="182.7,227.4 181.4,228 183.3,228.8 		"/>
		<polygon class="st0" points="180,233.9 181.4,233.4 179.5,232.6 		"/>
		<polygon class="st0" points="184.1,230.7 184.6,232 187.9,230.7 184.6,229.3 		"/>
		<polygon class="st0" points="178.7,230.7 178.1,229.3 174.8,230.7 178.1,232 		"/>
		<polygon class="st0" points="178.1,232 179.5,232.6 178.7,230.7 		"/>
		<polygon class="st0" points="184.6,229.3 183.3,228.8 184.1,230.7 		"/>
		<polygon class="st0" points="183.3,232.6 184.6,232 184.1,230.7 		"/>
		<polygon class="st0" points="178.1,229.3 178.7,230.7 179.5,228.8 		"/>
		<polygon class="st0" points="183.3,228.8 181.4,228 179.5,228.8 178.7,230.7 179.5,232.6 181.4,233.4 183.3,232.6 184.1,230.7 		
			"/>
	</g>
	<g>
		<path class="st1" d="M217.6,415.4c0,0.1,0,0.2-0.1,0.3C217.5,415.6,217.5,415.5,217.6,415.4z"/>
		<path class="st1" d="M217,419c0,0.3-0.1,0.7-0.1,1.1C216.9,419.7,216.9,419.3,217,419z"/>
		<path class="st1" d="M217.3,417c0,0.3-0.1,0.5-0.1,0.8C217.2,417.6,217.2,417.3,217.3,417z"/>
		<path class="st1" d="M216.7,421c0,0.4-0.1,0.9-0.1,1.3C216.7,421.9,216.7,421.5,216.7,421z"/>
		<path class="st1" d="M216.6,423.1c0,0.7-0.1,1.4-0.1,2.2C216.5,424.6,216.5,423.9,216.6,423.1z"/>
	</g>
	<g>
		<path d="M415.4,33.1h11.1c0.4,0,0.8-0.2,0.8-0.6v-0.4c0-0.6-0.4-0.8-0.8-0.8h-11.1c-0.4,0-0.6,0.2-0.6,0.8v0.4
			C414.8,32.9,415,33.1,415.4,33.1z"/>
		<path d="M407,59.6l2.3-13l6.7-1.3v1.7h-1.3c-0.4,0-0.8,0.2-0.8,0.6v0.4c0,0.6,0.4,1,0.8,1h1.3v0.6h-1.3c-0.4,0-0.8,0.6-0.8,1v0.4
			c0,0.6,0.4,0.8,0.8,0.8h1.3v0.6h-1.3c-0.4,0-0.8,0.2-0.8,1v0.4c0,0.6,0.4,0.8,0.8,0.8h1.3V55h-1.3c-0.4,0-0.8,0.2-0.8,0.6v0.6
			c0,0.4,0.4,0.8,0.8,0.8h1.3v1h-1.3c-0.4,0-0.8,0.4-0.8,0.8v0.6c0,0.4,0.4,0.6,0.8,0.6h1.3v2.1l9.2-2.1h1.7c0.4,0,0.8-0.2,0.8-0.6
			v-0.6c0-0.4-0.4-0.8-0.8-0.8h-1v-1h1c0.4,0,0.8-0.4,0.8-0.8v-0.6c0-0.4-0.4-0.6-0.8-0.6h-1v-0.8h1c0.4,0,0.8-0.2,0.8-0.8v-0.4
			c0-0.8-0.4-1-0.8-1h-1v-0.6h1c0.4,0,0.8-0.2,0.8-0.8v-0.4c0-0.4-0.4-1-0.8-1h-1v-0.6h1c0.4,0,0.8-0.4,0.8-1v-0.4
			c0-0.4-0.4-0.6-0.8-0.6h-1v-1.7l6.7,1.3l1.7,10.2l5.9-1.7l-2.9-13L426,38.9v-4h-10v4l-11.5,3.1l-3.8,17.6v10.4v0h6.3V59.6z"/>
		<path d="M473.7,55.2l-3.1,1l0.2-6.7L411,65.5l0.2,6.5h-21.1l-4.2-7.9l-18.2-0.6l5.6,13.4l18.4,0.2h19.6v6.3l4.8-1v9.6l-6.7-1.3
			L407,78.2h-6.3l3.8,17.3l11.5,3.1v4h10v-4l11.5-3.1l2.9-13.6L434,83l-1.3,7.9l-6.7,1.3V80.7l14.8-2.7v-8.2l16.7-4.4l0.4,7.3
			l16.7-4.6c1.7-0.6,2.5-1.5,2.5-3.3v-7.3C477,55.4,475.7,54.4,473.7,55.2z"/>
		<path d="M431.2,323.5V162.4h5.7v-25.9h-6.5v-0.4v-0.6c0-1-0.6-1.5-1.2-1.5h-2.7v-1h2.7c0.6,0,1.2-0.8,1.2-1.3v-0.6
			c0-1-0.6-1.3-1.2-1.3h-2.7V129h2.7c0.6,0,1.2-0.4,1.2-1.5v-0.6c0-1-0.6-1.1-1.2-1.1h-2.7v-1.3h2.7c0.6,0,1.2-0.2,1.2-0.8v-1
			c0-0.6-0.6-1.1-1.2-1.1h-2.7V120h2.7c0.6,0,1.2-0.6,1.2-1.1v-1c0-0.6-0.6-0.8-1.2-0.8H429l3.6-3.6l0.4-3.1V106H416l-4.8,5.9v5.2
			H410c-0.6,0-1.1,0.2-1.1,0.8v1c0,0.6,0.6,1.1,1.1,1.1h1.2v1.5H410c-0.6,0-1.1,0.6-1.1,1.1v1c0,0.6,0.6,0.8,1.1,0.8h1.2v1.3H410
			c-0.6,0-1.1,0.2-1.1,1.1v0.6c0,1.2,0.6,1.5,1.1,1.5h1.2v0.8H410c-0.6,0-1.1,0.4-1.1,1.3v0.6c0,0.6,0.6,1.3,1.1,1.3h1.2v1H410
			c-0.6,0-1.1,0.6-1.1,1.5v0.6c0,0.6,0.6,1,1.1,1h1.2v25.3h5v161.1h-27.5v11h19.6l-68.7,52.6c-3.8-2-7.7-4.3-11.9-6.9
			c-9.3-5.8-25.8-18-43.3-31.5c32.9-28.7,53.6-70.9,53.6-118c0-86.5-70.1-156.6-156.6-156.6S24.8,144.2,24.8,230.7
			c0,38.4,13.8,73.5,36.7,100.8l-5.8,5.8c-1.5-1.5-3.9-1.5-5.4,0L35,352.5c-1.5,1.5-1.5,3.9,0,5.4l-9.4,9.4l19.1,19.1l9.4-9.4
			c1.5,1.5,3.9,1.5,5.4,0l15.3-15.3c1.5-1.5,1.5-3.9,0-5.4l5.8-5.8c16,13.5,34.8,23.8,55.3,30v26.9H53.6v-5.9h-14v5.9H14.7v12.6
			l24.9,1.1v38.4h-13v9h13h14h13v-9h-13v-37.8l116.1,5.2h46.9c0-0.6,0-1.2,0-1.8c0-0.7,0-1.4,0.1-2.2c0-0.3,0-0.5,0-0.8
			c0-0.4,0.1-0.9,0.1-1.3c0-0.3,0.1-0.7,0.1-1c0-0.4,0.1-0.7,0.1-1.1c0.1-0.4,0.1-0.8,0.2-1.1c0-0.3,0.1-0.5,0.1-0.8
			c0.1-0.4,0.2-0.9,0.2-1.3c0-0.1,0-0.2,0.1-0.3c0.6-2.7,1.4-5.4,2.4-7.9c1.7-4.4,4.1-8.4,6.9-12v-14.9c16.4-5,31.7-12.6,45.3-22.3
			c19,14.6,37.2,28.2,47.5,34.6c34.3,21.4,55.2,23.1,79,23.1c17.9,0,32.5-14.6,32.5-32.5v-49h23.4v77.2c1.8-0.3,3.6-0.5,5.5-0.5
			s3.7,0.2,5.5,0.5v-77.2v-11h-11H431.2z M194.6,233.4l20.4,8.4h-13.1l-9.2-3.8C193.6,236.7,194.2,235.1,194.6,233.4z M151.1,241.9
			h-3.3l5.6-2.3L151.1,241.9z M322.3,289c-0.4,1-1.3,1.5-2.3,1.5c-0.3,0-0.6-0.1-1-0.2l-92.1-38.2v-5.4l94,38.9
			C322.2,286.3,322.8,287.8,322.3,289z M319,171c1.3-0.5,2.7,0.1,3.3,1.4s-0.1,2.7-1.4,3.3l-126.3,52.3c-0.3-1.7-1-3.2-1.9-4.6
			L319,171z M239.7,89.8c1.3,0.5,1.9,2,1.4,3.3l-52.3,126.3c-1.4-0.9-2.9-1.6-4.6-1.9l52.3-126.3C237,89.9,238.5,89.3,239.7,89.8z
			 M123,89.8c1.3-0.5,2.7,0.1,3.3,1.4l52.3,126.3c-1.7,0.4-3.2,1-4.6,1.9L121.7,93.1C121.1,91.8,121.7,90.3,123,89.8z M40.5,172.3
			c0.5-1.3,2-1.9,3.3-1.4l126,52.2L166,227L41.8,175.6C40.6,175.1,40,173.6,40.5,172.3z M42.8,290.6c-1,0-1.9-0.6-2.3-1.5
			c-0.5-1.3,0.1-2.7,1.4-3.3l94-39v5.4l-92.1,38.2C43.4,290.5,43.1,290.6,42.8,290.6z M126.3,370.2c-0.4,1-1.3,1.5-2.3,1.5
			c-0.3,0-0.6-0.1-1-0.2c-1.3-0.5-1.9-2-1.4-3.3l14.2-34.3V347L126.3,370.2z M239.7,371.6c-0.3,0.1-0.6,0.2-1,0.2
			c-1,0-1.9-0.6-2.3-1.5l-9.6-23.1V334l14.2,34.3C241.6,369.6,241,371,239.7,371.6z M398.7,401c-16.5,0-30.8-0.8-49.9-9.4h0.9
			l66.5-50.9v42.8C416.2,393.1,408.4,401,398.7,401z"/>
	</g>
	<path d="M307.6,431.9c0.1-0.7,0.2-1.4,0.3-2.2c0.1-1.5,0.2-2.9,0.2-4.4c0-23.9-19.4-43.3-43.3-43.3c-10.5,0-20.1,3.7-27.6,9.9
		c-3.7,3.1-7,6.8-9.5,11c-0.4,0.6-0.7,1.2-1,1.8c-3.3,6.1-5.2,13.2-5.2,20.6c0,15,7.6,28.1,19.1,35.9c6.9,4.7,15.2,7.4,24.2,7.4
		c9,0,17.3-2.7,24.2-7.4c1.2-0.8,2.3-1.6,3.3-2.5c2.1-1.8,4.1-3.7,5.9-5.9C303.1,447,306.4,439.8,307.6,431.9z M264.8,446.2
		c-11.5,0-20.9-9.4-20.9-20.9s9.4-20.9,20.9-20.9c11.5,0,20.9,9.4,20.9,20.9S276.4,446.2,264.8,446.2z"/>
	<path d="M357.9,414.4c-15.5,0-28,12.5-28,28s12.5,28,28,28s28-12.5,28-28S373.4,414.4,357.9,414.4z M357.9,455.9
		c-7.5,0-13.5-6-13.5-13.5s6-13.5,13.5-13.5s13.5,6,13.5,13.5S365.4,455.9,357.9,455.9z"/>
</g>
</svg>
