<?xml version="1.0" encoding="utf-8"?>
<!-- Generator: Adobe Illustrator 24.3.0, SVG Export Plug-In . SVG Version: 6.00 Build 0)  -->
<svg version="1.1" id="Calque_1" xmlns="http://www.w3.org/2000/svg" xmlns:xlink="http://www.w3.org/1999/xlink" x="0px" y="0px"
	 viewBox="0 0 900 800" style="enable-background:new 0 0 900 800;" xml:space="preserve">
<path d="M346.1,142.3l0.6-0.3C328.5,47.2,236.9-15,142.1,3.1C59.6,18.9-0.1,91,0,175v625h200V407.1c0-15.5,3.6-30.8,10.6-44.7
	l86.7-173.4C307.6,168.2,324.9,151.8,346.1,142.3L346.1,142.3z M894.7,384.7L808,211.3c-5.2-10.4-13.8-18.6-24.4-23.3l-188.3-83.6
	c-12.9-5.7-27.7-5.7-40.6,0L366.4,188c-10.6,4.7-19.2,13-24.4,23.3l-86.7,173.4c-3.5,6.9-5.3,14.6-5.3,22.3V800h200V650h250v150h200
	V407.1C900,399.3,898.2,391.7,894.7,384.7z M650,500H500V350h150V500z"/>
</svg>
