<?xml version="1.0" encoding="utf-8"?>
<!-- Generator: Adobe Illustrator 24.3.0, SVG Export Plug-In . SVG Version: 6.00 Build 0)  -->
<svg version="1.1" id="Calque_1" xmlns="http://www.w3.org/2000/svg" xmlns:xlink="http://www.w3.org/1999/xlink" x="0px" y="0px"
	 viewBox="0 0 1000 1000" style="enable-background:new 0 0 1000 1000;" xml:space="preserve">
<path d="M569.4,951H950L798.3,834.2l-14.1,49h-1C580,598.8,578.5,397.3,613.7,277.9C646.5,166,713.8,112.6,741.9,98.5h152.8V49H50
	v49.5h174.4c-6.3,6.3-12.5,13-18.5,20.3c-33.9,40.4-60.5,90.7-76.4,145.2C92.2,390,91.2,597.5,286,883.3h-65.4L131.9,951h380.6
	L360.8,834.2l-14.1,49h-1.3C142.6,598.8,141,397.5,176.2,277.9C209,166,276.3,112.6,304.5,98.5h357.7c-6.3,6.3-12.5,13-18.5,20.3
	c-33.9,40.4-60.5,90.7-76.4,145.2C529.7,390,528.9,597.5,724,883.3h-65.7L569.4,951z"/>
</svg>
