<?xml version="1.0" encoding="utf-8"?>
<!-- Generator: Adobe Illustrator 24.3.0, SVG Export Plug-In . SVG Version: 6.00 Build 0)  -->
<svg version="1.1" id="Calque_1" xmlns="http://www.w3.org/2000/svg" xmlns:xlink="http://www.w3.org/1999/xlink" x="0px" y="0px"
	 viewBox="0 0 1000 1000" style="enable-background:new 0 0 1000 1000;" xml:space="preserve">
<g>
	<path d="M311.9,693.2c0-9.7-7.8-17.5-17.5-17.5h-32.5v-1.2l39.3-101.1c6-2.7,10.1-8.9,10.3-15.9c0-4.7-1.9-9.3-5.1-12.4h363.5
		c-3.1,3.1-5.1,7.6-5.1,12.4c0,7,4.1,13.2,10.1,15.9l38.7,99.5v2.9h-31.9c-9.7,0-17.5,7.8-17.5,17.5s7.8,17.5,17.5,17.5h88.6
		c9.7,0,17.5-7.8,17.5-17.5s-7.8-17.5-17.5-17.5h-31.3v-1.4l39.1-100.9c6.2-2.7,10.3-8.9,10.3-16.1c0-4.7-1.9-9.3-5.1-12.4h60.1
		c10.7,0,19.6-8.9,19.6-19.6c0-10.7-8.9-19.6-19.6-19.6H738.8v-35h41.6l82.4-205.9v-82.4l-41.2-64.7H154.3l-41.2,64.9V265L195.5,471
		h41.6v35H132.7c-10.7,0-19.6,8.9-19.6,19.6c0,10.7,8.9,19.6,19.6,19.6H193c-3.1,3.1-5.1,7.6-5.1,12.4c0,7,4.1,13,10.1,15.9
		l39.1,100.9v1.4h-31.3c-9.7,0-17.5,7.8-17.5,17.5s7.8,17.5,17.5,17.5h88.6C304,710.7,311.9,702.9,311.9,693.2z M261.8,471h451.6v35
		H261.8V471z"/>
	<circle cx="784.3" cy="745.3" r="4.7"/>
	<circle cx="909.9" cy="750.2" r="4.7"/>
	<circle cx="689.6" cy="796.8" r="4.7"/>
	<circle cx="815.4" cy="733.4" r="4.7"/>
	<circle cx="796.2" cy="715.4" r="4.7"/>
	<circle cx="808.2" cy="687.8" r="4.7"/>
	<circle cx="827.3" cy="710.7" r="4.7"/>
	<circle cx="882.3" cy="707" r="4.7"/>
	<circle cx="658.5" cy="784.8" r="4.7"/>
	<circle cx="686.1" cy="768.2" r="4.7"/>
	<circle cx="763.9" cy="763.4" r="4.7"/>
	<circle cx="730.3" cy="758.5" r="4.7"/>
	<circle cx="730.3" cy="798" r="4.7"/>
	<circle cx="845.3" cy="738.1" r="4.7"/>
	<path d="M795,774.1c2.7,0,4.7-2.1,4.7-4.7c0-0.2,0-0.6,0-0.8c1.4-1.2,2.3-3.3,2.3-5.4c0-3.9-3.3-7.2-7.2-7.2s-7.2,3.3-7.2,7.2
		c0,2.3,1,4.3,2.7,5.6c0,0.2,0,0.4,0,0.6C790.3,772.1,792.3,774.1,795,774.1z"/>
	<circle cx="849" cy="695" r="4.7"/>
	<circle cx="715.9" cy="777.6" r="4.7"/>
	<circle cx="607" cy="764.5" r="4.7"/>
	<circle cx="634.6" cy="769.4" r="4.7"/>
	<circle cx="750.7" cy="783.8" r="4.7"/>
	<circle cx="777.5" cy="790.2" r="4.7"/>
	<circle cx="854.9" cy="785.3" r="4.7"/>
	<path d="M759.8,808.5c2.7,0,4.7-2.1,4.7-4.7c0-1.9-1-3.3-2.5-4.1c1.2-1,2.1-2.7,2.1-4.3c0-3.1-2.7-5.8-5.8-5.8s-5.8,2.7-5.8,5.8
		c0,2.5,1.4,4.5,3.7,5.4c-0.8,0.8-1.2,1.9-1.2,3.1C755.1,806.5,757.1,808.5,759.8,808.5z"/>
	<circle cx="783.1" cy="773.5" r="5.8"/>
	<circle cx="905.2" cy="806.9" r="5.8"/>
	<circle cx="935.7" cy="779.3" r="5.8"/>
	<circle cx="668.4" cy="835.9" r="5.8"/>
	<path d="M821,764.9c2.7,0,4.9-1.9,5.6-4.3c0.6,0.2,1.2,0.4,2.1,0.4c2.7,0,4.7-2.1,4.7-4.7s-2.1-4.7-4.7-4.7c-1.9,0-3.7,1.2-4.3,2.9
		c-1-0.6-2.1-1-3.3-1c-3.1,0-5.8,2.7-5.8,5.8S817.9,764.9,821,764.9z"/>
	<circle cx="797.7" cy="737.3" r="5.8"/>
	<circle cx="812.1" cy="703.9" r="5.8"/>
	<circle cx="835.4" cy="731.5" r="5.8"/>
	<path d="M902.3,732.9c3.1,0,5.8-2.7,5.8-5.8c0-0.2,0-0.6,0-0.8c0.4-0.6,0.6-1.6,0.6-2.5c0-2.7-2.1-4.7-4.7-4.7
		c-2.1,0-3.7,1.2-4.3,3.1c-1.9,1-3.1,2.9-3.1,4.9C896.5,730.3,899.2,732.9,902.3,732.9z"/>
	<path d="M903.5,767.7c0-3.1-2.7-5.8-5.8-5.8c-1.4,0-2.7,0.4-3.7,1.2c-0.2,0-0.6,0-0.8,0c-3.3,0-6,2.3-6.8,5.1
		c-0.4-0.2-1-0.2-1.6-0.2c-2.7,0-4.7,2.1-4.7,4.7s2.1,4.7,4.7,4.7c1.4,0,2.9-0.6,3.7-1.9c1.2,1,2.9,1.9,4.7,1.9
		c3.1,0,5.6-1.9,6.6-4.5C902.1,772.3,903.5,770.2,903.5,767.7z"/>
	<circle cx="630.7" cy="821.5" r="5.8"/>
	<circle cx="664" cy="801.1" r="5.8"/>
	<circle cx="717.8" cy="789.6" r="5.8"/>
	<circle cx="717.8" cy="837.4" r="5.8"/>
	<path d="M862.4,762.4c0.4-0.8,0.8-1.6,0.8-2.7c0-2.7-2.1-4.7-4.7-4.7s-4.7,2.1-4.7,4.7c0,0.2,0,0.4,0,0.6c-1.4,1-2.3,2.7-2.3,4.5
		c0,3.1,2.7,5.8,5.8,5.8s5.8-2.7,5.8-5.8C863,764,862.8,763.2,862.4,762.4z"/>
	<circle cx="836.8" cy="786.7" r="5.8"/>
	<path d="M796.2,808.3c3.1,0,5.8-2.7,5.8-5.8c0-0.6-0.2-1-0.2-1.6c0.6,0.2,1.2,0.4,1.9,0.4c2.7,0,4.7-2.1,4.7-4.7s-2.1-4.7-4.7-4.7
		c-2.7,0-4.7,2.1-4.7,4.7c0,0.4,0,0.6,0,1c-0.8-0.4-1.9-0.8-2.7-0.8c-3.1,0-5.8,2.7-5.8,5.8S793.2,808.3,796.2,808.3z"/>
	<path d="M855.8,712.6c0,1.6,0.8,3.1,1.9,4.1c-0.8,0.8-1.4,2.1-1.4,3.5c0,2.7,2.1,4.7,4.7,4.7c2.7,0,4.7-2.1,4.7-4.7
		c0-1-0.4-2.1-1-2.9c1.6-1,2.7-2.9,2.7-4.7c0-3.1-2.7-5.8-5.8-5.8C858.4,706.8,855.8,709.5,855.8,712.6z"/>
	<circle cx="700.3" cy="812.8" r="5.8"/>
	<circle cx="568.3" cy="796.8" r="5.8"/>
	<circle cx="601.6" cy="802.5" r="5.8"/>
	<path d="M878.8,791c0-3.1-2.7-5.8-5.8-5.8s-5.8,2.7-5.8,5.8c-2.9,1-4.9,3.7-4.9,6.8c0,3.9,3.3,7.2,7.2,7.2s7.2-3.3,7.2-7.2
		c0-0.8-0.2-1.4-0.4-2.1C877.8,794.7,878.8,792.9,878.8,791z"/>
	<circle cx="742.5" cy="820.3" r="5.8"/>
	<circle cx="774.8" cy="828.1" r="5.8"/>
	<circle cx="806.7" cy="835.7" r="5.8"/>
	<circle cx="868.9" cy="821.9" r="5.8"/>
	<path d="M753.4,838.8c-0.4,0-0.8,0-1.2,0.2c0.4-0.8,0.6-1.9,0.6-2.9c0-3.9-3.3-7.2-7.2-7.2s-7.2,3.3-7.2,7.2s3.3,7.2,7.2,7.2
		c0.8,0,1.6-0.2,2.3-0.4c-0.2,0.6-0.2,1-0.2,1.6c0,3.1,2.7,5.8,5.8,5.8s5.8-2.7,5.8-5.8C759.2,841.5,756.5,838.8,753.4,838.8z"/>
	<circle cx="776.5" cy="808.7" r="7.2"/>
	<circle cx="929.7" cy="850.7" r="7.2"/>
	<circle cx="967.8" cy="816.1" r="7.2"/>
	<circle cx="632.5" cy="887.2" r="7.2"/>
	<path d="M831,790.6c0-2.1-0.8-3.9-2.3-5.4c1.2-0.8,1.9-2.3,1.9-3.7c0-2.7-2.1-4.7-4.7-4.7s-4.7,2.1-4.7,4.7c0,0.8,0.2,1.4,0.6,2.3
		c-2.9,0.8-5.1,3.7-5.1,6.8c0,3.9,3.3,7.2,7.2,7.2S831,794.5,831,790.6z"/>
	<circle cx="812.9" cy="721.2" r="7.2"/>
	<circle cx="958.7" cy="776" r="7.2"/>
	<circle cx="842.2" cy="756" r="7.2"/>
	<path d="M926,757.7c3.9,0,7.2-3.3,7.2-7.2c0,0,0,0,0-0.2c0.6-0.8,0.8-1.9,0.8-2.9c0-3.1-2.7-5.8-5.8-5.8c-1.6,0-3.3,0.8-4.3,2.1
		c-2.9,0.8-5.1,3.7-5.1,6.8C918.8,754.4,922.1,757.7,926,757.7z"/>
	<circle cx="920.4" cy="801.5" r="7.2"/>
	<circle cx="585.2" cy="868.9" r="7.2"/>
	<circle cx="627.2" cy="843.3" r="7.2"/>
	<circle cx="694.5" cy="828.7" r="7.2"/>
	<circle cx="694.5" cy="888.8" r="7.2"/>
	<path d="M844,818c-2.1,0-3.9,0.8-5.1,2.3c0.4-0.8,0.6-1.6,0.6-2.7c0-3.1-2.7-5.8-5.8-5.8c-3.1,0-5.8,2.7-5.8,5.8s2.7,5.8,5.8,5.8
		c1.6,0,3.1-0.6,4.1-1.6c-0.6,1-1,2.3-1,3.5c0,3.9,3.3,7.2,7.2,7.2c3.9,0,7.2-3.3,7.2-7.2S847.9,818,844,818z"/>
	<circle cx="792.9" cy="845.2" r="7.2"/>
	<path d="M872,738.9c-1,1-1.6,2.5-1.6,4.1c0,3.1,2.7,5.8,5.8,5.8c2.7,0,5.1-2.1,5.6-4.5c1-0.8,1.9-2.3,1.9-3.7c0-1.9-1-3.5-2.7-4.3
		c0.8-1.2,1.2-2.5,1.2-3.9c0-3.9-3.3-7.2-7.2-7.2s-7.2,3.3-7.2,7.2C867.7,735.2,869.6,737.9,872,738.9z"/>
	<circle cx="672.7" cy="857.9" r="7.2"/>
	<circle cx="506.9" cy="838" r="7.2"/>
	<circle cx="548.7" cy="845.2" r="7.2"/>
	<circle cx="889.5" cy="830.6" r="7.2"/>
	<circle cx="725.4" cy="867.4" r="7.2"/>
	<circle cx="840.1" cy="863.9" r="7.2"/>
	<circle cx="766.2" cy="877.1" r="7.2"/>
	<circle cx="806.3" cy="886.8" r="7.2"/>
	<circle cx="884.2" cy="869.5" r="7.2"/>
	<circle cx="739.2" cy="897.7" r="7.2"/>
	<path d="M314.3,745.3c0-2.7-2.1-4.7-4.7-4.7c-2.7,0-4.7,2.1-4.7,4.7s2.1,4.7,4.7,4.7C312.3,750,314.3,748,314.3,745.3z"/>
	<path d="M435.2,755c2.7,0,4.7-2.1,4.7-4.7c0-2.7-2.1-4.7-4.7-4.7s-4.7,2.1-4.7,4.7C430.5,752.9,432.6,755,435.2,755z"/>
	<path d="M219.6,796.8c0-2.7-2.1-4.7-4.7-4.7c-2.7,0-4.7,2.1-4.7,4.7s2.1,4.7,4.7,4.7C217.6,801.5,219.6,799.5,219.6,796.8z"/>
	<circle cx="340.7" cy="733.4" r="4.7"/>
	<circle cx="321.6" cy="715.4" r="4.7"/>
	<circle cx="333.5" cy="687.8" r="4.7"/>
	<path d="M429.3,719.1c-1.9,0-3.7,1.2-4.3,2.9c-1.9,1-3.3,2.9-3.3,5.1c0,3.1,2.7,5.8,5.8,5.8c3.1,0,5.8-2.7,5.8-5.8
		c0-0.2,0-0.4,0-0.6c0.6-0.8,0.8-1.6,0.8-2.7C434,721.2,431.9,719.1,429.3,719.1z"/>
	<path d="M352.7,706c-2.7,0-4.7,2.1-4.7,4.7s2.1,4.7,4.7,4.7s4.7-2.1,4.7-4.7S355.3,706,352.7,706z"/>
	<circle cx="407.6" cy="707" r="4.7"/>
	<path d="M188.5,784.8c0-2.7-2.1-4.7-4.7-4.7s-4.7,2.1-4.7,4.7s2.1,4.7,4.7,4.7S188.5,787.5,188.5,784.8z"/>
	<circle cx="211.4" cy="768.2" r="4.7"/>
	<circle cx="289.2" cy="763.4" r="4.7"/>
	<circle cx="255.7" cy="758.5" r="4.7"/>
	<circle cx="255.7" cy="798" r="4.7"/>
	<circle cx="370.6" cy="738.1" r="4.7"/>
	<path d="M320.3,774.1c2.7,0,4.7-2.1,4.7-4.7c0-0.2,0-0.6,0-0.8c1.4-1.2,2.3-3.3,2.3-5.4c0-3.9-3.3-7.2-7.2-7.2s-7.2,3.3-7.2,7.2
		c0,2.3,1,4.3,2.7,5.6c0,0.2,0,0.4,0,0.6C315.6,772.1,317.6,774.1,320.3,774.1z"/>
	<path d="M379,695c0-2.7-2.1-4.7-4.7-4.7c-2.7,0-4.7,2.1-4.7,4.7s2.1,4.7,4.7,4.7C377,699.8,379,697.7,379,695z"/>
	<circle cx="241.2" cy="777.6" r="4.7"/>
	<path d="M132.3,759.7c-2.7,0-4.7,2.1-4.7,4.7s2.1,4.7,4.7,4.7c2.7,0,4.7-2.1,4.7-4.7S135,759.7,132.3,759.7z"/>
	<circle cx="159.9" cy="769.4" r="4.7"/>
	<path d="M280.8,783.8c0-2.7-2.1-4.7-4.7-4.7s-4.7,2.1-4.7,4.7s2.1,4.7,4.7,4.7C278.7,788.5,280.8,786.5,280.8,783.8z"/>
	<circle cx="302.6" cy="790.2" r="4.7"/>
	<circle cx="380.2" cy="785.3" r="4.7"/>
	<path d="M285.1,808.5c2.7,0,4.7-2.1,4.7-4.7c0-1.9-1-3.3-2.5-4.1c1.2-1,2.1-2.7,2.1-4.3c0-3.1-2.7-5.8-5.8-5.8
		c-3.1,0-5.8,2.7-5.8,5.8c0,2.5,1.4,4.5,3.7,5.4c-0.8,0.8-1.2,1.9-1.2,3.1C280.4,806.5,282.4,808.5,285.1,808.5z"/>
	<path d="M314.1,773.5c0-3.1-2.7-5.8-5.8-5.8c-3.1,0-5.8,2.7-5.8,5.8c0,3.1,2.7,5.8,5.8,5.8C311.5,779.3,314.1,776.6,314.1,773.5z"
		/>
	<path d="M430.5,801.1c-3.1,0-5.8,2.7-5.8,5.8c0,3.1,2.7,5.8,5.8,5.8c3.1,0,5.8-2.7,5.8-5.8C436.3,803.8,433.6,801.1,430.5,801.1z"
		/>
	<path d="M461,773.5c-3.1,0-5.8,2.7-5.8,5.8s2.7,5.8,5.8,5.8c3.1,0,5.8-2.7,5.8-5.8S464.1,773.5,461,773.5z"/>
	<path d="M199.4,835.9c0-3.1-2.7-5.8-5.8-5.8s-5.8,2.7-5.8,5.8c0,3.1,2.7,5.8,5.8,5.8S199.4,839,199.4,835.9z"/>
	<path d="M395.7,743c0,3.1,2.7,5.8,5.8,5.8c2.7,0,5.1-2.1,5.6-4.5c1-0.8,1.9-2.3,1.9-3.7c0-1.9-1-3.5-2.7-4.3
		c0.8-1.2,1.2-2.5,1.2-3.9c0-3.9-3.3-7.2-7.2-7.2s-7.2,3.3-7.2,7.2c0,2.9,1.9,5.6,4.3,6.6C396.3,739.9,395.7,741.4,395.7,743z"/>
	<path d="M346.3,764.9c2.7,0,4.9-1.9,5.6-4.3c0.6,0.2,1.2,0.4,2.1,0.4c2.7,0,4.7-2.1,4.7-4.7s-2.1-4.7-4.7-4.7
		c-1.9,0-3.7,1.2-4.3,2.9c-1-0.6-2.1-1-3.3-1c-3.1,0-5.8,2.7-5.8,5.8S343.2,764.9,346.3,764.9z"/>
	<path d="M317.2,737.3c0,3.1,2.7,5.8,5.8,5.8c3.1,0,5.8-2.7,5.8-5.8c0-3.1-2.7-5.8-5.8-5.8C319.9,731.5,317.2,734.2,317.2,737.3z"/>
	<path d="M331.6,703.9c0,3.1,2.7,5.8,5.8,5.8c3.1,0,5.8-2.7,5.8-5.8c0-3.1-2.7-5.8-5.8-5.8C334.3,698.1,331.6,700.8,331.6,703.9z"/>
	<path d="M453.6,741.6c-1.6,0-3.3,0.8-4.3,2.1c-2.9,0.8-5.1,3.7-5.1,6.8c0,3.9,3.3,7.2,7.2,7.2s7.2-3.3,7.2-7.2c0,0,0,0,0-0.2
		c0.6-0.8,0.8-1.9,0.8-2.9C459.3,744.3,456.6,741.6,453.6,741.6z"/>
	<circle cx="360.7" cy="731.5" r="5.8"/>
	<path d="M428.8,767.7c0-3.1-2.7-5.8-5.8-5.8c-1.4,0-2.7,0.4-3.7,1.2c-0.2,0-0.6,0-0.8,0c-3.3,0-6,2.3-6.8,5.1
		c-0.4-0.2-1-0.2-1.6-0.2c-2.7,0-4.7,2.1-4.7,4.7s2.1,4.7,4.7,4.7c1.4,0,2.9-0.6,3.7-1.9c1.2,1,2.9,1.9,4.7,1.9
		c3.1,0,5.6-1.9,6.6-4.5C427.4,772.3,428.8,770.2,428.8,767.7z"/>
	<path d="M150.2,821.5c0,3.1,2.7,5.8,5.8,5.8s5.8-2.7,5.8-5.8s-2.7-5.8-5.8-5.8S150.2,818.4,150.2,821.5z"/>
	<circle cx="189.3" cy="801.1" r="5.8"/>
	<path d="M237.3,789.6c0,3.1,2.7,5.8,5.8,5.8s5.8-2.7,5.8-5.8s-2.7-5.8-5.8-5.8C240,783.8,237.3,786.5,237.3,789.6z"/>
	<path d="M248.9,837.4c0-3.1-2.7-5.8-5.8-5.8s-5.8,2.7-5.8,5.8c0,3.1,2.7,5.8,5.8,5.8C246.2,843.1,248.9,840.4,248.9,837.4z"/>
	<path d="M387.7,762.4c0.4-0.8,0.8-1.6,0.8-2.7c0-2.7-2.1-4.7-4.7-4.7c-2.7,0-4.7,2.1-4.7,4.7c0,0.2,0,0.4,0,0.6
		c-1.4,1-2.3,2.7-2.3,4.5c0,3.1,2.7,5.8,5.8,5.8c3.1,0,5.8-2.7,5.8-5.8C388.3,764,388.1,763.2,387.7,762.4z"/>
	<path d="M362.1,780.9c-3.1,0-5.8,2.7-5.8,5.8c0,3.1,2.7,5.8,5.8,5.8c3.1,0,5.8-2.7,5.8-5.8C367.9,783.6,365.2,780.9,362.1,780.9z"
		/>
	<path d="M321.6,808.3c3.1,0,5.8-2.7,5.8-5.8c0-0.6-0.2-1-0.2-1.6c0.6,0.2,1.2,0.4,1.9,0.4c2.7,0,4.7-2.1,4.7-4.7s-2.1-4.7-4.7-4.7
		s-4.7,2.1-4.7,4.7c0,0.4,0,0.6,0,1c-0.8-0.4-1.9-0.8-2.7-0.8c-3.1,0-5.8,2.7-5.8,5.8S318.5,808.3,321.6,808.3z"/>
	<path d="M392.6,712.6c0-3.1-2.7-5.8-5.8-5.8c-3.1,0-5.8,2.7-5.8,5.8c0,1.6,0.8,3.1,1.9,4.1c-0.8,0.8-1.4,2.1-1.4,3.5
		c0,2.7,2.1,4.7,4.7,4.7s4.7-2.1,4.7-4.7c0-1-0.4-2.1-1-2.9C391.6,716.3,392.6,714.6,392.6,712.6z"/>
	<path d="M225.6,807.1c-3.1,0-5.8,2.7-5.8,5.8s2.7,5.8,5.8,5.8s5.8-2.7,5.8-5.8S228.7,807.1,225.6,807.1z"/>
	<circle cx="93.6" cy="796.8" r="5.8"/>
	<circle cx="126.9" cy="802.5" r="5.8"/>
	<path d="M404.1,791c0-3.1-2.7-5.8-5.8-5.8c-3.1,0-5.8,2.7-5.8,5.8c-2.9,1-4.9,3.7-4.9,6.8c0,3.9,3.3,7.2,7.2,7.2s7.2-3.3,7.2-7.2
		c0-0.8-0.2-1.4-0.4-2.1C403.1,794.7,404.1,792.9,404.1,791z"/>
	<path d="M267.8,814.5c-3.1,0-5.8,2.7-5.8,5.8s2.7,5.8,5.8,5.8c3.1,0,5.8-2.7,5.8-5.8S270.9,814.5,267.8,814.5z"/>
	<path d="M300.1,822.3c-3.1,0-5.8,2.7-5.8,5.8s2.7,5.8,5.8,5.8c3.1,0,5.8-2.7,5.8-5.8S303.2,822.3,300.1,822.3z"/>
	<path d="M332.1,841.5c3.1,0,5.8-2.7,5.8-5.8s-2.7-5.8-5.8-5.8c-3.1,0-5.8,2.7-5.8,5.8S329,841.5,332.1,841.5z"/>
	<circle cx="394.2" cy="821.9" r="5.8"/>
	<path d="M278.7,838.8c-0.4,0-0.8,0-1.2,0.2c0.4-0.8,0.6-1.9,0.6-2.9c0-3.9-3.3-7.2-7.2-7.2s-7.2,3.3-7.2,7.2s3.3,7.2,7.2,7.2
		c0.8,0,1.6-0.2,2.3-0.4c-0.2,0.6-0.2,1-0.2,1.6c0,3.1,2.7,5.8,5.8,5.8c3.1,0,5.8-2.7,5.8-5.8C284.5,841.5,281.8,838.8,278.7,838.8z
		"/>
	<circle cx="301.8" cy="808.7" r="7.2"/>
	<circle cx="455" cy="850.7" r="7.2"/>
	<circle cx="493.1" cy="816.1" r="7.2"/>
	<circle cx="157.8" cy="887.2" r="7.2"/>
	<path d="M356.4,790.6c0-2.1-0.8-3.9-2.3-5.4c1.2-0.8,1.9-2.3,1.9-3.7c0-2.7-2.1-4.7-4.7-4.7c-2.7,0-4.7,2.1-4.7,4.7
		c0,0.8,0.2,1.4,0.6,2.3c-2.9,0.8-5.1,3.7-5.1,6.8c0,3.9,3.3,7.2,7.2,7.2C353.1,797.8,356.4,794.5,356.4,790.6z"/>
	<circle cx="338.2" cy="721.2" r="7.2"/>
	<circle cx="484" cy="776" r="7.2"/>
	<circle cx="367.5" cy="756" r="7.2"/>
	<circle cx="445.7" cy="801.5" r="7.2"/>
	<circle cx="110.5" cy="868.9" r="7.2"/>
	<circle cx="152.5" cy="843.3" r="7.2"/>
	<circle cx="219.8" cy="828.7" r="7.2"/>
	<circle cx="219.8" cy="888.8" r="7.2"/>
	<path d="M369.3,818c-2.1,0-3.9,0.8-5.1,2.3c0.4-0.8,0.6-1.6,0.6-2.7c0-3.1-2.7-5.8-5.8-5.8c-3.1,0-5.8,2.7-5.8,5.8s2.7,5.8,5.8,5.8
		c1.6,0,3.1-0.6,4.1-1.6c-0.6,1-1,2.3-1,3.5c0,3.9,3.3,7.2,7.2,7.2s7.2-3.3,7.2-7.2S373.2,818,369.3,818z"/>
	<circle cx="318.3" cy="845.2" r="7.2"/>
	<circle cx="198" cy="857.9" r="7.2"/>
	<circle cx="32.2" cy="838" r="7.2"/>
	<circle cx="74" cy="845.2" r="7.2"/>
	<circle cx="414.8" cy="830.6" r="7.2"/>
	<circle cx="250.7" cy="867.4" r="7.2"/>
	<circle cx="365.4" cy="863.9" r="7.2"/>
	<circle cx="291.5" cy="877.1" r="7.2"/>
	<circle cx="331.6" cy="886.8" r="7.2"/>
	<circle cx="409.5" cy="869.5" r="7.2"/>
	<circle cx="264.5" cy="897.7" r="7.2"/>
</g>
</svg>
