<?xml version="1.0" encoding="utf-8"?>
<!-- Generator: Adobe Illustrator 24.3.0, SVG Export Plug-In . SVG Version: 6.00 Build 0)  -->
<svg version="1.1" id="Calque_1" xmlns="http://www.w3.org/2000/svg" xmlns:xlink="http://www.w3.org/1999/xlink" x="0px" y="0px"
	 viewBox="0 0 1000 1000" style="enable-background:new 0 0 1000 1000;" xml:space="preserve">
<path d="M914,580.1c-33.7,0-61,27.3-61,61v95.5h-34l-2.2-660.3H181v659.8h-34v-95c0-33.7-27.3-61-61-61c-33.7,0.2-61,27.6-61,61.3
	v221.5c0,33.5,27.3,60.8,61,60.8c33.5,0,61-27.3,61-61v-95h37.7c12.3,45.3,53.7,78.8,102.6,78.8h425.3c49,0,90.1-33.2,102.6-78.3
	h37.7v94.5c0,33.7,27.3,61,61,61c33.7,0,61-27.6,61-61V641.1C975,607.4,947.7,580.1,914,580.1z M486.2,221.8
	c-69.2-1.7-103.6-16.2-107.3-36.9c-3.7-20.7,41.6-47.3,107.3-65.7V221.8z M486.2,501.1c-69.2-1.5-103.6-16-107.3-36.9
	c-3.7-20.7,41.6-47.3,107.3-65.7V501.1z M514,568.1c69.2,1.7,103.4,16,107.1,36.9c3.7,20.7-41.3,47.3-107.1,65.7V568.1L514,568.1z
	 M514,288.5c69.2,1.7,103.4,16,107.1,36.9c3.7,20.7-41.3,47.3-107.1,65.7V288.5L514,288.5z M224.4,736.9V100.7h261.9v16.2
	c-8.4,1-16.7,2.5-25.3,3.9c-93,16.7-151.9,52.4-160.2,77.3c-14.8,43.8,88.4,88.4,185.6,90.1v108.3c-8.4,1-16.7,2.5-25.3,3.9
	c-93,16.7-151.9,52.4-160.2,77.3c-14.8,43.8,88.4,88.4,185.6,90.1v129h-90.3v40.4H224.4V736.9z M775.6,736.9H604.1v-40.1H514v-23.9
	c8.4-1,16.7-2.5,25.1-3.9c93-16.7,151.9-52.4,160.2-77.3c14.8-43.6-88.1-88.1-185.3-90.1V393.3c8.4-1,16.7-2.5,25.1-3.9
	c93-16.7,151.9-52.4,160.2-77.3C714.1,268.5,611.2,224,514,222V100.7h261.6V736.9z"/>
</svg>
