<?xml version="1.0" encoding="utf-8"?>
<!-- Generator: Adobe Illustrator 24.3.0, SVG Export Plug-In . SVG Version: 6.00 Build 0)  -->
<svg version="1.1" id="Calque_1" xmlns="http://www.w3.org/2000/svg" xmlns:xlink="http://www.w3.org/1999/xlink" x="0px" y="0px"
	 viewBox="0 0 1000 1000" style="enable-background:new 0 0 1000 1000;" xml:space="preserve">
<path d="M925.4,629.2c-11.6,0-21,9.4-21,21V683h-7.8v-40.8v-52.8v-79.8H626l-104.6-229h3.2v-28.2h-49.4v28.2h3.2l-104.6,229H103.4
	v80v52.6v40.6h-7.8v-32.4c0-11.6-9.4-21-21-21s-21,9.4-21,21v76.2c0,11.6,9.4,21,21,21s21-9.4,21-21v-33h7.8v0.2h15.2v-51.6h135
	v18.4c-13.4-3.4-25.6-7.8-35.8-12.8l-15-2l-6.6,7.6c10.4,21.2-8.2,42.8-49,56.2l-5.4,6.6l18.8,2.6c50.2-4.2,102,3.4,135.2,19.4
	l18.6,2.6l6-6.8c-11-21.2,8.2-43.2,49.2-56.8l6-7l-15-2c-32.8,3-66.8,1-96-5v-21h230v22.2c-26.8,1.4-54.6-0.4-79.8-5.2l-15.6,0.8
	l2,7.8c32,17,38.4,39.8,16.2,59.2l2,6.8l19.6-1c41-12.2,96-15,142.6-6.6l19.6-1l-1.8-6.2c-32.2-17-38.8-40-16.2-59.8l-2-7.6l-16,0.8
	c-17.6,5.8-38.2,9.4-59.6,11.2v-21.4H735V660c-12.8-3.4-24.4-7.8-34-13l-14.6-2l-6.8,7.6c10,21.2-9.4,42.4-50.8,56.2l-5.8,6.6
	l18.4,2.6c50.2-3.6,102,4.2,134.6,20.2l18.6,2.6l5.8-6.8c-10.2-21.2,9.4-42.8,51-56.4l6.6-7l-15-2.4c-33.6,3-67.8,0.8-97-5.6v-20.4
	h135.4v51.4h9v0.2h14v32.6c0,11.6,9.4,21,21,21s21-9.4,21-21v-76.2C946.4,638.6,937,629.2,925.4,629.2z M500,282.6l103.8,227H396.2
	L500,282.6z"/>
</svg>
