<?xml version="1.0" encoding="utf-8"?>
<!-- Generator: Adobe Illustrator 24.3.0, SVG Export Plug-In . SVG Version: 6.00 Build 0)  -->
<svg version="1.1" id="Calque_1" xmlns="http://www.w3.org/2000/svg" xmlns:xlink="http://www.w3.org/1999/xlink" x="0px" y="0px"
	 viewBox="0 0 1000 1000" style="enable-background:new 0 0 1000 1000;" xml:space="preserve">
<style type="text/css">
	.st0{fill:none;}
</style>
<g>
	<g>
		<rect x="322.9" y="381.8" class="st0" width="245" height="61"/>
		<rect x="55" y="300.6" class="st0" width="245" height="61"/>
		<rect x="322.9" y="300.6" class="st0" width="245" height="61"/>
		<rect x="55" y="381.8" class="st0" width="245" height="61"/>
		<rect x="591" y="300.6" class="st0" width="245" height="61"/>
		<rect x="591" y="381.8" class="st0" width="245" height="61"/>
		<path d="M861.1,575.4v-4.2c0-5.5-4.4-10.2-10.2-10.2h-12.7v-22.2h32V242h-34.2v36.4H55V242H25v296.8h31.7v86.1H104
			c5.2-15.6,14-30.1,26-42.2c20.4-20.6,47.7-32,76.8-32c47.8,0,88.3,31.1,102.7,74.1h276.5c14.2-43.1,54.8-74.1,102.7-74.1
			c47.8,0,88.3,31.1,102.7,74.1h47.2v-8.4H851c5.5,0,10.2-4.4,10.2-10.2v-5.8H975v-25.1H861.1z M300,442.8H55v-61h245V442.8z
			 M300,361.6H55v-61h245V361.6z M567.9,442.8h-245v-61h245V442.8z M567.9,361.6h-245v-61h245V361.6z M836.1,442.8H591v-61h245
			V442.8z M836.1,361.6H591v-61h245V361.6z"/>
	</g>
	<path d="M688.4,559.6c-54.6,0-99.2,44.6-99.2,99.2c0,54.6,44.6,99.2,99.2,99.2c54.6,0,99.2-44.6,99.2-99.2
		C787.7,604.2,743,559.6,688.4,559.6z M688.4,716.1c-31.7,0-57.3-25.7-57.3-57.3c0-31.5,25.5-57.3,57.3-57.3
		c31.7,0,57.3,25.7,57.3,57.3C745.7,690.6,720,716.1,688.4,716.1z"/>
	<path d="M206.8,559.6c-54.6,0-99.2,44.6-99.2,99.2c0,54.6,44.6,99.2,99.2,99.2s99.2-44.6,99.2-99.2
		C306,604.2,261.4,559.6,206.8,559.6z M206.8,716.1c-31.7,0-57.3-25.7-57.3-57.3c0-31.5,25.5-57.3,57.3-57.3s57.3,25.7,57.3,57.3
		C264.1,690.6,238.3,716.1,206.8,716.1z"/>
</g>
</svg>
