<?xml version="1.0" encoding="utf-8"?>
<!-- Generator: Adobe Illustrator 24.3.0, SVG Export Plug-In . SVG Version: 6.00 Build 0)  -->
<svg version="1.1" id="Calque_1" xmlns="http://www.w3.org/2000/svg" xmlns:xlink="http://www.w3.org/1999/xlink" x="0px" y="0px"
	 viewBox="0 0 1000 1000" style="enable-background:new 0 0 1000 1000;" xml:space="preserve">
<path d="M952.9,637.5c-12.3,0-22.4,10-22.4,22.4v34.9h-8.3V510.2h-288L522.9,266.5h3.4v-30h-52.6v30h3.2L365.6,510.2H78v184.3h-8.3
	v-34.5c0-12.3-10-22.4-22.4-22.4S25,647.7,25,660.1v81.1c0,12.3,10,22.4,22.4,22.4s22.4-10,22.4-22.4V706h24.5v-54.9h104.5
	l-67.9,19.2l23.4,82.8l10.2-3.2L144,677.5l93.4-26.4h59l-67.9,19.2l23.4,82.8l10.2-3.2l-20.4-72.4l93.4-26.4h59l-67.9,19.2
	l23.4,82.8l10.2-3.2l-20.4-72.4l93.2-26.4h59.2l-67.9,19.2l23.2,82.8l10.2-3.2l-20.4-72.4l93.4-26.4h59l-67.9,19.2l23.4,82.8
	l10.2-3.2l-20.4-72.4l93.4-26.4h59l-67.9,19.2l23.4,82.8l10.2-3.2l-20.4-72.4l93.4-26.4h59l-67.9,19.2l23.4,82.8l10.2-3.2L730,677.5
	l93.2-26.4h59.2l-68.1,19.2l23.2,82.8l10.2-3.2l-20.4-72.4l78.5-22.1V706h24.5V741c0,12.3,10,22.4,22.4,22.4s22.4-10,22.4-22.4
	v-81.1C975.2,647.5,965.2,637.5,952.9,637.5z M499.9,268.4l110.5,241.8H389.4L499.9,268.4z"/>
</svg>
