<?xml version="1.0" encoding="utf-8"?>
<!-- Generator: Adobe Illustrator 24.3.0, SVG Export Plug-In . SVG Version: 6.00 Build 0)  -->
<svg version="1.1" id="Calque_1" xmlns="http://www.w3.org/2000/svg" xmlns:xlink="http://www.w3.org/1999/xlink" x="0px" y="0px"
	 viewBox="0 0 500 500" style="enable-background:new 0 0 500 500;" xml:space="preserve">
<style type="text/css">
	.st0{fill:none;}
</style>
<g>
	<path class="st0" d="M334,287.2c-21,26.6-53.5,43.8-90,43.8c-36.9,0-69.8-17.6-90.7-44.8l-5.4,2.3l-1.3-3.1l4.6-2
		c-13.6-18.8-21.7-42-21.7-66.9c0-63.1,51.4-114.5,114.5-114.5c32.9,0,62.5,13.9,83.4,36.2h50.5v-12.4c0-23.9-19.4-43.3-43.3-43.3
		H153.4c-23.9,0-43.3,19.4-43.3,43.3v238.3h267.8v-76.9H334z M170,360.2h-39v-21h39V360.2z M217.8,360.2h-39v-21h39V360.2z
		 M226.5,360.2v-21h39v21H226.5z M313.2,360.2h-39v-21h39V360.2z M361,360.2h-39v-21h39V360.2z"/>
	<path d="M238.9,105.3c-0.2,0-0.4,0-0.6,0l0,0C238.5,105.3,238.7,105.3,238.9,105.3z"/>
	<path d="M321.2,141c-0.8-0.9-1.7-1.8-2.6-2.8h-0.2C319.4,139.1,320.3,140,321.2,141z"/>
	<polygon points="304.3,138.2 282.1,128.8 280.8,131.9 300,140.1 304,141.8 305.3,138.6 	"/>
	<rect x="208.2" y="291.3" transform="matrix(0.3939 -0.9191 0.9191 0.3939 -152.1446 377.1643)" width="3.4" height="25.3"/>
	<rect x="149.9" y="233.2" transform="matrix(0.7217 -0.6922 0.6922 0.7217 -125.9317 172.5473)" width="3.4" height="19.4"/>
	<rect x="337.4" y="178.7" transform="matrix(0.916 -0.4013 0.4013 0.916 -48.262 152.1561)" width="3.4" height="25.2"/>
	<path d="M317.5,160.4l1.3,3.1l14.5-6.2c-0.6-1-1.2-2-1.8-2.9L317.5,160.4z"/>
	<path d="M333.4,157.3l0.8-0.3c-0.6-1-1.3-1.9-2-2.9l-0.6,0.3C332.2,155.4,332.8,156.3,333.4,157.3z"/>
	<path d="M429.2,338.6c-9.1,0-16.5,7.4-16.5,16.5v25.7H404v-93.6h15v-149h-15v-15h-12.1c-1.4-30.5-26.6-54.8-57.3-54.8H153.4
		c-31.7,0-57.4,25.8-57.4,57.4v255h-8.7v-25.7c0-9.1-7.4-16.5-16.5-16.5c-9.1,0-16.5,7.4-16.5,16.5v60c0,9.1,7.4,16.5,16.5,16.5
		c9.1,0,16.5-7.4,16.5-16.5v-25.8H96v8.8h308v-8.8h8.7v25.8c0,9.1,7.4,16.5,16.5,16.5c9.1,0,16.5-7.4,16.5-16.5v-60
		C445.7,346,438.3,338.6,429.2,338.6z M377.9,138.2h-50.5C306.5,115.9,276.9,102,244,102c-63.1,0-114.5,51.4-114.5,114.5
		c0,25,8,48.1,21.7,66.9l-4.6,2l1.3,3.1l5.4-2.3c21,27.2,53.8,44.8,90.7,44.8c36.4,0,69-17.2,90-43.8h43.9v76.9H110.1V125.8
		c0-23.9,19.4-43.3,43.3-43.3h181.2c23.9,0,43.3,19.4,43.3,43.3V138.2z M169.8,275.4l-12.6,5.4c-13.4-18-21.3-40.3-21.3-64.3
		c0-0.9,0-1.9,0-2.8l36.3,36.3c7.9,16.8,21.5,30.4,38.2,38.2l33.2,33.2c26.8-0.7,53.3-11.2,73.7-31.6c0.9-0.9,1.7-1.7,2.5-2.6
		c18.8-20,28.5-45.5,29.1-71.1l-33.5-33.5c-3.9-8.2-9.2-15.7-15.6-22.1c-6.4-6.4-13.9-11.7-22.1-15.6l-36.5-36.5c0.9,0,1.7,0,2.6,0
		c28.8,0,55,11.3,74.4,29.8h0.2c0.9,0.9,1.7,1.8,2.6,2.8c4,4.1,7.7,8.5,11,13.2c0.7,0.9,1.3,1.9,2,2.9
		c11.3,17.1,17.9,37.5,17.9,59.5c0,27-10,51.7-26.4,70.7c-19.8,22.9-49.1,37.4-81.7,37.4c-30.8,0-58.6-13-78.3-33.7
		c-2.2-2.3-4.3-4.8-6.3-7.3l11.8-5.1L169.8,275.4z"/>
	<rect x="131" y="339.2" width="39" height="21"/>
	<rect x="178.8" y="339.2" width="39" height="21"/>
	<rect x="226.5" y="339.2" width="39" height="21"/>
	<rect x="274.2" y="339.2" width="39" height="21"/>
	<rect x="322" y="339.2" width="39" height="21"/>
</g>
</svg>
