<?xml version="1.0" encoding="utf-8"?>
<!-- Generator: Adobe Illustrator 24.3.0, SVG Export Plug-In . SVG Version: 6.00 Build 0)  -->
<svg version="1.1" id="Calque_1" xmlns="http://www.w3.org/2000/svg" xmlns:xlink="http://www.w3.org/1999/xlink" x="0px" y="0px"
	 viewBox="0 0 500 500" style="enable-background:new 0 0 500 500;" xml:space="preserve">
<path d="M349.4,96.1H412v-19H88v19h61.2c-11.6,14.4-22.1,33.2-28.8,55.9c-11.5,38.9-14.2,100.6,22.4,180h-27.6l76,91h40l-35-91
	h-20.1c-39.1-77.2-37.5-135.8-27-171.5c10.9-36.6,32.4-57.6,44.3-64.4h111.8c-11.6,14.4-22.1,33.2-28.8,55.9
	c-11.5,38.9-14.2,100.6,22.4,180h-27.6l76,91h40l-35-91h-20.1c-39.1-77.2-37.5-135.8-27-171.5C316,123.9,337.5,102.9,349.4,96.1z"/>
</svg>
