<?xml version="1.0" encoding="utf-8"?>
<!-- Generator: Adobe Illustrator 22.1.0, SVG Export Plug-In . SVG Version: 6.00 Build 0)  -->
<svg version="1.1" id="Calque_1" xmlns="http://www.w3.org/2000/svg" xmlns:xlink="http://www.w3.org/1999/xlink" x="0px" y="0px"
	 viewBox="0 0 500 500" style="enable-background:new 0 0 500 500;" xml:space="preserve">
<style type="text/css">
	.st0{fill:none;}
</style>
<g>
	<g>
		<rect x="180.2000275" y="194.7000427" class="st0" width="110.4000244" height="27.5"/>
		<rect x="59.5000114" y="158.1000061" class="st0" width="110.4000244" height="27.5"/>
		<rect x="180.2000275" y="158.1000061" class="st0" width="110.4000244" height="27.5"/>
		<rect x="59.5000114" y="194.7000427" class="st0" width="110.4000244" height="27.5"/>
		<rect x="301" y="158.1000061" class="st0" width="110.4000244" height="27.5"/>
		<rect x="301" y="194.7000427" class="st0" width="110.4000244" height="27.5"/>
		<path d="M422.6999512,281.8999939v-1.8999634c0-2.5-2-4.6000366-4.5998535-4.6000366h-5.7000732v-10H420.5h6.3000488v-23
			V131.7000427H420.5h-9.0999756v16.3999634H59.5000114v-16.3999634H51.099987h-5.0999756v110.6999512v23h5.0999756h9.2000122
			v38.7999878h21.3136024c2.3355103-7.0639038,6.3045654-13.55896,11.6864014-18.999939
			c9.2000122-9.2999878,21.5-14.4000244,34.6000366-14.4000244c21.5527954,0,39.8192139,14.0003662,46.2344971,33.3999634
			h124.5309296c6.4152832-19.3995972,24.6817017-33.3999634,46.2345581-33.3999634
			c21.5527954,0,39.8192139,14.0003662,46.2344971,33.3999634h21.2655029v-3.7999878h5.7000732
			c2.5,0,4.5998535-2,4.5998535-4.5999756v-2.6000366H474v-11.2999878H422.6999512z M169.9000397,222.2000427H59.5000114v-27.5
			h110.4000244V222.2000427z M169.9000397,185.6000061H59.5000114v-27.5h110.4000244V185.6000061z M290.6000366,222.2000427
			H180.2000275v-27.5h110.4000092V222.2000427z M290.6000366,185.6000061H180.2000275v-27.5h110.4000092V185.6000061z
			 M411.4000244,222.2000427H301v-27.5h110.4000244V222.2000427z M411.4000244,185.6000061H301v-27.5h110.4000244V185.6000061z"/>
	</g>
	<path d="M344.9000549,274.8000183c-24.5999756,0-44.7000732,20.0999756-44.7000732,44.7000122
		c0,24.5999756,20.1000977,44.7000122,44.7000732,44.7000122s44.7000732-20.1000366,44.7000732-44.7000122
		C389.6001282,294.8999939,369.5000305,274.8000183,344.9000549,274.8000183z M344.9000549,345.3000183
		c-14.2999268,0-25.7999268-11.6000366-25.7999268-25.7999878c0-14.2000122,11.5-25.7999878,25.7999268-25.7999878
		s25.7999268,11.5999756,25.7999268,25.7999878C370.6999817,333.8000183,359.1000061,345.3000183,344.9000549,345.3000183z"/>
	<path d="M127.9000854,274.8000183c-24.5999756,0-44.7000732,20.0999756-44.7000732,44.7000122
		c0,24.5999756,20.1000977,44.7000122,44.7000732,44.7000122s44.7000732-20.1000366,44.7000732-44.7000122
		C172.6001587,294.8999939,152.500061,274.8000183,127.9000854,274.8000183z M127.9000854,345.3000183
		c-14.2999268,0-25.7999268-11.6000366-25.7999268-25.7999878c0-14.2000122,11.5-25.7999878,25.7999268-25.7999878
		s25.7999268,11.5999756,25.7999268,25.7999878C153.7000122,333.8000183,142.1000366,345.3000183,127.9000854,345.3000183z"/>
</g>
</svg>
