<?xml version="1.0" encoding="utf-8"?>
<!-- Generator: Adobe Illustrator 24.3.0, SVG Export Plug-In . SVG Version: 6.00 Build 0)  -->
<svg version="1.1" id="Calque_1" xmlns="http://www.w3.org/2000/svg" xmlns:xlink="http://www.w3.org/1999/xlink" x="0px" y="0px"
	 viewBox="0 0 1000 1000" style="enable-background:new 0 0 1000 1000;" xml:space="preserve">
<g>
	<path d="M286.8,613.1l-8-25.4c-0.6-2.2-2.8-3.8-5.2-3.8s-4.4,1.4-5.2,3.8l-8.2,25.8c0,0.2,0,0.4-0.2,0.4c-0.4,1.4-0.6,2.8-0.6,4.2
		c0,7.6,6.4,14,14,14s14-6.4,14-14c0-1.4-0.2-2.6-0.6-4C287,613.9,286.8,613.5,286.8,613.1z"/>
	<path d="M286.8,685.9l-8-25.4c-0.6-2.2-2.8-3.8-5.2-3.8s-4.4,1.4-5.2,3.8l-8.2,25.8c0,0.2,0,0.4-0.2,0.4c-0.4,1.4-0.6,2.8-0.6,4.2
		c0,7.6,6.4,14,14,14s14-6.4,14-14c0-1.4-0.2-2.6-0.6-4C287,686.5,286.8,686.1,286.8,685.9z"/>
	<path d="M286.8,755.7l-8-25.4c-0.6-2.2-2.8-3.8-5.2-3.8s-4.4,1.4-5.2,3.8l-8.2,25.8c0,0.2,0,0.4-0.2,0.4c-0.4,1.4-0.6,2.8-0.6,4.2
		c0,7.6,6.4,14,14,14s14-6.4,14-14c0-1.4-0.2-2.6-0.6-4C287,756.3,286.8,755.9,286.8,755.7z"/>
	<path d="M286.8,825.5l-8-25.4c-0.6-2.2-2.8-3.8-5.2-3.8s-4.4,1.4-5.2,3.8l-8.2,25.8c0,0.2,0,0.4-0.2,0.4c-0.4,1.4-0.6,2.8-0.6,4.2
		c0,7.6,6.4,14,14,14s14-6.4,14-14c0-1.4-0.2-2.6-0.6-4C287,826.1,286.8,825.9,286.8,825.5z"/>
	<path d="M221.8,578.3c-2.2-1.2-4.6-0.6-6.4,1l-19,19.2c-0.2,0.2-0.2,0.2-0.4,0.4c-1,1-1.8,2.2-2.4,3.4c-3.4,6.8-0.8,15.4,6,18.8
		c6.8,3.4,15.4,0.8,18.8-6c0.6-1.2,1-2.4,1.4-3.8c0.2-0.2,0.2-0.6,0.2-1l4.6-26.4C225,581.5,224,579.3,221.8,578.3z"/>
	<path d="M188.4,642.9c-2.2-1.2-4.6-0.6-6.4,1l-19.2,19.2c-0.2,0.2-0.2,0.2-0.4,0.4c-1,1-1.8,2.2-2.4,3.4c-3.4,6.8-0.8,15.4,6,18.8
		c6.8,3.4,15.4,0.8,18.8-6c0.6-1.2,1-2.4,1.4-3.8c0.4-0.4,0.4-0.8,0.4-1l4.6-26.4C191.6,646.1,190.6,643.9,188.4,642.9z"/>
	<path d="M156.2,704.9c-2.2-1.2-4.6-0.6-6.4,1l-19.2,19.2c-0.2,0.2-0.2,0.2-0.4,0.4c-1,1-1.8,2.2-2.4,3.4c-3.4,6.8-0.8,15.4,6,18.8
		c6.8,3.4,15.4,0.8,18.8-6c0.6-1.2,1-2.4,1.4-3.8c0.2-0.4,0.4-0.8,0.4-1l4.6-26.4C159.4,708.1,158.4,705.9,156.2,704.9z"/>
	<path d="M124,766.9c-2.2-1.2-4.6-0.6-6.4,1l-19.2,19.2c-0.2,0.2-0.2,0.2-0.4,0.4c-1,1-1.8,2.2-2.4,3.4c-3.4,6.8-0.8,15.4,6,18.8
		c6.8,3.4,15.4,0.8,18.8-6c0.6-1.2,1-2.4,1.4-3.8c0.2-0.6,0.4-1,0.4-1l4.6-26.4C127.2,770.1,126.2,767.9,124,766.9z"/>
	<path d="M351.6,598.9c-0.2-0.2-0.2-0.2-0.4-0.4L332,579.3c-1.8-1.6-4.2-2.2-6.4-1c-2.2,1-3.2,3.2-2.8,5.6l4.6,26.4
		c0,0.4,0,0.8,0.4,1c0.4,1.4,0.8,2.6,1.4,3.8c3.4,6.8,12,9.4,18.8,6s9.4-12,6-18.8C353.4,601.1,352.6,599.9,351.6,598.9z"/>
	<path d="M387.4,666.9c-0.6-1.2-1.4-2.4-2.4-3.4c-0.2-0.2-0.2-0.2-0.4-0.4l-19.2-19.2c-1.8-1.6-4.2-2.2-6.4-1
		c-2.2,1-3.2,3.2-2.8,5.6l4.6,26.4c0,0.2,0,0.6,0.4,1c0.4,1.4,0.8,2.6,1.4,3.8c3.4,6.8,12,9.4,18.8,6
		C388.2,682.3,390.8,673.7,387.4,666.9z"/>
	<path d="M419.6,728.9c-0.6-1.2-1.4-2.4-2.4-3.4c-0.2-0.2-0.2-0.2-0.4-0.4l-19.2-19.2c-1.8-1.6-4.2-2.2-6.4-1
		c-2.2,1-3.2,3.2-2.8,5.6l4.6,26.4c0,0.2,0.2,0.6,0.4,1c0.4,1.4,0.8,2.6,1.4,3.8c3.4,6.8,12,9.4,18.8,6
		C420.4,744.3,423,735.7,419.6,728.9z"/>
	<path d="M449.4,787.5c-0.2-0.2-0.2-0.2-0.4-0.4l-19.2-19.2c-1.8-1.6-4.2-2.2-6.4-1c-2.2,1-3.2,3.2-2.8,5.6l4.6,26.4
		c0,0,0,0.4,0.4,1c0.4,1.4,0.8,2.6,1.4,3.8c3.4,6.8,12,9.4,18.8,6s9.4-12,6-18.8C451.2,789.7,450.4,788.5,449.4,787.5z"/>
	<path d="M739.8,613.3l-8.2-25.8c-0.6-2.4-2.8-3.8-5.2-3.8s-4.4,1.6-5.2,3.8l-8,25.6c0,0.4-0.2,0.6,0,0.8c-0.4,1.4-0.6,2.6-0.6,4
		c0,7.6,6.4,14,14,14s14-6.4,14-14c0-1.4-0.2-2.8-0.6-4.2C739.8,613.7,739.8,613.5,739.8,613.3z"/>
	<path d="M739.8,686.1l-8.2-25.8c-0.6-2.4-2.8-3.8-5.2-3.8s-4.4,1.6-5.2,3.8l-8,25.6c0,0.4-0.2,0.6,0,0.8c-0.4,1.4-0.6,2.6-0.6,4
		c0,7.6,6.4,14,14,14s14-6.4,14-14c0-1.4-0.2-2.8-0.6-4.2C739.8,686.5,739.8,686.3,739.8,686.1z"/>
	<path d="M739.8,755.9l-8.2-25.8c-0.6-2.4-2.8-3.8-5.2-3.8s-4.4,1.6-5.2,3.8l-8,25.6c0,0.4-0.2,0.6,0,0.8c-0.4,1.4-0.6,2.6-0.6,4
		c0,7.6,6.4,14,14,14s14-6.4,14-14c0-1.4-0.2-2.8-0.6-4.2C739.8,756.3,739.8,756.1,739.8,755.9z"/>
	<path d="M739.8,825.7l-8.2-25.8c-0.6-2.4-2.8-3.8-5.2-3.8s-4.4,1.6-5.2,3.8l-8,25.6c0,0.4-0.2,0.6,0,0.8c-0.4,1.4-0.6,2.6-0.6,4
		c0,7.6,6.4,14,14,14s14-6.4,14-14c0-1.4-0.2-2.8-0.6-4.2C739.8,826.1,739.8,825.9,739.8,825.7z"/>
	<path d="M804,598.7c-0.2-0.2-0.2-0.2-0.4-0.4l-19-19.2c-1.6-1.6-4.2-2.2-6.4-1c-2.2,1-3.2,3.4-2.8,5.6l4.6,26.6
		c0,0.4,0,0.6,0.2,0.8c0.4,1.4,0.6,2.6,1.4,3.8c3.4,6.8,12,9.4,18.8,6s9.4-12,6-18.8C805.8,600.9,805,599.7,804,598.7z"/>
	<path d="M840,666.7c-0.6-1.2-1.4-2.4-2.4-3.4c-0.2-0.2-0.2-0.2-0.4-0.4L818,643.7c-1.6-1.6-4.2-2.2-6.4-1c-2.2,1-3.2,3.4-2.8,5.6
		l4.6,26.6c0,0.4,0,0.6,0.4,0.8c0.4,1.4,0.6,2.6,1.4,3.8c3.4,6.8,12,9.4,18.8,6C840.8,682.1,843.4,673.5,840,666.7z"/>
	<path d="M872.2,728.7c-0.6-1.2-1.4-2.4-2.4-3.4c-0.2-0.2-0.2-0.2-0.4-0.4l-19.2-19.2c-1.6-1.6-4.2-2.2-6.4-1
		c-2.2,1-3.2,3.4-2.8,5.6l4.6,26.6c0,0.4,0.2,0.6,0.4,0.8c0.4,1.4,0.6,2.6,1.4,3.8c3.4,6.8,12,9.4,18.8,6
		C873,744.1,875.6,735.5,872.2,728.7z"/>
	<path d="M904.4,790.7c-0.6-1.2-1.4-2.4-2.4-3.4c-0.2-0.2-0.2-0.2-0.4-0.4l-19.2-19.2c-1.6-1.6-4.2-2.2-6.4-1
		c-2.2,1-3.2,3.4-2.8,5.6l4.6,26.6c0,0.2,0.2,0.4,0.4,0.8c0.4,1.4,0.6,2.6,1.4,3.8c3.4,6.8,12,9.4,18.8,6
		C905.2,806.1,907.8,797.5,904.4,790.7z"/>
	<path d="M674.4,578.1c-2.2-1.2-4.8-0.6-6.4,1l-19.2,19.2c-0.2,0.2-0.2,0.2-0.4,0.4c-1,1-1.8,2.2-2.4,3.4c-3.4,6.8-0.8,15.4,6,18.8
		c6.8,3.4,15.4,0.8,18.8-6c0.8-1.2,1-2.4,1.4-3.8c0.4-0.2,0.4-0.4,0.4-0.8l4.6-26.6C677.6,581.5,676.6,579.1,674.4,578.1z"/>
	<path d="M641,642.7c-2.2-1.2-4.8-0.6-6.4,1l-19.2,19.2c-0.2,0.2-0.2,0.2-0.4,0.4c-1,1-1.8,2.2-2.4,3.4c-3.4,6.8-0.8,15.4,6,18.8
		c6.8,3.4,15.4,0.8,18.8-6c0.8-1.2,1-2.4,1.4-3.8c0.4-0.2,0.4-0.4,0.4-0.8l4.6-26.6C644.2,646.1,643.2,643.7,641,642.7z"/>
	<path d="M608.8,704.7c-2.2-1.2-4.8-0.6-6.4,1l-19.2,19.2c-0.2,0.2-0.2,0.2-0.4,0.4c-1,1-1.8,2.2-2.4,3.4c-3.4,6.8-0.8,15.4,6,18.8
		c6.8,3.4,15.4,0.8,18.8-6c0.8-1.2,1-2.4,1.4-3.8c0.2-0.2,0.4-0.4,0.4-0.8l4.6-26.6C612,708.1,611,705.7,608.8,704.7z"/>
	<path d="M576.6,766.7c-2.2-1.2-4.8-0.6-6.4,1L551,786.9c-0.2,0.2-0.2,0.2-0.4,0.4c-1,1-1.8,2.2-2.4,3.4c-3.4,6.8-0.8,15.4,6,18.8
		c6.8,3.4,15.4,0.8,18.8-6c0.8-1.2,1-2.4,1.4-3.8c0.2-0.4,0.4-0.6,0.4-0.8l4.6-26.6C579.8,770.1,578.8,767.7,576.6,766.7z"/>
	<path d="M800.8,508.5v-29.2c0-4.6-3.6-8.4-8.4-8.4H904v-38l0,0h-50l-322.2-120l320.4-119.4h51.6v-38h-808v38h61.6l320.4,119.4
		l-322.2,120h-60v38h112c-4.6,0-8.4,3.6-8.4,8.4v29.4c0,4.6,3.6,8.4,8.4,8.4h27.2c4.6,0,8.4,3.6,8.4,8.4v24.4c0,4.6,3.6,8.4,8.4,8.4
		h43.6c4.6,0,8.4-3.6,8.4-8.4v-24.6c0-4.6,3.6-8.4,8.4-8.4h27.2c4.6,0,8.4-3.6,8.4-8.4v-29.2c-0.4-4.6-4-8.4-8.8-8.4h321.6
		c-4.6,0-8.4,3.8-8.4,8.4v29.4c0,4.6,3.6,8.4,8.4,8.4h27.2c4.6,0,8.4,3.6,8.4,8.4v24.4c0,4.6,3.6,8.4,8.4,8.4H748
		c4.6,0,8.4-3.6,8.4-8.4v-24.6c0-4.6,3.6-8.4,8.4-8.4H792C797,516.9,800.8,513.3,800.8,508.5z M211.4,193.5h587.2L505,302.9
		L211.4,193.5z M209.8,432.9l295.2-110l295.2,110H209.8z"/>
</g>
</svg>
