<?xml version="1.0" encoding="utf-8"?>
<!-- Generator: Adobe Illustrator 24.3.0, SVG Export Plug-In . SVG Version: 6.00 Build 0)  -->
<svg version="1.1" id="Calque_1" xmlns="http://www.w3.org/2000/svg" xmlns:xlink="http://www.w3.org/1999/xlink" x="0px" y="0px"
	 viewBox="0 0 1000 1000" style="enable-background:new 0 0 1000 1000;" xml:space="preserve">
<style type="text/css">
	.st0{fill:none;}
</style>
<g>
	<path class="st0" d="M624.1,657.8l-0.4-15.6h-14.8C614.5,647,619.5,652.4,624.1,657.8z"/>
	<path class="st0" d="M251.5,680c-0.4-0.4-0.8-1-1-1.4h-3.4l1,50.4h59C281.5,719.6,266.3,699.6,251.5,680z"/>
	<path class="st0" d="M257.3,678.6c19.8,26.2,39,50.2,82.2,50.2v0.2h30.8l-1-50.4H257.3z"/>
	<path class="st0" d="M496.3,657.8l-0.4-15.6h-14.8C486.7,647,491.7,652.4,496.3,657.8z"/>
	<polygon class="st0" points="499.9,282.6 396.1,509.6 603.5,509.6 	"/>
	<path class="st0" d="M496.7,673l-0.2-6.4c-7.2-8.8-14.8-17.2-24.2-24.4h-98.4l0.4,22.8c2,2.6,4.2,5.2,6.2,8L496.7,673L496.7,673z"
		/>
	<path class="st0" d="M379.1,680c-0.4-0.4-0.8-1-1-1.4h-3.2l1,50.4h58.6C409.1,719.6,393.9,699.6,379.1,680z"/>
	<path class="st0" d="M369.1,673l-0.2-6.2c-7.2-9-15-17.4-24.4-24.6h-98.4l0.4,22.6c2.2,2.8,4.2,5.4,6.4,8.2H369.1z"/>
	<path class="st0" d="M368.7,658l-0.4-15.8h-15C358.9,647,364.1,652.4,368.7,658z"/>
	<path class="st0" d="M240.9,657.8l-0.4-15.6h-14.8C231.3,647,236.3,652.4,240.9,657.8z"/>
	<path class="st0" d="M129.5,678.6c19.8,26.2,39,50.2,82.2,50.2c0,0,0,0,0,0.2h30.6l-1-50.4H129.5z"/>
	<path class="st0" d="M123.7,680c-0.4-0.4-0.8-1-1-1.4h-3.4l1,50.4h59C153.7,719.6,138.5,699.6,123.7,680z"/>
	<path class="st0" d="M241.3,673l-0.2-6.4c-7.2-8.8-14.8-17.2-24.2-24.4h-98.4v3l0.4,19.8c2.2,2.6,4.2,5.4,6.4,8.2h116V673z"/>
	<path class="st0" d="M762.3,680c-0.4-0.4-0.8-1-1-1.4h-3.4l1,50.4h58.8C792.3,719.6,777.1,699.6,762.3,680z"/>
	<path class="st0" d="M752.3,673l-0.2-6.2c-7.2-9-15-17.4-24.4-24.6h-98.4l0.4,22.6c2.2,2.8,4.2,5.4,6.4,8.2H752.3z"/>
	<path class="st0" d="M634.7,680c-0.4-0.4-0.8-1-1-1.4h-3.4l1,50.4h59C664.7,719.6,649.5,699.6,634.7,680z"/>
	<path class="st0" d="M880.1,673l-0.2-6.2c-7.2-9-15-17.4-24.4-24.6h-98.4l0.4,22.8c2,2.6,4.2,5.2,6.2,8H880.1z"/>
	<path class="st0" d="M640.5,678.6c19.8,26.2,39,50.2,82.2,50.2v0.2h30.6l-1-50.4H640.5z"/>
	<path class="st0" d="M384.9,678.6c19.8,26.2,39,50.2,82.2,50.2v0.2h30.6l-1-50.4H384.9z"/>
	<path class="st0" d="M768.1,678.6c19.8,26.2,39,50.2,82.2,50.2v0.2h31l-1-50.4H768.1z"/>
	<path class="st0" d="M506.9,680c-0.4-0.4-0.8-1-1-1.4h-3.4l1,50.4h59C536.9,719.6,521.7,699.6,506.9,680z"/>
	<path class="st0" d="M751.9,658l-0.4-15.8h-15C742.1,647,747.3,652.4,751.9,658z"/>
	<path class="st0" d="M624.5,673l-0.2-6.4c-7.2-8.8-14.8-17.2-24.2-24.4h-98.6l0.4,22.6c2.2,2.8,4.2,5.4,6.4,8.2L624.5,673
		L624.5,673z"/>
	<path class="st0" d="M879.7,658l-0.4-15.8h-15C869.9,647.2,875.1,652.4,879.7,658z"/>
	<path class="st0" d="M512.7,678.6c19.8,26.2,39,50.2,82.2,50.2v0.2h30.6l-1-50.4H512.7z"/>
	<path d="M925.3,629.2c-11.6,0-21,9.4-21,21V683h-7.8v-40.8v-52.8v-79.8H625.9l-104.6-229h3.2v-28.2h-49.4v28.2h3.2l-104.6,229
		H103.3v80v52.6v40.6h-7.8v-32.4c0-11.6-9.4-21-21-21s-21,9.4-21,21v76.2c0,11.6,9.4,21,21,21s21-9.4,21-21v-33h18.4l0.8,38h0.2v3
		h772.2v-2.8l0,0v-1.2V729l0,0l-0.8-35.4h18.2v32.8c0,11.6,9.4,21,21,21s21-9.4,21-21v-76.2C946.3,638.6,936.9,629.2,925.3,629.2z
		 M368.3,642.2l0.4,15.8c-4.8-5.6-9.8-11-15.4-15.8H368.3z M240.7,642.2l0.4,15.6c-4.6-5.6-9.6-10.8-15.2-15.6H240.7z M118.5,645.2
		v-3h98.4c9.2,7,17,15.6,24.2,24.4l0.2,6.4h-116c-2-2.8-4.2-5.4-6.4-8.2L118.5,645.2z M120.1,729l-1-50.4h3.4c0.4,0.4,0.8,1,1,1.4
		c14.8,19.6,30,39.6,55.4,49H120.1z M211.7,729C211.7,728.8,211.7,728.8,211.7,729c-43.2-0.2-62.4-24.2-82.2-50.4h111.8l1,50.4
		H211.7z M246.3,642.2h98.4c9.4,7.2,17.2,15.6,24.4,24.6l0.2,6.2h-116c-2-2.8-4.2-5.4-6.4-8.2L246.3,642.2z M247.9,729l-1-50.4h3.4
		c0.4,0.4,0.8,1,1,1.4c14.8,19.6,30,39.6,55.4,49H247.9z M339.5,729L339.5,729c-43.2-0.2-62.4-24.2-82.2-50.4h112l1,50.4H339.5z
		 M623.9,642.2l0.4,15.6c-4.6-5.4-9.6-10.8-15.2-15.6H623.9z M499.9,282.6l103.8,227H396.1L499.9,282.6z M496.3,657.8
		c-4.6-5.4-9.6-10.8-15.2-15.6h14.8L496.3,657.8z M373.9,642.2h98.4c9.2,7,17,15.6,24.2,24.4l0.2,6.4h-116c-2-2.6-4-5.4-6.2-8
		L373.9,642.2z M375.9,729l-1-50.4h3.2c0.4,0.4,0.8,1,1,1.4c14.8,19.6,30,39.6,55.4,49H375.9z M467.1,729L467.1,729
		c-43.2-0.2-62.4-24.2-82.2-50.4h111.8l1,50.4H467.1z M501.7,642.2h98.6c9.2,7,17,15.6,24.2,24.4l0.2,6.4h-116
		c-2-2.8-4.2-5.4-6.4-8.2L501.7,642.2z M503.3,729l-1-50.4h3.4c0.4,0.4,0.8,1,1,1.4c14.8,19.6,30,39.6,55.4,49H503.3z M594.9,729
		L594.9,729c-43.2-0.2-62.4-24.2-82.2-50.4h111.8l1,50.4H594.9z M879.5,642.2l0.4,15.8c-4.8-5.6-9.8-11-15.4-15.8H879.5z
		 M751.7,642.2l0.4,15.8c-4.8-5.6-9.8-11-15.4-15.8H751.7z M629.5,642.2h98.4c9.4,7.2,17.2,15.6,24.4,24.6l0.2,6.2h-116
		c-2-2.8-4.2-5.4-6.4-8.2L629.5,642.2z M631.1,729l-1-50.4h3.4c0.4,0.4,0.8,1,1,1.4c14.8,19.6,30,39.6,55.4,49H631.1z M722.7,729
		L722.7,729c-43.2-0.2-62.4-24.2-82.2-50.4h111.8l1,50.4H722.7z M757.3,642.2h98.4c9.4,7.2,17.2,15.6,24.4,24.6l0.2,6.2H763.9
		c-2-2.6-4-5.4-6.2-8L757.3,642.2z M758.9,729l-1-50.4h3.2c0.4,0.4,0.8,1,1,1.4c14.8,19.6,30,39.6,55.4,49H758.9z M850.3,729
		L850.3,729c-43.2-0.2-62.4-24.2-82.2-50.4h112.2l1,50.4H850.3z"/>
</g>
</svg>
