<?xml version="1.0" encoding="utf-8"?>
<!-- Generator: Adobe Illustrator 22.1.0, SVG Export Plug-In . SVG Version: 6.00 Build 0)  -->
<svg version="1.1" id="Calque_1" xmlns="http://www.w3.org/2000/svg" xmlns:xlink="http://www.w3.org/1999/xlink" x="0px" y="0px"
	 viewBox="0 0 500 500" style="enable-background:new 0 0 500 500;" xml:space="preserve">
<g>
	<g>
		<g>
			<path d="M95,82.5l6.1,24.9h12.7v82.2c-18.3,5.4-32.3,13.9-45.7,22.3l7.8,11.2c19.6-14.7,43.8-23.2,69.9-23.2
				c64.3,0,116.4,52.1,116.4,115.9c0,2.7,0,5.1-0.2,7.8h43.8c11.7-23,35.9-38.9,63.6-38.9c37.9,0,69,29.6,71.2,67h16.6v-68h-38.9
				l5.6-64.3l-69.9-8.6v-98.3h-20.8v99h-48.9l-31.8-104.2h12l8.6-24.9H95z M254.4,211.9l-25.9,2c-23.7-20.8-55.8-26.9-86.3-27.6
				v-78.7h84.1L254.4,211.9z M145.8,212.3c-23.5,0-45,7.6-62.8,20.8c-0.2,0.2-0.7,0.5-1,0.7c-1.2,0.7-2.4,1.7-3.4,2.7
				c-21.8,18.8-35.7,46.5-35.7,77.8c0,58,48.2,103.2,103.7,103.2c46,0,86.6-30.8,99.3-74.3c0.2-0.5,0.2-0.7,0.5-1.2
				c0.2-0.2,0.2-0.5,0.2-0.7c2-8.1,3.2-16.6,3.2-25.2C249.8,258.6,203.3,212.3,145.8,212.3L145.8,212.3z M146.8,273
				c26.4,0,42.1,19.6,42.1,41.3c0,21.8-15.6,41.3-42.1,41.3s-42.1-19.6-42.1-41.3C104.8,292.5,120.4,273,146.8,273L146.8,273z"/>
		</g>
		<path d="M308.4,356.6c0,33.5,27.4,60.9,60.9,60.9s60.9-27.4,60.9-60.9s-27.1-60.9-60.9-60.9C335.8,295.7,308.4,323.1,308.4,356.6z
			 M337.3,356.6c0-17.6,14.4-32,32-32s32,14.4,32,32c0,17.6-14.4,32-32,32S337.3,374.2,337.3,356.6z"/>
	</g>
</g>
</svg>
