<?xml version="1.0" encoding="utf-8"?>
<!-- Generator: Adobe Illustrator 24.3.0, SVG Export Plug-In . SVG Version: 6.00 Build 0)  -->
<svg version="1.1" id="Calque_1" xmlns="http://www.w3.org/2000/svg" xmlns:xlink="http://www.w3.org/1999/xlink" x="0px" y="0px"
	 viewBox="0 0 1000 1000" style="enable-background:new 0 0 1000 1000;" xml:space="preserve">
<path d="M925.5,629.2c-11.6,0-21,9.4-21,21V683h-7.8V509.6H626.1l-104.6-229h3.2v-28.2h-49.4v28.2h3l-104.6,229H103.5v173.2h-7.8
	v-32.4c0-11.6-9.4-21-21-21s-21,9.4-21,21v76.2c0,11.6,9.4,21,21,21s21-9.4,21-21v-33h23V642h98.2l-63.8,18l22,77.8l9.6-3l-19.2-68
	l87.8-24.8h55.4l-63.8,18l22,77.8l9.6-3l-19.2-68l87.8-24.8h55.4l-63.8,18l22,77.8l9.6-3l-19.2-68l87.6-24.8h55.6l-63.8,18
	l21.8,77.8l9.6-3l-19.2-68l87.8-24.8h55.4l-63.8,18l22,77.8l9.6-3l-19.2-68l87.8-24.8h55.4l-63.8,18l22,77.8l9.6-3l-19.2-68
	l87.8-24.8h55.4l-63.8,18l22,77.8l9.6-3l-19.2-68l87.6-24.8h55.6l-64,18l21.8,77.8l9.6-3l-19.2-68l73.8-20.8v47.6h23v32.8
	c0,11.6,9.4,21,21,21s21-9.4,21-21v-76.2C946.5,638.6,937.1,629.2,925.5,629.2z M499.9,282.4l103.8,227.2H396.1L499.9,282.4z"/>
</svg>
