<?xml version="1.0" encoding="utf-8"?>
<!-- Generator: Adobe Illustrator 24.3.0, SVG Export Plug-In . SVG Version: 6.00 Build 0)  -->
<svg version="1.1" id="Calque_1" xmlns="http://www.w3.org/2000/svg" xmlns:xlink="http://www.w3.org/1999/xlink" x="0px" y="0px"
	 viewBox="0 0 500 500" style="enable-background:new 0 0 500 500;" xml:space="preserve">
<path d="M418.2,282.6c-13.7,0-24.8,11.1-24.8,24.8v38.8h-13.8l-0.9-268.3H120.4V346h-13.8v-38.6c0-13.7-11.1-24.8-24.8-24.8
	C68.1,282.7,57,293.8,57,307.5v90c0,13.6,11.1,24.7,24.8,24.7c13.6,0,24.8-11.1,24.8-24.8v-38.6h15.3c5,18.4,21.8,32,41.7,32h172.8
	c19.9,0,36.6-13.5,41.7-31.8h15.3v38.4c0,13.7,11.1,24.8,24.8,24.8S443,411,443,397.4v-90C443,293.7,431.9,282.6,418.2,282.6z
	 M244.4,137c-28.1-0.7-42.1-6.6-43.6-15c-1.5-8.4,16.9-19.2,43.6-26.7V137z M244.4,250.5c-28.1-0.6-42.1-6.5-43.6-15
	c-1.5-8.4,16.9-19.2,43.6-26.7V250.5z M255.7,277.7c28.1,0.7,42,6.5,43.5,15c1.5,8.4-16.8,19.2-43.5,26.7V277.7z M255.7,164.1
	c28.1,0.7,42,6.5,43.5,15c1.5,8.4-16.8,19.2-43.5,26.7V164.1z M138,346.3V87.8h106.4v6.6c-3.4,0.4-6.8,1-10.3,1.6
	c-37.8,6.8-61.7,21.3-65.1,31.4c-6,17.8,35.9,35.9,75.4,36.6V208c-3.4,0.4-6.8,1-10.3,1.6c-37.8,6.8-61.7,21.3-65.1,31.4
	c-6,17.8,35.9,35.9,75.4,36.6V330h-36.7v16.4H138z M362,346.3h-69.7V330h-36.6v-9.7c3.4-0.4,6.8-1,10.2-1.6
	c37.8-6.8,61.7-21.3,65.1-31.4c6-17.7-35.8-35.8-75.3-36.6v-44c3.4-0.4,6.8-1,10.2-1.6c37.8-6.8,61.7-21.3,65.1-31.4
	c6-17.7-35.8-35.8-75.3-36.6V87.8H362V346.3z"/>
</svg>
