<?xml version="1.0" encoding="utf-8"?>
<!-- Generator: Adobe Illustrator 24.3.0, SVG Export Plug-In . SVG Version: 6.00 Build 0)  -->
<svg version="1.1" id="Calque_1" xmlns="http://www.w3.org/2000/svg" xmlns:xlink="http://www.w3.org/1999/xlink" x="0px" y="0px"
	 viewBox="0 0 1000 1000" style="enable-background:new 0 0 1000 1000;" xml:space="preserve">
<style type="text/css">
	.st0{fill:none;}
</style>
<g>
	<path class="st0" d="M632,667.9l-0.4-16.6h-15.7C621.8,656.4,627.1,662.1,632,667.9z"/>
	<path class="st0" d="M235.6,691.5c-0.4-0.4-0.9-1.1-1.1-1.5H231l1.1,53.6h62.8C267.6,733.6,251.4,712.3,235.6,691.5z"/>
	<path class="st0" d="M241.8,690c21.1,27.9,41.5,53.4,87.4,53.4v0.2H362L361,690H241.8z"/>
	<path class="st0" d="M496.1,667.9l-0.4-16.6h-15.7C485.9,656.4,491.2,662.1,496.1,667.9z"/>
	<polygon class="st0" points="499.9,268.7 389.5,510.2 610.1,510.2 	"/>
	<path class="st0" d="M496.5,684l-0.2-6.8c-7.7-9.4-15.7-18.3-25.7-26H365.9l0.4,24.3c2.1,2.8,4.5,5.5,6.6,8.5L496.5,684L496.5,684z
		"/>
	<path class="st0" d="M371.4,691.5c-0.4-0.4-0.9-1.1-1.1-1.5h-3.4l1.1,53.6h62.3C403.3,733.6,387.1,712.3,371.4,691.5z"/>
	<path class="st0" d="M360.7,684l-0.2-6.6c-7.7-9.6-16-18.5-26-26.2H229.9l0.4,24c2.3,3,4.5,5.7,6.8,8.7H360.7z"/>
	<path class="st0" d="M360.3,668.1l-0.4-16.8h-16C349.9,656.4,355.4,662.1,360.3,668.1z"/>
	<path class="st0" d="M224.4,667.9l-0.4-16.6h-15.7C214.1,656.4,219.5,662.1,224.4,667.9z"/>
	<path class="st0" d="M105.9,690c21.1,27.9,41.5,53.4,87.4,53.4c0,0,0,0,0,0.2h32.6l-1.1-53.6H105.9z"/>
	<path class="st0" d="M99.7,691.5c-0.4-0.4-0.9-1.1-1.1-1.5H95l1.1,53.6h62.8C131.6,733.6,115.4,712.3,99.7,691.5z"/>
	<path class="st0" d="M224.8,684l-0.2-6.8c-7.7-9.4-15.7-18.3-25.7-26H94.1v3.2l0.4,21.1c2.3,2.8,4.5,5.7,6.8,8.7h123.4L224.8,684
		L224.8,684z"/>
	<path class="st0" d="M779,691.5c-0.4-0.4-0.9-1.1-1.1-1.5h-3.6l1.1,53.6H838C811,733.6,794.8,712.3,779,691.5z"/>
	<path class="st0" d="M768.4,684l-0.2-6.6c-7.7-9.6-16-18.5-26-26.2H637.6l0.4,24c2.3,3,4.5,5.7,6.8,8.7H768.4z"/>
	<path class="st0" d="M643.3,691.5c-0.4-0.4-0.9-1.1-1.1-1.5h-3.6l1.1,53.6h62.8C675.2,733.6,659,712.3,643.3,691.5z"/>
	<path class="st0" d="M904.4,684l-0.2-6.6c-7.7-9.6-16-18.5-26-26.2H773.5l0.4,24.3c2.1,2.8,4.5,5.5,6.6,8.5H904.4z"/>
	<path class="st0" d="M649.5,690c21.1,27.9,41.5,53.4,87.4,53.4v0.2h32.6l-1.1-53.6H649.5z"/>
	<path class="st0" d="M377.6,690c21.1,27.9,41.5,53.4,87.4,53.4v0.2h32.6l-1.1-53.6H377.6z"/>
	<path class="st0" d="M785.2,690c21.1,27.9,41.5,53.4,87.4,53.4v0.2h33l-1.1-53.6H785.2z"/>
	<path class="st0" d="M507.3,691.5c-0.4-0.4-0.9-1.1-1.1-1.5h-3.6l1.1,53.6h62.8C539.3,733.6,523.1,712.3,507.3,691.5z"/>
	<path class="st0" d="M768,668.1l-0.4-16.8h-16C757.6,656.4,763.1,662.1,768,668.1z"/>
	<path class="st0" d="M632.4,684l-0.2-6.8c-7.7-9.4-15.7-18.3-25.7-26H501.6l0.4,24c2.3,3,4.5,5.7,6.8,8.7L632.4,684L632.4,684z"/>
	<path class="st0" d="M903.9,668.1l-0.4-16.8h-16C893.5,656.6,899,662.1,903.9,668.1z"/>
	<path class="st0" d="M513.5,690c21.1,27.9,41.5,53.4,87.4,53.4v0.2h32.6l-1.1-53.6H513.5z"/>
	<path d="M952.4,637.4c-12.3,0-22.3,10-22.3,22.3v34.9h-8.3v-43.4v-56.2v-84.9H633.9L522.7,266.6h3.4v-30h-52.6v30h3.4L365.6,510.2
		H78v85.1v56v43.2h-8.3V660c0-12.3-10-22.3-22.3-22.3S25,647.7,25,660v81.1c0,12.3,10,22.3,22.3,22.3s22.3-10,22.3-22.3V706h19.6
		l0.9,40.4h0.2v3.2h821.5v-3l0,0v-1.3v-1.7l0,0L911,706h19.4v34.9c0,12.3,10,22.3,22.3,22.3c12.3,0,22.3-10,22.3-22.3v-81.1
		C974.8,647.4,964.8,637.4,952.4,637.4z M359.9,651.3l0.4,16.8c-5.1-6-10.4-11.7-16.4-16.8H359.9z M224.1,651.3l0.4,16.6
		c-4.9-6-10.2-11.5-16.2-16.6H224.1z M94.1,654.5v-3.2h104.7c9.8,7.4,18.1,16.6,25.7,26l0.2,6.8H101.4c-2.1-3-4.5-5.7-6.8-8.7
		L94.1,654.5z M95.9,743.6L94.8,690h3.6c0.4,0.4,0.9,1.1,1.1,1.5c15.7,20.9,31.9,42.1,58.9,52.1H95.9z M193.3,743.6
		C193.3,743.4,193.3,743.4,193.3,743.6c-46-0.2-66.4-25.7-87.4-53.6h118.9l1.1,53.6H193.3z M230.1,651.3h104.7
		c10,7.7,18.3,16.6,26,26.2l0.2,6.6H237.6c-2.1-3-4.5-5.7-6.8-8.7L230.1,651.3z M231.8,743.6l-1.1-53.6h3.6c0.4,0.4,0.9,1.1,1.1,1.5
		c15.7,20.9,31.9,42.1,58.9,52.1H231.8z M329.3,743.6L329.3,743.6c-46-0.2-66.4-25.7-87.4-53.6H361l1.1,53.6H329.3z M631.8,651.3
		l0.4,16.6c-4.9-5.7-10.2-11.5-16.2-16.6H631.8z M499.9,268.7l110.4,241.5H389.5L499.9,268.7z M496.1,667.9
		c-4.9-5.7-10.2-11.5-16.2-16.6h15.7L496.1,667.9z M365.9,651.3h104.7c9.8,7.4,18.1,16.6,25.7,26l0.2,6.8H373.1
		c-2.1-2.8-4.3-5.7-6.6-8.5L365.9,651.3z M368,743.6l-1.1-53.6h3.4c0.4,0.4,0.9,1.1,1.1,1.5c15.7,20.9,31.9,42.1,58.9,52.1H368z
		 M465,743.6L465,743.6c-46-0.2-66.4-25.7-87.4-53.6h118.9l1.1,53.6H465z M501.8,651.3h104.9c9.8,7.4,18.1,16.6,25.7,26l0.2,6.8
		H509.3c-2.1-3-4.5-5.7-6.8-8.7L501.8,651.3z M503.5,743.6l-1.1-53.6h3.6c0.4,0.4,0.9,1.1,1.1,1.5c15.7,20.9,31.9,42.1,58.9,52.1
		H503.5z M601,743.6L601,743.6c-46-0.2-66.4-25.7-87.4-53.6h118.9l1.1,53.6H601z M903.7,651.3l0.4,16.8c-5.1-6-10.4-11.7-16.4-16.8
		H903.7z M767.8,651.3l0.4,16.8c-5.1-6-10.4-11.7-16.4-16.8H767.8z M637.8,651.3h104.7c10,7.7,18.3,16.6,26,26.2l0.2,6.6H645.2
		c-2.1-3-4.5-5.7-6.8-8.7L637.8,651.3z M639.5,743.6l-1.1-53.6h3.6c0.4,0.4,0.9,1.1,1.1,1.5c15.7,20.9,31.9,42.1,58.9,52.1H639.5z
		 M736.9,743.6L736.9,743.6c-46-0.2-66.4-25.7-87.4-53.6h118.9l1.1,53.6H736.9z M773.7,651.3h104.7c10,7.7,18.3,16.6,26,26.2
		l0.2,6.6H780.7c-2.1-2.8-4.3-5.7-6.6-8.5L773.7,651.3z M775.4,743.6l-1.1-53.6h3.4c0.4,0.4,0.9,1.1,1.1,1.5
		c15.7,20.9,31.9,42.1,58.9,52.1H775.4z M872.7,743.6L872.7,743.6c-46-0.2-66.4-25.7-87.4-53.6h119.4l1.1,53.6H872.7z"/>
</g>
</svg>
