<?xml version="1.0" encoding="utf-8"?>
<!-- Generator: Adobe Illustrator 24.3.0, SVG Export Plug-In . SVG Version: 6.00 Build 0)  -->
<svg version="1.1" id="Calque_1" xmlns="http://www.w3.org/2000/svg" xmlns:xlink="http://www.w3.org/1999/xlink" x="0px" y="0px"
	 viewBox="0 0 500 500" style="enable-background:new 0 0 500 500;" xml:space="preserve">
<path d="M462.7,314.6c-5.8,0-10.5,4.7-10.5,10.5v16.4h-3.9v-20.4v-26.4v-39.9H313l-52.3-114.5h1.6v-14.1h-24.7v14.1h1.6l-52.3,114.5
	H51.7v40v26.3v20.3h-3.9v-16.2c0-5.8-4.7-10.5-10.5-10.5s-10.5,4.7-10.5,10.5v38.1c0,5.8,4.7,10.5,10.5,10.5s10.5-4.7,10.5-10.5
	v-16.5h3.9v0.1h7.6v-25.8h67.5v9.2c-6.7-1.7-12.8-3.9-17.9-6.4l-7.5-1l-3.3,3.8c5.2,10.6-4.1,21.4-24.5,28.1l-2.7,3.3l9.4,1.3
	c25.1-2.1,51,1.7,67.6,9.7l9.3,1.3l3-3.4c-5.5-10.6,4.1-21.6,24.6-28.4l3-3.5l-7.5-1c-16.4,1.5-33.4,0.5-48-2.5v-10.5h115v11.1
	c-13.4,0.7-27.3-0.2-39.9-2.6l-7.8,0.4l1,3.9c16,8.5,19.2,19.9,8.1,29.6l1,3.4l9.8-0.5c20.5-6.1,48-7.5,71.3-3.3l9.8-0.5l-0.9-3.1
	c-16.1-8.5-19.4-20-8.1-29.9l-1-3.8l-8,0.4c-8.8,2.9-19.1,4.7-29.8,5.6v-10.7h114.7v8.9c-6.4-1.7-12.2-3.9-17-6.5l-7.3-1l-3.4,3.8
	c5,10.6-4.7,21.2-25.4,28.1l-2.9,3.3l9.2,1.3c25.1-1.8,51,2.1,67.3,10.1l9.3,1.3l2.9-3.4c-5.1-10.6,4.7-21.4,25.5-28.2l3.3-3.5
	l-7.5-1.2c-16.8,1.5-33.9,0.4-48.5-2.8v-10.2h67.7v25.7h4.5v0.1h7v16.3c0,5.8,4.7,10.5,10.5,10.5s10.5-4.7,10.5-10.5v-38.1
	C473.2,319.3,468.5,314.6,462.7,314.6z M250,141.3l51.9,113.5H198.1L250,141.3z"/>
</svg>
