<?xml version="1.0" encoding="utf-8"?>
<!-- Generator: Adobe Illustrator 24.3.0, SVG Export Plug-In . SVG Version: 6.00 Build 0)  -->
<svg version="1.1" id="Calque_1" xmlns="http://www.w3.org/2000/svg" xmlns:xlink="http://www.w3.org/1999/xlink" x="0px" y="0px"
	 viewBox="0 0 1000 1000" style="enable-background:new 0 0 1000 1000;" xml:space="preserve">
<g>
	<path d="M317.3,676.6c0-9.4-7.6-17-17-17h-31.6v-1.2l38.2-98.2c5.8-2.6,9.8-8.6,10-15.4c0-4.6-1.8-9-5-12h353c-3,3-5,7.4-5,12
		c0,6.8,4,12.8,9.8,15.4l37.6,96.6v2.8h-31c-9.4,0-17,7.6-17,17s7.6,17,17,17h86c9.4,0,17-7.6,17-17s-7.6-17-17-17h-30.4v-1.4l38-98
		c6-2.6,10-8.6,10-15.6c0-4.6-1.8-9-5-12h58.4c10.4,0,19-8.6,19-19s-8.6-19-19-19H731.9v-34h40.4l80-200v-80l-40-62.8h-648l-40,63
		v80l80,200h40.4v34H143.3c-10.4,0-19,8.6-19,19c0,10.4,8.6,19,19,19h58.6c-3,3-5,7.4-5,12c0,6.8,4,12.6,9.8,15.4l38,98v1.4h-30.4
		c-9.4,0-17,7.6-17,17s7.6,17,17,17h86C309.7,693.6,317.3,686,317.3,676.6z M268.7,460.8h438.6v34H268.7V460.8z"/>
	<circle cx="776.1" cy="727.2" r="4.6"/>
	<circle cx="898.1" cy="732" r="4.6"/>
	<circle cx="684.1" cy="777.2" r="4.6"/>
	<circle cx="806.3" cy="715.6" r="4.6"/>
	<circle cx="787.7" cy="698.2" r="4.6"/>
	<circle cx="799.3" cy="671.4" r="4.6"/>
	<circle cx="817.9" cy="693.6" r="4.6"/>
	<circle cx="871.3" cy="690" r="4.6"/>
	<circle cx="653.9" cy="765.6" r="4.6"/>
	<circle cx="680.7" cy="749.4" r="4.6"/>
	<circle cx="756.3" cy="744.8" r="4.6"/>
	<circle cx="723.7" cy="740" r="4.6"/>
	<circle cx="723.7" cy="778.4" r="4.6"/>
	<circle cx="835.3" cy="720.2" r="4.6"/>
	<path d="M786.5,755.2c2.6,0,4.6-2,4.6-4.6c0-0.2,0-0.6,0-0.8c1.4-1.2,2.2-3.2,2.2-5.2c0-3.8-3.2-7-7-7s-7,3.2-7,7
		c0,2.2,1,4.2,2.6,5.4c0,0.2,0,0.4,0,0.6C781.9,753.2,783.9,755.2,786.5,755.2z"/>
	<circle cx="838.9" cy="678.4" r="4.6"/>
	<circle cx="709.7" cy="758.6" r="4.6"/>
	<circle cx="603.9" cy="745.8" r="4.6"/>
	<circle cx="630.7" cy="750.6" r="4.6"/>
	<circle cx="743.5" cy="764.6" r="4.6"/>
	<circle cx="769.5" cy="770.8" r="4.6"/>
	<circle cx="844.7" cy="766" r="4.6"/>
	<path d="M752.3,788.6c2.6,0,4.6-2,4.6-4.6c0-1.8-1-3.2-2.4-4c1.2-1,2-2.6,2-4.2c0-3-2.6-5.6-5.6-5.6s-5.6,2.6-5.6,5.6
		c0,2.4,1.4,4.4,3.6,5.2c-0.8,0.8-1.2,1.8-1.2,3C747.7,786.6,749.7,788.6,752.3,788.6z"/>
	<circle cx="774.9" cy="754.6" r="5.6"/>
	<circle cx="893.5" cy="787" r="5.6"/>
	<circle cx="923.1" cy="760.2" r="5.6"/>
	<circle cx="663.5" cy="815.2" r="5.6"/>
	<path d="M811.7,746.2c2.6,0,4.8-1.8,5.4-4.2c0.6,0.2,1.2,0.4,2,0.4c2.6,0,4.6-2,4.6-4.6s-2-4.6-4.6-4.6c-1.8,0-3.6,1.2-4.2,2.8
		c-1-0.6-2-1-3.2-1c-3,0-5.6,2.6-5.6,5.6S808.7,746.2,811.7,746.2z"/>
	<circle cx="789.1" cy="719.4" r="5.6"/>
	<circle cx="803.1" cy="687" r="5.6"/>
	<circle cx="825.7" cy="713.8" r="5.6"/>
	<path d="M890.7,715.2c3,0,5.6-2.6,5.6-5.6c0-0.2,0-0.6,0-0.8c0.4-0.6,0.6-1.6,0.6-2.4c0-2.6-2-4.6-4.6-4.6c-2,0-3.6,1.2-4.2,3
		c-1.8,1-3,2.8-3,4.8C885.1,712.6,887.7,715.2,890.7,715.2z"/>
	<path d="M891.9,749c0-3-2.6-5.6-5.6-5.6c-1.4,0-2.6,0.4-3.6,1.2c-0.2,0-0.6,0-0.8,0c-3.2,0-5.8,2.2-6.6,5c-0.4-0.2-1-0.2-1.6-0.2
		c-2.6,0-4.6,2-4.6,4.6s2,4.6,4.6,4.6c1.4,0,2.8-0.6,3.6-1.8c1.2,1,2.8,1.8,4.6,1.8c3,0,5.4-1.8,6.4-4.4
		C890.5,753.4,891.9,751.4,891.9,749z"/>
	<circle cx="626.9" cy="801.2" r="5.6"/>
	<circle cx="659.3" cy="781.4" r="5.6"/>
	<circle cx="711.5" cy="770.2" r="5.6"/>
	<circle cx="711.5" cy="816.6" r="5.6"/>
	<path d="M851.9,743.8c0.4-0.8,0.8-1.6,0.8-2.6c0-2.6-2-4.6-4.6-4.6s-4.6,2-4.6,4.6c0,0.2,0,0.4,0,0.6c-1.4,1-2.2,2.6-2.2,4.4
		c0,3,2.6,5.6,5.6,5.6s5.6-2.6,5.6-5.6C852.5,745.4,852.3,744.6,851.9,743.8z"/>
	<circle cx="827.1" cy="767.4" r="5.6"/>
	<path d="M787.7,788.4c3,0,5.6-2.6,5.6-5.6c0-0.6-0.2-1-0.2-1.6c0.6,0.2,1.2,0.4,1.8,0.4c2.6,0,4.6-2,4.6-4.6s-2-4.6-4.6-4.6
		s-4.6,2-4.6,4.6c0,0.4,0,0.6,0,1c-0.8-0.4-1.8-0.8-2.6-0.8c-3,0-5.6,2.6-5.6,5.6S784.7,788.4,787.7,788.4z"/>
	<path d="M845.5,695.4c0,1.6,0.8,3,1.8,4c-0.8,0.8-1.4,2-1.4,3.4c0,2.6,2,4.6,4.6,4.6s4.6-2,4.6-4.6c0-1-0.4-2-1-2.8
		c1.6-1,2.6-2.8,2.6-4.6c0-3-2.6-5.6-5.6-5.6S845.5,692.4,845.5,695.4z"/>
	<circle cx="694.5" cy="792.8" r="5.6"/>
	<circle cx="566.3" cy="777.2" r="5.6"/>
	<circle cx="598.7" cy="782.8" r="5.6"/>
	<path d="M867.9,771.6c0-3-2.6-5.6-5.6-5.6s-5.6,2.6-5.6,5.6c-2.8,1-4.8,3.6-4.8,6.6c0,3.8,3.2,7,7,7s7-3.2,7-7c0-0.8-0.2-1.4-0.4-2
		C866.9,775.2,867.9,773.4,867.9,771.6z"/>
	<circle cx="735.5" cy="800" r="5.6"/>
	<circle cx="766.9" cy="807.6" r="5.6"/>
	<circle cx="797.9" cy="815" r="5.6"/>
	<circle cx="858.3" cy="801.6" r="5.6"/>
	<path d="M746.1,818c-0.4,0-0.8,0-1.2,0.2c0.4-0.8,0.6-1.8,0.6-2.8c0-3.8-3.2-7-7-7s-7,3.2-7,7s3.2,7,7,7c0.8,0,1.6-0.2,2.2-0.4
		c-0.2,0.6-0.2,1-0.2,1.6c0,3,2.6,5.6,5.6,5.6s5.6-2.6,5.6-5.6S749.1,818,746.1,818z"/>
	<circle cx="768.5" cy="788.8" r="7"/>
	<circle cx="917.3" cy="829.6" r="7"/>
	<circle cx="954.3" cy="796" r="7"/>
	<circle cx="628.7" cy="865" r="7"/>
	<path d="M821.5,771.2c0-2-0.8-3.8-2.2-5.2c1.2-0.8,1.8-2.2,1.8-3.6c0-2.6-2-4.6-4.6-4.6s-4.6,2-4.6,4.6c0,0.8,0.2,1.4,0.6,2.2
		c-2.8,0.8-5,3.6-5,6.6c0,3.8,3.2,7,7,7S821.5,775,821.5,771.2z"/>
	<circle cx="803.9" cy="703.8" r="7"/>
	<circle cx="945.5" cy="757" r="7"/>
	<circle cx="832.3" cy="737.6" r="7"/>
	<path d="M913.7,739.2c3.8,0,7-3.2,7-7c0,0,0,0,0-0.2c0.6-0.8,0.8-1.8,0.8-2.8c0-3-2.6-5.6-5.6-5.6c-1.6,0-3.2,0.8-4.2,2
		c-2.8,0.8-5,3.6-5,6.6C906.7,736,909.9,739.2,913.7,739.2z"/>
	<circle cx="908.3" cy="781.8" r="7"/>
	<circle cx="582.7" cy="847.2" r="7"/>
	<circle cx="623.5" cy="822.4" r="7"/>
	<circle cx="688.9" cy="808.2" r="7"/>
	<circle cx="688.9" cy="866.6" r="7"/>
	<path d="M834.1,797.8c-2,0-3.8,0.8-5,2.2c0.4-0.8,0.6-1.6,0.6-2.6c0-3-2.6-5.6-5.6-5.6s-5.6,2.6-5.6,5.6s2.6,5.6,5.6,5.6
		c1.6,0,3-0.6,4-1.6c-0.6,1-1,2.2-1,3.4c0,3.8,3.2,7,7,7s7-3.2,7-7S837.9,797.8,834.1,797.8z"/>
	<circle cx="784.5" cy="824.2" r="7"/>
	<path d="M861.3,721c-1,1-1.6,2.4-1.6,4c0,3,2.6,5.6,5.6,5.6c2.6,0,5-2,5.4-4.4c1-0.8,1.8-2.2,1.8-3.6c0-1.8-1-3.4-2.6-4.2
		c0.8-1.2,1.2-2.4,1.2-3.8c0-3.8-3.2-7-7-7s-7,3.2-7,7C857.1,717.4,858.9,720,861.3,721z"/>
	<circle cx="667.7" cy="836.6" r="7"/>
	<circle cx="506.7" cy="817.2" r="7"/>
	<circle cx="547.3" cy="824.2" r="7"/>
	<circle cx="878.3" cy="810" r="7"/>
	<circle cx="718.9" cy="845.8" r="7"/>
	<circle cx="830.3" cy="842.4" r="7"/>
	<circle cx="758.5" cy="855.2" r="7"/>
	<circle cx="797.5" cy="864.6" r="7"/>
	<circle cx="873.1" cy="847.8" r="7"/>
	<circle cx="732.3" cy="875.2" r="7"/>
	<path d="M319.7,727.2c0-2.6-2-4.6-4.6-4.6s-4.6,2-4.6,4.6s2,4.6,4.6,4.6S319.7,729.8,319.7,727.2z"/>
	<path d="M437.1,736.6c2.6,0,4.6-2,4.6-4.6s-2-4.6-4.6-4.6s-4.6,2-4.6,4.6S434.5,736.6,437.1,736.6z"/>
	<path d="M227.7,777.2c0-2.6-2-4.6-4.6-4.6s-4.6,2-4.6,4.6s2,4.6,4.6,4.6S227.7,779.8,227.7,777.2z"/>
	<circle cx="345.3" cy="715.6" r="4.6"/>
	<circle cx="326.7" cy="698.2" r="4.6"/>
	<circle cx="338.3" cy="671.4" r="4.6"/>
	<path d="M431.3,701.8c-1.8,0-3.6,1.2-4.2,2.8c-1.8,1-3.2,2.8-3.2,5c0,3,2.6,5.6,5.6,5.6s5.6-2.6,5.6-5.6c0-0.2,0-0.4,0-0.6
		c0.6-0.8,0.8-1.6,0.8-2.6C435.9,703.8,433.9,701.8,431.3,701.8z"/>
	<path d="M356.9,689c-2.6,0-4.6,2-4.6,4.6s2,4.6,4.6,4.6s4.6-2,4.6-4.6S359.5,689,356.9,689z"/>
	<circle cx="410.3" cy="690" r="4.6"/>
	<path d="M197.5,765.6c0-2.6-2-4.6-4.6-4.6s-4.6,2-4.6,4.6s2,4.6,4.6,4.6S197.5,768.2,197.5,765.6z"/>
	<circle cx="219.7" cy="749.4" r="4.6"/>
	<circle cx="295.3" cy="744.8" r="4.6"/>
	<circle cx="262.7" cy="740" r="4.6"/>
	<circle cx="262.7" cy="778.4" r="4.6"/>
	<circle cx="374.3" cy="720.2" r="4.6"/>
	<path d="M325.5,755.2c2.6,0,4.6-2,4.6-4.6c0-0.2,0-0.6,0-0.8c1.4-1.2,2.2-3.2,2.2-5.2c0-3.8-3.2-7-7-7s-7,3.2-7,7
		c0,2.2,1,4.2,2.6,5.4c0,0.2,0,0.4,0,0.6C320.9,753.2,322.9,755.2,325.5,755.2z"/>
	<path d="M382.5,678.4c0-2.6-2-4.6-4.6-4.6s-4.6,2-4.6,4.6s2,4.6,4.6,4.6C380.5,683,382.5,681,382.5,678.4z"/>
	<circle cx="248.7" cy="758.6" r="4.6"/>
	<path d="M142.9,741.2c-2.6,0-4.6,2-4.6,4.6s2,4.6,4.6,4.6s4.6-2,4.6-4.6S145.5,741.2,142.9,741.2z"/>
	<circle cx="169.7" cy="750.6" r="4.6"/>
	<path d="M287.1,764.6c0-2.6-2-4.6-4.6-4.6s-4.6,2-4.6,4.6s2,4.6,4.6,4.6C285.1,769.2,287.1,767.2,287.1,764.6z"/>
	<circle cx="308.3" cy="770.8" r="4.6"/>
	<circle cx="383.7" cy="766" r="4.6"/>
	<path d="M291.3,788.6c2.6,0,4.6-2,4.6-4.6c0-1.8-1-3.2-2.4-4c1.2-1,2-2.6,2-4.2c0-3-2.6-5.6-5.6-5.6s-5.6,2.6-5.6,5.6
		c0,2.4,1.4,4.4,3.6,5.2c-0.8,0.8-1.2,1.8-1.2,3C286.7,786.6,288.7,788.6,291.3,788.6z"/>
	<path d="M319.5,754.6c0-3-2.6-5.6-5.6-5.6s-5.6,2.6-5.6,5.6s2.6,5.6,5.6,5.6C316.9,760.2,319.5,757.6,319.5,754.6z"/>
	<path d="M432.5,781.4c-3,0-5.6,2.6-5.6,5.6s2.6,5.6,5.6,5.6s5.6-2.6,5.6-5.6S435.5,781.4,432.5,781.4z"/>
	<path d="M462.1,754.6c-3,0-5.6,2.6-5.6,5.6s2.6,5.6,5.6,5.6s5.6-2.6,5.6-5.6S465.1,754.6,462.1,754.6z"/>
	<path d="M208.1,815.2c0-3-2.6-5.6-5.6-5.6s-5.6,2.6-5.6,5.6s2.6,5.6,5.6,5.6S208.1,818.2,208.1,815.2z"/>
	<path d="M398.7,725c0,3,2.6,5.6,5.6,5.6c2.6,0,5-2,5.4-4.4c1-0.8,1.8-2.2,1.8-3.6c0-1.8-1-3.4-2.6-4.2c0.8-1.2,1.2-2.4,1.2-3.8
		c0-3.8-3.2-7-7-7s-7,3.2-7,7c0,2.8,1.8,5.4,4.2,6.4C399.3,722,398.7,723.4,398.7,725z"/>
	<path d="M350.7,746.2c2.6,0,4.8-1.8,5.4-4.2c0.6,0.2,1.2,0.4,2,0.4c2.6,0,4.6-2,4.6-4.6s-2-4.6-4.6-4.6c-1.8,0-3.6,1.2-4.2,2.8
		c-1-0.6-2-1-3.2-1c-3,0-5.6,2.6-5.6,5.6S347.7,746.2,350.7,746.2z"/>
	<path d="M322.5,719.4c0,3,2.6,5.6,5.6,5.6s5.6-2.6,5.6-5.6s-2.6-5.6-5.6-5.6C325.1,713.8,322.5,716.4,322.5,719.4z"/>
	<path d="M336.5,687c0,3,2.6,5.6,5.6,5.6s5.6-2.6,5.6-5.6s-2.6-5.6-5.6-5.6C339.1,681.4,336.5,684,336.5,687z"/>
	<path d="M454.9,723.6c-1.6,0-3.2,0.8-4.2,2c-2.8,0.8-5,3.6-5,6.6c0,3.8,3.2,7,7,7s7-3.2,7-7c0,0,0,0,0-0.2c0.6-0.8,0.8-1.8,0.8-2.8
		C460.5,726.2,457.9,723.6,454.9,723.6z"/>
	<circle cx="364.7" cy="713.8" r="5.6"/>
	<path d="M430.9,749c0-3-2.6-5.6-5.6-5.6c-1.4,0-2.6,0.4-3.6,1.2c-0.2,0-0.6,0-0.8,0c-3.2,0-5.8,2.2-6.6,5c-0.4-0.2-1-0.2-1.6-0.2
		c-2.6,0-4.6,2-4.6,4.6s2,4.6,4.6,4.6c1.4,0,2.8-0.6,3.6-1.8c1.2,1,2.8,1.8,4.6,1.8c3,0,5.4-1.8,6.4-4.4
		C429.5,753.4,430.9,751.4,430.9,749z"/>
	<path d="M160.3,801.2c0,3,2.6,5.6,5.6,5.6s5.6-2.6,5.6-5.6s-2.6-5.6-5.6-5.6S160.3,798.2,160.3,801.2z"/>
	<circle cx="198.3" cy="781.4" r="5.6"/>
	<path d="M244.9,770.2c0,3,2.6,5.6,5.6,5.6s5.6-2.6,5.6-5.6s-2.6-5.6-5.6-5.6C247.5,764.6,244.9,767.2,244.9,770.2z"/>
	<path d="M256.1,816.6c0-3-2.6-5.6-5.6-5.6s-5.6,2.6-5.6,5.6s2.6,5.6,5.6,5.6C253.5,822.2,256.1,819.6,256.1,816.6z"/>
	<path d="M390.9,743.8c0.4-0.8,0.8-1.6,0.8-2.6c0-2.6-2-4.6-4.6-4.6s-4.6,2-4.6,4.6c0,0.2,0,0.4,0,0.6c-1.4,1-2.2,2.6-2.2,4.4
		c0,3,2.6,5.6,5.6,5.6s5.6-2.6,5.6-5.6C391.5,745.4,391.3,744.6,390.9,743.8z"/>
	<path d="M366.1,761.8c-3,0-5.6,2.6-5.6,5.6s2.6,5.6,5.6,5.6s5.6-2.6,5.6-5.6S369.1,761.8,366.1,761.8z"/>
	<path d="M326.7,788.4c3,0,5.6-2.6,5.6-5.6c0-0.6-0.2-1-0.2-1.6c0.6,0.2,1.2,0.4,1.8,0.4c2.6,0,4.6-2,4.6-4.6s-2-4.6-4.6-4.6
		s-4.6,2-4.6,4.6c0,0.4,0,0.6,0,1c-0.8-0.4-1.8-0.8-2.6-0.8c-3,0-5.6,2.6-5.6,5.6S323.7,788.4,326.7,788.4z"/>
	<path d="M395.7,695.4c0-3-2.6-5.6-5.6-5.6s-5.6,2.6-5.6,5.6c0,1.6,0.8,3,1.8,4c-0.8,0.8-1.4,2-1.4,3.4c0,2.6,2,4.6,4.6,4.6
		s4.6-2,4.6-4.6c0-1-0.4-2-1-2.8C394.7,699,395.7,697.4,395.7,695.4z"/>
	<path d="M233.5,787.2c-3,0-5.6,2.6-5.6,5.6s2.6,5.6,5.6,5.6s5.6-2.6,5.6-5.6S236.5,787.2,233.5,787.2z"/>
	<circle cx="105.3" cy="777.2" r="5.6"/>
	<circle cx="137.7" cy="782.8" r="5.6"/>
	<path d="M406.9,771.6c0-3-2.6-5.6-5.6-5.6s-5.6,2.6-5.6,5.6c-2.8,1-4.8,3.6-4.8,6.6c0,3.8,3.2,7,7,7s7-3.2,7-7c0-0.8-0.2-1.4-0.4-2
		C405.9,775.2,406.9,773.4,406.9,771.6z"/>
	<path d="M274.5,794.4c-3,0-5.6,2.6-5.6,5.6s2.6,5.6,5.6,5.6s5.6-2.6,5.6-5.6S277.5,794.4,274.5,794.4z"/>
	<path d="M305.9,802c-3,0-5.6,2.6-5.6,5.6s2.6,5.6,5.6,5.6s5.6-2.6,5.6-5.6S308.9,802,305.9,802z"/>
	<path d="M336.9,820.6c3,0,5.6-2.6,5.6-5.6s-2.6-5.6-5.6-5.6s-5.6,2.6-5.6,5.6S333.9,820.6,336.9,820.6z"/>
	<circle cx="397.3" cy="801.6" r="5.6"/>
	<path d="M285.1,818c-0.4,0-0.8,0-1.2,0.2c0.4-0.8,0.6-1.8,0.6-2.8c0-3.8-3.2-7-7-7s-7,3.2-7,7s3.2,7,7,7c0.8,0,1.6-0.2,2.2-0.4
		c-0.2,0.6-0.2,1-0.2,1.6c0,3,2.6,5.6,5.6,5.6s5.6-2.6,5.6-5.6S288.1,818,285.1,818z"/>
	<circle cx="307.5" cy="788.8" r="7"/>
	<circle cx="456.3" cy="829.6" r="7"/>
	<circle cx="493.3" cy="796" r="7"/>
	<circle cx="167.7" cy="865" r="7"/>
	<path d="M360.5,771.2c0-2-0.8-3.8-2.2-5.2c1.2-0.8,1.8-2.2,1.8-3.6c0-2.6-2-4.6-4.6-4.6s-4.6,2-4.6,4.6c0,0.8,0.2,1.4,0.6,2.2
		c-2.8,0.8-5,3.6-5,6.6c0,3.8,3.2,7,7,7C357.3,778.2,360.5,775,360.5,771.2z"/>
	<circle cx="342.9" cy="703.8" r="7"/>
	<circle cx="484.5" cy="757" r="7"/>
	<circle cx="371.3" cy="737.6" r="7"/>
	<circle cx="447.3" cy="781.8" r="7"/>
	<circle cx="121.7" cy="847.2" r="7"/>
	<circle cx="162.5" cy="822.4" r="7"/>
	<circle cx="227.9" cy="808.2" r="7"/>
	<circle cx="227.9" cy="866.6" r="7"/>
	<path d="M373.1,797.8c-2,0-3.8,0.8-5,2.2c0.4-0.8,0.6-1.6,0.6-2.6c0-3-2.6-5.6-5.6-5.6s-5.6,2.6-5.6,5.6s2.6,5.6,5.6,5.6
		c1.6,0,3-0.6,4-1.6c-0.6,1-1,2.2-1,3.4c0,3.8,3.2,7,7,7s7-3.2,7-7S376.9,797.8,373.1,797.8z"/>
	<circle cx="323.5" cy="824.2" r="7"/>
	<circle cx="206.7" cy="836.6" r="7"/>
	<circle cx="45.7" cy="817.2" r="7"/>
	<circle cx="86.3" cy="824.2" r="7"/>
	<circle cx="417.3" cy="810" r="7"/>
	<circle cx="257.9" cy="845.8" r="7"/>
	<circle cx="369.3" cy="842.4" r="7"/>
	<circle cx="297.5" cy="855.2" r="7"/>
	<circle cx="336.5" cy="864.6" r="7"/>
	<circle cx="412.1" cy="847.8" r="7"/>
	<circle cx="271.3" cy="875.2" r="7"/>
</g>
</svg>
