<?xml version="1.0" encoding="utf-8"?>
<!-- Generator: Adobe Illustrator 24.3.0, SVG Export Plug-In . SVG Version: 6.00 Build 0)  -->
<svg version="1.1" id="Calque_1" xmlns="http://www.w3.org/2000/svg" xmlns:xlink="http://www.w3.org/1999/xlink" x="0px" y="0px"
	 viewBox="0 0 1000 1000" style="enable-background:new 0 0 1000 1000;" xml:space="preserve">
<g>
	<path d="M229.4,834.6l-11.3-9.8c-3.9-3.3-7.4-6.7-11.1-10.2c-3.7-3.5-7.6-6.5-11.7-9.1c-4.1-2.6-8.5-5.2-13-7.4s-9.1-4.1-14.4-5.7
		l-0.4,1.3c2.6,4.6,5.9,8.5,9.1,12.4c3.5,3.7,7,7.4,10.7,10.7c3.5,3.3,7.6,6.3,11.7,8.9c4.1,2.6,8.5,5.2,12.6,8L224,842l12.4,8.3
		c8.3,5.2,16.7,10.7,25.2,15.9l0.9-1.1c-7.2-7-14.6-13.7-22-20.4L229.4,834.6z"/>
	<path d="M974.3,716.9c-8.5,5.2-16.7,10.4-25.2,15.9l-12.4,8.3l-12.4,8.3c-4.1,2.8-8.5,5.4-12.6,8c-4.1,2.6-8,5.7-11.7,8.9
		c-3.7,3.3-7.4,7-10.7,10.7c-3.3,3.7-6.5,7.8-9.1,12.4l0.2,0.4l-38.7-14.4c4.3-1.3,8.3-3,12.2-5c4.6-2.2,8.9-4.8,13-7.4
		c4.1-2.6,8-5.7,11.7-9.1c3.7-3.5,7.4-7,11.1-10.2l11.3-9.8l11.1-10c7.4-6.7,14.8-13.5,22-20.4l-0.9-1.1
		c-8.5,5.2-16.7,10.4-25.2,15.9l-12.4,8.3l-12.4,8.3c-4.1,2.8-8.5,5.4-12.6,8c-4.1,2.6-8,5.7-11.7,8.9c-3.7,3.3-7.4,7-10.7,10.7
		c-3.3,3.7-6.3,7.6-8.9,12.2l-209.7-78.1c40.9-9.4,66.8-23.1,66.8-38.3v-32.6c0-8.3-7.4-15.9-20.7-22.8l204.9-76.3l-6.5-17.6h-0.2
		l0.2-0.9c-2.6-4.6-5.9-8.5-9.1-12.4c-3.5-3.7-7-7.4-10.7-10.7c-3.5-3.3-7.6-6.3-11.7-8.9c-4.1-2.6-8.5-5.2-12.6-8l-12.4-8.3
		l-12.4-8.3c-8.3-5.2-16.7-10.7-25.2-15.9l-0.9,1.1c7.2,7,14.6,13.7,22,20.4l11.1,10l11.3,9.8c3.9,3.3,7.4,6.7,11.1,10.2
		c3.7,3.5,7.6,6.5,11.7,9.1c4.1,2.6,8.5,5.2,13,7.4c4.3,2.2,8.9,3.9,13.9,5.4l-223.6,83.3c-3.9-1.3-8.3-2.4-12.6-3.5
		c0-0.2,0-0.7-0.2-0.9v-18.7c0.2-0.7,0.2-1.3,0.2-2c0-11.1-19.4-20.9-49.8-27.4V416.8h308.8v-41.3H626.1L521.7,147.1h3v-28.1h-49.4
		v28.1h3.3L374.3,375.5H104.4v41.3h308.8v123.3c-30.4,6.5-49.8,16.3-49.8,27.4v21.5c-4.3,1.1-8.5,2.2-12.6,3.5L126.4,509l-6.5,17.4
		l-0.2-0.4c-5.2,1.3-9.8,3.5-14.4,5.7s-8.9,4.8-13,7.4c-4.1,2.6-8,5.7-11.7,9.1c-3.7,3.5-7.4,7-11.1,10.2l-11.3,9.8l-11.1,10
		c-7.4,6.7-14.8,13.5-22,20.4l1.1,0.9c8.5-5.2,16.7-10.4,25.2-15.9l12.4-8.3l12.4-8.3c4.1-2.8,8.5-5.4,12.6-8
		c4.1-2.6,8-5.7,11.7-8.9c3.7-3.3,7.4-7,10.7-10.7c3.3-3.7,6.5-7.8,9.1-12.4l-0.2-0.4l38.7,14.4c-4.3,1.3-8.3,3-12.2,5
		c-4.6,2.2-8.9,4.8-13,7.4c-4.1,2.6-8,5.7-11.7,9.1c-3.7,3.5-7.4,7-11.1,10.2l-11.3,9.8l-11.1,10c-7.4,6.7-14.8,13.5-22,20.4
		l0.9,1.1c8.5-5.2,16.7-10.4,25.2-15.9l12.4-8.3l12.4-8.3c4.1-2.8,8.5-5.4,12.6-8c4.1-2.6,8-5.7,11.7-8.9c3.7-3.3,7.4-7,10.7-10.7
		c3.3-3.7,6.3-7.6,8.9-12.2l163.6,60.9c-13.3,7-20.7,14.6-20.7,22.8v32.6c0,15.2,25.9,28.9,66.8,38.3l-251,93.5l6.5,17.6h0.2
		l-0.2,0.9c2.6,4.6,5.9,8.5,9.1,12.4c3.5,3.7,7,7.4,10.7,10.7c3.5,3.3,7.6,6.3,11.7,8.9c4.1,2.6,8.5,5.2,12.6,8l12.4,8.3l12.4,8.3
		c8.3,5.2,16.7,10.7,25.2,15.9l0.9-1.1c-7.2-7-14.6-13.7-22-20.4l-11.1-10l-11.3-9.8c-3.9-3.3-7.4-6.7-11.1-10.2s-7.6-6.5-11.7-9.1
		c-4.1-2.6-8.5-5.2-13-7.4c-4.3-2.2-8.9-3.9-13.9-5.4l279.5-104.2c27.8,3.9,59.6,6.1,93.3,6.1s65.7-2.2,93.3-6.1l280.3,104.4
		l6.5-17.2l0.2,0.4c5.2-1.3,9.8-3.5,14.4-5.7c4.6-2.2,8.9-4.8,13-7.4c4.1-2.6,8-5.7,11.7-9.1s7.4-7,11.1-10.2l11.3-9.8l11.1-10
		c7.4-6.7,14.8-13.5,22-20.4L974.3,716.9z M500.2,149.3l103.3,226.2H396.7L500.2,149.3z"/>
	<path d="M771,481.8l11.3,9.8c3.9,3.3,7.4,6.7,11.1,10.2s7.6,6.5,11.7,9.1c4.1,2.6,8.5,5.2,13,7.4s9.1,4.1,14.4,5.7l0.4-1.3
		c-2.6-4.6-5.9-8.5-9.1-12.4c-3.5-3.7-7-7.4-10.7-10.7c-3.5-3.3-7.6-6.3-11.7-8.9s-8.5-5.2-12.6-8l-12.4-8.3l-12.4-8.3
		c-8.3-5.2-16.7-10.7-25.2-15.9l-0.9,1.1c7.2,7,14.6,13.7,22,20.4L771,481.8z"/>
</g>
</svg>
