<?xml version="1.0" encoding="utf-8"?>
<!-- Generator: Adobe Illustrator 24.3.0, SVG Export Plug-In . SVG Version: 6.00 Build 0)  -->
<svg version="1.1" id="Calque_1" xmlns="http://www.w3.org/2000/svg" xmlns:xlink="http://www.w3.org/1999/xlink" x="0px" y="0px"
	 viewBox="0 0 1000 1000" style="enable-background:new 0 0 1000 1000;" xml:space="preserve">
<style type="text/css">
	.st0{fill:#FFFFFF;}
	.st1{fill:none;}
</style>
<g>
	<path d="M917.4,827.1c-31,0-56,25-56,56s25,56,56,56s56-25,56-56S948.2,827.1,917.4,827.1z M917.4,910.1c-15,0-27-12-27-27
		s12-27,27-27s27,12,27,27S932.2,910.1,917.4,910.1z"/>
	<g>
		<polygon class="st0" points="360,454.3 362.6,453.1 360,446.5 357.2,453.1 		"/>
		<polygon class="st0" points="360,465.1 357.2,466.1 360,472.7 362.6,466.1 		"/>
		<polygon class="st0" points="356.2,455.9 357.2,453.1 350.8,450.5 353.4,456.9 		"/>
		<polygon class="st0" points="363.8,463.5 362.6,466.1 369.2,468.9 366.4,462.3 		"/>
		<polygon class="st0" points="357.2,453.1 356.2,455.9 360,454.3 		"/>
		<polygon class="st0" points="362.6,466.1 363.8,463.5 360,465.1 		"/>
		<polygon class="st0" points="356.2,463.5 353.4,462.3 350.8,468.9 357.2,466.1 		"/>
		<polygon class="st0" points="363.8,455.9 366.4,456.9 369.2,450.5 362.6,453.1 		"/>
		<polygon class="st0" points="362.6,453.1 360,454.3 363.8,455.9 		"/>
		<polygon class="st0" points="357.2,466.1 360,465.1 356.2,463.5 		"/>
		<polygon class="st0" points="365.4,459.7 366.4,462.3 373,459.7 366.4,456.9 		"/>
		<polygon class="st0" points="354.6,459.7 353.4,456.9 346.8,459.7 353.4,462.3 		"/>
		<polygon class="st0" points="353.4,462.3 356.2,463.5 354.6,459.7 		"/>
		<polygon class="st0" points="366.4,456.9 363.8,455.9 365.4,459.7 		"/>
		<polygon class="st0" points="363.8,463.5 366.4,462.3 365.4,459.7 		"/>
		<polygon class="st0" points="353.4,456.9 354.6,459.7 356.2,455.9 		"/>
		<polygon class="st0" points="363.8,455.9 360,454.3 356.2,455.9 354.6,459.7 356.2,463.5 360,465.1 363.8,463.5 365.4,459.7 		"/>
	</g>
	<g>
		<path class="st1" d="M432.4,829.1c0,0.2,0,0.4-0.2,0.6C432.2,829.5,432.2,829.3,432.4,829.1z"/>
		<path class="st1" d="M431.2,836.3c0,0.6-0.2,1.4-0.2,2.2C431,837.7,431,836.9,431.2,836.3z"/>
		<path class="st1" d="M431.8,832.3c0,0.6-0.2,1-0.2,1.6C431.6,833.5,431.6,832.9,431.8,832.3z"/>
		<path class="st1" d="M430.6,840.3c0,0.8-0.2,1.8-0.2,2.6C430.6,842.1,430.6,841.3,430.6,840.3z"/>
		<path class="st1" d="M430.4,844.5c0,1.4-0.2,2.8-0.2,4.4C430.2,847.5,430.2,846.1,430.4,844.5z"/>
	</g>
	<g>
		<path d="M828,64.5h22.2c0.8,0,1.6-0.4,1.6-1.2v-0.8c0-1.2-0.8-1.6-1.6-1.6H828c-0.8,0-1.2,0.4-1.2,1.6v0.8
			C826.8,64.1,827.2,64.5,828,64.5z"/>
		<path d="M811.2,117.5l4.6-26l13.4-2.6v3.4h-2.6c-0.8,0-1.6,0.4-1.6,1.2v0.8c0,1.2,0.8,2,1.6,2h2.6v1.2h-2.6c-0.8,0-1.6,1.2-1.6,2
			v0.8c0,1.2,0.8,1.6,1.6,1.6h2.6v1.2h-2.6c-0.8,0-1.6,0.4-1.6,2v0.8c0,1.2,0.8,1.6,1.6,1.6h2.6v0.8h-2.6c-0.8,0-1.6,0.4-1.6,1.2
			v1.2c0,0.8,0.8,1.6,1.6,1.6h2.6v2h-2.6c-0.8,0-1.6,0.8-1.6,1.6v1.2c0,0.8,0.8,1.2,1.6,1.2h2.6v4.2l18.4-4.2h3.4
			c0.8,0,1.6-0.4,1.6-1.2v-1.2c0-0.8-0.8-1.6-1.6-1.6h-2v-2h2c0.8,0,1.6-0.8,1.6-1.6v-1.2c0-0.8-0.8-1.2-1.6-1.2h-2v-1.6h2
			c0.8,0,1.6-0.4,1.6-1.6v-0.8c0-1.6-0.8-2-1.6-2h-2v-1.2h2c0.8,0,1.6-0.4,1.6-1.6v-0.8c0-0.8-0.8-2-1.6-2h-2v-1.2h2
			c0.8,0,1.6-0.8,1.6-2v-0.8c0-0.8-0.8-1.2-1.6-1.2h-2v-3.4l13.4,2.6l3.4,20.4l11.8-3.4l-5.8-26l-22.6-5.6v-8h-20v8l-23,6.2
			l-7.6,35.2v20.8l0,0h12.6V117.5z"/>
		<path d="M944.6,108.7l-6.2,2l0.4-13.4l-119.6,32l0.4,13h-42.2l-8.4-15.8l-36.4-1.2l11.2,26.8l36.8,0.4h39.2v12.6l9.6-2v19.2
			l-13.4-2.6l-4.8-25h-12.6l7.6,34.6l23,6.2v8h20v-8l23-6.2l5.8-27.2l-12.8,2.2l-2.6,15.8l-13.4,2.6v-23l29.6-5.4v-16.4l33.4-8.8
			l0.8,14.6l33.4-9.2c3.4-1.2,5-3,5-6.6v-14.6C951.2,109.1,948.6,107.1,944.6,108.7z"/>
		<path d="M859.6,645.3V323.1H871v-51.8h-13v-0.8v-1.2c0-2-1.2-3-2.4-3h-5.4v-2h5.4c1.2,0,2.4-1.6,2.4-2.6v-1.2c0-2-1.2-2.6-2.4-2.6
			h-5.4v-1.6h5.4c1.2,0,2.4-0.8,2.4-3v-1.2c0-2-1.2-2.2-2.4-2.2h-5.4v-2.6h5.4c1.2,0,2.4-0.4,2.4-1.6v-2c0-1.2-1.2-2.2-2.4-2.2h-5.4
			v-3.2h5.4c1.2,0,2.4-1.2,2.4-2.2v-2c0-1.2-1.2-1.6-2.4-1.6h-0.4l7.2-7.2l0.8-6.2v-8.8h-34l-9.6,11.8v10.4h-2.4
			c-1.2,0-2.2,0.4-2.2,1.6v2c0,1.2,1.2,2.2,2.2,2.2h2.4v3h-2.4c-1.2,0-2.2,1.2-2.2,2.2v2c0,1.2,1.2,1.6,2.2,1.6h2.4v2.6h-2.4
			c-1.2,0-2.2,0.4-2.2,2.2v1.2c0,2.4,1.2,3,2.2,3h2.4v1.6h-2.4c-1.2,0-2.2,0.8-2.2,2.6v1.2c0,1.2,1.2,2.6,2.2,2.6h2.4v2h-2.4
			c-1.2,0-2.2,1.2-2.2,3v1.2c0,1.2,1.2,2,2.2,2h2.4v50.6h10v322.2h-55v22h39.2L676.4,772.3c-7.6-4-15.4-8.6-23.8-13.8
			c-18.6-11.6-51.6-36-86.6-63c65.8-57.4,107.2-141.8,107.2-236c0-173-140.2-313.2-313.2-313.2S46.8,286.7,46.8,459.7
			c0,76.8,27.6,147,73.4,201.6l-11.6,11.6c-3-3-7.8-3-10.8,0l-30.6,30.4c-3,3-3,7.8,0,10.8l-18.8,18.8l38.2,38.2l18.8-18.8
			c3,3,7.8,3,10.8,0l30.6-30.6c3-3,3-7.8,0-10.8l11.6-11.6c32,27,69.6,47.6,110.6,60v53.8H104.4v-11.8h-28v11.8H26.6v25.2l49.8,2.2
			v76.8h-26v18h26h28h26v-18h-26v-75.6l232.2,10.4h93.8c0-1.2,0-2.4,0-3.6c0-1.4,0-2.8,0.2-4.4c0-0.6,0-1,0-1.6
			c0-0.8,0.2-1.8,0.2-2.6c0-0.6,0.2-1.4,0.2-2c0-0.8,0.2-1.4,0.2-2.2c0.2-0.8,0.2-1.6,0.4-2.2c0-0.6,0.2-1,0.2-1.6
			c0.2-0.8,0.4-1.8,0.4-2.6c0-0.2,0-0.4,0.2-0.6c1.2-5.4,2.8-10.8,4.8-15.8c3.4-8.8,8.2-16.8,13.8-24v-29.8
			c32.8-10,63.4-25.2,90.6-44.6c38,29.2,74.4,56.4,95,69.2c68.6,42.8,110.4,46.2,158,46.2c35.8,0,65-29.2,65-65v-98h46.8v154.4
			c3.6-0.6,7.2-1,11-1s7.4,0.4,11,1V666.9v-22h-22h-46.8V645.3z M386.4,465.1l40.8,16.8H401l-18.4-7.6
			C384.4,471.7,385.6,468.5,386.4,465.1z M299.4,482.1h-6.6l11.2-4.6L299.4,482.1z M641.8,576.3c-0.8,2-2.6,3-4.6,3
			c-0.6,0-1.2-0.2-2-0.4L451,502.5v-10.8l188,77.8C641.6,570.9,642.8,573.9,641.8,576.3z M635.2,340.3c2.6-1,5.4,0.2,6.6,2.8
			s-0.2,5.4-2.8,6.6L386.4,454.3c-0.6-3.4-2-6.4-3.8-9.2L635.2,340.3z M476.6,177.9c2.6,1,3.8,4,2.8,6.6L374.8,437.1
			c-2.8-1.8-5.8-3.2-9.2-3.8l104.6-252.6C471.2,178.1,474.2,176.9,476.6,177.9z M243.2,177.9c2.6-1,5.4,0.2,6.6,2.8l104.6,252.6
			c-3.4,0.8-6.4,2-9.2,3.8L240.6,184.5C239.4,181.9,240.6,178.9,243.2,177.9z M78.2,342.9c1-2.6,4-3.8,6.6-2.8l252,104.4l-7.6,7.8
			L80.8,349.5C78.4,348.5,77.2,345.5,78.2,342.9z M82.8,579.5c-2,0-3.8-1.2-4.6-3c-1-2.6,0.2-5.4,2.8-6.6l188-78v10.8L84.8,579.1
			C84,579.3,83.4,579.5,82.8,579.5z M249.8,738.7c-0.8,2-2.6,3-4.6,3c-0.6,0-1.2-0.2-2-0.4c-2.6-1-3.8-4-2.8-6.6l28.4-68.6v26.2
			L249.8,738.7z M476.6,741.5c-0.6,0.2-1.2,0.4-2,0.4c-2,0-3.8-1.2-4.6-3l-19.2-46.2v-26.4l28.4,68.6
			C480.4,737.5,479.2,740.3,476.6,741.5z M794.6,800.3c-33,0-61.6-1.6-99.8-18.8h1.8l133-101.8v85.6
			C829.6,784.5,814,800.3,794.6,800.3z"/>
	</g>
	<path d="M612.4,862.1c0.2-1.4,0.4-2.8,0.6-4.4c0.2-3,0.4-5.8,0.4-8.8c0-47.8-38.8-86.6-86.6-86.6c-21,0-40.2,7.4-55.2,19.8
		c-7.4,6.2-14,13.6-19,22c-0.8,1.2-1.4,2.4-2,3.6c-6.6,12.2-10.4,26.4-10.4,41.2c0,30,15.2,56.2,38.2,71.8
		c13.8,9.4,30.4,14.8,48.4,14.8c18,0,34.6-5.4,48.4-14.8c2.4-1.6,4.6-3.2,6.6-5c4.2-3.6,8.2-7.4,11.8-11.8
		C603.4,892.3,610,877.9,612.4,862.1z M526.8,890.7c-23,0-41.8-18.8-41.8-41.8s18.8-41.8,41.8-41.8c23,0,41.8,18.8,41.8,41.8
		S550,890.7,526.8,890.7z"/>
	<path d="M713,827.1c-31,0-56,25-56,56s25,56,56,56s56-25,56-56S744,827.1,713,827.1z M713,910.1c-15,0-27-12-27-27s12-27,27-27
		s27,12,27,27S728,910.1,713,910.1z"/>
</g>
</svg>
