<?xml version="1.0" encoding="utf-8"?>
<!-- Generator: Adobe Illustrator 24.3.0, SVG Export Plug-In . SVG Version: 6.00 Build 0)  -->
<svg version="1.1" id="Calque_1" focusable="false" xmlns="http://www.w3.org/2000/svg" xmlns:xlink="http://www.w3.org/1999/xlink"
	 x="0px" y="0px" viewBox="0 0 1000 888.9" style="enable-background:new 0 0 1000 888.9;" xml:space="preserve">
<path d="M833.3,722.2V750c0,46-37.3,83.3-83.3,83.3H83.3C37.3,833.3,0,796,0,750V305.6c0-46,37.3-83.3,83.3-83.3h27.8v361.1
	c0,76.6,62.3,138.9,138.9,138.9H833.3z M1000,583.3V138.9c0-46-37.3-83.3-83.3-83.3H250c-46,0-83.3,37.3-83.3,83.3v444.4
	c0,46,37.3,83.3,83.3,83.3h666.7C962.7,666.7,1000,629.4,1000,583.3z M444.4,222.2c0,46-37.3,83.3-83.3,83.3s-83.3-37.3-83.3-83.3
	s37.3-83.3,83.3-83.3S444.4,176.2,444.4,222.2z M277.8,472.2l96.4-96.4c8.1-8.1,21.3-8.1,29.5,0l68.6,68.6l235.3-235.3
	c8.1-8.1,21.3-8.1,29.5,0l151.9,151.9v194.4H277.8V472.2z"/>
</svg>
