<?xml version="1.0" encoding="utf-8"?>
<!-- Generator: Adobe Illustrator 24.3.0, SVG Export Plug-In . SVG Version: 6.00 Build 0)  -->
<svg version="1.1" id="Calque_1" xmlns="http://www.w3.org/2000/svg" xmlns:xlink="http://www.w3.org/1999/xlink" x="0px" y="0px"
	 viewBox="0 0 1000 1000" style="enable-background:new 0 0 1000 1000;" xml:space="preserve">
<g>
	<path d="M250.5,632.4l-9.4-29.7c-0.7-2.6-3.3-4.4-6.1-4.4c-2.8,0-5.1,1.6-6.1,4.4l-9.6,30.2c0,0.2,0,0.5-0.2,0.5
		c-0.5,1.6-0.7,3.3-0.7,4.9c0,8.9,7.5,16.4,16.4,16.4c8.9,0,16.4-7.5,16.4-16.4c0-1.6-0.2-3-0.7-4.7
		C250.7,633.3,250.5,632.8,250.5,632.4z"/>
	<path d="M250.5,717.6l-9.4-29.7c-0.7-2.6-3.3-4.4-6.1-4.4c-2.8,0-5.1,1.6-6.1,4.4l-9.6,30.2c0,0.2,0,0.5-0.2,0.5
		c-0.5,1.6-0.7,3.3-0.7,4.9c0,8.9,7.5,16.4,16.4,16.4c8.9,0,16.4-7.5,16.4-16.4c0-1.6-0.2-3-0.7-4.7
		C250.7,718.3,250.5,717.8,250.5,717.6z"/>
	<path d="M250.5,799.2l-9.4-29.7c-0.7-2.6-3.3-4.4-6.1-4.4c-2.8,0-5.1,1.6-6.1,4.4l-9.6,30.2c0,0.2,0,0.5-0.2,0.5
		c-0.5,1.6-0.7,3.3-0.7,4.9c0,8.9,7.5,16.4,16.4,16.4c8.9,0,16.4-7.5,16.4-16.4c0-1.6-0.2-3-0.7-4.7
		C250.7,799.9,250.5,799.5,250.5,799.2z"/>
	<path d="M250.5,880.9l-9.4-29.7c-0.7-2.6-3.3-4.4-6.1-4.4c-2.8,0-5.1,1.6-6.1,4.4l-9.6,30.2c0,0.2,0,0.5-0.2,0.5
		c-0.5,1.6-0.7,3.3-0.7,4.9c0,8.9,7.5,16.4,16.4,16.4c8.9,0,16.4-7.5,16.4-16.4c0-1.6-0.2-3-0.7-4.7
		C250.7,881.6,250.5,881.4,250.5,880.9z"/>
	<path d="M174.4,591.6c-2.6-1.4-5.4-0.7-7.5,1.2l-22.2,22.5c-0.2,0.2-0.2,0.2-0.5,0.5c-1.2,1.2-2.1,2.6-2.8,4c-4,8-0.9,18,7,22
		c8,4,18,0.9,22-7c0.7-1.4,1.2-2.8,1.6-4.4c0.2-0.2,0.2-0.7,0.2-1.2l5.4-30.9C178.2,595.4,177,592.8,174.4,591.6z"/>
	<path d="M135.3,667.2c-2.6-1.4-5.4-0.7-7.5,1.2l-22.5,22.5c-0.2,0.2-0.2,0.2-0.5,0.5c-1.2,1.2-2.1,2.6-2.8,4c-4,8-0.9,18,7,22
		c8,4,18,0.9,22-7c0.7-1.4,1.2-2.8,1.6-4.4c0.5-0.5,0.5-0.9,0.5-1.2l5.4-30.9C139.1,671,137.9,668.4,135.3,667.2z"/>
	<path d="M97.7,739.8c-2.6-1.4-5.4-0.7-7.5,1.2l-22.5,22.5c-0.2,0.2-0.2,0.2-0.5,0.5c-1.2,1.2-2.1,2.6-2.8,4c-4,8-0.9,18,7,22
		c8,4,18,0.9,22-7c0.7-1.4,1.2-2.8,1.6-4.4c0.2-0.5,0.5-0.9,0.5-1.2l5.4-30.9C101.4,743.5,100.2,741,97.7,739.8z"/>
	<path d="M60,812.3c-2.6-1.4-5.4-0.7-7.5,1.2L30,836c-0.2,0.2-0.2,0.2-0.5,0.5c-1.2,1.2-2.1,2.6-2.8,4c-4,8-0.9,18,7,22
		c8,4,18,0.9,22-7c0.7-1.4,1.2-2.8,1.6-4.4c0.2-0.7,0.5-1.2,0.5-1.2l5.4-30.9C63.7,816.1,62.6,813.5,60,812.3z"/>
	<path d="M326.3,615.7c-0.2-0.2-0.2-0.2-0.5-0.5l-22.5-22.5c-2.1-1.9-4.9-2.6-7.5-1.2c-2.6,1.2-3.7,3.7-3.3,6.6l5.4,30.9
		c0,0.5,0,0.9,0.5,1.2c0.5,1.6,0.9,3,1.6,4.4c4,8,14,11,22,7c8-4,11-14,7-22C328.4,618.3,327.5,616.9,326.3,615.7z"/>
	<path d="M368.2,695.3c-0.7-1.4-1.6-2.8-2.8-4c-0.2-0.2-0.2-0.2-0.5-0.5l-22.5-22.5c-2.1-1.9-4.9-2.6-7.5-1.2
		c-2.6,1.2-3.7,3.7-3.3,6.6l5.4,30.9c0,0.2,0,0.7,0.5,1.2c0.5,1.6,0.9,3,1.6,4.4c4,8,14,11,22,7
		C369.2,713.3,372.2,703.3,368.2,695.3z"/>
	<path d="M405.9,767.9c-0.7-1.4-1.6-2.8-2.8-4c-0.2-0.2-0.2-0.2-0.5-0.5L380.2,741c-2.1-1.9-4.9-2.6-7.5-1.2
		c-2.6,1.2-3.7,3.7-3.3,6.6l5.4,30.9c0,0.2,0.2,0.7,0.5,1.2c0.5,1.6,0.9,3,1.6,4.4c4,8,14,11,22,7
		C406.8,785.9,409.9,775.8,405.9,767.9z"/>
	<path d="M440.8,836.5c-0.2-0.2-0.2-0.2-0.5-0.5l-22.5-22.5c-2.1-1.9-4.9-2.6-7.5-1.2c-2.6,1.2-3.7,3.7-3.3,6.6l5.4,30.9
		c0,0,0,0.5,0.5,1.2c0.5,1.6,0.9,3,1.6,4.4c4,8,14,11,22,7c8-4,11-14,7-22C442.9,839,442,837.6,440.8,836.5z"/>
	<path d="M780.6,632.6l-9.6-30.2c-0.7-2.8-3.3-4.4-6.1-4.4c-2.8,0-5.1,1.9-6.1,4.4l-9.4,30c0,0.5-0.2,0.7,0,0.9
		c-0.5,1.6-0.7,3-0.7,4.7c0,8.9,7.5,16.4,16.4,16.4c8.9,0,16.4-7.5,16.4-16.4c0-1.6-0.2-3.3-0.7-4.9
		C780.6,633.1,780.6,632.8,780.6,632.6z"/>
	<path d="M780.6,717.8l-9.6-30.2c-0.7-2.8-3.3-4.4-6.1-4.4c-2.8,0-5.1,1.9-6.1,4.4l-9.4,30c0,0.5-0.2,0.7,0,0.9
		c-0.5,1.6-0.7,3-0.7,4.7c0,8.9,7.5,16.4,16.4,16.4c8.9,0,16.4-7.5,16.4-16.4c0-1.6-0.2-3.3-0.7-4.9
		C780.6,718.3,780.6,718,780.6,717.8z"/>
	<path d="M780.6,799.5l-9.6-30.2c-0.7-2.8-3.3-4.4-6.1-4.4c-2.8,0-5.1,1.9-6.1,4.4l-9.4,30c0,0.5-0.2,0.7,0,0.9
		c-0.5,1.6-0.7,3-0.7,4.7c0,8.9,7.5,16.4,16.4,16.4c8.9,0,16.4-7.5,16.4-16.4c0-1.6-0.2-3.3-0.7-4.9
		C780.6,799.9,780.6,799.7,780.6,799.5z"/>
	<path d="M780.6,881.2L771,851c-0.7-2.8-3.3-4.4-6.1-4.4c-2.8,0-5.1,1.9-6.1,4.4l-9.4,30c0,0.5-0.2,0.7,0,0.9
		c-0.5,1.6-0.7,3-0.7,4.7c0,8.9,7.5,16.4,16.4,16.4c8.9,0,16.4-7.5,16.4-16.4c0-1.6-0.2-3.3-0.7-4.9
		C780.6,881.6,780.6,881.4,780.6,881.2z"/>
	<path d="M855.8,615.5c-0.2-0.2-0.2-0.2-0.5-0.5l-22.2-22.5c-1.9-1.9-4.9-2.6-7.5-1.2c-2.6,1.2-3.7,4-3.3,6.6l5.4,31.1
		c0,0.5,0,0.7,0.2,0.9c0.5,1.6,0.7,3,1.6,4.4c4,8,14,11,22,7c8-4,11-14,7-22C857.9,618.1,856.9,616.7,855.8,615.5z"/>
	<path d="M897.9,695.1c-0.7-1.4-1.6-2.8-2.8-4c-0.2-0.2-0.2-0.2-0.5-0.5l-22.5-22.5c-1.9-1.9-4.9-2.6-7.5-1.2
		c-2.6,1.2-3.7,4-3.3,6.6l5.4,31.1c0,0.5,0,0.7,0.5,0.9c0.5,1.6,0.7,3,1.6,4.4c4,8,14,11,22,7C898.8,713.1,901.9,703,897.9,695.1z"
		/>
	<path d="M935.6,767.6c-0.7-1.4-1.6-2.8-2.8-4c-0.2-0.2-0.2-0.2-0.5-0.5l-22.5-22.5c-1.9-1.9-4.9-2.6-7.5-1.2
		c-2.6,1.2-3.7,4-3.3,6.6l5.4,31.1c0,0.5,0.2,0.7,0.5,0.9c0.5,1.6,0.7,3,1.6,4.4c4,8,14,11,22,7
		C936.5,785.7,939.6,775.6,935.6,767.6z"/>
	<path d="M973.3,840.2c-0.7-1.4-1.6-2.8-2.8-4c-0.2-0.2-0.2-0.2-0.5-0.5l-22.5-22.5c-1.9-1.9-4.9-2.6-7.5-1.2
		c-2.6,1.2-3.7,4-3.3,6.6l5.4,31.1c0,0.2,0.2,0.5,0.5,0.9c0.5,1.6,0.7,3,1.6,4.4c4,8,14,11,22,7
		C974.2,858.2,977.2,848.2,973.3,840.2z"/>
	<path d="M704.1,591.4c-2.6-1.4-5.6-0.7-7.5,1.2L674.1,615c-0.2,0.2-0.2,0.2-0.5,0.5c-1.2,1.2-2.1,2.6-2.8,4c-4,8-0.9,18,7,22
		c8,4,18,0.9,22-7c0.9-1.4,1.2-2.8,1.6-4.4c0.5-0.2,0.5-0.5,0.5-0.9l5.4-31.1C707.8,595.4,706.7,592.6,704.1,591.4z"/>
	<path d="M665,667c-2.6-1.4-5.6-0.7-7.5,1.2L635,690.6c-0.2,0.2-0.2,0.2-0.5,0.5c-1.2,1.2-2.1,2.6-2.8,4c-4,8-0.9,18,7,22
		c8,4,18,0.9,22-7c0.9-1.4,1.2-2.8,1.6-4.4c0.5-0.2,0.5-0.5,0.5-0.9l5.4-31.1C668.8,671,667.6,668.2,665,667z"/>
	<path d="M627.3,739.6c-2.6-1.4-5.6-0.7-7.5,1.2l-22.5,22.5c-0.2,0.2-0.2,0.2-0.5,0.5c-1.2,1.2-2.1,2.6-2.8,4c-4,8-0.9,18,7,22
		c8,4,18,0.9,22-7c0.9-1.4,1.2-2.8,1.6-4.4c0.2-0.2,0.5-0.5,0.5-0.9l5.4-31.1C631.1,743.5,629.9,740.7,627.3,739.6z"/>
	<path d="M589.6,812.1c-2.6-1.4-5.6-0.7-7.5,1.2l-22.5,22.5c-0.2,0.2-0.2,0.2-0.5,0.5c-1.2,1.2-2.1,2.6-2.8,4c-4,8-0.9,18,7,22
		c8,4,18,0.9,22-7c0.9-1.4,1.2-2.8,1.6-4.4c0.2-0.5,0.5-0.7,0.5-0.9l5.4-31.1C593.4,816.1,592.2,813.3,589.6,812.1z"/>
	<path d="M852,509.9v-34.2c0-5.4-4.2-9.8-9.8-9.8h130.6v-44.5l0,0h-58.5L537.2,281l375-139.7h60.4V96.8H27v44.5h72.1L474,281
		L97,421.5H26.7v44.5h131.1c-5.4,0-9.8,4.2-9.8,9.8v34.4c0,5.4,4.2,9.8,9.8,9.8h31.8c5.4,0,9.8,4.2,9.8,9.8v28.6
		c0,5.4,4.2,9.8,9.8,9.8h51c5.4,0,9.8-4.2,9.8-9.8v-28.8c0-5.4,4.2-9.8,9.8-9.8h31.8c5.4,0,9.8-4.2,9.8-9.8v-34.2
		c-0.5-5.4-4.7-9.8-10.3-9.8h376.4c-5.4,0-9.8,4.4-9.8,9.8v34.4c0,5.4,4.2,9.8,9.8,9.8h31.8c5.4,0,9.8,4.2,9.8,9.8v28.6
		c0,5.4,4.2,9.8,9.8,9.8h51c5.4,0,9.8-4.2,9.8-9.8v-28.8c0-5.4,4.2-9.8,9.8-9.8h31.8C847.6,519.8,852,515.6,852,509.9z M162.3,141.3
		h687.2l-343.6,128L162.3,141.3z M160.4,421.5l345.5-128.7l345.5,128.7H160.4z"/>
</g>
</svg>
