<?xml version="1.0" encoding="utf-8"?>
<!-- Generator: Adobe Illustrator 24.3.0, SVG Export Plug-In . SVG Version: 6.00 Build 0)  -->
<svg version="1.1" id="Calque_1" xmlns="http://www.w3.org/2000/svg" xmlns:xlink="http://www.w3.org/1999/xlink" x="0px" y="0px"
	 viewBox="0 0 1000 1000" style="enable-background:new 0 0 1000 1000;" xml:space="preserve">
<path d="M553.2,846h292l-116.4-89.6L718,794h-0.8c-155.8-218.2-157-372.8-130-464.4c25.2-85.8,76.8-126.8,98.4-137.6h117.2v-38h-648
	v38h133.8c-4.8,4.8-9.6,10-14.2,15.6c-26,31-46.4,69.6-58.6,111.4c-28.6,96.6-29.4,255.8,120,475h-50.2l-68,52h292l-116.4-89.6
	L382.4,794h-1C225.8,575.8,224.6,421.4,251.6,329.6c25.2-85.8,76.8-126.8,98.4-137.6h274.4c-4.8,4.8-9.6,10-14.2,15.6
	c-26,31-46.4,69.6-58.6,111.4c-28.8,96.6-29.4,255.8,120.2,475h-50.4L553.2,846z"/>
</svg>
