<?xml version="1.0" encoding="utf-8"?>
<!-- Generator: Adobe Illustrator 24.3.0, SVG Export Plug-In . SVG Version: 6.00 Build 0)  -->
<svg version="1.1" id="Calque_1" xmlns="http://www.w3.org/2000/svg" xmlns:xlink="http://www.w3.org/1999/xlink" x="0px" y="0px"
	 viewBox="0 0 1000 1000" style="enable-background:new 0 0 1000 1000;" xml:space="preserve">
<style type="text/css">
	.st0{fill:none;}
</style>
<g>
	<path class="st0" d="M703.9,590.4C652.9,655,574,696.7,485.5,696.7c-89.6,0-169.4-42.7-220.1-108.7l-13.1,5.6l-3.2-7.5l11.2-4.9
		c-33-45.6-52.7-101.9-52.7-162.4c0-153.2,124.8-277.9,277.9-277.9c79.9,0,151.7,33.7,202.4,87.9h122.6v-30.1
		c0-58-47.1-105.1-105.1-105.1H265.5c-58,0-105.1,47.1-105.1,105.1v578.4h650V590.4H703.9z M305.8,767.6h-94.7v-51h94.7V767.6z
		 M421.8,767.6h-94.7v-51h94.7V767.6z M443,767.6v-51h94.7v51H443z M653.4,767.6h-94.7v-51h94.7V767.6z M769.4,767.6h-94.7v-51h94.7
		V767.6z"/>
	<path d="M473.1,148.9c-0.5,0-1,0-1.5,0l0,0C472.1,148.9,472.6,148.9,473.1,148.9z"/>
	<path d="M672.8,235.5c-1.9-2.2-4.1-4.4-6.3-6.8H666C668.4,230.9,670.6,233.1,672.8,235.5z"/>
	<polygon points="631.8,228.7 577.9,205.9 574.8,213.4 621.4,233.4 631.1,237.5 634.2,229.7 	"/>
	<rect x="398.4" y="600.4" transform="matrix(0.3939 -0.9191 0.9191 0.3939 -336.1065 752.5065)" width="8.3" height="61.4"/>
	<rect x="257" y="459.4" transform="matrix(0.7217 -0.6922 0.6922 0.7217 -261.6028 315.1935)" width="8.3" height="47.1"/>
	<rect x="712.3" y="327.1" transform="matrix(0.916 -0.4013 0.4013 0.916 -83.3202 317.5403)" width="8.3" height="61.2"/>
	<path d="M663.8,282.6l3.2,7.5l35.2-15c-1.5-2.4-2.9-4.9-4.4-7L663.8,282.6z"/>
	<path d="M702.4,275.1l1.9-0.7c-1.5-2.4-3.2-4.6-4.9-7l-1.5,0.7C699.5,270.5,701,272.7,702.4,275.1z"/>
	<path d="M935,715.1c-22.1,0-40,18-40,40v62.4h-21.1V590.4h36.4V228.7h-36.4v-36.4h-29.4c-3.4-74-64.6-133-139.1-133H265.5
		c-76.9,0-139.3,62.6-139.3,139.3v618.9h-21.1v-62.4c0-22.1-18-40-40-40s-40,18-40,40v145.6c0,22.1,18,40,40,40s40-18,40-40v-62.6
		h21.1v21.4h747.6v-21.4h21.1v62.6c0,22.1,18,40,40,40s40-18,40-40V755.2C975,733.1,957,715.1,935,715.1z M810.4,228.7H687.9
		c-50.7-54.1-122.6-87.9-202.4-87.9c-153.2,0-277.9,124.8-277.9,277.9c0,60.7,19.4,116.7,52.7,162.4l-11.2,4.9l3.2,7.5l13.1-5.6
		c51,66,130.6,108.7,220.1,108.7c88.3,0,167.5-41.7,218.4-106.3h106.6V777h-650V198.6c0-58,47.1-105.1,105.1-105.1h439.8
		c58,0,105.1,47.1,105.1,105.1L810.4,228.7L810.4,228.7z M305.3,561.8l-30.6,13.1c-32.5-43.7-51.7-97.8-51.7-156.1
		c0-2.2,0-4.6,0-6.8l88.1,88.1c19.2,40.8,52.2,73.8,92.7,92.7l80.6,80.6c65-1.7,129.4-27.2,178.9-76.7c2.2-2.2,4.1-4.1,6.1-6.3
		C715,541.9,738.6,480,740,417.8l-81.3-81.3c-9.5-19.9-22.3-38.1-37.9-53.6c-15.5-15.5-33.7-28.4-53.6-37.9l-88.6-88.6
		c2.2,0,4.1,0,6.3,0c69.9,0,133.5,27.4,180.6,72.3h0.5c2.2,2.2,4.1,4.4,6.3,6.8c9.7,10,18.7,20.6,26.7,32c1.7,2.2,3.2,4.6,4.9,7
		c27.4,41.5,43.4,91,43.4,144.4c0,65.5-24.3,125.5-64.1,171.6c-48.1,55.6-119.2,90.8-198.3,90.8c-74.8,0-142.2-31.6-190-81.8
		c-5.3-5.6-10.4-11.7-15.3-17.7l28.6-12.4L305.3,561.8z"/>
	<rect x="211.2" y="716.6" width="94.7" height="51"/>
	<rect x="327.2" y="716.6" width="94.7" height="51"/>
	<rect x="443" y="716.6" width="94.7" height="51"/>
	<rect x="558.7" y="716.6" width="94.7" height="51"/>
	<rect x="674.8" y="716.6" width="94.7" height="51"/>
</g>
</svg>
