<?xml version="1.0" encoding="utf-8"?>
<!-- Generator: Adobe Illustrator 24.3.0, SVG Export Plug-In . SVG Version: 6.00 Build 0)  -->
<svg version="1.1" id="Calque_1" xmlns="http://www.w3.org/2000/svg" xmlns:xlink="http://www.w3.org/1999/xlink" x="0px" y="0px"
	 viewBox="0 0 500 500" style="enable-background:new 0 0 500 500;" xml:space="preserve">
<g>
	<path d="M164.5,339.4c0-4.7-3.8-8.5-8.5-8.5h-15.8v-0.6l19.1-49.1c2.9-1.3,4.9-4.3,5-7.7c0-2.3-0.9-4.5-2.5-6h176.5
		c-1.5,1.5-2.5,3.7-2.5,6c0,3.4,2,6.4,4.9,7.7l18.8,48.3v1.4H344c-4.7,0-8.5,3.8-8.5,8.5s3.8,8.5,8.5,8.5h43c4.7,0,8.5-3.8,8.5-8.5
		s-3.8-8.5-8.5-8.5h-15.2v-0.7l19-49c3-1.3,5-4.3,5-7.8c0-2.3-0.9-4.5-2.5-6h29.2c5.2,0,9.5-4.3,9.5-9.5s-4.3-9.5-9.5-9.5h-50.7v-17
		H392l40-100v-40L412,60H88L68,91.5v40l40,100h20.2v17H77.5c-5.2,0-9.5,4.3-9.5,9.5s4.3,9.5,9.5,9.5h29.3c-1.5,1.5-2.5,3.7-2.5,6
		c0,3.4,2,6.3,4.9,7.7l19,49v0.7H113c-4.7,0-8.5,3.8-8.5,8.5s3.8,8.5,8.5,8.5h43C160.7,347.9,164.5,344.1,164.5,339.4z M140.2,231.5
		h219.3v17H140.2V231.5z"/>
	<circle cx="393.9" cy="364.7" r="2.3"/>
	<circle cx="454.9" cy="367.1" r="2.3"/>
	<circle cx="347.9" cy="389.7" r="2.3"/>
	<circle cx="409" cy="358.9" r="2.3"/>
	<circle cx="399.7" cy="350.2" r="2.3"/>
	<circle cx="405.5" cy="336.8" r="2.3"/>
	<circle cx="414.8" cy="347.9" r="2.3"/>
	<circle cx="441.5" cy="346.1" r="2.3"/>
	<circle cx="332.8" cy="383.9" r="2.3"/>
	<circle cx="346.2" cy="375.8" r="2.3"/>
	<circle cx="384" cy="373.5" r="2.3"/>
	<circle cx="367.7" cy="371.1" r="2.3"/>
	<circle cx="367.7" cy="390.3" r="2.3"/>
	<circle cx="423.5" cy="361.2" r="2.3"/>
	<path d="M399.1,378.7c1.3,0,2.3-1,2.3-2.3c0-0.1,0-0.3,0-0.4c0.7-0.6,1.1-1.6,1.1-2.6c0-1.9-1.6-3.5-3.5-3.5s-3.5,1.6-3.5,3.5
		c0,1.1,0.5,2.1,1.3,2.7c0,0.1,0,0.2,0,0.3C396.8,377.7,397.8,378.7,399.1,378.7z"/>
	<circle cx="425.3" cy="340.3" r="2.3"/>
	<circle cx="360.7" cy="380.4" r="2.3"/>
	<circle cx="307.8" cy="374" r="2.3"/>
	<circle cx="321.2" cy="376.4" r="2.3"/>
	<circle cx="377.6" cy="383.4" r="2.3"/>
	<circle cx="390.6" cy="386.5" r="2.3"/>
	<circle cx="428.2" cy="384.1" r="2.3"/>
	<path d="M382,395.4c1.3,0,2.3-1,2.3-2.3c0-0.9-0.5-1.6-1.2-2c0.6-0.5,1-1.3,1-2.1c0-1.5-1.3-2.8-2.8-2.8s-2.8,1.3-2.8,2.8
		c0,1.2,0.7,2.2,1.8,2.6c-0.4,0.4-0.6,0.9-0.6,1.5C379.7,394.4,380.7,395.4,382,395.4z"/>
	<circle cx="393.3" cy="378.4" r="2.8"/>
	<circle cx="452.6" cy="394.6" r="2.8"/>
	<circle cx="467.4" cy="381.2" r="2.8"/>
	<circle cx="337.6" cy="408.7" r="2.8"/>
	<path d="M411.7,374.2c1.3,0,2.4-0.9,2.7-2.1c0.3,0.1,0.6,0.2,1,0.2c1.3,0,2.3-1,2.3-2.3s-1-2.3-2.3-2.3c-0.9,0-1.8,0.6-2.1,1.4
		c-0.5-0.3-1-0.5-1.6-0.5c-1.5,0-2.8,1.3-2.8,2.8S410.2,374.2,411.7,374.2z"/>
	<circle cx="400.4" cy="360.8" r="2.8"/>
	<circle cx="407.4" cy="344.6" r="2.8"/>
	<circle cx="418.7" cy="358" r="2.8"/>
	<path d="M451.2,358.7c1.5,0,2.8-1.3,2.8-2.8c0-0.1,0-0.3,0-0.4c0.2-0.3,0.3-0.8,0.3-1.2c0-1.3-1-2.3-2.3-2.3c-1,0-1.8,0.6-2.1,1.5
		c-0.9,0.5-1.5,1.4-1.5,2.4C448.4,357.4,449.7,358.7,451.2,358.7z"/>
	<path d="M451.8,375.6c0-1.5-1.3-2.8-2.8-2.8c-0.7,0-1.3,0.2-1.8,0.6c-0.1,0-0.3,0-0.4,0c-1.6,0-2.9,1.1-3.3,2.5
		c-0.2-0.1-0.5-0.1-0.8-0.1c-1.3,0-2.3,1-2.3,2.3s1,2.3,2.3,2.3c0.7,0,1.4-0.3,1.8-0.9c0.6,0.5,1.4,0.9,2.3,0.9
		c1.5,0,2.7-0.9,3.2-2.2C451.1,377.8,451.8,376.8,451.8,375.6z"/>
	<circle cx="319.3" cy="401.7" r="2.8"/>
	<circle cx="335.5" cy="391.8" r="2.8"/>
	<circle cx="361.6" cy="386.2" r="2.8"/>
	<circle cx="361.6" cy="409.4" r="2.8"/>
	<path d="M431.8,373c0.2-0.4,0.4-0.8,0.4-1.3c0-1.3-1-2.3-2.3-2.3s-2.3,1-2.3,2.3c0,0.1,0,0.2,0,0.3c-0.7,0.5-1.1,1.3-1.1,2.2
		c0,1.5,1.3,2.8,2.8,2.8s2.8-1.3,2.8-2.8C432.1,373.8,432,373.4,431.8,373z"/>
	<circle cx="419.4" cy="384.8" r="2.8"/>
	<path d="M399.7,395.3c1.5,0,2.8-1.3,2.8-2.8c0-0.3-0.1-0.5-0.1-0.8c0.3,0.1,0.6,0.2,0.9,0.2c1.3,0,2.3-1,2.3-2.3s-1-2.3-2.3-2.3
		s-2.3,1-2.3,2.3c0,0.2,0,0.3,0,0.5c-0.4-0.2-0.9-0.4-1.3-0.4c-1.5,0-2.8,1.3-2.8,2.8S398.2,395.3,399.7,395.3z"/>
	<path d="M428.6,348.8c0,0.8,0.4,1.5,0.9,2c-0.4,0.4-0.7,1-0.7,1.7c0,1.3,1,2.3,2.3,2.3s2.3-1,2.3-2.3c0-0.5-0.2-1-0.5-1.4
		c0.8-0.5,1.3-1.4,1.3-2.3c0-1.5-1.3-2.8-2.8-2.8S428.6,347.3,428.6,348.8z"/>
	<circle cx="353.1" cy="397.5" r="2.8"/>
	<circle cx="289" cy="389.7" r="2.8"/>
	<circle cx="305.2" cy="392.5" r="2.8"/>
	<path d="M439.8,386.9c0-1.5-1.3-2.8-2.8-2.8c-1.5,0-2.8,1.3-2.8,2.8c-1.4,0.5-2.4,1.8-2.4,3.3c0,1.9,1.6,3.5,3.5,3.5
		s3.5-1.6,3.5-3.5c0-0.4-0.1-0.7-0.2-1C439.3,388.7,439.8,387.8,439.8,386.9z"/>
	<circle cx="373.6" cy="401.1" r="2.8"/>
	<circle cx="389.3" cy="404.9" r="2.8"/>
	<circle cx="404.8" cy="408.6" r="2.8"/>
	<circle cx="435" cy="401.9" r="2.8"/>
	<path d="M378.9,410.1c-0.2,0-0.4,0-0.6,0.1c0.2-0.4,0.3-0.9,0.3-1.4c0-1.9-1.6-3.5-3.5-3.5s-3.5,1.6-3.5,3.5s1.6,3.5,3.5,3.5
		c0.4,0,0.8-0.1,1.1-0.2c-0.1,0.3-0.1,0.5-0.1,0.8c0,1.5,1.3,2.8,2.8,2.8s2.8-1.3,2.8-2.8S380.4,410.1,378.9,410.1z"/>
	<circle cx="390.1" cy="395.5" r="3.5"/>
	<circle cx="464.5" cy="415.9" r="3.5"/>
	<circle cx="483" cy="399.1" r="3.5"/>
	<circle cx="320.2" cy="433.6" r="3.5"/>
	<path d="M416.6,386.7c0-1-0.4-1.9-1.1-2.6c0.6-0.4,0.9-1.1,0.9-1.8c0-1.3-1-2.3-2.3-2.3s-2.3,1-2.3,2.3c0,0.4,0.1,0.7,0.3,1.1
		c-1.4,0.4-2.5,1.8-2.5,3.3c0,1.9,1.6,3.5,3.5,3.5S416.6,388.6,416.6,386.7z"/>
	<circle cx="407.8" cy="353" r="3.5"/>
	<circle cx="478.6" cy="379.6" r="3.5"/>
	<circle cx="422" cy="369.9" r="3.5"/>
	<path d="M462.7,370.7c1.9,0,3.5-1.6,3.5-3.5c0,0,0,0,0-0.1c0.3-0.4,0.4-0.9,0.4-1.4c0-1.5-1.3-2.8-2.8-2.8c-0.8,0-1.6,0.4-2.1,1
		c-1.4,0.4-2.5,1.8-2.5,3.3C459.2,369.1,460.8,370.7,462.7,370.7z"/>
	<circle cx="460" cy="392" r="3.5"/>
	<circle cx="297.2" cy="424.7" r="3.5"/>
	<circle cx="317.6" cy="412.3" r="3.5"/>
	<circle cx="350.3" cy="405.2" r="3.5"/>
	<circle cx="350.3" cy="434.4" r="3.5"/>
	<path d="M422.9,400c-1,0-1.9,0.4-2.5,1.1c0.2-0.4,0.3-0.8,0.3-1.3c0-1.5-1.3-2.8-2.8-2.8s-2.8,1.3-2.8,2.8s1.3,2.8,2.8,2.8
		c0.8,0,1.5-0.3,2-0.8c-0.3,0.5-0.5,1.1-0.5,1.7c0,1.9,1.6,3.5,3.5,3.5s3.5-1.6,3.5-3.5S424.8,400,422.9,400z"/>
	<circle cx="398.1" cy="413.2" r="3.5"/>
	<path d="M436.5,361.6c-0.5,0.5-0.8,1.2-0.8,2c0,1.5,1.3,2.8,2.8,2.8c1.3,0,2.5-1,2.7-2.2c0.5-0.4,0.9-1.1,0.9-1.8
		c0-0.9-0.5-1.7-1.3-2.1c0.4-0.6,0.6-1.2,0.6-1.9c0-1.9-1.6-3.5-3.5-3.5s-3.5,1.6-3.5,3.5C434.4,359.8,435.3,361.1,436.5,361.6z"/>
	<circle cx="339.7" cy="419.4" r="3.5"/>
	<circle cx="259.2" cy="409.7" r="3.5"/>
	<circle cx="279.5" cy="413.2" r="3.5"/>
	<circle cx="445" cy="406.1" r="3.5"/>
	<circle cx="365.3" cy="424" r="3.5"/>
	<circle cx="421" cy="422.3" r="3.5"/>
	<circle cx="385.1" cy="428.7" r="3.5"/>
	<circle cx="404.6" cy="433.4" r="3.5"/>
	<circle cx="442.4" cy="425" r="3.5"/>
	<circle cx="372" cy="438.7" r="3.5"/>
	<path d="M165.7,364.7c0-1.3-1-2.3-2.3-2.3c-1.3,0-2.3,1-2.3,2.3s1,2.3,2.3,2.3C164.7,367,165.7,366,165.7,364.7z"/>
	<path d="M224.4,369.4c1.3,0,2.3-1,2.3-2.3s-1-2.3-2.3-2.3c-1.3,0-2.3,1-2.3,2.3S223.1,369.4,224.4,369.4z"/>
	<path d="M119.7,389.7c0-1.3-1-2.3-2.3-2.3s-2.3,1-2.3,2.3s1,2.3,2.3,2.3S119.7,391,119.7,389.7z"/>
	<circle cx="178.5" cy="358.9" r="2.3"/>
	<circle cx="169.2" cy="350.2" r="2.3"/>
	<circle cx="175" cy="336.8" r="2.3"/>
	<path d="M221.5,352c-0.9,0-1.8,0.6-2.1,1.4c-0.9,0.5-1.6,1.4-1.6,2.5c0,1.5,1.3,2.8,2.8,2.8c1.5,0,2.8-1.3,2.8-2.8
		c0-0.1,0-0.2,0-0.3c0.3-0.4,0.4-0.8,0.4-1.3C223.8,353,222.8,352,221.5,352z"/>
	<path d="M184.3,345.6c-1.3,0-2.3,1-2.3,2.3s1,2.3,2.3,2.3c1.3,0,2.3-1,2.3-2.3S185.6,345.6,184.3,345.6z"/>
	<circle cx="211" cy="346.1" r="2.3"/>
	<path d="M104.6,383.9c0-1.3-1-2.3-2.3-2.3s-2.3,1-2.3,2.3s1,2.3,2.3,2.3S104.6,385.2,104.6,383.9z"/>
	<circle cx="115.7" cy="375.8" r="2.3"/>
	<circle cx="153.5" cy="373.5" r="2.3"/>
	<circle cx="137.2" cy="371.1" r="2.3"/>
	<circle cx="137.2" cy="390.3" r="2.3"/>
	<circle cx="193" cy="361.2" r="2.3"/>
	<path d="M168.6,378.7c1.3,0,2.3-1,2.3-2.3c0-0.1,0-0.3,0-0.4c0.7-0.6,1.1-1.6,1.1-2.6c0-1.9-1.6-3.5-3.5-3.5s-3.5,1.6-3.5,3.5
		c0,1.1,0.5,2.1,1.3,2.7c0,0.1,0,0.2,0,0.3C166.3,377.7,167.3,378.7,168.6,378.7z"/>
	<path d="M197.1,340.3c0-1.3-1-2.3-2.3-2.3c-1.3,0-2.3,1-2.3,2.3s1,2.3,2.3,2.3C196.1,342.6,197.1,341.6,197.1,340.3z"/>
	<circle cx="130.2" cy="380.4" r="2.3"/>
	<path d="M77.3,371.7c-1.3,0-2.3,1-2.3,2.3s1,2.3,2.3,2.3s2.3-1,2.3-2.3S78.6,371.7,77.3,371.7z"/>
	<circle cx="90.7" cy="376.4" r="2.3"/>
	<path d="M149.4,383.4c0-1.3-1-2.3-2.3-2.3c-1.3,0-2.3,1-2.3,2.3s1,2.3,2.3,2.3C148.4,385.7,149.4,384.7,149.4,383.4z"/>
	<circle cx="160" cy="386.5" r="2.3"/>
	<circle cx="197.7" cy="384.1" r="2.3"/>
	<path d="M151.5,395.4c1.3,0,2.3-1,2.3-2.3c0-0.9-0.5-1.6-1.2-2c0.6-0.5,1-1.3,1-2.1c0-1.5-1.3-2.8-2.8-2.8c-1.5,0-2.8,1.3-2.8,2.8
		c0,1.2,0.7,2.2,1.8,2.6c-0.4,0.4-0.6,0.9-0.6,1.5C149.2,394.4,150.2,395.4,151.5,395.4z"/>
	<path d="M165.6,378.4c0-1.5-1.3-2.8-2.8-2.8c-1.5,0-2.8,1.3-2.8,2.8s1.3,2.8,2.8,2.8C164.3,381.2,165.6,379.9,165.6,378.4z"/>
	<path d="M222.1,391.8c-1.5,0-2.8,1.3-2.8,2.8s1.3,2.8,2.8,2.8c1.5,0,2.8-1.3,2.8-2.8S223.6,391.8,222.1,391.8z"/>
	<path d="M236.9,378.4c-1.5,0-2.8,1.3-2.8,2.8s1.3,2.8,2.8,2.8c1.5,0,2.8-1.3,2.8-2.8S238.4,378.4,236.9,378.4z"/>
	<path d="M109.9,408.7c0-1.5-1.3-2.8-2.8-2.8c-1.5,0-2.8,1.3-2.8,2.8s1.3,2.8,2.8,2.8C108.6,411.5,109.9,410.2,109.9,408.7z"/>
	<path d="M205.2,363.6c0,1.5,1.3,2.8,2.8,2.8c1.3,0,2.5-1,2.7-2.2c0.5-0.4,0.9-1.1,0.9-1.8c0-0.9-0.5-1.7-1.3-2.1
		c0.4-0.6,0.6-1.2,0.6-1.9c0-1.9-1.6-3.5-3.5-3.5c-1.9,0-3.5,1.6-3.5,3.5c0,1.4,0.9,2.7,2.1,3.2
		C205.5,362.1,205.2,362.8,205.2,363.6z"/>
	<path d="M181.2,374.2c1.3,0,2.4-0.9,2.7-2.1c0.3,0.1,0.6,0.2,1,0.2c1.3,0,2.3-1,2.3-2.3s-1-2.3-2.3-2.3c-0.9,0-1.8,0.6-2.1,1.4
		c-0.5-0.3-1-0.5-1.6-0.5c-1.5,0-2.8,1.3-2.8,2.8S179.7,374.2,181.2,374.2z"/>
	<path d="M167.1,360.8c0,1.5,1.3,2.8,2.8,2.8c1.5,0,2.8-1.3,2.8-2.8s-1.3-2.8-2.8-2.8C168.4,358,167.1,359.3,167.1,360.8z"/>
	<path d="M174.1,344.6c0,1.5,1.3,2.8,2.8,2.8c1.5,0,2.8-1.3,2.8-2.8s-1.3-2.8-2.8-2.8C175.4,341.8,174.1,343.1,174.1,344.6z"/>
	<path d="M233.3,362.9c-0.8,0-1.6,0.4-2.1,1c-1.4,0.4-2.5,1.8-2.5,3.3c0,1.9,1.6,3.5,3.5,3.5s3.5-1.6,3.5-3.5c0,0,0,0,0-0.1
		c0.3-0.4,0.4-0.9,0.4-1.4C236.1,364.2,234.8,362.9,233.3,362.9z"/>
	<circle cx="188.2" cy="358" r="2.8"/>
	<path d="M221.3,375.6c0-1.5-1.3-2.8-2.8-2.8c-0.7,0-1.3,0.2-1.8,0.6c-0.1,0-0.3,0-0.4,0c-1.6,0-2.9,1.1-3.3,2.5
		c-0.2-0.1-0.5-0.1-0.8-0.1c-1.3,0-2.3,1-2.3,2.3s1,2.3,2.3,2.3c0.7,0,1.4-0.3,1.8-0.9c0.6,0.5,1.4,0.9,2.3,0.9
		c1.5,0,2.7-0.9,3.2-2.2C220.6,377.8,221.3,376.8,221.3,375.6z"/>
	<path d="M86,401.7c0,1.5,1.3,2.8,2.8,2.8s2.8-1.3,2.8-2.8s-1.3-2.8-2.8-2.8S86,400.2,86,401.7z"/>
	<circle cx="105" cy="391.8" r="2.8"/>
	<path d="M128.3,386.2c0,1.5,1.3,2.8,2.8,2.8c1.5,0,2.8-1.3,2.8-2.8s-1.3-2.8-2.8-2.8C129.6,383.4,128.3,384.7,128.3,386.2z"/>
	<path d="M133.9,409.4c0-1.5-1.3-2.8-2.8-2.8c-1.5,0-2.8,1.3-2.8,2.8s1.3,2.8,2.8,2.8C132.6,412.2,133.9,410.9,133.9,409.4z"/>
	<path d="M201.3,373c0.2-0.4,0.4-0.8,0.4-1.3c0-1.3-1-2.3-2.3-2.3c-1.3,0-2.3,1-2.3,2.3c0,0.1,0,0.2,0,0.3c-0.7,0.5-1.1,1.3-1.1,2.2
		c0,1.5,1.3,2.8,2.8,2.8c1.5,0,2.8-1.3,2.8-2.8C201.6,373.8,201.5,373.4,201.3,373z"/>
	<path d="M188.9,382c-1.5,0-2.8,1.3-2.8,2.8s1.3,2.8,2.8,2.8c1.5,0,2.8-1.3,2.8-2.8S190.4,382,188.9,382z"/>
	<path d="M169.2,395.3c1.5,0,2.8-1.3,2.8-2.8c0-0.3-0.1-0.5-0.1-0.8c0.3,0.1,0.6,0.2,0.9,0.2c1.3,0,2.3-1,2.3-2.3s-1-2.3-2.3-2.3
		c-1.3,0-2.3,1-2.3,2.3c0,0.2,0,0.3,0,0.5c-0.4-0.2-0.9-0.4-1.3-0.4c-1.5,0-2.8,1.3-2.8,2.8S167.7,395.3,169.2,395.3z"/>
	<path d="M203.7,348.8c0-1.5-1.3-2.8-2.8-2.8c-1.5,0-2.8,1.3-2.8,2.8c0,0.8,0.4,1.5,0.9,2c-0.4,0.4-0.7,1-0.7,1.7
		c0,1.3,1,2.3,2.3,2.3c1.3,0,2.3-1,2.3-2.3c0-0.5-0.2-1-0.5-1.4C203.2,350.6,203.7,349.8,203.7,348.8z"/>
	<path d="M122.6,394.7c-1.5,0-2.8,1.3-2.8,2.8s1.3,2.8,2.8,2.8c1.5,0,2.8-1.3,2.8-2.8S124.1,394.7,122.6,394.7z"/>
	<circle cx="58.5" cy="389.7" r="2.8"/>
	<circle cx="74.7" cy="392.5" r="2.8"/>
	<path d="M209.3,386.9c0-1.5-1.3-2.8-2.8-2.8c-1.5,0-2.8,1.3-2.8,2.8c-1.4,0.5-2.4,1.8-2.4,3.3c0,1.9,1.6,3.5,3.5,3.5
		c1.9,0,3.5-1.6,3.5-3.5c0-0.4-0.1-0.7-0.2-1C208.8,388.7,209.3,387.8,209.3,386.9z"/>
	<path d="M143.1,398.3c-1.5,0-2.8,1.3-2.8,2.8s1.3,2.8,2.8,2.8c1.5,0,2.8-1.3,2.8-2.8S144.6,398.3,143.1,398.3z"/>
	<path d="M158.8,402.1c-1.5,0-2.8,1.3-2.8,2.8s1.3,2.8,2.8,2.8c1.5,0,2.8-1.3,2.8-2.8S160.3,402.1,158.8,402.1z"/>
	<path d="M174.3,411.4c1.5,0,2.8-1.3,2.8-2.8s-1.3-2.8-2.8-2.8c-1.5,0-2.8,1.3-2.8,2.8S172.8,411.4,174.3,411.4z"/>
	<circle cx="204.5" cy="401.9" r="2.8"/>
	<path d="M148.4,410.1c-0.2,0-0.4,0-0.6,0.1c0.2-0.4,0.3-0.9,0.3-1.4c0-1.9-1.6-3.5-3.5-3.5c-1.9,0-3.5,1.6-3.5,3.5s1.6,3.5,3.5,3.5
		c0.4,0,0.8-0.1,1.1-0.2c-0.1,0.3-0.1,0.5-0.1,0.8c0,1.5,1.3,2.8,2.8,2.8c1.5,0,2.8-1.3,2.8-2.8S149.9,410.1,148.4,410.1z"/>
	<circle cx="159.6" cy="395.5" r="3.5"/>
	<circle cx="234" cy="415.9" r="3.5"/>
	<circle cx="252.5" cy="399.1" r="3.5"/>
	<circle cx="89.7" cy="433.6" r="3.5"/>
	<path d="M186.1,386.7c0-1-0.4-1.9-1.1-2.6c0.6-0.4,0.9-1.1,0.9-1.8c0-1.3-1-2.3-2.3-2.3c-1.3,0-2.3,1-2.3,2.3
		c0,0.4,0.1,0.7,0.3,1.1c-1.4,0.4-2.5,1.8-2.5,3.3c0,1.9,1.6,3.5,3.5,3.5C184.5,390.2,186.1,388.6,186.1,386.7z"/>
	<circle cx="177.3" cy="353" r="3.5"/>
	<circle cx="248.1" cy="379.6" r="3.5"/>
	<circle cx="191.5" cy="369.9" r="3.5"/>
	<circle cx="229.5" cy="392" r="3.5"/>
	<circle cx="66.7" cy="424.7" r="3.5"/>
	<circle cx="87.1" cy="412.3" r="3.5"/>
	<circle cx="119.8" cy="405.2" r="3.5"/>
	<circle cx="119.8" cy="434.4" r="3.5"/>
	<path d="M192.4,400c-1,0-1.9,0.4-2.5,1.1c0.2-0.4,0.3-0.8,0.3-1.3c0-1.5-1.3-2.8-2.8-2.8c-1.5,0-2.8,1.3-2.8,2.8s1.3,2.8,2.8,2.8
		c0.8,0,1.5-0.3,2-0.8c-0.3,0.5-0.5,1.1-0.5,1.7c0,1.9,1.6,3.5,3.5,3.5c1.9,0,3.5-1.6,3.5-3.5S194.3,400,192.4,400z"/>
	<circle cx="167.6" cy="413.2" r="3.5"/>
	<circle cx="109.2" cy="419.4" r="3.5"/>
	<circle cx="28.7" cy="409.7" r="3.5"/>
	<circle cx="49" cy="413.2" r="3.5"/>
	<circle cx="214.5" cy="406.1" r="3.5"/>
	<circle cx="134.8" cy="424" r="3.5"/>
	<circle cx="190.5" cy="422.3" r="3.5"/>
	<circle cx="154.6" cy="428.7" r="3.5"/>
	<circle cx="174.1" cy="433.4" r="3.5"/>
	<circle cx="211.9" cy="425" r="3.5"/>
	<circle cx="141.5" cy="438.7" r="3.5"/>
</g>
</svg>
