<?xml version="1.0" encoding="utf-8"?>
<!-- Generator: Adobe Illustrator 24.3.0, SVG Export Plug-In . SVG Version: 6.00 Build 0)  -->
<svg version="1.1" id="Calque_1" xmlns="http://www.w3.org/2000/svg" xmlns:xlink="http://www.w3.org/1999/xlink" x="0px" y="0px"
	 viewBox="0 0 500 500" style="enable-background:new 0 0 500 500;" xml:space="preserve">
<path d="M462.7,314.6c-5.8,0-10.5,4.7-10.5,10.5v16.4h-3.9v-86.7H313l-52.3-114.5h1.6v-14.1h-24.7v14.1h1.5l-52.3,114.5H51.7v86.6
	h-3.9v-16.2c0-5.8-4.7-10.5-10.5-10.5s-10.5,4.7-10.5,10.5v38.1c0,5.8,4.7,10.5,10.5,10.5s10.5-4.7,10.5-10.5v-16.5h11.5v-25.8h49.1
	l-31.9,9l11,38.9l4.8-1.5l-9.6-34l43.9-12.4h27.7l-31.9,9l11,38.9l4.8-1.5l-9.6-34l43.9-12.4h27.7l-31.9,9l11,38.9l4.8-1.5l-9.6-34
	l43.8-12.4h27.8l-31.9,9l10.9,38.9l4.8-1.5l-9.6-34l43.9-12.4h27.7l-31.9,9l11,38.9l4.8-1.5l-9.6-34l43.9-12.4h27.7l-31.9,9l11,38.9
	l4.8-1.5l-9.6-34l43.9-12.4h27.7l-31.9,9l11,38.9l4.8-1.5l-9.6-34l43.8-12.4h27.8l-32,9l10.9,38.9l4.8-1.5l-9.6-34l36.9-10.4v23.8
	h11.5v16.4c0,5.8,4.7,10.5,10.5,10.5s10.5-4.7,10.5-10.5v-38.1C473.2,319.3,468.5,314.6,462.7,314.6z M249.9,141.2l51.9,113.6H198
	L249.9,141.2z"/>
</svg>
