<?xml version="1.0" encoding="utf-8"?>
<!-- Generator: Adobe Illustrator 24.3.0, SVG Export Plug-In . SVG Version: 6.00 Build 0)  -->
<svg version="1.1" id="Calque_1" xmlns="http://www.w3.org/2000/svg" xmlns:xlink="http://www.w3.org/1999/xlink" x="0px" y="0px"
	 viewBox="0 0 1000 1000" style="enable-background:new 0 0 1000 1000;" xml:space="preserve">
<g>
	<g>
		<g>
			<path d="M189.9,165.1l12.2,49.8h25.4v164.4c-36.6,10.8-64.6,27.8-91.4,44.6l15.6,22.4c39.2-29.4,87.6-46.4,139.8-46.4
				c128.6,0,232.8,104.2,232.8,231.8c0,5.4,0,10.2-0.4,15.6h87.6c23.4-46,71.8-77.8,127.2-77.8c75.8,0,138,59.2,142.4,134h33.2v-136
				h-77.8l11.2-128.6l-139.8-17.2V225.1h-41.6v198h-97.8l-63.6-208.4h24l17.2-49.8H189.9V165.1z M508.7,423.9l-51.8,4
				c-47.4-41.6-111.6-53.8-172.6-55.2V215.3h168.2L508.7,423.9z M291.5,424.7c-47,0-90,15.2-125.6,41.6c-0.4,0.4-1.4,1-2,1.4
				c-2.4,1.4-4.8,3.4-6.8,5.4c-43.6,37.6-71.4,93-71.4,155.6c0,116,96.4,206.4,207.4,206.4c92,0,173.2-61.6,198.6-148.6
				c0.4-1,0.4-1.4,1-2.4c0.4-0.4,0.4-1,0.4-1.4c4-16.2,6.4-33.2,6.4-50.4C499.5,517.3,406.5,424.7,291.5,424.7L291.5,424.7z
				 M293.5,546.1c52.8,0,84.2,39.2,84.2,82.6c0,43.6-31.2,82.6-84.2,82.6s-84.2-39.2-84.2-82.6C209.5,585.1,240.7,546.1,293.5,546.1
				L293.5,546.1z"/>
		</g>
		<path d="M616.7,713.3c0,67,54.8,121.8,121.8,121.8s121.8-54.8,121.8-121.8s-54.2-121.8-121.8-121.8
			C671.5,591.5,616.7,646.3,616.7,713.3z M674.5,713.3c0-35.2,28.8-64,64-64s64,28.8,64,64s-28.8,64-64,64S674.5,748.5,674.5,713.3z
			"/>
	</g>
</g>
</svg>
