<?xml version="1.0" encoding="utf-8"?>
<!-- Generator: Adobe Illustrator 24.3.0, SVG Export Plug-In . SVG Version: 6.00 Build 0)  -->
<svg version="1.1" id="Calque_1" xmlns="http://www.w3.org/2000/svg" xmlns:xlink="http://www.w3.org/1999/xlink" x="0px" y="0px"
	 viewBox="0 0 1000 1000" style="enable-background:new 0 0 1000 1000;" xml:space="preserve">
<style type="text/css">
	.st0{fill:#FFFFFF;}
	.st1{fill:none;}
</style>
<g>
	<path d="M918.8,828.2c-31.1,0-56.2,25.1-56.2,56.2s25.1,56.2,56.2,56.2s56.2-25.1,56.2-56.2S949.7,828.2,918.8,828.2z M918.8,911.5
		c-15.1,0-27.1-12-27.1-27.1s12-27.1,27.1-27.1s27.1,12,27.1,27.1S933.7,911.5,918.8,911.5z"/>
	<g>
		<polygon class="st0" points="359.5,454.1 362.1,452.9 359.5,446.3 356.7,452.9 		"/>
		<polygon class="st0" points="359.5,465 356.7,466 359.5,472.6 362.1,466 		"/>
		<polygon class="st0" points="355.7,455.8 356.7,452.9 350.3,450.3 352.9,456.8 		"/>
		<polygon class="st0" points="363.3,463.4 362.1,466 368.8,468.8 365.9,462.2 		"/>
		<polygon class="st0" points="356.7,452.9 355.7,455.8 359.5,454.1 		"/>
		<polygon class="st0" points="362.1,466 363.3,463.4 359.5,465 		"/>
		<polygon class="st0" points="355.7,463.4 352.9,462.2 350.3,468.8 356.7,466 		"/>
		<polygon class="st0" points="363.3,455.8 365.9,456.8 368.8,450.3 362.1,452.9 		"/>
		<polygon class="st0" points="362.1,452.9 359.5,454.1 363.3,455.8 		"/>
		<polygon class="st0" points="356.7,466 359.5,465 355.7,463.4 		"/>
		<polygon class="st0" points="364.9,459.6 365.9,462.2 372.6,459.6 365.9,456.8 		"/>
		<polygon class="st0" points="354.1,459.6 352.9,456.8 346.3,459.6 352.9,462.2 		"/>
		<polygon class="st0" points="352.9,462.2 355.7,463.4 354.1,459.6 		"/>
		<polygon class="st0" points="365.9,456.8 363.3,455.8 364.9,459.6 		"/>
		<polygon class="st0" points="363.3,463.4 365.9,462.2 364.9,459.6 		"/>
		<polygon class="st0" points="352.9,456.8 354.1,459.6 355.7,455.8 		"/>
		<polygon class="st0" points="363.3,455.8 359.5,454.1 355.7,455.8 354.1,459.6 355.7,463.4 359.5,465 363.3,463.4 364.9,459.6 		
			"/>
	</g>
	<g>
		<path class="st1" d="M432.2,830.2c0,0.2,0,0.4-0.2,0.6C432,830.6,432,830.4,432.2,830.2z"/>
		<path class="st1" d="M431,837.4c0,0.6-0.2,1.4-0.2,2.2C430.8,838.8,430.8,838,431,837.4z"/>
		<path class="st1" d="M431.6,833.4c0,0.6-0.2,1-0.2,1.6C431.4,834.6,431.4,834,431.6,833.4z"/>
		<path class="st1" d="M430.4,841.5c0,0.8-0.2,1.8-0.2,2.6C430.4,843.3,430.4,842.5,430.4,841.5z"/>
		<path class="st1" d="M430.2,845.7c0,1.4-0.2,2.8-0.2,4.4C430,848.7,430,847.3,430.2,845.7z"/>
	</g>
	<g>
		<path d="M829.1,63h22.3c0.8,0,1.6-0.4,1.6-1.2V61c0-1.2-0.8-1.6-1.6-1.6h-22.3c-0.8,0-1.2,0.4-1.2,1.6v0.8
			C827.9,62.6,828.3,63,829.1,63z"/>
		<path d="M812.3,116.2l4.6-26.1l13.4-2.6v3.4h-2.6c-0.8,0-1.6,0.4-1.6,1.2v0.8c0,1.2,0.8,2,1.6,2h2.6v1.2h-2.6
			c-0.8,0-1.6,1.2-1.6,2v0.8c0,1.2,0.8,1.6,1.6,1.6h2.6v1.2h-2.6c-0.8,0-1.6,0.4-1.6,2v0.8c0,1.2,0.8,1.6,1.6,1.6h2.6v0.8h-2.6
			c-0.8,0-1.6,0.4-1.6,1.2v1.2c0,0.8,0.8,1.6,1.6,1.6h2.6v2h-2.6c-0.8,0-1.6,0.8-1.6,1.6v1.2c0,0.8,0.8,1.2,1.6,1.2h2.6v4.2
			l18.5-4.2h3.4c0.8,0,1.6-0.4,1.6-1.2v-1.2c0-0.8-0.8-1.6-1.6-1.6h-2v-2h2c0.8,0,1.6-0.8,1.6-1.6v-1.2c0-0.8-0.8-1.2-1.6-1.2h-2
			v-1.6h2c0.8,0,1.6-0.4,1.6-1.6V103c0-1.6-0.8-2-1.6-2h-2v-1.2h2c0.8,0,1.6-0.4,1.6-1.6v-0.8c0-0.8-0.8-2-1.6-2h-2v-1.2h2
			c0.8,0,1.6-0.8,1.6-2v-0.8c0-0.8-0.8-1.2-1.6-1.2h-2v-3.4l13.4,2.6l3.4,20.5l11.8-3.4l-5.8-26.1l-22.7-5.6v-8h-20.1v8l-23.1,6.2
			l-7.6,35.3v20.9l0,0h12.6L812.3,116.2L812.3,116.2z"/>
		<path d="M946.1,107.4l-6.2,2l0.4-13.4l-120,32.1l0.4,13h-42.3l-8.4-15.9l-36.5-1.2l11.2,26.9l36.9,0.4h39.3V164l9.6-2v19.3
			l-13.4-2.6l-4.8-25.1h-12.6l7.6,34.7l23.1,6.2v8h20.1v-8l23.1-6.2l5.8-27.3l-12.8,2.2l-2.6,15.9l-13.4,2.6v-23.1l29.7-5.4v-16.5
			l33.5-8.8l0.8,14.6l33.5-9.2c3.4-1.2,5-3,5-6.6V112C952.7,107.8,950.1,105.8,946.1,107.4z"/>
		<path d="M860.8,645.8V322.5h11.4v-52h-13v-0.8v-1.2c0-2-1.2-3-2.4-3h-5.4v-2h5.4c1.2,0,2.4-1.6,2.4-2.6v-1.2c0-2-1.2-2.6-2.4-2.6
			h-5.4v-1.6h5.4c1.2,0,2.4-0.8,2.4-3v-1.2c0-2-1.2-2.2-2.4-2.2h-5.4v-2.6h5.4c1.2,0,2.4-0.4,2.4-1.6v-2c0-1.2-1.2-2.2-2.4-2.2h-5.4
			v-3.2h5.4c1.2,0,2.4-1.2,2.4-2.2v-2c0-1.2-1.2-1.6-2.4-1.6h-0.4l7.2-7.2l0.8-6.2v-8.8h-34.1l-9.6,11.8v10.4h-2.4
			c-1.2,0-2.2,0.4-2.2,1.6v2c0,1.2,1.2,2.2,2.2,2.2h2.4v3h-2.4c-1.2,0-2.2,1.2-2.2,2.2v2c0,1.2,1.2,1.6,2.2,1.6h2.4v2.6h-2.4
			c-1.2,0-2.2,0.4-2.2,2.2v1.2c0,2.4,1.2,3,2.2,3h2.4v1.6h-2.4c-1.2,0-2.2,0.8-2.2,2.6v1.2c0,1.2,1.2,2.6,2.2,2.6h2.4v2h-2.4
			c-1.2,0-2.2,1.2-2.2,3v1.2c0,1.2,1.2,2,2.2,2h2.4v50.8h10v323.3h-55.2v22.1h39.3L677,773.2c-7.6-4-15.5-8.6-23.9-13.8
			c-18.7-11.6-51.8-36.1-86.9-63.2c66-57.6,107.6-142.3,107.6-236.8c0-173.6-140.7-314.3-314.3-314.3S45.3,286,45.3,459.6
			c0,77.1,27.7,147.5,73.6,202.3l-11.6,11.6c-3-3-7.8-3-10.8,0L65.7,704c-3,3-3,7.8,0,10.8l-18.9,18.9L85.2,772l18.9-18.9
			c3,3,7.8,3,10.8,0l30.7-30.7c3-3,3-7.8,0-10.8l11.6-11.6c32.1,27.1,69.8,47.8,111,60.2v54H103.1v-11.8H75v11.8H25v25.3l50,2.2
			v77.1H48.9v18.1H75h28.1h26.1v-18.1h-26.1v-75.9l233,10.4h94.1c0-1.2,0-2.4,0-3.6c0-1.4,0-2.8,0.2-4.4c0-0.6,0-1,0-1.6
			c0-0.8,0.2-1.8,0.2-2.6c0-0.6,0.2-1.4,0.2-2c0-0.8,0.2-1.4,0.2-2.2c0.2-0.8,0.2-1.6,0.4-2.2c0-0.6,0.2-1,0.2-1.6
			c0.2-0.8,0.4-1.8,0.4-2.6c0-0.2,0-0.4,0.2-0.6c1.2-5.4,2.8-10.8,4.8-15.9c3.4-8.8,8.2-16.9,13.8-24.1V760
			c32.9-10,63.6-25.3,90.9-44.8c38.1,29.3,74.7,56.6,95.3,69.4c68.8,42.9,110.8,46.4,158.5,46.4c35.9,0,65.2-29.3,65.2-65.2v-98.3
			h47v154.9c3.6-0.6,7.2-1,11-1s7.4,0.4,11,1V667.5v-22.1h-22.1h-47V645.8z M386,465l40.9,16.9h-26.3l-18.5-7.6
			C384,471.6,385.2,468.4,386,465z M298.7,482h-6.6l11.2-4.6L298.7,482z M642.3,576.6c-0.8,2-2.6,3-4.6,3c-0.6,0-1.2-0.2-2-0.4
			l-184.8-76.7v-10.8l188.6,78.1C642.1,571.1,643.3,574.1,642.3,576.6z M635.7,339.8c2.6-1,5.4,0.2,6.6,2.8c1.2,2.6-0.2,5.4-2.8,6.6
			L386,454.1c-0.6-3.4-2-6.4-3.8-9.2L635.7,339.8z M476.5,176.8c2.6,1,3.8,4,2.8,6.6l-105,253.5c-2.8-1.8-5.8-3.2-9.2-3.8l105-253.5
			C471.1,177,474.1,175.8,476.5,176.8z M242.3,176.8c2.6-1,5.4,0.2,6.6,2.8l105,253.5c-3.4,0.8-6.4,2-9.2,3.8l-105-253.5
			C238.5,180.8,239.7,177.8,242.3,176.8z M76.8,342.4c1-2.6,4-3.8,6.6-2.8l252.9,104.8l-7.6,7.8L79.4,349
			C77,348,75.8,345,76.8,342.4z M81.4,579.8c-2,0-3.8-1.2-4.6-3c-1-2.6,0.2-5.4,2.8-6.6l188.6-78.3v10.8L83.4,579.4
			C82.6,579.6,82,579.8,81.4,579.8z M249,739.5c-0.8,2-2.6,3-4.6,3c-0.6,0-1.2-0.2-2-0.4c-2.6-1-3.8-4-2.8-6.6l28.5-68.8V693
			L249,739.5z M476.5,742.3c-0.6,0.2-1.2,0.4-2,0.4c-2,0-3.8-1.2-4.6-3l-19.3-46.4v-26.5l28.5,68.8
			C480.3,738.3,479.1,741.1,476.5,742.3z M795.6,801.3c-33.1,0-61.8-1.6-100.1-18.9h1.8l133.4-102.1v85.9
			C830.7,785.5,815.1,801.3,795.6,801.3z"/>
	</g>
	<path d="M612.8,863.3c0.2-1.4,0.4-2.8,0.6-4.4c0.2-3,0.4-5.8,0.4-8.8c0-48-38.9-86.9-86.9-86.9c-21.1,0-40.3,7.4-55.4,19.9
		c-7.4,6.2-14,13.6-19.1,22.1c-0.8,1.2-1.4,2.4-2,3.6c-6.6,12.2-10.4,26.5-10.4,41.3c0,30.1,15.3,56.4,38.3,72
		c13.8,9.4,30.5,14.9,48.6,14.9s34.7-5.4,48.6-14.9c2.4-1.6,4.6-3.2,6.6-5c4.2-3.6,8.2-7.4,11.8-11.8
		C603.7,893.6,610.4,879.2,612.8,863.3z M526.9,892c-23.1,0-41.9-18.9-41.9-41.9c0-23.1,18.9-41.9,41.9-41.9
		c23.1,0,41.9,18.9,41.9,41.9C568.8,873.2,550.2,892,526.9,892z"/>
	<path d="M713.7,828.2c-31.1,0-56.2,25.1-56.2,56.2s25.1,56.2,56.2,56.2c31.1,0,56.2-25.1,56.2-56.2S744.8,828.2,713.7,828.2z
		 M713.7,911.5c-15.1,0-27.1-12-27.1-27.1s12-27.1,27.1-27.1c15.1,0,27.1,12,27.1,27.1S728.8,911.5,713.7,911.5z"/>
</g>
</svg>
