<?xml version="1.0" encoding="utf-8"?>
<!-- Generator: Adobe Illustrator 24.3.0, SVG Export Plug-In . SVG Version: 6.00 Build 0)  -->
<svg version="1.1" id="Calque_1" xmlns="http://www.w3.org/2000/svg" xmlns:xlink="http://www.w3.org/1999/xlink" x="0px" y="0px"
	 viewBox="0 0 1000 1000" style="enable-background:new 0 0 1000 1000;" xml:space="preserve">
<g>
	<g>
		<g>
			<path d="M125.8,95.8l14.7,60.1h30.7v198.4c-44.2,13-78,33.6-110.3,53.8l18.8,27c47.3-35.5,105.7-56,168.7-56
				c155.2,0,281,125.8,281,279.7c0,6.5,0,12.3-0.5,18.8h105.7c28.2-55.5,86.7-93.9,153.5-93.9c91.5,0,166.5,71.4,171.9,161.7h40.1
				V581.5h-93.9l13.5-155.2l-168.7-20.8V168.2h-50.2v239h-118l-76.8-251.5h29l20.8-60.1H125.8V95.8z M510.5,408.2L448,413
				c-57.2-50.2-134.7-64.9-208.3-66.6v-190h203L510.5,408.2z M248.4,409.1c-56.7,0-108.6,18.3-151.6,50.2c-0.5,0.5-1.7,1.2-2.4,1.7
				c-2.9,1.7-5.8,4.1-8.2,6.5C33.6,512.9,0,579.8,0,655.3c0,140,116.3,249.1,250.3,249.1c111,0,209-74.3,239.7-179.3
				c0.5-1.2,0.5-1.7,1.2-2.9c0.5-0.5,0.5-1.2,0.5-1.7c4.8-19.6,7.7-40.1,7.7-60.8C499.4,520.9,387.2,409.1,248.4,409.1L248.4,409.1z
				 M250.8,555.6c63.7,0,101.6,47.3,101.6,99.7c0,52.6-37.7,99.7-101.6,99.7s-101.6-47.3-101.6-99.7
				C149.4,602.7,187.1,555.6,250.8,555.6L250.8,555.6z"/>
		</g>
		<path d="M640.8,757.4c0,80.9,66.1,147,147,147s147-66.1,147-147s-65.4-147-147-147C707,610.4,640.8,676.6,640.8,757.4z
			 M710.6,757.4c0-42.5,34.8-77.2,77.2-77.2c42.5,0,77.2,34.8,77.2,77.2c0,42.5-34.8,77.2-77.2,77.2
			C745.4,834.7,710.6,799.9,710.6,757.4z"/>
	</g>
</g>
</svg>
