<?xml version="1.0" encoding="utf-8"?>
<!-- Generator: Adobe Illustrator 24.3.0, SVG Export Plug-In . SVG Version: 6.00 Build 0)  -->
<svg version="1.1" id="Calque_1" xmlns="http://www.w3.org/2000/svg" xmlns:xlink="http://www.w3.org/1999/xlink" x="0px" y="0px"
	 viewBox="0 0 1000 1000" style="enable-background:new 0 0 1000 1000;" xml:space="preserve">
<path d="M836.4,565.1c-27.4,0-49.6,22.2-49.6,49.6v77.6h-27.6l-1.8-536.6H240.8v536.2h-27.6v-77.2c0-27.4-22.2-49.6-49.6-49.6
	c-27.4,0.2-49.6,22.4-49.6,49.8v180c0,27.2,22.2,49.4,49.6,49.4c27.2,0,49.6-22.2,49.6-49.6v-77.2h30.6c10,36.8,43.6,64,83.4,64
	h345.6c39.8,0,73.2-27,83.4-63.6h30.6v76.8c0,27.4,22.2,49.6,49.6,49.6s49.6-22.4,49.6-49.6v-180C886,587.3,863.8,565.1,836.4,565.1
	z M488.8,273.9c-56.2-1.4-84.2-13.2-87.2-30s33.8-38.4,87.2-53.4V273.9z M488.8,500.9c-56.2-1.2-84.2-13-87.2-30
	c-3-16.8,33.8-38.4,87.2-53.4V500.9z M511.4,555.3c56.2,1.4,84,13,87,30c3,16.8-33.6,38.4-87,53.4L511.4,555.3L511.4,555.3z
	 M511.4,328.1c56.2,1.4,84,13,87,30c3,16.8-33.6,38.4-87,53.4L511.4,328.1L511.4,328.1z M276,692.5v-517h212.8v13.2
	c-6.8,0.8-13.6,2-20.6,3.2c-75.6,13.6-123.4,42.6-130.2,62.8c-12,35.6,71.8,71.8,150.8,73.2v88c-6.8,0.8-13.6,2-20.6,3.2
	c-75.6,13.6-123.4,42.6-130.2,62.8c-12,35.6,71.8,71.8,150.8,73.2v104.8h-73.4v32.8H276V692.5z M724,692.5H584.6v-32.6h-73.2v-19.4
	c6.8-0.8,13.6-2,20.4-3.2c75.6-13.6,123.4-42.6,130.2-62.8c12-35.4-71.6-71.6-150.6-73.2v-88c6.8-0.8,13.6-2,20.4-3.2
	c75.6-13.6,123.4-42.6,130.2-62.8c12-35.4-71.6-71.6-150.6-73.2v-98.6H724V692.5z"/>
</svg>
