<?xml version="1.0" encoding="utf-8"?>
<!-- Generator: Adobe Illustrator 24.3.0, SVG Export Plug-In . SVG Version: 6.00 Build 0)  -->
<svg version="1.1" id="Calque_1" xmlns="http://www.w3.org/2000/svg" xmlns:xlink="http://www.w3.org/1999/xlink" x="0px" y="0px"
	 viewBox="0 0 1000 1000" style="enable-background:new 0 0 1000 1000;" xml:space="preserve">
<path d="M952.7,637.5c-12.3,0-22.3,10-22.3,22.3v34.9H922v-43.4v-56.2v-84.9H634.1L522.8,266.5h3.4v-30h-52.6v30h3.4L365.7,510.2H78
	v85.1v56v43.2h-8.3V660c0-12.3-10-22.3-22.3-22.3S25,647.7,25,660v81.1c0,12.3,10,22.3,22.3,22.3s22.3-10,22.3-22.3V706H78v0.2h16.2
	v-54.9h143.6v19.6c-14.3-3.6-27.2-8.3-38.1-13.6l-16-2.1l-7,8.1c11.1,22.6-8.7,45.5-52.1,59.8l-5.7,7l20,2.8
	c53.4-4.5,108.5,3.6,143.9,20.6l19.8,2.8l6.4-7.2c-11.7-22.6,8.7-46,52.4-60.4l6.4-7.4l-16-2.1c-34.9,3.2-71.1,1.1-102.2-5.3v-22.3
	h244.7v23.6c-28.5,1.5-58.1-0.4-84.9-5.5l-16.6,0.9l2.1,8.3c34.1,18.1,40.9,42.3,17.2,63l2.1,7.2l20.9-1.1c43.6-13,102.2-16,151.7-7
	l20.9-1.1l-1.9-6.6c-34.3-18.1-41.3-42.6-17.2-63.6l-2.1-8.1l-17,0.9c-18.7,6.2-40.6,10-63.4,11.9v-22.8h244.1v18.9
	c-13.6-3.6-26-8.3-36.2-13.8l-15.5-2.1l-7.2,8.1c10.6,22.6-10,45.1-54.1,59.8l-6.2,7l19.6,2.8c53.4-3.8,108.5,4.5,143.2,21.5
	l19.8,2.8l6.2-7.2c-10.9-22.6,10-45.5,54.3-60l7-7.4l-16-2.6c-35.8,3.2-72.1,0.9-103.2-6v-21.7h144.1V706h9.6v0.2h14.9v34.7
	c0,12.3,10,22.3,22.3,22.3c12.3,0,22.3-10,22.3-22.3v-81.1C975,647.5,965,637.5,952.7,637.5z M500,268.7l110.5,241.5H389.5
	L500,268.7z"/>
</svg>
