<?xml version="1.0" encoding="utf-8"?>
<!-- Generator: Adobe Illustrator 24.3.0, SVG Export Plug-In . SVG Version: 6.00 Build 0)  -->
<svg version="1.1" id="Calque_1" xmlns="http://www.w3.org/2000/svg" xmlns:xlink="http://www.w3.org/1999/xlink" x="0px" y="0px"
	 viewBox="0 0 1000 1000" style="enable-background:new 0 0 1000 1000;" xml:space="preserve">
<style type="text/css">
	.st0{fill:none;}
</style>
<g>
	<g>
		<rect x="340.4" y="393.5" class="st0" width="220.8" height="55"/>
		<rect x="99" y="320.3" class="st0" width="220.8" height="55"/>
		<rect x="340.4" y="320.3" class="st0" width="220.8" height="55"/>
		<rect x="99" y="393.5" class="st0" width="220.8" height="55"/>
		<rect x="582" y="320.3" class="st0" width="220.8" height="55"/>
		<rect x="582" y="393.5" class="st0" width="220.8" height="55"/>
		<path d="M825.4,567.9v-3.8c0-5-4-9.2-9.2-9.2h-11.4v-20H821h12.6v-46V267.5H821h-18.2v32.8H99v-32.8H82.2H72v221.4v46h10.2h18.4
			v77.6h42.6c4.7-14.1,12.6-27.1,23.4-38c18.4-18.6,43-28.8,69.2-28.8c43.1,0,79.6,28,92.5,66.8h249.1
			c12.8-38.8,49.4-66.8,92.5-66.8c43.1,0,79.6,28,92.5,66.8h42.5v-7.6h11.4c5,0,9.2-4,9.2-9.2v-5.2H928v-22.6H825.4z M319.8,448.5
			H99v-55h220.8V448.5z M319.8,375.3H99v-55h220.8V375.3z M561.2,448.5H340.4v-55h220.8V448.5z M561.2,375.3H340.4v-55h220.8V375.3z
			 M802.8,448.5H582v-55h220.8V448.5z M802.8,375.3H582v-55h220.8V375.3z"/>
	</g>
	<path d="M669.8,553.7c-49.2,0-89.4,40.2-89.4,89.4c0,49.2,40.2,89.4,89.4,89.4s89.4-40.2,89.4-89.4
		C759.2,593.9,719,553.7,669.8,553.7z M669.8,694.7c-28.6,0-51.6-23.2-51.6-51.6c0-28.4,23-51.6,51.6-51.6s51.6,23.2,51.6,51.6
		C721.4,671.7,698.2,694.7,669.8,694.7z"/>
	<path d="M235.8,553.7c-49.2,0-89.4,40.2-89.4,89.4c0,49.2,40.2,89.4,89.4,89.4s89.4-40.2,89.4-89.4
		C325.2,593.9,285,553.7,235.8,553.7z M235.8,694.7c-28.6,0-51.6-23.2-51.6-51.6c0-28.4,23-51.6,51.6-51.6s51.6,23.2,51.6,51.6
		C287.4,671.7,264.2,694.7,235.8,694.7z"/>
</g>
</svg>
