<?xml version="1.0" encoding="utf-8"?>
<!-- Generator: Adobe Illustrator 24.3.0, SVG Export Plug-In . SVG Version: 6.00 Build 0)  -->
<svg version="1.1" id="Calque_1" xmlns="http://www.w3.org/2000/svg" xmlns:xlink="http://www.w3.org/1999/xlink" x="0px" y="0px"
	 viewBox="0 0 500 500" style="enable-background:new 0 0 500 500;" xml:space="preserve">
<path d="M287.2,423h146L375,378.2l-5.4,18.8h-0.4c-77.9-109.1-78.5-186.4-65-232.2c12.6-42.9,38.4-63.4,49.2-68.8H412V77H88v19h66.9
	c-2.4,2.4-4.8,5-7.1,7.8c-13,15.5-23.2,34.8-29.3,55.7c-14.3,48.3-14.7,127.9,60,237.5h-25.1l-34,26h146l-58.2-44.8l-5.4,18.8h-0.5
	c-77.8-109.1-78.4-186.3-64.9-232.2c12.6-42.9,38.4-63.4,49.2-68.8h137.2c-2.4,2.4-4.8,5-7.1,7.8c-13,15.5-23.2,34.8-29.3,55.7
	c-14.4,48.3-14.7,127.9,60.1,237.5h-25.2L287.2,423z"/>
</svg>
