<?xml version="1.0" encoding="utf-8"?>
<!-- Generator: Adobe Illustrator 24.3.0, SVG Export Plug-In . SVG Version: 6.00 Build 0)  -->
<svg version="1.1" id="Calque_1" xmlns="http://www.w3.org/2000/svg" xmlns:xlink="http://www.w3.org/1999/xlink" x="0px" y="0px"
	 viewBox="0 0 1000 1000" style="enable-background:new 0 0 1000 1000;" xml:space="preserve">
<path d="M698.8,192.1H824v-38H176v38h122.4c-23.2,28.8-44.2,66.4-57.6,111.8c-23,77.8-28.4,201.2,44.8,360h-55.2l152,182h80l-70-182
	h-40.2c-78.2-154.4-75-271.6-54-343c21.8-73.2,64.8-115.2,88.6-128.8h223.6c-23.2,28.8-44.2,66.4-57.6,111.8
	c-23,77.8-28.4,201.2,44.8,360h-55.2l152,182h80l-70-182h-40.2c-78.2-154.4-75-271.6-54-343C632,247.7,675,205.7,698.8,192.1z"/>
</svg>
