<?xml version="1.0" encoding="utf-8"?>
<!-- Generator: Adobe Illustrator 24.3.0, SVG Export Plug-In . SVG Version: 6.00 Build 0)  -->
<svg version="1.1" id="Capa_1" xmlns="http://www.w3.org/2000/svg" xmlns:xlink="http://www.w3.org/1999/xlink" x="0px" y="0px"
	 viewBox="0 0 1000 1000" style="enable-background:new 0 0 1000 1000;" xml:space="preserve">
<g>
	<path d="M446.8,529.2l-46.6,58.3h199.7l-46.6-58.3H446.8z"/>
	<path d="M351.6,645.8c-16.1,16.2-34.2,29.7-53.7,40.5c0.4,6,1,11.9,1.6,17.8h401.1c0.6-5.8,1.1-11.7,1.5-17.8
		c-19.5-10.8-37.6-24.4-53.7-40.5H351.6z"/>
	<path d="M327.1,820.7h346c7-17.6,13.1-37,18-58.3h-382C314,783.7,320.1,803.1,327.1,820.7L327.1,820.7z"/>
	<path d="M500,997.5c17.8,0,92.9-37.2,143.7-118.5H356.4C404.5,956,478.4,997.5,500,997.5z"/>
	<path d="M816.9,296H618c44.2-58.3,38.5-140-13-191.9l36.2-56.7c8.7-13.6,4.7-31.6-8.9-40.3C618.7-1.6,600.7,2.4,592,16l-35.6,55.8
		C520.8,57.1,480.2,57,444,72.3L408,16c-8.7-13.6-26.7-17.5-40.3-8.9c-13.6,8.7-17.5,26.7-8.9,40.3l37,58
		c-50.7,52.1-55.6,133-11.9,190.6H183.1c-99.6,0-180.5,81-180.5,180.6c0,171.3,215.3,245.6,321.5,112.8l176-220l176,220
		C782.7,722.7,997.5,647,997.5,476.5C997.5,376.9,916.5,296,816.9,296L816.9,296z"/>
</g>
</svg>
