<?xml version="1.0" encoding="utf-8"?>
<!-- Generator: Adobe Illustrator 24.3.0, SVG Export Plug-In . SVG Version: 6.00 Build 0)  -->
<svg version="1.1" id="Layer_1" xmlns="http://www.w3.org/2000/svg" xmlns:xlink="http://www.w3.org/1999/xlink" x="0px" y="0px"
	 viewBox="0 0 1000 1000" style="enable-background:new 0 0 1000 1000;" xml:space="preserve">
<style type="text/css">
	.st0{fill:none;}
</style>
<g>
	<g>
		<path class="st0" d="M457.5,257.8V393h169.9c-94.4,0-94.4-154.1,0-154.1H640v-37.7H514.2C482.7,201.2,457.5,226.3,457.5,257.8z"/>
		<path d="M791,393h-37.7c91.2,0,91.2-154.1,0-154.1h-15.7V125.7H640v47.2H514.2c-47.2,0-84.9,37.7-84.9,84.9V393h-88.1v-78.6h31.5
			V160.3H253.1v154.1h34.6V393H209c-245.4,0-245.4,393.2,0,393.2h12.6l31.5,88.1h37.7v-88.1h295.3c2.2-50.3,44-90.7,94.8-90.7
			c51.2,0,92.6,40.4,94.8,90.7H791C1036.3,786.3,1036.3,393,791,393z M640,238.9h-12.6c-94.4,0-94.4,154.1,0,154.1H457.5V257.8
			c0-31.5,25.2-56.6,56.6-56.6H640V238.9z"/>
	</g>
	<path d="M597.1,790.5c0,46.1,37.7,83.8,83.8,83.8c46.1,0,83.8-37.7,83.8-83.8c0-46.1-37.3-83.8-83.8-83.8
		C634.8,706.7,597.1,744.4,597.1,790.5z M636.9,790.5c0-24.2,19.8-44,44-44c24.2,0,44,19.8,44,44s-19.8,44-44,44
		C656.7,834.6,636.9,814.7,636.9,790.5z"/>
</g>
</svg>
