<?xml version="1.0" encoding="utf-8"?>
<!-- Generator: Adobe Illustrator 24.3.0, SVG Export Plug-In . SVG Version: 6.00 Build 0)  -->
<svg version="1.1" id="Capa_1" xmlns="http://www.w3.org/2000/svg" xmlns:xlink="http://www.w3.org/1999/xlink" x="0px" y="0px"
	 viewBox="0 0 1000 1000" style="enable-background:new 0 0 1000 1000;" xml:space="preserve">
<g>
	<path d="M65.7,969h348.4c-8.9-11.2-14.2-25.4-14.2-40.7V516.6c0-36.2,29.5-65.7,65.7-65.7h109.3v-73.1c0-22.5-18.2-40.7-40.7-40.7
		H335v-30.7c0-11-9-20-20-20h-29.4c-11,0-20,9-20,20V337H65.7C43.2,337,25,355.2,25,377.7v550.5C25,950.7,43.2,969,65.7,969z"/>
	<path d="M975,928.2V516.6c0-22.5-18.2-40.7-40.7-40.7H734.9v-12.5V452c0-0.4,0-0.7-0.1-1.1c-0.6-10.5-9.3-18.9-19.9-18.9h-29.4
		c-10.7,0-19.4,8.4-19.9,18.9c0,0.4-0.1,0.7-0.1,1.1v11.4v12.5H575H465.7c-22.5,0-40.7,18.2-40.7,40.7v411.7
		c0,22.5,18.2,40.7,40.7,40.7h68.6h400C956.8,969,975,950.7,975,928.2z"/>
	<path d="M277,44.8c-31.1,63.4-77.9,180.5-19.8,215.2c5.3-26.9,17.9-56.1,28-76.6c5.8-11.9,22.8-11.9,28.7-0.1
		c10.3,20.6,23.3,50.1,28.9,77.2c58.8-34.2,10.6-152.1-21.2-215.7C312.3,26.3,286.1,26.4,277,44.8z"/>
	<path d="M685.1,329c5.8-11.9,22.8-11.9,28.7-0.1c10.3,20.6,23.3,50.1,28.9,77.2c58.8-34.2,10.6-152.1-21.2-215.7
		c-9.2-18.4-35.5-18.3-44.5,0.2c-31.1,63.4-77.9,180.5-19.8,215.2C662.4,378.8,675,349.5,685.1,329z"/>
</g>
</svg>
