<?xml version="1.0" encoding="utf-8"?>
<!-- Generator: Adobe Illustrator 24.3.0, SVG Export Plug-In . SVG Version: 6.00 Build 0)  -->
<svg version="1.1" id="Calque_1" xmlns="http://www.w3.org/2000/svg" xmlns:xlink="http://www.w3.org/1999/xlink" x="0px" y="0px"
	 viewBox="0 0 900 900" style="enable-background:new 0 0 900 900;" xml:space="preserve">
<path d="M880.9,695.5L675,489.7c-40.6-40.6-101.2-48.5-150.1-24.4L337.6,277.9V168.7L112.6,0L0.1,112.5l168.7,225H278l187.4,187.4
	c-23.9,48.9-16.2,109.5,24.4,150.1l205.8,205.8c25.7,25.7,67.1,25.7,92.6,0l92.6-92.6C906.3,762.5,906.3,721,880.9,695.5
	L880.9,695.5z M583.1,395.5c49.7,0,96.5,19.3,131.6,54.5l34.1,34.1c27.8-12.1,54.1-29,77-51.9c65.2-65.2,87.4-157,66.6-240.3
	c-3.9-15.8-23.7-21.3-35.3-9.7L726.4,313L607,293.2l-19.9-119.3L717.9,43.1c11.6-11.6,6-31.5-10-35.5C624.6-13,532.8,9.1,467.8,74.2
	c-50.1,50.1-73.6,116.2-72.4,182.1l144.3,144.3C553.9,397.2,568.7,395.5,583.1,395.5L583.1,395.5z M400.5,539.6l-99.7-99.7L33,708
	C-11,751.9-11,823.1,33,867S148.1,911,192,867l217.2-217.2C395.9,614.8,391.9,576.7,400.5,539.6L400.5,539.6z M112.6,829.6
	c-23.2,0-42.2-19-42.2-42.2c0-23.4,18.8-42.2,42.2-42.2s42.2,18.8,42.2,42.2C154.8,810.6,136,829.6,112.6,829.6z"/>
</svg>
