<?xml version="1.0" encoding="utf-8"?>
<!-- Generator: Adobe Illustrator 24.3.0, SVG Export Plug-In . SVG Version: 6.00 Build 0)  -->
<svg version="1.1" id="Calque_1" xmlns="http://www.w3.org/2000/svg" xmlns:xlink="http://www.w3.org/1999/xlink" x="0px" y="0px"
	 viewBox="0 0 1000 1000" style="enable-background:new 0 0 1000 1000;" xml:space="preserve">
<g>
	<g>
		<path d="M911.1,112.8c-1.2-8.8-6-16.4-13.2-22l-44-32c-7.2-5.2-16-7.2-24.8-6s-16.4,6-22,13.2L459.9,540.4c0,0,0,0.4-0.4,0.4
			c0,0.4-0.4,0.4-0.4,0.8c-0.4,0.4-0.4,0.8-0.4,1.2v0.4l-42.8,134c-2,6.8,0,14,6,18c2.8,2,6.4,3.2,9.6,3.2s6.4-1.2,9.2-3.2
			L555.5,614c0,0,0,0,0.4-0.4s0.4-0.4,0.8-0.8c0.4-0.4,0.4-0.4,0.8-0.8c0,0,0,0,0.4-0.4l347.2-474.4
			C910.3,130.4,912.3,121.6,911.1,112.8z M466.7,655.2l-20-14.8l25.6-80l31.6,23.2l31.6,23.2L466.7,655.2z M890.3,127.2l-29.2,39.6
			l-68.8-50.4l29.2-39.6c2.4-3.2,6-5.6,10-6c4-0.8,8,0.4,11.6,2.8l44,32c3.2,2.4,5.6,6,6,10C893.9,119.6,892.7,123.6,890.3,127.2z"
			/>
		<g>
			<rect x="389.8" y="688.8" transform="matrix(0.9044 -0.4266 0.4266 0.9044 -259.573 236.7981)" width="18" height="18"/>
			<path d="M148.7,826l-7.6-16.4l30.8-14.4l7.6,16.4L148.7,826z M210.3,796.8l-7.6-16.4l30.8-14.4l7.6,16.4L210.3,796.8z M271.9,768
				l-7.6-16.4l30.8-14.4l7.6,16.4L271.9,768z M333.1,738.8l-7.6-16.4l30.8-14.4l7.6,16.4L333.1,738.8z"/>
			<path d="M112.3,854l-17.2-5.6c-3.6-1.2-6-4.4-6.4-8s1.6-7.2,5.2-8.8l16.4-7.6l5.6,12l1.6,0.4l-0.4,2l0.8,1.6l-1.6,0.8L112.3,854z
				"/>
			<path d="M356.7,931.6l-30.4-9.6l5.6-17.2l30.4,9.6L356.7,931.6z M295.5,912.4l-30.4-9.6l5.6-17.2l30.4,9.6L295.5,912.4z
				 M234.7,892.8l-30.4-9.6l5.6-17.2l30.4,9.6L234.7,892.8z M173.5,873.2l-30.4-9.6l5.6-17.2l30.4,9.6L173.5,873.2z"/>
			<path d="M407.1,947.6c-0.8,0-2,0-2.8-0.4l-17.2-5.6l5.6-17.2l13.6,4.4l12.4-6.8l8.8,15.6l-15.6,8.8
				C409.9,947.2,408.7,947.6,407.1,947.6z"/>
			<path d="M458.7,920l-8.8-15.6l31.2-17.6l8.8,15.6L458.7,920z M521.5,885.2l-8.8-15.6l31.2-17.6l8.8,15.6L521.5,885.2z
				 M583.9,850.4l-8.8-15.6l31.2-17.6l8.8,15.6L583.9,850.4z M646.7,815.6l-8.8-15.6l31.2-17.6l8.8,15.6L646.7,815.6z M709.5,780.4
				l-8.8-15.6l31.2-17.6l8.8,15.6L709.5,780.4z M772.3,745.6l-8.8-15.6l31.2-17.6l8.8,15.6L772.3,745.6z"/>
			<path d="M835.1,710.8l-6.8-12l-1.6-0.4l0.4-1.6l-0.8-1.6l1.6-0.8l3.6-13.2l17.6,4.4c3.6,0.8,6.4,4,6.8,7.6
				c0.4,3.6-1.2,7.2-4.4,9.2L835.1,710.8z"/>
			<rect x="775" y="662.2" transform="matrix(0.2497 -0.9683 0.9683 0.2497 -68.1725 1267.7047)" width="18" height="31.2"/>
			<rect x="721.1" y="655.1" transform="matrix(0.2496 -0.9683 0.9683 0.2496 -95.2067 1205.3439)" width="18" height="18"/>
		</g>
	</g>
</g>
</svg>
