<?xml version="1.0" encoding="utf-8"?>
<!-- Generator: Adobe Illustrator 24.3.0, SVG Export Plug-In . SVG Version: 6.00 Build 0)  -->
<svg version="1.1" id="Calque_1" xmlns="http://www.w3.org/2000/svg" xmlns:xlink="http://www.w3.org/1999/xlink" x="0px" y="0px"
	 viewBox="0 0 1000 1000" style="enable-background:new 0 0 1000 1000;" xml:space="preserve">
<g>
	<path d="M229.2,194.9L23,251.1c-13.6,3.7-23,16.1-23,30.2v437.5c0,14.1,9.5,26.5,23,30.2l206.1,56.2V194.9z"/>
	<path d="M971.5,250.1l-679.8-60v619.8l679.8-60c16.1-1.4,28.5-14.9,28.5-31.1V281.2C1000,265,987.6,251.5,971.5,250.1L971.5,250.1z
		 M437.5,656.2c0,17.2-14,31.2-31.2,31.2s-31.2-14-31.2-31.2V343.8c0-17.2,14-31.2,31.2-31.2s31.2,14,31.2,31.2V656.2z M604.2,635.4
		c0,17.2-14,31.2-31.2,31.2c-17.2,0-31.2-14-31.2-31.2V364.6c0-17.2,14-31.2,31.2-31.2c17.2,0,31.2,14,31.2,31.2V635.4z
		 M770.8,614.6c0,17.2-14,31.2-31.2,31.2c-17.2,0-31.2-14-31.2-31.2V385.4c0-17.2,14-31.2,31.2-31.2c17.2,0,31.2,14,31.2,31.2V614.6
		z M916.7,604.2c0,17.2-14,31.2-31.2,31.2c-17.2,0-31.2-14-31.2-31.2V406.2c0-17.2,14-31.2,31.2-31.2c17.2,0,31.2,14,31.2,31.2
		V604.2z"/>
</g>
</svg>
