<?xml version="1.0" encoding="utf-8"?>
<!-- Generator: Adobe Illustrator 24.3.0, SVG Export Plug-In . SVG Version: 6.00 Build 0)  -->
<svg version="1.1" id="Capa_1" xmlns="http://www.w3.org/2000/svg" xmlns:xlink="http://www.w3.org/1999/xlink" x="0px" y="0px"
	 viewBox="0 0 1000 1000" style="enable-background:new 0 0 1000 1000;" xml:space="preserve">
<g>
	<g>
		<g>
			<path d="M983.3,950h-100v-66.7h-66.7V950H183.3v-66.7h-66.7V950h-100C7.5,950,0,957.5,0,966.7c0,9.2,7.5,16.7,16.7,16.7h966.7
				c9.2,0,16.7-7.5,16.7-16.7C1000,957.5,992.5,950,983.3,950z"/>
			<polygon points="450,50 550,50 933.3,50 966.7,50 966.7,16.7 33.3,16.7 33.3,50 66.7,50 			"/>
			<path d="M450,800v50h100v-50c0-27.6-22.4-50-50-50S450,772.4,450,800z"/>
			<path d="M883.3,250H962L920.3,83.3H79.7L38,250h745.3c9.2,0,16.7,7.5,16.7,16.7c0,9.2-7.5,16.7-16.7,16.7H79.7L38,450h745.3
				c9.2,0,16.7,7.5,16.7,16.7c0,9.2-7.5,16.7-16.7,16.7H79.7L38,650h745.3c9.2,0,16.7,7.5,16.7,16.7c0,9.2-7.5,16.7-16.7,16.7H79.7
				L38,850h378.7v-50c0-46,37.3-83.3,83.3-83.3s83.3,37.3,83.3,83.3v50H962l-41.7-166.7h-37c-9.2,0-16.7-7.5-16.7-16.7
				c0-9.2,7.5-16.7,16.7-16.7H962l-41.7-166.7h-37c-9.2,0-16.7-7.5-16.7-16.7c0-9.2,7.5-16.7,16.7-16.7H962l-41.7-166.7h-37
				c-9.2,0-16.7-7.5-16.7-16.7C866.7,257.5,874.1,250,883.3,250z"/>
		</g>
	</g>
</g>
</svg>
