<?xml version="1.0" encoding="utf-8"?>
<!-- Generator: Adobe Illustrator 24.3.0, SVG Export Plug-In . SVG Version: 6.00 Build 0)  -->
<svg version="1.1" id="Layer_1" xmlns="http://www.w3.org/2000/svg" xmlns:xlink="http://www.w3.org/1999/xlink" x="0px" y="0px"
	 viewBox="0 0 500 1000" style="enable-background:new 0 0 500 1000;" xml:space="preserve">
<path d="M444.4,189.5h-33.5l4.9-75.8c0.4-6.1-4.2-11.5-10.2-12.1l-47.9-4.8C352.8,70.2,329.4,50,301.5,50c-30,0-54.6,23.2-56.9,52.5
	l-96.3,107.6c-12.8-5-26.8-2.1-36.6,7.7l-57.4,57.6c-3.2,3.2-5.7,7-7.4,11.1c-2.6,6.1-3.2,12.8-2,19.3C47,318.2,56,328.2,68,332
	c3.4,1.1,7,1.6,10.5,1.6c9.1,0,17.9-3.6,24.4-10.2l57-57.2c6.4-6.4,10-15.1,10-24.2c0-6.2-1.5-12-4.4-17.1l84-93.9
	c4,8.6,10.1,16,17.6,21.7v36.6h-34.3c-6.3,0-11.4,5.1-11.4,11.4v45.7c0,6.3,5.1,11.4,11.4,11.4h34.3v34.3c0,6.3,5.1,11.4,11.4,11.4
	h45.7c6.3,0,11.4-5.1,11.4-11.4V258h51.5v623.4h-15.5c1.7-4,2.3-9.7,0.9-17.7c-4.2-23.8-3.4-34.1-2.4-49.7c1-15.6,3.4-225,2.8-236.8
	c-0.6-11.8,3.5-27.4-30.2-74.3c-13.9-19.3-10-27.4-12-48.8c-1.3-13.5-1.7-54.3-1.6-66.3h0.3c2.4-2.9,3-14-0.3-17.8h-0.4
	c-0.2-5.1,0.2-10,0.2-12.1c0-2.6-2.7-7.2-6.8-7.2h-42.4c-4,0-6.8,4.6-6.8,7.2c0,2.1,0.4,7,0.2,12.1h-0.4c-3.2,3.8-2.6,14.9-0.3,17.8
	h0.3c0.1,12-0.3,52.8-1.6,66.3c-2,21.4,1.8,29.5-12,48.8c-33.7,46.9-29.6,62.5-30.2,74.3c-0.6,11.8,1.8,221.2,2.8,236.8
	c1,15.6,1.7,25.9-2.4,49.7c-1.4,8-0.8,13.6,0.9,17.7h-71.7c-6.3,0-11.4,5.1-11.4,11.4v45.7c0,6.3,5.1,11.4,11.4,11.4h285.8
	c6.3,0,11.4-5.1,11.4-11.4v-45.7V361v-11.4V200.9C455.9,194.6,450.7,189.5,444.4,189.5z M388,189.5h-52.2v-36.6
	c10.7-8,18.4-19.8,21.4-33.2l35,3.5L388,189.5z M433,349.6V361v520.4h-22.9V258.1H433V349.6z"/>
</svg>
