<?xml version="1.0" encoding="utf-8"?>
<!-- Generator: Adobe Illustrator 24.3.0, SVG Export Plug-In . SVG Version: 6.00 Build 0)  -->
<svg version="1.1" id="Calque_1" xmlns="http://www.w3.org/2000/svg" xmlns:xlink="http://www.w3.org/1999/xlink" x="0px" y="0px"
	 viewBox="0 0 1000 1000" style="enable-background:new 0 0 1000 1000;" xml:space="preserve">
<g>
	<path d="M919.8,62.9c-1-7.4-7.4-12.9-14.8-12.9H680c-8.3,0-15,6.7-15,15H170c0-8.3-6.7-15-15-15H65c-8.3,0-15,6.7-15,15v75
		c0,8.3,6.7,15,15,15h90c8.3,0,15-6.7,15-15h495v15c0,8.3,6.7,15,15,15h90v60c0,8.3,6.7,15,15,15h41.1l4,31.8
		c0.9,7.5,7.3,13.2,14.8,13.2h29.8l0.1,465c0,24.9-20.1,45-45,45h-75v-60c0-16.5-13.5-30-30-30h-45V425c0-16.5-13.5-30-30-30h-15
		V275c0-8.3-6.7-15-15-15H380c-8.3,0-15,6.7-15,15v120h-15c-16.5,0-30,13.5-30,30v285h-45c-16.5,0-30,13.5-30,30v180
		c0,16.5,13.5,30,30,30h60c16.5,0,30-13.5,30-30h270c0,16.5,13.5,30,30,30h60c16.5,0,30-13.5,30-30v-90h75
		c41.3,0.1,74.9-33.3,75-74.5c0-0.2,0-0.3,0-0.5l-0.1-465H935c4.3,0,8.5-1.9,11.4-5.1c2.8-3.3,4.1-7.7,3.4-12L919.8,62.9z M560,335
		v60H440v-60H560z M800,215v-45h16.8l5.5,45H800z"/>
</g>
</svg>
