<?xml version="1.0" encoding="utf-8"?>
<!-- Generator: Adobe Illustrator 24.3.0, SVG Export Plug-In . SVG Version: 6.00 Build 0)  -->
<svg version="1.1" id="Calque_1" xmlns="http://www.w3.org/2000/svg" xmlns:xlink="http://www.w3.org/1999/xlink" x="0px" y="0px"
	 viewBox="0 0 1000 1000" style="enable-background:new 0 0 1000 1000;" xml:space="preserve">
<style type="text/css">
	.st0{fill:#010101;}
</style>
<g>
	<path class="st0" d="M193.8,192.4v615.1c36.5,14.1,75.7,25.6,117,34.4V158C269.5,166.8,230.3,178.4,193.8,192.4z"/>
	<path class="st0" d="M688,158V842c41.3-8.8,80.5-20.4,117-34.4V192.4C768.5,178.3,729.3,166.7,688,158z"/>
	<path class="st0" d="M499.5,138.5c-41.7,0-82.4,2.7-121.6,7.9v707.1c39.2,5.2,79.9,7.9,121.6,7.9c41.6,0,82.2-2.7,121.3-7.9V146.4
		C581.7,141.3,541.1,138.5,499.5,138.5z M499.4,228.2c-30.3,0-54.8-13.4-54.8-29.9s24.6-29.9,54.8-29.9c30.3,0,54.8,13.4,54.8,29.9
		S529.7,228.2,499.4,228.2z"/>
	<path class="st0" d="M126.7,222.6c-19.7,10.3-38.3,21.3-55.7,33v-10.1c0-12.7-10.3-23-23-23c-12.7,0-23,10.3-23,23v509.1
		c0,12.7,10.3,23,23,23s23-10.3,23-23v-10.1c17.4,11.7,36,22.8,55.7,33L126.7,222.6L126.7,222.6z"/>
	<path class="st0" d="M952,222.4c-12.7,0-23,10.3-23,23v10.8c-17.7-12-36.7-23.3-56.9-33.8v555.1c20.1-10.5,39.2-21.7,56.9-33.8
		v10.8c0,12.7,10.3,23,23,23c12.7,0,23-10.3,23-23V245.4C975,232.7,964.7,222.4,952,222.4z"/>
</g>
</svg>
