<?xml version="1.0" encoding="utf-8"?>
<!-- Generator: Adobe Illustrator 24.3.0, SVG Export Plug-In . SVG Version: 6.00 Build 0)  -->
<svg version="1.1" id="Calque_1" xmlns="http://www.w3.org/2000/svg" xmlns:xlink="http://www.w3.org/1999/xlink" x="0px" y="0px"
	 viewBox="0 0 1000 1000" style="enable-background:new 0 0 1000 1000;" xml:space="preserve">
<g>
	<g>
		<g>
			<path d="M253.8,150.7c-6.4-6.4-14-11.5-22.7-15.2c-8.7-3.7-17.9-5.5-27.6-5.5c-10,0-19.2,1.8-27.8,5.5
				c-8.5,3.7-16.1,8.7-22.7,15.2c-6.6,6.4-11.7,14-15.4,22.7c-3.7,8.7-5.5,17.9-5.5,27.6v32.5c-1.9,17.6-10.1,32.9-20.9,47.1
				c-7.9,10.4-17.7,16.2-29.2,17.4c-2.5,0.5-5.1,0.7-7.8,0.7c-5.5,0-10.8-1-16-3.2c-5.1-2.1-9.5-5.1-13.2-8.9
				c-3.7-3.8-6.6-8.2-8.9-13.2c-2.2-5-3.3-10.2-3.3-15.8v-96.1h76.4c4.2,0,7.7-1.5,10.6-4.5c2.9-3,4.3-6.5,4.3-10.4
				c0-4.2-1.4-7.7-4.3-10.6c-2.9-2.9-6.4-4.3-10.6-4.3H33v-50c0-4.2-1.5-7.7-4.5-10.6c-3-2.9-6.5-4.3-10.4-4.3
				c-4.2,0-7.8,1.4-10.6,4.3C4.5,73.8,3,77.4,3,81.6v176.1c0,9.7,1.9,18.9,5.7,27.6c3.8,8.7,8.9,16.2,15.4,22.7
				c6.4,6.4,14,11.5,22.7,15.2c8.7,3.7,17.9,5.5,27.6,5.5c0.3,0,2.8-0.1,7.7-0.4c4.9-0.3,10.8-1.7,17.7-4.3c7-2.6,14.1-7,21.5-13
				c6.8-5.6,12.7-13.5,17.7-23.8c3.7,7.9,8.5,14.9,14.5,20.8c6.4,6.4,14,11.5,22.7,15.2c8.7,3.7,17.9,5.5,27.6,5.5
				c14.7,0,27.8-3.9,39.4-11.8c11.6-7.9,20.1-18.1,25.6-30.7l0.8-1.6c0.8-1.8,1.2-3.7,1.2-5.5c0-3.9-1.4-7.4-4.3-10.4
				c-2.9-3-6.4-4.5-10.6-4.5c-3.2,0-6,0.9-8.5,2.6c-2.5,1.7-4.3,4-5.3,6.9l-0.4,1.2c-3.4,7.4-8.5,13.2-15.2,17.5
				c-6.7,4.3-14.3,6.5-22.7,6.5c-5.5,0-10.8-1-16-3.2c-5.1-2.1-9.5-5.1-13.2-8.9c-3.7-3.8-6.6-8.2-8.9-13.2
				c-2.2-5-3.3-10.2-3.3-15.8v-13.4h97.7c4.2,0,7.7-1.4,10.6-4.3c2.9-2.9,4.3-6.4,4.3-10.6v-28.4c0-9.7-1.9-18.9-5.7-27.6
				C265.4,164.7,260.2,157.2,253.8,150.7z M244.9,214.3h-82.7v-13.4c0-5.5,1-10.8,3.2-15.8c2.1-5,5.1-9.4,8.9-13.2
				c3.8-3.8,8.2-6.8,13.2-8.9c5-2.1,10.4-3.1,16.2-3.1c5.5,0,10.8,1.1,16,3.1c5.1,2.1,9.5,5.1,13.2,8.9c3.7,3.8,6.6,8.2,8.9,13.2
				c2.2,5,3.3,10.2,3.3,15.8V214.3z"/>
			<path d="M318.2,67c-4.2,0-7.8,1.4-10.6,4.3c-2.9,2.9-4.3,6.4-4.3,10.6V312c0,4.2,1.5,7.7,4.5,10.6c3,2.9,6.5,4.3,10.4,4.3
				c4.2,0,7.7-1.4,10.6-4.3c2.9-2.9,4.3-6.4,4.3-10.6V82c0-4.2-1.5-7.7-4.5-10.6C325.6,68.4,322.2,67,318.2,67z"/>
			<path d="M479.2,150.7c-6.4-6.4-14-11.5-22.7-15.2c-8.7-3.7-17.9-5.5-27.6-5.5c-10,0-19.2,1.8-27.8,5.5
				c-8.5,3.7-16.1,8.7-22.7,15.2c-6.6,6.4-11.7,14-15.4,22.7c-3.7,8.7-5.5,17.9-5.5,27.6v56.7c0,9.7,1.9,18.9,5.7,27.6
				c3.8,8.7,8.9,16.2,15.4,22.7c6.4,6.4,14,11.5,22.7,15.2c8.7,3.7,17.9,5.5,27.6,5.5c14.7,0,27.8-3.9,39.4-11.8
				c11.6-7.9,20.1-18.1,25.6-30.7l0.8-1.6c0.8-1.8,1.2-3.7,1.2-5.5c0-3.9-1.4-7.4-4.3-10.4c-2.9-3-6.4-4.5-10.6-4.5
				c-3.2,0-6,0.9-8.5,2.6c-2.5,1.7-4.3,4-5.3,6.9l-0.4,1.2c-3.4,7.4-8.5,13.2-15.2,17.5c-6.7,4.3-14.3,6.5-22.7,6.5
				c-5.5,0-10.8-1-16-3.2c-5.1-2.1-9.5-5.1-13.2-8.9c-3.7-3.8-6.6-8.2-8.9-13.2c-2.2-5-3.3-10.2-3.3-15.8v-13.4h97.7
				c4.2,0,7.7-1.4,10.6-4.3c2.9-2.9,4.3-6.4,4.3-10.6v-28.4c0-9.7-1.9-18.9-5.7-27.6C490.7,164.7,485.6,157.2,479.2,150.7z
				 M470.3,214.3h-82.7v-13.4c0-5.5,1-10.8,3.2-15.8c2.1-5,5.1-9.4,8.9-13.2c3.8-3.8,8.2-6.8,13.2-8.9c5-2.1,10.4-3.1,16.2-3.1
				c5.5,0,10.8,1.1,16,3.1c5.1,2.1,9.5,5.1,13.2,8.9c3.7,3.8,6.6,8.2,8.9,13.2c2.2,5,3.3,10.2,3.3,15.8V214.3z"/>
			<path d="M649.7,150.7c-6.4-6.4-14-11.5-22.7-15.2c-8.7-3.7-17.9-5.5-27.6-5.5c-10,0-19.2,1.8-27.8,5.5
				c-8.5,3.7-16.1,8.7-22.7,15.2c-6.6,6.4-11.7,14-15.4,22.7c-3.7,8.7-5.5,17.9-5.5,27.6v59.9v120.6c0,4.2,1.4,7.7,4.3,10.6
				c2.9,2.9,6.4,4.3,10.6,4.3c3.9,0,7.4-1.4,10.4-4.3c3-2.9,4.5-6.4,4.5-10.6v-66.2c5.8,4.2,12.2,7.5,19.3,9.8
				c7.1,2.4,14.4,3.5,22.1,3.5c9.7,0,18.9-1.8,27.6-5.5c8.7-3.7,16.3-8.7,22.9-15.2c6.6-6.4,11.7-14,15.4-22.7
				c3.7-8.7,5.5-17.9,5.5-27.6v-56.7c0-9.7-1.9-18.9-5.7-27.6C661.3,164.7,656.2,157.2,649.7,150.7z M640.9,257.7
				c0,5.5-1.1,10.8-3.2,15.8c-2.1,5-5.1,9.4-8.9,13.2c-3.8,3.8-8.2,6.8-13.2,8.9c-5,2.1-10.4,3.2-16.2,3.2c-5.5,0-10.8-1-16-3.2
				c-5.1-2.1-9.5-5.1-13.2-8.9c-3.7-3.8-6.6-8.2-8.9-13.2c-2.2-5-3.3-10.2-3.3-15.8v-56.7c0-5.5,1-10.8,3.2-15.8
				c2.1-5,5.1-9.4,8.9-13.2c3.8-3.8,8.2-6.8,13.2-8.9c5-2.1,10.4-3.1,16.2-3.1c5.5,0,10.8,1.1,16,3.1c5.1,2.1,9.5,5.1,13.2,8.9
				c3.7,3.8,6.6,8.2,8.9,13.2c2.2,5,3.3,10.2,3.3,15.8V257.7z"/>
		</g>
		<g>
			<path d="M692.4,202.3c0-9.7,1.8-18.9,5.5-27.6c3.7-8.7,8.8-16.2,15.4-22.7c6.6-6.4,14.1-11.5,22.7-15.2
				c8.5-3.7,17.8-5.5,27.8-5.5c9.7,0,18.9,1.8,27.6,5.5c8.7,3.7,16.2,8.7,22.7,15.2c6.4,6.4,11.6,14,15.4,22.7
				c3.8,8.7,5.7,17.9,5.7,27.6v111.1c0,4.2-1.5,7.8-4.5,10.6c-3,2.9-6.5,4.3-10.4,4.3c-3.7,0-6.9-1.1-9.7-3.3
				c-2.8-2.2-4.4-5.1-4.9-8.5c-12.1,8.9-26,13.4-41.8,13.4c-9.7,0-18.9-1.8-27.6-5.5c-8.7-3.7-16.2-8.7-22.7-15.2
				c-6.4-6.4-11.6-14-15.4-22.7c-3.8-8.7-5.7-17.9-5.7-27.6V202.3z M722.4,259c0,5.5,1.1,10.8,3.4,15.8c2.2,5,5.2,9.4,8.9,13.2
				c3.7,3.8,8.1,6.8,13.2,8.9c5.1,2.1,10.4,3.2,16,3.2c5.5,0,10.8-1,15.8-3c5-2,9.3-4.7,13-8.3c3.7-3.5,6.6-7.7,8.9-12.4
				c2.2-4.7,3.5-9.8,3.7-15.4v-58.7c0-5.5-1.1-10.8-3.3-15.8c-2.2-5-5.2-9.4-8.9-13.2c-3.7-3.8-8.1-6.8-13.2-8.9
				c-5.1-2.1-10.4-3.2-16-3.2c-5.8,0-11.2,1.1-16.2,3.2c-5,2.1-9.4,5.1-13.2,8.9c-3.8,3.8-6.8,8.2-8.9,13.2
				c-2.1,5-3.2,10.2-3.2,15.8V259z"/>
			<path d="M858.7,202.3c0-10,1.9-19.3,5.7-28c3.8-8.7,9.1-16.2,15.8-22.5c6.7-6.3,14.4-11.3,23.2-15c8.8-3.7,18.2-5.5,28.2-5.5
				c1.8,0,5.5,0.3,10.8,1c5.4,0.7,11.4,2.4,17.9,5.3c6.6,2.9,13.1,7.3,19.5,13.2c6.4,5.9,11.8,14.1,16,24.6c0.8,2.1,1.2,3.9,1.2,5.5
				c0,4.2-1.4,7.7-4.3,10.6c-2.9,2.9-6.4,4.3-10.6,4.3c-3.2,0-6-0.8-8.5-2.6c-2.5-1.7-4.3-4-5.3-6.9c-3.7-7.9-8.9-14-15.8-18.5
				c-6.8-4.5-14.3-6.7-22.5-6.7c-5.8,0-11.2,1.1-16.2,3.2c-5,2.1-9.4,5.1-13.2,8.9c-3.8,3.8-6.8,8.2-8.9,13.2
				c-2.1,5-3.2,10.2-3.2,15.8V259c0,5.5,1.1,10.8,3.4,15.8c2.2,5,5.2,9.4,8.9,13.2c3.7,3.8,8.1,6.8,13.2,8.9
				c5.1,2.1,10.4,3.2,16,3.2c8.4,0,16-2.2,22.9-6.7c6.8-4.5,11.9-10.6,15.4-18.5c1.3-2.9,3.2-5.2,5.5-6.9c2.4-1.7,5.1-2.6,8.3-2.6
				c4.2,0,7.7,1.5,10.6,4.5c2.9,3,4.3,6.5,4.3,10.4c0,1.8-0.4,3.7-1.2,5.5c-5.3,11.6-11.6,20.4-18.9,26.4c-7.4,6-14.5,10.4-21.5,13
				c-7,2.6-12.9,4.1-17.7,4.3c-4.9,0.3-7.4,0.4-7.7,0.4c-9.7,0-18.9-1.8-27.6-5.5c-8.7-3.7-16.2-8.7-22.7-15.2
				c-6.4-6.4-11.6-14-15.4-22.7c-3.8-8.7-5.7-17.9-5.7-27.6V202.3z"/>
		</g>
	</g>
	<g>
		<path d="M140.4,840.2l-17.2-5.6c-3.6-1.2-6-4.4-6.4-8s2-7.2,5.2-8.8l16.4-7.6l5.6,12l1.6,0.4l-0.4,2l0.8,1.6l-1.6,0.8L140.4,840.2
			z"/>
		<path d="M384.4,917.8l-30.4-9.6l5.6-17.2l30.4,9.6L384.4,917.8z M323.6,898.6l-30.4-9.6l5.6-17.2l30.4,9.6L323.6,898.6z
			 M262.4,879l-30.4-9.6l5.6-17.2l30.4,9.6L262.4,879z M201.6,859.4l-30.4-9.6l5.6-17.2l30.4,9.6L201.6,859.4z"/>
		<path d="M434.8,933.4c-0.8,0-2,0-2.8-0.4l-17.2-5.6l5.6-17.2l13.6,4.4l12.4-6.8l8.8,15.6l-15.6,8.8
			C438,933,436.4,933.4,434.8,933.4z"/>
		<path d="M486.4,906.2l-8.8-15.6l31.2-17.6l8.8,15.6L486.4,906.2z M549.2,871.4l-8.8-15.6l31.2-17.6l8.8,15.6L549.2,871.4z
			 M612,836.6l-8.8-15.6l31.2-17.6l8.8,15.6L612,836.6z M674.8,801.4l-8.8-15.6l31.2-17.6l8.8,15.6L674.8,801.4z M737.6,766.6
			l-8.8-15.6l31.2-17.6l8.8,15.6L737.6,766.6z M800.4,731.8l-8.8-15.6l31.2-17.6l8.8,15.6L800.4,731.8z"/>
		<path d="M863.2,697l-6.8-12l-1.6-0.4l0.4-1.6l-0.8-1.6l1.6-0.8l3.6-13.2l17.6,4.4c3.6,0.8,6,4,6.8,7.6c0.4,3.6-1.2,7.2-4.4,8.8
			L863.2,697z"/>
		<path d="M179.2,811l-7.6-16.4l33.2-15.6l7.6,16.4L179.2,811z M245.6,779.8l-7.6-16.4l33.2-15.6l7.6,16.4L245.6,779.8z
			 M312.4,748.6l-7.6-16.4l33.2-15.6l7.6,16.4L312.4,748.6z M378.8,717.4l-7.6-16.4l33.2-15.6l7.6,16.4L378.8,717.4z M445.2,686.2
			l-7.6-16.4l33.2-15.6l7.6,16.4L445.2,686.2z M819.2,675l-35.6-9.2l4.4-17.6l35.6,9.2L819.2,675z M748.4,656.6l-35.6-9.2l4.4-17.6
			l35.6,9.2L748.4,656.6z M511.6,655l-7.6-16.4l33.2-15.6l7.6,16.4L511.6,655z M677.2,637.8l-35.6-9.2L646,611l35.6,9.2L677.2,637.8
			z M578,623.4l-7.6-16.4l19.2-8.8c2-0.8,4-1.2,6-0.4l15.2,4l-4.4,17.6l-12-3.2L578,623.4z"/>
	</g>
</g>
</svg>
