<?xml version="1.0" encoding="utf-8"?>
<!-- Generator: Adobe Illustrator 24.3.0, SVG Export Plug-In . SVG Version: 6.00 Build 0)  -->
<svg version="1.1" id="Capa_1" xmlns="http://www.w3.org/2000/svg" xmlns:xlink="http://www.w3.org/1999/xlink" x="0px" y="0px"
	 viewBox="0 0 1000 1000" style="enable-background:new 0 0 1000 1000;" xml:space="preserve">
<g>
	<path d="M565.5,757.1H232.4c-13.1,0-23.8,10.6-23.8,23.8v166.5c0,13.1,10.6,23.8,23.8,23.8h333.1c13.1,0,23.8-10.6,23.8-23.8V780.9
		C589.3,767.8,578.6,757.1,565.5,757.1z"/>
	<path d="M976.2,757.1H643.2c-13.1,0-23.8,10.6-23.8,23.8v166.5c0,13.1,10.6,23.8,23.8,23.8h333.1c13.1,0,23.8-10.6,23.8-23.8V780.9
		C1000,767.8,989.4,757.1,976.2,757.1z"/>
	<path d="M232.4,485.6h333.1c13.1,0,23.8-10.6,23.8-23.8V295.3c0-13.1-10.6-23.8-23.8-23.8H232.4c-13.1,0-23.8,10.6-23.8,23.8v166.5
		C208.7,475,219.3,485.6,232.4,485.6z"/>
	<path d="M976.2,271.6H643.2c-13.1,0-23.8,10.6-23.8,23.8v166.5c0,13.1,10.6,23.8,23.8,23.8h333.1c13.1,0,23.8-10.6,23.8-23.8V295.3
		C1000,282.2,989.4,271.6,976.2,271.6z"/>
	<path d="M432.7,242.9h333.1c13.1,0,23.8-10.6,23.8-23.8V52.6c0-13.1-10.6-23.8-23.8-23.8H432.7c-13.1,0-23.8,10.6-23.8,23.8v166.5
		C408.9,232.2,419.6,242.9,432.7,242.9z"/>
	<path d="M415.8,538.1v166.5c0,13.1,10.6,23.8,23.8,23.8h333.1c13.1,0,23.8-10.6,23.8-23.8V538.1c0-13.1-10.6-23.8-23.8-23.8H439.6
		C426.4,514.4,415.8,525,415.8,538.1z"/>
	<path d="M380.6,704.7V538.1c0-13.1-10.6-23.8-23.8-23.8H23.8C10.6,514.4,0,525,0,538.1v166.5c0,13.1,10.6,23.8,23.8,23.8h333.1
		C370,728.4,380.6,717.8,380.6,704.7z"/>
</g>
</svg>
