<?xml version="1.0" encoding="utf-8"?>
<!-- Generator: Adobe Illustrator 24.3.0, SVG Export Plug-In . SVG Version: 6.00 Build 0)  -->
<svg version="1.1" id="Calque_1" xmlns="http://www.w3.org/2000/svg" xmlns:xlink="http://www.w3.org/1999/xlink" x="0px" y="0px"
	 viewBox="0 0 1000 1000" style="enable-background:new 0 0 1000 1000;" xml:space="preserve">
<g>
	<path d="M140,846.9l-17.2-5.6c-3.6-1.2-6-4.4-6.4-8s2-7.2,5.2-8.8l16.4-7.6l5.6,12l1.6,0.4l-0.4,2l0.8,1.6l-1.6,0.8L140,846.9z"/>
	<path d="M384,924.5l-30.4-9.6l5.6-17.2l30.4,9.6L384,924.5z M323.2,905.3l-30.4-9.6l5.6-17.2l30.4,9.6L323.2,905.3z M262,885.7
		l-30.4-9.6l5.6-17.2l30.4,9.6L262,885.7z M201.2,866.1l-30.4-9.6l5.6-17.2l30.4,9.6L201.2,866.1z"/>
	<path d="M434.4,940.1c-0.8,0-2,0-2.8-0.4l-17.2-5.6l5.6-17.2l13.6,4.4l12.4-6.8l8.8,15.6l-15.6,8.8
		C437.6,939.7,436,940.1,434.4,940.1z"/>
	<path d="M486,912.9l-8.8-15.6l31.2-17.6l8.8,15.6L486,912.9z M548.8,878.1l-8.8-15.6l31.2-17.6l8.8,15.6L548.8,878.1z M611.6,843.3
		l-8.8-15.6l31.2-17.6l8.8,15.6L611.6,843.3z M674.4,808.1l-8.8-15.6l31.2-17.6l8.8,15.6L674.4,808.1z M737.2,773.3l-8.8-15.6
		l31.2-17.6l8.8,15.6L737.2,773.3z M800,738.5l-8.8-15.6l31.2-17.6l8.8,15.6L800,738.5z"/>
	<path d="M862.8,703.7l-6.8-12l-1.6-0.4l0.4-1.6l-0.8-1.6l1.6-0.8l3.6-13.2l17.6,4.4c3.6,0.8,6,4,6.8,7.6c0.4,3.6-1.2,7.2-4.4,8.8
		L862.8,703.7z"/>
	<g>
		<path d="M786.8,59.9l-12.4,8c-57.2,36-108.8,52.8-152.8,50c-13.6-0.8-26.4-3.6-38.4-8c-14.8-5.2-23.6-11.6-33.2-18
			c-8.4-6-17.6-12-30-17.2c-24.8-10-53.6-12-85.2-6v-0.4l-10,2.4l-6,1.6c-44.8,12-96.8,39.6-154.4,82l-3.2,2.4v62h-0.4v540.5
			l-23.2,10.9l7.6,16.4l15.6-7.3v34.7h16v-42.2l1.6-0.8l-1.6-3.5V491.1c57.2-41.6,108.4-68.4,151.6-78.8c32.4-8,61.2-6.8,85.6,3.2
			c11.2,4.4,18.8,10,27.2,15.6c10,6.8,20.4,14,36.8,20c11.2,4,23.2,6.8,35.6,8v0.4l7.6,0.4l8.4,0.4v-0.8c0.4,0,1.2,0,1.6,0
			c45.2,0,96-17.6,152-52.8l3.6-2.4V59.9z M613.2,442.3c-10.8-0.8-20.8-3.2-30.4-6.8c-14.8-5.2-23.6-11.6-33.2-18
			c-8.4-6-17.6-12-30-17.2c-15.6-6.4-32.4-9.6-50.4-9.6c-11.2,0-22.8,1.2-34.8,3.6V84.7c30-6.4,56.8-4.8,79.2,4.4
			c11.2,4.4,18.8,10,27.2,15.6c10,6.8,20.4,14,36.8,20c11.2,4,23.2,6.8,35.6,8V442.3z"/>
		<polygon points="370.8,707.7 378.4,724.1 411.6,708.5 404,692.1 		"/>
		<polygon points="171.2,801.3 178.8,817.7 212,802.1 204.4,785.7 		"/>
		<polygon points="503.6,645.3 511.2,661.7 544.4,646.1 536.8,629.7 		"/>
		<polygon points="304.4,738.9 312,755.3 345.2,739.7 337.6,723.3 		"/>
		<polygon points="437.2,676.5 444.8,692.9 478,677.3 470.4,660.9 		"/>
		<polygon points="712.4,654.1 748,663.3 752.4,645.7 716.8,636.5 		"/>
		<polygon points="787.6,654.9 783.2,672.5 818.8,681.7 823.2,664.1 		"/>
		<path d="M589.2,604.9l-19.2,8.8l7.6,16.4l16.4-7.2l12,3.2l4.4-17.6l-15.2-4C593.2,603.7,591.2,604.1,589.2,604.9z"/>
		<polygon points="641.2,635.3 676.8,644.5 681.2,626.9 645.6,617.7 		"/>
	</g>
</g>
</svg>
