<?xml version="1.0" encoding="utf-8"?>
<!-- Generator: Adobe Illustrator 24.3.0, SVG Export Plug-In . SVG Version: 6.00 Build 0)  -->
<svg version="1.1" id="Calque_1" xmlns="http://www.w3.org/2000/svg" xmlns:xlink="http://www.w3.org/1999/xlink" x="0px" y="0px"
	 viewBox="0 0 1000 1000" style="enable-background:new 0 0 1000 1000;" xml:space="preserve">
<g>
	<path d="M608.8,158.8l1.6-4.8c2.8-8.8-2-18-10.8-20.8L476,93.2c-8.8-2.8-18,2-20.8,10.4l-1.6,4.8c-2.8,8.8-12,13.6-20.8,10.4
		L250.4,60c-8.8-2.8-18,2-20.8,10.8l-41.2,127.6c-2.8,8.8,2,18,10.8,20.8l126.4,41.2c8.8,2.8,13.6,12.4,10.4,21.2
		c-0.4,0.8-0.4,1.2-0.8,2c-5.6,18,4,38.8,27.2,58.8c16.4,14,38.4,26.8,63.6,36.8c8,3.2,12,12,9.6,20.4l-14.4,44.8
		c-1.2,4-4.4,7.6-8.4,9.6c-4.4,2.4-8,6-9.6,11.2c-3.2,10.4,2.4,21.2,12.4,24.8c10.4,3.2,21.2-2.4,24.8-12.8c1.6-5.2,1.2-10-1.2-14.4
		c-2-4-2.4-8.4-1.2-12.8l14.4-44.8c2.8-8,11.2-12.8,19.6-10.8c46.8,11.2,90,9.6,113.2-4.8c8.8-5.6,14.4-12.4,17.2-20.8l0,0
		c2.8-8.8,12-14,20.8-11.2L750,398.8c8.8,2.8,18-2,20.8-10.8l41.6-127.6c2.8-8.8-2-18-10.8-20.8l-182.4-59.2
		C610.4,176.8,605.6,167.6,608.8,158.8z M442.8,141.6l-35.2,108.8c-14.4,0-27.6,1.6-38.4,5.2l-5.6-2L404,128.8L442.8,141.6z
		 M206,202.4L246.4,78l57.2,18.4l-40.4,124.8L206,202.4z M280.4,226.8L320.8,102l66,21.6l-40.4,124.8L280.4,226.8z M585.2,362.8
		c-1.2,4-4.4,7.6-9.6,11.2c-9.2,5.6-23.2,8.4-40,9.2c-2.8,0-5.2,0.4-8,0c-19.6-0.4-42-3.6-64.8-10.4l3.2-9.6l8.8-27.2l-8.4-2.8
		l-8.8-2.8l-8.8,27.2l-3.2,9.6c-23.2-8-44-18.4-60.4-30.4c-1.6-1.2-3.2-2.4-4.8-3.6c-2-1.6-4.4-3.2-6.4-4.8
		c-17.2-14.8-25.2-29.2-22-39.6c1.2-4,4.4-7.6,9.6-10.8c2-1.2,4.8-2.4,7.2-3.6c8.8-3.6,19.6-5.2,32.4-5.6c2.4,0,5.2,0,8,0
		c6.8,0,14,0.4,21.6,1.6c6,0.8,12,1.6,18,2.8c10.8,2,22.4,4.8,33.6,8.4c11.6,3.6,22.4,8,32.8,12.8c5.6,2.4,11.2,5.2,16.4,8
		c7.2,4,14,8,20,12.4c1.6,1.2,3.2,2.4,4.8,3.6c2,1.6,4.4,3.2,6.4,4.8c8,6.8,14,13.6,17.6,20C585.2,350.4,587.2,357.2,585.2,362.8z
		 M592.4,327.6c-4.4-6-10.4-12.4-17.2-18.4c-3.6-3.2-8-6.4-12.4-9.2L598,191.6l38.8,12.4l-40.4,124.8L592.4,327.6z M613.6,334.4
		L654,210l66,21.2L679.6,356L613.6,334.4z M696.8,361.6l40.4-124.8l57.6,18.4L754.4,380L696.8,361.6z"/>
	<g>
		<path d="M140.4,847.6l-17.2-5.6c-3.6-1.2-6-4.4-6.4-8s2-7.2,5.2-8.8l16.4-7.6l5.6,12l1.6,0.4l-0.4,2l0.8,1.6l-1.6,0.8L140.4,847.6
			z"/>
		<path d="M384.4,925.2l-30.4-9.6l5.6-17.2L390,908L384.4,925.2z M323.6,906l-30.4-9.6l5.6-17.2l30.4,9.6L323.6,906z M262.4,886.4
			l-30.4-9.6l5.6-17.2l30.4,9.6L262.4,886.4z M201.6,866.8l-30.4-9.6l5.6-17.2l30.4,9.6L201.6,866.8z"/>
		<path d="M434.8,940.8c-0.8,0-2,0-2.8-0.4l-17.2-5.6l5.6-17.2L434,922l12.4-6.8l8.8,15.6l-15.6,8.8
			C438,940.4,436.4,940.8,434.8,940.8z"/>
		<path d="M486.4,913.6l-8.8-15.6l31.2-17.6l8.8,15.6L486.4,913.6z M549.2,878.8l-8.8-15.6l31.2-17.6l8.8,15.6L549.2,878.8z
			 M612,844l-8.8-15.6l31.2-17.6l8.8,15.6L612,844z M674.8,808.8l-8.8-15.6l31.2-17.6l8.8,15.6L674.8,808.8z M737.6,774l-8.8-15.6
			l31.2-17.6l8.8,15.6L737.6,774z M800.4,739.2l-8.8-15.6l31.2-17.6l8.8,15.6L800.4,739.2z"/>
		<path d="M863.2,704.4l-6.8-12l-1.6-0.4l0.4-1.6l-0.8-1.6l1.6-0.8l3.6-13.2l17.6,4.4c3.6,0.8,6,4,6.8,7.6c0.4,3.6-1.2,7.2-4.4,8.8
			L863.2,704.4z"/>
		<path d="M179.2,818.4l-7.6-16.4l33.2-15.6l7.6,16.4L179.2,818.4z M245.6,787.2l-7.6-16.4l33.2-15.6l7.6,16.4L245.6,787.2z
			 M312.4,756l-7.6-16.4L338,724l7.6,16.4L312.4,756z M378.8,724.8l-7.6-16.4l33.2-15.6l7.6,16.4L378.8,724.8z M445.2,693.6
			l-7.6-16.4l33.2-15.6l7.6,16.4L445.2,693.6z M819.2,682.4l-35.6-9.2l4.4-17.6l35.6,9.2L819.2,682.4z M748.4,664l-35.6-9.2
			l4.4-17.6l35.6,9.2L748.4,664z M511.6,662.4L504,646l33.2-15.6l7.6,16.4L511.6,662.4z M677.2,645.2l-35.6-9.2l4.4-17.6l35.6,9.2
			L677.2,645.2z M578,630.8l-7.6-16.4l19.2-8.8c2-0.8,4-1.2,6-0.4l15.2,4l-4.4,17.6l-12-3.2L578,630.8z"/>
	</g>
	<path d="M8.5,653L2,636.9c159-64.9,326.8-97.5,499.9-97.5c171.6,0,338.3,32.3,496.1,96l-6.5,16.1c-155.5-63-320.2-94.8-489.6-94.8
		C331.1,556.7,165.2,588.9,8.5,653z"/>
</g>
</svg>
