<?xml version="1.0" encoding="utf-8"?>
<!-- Generator: Adobe Illustrator 24.3.0, SVG Export Plug-In . SVG Version: 6.00 Build 0)  -->
<svg version="1.1"
	 id="Calque_1" inkscape:version="0.92.5 (2060ec1f9f, 2020-04-08)" sodipodi:docname="uf958-gaz-engine.svg" xmlns:cc="http://creativecommons.org/ns#" xmlns:dc="http://purl.org/dc/elements/1.1/" xmlns:inkscape="http://www.inkscape.org/namespaces/inkscape" xmlns:rdf="http://www.w3.org/1999/02/22-rdf-syntax-ns#" xmlns:sodipodi="http://sodipodi.sourceforge.net/DTD/sodipodi-0.dtd" xmlns:svg="http://www.w3.org/2000/svg"
	 xmlns="http://www.w3.org/2000/svg" xmlns:xlink="http://www.w3.org/1999/xlink" x="0px" y="0px" viewBox="0 0 1000 1000"
	 style="enable-background:new 0 0 1000 1000;" xml:space="preserve">
<style type="text/css">
	.st0{fill-rule:evenodd;clip-rule:evenodd;}
</style>
<sodipodi:namedview  bordercolor="#666666" borderopacity="1" gridtolerance="10" guidetolerance="10" id="namedview39" inkscape:current-layer="Calque_1" inkscape:cx="250" inkscape:cy="250" inkscape:pageopacity="0" inkscape:pageshadow="2" inkscape:window-height="1016" inkscape:window-maximized="1" inkscape:window-width="1920" inkscape:window-x="0" inkscape:window-y="27" inkscape:zoom="0.472" objecttolerance="10" pagecolor="#ffffff" showgrid="false">
	</sodipodi:namedview>
<g id="g36" transform="matrix(2.2102469,0,0,2.2102469,-53.265126,-50.67458)">
	<path id="path4" inkscape:connector-curvature="0" d="M433.9,301.5v24.7h4.3v0.1h6.7V342c0,5.6,4.5,10.1,10.1,10.1
		c5.6,0,10.1-4.5,10.1-10.1v-36.7c0-5.6-4.5-10.1-10.1-10.1c-5.6,0-10.1,4.5-10.1,10.1v15.8h-3.8v-19.6v-25.4v-38.4H311l-50.4-110.2
		h1.5v-13.6h-23.8v13.6h1.5l-50.4,110.2H59.4v38.5v25.3V321h-3.8v-15.6c0-5.6-4.5-10.1-10.1-10.1s-10.1,4.5-10.1,10.1v36.7
		c0,5.6,4.5,10.1,10.1,10.1s10.1-4.5,10.1-10.1v-15.9h3.8v0.1h7.3v-24.8H433.9z M250.3,128.4l50,109.3h-99.9L250.3,128.4z"/>
	<g id="g10">
		<path id="path6" inkscape:connector-curvature="0" class="st0" d="M77.5,340c-7.1-11.9,5-16.8,4.8-22.8
			C88.2,328.9,76.7,330.2,77.5,340z"/>
		<path id="path8" inkscape:connector-curvature="0" class="st0" d="M74.6,344.3c0.8,5.3,2.9,10.1,8.8,13c-6.9-11.9-3.8-24.2,5-29.2
			c-0.8,1.6-1.8,5,0.6,6.6c7.1-7.7,9.1-19.9,7.4-29.8c9.1,8.8,14.1,21,8.3,31.9c-3.9,7.7,2.4,15.1,5.9,0c16,15.1,15.4,41.7-9.1,47.6
			c2.1-2.7,15.1-14.9,2.1-28.7c1.6,10.9-7.1,10.9-5.9,21.5c-6.9-11.7,8-12.2-4.8-29.2c3.2,14.1-17.5,19.6-2.9,36.1
			C68.2,379.7,66.3,359.4,74.6,344.3L74.6,344.3z"/>
	</g>
	<g id="g16">
		<path id="path12" inkscape:connector-curvature="0" class="st0" d="M154.5,340c-7.1-11.9,5-16.8,4.8-22.8
			C165.2,328.9,153.7,330.2,154.5,340z"/>
		<path id="path14" inkscape:connector-curvature="0" class="st0" d="M151.6,344.3c0.8,5.3,2.9,10.1,8.8,13
			c-6.9-11.9-3.8-24.2,5-29.2c-0.8,1.6-1.8,5,0.6,6.6c7.1-7.7,9.1-19.9,7.4-29.8c9.1,8.8,14.1,21,8.3,31.9c-3.9,7.7,2.4,15.1,5.9,0
			c16,15.1,15.4,41.7-9.1,47.6c2.1-2.7,15.1-14.9,2.1-28.7c1.6,10.9-7.1,10.9-5.9,21.5c-6.9-11.7,8-12.2-4.8-29.2
			c3.2,14.1-17.5,19.6-2.9,36.1C145.3,379.7,143.3,359.4,151.6,344.3L151.6,344.3z"/>
	</g>
	<g id="g22">
		<path id="path18" inkscape:connector-curvature="0" class="st0" d="M231.5,340c-7.1-11.9,5-16.8,4.8-22.8
			C242.2,328.9,230.8,330.2,231.5,340z"/>
		<path id="path20" inkscape:connector-curvature="0" class="st0" d="M228.7,344.3c0.8,5.3,2.9,10.1,8.8,13
			c-6.9-11.9-3.8-24.2,5-29.2c-0.8,1.6-1.8,5,0.6,6.6c7.1-7.7,9.1-19.9,7.4-29.8c9.1,8.8,14.1,21,8.3,31.9c-3.9,7.7,2.4,15.1,5.9,0
			c16,15.1,15.4,41.7-9.1,47.6c2.1-2.7,15.1-14.9,2.1-28.7c1.6,10.9-7.1,10.9-5.9,21.5c-6.9-11.7,8-12.2-4.8-29.2
			c3.2,14.1-17.5,19.6-2.9,36.1C222.3,379.7,220.4,359.4,228.7,344.3L228.7,344.3z"/>
	</g>
	<g id="g28">
		<path id="path24" inkscape:connector-curvature="0" class="st0" d="M308.6,340c-7.1-11.9,5-16.8,4.8-22.8
			C319.3,328.9,307.8,330.2,308.6,340z"/>
		<path id="path26" inkscape:connector-curvature="0" class="st0" d="M305.7,344.3c0.8,5.3,2.9,10.1,8.8,13
			c-6.9-11.9-3.8-24.2,5-29.2c-0.8,1.6-1.8,5,0.6,6.6c7.1-7.7,9.1-19.9,7.4-29.8c9.1,8.8,14.1,21,8.3,31.9c-3.9,7.7,2.4,15.1,5.9,0
			c16,15.1,15.4,41.7-9.1,47.6c2.1-2.7,15.1-14.9,2.1-28.7c1.6,10.9-7.1,10.9-5.9,21.5c-6.9-11.7,8-12.2-4.8-29.2
			c3.2,14.1-17.5,19.6-2.9,36.1C299.3,379.7,297.4,359.4,305.7,344.3L305.7,344.3z"/>
	</g>
	<g id="g34">
		<path id="path30" inkscape:connector-curvature="0" class="st0" d="M385.6,340c-7.1-11.9,5-16.8,4.8-22.8
			C396.3,328.9,384.8,330.2,385.6,340z"/>
		<path id="path32" inkscape:connector-curvature="0" class="st0" d="M382.7,344.3c0.8,5.3,2.9,10.1,8.8,13
			c-6.9-11.9-3.8-24.2,5-29.2c-0.8,1.6-1.8,5,0.6,6.6c7.1-7.7,9.1-19.9,7.4-29.8c9.1,8.8,14.1,21,8.3,31.9c-3.9,7.7,2.4,15.1,5.9,0
			c16,15.1,15.4,41.7-9.1,47.6c2.1-2.7,15.1-14.9,2.1-28.7c1.6,10.9-7.1,10.9-5.9,21.5c-6.9-11.7,8-12.2-4.8-29.2
			c3.2,14.1-17.5,19.6-2.9,36.1C376.4,379.7,374.4,359.4,382.7,344.3L382.7,344.3z"/>
	</g>
</g>
</svg>
