<?xml version="1.0" encoding="utf-8"?>
<!-- Generator: Adobe Illustrator 24.3.0, SVG Export Plug-In . SVG Version: 6.00 Build 0)  -->
<svg version="1.1" id="Calque_1" xmlns="http://www.w3.org/2000/svg" xmlns:xlink="http://www.w3.org/1999/xlink" x="0px" y="0px"
	 viewBox="0 0 1000 1000" style="enable-background:new 0 0 1000 1000;" xml:space="preserve">
<g id="Page-1">
	<g id="_x30_29---Wine-Corks">
		<path id="Shape" d="M837.2,576.1H407.8c-36,0-76.2,69.5-76.2,169.3s40.1,169.3,76.2,169.3h429.4c-29.4-36.1-48.5-97.8-48.5-169.3
			S807.8,612.2,837.2,576.1z M484,626.9h84.7c9.4,0,16.9,7.6,16.9,16.9c0,9.4-7.6,16.9-16.9,16.9H484c-9.4,0-16.9-7.6-16.9-16.9
			C467.1,634.5,474.7,626.9,484,626.9z M653.3,694.6c9.4,0,16.9,7.6,16.9,16.9c0,9.4-7.6,16.9-16.9,16.9h-84.7
			c-9.4,0-16.9-7.6-16.9-16.9c0-9.4,7.6-16.9,16.9-16.9H653.3z M365.5,711.6c0-9.4,7.6-16.9,16.9-16.9h84.7
			c9.4,0,16.9,7.6,16.9,16.9c0,9.4-7.6,16.9-16.9,16.9h-84.7C373.1,728.5,365.5,720.9,365.5,711.6z M484,863.9h-84.7
			c-9.4,0-16.9-7.6-16.9-16.9c0-9.4,7.6-16.9,16.9-16.9H484c9.4,0,16.9,7.6,16.9,16.9C500.9,856.4,493.4,863.9,484,863.9z
			 M551.7,796.2h-84.7c-9.4,0-16.9-7.6-16.9-16.9c0-9.4,7.6-16.9,16.9-16.9h84.7c9.4,0,16.9,7.6,16.9,16.9
			C568.7,788.6,561.1,796.2,551.7,796.2z M670.2,863.9h-84.7c-9.4,0-16.9-7.6-16.9-16.9c0-9.4,7.6-16.9,16.9-16.9h84.7
			c9.4,0,16.9,7.6,16.9,16.9C687.2,856.4,679.6,863.9,670.2,863.9z M738,796.2h-84.7c-9.4,0-16.9-7.6-16.9-16.9
			c0-9.4,7.6-16.9,16.9-16.9H738c9.4,0,16.9,7.6,16.9,16.9C754.9,788.6,747.3,796.2,738,796.2z M754.9,660.8h-84.7
			c-9.4,0-16.9-7.6-16.9-16.9c0-9.4,7.6-16.9,16.9-16.9h84.7c9.4,0,16.9,7.6,16.9,16.9C771.8,653.2,764.3,660.8,754.9,660.8z"/>
		<path id="Shape_1_" d="M407.8,542.3h62.9l-13.5-80.2c-45.5,24.9-110.3,37.9-193.3,37.9S116.1,487,70.6,462.1L43.8,620.6v0.6
			c1.2,42.9,91.3,90.3,220.1,90.3c12.2,0,24-0.6,35.6-1.4C308.3,613.7,352.7,542.3,407.8,542.3z"/>
		<path id="Shape_2_" d="M118.1,198.4l53.6-26.8c8.4-4.2,18.5-0.8,22.7,7.6c4.2,8.4,0.8,18.5-7.6,22.7l-19.7,9.9
			c31.9,6.1,64.3,9,96.8,8.9c32.5,0.2,64.9-2.8,96.8-8.9L341,202c-8.4-4.2-11.8-14.4-7.6-22.7c4.2-8.4,14.4-11.8,22.7-7.6l53.6,26.8
			c35.9-13.2,56.3-30.1,57.3-44.4l-1.2-7.3c-6.1-16.6-34.6-33.9-77.2-45.7l-32.5,16.3c-4,2-8.7,2.4-12.9,0.9s-7.8-4.5-9.8-8.5
			c-3.2-6.5-1.9-14.4,3.4-19.5c-48.4-6.7-97.4-6.7-145.8,0c5.2,5.1,6.6,12.9,3.4,19.5c-2,4-5.5,7.1-9.8,8.5
			c-4.3,1.4-8.9,1.1-12.9-0.9l-32.5-16.5c-42.6,12-71.1,29.1-77.2,45.7l-1.2,7.4C61.8,168.3,82.1,185.2,118.1,198.4L118.1,198.4z"/>
		<path id="Shape_3_" d="M898.8,576.1c-36,0-76.2,69.5-76.2,169.3s40.1,169.3,76.2,169.3S975,845.2,975,745.4
			S934.9,576.1,898.8,576.1z M890.3,728.5c0,9.4-7.6,16.9-16.9,16.9c-9.4,0-16.9-7.6-16.9-16.9v-67.7c0-9.4,7.6-16.9,16.9-16.9
			c9.4,0,16.9,7.6,16.9,16.9V728.5z M924.2,847c-9.4,0-16.9-7.6-16.9-16.9v-67.7c0-9.4,7.6-16.9,16.9-16.9c9.4,0,16.9,7.6,16.9,16.9
			v67.7C941.1,839.4,933.6,847,924.2,847z"/>
		<path id="Shape_4_" d="M263.9,466.1c99.5,0,221.2-19.4,235.8-112c7-54.9,2.1-110.6-14.3-163.4c-19.2,19.2-42.9,33.3-69,40.9
			c-1.5,0.8-3.1,1.4-4.7,1.7c-47.9,14.5-97.7,21.7-147.8,21.2c-50,0.4-99.9-6.7-147.8-21.3c-1.7-0.3-3.3-0.9-4.7-1.7
			c-26.1-7.6-49.8-21.7-69-40.9C26,243.4,21.1,299.1,28.1,354C42.7,446.6,164.4,466.1,263.9,466.1z M61.2,301.1
			c2.3-9,11.4-14.5,20.5-12.3s14.6,11.3,12.4,20.4c-2.4,12.7,0,25.8,6.6,36.9c11.6,15.2,29,25,48,27.2c8.5,1.7,14.4,9.6,13.5,18.3
			c-0.9,8.7-8.2,15.2-16.9,15.2c-1.1,0-2.3-0.1-3.4-0.3c-28.3-3.7-53.8-19.2-70.1-42.6C60.5,345.1,56.7,322.6,61.2,301.1z"/>
	</g>
</g>
</svg>
