<?xml version="1.0" encoding="utf-8"?>
<!-- Generator: Adobe Illustrator 24.3.0, SVG Export Plug-In . SVG Version: 6.00 Build 0)  -->
<svg version="1.1" id="Capa_1" xmlns="http://www.w3.org/2000/svg" xmlns:xlink="http://www.w3.org/1999/xlink" x="0px" y="0px"
	 viewBox="0 0 640 1000" style="enable-background:new 0 0 640 1000;" xml:space="preserve">
<g>
	<g>
		<g>
			<path d="M398.4,254.4V28.9c-91,28.2-157.2,113.1-157.2,213.6c0,63.2,26.3,120.4,68.6,161c6.9,6.6,14,12.7,21.7,18.4
				c4.9,3.6,10,7.2,15.2,10.4c1.4,0.9,2.9,1.8,4.4,2.6c9.7,5.7,19.9,10.8,30.3,15l37.5,99.8h87.5V296.4L398.4,254.4z M434.1,379.8
				h-55.7v-55.7h55.7V379.8z"/>
		</g>
	</g>
	<g>
		<g>
			<path d="M584.8,73.3c-45.8-2.2-90.9,8.3-130.7,29.4v113.5l102.3,39.8l66-180.9L584.8,73.3z"/>
		</g>
	</g>
	<g>
		<g>
			<path d="M572.7,676.5c-4.1-26.4-10.1-50.6-16-71.2l-169.6,0.4c6.8,15.6,64.2,155.1,4.7,251.1c-21.7,35-13.4,80.3,19.3,105.5
				c13.9,10.7,31.3,16.6,48.8,16.6c27.9,0,53.4-14.2,68.2-38C573,868,588.4,776.5,572.7,676.5z"/>
		</g>
	</g>
	<g>
		<g>
			<path d="M366.8,569.3l-3.6-9.6l-12.8-34.1l-9-23.9l0,0l-3.9-10.5l-0.1-0.4c-0.2-0.1-0.5-0.2-0.7-0.4c-9-4.6-17.6-9.8-26-15.3
				c-5.2-3.4-10.4-7.1-15.4-11c-10.6-8.1-20.5-16.8-29.8-26.4c-0.5-0.5-1-1.1-1.6-1.6l-14,41.7l-1.3,3.3l0.2,0.1l-9,26.5
				C234.2,524,183.6,666,75.1,697.5c-39.4,11.6-63.6,50.8-56.3,91.3c7,38,40,65.6,78.7,65.6c7.6,0,15.1-1.1,22.5-3.2
				c82.3-24,155-81.6,210.2-166.5c21.3-32.7,36.6-64.1,46.9-88.2L366.8,569.3z"/>
		</g>
	</g>
</g>
</svg>
