<?xml version="1.0" encoding="utf-8"?>
<!-- Generator: Adobe Illustrator 24.3.0, SVG Export Plug-In . SVG Version: 6.00 Build 0)  -->
<svg version="1.1" id="Calque_1" focusable="false" xmlns="http://www.w3.org/2000/svg" xmlns:xlink="http://www.w3.org/1999/xlink"
	 x="0px" y="0px" viewBox="0 0 1000 1000" style="enable-background:new 0 0 1000 1000;" xml:space="preserve">
<path d="M747.6,650.6c-7.2-75-27.8-148.5-63.8-214.7c-20.4-37.7-45.8-73.4-78.7-101.1c-9.9-8.3-20.4-15.8-31.5-22.4
	c-45.3-26.6-102-26.6-147.2,0c-11.1,6.5-21.7,14.1-31.5,22.4c-32.9,27.6-58.2,63.4-78.7,101.1c-35.9,66.3-56.6,139.7-63.8,214.7
	c-8.3,86.2-4.5,188.6,52.5,259.2c45.7,56.6,122.7,90.2,195.1,90.3c1.7,0,3.5,0,5.2-0.1c70.3-1.6,145.2-35.1,189.7-90.2
	C752.1,839.1,755.9,736.8,747.6,650.6z M461.4,439.2C429,464.9,404.3,499,390,537.8c-14.3,38.8-17.7,80.7-9.7,121.3
	c1.8,9.2-4.2,18-13.3,19.8c-1.1,0.2-2.2,0.3-3.3,0.3c-7.9,0-15-5.6-16.5-13.6c-9.2-46.7-5.3-94.9,11.2-139.5
	c16.4-44.6,44.8-83.8,82.1-113.3c7.3-5.8,17.9-4.6,23.7,2.7C469.9,422.8,468.7,433.4,461.4,439.2z"/>
<path d="M997.8,237.9c-4.8-49.8-18.5-98.6-42.4-142.6c-13.6-25-30.4-48.8-52.2-67.1c-6.5-5.5-13.6-10.5-20.9-14.8
	c-30.1-17.7-67.7-17.7-97.8,0c-7.4,4.3-14.4,9.3-20.9,14.8c-21.8,18.4-38.7,42.1-52.2,67.1c-23.9,44-37.6,92.8-42.4,142.6
	c-5.5,57.2-3,125.2,34.9,172.1c30.4,37.6,81.5,59.9,129.6,60c1.2,0,2.3,0,3.5,0c46.7-1,96.4-23.3,126-59.9
	C1000.8,363.1,1003.3,295.1,997.8,237.9z M807.7,97.5c-21.5,17.1-37.9,39.7-47.4,65.5c-9.5,25.8-11.7,53.6-6.5,80.6
	c1.2,6.1-2.8,12-8.9,13.2c-0.7,0.1-1.5,0.2-2.2,0.2c-5.2,0-9.9-3.7-11-9.1c-6.1-31-3.5-63,7.4-92.6c10.9-29.6,29.8-55.6,54.5-75.3
	c4.9-3.9,11.9-3,15.8,1.8C813.4,86.6,812.6,93.6,807.7,97.5z"/>
<path d="M331.1,237.9c-4.8-49.8-18.5-98.6-42.4-142.6c-13.6-25-30.4-48.8-52.2-67.1c-6.5-5.5-13.6-10.5-20.9-14.8
	c-30.1-17.7-67.7-17.7-97.8,0c-7.4,4.3-14.4,9.3-20.9,14.8C75,46.5,58.1,70.2,44.6,95.2C20.7,139.3,7,188,2.2,237.9
	c-5.5,57.2-3,125.2,34.9,172.1c30.4,37.6,81.5,59.9,129.6,60c1.2,0,2.3,0,3.5,0c46.7-1,96.4-23.3,126-59.9
	C334.1,363.1,336.6,295.1,331.1,237.9z M141,97.5c-21.5,17.1-37.9,39.7-47.4,65.5c-9.5,25.8-11.7,53.6-6.5,80.6
	c1.2,6.1-2.8,12-8.9,13.2c-0.7,0.1-1.5,0.2-2.2,0.2c-5.2,0-9.9-3.7-11-9.1c-6.1-31-3.5-63,7.4-92.6c10.9-29.6,29.8-55.6,54.5-75.3
	c4.9-3.9,11.9-3,15.8,1.8C146.6,86.6,145.8,93.6,141,97.5z"/>
</svg>
