<?xml version="1.0" encoding="utf-8"?>
<!-- Generator: Adobe Illustrator 24.3.0, SVG Export Plug-In . SVG Version: 6.00 Build 0)  -->
<svg version="1.1" id="Calque_1" xmlns="http://www.w3.org/2000/svg" xmlns:xlink="http://www.w3.org/1999/xlink" x="0px" y="0px"
	 viewBox="0 0 1000 1000" style="enable-background:new 0 0 1000 1000;" xml:space="preserve">
<g>
	<path d="M150,172.6v88.7l45.9,25.8h45.4v506.7l45.9,33.4V666h12.4v59.7c0,5.3,4.3,9.7,9.7,9.7h68c5.3,0,9.7-4.3,9.7-9.7V589.8
		c0-5.3-4.3-9.7-9.7-9.7h-68c-5.3,0-9.7,4.3-9.7,9.7v59.7h-12.4V287.2h425.5v362.3h-12.4v-59.7c0-5.3-4.3-9.7-9.7-9.7h-68
		c-5.3,0-9.7,4.3-9.7,9.7v59.7v16.7v59.5c0,5.3,4.3,9.7,9.7,9.7h68c5.3,0,9.7-4.3,9.7-9.7v-59.5h12.4v161.2l45.9-33.4V287.2h47.7
		l43.6-25.8v-88.7H150V172.6z M806.4,261.3H195.9v-62.9h17.2v39.9h212v-39.9h152.1v39.9h212v-39.9h17.2L806.4,261.3L806.4,261.3z"/>
	<path d="M656.7,548.5c-26.9,0-48.5,11.2-48.5,24.9h97.2C705.3,559.7,683.5,548.5,656.7,548.5z"/>
	<path d="M294.7,573.5h97.2c0-13.8-21.8-24.9-48.5-24.9C316.6,548.6,294.7,559.8,294.7,573.5z"/>
</g>
</svg>
