<?xml version="1.0" encoding="utf-8"?>
<!-- Generator: Adobe Illustrator 24.3.0, SVG Export Plug-In . SVG Version: 6.00 Build 0)  -->
<svg version="1.1" id="Calque_1" xmlns="http://www.w3.org/2000/svg" xmlns:xlink="http://www.w3.org/1999/xlink" x="0px" y="0px"
	 viewBox="0 0 800 1000" style="enable-background:new 0 0 800 1000;" xml:space="preserve">
<g>
	<polygon points="242.4,50 219.9,110 579.9,110 557.4,50 	"/>
	<polygon points="154.2,860 645.6,860 630.7,830 169.2,830 	"/>
	<rect x="144.9" y="890" width="510" height="60"/>
	<path d="M655,425H144.9v375h510V425H655z"/>
	<path d="M668.7,192.5c-11.7-11.7-30.7-11.7-42.4,0l-46.4,46.2V140h-360v98.8l-46.2-46.2c-11.7-11.7-30.7-11.7-42.4,0L100,223.8
		c-11.7,11.7-11.7,30.7,0,42.4l84.6,84.6l-27.6,44.1h485.9l-27.6-44.1l84.6-84.6c11.7-11.7,11.7-30.7,0-42.4L668.7,192.5z
		 M219.9,305h-6.6l-12.4,19.8l-79.8-79.8l31.3-31.3l67.5,67.5L219.9,305L219.9,305z M599,324.7l-12.4-19.8h-6.6v-23.7l67.5-67.5
		l31.3,31.3L599,324.7z"/>
</g>
</svg>
