<?xml version="1.0" encoding="utf-8"?>
<!-- Generator: Adobe Illustrator 24.3.0, SVG Export Plug-In . SVG Version: 6.00 Build 0)  -->
<svg version="1.1" id="Calque_1" xmlns="http://www.w3.org/2000/svg" xmlns:xlink="http://www.w3.org/1999/xlink" x="0px" y="0px"
	 viewBox="0 0 1000 1000" style="enable-background:new 0 0 1000 1000;" xml:space="preserve">
<path d="M990.6,532.4L975,510.8V390.5c0-18.6-19.6-30.7-36.2-22.4c-16.9,8.5-30.4,21.2-41.1,36L794.9,262c-28.2-39-73.4-62-121.5-62
	H175c-75.9,0-137.5,61.6-137.5,137.5v135C14.8,490.8,0,518.6,0,550v50h12.5c55.2,0,100-44.8,100-100V337.5
	c0-26.4,16.5-48.7,39.6-57.9c-1.4,6.6-2.1,13.4-2.1,20.4v475c0,13.8,11.2,25,25,25h100c13.8,0,25-11.2,25-25V600
	c14.6,14.6,31.7,25.8,50.1,34.2V675c0,13.8,11.2,25,25,25c13.8,0,25-11.2,25-25v-27c14.2,1.8,20,3.7,50,0V675c0,13.8,11.2,25,25,25
	c13.8,0,25-11.2,25-25v-40.9c18.3-8.4,35.4-19.5,49.9-34v175c0,13.8,11.2,25,25,25h100c13.8,0,25-11.2,25-25V500l50,50v64.8
	c0,19.7,5.8,39,16.8,55.5l64.6,96.9C845,787.7,868,800,892.7,800c35.2,0,65.5-24.8,72.4-59.3l34-169.7
	C1001.7,557.5,998.7,543.5,990.6,532.4z M589.4,361.5L553.7,397C519.6,431,473.3,450,425.1,450h-0.3c-48.2,0-94.5-19-128.5-52.9
	l-35.8-35.5C236,337.1,257,300,295.3,300h259.3C593,300,614,337.1,589.4,361.5L589.4,361.5z M900,650c-13.8,0-25-11.2-25-25
	c0-13.8,11.2-25,25-25c13.8,0,25,11.2,25,25C925,638.8,913.8,650,900,650z"/>
</svg>
