<?xml version="1.0" encoding="utf-8"?>
<!-- Generator: Adobe Illustrator 24.3.0, SVG Export Plug-In . SVG Version: 6.00 Build 0)  -->
<svg version="1.1" id="Calque_1" xmlns="http://www.w3.org/2000/svg" xmlns:xlink="http://www.w3.org/1999/xlink" x="0px" y="0px"
	 viewBox="0 0 1000 1000" style="enable-background:new 0 0 1000 1000;" xml:space="preserve">
<path d="M925.4,629.2c-11.6,0-21,9.4-21,21V683h-7.8v-40.8v-52.8v-79.8H626l-104.6-229h3.2v-28.2h-49.4v28.2h3.2l-104.6,229H103.4
	v80v52.6v40.6h-7.8v-32.4c0-11.6-9.4-21-21-21s-21,9.4-21,21v76.2c0,11.6,9.4,21,21,21s21-9.4,21-21v-33h7.8v0.2h15.2V562.2h62.7
	V599c-1.5,8.7-2.2,16.8-2.4,24.1c-2.8-15.2-5.3-34.4-5.4-48.2c-2.9,24.3-2.1,43,0,56.7c-5.1-11.6-10.7-27.2-13.2-39.9
	c1.4,25,5.3,41.6,9.5,52.6c-6.7-6.3-14.5-15.8-18.9-25.5c5.4,21.9,11.9,33.8,17.6,40.2c-7.2,0-16-2-21.7-7
	c8.7,15.4,16.5,20.8,22.9,21.7c-6.7,6.3-15.1,12-21.2,12.4c10.7,6.7,19,4.8,25.1,0c-5.1,11.7-11.9,24.4-17.6,30
	c10.9-3.1,18.2-11.9,23-21.5c-2.8,15.2-6.9,32.8-11.1,42.8c9.6-12.4,14.8-26.9,17.6-40c0,16.5-0.9,36.3-3.1,49.3
	c6.8-19.9,9.2-38,9.6-52.6c2.8,15.2,5.3,34.5,5.4,48.5c2.9-24.3,2.1-43,0-56.7c5.1,11.6,10.7,27.2,13.2,39.9
	c-1.4-25.1-5.3-41.7-9.5-52.6c6.7,6.3,14.4,15.8,18.9,25.4c-5.4-21.9-11.8-33.7-17.6-40.1c7.2,0,16,2,21.7,7
	c-8.7-15.4-16.6-20.8-23-21.7c6.7-6.3,15-12,21.2-12.4c-10.7-6.7-18.9-4.8-25,0c5.1-11.7,11.9-24.4,17.6-30.1
	c-10.1,2.8-17.1,10.6-21.9,19.4v-4c2.7-13.6,6.3-28,10-36.7c-4,5.3-7.3,10.8-10,16.6v-34.5h66.9V599c-1.5,8.7-2.2,16.8-2.4,24.1
	c-2.8-15.2-5.3-34.4-5.4-48.2c-2.9,24.3-2.1,43,0,56.7c-5.1-11.6-10.7-27.2-13.2-39.9c1.4,25,5.3,41.6,9.5,52.6
	c-0.8-0.8-1.7-1.6-2.6-2.5c-4.3-4.4-8.8-9.9-12.5-15.8c-1.5-2.4-2.8-4.8-3.9-7.2c5.4,21.9,11.9,33.8,17.6,40.2c-7.2,0-16-2-21.7-7
	c8.7,15.4,16.5,20.8,22.9,21.7c-6.7,6.3-15.1,12-21.2,12.4c10.7,6.7,19,4.8,25.1,0c-5.1,11.7-11.9,24.4-17.6,30
	c4.1-1.2,7.7-3.1,10.8-5.6c1-0.8,2-1.7,3-2.7c3.8-3.8,6.8-8.4,9.2-13.2c-2.8,15.2-6.9,32.8-11.1,42.8c9.6-12.4,14.8-26.9,17.6-40
	c0,16.5-0.9,36.3-3.1,49.3c6.8-19.9,9.2-38,9.6-52.6c2.8,15.2,5.3,34.5,5.4,48.5c2.9-24.3,2.1-43,0-56.7
	c5.1,11.6,10.7,27.2,13.2,39.9c-1.4-25.1-5.3-41.7-9.5-52.6c6.7,6.3,14.4,15.8,18.9,25.4c-5.4-21.9-11.8-33.7-17.6-40.1
	c7.2,0,16,2,21.7,7c-8.7-15.4-16.6-20.8-23-21.7c0.8-0.8,1.7-1.6,2.6-2.3c1.8-1.5,3.6-3,5.4-4.3c3.7-2.6,7.4-4.6,10.8-5.4
	c0.8-0.2,1.6-0.3,2.4-0.4c-10.7-6.7-18.9-4.8-25,0c5.1-11.7,11.9-24.4,17.6-30.1c-0.6,0.2-1.2,0.4-1.9,0.6
	c-8.5,3-14.7,9.6-19.1,17.2c-0.3,0.5-0.6,1.1-0.9,1.6v-4c0.9-4.2,1.8-8.6,2.8-12.8c0.6-2.5,1.2-5,1.9-7.4s1.3-4.7,2-6.9
	c0.4-1.5,0.9-2.9,1.3-4.2c0.7-2,1.4-3.8,2-5.5c-4,5.3-7.3,10.8-10,16.6v-34.5h66.9V599c-1.5,8.7-2.2,16.8-2.4,24.1
	c-2.8-15.2-5.3-34.4-5.4-48.2c-2.9,24.3-2.1,43,0,56.7c-5.1-11.6-10.7-27.2-13.2-39.9c1.4,25,5.3,41.6,9.5,52.6
	c-6.7-6.3-14.5-15.8-18.9-25.5c5.4,21.9,11.9,33.8,17.6,40.2c-7.2,0-16-2-21.7-7c8.7,15.4,16.5,20.8,22.9,21.7
	c-6.7,6.3-15.1,12-21.2,12.4c10.7,6.7,19,4.8,25.1,0c-5.1,11.7-11.9,24.4-17.6,30c10.9-3.1,18.2-11.9,23-21.5
	c-2.8,15.2-6.9,32.8-11.1,42.8c9.6-12.4,14.8-26.9,17.6-40c0,16.5-0.9,36.3-3.1,49.3c0.9-2.5,1.6-5,2.3-7.4
	c1.4-4.9,2.6-9.6,3.6-14.2c1-4.6,1.7-9,2.2-13.2c0.8-6.4,1.3-12.3,1.4-17.8c2.8,15.2,5.3,34.5,5.4,48.5c2.9-24.3,2.1-43,0-56.7
	c5.1,11.6,10.7,27.2,13.2,39.9c-1.4-25.1-5.3-41.7-9.5-52.6c1.7,1.6,3.4,3.4,5.1,5.3c1.7,1.9,3.5,4,5.1,6.2c3.3,4.4,6.4,9.1,8.6,14
	c-5.4-21.9-11.8-33.7-17.6-40.1c7.2,0,16,2,21.7,7c-3.3-5.8-6.4-10.2-9.4-13.4c-0.5-0.5-1-1.1-1.5-1.5c-1-1-1.9-1.8-2.9-2.5
	c-0.9-0.7-1.9-1.4-2.8-1.9c-0.9-0.5-1.8-1-2.7-1.3c-1.3-0.5-2.5-0.9-3.7-1c0.4-0.4,0.8-0.8,1.3-1.2c1.7-1.6,3.5-3.1,5.4-4.4
	c0.5-0.3,0.9-0.7,1.4-1c1.8-1.3,3.7-2.4,5.5-3.4c2.7-1.4,5.3-2.3,7.6-2.4c-10.7-6.7-18.9-4.8-25,0c5.1-11.7,11.9-24.4,17.6-30.1
	c-10.1,2.8-17.1,10.6-21.9,19.4v-4c2.7-13.6,6.3-28,10-36.7c-4,5.3-7.3,10.8-10,16.6v-34.5h66.9V599c-1.5,8.7-2.2,16.8-2.4,24.1
	c-2.8-15.2-5.3-34.4-5.4-48.2c-2.9,24.3-2.1,43,0,56.7c-5.1-11.6-10.7-27.2-13.2-39.9c1.4,25,5.3,41.6,9.5,52.6
	c-6.7-6.3-14.5-15.8-18.9-25.5c5.4,21.9,11.9,33.8,17.6,40.2c-7.2,0-16-2-21.7-7c4.3,7.7,8.5,12.9,12.3,16.3c1,0.8,1.9,1.6,2.8,2.2
	c1.4,1,2.7,1.7,4,2.2c1.3,0.5,2.5,0.9,3.7,1c-2.5,2.4-5.3,4.6-8,6.6c-4.6,3.2-9.3,5.6-13.1,5.8c4.7,3,8.9,4.2,12.7,4.3
	c2.2,0.1,4.2-0.3,6-0.9c2.3-0.8,4.5-2,6.3-3.5c-5.1,11.7-11.9,24.4-17.6,30c10.9-3.1,18.2-11.9,23-21.5
	c-2.8,15.2-6.9,32.8-11.1,42.8c9.6-12.4,14.8-26.9,17.6-40c0,16.5-0.9,36.3-3.1,49.3c6.8-19.9,9.2-38,9.6-52.6
	c2.8,15.2,5.3,34.5,5.4,48.5c2.9-24.3,2.1-43,0-56.7c5.1,11.6,10.7,27.2,13.2,39.9c-0.3-6.3-0.8-12-1.5-17.3c-0.3-2.6-0.7-5.1-1-7.5
	c-0.2-1.2-0.4-2.4-0.6-3.5c-0.4-2.3-0.8-4.4-1.3-6.5c-0.2-1-0.4-2-0.7-3c-0.5-1.9-0.9-3.8-1.4-5.5c-1-3.5-2-6.6-3.1-9.3
	c4.2,3.9,8.8,9.1,12.7,14.8c2.4,3.4,4.5,7,6.2,10.6c0,0,0,0,0,0c0,0,0,0,0,0c-2.7-10.9-5.7-19.4-8.7-25.9c-3-6.5-6-11.1-8.9-14.3
	c4.5,0,9.6,0.8,14.2,2.6c1.8,0.7,3.6,1.6,5.2,2.7c0.8,0.5,1.6,1.1,2.3,1.7c-8.7-15.4-16.6-20.8-23-21.7c6.7-6.3,15-12,21.2-12.4
	c-6-3.8-11.3-4.8-15.8-4.2c-1,0.1-2,0.4-2.9,0.7c-1.4,0.5-2.7,1.1-4,1.8c-0.8,0.5-1.6,1-2.4,1.6c1.3-2.9,2.7-5.9,4.1-8.8
	c4.3-8.8,9.2-17,13.5-21.2c-10.1,2.8-17.1,10.6-21.9,19.4v-4c2.7-13.6,6.3-28,10-36.7c-2,2.6-3.8,5.3-5.5,8.1
	c-1.7,2.8-3.1,5.6-4.5,8.5v-34.5h66.9V599c-1.5,8.7-2.2,16.8-2.4,24.1c-2.8-15.2-5.3-34.4-5.4-48.2c-2.9,24.3-2.1,43,0,56.7
	c-3.2-7.3-6.6-16.1-9.3-24.7c-1.6-5.2-3-10.4-3.9-15.1c0,0,0,0,0,0c0,0,0,0,0,0c0.2,3.1,0.4,6.1,0.6,9c1.2,14.3,3.3,25.5,5.8,34.2
	c0.5,1.7,1,3.4,1.5,4.9c0.5,1.6,1,3,1.6,4.4c-6.7-6.3-14.5-15.8-18.9-25.5c5.4,21.9,11.9,33.8,17.6,40.2c-7.2,0-16-2-21.7-7
	c8.7,15.4,16.5,20.8,22.9,21.7c-6.7,6.3-15.1,12-21.2,12.4c1.3,0.8,2.6,1.6,3.9,2.1c3.2,1.5,6.1,2.1,8.8,2.2c3.8,0.1,7.1-1,10-2.7
	c0.8-0.5,1.6-1,2.4-1.6c-5.1,11.7-11.9,24.4-17.6,30c10.9-3.1,18.2-11.9,23-21.5c-1.7,9.5-4,20-6.5,28.9c-0.5,1.8-1,3.5-1.5,5.2
	c-0.3,0.8-0.5,1.6-0.8,2.4c-0.8,2.3-1.6,4.5-2.4,6.4c0,0,0,0,0,0c0,0,0,0,0,0c2.4-3.1,4.5-6.3,6.4-9.6c5.6-9.9,9.1-20.6,11.2-30.4
	c0,16.5-0.9,36.3-3.1,49.3c6.8-19.9,9.2-38,9.6-52.6c2.8,15.2,5.3,34.5,5.4,48.5c2.9-24.3,2.1-43,0-56.7
	c5.1,11.6,10.7,27.2,13.2,39.9c-1.4-25.1-5.3-41.7-9.5-52.6c6.7,6.3,14.4,15.8,18.9,25.4c-5.4-21.9-11.8-33.7-17.6-40.1
	c5.4,0,11.7,1.1,16.9,3.8c1.7,0.9,3.3,1.9,4.8,3.2l0,0c0,0,0,0,0,0c-2.7-4.8-5.4-8.7-7.9-11.7c-1.5-1.8-3-3.3-4.5-4.6
	c-1-0.8-1.9-1.6-2.8-2.2c-2.8-1.9-5.4-2.9-7.8-3.2c6.7-6.3,15-12,21.2-12.4c-10.7-6.7-18.9-4.8-25,0c5.1-11.7,11.9-24.4,17.6-30.1
	c-10.1,2.8-17.1,10.6-21.9,19.4v-4c1.5-7.6,3.3-15.5,5.3-22.5c1.5-5.4,3.1-10.4,4.7-14.2c0,0,0,0,0,0c0,0,0,0,0,0
	c-1,1.3-2,2.7-2.9,4c-2.7,4.1-5.1,8.3-7.1,12.6v-34.5h66.9V599c-1.5,8.7-2.2,16.8-2.4,24.1c-0.3-1.9-0.7-3.9-1-5.9
	c-0.3-2-0.7-4.1-1-6.1c-0.5-3.1-0.9-6.3-1.3-9.5c-0.8-6.3-1.4-12.7-1.8-18.5c-0.2-2.9-0.3-5.7-0.3-8.3c-2.9,24.3-2.1,43,0,56.7
	c-5.1-11.6-10.7-27.2-13.2-39.9c0.5,9.4,1.4,17.6,2.5,24.7c0.9,6,2,11.2,3.2,15.8c0.5,1.8,1,3.6,1.5,5.2c0.8,2.5,1.5,4.7,2.3,6.8
	c-1.7-1.6-3.4-3.4-5.2-5.3c-5.2-5.8-10.4-13-13.8-20.2c5.4,21.9,11.9,33.8,17.6,40.2c-4.5,0-9.6-0.8-14.2-2.6
	c-1.8-0.7-3.6-1.6-5.2-2.7c-0.8-0.5-1.6-1.1-2.3-1.7c3.2,5.8,6.4,10.1,9.4,13.4c1.5,1.6,3,3,4.4,4.1c0.5,0.4,0.9,0.7,1.4,1
	c1.8,1.3,3.6,2.1,5.3,2.7c0.8,0.3,1.7,0.5,2.5,0.6c-6.7,6.3-15.1,12-21.2,12.4c10.7,6.7,19,4.8,25.1,0c-5.1,11.7-11.9,24.4-17.6,30
	c4.8-1.4,8.8-3.8,12.3-6.9c1.5-1.3,2.9-2.8,4.2-4.4c0.4-0.5,0.8-1.1,1.2-1.6c2-2.7,3.8-5.6,5.2-8.6c-0.7,3.8-1.5,7.8-2.3,11.7
	c-0.4,2-0.9,3.9-1.3,5.9c-0.5,1.9-0.9,3.9-1.4,5.8c-1.9,7.6-4,14.5-6.1,19.5c9.6-12.4,14.8-26.9,17.6-40c0,16.5-0.9,36.3-3.1,49.3
	c6.8-19.9,9.2-38,9.6-52.6c1.4,7.6,2.7,16.2,3.7,24.7c0.7,6.4,1.3,12.6,1.6,18.3c0.1,1.9,0.1,3.7,0.2,5.5c2.9-24.3,2.1-43,0-56.7
	c5.1,11.6,10.7,27.2,13.2,39.9c-0.2-3.1-0.4-6.1-0.6-9c-0.6-7.2-1.4-13.6-2.4-19.3c-0.8-4.5-1.7-8.6-2.6-12.3
	c-0.5-1.8-1-3.6-1.5-5.2c-0.8-2.5-1.5-4.7-2.3-6.7c6.7,6.3,14.4,15.8,18.9,25.4c-5.4-21.9-11.8-33.7-17.6-40.1c7.2,0,16,2,21.7,7
	c-8.7-15.4-16.6-20.8-23-21.7c6.7-6.3,15-12,21.2-12.4c-10.7-6.7-18.9-4.8-25,0c5.1-11.7,11.9-24.4,17.6-30.1
	c-10.1,2.8-17.1,10.6-21.9,19.4v-4c2.7-13.6,6.3-28,10-36.7c-4,5.3-7.3,10.8-10,16.6v-34.5H653V599c-1.5,8.7-2.2,16.8-2.4,24.1
	c-2.8-15.2-5.3-34.4-5.4-48.2c-2.9,24.3-2.1,43,0,56.7c-5.1-11.6-10.7-27.2-13.2-39.9c1.4,25,5.3,41.6,9.5,52.6
	c-6.7-6.3-14.5-15.8-18.9-25.5c5.4,21.9,11.9,33.8,17.6,40.2c-7.2,0-16-2-21.7-7c8.7,15.4,16.5,20.8,22.9,21.7
	c-6.7,6.3-15.1,12-21.2,12.4c10.7,6.7,19,4.8,25.1,0c-5.1,11.7-11.9,24.4-17.6,30c10.9-3.1,18.2-11.9,23-21.5
	c-2.8,15.2-6.9,32.8-11.1,42.8c9.6-12.4,14.8-26.9,17.6-40c0,16.5-0.9,36.3-3.1,49.3c6.8-19.9,9.2-38,9.6-52.6
	c2.8,15.2,5.3,34.5,5.4,48.5c2.9-24.3,2.1-43,0-56.7c2.6,5.8,5.2,12.6,7.6,19.5c2.3,6.9,4.4,14,5.6,20.3c0,0,0,0,0,0c0,0,0,0,0,0
	c-0.2-3.1-0.4-6.1-0.6-9c-1.2-14.4-3.3-25.6-5.8-34.3c-0.5-1.7-1-3.4-1.5-4.9c-0.5-1.5-1-3-1.6-4.4c3.3,3.2,6.9,7.1,10.3,11.5
	c1.7,2.2,3.3,4.5,4.7,6.8s2.8,4.7,3.9,7.2c-5.4-21.9-11.8-33.7-17.6-40.1c7.2,0,16,2,21.7,7c-8.7-15.4-16.6-20.8-23-21.7
	c6.7-6.3,15-12,21.2-12.4c-10.7-6.7-18.9-4.8-25,0c5.1-11.7,11.9-24.4,17.6-30.1c-10.1,2.8-17.1,10.6-21.9,19.4v-4
	c0.9-4.2,1.8-8.6,2.8-12.8c0.6-2.5,1.2-5,1.9-7.4s1.3-4.7,2-6.9c0.4-1.5,0.9-2.9,1.3-4.2c0.7-2,1.4-3.8,2-5.5
	c-4,5.3-7.3,10.8-10,16.6v-34.5h66.9V599c-1.5,8.7-2.2,16.8-2.4,24.1c-2.8-15.2-5.3-34.4-5.4-48.2c-2.9,24.3-2.1,43,0,56.7
	c-5.1-11.6-10.7-27.2-13.2-39.9c0.1,1.6,0.2,3.1,0.3,4.6c0.2,3,0.5,5.9,0.7,8.6c0.1,1.4,0.3,2.7,0.4,4c0.3,2.6,0.7,5.1,1,7.5
	c0.2,1.2,0.4,2.4,0.6,3.5c0.4,2.3,0.8,4.4,1.3,6.5c0.2,1,0.4,2,0.7,3c0.5,1.9,0.9,3.8,1.4,5.5c1,3.5,2,6.6,3.1,9.3
	c-6.7-6.3-14.5-15.8-18.9-25.5c5.4,21.9,11.9,33.8,17.6,40.2c-7.2,0-16-2-21.7-7c3.2,5.8,6.4,10.1,9.4,13.4c1.5,1.6,3,3,4.4,4.1
	c0.5,0.4,0.9,0.7,1.4,1c1.8,1.3,3.6,2.1,5.3,2.7c0.8,0.3,1.7,0.5,2.5,0.6c-6.7,6.3-15.1,12-21.2,12.4c10.7,6.7,19,4.8,25.1,0
	c-5.1,11.7-11.9,24.4-17.6,30c10.9-3.1,18.2-11.9,23-21.5c-2.8,15.2-6.9,32.8-11.1,42.8c9.6-12.4,14.8-26.9,17.6-40
	c0,16.5-0.9,36.3-3.1,49.3c2.6-7.5,4.5-14.7,5.9-21.6s2.4-13.4,3-19.5c0.2-2,0.3-4,0.5-5.9c0.1-1.9,0.2-3.8,0.3-5.6
	c0.5,2.9,1,5.9,1.5,8.9c0.2,1,0.3,2.1,0.5,3.1c0.5,3.1,0.9,6.3,1.3,9.5c1.2,9.6,2,19.1,2.1,27c2.9-24.3,2.1-43,0-56.7
	c5.1,11.6,10.7,27.2,13.2,39.9c-1.4-25.1-5.3-41.7-9.5-52.6c6.7,6.3,14.4,15.8,18.9,25.4c-5.4-21.9-11.8-33.7-17.6-40.1
	c7.2,0,16,2,21.7,7c-8.7-15.4-16.6-20.8-23-21.7c6.7-6.3,15-12,21.2-12.4c-10.7-6.7-18.9-4.8-25,0c5.1-11.7,11.9-24.4,17.6-30.1
	c-10.1,2.8-17.1,10.6-21.9,19.4v-4c2.7-13.6,6.3-28,10-36.7c-4,5.3-7.3,10.8-10,16.6v-34.5h66.9V599c-1.5,8.7-2.2,16.8-2.4,24.1
	c-2.8-15.2-5.3-34.4-5.4-48.2c-2.9,24.3-2.1,43,0,56.7c-5.1-11.6-10.7-27.2-13.2-39.9c1.4,25,5.3,41.6,9.5,52.6
	c-6.7-6.3-14.5-15.8-18.9-25.5c5.4,21.9,11.9,33.8,17.6,40.2c-7.2,0-16-2-21.7-7c8.7,15.4,16.5,20.8,22.9,21.7
	c-6.7,6.3-15.1,12-21.2,12.4c10.7,6.7,19,4.8,25.1,0c-5.1,11.7-11.9,24.4-17.6,30c10.9-3.1,18.2-11.9,23-21.5
	c-2.8,15.2-6.9,32.8-11.1,42.8c9.6-12.4,14.8-26.9,17.6-40c0,16.5-0.9,36.3-3.1,49.3c6.8-19.9,9.2-38,9.6-52.6
	c2.8,15.2,5.3,34.5,5.4,48.5c2.9-24.3,2.1-43,0-56.7c5.1,11.6,10.7,27.2,13.2,39.9c-1.4-25.1-5.3-41.7-9.5-52.6
	c6.7,6.3,14.4,15.8,18.9,25.4c-5.4-21.9-11.8-33.7-17.6-40.1c7.2,0,16,2,21.7,7c-8.7-15.4-16.6-20.8-23-21.7
	c6.7-6.3,15-12,21.2-12.4c-10.7-6.7-18.9-4.8-25,0c5.1-11.7,11.9-24.4,17.6-30.1c-10.1,2.8-17.1,10.6-21.9,19.4v-4
	c2.7-13.6,6.3-28,10-36.7c-4,5.3-7.3,10.8-10,16.6v-34.5h59.4v131.4h9v0.2h14v32.6c0,11.6,9.4,21,21,21s21-9.4,21-21v-76.2
	C946.4,638.6,937,629.2,925.4,629.2z M500,282.6l103.8,227H396.2L500,282.6z"/>
</svg>
