<?xml version="1.0" encoding="UTF-8" standalone="no"?>
<!-- Generator: Adobe Illustrator 24.3.0, SVG Export Plug-In . SVG Version: 6.00 Build 0)  -->

<svg
   xmlns:dc="http://purl.org/dc/elements/1.1/"
   xmlns:cc="http://creativecommons.org/ns#"
   xmlns:rdf="http://www.w3.org/1999/02/22-rdf-syntax-ns#"
   xmlns:svg="http://www.w3.org/2000/svg"
   xmlns="http://www.w3.org/2000/svg"
   xmlns:sodipodi="http://sodipodi.sourceforge.net/DTD/sodipodi-0.dtd"
   xmlns:inkscape="http://www.inkscape.org/namespaces/inkscape"
   version="1.1"
   id="Calque_1"
   x="0px"
   y="0px"
   viewBox="0 0 1000 1000"
   xml:space="preserve"
   sodipodi:docname="uf958-gaz-engine.svg"
   width="1000"
   height="1000"
   inkscape:version="0.92.5 (2060ec1f9f, 2020-04-08)"><metadata
   id="metadata43"><rdf:RDF><cc:Work
       rdf:about=""><dc:format>image/svg+xml</dc:format><dc:type
         rdf:resource="http://purl.org/dc/dcmitype/StillImage" /><dc:title></dc:title></cc:Work></rdf:RDF></metadata><defs
   id="defs41" /><sodipodi:namedview
   pagecolor="#ffffff"
   bordercolor="#666666"
   borderopacity="1"
   objecttolerance="10"
   gridtolerance="10"
   guidetolerance="10"
   inkscape:pageopacity="0"
   inkscape:pageshadow="2"
   inkscape:window-width="1920"
   inkscape:window-height="1016"
   id="namedview39"
   showgrid="false"
   inkscape:zoom="0.472"
   inkscape:cx="250"
   inkscape:cy="250"
   inkscape:window-x="0"
   inkscape:window-y="27"
   inkscape:window-maximized="1"
   inkscape:current-layer="Calque_1" />
<style
   type="text/css"
   id="style2">
	.st0{fill-rule:evenodd;clip-rule:evenodd;}
</style>
<g
   id="g36"
   transform="matrix(2.2102469,0,0,2.2102469,-53.265126,-50.67458)">
	<path
   d="m 440.7,304.4 v 25.7 h 4.5 v 0.1 h 7 v 16.3 c 0,5.8 4.7,10.5 10.5,10.5 5.8,0 10.5,-4.7 10.5,-10.5 v -38.1 c 0,-5.8 -4.7,-10.5 -10.5,-10.5 -5.8,0 -10.5,4.7 -10.5,10.5 v 16.4 h -3.9 V 304.4 278 238.1 H 313 L 260.7,123.6 h 1.6 v -14.1 h -24.7 v 14.1 h 1.6 L 186.9,238.1 H 51.7 v 40 26.3 20.3 h -3.9 v -16.2 c 0,-5.8 -4.7,-10.5 -10.5,-10.5 -5.8,0 -10.5,4.7 -10.5,10.5 v 38.1 c 0,5.8 4.7,10.5 10.5,10.5 5.8,0 10.5,-4.7 10.5,-10.5 v -16.5 h 3.9 v 0.1 h 7.6 V 304.4 Z M 250,124.6 301.9,238.1 H 198.1 Z"
   id="path4"
   inkscape:connector-curvature="0" />
	<g
   id="g10">
		<path
   class="st0"
   d="m 70.5,344.4 c -7.4,-12.4 5.2,-17.4 5,-23.7 6.1,12.2 -5.8,13.5 -5,23.7 z"
   id="path6"
   inkscape:connector-curvature="0"
   style="clip-rule:evenodd;fill-rule:evenodd" />
		<path
   class="st0"
   d="m 67.5,348.9 c 0.8,5.5 3,10.5 9.1,13.5 -7.2,-12.4 -3.9,-25.1 5.2,-30.3 -0.8,1.7 -1.9,5.2 0.6,6.9 7.4,-8 9.4,-20.7 7.7,-30.9 9.4,9.1 14.6,21.8 8.6,33.1 -4.1,8 2.5,15.7 6.1,0 16.6,15.7 16,43.3 -9.4,49.4 2.2,-2.8 15.7,-15.5 2.2,-29.8 1.7,11.3 -7.4,11.3 -6.1,22.3 -7.2,-12.1 8.3,-12.7 -5,-30.3 3.3,14.6 -18.2,20.4 -3,37.5 -22.6,-4.7 -24.6,-25.7 -16,-41.4 z"
   id="path8"
   inkscape:connector-curvature="0"
   style="clip-rule:evenodd;fill-rule:evenodd" />
	</g>
	<g
   id="g16">
		<path
   class="st0"
   d="m 150.5,344.4 c -7.4,-12.4 5.2,-17.4 5,-23.7 6.1,12.2 -5.8,13.5 -5,23.7 z"
   id="path12"
   inkscape:connector-curvature="0"
   style="clip-rule:evenodd;fill-rule:evenodd" />
		<path
   class="st0"
   d="m 147.5,348.9 c 0.8,5.5 3,10.5 9.1,13.5 -7.2,-12.4 -3.9,-25.1 5.2,-30.3 -0.8,1.7 -1.9,5.2 0.6,6.9 7.4,-8 9.4,-20.7 7.7,-30.9 9.4,9.1 14.6,21.8 8.6,33.1 -4.1,8 2.5,15.7 6.1,0 16.6,15.7 16,43.3 -9.4,49.4 2.2,-2.8 15.7,-15.5 2.2,-29.8 1.7,11.3 -7.4,11.3 -6.1,22.3 -7.2,-12.1 8.3,-12.7 -5,-30.3 3.3,14.6 -18.2,20.4 -3,37.5 -22.6,-4.7 -24.6,-25.7 -16,-41.4 z"
   id="path14"
   inkscape:connector-curvature="0"
   style="clip-rule:evenodd;fill-rule:evenodd" />
	</g>
	<g
   id="g22">
		<path
   class="st0"
   d="m 230.5,344.4 c -7.4,-12.4 5.2,-17.4 5,-23.7 6.1,12.2 -5.8,13.5 -5,23.7 z"
   id="path18"
   inkscape:connector-curvature="0"
   style="clip-rule:evenodd;fill-rule:evenodd" />
		<path
   class="st0"
   d="m 227.5,348.9 c 0.8,5.5 3,10.5 9.1,13.5 -7.2,-12.4 -3.9,-25.1 5.2,-30.3 -0.8,1.7 -1.9,5.2 0.6,6.9 7.4,-8 9.4,-20.7 7.7,-30.9 9.4,9.1 14.6,21.8 8.6,33.1 -4.1,8 2.5,15.7 6.1,0 16.6,15.7 16,43.3 -9.4,49.4 2.2,-2.8 15.7,-15.5 2.2,-29.8 1.7,11.3 -7.4,11.3 -6.1,22.3 -7.2,-12.1 8.3,-12.7 -5,-30.3 3.3,14.6 -18.2,20.4 -3,37.5 -22.6,-4.7 -24.6,-25.7 -16,-41.4 z"
   id="path20"
   inkscape:connector-curvature="0"
   style="clip-rule:evenodd;fill-rule:evenodd" />
	</g>
	<g
   id="g28">
		<path
   class="st0"
   d="m 310.5,344.4 c -7.4,-12.4 5.2,-17.4 5,-23.7 6.1,12.2 -5.8,13.5 -5,23.7 z"
   id="path24"
   inkscape:connector-curvature="0"
   style="clip-rule:evenodd;fill-rule:evenodd" />
		<path
   class="st0"
   d="m 307.5,348.9 c 0.8,5.5 3,10.5 9.1,13.5 -7.2,-12.4 -3.9,-25.1 5.2,-30.3 -0.8,1.7 -1.9,5.2 0.6,6.9 7.4,-8 9.4,-20.7 7.7,-30.9 9.4,9.1 14.6,21.8 8.6,33.1 -4.1,8 2.5,15.7 6.1,0 16.6,15.7 16,43.3 -9.4,49.4 2.2,-2.8 15.7,-15.5 2.2,-29.8 1.7,11.3 -7.4,11.3 -6.1,22.3 -7.2,-12.1 8.3,-12.7 -5,-30.3 3.3,14.6 -18.2,20.4 -3,37.5 -22.6,-4.7 -24.6,-25.7 -16,-41.4 z"
   id="path26"
   inkscape:connector-curvature="0"
   style="clip-rule:evenodd;fill-rule:evenodd" />
	</g>
	<g
   id="g34">
		<path
   class="st0"
   d="m 390.5,344.4 c -7.4,-12.4 5.2,-17.4 5,-23.7 6.1,12.2 -5.8,13.5 -5,23.7 z"
   id="path30"
   inkscape:connector-curvature="0"
   style="clip-rule:evenodd;fill-rule:evenodd" />
		<path
   class="st0"
   d="m 387.5,348.9 c 0.8,5.5 3,10.5 9.1,13.5 -7.2,-12.4 -3.9,-25.1 5.2,-30.3 -0.8,1.7 -1.9,5.2 0.6,6.9 7.4,-8 9.4,-20.7 7.7,-30.9 9.4,9.1 14.6,21.8 8.6,33.1 -4.1,8 2.5,15.7 6.1,0 16.6,15.7 16,43.3 -9.4,49.4 2.2,-2.8 15.7,-15.5 2.2,-29.8 1.7,11.3 -7.4,11.3 -6.1,22.3 -7.2,-12.1 8.3,-12.7 -5,-30.3 3.3,14.6 -18.2,20.4 -3,37.5 -22.6,-4.7 -24.6,-25.7 -16,-41.4 z"
   id="path32"
   inkscape:connector-curvature="0"
   style="clip-rule:evenodd;fill-rule:evenodd" />
	</g>
</g>
</svg>