<?xml version="1.0" encoding="utf-8"?>
<!-- Generator: Adobe Illustrator 24.3.0, SVG Export Plug-In . SVG Version: 6.00 Build 0)  -->
<svg version="1.1" id="Layer_1" xmlns="http://www.w3.org/2000/svg" xmlns:xlink="http://www.w3.org/1999/xlink" x="0px" y="0px"
	 viewBox="0 0 1000 1000" style="enable-background:new 0 0 1000 1000;" xml:space="preserve">
<g>
	<path d="M556.6,169.2c0-10.2-8.3-18.5-18.5-18.5H148c-10.2,0-18.5,8.3-18.5,18.5V198h427.1V169.2z"/>
	<path d="M67.4,935.9c0,21.6,17.5,39,39.1,39.1h473.2c21.6,0,39-17.5,39.1-39.1v-60.7H67.4V935.9z"/>
	<path d="M393.4,130.1V98.1H292.6l0.1,32.1H393.4z"/>
	<path d="M247.9,25h190.2c14,0,25.4,11.4,25.4,25.4v1.7c0,14-11.4,25.4-25.4,25.4H247.9c-14,0-25.4-11.4-25.4-25.4v-1.7
		C222.5,36.4,233.9,25,247.9,25z"/>
	<path d="M675.6,753.9h-36.4v137.9h36.4c7.9,0,14.4-6.4,14.4-14.4V768.2C690,760.3,683.5,753.9,675.6,753.9z"/>
	<path d="M579.6,218.6H106.4c-21.6,0-39,17.5-39.1,39.1v60.7h551.3v-60.7C618.7,236.1,601.2,218.6,579.6,218.6z"/>
	<path d="M67.4,854.7h551.3V338.9H67.4V854.7z"/>
	<path d="M922.4,408.1h-28.7V200.8c-0.1-21.8-8.8-42.6-24.3-58c-14.4-14.7-34.1-22.9-54.7-23h-0.2c-20.7,0.1-40.5,8.6-54.9,23.4
		c-15.3,15.5-23.9,36.5-23.8,58.3l4.1,565.9c0.3,25.5-4.3,43.3-13.6,52.7c-6.1,6.2-14.6,9.2-26,9.2v20.6c16.9,0,30.6-5.1,40.6-15.3
		c13.5-13.6,19.9-35.7,19.6-67.3l-4.1-565.9c-0.1-16.4,6.4-32.1,17.9-43.7c10.6-11,25.1-17.2,40.3-17.3h0.2
		c15.1,0.1,29.6,6.2,40.2,17c11.6,11.5,18.1,27.1,18.2,43.5v207.3h-30.6c-5.7,0-10.3,4.6-10.3,10.3v235.8h100.4V418.4
		C932.6,412.7,928,408.1,922.4,408.1L922.4,408.1z"/>
	<path d="M844.7,761.2c0.7,5.1,5,9,10.2,9h18.2v112.8c0,5.7,4.6,10.3,10.3,10.3c5.7,0,10.3-4.6,10.3-10.3V770.1H910
		c5.2,0,9.5-3.8,10.2-9l11.2-86.5h-97.9L844.7,761.2z"/>
</g>
</svg>
