<?xml version="1.0" encoding="utf-8"?>
<!-- Generator: Adobe Illustrator 24.3.0, SVG Export Plug-In . SVG Version: 6.00 Build 0)  -->
<svg version="1.1" id="Calque_1" xmlns="http://www.w3.org/2000/svg" xmlns:xlink="http://www.w3.org/1999/xlink" x="0px" y="0px"
	 viewBox="0 0 1000 1000" style="enable-background:new 0 0 1000 1000;" xml:space="preserve">
<g id="Page-1">
	<g id="_x30_43---Hay-Bales">
		<path id="Shape" d="M671.9,467.8c22.7-23.7,40.3-51.9,51.5-82.7l43,14.4c1.8,0.5,3.6,0.8,5.5,0.8c8.3,0,15.5-6,16.7-14.2
			c1.4-8.2-3.5-16.2-11.4-18.8l-44.4-14.8c18.6-89-15.3-180.7-87.4-236.1c0.2-0.2,0.4-0.4,0.5-0.6l26.6-40
			c4.5-7.8,2.3-17.8-5.3-22.7s-17.7-3.3-22.9,4l-26.6,40c-0.1,0.2-0.2,0.4-0.3,0.6C546.5,57,459.7,55.8,387.7,94.3
			S268.6,205.7,263,287.3c-0.3,0-0.5-0.2-0.8-0.2h-51c-9.4,0-16.9,7.6-16.9,16.9s7.6,16.9,16.9,16.9h50.8c0.3,0,0.5-0.1,0.7-0.2
			c3.7,55.2,26.7,107.3,65.2,147c42,12.4,80.3,35.2,111.4,66c39.7,10.5,81.5,10.5,121.1,0C591.7,503,629.9,480.3,671.9,467.8z
			 M369,412.2c6,7.3,4.9,18-2.2,23.9c-7.3,6-18,4.9-23.9-2.2c-57.4-69.4-62.4-167.9-12.6-242.8S473,82.9,559,108.9
			s144.9,105.3,144.9,195.2c0,9.4-7.6,16.9-16.9,16.9c-9.4,0-16.9-7.6-16.9-16.9c0.1-74.8-49-141-120.6-162.7
			c-71.7-21.8-149.3,6.1-190.6,68.5S321.3,354.4,369,412.2z M462.9,487.6c-9.3-1.7-15.4-10.5-13.7-19.8c1.7-9.3,10.5-15.4,19.8-13.7
			c10.2,1.9,20.5,2.7,30.8,2.8c56.3,0,101.9-45.7,101.9-101.9s-45.7-101.9-101.9-101.9c-37.6,0-68,30.4-68,68s30.4,68,68,68
			c9.4,0,16.9,7.6,16.9,16.9s-7.6,16.9-16.9,16.9c-56.3,0-101.9-45.7-101.9-101.9s45.7-101.9,101.9-101.9
			c75.2,0,135.9,60.8,135.9,135.9S575.2,490.8,500,490.8C487.6,491,475.1,489.8,462.9,487.6L462.9,487.6z"/>
		<path id="Shape_1_" d="M253.7,491c-26.1,0-51.9,4.5-76.4,13.4l-18.6-37.9c-2.6-5.5-8.1-9.2-14.1-9.6s-11.9,2.4-15.4,7.6
			c-3.4,5.2-3.8,11.6-0.9,16.9l18,36.4c-28.9,15.6-54.4,37.3-74.4,63.5l-45.3-30.1c-5.2-3.4-11.6-3.8-16.9-1.2
			c-5.4,2.6-8.9,8.1-9.5,14.1c-0.5,6,2.4,11.9,7.6,15.3L53,609.5C3.1,700,20.1,812.9,94.3,884.9s187.5,85.5,276.4,32.7
			s131.8-158.2,104.4-258C447.7,560,357,491,253.7,491z M432,737.3c-9.4,0-16.9-7.6-16.9-16.9c0-89.2-72.2-161.5-161.5-161.5
			S92.2,631.2,92.2,720.4s72.3,161.4,161.5,161.4c51.6,0,93.5-41.9,93.5-93.5c0-51.6-41.9-93.5-93.5-93.5
			c-32.8,0-59.5,26.6-59.5,59.5c0,32.7,26.6,59.5,59.5,59.5c9.4,0,16.9,7.6,16.9,16.9c0,9.4-7.6,16.9-16.9,16.9
			c-51.6,0-93.5-41.9-93.5-93.5s41.9-93.5,93.5-93.5c70.3,0,127.5,57,127.5,127.5s-57.1,127.6-127.5,127.6
			c-107.9,0-195.4-87.5-195.4-195.4s87.5-195.3,195.4-195.3S449,612.6,449,720.4c0,4.5-1.8,8.7-4.9,12
			C440.9,735.5,436.5,737.3,432,737.3z"/>
		<path id="Shape_2_" d="M992.4,579.5c7.8-5.3,9.9-15.8,4.7-23.6c-5.3-7.8-15.8-9.9-23.6-4.7l-41.5,27.6c-1.4,0.9-2.4,2.1-3.5,3.5
			c-20.1-26.6-45.9-48.5-75.4-64.3c0.5-0.6,1.1-1.5,1.5-2.2l16.8-34c2.7-5.5,2.3-11.9-1.1-16.9s-9.3-8-15.4-7.6s-11.5,4-14.1,9.6
			l-16.8,34c-0.5,1.4-0.8,2.7-1.2,4.1c-94.6-34.1-200.5-2.3-260.9,78.2c-60.3,80.5-60.8,191.3-1.4,272.3c0,0-0.2,0.1-0.3,0.1
			l-37.4,29.9c-7.4,5.9-8.5,16.5-2.6,23.9c5.9,7.4,16.5,8.5,23.9,2.6l37.7-30c0.3-0.2,0.4-0.6,0.7-0.9c80.3,82.1,209,92,301,23.3
			s118.8-195,62.8-295.2c1.6-0.4,2.9-1.2,4.3-2L992.4,579.5z M924.8,737.3c-9.4,0-16.9-7.6-16.9-16.9c0-89.2-72.2-161.5-161.5-161.5
			s-161.5,72.2-161.5,161.5s72.3,161.4,161.5,161.4c51.6,0,93.5-41.9,93.5-93.5c0-51.6-41.9-93.5-93.5-93.5
			c-32.8,0-59.5,26.6-59.5,59.5c0,32.7,26.6,59.5,59.5,59.5c9.4,0,16.9,7.6,16.9,16.9c0,9.4-7.6,16.9-16.9,16.9
			c-51.6,0-93.5-41.9-93.5-93.5s41.9-93.5,93.5-93.5c70.3,0,127.5,57,127.5,127.5s-57.2,127.6-127.5,127.6
			c-107.9,0-195.4-87.5-195.4-195.4s87.5-195.3,195.4-195.3s195.4,87.5,195.4,195.3c0,4.5-1.8,8.7-4.9,12
			C933.6,735.5,929.3,737.3,924.8,737.3z"/>
	</g>
</g>
</svg>
