<?xml version="1.0" encoding="utf-8"?>
<!-- Generator: Adobe Illustrator 24.3.0, SVG Export Plug-In . SVG Version: 6.00 Build 0)  -->
<svg version="1.1" id="Capa_1" xmlns="http://www.w3.org/2000/svg" xmlns:xlink="http://www.w3.org/1999/xlink" x="0px" y="0px"
	 viewBox="0 0 1000 1000" style="enable-background:new 0 0 1000 1000;" xml:space="preserve">
<g>
	<path d="M693.5,485.7c7.5,1.9,14.9,3.5,22.6,1.7c6.7-1.6,12.3-5.2,16.6-9.9C885.3,324.6,979,184.8,974,54.3L856.9,171.5
		c-6.3,22.2-18.3,51.2-41.1,74c-22.8,22.8-51.8,34.8-74,41.1l-37.2,37.2c-2.7-4.6-5.9-9-9.6-13.1c-0.8-0.9-1.5-1.8-2.3-2.6
		c-4.7-4.7-10-8.7-15.6-11.9l37.3-37.3c6.3-22.2,18.3-51.1,41-73.8c22.7-22.7,51.6-34.7,73.8-41L946.4,26.8
		c-7.2-1.2-14.6-1.8-22.3-1.8C766.3,25,522,269.3,521.8,269.5l0,0.1c-4.1,4.2-7.1,9.5-8.5,15.7c-1.6,7.3-0.1,14.3,1.7,21.4
		c2.8,11.5,6.1,22.8,8.1,34.4c4.9,27.5,5.5,55.5,3.2,83.3c-2.3,27.5-6.9,54.8-14.7,81.3c-7.9,26.8-18.6,52.8-30.6,78
		c-24.5,51.5-55.7,99.5-87.7,146.5c-30.5,44.8-63.9,87.4-95.6,131.3c-5.5,7.7-10.7,15.2-13.7,24.3c-3.3,9.7-4.3,20.1-3,30.2
		c2.7,21,15.4,39.9,33.8,50.3c10.2,5.8,21.8,8.7,33.3,8.7c12,0,24.1-3.1,34.6-9.4c8.9-5.3,16.4-12.9,24-19.9
		c12.1-11.1,23.9-22.6,35.4-34.3c80.6-81.7,147.8-177.5,191-284c10-24.5,18.4-50.9,24.5-78l54.6,30.4l15.2-15.2l-61.9-61.9
		c2.5-23.3,2.9-46.7,0.7-69.6c7.9-3,15.2-7.3,21.7-12.8c2.7,20.4,3.4,42,2.1,64.4C691.1,485.1,692.3,485.4,693.5,485.7z
		 M656.2,379.4c-4.7,4.6-10.8,7.2-17.4,7.2c-6.6,0-12.8-2.6-17.4-7.2c-4.7-4.6-7.2-10.8-7.2-17.4s2.6-12.8,7.2-17.4
		c4.7-4.7,10.8-7.2,17.4-7.2c6.6,0,12.8,2.6,17.4,7.2c4.7,4.6,7.2,10.8,7.2,17.4C663.4,368.6,660.8,374.7,656.2,379.4z"/>
	<path d="M492,490.6c5.6-21.1,9.4-43.9,11.4-68.1c2.4-28.1,1.4-53.3-2.9-77.3c-0.6-3.1-1.2-6.2-1.9-9.3c-0.1,0-0.2,0-0.3,0
		l-81.5-81.7l-15.2,15.2l42.3,75.9c-51.2,12.1-99.6,33.4-146.2,57.6c-51.4,26.7-99.3,61.2-144,98C114,533.7,76.9,569.4,42.7,608
		c-16.3,17.7-21.1,44.5-13.2,67.1c8.2,23.5,29.3,41,53.9,44.7c20.4,3,38.2-3.9,54.5-15.6c21-15,41.7-30.7,62.3-46.2
		c45.4-34.3,92.6-66.3,140.9-96.4C387.8,532.5,438.7,506.8,492,490.6z"/>
</g>
</svg>
