<?xml version="1.0" encoding="utf-8"?>
<!-- Generator: Adobe Illustrator 24.3.0, SVG Export Plug-In . SVG Version: 6.00 Build 0)  -->
<svg version="1.1" id="Calque_1" xmlns="http://www.w3.org/2000/svg" xmlns:xlink="http://www.w3.org/1999/xlink" x="0px" y="0px"
	 viewBox="0 0 500 500" style="enable-background:new 0 0 500 500;" xml:space="preserve">
<style type="text/css">
	.st0{fill-rule:evenodd;clip-rule:evenodd;}
</style>
<g>
	<path d="M440.7,304.4v25.7h4.5v0.1h7v16.3c0,5.8,4.7,10.5,10.5,10.5s10.5-4.7,10.5-10.5v-38.1c0-5.8-4.7-10.5-10.5-10.5
		s-10.5,4.7-10.5,10.5v16.4h-3.9v-20.4V278v-39.9H313l-52.3-114.5h1.6v-14.1h-24.7v14.1h1.6l-52.3,114.5H51.7v40v26.3v20.3h-3.9
		v-16.2c0-5.8-4.7-10.5-10.5-10.5s-10.5,4.7-10.5,10.5v38.1c0,5.8,4.7,10.5,10.5,10.5s10.5-4.7,10.5-10.5v-16.5h3.9v0.1h7.6v-25.8
		L440.7,304.4z M250,124.6l51.9,113.5H198.1L250,124.6z"/>
	<g>
		<path class="st0" d="M70.5,344.4c-7.4-12.4,5.2-17.4,5-23.7C81.6,332.9,69.7,334.2,70.5,344.4z"/>
		<path class="st0" d="M67.5,348.9c0.8,5.5,3,10.5,9.1,13.5c-7.2-12.4-3.9-25.1,5.2-30.3c-0.8,1.7-1.9,5.2,0.6,6.9
			c7.4-8,9.4-20.7,7.7-30.9c9.4,9.1,14.6,21.8,8.6,33.1c-4.1,8,2.5,15.7,6.1,0c16.6,15.7,16,43.3-9.4,49.4
			c2.2-2.8,15.7-15.5,2.2-29.8c1.7,11.3-7.4,11.3-6.1,22.3c-7.2-12.1,8.3-12.7-5-30.3c3.3,14.6-18.2,20.4-3,37.5
			C60.9,385.6,58.9,364.6,67.5,348.9z"/>
	</g>
	<g>
		<path class="st0" d="M150.5,344.4c-7.4-12.4,5.2-17.4,5-23.7C161.6,332.9,149.7,334.2,150.5,344.4z"/>
		<path class="st0" d="M147.5,348.9c0.8,5.5,3,10.5,9.1,13.5c-7.2-12.4-3.9-25.1,5.2-30.3c-0.8,1.7-1.9,5.2,0.6,6.9
			c7.4-8,9.4-20.7,7.7-30.9c9.4,9.1,14.6,21.8,8.6,33.1c-4.1,8,2.5,15.7,6.1,0c16.6,15.7,16,43.3-9.4,49.4
			c2.2-2.8,15.7-15.5,2.2-29.8c1.7,11.3-7.4,11.3-6.1,22.3c-7.2-12.1,8.3-12.7-5-30.3c3.3,14.6-18.2,20.4-3,37.5
			C140.9,385.6,138.9,364.6,147.5,348.9z"/>
	</g>
	<g>
		<path class="st0" d="M230.5,344.4c-7.4-12.4,5.2-17.4,5-23.7C241.6,332.9,229.7,334.2,230.5,344.4z"/>
		<path class="st0" d="M227.5,348.9c0.8,5.5,3,10.5,9.1,13.5c-7.2-12.4-3.9-25.1,5.2-30.3c-0.8,1.7-1.9,5.2,0.6,6.9
			c7.4-8,9.4-20.7,7.7-30.9c9.4,9.1,14.6,21.8,8.6,33.1c-4.1,8,2.5,15.7,6.1,0c16.6,15.7,16,43.3-9.4,49.4
			c2.2-2.8,15.7-15.5,2.2-29.8c1.7,11.3-7.4,11.3-6.1,22.3c-7.2-12.1,8.3-12.7-5-30.3c3.3,14.6-18.2,20.4-3,37.5
			C220.9,385.6,218.9,364.6,227.5,348.9z"/>
	</g>
	<g>
		<path class="st0" d="M310.5,344.4c-7.4-12.4,5.2-17.4,5-23.7C321.6,332.9,309.7,334.2,310.5,344.4z"/>
		<path class="st0" d="M307.5,348.9c0.8,5.5,3,10.5,9.1,13.5c-7.2-12.4-3.9-25.1,5.2-30.3c-0.8,1.7-1.9,5.2,0.6,6.9
			c7.4-8,9.4-20.7,7.7-30.9c9.4,9.1,14.6,21.8,8.6,33.1c-4.1,8,2.5,15.7,6.1,0c16.6,15.7,16,43.3-9.4,49.4
			c2.2-2.8,15.7-15.5,2.2-29.8c1.7,11.3-7.4,11.3-6.1,22.3c-7.2-12.1,8.3-12.7-5-30.3c3.3,14.6-18.2,20.4-3,37.5
			C300.9,385.6,298.9,364.6,307.5,348.9z"/>
	</g>
	<g>
		<path class="st0" d="M390.5,344.4c-7.4-12.4,5.2-17.4,5-23.7C401.6,332.9,389.7,334.2,390.5,344.4z"/>
		<path class="st0" d="M387.5,348.9c0.8,5.5,3,10.5,9.1,13.5c-7.2-12.4-3.9-25.1,5.2-30.3c-0.8,1.7-1.9,5.2,0.6,6.9
			c7.4-8,9.4-20.7,7.7-30.9c9.4,9.1,14.6,21.8,8.6,33.1c-4.1,8,2.5,15.7,6.1,0c16.6,15.7,16,43.3-9.4,49.4
			c2.2-2.8,15.7-15.5,2.2-29.8c1.7,11.3-7.4,11.3-6.1,22.3c-7.2-12.1,8.3-12.7-5-30.3c3.3,14.6-18.2,20.4-3,37.5
			C380.9,385.6,378.9,364.6,387.5,348.9z"/>
	</g>
</g>
</svg>
