<?xml version="1.0" encoding="utf-8"?>
<!-- Generator: Adobe Illustrator 24.3.0, SVG Export Plug-In . SVG Version: 6.00 Build 0)  -->
<svg version="1.1" id="Calque_1" xmlns="http://www.w3.org/2000/svg" xmlns:xlink="http://www.w3.org/1999/xlink" x="0px" y="0px"
	 viewBox="0 0 1000 1000" style="enable-background:new 0 0 1000 1000;" xml:space="preserve">
<g>
	<path d="M389.1,606l-14.7,241.9c32.6,0,57.9,5.4,97.7,0c50.5-6.9,103.1-8.4,153.8,0L611.2,606H389.1z"/>
	<path d="M952.8,549.8c-12.3,0-22.3,10-22.3,22.3v34.9h-8.3V422.5h-25.6v-2.7c0-6-4.9-10.9-10.9-10.9H628L522.8,178.9h3.4v-30h-52.6
		v30h3.4L371.9,409H114.5c-6,0-10.9,4.9-10.9,10.9v2.7H78v184.3h-8.3v-34.5c0-12.3-10-22.3-22.3-22.3S25,560,25,572.4v81.1
		c0,12.3,10,22.3,22.3,22.3s22.3-10,22.3-22.3v-35.1h24.5v-54.9h9.5v10.2c0,6,4.9,10.9,10.9,10.9h771c6,0,10.9-4.9,10.9-10.9v-10
		h9.5v54.9h24.5v34.9c0,12.3,10,22.3,22.3,22.3s22.3-10,22.3-22.3v-81.1C975.1,559.8,965.1,549.8,952.8,549.8z M500.1,181
		l104.3,227.9H395.8L500.1,181z"/>
	<path d="M47.8,847.9c0,0,44.2-4.2,66.2,0s83.6,3.9,117.2,0s68.1,0,68.1,0L323.4,606H101.2C83.3,686.7,65.7,767.2,47.8,847.9z"/>
	<path d="M676.8,606L701,847.9c0,0,50.1-4.6,77.2,0s98.1,3.9,111.6,0c13.5-3.9,62.6,0,62.6,0C934.6,767.3,916.8,686.7,899,606H676.8
		z"/>
</g>
</svg>
