<?xml version="1.0" encoding="utf-8"?>
<!-- Generator: Adobe Illustrator 24.3.0, SVG Export Plug-In . SVG Version: 6.00 Build 0)  -->
<svg version="1.1" id="Calque_1" xmlns="http://www.w3.org/2000/svg" xmlns:xlink="http://www.w3.org/1999/xlink" x="0px" y="0px"
	 viewBox="0 0 1000 1000" style="enable-background:new 0 0 1000 1000;" xml:space="preserve">
<path d="M398.1,0c0,0,19.3,38.3,9.7,51.3c-17.2,23.1-85,23.1-85,23.1l30.4,44.6c0,0,89.6-15.8,104.1-45.9
	C470.5,45.5,398.1,0,398.1,0z M92,2.7c0,0-72.4,9.4-67.2,63.5c4.8,49.9,118.9,56.9,118.9,56.9c8.9-16,18.2-36.1,30.8-52
	c0,0-87,9-98.4-21.8C64.1,17.2,92,2.7,92,2.7L92,2.7z M248,64.9c-17.4,0-34.4-11.6-51.2-6.9C156.9,110.4,130.6,175,105,234.4
	c32.6,50.5,55.2,85.1,55.5,128.4c0,0-40.6,43.4-36.4,66c5.4,28.8,52.5,52.5,52.5,52.5c44.4,5,88.7,10,140.1,0.8
	c0,0,46.1-33.3,46.4-51.9c0.4-23.8-36.1-67.3-36.1-67.3c4.7-42.6,39.8-81.2,64.9-123.8c-16.3-57.6-43.9-122-90-178.2
	C283.4,53,265.5,64.9,248,64.9L248,64.9z M421.5,120c-27.6-0.1-61.5,14.1-61.5,14.1c25.9,47.7,23.1,49.3,54.5,68.4
	s72.8,5.5,72.8,5.5s-14.3-63.5-41.7-82C439.2,121.6,430.7,120,421.5,120z M69.6,121.8c-7.6,0-15,1.2-21.9,4
	C19.6,139.4,0,218.5,0,218.5s58.2,7,81.8-6.8c24.6-14.4,54.5-70.8,54.5-70.8C117.4,132.8,92.5,121.9,69.6,121.8z M160.9,217.1
	c0,0,22.2-4.8,39.5,5.5c10.7,6.3,6.3,32.7,6.3,32.7s-33.6,2.9-43.1-8.2C154.5,236.4,160.9,217.1,160.9,217.1z M327.1,219.8
	c0,0,4.9,19.5-9.5,31.3c-10.3,8.5-35.5,4.1-35.5,4.1s-3.4-21.6,10.9-32.7C306.7,211.9,327.1,219.8,327.1,219.8L327.1,219.8z
	 M304.5,393.8c0,0,22.8,7,19.2,21.8c-3.3,13.7-22.2,26.8-36,23.2c-9-2.4-6.3-10.6-2.9-19.1c3.2-8.2,11.9,0.5,17-6.8
	C307.3,405,304.5,393.8,304.5,393.8L304.5,393.8z M178.6,389.3c0,0,0,15.7,5.5,23.5c5,7.3,14.8-0.1,18,8.2
	c3.3,8.5,4.7,16.7-4.1,19.1c-13.6,3.7-32.2-9.4-35.4-23.1C158.9,402.2,178.6,389.3,178.6,389.3L178.6,389.3z"/>
<path d="M910.8,0c0,0,19.3,38.3,9.7,51.3c-17.2,23.1-85,23.1-85,23.1l30.4,44.6c0,0,89.6-15.8,104.1-45.9
	C983.2,45.5,910.8,0,910.8,0z M604.8,2.7c0,0-72.4,9.4-67.2,63.5c4.8,49.9,118.9,56.9,118.9,56.9c8.9-16,18.2-36.1,30.8-52
	c0,0-87,9-98.4-21.8C576.9,17.2,604.8,2.7,604.8,2.7L604.8,2.7z M760.8,64.9c-17.4,0-34.4-11.6-51.2-6.9
	c-39.9,52.3-66.2,116.9-91.8,176.3c32.6,50.5,55.2,85.1,55.5,128.4c0,0-40.6,43.4-36.4,66c5.4,28.8,52.5,52.5,52.5,52.5
	c44.4,5,88.7,10,140.1,0.8c0,0,46.1-33.3,46.4-51.9c0.4-23.8-36.1-67.3-36.1-67.3c4.7-42.6,39.8-81.2,64.9-123.8
	c-16.3-57.6-43.9-122-90-178.2C796.1,53,778.3,64.9,760.8,64.9L760.8,64.9z M934.2,120c-27.6-0.1-61.5,14.1-61.5,14.1
	c25.9,47.7,23.1,49.3,54.5,68.4s72.8,5.5,72.8,5.5s-14.3-63.5-41.7-82C952,121.6,943.4,120,934.2,120z M582.4,121.8
	c-7.6,0-15,1.2-21.9,4c-28.1,13.5-47.7,92.6-47.7,92.6s58.2,7,81.8-6.8c24.6-14.4,54.5-70.8,54.5-70.8
	C630.1,132.8,605.2,121.9,582.4,121.8z M673.7,217.1c0,0,22.2-4.8,39.5,5.5c10.7,6.3,6.3,32.7,6.3,32.7s-33.6,2.9-43.1-8.2
	C667.2,236.4,673.7,217.1,673.7,217.1z M839.9,219.8c0,0,4.9,19.5-9.5,31.3c-10.3,8.5-35.5,4.1-35.5,4.1s-3.4-21.6,10.9-32.7
	C819.5,211.9,839.9,219.8,839.9,219.8L839.9,219.8z M817.3,393.8c0,0,22.8,7,19.2,21.8c-3.3,13.7-22.2,26.8-36,23.2
	c-9-2.4-6.3-10.6-2.9-19.1c3.2-8.2,11.9,0.5,17-6.8C820.1,405,817.3,393.8,817.3,393.8L817.3,393.8z M691.3,389.3
	c0,0,0,15.7,5.5,23.5c5,7.3,14.8-0.1,18,8.2c3.3,8.5,4.7,16.7-4.1,19.1c-13.6,3.7-32.2-9.4-35.4-23.1
	C671.7,402.2,691.3,389.3,691.3,389.3L691.3,389.3z"/>
<path d="M654.5,512.8c0,0,19.3,38.3,9.7,51.3c-17.2,23.1-85,23.1-85,23.1l30.4,44.6c0,0,89.6-15.8,104.1-45.9
	C726.9,558.3,654.5,512.8,654.5,512.8z M348.4,515.5c0,0-72.4,9.4-67.2,63.5c4.8,49.9,118.9,56.9,118.9,56.9
	c8.9-16,18.2-36.1,30.8-52c0,0-87,9-98.4-21.8C320.5,529.9,348.4,515.5,348.4,515.5L348.4,515.5z M504.4,577.7
	c-17.4,0-34.4-11.6-51.2-6.9c-39.9,52.3-66.2,116.9-91.8,176.3c32.6,50.5,55.2,85.1,55.5,128.4c0,0-40.6,43.4-36.4,66
	c5.4,28.8,52.5,52.5,52.5,52.5c44.4,5,88.7,10,140.1,0.8c0,0,46.1-33.3,46.4-51.9c0.4-23.8-36.1-67.3-36.1-67.3
	c4.7-42.6,39.8-81.2,64.9-123.8c-16.3-57.6-43.9-122-90-178.2C539.8,565.7,521.9,577.6,504.4,577.7L504.4,577.7z M677.8,632.7
	c-27.6-0.1-61.5,14.1-61.5,14.1c25.9,47.7,23.1,49.3,54.5,68.4c31.4,19.1,72.8,5.5,72.8,5.5s-14.3-63.5-41.7-82
	C695.6,634.3,687,632.7,677.8,632.7z M326,634.6c-7.6,0-15,1.2-21.9,4c-28.1,13.5-47.7,92.6-47.7,92.6s58.2,7,81.8-6.8
	c24.6-14.4,54.5-70.8,54.5-70.8C373.8,645.6,348.9,634.7,326,634.6z M417.3,729.9c0,0,22.2-4.8,39.5,5.5c10.7,6.3,6.3,32.7,6.3,32.7
	s-33.6,2.9-43.1-8.2C410.8,749.1,417.3,729.9,417.3,729.9z M583.5,732.6c0,0,4.9,19.5-9.5,31.3c-10.3,8.5-35.5,4.1-35.5,4.1
	s-3.4-21.6,10.9-32.7C563.1,724.7,583.5,732.6,583.5,732.6L583.5,732.6z M560.9,906.5c0,0,22.8,7,19.2,21.8
	c-3.3,13.7-22.2,26.8-36,23.2c-9-2.4-6.3-10.6-2.9-19.1c3.2-8.2,11.9,0.5,17-6.8C563.7,917.8,560.9,906.5,560.9,906.5L560.9,906.5z
	 M435,902.1c0,0,0,15.7,5.5,23.5c5,7.3,14.8-0.1,18,8.2c3.3,8.5,4.7,16.7-4.1,19.1c-13.6,3.7-32.2-9.4-35.4-23.1
	C415.3,915,435,902.1,435,902.1L435,902.1z"/>
</svg>
