<?xml version="1.0" encoding="utf-8"?>
<!-- Generator: Adobe Illustrator 26.0.2, SVG Export Plug-In . SVG Version: 6.00 Build 0)  -->
<svg version="1.1" id="Calque_1" xmlns="http://www.w3.org/2000/svg" xmlns:xlink="http://www.w3.org/1999/xlink" x="0px" y="0px"
	 viewBox="0 0 1000 1000" style="enable-background:new 0 0 1000 1000;" xml:space="preserve">
<g>
	<path d="M25,55.6V176l62.3,35h61.6v687.8l62.3,45.3V725.3h16.8v81c0,7.2,5.8,13.2,13.2,13.2h92.3c7.2,0,13.2-5.8,13.2-13.2V621.9
		c0-7.2-5.8-13.2-13.2-13.2h-92.3c-7.2,0-13.2,5.8-13.2,13.2v81h-16.8V211.2h577.5v491.8h-16.8v-81c0-7.2-5.8-13.2-13.2-13.2h-92.3
		c-7.2,0-13.2,5.8-13.2,13.2v81v22.7v80.8c0,7.2,5.8,13.2,13.2,13.2h92.3c7.2,0,13.2-5.8,13.2-13.2v-80.8h16.8v218.8l62.3-45.3
		V211.2h64.7l59.2-35V55.7H25V55.6z M916,176H87.3V90.6h23.3v54.2h287.8V90.6h206.5v54.2h287.8V90.6H916L916,176L916,176z"/>
	<path d="M712.8,565.8c-36.5,0-65.8,15.2-65.8,33.8h131.9C778.7,581,749.1,565.8,712.8,565.8z"/>
	<path d="M221.4,599.8h131.9c0-18.7-29.6-33.8-65.8-33.8C251.1,566,221.4,581.2,221.4,599.8z"/>
</g>
</svg>
