<?xml version="1.0" encoding="utf-8"?>
<!-- Generator: Adobe Illustrator 24.3.0, SVG Export Plug-In . SVG Version: 6.00 Build 0)  -->
<svg version="1.1" id="Calque_1" xmlns="http://www.w3.org/2000/svg" xmlns:xlink="http://www.w3.org/1999/xlink" x="0px" y="0px"
	 viewBox="0 0 1000 1000" style="enable-background:new 0 0 1000 1000;" xml:space="preserve">
<g id="Page-1">
	<g id="_x30_43---Hay-Bales">
		<path id="Shape" d="M663.3,469.5c21.6-22.5,38.3-49.3,48.9-78.6l40.8,13.7c1.7,0.5,3.4,0.8,5.2,0.8c7.9,0,14.7-5.7,15.9-13.5
			c1.3-7.8-3.3-15.4-10.8-17.9l-42.2-14.1c17.7-84.5-14.5-171.7-83-224.3c0.2-0.2,0.4-0.4,0.5-0.6l25.3-38c4.3-7.4,2.2-16.9-5-21.6
			c-7.2-4.7-16.8-3.1-21.8,3.8l-25.3,38c-0.1,0.2-0.2,0.4-0.3,0.6c-67.3-38.5-149.8-39.7-218.2-3.1S280.2,220.5,274.9,298
			c-0.3,0-0.5-0.2-0.8-0.2h-48.4c-8.9,0-16.1,7.2-16.1,16.1s7.2,16.1,16.1,16.1H274c0.3,0,0.5-0.1,0.7-0.2
			c3.5,52.4,25.4,101.9,61.9,139.6c39.9,11.8,76.3,33.4,105.8,62.7c37.7,10,77.4,10,115,0C587.1,502.9,623.4,481.4,663.3,469.5z
			 M375.6,416.7c5.7,6.9,4.7,17.1-2.1,22.7c-6.9,5.7-17.1,4.7-22.7-2.1c-54.5-65.9-59.3-159.5-12-230.6s135.6-102.8,217.3-78.1
			S693.7,228.6,693.7,314c0,8.9-7.2,16.1-16.1,16.1s-16.1-7.2-16.1-16.1c0.1-71.1-46.5-133.9-114.6-154.6
			c-68.1-20.7-141.8,5.8-181.1,65.1S330.3,361.8,375.6,416.7z M464.8,488.3c-8.8-1.6-14.6-10-13-18.8c1.6-8.8,10-14.6,18.8-13
			c9.7,1.8,19.5,2.6,29.3,2.7c53.5,0,96.8-43.4,96.8-96.8s-43.4-96.8-96.8-96.8c-35.7,0-64.6,28.9-64.6,64.6s28.9,64.6,64.6,64.6
			c8.9,0,16.1,7.2,16.1,16.1s-7.2,16.1-16.1,16.1c-53.5,0-96.8-43.4-96.8-96.8s43.4-96.8,96.8-96.8c71.4,0,129.1,57.8,129.1,129.1
			s-57.6,128.8-129,128.8C488.2,491.5,476.4,490.4,464.8,488.3L464.8,488.3z"/>
		<path id="Shape_1_" d="M266,491.5c-24.8,0-49.3,4.3-72.6,12.7l-17.7-36c-2.5-5.2-7.7-8.7-13.4-9.1c-5.7-0.4-11.3,2.3-14.6,7.2
			c-3.2,4.9-3.6,11-0.9,16.1l17.1,34.6c-27.5,14.8-51.7,35.4-70.7,60.3l-43-28.6c-4.9-3.2-11-3.6-16.1-1.1s-8.5,7.7-9,13.4
			s2.3,11.3,7.2,14.5l43.1,28.6c-47.4,86-31.3,193.2,39.2,261.6s178.1,81.2,262.6,31.1s125.2-150.3,99.2-245.1
			C450.3,557.1,364.2,491.5,266,491.5z M435.4,725.5c-8.9,0-16.1-7.2-16.1-16.1c0-84.7-68.6-153.4-153.4-153.4
			s-153.3,68.7-153.3,153.4S181.3,862.7,266,862.7c49,0,88.8-39.8,88.8-88.8c0-49-39.8-88.8-88.8-88.8c-31.2,0-56.5,25.3-56.5,56.5
			c0,31.1,25.3,56.5,56.5,56.5c8.9,0,16.1,7.2,16.1,16.1s-7.2,16.1-16.1,16.1c-49,0-88.8-39.8-88.8-88.8s39.8-88.8,88.8-88.8
			c66.8,0,121.1,54.1,121.1,121.1S332.9,895,266,895c-102.5,0-185.6-83.1-185.6-185.6S163.5,523.9,266,523.9S451.6,607,451.6,709.4
			c0,4.3-1.7,8.3-4.7,11.4C443.9,723.8,439.7,725.5,435.4,725.5z"/>
		<path id="Shape_2_" d="M967.8,575.6c7.4-5,9.4-15,4.5-22.4c-5-7.4-15-9.4-22.4-4.5l-39.4,26.2c-1.3,0.9-2.3,2-3.3,3.3
			c-19.1-25.3-43.6-46.1-71.6-61.1c0.5-0.6,1-1.4,1.4-2.1l16-32.3c2.6-5.2,2.2-11.3-1-16.1s-8.8-7.6-14.6-7.2
			c-5.8,0.4-10.9,3.8-13.4,9.1l-16,32.3c-0.5,1.3-0.8,2.6-1.1,3.9c-89.9-32.4-190.5-2.2-247.8,74.3s-57.8,181.7-1.3,258.7
			c0,0-0.2,0.1-0.3,0.1L522,866.2c-7,5.6-8.1,15.7-2.5,22.7c5.6,7,15.7,8.1,22.7,2.5l35.8-28.5c0.3-0.2,0.4-0.6,0.7-0.9
			c76.3,78,198.5,87.4,285.9,22.1s112.9-185.2,59.7-280.4c1.5-0.4,2.8-1.1,4.1-1.9L967.8,575.6z M903.5,725.5
			c-8.9,0-16.1-7.2-16.1-16.1c0-84.7-68.6-153.4-153.4-153.4s-153.4,68.6-153.4,153.4S649.3,862.7,734,862.7
			c49,0,88.8-39.8,88.8-88.8c0-49-39.8-88.8-88.8-88.8c-31.2,0-56.5,25.3-56.5,56.5c0,31.1,25.3,56.5,56.5,56.5
			c8.9,0,16.1,7.2,16.1,16.1s-7.2,16.1-16.1,16.1c-49,0-88.8-39.8-88.8-88.8s39.8-88.8,88.8-88.8c66.8,0,121.1,54.1,121.1,121.1
			S800.8,895,734,895c-102.5,0-185.6-83.1-185.6-185.6S631.5,523.9,734,523.9S919.6,607,919.6,709.4c0,4.3-1.7,8.3-4.7,11.4
			C911.9,723.8,907.8,725.5,903.5,725.5z"/>
	</g>
</g>
</svg>
