<?xml version="1.0" encoding="utf-8"?>
<!-- Generator: Adobe Illustrator 24.3.0, SVG Export Plug-In . SVG Version: 6.00 Build 0)  -->
<svg version="1.1" id="Calque_1" xmlns="http://www.w3.org/2000/svg" xmlns:xlink="http://www.w3.org/1999/xlink" x="0px" y="0px"
	 viewBox="0 0 650 1000" style="enable-background:new 0 0 650 1000;" xml:space="preserve">
<g>
	<g>
		<path d="M35.6,612.3c0,0,32.2,16.9,65.8-10l118.1-96.7c0,0,4.9-4.6,15.5-4.6h101c0,0,12.6,2.1,12.6,13.2c0,0,0,13.2-13.6,13.2
			h-88.2c0,0-27.2,2.6-27.2,24.2c0,0-2.4,24.9,28.6,24.9l173.6,2.9c0,0,63.6,0.8,116.4-32.1l86.8-67.8L495.3,352.5l-33.9,33.7
			c0,0-4.9,7.7-14.1,7.7H239.5c0,0-43.4,1.5-68.4,29.8L28.6,584.3C28.6,584.3,17,599.8,35.6,612.3z"/>
	</g>
	<path d="M470.5,205c-1.4-5.4-7-8.7-12.5-7.3l-25.3,6.8c-6.4,1.3-13,0.5-18.8-2.5l-44.2-25.6c-2.8-1-4.3-4.1-3.3-6.9
		c0.5-1.6,1.8-2.8,3.3-3.3l44.2-25.6c5.8-2.9,12.4-3.8,18.8-2.5l25.3,6.9c5.5,1.5,11.1-1.8,12.5-7.2c0,0,0,0,0,0l4-14.8
		c1.5-5.5-1.8-11.1-7.2-12.5c0,0,0,0,0,0l-15.3-4.1c-5.5-1.4-8.7-7-7.3-12.5c0,0,0,0,0,0l4.1-15.3c1.5-5.5-1.8-11.1-7.2-12.5
		c0,0,0,0,0,0l-14.8-4c-5.5-1.5-11.1,1.8-12.5,7.2c0,0,0,0,0,0l-6.6,25.4c-2,6.2-6.1,11.4-11.5,15l-44.2,25.6
		c-4.9,2.8-8.8,0.5-8.8-5.1V79.3c0.4-6.5,2.9-12.6,7.2-17.4l18.6-18.6c4-4,4-10.4,0-14.4L357.8,18c-4-4-10.4-4-14.4,0l-11.1,11.1
		c-4,4-10.4,4-14.4,0L306.6,18c-4-4-10.4-4-14.4,0l-10.9,10.9c-4,4-4,10.4,0,14.4l18.6,18.6c4.3,4.8,6.9,11,7.2,17.5v51.1
		c0,5.6-4,7.9-8.8,5.1L254,110c-5.5-3.6-9.6-9.1-11.5-15.3l-6.8-25.3c-1.4-5.5-7-8.7-12.5-7.3c0,0,0,0,0,0l-14.8,4
		c-5.5,1.4-8.7,7-7.3,12.5c0,0,0,0,0,0l4.1,15.3c1.5,5.5-1.8,11.1-7.2,12.5c0,0,0,0,0,0l-15.3,4.1c-5.5,1.4-8.7,7-7.3,12.5
		c0,0,0,0,0,0l4,14.8c1.5,5.4,7.1,8.6,12.6,7.1c0,0,0.1,0,0.1,0l25.6-6.8c6.4-1.3,13-0.4,18.8,2.5l44.2,25.6c2.8,1,4.3,4.1,3.3,6.9
		c-0.5,1.6-1.8,2.8-3.3,3.3l-44.2,25.6c-5.8,2.9-12.4,3.8-18.8,2.5l-25.6-6.9c-5.5-1.5-11.1,1.8-12.5,7.2c0,0,0,0,0,0l-4,14.8
		c-1.5,5.5,1.8,11.1,7.2,12.5c0,0,0,0,0,0l15.3,4.1c5.5,1.4,8.7,7,7.3,12.5c0,0,0,0,0,0l-4.1,15.3c-1.5,5.5,1.8,11.1,7.2,12.5
		c0,0,0,0,0,0l14.8,4c5.5,1.5,11.1-1.8,12.5-7.2c0,0,0,0,0,0l6.6-25.4c2-6.2,6.1-11.4,11.5-15l44.2-25.6c4.9-2.8,8.8-0.5,8.8,5.1
		v51.1c-0.4,6.5-2.9,12.6-7.2,17.4l-18.6,18.6c-4,4-4,10.4,0,14.4l10.9,10.6c4,4,10.4,4,14.4,0l11.1-11.1c4-4,10.4-4,14.4,0
		l11.1,11.1c4,4,10.4,4,14.4,0l10.9-10.9c4-4,4-10.4,0-14.4L350.1,281c-4.3-4.8-6.9-11-7.2-17.4v-51.1c0-5.6,4-7.9,8.8-5.1
		l44.2,25.6c5.5,3.6,9.6,9,11.5,15.3l6.8,25.3c1.4,5.5,7,8.7,12.5,7.3c0,0,0,0,0,0l14.8-4c5.5-1.4,8.7-7,7.3-12.5c0,0,0,0,0,0
		l-4.1-15.3c-1.5-5.5,1.8-11.1,7.2-12.5c0,0,0,0,0,0l15.3-4.1c5.5-1.4,8.7-7,7.3-12.5c0,0,0,0,0,0L470.5,205z"/>
	<path d="M172.8,680.5H122c0,98.1,79.5,177.6,177.6,177.6v114.2c0,7,5.7,12.7,12.7,12.7h25.4c7,0,12.7-5.7,12.7-12.7V858.1
		C350.4,760,270.8,680.5,172.8,680.5z M477.2,629.7c-66.8,0-124.8,36.9-155.2,91.4c22,24,38.2,53.1,46.8,85.3
		c89.4-9.2,159.2-84.7,159.2-176.7H477.2z"/>
</g>
</svg>
