<?xml version="1.0" encoding="utf-8"?>
<!-- Generator: Adobe Illustrator 24.3.0, SVG Export Plug-In . SVG Version: 6.00 Build 0)  -->
<svg version="1.1" id="Calque_1" xmlns="http://www.w3.org/2000/svg" xmlns:xlink="http://www.w3.org/1999/xlink" x="0px" y="0px"
	 viewBox="0 0 1000 1000" style="enable-background:new 0 0 1000 1000;" xml:space="preserve">
<path d="M653.6,0c0,0,31.8,62.9,15.9,84.2c-28.2,38-139.5,38-139.5,38l49.8,73.2c0,0,147.1-25.9,171-75.4
	C772.5,74.7,653.6,0,653.6,0z M151.1,4.5c0,0-118.9,15.4-110.4,104.2c7.9,82,195.3,93.4,195.3,93.4c14.6-26.2,29.9-59.2,50.6-85.4
	c0,0-142.8,14.8-161.6-35.8C105.3,28.2,151.1,4.5,151.1,4.5L151.1,4.5z M407.2,106.6c-28.6,0.1-56.6-19.1-84.1-11.3
	c-65.5,85.9-108.7,191.9-150.8,289.5c53.6,83,90.6,139.7,91.2,210.9c0,0-66.6,71.3-59.8,108.3c8.9,47.3,86.2,86.2,86.2,86.2
	c72.9,8.2,145.6,16.5,230,1.4c0,0,75.7-54.7,76.2-85.3C597,667.2,537,595.8,537,595.8c7.8-70,65.3-133.3,106.6-203.3
	c-26.7-94.6-72.2-200.3-147.8-292.6C465.3,87,435.9,106.5,407.2,106.6L407.2,106.6z M692,197c-45.4-0.2-101,23.1-101,23.1
	c42.5,78.2,37.9,80.9,89.5,112.2s119.5,9,119.5,9S776.6,237,731.5,206.6C721.1,199.6,707.1,197,692,197z M114.3,200
	c-12.5-0.1-24.6,1.9-36,6.6C32.2,228.9,0,358.7,0,358.7s95.6,11.5,134.3-11.2c40.3-23.7,89.5-116.3,89.5-116.3
	C192.7,218.1,151.8,200.2,114.3,200z M264.2,356.5c0,0,36.4-7.9,64.9,9c17.5,10.3,10.3,53.7,10.3,53.7s-55.1,4.8-70.7-13.4
	C253.6,388.1,264.2,356.5,264.2,356.5z M537.1,361c0,0,8.1,32-15.6,51.4c-17,13.9-58.2,6.7-58.2,6.7s-5.6-35.4,17.9-53.7
	C503.6,348,537.1,361,537.1,361L537.1,361z M500,646.6c0,0,37.4,11.5,31.5,35.8c-5.4,22.6-36.4,44.1-59.1,38.1
	c-14.7-3.9-10.3-17.4-4.8-31.4c5.3-13.5,19.6,0.8,27.9-11.2C504.6,665,500,646.6,500,646.6L500,646.6z M293.2,639.3
	c0,0,0.1,25.8,9,38.6c8.2,12,24.3-0.2,29.6,13.4c5.4,14,7.7,27.4-6.8,31.3c-22.4,6.1-52.8-15.4-58.2-38
	C261,660.4,293.2,639.3,293.2,639.3L293.2,639.3z"/>
<g>
	<path d="M812.8,460.1c-41.7,1.6-74.7,34.9-75.8,76.7c-0.3,11.8,2,23.1,6.3,33.3c17.6,40.9,31.2,121.5,32.9,166.9
		c0.2,7.2,6.1,12.8,13.3,12.9H842c7.6,0,13.3-6.2,13.3-13.2c0.9-45.4,16-126.6,33.2-167c4.1-9.5,6.3-20,6.3-30.9
		C894.9,494.3,857.8,458.3,812.8,460.1z"/>
	<path d="M881.7,737.1l-0.1,0.5c-0.5,21.4-18.2,38.6-39.6,38.7h-52.5c-21.6,0-38.9-16.8-39.7-38.4c-0.1-0.7-0.3-13.6-3-36.2
		c-59.6,7.9-115.2,27.1-115.2,61.4c0,87.8,368.4,87.5,368.4,0c0-34.3-55.7-53.7-115.6-61.5C882.9,714.5,881.9,726.8,881.7,737.1
		L881.7,737.1z"/>
	<path d="M908,881.5c0,50.7-41.3,92.1-92.1,92.1c-24.6,0-47.8-9.6-65.2-27c-26.5-26.5-33.5-65-20.9-98c-9-1.5-17.8-3.2-26.1-5.1
		c-13.9,41.2-4.7,88.6,28.4,121.8c46.4,46.4,121.3,46.1,167.4,0c32.4-32.4,42.7-79.6,28.5-121.7c-8.3,1.9-17.1,3.6-26.1,5.1
		C905.8,859.1,908,870.1,908,881.5L908,881.5z"/>
</g>
</svg>
