<?xml version="1.0" encoding="utf-8"?>
<!-- Generator: Adobe Illustrator 24.3.0, SVG Export Plug-In . SVG Version: 6.00 Build 0)  -->
<svg version="1.1" id="Capa_1" xmlns="http://www.w3.org/2000/svg" xmlns:xlink="http://www.w3.org/1999/xlink" x="0px" y="0px"
	 viewBox="0 0 1000 1000" style="enable-background:new 0 0 1000 1000;" xml:space="preserve">
<g>
	<path d="M649.7,491.2c8.8,2.9,19.1-1.5,23.6-11.8c203.2-5.9,318.1-209.1,324-218c10.3-19.1-10.3-39.8-30.9-28
		c-70.7,38.3-178.2,89.8-212.1,100.1l-19.1-13.3c101.6-104.6,76.6-282.8,75.1-290.1c0-8.8-7.4-16.2-17.7-17.7
		c-7.4-1.5-17.7,2.9-22.1,10.3C739.5,77.4,643.8,223.2,579,249.7c0,0-64.8,32.4-137,22.1c-17.7-2.9-33.9,4.4-44.2,17.7
		c-14.7,17.7-61.9,73.6-101.6,92.8C231.4,414.6,70.9,495.6,13.5,570.7c-19.1,25-17.7,58.9,2.9,79.5c1.5,1.5,2.9,2.9,5.9,5.9l2.9,2.9
		c10.3,10.3,26.5,14.7,41.2,14.7s29.5-8.8,38.3-20.6l2.9-2.9c66.3-86.9,135.5-114.9,222.4-151.7c30.9-13.3,64.8-26.5,100.1-44.2
		c23.6,11.8,83.9,39.8,197.3,56C637.9,508.9,648.2,501.5,649.7,491.2z M565.8,395.5c-20.6-20.6-20.6-56,0-76.6
		c20.6-20.6,56-20.6,76.6,0c25,25,17.7,58.9,0,76.6C623.2,414.6,590.8,420.5,565.8,395.5z"/>
	<path d="M576.1,765.1c70.7-94.3,89.8-172.3,138.4-247.4c-7.4,1.5-13.3,1.5-20.6,2.9c-5.9,2.9-13.3,7.4-19.1,10.3
		c-28,28-61.9,20.6-142.9,1.5c1.5,1.5,0,2.9,0,2.9s0,44.2-45.7,148.7c-1.5,4.4-2.9,5.9-4.4,10.3c-4.4,7.4-5.9,14.7-10.3,22.1
		c-17.7,50.1-57.4,231.2-23.6,265.1c8.8,8.8,22.1,7.4,29.5,0C498,961,443.5,938.9,576.1,765.1z"/>
</g>
</svg>
