<?xml version="1.0" encoding="utf-8"?>
<!-- Generator: Adobe Illustrator 24.3.0, SVG Export Plug-In . SVG Version: 6.00 Build 0)  -->
<svg version="1.1" id="Calque_1" xmlns="http://www.w3.org/2000/svg" xmlns:xlink="http://www.w3.org/1999/xlink" x="0px" y="0px"
	 viewBox="0 0 800 1000" style="enable-background:new 0 0 800 1000;" xml:space="preserve">
<g>
	<path d="M172.4,171.7L50,328.1h700L627.6,171.7C627.6,171.7,172.4,171.7,172.4,171.7z M229.7,217.5c0-10.1,9.6-18,21.8-18
		c12.2,0,21.8,7.9,21.8,18s-9.6,18-21.8,18C239.2,235.5,229.7,227.6,229.7,217.5z M280.9,300.4c-12.2,0-21.8-7.9-21.8-18
		c0-10.1,9.6-18,21.8-18c12.2,0,21.8,7.9,21.8,18C302.8,292.5,293.2,300.4,280.9,300.4z M368.2,267.1c-12.2,0-21.8-7.9-21.8-18
		c0-10.1,9.6-18,21.8-18s21.8,7.9,21.8,18C390,259.2,380.4,267.1,368.2,267.1z M469.1,232.2c-12.2,0-21.8-7.9-21.8-18
		s9.6-18,21.8-18s21.8,7.9,21.8,18S481.3,232.2,469.1,232.2z M512.2,297.7c-12.2,0-21.8-7.9-21.8-18s9.6-18,21.8-18
		c12.2,0,21.8,7.9,21.8,18S524.4,297.7,512.2,297.7z M557.6,246.4c-12.2,0-21.8-7.9-21.8-18s9.6-18,21.8-18s21.8,7.9,21.8,18
		S569.8,246.4,557.6,246.4z"/>
	<circle cx="203" cy="444.2" r="11.5"/>
	<circle cx="344" cy="439.8" r="11.5"/>
	<circle cx="474.9" cy="505.3" r="11.5"/>
	<circle cx="532.7" cy="439.8" r="11.5"/>
	<circle cx="597.1" cy="509.6" r="11.5"/>
	<circle cx="518" cy="556.2" r="11.5"/>
	<circle cx="335.3" cy="514" r="11.5"/>
	<circle cx="257.3" cy="505.3" r="11.5"/>
	<circle cx="226.2" cy="575.1" r="11.5"/>
	<circle cx="301.5" cy="560.5" r="11.5"/>
	<circle cx="413.8" cy="556.2" r="11.5"/>
	<circle cx="409.5" cy="496.5" r="11.5"/>
	<circle cx="440" cy="448.6" r="11.5"/>
	<circle cx="573.8" cy="598.3" r="11.5"/>
	<circle cx="203" cy="518.4" r="11.5"/>
	<path d="M400,586L94.4,742.6l9,6.8c4.2,3.2,105.9,78.9,296.6,78.9c190.7,0,292.4-75.7,296.6-78.9l9-6.8L403.2,587.7L400,586z
		 M230,733.9c0-6.3,5.1-11.5,11.5-11.5s11.5,5.1,11.5,11.5s-5.1,11.5-11.5,11.5S230,740.3,230,733.9z M254.6,782.5
		c-6.3,0-11.5-5.1-11.5-11.5c0-6.3,5.1-11.5,11.5-11.5c6.3,0,11.5,5.1,11.5,11.5C266.1,777.3,260.9,782.5,254.6,782.5z M316.8,786.9
		c-6.3,0-11.5-5.1-11.5-11.5s5.1-11.5,11.5-11.5c6.3,0,11.5,5.1,11.5,11.5S323.1,786.9,316.8,786.9z M350.6,745.4
		c-6.3,0-11.5-5.1-11.5-11.5s5.1-11.5,11.5-11.5s11.5,5.1,11.5,11.5S356.9,745.4,350.6,745.4z M372.4,795.6
		c-6.3,0-11.5-5.1-11.5-11.5c0-6.3,5.1-11.5,11.5-11.5c6.3,0,11.5,5.1,11.5,11.5C383.8,790.4,378.7,795.6,372.4,795.6z M572,750.8
		c6.3,0,11.5,5.1,11.5,11.5c0,6.3-5.1,11.5-11.5,11.5s-11.5-5.1-11.5-11.5C560.5,756,565.7,750.8,572,750.8z M548,718.1
		c6.3,0,11.5,5.1,11.5,11.5c0,6.3-5.1,11.5-11.5,11.5c-6.3,0-11.5-5.1-11.5-11.5C536.5,723.2,541.7,718.1,548,718.1z M498.9,750.8
		c6.3,0,11.5,5.1,11.5,11.5c0,6.3-5.1,11.5-11.5,11.5c-6.3,0-11.5-5.1-11.5-11.5C487.4,756,492.6,750.8,498.9,750.8z M442.2,722.5
		c6.3,0,11.5,5.1,11.5,11.5s-5.1,11.5-11.5,11.5c-6.3,0-11.5-5.1-11.5-11.5S435.9,722.5,442.2,722.5z M433.5,759.6
		c6.3,0,11.5,5.1,11.5,11.5c0,6.3-5.1,11.5-11.5,11.5c-6.3,0-11.5-5.1-11.5-11.5C422,764.7,427.1,759.6,433.5,759.6z"/>
</g>
</svg>
