<?xml version="1.0" encoding="utf-8"?>
<!-- Generator: Adobe Illustrator 24.3.0, SVG Export Plug-In . SVG Version: 6.00 Build 0)  -->
<svg version="1.1" id="Calque_1" xmlns="http://www.w3.org/2000/svg" xmlns:xlink="http://www.w3.org/1999/xlink" x="0px" y="0px"
	 viewBox="0 0 1000 1000" style="enable-background:new 0 0 1000 1000;" xml:space="preserve">
<path d="M952.7,551.4c-12.3,0-22.3,10-22.3,22.3v34.9H922V424.1h-25.6v-2.7c0-6-4.9-10.9-10.9-10.9H627.9L522.8,180.6h3.4v-30h-52.6
	v30h3.4L371.9,410.6H114.5c-6,0-10.9,4.9-10.9,10.9v2.7H78v184.3h-8.3V574c0-12.3-10-22.3-22.3-22.3S25,561.6,25,574V655
	c0,12.3,10,22.3,22.3,22.3s22.3-10,22.3-22.3v-35.1h24.5V565h9.5v10.2c0,2.9,1.2,5.5,3,7.4c-19.6,89-39.2,177.8-58.8,266.8
	c301.5,0,603,0,904.5,0c-19.6-88.8-39.3-177.9-58.8-266.8c1.8-1.9,3-4.6,3-7.4v-10h9.5v54.9h24.5V655c0,12.3,10,22.3,22.3,22.3
	c12.3,0,22.3-10,22.3-22.3V574C975,561.4,965,551.4,952.7,551.4z M892.4,607.6c-21.8,0-43.6,0-65.4,0c-1.3-7.1-2.6-14.3-3.9-21.5
	h62.4c0.7,0,1.5-0.1,2.2-0.2C889.2,593.1,890.8,600.3,892.4,607.6z M768.4,702.5c-2-14.3-4-28.5-6.1-42.8c22.5,0,44.9,0,67.4,0
	c2.6,14.3,5.1,28.5,7.6,42.8C814.3,702.5,791.3,702.5,768.4,702.5z M838.1,707.1c2.6,14.3,5.1,28.5,7.6,42.8c-23.5,0-47.1,0-70.7,0
	c-1.9-14.2-3.9-28.4-6-42.8C792,707.1,815.1,707.1,838.1,707.1z M604.7,607.6c-21.8,0-43.6,0-65.4,0c-0.2-7.1-0.3-14.4-0.5-21.5
	h64.7C603.9,593.2,604.3,600.4,604.7,607.6z M162.7,702.5c2.6-14.3,5.1-28.5,7.6-42.8c22.5,0,44.9,0,67.4,0
	c-1.9,14.2-3.9,28.5-6,42.8C208.7,702.5,185.7,702.5,162.7,702.5z M231,707.1c-2,14.3-4,28.5-6.1,42.8c-23.5,0-47.1,0-70.7,0
	c2.6-14.3,5.1-28.5,7.6-42.8C184.9,707.1,207.9,707.1,231,707.1z M112.4,585.9c0.6,0.1,1.4,0.2,2.1,0.2h62.5
	c-1.3,7.1-2.6,14.4-3.8,21.5c-21.8,0-43.6,0-65.4,0C109.3,600.3,110.9,593.1,112.4,585.9z M319.1,586.1c-0.7,7.1-1.4,14.4-2.1,21.5
	c-21.8,0-43.6,0-65.4,0c1-7.1,1.9-14.4,3-21.5H319.1z M248,586.1c-1,7.1-2,14.4-3,21.5c-21.8,0-43.6,0-65.4,0
	c1.3-7.1,2.6-14.4,3.8-21.5H248z M178.5,612.2c22,0,43.9,0,65.8,0c-2,14.3-4,28.5-6.1,42.8c-22.5,0-44.8,0-67.2,0
	C173.5,640.7,176.1,626.4,178.5,612.2z M237.8,707.1c23,0,46.1,0,69.1,0c-1.5,14.3-2.9,28.5-4.4,42.8c-23.5,0-47.1,0-70.7,0
	C233.9,735.7,235.8,721.4,237.8,707.1z M238.3,702.4c1.9-14.3,3.9-28.5,5.9-42.8c22.6,0,45,0,67.5,0c-1.5,14.3-2.9,28.5-4.4,42.8
	C284.3,702.4,261.3,702.4,238.3,702.4z M244.8,654.9c1.9-14.3,3.9-28.5,5.9-42.8c22,0,43.9,0,65.8,0c-1.5,14.3-2.9,28.5-4.4,42.8
	C289.6,654.9,267.3,654.9,244.8,654.9z M318.3,659.6c22.5,0,44.9,0,67.5,0c-0.9,14.3-1.7,28.5-2.7,42.8c-23,0-46,0-69,0
	C315.5,688.1,316.9,673.9,318.3,659.6z M318.7,655c1.4-14.3,2.8-28.5,4.1-42.8c21.9,0,43.7,0,65.7,0c-0.7,14.2-1.7,28.4-2.6,42.8
	C363.5,655,341.1,655,318.7,655z M323.5,607.6c0.7-7.1,1.4-14.4,2.1-21.5h64.7c-0.4,7.1-0.9,14.4-1.3,21.5
	C367.1,607.6,345.3,607.6,323.5,607.6z M465.4,702.4c0.4-14.2,0.6-28.5,0.9-42.8c22.5,0,44.9,0,67.4,0c0.2,14.3,0.5,28.5,0.7,42.8
	C511.4,702.4,488.4,702.4,465.4,702.4z M534.5,707.1c0.2,14.3,0.5,28.5,0.7,42.8c-23.5,0-47.1,0-70.7,0c0.3-14.2,0.6-28.4,0.9-42.8
	C488.4,707.1,511.5,707.1,534.5,707.1z M466.4,655c0.2-14.3,0.5-28.5,0.7-42.8c21.9,0,43.7,0,65.7,0c0.3,14.2,0.5,28.4,0.9,42.8
	C511.2,655,488.8,655,466.4,655z M464.6,754.5c23.6,0,47.2,0,70.8,0c0.2,14.3,0.5,28.5,0.7,42.8c-24.2,0-48.2,0-72.4,0
	C464,783.1,464.4,768.9,464.6,754.5z M532.8,607.6c-21.8,0-43.6,0-65.4,0c0.1-7.1,0.2-14.4,0.4-21.5h64.7
	C532.5,593.2,532.6,600.4,532.8,607.6z M674.5,586.1c0.7,7.1,1.4,14.3,2.1,21.5c-21.8,0-43.6,0-65.5,0c-0.4-7.1-0.9-14.4-1.3-21.5
	H674.5z M745.6,586.1c1,7.1,2,14.3,3,21.5c-21.8,0-43.6,0-65.5,0c-0.7-7.1-1.4-14.4-2.1-21.5H745.6z M816.7,586.1
	c1.3,7.1,2.6,14.3,3.7,21.4c-21.7,0.1-43.5,0.1-65.4,0.1c-1.1-7.1-2-14.4-3-21.5L816.7,586.1L816.7,586.1z M677.1,612.3
	c1.4,14.3,2.8,28.5,4.1,42.8c-22.3,0-44.8,0-67.1,0c-0.9-14.3-1.7-28.5-2.7-42.8C633.3,612.3,655.1,612.3,677.1,612.3z M681.6,659.7
	c1.4,14.3,2.8,28.5,4.1,42.8c-22.9,0-45.9,0-68.8,0c-0.9-14.3-1.7-28.5-2.7-42.8C636.7,659.7,659.2,659.7,681.6,659.7z M683.6,612.3
	c21.9,0,43.7,0,65.7,0c1.9,14.3,3.9,28.5,5.9,42.8c-22.3,0-44.8,0-67.1,0C686.4,640.8,685,626.5,683.6,612.3z M755.6,659.7
	c2.1,14.2,4,28.5,6,42.8c-23,0-46,0-69,0c-1.5-14.3-2.9-28.5-4.4-42.8C710.7,659.7,733.1,659.7,755.6,659.7z M762.2,707.2
	c1.9,14.3,3.9,28.5,5.9,42.8c-23.5,0-47,0-70.5,0c-1.5-14.3-2.9-28.5-4.4-42.8C716.1,707.2,739.2,707.2,762.2,707.2z M761.7,655
	c-2-14.3-4-28.5-6.1-42.8c21.9,0,43.7,0,65.7,0c2.6,14.2,5.1,28.4,7.7,42.8C806.5,655,784.1,655,761.7,655z M500,182.6l104.3,227.9
	H395.7L500,182.6z M106.5,612.3c21.9,0,43.7,0,65.7,0c-2.6,14.2-5.1,28.4-7.7,42.8c-22.5,0-44.8,0-67.2,0
	C100.3,640.8,103.4,626.5,106.5,612.3z M96.2,659.6c22.6,0,45,0,67.5,0c-2.6,14.3-5.2,28.5-7.8,42.8c-23,0-46,0-69,0
	C90,688.1,93.1,673.9,96.2,659.6z M85.9,707.1c23.2,0,46.2,0,69.2,0c-2.6,14.3-5.2,28.5-7.8,42.8c-23.5,0-47.1,0-70.7,0
	C79.7,735.6,82.8,721.3,85.9,707.1z M75.6,754.5c23.6,0,47.2,0,70.9,0c-2.6,14.3-5.2,28.5-7.8,42.8c-24.2,0-48.2,0-72.4,0
	C69.5,783,72.6,768.8,75.6,754.5z M56.2,844.8c3-14.2,6.1-28.4,9.3-42.8c24.2,0,48.3,0,72.6,0c-2.6,14.3-5.2,28.5-7.8,42.8
	C105.5,844.8,80.9,844.8,56.2,844.8z M211.5,844.8c-24.7,0-49.4,0-74.1,0c2.6-14.3,5.1-28.5,7.6-42.8c24.2,0,48.4,0,72.6,0
	C215.6,816.2,213.6,830.5,211.5,844.8z M145.8,797.3c2.7-14.2,5.1-28.4,7.7-42.8c23.6,0,47.2,0,70.8,0c-2,14.3-4,28.5-6.1,42.8
	C194,797.3,169.9,797.3,145.8,797.3z M292.9,844.8c-24.7,0-49.4,0-74.1,0c1.9-14.2,3.8-28.4,5.9-42.8c24.2,0,48.3,0,72.6,0
	C295.8,816.2,294.4,830.5,292.9,844.8z M225.4,797.3c1.9-14.3,3.9-28.5,5.9-42.8c23.6,0,47.2,0,70.9,0c-1.5,14.3-2.9,28.5-4.4,42.8
	C273.6,797.3,249.5,797.3,225.4,797.3z M374.3,844.8c-24.7,0-49.4,0-74.1,0c1.3-14.2,2.8-28.4,4.1-42.8c24.2,0,48.3,0,72.6,0
	C376.1,816.2,375.3,830.5,374.3,844.8z M377.1,797.3c-24.2,0-48.2,0-72.4,0c1.5-14.2,2.9-28.4,4.3-42.8c23.6,0,47.2,0,70.8,0
	C378.9,768.8,378.1,783,377.1,797.3z M309.4,749.8c1.4-14.3,2.8-28.5,4.1-42.8c23.1,0,46.2,0,69.2,0c-0.9,14.3-1.7,28.5-2.7,42.8
	C356.6,749.8,332.9,749.8,309.4,749.8z M455.6,844.8c-24.7,0-49.4,0-74.1,0c0.9-14.2,1.7-28.4,2.4-42.8c24.2,0,48.3,0,72.6,0
	C456.3,816.2,455.9,830.5,455.6,844.8z M456.6,797.3c-24.2,0-48.2,0-72.4,0c1-14.2,1.7-28.4,2.6-42.8c23.6,0,47.2,0,70.8,0
	C457.2,768.8,456.9,783,456.6,797.3z M457.7,749.8c-23.5,0-47.1,0-70.7,0c1-14.2,1.7-28.4,2.6-42.8c23,0,46.1,0,69.1,0
	C458.3,721.3,458,735.6,457.7,749.8z M458.7,702.5c-23,0-46,0-69,0c0.9-14.3,1.7-28.5,2.4-42.8c22.5,0,44.9,0,67.4,0
	C459.4,673.9,459,688.2,458.7,702.5z M459.8,655c-22.5,0-44.8,0-67.2,0c0.9-14.3,1.7-28.5,2.4-42.8c21.9,0,43.7,0,65.7,0
	C460.4,626.4,460.1,640.7,459.8,655z M395.4,607.6c0.4-7.1,0.9-14.4,1.3-21.5h64.7c-0.1,7.1-0.3,14.3-0.4,21.5
	C439,607.6,417.2,607.6,395.4,607.6z M463,844.8c0.2-14.2,0.5-28.4,0.7-42.8c24.2,0,48.3,0,72.6,0c0.2,14.3,0.5,28.5,0.7,42.8
	C512.3,844.8,487.7,844.8,463,844.8z M539.3,612.3c21.9,0,43.7,0,65.7,0c0.9,14.3,1.7,28.5,2.4,42.8c-22.3,0-44.7,0-67.1,0
	C539.9,640.8,539.6,626.5,539.3,612.3z M540.3,659.6c22.5,0,44.9,0,67.4,0c0.9,14.3,1.7,28.5,2.4,42.8c-23,0-46,0-69,0
	C541,688.2,540.6,673.9,540.3,659.6z M541.4,707.1c23,0,46.1,0,69.1,0c0.9,14.3,1.7,28.5,2.4,42.8c-23.5,0-47.1,0-70.7,0
	C541.9,735.7,541.7,721.4,541.4,707.1z M542.3,754.5c23.6,0,47.2,0,70.8,0c0.9,14.3,1.7,28.5,2.4,42.8c-24.2,0-48.2,0-72.4,0
	C543,783.1,542.7,768.9,542.3,754.5z M544.4,844.8c-0.3-14.2-0.6-28.4-1-42.8c24.2,0,48.3,0,72.6,0c0.9,14.3,1.7,28.5,2.4,42.8
	C593.7,844.8,569.1,844.8,544.4,844.8z M617.3,707.1c23,0,46.1,0,69.1,0c1.4,14.3,2.8,28.5,4.1,42.8c-23.5,0-47.1,0-70.7,0
	C619,735.7,618.1,721.4,617.3,707.1z M620.1,754.5c23.6,0,47.2,0,70.8,0c1.4,14.3,2.8,28.5,4.1,42.8c-24.2,0-48.2,0-72.4,0
	C621.9,783.1,621.1,768.9,620.1,754.5z M625.8,844.8c-1-14.2-1.8-28.4-2.7-42.8c24.2,0,48.3,0,72.6,0c1.4,14.3,2.8,28.5,4.1,42.8
	C675.1,844.8,650.5,844.8,625.8,844.8z M697.9,754.5c23.6,0,47.2,0,70.8,0c1.9,14.3,3.9,28.5,5.9,42.8c-24.2,0-48.2,0-72.4,0
	C700.8,783.1,699.4,768.9,697.9,754.5z M707.1,844.8c-1.4-14.2-2.9-28.4-4.4-42.8c24.2,0,48.3,0,72.6,0c1.9,14.3,3.9,28.5,5.9,42.8
	C756.4,844.8,731.8,844.8,707.1,844.8z M775.7,754.6c23.6,0,47.2,0,70.8,0c2.6,14.3,5.1,28.5,7.6,42.8c-24,0-48.1,0-72.3,0
	C779.7,783.1,777.7,768.9,775.7,754.6z M788.5,844.8c-2-14.2-4-28.4-6.1-42.8c24.2,0,48.3,0,72.6,0c2.6,14.3,5.1,28.5,7.6,42.8
	C837.8,844.8,813.2,844.8,788.5,844.8z M943.9,844.9c-24.7,0-49.4,0-74.1,0c-2.6-14.3-5.2-28.5-7.8-42.8c24.2,0,48.3,0,72.6,0
	C937.8,816.3,940.8,830.6,943.9,844.9z M933.5,797.3c-24.2,0-48.2,0-72.4,0c-2.4-14.2-5-28.4-7.7-42.8c23.6,0,47.2,0,70.8,0
	C927.3,768.8,930.4,783,933.5,797.3z M923.2,749.9c-23.4,0-46.9,0-70.5,0c-2.6-14.3-5.2-28.5-7.8-42.8c23,0,46.1,0,69.1,0
	C917,721.4,920.1,735.7,923.2,749.9z M913,702.5c-22.9,0-45.9,0-68.8,0c-2.6-14.3-5.2-28.5-7.8-42.8c22.5,0,44.9,0,67.4,0
	C906.8,674,909.9,688.2,913,702.5z M835.5,655c-2.6-14.3-5.2-28.5-7.8-42.8c21.9,0,43.7,0,65.7,0c3.1,14.3,6.2,28.5,9.3,42.8
	C880.3,655,858,655,835.5,655z"/>
</svg>
