<?xml version="1.0" encoding="utf-8"?>
<!-- Generator: Adobe Illustrator 24.3.0, SVG Export Plug-In . SVG Version: 6.00 Build 0)  -->
<svg version="1.1" id="Capa_1" xmlns="http://www.w3.org/2000/svg" xmlns:xlink="http://www.w3.org/1999/xlink" x="0px" y="0px"
	 viewBox="0 0 1000 1000" style="enable-background:new 0 0 1000 1000;" xml:space="preserve">
<g>
	<path d="M197.3,500.2c0-127,78.6-235.9,189.7-280.8l56.7-113.9c-193.2,27.5-342.3,194-342.3,394.7c0,182.6,123.4,336.9,291.2,383.9
		l10.9-97C283.7,746.7,197.3,633.3,197.3,500.2z"/>
	<path d="M898.6,500.2c0-182.6-123.4-336.8-291.1-383.9l-11.1,96.9c119.8,40.4,206.3,153.7,206.3,286.9
		c0,126.2-77.7,234.7-187.7,280l-58.3,114.6C749.7,867.2,898.6,700.7,898.6,500.2z"/>
	<path d="M728.2,451.9c3.8-7.4,3.4-15.6-0.9-22.7c-4.4-7.1-12.1-9.9-20.4-9.9H524.4l39.3-341.3c1.3-11.6-5.8-23.6-17-26.9
		c-2.3-0.7-4.6-1-6.9-1c-8.9,0-17.2,5-21.4,13.3L271.7,558.9c-3.7,7.4-3.3,17.3,1.1,24.4c4.4,7.1,12.1,12.8,20.4,12.8h180
		l-36.9,328.5c-1.3,11.5,5.9,21.2,17,24.5c2.3,0.7,4.6,0.9,6.9,0.9c8.8,0,17.2-4.9,21.4-13.1L728.2,451.9z"/>
</g>
</svg>
