<?xml version="1.0" encoding="utf-8"?>
<!-- Generator: Adobe Illustrator 24.3.0, SVG Export Plug-In . SVG Version: 6.00 Build 0)  -->
<svg version="1.1" id="Layer_1" xmlns="http://www.w3.org/2000/svg" xmlns:xlink="http://www.w3.org/1999/xlink" x="0px" y="0px"
	 viewBox="0 0 1000 1000" style="enable-background:new 0 0 1000 1000;" xml:space="preserve">
<style type="text/css">
	.st0{fill-rule:evenodd;clip-rule:evenodd;}
</style>
<g>
	<path class="st0" d="M371.6,351.3H249.7c-20.6,34.6-34.2,73.8-39,115.6h160.9v86.2l211.6-144l-211.6-144V351.3z M574.6,119.9
		c51.5,10,99.4,30.3,141.4,58.6l45.8-45.8c11.8-11.8,30.9-11.8,42.7,0l62.9,62.8c11.7,11.8,11.7,30.9,0,42.7L821.5,284
		c28.3,42,48.6,89.9,58.7,141.4h64.8c16.6,0,30.1,13.5,30.1,30.2v88.9c0,16.6-13.5,30.1-30.1,30.1h-64.8
		C870,626.1,849.8,674,821.6,716l45.8,45.8c11.7,11.8,11.7,30.9,0,42.7l-62.9,62.9c-11.8,11.7-30.9,11.7-42.7,0L716,821.5
		c-42,28.3-89.9,48.6-141.4,58.7v64.8c0,16.6-13.5,30.1-30.1,30.1h-88.9c-16.6,0-30.2-13.5-30.2-30.1v-64.8
		c-51.5-10.1-99.3-30.4-141.4-58.6l-45.8,45.8c-11.8,11.7-30.9,11.7-42.7,0l-62.8-62.9c-11.8-11.8-11.8-30.9,0-42.7l45.8-45.8
		c-28.3-42-48.6-89.9-58.6-141.4H55.2c-16.6,0-30.2-13.5-30.2-30.1v-88.9c0-16.6,13.5-30.2,30.2-30.2h64.7
		c10.1-51.5,30.4-99.3,58.7-141.4l-45.8-45.8c-11.8-11.8-11.8-30.9,0-42.7l62.8-62.8c11.8-11.8,30.9-11.8,42.7,0l45.8,45.8
		c42-28.3,89.9-48.6,141.4-58.6V55.2c0-16.6,13.5-30.2,30.2-30.2h88.9c16.6,0,30.1,13.5,30.1,30.2V119.9z M500,191.7
		c170.3,0,308.3,138.1,308.3,308.3S670.3,808.3,500,808.3S191.7,670.3,191.7,500S329.7,191.7,500,191.7z M632.4,537.2h156.5
		c-5.3,42-19.7,81.2-40.9,115.6H632.4v86.1l-211.6-144l211.6-143.9V537.2z"/>
</g>
</svg>
