<?xml version="1.0" encoding="utf-8"?>
<!-- Generator: Adobe Illustrator 24.3.0, SVG Export Plug-In . SVG Version: 6.00 Build 0)  -->
<svg version="1.1" id="Calque_1" xmlns="http://www.w3.org/2000/svg" xmlns:xlink="http://www.w3.org/1999/xlink" x="0px" y="0px"
	 viewBox="0 0 1000 1000" style="enable-background:new 0 0 1000 1000;" xml:space="preserve">
<path d="M815.8,903.1L775.5,972c-7.5,12.8-26.1,12.8-33.6,0l-40.3-68.8c-1.8-3-2.7-6.4-2.7-9.9V37.9c0-10.7,8.7-19.5,19.5-19.5H799
	c10.7,0,19.5,8.7,19.5,19.5v855.4C818.5,896.8,817.6,900.2,815.8,903.1z"/>
<path d="M557.1,903.1L516.8,972c-7.5,12.8-26,12.8-33.6,0l-40.3-68.8c-1.8-3-2.7-6.4-2.7-9.9V37.9c0-10.7,8.7-19.5,19.5-19.5h80.7
	c10.7,0,19.5,8.7,19.5,19.5v855.4C559.8,896.8,558.8,900.2,557.1,903.1z"/>
<path d="M298.4,903.1L258.1,972c-7.5,12.8-26.1,12.8-33.6,0l-40.3-68.8c-1.8-3-2.7-6.4-2.7-9.9V37.9c0-10.7,8.7-19.5,19.5-19.5h80.7
	c10.7,0,19.5,8.7,19.5,19.5v855.4C301.1,896.8,300.2,900.2,298.4,903.1z"/>
</svg>
