<?xml version="1.0" encoding="utf-8"?>
<!-- Generator: Adobe Illustrator 24.3.0, SVG Export Plug-In . SVG Version: 6.00 Build 0)  -->
<svg version="1.1" id="Layer_1" xmlns="http://www.w3.org/2000/svg" xmlns:xlink="http://www.w3.org/1999/xlink" x="0px" y="0px"
	 viewBox="0 0 1000 1000" style="enable-background:new 0 0 1000 1000;" xml:space="preserve">
<g>
	<path d="M780.2,585.4c-107.4,0-194.8,87.4-194.8,194.8S672.7,975,780.2,975S975,887.6,975,780.2S887.6,585.4,780.2,585.4z
		 M780.2,863.7c-46,0-83.5-37.5-83.5-83.5s37.5-83.5,83.5-83.5s83.5,37.5,83.5,83.5S826.2,863.7,780.2,863.7z M780.2,752.3
		c-15.3,0-27.8,12.5-27.8,27.8c0,15.3,12.5,27.8,27.8,27.8s27.8-12.5,27.8-27.8C808,764.8,795.5,752.3,780.2,752.3z"/>
	<path d="M780.2,25c-107.4,0-194.8,87.4-194.8,194.8v403.1c46-56.8,116.2-93.2,194.8-93.2S929,566.1,975,622.9V219.8
		C975,112.4,887.6,25,780.2,25L780.2,25z"/>
	<path d="M136.3,136.3v616h-27.8c-31.3,0-60.2,10.4-83.5,27.9V247.7C25,186.3,74.9,136.3,136.3,136.3z"/>
	<path d="M622.9,975H108.5C62.4,975,25,937.6,25,891.5c0-46.1,37.4-83.5,83.5-83.5H192V247.7h337.7v532.5
		C529.7,856.5,564.2,927.5,622.9,975z"/>
</g>
</svg>
