<?xml version="1.0" encoding="utf-8"?>
<!-- Generator: Adobe Illustrator 24.3.0, SVG Export Plug-In . SVG Version: 6.00 Build 0)  -->
<svg version="1.1" id="Calque_1" xmlns="http://www.w3.org/2000/svg" xmlns:xlink="http://www.w3.org/1999/xlink" x="0px" y="0px"
	 viewBox="0 0 1000 1000" style="enable-background:new 0 0 1000 1000;" xml:space="preserve">
<g>
	<path d="M970.7,941.4h-64.5c-16.2,0-29.3-13.1-29.3-29.3V87.9C877,39.4,837.5,0,789.1,0H642.6c-48.5,0-87.9,39.4-87.9,87.9v55.2
		C477,156.4,417,221.3,409.1,300.8h350c-7.1-79.9-67.8-144.5-145.8-157.7V87.9c0-16.2,13.1-29.3,29.3-29.3h146.5
		c16.2,0,29.3,13.1,29.3,29.3v824.2c0,48.5,39.4,87.9,87.9,87.9h64.5c16.2,0,29.3-13.1,29.3-29.3S986.9,941.4,970.7,941.4z"/>
	<path d="M568.8,557.8l-244.6-71.9v-46.4c0-48.5-39.4-87.9-87.9-87.9h-207C13.1,351.6,0,364.7,0,380.9c0,16.2,13.1,29.3,29.3,29.3
		h207c16.2,0,29.3,13.1,29.3,29.3v46.4L21,557.8c-12.5,3.7-21,15.1-21,28.1v33.2v0v0h589.8v-33.2
		C589.8,572.9,581.3,561.5,568.8,557.8z"/>
	<path d="M0,970.7c0,16.2,13.1,29.3,29.3,29.3h531.2c16.2,0,29.3-13.1,29.3-29.3v-293H0V970.7z"/>
	<path d="M408.2,449.5l177.1,52.1c37.2,10.9,63.1,45.6,63.1,84.3v384.8c0,10.3-1.8,20.1-5,29.3h28.5c48.5,0,87.9-39.4,87.9-87.9
		V359.4H408.2V449.5z"/>
</g>
</svg>
