<?xml version="1.0" encoding="utf-8"?>
<!-- Generator: Adobe Illustrator 24.3.0, SVG Export Plug-In . SVG Version: 6.00 Build 0)  -->
<svg version="1.1" id="Calque_1" xmlns="http://www.w3.org/2000/svg" xmlns:xlink="http://www.w3.org/1999/xlink" x="0px" y="0px"
	 viewBox="0 0 1000 1000" style="enable-background:new 0 0 1000 1000;" xml:space="preserve">
<g>
	<path d="M832.9,830.4c-26-0.2-61.7-4.8-90.2-10.1c13.5-0.5,28.7-1.8,45-4.5h102.4v-22h-98.2c10.8-4.9,21.1-11.2,31-18.7
		c-16.3,6.8-43.3,13.5-68.7,18.7h-7.4c16.4-8.9,31-22,36.4-40.9c-10.7,10.6-34.4,23.3-56.3,32.9c8.9-11.4,12.6-26.8,0-46.7
		c-0.7,11.5-11.4,27.1-23.1,39.6c-1.8-12-11.9-26.7-40.6-43c9.3,10.7,13,27,13,40.5c-12-10.8-34.2-22.7-75-32.9
		c18.1,8.3,35.8,22.8,47.6,35.4c-20.4-8-51.4-15.3-98.3-17.9c23.7,4.6,52.8,15,74.6,24.7c-25.7-4-60.7-5.4-106.1,0
		c26.2,0.2,62.2,4.9,90.8,10.2c-27.2,0.8-61.1,5.2-98.3,18c24.2-4.1,61.4-5.8,92.2-5.8c-24.4,5.3-51.7,15-74.8,33
		c18.8-7.9,51.7-15.6,80.1-20.8c-18,8.9-34.5,22.5-40.3,43c10.6-10.6,34.3-23.3,56.1-32.9c-8.9,11.4-12.6,26.9,0,46.9
		c0.7-11.4,11.4-27.1,23.1-39.6c1.8,12,12,26.7,40.6,42.9c-9.3-10.7-13-27-13-40.5c12,10.8,34.2,22.8,75.2,33
		c-18.1-8.3-35.9-22.9-47.7-35.5c20.4,8,51.6,15.3,98.3,17.9c-23.7-4.6-52.8-15-74.6-24.7C752.4,834.4,787.4,835.9,832.9,830.4z"/>
	<path d="M641.6,398.4L525,143.2h3.8v-33.1h-58v33.1h3.8L357.8,398.4C165,421.9,25,492,25,574.9l0,0v253.6l84.2,61.3v-74.1h102.4
		c16.3,2.8,31.5,4.1,45,4.5c-28.5,5.2-64.2,9.9-90.2,10.1c45.3,5.4,80.3,4,106.1,0c-21.7,9.6-50.9,20.1-74.6,24.7
		c46.7-2.6,77.7-9.9,98.3-17.9c-11.9,12.4-29.6,27.1-47.7,35.5c41-10.2,63.2-22.2,75.2-33c0,13.5-3.9,29.8-13,40.5
		c28.7-16.2,38.9-30.9,40.6-42.9c11.9,12.4,22.4,28.3,23.1,39.6c12.6-20.1,8.9-35.6,0-46.9c21.8,9.6,45.6,22.3,56.1,32.9
		c-5.8-20.4-22.3-34.1-40.3-43c28.5,5.2,61.4,12.9,80.1,20.8c-23.1-18-50.4-27.7-74.8-33c30.8,0,68,1.8,92.2,5.8
		c-37.2-12.7-71.1-17.1-98.3-18c28.5-5.2,64.6-10,90.8-10.2c-45.3-5.4-80.3-4-106.1,0c21.7-9.6,50.9-20.1,74.6-24.7
		c-46.9,2.6-77.9,9.9-98.3,17.9c11.9-12.4,29.5-27,47.6-35.4c-40.9,10.2-63.1,22.1-75,32.9c0-13.5,3.9-29.8,13-40.5
		c-28.8,16.3-38.9,31-40.6,43c-11.9-12.4-22.4-28.2-23.1-39.6c-12.6,20.1-8.9,35.5,0,46.7c-21.8-9.6-45.6-22.3-56.3-32.9
		c5.3,18.9,20,31.9,36.4,40.9H245c-25.4-5.1-52.4-11.9-68.7-18.7c9.9,7.5,20.3,13.6,31,18.7h-98.2V610.6v-24.8h187.6
		c-7,8.7-13.4,20.1-17.5,33.8c-6.9,23.6-8.6,61,13.6,109.1H313c-23.7-46.7-22.7-82.3-16.3-103.9c6.6-22.2,19.6-34.9,26.9-39h30.7
		h37.1c-7,8.7-13.4,20.1-17.5,33.8c-6.9,23.6-8.6,61,13.6,109.1h20.2c-23.7-46.7-22.7-82.3-16.3-103.9c4.9-16.7,13.5-28,20.6-34.3
		c2.3-2.1,4.5-3.6,6.3-4.7h30.7h7.3H486c-2.6,3.3-5.2,6.9-7.5,10.9c-4,6.7-7.4,14.3-9.9,22.9c-6.9,23.6-8.6,61,13.6,109.1h20.2
		c-23.7-46.7-22.7-82.3-16.3-103.9c4.9-16.7,13.5-28,20.6-34.3c2.3-2.1,4.5-3.6,6.3-4.7h30.7h7.3h29.8c-3.5,4.3-6.8,9.4-9.9,15
		c-2.9,5.6-5.6,12-7.6,18.8c-6.9,23.6-8.6,61,13.6,109.1h20.2c-23.7-46.7-22.7-82.3-16.3-103.9c6.6-22.2,19.6-34.9,26.9-39h37.9
		h29.8c-7,8.7-13.4,20.1-17.5,33.8c-6.9,23.6-8.6,61,13.6,109.1h20.2c-23.7-46.7-22.7-82.3-16.3-103.9c6.6-22.2,19.6-34.9,26.9-39
		h188.5v304.1l84.2-61.3V574.9C974.4,492,834.4,421.9,641.6,398.4z M499.8,145.6l114.3,249.9c-36.6-3.5-74.9-5.4-114.4-5.4
		c-39.3,0-77.6,1.9-114.2,5.4L499.8,145.6z"/>
</g>
</svg>
