<?xml version="1.0" encoding="utf-8"?>
<!-- Generator: Adobe Illustrator 24.3.0, SVG Export Plug-In . SVG Version: 6.00 Build 0)  -->
<svg version="1.1" id="Calque_1" xmlns="http://www.w3.org/2000/svg" xmlns:xlink="http://www.w3.org/1999/xlink" x="0px" y="0px"
	 viewBox="0 0 1000 1000" style="enable-background:new 0 0 1000 1000;" xml:space="preserve">
<path d="M925.4,548.3c-11.6,0-21,9.4-21,21v32.8h-7.8V428.7h-24.1v-2.5c0-5.6-4.6-10.2-10.2-10.2H620.2l-98.8-216.2h3.2v-28.2h-49.4
	v28.2h3.2l-98.8,216.2H137.7c-5.6,0-10.2,4.6-10.2,10.2v2.5h-24.1v173.2h-7.8v-32.4c0-11.6-9.4-21-21-21c-11.6,0-21,9.4-21,21v76.2
	c0,11.6,9.4,21,21,21c11.6,0,21-9.4,21-21v-33h23v-51.6h8.9v9.6c0,2.7,1.1,5.2,2.8,7C111.9,661.3,93.5,744.8,75,828.4
	c283.3,0,566.7,0,850,0c-18.4-83.5-36.9-167.2-55.3-250.7c1.7-1.8,2.8-4.3,2.8-7v-9.4h8.9v51.6h23v32.8c0,11.6,9.4,21,21,21
	s21-9.4,21-21v-76.2C946.4,557.7,937,548.3,925.4,548.3z M868.8,601.1c-20.5,0-41,0-61.5,0c-1.2-6.7-2.4-13.4-3.7-20.2h58.6
	c0.7,0,1.4-0.1,2.1-0.2C865.8,587.5,867.3,594.3,868.8,601.1z M752.2,690.3c-1.9-13.4-3.8-26.8-5.7-40.2c21.1,0,42.2,0,63.3,0
	c2.4,13.4,4.8,26.8,7.1,40.2C795.4,690.3,773.8,690.3,752.2,690.3z M817.7,694.6c2.4,13.4,4.8,26.8,7.1,40.2c-22.1,0-44.3,0-66.4,0
	c-1.8-13.3-3.7-26.7-5.6-40.2C774.4,694.6,796.1,694.6,817.7,694.6z M598.4,601.1c-20.5,0-41,0-61.5,0c-0.2-6.7-0.3-13.5-0.5-20.2
	h60.8C597.6,587.6,598,594.4,598.4,601.1z M183,690.3c2.4-13.4,4.8-26.8,7.1-40.2c21.1,0,42.2,0,63.3,0c-1.8,13.3-3.7,26.8-5.6,40.2
	C226.2,690.3,204.6,690.3,183,690.3z M247.2,694.6c-1.9,13.4-3.8,26.8-5.7,40.2c-22.1,0-44.3,0-66.4,0c2.4-13.4,4.8-26.8,7.1-40.2
	C203.9,694.6,225.5,694.6,247.2,694.6z M135.7,580.7c0.6,0.1,1.3,0.2,2,0.2h58.7c-1.2,6.7-2.4,13.5-3.6,20.2c-20.5,0-41,0-61.5,0
	C132.8,594.3,134.3,587.5,135.7,580.7z M330,580.9c-0.7,6.7-1.3,13.5-2,20.2c-20.5,0-41,0-61.5,0c0.9-6.7,1.8-13.5,2.8-20.2H330z
	 M263.2,580.9c-0.9,6.7-1.9,13.5-2.8,20.2c-20.5,0-41,0-61.5,0c1.2-6.7,2.4-13.5,3.6-20.2H263.2z M197.9,605.4c20.7,0,41.3,0,61.8,0
	c-1.9,13.4-3.8,26.8-5.7,40.2c-21.1,0-42.1,0-63.2,0C193.2,632.2,195.6,618.8,197.9,605.4z M253.6,694.6c21.6,0,43.3,0,64.9,0
	c-1.4,13.4-2.7,26.8-4.1,40.2c-22.1,0-44.3,0-66.4,0C249.9,721.5,251.7,708.1,253.6,694.6z M254.1,690.2c1.8-13.4,3.7-26.8,5.5-40.2
	c21.2,0,42.3,0,63.4,0c-1.4,13.4-2.7,26.8-4.1,40.2C297.3,690.2,275.7,690.2,254.1,690.2z M260.2,645.6c1.8-13.4,3.7-26.8,5.5-40.2
	c20.7,0,41.3,0,61.8,0c-1.4,13.4-2.7,26.8-4.1,40.2C302.3,645.6,281.3,645.6,260.2,645.6z M329.2,650c21.1,0,42.2,0,63.4,0
	c-0.8,13.4-1.6,26.8-2.5,40.2c-21.6,0-43.2,0-64.8,0C326.6,676.8,327.9,663.4,329.2,650z M329.6,645.7c1.3-13.4,2.6-26.8,3.9-40.2
	c20.6,0,41.1,0,61.7,0c-0.7,13.3-1.6,26.7-2.4,40.2C371.7,645.7,350.7,645.7,329.6,645.7z M334.1,601.1c0.7-6.7,1.3-13.5,2-20.2
	h60.8c-0.4,6.7-0.8,13.5-1.2,20.2C375.1,601.1,354.6,601.1,334.1,601.1z M467.5,690.2c0.4-13.3,0.6-26.8,0.8-40.2
	c21.1,0,42.2,0,63.3,0c0.2,13.4,0.5,26.8,0.7,40.2C510.7,690.2,489.1,690.2,467.5,690.2z M532.4,694.6c0.2,13.4,0.5,26.8,0.7,40.2
	c-22.1,0-44.3,0-66.4,0c0.3-13.3,0.6-26.7,0.8-40.2C489.1,694.6,510.8,694.6,532.4,694.6z M468.4,645.7c0.2-13.4,0.5-26.8,0.7-40.2
	c20.6,0,41.1,0,61.7,0c0.3,13.3,0.5,26.7,0.8,40.2C510.5,645.7,489.5,645.7,468.4,645.7z M466.7,739.2c22.2,0,44.4,0,66.5,0
	c0.2,13.4,0.5,26.8,0.7,40.2c-22.7,0-45.3,0-68,0C466.2,766.1,466.5,752.7,466.7,739.2z M530.8,601.1c-20.5,0-41,0-61.5,0
	c0.1-6.7,0.2-13.5,0.4-20.2h60.8C530.5,587.6,530.6,594.4,530.8,601.1z M664,580.9c0.7,6.7,1.3,13.4,2,20.2c-20.5,0-41,0-61.6,0
	c-0.4-6.7-0.8-13.5-1.2-20.2H664z M730.8,580.9c0.9,6.7,1.9,13.4,2.8,20.2c-20.5,0-41,0-61.6,0c-0.7-6.7-1.3-13.5-2-20.2H730.8z
	 M797.6,580.9c1.2,6.7,2.4,13.4,3.5,20.1c-20.4,0.1-40.9,0.1-61.5,0.1c-1-6.7-1.9-13.5-2.8-20.2H797.6z M666.4,605.5
	c1.3,13.4,2.6,26.8,3.9,40.2c-21,0-42.1,0-63.1,0c-0.8-13.4-1.6-26.8-2.5-40.2C625.3,605.5,645.8,605.5,666.4,605.5z M670.7,650.1
	c1.3,13.4,2.6,26.8,3.9,40.2c-21.5,0-43.1,0-64.7,0c-0.8-13.4-1.6-26.8-2.5-40.2C628.5,650.1,649.6,650.1,670.7,650.1z M672.5,605.5
	c20.6,0,41.1,0,61.7,0c1.8,13.4,3.7,26.8,5.5,40.2c-21,0-42.1,0-63.1,0C675.2,632.3,673.9,618.9,672.5,605.5z M740.2,650.1
	c2,13.3,3.8,26.8,5.6,40.2c-21.6,0-43.2,0-64.8,0c-1.4-13.4-2.7-26.8-4.1-40.2C698,650.1,719.1,650.1,740.2,650.1z M746.4,694.7
	c1.8,13.4,3.7,26.8,5.5,40.2c-22.1,0-44.2,0-66.3,0c-1.4-13.4-2.7-26.8-4.1-40.2C703.1,694.7,724.8,694.7,746.4,694.7z M745.9,645.7
	c-1.9-13.4-3.8-26.8-5.7-40.2c20.6,0,41.1,0,61.7,0c2.4,13.3,4.8,26.7,7.2,40.2C788,645.7,767,645.7,745.9,645.7z M500,201.7
	l98,214.2H402L500,201.7z M130.2,605.5c20.6,0,41.1,0,61.7,0c-2.4,13.3-4.8,26.7-7.2,40.2c-21.1,0-42.1,0-63.2,0
	C124.4,632.3,127.3,618.9,130.2,605.5z M120.5,650c21.2,0,42.3,0,63.4,0c-2.4,13.4-4.9,26.8-7.3,40.2c-21.6,0-43.2,0-64.8,0
	C114.7,676.8,117.6,663.4,120.5,650z M110.8,694.6c21.8,0,43.4,0,65,0c-2.4,13.4-4.9,26.8-7.3,40.2c-22.1,0-44.3,0-66.4,0
	C105,721.4,107.9,708,110.8,694.6z M101.2,739.2c22.2,0,44.4,0,66.6,0c-2.4,13.4-4.9,26.8-7.3,40.2c-22.7,0-45.3,0-68,0
	C95.4,766,98.3,752.6,101.2,739.2z M82.9,824c2.8-13.3,5.7-26.7,8.7-40.2c22.7,0,45.4,0,68.2,0c-2.4,13.4-4.9,26.8-7.3,40.2
	C129.3,824,106.1,824,82.9,824z M228.9,824c-23.2,0-46.4,0-69.6,0c2.4-13.4,4.8-26.8,7.1-40.2c22.7,0,45.5,0,68.2,0
	C232.7,797.2,230.8,810.6,228.9,824z M167.1,779.4c2.5-13.3,4.8-26.7,7.2-40.2c22.2,0,44.4,0,66.5,0c-1.9,13.4-3.8,26.8-5.7,40.2
	C212.4,779.4,189.8,779.4,167.1,779.4z M305.4,824c-23.2,0-46.4,0-69.6,0c1.8-13.3,3.6-26.7,5.5-40.2c22.7,0,45.4,0,68.2,0
	C308.1,797.2,306.8,810.6,305.4,824z M241.9,779.4c1.8-13.4,3.7-26.8,5.5-40.2c22.2,0,44.4,0,66.6,0c-1.4,13.4-2.7,26.8-4.1,40.2
	C287.2,779.4,264.6,779.4,241.9,779.4z M381.9,824c-23.2,0-46.4,0-69.6,0c1.2-13.3,2.6-26.7,3.9-40.2c22.7,0,45.4,0,68.2,0
	C383.6,797.2,382.8,810.6,381.9,824z M384.5,779.4c-22.7,0-45.3,0-68,0c1.4-13.3,2.7-26.7,4-40.2c22.2,0,44.4,0,66.5,0
	C386.2,752.6,385.4,766,384.5,779.4z M320.9,734.8c1.3-13.4,2.6-26.8,3.9-40.2c21.7,0,43.4,0,65,0c-0.8,13.4-1.6,26.8-2.5,40.2
	C365.2,734.8,343,734.8,320.9,734.8z M458.3,824c-23.2,0-46.4,0-69.6,0c0.8-13.3,1.6-26.7,2.3-40.2c22.7,0,45.4,0,68.2,0
	C458.9,797.2,458.6,810.6,458.3,824z M459.2,779.4c-22.7,0-45.3,0-68,0c0.9-13.3,1.6-26.7,2.4-40.2c22.2,0,44.4,0,66.5,0
	C459.8,752.6,459.5,766,459.2,779.4z M460.2,734.8c-22.1,0-44.3,0-66.4,0c0.9-13.3,1.6-26.7,2.4-40.2c21.6,0,43.3,0,64.9,0
	C460.8,708,460.5,721.4,460.2,734.8z M461.2,690.3c-21.6,0-43.2,0-64.8,0c0.8-13.4,1.6-26.8,2.3-40.2c21.1,0,42.2,0,63.3,0
	C461.8,663.4,461.5,676.9,461.2,690.3z M462.2,645.7c-21.1,0-42.1,0-63.2,0c0.8-13.4,1.6-26.8,2.3-40.2c20.6,0,41.1,0,61.7,0
	C462.8,618.8,462.5,632.2,462.2,645.7z M401.7,601.1c0.4-6.7,0.8-13.5,1.2-20.2h60.8c-0.1,6.7-0.3,13.4-0.4,20.2
	C442.7,601.1,422.2,601.1,401.7,601.1z M465.2,824c0.2-13.3,0.5-26.7,0.7-40.2c22.7,0,45.4,0,68.2,0c0.2,13.4,0.5,26.8,0.7,40.2
	C511.6,824,488.4,824,465.2,824z M536.9,605.5c20.6,0,41.1,0,61.7,0c0.8,13.4,1.6,26.8,2.3,40.2c-21,0-42,0-63.1,0
	C537.5,632.3,537.2,618.9,536.9,605.5z M537.9,650c21.1,0,42.2,0,63.3,0c0.8,13.4,1.6,26.8,2.3,40.2c-21.6,0-43.2,0-64.8,0
	C538.5,676.9,538.2,663.4,537.9,650z M538.9,694.6c21.6,0,43.3,0,64.9,0c0.8,13.4,1.6,26.8,2.3,40.2c-22.1,0-44.3,0-66.4,0
	C539.4,721.5,539.2,708.1,538.9,694.6z M539.8,739.2c22.2,0,44.4,0,66.5,0c0.8,13.4,1.6,26.8,2.3,40.2c-22.7,0-45.3,0-68,0
	C540.4,766.1,540.1,752.7,539.8,739.2z M541.7,824c-0.3-13.3-0.6-26.7-0.9-40.2c22.7,0,45.4,0,68.2,0c0.8,13.4,1.6,26.8,2.3,40.2
	C588.1,824,564.9,824,541.7,824z M610.2,694.6c21.6,0,43.3,0,64.9,0c1.3,13.4,2.6,26.8,3.9,40.2c-22.1,0-44.3,0-66.4,0
	C611.8,721.5,611,708.1,610.2,694.6z M612.9,739.2c22.2,0,44.4,0,66.5,0c1.3,13.4,2.6,26.8,3.9,40.2c-22.7,0-45.3,0-68,0
	C614.6,766.1,613.8,752.7,612.9,739.2z M618.2,824c-0.9-13.3-1.7-26.7-2.5-40.2c22.7,0,45.4,0,68.2,0c1.3,13.4,2.6,26.8,3.9,40.2
	C664.6,824,641.4,824,618.2,824z M686,739.2c22.2,0,44.4,0,66.5,0c1.8,13.4,3.7,26.8,5.5,40.2c-22.7,0-45.3,0-68,0
	C688.7,766.1,687.4,752.7,686,739.2z M694.6,824c-1.3-13.3-2.7-26.7-4.1-40.2c22.7,0,45.4,0,68.2,0c1.8,13.4,3.7,26.8,5.5,40.2
	C741,824,717.8,824,694.6,824z M759.1,739.3c22.2,0,44.4,0,66.5,0c2.4,13.4,4.8,26.8,7.1,40.2c-22.6,0-45.2,0-67.9,0
	C762.9,766.1,761,752.7,759.1,739.3z M771.1,824c-1.9-13.3-3.8-26.7-5.7-40.2c22.7,0,45.4,0,68.2,0c2.4,13.4,4.8,26.8,7.1,40.2
	C817.5,824,794.3,824,771.1,824z M917.2,824.1c-23.2,0-46.4,0-69.6,0c-2.4-13.4-4.9-26.8-7.3-40.2c22.7,0,45.4,0,68.2,0
	C911.4,797.3,914.3,810.7,917.2,824.1z M907.4,779.4c-22.7,0-45.3,0-68,0c-2.3-13.3-4.7-26.7-7.2-40.2c22.2,0,44.4,0,66.5,0
	C901.6,752.6,904.5,766,907.4,779.4z M897.7,734.9c-22,0-44.1,0-66.3,0c-2.4-13.4-4.9-26.8-7.3-40.2c21.6,0,43.3,0,64.9,0
	C891.9,708.1,894.8,721.5,897.7,734.9z M888.1,690.3c-21.5,0-43.1,0-64.7,0c-2.4-13.4-4.9-26.8-7.3-40.2c21.1,0,42.2,0,63.3,0
	C882.3,663.5,885.2,676.9,888.1,690.3z M815.3,645.7c-2.4-13.4-4.9-26.8-7.3-40.2c20.6,0,41.1,0,61.7,0c2.9,13.4,5.8,26.8,8.7,40.2
	C857.4,645.7,836.4,645.7,815.3,645.7z"/>
</svg>
