<?xml version="1.0" encoding="utf-8"?>
<!-- Generator: Adobe Illustrator 24.3.0, SVG Export Plug-In . SVG Version: 6.00 Build 0)  -->
<svg version="1.1" id="Calque_1" xmlns="http://www.w3.org/2000/svg" xmlns:xlink="http://www.w3.org/1999/xlink" x="0px" y="0px"
	 viewBox="0 0 1000 1000" style="enable-background:new 0 0 1000 1000;" xml:space="preserve">
<g>
	<path d="M783.7,781.3c-22.1-0.2-52.5-4.1-76.8-8.6c11.5-0.4,24.4-1.5,38.3-3.8h87.2v-18.7h-83.6c9.2-4.2,18-9.5,26.4-15.9
		c-13.9,5.8-36.9,11.5-58.5,15.9h-6.3c14-7.6,26.4-18.7,31-34.8c-9.1,9-29.3,19.8-47.9,28c7.6-9.7,10.7-22.8,0-39.8
		c-0.6,9.8-9.7,23.1-19.7,33.7c-1.5-10.2-10.1-22.7-34.6-36.6c7.9,9.1,11.1,23,11.1,34.5c-10.2-9.2-29.1-19.3-63.9-28
		c15.4,7.1,30.5,19.4,40.5,30.1c-17.4-6.8-43.8-13-83.7-15.2c20.2,3.9,45,12.8,63.5,21c-21.9-3.4-51.7-4.6-90.3,0
		c22.3,0.2,53,4.2,77.3,8.7c-23.2,0.7-52,4.4-83.7,15.3c20.6-3.5,52.3-4.9,78.5-4.9c-20.8,4.5-44,12.8-63.7,28.1
		c16-6.7,44-13.3,68.2-17.7c-15.3,7.6-29.4,19.2-34.3,36.6c9-9,29.2-19.8,47.8-28c-7.6,9.7-10.7,22.9,0,39.9
		c0.6-9.7,9.7-23.1,19.7-33.7c1.5,10.2,10.2,22.7,34.6,36.5c-7.9-9.1-11.1-23-11.1-34.5c10.2,9.2,29.1,19.4,64,28.1
		c-15.4-7.1-30.6-19.5-40.6-30.2c17.4,6.8,43.9,13,83.7,15.2c-20.2-3.9-45-12.8-63.5-21C715.2,784.7,745,786,783.7,781.3z"/>
	<path d="M620.8,413.5l-99.3-217.3h3.2V168h-49.4v28.2h3.2l-99.3,217.3C215,433.5,95.8,493.2,95.8,563.8h0v215.9l71.7,52.2v-63.1
		h87.2c13.9,2.4,26.8,3.5,38.3,3.8c-24.3,4.4-54.7,8.4-76.8,8.6c38.6,4.6,68.4,3.4,90.3,0c-18.5,8.2-43.3,17.1-63.5,21
		c39.8-2.2,66.2-8.4,83.7-15.2c-10.1,10.6-25.2,23.1-40.6,30.2c34.9-8.7,53.8-18.9,64-28.1c0,11.5-3.3,25.4-11.1,34.5
		c24.4-13.8,33.1-26.3,34.6-36.5c10.1,10.6,19.1,24.1,19.7,33.7c10.7-17.1,7.6-30.3,0-39.9c18.6,8.2,38.8,19,47.8,28
		c-4.9-17.4-19-29-34.3-36.6c24.3,4.4,52.3,11,68.2,17.7c-19.7-15.3-42.9-23.6-63.7-28.1c26.2,0,57.9,1.5,78.5,4.9
		c-31.7-10.8-60.5-14.6-83.7-15.3c24.3-4.4,55-8.5,77.3-8.7c-38.6-4.6-68.4-3.4-90.3,0c18.5-8.2,43.3-17.1,63.5-21
		c-39.9,2.2-66.3,8.4-83.7,15.2c10.1-10.6,25.1-23,40.5-30.1c-34.8,8.7-53.7,18.8-63.9,28c0-11.5,3.3-25.4,11.1-34.5
		c-24.5,13.9-33.1,26.4-34.6,36.6c-10.1-10.6-19.1-24-19.7-33.7c-10.7,17.1-7.6,30.2,0,39.8c-18.6-8.2-38.8-19-47.9-28
		c4.5,16.1,17,27.2,31,34.8h-6.3c-21.6-4.3-44.6-10.1-58.5-15.9c8.4,6.4,17.3,11.6,26.4,15.9h-83.6V594.2v-21.1h159.7
		c-6,7.4-11.4,17.1-14.9,28.8c-5.9,20.1-7.3,51.9,11.6,92.9h17.2c-20.2-39.8-19.3-70.1-13.9-88.5c5.6-18.9,16.7-29.7,22.9-33.2h26.1
		h31.6c-6,7.4-11.4,17.1-14.9,28.8c-5.9,20.1-7.3,51.9,11.6,92.9h17.2c-20.2-39.8-19.3-70.1-13.9-88.5c4.2-14.2,11.5-23.8,17.5-29.2
		c2-1.8,3.8-3.1,5.4-4h26.1h6.2h25.4c-2.2,2.8-4.4,5.9-6.4,9.3c-3.4,5.7-6.3,12.2-8.4,19.5c-5.9,20.1-7.3,51.9,11.6,92.9h17.2
		c-20.2-39.8-19.3-70.1-13.9-88.5c4.2-14.2,11.5-23.8,17.5-29.2c2-1.8,3.8-3.1,5.4-4h26.1h6.2h25.4c-3,3.7-5.8,8-8.4,12.8
		c-2.5,4.8-4.8,10.2-6.5,16c-5.9,20.1-7.3,51.9,11.6,92.9h17.2c-20.2-39.8-19.3-70.1-13.9-88.5c5.6-18.9,16.7-29.7,22.9-33.2h32.3
		h25.4c-6,7.4-11.4,17.1-14.9,28.8c-5.9,20.1-7.3,51.9,11.6,92.9h17.2c-20.2-39.8-19.3-70.1-13.9-88.5c5.6-18.9,16.7-29.7,22.9-33.2
		h160.5l0,258.9l71.7-52.2V563.8C904.2,493.2,785,433.5,620.8,413.5z M500.1,198.2L597.4,411c-31.2-3-63.8-4.6-97.4-4.6
		c-33.5,0-66.1,1.6-97.2,4.6L500.1,198.2z"/>
</g>
</svg>
