<?xml version="1.0" encoding="UTF-8" standalone="no"?>
<!-- Generator: Adobe Illustrator 24.3.0, SVG Export Plug-In . SVG Version: 6.00 Build 0)  -->

<svg
   xmlns:dc="http://purl.org/dc/elements/1.1/"
   xmlns:cc="http://creativecommons.org/ns#"
   xmlns:rdf="http://www.w3.org/1999/02/22-rdf-syntax-ns#"
   xmlns:svg="http://www.w3.org/2000/svg"
   xmlns="http://www.w3.org/2000/svg"
   xmlns:sodipodi="http://sodipodi.sourceforge.net/DTD/sodipodi-0.dtd"
   xmlns:inkscape="http://www.inkscape.org/namespaces/inkscape"
   version="1.1"
   id="Calque_1"
   x="0px"
   y="0px"
   viewBox="0 0 1000 1000"
   xml:space="preserve"
   sodipodi:docname="uf96e-steam-engine.svg"
   width="1000"
   height="1000"
   inkscape:version="0.92.5 (2060ec1f9f, 2020-04-08)"><metadata
   id="metadata67"><rdf:RDF><cc:Work
       rdf:about=""><dc:format>image/svg+xml</dc:format><dc:type
         rdf:resource="http://purl.org/dc/dcmitype/StillImage" /><dc:title></dc:title></cc:Work></rdf:RDF></metadata><defs
   id="defs65" /><sodipodi:namedview
   pagecolor="#ffffff"
   bordercolor="#666666"
   borderopacity="1"
   objecttolerance="10"
   gridtolerance="10"
   guidetolerance="10"
   inkscape:pageopacity="0"
   inkscape:pageshadow="2"
   inkscape:window-width="1920"
   inkscape:window-height="1016"
   id="namedview63"
   showgrid="false"
   inkscape:zoom="0.472"
   inkscape:cx="250"
   inkscape:cy="250"
   inkscape:window-x="0"
   inkscape:window-y="27"
   inkscape:window-maximized="1"
   inkscape:current-layer="Calque_1" />
<path
   d="m 930.48843,657.89016 v 58.02308 h 10.15969 v 0.22577 h 15.80396 v 36.80064 c 0,13.0947 10.61122,23.70593 23.70593,23.70593 13.09471,0 23.70589,-10.61123 23.70589,-23.70593 v -86.01866 c 0,-13.09471 -10.61118,-23.70593 -23.70589,-23.70593 -13.09471,0 -23.70593,10.61122 -23.70593,23.70593 v 37.0264 h -8.80507 V 657.89016 598.28667 508.20414 H 642.17918 L 524.10107,249.69663 h 3.61233 v -31.83369 h -55.76538 v 31.83369 h 3.61234 L 357.48224,508.20414 H 52.240181 v 90.30831 59.37771 45.83147 h -8.805059 v -36.57487 c 0,-13.09471 -10.611226,-23.70593 -23.70593,-23.70593 -13.0947043,0 -23.7059297,10.61122 -23.7059297,23.70593 v 86.01866 c 0,13.09471 10.6112254,23.70593 23.7059297,23.70593 13.094704,0 23.70593,-10.61122 23.70593,-23.70593 v -37.25218 h 8.805059 v 0.22577 H 69.39876 V 657.89016 Z M 499.9436,251.95434 617.11863,508.20414 H 382.76857 Z"
   id="path2"
   inkscape:connector-curvature="0"
   style="stroke-width:2.2577076" />
<g
   id="g60"
   transform="matrix(2.3454913,0,0,2.3454913,-81.726035,-60.17019)">
	<g
   id="g10">
		<path
   d="m 73.5,316.5 c -0.6,-0.3 -8.3,6.1 -8.3,10.9 0,6.5 9,21.2 10.5,26.8 1.3,4.9 -2.2,10.7 -1.2,11 0.9,0.6 9.3,-8 9.6,-11.7 0.4,-5.8 -9.8,-22.9 -10.7,-27.3 -1,-5.1 0.7,-9.6 0.1,-9.7 z"
   id="path4"
   inkscape:connector-curvature="0" />
		<path
   d="m 92.7,309.8 c -0.8,-0.4 -10.6,7.8 -10.6,13.9 0,8.3 11.5,27 13.4,34.2 1.7,6.2 -2.8,13.7 -1.6,14 1.1,0.7 11.9,-10.2 12.3,-14.9 0.5,-7.4 -12.5,-29.2 -13.6,-34.8 -1.1,-6.5 1,-12.3 0.1,-12.4 z"
   id="path6"
   inkscape:connector-curvature="0" />
		<path
   d="m 112.7,316.5 c -0.6,-0.3 -8.3,6.1 -8.3,10.9 0,6.5 9,21.2 10.5,26.8 1.3,4.9 -2.2,10.7 -1.3,11 0.9,0.6 9.3,-8 9.6,-11.7 0.4,-5.8 -9.8,-22.9 -10.7,-27.3 -0.9,-5.1 0.8,-9.6 0.2,-9.7 z"
   id="path8"
   inkscape:connector-curvature="0" />
	</g>
	<g
   id="g18">
		<path
   d="m 151.9,316.5 c -0.6,-0.3 -8.3,6.1 -8.3,10.9 0,6.5 9,21.2 10.5,26.8 1.3,4.9 -2.2,10.7 -1.2,11 0.9,0.6 9.3,-8 9.6,-11.7 0.4,-5.8 -9.8,-22.9 -10.7,-27.3 -1,-5.1 0.7,-9.6 0.1,-9.7 z"
   id="path12"
   inkscape:connector-curvature="0" />
		<path
   d="m 171.2,309.8 c -0.8,-0.4 -10.6,7.8 -10.6,13.9 0,8.3 11.5,27 13.4,34.2 1.7,6.2 -2.8,13.7 -1.6,14 1.1,0.7 11.9,-10.2 12.3,-14.9 0.5,-7.4 -12.5,-29.2 -13.6,-34.8 -1.2,-6.5 0.9,-12.3 0.1,-12.4 z"
   id="path14"
   inkscape:connector-curvature="0" />
		<path
   d="m 191.1,316.5 c -0.6,-0.3 -8.3,6.1 -8.3,10.9 0,6.5 9,21.2 10.5,26.8 1.3,4.9 -2.2,10.7 -1.3,11 0.9,0.6 9.3,-8 9.6,-11.7 0.4,-5.8 -9.8,-22.9 -10.7,-27.3 -0.9,-5.1 0.8,-9.6 0.2,-9.7 z"
   id="path16"
   inkscape:connector-curvature="0" />
	</g>
	<g
   id="g22">
		<path
   d="m 132,309.8 c -0.8,-0.4 -10.6,7.8 -10.6,13.9 0,8.3 11.5,27 13.4,34.2 1.7,6.2 -2.8,13.7 -1.6,14 1.1,0.7 11.9,-10.2 12.3,-14.9 0.5,-7.4 -12.5,-29.2 -13.6,-34.8 -1.2,-6.5 0.9,-12.3 0.1,-12.4 z"
   id="path20"
   inkscape:connector-curvature="0" />
	</g>
	<g
   id="g28">
		<path
   d="m 210.4,309.8 c -0.8,-0.4 -10.6,7.8 -10.6,13.9 0,8.3 11.5,27 13.4,34.2 1.7,6.2 -2.8,13.7 -1.6,14 1.1,0.7 11.9,-10.2 12.3,-14.9 0.5,-7.4 -12.5,-29.2 -13.6,-34.8 -1.2,-6.5 0.9,-12.3 0.1,-12.4 z"
   id="path24"
   inkscape:connector-curvature="0" />
		<path
   d="m 230.3,316.5 c -0.6,-0.3 -8.3,6.1 -8.3,10.9 0,6.5 9,21.2 10.5,26.8 1.3,4.9 -2.2,10.7 -1.3,11 0.9,0.6 9.3,-8 9.6,-11.7 0.4,-5.8 -9.8,-22.9 -10.7,-27.3 -0.8,-5.1 0.8,-9.6 0.2,-9.7 z"
   id="path26"
   inkscape:connector-curvature="0" />
	</g>
	<g
   id="g34">
		<path
   d="m 249.6,309.8 c -0.8,-0.4 -10.6,7.8 -10.6,13.9 0,8.3 11.5,27 13.4,34.2 1.7,6.2 -2.8,13.7 -1.6,14 1.1,0.7 11.9,-10.2 12.3,-14.9 0.5,-7.4 -12.5,-29.2 -13.6,-34.8 -1.2,-6.5 0.9,-12.3 0.1,-12.4 z"
   id="path30"
   inkscape:connector-curvature="0" />
		<path
   d="m 269.5,316.5 c -0.6,-0.3 -8.3,6.1 -8.3,10.9 0,6.5 9,21.2 10.5,26.8 1.3,4.9 -2.2,10.7 -1.3,11 0.9,0.6 9.3,-8 9.6,-11.7 0.4,-5.8 -9.8,-22.9 -10.7,-27.3 -0.8,-5.1 0.9,-9.6 0.2,-9.7 z"
   id="path32"
   inkscape:connector-curvature="0" />
	</g>
	<g
   id="g40">
		<path
   d="m 288.8,309.8 c -0.8,-0.4 -10.6,7.8 -10.6,13.9 0,8.3 11.5,27 13.4,34.2 1.7,6.2 -2.8,13.7 -1.6,14 1.1,0.7 11.9,-10.2 12.3,-14.9 0.5,-7.4 -12.5,-29.2 -13.6,-34.8 -1.2,-6.5 0.9,-12.3 0.1,-12.4 z"
   id="path36"
   inkscape:connector-curvature="0" />
		<path
   d="m 308.7,316.5 c -0.6,-0.3 -8.3,6.1 -8.3,10.9 0,6.5 9,21.2 10.5,26.8 1.3,4.9 -2.2,10.7 -1.3,11 0.9,0.6 9.3,-8 9.6,-11.7 0.4,-5.8 -9.8,-22.9 -10.7,-27.3 -0.8,-5.1 0.9,-9.6 0.2,-9.7 z"
   id="path38"
   inkscape:connector-curvature="0" />
	</g>
	<g
   id="g46">
		<path
   d="m 328,309.8 c -0.8,-0.4 -10.6,7.8 -10.6,13.9 0,8.3 11.5,27 13.4,34.2 1.7,6.2 -2.8,13.7 -1.6,14 1.1,0.7 11.9,-10.2 12.3,-14.9 0.5,-7.4 -12.5,-29.2 -13.6,-34.8 -1.2,-6.5 0.9,-12.3 0.1,-12.4 z"
   id="path42"
   inkscape:connector-curvature="0" />
		<path
   d="m 347.9,316.5 c -0.6,-0.3 -8.3,6.1 -8.3,10.9 0,6.5 9,21.2 10.5,26.8 1.3,4.9 -2.2,10.7 -1.3,11 0.9,0.6 9.3,-8 9.6,-11.7 0.4,-5.8 -9.8,-22.9 -10.6,-27.3 -0.9,-5.1 0.8,-9.6 0.1,-9.7 z"
   id="path44"
   inkscape:connector-curvature="0" />
	</g>
	<g
   id="g52">
		<path
   d="m 367.2,309.8 c -0.8,-0.4 -10.6,7.8 -10.6,13.9 0,8.3 11.5,27 13.4,34.2 1.7,6.2 -2.8,13.7 -1.6,14 1.1,0.7 11.9,-10.2 12.3,-14.9 0.5,-7.4 -12.5,-29.2 -13.6,-34.8 -1.2,-6.5 0.9,-12.3 0.1,-12.4 z"
   id="path48"
   inkscape:connector-curvature="0" />
		<path
   d="m 387.1,316.5 c -0.6,-0.3 -8.3,6.1 -8.3,10.9 0,6.5 9,21.2 10.5,26.8 1.3,4.9 -2.2,10.7 -1.3,11 0.9,0.6 9.3,-8 9.6,-11.7 0.4,-5.8 -9.8,-22.9 -10.6,-27.3 -0.9,-5.1 0.8,-9.6 0.1,-9.7 z"
   id="path50"
   inkscape:connector-curvature="0" />
	</g>
	<g
   id="g58">
		<path
   d="m 406.4,309.8 c -0.8,-0.4 -10.6,7.8 -10.6,13.9 0,8.3 11.5,27 13.4,34.2 1.7,6.2 -2.8,13.7 -1.6,14 1.1,0.7 11.9,-10.2 12.3,-14.9 0.5,-7.4 -12.5,-29.2 -13.6,-34.8 -1.2,-6.5 0.9,-12.3 0.1,-12.4 z"
   id="path54"
   inkscape:connector-curvature="0" />
		<path
   d="m 426.3,316.5 c -0.6,-0.3 -8.3,6.1 -8.3,10.9 0,6.5 9,21.2 10.5,26.8 1.3,4.9 -2.2,10.7 -1.3,11 0.9,0.6 9.3,-8 9.6,-11.7 0.4,-5.8 -9.8,-22.9 -10.6,-27.3 -0.9,-5.1 0.8,-9.6 0.1,-9.7 z"
   id="path56"
   inkscape:connector-curvature="0" />
	</g>
</g>
</svg>