<?xml version="1.0" encoding="utf-8"?>
<!-- Generator: Adobe Illustrator 24.3.0, SVG Export Plug-In . SVG Version: 6.00 Build 0)  -->
<svg version="1.1" id="Layer_1" xmlns="http://www.w3.org/2000/svg" xmlns:xlink="http://www.w3.org/1999/xlink" x="0px" y="0px"
	 viewBox="0 0 1000 1000" style="enable-background:new 0 0 1000 1000;" xml:space="preserve">
<g>
	<path d="M780.2,739.8c-22.2,0-40.3,18.1-40.3,40.3s18.1,40.3,40.3,40.3s40.3-18.1,40.3-40.3S802.4,739.8,780.2,739.8z"/>
	<path d="M780.2,572.9c-114.3,0-207.3,93-207.3,207.3s93,207.3,207.3,207.3s207.3-93,207.3-207.3S894.5,572.9,780.2,572.9z
		 M851.2,780.2c0,39.1-31.9,71-71,71s-71-31.9-71-71s31.9-71,71-71S851.2,741.1,851.2,780.2z"/>
	<path d="M780.2,12.5c-114.3,0-207.3,93-207.3,207.3v438.4l22.2-27.4c45.6-56.3,113-88.6,185.1-88.6s139.5,32.3,185.1,88.6
		l22.2,27.4V219.8C987.5,105.5,894.5,12.5,780.2,12.5z"/>
	<path d="M108.5,764.8h40.3v-641h-12.5c-68.3,0-123.8,55.6-123.8,123.9v557.5l20-15C54.6,773.6,80.9,764.8,108.5,764.8z"/>
	<path d="M542.2,780.2v-545H179.5v560.3h-71c-52.9,0-96,43.1-96,96s43.1,96,96,96h549.7l-27.5-22.2
		C574.5,919.7,542.2,852.3,542.2,780.2z"/>
</g>
</svg>
