<?xml version="1.0" encoding="utf-8"?>
<!-- Generator: Adobe Illustrator 24.3.0, SVG Export Plug-In . SVG Version: 6.00 Build 0)  -->
<svg version="1.1" id="Calque_1" xmlns="http://www.w3.org/2000/svg" xmlns:xlink="http://www.w3.org/1999/xlink" x="0px" y="0px"
	 viewBox="0 0 1000 1000" style="enable-background:new 0 0 1000 1000;" xml:space="preserve">
<g>
	<path d="M376.6,413.6c7.3,24.4,33,38.3,57.6,31c24.4-7.3,38.3-33,31-57.6c-21.8-73-58.1-168.2-112.6-222.1l1.7-24.6
		c0.1-1.7,1.1-3.4,2.7-4.2l16.2-8.5c1.3-0.7,2.3-2,2.6-3.5l6-28.7c0.3-1,0.1-2.1-0.3-3.1l-35-79.6C341.8,2,329.4-2.9,318.7,1.8
		L113.6,91.9c-10.7,4.7-15.6,17.1-10.9,27.8l64.2,146.2c4.7,10.7,17.1,15.6,27.8,10.9l140-61.4C375.1,301.7,371.2,395.6,376.6,413.6
		z"/>
	<path d="M287.8,767.8l26.6,220.9c0.8,6.4,6.3,11.2,12.8,11.2h345.7c6.5,0,11.9-4.8,12.8-11.2l26.6-220.9
		c-59.8,49-134.9,75.4-212.2,74.6C422.7,843.2,347.6,816.8,287.8,767.8z"/>
	<path d="M886.3,206.3l-205.1-90c-10.7-4.7-23.1,0.2-27.8,10.9l-35,79.6c-0.4,0.9-0.5,2.1-0.3,3.1l6,28.7c0.3,1.5,1.3,2.8,2.6,3.5
		l16.2,8.5c1.6,0.9,2.6,2.5,2.7,4.2l1.7,26.7c-0.1,0.1-0.2,0.2-0.4,0.4c-64.1,67-94,152.1-117.8,232.8H262.2
		c-7.1,0-12.8,5.7-12.8,12.8v14.6H219c-7.1,0-12.8,5.7-12.8,12.8c0,2.8,0,5.9,0.3,8.7c2.8,64.9,30.4,126.2,77.1,171.3
		c58.1,56,135.8,87,216.4,86.2c80.6,0.8,158.3-30.2,216.3-86.3c46.7-45.1,74.3-106.4,77.1-171.3c0.3-2.8,0.3-5.9,0.3-8.7
		c0-7-5.7-12.7-12.8-12.7h-30.4v-14.6c0-7.1-5.7-12.8-12.8-12.8l0-0.1h-117c5.3-64.9,12.1-114.8,44.6-184.8l139.9,61.3
		c10.7,4.7,23.1-0.2,27.8-10.9L897.2,234C901.9,223.4,897,211,886.3,206.3z M234.7,589.1c-1.2-7.1-2.1-14.3-2.6-21.4h17.4v62
		c0.1,7,5.8,12.7,12.8,12.8h10.2l5.9,47.5C255.6,660.4,240.6,625.8,234.7,589.1z M727.5,642.4h10.2c7-0.1,12.7-5.8,12.8-12.8v-62
		h17.4c-0.5,7.1-1.4,14.3-2.6,21.5c-5.9,36.7-20.9,71.4-43.7,100.8L727.5,642.4z"/>
</g>
</svg>
