<?xml version="1.0" encoding="utf-8"?>
<!-- Generator: Adobe Illustrator 24.3.0, SVG Export Plug-In . SVG Version: 6.00 Build 0)  -->
<svg version="1.1" xmlns="http://www.w3.org/2000/svg" xmlns:xlink="http://www.w3.org/1999/xlink" x="0px" y="0px"
	 viewBox="0 0 800 1000" style="enable-background:new 0 0 800 1000;" xml:space="preserve">
<g id="Calque_2">
</g>
<g id="Calque_1">
	<g>
		<path d="M650.1,100h-144c-9.3,0-16,7.6-16,16v57.3c0,9.3,7.6,16,16,16h144c9.3,0,16-7.6,16-16V116
			C666.1,107.6,658.5,100,650.1,100z"/>
		<rect x="320.8" y="552.2" width="160.8" height="160.8"/>
		<path d="M652.6,219.6H501.1c-7.6,0-16,1.7-22.7,5.9l-25.3,13.5l-17.7-33.7c-11.8-21.9-31.2-37.9-54.7-45.5s-48.8-5.1-70.7,6.7
			l-123.8,64.8c-32,16.8-52.2,49.7-52.2,85.9v117.9v416c0,26.9,21.9,48.8,48.8,48.8h433.7c26.9,0,48.8-21.9,48.8-48.8V233.1
			C665.3,225.5,659.4,219.6,652.6,219.6z M200.4,317.3c0-11.8,6.7-21.9,16.8-26.9l123.8-65.7c3.4-2.5,7.6-3.4,12.6-3.4
			c2.5,0,5.1,0.8,7.6,1.7c6.7,2.5,12.6,6.7,15.2,12.6l17.7,33.7L200.4,370.3V317.3z M577.7,785.5c6.7,6.7,6.7,17.7,0,24.4
			c-3.4,3.4-7.6,5.1-11.8,5.1s-8.4-1.7-12.6-5.1l-62.3-62.3H310.7l-62.3,62.3c-3.4,3.4-7.6,5.1-12.6,5.1c-4.2,0-8.4-1.7-11.8-5.1
			c-6.7-6.7-6.7-17.7,0-24.4l61.5-61.5V542.1L224,480.6c-6.7-6.7-6.7-17.7,0-24.4c6.7-6.7,17.7-6.7,24.4,0l61.5,61.5h181.1
			l61.5-61.5c6.7-6.7,17.7-6.7,24.4,0c6.7,6.7,6.7,17.7,0,24.4l-60.6,61.5v181.1L577.7,785.5z"/>
	</g>
</g>
</svg>
