<?xml version="1.0" encoding="utf-8"?>
<!-- Generator: Adobe Illustrator 24.3.0, SVG Export Plug-In . SVG Version: 6.00 Build 0)  -->
<svg version="1.1" id="Calque_1" xmlns="http://www.w3.org/2000/svg" xmlns:xlink="http://www.w3.org/1999/xlink" x="0px" y="0px"
	 viewBox="0 0 1000 1000" style="enable-background:new 0 0 1000 1000;" xml:space="preserve">
<g>
	<path d="M750.6,374l13.5,80.8l32.6-5.4l-13.5-80.8c-0.3-2-1.2-3.8-1.7-5.6l51.7-10.3l-6.5-32.4l-58.3,11.7l11.7-58.3l-32.4-6.5
		l-11.4,57l-48.9-19.5l-12.3,30.7l65.3,26.1C745.8,363.5,749.7,368.3,750.6,374z"/>
	<path d="M968.8,867c-3-15.1-12.7-27.7-26.5-34.6L863.5,793c-19.7-9.9-34.4-26.8-41.4-47.8l-62.9-188.8c-5.2-15.5-17.7-27.5-33.4-32
		l-9.3-2.7l-2.8-11.7c-7-30.1-22.3-57.5-44.1-79.3l-30.2-30.2c-15.6-15.6-24.2-36.3-24.2-58.4v-51.7c0-9.8-2.9-19.3-8.3-27.5
		l-12.2-18.3c-4.8-7.2-11.4-13-19-16.8l-39.7-19.8c-12.9-6.4-29.4-3.8-39.6,6.4l-21.5,21.5c-7.2,7.2-12.8,15.6-16.6,25.1L446.4,290
		v11.4l-14.6,2.3c-15.1,1.8-28.7,10.7-36.6,23.7l-24.4,40.7c-2.9,4.9-5,10.2-6.1,15.8l-4.8,23.8c-7.1,35.3-29.5,64.7-61.7,80.8
		c0,0-36,18.8-46.6,39.8c-10.6,21,0,94,0,94l-8.1,4.8c-9.7,5.8-20.1,10.1-31.1,12.8l-4.3,1.1c-16.5,4.1-29.6,16.2-35,32.4
		l-47.6,144.1l-18.1-12.1c-6.2-4.2-13.5-6.4-21-6.4h-7c-17.5,0-32.6,11.8-36.9,28.8L25,898.2h950L968.8,867z M511.2,374.3l66.1,66.1
		l-23.4,23.4l-66.1-66.1L511.2,374.3z M256.5,662l23.4-23.4l13.7,13.7c15.6,15.6,24.2,36.3,24.2,58.4v22.2h-33v-22.2
		c0-13.3-5.2-25.7-14.5-35.1L256.5,662z M296.4,827.2L273,803.9l66.1-66.1l23.4,23.4L296.4,827.2z M339.1,671.7l49.6-49.6l23.4,23.4
		l-49.6,49.6L339.1,671.7z M405.2,860.3l-33-33l23.4-23.4l33,33L405.2,860.3z M439.1,575.8l-28.8,21.6L390.5,571l39.9-30l-13-52
		l32-8l33,132.2l-32,8L439.1,575.8z M494.7,810.7l-23.4-23.4l82.6-82.6l23.4,23.4L494.7,810.7z M553.9,662l-33-33l23.4-23.4l33,33
		L553.9,662z M588.3,578.1l-28.9-11.5l12.3-30.7l82.6,33l-12.3,30.7l-15.9-6.4l5,20.1l-32,8L588.3,578.1z M758.6,814.7l-15.2-5.1
		c-26.9-9-47.1-30.8-54-58.3l-2-8.1c-2.8-11-9.3-20.8-18.4-27.6l-47.3-35.5l19.8-26.4l47.3,35.5c15.2,11.4,26,27.7,30.6,46.1l2,8.1
		c4.1,16.5,16.2,29.6,32.4,35l15.2,5.1L758.6,814.7z"/>
	<path d="M472.9,190.9c4-4,8.6-7.2,13.4-10c8.2-4.7,17.3-7.8,26.8-8.8l-14-70.2l-32.4,6.5l14,69.9l-90.4-38.7l-13,30.4l81.7,35
		L472.9,190.9z"/>
	<path d="M790.5,546l8.7,26.2l58.9-58.9l-23.4-23.4l-47.9,47.9C788.1,540.6,789.6,543.1,790.5,546z"/>
	<polygon points="813.1,613.7 867,600.3 859,568.2 802.7,582.3 	"/>
	<path d="M141.9,663.1c2.4-7.3,5.9-14,10.1-20.1l-70.4-70.4l-23.4,23.4l79.5,79.5L141.9,663.1z"/>
	<polygon points="125.9,711.4 136.3,679.8 73.2,667.2 66.7,699.6 	"/>
</g>
</svg>
