<?xml version="1.0" encoding="utf-8"?>
<!-- Generator: Adobe Illustrator 24.3.0, SVG Export Plug-In . SVG Version: 6.00 Build 0)  -->
<svg version="1.1"
	 id="Calque_1" inkscape:version="0.92.5 (2060ec1f9f, 2020-04-08)" sodipodi:docname="uf96e-steam-engine.svg" xmlns:cc="http://creativecommons.org/ns#" xmlns:dc="http://purl.org/dc/elements/1.1/" xmlns:inkscape="http://www.inkscape.org/namespaces/inkscape" xmlns:rdf="http://www.w3.org/1999/02/22-rdf-syntax-ns#" xmlns:sodipodi="http://sodipodi.sourceforge.net/DTD/sodipodi-0.dtd" xmlns:svg="http://www.w3.org/2000/svg"
	 xmlns="http://www.w3.org/2000/svg" xmlns:xlink="http://www.w3.org/1999/xlink" x="0px" y="0px" viewBox="0 0 1000 1000"
	 style="enable-background:new 0 0 1000 1000;" xml:space="preserve">
<sodipodi:namedview  bordercolor="#666666" borderopacity="1" gridtolerance="10" guidetolerance="10" id="namedview63" inkscape:current-layer="Calque_1" inkscape:cx="250" inkscape:cy="250" inkscape:pageopacity="0" inkscape:pageshadow="2" inkscape:window-height="1016" inkscape:window-maximized="1" inkscape:window-width="1920" inkscape:window-x="0" inkscape:window-y="27" inkscape:zoom="0.472" objecttolerance="10" pagecolor="#ffffff" showgrid="false">
	</sodipodi:namedview>
<g>
	<path id="path2" inkscape:connector-curvature="0" d="M905.9,634.7v54.7h9.6v0.2h14.9v34.7c0,12.3,10,22.3,22.3,22.3
		c12.3,0,22.3-10,22.3-22.3v-81.1c0-12.3-10-22.3-22.3-22.3c-12.3,0-22.3,10-22.3,22.3v34.9h-8.3v-43.4v-56.2v-84.9H634.2L522.9,250
		h3.4v-30h-52.6v30h3.4L365.7,493.6H78v85.1v56v43.2h-8.3v-34.5c0-12.3-10-22.3-22.3-22.3S25,631.1,25,643.5v81.1
		c0,12.3,10,22.3,22.3,22.3s22.3-10,22.3-22.3v-35.1H78v0.2h16.2v-54.9L905.9,634.7L905.9,634.7z M500.1,252l110.5,241.5h-221
		L500.1,252z"/>
	<g id="g60" transform="matrix(2.3454913,0,0,2.3454913,-81.726035,-60.17019)">
		<g id="g10">
			<path id="path4" inkscape:connector-curvature="0" d="M83.5,306.1c-0.5-0.3-7.9,5.7-7.9,10.3c0,6.2,8.5,20,9.9,25.2
				c1.3,4.6-2,10.1-1.2,10.3c0.9,0.5,8.7-7.6,9-11.1c0.4-5.4-9.3-21.6-10.1-25.8C82.5,310.3,84.1,306.2,83.5,306.1L83.5,306.1z"/>
			<path id="path6" inkscape:connector-curvature="0" d="M101.6,299.7c-0.7-0.4-10,7.3-10,13.1c0,7.9,10.9,25.4,12.7,32.2
				c1.6,5.9-2.7,12.9-1.5,13.2c1.1,0.6,11.2-9.6,11.6-14c0.4-7-11.8-27.6-12.8-32.8C100.5,305.3,102.4,299.8,101.6,299.7
				L101.6,299.7z"/>
			<path id="path8" inkscape:connector-curvature="0" d="M120.5,306.1c-0.5-0.3-7.9,5.7-7.9,10.3c0,6.2,8.5,20,9.9,25.2
				c1.3,4.6-2,10.1-1.3,10.3c0.9,0.5,8.7-7.6,9-11.1c0.4-5.4-9.3-21.6-10.1-25.8C119.5,310.3,121.1,306.2,120.5,306.1L120.5,306.1z"
				/>
		</g>
		<g id="g18">
			<path id="path12" inkscape:connector-curvature="0" d="M157.4,306.1c-0.5-0.3-7.9,5.7-7.9,10.3c0,6.2,8.5,20,9.9,25.2
				c1.3,4.6-2,10.1-1.2,10.3c0.9,0.5,8.7-7.6,9-11.1c0.4-5.4-9.3-21.6-10.1-25.8C156.4,310.3,158,306.2,157.4,306.1L157.4,306.1z"/>
			<path id="path14" inkscape:connector-curvature="0" d="M175.6,299.7c-0.7-0.4-10,7.3-10,13.1c0,7.9,10.9,25.4,12.7,32.2
				c1.6,5.9-2.7,12.9-1.5,13.2c1.1,0.6,11.2-9.6,11.6-14c0.4-7-11.8-27.6-12.8-32.8C174.4,305.3,176.4,299.8,175.6,299.7
				L175.6,299.7z"/>
			<path id="path16" inkscape:connector-curvature="0" d="M194.4,306.1c-0.5-0.3-7.9,5.7-7.9,10.3c0,6.2,8.5,20,9.9,25.2
				c1.3,4.6-2,10.1-1.3,10.3c0.9,0.5,8.7-7.6,9-11.1c0.4-5.4-9.3-21.6-10.1-25.8C193.3,310.3,194.9,306.2,194.4,306.1L194.4,306.1z"
				/>
		</g>
		<g id="g22">
			<path id="path20" inkscape:connector-curvature="0" d="M138.7,299.7c-0.7-0.4-10,7.3-10,13.1c0,7.9,10.9,25.4,12.7,32.2
				c1.6,5.9-2.7,12.9-1.5,13.2c1.1,0.6,11.2-9.6,11.6-14c0.4-7-11.8-27.6-12.8-32.8C137.4,305.3,139.5,299.8,138.7,299.7
				L138.7,299.7z"/>
		</g>
		<g id="g28">
			<path id="path24" inkscape:connector-curvature="0" d="M212.6,299.7c-0.7-0.4-10,7.3-10,13.1c0,7.9,10.9,25.4,12.7,32.2
				c1.6,5.9-2.7,12.9-1.5,13.2c1.1,0.6,11.2-9.6,11.6-14c0.4-7-11.8-27.6-12.8-32.8C211.4,305.3,213.3,299.8,212.6,299.7
				L212.6,299.7z"/>
			<path id="path26" inkscape:connector-curvature="0" d="M231.3,306.1c-0.5-0.3-7.9,5.7-7.9,10.3c0,6.2,8.5,20,9.9,25.2
				c1.3,4.6-2,10.1-1.3,10.3c0.9,0.5,8.7-7.6,9-11.1c0.4-5.4-9.3-21.6-10.1-25.8C230.4,310.3,231.9,306.2,231.3,306.1L231.3,306.1z"
				/>
		</g>
		<g id="g34">
			<path id="path30" inkscape:connector-curvature="0" d="M249.5,299.7c-0.7-0.4-10,7.3-10,13.1c0,7.9,10.9,25.4,12.7,32.2
				c1.6,5.9-2.7,12.9-1.5,13.2c1.1,0.6,11.2-9.6,11.6-14c0.4-7-11.8-27.6-12.8-32.8C248.3,305.3,250.2,299.8,249.5,299.7
				L249.5,299.7z"/>
			<path id="path32" inkscape:connector-curvature="0" d="M268.3,306.1c-0.5-0.3-7.9,5.7-7.9,10.3c0,6.2,8.5,20,9.9,25.2
				c1.3,4.6-2,10.1-1.3,10.3c0.9,0.5,8.7-7.6,9-11.1c0.4-5.4-9.3-21.6-10.1-25.8C267.4,310.3,269,306.2,268.3,306.1L268.3,306.1z"/>
		</g>
		<g id="g40">
			<path id="path36" inkscape:connector-curvature="0" d="M286.5,299.7c-0.7-0.4-10,7.3-10,13.1c0,7.9,10.9,25.4,12.7,32.2
				c1.6,5.9-2.7,12.9-1.5,13.2c1.1,0.6,11.2-9.6,11.6-14c0.4-7-11.8-27.6-12.8-32.8C285.2,305.3,287.3,299.8,286.5,299.7
				L286.5,299.7z"/>
			<path id="path38" inkscape:connector-curvature="0" d="M305.2,306.1c-0.5-0.3-7.9,5.7-7.9,10.3c0,6.2,8.5,20,9.9,25.2
				c1.3,4.6-2,10.1-1.3,10.3c0.9,0.5,8.7-7.6,9-11.1c0.4-5.4-9.3-21.6-10.1-25.8C304.3,310.3,305.9,306.2,305.2,306.1L305.2,306.1z"
				/>
		</g>
		<g id="g46">
			<path id="path42" inkscape:connector-curvature="0" d="M323.4,299.7c-0.7-0.4-10,7.3-10,13.1c0,7.9,10.9,25.4,12.7,32.2
				c1.6,5.9-2.7,12.9-1.5,13.2c1.1,0.6,11.2-9.6,11.6-14c0.4-7-11.8-27.6-12.8-32.8C322.2,305.3,324.2,299.8,323.4,299.7
				L323.4,299.7z"/>
			<path id="path44" inkscape:connector-curvature="0" d="M342.2,306.1c-0.5-0.3-7.9,5.7-7.9,10.3c0,6.2,8.5,20,9.9,25.2
				c1.3,4.6-2,10.1-1.3,10.3c0.9,0.5,8.7-7.6,9-11.1c0.4-5.4-9.3-21.6-10-25.8C341.2,310.3,342.9,306.2,342.2,306.1L342.2,306.1z"/>
		</g>
		<g id="g52">
			<path id="path48" inkscape:connector-curvature="0" d="M360.4,299.7c-0.7-0.4-10,7.3-10,13.1c0,7.9,10.9,25.4,12.7,32.2
				c1.6,5.9-2.7,12.9-1.5,13.2c1.1,0.6,11.2-9.6,11.6-14c0.4-7-11.8-27.6-12.8-32.8C359.2,305.3,361.1,299.8,360.4,299.7
				L360.4,299.7z"/>
			<path id="path50" inkscape:connector-curvature="0" d="M379.2,306.1c-0.5-0.3-7.9,5.7-7.9,10.3c0,6.2,8.5,20,9.9,25.2
				c1.3,4.6-2,10.1-1.3,10.3c0.9,0.5,8.7-7.6,9-11.1c0.4-5.4-9.3-21.6-10-25.8C378.2,310.3,379.8,306.2,379.2,306.1L379.2,306.1z"/>
		</g>
		<g id="g58">
			<path id="path54" inkscape:connector-curvature="0" d="M397.4,299.7c-0.7-0.4-10,7.3-10,13.1c0,7.9,10.9,25.4,12.7,32.2
				c1.6,5.9-2.7,12.9-1.5,13.2c1.1,0.6,11.2-9.6,11.6-14c0.4-7-11.8-27.6-12.8-32.8C396.1,305.3,398.1,299.8,397.4,299.7
				L397.4,299.7z"/>
			<path id="path56" inkscape:connector-curvature="0" d="M416.1,306.1c-0.5-0.3-7.9,5.7-7.9,10.3c0,6.2,8.5,20,9.9,25.2
				c1.3,4.6-2,10.1-1.3,10.3c0.9,0.5,8.7-7.6,9-11.1c0.4-5.4-9.3-21.6-10-25.8C415.2,310.3,416.8,306.2,416.1,306.1L416.1,306.1z"/>
		</g>
	</g>
</g>
</svg>
