<?xml version="1.0" encoding="utf-8"?>
<!-- Generator: Adobe Illustrator 24.3.0, SVG Export Plug-In . SVG Version: 6.00 Build 0)  -->
<svg version="1.1" id="Calque_1" xmlns="http://www.w3.org/2000/svg" xmlns:xlink="http://www.w3.org/1999/xlink" x="0px" y="0px"
	 viewBox="0 0 1000 1000" style="enable-background:new 0 0 1000 1000;" xml:space="preserve">
<style type="text/css">
	.st0{fill:none;}
</style>
<path class="st0" d="M466.2,751.1c-6.9,12.1-11.7,21.9-12.4,26.7c-1.3,8.8,25.1,29.8,78.8,62.4c1.4-2.4,4.3-4.9,9.1-8.1
	c7.2-4.8,13.5-8,19-10.7c12.3-6.2,18.5-9.3,19.7-23c1.4-15.8-2.5-36.4-8-56.4C531.9,746.8,494.7,749.6,466.2,751.1z"/>
<path d="M999.6,321.7c-4.5-16.5-15.2-28.3-26.6-40.8c-10.4-11.4-21.2-23.2-27.4-39.4c-2-5.3-4.2-11.6-6.8-18.9
	c-13.7-39.6-34.4-99.5-74.2-119.2c-17.7-8.7-35-13.2-51.5-13.2c-34,0-62.9,18.5-85.8,54.9c-22.5,35.8-19,87.4-15.7,137.4
	c3.2,47.8,6.3,92.9-15.3,114.8c0,0-0.1,0-0.4,0c-4.3,0-16.1-7.3-29.8-15.8c-33.1-20.5-88.4-54.9-148.5-58.3
	c-2.1-0.1-4.4-0.2-6.8-0.2c-67.2,0-221,49.1-322.7,81.6c-48.7,15.6-87.1,27.8-99.3,29.4c-2.9,0.4-11.7,1.6-13.3,7.7
	c-2.2,8.2,10.1,18.2,27.7,31.4c5.1,3.8,11.8,8.9,14.3,11.6c-5.2,1-19.7,1.6-32.8,2.1c-42.4,1.6-75.4,3.6-83,12.8
	c-1.4,1.7-2,3.7-1.7,5.8c1.3,9.1,14,12.9,31.5,18.1c25.2,7.6,59.7,17.9,81.7,48.6C168.8,649.8,260.7,753,417,753
	c2.5,0,5.1-0.1,7.6-0.1c-1.7,4.2-3.5,8-5.5,11.4c-6.9,11.9-13.8,12.1-27.6,12.4c-6.2,0.1-13.2,0.3-21.8,1.6
	c-9.5,1.4-13.7,3.5-14.4,7.2c-1.1,5.5,6.4,10.1,20,18.5c18.1,11.1,42.8,26.3,53,47.9c7.7,16.3,14.2,23.8,20.6,23.8c0,0,0,0,0,0
	c5.9,0,10.2-6,13-18.4c0.2-0.7,0.3-0.9,0.4-0.8c4,0,15.3,10.7,25.3,20.1c15.4,14.5,32.8,31,46.1,33.1c0.7,0.1,1.3,0.2,1.9,0.2
	c3.2,0,4.7-1.7,5.3-2.7c2.7-4.6-1.7-13-9.2-26.2c-2.5-4.4-6-10.6-7.1-13.8c0.3,0.1,0.7,0.3,1.2,0.5c11.8,5.6,28.8,8.5,39.5,8.5
	c7.9,0,11.8-1.4,12.7-4.5c1-3.7-3.2-6.4-4.6-7.2c-2-1.3-5.8-3.4-10.8-6.3c-3.3-1.9-6.4-3.7-9.5-5.6c1.5,0.2,3,0.3,4.7,0.5
	c21.1,2.3,49.9,5.5,68.4,20.7c11.1,9.1,19.2,13.6,24.9,13.6c2.8,0,5.1-1.1,6.7-3.1c2.9-3.6,3.3-10.2,1.1-20
	c-0.1-0.6-0.1-0.9-0.1-0.9c0.1-0.1,0.7-0.5,2.2-0.5c5.8,0,17.2,3.4,29.3,7.3c16.2,5.3,34.5,10.6,47.6,10.6c0,0,0,0,0,0
	c3.1,0,5.9,0.3,8.2-0.4c3.9-1.1,5.1-2.7,5.3-4.3c0.9-5.6-6.8-11.3-19.4-20.2c-4.1-2.9-9.9-7-12.3-9.4c0.3,0,0.8,0,1.3,0
	c16.8,0,48.4-9.2,48.9-17.8c0.1-2.1-1.1-4.8-7.3-5.5c-2.4-0.3-6.7-0.6-12.4-1.1c-84.9-7.2-129.5-16-132.5-26
	c-2.3-7.8-0.3-33,2.9-60.4c63.8-10,130-25.7,178.7-50c99.1-49.5,100.5-196.2,73.4-260.9c-39.3-94.1-53.9-149.8-43.4-165.7
	c2.9-4.3,7.8-5.2,15.3-3.2c4.7,1.3,9.2,1.9,13.7,1.9c3.4,0,6.4-0.4,9-0.7c2.1-0.3,4.1-0.5,6-0.5c6.1,0,13,1.9,30,25
	c32.1,43.9,70.3,52.2,77.6,53.4c1.7,0.3,3.4,0.4,5,0.4c0,0,0,0,0,0c5.5,0,9.8-1.8,12.3-5C999.9,327.7,1000.5,324.7,999.6,321.7z
	 M580.3,798.3c-1.2,13.7-7.4,16.8-19.7,23c-5.5,2.8-11.8,5.9-19,10.7c-4.8,3.2-7.7,5.8-9.1,8.1c-53.6-32.6-80.1-53.5-78.8-62.4
	c0.7-4.8,5.5-14.6,12.4-26.7c28.5-1.6,65.7-4.3,106.1-9.2C577.8,761.9,581.7,782.5,580.3,798.3z M840,186.4c-8.8,0-16-7.2-16-16
	c0-8.8,7.2-16,16-16c8.8,0,16,7.2,16,16C856,179.2,848.9,186.4,840,186.4z"/>
</svg>
