<?xml version="1.0" encoding="utf-8"?>
<!-- Generator: Adobe Illustrator 24.3.0, SVG Export Plug-In . SVG Version: 6.00 Build 0)  -->
<svg version="1.1" id="Calque_1" xmlns="http://www.w3.org/2000/svg" xmlns:xlink="http://www.w3.org/1999/xlink" x="0px" y="0px"
	 viewBox="0 0 1000 1000" style="enable-background:new 0 0 1000 1000;" xml:space="preserve">
<path d="M150,172.9v88.6l45.9,25.8h45.4v506.3l45.9,33.4V287.4h39.1c-7.2,0-13,5.9-13,13v39.1c0,7.2,5.9,13,13,13h48.1v39.7
	c-3.3,0.4-6.4,0.9-9.8,1.6c-35.7,6.4-58.4,20.2-61.6,29.7c-5.7,16.8,34,34,71.3,34.7v35.4v6.3c-3.3,0.4-6.4,0.9-9.8,1.6
	c-35.7,6.4-58.4,20.2-61.6,29.7c-5.7,16.8,34,34,71.3,34.7V601v6.3c-1.6,0.1-3.3,0.4-4.8,0.7c-1.6,0.3-3.3,0.5-5,0.8
	c-35.7,6.4-58.4,20.2-61.6,29.7c-5.7,16.8,34,34,71.3,34.7v41.6c-3.3,0.4-6.4,0.9-9.8,1.6c-35.7,6.4-58.4,20.2-61.6,29.7
	c-5.7,16.8,34,34,71.3,34.7v40.3h10.7c3.3-0.4,6.4-0.9,9.7-1.6c35.7-6.4,58.4-20.2,61.6-29.7c5.7-16.7-33.9-33.9-71.1-34.7v-41.6
	c3.3-0.4,6.4-0.9,9.7-1.6c4.4-0.8,8.7-1.7,12.8-2.7c2.1-0.5,4-1,5.9-1.6c4.8-1.4,9.3-2.9,13.3-4.4c1.6-0.7,3.1-1.3,4.7-2
	c0.8-0.4,1.4-0.7,2.2-1c5.7-2.6,10.6-5.5,14.2-8.2c4.6-3.4,7.6-6.8,8.5-9.8c5.7-16.7-33.9-33.9-71.1-34.7v-41.6
	c3.3-0.4,6.4-0.9,9.7-1.6c35.7-6.4,58.4-20.2,61.6-29.7c5.7-16.7-33.9-33.9-71.1-34.7v-41.6c3.3-0.4,6.4-0.9,9.7-1.6
	c35.7-6.4,58.4-20.2,61.6-29.7c5.7-16.7-33.9-33.9-71.1-34.7v-80H431c7.2,0,13-5.9,13-13v-39.2c0-7.2-5.9-13-13-13h138.4
	c-7.2,0-13,5.9-13,13v39.1c0,7.2,5.9,13,13,13h45.5v80.1c-37.4,0.8-76.9,17.9-71.1,34.7c3.3,9.5,25.8,23.4,61.6,29.7
	c3.3,0.5,6.4,1.2,9.7,1.6V540c-37.4,0.8-76.9,17.9-71.1,34.7c3.3,9.5,25.8,23.4,61.6,29.7c3.3,0.5,6.4,1.2,9.7,1.6v41.6
	c-37.4,0.8-76.9,17.9-71.1,34.7c1,3,3.9,6.4,8.5,9.8c3.7,2.7,8.5,5.6,14.2,8.2c0.8,0.4,1.4,0.7,2.2,1c1.6,0.7,3.1,1.3,4.7,2
	c4,1.6,8.5,3.1,13.3,4.4c2,0.5,3.9,1,5.9,1.6c4,1,8.3,2,12.8,2.7c3.3,0.5,6.4,1.2,9.7,1.6v41.6c-37.4,0.8-76.9,17.9-71.1,34.7
	c3.3,9.5,25.8,23.4,61.6,29.7c3.3,0.5,6.4,1.2,9.7,1.6h10.7v-40.3c37.4-0.7,77-17.7,71.3-34.7c-3.3-9.5-25.8-23.4-61.6-29.7
	c-3.3-0.5-6.5-1.2-9.8-1.6v-41.6c37.4-0.7,77-17.7,71.3-34.7c-3.3-9.5-25.8-23.4-61.6-29.7c-1.7-0.3-3.3-0.5-5-0.8s-3.3-0.5-4.8-0.7
	v-6.3v-35.4c37.4-0.7,77-17.7,71.3-34.7c-3.3-9.5-25.8-23.4-61.6-29.7c-3.3-0.5-6.5-1.2-9.8-1.6v-6.3V458
	c37.4-0.7,77-17.7,71.3-34.7c-3.3-9.5-25.8-23.4-61.6-29.7c-3.3-0.5-6.5-1.2-9.8-1.6v-39.8h48.1c7.2,0,13-5.9,13-13v-39.1
	c0-7.2-5.9-13-13-13h39.1v539.8l45.9-33.4V287.4h46.8l44.5-25.8V173L150,172.9L150,172.9z M374.3,754.9
	c-26.6-0.5-39.9-6.1-41.2-14.2c-1.4-8,16-18.1,41.2-25.3V754.9z M426.2,794.7c1.4,8-15.9,18.1-41.2,25.3v-39.5
	C411.6,781.1,424.8,786.6,426.2,794.7z M333.2,418.4c-1.4-8,16-18.1,41.2-25.3v39.5C347.9,431.8,334.6,426.3,333.2,418.4z
	 M333.2,525.6c0-0.3-0.1-0.5-0.1-0.8c-0.1-7.8,17-17.6,41.4-24.4v39.4C347.9,539.3,334.6,533.7,333.2,525.6z M333.2,633.3
	c0-0.3-0.1-0.5-0.1-0.8c-0.1-7.8,17-17.6,41.4-24.4v39.4C347.9,646.7,334.6,641.1,333.2,633.3z M426.2,687.3c0.7,3.8-2.7,8-9.3,12.1
	c-0.9,0.5-1.8,1.2-2.7,1.7c-1.4,0.8-3,1.7-4.7,2.5c-1.2,0.5-2.2,1-3.5,1.6c-0.7,0.3-1.2,0.5-1.8,0.8c-3.1,1.3-6.5,2.6-10.2,3.8
	c-0.8,0.3-1.4,0.5-2.2,0.8c-2.2,0.7-4.6,1.4-6.9,2.1v-39.5C411.6,673.7,424.8,679.2,426.2,687.3z M426.2,579.8
	c1.4,8-15.9,18.1-41.2,25.3v-4.2v-35.4C411.6,566.3,424.8,571.8,426.2,579.8z M426.2,472.4c1.4,8-15.9,18.1-41.2,25.3v-4.2v-35.4
	C411.6,458.8,424.8,464.3,426.2,472.4z M614.5,820.1c-25.3-7-42.7-17.3-41.2-25.3c1.4-8.1,14.6-13.6,41.2-14.2V820.1z M573.3,579.9
	c1.4-8.1,14.6-13.6,41.2-14.2V601v4.2C589.2,598.2,571.8,587.9,573.3,579.9z M595.2,706.1c-0.7-0.3-1.2-0.5-1.8-0.8
	c-1.2-0.5-2.3-1-3.5-1.6c-1.7-0.8-3.3-1.7-4.7-2.5c-0.9-0.5-1.8-1-2.7-1.7c-6.5-4.2-9.9-8.3-9.3-12.1c1.4-8.1,14.6-13.6,41.2-14.2
	v39.5c-2.3-0.7-4.7-1.3-6.9-2.1c-0.8-0.3-1.4-0.5-2.2-0.8C601.7,708.7,598.3,707.4,595.2,706.1z M666.3,740.8
	c-1.4,8.1-14.6,13.6-41.2,14.2v-39.5C650.3,722.6,667.8,732.8,666.3,740.8z M666.4,632.6c0,0.3,0,0.5-0.1,0.8
	c-1.4,8.1-14.6,13.6-41.2,14.2v-39.4C649.5,615,666.6,624.8,666.4,632.6z M666.4,525.1c0,0.3,0,0.5-0.1,0.8
	c-1.4,8.1-14.6,13.6-41.2,14.2v-39.4C649.5,507.5,666.6,517.3,666.4,525.1z M614.5,497.8c-25.3-7-42.7-17.3-41.2-25.3
	c1.4-8.1,14.6-13.6,41.2-14.2v35.4V497.8z M666.3,418.5c-1.4,8-14.6,13.6-41.2,14.2v-39.5C650.3,400.2,667.8,410.5,666.3,418.5z
	 M805.9,261.5h-610v-62.9h17.2v39.9h211.8v-39.9h152v39.9h211.8v-39.9h17.2V261.5L805.9,261.5z"/>
</svg>
