<?xml version="1.0" encoding="utf-8"?>
<!-- Generator: Adobe Illustrator 24.3.0, SVG Export Plug-In . SVG Version: 6.00 Build 0)  -->
<svg version="1.1" id="Calque_1" xmlns="http://www.w3.org/2000/svg" xmlns:xlink="http://www.w3.org/1999/xlink" x="0px" y="0px"
	 viewBox="0 0 1000 1000" style="enable-background:new 0 0 1000 1000;" xml:space="preserve">
<path d="M972.2,265.6L900,230v-30c0-27.6-22.4-50-50-50H736c-27.5-30.5-66.8-50-111-50c-82.7,0-150,67.3-150,150
	c0,74.2,54.2,135.5,125,147.5c-8.2,1.4-16.5,2.5-25,2.5c-80.5,0-145.7-63.6-149.3-143.2c-9.2-4.1-19.2-6.8-30.2-6.8
	c-19.5,0-37.5,7.5-50.5,20c-13.5-12.5-31.5-20-51-20c-20.5,0-39,8.5-52.5,21.5c-17.5-14.5-41-21.5-65-16c-27.5,6-48.5,26.5-56,52
	c-26-4.5-53.5,5-71,27c-18,22-21,51-11,75.5C15.5,422.5,0,447.5,0,475.5c0,28.5,16,53,39,65.5c-10,24.5-6.5,53.5,11,75.5
	c18,22,45.5,31.5,71.5,26.5c6.4,21.7,22.9,39.2,44.5,47.8l-9.6,25.6c-7.1,19-8.3,39.7-3.4,59.4l26.3,105.3
	c2.8,11.1,12.8,18.9,24.2,18.9h103.1c16.3,0,28.2-15.3,24.2-31.1l-28.6-114.5l23.1-61.5c7.4-3.4,14.4-7.5,20.2-13
	c13.5,12.5,31.5,20,51,20c19.5,0,37.5-7.5,51-20c13.5,12.5,31,20,51,20c19.5,0,37.3-7.8,50.7-20.2c0.2,0.2,0.5,0.4,0.8,0.7V875
	c0,13.8,11.2,25,25,25h100c13.8,0,25-11.2,25-25V616.7l55.4-37c27.8-18.5,44.5-49.8,44.5-83.2V400h137c14.5,0,27.8-7.7,35-20.2
	c11.9-20.7,28.1-52.3,28.1-69.7C1000,291.2,989.2,273.9,972.2,265.6z M550,250c0-41.4,33.6-75,75-75s75,33.6,75,75s-33.6,75-75,75
	S550,291.4,550,250z M800,275c-13.8,0-25-11.2-25-25s11.2-25,25-25c13.8,0,25,11.2,25,25S813.8,275,800,275z"/>
</svg>
