<?xml version="1.0" encoding="utf-8"?>
<!-- Generator: Adobe Illustrator 24.3.0, SVG Export Plug-In . SVG Version: 6.00 Build 0)  -->
<svg version="1.1" id="Calque_1" xmlns="http://www.w3.org/2000/svg" xmlns:xlink="http://www.w3.org/1999/xlink" x="0px" y="0px"
	 viewBox="0 0 1000 1000" style="enable-background:new 0 0 1000 1000;" xml:space="preserve">
<path d="M653.1,0c0,0-157.2,77.8-195.4,142.9c-38.2,65-14.6,270.1-14.6,270.1s167.2-149,198.3-213.8C672.5,134.5,653.1,0,653.1,0
	L653.1,0z M900.3,1.6c-53.9-0.1-115.8,4.8-148.1,24.6C687.6,65.9,670.6,202,670.6,202s141.7,31.9,201.1-8.4
	C931.2,153.3,1000,6.7,1000,6.7S954.2,1.6,900.3,1.6L900.3,1.6z M393.6,56.9c0,0-18.2,121.8-23,179.9c0,0-117.1,71.9-146.7,143.8
	c-29.5,71.8,6.4,262.3,6.4,262.3s147.4-116.2,174.9-192.6c27.5-76.3-11.6-236-11.6-236V56.9L393.6,56.9z M711.1,231.3
	c-16.2,0-32,2-46.4,7c-76.3,26.4-198.2,198.1-198.2,198.1s179.1,25.3,247.8-7.8C782.9,395.4,860,269,860,269
	S781.5,231.3,711.1,231.3z M198.2,252.2l-56.9,244.7c0,0-66.7,45.4-115.1,126.4c-46.9,78.6,23.4,248.3,23.4,259.5
	c0,0,142.4-135.4,148.6-209.2c3.5-40.9-19-107.4-22.3-185.9C172.5,409.1,188.3,318.6,198.2,252.2L198.2,252.2z M525.5,482.6
	c-36.8,0.3-70,4.8-91.1,9.6c-72.1,32.1-180.7,186.9-180.7,186.9s184.3,34.8,247.8,5.6s123.9-148.1,123.9-148.1L842.6,500
	c0,0-134.7,0-189.9,3.9C613.7,487.5,567.3,482.3,525.5,482.6z M282.8,616.1c0,0-143.4,178.7-182.7,234S0,1000,0,1000h36
	c0,0,38.8-86.6,72-141.8C141.3,803,282.8,616.1,282.8,616.1L282.8,616.1z M297.4,712.9c-19.7,0.1-37.9,2.4-52.5,8.1
	C173,748.8,90.4,913.5,90.4,913.5s163.8,19,233.2-8.4s142.2-138.2,142.2-138.2c50.4-3.5,142.7-20.7,169-20.8h-5H475.2
	C475.2,746.1,374.6,712.5,297.4,712.9L297.4,712.9z"/>
<path d="M929.1,844.1v-28.3c0-7.8-6.5-14.1-14.1-14.1h-56.7V745c0-7.8-6.5-14.1-14.1-14.1h-28.3c-7.8,0-14.2,6.5-14.2,14.1v56.7H745
	c-7.8,0-14.1,6.5-14.1,14.1v28.3c0,7.8,6.5,14.1,14.1,14.1h56.7v56.7c0,7.8,6.5,14.1,14.2,14.1h28.3c7.8,0,14.1-6.5,14.1-14.1v-56.7
	H915C922.6,858.3,929.1,851.9,929.1,844.1z M1000,830c0,93.9-76.1,170-170,170s-170-76.1-170-170s76.1-170,170-170
	S1000,736.1,1000,830L1000,830z"/>
</svg>
