<?xml version="1.0" encoding="utf-8"?>
<!-- Generator: Adobe Illustrator 24.3.0, SVG Export Plug-In . SVG Version: 6.00 Build 0)  -->
<svg version="1.1" id="Calque_1" xmlns="http://www.w3.org/2000/svg" xmlns:xlink="http://www.w3.org/1999/xlink" x="0px" y="0px"
	 viewBox="0 0 1000 1000" style="enable-background:new 0 0 1000 1000;" xml:space="preserve">
<path d="M850,771.2l-2.3-697.7h-61.8V33.8H574.6v39.8H423V33.8H211.8v39.8H150v697.1l45.8,33.3V703.5H209c1,33,7.9,58.6,16.4,58.6
	c9.1,0,16.5-29.9,16.5-67c0-36.9-7.4-67-16.5-67c-8.5,0-15.3,25.6-16.4,58.6h-13.3V536H209c1,33,7.9,58.6,16.4,58.6
	c9.1,0,16.5-29.9,16.5-67s-7.4-67-16.5-67c-8.5,0-15.3,25.6-16.4,58.6h-13.3V368.6H209c1,33,7.9,58.6,16.4,58.6
	c9.1,0,16.5-29.9,16.5-67c0-36.9-7.4-67-16.5-67c-8.5,0-15.3,25.6-16.4,58.6h-13.3V201.1H209c1,33,7.9,58.6,16.4,58.6
	c9.1,0,16.5-29.9,16.5-67s-7.4-67-16.5-67c-8.5,0-15.3,25.6-16.4,58.6h-13.3V99.2h289.7v85h-13.3c-1-33-7.9-58.6-16.4-58.6
	c-9.1,0-16.5,29.9-16.5,67s7.4,67,16.5,67c8.5,0,15.3-25.6,16.4-58.6h13.3v150.9h-13.3c-1-33-7.9-58.6-16.4-58.6
	c-9.1,0-16.5,29.9-16.5,67c0,36.9,7.4,67,16.5,67c8.5,0,15.3-25.6,16.4-58.6h13.3v151.1h-13.3c-1-33-7.9-58.6-16.4-58.6
	c-9.1,0-16.5,29.9-16.5,67c0,37.1,7.4,67,16.5,67c8.5,0,15.3-25.6,16.4-58.6h13.3v151.1h-13.3c-1-33-7.9-58.6-16.4-58.6
	c-9.1,0-16.5,29.9-16.5,67c0,36.9,7.4,67,16.5,67c8.5,0,15.3-25.6,16.4-58.6h13.3v100.4v38.2c-10.4,4.6-18.3,13.8-21.1,25h-14.3
	v-49.3c0-17.7-14.3-32-32-32s-32,14.3-32,32v116.1c0,17.7,14.3,32,32,32s32-14.3,32-32v-50.2h14c3.5,16.5,18.3,29,35.9,29
	s32.4-12.4,35.9-29h14v50.2c0,17.7,14.3,32,32,32c17.7,0,32-14.3,32-32v-116c0-17.7-14.3-32-32-32c-17.7,0-32,14.3-32,32v49.3h-14.3
	c-2.7-11.2-10.5-20.4-20.8-25V703.2h13.3c1,33,7.9,58.6,16.4,58.6c9.1,0,16.5-29.9,16.5-67c0-36.9-7.4-67-16.5-67
	c-8.5,0-15.3,25.6-16.4,58.6h-13.3V535.8h13.3c1,33,7.9,58.6,16.4,58.6c9.1,0,16.5-29.9,16.5-67s-7.4-67-16.5-67
	c-8.5,0-15.3,25.6-16.4,58.6h-13.3V368.3h13.3c1,33,7.9,58.6,16.4,58.6c9.1,0,16.5-29.9,16.5-67c0-36.9-7.4-67-16.5-67
	c-8.5,0-15.3,25.6-16.4,58.6h-13.3V200.8h13.3c1,33,7.9,58.6,16.4,58.6c9.1,0,16.5-29.9,16.5-67s-7.4-67-16.5-67
	c-8.5,0-15.3,25.6-16.4,58.6h-13.3v-85h289.4v85.3H791c-1-33-7.9-58.6-16.4-58.6c-9.1,0-16.5,29.9-16.5,67s7.4,67,16.5,67
	c8.5,0,15.3-25.6,16.4-58.6h13.3v151.1H791c-1-33-7.9-58.6-16.4-58.6c-9.1,0-16.5,29.9-16.5,67c0,36.9,7.4,67,16.5,67
	c8.5,0,15.3-25.6,16.4-58.6h13.3v151.1H791c-1-33-7.9-58.6-16.4-58.6c-9.1,0-16.5,29.9-16.5,67s7.4,67,16.5,67
	c8.5,0,15.3-25.6,16.4-58.6h13.3v151.1H791c-1-33-7.9-58.6-16.4-58.6c-9.1,0-16.5,29.9-16.5,67c0,36.9,7.4,67,16.5,67
	c8.5,0,15.3-25.6,16.4-58.6h13.3v101L850,771.2z"/>
</svg>
