<?xml version="1.0" encoding="utf-8"?>
<!-- Generator: Adobe Illustrator 24.3.0, SVG Export Plug-In . SVG Version: 6.00 Build 0)  -->
<svg version="1.1" id="Capa_1" xmlns="http://www.w3.org/2000/svg" xmlns:xlink="http://www.w3.org/1999/xlink" x="0px" y="0px"
	 viewBox="0 0 1000 1000" style="enable-background:new 0 0 1000 1000;" xml:space="preserve">
<g>
	<path d="M52.8,935.4c4.5,8.9,13.6,14.6,23.6,14.6h847.2c10,0,19.1-5.6,23.6-14.6c4.5-8.9,3.5-19.6-2.5-27.6L626.6,485.9
		c-5-6.6-12.8-10.6-21.1-10.6H394.5c-8.3,0-16.1,3.9-21.1,10.6L55.3,907.8C49.3,915.8,48.3,926.5,52.8,935.4L52.8,935.4z
		 M407.7,528.1h184.6l39.5,52.7H368.2L407.7,528.1z M328.6,633.6h342.8l39.5,52.7H289.1L328.6,633.6z M249.5,739.1h501l39.5,52.7
		H210L249.5,739.1z M170.4,844.5h659.2l41.3,52.7H129.1L170.4,844.5z"/>
	<path d="M631.8,422.7c8.3,0,16.1,3.9,21.1,10.6l31.6,42.2V449c0-101.8-82.8-184.6-184.6-184.6S315.4,347.3,315.4,449v26.4
		l31.6-42.2c5-6.6,12.8-10.6,21.1-10.6H631.8z"/>
	<path d="M923.6,50H76.4C61.8,50,50,61.8,50,76.4V660c0,14.6,11.8,26.4,26.4,26.4h80.8l105.5-140.6V449
		c0-130.9,106.4-237.3,237.3-237.3S737.3,318.2,737.3,449v96.7l105.5,140.6h80.8c14.6,0,26.4-11.8,26.4-26.4V76.4
		C950,61.8,938.2,50,923.6,50L923.6,50z"/>
</g>
</svg>
