<?xml version="1.0" encoding="utf-8"?>
<!-- Generator: Adobe Illustrator 24.3.0, SVG Export Plug-In . SVG Version: 6.00 Build 0)  -->
<svg version="1.1" id="Calque_1" xmlns="http://www.w3.org/2000/svg" xmlns:xlink="http://www.w3.org/1999/xlink" x="0px" y="0px"
	 viewBox="0 0 1000 1000" style="enable-background:new 0 0 1000 1000;" xml:space="preserve">
<style type="text/css">
	.st0{fill:none;}
	.st1{fill:none;stroke:#000000;stroke-width:0;stroke-linecap:round;stroke-linejoin:round;}
</style>
<g>
	<path class="st0" d="M250,595.7c-0.3,1.9-0.6,3.8-0.9,5.8C249.4,599.5,249.7,597.6,250,595.7z"/>
	<path class="st0" d="M173.4,710.3c3.1-1.5,5.7-3.3,8.3-5.2c0,0,0,0,0,0C179.1,707,176.5,708.8,173.4,710.3c3-1.9,5.7-3.5,8.3-5.2
		c1.6-1.2,3.2-2.4,4.9-3.6c0,0,0,0,0,0c0,0,0,0,0,0c4.4-3.1,8.2-6.3,11.9-10c4.4-3.1,7.5-6.9,11.3-10.7c17.6-19.5,30.1-42.7,37-68.4
		c0,0,0,0,0,0c0.7-3.1,1.4-6.2,2-9.3c0.1-0.6,0.2-1.1,0.3-1.7c0.3-1.9,0.6-3.8,0.9-5.8c1.1-7.9,1.6-16,1.2-24
		c0-38.9-13.8-74.7-37-102.9c-5-6.3-10-11.9-15.7-16.9c-0.6,0-0.6-0.6-1.3-0.6c-6.9-6.9-15.1-13.2-23.8-18.2
		c-6.3-3.8-13.2-7.5-20.7-10.7c-2.5-0.9-5.2-1.9-7.9-2.8c1.4,0.5,2.7,0.9,4,1.4c1.3,0.5,2.6,0.9,3.9,1.4c-1.3-0.5-2.5-0.9-3.9-1.4
		c-4-1.4-8.2-2.8-12.4-4.2c1.4,0.5,2.8,0.9,4.2,1.4c-1.4-0.5-2.8-0.9-4.2-1.4c-4.4-1.9-9.4-2.5-13.8-3.8c-7.5-1.3-14.9-2.3-22.6-2.8
		v323c21.2-1.4,41.3-6.7,59.6-15.3C164.6,715.3,169,712.8,173.4,710.3z"/>
	<path class="st0" d="M248.8,603.1c-0.6,3.1-1.2,6.2-2,9.3C247.6,609.3,248.2,606.2,248.8,603.1z"/>
	<path d="M578.1,335.7v-11.3c0-15.7-12.5-28.9-28.9-28.9h-35.8v-63.4h90.4v-84.1H100v118.2c130.3,4.5,240.1,90.9,279.2,209.4h133.6
		v-23.8h35.8c15.7,0,28.9-12.5,28.9-28.9v-16.3H900v-70.9H578.1z"/>
	<path d="M122.6,412.9c4.4,1.3,9.4,1.9,13.8,3.8c1.4,0.5,2.8,0.9,4.2,1.4c1.4,0.5,2.8,0.9,4.2,1.4c2.7,0.9,5.4,1.9,7.9,2.8
		c7.5,3.1,14.4,6.9,20.7,10.7c8.8,5,16.9,11.3,23.8,18.2c0.6,0,0.6,0.6,1.3,0.6c5.6,5,10.7,10.7,15.7,16.9c23.2,28.2,37,64,37,102.9
		c0.4,8-0.1,16.1-1.2,24c1.2-7.9,1.9-16,1.9-24c0-38.9-13.8-74.7-37-102.9c23.2,28.2,37,64,37,102.9c0,8.1-0.7,16.1-1.9,24
		c-0.3,1.9-0.6,3.8-0.9,5.8c-0.1,0.6-0.2,1.1-0.3,1.7c-0.6,3.1-1.2,6.2-2,9.3c0,0,0,0,0,0c0,0,0,0,0,0c0,0,0,0,0,0
		c-6.9,25.7-19.5,49.6-37,68.4c-3.8,3.8-6.9,7.5-11.3,10.7c-3.8,3.8-7.5,6.9-11.9,10c0,0,0,0,0,0c-1.5,1.3-3.2,2.4-4.9,3.6
		c-2.6,1.9-5.2,3.7-8.3,5.2c-4.4,2.5-8.8,5-13.8,7.5c-18.3,8.6-38.4,14-59.6,15.3v118.8c149.7-5.3,270.4-129.3,270.4-280.3
		S249.7,296.7,100,291.4v118.7C107.7,410.6,115.1,411.6,122.6,412.9z M160.2,717.8c4.4-2.5,8.8-5,13.8-7.5
		C169.6,712.8,165.3,715.3,160.2,717.8z M207.2,460.3c2.6,2.8,5.1,5.6,7.6,8.5C212.3,465.9,209.8,463.1,207.2,460.3
		c-2.6-2.8-5.3-5.6-8.1-8.5C202,454.6,204.6,457.4,207.2,460.3z M174,433c8.8,5,16.9,11.3,23.8,18.2C191,444.3,182.8,438.6,174,433
		c-6.9-3.8-13.8-7.5-20.7-10.7C160.9,425.4,167.8,429.2,174,433z"/>
	<path d="M249.1,601.4c-0.1,0.6-0.2,1.1-0.3,1.7C248.9,602.5,249,602,249.1,601.4z"/>
	<path class="st1" d="M198.5,691.5c-3.8,3.8-7.5,6.9-11.9,10"/>
	<path d="M174,710.3c-5,2.5-9.4,5-13.8,7.5C165.3,715.3,169.6,712.8,174,710.3z"/>
	<path d="M181.7,705.1C181.7,705.1,181.7,705.1,181.7,705.1c1.7-1.1,3.4-2.3,4.9-3.6c0,0,0,0,0,0
		C184.9,702.7,183.3,703.9,181.7,705.1z"/>
	<path d="M181.7,705.1c-2.5,1.7-5.3,3.3-8.3,5.2C176.5,708.8,179.1,707,181.7,705.1z"/>
	<path d="M246.8,612.4c-6.9,25.7-19.5,48.9-37,68.4C227.4,662,239.9,638.1,246.8,612.4z"/>
	<path class="st1" d="M248.8,603.1c0.1-0.6,0.2-1.1,0.3-1.7"/>
	<path class="st1" d="M250,595.7c-0.3,1.9-0.6,3.8-0.9,5.8"/>
	<path class="st1" d="M214.8,468.7c23.2,28.2,37,64,37,102.9c0,8.1-0.7,16.1-1.9,24"/>
	<path class="st1" d="M248.8,603.1c-0.6,3.1-1.2,6.2-2,9.3"/>
	<path class="st1" d="M246.8,612.4C246.8,612.4,246.8,612.4,246.8,612.4"/>
	<path d="M153.3,422.3c6.9,3.1,13.8,6.9,20.7,10.7C167.8,429.2,160.9,425.4,153.3,422.3z"/>
	<path class="st1" d="M207.2,460.3c2.6,2.8,5.1,5.6,7.6,8.5"/>
	<path d="M199.1,451.8c2.8,2.8,5.5,5.6,8.1,8.5C204.6,457.4,202,454.6,199.1,451.8z"/>
	<path class="st1" d="M148.8,420.9c1.3,0.5,2.6,0.9,3.9,1.4"/>
	<path d="M148.8,420.9c-1.3-0.5-2.7-0.9-4-1.4c-1.4-0.5-2.8-0.9-4.2-1.4c-1.4-0.5-2.8-0.9-4.2-1.4
		C140.6,418.1,144.9,419.5,148.8,420.9z"/>
	<path d="M174,433c8.8,5.6,16.9,11.3,23.8,18.2C191,444.3,182.8,438,174,433z"/>
</g>
</svg>
