<?xml version="1.0" encoding="utf-8"?>
<!-- Generator: Adobe Illustrator 24.3.0, SVG Export Plug-In . SVG Version: 6.00 Build 0)  -->
<svg version="1.1" id="Calque_1" xmlns="http://www.w3.org/2000/svg" xmlns:xlink="http://www.w3.org/1999/xlink" x="0px" y="0px"
	 viewBox="0 0 1000 1000" style="enable-background:new 0 0 1000 1000;" xml:space="preserve">
<g>
	<path d="M270.6,35c-15.8,7.8-34.3,7.8-50,0v930h50V35z"/>
	<path d="M187.2,35c-15.8,7.8-34.3,7.8-50,0v930h50V35z"/>
	<path d="M103.8,35c-15.8,7.8-34.3,7.8-50,0v930h50V35z"/>
	<path d="M304,35v930h50V481.2l-24.4-12.6c-8.2-4.2-11.4-14.3-7.1-22.5c1.6-3,4.1-5.5,7.1-7.1l24.4-12.6V35
		C338.3,42.8,319.8,42.8,304,35L304,35z"/>
	<g>
		<path d="M663.2,485.8c-14.8-8.8-33.8-4.7-33.8-4.7s-5.5,16.5,2.3,25.6c8.1,9.5,36.9,7,36.9,7S672.3,491.2,663.2,485.8z"/>
		<path d="M752.3,632.4c0,0,2.4,9.6-2.3,16.3c-4.3,6.3-11.8-1.2-14.6,5.8c-2.9,7.3-5.2,14.3,2.5,16.3c11.8,3.1,28-8.1,30.8-19.9
			C771.8,638.4,752.3,632.4,752.3,632.4z"/>
		<path d="M649.2,648.7c-4.6-6.7-4.7-20.1-4.7-20.1s-16.8,11-13.8,23.6c2.8,11.8,18.6,23,30.3,19.8c7.5-2,6.3-9,3.5-16.3
			C661.9,648.6,653.5,655,649.2,648.7z"/>
		<path d="M771.7,483.5c0,0-17.5-6.8-29.2,2.3c-12.3,9.5-9.3,28-9.3,28s21.5,3.8,30.4-3.5C775.9,500.2,771.7,483.5,771.7,483.5z"/>
		<path d="M896.2,103.5h-392c-27.6,0-50,22.4-50,50v248.4c0,6.2-3.5,11.9-9,14.8l-71.5,37.1l71.5,37.1c5.5,2.9,9,8.6,9,14.8v348.5
			c0,27.6,22.4,50,50,50h392c27.6,0,50-22.4,50-50V153.5C946.2,125.9,923.8,103.5,896.2,103.5z M832.4,295.3c0,0,62,39,50.7,62.6
			c-12.4,25.8-89.1,39.3-89.1,39.3l-26-38.2c0,0,58,0,72.7-19.8C848.9,328.1,832.4,295.3,832.4,295.3z M570.4,297.7
			c0,0-23.9,12.3-13.6,39.9c9.8,26.4,84.2,18.6,84.2,18.6c-10.8,13.7-18.7,30.9-26.4,44.5c0,0-97.7-6-101.8-48.7
			C508.5,305.7,570.4,297.7,570.4,297.7z M561.7,476.5c-20.2,11.8-70,5.8-70,5.8s16.8-67.7,40.8-79.3c5.9-2.5,12.3-3.5,18.8-3.5
			c19.6,0.1,40.9,9.4,57.1,16.3C608.3,415.8,582.7,464.1,561.7,476.5z M802.5,663.5c-0.3,15.9-39.7,44.5-39.7,44.5
			c-44,7.9-81.9,3.5-119.9-0.7c0,0-40.3-20.3-45-44.9c-3.6-19.3,31.2-56.5,31.2-56.5c-0.3-37.1-19.6-66.7-47.5-109.9
			c21.9-50.9,44.5-106.1,78.6-150.9c14.3-4.1,28.9,5.9,43.8,5.9c15-0.1,30.3-10.3,46.2-3.5c39.5,48.1,63.1,103.3,77.1,152.6
			c-21.5,36.5-51.5,69.5-55.5,106C771.6,605.9,802.9,643.1,802.5,663.5z M846.4,468.6c-26.9-16.3-24.5-17.7-46.7-58.5
			c0,0,29-12.1,52.7-12.1c7.9,0,15.2,1.4,20.6,5c23.5,15.8,35.7,70.2,35.7,70.2S873.3,484.9,846.4,468.6z"/>
	</g>
</g>
</svg>
