<?xml version="1.0" encoding="utf-8"?>
<!-- Generator: Adobe Illustrator 24.3.0, SVG Export Plug-In . SVG Version: 6.00 Build 0)  -->
<svg version="1.1" id="Calque_1" xmlns="http://www.w3.org/2000/svg" xmlns:xlink="http://www.w3.org/1999/xlink" x="0px" y="0px"
	 viewBox="0 0 1000 1000" style="enable-background:new 0 0 1000 1000;" xml:space="preserve">
<path d="M25,55.5v120.4l62.3,35H149v688l62.3,45.3v-49.4h124.4v-20.5v-18.1c44.9-1.4,79.8-10.9,79.8-22.3
	c0-12.4-40.7-22.5-91.2-22.5c-50.2,0-91.2,10-91.2,22.5c0,11.5,34.9,20.9,79.8,22.3v18.1H211.1V714.2H282
	c1.4,44.9,10.9,79.8,22.3,79.8c12.4,0,22.5-40.7,22.5-91.2c0-50.2-10-91.2-22.5-91.2c-11.5,0-20.9,34.9-22.3,79.8h-70.9V211.1h577.7
	v480.5h-71.7c-1.4-44.9-10.9-79.8-22.3-79.8c-12.4,0-22.5,40.9-22.5,91.2c0,50.5,10,91.2,22.5,91.2c11.5,0,20.9-34.9,22.3-79.8h71.7
	v160.1H686.3v-18.1c44.9-1.4,79.8-10.9,79.8-22.3c0-12.4-40.9-22.5-91.2-22.5c-50.5,0-91.2,10-91.2,22.5c0,11.5,34.9,20.9,79.8,22.3
	v18.1V895h125.2v49.6l62.3-45.3V211.1h65.2l58.8-35V55.6H25V55.5z M916.2,175.9H87.3V90.5h23.4v54.2h287.8V90.5H605v54.2h287.8V90.5
	h23.4L916.2,175.9L916.2,175.9z"/>
</svg>
