<?xml version="1.0" encoding="utf-8"?>
<!-- Generator: Adobe Illustrator 24.3.0, SVG Export Plug-In . SVG Version: 6.00 Build 0)  -->
<svg version="1.1" id="Calque_1" xmlns="http://www.w3.org/2000/svg" xmlns:xlink="http://www.w3.org/1999/xlink" x="0px" y="0px"
	 viewBox="0 0 1000 1000" style="enable-background:new 0 0 1000 1000;" xml:space="preserve">
<style type="text/css">
	.st0{fill:none;}
</style>
<g>
	<path class="st0" d="M750.9,601.5c-0.3-2-0.6-3.9-0.9-5.8C750.3,597.6,750.6,599.5,750.9,601.5z"/>
	<path class="st0" d="M840.4,717.8c18.3,8.6,38.4,13.9,59.6,15.3v-323c-7.7,0.5-15.1,1.5-22.6,2.8c-4.4,1.3-9.4,1.9-13.8,3.8
		c-1.4,0.5-2.8,0.9-4.2,1.4c1.4-0.5,2.8-0.9,4.2-1.4c-4.2,1.4-8.4,2.8-12.4,4.2c-1.4,0.5-2.6,0.9-3.9,1.4c1.3-0.5,2.6-0.9,3.9-1.4
		s2.6-0.9,4-1.4c-2.7,0.9-5.4,1.9-7.9,2.8c-7.5,3.2-14.4,6.9-20.7,10.7c-8.7,5-16.9,11.3-23.8,18.2c-0.7,0-0.7,0.6-1.3,0.6
		c-5.7,5-10.7,10.6-15.7,16.9c-23.2,28.2-37,64-37,102.9c-0.4,8,0.1,16.1,1.2,24c0.3,2,0.6,3.9,0.9,5.8c0.1,0.6,0.2,1.1,0.3,1.7
		c0.6,3.1,1.3,6.2,2,9.3l0,0c6.9,25.7,19.4,48.9,37,68.4c3.8,3.8,6.9,7.6,11.3,10.7c3.7,3.7,7.5,6.9,11.9,10l0,0l0,0
		c1.7,1.2,3.3,2.4,4.9,3.6c2.6,1.7,5.3,3.3,8.3,5.2c-3.1-1.5-5.7-3.3-8.3-5.2l0,0c2.6,1.9,5.2,3.7,8.3,5.2
		C831,712.8,835.4,715.3,840.4,717.8z"/>
	<path class="st0" d="M753.2,612.4c-0.8-3.1-1.4-6.2-2-9.3C751.8,606.2,752.4,609.3,753.2,612.4z"/>
	<path d="M421.9,335.7H100v70.9h322.5v16.3c0,16.4,13.2,28.9,28.9,28.9h35.8v23.8h133.6C659.9,357.1,769.7,270.7,900,266.2V148
		H396.2v84.1h90.4v63.4h-35.8c-16.4,0-28.9,13.2-28.9,28.9V335.7L421.9,335.7z"/>
	<path d="M900,410.1V291.4c-149.7,5.3-270.4,129.2-270.4,280.2s120.7,275,270.4,280.3V733.1c-21.2-1.3-41.3-6.7-59.6-15.3
		c-5-2.5-9.4-5-13.8-7.5c-3.1-1.5-5.7-3.3-8.3-5.2c-1.7-1.2-3.4-2.3-4.9-3.6l0,0c-4.4-3.1-8.1-6.2-11.9-10
		c-4.4-3.2-7.5-6.9-11.3-10.7c-17.5-18.8-30.1-42.7-37-68.4l0,0l0,0l0,0c-0.8-3.1-1.4-6.2-2-9.3c-0.1-0.6-0.2-1.1-0.3-1.7
		c-0.3-2-0.6-3.9-0.9-5.8c-1.2-7.9-1.9-15.9-1.9-24c0-38.9,13.8-74.7,37-102.9c-23.2,28.2-37,64-37,102.9c0,8,0.7,16.1,1.9,24
		c-1.1-7.9-1.6-16-1.2-24c0-38.9,13.8-74.7,37-102.9c5-6.2,10.1-11.9,15.7-16.9c0.7,0,0.7-0.6,1.3-0.6c6.9-6.9,15-13.2,23.8-18.2
		c6.3-3.8,13.2-7.6,20.7-10.7c2.5-0.9,5.2-1.9,7.9-2.8c1.4-0.5,2.8-0.9,4.2-1.4c1.4-0.5,2.8-0.9,4.2-1.4c4.4-1.9,9.4-2.5,13.8-3.8
		C884.9,411.6,892.3,410.6,900,410.1z M826,710.3c5,2.5,9.4,5,13.8,7.5C834.7,715.3,830.4,712.8,826,710.3z M800.9,451.8
		c-2.8,2.9-5.5,5.7-8.1,8.5c-2.6,2.8-5.1,5.6-7.6,8.5c2.5-2.9,5-5.7,7.6-8.5C795.4,457.4,798,454.6,800.9,451.8z M846.7,422.3
		c-6.9,3.2-13.8,6.9-20.7,10.7c-8.8,5.6-17,11.3-23.8,18.2c6.9-6.9,15-13.2,23.8-18.2C832.2,429.2,839.1,425.4,846.7,422.3z"/>
	<path d="M751.2,603.1c-0.1-0.6-0.2-1.1-0.3-1.7C751,602,751.1,602.5,751.2,603.1z"/>
	<path class="st0" d="M813.4,701.5c-4.4-3.1-8.1-6.2-11.9-10"/>
	<path d="M839.8,717.8c-4.4-2.5-8.8-5-13.8-7.5C830.4,712.8,834.7,715.3,839.8,717.8z"/>
	<path d="M813.4,701.5L813.4,701.5c1.5,1.3,3.2,2.5,4.9,3.6l0,0C816.7,703.9,815.1,702.7,813.4,701.5z"/>
	<path d="M826.6,710.3c-3-1.9-5.8-3.5-8.3-5.2C820.9,707,823.5,708.8,826.6,710.3z"/>
	<path d="M790.2,680.8c-17.5-19.5-30.1-42.7-37-68.4C760.1,638.1,772.6,662,790.2,680.8z"/>
	<path class="st0" d="M750.9,601.4c0.1,0.6,0.2,1.1,0.3,1.7"/>
	<path class="st0" d="M750.9,601.5c-0.3-2-0.6-3.9-0.9-5.8"/>
	<path class="st0" d="M750.1,595.6c-1.2-7.9-1.9-15.9-1.9-24c0-38.9,13.8-74.7,37-102.9"/>
	<path class="st0" d="M753.2,612.4c-0.8-3.1-1.4-6.2-2-9.3"/>
	<path class="st0" d="M753.2,612.4L753.2,612.4"/>
	<path d="M826,433c6.9-3.8,13.8-7.6,20.7-10.7C839.1,425.4,832.2,429.2,826,433z"/>
	<path class="st0" d="M785.2,468.8c2.5-2.9,5-5.7,7.6-8.5"/>
	<path d="M792.8,460.3c2.6-2.9,5.3-5.7,8.1-8.5C798,454.6,795.4,457.4,792.8,460.3z"/>
	<path class="st0" d="M847.3,422.3c1.3-0.5,2.6-0.9,3.9-1.4"/>
	<path d="M863.6,416.7c-1.4,0.5-2.8,0.9-4.2,1.4c-1.4,0.5-2.8,0.9-4.2,1.4c-1.3,0.5-2.7,0.9-4,1.4
		C855.1,419.5,859.4,418.1,863.6,416.7z"/>
	<path d="M802.2,451.2c6.9-6.9,15-12.6,23.8-18.2C817.2,438,809,444.3,802.2,451.2z"/>
</g>
</svg>
