<?xml version="1.0" encoding="utf-8"?>
<!-- Generator: Adobe Illustrator 24.3.0, SVG Export Plug-In . SVG Version: 6.00 Build 0)  -->
<svg version="1.1" id="Calque_1" xmlns="http://www.w3.org/2000/svg" xmlns:xlink="http://www.w3.org/1999/xlink" x="0px" y="0px"
	 viewBox="0 0 1000 1000" style="enable-background:new 0 0 1000 1000;" xml:space="preserve">
<g>
	<path d="M483.5,561.1H418c-5.2,0-9.4,4.2-9.4,9.4v131.1c0,5.2,4.2,9.4,9.4,9.4h65.5c5.2,0,9.4-4.2,9.4-9.4V570.4
		C492.9,565.3,488.7,561.1,483.5,561.1z"/>
	<path d="M581.8,561.1h-65.5c-5.2,0-9.4,4.2-9.4,9.4v131.1c0,5.2,4.2,9.4,9.4,9.4h65.5c5.2,0,9.4-4.2,9.4-9.4V570.4
		C591.2,565.3,587.1,561.1,581.8,561.1z"/>
	<path d="M150,172.7v88.7l45.9,25.8h45.4v506.6l45.9,33.4V562.5h83.2l9.5-0.1v-15.5h6.7c1.4,0,3.3-0.4,3.5-0.9l2.7-6.3
		c3.1-0.3,6.3-0.8,9.3-1.4c4.8,1,9.3,2.3,13.8,3.5c0.7,0.3,1.4,0.4,2.5,0.4s1.6-0.3,2.2-0.3c3.3-0.8,17.9-5.3,17.9-6.5
		c0-0.3-0.4-0.7-1-0.9l-10.8-4.7c1.4-1,2.7-2,3.9-3.1c6.1-0.3,12.7-0.4,18.7-1c1.6-0.3,2.7-0.7,2.7-1.2l0.1-7.6c0-0.7-1.3-1-3.1-1.2
		l-18.4-0.9c-1-1-2.2-2.1-3.8-3.1l10.7-4.7c0.7-0.3,0.9-0.5,0.9-0.8s-0.4-0.7-1-0.8c-5-1.8-11.1-4.2-17.1-5.6
		c-0.7-0.3-1.4-0.3-2.2-0.3c-0.9,0-1.6,0.1-2.2,0.3c-4.6,1-9,2.5-13.8,3.5c-3.1-0.7-6.4-1-9.8-1.4l-2.7-6.1c-0.3-0.7-1.8-1-3.7-1
		h-22.3c-1.4,0-3.3,0.4-3.5,0.9l-2.7,6.3c-3.1,0.4-6.3,0.8-9.1,1.4c-5-1-9.3-2.3-13.8-3.5c-0.7-0.3-1.6-0.4-2.5-0.4
		s-1.6,0.1-2.2,0.3c-3.1,0.8-17.9,5.3-17.9,6.5c0,0.3,0.4,0.7,0.9,0.9l10.8,4.7c-1.4,1-2.7,2-3.9,3.1c-6.1,0.3-12.7,0.5-18.7,1
		c-1.6,0.3-2.7,0.7-2.7,1.2v7.6c0,0.7,1.3,1,3.1,1.2l18.4,0.9c1,1,2.2,2.1,3.8,3.1l-10.7,4.7c-0.7,0.3-0.9,0.5-0.9,0.8
		s0.4,0.7,1,0.8c4.8,1.8,11,4.2,16.8,5.6c0.7,0.3,1.4,0.3,2.2,0.3c0.9,0,1.6-0.1,2.2-0.3c4.6-1,9-2.5,13.8-3.5
		c3.1,0.7,6.4,1,9.9,1.4l2.7,6.1c0.3,0.7,1.8,1,3.7,1h6.1v6.1h-83.2V287.2h183.5c-3.1,0-5.6,2.5-5.6,5.6s2.5,5.6,5.6,5.6h15.9v241.7
		h-15.9c-3.1,0-5.6,2.5-5.6,5.6s2.5,5.6,5.6,5.6h58.6c3.1,0,5.6-2.5,5.6-5.6s-2.5-5.6-5.6-5.6h-15.9V298.4h15.9
		c3.1,0,5.6-2.5,5.6-5.6s-2.5-5.6-5.6-5.6h183.5V553h-83.2v-6.1h6.1c1.8,0,3.4-0.4,3.7-1l2.7-6.1c3.5-0.4,6.8-0.8,9.9-1.4
		c4.8,1,9.3,2.5,13.8,3.5c0.7,0.1,1.3,0.3,2.2,0.3c0.8,0,1.6,0,2.2-0.3c5.9-1.4,12-3.8,16.8-5.6c0.7-0.1,1-0.5,1-0.8
		s-0.3-0.5-0.9-0.8l-10.7-4.7c1.6-1,2.7-2.1,3.8-3.1l18.4-0.9c1.8-0.1,3.1-0.5,3.1-1.2v-7.6c0-0.5-1.2-0.9-2.7-1.2
		c-6-0.5-12.5-0.8-18.7-1c-1.2-1.2-2.5-2.1-3.9-3.1l10.8-4.7c0.5-0.3,0.9-0.7,0.9-0.9c0-1.2-14.7-5.7-17.9-6.5
		c-0.7-0.1-1.3-0.3-2.2-0.3s-1.8,0.1-2.5,0.4c-4.6,1.2-8.9,2.5-13.8,3.5c-2.9-0.7-6-1-9.1-1.4l-2.7-6.3c-0.3-0.5-2.1-0.9-3.5-0.9
		h-22.3c-1.8,0-3.4,0.4-3.7,1l-2.7,6.1c-3.4,0.4-6.7,0.8-9.8,1.4c-4.8-1-9.3-2.5-13.8-3.5c-0.7-0.1-1.3-0.3-2.2-0.3
		c-0.8,0-1.6,0-2.2,0.3c-6,1.4-12.1,3.8-17.1,5.6c-0.7,0.1-1,0.5-1,0.8s0.3,0.5,0.9,0.8l10.7,4.7c-1.6,1-2.7,2.1-3.8,3.1l-18.4,0.9
		c-1.8,0.1-3.1,0.5-3.1,1.2l0.1,7.6c0,0.5,1.2,0.9,2.7,1.2c6,0.7,12.5,0.8,18.7,1c1.2,1.2,2.5,2.1,3.9,3.1l-10.8,4.7
		c-0.7,0.3-1,0.7-1,0.9c0,1.2,14.6,5.7,17.9,6.5c0.7,0,1.2,0.3,2.2,0.3s1.8-0.1,2.5-0.4c4.6-1.2,9-2.5,13.8-3.5
		c3,0.7,6.1,1.2,9.3,1.4l2.7,6.3c0.3,0.5,2.1,0.9,3.5,0.9h6.7v15.5l9.5,0.1h83.2v264.8l45.9-33.4V287.2h47.7l43.6-25.8v-88.7
		L150,172.7L150,172.7z M806.3,261.4H804H196v-62.9h17.2v39.9h211.9v-39.9h152.1v39.9h211.9v-39.9h17.2V261.4z"/>
</g>
</svg>
