<?xml version="1.0" encoding="utf-8"?>
<!-- Generator: Adobe Illustrator 24.3.0, SVG Export Plug-In . SVG Version: 6.00 Build 0)  -->
<svg version="1.1" id="Layer_1" xmlns="http://www.w3.org/2000/svg" xmlns:xlink="http://www.w3.org/1999/xlink" x="0px" y="0px"
	 viewBox="0 0 1000 1000" style="enable-background:new 0 0 1000 1000;" xml:space="preserve">
<path d="M915,150.2c-33.1,0-59.9,26.9-60,60v77.6H745.6c2.4-2.4,5.1-5.1,7.8-7.8l0.1-0.1l0,0c3.8-3.7,3.9-9.8,0.1-13.6
	c-3.7-3.8-9.8-3.9-13.6-0.1l0,0l0,0l0,0c-6.7,6.6-13.7,13.4-16.1,14c-2.5-0.6-9.4-7.4-16.1-14l-0.1-0.1c-3.8-3.7-9.9-3.7-13.6,0.1
	c-3.7,3.8-3.7,9.9,0.1,13.6c2.8,2.7,5.6,5.5,8,7.9H521.7c2.4-2.4,5.2-5.2,7.9-7.9l0.1-0.1c3.8-3.7,3.9-9.8,0.1-13.6
	c-3.7-3.8-9.8-3.9-13.6-0.1l-0.1,0.1c-6.7,6.6-13.7,13.4-16.2,14c-2.5-0.6-9.4-7.4-16.2-14l-0.1-0.1c-3.8-3.7-9.9-3.7-13.6,0.1
	c-3.7,3.8-3.7,9.9,0.1,13.6l0.1,0.1c2.7,2.7,5.5,5.4,7.9,7.9H297.8c2.4-2.4,5.2-5.2,7.9-7.9l0.1-0.1c3.8-3.7,3.9-9.8,0.1-13.6
	c-3.7-3.8-9.8-3.9-13.6-0.1l-0.1,0.1c-6.7,6.6-13.7,13.4-16.2,14c-2.5-0.6-9.4-7.4-16.2-14l-0.1-0.1c-3.8-3.7-9.9-3.7-13.6,0.1
	c-3.7,3.8-3.7,9.9,0.1,13.6l0,0l0.1,0.1c2.7,2.7,5.5,5.4,7.9,7.9H145v-77.6c0.2-33.1-26.5-60.1-59.6-60.3
	c-33.1-0.2-60.1,26.5-60.3,59.6c0,0.2,0,0.5,0,0.7v630.4c0,5.3,4.3,9.6,9.6,9.6h100.7c5.3,0,9.6-4.3,9.6-9.6V735.7h107.5
	c-1.9,1.9-4,3.9-6,6l-0.1,0.1c-3.8,3.7-3.9,9.8-0.2,13.6c3.7,3.8,9.8,3.9,13.6,0.2c0,0,0.1-0.1,0.1-0.1l0.1-0.1
	c6.7-6.6,13.7-13.4,16.2-14c2.5,0.6,9.4,7.4,16.2,14l0.1,0.1c3.8,3.7,9.9,3.7,13.6,0c3.7-3.8,3.7-9.9,0-13.6c0,0-0.1-0.1-0.1-0.1
	l-0.1-0.1c-2-2-4.1-4-6-6h176.7c-1.9,1.9-4,3.9-6,6l-0.1,0.1c-3.8,3.7-3.9,9.8-0.2,13.6c3.7,3.8,9.8,3.9,13.6,0.2
	c0,0,0.1-0.1,0.1-0.1l0.1-0.1c6.7-6.6,13.7-13.4,16.2-14c2.5,0.6,9.4,7.4,16.2,14l0.1,0.1c3.8,3.7,9.9,3.7,13.6,0
	c3.7-3.8,3.7-9.9,0-13.6c0,0-0.1-0.1-0.1-0.1l-0.1-0.1c-2-2-4.1-4-6-6h176.7c-1.9,1.9-4,4-6.1,6c-3.8,3.7-3.9,9.8-0.2,13.6
	c3.7,3.8,9.8,3.9,13.6,0.2c0,0,0.1-0.1,0.1-0.1l0.1-0.1c6.7-6.6,13.7-13.4,16.1-14c2.5,0.6,9.4,7.4,16.1,14l0,0l0,0l0,0
	c3.8,3.7,9.9,3.7,13.6,0s3.7-9.9,0-13.6c0,0-0.1-0.1-0.1-0.1l0,0l-0.1-0.1c-2-2-4.1-4-6-5.9h107.5v104.8c0,5.3,4.3,9.6,9.6,9.6
	h100.7c5.3,0,9.6-4.3,9.6-9.6V210.2C975,177,948.1,150.2,915,150.2z M855,716.5H747.5c1.9-1.9,3.9-3.9,6-5.9l0.1-0.1l0,0
	c3.8-3.7,3.9-9.8,0.2-13.6c-3.7-3.8-9.8-3.9-13.6-0.2c0,0-0.1,0.1-0.1,0.1l0,0l0,0l0,0c-6.7,6.6-13.7,13.4-16.1,14
	c-2.5-0.6-9.4-7.4-16.1-14l-0.1-0.1c-3.8-3.7-9.9-3.7-13.6,0s-3.7,9.9,0,13.6c0,0,0.1,0.1,0.1,0.1c2.1,2,4.2,4.1,6.1,6H523.6
	c1.9-1.9,4-3.9,6-5.9l0.1-0.1c3.8-3.7,3.9-9.8,0.2-13.6c-3.7-3.8-9.8-3.9-13.6-0.2c0,0-0.1,0.1-0.1,0.1l-0.1,0.1
	c-6.7,6.6-13.7,13.4-16.2,14c-2.5-0.6-9.4-7.4-16.2-14l-0.1-0.1c-3.8-3.7-9.9-3.7-13.6,0s-3.7,9.9,0,13.6c0,0,0.1,0.1,0.1,0.1
	l0.1,0.1c2,2,4.1,4,6,5.9H299.7c1.9-1.9,4-3.9,6-5.9l0.1-0.1c3.8-3.7,3.9-9.8,0.2-13.6c-3.7-3.8-9.8-3.9-13.6-0.2
	c0,0-0.1,0.1-0.1,0.1l-0.1,0.1c-6.7,6.6-13.7,13.4-16.2,14c-2.5-0.6-9.4-7.4-16.2-14l-0.1-0.1c-3.8-3.7-9.9-3.7-13.6,0
	c-3.7,3.8-3.7,9.9,0,13.6c0,0,0.1,0.1,0.1,0.1l0.1,0.1c2,2,4.1,4,6,5.9H145V521.4h107.5c-1.9,1.9-4,3.9-6,5.9l-0.1,0.1
	c-3.8,3.7-3.9,9.8-0.2,13.6c3.7,3.8,9.8,3.9,13.6,0.2c0,0,0.1-0.1,0.1-0.1l0.1-0.1c6.7-6.6,13.7-13.4,16.2-14
	c2.5,0.6,9.4,7.4,16.2,14l0.1,0.1c3.8,3.7,9.9,3.7,13.6,0c3.7-3.8,3.7-9.9,0-13.6c0,0-0.1-0.1-0.1-0.1l-0.1-0.1c-2-2-4.1-4-6-5.9
	h176.7c-1.9,1.9-4,3.9-6,5.9l-0.1,0.1c-3.8,3.7-3.9,9.8-0.2,13.6c3.7,3.8,9.8,3.9,13.6,0.2c0,0,0.1-0.1,0.1-0.1l0.1-0.1
	c6.7-6.6,13.7-13.4,16.2-14c2.5,0.6,9.4,7.4,16.2,14l0.1,0.1c3.8,3.7,9.9,3.7,13.6,0c3.7-3.8,3.7-9.9,0-13.6c0,0-0.1-0.1-0.1-0.1
	l-0.1-0.1c-2-2-4.1-4-6-5.9h176.7c-1.9,1.9-4,4-6.1,6c-3.8,3.7-3.9,9.8-0.2,13.6c3.7,3.8,9.8,3.9,13.6,0.2c0,0,0.1-0.1,0.1-0.1
	l0.1-0.1c6.7-6.6,13.7-13.4,16.1-14c2.5,0.6,9.4,7.4,16.1,14l0,0l0,0l0,0c3.8,3.7,9.9,3.7,13.6,0s3.7-9.9,0-13.6
	c0,0-0.1-0.1-0.1-0.1l0,0l-0.1-0.1c-2-2-4.1-4-6-5.9h107.5L855,716.5z M855,502.1H747.5c1.9-1.9,3.9-3.9,6-5.9l0.1-0.1l0,0
	c3.8-3.7,3.9-9.8,0.1-13.6c-3.7-3.8-9.8-3.9-13.6-0.1l0,0l0,0l0,0c-6.7,6.6-13.7,13.4-16.1,14c-2.5-0.6-9.4-7.4-16.1-14l-0.1-0.1
	c-3.8-3.7-9.9-3.7-13.6,0.1c-3.7,3.8-3.7,9.9,0.1,13.6c2.1,2,4.2,4.1,6.1,6H523.6c1.9-1.9,4-3.9,6-5.9l0.1-0.1
	c3.8-3.7,3.9-9.8,0.1-13.6c-3.7-3.8-9.8-3.9-13.6-0.1l-0.1,0.1c-6.7,6.6-13.7,13.4-16.2,14c-2.5-0.6-9.4-7.4-16.2-14l-0.1-0.1
	c-3.8-3.7-9.9-3.7-13.6,0.1c-3.7,3.8-3.7,9.9,0.1,13.6l0.1,0.1c2,2,4.1,4,6,5.9H299.7c1.9-1.9,4-3.9,6-5.9l0.1-0.1
	c3.8-3.7,3.9-9.8,0.1-13.6c-3.7-3.8-9.8-3.9-13.6-0.1l-0.1,0.1c-6.7,6.6-13.7,13.4-16.2,14c-2.5-0.6-9.4-7.4-16.2-14l-0.1-0.1
	c-3.8-3.7-9.9-3.7-13.6,0.1s-3.7,9.9,0.1,13.6l0.1,0.1c2,2,4.1,4,6,5.9H145V307h105.6c-1.3,1.3-2.7,2.7-4.1,4l-0.1,0.1
	c-3.8,3.7-3.9,9.8-0.1,13.6s9.8,3.9,13.6,0.1l0,0l0.1-0.1c6.7-6.6,13.7-13.4,16.2-14c2.5,0.6,9.4,7.4,16.2,14l0.1,0.1
	c3.8,3.7,9.9,3.7,13.6-0.1c3.7-3.8,3.7-9.9-0.1-13.6l-0.1-0.1c-1.4-1.3-2.8-2.7-4.1-4h172.9c-1.3,1.3-2.7,2.7-4.1,4l-0.1,0.1
	c-3.8,3.7-3.9,9.8-0.1,13.6c3.7,3.8,9.8,3.9,13.6,0.1l0,0l0.1-0.1c6.7-6.6,13.7-13.4,16.2-14c2.5,0.6,9.4,7.4,16.2,14l0.1,0.1
	c3.8,3.7,9.9,3.7,13.6-0.1c3.7-3.8,3.7-9.9-0.1-13.6l0,0l-0.1-0.1c-1.4-1.3-2.8-2.7-4.1-4h172.9c-1.4,1.3-2.8,2.7-4.1,4.1
	c-3.8,3.7-3.9,9.8-0.1,13.6c3.7,3.8,9.8,3.9,13.6,0.1l0,0l0.1-0.1c6.7-6.6,13.7-13.4,16.1-14c2.5,0.6,9.4,7.4,16.1,14l0,0l0,0l0,0
	c3.8,3.7,9.9,3.7,13.6-0.1c3.7-3.8,3.7-9.9-0.1-13.6l0,0l-0.1-0.1c-1.4-1.3-2.7-2.7-4-4h105.6L855,502.1z"/>
</svg>
