<?xml version="1.0" encoding="utf-8"?>
<!-- Generator: Adobe Illustrator 24.3.0, SVG Export Plug-In . SVG Version: 6.00 Build 0)  -->
<svg version="1.1" id="Calque_1" xmlns="http://www.w3.org/2000/svg" xmlns:xlink="http://www.w3.org/1999/xlink" x="0px" y="0px"
	 viewBox="0 0 1000 1000" style="enable-background:new 0 0 1000 1000;" xml:space="preserve">
<path d="M932.7,952.2L750,659.9V531.2h14.4c61.1,0,110.6-49.5,110.6-110.6c0-35.7-17.3-69.3-46.3-90l-95-67.9
	c-2.1-1.1-4.4-1.4-6.6-2.4c15.2-24.4,29.7-58.1,40.1-97C789.3,80.8,784.9,8,757.4,0.6c-27.5-7.4-67.7,53.5-89.8,136.1
	c-5.3,19.8-9,39-11.3,56.9c-2.3-17.9-6-37.1-11.3-56.9C622.8,54.1,582.6-6.8,555.1,0.6s-31.9,80.2-9.8,162.7
	c13.6,50.6,33.9,92.9,54,116.4c-17.8,15.5-31.1,36.1-35.2,61.6c-1.1,6.5-1.6,13.1-1.6,19.9V500h-25C375,500,238.8,610.9,199.4,761
	c-13-6.8-27.5-11-43.1-11c-51.8,0-93.8,42-93.8,93.8s42,93.8,93.8,93.8c15.5,0,29.9-4.1,42.8-10.8c19.7,43.1,63,73.3,113.5,73.3
	h281.3c17.3,0,31.3-14,31.3-31.3v-31.3c0-34.5-28-62.5-62.5-62.5h-44.1l145.2-117.5L806,985.3c5.7,9.1,15.7,14.7,26.5,14.7h73.7
	C930.7,1000,945.7,973,932.7,952.2z M718.8,406.2c-17.3,0-31.3-14-31.3-31.3s14-31.3,31.3-31.3c17.3,0,31.3,14,31.3,31.3
	S736,406.2,718.8,406.2z"/>
</svg>
