<?xml version="1.0" encoding="utf-8"?>
<!-- Generator: Adobe Illustrator 24.3.0, SVG Export Plug-In . SVG Version: 6.00 Build 0)  -->
<svg version="1.1" id="Calque_1" xmlns="http://www.w3.org/2000/svg" xmlns:xlink="http://www.w3.org/1999/xlink" x="0px" y="0px"
	 viewBox="0 0 1000 1000" style="enable-background:new 0 0 1000 1000;" xml:space="preserve">
<path d="M150,172.6v88.7l45.9,25.8h45.4v506.7l45.9,33.4v-36.4h91.6v-15.1v-13.3c33.1-1,58.8-8,58.8-16.4c0-9.1-30-16.6-67.2-16.6
	c-37,0-67.2,7.4-67.2,16.6c0,8.5,25.7,15.4,58.8,16.4v13.3h-74.9V657.8h52.2c1,33.1,8,58.8,16.4,58.8c9.1,0,16.6-30,16.6-67.2
	c0-37-7.4-67.2-16.6-67.2c-8.5,0-15.4,25.7-16.4,58.8h-52.2V287.2h425.5v353.9h-52.8c-1-33.1-8-58.8-16.4-58.8
	c-9.1,0-16.6,30.1-16.6,67.2c0,37.2,7.4,67.2,16.6,67.2c8.5,0,15.4-25.7,16.4-58.8h52.8v117.9h-75.5v-13.3c33.1-1,58.8-8,58.8-16.4
	c0-9.1-30.1-16.6-67.2-16.6c-37.2,0-67.2,7.4-67.2,16.6c0,8.5,25.7,15.4,58.8,16.4v13.3v15.1h92.2v36.5l45.9-33.4V287.2h48
	l43.3-25.8v-88.7H150V172.6z M806.4,261.3H195.9v-62.9h17.2v39.9h212v-39.9h152.1v39.9h212v-39.9h17.2L806.4,261.3L806.4,261.3z"/>
</svg>
