<?xml version="1.0" encoding="utf-8"?>
<!-- Generator: Adobe Illustrator 24.3.0, SVG Export Plug-In . SVG Version: 6.00 Build 0)  -->
<svg version="1.1" id="Calque_1" focusable="false" xmlns="http://www.w3.org/2000/svg" xmlns:xlink="http://www.w3.org/1999/xlink"
	 x="0px" y="0px" viewBox="0 0 1000 1000" style="enable-background:new 0 0 1000 1000;" xml:space="preserve">
<path d="M202.2,533.9c-58,0-105,47-105,105s47,105,105,105s105-47,105-105S260.2,533.9,202.2,533.9z M202.2,679.4
	c-22.3,0-40.4-18.1-40.4-40.4s18.1-40.4,40.4-40.4s40.4,18.1,40.4,40.4S224.5,679.4,202.2,679.4z"/>
<path d="M784.6,533.9c-58,0-105,47-105,105s47,105,105,105s105-47,105-105S842.6,533.9,784.6,533.9z M784.6,679.4
	c-22.3,0-40.4-18.1-40.4-40.4s18.1-40.4,40.4-40.4S825,616.7,825,639S806.9,679.4,784.6,679.4z"/>
<path d="M970,499.4h-20v-25.9c0-29.2-23.7-52.9-52.9-52.9H790.7L680.8,300.8c-15-16.4-36.3-25.8-58.5-25.8H473.5
	c-43.9,0-79.4,35.6-79.4,79.4v66.2H102.9c-29.2,0-52.9,23.7-52.9,52.9v25.9H30c-11.1,0-20,9-20,20v40c0,11,8.9,20,20,20h20v13.2
	c0,14.6,11.9,26.5,26.5,26.5H78c2.2-14.2,6.9-27.5,13.4-39.7H92l-0.3-0.5c21.3-39.1,62.8-65.7,110.5-65.7
	c62.7,0,114.7,45.9,124.2,105.9h67.7h266.3c9.5-60,61.5-105.9,124.2-105.9s114.7,45.9,124.2,105.9h1.6c21.9,0,39.7-17.8,39.7-39.7
	h20c11.1,0,20-9,20-20v-40C990,508.4,981.1,499.4,970,499.4z M539.7,420.6h-92.6v-66.2c0-14.6,11.9-26.5,26.5-26.5h66.2V420.6z
	 M592.6,420.6v-92.6h29.7c7.4,0,14.5,3.1,19.5,8.6l77.1,84.1H592.6z"/>
</svg>
