<?xml version="1.0" encoding="utf-8"?>
<!-- Generator: Adobe Illustrator 24.3.0, SVG Export Plug-In . SVG Version: 6.00 Build 0)  -->
<svg version="1.1" id="Calque_1" xmlns="http://www.w3.org/2000/svg" xmlns:xlink="http://www.w3.org/1999/xlink" x="0px" y="0px"
	 viewBox="0 0 1000 1000" style="enable-background:new 0 0 1000 1000;" xml:space="preserve">
<path d="M856.3,775.8L854,65.4h-62.9V25H576v40.5H421.6V25h-215v40.5h-62.9v709.7l46.6,33.9V706.8h13.4c1,33.6,8,59.7,16.7,59.7
	c9.3,0,16.8-30.4,16.8-68.2c0-37.6-7.5-68.2-16.8-68.2c-8.7,0-15.6,26.1-16.7,59.7h-13.5V536.3h13.5c1,33.6,8,59.7,16.7,59.7
	c9.3,0,16.8-30.4,16.8-68.2s-7.5-68.2-16.8-68.2c-8.7,0-15.6,26.1-16.7,59.7h-13.5V365.9h13.5c1,33.6,8,59.7,16.7,59.7
	c9.3,0,16.8-30.4,16.8-68.2c0-37.6-7.5-68.2-16.8-68.2c-8.7,0-15.6,26.1-16.7,59.7h-13.5V195.3h13.5c1,33.6,8,59.7,16.7,59.7
	c9.3,0,16.8-30.4,16.8-68.2s-7.5-68.2-16.8-68.2c-8.7,0-15.6,26.1-16.7,59.7h-13.5V91.6h294.9v86.5h-13.5c-1-33.6-8-59.7-16.7-59.7
	c-9.3,0-16.8,30.4-16.8,68.2s7.5,68.2,16.8,68.2c8.7,0,15.6-26.1,16.7-59.7h13.5v153.6h-13.5c-1-33.6-8-59.7-16.7-59.7
	c-9.3,0-16.8,30.4-16.8,68.2c0,37.6,7.5,68.2,16.8,68.2c8.7,0,15.6-26.1,16.7-59.7h13.5v153.8h-13.5c-1-33.6-8-59.7-16.7-59.7
	c-9.3,0-16.8,30.4-16.8,68.2s7.5,68.2,16.8,68.2c8.7,0,15.6-26.1,16.7-59.7h13.5v153.8h-13.5c-1-33.6-8-59.7-16.7-59.7
	c-9.3,0-16.8,30.4-16.8,68.2c0,37.6,7.5,68.2,16.8,68.2c8.7,0,15.6-26.1,16.7-59.7h13.5v102.2V849c-10.6,4.7-18.6,14-21.5,25.5
	h-14.6v-50.2c0-18-14.6-32.6-32.6-32.6c-18,0-32.6,14.6-32.6,32.6v118.2c0,18,14.6,32.6,32.6,32.6c18,0,32.6-14.6,32.6-32.6v-51.1
	h14.3c3.6,16.8,18.6,29.5,36.6,29.5c17.9,0,33-12.6,36.6-29.5h14.3v51.1c0,18,14.6,32.6,32.6,32.6c18,0,32.6-14.6,32.6-32.6V824.3
	c0-18-14.6-32.6-32.6-32.6c-18,0-32.6,14.6-32.6,32.6v50.2h-14.6c-2.7-11.4-10.7-20.8-21.2-25.5V706.5h13.5c1,33.6,8,59.7,16.7,59.7
	c9.3,0,16.8-30.4,16.8-68.2c0-37.6-7.5-68.2-16.8-68.2c-8.7,0-15.6,26.1-16.7,59.7H515V536.1h13.5c1,33.6,8,59.7,16.7,59.7
	c9.3,0,16.8-30.4,16.8-68.2s-7.5-68.2-16.8-68.2c-8.7,0-15.6,26.1-16.7,59.7H515V365.6h13.5c1,33.6,8,59.7,16.7,59.7
	c9.3,0,16.8-30.4,16.8-68.2c0-37.6-7.5-68.2-16.8-68.2c-8.7,0-15.6,26.1-16.7,59.7H515V195h13.5c1,33.6,8,59.7,16.7,59.7
	c9.3,0,16.8-30.4,16.8-68.2s-7.5-68.2-16.8-68.2c-8.7,0-15.6,26.1-16.7,59.7H515V91.4h294.6v86.8h-13.3c-1-33.6-8-59.7-16.7-59.7
	c-9.3,0-16.8,30.4-16.8,68.2s7.5,68.2,16.8,68.2c8.7,0,15.6-26.1,16.7-59.7h13.5v153.8h-13.5c-1-33.6-8-59.7-16.7-59.7
	c-9.3,0-16.8,30.4-16.8,68.2c0,37.6,7.5,68.2,16.8,68.2c8.7,0,15.6-26.1,16.7-59.7h13.5v153.8h-13.5c-1-33.6-8-59.7-16.7-59.7
	c-9.3,0-16.8,30.4-16.8,68.2s7.5,68.2,16.8,68.2c8.7,0,15.6-26.1,16.7-59.7h13.5V691h-13.5c-1-33.6-8-59.7-16.7-59.7
	c-9.3,0-16.8,30.4-16.8,68.2c0,37.6,7.5,68.2,16.8,68.2c8.7,0,15.6-26.1,16.7-59.7h13.5V811L856.3,775.8z"/>
</svg>
