<?xml version="1.0" encoding="utf-8"?>
<!-- Generator: Adobe Illustrator 24.3.0, SVG Export Plug-In . SVG Version: 6.00 Build 0)  -->
<svg version="1.1" id="Calque_1" xmlns="http://www.w3.org/2000/svg" xmlns:xlink="http://www.w3.org/1999/xlink" x="0px" y="0px"
	 viewBox="0 0 1000 1000" style="enable-background:new 0 0 1000 1000;" xml:space="preserve">
<path d="M25,56.4v120.2l62.3,35h61.6v686.7l62.3,45.3V211.7h53c-9.8,0-17.6,8-17.6,17.6v53c0,9.8,8,17.6,17.6,17.6h65.2v53.8
	c-4.5,0.5-8.7,1.2-13.3,2.2c-48.4,8.7-79.2,27.4-83.6,40.3c-7.7,22.8,46.1,46.1,96.7,47.1v48v8.5c-4.5,0.5-8.7,1.2-13.3,2.2
	c-48.4,8.7-79.2,27.4-83.6,40.3c-7.7,22.8,46.1,46.1,96.7,47.1v47.6v8.5c-2.2,0.1-4.5,0.5-6.5,0.9c-2.2,0.4-4.5,0.7-6.8,1.1
	c-48.4,8.7-79.2,27.4-83.6,40.3c-7.7,22.8,46.1,46.1,96.7,47.1v56.4c-4.5,0.5-8.7,1.2-13.3,2.2c-48.4,8.7-79.2,27.4-83.6,40.3
	c-7.7,22.8,46.1,46.1,96.7,47.1v54.7h14.5c4.5-0.5,8.7-1.2,13.2-2.2c48.4-8.7,79.2-27.4,83.6-40.3c7.7-22.7-46-46-96.4-47.1v-56.4
	c4.5-0.5,8.7-1.2,13.2-2.2c6-1.1,11.8-2.3,17.4-3.7c2.8-0.7,5.4-1.4,8-2.2c6.5-1.9,12.6-3.9,18-6c2.2-0.9,4.2-1.8,6.4-2.7
	c1.1-0.5,1.9-0.9,3-1.4c7.7-3.5,14.4-7.5,19.3-11.1c6.2-4.6,10.3-9.2,11.5-13.3c7.7-22.7-46-46-96.4-47.1v-56.4
	c4.5-0.5,8.7-1.2,13.2-2.2c48.4-8.7,79.2-27.4,83.6-40.3c7.7-22.7-46-46-96.4-47.1v-56.4c4.5-0.5,8.7-1.2,13.2-2.2
	c48.4-8.7,79.2-27.4,83.6-40.3c7.7-22.7-46-46-96.4-47.1V299.7h61.7c9.8,0,17.6-8,17.6-17.6v-53.2c0-9.8-8-17.6-17.6-17.6h187.7
	c-9.8,0-17.6,8-17.6,17.6v53c0,9.8,8,17.6,17.6,17.6h61.7v108.6c-50.7,1.1-104.3,24.3-96.4,47.1c4.5,12.9,35,31.7,83.6,40.3
	c4.5,0.7,8.7,1.6,13.2,2.2v56.6c-50.7,1.1-104.3,24.3-96.4,47.1c4.5,12.9,35,31.7,83.6,40.3c4.5,0.7,8.7,1.6,13.2,2.2v56.4
	c-50.7,1.1-104.3,24.3-96.4,47.1c1.4,4.1,5.3,8.7,11.5,13.3c5,3.7,11.5,7.6,19.3,11.1c1.1,0.5,1.9,0.9,3,1.4
	c2.2,0.9,4.2,1.8,6.4,2.7c5.4,2.2,11.5,4.2,18,6c2.7,0.7,5.3,1.4,8,2.2c5.4,1.4,11.3,2.7,17.4,3.7c4.5,0.7,8.7,1.6,13.2,2.2v56.4
	c-50.7,1.1-104.3,24.3-96.4,47.1c4.5,12.9,35,31.7,83.6,40.3c4.5,0.7,8.7,1.6,13.2,2.2h14.5v-54.7c50.7-0.9,104.4-24,96.7-47.1
	c-4.5-12.9-35-31.7-83.6-40.3c-4.5-0.7-8.8-1.6-13.3-2.2v-56.4c50.7-0.9,104.4-24,96.7-47.1c-4.5-12.9-35-31.7-83.6-40.3
	c-2.3-0.4-4.5-0.7-6.8-1.1c-2.3-0.4-4.5-0.7-6.5-0.9v-8.5v-48c50.7-0.9,104.4-24,96.7-47.1c-4.5-12.9-35-31.7-83.6-40.3
	c-4.5-0.7-8.8-1.6-13.3-2.2v-8.5v-48c50.7-0.9,104.4-24,96.7-47.1c-4.5-12.9-35-31.7-83.6-40.3c-4.5-0.7-8.8-1.6-13.3-2.2v-54h65.2
	c9.8,0,17.6-8,17.6-17.6v-53c0-9.8-8-17.6-17.6-17.6h53v732.2l62.3-45.3V211.7h63.5l60.4-35V56.5L25,56.4L25,56.4z M329.2,845.8
	c-36.1-0.7-54.1-8.3-55.9-19.3c-1.9-10.9,21.7-24.6,55.9-34.3V845.8z M399.6,899.8c1.9,10.9-21.6,24.6-55.9,34.3v-53.6
	C379.8,881.3,397.7,888.8,399.6,899.8z M273.5,389.4c-1.9-10.9,21.7-24.6,55.9-34.3v53.6C293.4,407.6,275.4,400.1,273.5,389.4z
	 M273.5,534.8c0-0.4-0.1-0.7-0.1-1.1c-0.1-10.6,23.1-23.9,56.2-33.1v53.4C293.4,553.4,275.4,545.8,273.5,534.8z M273.5,680.9
	c0-0.4-0.1-0.7-0.1-1.1c-0.1-10.6,23.1-23.9,56.2-33.1v53.4C293.4,699,275.4,691.5,273.5,680.9z M399.6,754.1
	c0.9,5.2-3.7,10.9-12.6,16.4c-1.2,0.7-2.4,1.6-3.7,2.3c-1.9,1.1-4.1,2.3-6.4,3.4c-1.6,0.7-3,1.4-4.7,2.2c-0.9,0.4-1.6,0.7-2.4,1.1
	c-4.2,1.8-8.8,3.5-13.8,5.2c-1.1,0.4-1.9,0.7-3,1.1c-3,0.9-6.2,1.9-9.4,2.8V735C379.8,735.7,397.7,743.1,399.6,754.1z M399.6,608.3
	c1.9,10.9-21.6,24.6-55.9,34.3v-5.7v-48C379.8,590,397.7,597.5,399.6,608.3z M399.6,462.6c1.9,10.9-21.6,24.6-55.9,34.3v-5.7v-48
	C379.8,444.2,397.7,451.6,399.6,462.6z M655,934.2c-34.3-9.5-57.9-23.5-55.9-34.3c1.9-11,19.8-18.4,55.9-19.3V934.2z M599.2,608.4
	c1.9-11,19.8-18.4,55.9-19.3v47.9v5.7C620.7,633.3,597.1,619.3,599.2,608.4z M628.9,779.6c-0.9-0.4-1.6-0.7-2.4-1.1
	c-1.6-0.7-3.1-1.4-4.7-2.2c-2.3-1.1-4.5-2.3-6.4-3.4c-1.2-0.7-2.4-1.4-3.7-2.3c-8.8-5.7-13.4-11.3-12.6-16.4
	c1.9-11,19.8-18.4,55.9-19.3v53.6c-3.1-0.9-6.4-1.8-9.4-2.8c-1.1-0.4-1.9-0.7-3-1.1C637.7,783.1,633.1,781.4,628.9,779.6z
	 M725.3,826.7c-1.9,11-19.8,18.4-55.9,19.3v-53.6C703.6,802,727.3,815.8,725.3,826.7z M725.4,679.9c0,0.4,0,0.7-0.1,1.1
	c-1.9,11-19.8,18.4-55.9,19.3v-53.4C702.5,656.1,725.7,669.3,725.4,679.9z M725.4,534.1c0,0.4,0,0.7-0.1,1.1
	c-1.9,11-19.8,18.4-55.9,19.3V501C702.5,510.2,725.7,523.5,725.4,534.1z M655,497.1c-34.3-9.5-57.9-23.5-55.9-34.3
	c1.9-11,19.8-18.4,55.9-19.3v48V497.1z M725.3,389.5c-1.9,10.9-19.8,18.4-55.9,19.3v-53.6C703.6,364.7,727.3,378.7,725.3,389.5z
	 M914.6,176.6H87.3V91.3h23.3v54.1h287.3V91.3H604v54.1h287.3V91.3h23.3V176.6L914.6,176.6z"/>
</svg>
