<?xml version="1.0" encoding="utf-8"?>
<!-- Generator: Adobe Illustrator 24.3.0, SVG Export Plug-In . SVG Version: 6.00 Build 0)  -->
<svg version="1.1" id="Capa_1" xmlns="http://www.w3.org/2000/svg" xmlns:xlink="http://www.w3.org/1999/xlink" x="0px" y="0px"
	 viewBox="0 0 1000 1000" style="enable-background:new 0 0 1000 1000;" xml:space="preserve">
<g>
	<path d="M0,250c0,35.2,17.6,67.5,45,87.2C16.6,379.3,0,429.9,0,484.4l0,31.2c0,62.7,16.9,319.2,17.6,330.1
		c1,15.4,13.8,27.4,29.2,27.4h95.7c15.1,0,27.7-11.4,29.2-26.4L184.3,721c34.8,4.7,122.5,11.4,175.1,11.4c54.6,0,152-7.2,190.6-12
		l12.6,126.2c1.5,15,14.1,26.4,29.2,26.4h95.7c16.2,0,29.3-13.1,29.3-29.3V703.1c0-32.1,19.9-64.5,64.5-64.5h156.2
		c13.3,0,24.9-8.9,28.3-21.8l33.2-125c4.2-15.9-5.5-32.1-21.4-36c-15.7-3.9-61.2-18.4-81.9-39.1c-38.3-38.3-57.1-141.9-147.7-161.7
		v-98.8c0-20-19.6-34.1-38.6-27.8C635.8,153,596,204.1,578.2,234c-26.5-5.5-72.9-13.3-125.1-13.3H263.7
		c-69.8,0-133.3,27.2-180.5,71.6c-14.8-8.5-24.6-24.6-24.6-42.3c0-26.9,21.9-48.8,48.8-48.8c16.2,0,29.3-13.1,29.3-29.3
		s-13.1-29.3-29.3-29.3C48.2,142.6,0,190.8,0,250L0,250z M750,418c0-16.2,13.1-29.3,29.3-29.3s29.3,13.1,29.3,29.3
		s-13.1,29.3-29.3,29.3S750,434.2,750,418z"/>
</g>
</svg>
