<?xml version="1.0" encoding="utf-8"?>
<!-- Generator: Adobe Illustrator 24.3.0, SVG Export Plug-In . SVG Version: 6.00 Build 0)  -->
<svg version="1.1" id="Calque_1" xmlns="http://www.w3.org/2000/svg" xmlns:xlink="http://www.w3.org/1999/xlink" x="0px" y="0px"
	 viewBox="0 0 1000 1000" style="enable-background:new 0 0 1000 1000;" xml:space="preserve">
<g>
	<path d="M650,83.4c9.2,0,16.7-7.5,16.7-16.7c0-9.2-7.5-16.7-16.7-16.7H350c-9.2,0-16.7,7.5-16.7,16.7s7.5,16.6,16.7,16.7h133.3
		v133.3H450v100h33.3v133.2H366.7c-9.2,0-16.7,7.5-16.7,16.7v16.7h300h0.1v-16.7c0-9.2-7.5-16.7-16.7-16.7H516.6V316.7H550v-100
		h-33.4V83.4H650z"/>
	<circle cx="400" cy="550" r="33.3"/>
	<circle cx="466.7" cy="550" r="33.3"/>
	<circle cx="533.3" cy="550" r="33.3"/>
	<circle cx="600" cy="550" r="33.3"/>
	<circle cx="366.7" cy="616.7" r="33.3"/>
	<circle cx="433.3" cy="616.7" r="33.3"/>
	<circle cx="500" cy="616.7" r="33.3"/>
	<circle cx="566.7" cy="616.7" r="33.3"/>
	<circle cx="633.3" cy="616.7" r="33.3"/>
	<path d="M750,450v266.7H250V450h33.3v216.7c0,9.2,7.5,16.7,16.7,16.7h400c9.2,0,16.7-7.5,16.7-16.7V450H750z"/>
	<path d="M933.4,750h-50.1V300c0-27.6-22.4-49.9-50-50h-250v33.4h233.4c18.4,0,33.2,14.9,33.3,33.3V750H150V316.6
		c0-18.4,14.9-33.2,33.3-33.3h233.4V250h-250c-27.6,0.1-49.9,22.4-50,50v450h-50c-9.2,0-16.7,7.5-16.7,16.7v166.7
		c0,9.2,7.5,16.7,16.7,16.7h866.7c9.2,0,16.7-7.5,16.7-16.7V766.7C950.1,757.5,942.6,750,933.4,750z"/>
	<path d="M366.7,583.3c-18.4,0-33.3,14.9-33.3,33.3s14.9,33.3,33.3,33.3S400,635,400,616.6C399.9,598.3,385.1,583.4,366.7,583.3z"/>
	<path d="M400,516.7c-18.4,0-33.3,14.9-33.3,33.3s14.9,33.3,33.3,33.3s33.3-14.9,33.3-33.3C433.3,531.6,418.4,516.7,400,516.7z"/>
	<path d="M466.7,516.7c-18.4,0-33.3,14.9-33.3,33.3s14.9,33.3,33.3,33.3S500,568.4,500,550C499.9,531.6,485.1,516.7,466.7,516.7z"/>
	<path d="M533.3,516.7c-18.4,0-33.3,14.9-33.3,33.3s14.9,33.3,33.3,33.3s33.3-14.9,33.3-33.3C566.6,531.6,551.7,516.7,533.3,516.7z"
		/>
	<path d="M600,516.7c-18.4,0-33.3,14.9-33.3,33.3s14.9,33.3,33.3,33.3s33.3-14.9,33.3-33.3C633.3,531.6,618.4,516.7,600,516.7z"/>
	<path d="M433.3,583.3c-18.4,0-33.3,14.9-33.3,33.3s14.9,33.3,33.3,33.3s33.3-14.9,33.3-33.3C466.6,598.3,451.7,583.4,433.3,583.3z"
		/>
	<path d="M500,583.3c-18.4,0-33.3,14.9-33.3,33.3S481.6,650,500,650c18.4,0,33.3-14.9,33.3-33.3C533.3,598.3,518.4,583.4,500,583.3z
		"/>
	<path d="M566.7,583.3c-18.4,0-33.3,14.9-33.3,33.3s14.9,33.3,33.3,33.3S600,635,600,616.6C599.9,598.3,585.1,583.4,566.7,583.3z"/>
	<path d="M633.3,583.3c-18.4,0-33.3,14.9-33.3,33.3s14.9,33.3,33.3,33.3s33.3-14.9,33.3-33.3C666.6,598.3,651.7,583.4,633.3,583.3z"
		/>
</g>
</svg>
