<?xml version="1.0" encoding="utf-8"?>
<!-- Generator: Adobe Illustrator 24.3.0, SVG Export Plug-In . SVG Version: 6.00 Build 0)  -->
<svg version="1.1" id="Calque_1" xmlns="http://www.w3.org/2000/svg" xmlns:xlink="http://www.w3.org/1999/xlink" x="0px" y="0px"
	 viewBox="0 0 1000 1000" style="enable-background:new 0 0 1000 1000;" xml:space="preserve">
<g>
	<path d="M477.6,582.9h-88.9c-7.1,0-12.8,5.7-12.8,12.8v177.9c0,7.1,5.7,12.8,12.8,12.8h88.9c7.1,0,12.8-5.7,12.8-12.8V595.5
		C490.4,588.6,484.7,582.9,477.6,582.9z"/>
	<path d="M611,582.9h-88.9c-7.1,0-12.8,5.7-12.8,12.8v177.9c0,7.1,5.7,12.8,12.8,12.8H611c7.1,0,12.8-5.7,12.8-12.8V595.5
		C623.8,588.6,618.2,582.9,611,582.9z"/>
	<path d="M25,55.8v120.4l62.3,35h61.6v687.5l62.3,45.3V584.8h112.9l12.9-0.1v-21h9.1c1.9,0,4.5-0.5,4.8-1.2l3.7-8.5
		c4.2-0.4,8.5-1.1,12.6-1.9c6.5,1.4,12.6,3.1,18.7,4.8c1,0.4,1.9,0.5,3.4,0.5c1.5,0,2.2-0.4,3-0.4c4.5-1.1,24.3-7.2,24.3-8.8
		c0-0.4-0.5-1-1.4-1.2l-14.7-6.4c1.9-1.4,3.7-2.7,5.3-4.2c8.3-0.4,17.2-0.5,25.4-1.4c2.2-0.4,3.7-1,3.7-1.6l0.1-10.3
		c0-1-1.8-1.4-4.2-1.6l-25-1.2c-1.4-1.4-3-2.8-5.2-4.2l14.5-6.4c1-0.4,1.2-0.7,1.2-1.1c0-0.4-0.5-1-1.4-1.1
		c-6.8-2.4-15.1-5.7-23.2-7.6c-1-0.4-1.9-0.4-3-0.4c-1.2,0-2.2,0.1-3,0.4c-6.2,1.4-12.2,3.4-18.7,4.8c-4.2-1-8.7-1.4-13.3-1.9
		l-3.7-8.3c-0.4-1-2.4-1.4-5-1.4h-30.3c-1.9,0-4.5,0.5-4.8,1.2l-3.7,8.5c-4.2,0.5-8.5,1.1-12.4,1.9c-6.8-1.4-12.6-3.1-18.7-4.8
		c-1-0.4-2.2-0.5-3.4-0.5s-2.2,0.1-3,0.4c-4.2,1.1-24.3,7.2-24.3,8.8c0,0.4,0.5,1,1.2,1.2l14.7,6.4c-1.9,1.4-3.7,2.7-5.3,4.2
		c-8.3,0.4-17.2,0.7-25.4,1.4c-2.2,0.4-3.7,1-3.7,1.6v10.3c0,1,1.8,1.4,4.2,1.6l25,1.2c1.4,1.4,3,2.8,5.2,4.2l-14.5,6.4
		c-1,0.4-1.2,0.7-1.2,1.1c0,0.4,0.5,1,1.4,1.1c6.5,2.4,14.9,5.7,22.8,7.6c1,0.4,1.9,0.4,3,0.4c1.2,0,2.2-0.1,3-0.4
		c6.2-1.4,12.2-3.4,18.7-4.8c4.2,1,8.7,1.4,13.4,1.9l3.7,8.3c0.4,1,2.4,1.4,5,1.4h8.3v8.3H211.2V211.2h249c-4.2,0-7.6,3.4-7.6,7.6
		c0,4.2,3.4,7.6,7.6,7.6h21.6v328h-21.6c-4.2,0-7.6,3.4-7.6,7.6s3.4,7.6,7.6,7.6h79.5c4.2,0,7.6-3.4,7.6-7.6s-3.4-7.6-7.6-7.6h-21.6
		v-328h21.6c4.2,0,7.6-3.4,7.6-7.6s-3.4-7.6-7.6-7.6h249v360.7H675.9v-8.3h8.3c2.4,0,4.6-0.5,5-1.4l3.7-8.3
		c4.8-0.5,9.2-1.1,13.4-1.9c6.5,1.4,12.6,3.4,18.7,4.8c1,0.1,1.8,0.4,3,0.4c1.1,0,2.2,0,3-0.4c8-1.9,16.3-5.2,22.8-7.6
		c1-0.1,1.4-0.7,1.4-1.1c0-0.4-0.4-0.7-1.2-1.1l-14.5-6.4c2.2-1.4,3.7-2.8,5.2-4.2l25-1.2c2.4-0.1,4.2-0.7,4.2-1.6v-10.3
		c0-0.7-1.6-1.2-3.7-1.6c-8.1-0.7-17-1.1-25.4-1.4c-1.6-1.6-3.4-2.8-5.3-4.2l14.7-6.4c0.7-0.4,1.2-1,1.2-1.2c0-1.6-20-7.7-24.3-8.8
		c-1-0.1-1.8-0.4-3-0.4s-2.4,0.1-3.4,0.5c-6.2,1.6-12.1,3.4-18.7,4.8c-3.9-1-8.1-1.4-12.3-1.9l-3.7-8.5c-0.4-0.7-2.8-1.2-4.8-1.2
		h-30.3c-2.4,0-4.6,0.5-5,1.4l-3.7,8.3c-4.6,0.5-9.1,1.1-13.3,1.9c-6.5-1.4-12.6-3.4-18.7-4.8c-1-0.1-1.8-0.4-3-0.4
		c-1.1,0-2.2,0-3,0.4c-8.1,1.9-16.4,5.2-23.2,7.6c-1,0.1-1.4,0.7-1.4,1.1c0,0.4,0.4,0.7,1.2,1.1l14.5,6.4c-2.2,1.4-3.7,2.8-5.2,4.2
		l-25,1.2c-2.4,0.1-4.2,0.7-4.2,1.6l0.1,10.3c0,0.7,1.6,1.2,3.7,1.6c8.1,1,17,1.1,25.4,1.4c1.6,1.6,3.4,2.8,5.3,4.2l-14.7,6.4
		c-1,0.4-1.4,1-1.4,1.2c0,1.6,19.8,7.7,24.3,8.8c1,0,1.6,0.4,3,0.4c1.4,0,2.4-0.1,3.4-0.5c6.2-1.6,12.2-3.4,18.7-4.8
		c4.1,1,8.3,1.6,12.6,1.9l3.7,8.5c0.4,0.7,2.8,1.2,4.8,1.2h9.1v21l12.9,0.1h112.9v359.4l62.3-45.3V211.2h64.7l59.2-35V55.8L25,55.8
		L25,55.8z M915.7,176.2h-3.1H87.4V90.8h23.3V145h287.6V90.8h206.4V145h287.6V90.8h23.3V176.2z"/>
</g>
</svg>
