<?xml version="1.0" encoding="utf-8"?>
<!-- Generator: Adobe Illustrator 24.3.0, SVG Export Plug-In . SVG Version: 6.00 Build 0)  -->
<svg version="1.1" id="Capa_1" xmlns="http://www.w3.org/2000/svg" xmlns:xlink="http://www.w3.org/1999/xlink" x="0px" y="0px"
	 viewBox="0 0 1000 1000" style="enable-background:new 0 0 1000 1000;" xml:space="preserve">
<g>
	<path d="M183.3,484c0-28.6,8.5-56.1,24.2-79.4c-5.2-16.7-7.9-34.2-7.9-51.6c0-74.8,47.2-140,115.5-164.5
		c6.1-55.8,41.9-103.8,92.3-126.8C381.6,19.8,340.7-4.8,303,1.3c-27.3,4.4-49.8,22.9-63.1,50.9c-23.9-11-48.7-12.8-70.5-5.1
		c-23.6,8.3-41.9,26.1-52.9,51.3c-14.7,33.5-14.7,76.6-0.5,117.5c-19.1,13.1-33.4,32.4-41.8,56.6c-14.1,40.6-9.4,89.6,12.9,134.6
		c2.4,4.9,5.1,9.8,8,14.5c-20.9,13.6-36.5,33.7-44.9,58.2c-13.3,38.9-7.4,84.8,16.2,125.9c10.8,18.8,25.2,35.9,41.8,50
		c-5.6,23.3-1.4,49,12.2,72.2c19,32.4,53.2,54.4,89.7,58.1c49,92,108.1,138.9,192.7,179.6C302.3,846.7,246.4,748.3,243.3,599.9
		C206.3,573.5,183.3,530.1,183.3,484z"/>
	<path d="M956.8,348.3c1.4-67.6-38.3-128.5-99.9-154.8c-9-57.7-55.5-102.8-113.3-110.5c-0.5-5.7-1.6-11.5-3.3-17.1
		c-10.2-34.8-40.9-61-76.3-65.2c-23.2-2.8-45.1,3.1-63.2,15.8C584.6,5.8,565.8,0,546.5,0c-49.7,0-90.9,36.7-98.1,84.4
		C391.6,95.9,349,146.5,349,205.7c0,3.2,0.1,6.4,0.4,9.6c-65.8,11.8-115,69-115,137.8c0,19.9,4.3,39.6,12.5,57.7
		c-18.5,19.8-28.9,45.8-28.9,73.3c0,41.1,23.6,78.3,59.8,96.2c-1.6,157.4,55.7,253,167.6,381.8l6.3,7.2l1.1,1.3
		c17,19,41.4,29.5,68.8,29.5c4.7,0,9.4-0.4,14-1l-5.9-11.5c-37.3-88.8-60.2-167.6-73-237.7c-48.2-14.8-69-53.3-69.9-55.1
		c-4.5-8.5-1.2-19,7.3-23.5c8.4-4.5,18.9-1.2,23.4,7.2c0.6,1.2,10.8,19,32.9,31.1c-6-45.5-7.8-87-6-124.4c-0.2-1.9-0.1-3.8,0.3-5.7
		c3-53.5,12.8-98.8,25.7-136.7c-58.5-34.9-65.7-99.9-60.7-131.4c1.5-9.5,10.4-16,19.9-14.4c9.5,1.5,15.9,10.4,14.4,19.8
		c-0.4,2.8-8.2,60.4,39.2,92.8c2.4-5.5,4.7-10.9,7.2-16c45.7-94.3,111-141.2,136.3-156.7c-0.1-34.8,22.8-65,23.8-66.4
		c5.8-7.6,16.8-9.1,24.3-3.2c7.6,5.8,9.1,16.7,3.3,24.3c-3.9,5.1-11.5,17.9-14.9,32c40-4.5,79.1,18,81,19.2
		c8.3,4.9,11,15.5,6.1,23.8c-3.2,5.5-9.1,8.5-15,8.5c-3,0-6-0.8-8.8-2.4c-12.1-7.1-49-22.7-74.2-10.6c-4.4,2.2-34,18.2-67.6,53.3
		c68.9-5,116.8,15.4,119.2,16.5c8.8,3.9,12.8,14.1,8.9,22.9c-2.9,6.5-9.2,10.4-15.9,10.4c-2.3,0-4.7-0.5-6.9-1.5
		c-1.3-0.6-60.1-24.9-138-8.7c-15.6,21.9-30.6,48.2-43,79.6c0,2.3-0.5,4.6-1.5,6.8c-0.7,1.5-1.5,2.8-2.5,3.9
		c-9.9,27.1-17.9,57.5-22.7,91.9c39.3-24.6,88.8-25.7,91.6-25.7c0.1,0,0.1,0,0.2,0c9.5,0,17.2,7.6,17.4,17.1
		c0.1,9.6-7.5,17.5-17.1,17.6c-0.7,0-72.2,1.7-96.5,43.1c-1.7,42.4,1.2,89.7,10.3,142.3c0.1,0.4,0.1,0.8,0.2,1.2
		c12.2,70.2,35,149.6,72.9,239.7l8.3,15.9c12.8-6.4,23.7-15.3,31.6-26.3c13.1-18.3,16.2-40.4,8.7-62.4
		c-31.4-92.2-30.4-162.5,2.9-209c43.2-60.4,133.1-69.4,182.9-69.4c25.6,0,43.2,2.4,43.4,2.4l17.9,2.4l1.8-17.9
		c0.2-2.4,5.4-58.3-27.3-96.4c-1.9-2.2-3.9-4.3-5.9-6.3c9.2-2.1,18.3-5,27.3-8.8C914.6,470.9,955.5,412.5,956.8,348.3z"/>
</g>
</svg>
