<?xml version="1.0" encoding="utf-8"?>
<!-- Generator: Adobe Illustrator 24.3.0, SVG Export Plug-In . SVG Version: 6.00 Build 0)  -->
<svg version="1.1" id="Capa_1" xmlns="http://www.w3.org/2000/svg" xmlns:xlink="http://www.w3.org/1999/xlink" x="0px" y="0px"
	 viewBox="0 0 1000 1000" style="enable-background:new 0 0 1000 1000;" xml:space="preserve">
<path d="M718.8,656.3c-51.8,0-93.8-42-93.8-93.8H0V875c0,34.5,28,62.5,62.5,62.5h875c34.5,0,62.5-28,62.5-62.5V562.5H812.5
	C812.5,614.3,770.5,656.3,718.8,656.3z M343.8,843.8c-51.8,0-93.8-42-93.8-93.8c0-51.8,42-93.8,93.8-93.8s93.8,42,93.8,93.8
	C437.5,801.8,395.5,843.8,343.8,843.8z M585.6,62.5c-14.9-0.5-29.6,4.3-41.3,13.7l-120.6,93.9c26.8,44.2,12.8,101.7-31.3,128.6
	c-37.1,22.6-84.9,16.6-115.3-14.4L0,500h1000C1000,265.9,816.4,74.6,585.6,62.5L585.6,62.5z"/>
</svg>
