<?xml version="1.0" encoding="utf-8"?>
<!-- Generator: Adobe Illustrator 24.3.0, SVG Export Plug-In . SVG Version: 6.00 Build 0)  -->
<svg version="1.1" id="Calque_1" xmlns="http://www.w3.org/2000/svg" xmlns:xlink="http://www.w3.org/1999/xlink" x="0px" y="0px"
	 viewBox="0 0 1000 1000" style="enable-background:new 0 0 1000 1000;" xml:space="preserve">
<g>
	<path d="M761,892.1c-22.5-6.8-38.7-8.8-38.1-37.4l-1.3-27.9c-2.8-59.2,1.3-119.1,13.5-177l6.9-32.7c17-80.9,36.8-110.9,19-246.3
		c-65.3-23.8-104.8-51.7-150.4-97.3l-39.4,24.5c-19.7,12.3-38.7,26.6-61.2,32.6L449.3,347l-345.7-3.4
		c-47.7,10.8-36.1-155.2-76.3-155.2l-15.6,0.8c-23.9,0-6.9,100.6,12.2,162c8.8,27.2,23.2,38.7,24.6,44.2l-3.5,4.7
		C-4.7,469.4,9.6,539.5,27.3,611.7c5.4,22.5,28.5,54.5,9.5,98.8l-9.5,22.3C6.2,768.9,0.8,830.9,11.1,871.7l6.7,26.5
		c8.8,35.4,27.2,77.6,68.8,77.6c17.7,0,42.8-7.5,36.1-29.2l-21.8-66.7c-8.9-26.4,0-155.1,21.8-148.4l-0.7,71.5
		c8.7,51,29.2,121.1,54.4,131.3l35.4,14.9c47.6,20.5,42.8-43.5,25.1-69.4l-22.4-45.6c-11-15.6-11.6-45.5-8.9-53l3.3-9.5L251.3,662
		l7.5-48.3c2.7-17.7-3.4-44.9,19.7-48.3l51.1-6.8c71.4,38.1,134.8,55.8,226.6,79.6l11.5,29.9c-2,55.1-9.5,79.7-12.9,119.1l-4.8,57.9
		c-7.4,40.1-19.7,96.6,65.5,93.8c27.9,4.1,57.1-27.9,31.2-50.4c-36.8-19-29.9-42.8-24.5-68.8l29.9-136.7l6.9,141.5
		c1.3,72.2-17.7,135.5,98.6,117.1C785.4,928.2,775.3,899.6,761,892.1z"/>
	<path d="M984.4,217l-7.4-1.3c-21.1-4.1-44.9-2.1-60.5-18.3l-23.9-25.9c-19-20.4-42.9-43.5-61.9-56.5l2-19l4.1-17.7
		c4.1-15.7-6.1-45.6-21.7-52.5C798.6,19,776.2,36,770.7,53.6l-6.9,15.7l-6.1,14.3l-29.9,43.5l-89.2,111.7
		c38.9,41.5,87.2,72.7,146.4,98.7l29.3-23.1l14.2-9.5h6.9l20.3,10.8c45.6,24.6,110.2,20.5,132.1-32l4.8-11.5
		C1000.2,253.8,1007.5,229.2,984.4,217z M828.8,204.7c-13.9,0-25-11.2-25-25s11.2-25,25-25c13.8,0,25,11.2,25,25
		S842.7,204.7,828.8,204.7z"/>
</g>
</svg>
