<?xml version="1.0" encoding="utf-8"?>
<!-- Generator: Adobe Illustrator 24.3.0, SVG Export Plug-In . SVG Version: 6.00 Build 0)  -->
<svg version="1.1" id="bold" xmlns="http://www.w3.org/2000/svg" xmlns:xlink="http://www.w3.org/1999/xlink" x="0px" y="0px"
	 viewBox="0 0 1000 1000" style="enable-background:new 0 0 1000 1000;" xml:space="preserve">
<g>
	<path d="M546.2,447.5c-24.6-58.7-25.4-99.2-25.4-105.4c0-81.2-60.2-149.7-142.2-169.6C394,121,441.9,83.3,498.3,83.3
		c23,0,41.7-18.6,41.7-41.7c0-23-18.6-41.7-41.7-41.7C396.6,0,311.7,73.3,293.6,169.8c-88.3,15.5-155.3,87-155.3,173.1
		c0,3.3-0.8,91.3-77.9,198.8c-0.8,0.4-1.3,1.2-2.1,2.1C21.3,593.3,1.7,651.3,1.7,712.1c0,161.2,144.2,287.9,327.9,287.9
		c45.4,0,89.2-7.5,129.6-22.5c-65.8-71.7-106.7-178.3-106.7-277.9C352.5,569.6,426.2,477.1,546.2,447.5z"/>
	<path d="M779.6,500c-8.3,0-16.5,0.5-24.7,1.6c16.8-49.3,63.5-84.9,118.4-84.9c23,0,41.7-18.6,41.7-41.7c0-23-18.6-41.7-41.7-41.7
		c-101.7,0-186.6,73.3-204.7,169.8c-11.4-2.1-23.1-3.1-34.9-3.1c-137,0-218.7,74.6-218.7,199.5c0,139,95.5,300.5,218.7,300.5
		c25.2,0,49.6-4.8,72.9-14.2c23.4,9.5,47.9,14.2,73,14.2c123.2,0,218.7-161.5,218.7-300.5C998.3,574.6,916.6,500,779.6,500z"/>
</g>
</svg>
