<?xml version="1.0" encoding="utf-8"?>
<!-- Generator: Adobe Illustrator 24.3.0, SVG Export Plug-In . SVG Version: 6.00 Build 0)  -->
<svg version="1.1" id="Capa_1" xmlns="http://www.w3.org/2000/svg" xmlns:xlink="http://www.w3.org/1999/xlink" x="0px" y="0px"
	 viewBox="0 0 1000 1000" style="enable-background:new 0 0 1000 1000;" xml:space="preserve">
<g>
	<g>
		<g>
			<path d="M145.8,250h20.8v354.2c0,11.5,9.3,20.8,20.8,20.8h375c11.5,0,20.8-9.3,20.8-20.8V250h20.8c11.5,0,20.8-9.3,20.8-20.8
				s-9.3-20.8-20.8-20.8h-41.7h-375h-41.7c-11.5,0-20.8,9.3-20.8,20.8C125,240.7,134.3,250,145.8,250z"/>
			<path d="M854.2,708.3h-41.7h-41.7h-94.9c-7.4,0-14.3,3.9-18,10.4c-6.6,11.4-16.2,20.2-27.9,25.5c-6.1,2.8-10.5,8.3-11.8,14.8
				c-8.4,41.5-26.4,79.6-52.2,110.2c-4.3,5-5.9,11.8-4.4,18.2c1.5,6.4,6,11.8,12.1,14.3c23.2,9.9,47.4,14.9,72,14.9
				c32.4,0,62.5-9,89.2-23.6l15.3,89.6c1.8,10.2,10.5,17.3,20.5,17.3c1.2,0,2.4-0.1,3.5-0.3c11.4-1.9,19-12.7,17-24l-18.7-109.3
				c32.2-29.8,53.3-70.5,58.5-116.3h22.9c11.5,0,20.8-9.3,20.8-20.8C875,717.7,865.7,708.3,854.2,708.3z"/>
			<path d="M199,166.7H551c6.8,0,13.1-3.3,17-8.8c3.9-5.5,4.9-12.6,2.6-19C541.1,55.8,462.5,0,375,0S208.9,55.8,179.4,138.9
				c-2.3,6.4-1.3,13.5,2.6,19C185.9,163.4,192.2,166.7,199,166.7z"/>
			<path d="M522.3,855.5c37.7-37.7,61-89.8,61-147.1h20.8c11.5,0,20.8-9.3,20.8-20.8c0-11.5-9.3-20.8-20.8-20.8h-41.7h-375h-41.7
				c-11.5,0-20.8,9.3-20.8,20.8c0,11.5,9.3,20.8,20.8,20.8h20.8c0,57.4,23.3,109.4,61,147.1l-19.1,120.4c-1.8,11.4,6,22,17.3,23.8
				c1.1,0.2,2.2,0.3,3.3,0.3c10.1,0,18.9-7.3,20.5-17.6l15.5-97.8c32,20,69.4,32,109.7,32s77.8-12,109.7-32l15.5,97.8
				c1.6,10.3,10.5,17.6,20.5,17.6c1.1,0,2.2-0.1,3.3-0.3c11.4-1.8,19.1-12.5,17.3-23.8L522.3,855.5z"/>
			<path d="M619.5,158.6c1.4,6.3,5.6,11.5,11.4,14.3c22.1,10.5,35.8,32.1,35.8,56.2c0,11.5,9.3,20.8,20.8,20.8h101.9
				c7.4,0,14.4-4,18.1-10.5c3.7-6.4,3.7-14.4-0.1-20.9c-33.7-57.8-95.5-93.7-161.5-93.7c-2.2,0-4.3,0.2-8.5,0.5
				c-6.2,0.3-11.7,4.6-15.4,9.6c-3.7,5-4.8,12.6-3.4,18.6C618.7,154.2,619.4,158.2,619.5,158.6z"/>
			<path d="M645.8,291.7c-11.5,0-20.8,9.3-20.8,20.8v303.2c0,7.4,3.9,14.3,10.3,18c9.4,5.4,17.2,13.3,22.6,22.6
				c3.7,6.4,10.6,10.3,18,10.3h136.6c11.5,0,20.8-9.3,20.8-20.8V333.3h20.8c11.5,0,20.8-9.3,20.8-20.8s-9.3-20.8-20.8-20.8h-41.7
				H750L645.8,291.7L645.8,291.7z"/>
		</g>
	</g>
</g>
</svg>
