<?xml version="1.0" encoding="utf-8"?>
<!-- Generator: Adobe Illustrator 24.3.0, SVG Export Plug-In . SVG Version: 6.00 Build 0)  -->
<svg version="1.1" id="Layer_3" xmlns="http://www.w3.org/2000/svg" xmlns:xlink="http://www.w3.org/1999/xlink" x="0px" y="0px"
	 viewBox="0 0 1000 1000" style="enable-background:new 0 0 1000 1000;" xml:space="preserve">
<g>
	<path d="M849.4,608.3l97.9,36.7c-6.7-160.9-52.4-318.7-133.1-458.2l-15.9-27.5C772.9,115.6,752,69,735.9,20.9
		C731.8,8.4,720.1,0,706.9,0c-13.2,0-24.9,8.4-29.1,20.9c-16,48.1-37,94.7-62.4,138.4l-15.9,27.5c-18.6,32.1-35.5,65.6-50.3,99.4
		c-0.4,2.1-0.6,4.2-1.2,6.3c-9,36.1-13.6,73.2-13.6,110.4v175.6c32.2-6.3,65-9.6,97.9-9.6C706.8,569,779.8,582.2,849.4,608.3
		L849.4,608.3z"/>
	<path d="M376.9,638.1c38.7-22.6,80.1-39.8,123.1-51.4V403c0-40,4.9-80,14.6-118.8c1.7-7,2.6-14.1,2.6-21.3
		c0-11.9-9.7-21.6-21.6-21.6c-4.6,0-9.2,1.5-12.9,4.3l-12.8,9.6c-31.6,23.7-66.1,43.4-102.6,58.4C216.8,375.6,99,492.4,35.8,642.6
		C12.1,699,0,758.7,0,819.9c0,45.3,16.2,89.2,45.7,123.6c30.8,35.9,75.5,56.5,122.8,56.5c57,0,113.4-17.1,160.9-48.3
		c-34.1-37.1-53.6-86-53.6-137.7C275.9,741.8,314.6,674.4,376.9,638.1L376.9,638.1z M97.6,720.7l-13,27.9l-31.2-14.6l13-27.9
		c71-152.1,191.5-279.7,339.3-359.3l16.3,30.4C280.7,453.3,165.5,575.3,97.6,720.7z"/>
	<path d="M985.6,696.2l-148.3-55.6c-65.8-24.7-134.7-37.2-204.9-37.2c-83.6,0-165.9,22.3-238.1,64.4
		c-51.8,30.2-83.9,86.2-83.9,146.2c0,56.7,28.2,109.3,75.4,140.8c44.3,29.6,96,45.2,149.3,45.2c98.5,0,197.2-23.3,285.3-67.3
		c62.5-31.3,110.5-84.6,135-150l6.3-16.8c4.7-12.6,14-22.9,26.1-29c7.6-3.8,12.3-11.4,12.3-19.9C1000,707.8,994.2,699.4,985.6,696.2
		L985.6,696.2z M682.3,941.6l-109.7,23.5l-7.2-33.7l109.7-23.5c81.2-17.4,155.1-62.1,208.2-125.8l26.5,22.1
		C851.8,873.8,771,922.6,682.3,941.6L682.3,941.6z"/>
</g>
</svg>
