<?xml version="1.0" encoding="utf-8"?>
<!-- Generator: Adobe Illustrator 24.3.0, SVG Export Plug-In . SVG Version: 6.00 Build 0)  -->
<svg version="1.1" id="Capa_1" xmlns="http://www.w3.org/2000/svg" xmlns:xlink="http://www.w3.org/1999/xlink" x="0px" y="0px"
	 viewBox="0 0 1000 1000" style="enable-background:new 0 0 1000 1000;" xml:space="preserve">
<path d="M0,359.4C0,467,53.5,524.3,80.1,546.1v391.4c0,16.2,13.1,29.3,29.3,29.3h80.1c16.2,0,29.3-13.1,29.3-29.3V746
	c12.8-3.9,20.7-7.3,21-7.5c38.1,9.6,108.9,25.1,166.5,25.1c72.3,0,150.6-24.4,151.1-24.2c0,0,0,0,0.1,0l0,0.1
	c1.3,0.6,8.9,3.8,20.7,7.3v190.6c0,16.2,13.1,29.3,29.3,29.3h80.1c16.2,0,29.3-13.1,29.3-29.3V591.4c0-7,1.6-14.1,4.5-20.5
	l65.6-142.2c8-17.2,25.4-28.4,44.3-28.4H877v52.7c0,16.2,13.1,29.3,29.3,29.3s29.3-13.1,29.3-29.3v-56.9
	c37.3-11.7,64.5-46.5,64.5-87.6v-27.3c0-11.2-6.4-21.5-16.5-26.4l-56.1-23.2l-59-80.5c-5.5-5.5-12.9-8.6-20.7-8.6H823
	C809.5,80.1,753.9,33.2,687.5,33.2c-76.5,0-138.7,62.2-138.7,138.7c0,16.2,13.1,29.3,29.3,29.3s29.3-13.1,29.3-29.3
	c0-44.2,35.9-80.1,80.1-80.1c36.7,0,67.6,24.8,77.1,58.4c-14.7,6.4-27.7,16.6-37.4,29.9L592.8,363.4c-6.2,8.5-16.2,13.6-26.8,13.6
	H234.4c-39.2,0-68.7,9.4-82.7,15c-18.3-4.3-64.9-29-106-56.8C26.3,322,0,335.9,0,359.4z M822.3,251.9c0-16.2,13.1-29.3,29.3-29.3
	s29.3,13.1,29.3,29.3s-13.1,29.3-29.3,29.3S822.3,268.1,822.3,251.9z"/>
</svg>
