<?xml version="1.0" encoding="utf-8"?>
<!-- Generator: Adobe Illustrator 24.3.0, SVG Export Plug-In . SVG Version: 6.00 Build 0)  -->
<svg version="1.1" id="Calque_1" focusable="false" xmlns="http://www.w3.org/2000/svg" xmlns:xlink="http://www.w3.org/1999/xlink"
	 x="0px" y="0px" viewBox="0 0 1000 1000" style="enable-background:new 0 0 1000 1000;" xml:space="preserve">
<g>
	<path d="M984.5,280.4l-88.6-98.3c0,0,11.9-63.8,12.3-66.3c-2.8,2.3-18,2.5-30,21.6c-5.7,9-8.9,10-18.2,17.5
		c-21.8-6.3-67.2-16.7-112.9,7.9c-29.7,16-49.2,40.3-71.9,68.5c-15.2,18.9-32.5,40.4-55.4,62.6c-26.8,25.9-56.2,53.1-82.8,63.9
		c-14.1,1-29.5,1.2-46.2-0.1c-18.6-1.4-40.9-5.9-61-12.2l-34.4-9.2c-32.3-9.1-65.7-18.5-100.8-17c-33.3,1.4-56.9,9.5-74,20.4
		c-16.1,6.4-30.5,3.7-45-4.8c-14.4-8.6-30.1-14.2-46.4-18.4c-28.1-7.4-53.1-0.9-76.8,14.6C29.5,346,15,367,7.1,393
		c-0.3,1-1.4,1.7-2.1,2.6c-1.6,15.2-3.3,30.3-4.9,45.5c2.7,9.4,4.7,19.1,8.3,28.3c4.5,11.3,8.7,22.3,11,34.4
		c3.2,16.4,11.5,31.3,20.8,45.4c6.8,10.5,14.7,20.4,22.1,30.5c6.1,8.4,11.2,17.3,12.1,27.9c0.1,0.8,1.1,1.7,2.4,3.7
		c2.9-9.9-1.3-18.3-1-26.9c5.9,16.3,9.2,32.4,2.1,49.5c-8.7,21.2-2.1,88.1,4.3,80.6c7.1-8.4,14.1-16.9,20.6-26
		c8.2-11.6,14.7-24,17-38.5c-0.9,8.5-1.8,17-2.9,26.5c17.7-12.5,31.3-67.8,13-107.6c7.8-11,11.3-23.5,12.7-37
		c2-18.3-3.7-34.7-11.4-50.5c-5.5-11.3-12.2-21.9-18.3-32.9c-7.4-13.9-10-28.5-7.6-44.2c3.1-20.8,21.9-40.3,42.7-43.8
		c8.4-1.4,16.4-0.7,24.5,2.4c9.6,3.6,13,9.8,10.3,18.7c-6.7,12.3-10.1,25.6-10.1,42.1c0,14.5,2.5,31.4,7.7,52.4
		c13,53.4,23.4,75.5,20.2,102.9c-2.5,21.5-33,82.3-33,82.3c0,44.9,11.3,74.9,11.6,96.4c0.6,39.4-6.7,56.7-4,63.6
		c2.7,6.9,3.6-2.7,10.8,10c4.8,8.4-4.5,23.5-8.3,37.3c-2.3,8.4-1.2,15.6-1.2,15.6c0.9,0,44.6,0,45.5,0c0-0.2,8.4-3.3,8.1-15.9
		c-0.2-7.7-25-78.6,5.6-181c11-36.8,102.8-114.2,102.8-114.2l0.3,0.2c0.6,0.4,38.7-1.3,93,10.3c48.5,10.3,109.2,35.2,182.1,16.8
		l0.5-0.1c0,0,19.4,157.1,15.6,240.8c-0.4,8,11.3,3.9,11.8,10.3c1.4,16.5-9.6,26.5-4,33c0,0,44.1,0,45,0c0-0.2,8.3,0.2,3.2-12.7
		c-2.2-5.6-13.3-5.2-16.1-22.8c-16-103.5,29.7-256.5,29.7-256.5l0-0.1c0.5-1,41.6-47.5,51.2-80.4c12.9-44.3-19.3-66.6,87.2-223
		c0-0.1,10.6,9.6,10.6,9.6s17,11.8,25.9,15c16.4,5.7,39.2,14.5,39.2,14.5l10.4,5.1c15.9,7.9,29.5,14.7,38.7,14.2
		c15.1-0.8,20.7-6.2,32.1-24.1c3.2-5,4.9-9.6,4.9-14.3C1000,300.6,995.1,292.1,984.5,280.4z M878.4,236.3c-8.5,0-15.5-6.9-15.5-15.5
		s6.9-15.5,15.5-15.5c8.5,0,15.5,6.9,15.5,15.5S887,236.3,878.4,236.3z"/>
</g>
</svg>
