<?xml version="1.0" encoding="utf-8"?>
<!-- Generator: Adobe Illustrator 24.3.0, SVG Export Plug-In . SVG Version: 6.00 Build 0)  -->
<svg version="1.1" id="Layer_3" xmlns="http://www.w3.org/2000/svg" xmlns:xlink="http://www.w3.org/1999/xlink" x="0px" y="0px"
	 viewBox="0 0 1000 1000" style="enable-background:new 0 0 1000 1000;" xml:space="preserve">
<g>
	<path d="M447.9,0h104l51.3,85.5L552,171h-104l-51.3-85.5L447.9,0z M744.3,106.8l51.3,85.5l-51.3,85.6h-104l-51.3-85.5l51.3-85.5
		h104L744.3,106.8L744.3,106.8z M447.9,213.7h104l51.3,85.5L552,384.7h-104l-51.3-85.5L447.9,213.7z M447.9,427.4h104l51.3,85.5
		L552,598.4h-104l-51.3-85.5L447.9,427.4z M640.2,491.6L589,406.1l51.3-85.5h104l51.3,85.5l-51.2,85.5H640.2z M255.6,106.8h104
		l51.3,85.5l-51.2,85.6h-104l-51.3-85.5L255.6,106.8z M255.6,320.6h104l51.3,85.5l-51.2,85.5h-104l-51.3-85.5L255.6,320.6z"/>
	<path d="M640.2,534.3l-57.9,96.5c-1.5,2.4-3.4,4.4-5.5,6.1c-2.9,2.2-6.3,3.6-10,4.1c-0.9,0.1-1.9,0.2-2.7,0.2H435.8
		c-7.5,0-14.4-4-18.3-10.3l-57.9-96.5H265v310.2c0,11.8,9.6,21.3,21.3,21.3c11.8,0,21.3-9.6,21.3-21.3v-96.2
		c0-11.8,9.6-21.3,21.3-21.3s21.3,9.6,21.3,21.3c0,23.6,19.1,42.7,42.7,42.7c23.6,0,42.7-19.1,42.7-42.7c0-11.8,9.6-21.3,21.3-21.3
		s21.3,9.6,21.3,21.3v208.8c0,23.6,19.1,42.7,42.7,42.7c23.6,0,42.7-19.1,42.7-42.7V748.4c0-35.3,28.7-64.1,64.1-64.1
		s64.1,28.7,64.1,64.1v155c0,11.8,9.6,21.3,21.3,21.3c11.8,0,21.3-9.6,21.3-21.3V534.3H640.2z"/>
</g>
</svg>
