<?xml version="1.0" encoding="utf-8"?>
<!-- Generator: Adobe Illustrator 24.3.0, SVG Export Plug-In . SVG Version: 6.00 Build 0)  -->
<svg version="1.1" id="Capa_1" xmlns="http://www.w3.org/2000/svg" xmlns:xlink="http://www.w3.org/1999/xlink" x="0px" y="0px"
	 viewBox="0 0 1000 1000" style="enable-background:new 0 0 1000 1000;" xml:space="preserve">
<path d="M940.3,442.7c-6.6-3.4-11.4-9.4-13.3-16.5c-1.9-7.1-0.7-14.7,3.3-21c21.5-33.6,24.1-77.6,2.7-114.6
	c-21.4-37-60.8-56.8-100.6-54.9c-7.4,0.3-14.5-2.4-19.7-7.7c-5.2-5.2-8-12.4-7.7-19.8c1.8-39.9-17.9-79.3-54.9-100.7
	c-37-21.4-81.1-18.8-114.7,2.8c-6.2,4-13.8,5.2-21,3.2c-7.1-1.9-13.1-6.7-16.5-13.3c-18.4-35.4-55.2-59.7-97.9-59.7
	c-42.7,0-79.5,24.2-97.9,59.7c-3.4,6.6-9.4,11.4-16.5,13.3c-7.1,1.9-14.7,0.7-21-3.2c-33.6-21.5-77.6-24.1-114.6-2.7
	c-37,21.4-56.7,60.8-54.9,100.6c0.3,7.4-2.5,14.6-7.7,19.8c-5.2,5.2-12.4,8-19.8,7.7c-39.8-1.8-79.3,17.9-100.6,54.9
	c-21.3,37-18.8,81,2.8,114.6c4,6.2,5.1,13.8,3.2,20.9c-1.9,7.1-6.7,13.2-13.3,16.6C24.2,461.1,0,497.9,0,540.6
	c0,42.4,23.9,79.1,59,97.5c38.3,20.2,75.6,44.6,109.4,71.8l147.6,118.8c28.5,23,39.8,61.3,28.2,96c-2.7,8-1.3,16.8,3.6,23.7
	c4.9,6.8,12.8,10.9,21.3,10.9h262c8.5,0,16.4-4.1,21.3-10.9c4.9-6.8,6.3-15.7,3.6-23.7c-11.6-34.8-0.3-73.1,28.2-96l147.3-118.6
	c34-27.4,70.9-51.6,109.6-72c35.1-18.5,59-55.1,59-97.5C1000,497.9,975.7,461.1,940.3,442.7z M354.2,637.4
	c-5.6,3.7-12.9,2.6-17.3-2.1L165.6,450c-13-14.1-12.2-36.1,1.9-49.1c14.1-13,36.1-12.2,49.1,1.9c1.3,1.4,2.6,3,3.6,4.6l137.9,211.2
	C362.2,624.9,360.4,633.3,354.2,637.4z M419.7,626.6c-6.7,1.5-13.4-2.4-15.6-8.8L290,286.7c-6.3-18.1,3.3-37.9,21.5-44.1
	c18.1-6.2,37.9,3.4,44.1,21.5c0.4,1.3,0.9,2.8,1.1,4l73.4,342.5C431.7,617.9,427,625.1,419.7,626.6z M534.6,243.2l-21.2,371.1
	c-0.4,7.4-6.8,13.1-14.2,12.7c-6.9-0.4-12.3-5.9-12.7-12.7l-21.2-371.1c-1.1-19.1,13.5-35.5,32.7-36.6c19.1-1.1,35.5,13.5,36.6,32.7
	C534.7,240.6,534.7,241.9,534.6,243.2z M595.8,617.9c-2.4,7.1-10.1,10.8-17.1,8.4c-6.5-2.2-10.2-9-8.8-15.6l73.4-342.5
	c4-18.7,22.5-30.7,41.2-26.7c18.7,4,30.6,22.5,26.7,41.2c-0.3,1.3-0.7,2.8-1.1,4L595.8,617.9z M838,445.4c-1,1.6-2.4,3.2-3.6,4.6
	L663.1,635.3c-5.1,5.5-13.6,5.8-19.1,0.8c-4.9-4.5-5.7-11.9-2.1-17.3l137.9-211.2c10.5-16.1,32-20.6,48.1-10.1
	C844,407.8,848.5,429.4,838,445.4z"/>
</svg>
