<?xml version="1.0" encoding="utf-8"?>
<!-- Generator: Adobe Illustrator 24.3.0, SVG Export Plug-In . SVG Version: 6.00 Build 0)  -->
<svg version="1.1" id="Capa_1" xmlns="http://www.w3.org/2000/svg" xmlns:xlink="http://www.w3.org/1999/xlink" x="0px" y="0px"
	 viewBox="0 0 1000 1000" style="enable-background:new 0 0 1000 1000;" xml:space="preserve">
<g>
	<path d="M880.9,660.5H117.2C52.5,660.5,0,713,0,777.7c0,64.7,52.5,117.2,117.2,117.2h763.7c64.7,0,119.1-52.5,119.1-117.2
		C1000,713,945.6,660.5,880.9,660.5z M175.8,807h-58.6v-58.6h58.6V807z M763.7,807H234.4v-58.6h529.3V807z M880.9,807h-58.6v-58.6
		h58.6V807z"/>
	<path d="M103,348.1c16.1,27.8,52.1,37.7,80.1,21.5c28-16.1,37.6-52.1,21.5-80.1c-11.7-20.4-46.2-54.4-75.6-68.4l-67-116l-50.8,29.3
		l70.3,121.8C81.2,290,93.4,331.4,103,348.1L103,348.1z"/>
	<path d="M175.8,601.9h175.8c64.6,0,119.1-52.6,119.1-117.2c0-36.7-17.6-71.8-46.9-93.8L281.2,285.5c-6.2-4.7-13.1-8.8-20.2-12.7
		c23.1,53.8,3.3,117.6-48.6,147.5c-55.8,32.3-127.8,13-160.1-42.9c-6.7-11.5-13.9-30.7-19.7-52.2C12.3,353.8,0,388.4,0,426.2
		C0,523.2,78.7,601.9,175.8,601.9L175.8,601.9z"/>
	<path d="M658.2,221.1l-67-116l-50.8,29.3l70.3,121.8c-0.4,33.8,11.8,75.1,21.4,91.8c16.1,27.8,52.1,37.7,80.1,21.5
		c28-16.1,37.6-52.1,21.5-80.1C722.1,269.1,687.7,235.1,658.2,221.1L658.2,221.1z"/>
	<path d="M953.1,391L810.4,285.5c-6.2-4.7-13.1-8.8-20.2-12.7c23.1,53.8,3.3,117.6-48.6,147.5c-55.8,32.3-127.8,13-160.1-42.9
		c-6.7-11.5-13.9-30.7-19.7-52.2c-20.3,28.5-32.7,63.2-32.7,100.9c0,97.1,78.7,175.8,175.8,175.8h175.8
		c64.6,0,119.1-52.6,119.1-117.2C1000,448,982.4,413,953.1,391L953.1,391z"/>
</g>
</svg>
