<?xml version="1.0" encoding="utf-8"?>
<!-- Generator: Adobe Illustrator 24.3.0, SVG Export Plug-In . SVG Version: 6.00 Build 0)  -->
<svg version="1.1" id="Capa_1" xmlns="http://www.w3.org/2000/svg" xmlns:xlink="http://www.w3.org/1999/xlink" x="0px" y="0px"
	 viewBox="0 0 1000 1000" style="enable-background:new 0 0 1000 1000;" xml:space="preserve">
<g>
	<path d="M500,359.5c-62.9,0-121.3,16.9-173.6,50.2c-51.8,33-97,81.7-134.3,144.7c-53.9,91.2-72.8,181-73.9,186.2h0
		c-2.8,13.8,0.7,28.1,9.6,39c8.9,10.9,22.1,17.2,36.2,17.2h103.4c73.2,0,132.8-59.6,132.8-132.8V560.7c0-6.5,5.3-11.8,11.8-11.8
		c6.5,0,11.8,5.3,11.8,11.8V664c0,38.2-14,75-39.4,103.7l-25.8,29.1H500c120.6,0,218.7-98.1,218.7-218.7
		C718.7,457.6,620.6,359.5,500,359.5z"/>
	<path d="M118,409.5c-18.9-5.8-37.9,8.3-37.9,28v156.2c0,26.5,5.6,51.8,15.7,74.6c27.1-81.2,69.8-163.2,128.4-226.2L118,409.5
		L118,409.5z"/>
	<path d="M701.2,238.6c14.6-5,28.1-12.5,40-21.8h149.4c16.2,0,29.3-13.1,29.3-29.3c0-59.2-48.2-107.4-107.4-107.4h-21.1
		C779.3,34,737.3,0,687.5,0h-3.9c-59.2,0-107.4,48.2-107.4,107.4v222.3c49.6,15.2,92.9,45,125,84.2L701.2,238.6L701.2,238.6z
		 M685.5,105.5c0-16.2,13.1-29.3,29.3-29.3s29.3,13.1,29.3,29.3s-13.1,29.3-29.3,29.3C698.7,134.8,685.5,121.6,685.5,105.5z"/>
	<path d="M471.5,872c-1.3,5.4-1.1,11.1,0.7,16.3l31.3,91.8c4,11.9,15.2,19.9,27.7,19.9h46.9c16.2,0,29.3-13.1,29.3-29.3
		s-13.1-29.3-29.3-29.3h-25.9l-21.7-63.9l10.4-42.9c-23.6,3.7-38.6,3.2-61.1,3.2L471.5,872z"/>
	<path d="M315.3,872c-1.3,5.4-1.1,11.1,0.7,16.3l31.2,91.8c4,11.9,15.2,19.9,27.7,19.9h46.9c16.2,0,29.3-13.1,29.3-29.3
		s-13.1-29.3-29.3-29.3H396l-21.7-63.9l9.6-39.6h-60.3L315.3,872z"/>
</g>
</svg>
