<?xml version="1.0" encoding="utf-8"?>
<!-- Generator: Adobe Illustrator 24.3.0, SVG Export Plug-In . SVG Version: 6.00 Build 0)  -->
<svg version="1.1" id="Capa_1" xmlns="http://www.w3.org/2000/svg" xmlns:xlink="http://www.w3.org/1999/xlink" x="0px" y="0px"
	 viewBox="0 0 1000 1000" style="enable-background:new 0 0 1000 1000;" xml:space="preserve">
<path d="M901.1,261.2l0.4-0.4l0.1,0.1c17.3-13.8,165-103.2,62.4-108.6c-31.3-1.6-105.2,98.8-102.4,74.7c3.8-32.5,29-74.4,29.7-75.5
	c12.8-19.8,21.9-40.9-2.2-54.7c-19-7.2-29.2,0.3-51.3,34.4c-27.5,42.4-21.4,58.7-26.9,73.2l-22.8,9.7
	c-166.5,30.7-194.4,77.3-194.4,77.3c-80.7-1.2-83.3,6.7-83.3,6.7c-86.1,8.3-334.2-10.2-334.2-10.2c-78,1.7-146.2,61.8-146.2,61.8
	c-0.5,0.6-0.9,1.2-1.4,1.7c-0.3,0.1-0.6,0.3-0.8,0.5c-3.1,1.7-5.8,4.6-8.4,8.4C-15.9,413.8,7.8,656.7,7.8,656.7s13.3,9.4,49.2-64.7
	c-9.3-24-15.5-50.1-19.3-75.7c18.8,37,39.4,64.1,39.4,64.1C13.5,685.5,27.5,697.9,27.5,697.9C54,743.5,36.1,848,36.1,848
	c25.6,13.6,22.4,56.1,22.4,56.1c39.8-1.2,68.2,0,68.2,0c13.6-23.9-20.4-44.3-20.4-44.3c-37.5-28.4-28.4-113.6-28.4-113.6
	c36.4-118.2,120.4-210.3,120.4-210.3c148.7,134.1,313,35.7,313,35.7c-8.6,59.1,5.6,134.7,5.6,134.7c28.4,28.4,6.8,163.1,6.8,163.1
	c12.5,2.2,10.2,36.4,10.2,36.4l48.9-2.9c9.6-26.7-17.6-37.5-17.6-37.5c-2.7-8.1-3.8-21.3-4-36.4c-0.6-42.5,6.2-100,6.2-100
	c9-98.4,22.7-133,22.7-133c10.2-42.1,44.3-48.3,44.3-48.3c65.9-73.3,29.6-104.6,98.9-129c0.7-0.3,1.4-0.5,2-0.7
	c68.2-22.4,116.7,45.6,116.7,45.6c27.1,42.5,58.4,15.8,64.4,10.1c0.7-0.6,1-1,1-1c52.3-40.9,5.2-80.7,5.2-80.7
	c-6.7-15.4-23.2-95.5-28.1-119.8C895.5,267.4,897.5,263.6,901.1,261.2z M843.7,327.5c-10.7,0-19.4-8.7-19.4-19.4s8.7-19.4,19.4-19.4
	c10.7,0,19.4,8.7,19.4,19.4S854.5,327.5,843.7,327.5z"/>
</svg>
