<?xml version="1.0" encoding="utf-8"?>
<!-- Generator: Adobe Illustrator 24.3.0, SVG Export Plug-In . SVG Version: 6.00 Build 0)  -->
<svg version="1.1" id="Calque_1" focusable="false" xmlns="http://www.w3.org/2000/svg" xmlns:xlink="http://www.w3.org/1999/xlink"
	 x="0px" y="0px" viewBox="0 0 1000 1000" style="enable-background:new 0 0 1000 1000;" xml:space="preserve">
<path d="M582.4,305.9c-102.9-50.2-223.6-20.5-293.4,64.1l107.8,107.8c12.3,12.3,12.3,32,0,44.1c-6.1,6.1-14.1,9.2-22.1,9.2
	c-8,0-16-3.1-22.1-9.2l-98.1-98.1L4.4,937c-5.7,11.7-6.1,26,0,38.5c10.5,21.7,36.9,30.7,58.6,20.1l261-127.4l-96.1-96.1
	c-12.3-12.1-12.3-32,0-44.1c12.3-12.1,32-12.1,44.1,0l111.3,111.3L582.6,742c46.9-22.9,86.9-61.1,111.5-111.5
	C752.9,510,702.9,364.7,582.4,305.9L582.4,305.9z M762.3,237.7C800.4,158.2,780.6,64.3,703.1,0c-98.2,81.5-102.5,210-15.4,296.7
	l15.6,15.6c86.7,87.1,215.4,82.8,296.7-15.4C935.7,219.4,841.8,199.6,762.3,237.7L762.3,237.7z"/>
</svg>
