<?xml version="1.0" encoding="utf-8"?>
<!-- Generator: Adobe Illustrator 24.3.0, SVG Export Plug-In . SVG Version: 6.00 Build 0)  -->
<svg version="1.1" id="Calque_1" xmlns="http://www.w3.org/2000/svg" xmlns:xlink="http://www.w3.org/1999/xlink" x="0px" y="0px"
	 viewBox="0 0 1000 1000" style="enable-background:new 0 0 1000 1000;" xml:space="preserve">
<g>
	<path d="M847.7,101.2C832.1,62.3,851.6,35,871,0C668.7,70,637.6,120.6,618.1,284C587,501.9,532.5,416.3,380.8,529.2
		c-144,105.1-112.8,221.8-108.9,358c-229.6-198.4,194.6-393,105.1-610.9c-50.6-116.7-202.3-155.6-295.7-73.9
		c-58.4,46.7-23.3,105.1,35,66.1c66.1-54.5,151.8-27.2,182.9,46.7C345.7,428,159,607,131.7,712.1C100.6,817.1,178.4,1000,322.4,1000
		h287.9c0-35-15.6-50.6-46.7-54.5c77.8-70,89.5-155.6,3.9-260.7c93.4,77.8,97.3,198.4,38.9,256.8c27.2,15.6,31.1,38.9,35,58.4h112.8
		c-11.7-15.6-23.3-31.1-42.8-38.9c-11.7-194.6,97.3-252.9,132.3-365.8c23.3-89.5-11.7-182.9-38.9-260.7
		c42.8-31.1,97.3,23.3,144-62.3C909.9,210.1,929.4,124.5,847.7,101.2z M858.1,205.3c-12.4,0-22.4-10-22.4-22.4s10-22.4,22.4-22.4
		s22.4,10,22.4,22.4S870.5,205.3,858.1,205.3z"/>
</g>
</svg>
