<?xml version="1.0" encoding="utf-8"?>
<!-- Generator: Adobe Illustrator 24.3.0, SVG Export Plug-In . SVG Version: 6.00 Build 0)  -->
<svg version="1.1" id="Capa_1" xmlns="http://www.w3.org/2000/svg" xmlns:xlink="http://www.w3.org/1999/xlink" x="0px" y="0px"
	 viewBox="0 0 1000 1000" style="enable-background:new 0 0 1000 1000;" xml:space="preserve">
<g>
	<path d="M999,501.9c0-46.9-22.5-92.2-59.4-119.5c18.3-42,16.1-90.9-7.4-131.5c-23.4-40.6-64.7-66.9-110.2-72.1
		c-5.2-45.5-31.5-86.7-72.1-110.2c-40.6-23.4-89.5-25.6-131.5-7.4C591.3,24.5,547.8,0,501,0s-90.3,24.5-117.6,61.3
		c-42-18.3-90.9-16.1-131.5,7.4c-40.6,23.4-66.9,64.7-72.1,110.2c-45.5,5.2-86.7,31.5-110.2,72.1c-23.4,40.6-25.6,89.4-7.4,131.5
		C25.5,409.7,1,453.1,1,500s24.5,90.3,61.3,117.6c-18.3,42-16.1,90.9,7.4,131.5c23.5,40.6,64.7,66.9,110.2,72.1
		c5.2,45.5,31.6,86.7,72.1,110.2c40.6,23.4,89.5,25.7,131.5,7.4c27.3,36.8,70.7,61.3,117.6,61.3s90.3-24.5,117.6-61.3
		c42,18.3,90.9,16.1,131.5-7.4c40.6-23.4,66.9-64.7,72.1-110.2c45.5-5.2,86.7-31.6,110.2-72.1c23.4-40.6,25.6-89.5,7.4-131.5
		C976.5,590.2,999,548.7,999,501.9L999,501.9z"/>
</g>
</svg>
