<?xml version="1.0" encoding="utf-8"?>
<!-- Generator: Adobe Illustrator 24.3.0, SVG Export Plug-In . SVG Version: 6.00 Build 0)  -->
<svg version="1.1" id="Calque_1" xmlns="http://www.w3.org/2000/svg" xmlns:xlink="http://www.w3.org/1999/xlink" x="0px" y="0px"
	 viewBox="0 0 1000 1000" style="enable-background:new 0 0 1000 1000;" xml:space="preserve">
<g>
	<g>
		<path d="M869.9,550.7V547c0-5.1-4.1-9.4-9.4-9.4h-11.7v-20.7h29.5L951,280.6H25l72.8,236.3h29.3v79.5h43.7
			c4.7-14.6,12.9-27.9,24-38.9c18.9-19.1,44.1-29.5,70.9-29.5c44.3,0,81.6,28.7,94.7,68.5h255.2c13.1-39.8,50.6-68.5,94.7-68.5
			c44.1,0,81.6,28.7,94.7,68.5h43.7v-7.8h11.7c5.1,0,9.4-4.1,9.4-9.4v-5.3H975v-23.2H869.9z"/>
	</g>
	<g>
		<path d="M265.6,536.2c-50.6,0-91.6,41-91.6,91.6c0,50.6,41,91.6,91.6,91.6s91.6-41,91.6-91.6C357.2,577.2,316.3,536.2,265.6,536.2
			z M265.6,680.7c-29.2,0-52.9-23.7-52.9-52.9c0-29.2,23.7-52.9,52.9-52.9s52.9,23.7,52.9,52.9C318.5,657,294.8,680.7,265.6,680.7z"
			/>
	</g>
	<g>
		<path d="M710.4,536.2c-50.6,0-91.6,41-91.6,91.6c0,50.6,41,91.6,91.6,91.6c50.6,0,91.6-41,91.6-91.6
			C802,577.2,761,536.2,710.4,536.2z M710.4,680.7c-29.2,0-52.9-23.7-52.9-52.9c0-29.2,23.7-52.9,52.9-52.9
			c29.2,0,52.9,23.7,52.9,52.9C763.3,657,739.6,680.7,710.4,680.7z"/>
	</g>
</g>
</svg>
