<?xml version="1.0" encoding="utf-8"?>
<!-- Generator: Adobe Illustrator 24.3.0, SVG Export Plug-In . SVG Version: 6.00 Build 0)  -->
<svg version="1.1" id="Capa_1" xmlns="http://www.w3.org/2000/svg" xmlns:xlink="http://www.w3.org/1999/xlink" x="0px" y="0px"
	 viewBox="0 0 1000 1000" style="enable-background:new 0 0 1000 1000;" xml:space="preserve">
<g>
	<path d="M250,17.9v35.7h142.9V17.9C392.8,8,384.9,0,375,0H267.9C258,0,250,8,250,17.9z"/>
	<path d="M303.6,446.4h392.9c9.9,0,17.9,8,17.9,17.9v303.6c0,9.9-8,17.9-17.9,17.9H303.6c-9.9,0-17.9-8-17.9-17.9V464.3
		C285.7,454.4,293.7,446.4,303.6,446.4z"/>
	<path d="M862.5,361.1c8.7-8.4,12.5-12.5,12.5-21.8v-250C875,40,835,0,785.7,0H607.1c-49.3,0-89.3,40-89.3,89.3v43.2L407.3,89.3H242
		l-103,161.8c-9.1,14.4-13.9,31-13.9,48v22.3h464.3c9.9,0,17.9,8,17.9,17.9s-8,17.9-17.9,17.9H133.4c1.3,1.3,2.5,2.5,4.1,3.9
		c14.5,11.5,23,28.9,23.2,47.3c-0.3,18.5-8.8,35.9-23.2,47.5c-8.7,8.4-12.5,12.3-12.5,21.8c0,9.3,3.8,13.4,12.3,21.6
		c14.7,11.3,23.4,28.9,23.4,47.5c0,18.6-8.6,36.2-23.4,47.5c-8.6,8.2-12.3,12.3-12.3,21.6s3.8,13.4,12.5,21.8
		c14.4,11.6,22.9,29,23.2,47.5c-0.2,18.5-8.8,35.8-23.2,47.3c-8.7,8.4-12.5,12.3-12.5,21.8c0,9.3,3.8,13.4,12.5,21.8
		c14.6,11.4,23.2,28.9,23.2,47.5c0,18.6-8.6,36.1-23.2,47.5c-1.6,1.4-2.9,2.7-4.1,3.9h455.9c9.9,0,17.9,8,17.9,17.9
		c0,9.9-8,17.9-17.9,17.9H125v53.6c0.1,19.7,16,35.7,35.7,35.7h678.6c19.7-0.1,35.7-16,35.7-35.7v-71.4c0-9.5-3.8-13.4-12.5-21.8
		c-14.6-11.4-23.2-28.9-23.2-47.5c0-18.6,8.6-36.1,23.2-47.5c8.7-8.4,12.5-12.5,12.5-21.8s-3.8-13.4-12.5-21.8
		c-14.6-11.4-23.2-28.9-23.2-47.4s8.6-36,23.2-47.4c8.7-8.4,12.5-12.3,12.5-21.8c0-9.3-3.8-13.4-12.5-21.6
		c-14.6-11.4-23.2-28.9-23.2-47.5c0-18.6,8.6-36.1,23.2-47.5c8.7-8.2,12.5-12.3,12.5-21.6c0-9.5-3.8-13.4-12.5-21.8
		c-14.6-11.4-23.2-28.9-23.2-47.4C839.3,389.9,847.9,372.4,862.5,361.1z M600.7,164.8c-0.2,0-0.2,0-0.2-0.2c-1.6-0.6-3-1.5-4.3-2.7
		c-0.5-0.4-1.3-0.5-1.6-1.1c-0.8-1-1.5-2.1-2.1-3.2c-0.7-0.7-1.3-1.5-1.8-2.3c-0.1-0.8-0.3-1.7-0.5-2.5c-0.5-1.4-0.8-2.9-0.9-4.5
		V89.3c0-9.8,8-17.8,17.9-17.9h178.6c9.8,0,17.8,8,17.9,17.9v155L600.7,164.8z M750,767.9c0,29.6-24,53.5-53.6,53.6H303.6
		c-29.6,0-53.5-24-53.6-53.6V464.3c0-29.6,24-53.5,53.6-53.6h392.9c29.6,0,53.5,24,53.6,53.6V767.9z"/>
</g>
</svg>
