<?xml version="1.0" encoding="utf-8"?>
<!-- Generator: Adobe Illustrator 24.3.0, SVG Export Plug-In . SVG Version: 6.00 Build 0)  -->
<svg version="1.1" id="Capa_1" xmlns="http://www.w3.org/2000/svg" xmlns:xlink="http://www.w3.org/1999/xlink" x="0px" y="0px"
	 viewBox="0 0 1000 1000" style="enable-background:new 0 0 1000 1000;" xml:space="preserve">
<g>
	<g>
		<g>
			<path d="M995.1,513.1L886.8,353.5L995.1,194c5.1-7.6,6.3-17.1,3.3-25.7c-3-8.6-9.8-15.4-18.5-18.3L626.5,32.8
				c-12.6-4.3-26.3,0.5-33.6,11.5L500,183.5L407.2,44.3c-7.4-11-21.2-15.8-33.6-11.5L20,150c-8.7,2.9-15.5,9.6-18.5,18.3
				c-2.9,8.6-1.7,18.1,3.3,25.7l108.3,159.5L4.9,513.1c-5.1,7.6-6.3,17.1-3.3,25.7c3,8.6,9.8,15.4,18.5,18.3l353.5,117.2
				c12.4,4.2,26.3-0.5,33.6-11.5L500,523.5l92.8,139.2c7.4,11.1,21.2,15.7,33.6,11.5L980,557.1c8.7-2.9,15.5-9.6,18.5-18.3
				C1001.4,530.2,1000.1,520.7,995.1,513.1z M500,439.9l-258.9-86.3L500,267.2L759,353.5L500,439.9z"/>
		</g>
	</g>
	<g>
		<g>
			<path d="M645,729.9c-36.9,12.4-78.6-1-100.9-34.6L500,629.2l-44.1,66.1c-22.3,33.5-64,47-101.1,34.6l-235.7-78.6v171
				c0,12.6,8.1,23.8,20,27.8l351.4,117.1c1.1,0.4,2.1,0.7,3.2,0.9c0,0,0,0,0,0h0c2.1,0.4,4.1,0.7,6.2,0.7c2.2,0,4.4-0.3,6.6-0.7
				c1-0.2,1.9-0.5,2.9-0.8l351.4-117.2c12-4,20-15.2,20-27.8v-171L645,729.9z"/>
		</g>
	</g>
</g>
</svg>
