<?xml version="1.0" encoding="utf-8"?>
<!-- Generator: Adobe Illustrator 24.3.0, SVG Export Plug-In . SVG Version: 6.00 Build 0)  -->
<svg version="1.1" id="Calque_1" xmlns="http://www.w3.org/2000/svg" xmlns:xlink="http://www.w3.org/1999/xlink" x="0px" y="0px"
	 viewBox="0 0 1000 1000" style="enable-background:new 0 0 1000 1000;" xml:space="preserve">
<g id="Page-1">
	<g id="_x30_55---Pipe">
		<path id="Rectangle-path" d="M53.6,0h357.2c9.9,0,17.9,8,17.9,17.9v35.7c0,9.9-8,17.9-17.9,17.9H53.6c-9.9,0-17.9-8-17.9-17.9
			V17.9C35.7,8,43.7,0,53.6,0z"/>
		<path id="Shape" d="M607.1,714.3v178.6h321.4v-250c-0.2-167.6-136-303.4-303.6-303.6H446.4c-29.6,0-53.6-24-53.6-53.6V107.1H71.4
			v250c0.2,167.6,136,303.4,303.6,303.6h178.6C583.1,660.7,607.1,684.7,607.1,714.3z M660.7,714.3H875c9.9,0,17.9,8,17.9,17.9
			c0,9.9-8,17.9-17.9,17.9H660.7c-9.9,0-17.9-8-17.9-17.9C642.8,722.3,650.8,714.3,660.7,714.3z M339.3,285.7H125
			c-9.9,0-17.9-8-17.9-17.9s8-17.9,17.9-17.9h214.3c9.9,0,17.9,8,17.9,17.9S349.1,285.7,339.3,285.7z M517.8,607.1
			c0,9.9-8,17.9-17.9,17.9c-9.9,0-17.9-8-17.9-17.9V392.9c0-9.9,8-17.9,17.9-17.9c9.9,0,17.9,8,17.9,17.9V607.1z"/>
		<path id="Rectangle-path_1_" d="M589.3,928.6h357.2c9.9,0,17.9,8,17.9,17.9v35.7c0,9.9-8,17.9-17.9,17.9H589.3
			c-9.9,0-17.9-8-17.9-17.9v-35.7C571.4,936.6,579.4,928.6,589.3,928.6z"/>
	</g>
</g>
</svg>
