<?xml version="1.0" encoding="utf-8"?>
<!-- Generator: Adobe Illustrator 24.3.0, SVG Export Plug-In . SVG Version: 6.00 Build 0)  -->
<svg version="1.1" id="Calque_1" xmlns="http://www.w3.org/2000/svg" xmlns:xlink="http://www.w3.org/1999/xlink" x="0px" y="0px"
	 viewBox="0 0 1000 1000" style="enable-background:new 0 0 1000 1000;" xml:space="preserve">
<path d="M760.5,651.3v25.3h-10c-3,0-5.5,0.6-6,1.7l-4.5,10c-5.7,0.6-11.1,1.3-16.2,2.3c-7.9-1.7-15.1-4-22.6-5.7
	c-1.1-0.2-2.1-0.4-3.6-0.4c-1.3,0-2.6,0-3.6,0.4c-9.6,2.3-19.6,6.2-27.5,9.2c-1.1,0.2-1.7,0.9-1.7,1.3s0.4,0.9,1.5,1.3l17.5,7.7
	c-2.6,1.7-4.5,3.4-6.2,5.1l-30,1.5c-3,0.2-5.1,0.9-5.1,1.9v12.3c0,0.9,1.9,1.5,4.5,1.9c9.8,0.9,20.4,1.3,30.4,1.7
	c1.9,1.9,4,3.4,6.4,5.1l-17.7,7.7c-0.9,0.4-1.5,1.1-1.5,1.5c0,1.9,24,9.4,29.2,10.6c1.1,0.2,2.1,0.4,3.6,0.4s3-0.2,4-0.6
	c7.4-1.9,14.5-4,22.6-5.7c4.7,1.1,9.8,1.7,14.9,2.3l4.5,10.2c0.4,0.9,3.4,1.5,5.7,1.5h36.4c3,0,5.5-0.6,6-1.7l4.5-10
	c5.5-0.6,10.9-1.3,16-2.3c7.9,1.7,15.1,4,22.6,5.7c1.1,0.2,2.1,0.4,3.6,0.4c1.3,0,2.6,0,3.6-0.4c9.8-2.3,19.8-6.2,27.9-9.2
	c1.1-0.2,1.7-0.9,1.7-1.3s-0.4-0.9-1.5-1.3l-17.5-7.7c2.6-1.7,4.5-3.4,6.2-5.1l30-1.5c3-0.2,5.1-0.9,5.1-1.9l-0.2-12.3
	c0-0.9-1.9-1.5-4.5-1.9c-9.8-1.1-20.4-1.3-30.4-1.7c-1.9-1.9-4-3.4-6.4-5.1l17.7-7.7c1.1-0.4,1.7-1.1,1.7-1.5
	c0-1.9-23.8-9.4-29.2-10.6c-1.1,0-1.9-0.4-3.6-0.4c-1.7,0-3,0.2-4,0.6c-7.4,1.9-14.7,4-22.6,5.7c-4.9-1.1-10-1.9-15.1-2.3l-4.5-10.2
	c-0.4-0.9-3.4-1.5-5.7-1.5H776v-25.3h129.8v54.9h24.5v34.9c0,12.3,10,22.3,22.3,22.3c12.3,0,22.3-10,22.3-22.3V660
	c0-12.6-10-22.6-22.3-22.6c-12.3,0-22.3,10-22.3,22.3v34.9H922V510.2H634.1L522.8,266.5h3.4v-30h-52.6v30h3.4L365.7,510.2H78v184.3
	h-8.3V660c0-12.3-10-22.3-22.3-22.3S25,647.7,25,660v81.1c0,12.3,10,22.3,22.3,22.3s22.3-10,22.3-22.3V706h24.5v-54.9h130v25.5h-10
	c-3,0-5.5,0.6-6,1.7l-4.5,10c-5.7,0.6-11.1,1.3-16.2,2.3c-7.9-1.7-15.1-4-22.6-5.7c-1.1-0.2-2.1-0.4-3.6-0.4c-1.3,0-2.6,0-3.6,0.4
	c-9.6,2.3-19.6,6.2-27.5,9.2c-1.1,0.2-1.7,0.9-1.7,1.3s0.4,0.9,1.5,1.3l17.5,7.7c-2.6,1.7-4.5,3.4-6.2,5.1l-30,1.5
	c-3,0.2-5.1,0.9-5.1,1.9v12.3c0,0.9,1.9,1.5,4.5,1.9c9.8,0.9,20.4,1.3,30.4,1.7c1.9,1.9,4,3.4,6.4,5.1l-17.7,7.7
	c-0.9,0.4-1.5,1.1-1.5,1.5c0,1.9,24,9.4,29.2,10.6c1.1,0.2,2.1,0.4,3.6,0.4c1.5,0,3-0.2,4-0.6c7.4-1.9,14.5-4,22.6-5.7
	c4.7,1.1,9.8,1.7,14.9,2.3l4.5,10.2c0.4,0.9,3.4,1.5,5.7,1.5h36.4c3,0,5.5-0.6,6-1.7l4.5-10c5.5-0.6,10.9-1.3,16-2.3
	c7.9,1.7,15.1,4,22.6,5.7c1.1,0.2,2.1,0.4,3.6,0.4c1.3,0,2.6,0,3.6-0.4c9.8-2.3,19.8-6.2,27.9-9.2c1.1-0.2,1.7-0.9,1.7-1.3
	s-0.4-0.9-1.5-1.3l-17.5-7.7c2.6-1.7,4.5-3.4,6.2-5.1l30-1.5c3-0.2,5.1-0.9,5.1-1.9l-0.2-12.3c0-0.9-1.9-1.5-4.5-1.9
	c-9.8-1.1-20.4-1.3-30.4-1.7c-1.9-1.9-4-3.4-6.4-5.1l17.7-7.7c1.1-0.4,1.7-1.1,1.7-1.5c0-1.9-23.8-9.4-29.2-10.6
	c-1.1,0-1.9-0.4-3.6-0.4s-3,0.2-4,0.6c-7.4,1.9-14.7,4-22.6,5.7c-4.9-1.1-10-1.9-15.1-2.3l-4.5-10.2c-0.4-0.9-3.4-1.5-5.7-1.5h-10.9
	v-25.3 M389.5,510.2L500,268.7l110.5,241.5H389.5z"/>
</svg>
