<?xml version="1.0" encoding="utf-8"?>
<!-- Generator: Adobe Illustrator 24.3.0, SVG Export Plug-In . SVG Version: 6.00 Build 0)  -->
<svg version="1.1" id="Calque_1" xmlns="http://www.w3.org/2000/svg" xmlns:xlink="http://www.w3.org/1999/xlink" x="0px" y="0px"
	 viewBox="0 0 1000 1000" style="enable-background:new 0 0 1000 1000;" xml:space="preserve">
<g>
	<path d="M795.7,863.9l-49.9-159.4c-4.6-14.1-17.5-23.7-32-23.7c-14.6,0-27.9,9.6-32,23.7L631,866.4c-0.4,0.8-0.4,1.7-0.8,2.5
		c-2.5,8.7-4.2,17.5-4.2,26.2c0,48.3,39.1,87.8,87.8,87.8c48.3,0,87.8-39.1,87.8-87.8c0-8.3-1.2-17.1-3.7-25
		C797.3,867.7,796.5,866,795.7,863.9"/>
	<path d="M972.1,22.5l-387-5.4c-1.2,0-2.9,0-4.2,0.4v-0.4l-1.7,0.8c-2.9,0.4-5.4,1.7-7.9,2.9L459.4,64.1c-2.5-1.2-5.4-2.1-8.7-2.1
		h-44.9v-4.6c0-11.7-9.2-20.8-20.8-20.8h-42.4c-11.7,0-20.8,9.2-20.8,20.8V62h-48.3c-11.7,0-20.8,9.2-20.8,20.8v25.8
		c0,7.9,4.6,15,11.2,18.3v114.9h-77.4c-6.7,0-12.9,3.3-16.6,8.3H33.7C15,250.1,0,265.1,0,283.8v111.1c0,18.7,15,33.7,33.7,33.7H169
		c3.7,5.8,10,9.6,17.5,9.6h351.2c7.1,0,13.7-3.7,17.5-9.6h50.4c11.7,0,20.8,9.2,20.8,20.8v64.5c-15.4,2.9-27,16.6-27,32.9v57
		c0,18.7,15,33.7,33.7,33.7h166c18.7,0,33.7-15,33.7-33.7v-57c0-17.1-12.5-31.2-29.1-33.3V394.1c0-79.1-64.5-143.6-143.6-143.6
		H554.7c-3.7-5-10-8.3-16.6-8.3h-77.4V135.7l120.7-51.6c1.2,0,2.5,0.4,3.7,0.4l387-5.4c15.4,0,27.9-12.5,27.9-27.9
		C1000.4,35,987.5,22.5,972.1,22.5"/>
</g>
</svg>
