<?xml version="1.0" encoding="utf-8"?>
<!-- Generator: Adobe Illustrator 24.3.0, SVG Export Plug-In . SVG Version: 6.00 Build 0)  -->
<svg version="1.1" id="Capa_1" xmlns="http://www.w3.org/2000/svg" xmlns:xlink="http://www.w3.org/1999/xlink" x="0px" y="0px"
	 viewBox="0 0 1000 1000" style="enable-background:new 0 0 1000 1000;" xml:space="preserve">
<g>
	<g>
		<path d="M719.2,457.7c-3.5,4.1-5,9.5-4.2,14.8l36.8,236.4c4.6,30.5,30.9,53.1,61.8,53H975V735l-55.5,0.7c-2.2,0-4.3-0.7-6-2.1
			L781.3,623.3c-1.7-1.4-2.8-3.3-3.1-5.4l-29.6-166.6h-15.3C727.8,451.2,722.7,453.6,719.2,457.7L719.2,457.7z"/>
		<path d="M670.3,615.9h-16.9v-18.7h16.9V615.9z"/>
		<path d="M457,678.3C457,678.3,457,678.3,457,678.3c0,15.2,12.3,27.6,27.6,27.6c15.2,0,27.6-12.3,27.6-27.6s-12.3-27.6-27.6-27.6
			C469.4,650.8,457.1,663.1,457,678.3z"/>
		<circle cx="342.2" cy="678.2" r="27.6"/>
		<path d="M166.5,678.3C166.5,678.3,166.5,678.3,166.5,678.3c0,15.2,12.3,27.6,27.6,27.6c15.2,0,27.6-12.3,27.6-27.6
			c0-15.2-12.3-27.6-27.6-27.6C178.8,650.8,166.5,663.1,166.5,678.3z"/>
		<path d="M110.6,669.2c-5,0-9.1,4.1-9.1,9.1c0,5,4.1,9.1,9.1,9.1h0.9c0.9,8.6,3.2,17,6.7,24.9l-0.8,0.5c0,0-0.1,0-0.1,0.1
			c-4.4,2.6-5.8,8.1-3.3,12.5c2.6,4.4,8.1,5.8,12.5,3.3l0.9-0.5c5.1,7,11.3,13.1,18.2,18.2l-0.5,0.9c-2.5,4.3-1,9.9,3.3,12.4
			c4.4,2.6,9.9,1.1,12.5-3.3l0.5-0.9c7.9,3.5,16.3,5.7,24.9,6.7v1c0,5,4.1,9.1,9.1,9.1c5,0,9.1-4.1,9.1-9.1v-0.5h21.9v0.5
			c0,5,4.1,9.1,9.1,9.1s9.1-4.1,9.1-9.1v-0.5H273v0.5c0,5,4.1,9.1,9.1,9.1c5,0,9.1-4.1,9.1-9.1v-0.5h21.9v0.5c0,5,4.1,9.1,9.1,9.1
			c5,0,9.1-4.1,9.1-9.1v-0.5h21.9v0.5c0,5,4.1,9.1,9.1,9.1c5,0,9.1-4.1,9.1-9.1v-0.5h21.9v0.5c0,5,4.1,9.1,9.1,9.1
			c5,0,9.1-4.1,9.1-9.1v-0.5h21.9v0.5c0,5,4.1,9.1,9.1,9.1s9.1-4.1,9.1-9.1v-0.5h24.6v0.5c0,5,4.1,9.1,9.1,9.1s9.1-4.1,9.1-9.1v-1
			c8.6-0.9,17-3.1,24.9-6.6l0.5,0.8c0,0,0,0.1,0.1,0.1c2.6,4.4,8.1,5.8,12.5,3.3c4.4-2.6,5.8-8.1,3.3-12.5l-0.5-0.8
			c7-5.1,13.2-11.2,18.3-18.2l0.7,0.4c0,0,0.1,0,0.1,0.1c4.4,2.5,10,1,12.5-3.4c2.5-4.4,1-10-3.4-12.5l-0.7-0.4
			c3.5-7.9,5.8-16.4,6.8-25h0.7c5,0,9.1-4.1,9.1-9.1c0-5-4.1-9.1-9.1-9.1h-0.6c-0.9-8.7-3.2-17.1-6.7-25.1l0.5-0.3
			c0.1,0,0.2-0.1,0.2-0.1c4.3-2.6,5.7-8.2,3.2-12.5s-8.2-5.7-12.5-3.2l-0.5,0.3c-5.1-7-11.3-13.2-18.4-18.4l0.3-0.5
			c0,0,0-0.1,0.1-0.1c2.5-4.4,1-10-3.4-12.5c-4.4-2.5-10-1-12.5,3.4l-0.3,0.5c-8-3.5-16.4-5.8-25.1-6.7v-0.7c0-5-4.1-9.1-9.1-9.1
			c-5,0-9.1,4.1-9.1,9.1v0.2h-24.6v-0.2c0-5-4.1-9.1-9.1-9.1c-5,0-9.1,4.1-9.1,9.1v0.2h-21.9v-0.2c0-5-4.1-9.1-9.1-9.1
			s-9.1,4.1-9.1,9.1v0.2h-21.9v-0.2c0-5-4.1-9.1-9.1-9.1c-5,0-9.1,4.1-9.1,9.1v0.2h-21.9v-0.2c0-5-4.1-9.1-9.1-9.1s-9.1,4.1-9.1,9.1
			v0.2h-21.9v-0.2c0-5-4.1-9.1-9.1-9.1c-5,0-9.1,4.1-9.1,9.1v0.2h-28.2v-0.2c0-5-4.1-9.1-9.1-9.1s-9.1,4.1-9.1,9.1v0.2h-21.9v-0.2
			c0-5-4.1-9.1-9.1-9.1s-9.1,4.1-9.1,9.1v0.7c-8.6,0.9-17.1,3.2-25,6.7l-0.4-0.6c0,0,0-0.1-0.1-0.1c-2.6-4.4-8.1-5.8-12.5-3.3
			c-4.4,2.6-5.8,8.1-3.3,12.5l0.4,0.7c-7,5.1-13.2,11.3-18.3,18.3l-0.7-0.4c0,0-0.1,0-0.1-0.1c-4.4-2.5-10-1-12.5,3.4
			c-2.5,4.4-1,10,3.4,12.5l0.7,0.4c-3.5,7.9-5.7,16.4-6.7,25L110.6,669.2L110.6,669.2z M439.6,687c-3-0.9-5.3-3.2-6.2-6.2
			c-1.4-4.8,1.3-9.9,6.2-11.3c0.4-2.1,1-4.2,1.7-6.2c-2.1-2.2-3-5.4-2.2-8.4c1.2-4.9,6.1-7.8,11-6.6c1.4-1.6,2.9-3.1,4.6-4.5
			c-0.7-3,0.1-6.2,2.2-8.4c3.5-3.6,9.2-3.8,12.8-0.3c2-0.7,4.1-1.3,6.2-1.7c0.9-3,3.2-5.3,6.2-6.2c4.8-1.4,9.9,1.3,11.3,6.2
			c2.1,0.4,4.2,1,6.2,1.7c2.2-2.1,5.4-3,8.4-2.2c4.9,1.2,7.8,6.1,6.6,11c1.6,1.4,3.1,2.9,4.5,4.5c3-0.7,6.2,0.1,8.4,2.2
			c3.6,3.5,3.8,9.2,0.3,12.8c0.7,2,1.3,4.1,1.7,6.2c3,0.9,5.3,3.2,6.2,6.2c1.4,4.8-1.3,9.9-6.2,11.3c-0.4,2.1-1,4.2-1.7,6.2
			c2.1,2.2,3,5.4,2.2,8.4c-1.2,4.9-6.1,7.9-11,6.7c-1.4,1.6-2.9,3.1-4.5,4.5c0.7,3-0.1,6.2-2.3,8.4c-3.5,3.6-9.2,3.8-12.9,0.3
			c-2,0.7-4.1,1.3-6.2,1.7c-0.9,3-3.2,5.3-6.2,6.2c-4.8,1.4-9.9-1.3-11.3-6.2c-2.1-0.4-4.2-1-6.2-1.7c-2.2,2.1-5.4,3-8.4,2.2
			c-4.9-1.2-7.9-6.1-6.7-11c-1.6-1.4-3.1-2.9-4.5-4.5c-3,0.8-6.2-0.1-8.5-2.2c-3.6-3.5-3.8-9.2-0.3-12.9
			C440.6,691.3,440,689.2,439.6,687L439.6,687z M297.4,687.1c-3-0.9-5.3-3.2-6.2-6.2c-1.4-4.8,1.3-9.9,6.2-11.3
			c0.4-2.1,1-4.2,1.7-6.2c-2.1-2.2-3-5.4-2.2-8.4c1.2-4.9,6.1-7.8,11-6.6c1.4-1.6,2.9-3.1,4.5-4.5c-0.7-3,0.1-6.2,2.2-8.4
			c3.5-3.6,9.2-3.8,12.8-0.3c2-0.7,4.1-1.3,6.2-1.7c0.9-3,3.2-5.3,6.2-6.2c4.8-1.4,9.9,1.3,11.3,6.2c2.1,0.4,4.2,1,6.2,1.7
			c2.3-2.2,5.5-3,8.5-2.3c4.9,1.2,7.8,6.1,6.6,11c1.6,1.4,3.1,2.9,4.6,4.5c3-0.7,6.2,0.1,8.4,2.2c3.6,3.5,3.8,9.2,0.3,12.8
			c0.7,2,1.3,4.1,1.7,6.2c3,0.9,5.3,3.2,6.2,6.2c1.4,4.8-1.3,9.9-6.2,11.3c-0.4,2.1-1,4.2-1.7,6.2c2.1,2.2,3,5.4,2.2,8.4
			c-1.2,4.9-6.1,7.9-11,6.7c-1.4,1.6-2.9,3.1-4.5,4.5c0.7,3-0.1,6.2-2.3,8.4c-3.5,3.6-9.2,3.8-12.9,0.3c-2,0.7-4.1,1.3-6.2,1.7
			c-0.9,3-3.2,5.3-6.2,6.2c-4.8,1.4-9.9-1.3-11.3-6.2c-2.1-0.4-4.2-1-6.2-1.7c-2.2,2.1-5.4,3-8.4,2.2c-4.9-1.2-7.9-6.1-6.7-11
			c-1.6-1.4-3.1-2.9-4.5-4.5c-3,0.8-6.2-0.1-8.5-2.2c-3.6-3.5-3.8-9.2-0.3-12.9C298.4,691.3,297.8,689.2,297.4,687.1L297.4,687.1z
			 M149.1,687c-3-0.9-5.3-3.2-6.2-6.2c-1.4-4.8,1.3-9.9,6.2-11.3c0.4-2.1,1-4.2,1.7-6.2c-2.1-2.2-3-5.4-2.2-8.4
			c1.2-4.9,6.1-7.8,11-6.6c1.4-1.6,2.9-3.1,4.5-4.5c-0.7-3,0.1-6.2,2.2-8.4c3.5-3.6,9.2-3.8,12.8-0.3c2-0.7,4.1-1.3,6.2-1.7
			c0.9-3,3.2-5.3,6.2-6.2c4.8-1.4,9.9,1.3,11.3,6.2c2.1,0.4,4.2,1,6.2,1.7c2.2-2.1,5.4-3,8.4-2.2c4.9,1.2,7.8,6.1,6.6,11
			c1.6,1.4,3.1,2.9,4.6,4.5c3-0.7,6.2,0.1,8.4,2.2c3.6,3.5,3.8,9.2,0.3,12.8c0.7,2,1.3,4.1,1.7,6.2c3,0.9,5.3,3.2,6.2,6.2
			c1.4,4.8-1.3,9.9-6.2,11.3c-0.4,2.1-1,4.2-1.7,6.2c2.1,2.2,3,5.4,2.2,8.4c-1.2,4.9-6.1,7.9-11,6.7c-1.4,1.6-2.9,3.1-4.5,4.5
			c0.7,3-0.1,6.2-2.3,8.4c-3.5,3.6-9.2,3.8-12.9,0.3c-2,0.7-4.1,1.3-6.2,1.7c-0.9,3-3.2,5.3-6.2,6.2c-4.8,1.4-9.9-1.3-11.3-6.2
			c-2.1-0.4-4.2-1-6.2-1.7c-2.2,2.1-5.4,3-8.4,2.2c-4.9-1.2-7.9-6.1-6.7-11c-1.6-1.4-3.1-2.9-4.5-4.5c-3,0.8-6.2-0.1-8.5-2.2
			c-3.6-3.5-3.8-9.2-0.3-12.9C150,691.3,149.5,689.2,149.1,687L149.1,687z"/>
		<path d="M685.3,576.1c-0.3,1.2-0.4,2.4-0.4,3.7v64.1c0,2,1.6,3.7,3.7,3.7h30.6l-11.1-71.4L685.3,576.1z"/>
	</g>
	<path d="M484.4,417.3V271.7h-30.8v145.6h-72l-54.2-189.7H130.3v191.1l-91,15.1C30.9,436.4,25,444.2,25,453v197.7l68.7,13.5
		c1.5-1.5,3.2-2.8,5.1-3.8c0.9-4.6,2.1-9.2,3.7-13.6c-4.1-6.3-4.3-14.4-0.5-21l0,0c3.8-6.5,10.9-10.4,18.5-10c3.1-3.6,6.4-6.9,10-10
		c-0.6-11.1,7.9-20.5,19-21.1c4.2-0.2,8.4,0.9,12,3.2c4.4-1.5,9-2.8,13.6-3.6c5-9.9,17.1-13.8,27-8.8c3.2,1.6,5.9,4.1,7.8,7.1h8.9
		c3.7-5.8,9.9-9.1,16.4-9.3c0.3,0,0.6,0,0.8,0c0.3,0,0.6,0,0.9,0c6.2,0.4,12.1,3.7,15.7,9.3h12.5c1.6-2.5,3.7-4.6,6.2-6.2
		c9.4-5.9,21.8-3.2,27.7,6.2h6.2c1.6-2.5,3.7-4.6,6.2-6.2c9.4-5.9,21.8-3.2,27.7,6.2h6.2c1.6-2.5,3.7-4.6,6.2-6.2
		c9.4-5.9,21.8-3.2,27.7,6.2h6.2c1.6-2.5,3.7-4.6,6.2-6.2c9.4-5.9,21.8-3.2,27.7,6.2h6.2c1.6-2.5,3.7-4.6,6.2-6.2
		c9.4-5.9,21.8-3.2,27.7,6.2h8.9c1.9-3,4.6-5.5,7.8-7.1c9.9-5,22-1.1,27,8.8c4.6,0.9,9.2,2.1,13.6,3.6c3.6-2.3,7.7-3.4,12-3.2
		c11.1,0.6,19.6,10,19,21.1c3.6,3.1,6.9,6.4,10,10c7.5-0.4,14.7,3.5,18.5,10l0,0c3.8,6.5,3.6,14.6-0.5,21c1.6,4.5,2.8,9,3.7,13.6
		c1.9,1,3.6,2.3,5.1,3.8l50.4-13.5l25.5-221.4L484.4,417.3z M172,265.2h124.1l41.7,152.1H172V265.2z"/>
</g>
</svg>
