<?xml version="1.0" encoding="utf-8"?>
<!-- Generator: Adobe Illustrator 24.3.0, SVG Export Plug-In . SVG Version: 6.00 Build 0)  -->
<svg version="1.1" id="Calque_1" xmlns="http://www.w3.org/2000/svg" xmlns:xlink="http://www.w3.org/1999/xlink" x="0px" y="0px"
	 viewBox="0 0 1000 1000" style="enable-background:new 0 0 1000 1000;" xml:space="preserve">
<style type="text/css">
	.st0{fill:none;}
</style>
<g>
	<g>
		<circle class="st0" cx="878.1" cy="696.9" r="44.7"/>
		<circle class="st0" cx="328.2" cy="696.9" r="44.7"/>
		<path d="M328.2,600c-53.9,0-96.9,43.5-96.9,96.9s43.5,96.9,96.9,96.9s96.9-43.5,96.9-96.9C425.1,643.6,381.3,600,328.2,600z
			 M328.2,741.5c-24.5,0-44.7-20-44.7-44.7s20-44.7,44.7-44.7s44.7,20,44.7,44.7C372.9,721.5,352.9,741.5,328.2,741.5z"/>
		<path d="M878.1,600c-53.9,0-96.9,43.5-96.9,96.9s43.5,96.9,96.9,96.9s96.9-43.5,96.9-96.9C975,643.6,931.2,600,878.1,600z
			 M878.1,741.5c-24.5,0-44.7-20-44.7-44.7s20-44.7,44.7-44.7s44.7,20,44.7,44.7S902.8,741.5,878.1,741.5z"/>
		<polygon points="626.9,272.7 214.9,272.7 114.5,215.7 25,215.7 143.8,567.9 525.7,567.9 		"/>
	</g>
	<g>
		<path d="M901.6,464.5l36.4-223l4.5-27.7l-6.3-7.5H664.4l-6.5,6.5l6.3,100.7H621l-89.8,262H147l75,112.2
			c4.8-54.6,50.5-97.4,106.2-97.4s101.4,42.8,106.2,97.4h337.5l0,0l0,0c4.8-54.6,50.5-97.4,106.2-97.4c27.9,0,53.2,10.7,72.2,28.2
			v-28.2h10.8l12.6-125.8H901.6z M838.6,460.4H714.3V245.5h135.1L838.6,460.4z M850.4,460.4l10.8-214.9h62.4l-34.7,214.9H850.4z"/>
	</g>
</g>
</svg>
