<?xml version="1.0" encoding="utf-8"?>
<!-- Generator: Adobe Illustrator 24.3.0, SVG Export Plug-In . SVG Version: 6.00 Build 0)  -->
<svg version="1.1" id="Calque_1" xmlns="http://www.w3.org/2000/svg" xmlns:xlink="http://www.w3.org/1999/xlink" x="0px" y="0px"
	 viewBox="0 0 1000 1000" style="enable-background:new 0 0 1000 1000;" xml:space="preserve">
<path d="M914,567.8c-33.7,0-61,27.3-61,61v95.5h-34h-0.5V88.6H181.5v635.2H181h-34v-95c0-33.7-27.3-61-61-61
	c-33.7,0.2-61,27.6-61,61.3v221.5c0,33.5,27.3,60.8,61,60.8c33.5,0,61-27.3,61-61v-95h37.7c12.3,45.3,53.7,78.8,102.6,78.8h425.3
	c49,0,90.1-33.2,102.6-78.3h37.7v94.5c0,33.7,27.3,61,61,61c33.7,0,61-27.6,61-61V628.8C975,595.1,947.7,567.8,914,567.8z
	 M205.9,129.7h588.2v261.6h-16c-1-8.4-2.5-16.7-3.9-25.1c-16.7-93-52.4-151.9-77.3-160.2c-43.6-14.8-88.1,88.1-90.1,185.3H498.5
	c-1-8.4-2.5-16.7-3.9-25.1c-16.7-93-52.4-151.9-77.3-160.2c-43.6-14.8-88.1,88.1-90.1,185.3H205.9V129.7z M775.9,391.3H673.3
	c1.7-69.2,16-103.4,36.9-107.1C730.9,280.6,757.4,325.6,775.9,391.3z M606.3,419.2c-1.5,69.2-16,103.6-36.9,107.3
	c-20.7,3.7-47.3-41.6-65.7-107.3H606.3z M496.3,391.3H393.7c1.7-69.2,16-103.4,36.9-107.1C451.3,280.6,477.8,325.6,496.3,391.3z
	 M327,419.2c-1.7,69.2-16.2,103.6-36.9,107.3s-47.3-41.6-65.7-107.3H327z M205.9,419.2h16.2c1,8.4,2.5,16.7,3.9,25.3
	c16.7,93,52.4,151.9,77.3,160.2c43.8,14.8,88.4-88.4,90.1-185.6h108.3c1,8.4,2.5,16.7,3.9,25.3c16.7,93,52.4,151.9,77.3,160.2
	c43.8,14.8,88.4-88.4,90.1-185.6h121.1V681H205.9V419.2z"/>
</svg>
