<?xml version="1.0" encoding="utf-8"?>
<!-- Generator: Adobe Illustrator 24.3.0, SVG Export Plug-In . SVG Version: 6.00 Build 0)  -->
<svg version="1.1" id="Capa_1" xmlns="http://www.w3.org/2000/svg" xmlns:xlink="http://www.w3.org/1999/xlink" x="0px" y="0px"
	 viewBox="0 0 1000 1000" style="enable-background:new 0 0 1000 1000;" xml:space="preserve">
<g>
	<g>
		<path d="M670.7,766.5C670.7,766.5,670.7,766.5,670.7,766.5c0,22.8,18.5,41.2,41.2,41.2c22.8,0,41.2-18.5,41.2-41.2
			c0-22.8-18.5-41.2-41.2-41.2C689.1,725.3,670.7,743.8,670.7,766.5z"/>
		<circle cx="499" cy="766.2" r="41.2"/>
		<path d="M236.4,766.5C236.4,766.5,236.4,766.5,236.4,766.5c0,22.8,18.5,41.2,41.2,41.2c22.8,0,41.2-18.5,41.2-41.2
			c0-22.8-18.5-41.2-41.2-41.2C254.9,725.3,236.5,743.8,236.4,766.5z"/>
		<path d="M153,752.9c-7.5,0-13.7,6.1-13.7,13.7s6.1,13.7,13.7,13.7h1.4c1.4,12.9,4.8,25.4,10.1,37.2l-1.3,0.7
			c-0.1,0-0.1,0.1-0.2,0.1c-6.5,3.8-8.7,12.2-4.9,18.7c3.8,6.5,12.2,8.7,18.7,4.9l1.3-0.8c7.7,10.4,16.8,19.6,27.3,27.2l-0.8,1.4
			c-3.7,6.5-1.5,14.7,5,18.5c6.5,3.8,14.9,1.6,18.7-4.9l0.8-1.4c11.8,5.2,24.3,8.6,37.2,10v1.5c0,7.5,6.1,13.7,13.7,13.7
			s13.7-6.1,13.7-13.7v-0.8h32.7v0.8c0,7.5,6.1,13.7,13.7,13.7c7.5,0,13.7-6.1,13.7-13.7v-0.8h42.1v0.8c0,7.5,6.1,13.7,13.7,13.7
			c7.5,0,13.7-6.1,13.7-13.7v-0.8h32.7v0.8c0,7.5,6.1,13.7,13.7,13.7c7.5,0,13.7-6.1,13.7-13.7v-0.8h32.7v0.8
			c0,7.5,6.1,13.7,13.7,13.7c7.5,0,13.7-6.1,13.7-13.7v-0.8h32.7v0.8c0,7.5,6.1,13.7,13.7,13.7s13.7-6.1,13.7-13.7v-0.8h32.7v0.8
			c0,7.5,6.1,13.7,13.7,13.7s13.7-6.1,13.7-13.7v-0.8h36.7v0.8c0,7.5,6.1,13.7,13.7,13.7s13.7-6.1,13.7-13.7v-1.5
			c12.9-1.4,25.4-4.7,37.2-9.9l0.7,1.2c0,0.1,0.1,0.1,0.1,0.2c3.8,6.5,12.2,8.7,18.7,4.9c6.5-3.8,8.7-12.2,4.9-18.7l-0.7-1.2
			c10.5-7.6,19.7-16.8,27.4-27.2l1.1,0.6c0.1,0,0.1,0.1,0.2,0.1c6.6,3.7,14.9,1.4,18.6-5.1c3.7-6.6,1.4-14.9-5.1-18.6l-1-0.6
			c5.3-11.9,8.7-24.5,10.1-37.4h1c7.5,0,13.7-6.1,13.7-13.7c0-7.5-6.1-13.7-13.7-13.7h-1c-1.4-12.9-4.8-25.6-10-37.5l0.8-0.5
			c0.1-0.1,0.2-0.1,0.3-0.2c6.5-3.9,8.6-12.2,4.7-18.7c-3.9-6.5-12.2-8.6-18.7-4.7l-0.8,0.5c-7.7-10.5-17-19.7-27.4-27.4l0.5-0.8
			c0-0.1,0.1-0.1,0.1-0.2c3.7-6.6,1.4-14.9-5.1-18.6c-6.6-3.7-14.9-1.4-18.6,5.1l-0.5,0.8c-11.9-5.3-24.5-8.6-37.5-10v-1
			c0-7.5-6.1-13.7-13.7-13.7s-13.7,6.1-13.7,13.7v0.3h-36.7v-0.3c0-7.5-6.1-13.7-13.7-13.7c-7.5,0-13.7,6.1-13.7,13.7v0.3h-32.7
			v-0.3c0-7.5-6.1-13.7-13.7-13.7s-13.7,6.1-13.7,13.7v0.3h-32.7v-0.3c0-7.5-6.1-13.7-13.7-13.7s-13.7,6.1-13.7,13.7v0.3h-32.7v-0.3
			c0-7.5-6.1-13.7-13.7-13.7c-7.5,0-13.7,6.1-13.7,13.7v0.3h-32.7v-0.3c0-7.5-6.1-13.7-13.7-13.7c-7.5,0-13.7,6.1-13.7,13.7v0.3
			h-42.1v-0.3c0-7.5-6.1-13.7-13.7-13.7s-13.7,6.1-13.7,13.7v0.3h-32.7v-0.3c0-7.5-6.1-13.7-13.7-13.7s-13.7,6.1-13.7,13.7v1
			c-12.9,1.4-25.5,4.8-37.4,10.1l-0.5-1c0-0.1-0.1-0.1-0.1-0.2c-3.8-6.5-12.2-8.7-18.7-4.9c-6.5,3.8-8.7,12.2-4.9,18.7l0.6,1
			c-10.4,7.7-19.7,16.9-27.3,27.4l-1.1-0.6c-0.1,0-0.1-0.1-0.2-0.1c-6.6-3.7-14.9-1.4-18.6,5.1c-3.7,6.6-1.4,14.9,5.1,18.6l1.1,0.6
			c-5.2,11.9-8.6,24.5-10,37.3L153,752.9L153,752.9z M644.6,779.5c-4.4-1.3-7.9-4.8-9.2-9.2c-2.1-7.2,2-14.7,9.2-16.8
			c0.6-3.2,1.4-6.3,2.5-9.3c-3.2-3.4-4.5-8.1-3.4-12.6c1.8-7.3,9.1-11.7,16.4-9.9c2.1-2.4,4.4-4.7,6.8-6.8
			c-1.1-4.5,0.2-9.3,3.4-12.6c5.2-5.4,13.8-5.6,19.2-0.4c3-1.1,6.2-1.9,9.3-2.5c1.3-4.4,4.8-7.9,9.2-9.2c7.2-2.1,14.7,2,16.8,9.2
			c3.2,0.6,6.3,1.5,9.3,2.5c3.4-3.2,8.1-4.5,12.6-3.4c7.3,1.8,11.7,9.1,9.9,16.4c2.4,2.1,4.7,4.4,6.8,6.8c4.5-1.1,9.3,0.2,12.6,3.4
			c5.4,5.2,5.6,13.8,0.4,19.2c1.1,3,1.9,6.2,2.5,9.3c4.4,1.3,7.9,4.8,9.2,9.2c2.1,7.2-2,14.7-9.2,16.8c-0.6,3.2-1.5,6.3-2.5,9.3
			c3.2,3.4,4.5,8.1,3.4,12.6c-1.8,7.3-9.1,11.8-16.4,10c-2.1,2.4-4.4,4.7-6.8,6.8c1.1,4.5-0.2,9.3-3.4,12.6
			c-5.2,5.4-13.8,5.6-19.2,0.5c-3,1-6.1,1.9-9.3,2.5c-1.3,4.4-4.8,7.9-9.2,9.2c-7.2,2.1-14.7-2-16.8-9.2c-3.1-0.6-6.3-1.4-9.3-2.5
			c-3.4,3.2-8.1,4.5-12.6,3.4c-7.3-1.8-11.8-9.1-10-16.4c-2.4-2.1-4.7-4.4-6.8-6.8c-4.5,1.1-9.3-0.1-12.7-3.4
			c-5.4-5.2-5.6-13.8-0.4-19.2C646.1,785.8,645.2,782.7,644.6,779.5L644.6,779.5z M432.1,779.5c-4.4-1.3-7.9-4.8-9.2-9.2
			c-2.1-7.2,2-14.7,9.2-16.8c0.6-3.2,1.4-6.3,2.5-9.3c-3.2-3.4-4.5-8.1-3.4-12.6c1.8-7.3,9.1-11.7,16.4-9.9c2.1-2.4,4.4-4.7,6.8-6.8
			c-1.1-4.5,0.2-9.3,3.4-12.6c5.2-5.4,13.8-5.6,19.2-0.4c3-1.1,6.2-1.9,9.3-2.5c1.3-4.4,4.8-7.9,9.2-9.2c7.2-2.1,14.7,2,16.8,9.2
			c3.2,0.6,6.3,1.5,9.3,2.5c3.4-3.2,8.2-4.5,12.7-3.4c7.3,1.8,11.7,9.2,9.9,16.4c2.4,2.1,4.7,4.4,6.8,6.8c4.5-1.1,9.3,0.2,12.6,3.4
			c5.4,5.2,5.6,13.8,0.4,19.2c1.1,3,1.9,6.2,2.5,9.3c4.4,1.3,7.9,4.8,9.2,9.2c2.1,7.2-2,14.7-9.2,16.8c-0.6,3.2-1.4,6.3-2.5,9.3
			c3.2,3.4,4.5,8.1,3.4,12.6c-1.8,7.3-9.2,11.8-16.5,10c-2.1,2.4-4.4,4.7-6.8,6.8c1.1,4.5-0.2,9.2-3.4,12.6
			c-5.2,5.4-13.8,5.7-19.2,0.5c-3,1-6.1,1.9-9.3,2.5c-1.3,4.4-4.8,7.9-9.2,9.2c-7.2,2.1-14.7-2-16.8-9.2c-3.1-0.6-6.3-1.4-9.3-2.5
			c-3.4,3.2-8.1,4.5-12.6,3.4c-7.3-1.8-11.8-9.1-10-16.4c-2.4-2.1-4.7-4.4-6.8-6.8c-4.5,1.1-9.3-0.1-12.7-3.4
			c-5.4-5.2-5.6-13.8-0.4-19.2C433.5,785.8,432.7,782.7,432.1,779.5L432.1,779.5z M210.4,779.5c-4.4-1.3-7.9-4.8-9.2-9.2
			c-2.1-7.2,2-14.7,9.2-16.8c0.6-3.2,1.5-6.3,2.5-9.3c-3.2-3.4-4.5-8.1-3.4-12.6c1.8-7.3,9.1-11.7,16.4-9.9c2.1-2.4,4.4-4.7,6.8-6.8
			c-1.1-4.5,0.2-9.3,3.4-12.6c5.2-5.4,13.8-5.6,19.2-0.5c3-1.1,6.2-1.9,9.3-2.5c1.3-4.4,4.8-7.9,9.2-9.2c7.2-2.1,14.7,2,16.8,9.2
			c3.2,0.6,6.3,1.5,9.3,2.5c3.4-3.2,8.1-4.5,12.6-3.4c7.3,1.8,11.7,9.1,9.9,16.4c2.4,2.1,4.7,4.4,6.8,6.8c4.5-1.1,9.3,0.2,12.6,3.4
			c5.4,5.2,5.6,13.8,0.4,19.2c1.1,3,1.9,6.2,2.5,9.3c4.4,1.3,7.9,4.8,9.2,9.2c2.1,7.2-2,14.7-9.2,16.8c-0.6,3.2-1.5,6.3-2.5,9.3
			c3.2,3.4,4.5,8.1,3.4,12.6c-1.8,7.3-9.2,11.8-16.5,10c-2.1,2.4-4.4,4.7-6.8,6.8c1.1,4.5-0.2,9.2-3.4,12.6
			c-5.2,5.4-13.8,5.7-19.2,0.5c-3,1-6.1,1.9-9.3,2.5c-1.3,4.4-4.8,7.9-9.2,9.2c-7.2,2.1-14.7-2-16.8-9.2c-3.1-0.6-6.3-1.4-9.3-2.5
			c-3.4,3.2-8.1,4.5-12.6,3.4c-7.3-1.8-11.8-9.1-10-16.4c-2.4-2.1-4.7-4.4-6.8-6.8c-4.5,1.1-9.3-0.1-12.7-3.4
			c-5.4-5.2-5.6-13.8-0.4-19.2C211.8,785.8,211,782.7,210.4,779.5L210.4,779.5z"/>
	</g>
	<path d="M711.6,376.4V158.8h-46.1v217.6H558L476.9,93H182.4v285.6L46.5,401c-12.7,3.8-21.4,15.5-21.5,28.8v295.5l102.7,20.1
		c2.2-2.3,4.8-4.2,7.7-5.7c1.3-6.9,3.1-13.7,5.5-20.4c-6.1-9.5-6.4-21.6-0.8-31.3l0,0c5.7-9.8,16.3-15.6,27.6-15
		c4.6-5.3,9.6-10.3,14.9-14.9c-0.9-16.6,11.9-30.7,28.4-31.6c6.3-0.3,12.6,1.3,17.9,4.8c6.6-2.3,13.4-4.1,20.3-5.4
		c7.5-14.8,25.6-20.7,40.4-13.1c4.8,2.4,8.8,6.1,11.7,10.7h13.3c5.5-8.7,14.9-13.6,24.5-13.9c0.4,0,0.8,0,1.3,0c0.5,0,0.9,0,1.4,0
		c9.3,0.6,18.1,5.5,23.4,13.9h18.7c2.4-3.7,5.5-6.9,9.3-9.3c14-8.9,32.6-4.7,41.4,9.3h9.3c2.4-3.7,5.5-6.9,9.3-9.3
		c14-8.9,32.6-4.7,41.4,9.3h9.3c2.4-3.7,5.5-6.9,9.3-9.3c14-8.9,32.5-4.7,41.4,9.3h9.3c2.4-3.7,5.5-6.9,9.3-9.3
		c14-8.9,32.6-4.7,41.4,9.3h9.3c2.4-3.7,5.5-6.9,9.3-9.3c14-8.9,32.6-4.7,41.4,9.3h13.3c2.9-4.5,6.9-8.2,11.7-10.7
		c14.8-7.5,32.9-1.7,40.4,13.1c6.9,1.3,13.7,3.1,20.3,5.4c5.3-3.4,11.6-5.1,17.9-4.8c16.6,0.9,29.3,15,28.4,31.6
		c5.3,4.6,10.3,9.6,14.9,14.9c11.3-0.6,21.9,5.2,27.6,15l0,0c5.6,9.8,5.3,21.9-0.8,31.3c2.3,6.7,4.2,13.5,5.5,20.4
		c2.8,1.5,5.4,3.4,7.7,5.7l75.4-20.1L975,394.5L711.6,376.4z M244.8,149.1h185.4l62.3,227.3H244.8V149.1z"/>
</g>
</svg>
