<?xml version="1.0" encoding="utf-8"?>
<!-- Generator: Adobe Illustrator 24.3.0, SVG Export Plug-In . SVG Version: 6.00 Build 0)  -->
<svg version="1.1" id="Calque_1" xmlns="http://www.w3.org/2000/svg" xmlns:xlink="http://www.w3.org/1999/xlink" x="0px" y="0px"
	 viewBox="0 0 1000 1000" style="enable-background:new 0 0 1000 1000;" xml:space="preserve">
<path d="M912.4,87.6c-122.2-122-315.8-126.5-492.7,50.3c-153.5,153.4-119.1,119-167.5,167.3C134.1,423.1,114.7,599.7,127.9,717.6
	l348.5-348.1c12.2-12.2,32-12.2,44.2,0c12.2,12.2,12.2,32,0,44.2L13.7,920c-18.3,18.3-18.3,48,0,66.3c18.3,18.3,48,18.3,66.4,0
	l129.1-129C311.4,888,544.9,892.8,691.3,750H499.5l288.2-96c97.6-97.5,71.1-70.7,90.4-91.5h-191L944.1,477
	C1032.9,331.5,1011.1,186.3,912.4,87.6z"/>
</svg>
