<?xml version="1.0" encoding="utf-8"?>
<!-- Generator: Adobe Illustrator 24.3.0, SVG Export Plug-In . SVG Version: 6.00 Build 0)  -->
<svg version="1.1" id="Calque_1" xmlns="http://www.w3.org/2000/svg" xmlns:xlink="http://www.w3.org/1999/xlink" x="0px" y="0px"
	 viewBox="0 0 1000 1000" style="enable-background:new 0 0 1000 1000;" xml:space="preserve">
<path d="M867.1,133.8C780.1,47,674,0,584.3,0c-46.2,0-87.4,13.3-120,39.1c-5.2,3.2-9.9,7.1-14.3,11.4
	C374.4,126,250.3,272.6,250.3,408.9v196l-16.8,16.8c-19,18.9-46.9,21.6-71.8,11.7c-60.4-24.1-129,5.3-153.1,65.7
	c-17.5,43.8-7.2,93.7,26.2,127.1c29.8,29.8,71.3,38.3,109.6,29.5c-8.8,38.3-0.4,79.7,29.5,109.5c45.9,46.2,120.5,46.3,166.7,0.4
	c33.5-33.3,43.9-83.5,26.3-127.4c-10-24.9-7.3-52.7,11.7-71.8l16.8-16.8h196.2c136.5,0,283.3-123.9,358.9-199.5
	c5.1-5.2,9.5-11.1,13-17.6C1036.5,436.3,997.3,264,867.1,133.8L867.1,133.8z M884.1,484.1c-19.1,19-47.5,23-67.9,23
	c-67.8,0-150.7-40.8-216.4-106.4c-53.1-53-90.4-117.8-102.4-177.7c-9.3-46.3-2.3-85.1,19-106.4c19-19,47.4-23,67.9-23
	c67.8,0,150.7,40.8,216.4,106.3C905.9,305.2,931.5,436.7,884.1,484.1L884.1,484.1z M648.2,248.4c-19.2,19.1-11.4,57.9,17.3,86.6
	s67.6,36.5,86.7,17.3c19.2-19.2,11.4-57.9-17.3-86.6C706.1,237,667.3,229.3,648.2,248.4z"/>
</svg>
