<?xml version="1.0" encoding="utf-8"?>
<!-- Generator: Adobe Illustrator 24.3.0, SVG Export Plug-In . SVG Version: 6.00 Build 0)  -->
<svg version="1.1" id="Calque_1" xmlns="http://www.w3.org/2000/svg" xmlns:xlink="http://www.w3.org/1999/xlink" x="0px" y="0px"
	 viewBox="0 0 1000 1000" style="enable-background:new 0 0 1000 1000;" xml:space="preserve">
<style type="text/css">
	.st0{fill:none;}
</style>
<g>
	<g>
		<path d="M684.1,695.5c0-0.1-0.1-0.1-0.1-0.2"/>
	</g>
	<g>
		<path d="M188.2,677.4c-46.8,0-84.8,38-84.8,84.8s38,84.8,84.8,84.8s84.8-38,84.8-84.8S235.1,677.4,188.2,677.4z M188.2,796
			c-19.6,0-35.6-15.9-35.6-35.6c0-19.6,15.9-35.6,35.6-35.6s35.6,15.9,35.6,35.6C223.8,780.1,207.9,796,188.2,796z"/>
	</g>
	<g>
		<path class="st0" d="M515.9,390.4c-7.6-16.2-13.1-33.6-24.4-47.9c-5.1,0-10-1.7-15.1-1.7c-73.4,0.1-146.9,0-220.3,0.1
			c-13.4,0-16.2,2-18.7,15.8c-1.8,9.9-3.6,24.7-10.4,47.8c-3.3,12.8-27.8,125.3-29.5,141.3c22.2-0.3,44.7-0.7,65.1-1
			c-10.3-37.5-20.7-75-31-112.5c-1-4.9-0.7-8,1-9.7c2.1-2.1,5.7-1.9,10.5-0.8c4,0.9,16.7,3.9,26.7,12.1
			c22.3,18.3,27.3,59.6,27.6,62.3c0.6,5.1,1.3,10.3,2,15.5c1.1,7.6,2.3,16.2,3.1,21.1c18.8-1.2,37.4-6.7,56.5-3.5
			c8.3,1.4,16.5,3.9,18.8,12.7c2.3,9,2.5,18.6-6.7,25c2,6.5,6.6,11.7,8.1,18.7c3.8,16.7,9,33.1,13.7,49.6c3.4,9.2,7.9,18.3,5.5,28.4
			c0.5,0.1,1,0.2,1.5,0.3c10.6,0.6,21.4-1.5,31.8,2.6c11,2.4,18.9,8.3,20.5,22.5c7-10.9-1.1-20.9,4.1-29.2
			c5.8-7.6,14.3-12.2,20.9-18.9c4-3.5,8-7,10.7-11.6c5.9-10.2,10.9-20.9,16.5-31.2c2.7-5,6.2-10,12.9-9.6c7.6,0.4,6.9,7.5,8.3,12.8
			c5.6-2.9,11.7-6.3,10.1-11.7c-4.3-14.6-2.6-31.6-18.6-41.7c-16.3-10.4-17.1-16.2-9.1-34.6c0.7-1.5,0.9-3.2-1.1-4.5
			c-6.4,0.2-7.3,6.6-10.7,10.2c-4.3,4.6-19.5-2-16.5-6.5c11.3-16.6,22.4-33.4,34-49.9c2.4-3.4,17.3,3.5,15.1,8.8
			c-2.6,6.2-10.6,9.9-8.4,21c9.9-9.3,14.9-19.5,20.9-28.8c1.1-1.7-0.3-3.9-0.8-5.9C533.9,434.8,526.1,412,515.9,390.4z"/>
		<path d="M973.6,704c-5-11.2-13-18.3-26-18.2c-72.6,0.2-145.3,0.3-217.9,0.6c-10.1,0.1-8.3-6.7-8.3-12.5c0-67.7,0-135.5,0-203.2
			c0-14.3-0.4-28.6,0.1-42.8c0.4-10.2-6.3-8.5-12.2-8.5c-1.1,0-2.2,0-3.3-0.1V152.8h-74.4V606c-6.1-1.5-12.3-2.8-18.4-4.3
			c-5-0.1-9.9-0.2-14.8-0.4c-10.2-63.1-24.7-125.2-47.2-185c-12-31.9-26.7-63-43-93.1c-1.1-2.1-3.2-3.6-4.8-5.4c0,0,0,0,0,0
			c4.5-5.7,10.1-11.5,6.3-19.4c-3.9-8.2-11.7-8.3-19.8-8.3c-84.7,0.2-169.5,0.1-254.2,0.1c-13.8,0-16.6,3.5-19.4,17.3
			c-1.6,7.9-3.2,15.8-4.9,23.7c-0.6,2.7-5.1,24.4-14.7,67.9c-3.3,15-7.7,34.7-13,57.9c-0.4,1.8-2.2,9.8-3.1,19.6
			c-0.1,0.1-0.1,0.1-0.2,0.2c-5.1,23.1-10.3,46.2-15.4,69.3c-45.3,0.7-83.8,1.3-91.8,1.1C49.6,546.9,24.2,569,25,595
			c1.2,39.4,0.7,78.9,0.9,118.3c0,0,0,0,0,0c0,0,0,0,0,0c0,0,0,0,0,0c-0.2,27,1.6,39.2,20.7,50.8C57.9,771,93,770,93,770
			c-0.2-2.6-0.3-5.1-0.3-7.7c0-52.7,42.9-95.5,95.5-95.5s95.5,42.9,95.5,95.5c0,3-0.2,5.9-0.4,8.8l180.3,0.7c0,0,18.1,8.8,24.3,8.7
			c4.8-0.1,10-1.4,9.3-9.1l-0.7-3.8c-1.2-6.5-1.9-13.3-1.9-20.2l0,0c1.2-58.7,49.3-106.1,108.2-106.1c47.7,0,88.3,31,102.7,73.9
			l9.9-1.5l0,0.1c83.9-0.3,167.7-0.3,251.6-0.3C974.9,713.6,976.6,710.6,973.6,704z M541.3,463.8c-6,9.3-11,19.5-20.9,28.8
			c-2.2-11.1,5.8-14.9,8.4-21c2.2-5.3-12.7-12.2-15.1-8.8c-11.6,16.5-22.7,33.3-34,49.9c-3,4.5,12.2,11.1,16.5,6.5
			c3.4-3.6,4.3-10,10.7-10.2c2,1.3,1.7,3,1.1,4.5c-7.9,18.3-7.2,24.1,9.1,34.6c15.9,10.2,14.3,27.1,18.6,41.7
			c1.6,5.4-4.5,8.8-10.1,11.7c-1.4-5.3-0.7-12.4-8.3-12.8c-6.7-0.4-10.2,4.6-12.9,9.6c-5.7,10.3-10.7,21-16.5,31.2
			c-2.7,4.6-6.7,8.1-10.7,11.6c-6.7,6.6-15.1,11.3-20.9,18.9c-5.2,8.3,2.9,18.3-4.1,29.2c-1.6-14.3-9.5-20.1-20.5-22.5
			c-10.3-4.1-21.2-2-31.8-2.6c-0.5-0.1-1-0.2-1.5-0.3c2.3-10.1-2.1-19.1-5.5-28.4c-4.6-16.5-9.9-32.9-13.7-49.6
			c-1.6-7-6.1-12.2-8.1-18.7c9.2-6.4,9.1-16,6.7-25c-2.3-8.8-10.6-11.3-18.8-12.7c-19.1-3.2-37.7,2.3-56.5,3.5
			c-0.8-4.9-2-13.5-3.1-21.1c-0.7-5.2-1.4-10.3-2-15.5c-0.3-2.8-5.4-44-27.6-62.3c-10-8.2-22.7-11.2-26.7-12.1
			c-4.8-1.1-8.4-1.4-10.5,0.8c-1.7,1.7-2,4.9-1,9.7c10.3,37.5,20.7,75,31,112.5c-20.4,0.3-42.9,0.6-65.1,1
			c1.7-16,26.2-128.5,29.5-141.3c6.8-23.1,8.6-38,10.4-47.8c2.5-13.8,5.3-15.8,18.7-15.8c73.4-0.1,146.9-0.1,220.3-0.1
			c5.1,0,10.1,1.7,15.1,1.7c11.4,14.3,16.8,31.7,24.4,47.9c10.2,21.7,18,44.5,24.6,67.6C541,459.9,542.4,462.1,541.3,463.8z"/>
	</g>
	<g>
		<path d="M603,652c-53.9,0-97.6,43.7-97.6,97.6s43.7,97.6,97.6,97.6c53.9,0,97.6-43.7,97.6-97.6S656.8,652,603,652z M603,788.4
			c-22.6,0-40.9-18.3-40.9-40.9c0-22.6,18.3-40.9,40.9-40.9c22.6,0,40.9,18.3,40.9,40.9C643.9,770.1,625.6,788.4,603,788.4z"/>
	</g>
</g>
</svg>
