<?xml version="1.0" encoding="utf-8"?>
<!-- Generator: Adobe Illustrator 24.3.0, SVG Export Plug-In . SVG Version: 6.00 Build 0)  -->
<svg version="1.1" id="Calque_1" xmlns="http://www.w3.org/2000/svg" xmlns:xlink="http://www.w3.org/1999/xlink" x="0px" y="0px"
	 viewBox="0 0 1000 1000" style="enable-background:new 0 0 1000 1000;" xml:space="preserve">
<g>
	<path d="M415.3,405c5,1.2,10.3,2.1,15.8,2.7v-84.9c0-46.5-37.9-84.4-84.4-84.4c-6,0-11.1,5-11.1,11.1v88.9h11.1
		c17.8,0,32.5,13.8,33.4,31.5C381,387.3,392.9,399.2,415.3,405z"/>
	<path d="M587.8,316.4v22h193.9l-45.8-93.6c-4.3-8.8-13.5-14.6-23.3-14.6h-16.5c-10.4,0-19.8,6.3-23.8,15.8l-5.4,12.6L642.8,206
		c-5.5-12-17.5-19.9-30.9-19.9h-10.3c-0.3-12.6-10.4-22.7-23-22.7h-54.7c-12.7,0-23,10.4-23,23.2V208c0,12.7,10.2,23,23,23h54.7
		c12.6,0,22.7-10,23-22.6h10.3c4.6,0,8.8,2.6,10.7,6.8l32.4,70.9l-1.8,4.3h-39.5C599.3,290.4,587.7,302,587.8,316.4L587.8,316.4z"/>
	<path d="M24.8,654.3l0,31.4c0,5,3.4,9.5,8.5,10.8l0,0l9.8,2.2c1.1,6.8,2.9,13.7,5.3,20.2l-7.3,7.1c-3.7,3.5-4.4,9-1.9,13.5
		l15.6,26.9c2.5,4.5,7.9,6.7,12.8,5.2l9.7-2.8c4.6,5.2,9.5,10.1,14.9,14.9l-2.8,9.7c-1.4,4.9,0.6,10.1,5.1,12.8l27.2,15.9
		c4.5,2.5,10.1,1.8,13.7-2.1l7-7.3c6.7,2.2,13.4,4,20.1,5.3l2.4,9.8c1,3.6,3.5,6.5,6.7,7.8c1.3,0.5,2.7,0.8,4.2,0.8l-0.1,0.1h31.2
		c5,0,9.5-3.5,10.8-8.6l2.4-9.8c6.8-1.3,13.5-3.1,20.2-5.5l6.8,7.3c3.6,3.7,9.2,4.6,13.7,2.1l27.3-15.8c4.5-2.7,6.7-7.9,5.2-12.8
		l-2.8-9.7c5.2-4.8,10.3-9.7,14.9-14.9l9.7,2.8c4.9,1.5,10.1-0.7,12.8-5.2l15.6-26.9c2.6-4.4,1.8-9.9-1.9-13.5l-7.4-7.1
		c2.4-6.5,4.2-13.4,5.5-20.2l9.7-2.2c5-1.1,8.6-5.7,8.6-10.8v-31.4c0-5.2-3.5-9.6-8.6-10.8l-9.7-2.4c-1.3-6.8-3.1-13.5-5.5-20.2
		l7.4-7c3.7-3.6,4.4-9.2,1.9-13.7l-8.5-14.7l32.4-20.4c3,7.6,5.5,15.5,7.3,23.5c1.2,5.1,5.6,8.8,11,8.8h230.2
		c5.1,0,9.5-3.6,10.7-8.5c1.9-7.7,4.4-15.2,7.4-22.3l31.2,19.6l-8,14c-2.7,4.5-1.8,10.1,1.9,13.7l7.3,7c-2.3,6.7-4.1,13.4-5.3,20.2
		l-9.8,2.4c-4.9,1.1-8.5,5.6-8.5,10.8v31.4c0,5,3.6,9.6,8.5,10.8l9.8,2.2c1.1,6.8,2.9,13.7,5.3,20.2l-7.3,7.1
		c-3.7,3.5-4.4,9-1.9,13.5l15.6,26.9c2.5,4.5,7.9,6.7,12.8,5.2l9.7-2.8c4.6,5.2,9.5,10.1,14.9,14.9l-2.8,9.7
		c-1.4,4.9,0.6,10.1,5.1,12.8l13.6,7.8v0.1l13.4,7.8c4.5,2.5,10.1,1.8,13.7-2.1l7-7.3c6.7,2.2,13.4,4,20.1,5.3l2.4,9.8
		c1,3.6,3.5,6.5,6.7,7.8c1.3,0.5,2.7,0.8,4.2,0.8h31.2c5,0,9.5-3.5,10.8-8.6l2.4-9.8c6.8-1.3,13.5-3.1,20.2-5.5l6.8,7.3
		c3.6,3.7,9.2,4.6,13.7,2.1l27-15.6c4.5-2.7,6.5-7.9,5.2-12.8l-2.8-9.8c5.2-4.6,10.1-9.5,14.7-14.7l9.8,2.8
		c4.9,1.3,10.1-0.7,12.8-5.2l15.5-26.8c2.5-4.5,1.8-10.1-2.1-13.7l-7.3-7c2.2-6.7,4-13.4,5.3-20.1l9.8-2.4c5-1.3,8.6-5.7,8.6-10.8
		v-31.4c0-5.2-3.5-9.6-8.6-10.8l-9.8-2.4c-1.3-6.8-3.1-13.7-5.3-20.2l7.3-7c3.7-3.6,4.6-9.2,2.1-13.7l-15.6-27
		c-2.7-4.5-7.9-6.6-12.8-5.1l-9.8,2.8c-4.6-5.4-9.5-10.3-14.7-14.9l2.8-9.7c1.3-4.9-0.7-10.3-5.2-12.8l-27-15.6
		c-4.5-2.7-10.1-1.8-13.7,1.9l-6.8,7.3c-6.7-2.3-13.6-4.1-20.4-5.3l-2.2-9.8c-1.1-4.9-5.7-8.5-10.8-8.5h-31.2
		c-5.2,0-9.6,3.4-10.8,8.5l-0.6,2.2l-9.2-46.7c2.5-0.2,4.9-0.3,7.3-0.3h91.2c6.2,0,11.1-5,11.1-11.1c0-25.6-9.8-49.5-27.9-67.5
		c-17.8-17.9-41.7-27.9-67.3-27.9H583.6c-3.8,0-7.3,1.9-9.4,5.2c-33.3,52.9-111.9,74.1-164.4,60.6c-18.4-4.7-49.9-18.3-52-55.4
		c-0.3-5.8-5.2-10.4-11.1-10.4H150.3c-52.6,0-95.4,42.8-95.4,95.4c0,6,5,11.1,11.1,11.1h156.5c1.6,0,3.3,0.1,4.9,0.1l-8.9,45.2
		l-0.1-0.6c-1.3-5.1-5.7-8.5-10.8-8.5h-31.2c-5.2,0-9.6,3.6-10.8,8.5l-2.4,9.8c-6.9,1.1-13.7,2.9-20.4,5.3l-6.8-7.3
		c-3.4-3.7-9.2-4.6-13.7-1.9l-27,15.6c-4.5,2.5-6.6,7.9-5.1,12.8l2.8,9.7c-5.4,4.6-10.3,9.6-14.9,14.9l-9.7-2.8
		c-4.9-1.4-10.3,0.6-12.8,5.1L40,600c-2.7,4.5-1.8,10.1,1.9,13.7l7.4,7c-2.4,6.5-4.2,13.4-5.4,20.2l-10,2.4
		C28.8,644.5,25.4,649,24.8,654.3z M737.3,669.8c0-39.6,32.3-71.8,71.8-71.8s71.6,32.3,71.6,71.8s-32.1,71.6-71.6,71.6
		S737.3,709.3,737.3,669.8z M644,546.3c9.8-17.1,22.8-32.5,38.3-45c20.1-15.8,43.6-26.3,68.4-31.1l11.1,56.3
		c-0.6,0.2-1.3,0.3-1.9,0.6l-6.8-7.3c-3.4-3.7-9.2-4.6-13.7-1.9l-26.9,15.6c-4.5,2.5-6.6,7.9-5.1,12.8l2.8,9.7
		c-5.4,4.6-10.3,9.6-14.9,14.9l-9.7-2.8c-2.3-0.8-4.7-0.6-6.8,0.1L644,546.3z M288.5,533.8l-27-15.6c-4.5-2.7-10.1-1.8-13.7,1.9
		l-6.8,7.3c-0.8-0.3-1.7-0.4-2.4-0.7l11.1-56.8c45.4,8.1,85,36.1,108,75.3l-36.6,23c-1.9-0.4-3.9-0.6-5.8,0l-9.7,2.8
		c-4.6-5.4-9.7-10.3-14.9-14.9l2.8-9.7C295,541.4,292.7,536.1,288.5,533.8z M119.9,669.8c0-39.6,32.3-71.8,71.8-71.8
		s71.6,32.3,71.6,71.8s-32.1,71.6-71.6,71.6S119.9,709.3,119.9,669.8z"/>
	<path d="M759.7,669.8c0,27.2,22.2,49.4,49.4,49.4c27.2,0,49.4-22.1,49.4-49.4c0-27.2-22.2-49.4-49.4-49.4
		C781.8,620.4,759.7,642.5,759.7,669.8z"/>
	<path d="M142.3,669.8c0,27.2,22.2,49.4,49.4,49.4s49.4-22.2,49.4-49.4s-22.2-49.4-49.4-49.4C164.4,620.4,142.3,642.6,142.3,669.8z"
		/>
</g>
</svg>
