<?xml version="1.0" encoding="utf-8"?>
<!-- Generator: Adobe Illustrator 24.3.0, SVG Export Plug-In . SVG Version: 6.00 Build 0)  -->
<svg version="1.1" id="Calque_1" xmlns="http://www.w3.org/2000/svg" xmlns:xlink="http://www.w3.org/1999/xlink" x="0px" y="0px"
	 viewBox="0 0 1000 1000" style="enable-background:new 0 0 1000 1000;" xml:space="preserve">
<g>
	<path id="Shape_2_" d="M239.2,347.3c3.4-2.3,4.4-7.1,2.1-10.5s-7.1-4.4-10.5-2.1L212.2,347c-0.6,0.4-1.1,0.9-1.6,1.6
		c-9-12-20.5-21.8-33.7-28.7c0.2-0.2,0.4-0.7,0.7-1l7.5-15.2c1.2-2.4,1.1-5.3-0.4-7.5c-1.6-2.2-4.1-3.6-6.9-3.4s-5.1,1.8-6.3,4.2
		l-7.5,15.3c-0.2,0.6-0.4,1.2-0.6,1.9c-42.3-15.3-89.7-1.1-116.8,35s-27.3,85.5-0.6,121.7l-0.1,0.1l-16.8,13.4
		C26,487,25.4,491.7,28,495c2.7,3.2,7.4,3.8,10.7,1.2l16.9-13.4c0.1-0.1,0.2-0.2,0.3-0.4c36,36.7,93.6,41.2,134.7,10.4
		s53.2-87.2,28.1-132.1c0.8-0.2,1.3-0.6,1.9-0.9L239.2,347.3z M208.9,417.9c-4.2,0-7.5-3.4-7.5-7.5c0-40-32.3-72.2-72.2-72.2
		s-72.2,32.3-72.2,72.2s32.4,72.1,72.2,72.1c23.1,0,41.8-18.8,41.8-41.8c0-23.1-18.8-41.7-41.8-41.7c-14.8,0-26.6,12-26.6,26.6
		c0,14.6,12,26.6,26.6,26.6c4.2,0,7.5,3.4,7.5,7.5c0,4.2-3.4,7.5-7.5,7.5c-23.1,0-41.8-18.8-41.8-41.8c0-23.1,18.8-41.8,41.8-41.8
		c31.4,0,57,25.4,57,57s-25.6,57-57.2,57c-48.3,0-87.5-39.2-87.5-87.5s39.2-87.3,87.5-87.3s87.5,39.2,87.5,87.3c0,2-0.8,3.9-2.2,5.4
		C212.8,417.2,210.9,417.9,208.9,417.9z"/>
	<path id="Shape_1_" d="M451.2,347.3c3.4-2.3,4.4-7.1,2.1-10.5c-2.3-3.4-7.1-4.4-10.5-2.1L424.2,347c-0.6,0.4-1.1,0.9-1.6,1.6
		c-9-12-20.5-21.8-33.7-28.7c0.2-0.2,0.4-0.7,0.7-1l7.5-15.2c1.2-2.4,1.1-5.3-0.4-7.5c-1.6-2.2-4.1-3.6-6.9-3.4s-5.1,1.8-6.3,4.2
		l-7.5,15.3c-0.2,0.6-0.4,1.2-0.6,1.9c-42.3-15.3-89.7-1.1-116.8,35c-27,36.1-27.3,85.6-0.6,121.9l-0.1,0.1l-16.8,13.4
		c-3.2,2.7-3.8,7.4-1.2,10.7c2.7,3.2,7.4,3.8,10.7,1.2l16.9-13.4c0.1-0.1,0.2-0.2,0.3-0.4c36,36.7,93.6,41.2,134.7,10.4
		s53.2-87.2,28.1-132.1c0.8-0.2,1.3-0.6,1.9-0.9L451.2,347.3z M420.9,417.9c-4.2,0-7.5-3.4-7.5-7.5c0-40-32.3-72.2-72.2-72.2
		s-72.2,32.3-72.2,72.2s32.4,72.1,72.2,72.1c23.1,0,41.8-18.8,41.8-41.8c0-23.1-18.8-41.7-41.8-41.7c-14.8,0-26.6,12-26.6,26.6
		c0,14.6,12,26.6,26.6,26.6c4.2,0,7.5,3.4,7.5,7.5c0,4.2-3.4,7.5-7.5,7.5c-23.1,0-41.8-18.8-41.8-41.8c0-23.1,18.8-41.8,41.8-41.8
		c31.4,0,57,25.4,57,57s-25.6,57-57.2,57c-48.3,0-87.5-39.2-87.5-87.5s39.2-87.3,87.5-87.3s87.5,39.2,87.5,87.3c0,2-0.8,3.9-2.2,5.4
		C424.8,417.2,422.9,417.9,420.9,417.9z"/>
	<path d="M252,643.3c0,35.3,28.9,64,64,64s64-28.9,64-64s-28.5-64-64-64C280.8,579.4,252,608.3,252,643.3z M282.4,643.3
		c0-18.4,15.1-33.5,33.5-33.5s33.5,15.1,33.5,33.5s-15.1,33.5-33.5,33.5C297.6,677.1,282.4,662,282.4,643.3z"/>
	<path d="M391.2,629.4H838v-8.4h12.7c5.5,0,10.2-4.4,10.2-10.2v-5.8H975v-25.1H861.1l0,0v-4c0-5.5-4.4-10.2-10.2-10.2h-12.7v-22.4
		h32v-29.7H25v29.7h31.7v86.1h183.6c6.7-35.6,38.1-62.9,75.5-62.9C353.7,566.3,384.8,593.6,391.2,629.4z"/>
	<path id="Shape_3_" d="M662.8,347.7c3.4-2.3,4.4-7.1,2.1-10.5s-7.1-4.4-10.5-2.1l-18.5,12.3c-0.6,0.4-1.1,0.9-1.6,1.6
		c-9-12-20.5-21.8-33.7-28.7c0.2-0.2,0.4-0.7,0.7-1l7.5-15.2c1.2-2.4,1.1-5.3-0.4-7.5c-1.6-2.2-4.1-3.6-6.9-3.4s-5.1,1.8-6.3,4.2
		l-7.5,15.3c-0.2,0.6-0.4,1.2-0.6,1.9c-42.3-15.3-89.7-1.1-116.8,35c-27,36.1-27.3,85.6-0.6,121.9l-0.1,0.1l-16.8,13.4
		c-3.2,2.7-3.8,7.4-1.2,10.7c2.7,3.2,7.4,3.8,10.7,1.2l16.9-13.4c0.1-0.1,0.2-0.2,0.3-0.4c36,36.7,93.6,41.2,134.7,10.4
		s53.2-87.2,28.1-132.1c0.8-0.2,1.3-0.6,1.9-0.9L662.8,347.7z M632.5,418.3c-4.2,0-7.5-3.4-7.5-7.5c0-40-32.3-72.2-72.2-72.2
		s-72.2,32.3-72.2,72.2s32.4,72.1,72.2,72.1c23.1,0,41.8-18.8,41.8-41.8c0-23.1-18.8-41.7-41.8-41.7c-14.8,0-26.6,12-26.6,26.6
		s12,26.6,26.6,26.6c4.2,0,7.5,3.4,7.5,7.5c0,4.2-3.4,7.5-7.5,7.5c-23.1,0-41.8-18.8-41.8-41.8s18.8-41.8,41.8-41.8
		c31.4,0,57,25.4,57,57s-25.6,57.2-57,57.2c-48.3,0-87.5-39.2-87.5-87.5s39.2-87.3,87.5-87.3s87.5,39.2,87.5,87.3
		c0,2-0.8,3.9-2.2,5.4C636.4,417.5,634.5,418.3,632.5,418.3z"/>
	<path id="Shape_4_" d="M874.8,347.7c3.4-2.3,4.4-7.1,2.1-10.5s-7.1-4.4-10.5-2.1l-18.5,12.3c-0.6,0.4-1.1,0.9-1.6,1.6
		c-9-12-20.5-21.8-33.7-28.7c0.2-0.2,0.4-0.7,0.7-1l7.5-15.2c1.2-2.4,1.1-5.3-0.4-7.5c-1.6-2.2-4.1-3.6-6.9-3.4s-5.1,1.8-6.3,4.2
		l-7.5,15.3c-0.2,0.6-0.4,1.2-0.6,1.9c-42.3-15.3-89.7-1.1-116.8,35s-27.3,85.6-0.6,121.9l-0.1,0.1l-16.8,13.4
		c-3.2,2.7-3.8,7.4-1.2,10.7c2.7,3.2,7.4,3.8,10.7,1.2l16.9-13.4c0.1-0.1,0.2-0.2,0.3-0.4c36,36.7,93.6,41.2,134.7,10.4
		s53.2-87.2,28.1-132.1c0.8-0.2,1.3-0.6,1.9-0.9L874.8,347.7z M844.5,418.3c-4.2,0-7.5-3.4-7.5-7.5c0-40-32.3-72.2-72.2-72.2
		s-72.2,32.3-72.2,72.2s32.4,72.1,72.2,72.1c23.1,0,41.8-18.8,41.8-41.8c0-23.1-18.8-41.7-41.8-41.7c-14.8,0-26.6,12-26.6,26.6
		s12,26.6,26.6,26.6c4.2,0,7.5,3.4,7.5,7.5c0,4.2-3.4,7.5-7.5,7.5c-23.1,0-41.8-18.8-41.8-41.8s18.8-41.8,41.8-41.8
		c31.4,0,57,25.4,57,57s-25.6,57.2-57,57.2c-48.3,0-87.5-39.2-87.5-87.5s39.2-87.3,87.5-87.3s87.5,39.2,87.5,87.3
		c0,2-0.8,3.9-2.2,5.4C848.4,417.5,846.5,418.3,844.5,418.3z"/>
</g>
</svg>
