<?xml version="1.0" encoding="utf-8"?>
<!-- Generator: Adobe Illustrator 24.3.0, SVG Export Plug-In . SVG Version: 6.00 Build 0)  -->
<svg version="1.1" id="Calque_1" xmlns="http://www.w3.org/2000/svg" xmlns:xlink="http://www.w3.org/1999/xlink" x="0px" y="0px"
	 viewBox="0 0 1000 1000" style="enable-background:new 0 0 1000 1000;" xml:space="preserve">
<g>
	<path d="M916.7,683.3c0-18.3-15-33.3-33.3-33.3h-50c-18.3,0-33.3,15-33.3,33.3H600v-58c69.2-36.2,116.7-108.6,116.7-192
		c0-83.4-47.4-155.8-116.7-192v-58h33.3V100l-50-50H416.7l-50,50v83.3H400v58c-69.2,36.2-116.7,108.6-116.7,192
		s47.4,155.8,116.7,192v58h-16.7c-36.8,0-66.7,29.9-66.7,66.7c0,12.2,3.5,23.5,9.3,33.3H200c0-18.3-15-33.3-33.3-33.3h-50
		c-18.3,0-33.3,15-33.3,33.3H0v133.3h83.3c0,18.3,15,33.3,33.3,33.3h50c18.3,0,33.3-15,33.3-33.3h416.7c36.8,0,66.7-29.9,66.7-66.7
		c0-12.2-3.5-23.5-9.3-33.3h126c0,18.3,15,33.3,33.3,33.3h50c18.3,0,33.3-15,33.3-33.3h83.3V683.3H916.7z M150,916.7h-16.7V783.3
		H150V916.7z M540.6,571c2.2,4,0.7,9.1-3.3,11.3c-1.3,0.7-2.6,1-4,1c-3,0-5.8-1.6-7.3-4.3l-44.7-82c-14.3-4.2-26.6-12.9-35.1-24.7
		l-45.4,65.4c-1.6,2.3-4.2,3.6-6.9,3.6c-1.6,0-3.3-0.5-4.7-1.5c-3.8-2.6-4.7-7.8-2.1-11.6l50.3-72.6c-2.5-7-4.1-14.5-4.1-22.4
		c0-12.2,3.5-23.5,9.3-33.3h-82c-4.6,0-8.3-3.7-8.3-8.3c0-4.6,3.7-8.3,8.3-8.3h95.7c11.3-9.9,25.8-16.1,41.8-16.5l-38.8-71.2
		c-2.2-4-0.7-9.1,3.3-11.3c4-2.2,9.1-0.7,11.3,3.3l44.7,82c14.3,4.2,26.5,12.9,35.1,24.7l45.4-65.4c2.6-3.8,7.8-4.7,11.6-2.1
		c3.8,2.6,4.7,7.8,2.1,11.6L562.5,411c2.5,7,4.1,14.5,4.1,22.4c0,12.2-3.5,23.5-9.3,33.3h82c4.6,0,8.3,3.7,8.3,8.3s-3.7,8.3-8.3,8.3
		h-95.7c-11.3,9.9-25.8,16.1-41.8,16.5L540.6,571z M866.7,816.7H850V683.3h16.7V816.7z"/>
	<circle cx="500" cy="433.3" r="37.5"/>
</g>
</svg>
