<?xml version="1.0" encoding="utf-8"?>
<!-- Generator: Adobe Illustrator 24.3.0, SVG Export Plug-In . SVG Version: 6.00 Build 0)  -->
<svg version="1.1" id="Calque_1" xmlns="http://www.w3.org/2000/svg" xmlns:xlink="http://www.w3.org/1999/xlink" x="0px" y="0px"
	 viewBox="0 0 1000 1000" style="enable-background:new 0 0 1000 1000;" xml:space="preserve">
<g>
	<path d="M639.5,959.8c-1.1-22.9,6.8-53.1-58.5-143.8c-8.4-11.7-13.5-21.3-16.5-30.1H435.6c-3.1,8.9-8,18.5-16.4,30.1
		c-65.4,90.9-57.4,121-58.6,143.8c-0.2,3.5-0.2,18-0.2,40.2h279.2C639.6,977.9,639.6,963.3,639.5,959.8z"/>
	<path d="M440.3,758.6h119.2c-0.6-10.4-0.5-22-1.9-36.9c-2.5-26.2-3.4-105.2-3.2-128.4h0.6c4.5-5.5,5.7-27.1-0.6-34.4h-0.8
		c-0.3-9.8,0.5-19.4,0.5-23.5c0-5-5.2-13.9-13.1-13.9h-82.1c-7.8,0-13.1,8.9-13.1,13.9c0,4.2,0.8,13.6,0.5,23.5h-0.8
		c-6.2,7.4-5.1,28.9-0.6,34.4h0.6c0.2,23.2-0.6,102.2-3.2,128.4C440.8,736.6,440.9,748.1,440.3,758.6z"/>
</g>
<g>
	<path d="M999.9,959.8c-1.1-22.9,6.8-53.1-58.5-143.8c-8.4-11.7-13.5-21.3-16.5-30.1H796c-3.1,8.9-8,18.5-16.4,30.1
		c-65.4,90.9-57.4,121-58.6,143.8c-0.2,3.5-0.2,18-0.2,40.2H1000C1000,977.9,1000,963.3,999.9,959.8z"/>
	<path d="M800.7,758.6h119.2c-0.6-10.4-0.5-22-1.9-36.9c-2.5-26.2-3.4-105.2-3.2-128.4h0.6c4.5-5.5,5.7-27.1-0.6-34.4H914
		c-0.3-9.8,0.5-19.4,0.5-23.5c0-5-5.2-13.9-13.1-13.9h-82.1c-7.8,0-13.1,8.9-13.1,13.9c0,4.2,0.8,13.6,0.5,23.5h-0.8
		c-6.2,7.4-5.1,28.9-0.6,34.4h0.6c0.2,23.2-0.6,102.2-3.2,128.4C801.2,736.6,801.3,748.1,800.7,758.6z"/>
</g>
<g>
	<path d="M279.1,959.8c-1.1-22.9,6.8-53.1-58.5-143.8c-8.4-11.7-13.5-21.3-16.5-30.1H75.2c-3.1,8.9-8,18.5-16.4,30.1
		C-6.6,906.9,1.4,937,0.2,959.8C0,963.3,0,977.8,0,1000h279.2C279.2,977.9,279.2,963.3,279.1,959.8z"/>
	<path d="M79.9,758.6h119.2c-0.6-10.4-0.5-22-1.9-36.9c-2.5-26.2-3.4-105.2-3.2-128.4h0.6c4.5-5.5,5.7-27.1-0.6-34.4h-0.8
		c-0.3-9.8,0.5-19.4,0.5-23.5c0-5-5.2-13.9-13.1-13.9H98.5c-7.8,0-13.1,8.9-13.1,13.9c0,4.2,0.8,13.6,0.5,23.5h-0.8
		c-6.2,7.4-5.1,28.9-0.6,34.4h0.6c0.2,23.2-0.6,102.2-3.2,128.4C80.4,736.6,80.5,748.1,79.9,758.6z"/>
</g>
<path d="M693.2,0H306.8c-17.8,0-26.7,21.5-14.1,34.1l154,154v171.6c0,6.5,3.2,12.6,8.5,16.4l66.6,46.6c13.1,9.2,31.4-0.1,31.4-16.4
	V188.1l154-154C719.8,21.6,710.9,0,693.2,0z"/>
</svg>
