<?xml version="1.0" encoding="utf-8"?>
<!-- Generator: Adobe Illustrator 24.3.0, SVG Export Plug-In . SVG Version: 6.00 Build 0)  -->
<svg version="1.1" id="Calque_1" xmlns="http://www.w3.org/2000/svg" xmlns:xlink="http://www.w3.org/1999/xlink" x="0px" y="0px"
	 viewBox="0 0 1000 1000" style="enable-background:new 0 0 1000 1000;" xml:space="preserve">
<g>
	<path d="M377.1,827.6c0,42.1,34.4,76.5,76.5,76.5s76.5-34.4,76.5-76.5c0-42-34.1-76.5-76.5-76.5
		C411.6,751.4,377.1,785.8,377.1,827.6z M413.4,827.6c0-21.9,18-40,40-40c22,0,40,18,40,40c0,21.9-18,40-40,40
		C431.5,867.9,413.4,849.9,413.4,827.6z"/>
	<path d="M839.1,751.8v-4.7c0-6.6-5.3-12.1-12.1-12.1h-15.1v-26.7H850V460.8V346.9l95.7-6.6v-26.4l-95.7-6.6h-54.5v135L347.4,95.9
		c-83.9,64.5-167.8,138.5-222.3,205.5c-8.1,9.5-16.1,19.9-23.9,31.6c-12.5,18-22.1,35.2-28.5,51.3C52.4,428,35.4,483,25,552.5
		l8.9,1.4c-1.3,7.3-2.7,14.8-3.7,22.4l27.7,4.2c7.3-48.6,18.3-92.2,32.6-129.8L75.6,445c36.9-111.1,125.3-205.8,271.8-267.6
		l-0.1-0.1c0.1,0,0.1,0.1,0.1,0.1l366.8,283.4H532.8c-4.3-17.6-11-34.9-20.2-51.3c1.6-0.4,2.7-1.1,3.7-1.8l37.2-24.8
		c6.8-4.7,8.8-14.2,4.2-21s-14.2-8.8-21-4.2l-36.9,24.6c-1.1,0.9-2.2,1.8-3.1,3.1c-17.9-23.9-40.9-43.3-67.3-57.3
		c0.4-0.4,0.9-1.3,1.3-2l15-30.3c2.4-4.9,2.2-10.6-0.9-15c-3.1-4.5-8.2-7-13.7-6.8c-5.5,0.2-10.2,3.5-12.6,8.4l-15,30.6
		c-0.4,1.1-0.9,2.4-1.1,3.7c-84.2-30.6-178.7-2.2-232.7,69.6c-43.8,58.4-52.4,134.2-25.6,199.3v62.9l-9.3,7.3
		c-6.4,5.3-7.6,14.8-2.4,21.2c3,3.6,7.3,5.5,11.6,5.6v128.2h219c8-42.5,45.5-75.1,90.1-75.1c45.3-0.1,82.4,32.5,90.1,75.1h268.2
		v-10.1h15.1c6.6,0,12.1-5.3,12.1-12.1v-6.9H975v-29.9H839.1z M304.2,460.8c9.3-3.6,19.4-5.5,29.9-5.5c12.2,0,24.2,1.9,35.2,5.5
		H304.2z M470,460.8c-19.7-56.1-73-96.3-135.9-96.3c-62.9,0-116.3,40.1-135.9,96.3h-32.1c20.7-73,88-126.6,167.7-126.6
		s146.9,53.6,167.7,126.6H470z"/>
</g>
</svg>
