<?xml version="1.0" encoding="utf-8"?>
<!-- Generator: Adobe Illustrator 24.3.0, SVG Export Plug-In . SVG Version: 6.00 Build 0)  -->
<svg version="1.1" id="Calque_1" xmlns="http://www.w3.org/2000/svg" xmlns:xlink="http://www.w3.org/1999/xlink" x="0px" y="0px"
	 viewBox="0 0 1000 1000" style="enable-background:new 0 0 1000 1000;" xml:space="preserve">
<path d="M962.1,594.6c0-46.4,9-69,18.6-92.9c9.5-23.7,19.3-48.3,19.3-96.6s-9.8-72.9-19.3-96.6c-9.6-23.9-18.6-46.5-18.6-92.9
	c0-46.6,5-63.6,10.4-81.5c5.3-17.9,10.8-36.3,10.8-84.4v-5h-5c-46.9,0-69.7-9.1-93.8-18.8c-24-9.6-48.8-19.5-97.6-19.5
	c-48.8,0-73.6,9.9-97.6,19.5c-24.1,9.7-46.9,18.8-93.8,18.8s-69.6-9.1-93.8-18.8c-24-9.6-48.7-19.5-97.5-19.5
	c-48.8,0-73.6,9.9-97.5,19.5c-24.1,9.7-46.9,18.8-93.8,18.8c-47,0-64.7-5.6-83.5-11.5c-18.7-5.9-37.9-12-86.5-12h-5v5
	c0,46.4-9,69-18.6,92.9C9.8,142.8,0,167.3,0,215.6c0,48.3,9.8,72.9,19.3,96.6c9.5,23.9,18.6,46.5,18.6,92.9c0,46.4-9,69-18.6,92.9
	C9.8,521.8,0,546.3,0,594.7c0,48.4,9.8,72.9,19.3,96.7c9.6,23.9,18.6,46.5,18.6,92.9c0,46.7-5,63.6-10.4,81.6
	c-5.3,17.9-10.8,36.4-10.8,84.5v5h5c46.8,0,69.6,9.1,93.8,18.8c24,9.6,48.7,19.5,97.5,19.5s73.6-9.9,97.5-19.5
	c24.1-9.6,46.9-18.8,93.8-18.8c46.8,0,69.6,9.1,93.8,18.8c24,9.6,48.7,19.5,97.5,19.5c48.8,0,73.6-9.9,97.5-19.5
	c24.1-9.6,46.9-18.8,93.8-18.8c47.1,0,64.8,5.6,83.6,11.5c18.7,5.9,38,12,86.6,12h5v-5c0-46.4,9-69,18.6-92.9
	c9.5-23.8,19.3-48.3,19.3-96.7c0-48.3-9.8-72.9-19.3-96.7C971.1,663.7,962.1,641.1,962.1,594.6z M971.3,691.3
	c6.7,16.8,13.1,33.1,16.3,57.3c-43.3-0.7-69-9.4-95.9-18.7c-5.8-2-11.6-4-17.6-5.9c-3.6-13.9-8-25.3-12.5-36.5
	c-8.5-21.2-16.5-41.5-18.2-78.2c14,3.5,25.5,8,37.2,12.7c19.9,8,40.6,16.1,75,18.7C959.4,661.5,965.4,676.6,971.3,691.3z
	 M870.9,784.2c0,23.7-2.4,41.1-6,55.8c-19.2-6.7-42.1-12.1-78.1-12.1c-10.6,0-19.9,0.5-28.4,1.4c2.2-12.5,3.5-27.2,3.5-45
	c0-26.6-3-45.8-7.3-61.9c9.4-1.1,19.9-1.7,32.2-1.7c34.4,0,57.8,4.9,78.9,11.3C868.9,745.9,870.9,762.4,870.9,784.2z M40.4,721.3
	c34.6,2.1,54.4,9.9,75,18.1c12.1,4.8,24.3,9.7,39.8,13.4c1,9.2,1.7,19.5,1.7,31.5c0,33.7-4.8,54.7-11,72.9c-9.5-2.9-18-6.3-26.6-9.7
	c-19.6-7.8-40-15.9-73.5-18.5c1.4-11.5,2.2-25.7,2.2-44.7C48,757,44.9,737.5,40.4,721.3z M167,784.2c0-10.9-0.6-20.5-1.5-29.3
	c13.1,2.4,28.4,3.9,47.4,3.9c26.1,0,45.2-2.9,61.1-7c1.1,9.5,1.8,20,1.8,32.4c0,33.7-4.8,56.5-11,76.9c-13.9,3-30.3,5-51.9,5
	c-24.5,0-42.4-2.5-57.4-6.3C162,841.2,167,818.9,167,784.2z M129.1,594.6c0-38.1,6.1-60.1,13.6-80c17.7,5.4,39,9.5,70.3,9.5
	c13.5,0,25.1-0.8,35.4-2.1c-5.9,18.1-10.4,39.8-10.4,72.6c0,13.6,0.8,25.2,2.2,35.5c-8.2,0.8-17,1.3-27.2,1.3
	c-36.3,0-60.6-5.5-82.8-12.4C129.5,611.6,129.1,603.7,129.1,594.6z M45.8,369.6c31.4,2.6,50.1,9.9,69.7,17.8
	c12.5,5,25.2,10,41.3,13.7c0,1.4,0.1,2.6,0.1,4.1c0,46.4-9,69-18.6,92.9c-0.5,1.3-1.1,2.7-1.6,4c-6-2.1-11.7-4.4-17.5-6.7
	c-21.1-8.4-43-17.1-81.1-19c5.6-17.8,9.9-39.2,9.9-71.2C48,391.5,47.2,379.9,45.8,369.6z M147.7,501.8c9.5-23.7,19.3-48.3,19.3-96.6
	c0-0.7,0-1.3,0-2c12.8,2.3,27.7,3.7,46,3.7c27,0,46.6-3.1,62.8-7.4c0,2,0.1,3.7,0.1,5.8c0,46.4-9,69-18.6,92.9
	c-1.7,4.4-3.5,8.8-5.2,13.3c-11.1,1.7-23.8,2.7-39.2,2.7c-29.8,0-49.8-3.7-66.7-8.9C146.8,504.1,147.2,502.9,147.7,501.8z
	 M129.1,215.6c0-25.6,2.7-42.3,6.7-55.4c19,6.5,41.7,11.8,77.2,11.8c10.7,0,20.1-0.5,28.7-1.4c-2.3,12.1-3.7,26.6-3.7,44.9
	c0,26.7,3,45.9,7.3,62c-9.4,1.1-20,1.8-32.3,1.8c-34.3,0-57.6-4.9-78.7-11.3C131.1,254.1,129.1,237.6,129.1,215.6z M498,152.6
	c24,9.6,48.7,19.5,97.5,19.5c1.1,0,2-0.1,3.1-0.1c-2.2,11.5-3.6,25.5-3.6,43.6c0,27.5,3.2,47.2,7.7,63.6c-2.4,0-4.6,0.2-7.2,0.2
	c-46.8,0-69.6-9.1-93.8-18.8c-4.2-1.7-8.5-3.3-12.8-5c-1.8-11.3-2.9-24.2-2.9-40c0-30.1,3.8-48.9,9.1-64.2
	C496.2,151.8,497.1,152.2,498,152.6z M959.6,278.7c-34.7-2.1-54.5-9.9-75.2-18.1c-12-4.8-24.3-9.7-39.7-13.4
	c-1-9.2-1.7-19.6-1.7-31.6c0-33.6,4.7-54.6,11-72.8c9.5,2.9,18,6.3,26.6,9.7c19.6,7.8,40,15.9,73.6,18.5
	c-1.3,11.5-2.2,25.7-2.2,44.5C952,242.9,955.2,262.5,959.6,278.7z M833,215.6c0,11,0.6,20.6,1.5,29.4c-13.1-2.4-28.5-4-47.6-4
	c-26.1,0-45.1,2.9-61,6.9c-1.1-9.5-1.8-20.1-1.8-32.4c0-33.6,4.8-56.4,11-76.8c13.9-3,30.2-5,51.8-5c24.6,0,42.5,2.5,57.5,6.3
	C838,158.7,833,181.1,833,215.6z M870.9,405.2c0,38.2-6.2,60.3-13.7,80.2c-17.7-5.5-39-9.6-70.3-9.6c-13.5,0-25.1,0.8-35.4,2.1
	c5.9-18.1,10.5-39.9,10.5-72.8c0-13.5-0.8-25-2.1-35.3c8.1-0.8,16.9-1.3,27-1.3c36.4,0,60.7,5.5,83,12.5
	C870.5,388.4,870.9,396.2,870.9,405.2z M954.2,630.5c-31.4-2.6-50.2-9.9-69.8-17.8c-12.4-5-25.1-10-41.3-13.7c0-1.5-0.1-2.8-0.1-4.3
	c0-46.4,9-69,18.6-92.9c0.5-1.3,1-2.5,1.5-3.8c6,2.1,11.7,4.4,17.5,6.7c21.1,8.4,43,17.1,81.2,19c-5.6,17.7-9.9,39.2-9.9,71
	C952,608.4,952.9,620,954.2,630.5z M852.3,498c-9.5,23.7-19.3,48.3-19.3,96.6c0,0.8,0.1,1.4,0.1,2.2c-12.8-2.3-27.8-3.7-46.2-3.7
	c-27,0-46.5,3.1-62.7,7.4c0-2-0.2-3.8-0.2-5.9c0-46.4,9-69,18.6-92.9c1.7-4.3,3.4-8.7,5.1-13.1c11.1-1.7,23.7-2.7,39.1-2.7
	c29.8,0,49.8,3.7,66.7,8.9C853.2,495.9,852.7,497,852.3,498z M248.1,594.6c0-34.5,5-55.8,11.5-74.2c20.9-3.8,36.1-9.8,50.9-15.7
	c19.6-7.8,38.6-15.3,70.2-17.8c-1.4,3.7-2.9,7.4-4.4,11.1c-9.5,23.7-19.3,48.3-19.3,96.6c0,0.9,0.1,1.6,0.1,2.4
	c-20.6,3.8-35.6,9.7-50.3,15.6c-16.6,6.7-32.9,13-56.6,16.3C248.9,619,248.1,607.9,248.1,594.6z M751.9,405.2
	c0,34.6-5,55.9-11.5,74.4c-21,3.8-36.2,9.8-51,15.8c-19.6,7.8-38.6,15.3-70.1,17.8c1.5-3.8,2.9-7.6,4.4-11.3
	c9.5-23.7,19.3-48.3,19.3-96.6c0-0.8-0.1-1.5-0.1-2.3c20.5-3.8,35.5-9.7,50.1-15.6c16.7-6.7,33-13,56.8-16.4
	C751.1,380.9,751.9,392,751.9,405.2z M367.1,594.6c0-46.4,9-69,18.6-92.9c2-5,4-10.2,6-15.6c4.1-0.2,8.1-0.3,12.6-0.3
	c43.8,0,66.6,8,89.1,16.9c-8.9,22.3-17.4,46.7-17.4,91.8c0,3,0.1,5.8,0.2,8.6c-18-5.7-39.7-10.1-72-10.1c-14.3,0-26.4,0.9-37.2,2.4
	C367.1,595.2,367.1,595,367.1,594.6z M513.9,405.2c0,43.4-7.9,66-16.8,88.3c-22.6-9-47.2-17.7-92.8-17.7c-3.2,0-6.1,0.2-9.1,0.2
	c5.6-17.7,9.9-39.1,9.9-70.9c0-14.1-0.9-26-2.3-36.6c0.5,0,1,0,1.6,0c46.8,0,69.6,9.1,93.8,18.8c5.1,2,10.2,4.1,15.6,6
	C513.8,397.2,513.9,401,513.9,405.2z M486.1,594.6c0-43.3,7.9-65.8,16.7-88.1c22.6,9,47.2,17.6,92.7,17.6c3.3,0,6.2-0.2,9.3-0.2
	c-5.6,17.7-9.8,39.1-9.8,70.7c0,14.1,0.9,26.1,2.3,36.7c-0.6,0-1.2,0-1.8,0c-46.8,0-69.6-9.1-93.8-18.8c-5-2-10.1-4-15.4-5.9
	C486.2,602.9,486.1,598.9,486.1,594.6z M595.5,514.1c-43.8,0-66.6-8-89-16.9c8.9-22.4,17.5-46.8,17.5-92c0-2.9-0.1-5.5-0.2-8.4
	c17.9,5.7,39.6,10,71.8,10c14.4,0,26.5-0.9,37.4-2.4c0,0.3,0,0.5,0,0.7c0,46.4-9,69-18.6,92.9c-2.1,5.1-4.1,10.3-6.1,15.7
	C604.2,513.9,600,514.1,595.5,514.1z M689.3,378c-14.2,5.7-28.1,11.2-46.7,14.7c-1.6-40.2-10.4-62.6-19-84.2
	c-2.6-6.5-5.1-13-7.5-19.8c35.5-2.4,56.6-10.7,76.9-18.8c8-3.2,15.9-6.3,24.5-9.1c3.7,21.2,9.8,36.4,15.7,51.3
	c5.9,14.8,11.6,29.1,15.1,48.8C723.2,364.6,705.9,371.3,689.3,378z M614.3,312.3c8.8,21.9,17,43,18.3,82
	c-10.6,1.5-22.6,2.4-37.1,2.4c-33.1,0-54.1-4.6-72.1-10.7c-2.2-36.1-10.5-57.2-18.7-77.6c-5.1-12.8-10-25.4-13.6-41.3
	c2.3,0.9,4.6,1.8,6.9,2.7c24,9.6,48.7,19.5,97.5,19.5c3.6,0,6.9-0.2,10.2-0.3C608.4,297.4,611.4,304.9,614.3,312.3z M495.3,312.3
	c7.8,19.6,15.2,38.5,17.7,70.1c-3.8-1.4-7.5-2.9-11.2-4.4c-24-9.6-48.7-19.5-97.5-19.5c-1.1,0-2,0.1-3.1,0.1
	c-3.7-20.5-9.7-35.5-15.5-50c-6.5-16.3-12.7-32.2-16.1-55.2c10-1.3,21.3-2.1,34.6-2.1c35.3,0,56.9,5.2,75.7,11.8
	C483.7,283.1,489.6,297.9,495.3,312.3z M376.3,312.3c5.7,14.2,11.1,28,14.7,46.6c-40.1,1.7-62.6,10.5-84.2,19.2
	c-7,2.8-14,5.5-21.4,8c-2.2-36.1-10.6-57.1-18.7-77.5c-2.9-7.4-5.8-14.7-8.4-22.6c21.6-3.7,37.1-9.9,52.2-16
	c14.9-6,29.3-11.7,49.2-15.2C363.2,279.2,369.8,296,376.3,312.3z M310.5,387.3c22-8.8,43.1-17.1,82.1-18.5
	c1.4,10.4,2.3,22.2,2.3,36.3c0,32.7-4.5,53.5-10.5,71.3c-36,2.3-57.2,10.7-77.6,18.8c-13.3,5.3-26.3,10.4-43,14c1-2.5,2-5,3-7.5
	c9.5-23.7,19.3-48.3,19.3-96.6c0-3.1-0.1-5.8-0.2-8.7C294.6,393.6,302.6,390.5,310.5,387.3z M310.5,622
	c14.3-5.7,28.2-11.2,46.8-14.7c1.6,40.1,10.4,62.5,19,84c2.6,6.6,5.2,13,7.5,19.9c-35.7,2.3-56.8,10.6-77.1,18.8
	c-7.9,3.2-15.8,6.3-24.3,9c-3.7-21.3-9.8-36.5-15.8-51.4c-5.9-14.7-11.6-29-15.1-48.6C276.7,635.4,293.9,628.7,310.5,622z
	 M385.7,687.6c-8.8-21.9-17-42.9-18.3-81.9c10.6-1.5,22.5-2.4,36.9-2.4c33.2,0,54.3,4.6,72.4,10.7c2.2,35.9,10.6,57,18.7,77.3
	c5.1,12.9,10.1,25.5,13.6,41.5c-2.4-0.9-4.8-1.9-7.1-2.8c-24-9.6-48.7-19.5-97.5-19.5c-3.5,0-6.7,0.2-10,0.3
	C391.6,702.5,388.6,695,385.7,687.6z M504.7,687.6c-7.8-19.5-15.2-38.4-17.7-69.8c3.7,1.4,7.3,2.8,11,4.3
	c24,9.6,48.7,19.5,97.5,19.5c1.2,0,2.2-0.1,3.3-0.1c3.7,20.4,9.6,35.3,15.4,49.9c6.5,16.3,12.7,32.2,16.1,55.4
	c-10.1,1.3-21.4,2.1-34.8,2.1c-35.1,0-56.7-5.1-75.5-11.7C516.3,716.8,510.5,702,504.7,687.6z M623.7,687.6
	c-5.7-14.1-11.1-28-14.6-46.4c39.9-1.7,62.4-10.5,84-19.1c7.1-2.8,14.1-5.5,21.5-8.1c2.2,36,10.5,57,18.7,77.4
	c3,7.4,5.9,14.8,8.5,22.7c-21.7,3.8-37.3,9.9-52.4,16c-14.9,5.9-29.2,11.6-49,15.2C636.8,720.7,630.2,703.9,623.7,687.6z
	 M689.3,612.7c-22,8.8-43,17-81.8,18.5c-1.4-10.5-2.4-22.3-2.4-36.5c0-32.6,4.5-53.4,10.5-71.1c35.9-2.3,57.1-10.7,77.5-18.8
	c13.3-5.3,26.4-10.4,43.1-14c-1,2.4-1.9,4.9-2.9,7.3c-9.5,23.7-19.3,48.3-19.3,96.6c0,3.1,0.2,5.9,0.2,8.8
	C705.3,606.4,697.2,609.5,689.3,612.7z M786.9,358.5c-10.6,0-19.9,0.5-28.5,1.4c-3.7-21.2-9.8-36.4-15.7-51.3
	c-6.1-15.2-11.9-29.9-15.4-50.4c15.5-4.1,33.8-6.9,59.6-6.9c20.1,0,35.7,1.7,48.9,4.4c3.6,24,10.1,40.6,16.5,56.6
	c6.8,16.9,13.2,33.4,16.4,57.9C847,363.7,822.2,358.5,786.9,358.5z M716.1,250.8c-9.7,3-18.3,6.4-26.8,9.8
	c-20.9,8.4-40.9,16.3-76.2,18.3c-4.7-16.1-8-35.4-8-63.3c0-18.7,1.5-32.6,3.9-43.9c40-1.7,62.4-10.5,84-19.2
	c9.8-3.9,19.6-7.7,30.7-10.9c-5.5,19.6-9.8,42.4-9.8,74C714,229.1,714.8,240.5,716.1,250.8z M478.3,251.9c-18.4-6-40.5-10.8-74-10.8
	c-13.7,0-25.4,0.8-35.9,2.2c-0.8-8.3-1.3-17.3-1.3-27.7c0-35.5,5.3-59.2,12.1-80.7c7.6-0.7,15.8-1.1,25.1-1.1c39,0,61.2,6.3,81.5,14
	c-5.6,16-9.8,36.2-9.8,67.8C476,229.6,476.9,241.3,478.3,251.9z M357,215.6c0,10.9,0.5,20.4,1.4,29.1c-21.3,3.8-36.7,9.9-51.7,15.9
	c-15.4,6.2-30.4,12.1-51.4,15.6c-4.3-15.6-7.2-34.2-7.2-60.6c0-19.5,1.7-34.1,4.2-46.2c24.7-3.6,41.8-10.2,58.2-16.8
	c16.9-6.8,33.4-13.2,57.8-16.5C362,157,357,181.2,357,215.6z M213,289.5c13.4,0,24.9-0.8,35.2-2.1c2.9,8.9,6,17,9.2,24.9
	c8.4,21,16.4,40.9,18.2,76.8c-16,4.5-35.1,7.7-62.5,7.7c-18.8,0-33.6-1.5-46.3-3.9c-1.5-40.3-10.4-62.7-19-84.3
	c-3.8-9.4-7.4-18.6-10.5-29.1C157.4,285.1,180.7,289.5,213,289.5z M213,641.5c10.7,0,20-0.5,28.6-1.4c3.7,21.1,9.8,36.3,15.7,51.2
	c6.1,15.2,11.9,29.9,15.4,50.5c-15.5,4.1-33.9,6.9-59.7,6.9c-20,0-35.5-1.7-48.8-4.4c-3.6-24-10.1-40.7-16.5-56.8
	c-6.7-16.9-13.2-33.3-16.4-57.7C153,636.4,177.8,641.5,213,641.5z M283.9,749.2c9.6-3,18.2-6.4,26.6-9.7
	c20.9-8.4,40.9-16.3,76.5-18.3c4.7,16.1,8,35.3,8,63.1c0,17.7-1.3,31.9-3.5,44c-40.4,1.6-63,10.5-84.7,19.2
	c-9.8,3.9-19.5,7.7-30.5,10.9c5.5-19.6,9.8-42.4,9.8-74.1C286,770.8,285.2,759.4,283.9,749.2z M397.3,720.8c2.3-0.1,4.5-0.2,7-0.2
	c46.8,0,69.6,9.1,93.8,18.8c4.3,1.7,8.6,3.4,13,5.1c1.7,11.2,2.8,24.1,2.8,39.8c0,28.7-3.5,48.3-8.4,64.7c-1.3-0.5-2.5-1-3.8-1.5
	c-24-9.6-48.7-19.5-97.5-19.5c-0.9,0-1.7,0.1-2.6,0.1c2.1-12.2,3.3-26.4,3.3-43.7C405,756.8,401.8,737.1,397.3,720.8z M521.8,748.2
	c18.3,6,40.4,10.7,73.8,10.7c13.8,0,25.6-0.8,36.1-2.2c0.8,8.2,1.3,17.2,1.3,27.6c0,35.6-5.3,59.2-12.1,80.8
	c-7.7,0.7-15.9,1.1-25.3,1.1c-38.3,0-60.5-6.1-80.5-13.6c5.2-17.2,9-38.1,9-68.3C524,770.4,523.1,758.7,521.8,748.2z M643,784.2
	c0-10.8-0.5-20.3-1.4-29c21.2-3.8,36.5-9.8,51.5-15.8c15.5-6.2,30.5-12.1,51.6-15.6c4.3,15.6,7.2,34.1,7.2,60.5
	c0,18.8-1.5,33.6-3.9,46.3c-25,3.6-42.1,10.3-58.6,16.9c-16.9,6.8-33.3,13.2-57.6,16.4C638,842.9,643,818.7,643,784.2z M786.9,710.5
	c-13.3,0-24.8,0.8-35,2.1c-2.9-9-6.1-17.1-9.2-25c-8.4-20.9-16.3-40.8-18.2-76.7c16-4.5,35.1-7.6,62.4-7.6c18.9,0,33.7,1.5,46.4,3.9
	c1.6,40.1,10.4,62.6,19,84.1c3.8,9.4,7.4,18.7,10.5,29.3C842.6,714.9,819.2,710.5,786.9,710.5z M971.3,498
	c-2.1,5.1-4.1,10.3-6.1,15.7c-38.3-1.6-59-9.7-80.8-18.4c-5.7-2.3-11.5-4.6-17.6-6.8c7.6-20.3,14.2-43.8,14.2-83.4
	c0-7.5-0.3-14.3-0.7-20.8c3,1,6,2,9,3c27,9.2,55.1,18.6,100.6,19.3C989.6,452,980.7,474.4,971.3,498z M989.7,396.6
	c-43.7-0.7-69.8-9.4-97.1-18.7c-4.3-1.5-8.7-2.9-13.2-4.4c-3.2-28.7-10.5-47.1-17.7-65c-6.1-15.2-11.9-29.9-15.4-50.5
	c12.7,3.4,23.5,7.6,34.4,11.9c21.2,8.5,43.3,17.2,82,19.1c2.7,8.3,5.7,15.8,8.6,23.2C980.2,334.6,988.6,356,989.7,396.6z
	 M973.2,54.7c-0.4,42.9-5.2,59.2-10.4,76.5c-2.6,8.7-5.2,17.6-7.2,29.9c-32.3-2.5-51.3-9.9-71.2-17.9c-8.5-3.4-17.2-6.8-26.9-9.8
	c1.4-3.6,2.7-7.1,4.2-10.6c8.9-22.2,17.9-45.3,19.1-87.5C903.9,44.5,927.7,54,973.2,54.7z M870.8,31.3c-0.7,42.8-9.3,64.7-18.5,87.7
	c-1.5,3.8-3,7.7-4.5,11.6c-15.9-4.1-34.9-6.9-60.9-6.9c-19.5,0-35,1.6-48.3,4.1c1.3-4,2.7-7.9,4.1-11.9
	c9.2-26.1,18.5-53.1,19.1-98.4c7.6-0.6,15.7-1.1,25-1.1C827.3,16.4,849.9,23.2,870.8,31.3z M693.1,35.2
	c17.2-6.9,33.8-13.4,58.7-16.6c-0.7,42.8-9.3,67.8-18.5,94c-2,5.8-4.1,11.6-6,17.7c-14.5,3.6-26.3,8.3-37.9,12.9
	c-21.2,8.5-41.4,16.5-77.8,18.4c3.3-11.1,7.5-19.6,11.9-28.2c9.3-18.2,18.8-37.3,19.4-82.6C663.4,47,678.4,41.1,693.1,35.2z
	 M632.8,52.3c-0.7,41.7-9.2,58.8-18.2,76.5c-4.9,9.6-9.8,19.4-13.5,33c-1.9,0-3.5,0.1-5.5,0.1c-46.8,0-69.6-9.1-93.8-18.8
	c-1-0.4-2-0.8-3-1.2c1.9-4.5,3.8-8.8,5.8-13.2c9-19.8,18.3-40.6,19.2-84.1c17.9,5.7,39.6,10,71.7,10C609.9,54.7,622,53.8,632.8,52.3
	z M513.8,41.3c-0.5,43.6-9.2,63-18.4,83.3c-2,4.5-4.1,9-6,13.8c-20.7-7.8-44.6-14.7-85.1-14.7c-7.9,0-15,0.3-21.7,0.8
	c1-3.1,2.1-6.2,3.2-9.3c9.1-26.3,18.4-53.7,19.1-98.7c46.4,0.1,69.1,9.1,93.1,18.7C503.2,37.3,508.4,39.3,513.8,41.3z M310.5,35.2
	c22.4-9,43.9-17.4,84.3-18.5c-0.7,43.2-9.3,68.6-18.5,95.2c-1.5,4.4-3.1,9-4.6,13.5c-28.6,3.2-47,10.6-64.9,17.8
	c-15.6,6.2-30.6,12.2-51.9,15.7c3.3-11.4,7.4-20.7,11.7-30c9.1-19.9,18.4-40.7,19.3-84.5C294.7,41.5,302.7,38.4,310.5,35.2z
	 M275.7,47.3c-1.2,39.4-9.4,58-18.3,77.3c-4.8,10.6-9.7,21.4-13.4,35.8c-9.1,1-19.3,1.6-31,1.6c-34.1,0-55.4-4.9-73.8-11.2
	c2.5-6.3,5.2-11.9,8-17.5c9-18,18.2-37,19-81.2c12,1.6,26.9,2.7,46.8,2.7C240,54.7,259.5,51.6,275.7,47.3z M48,31.2
	c43.3,0.4,60.4,5.8,78.5,11.5c8.7,2.8,17.7,5.5,29.7,7.7c-0.5,42.9-9,60.2-18,78.2c-2.9,5.8-5.8,11.8-8.5,18.6
	c-3.5-1.3-6.9-2.7-10.4-4.1c-22.8-9.1-46.6-18.5-91-19.3c0.1-0.4,0.3-0.7,0.4-1.1C37.9,99.9,47.3,76.2,48,31.2z M24.3,133.9
	c45,0.3,67.5,9.2,91.1,18.7c3.6,1.4,7.2,2.8,10.9,4.3c-4.3,13.9-7.4,31.8-7.4,58.8c0,19.8,1.7,35.5,4.3,48.9c-4-1.3-7.9-2.7-11.9-4
	c-26.7-9.2-54.4-18.7-100.2-19.3c-0.7-7.7-1.2-16.1-1.2-25.6C10.1,176.4,16.6,154.2,24.3,133.9z M28.7,308.5
	c-6.7-16.8-13.1-33.1-16.3-57.2c43.3,0.7,68.9,9.4,95.8,18.7c5.8,2,11.7,4,17.7,5.9c3.6,13.8,8,25.2,12.5,36.3
	c8.5,21.3,16.5,41.6,18.2,78.4c-14.1-3.5-25.6-8-37.3-12.7c-19.9-8-40.6-16.1-74.9-18.6C40.6,338.4,34.6,323.3,28.7,308.5z
	 M28.7,501.8c2-5,4.1-10.2,6-15.6c38.3,1.6,59,9.7,80.8,18.5c5.7,2.3,11.5,4.6,17.6,6.8c-7.6,20.2-14.1,43.8-14.1,83.2
	c0,7.6,0.3,14.5,0.8,21c-3-1-6.1-2-9.1-3.1c-27-9.2-55-18.6-100.5-19.3C10.3,547.9,19.2,525.4,28.7,501.8z M10.3,603.4
	c43.6,0.7,69.7,9.4,97.1,18.7c4.4,1.5,8.8,3,13.3,4.4c3.2,28.6,10.5,46.9,17.7,64.8c6.1,15.2,11.9,30,15.4,50.7
	c-12.8-3.4-23.5-7.6-34.5-12c-21.2-8.5-43.3-17.2-81.8-19c-2.7-8.3-5.7-15.9-8.7-23.4C19.8,665.3,11.4,643.9,10.3,603.4z
	 M26.8,945.3c0.4-42.9,5.2-59.3,10.4-76.6c2.6-8.7,5.2-17.6,7.2-29.8c32.2,2.4,51.2,9.9,71.1,17.9c8.5,3.4,17.2,6.8,26.9,9.9
	c-1.4,3.5-2.7,7-4.1,10.5c-8.9,22.2-17.9,45.3-19.1,87.6C96.1,955.5,72.3,946,26.8,945.3z M129.2,968.7c0.7-42.8,9.3-64.8,18.5-87.8
	c1.5-3.8,3-7.6,4.5-11.5c15.8,4.1,34.9,6.9,60.8,6.9c19.5,0,35.1-1.6,48.3-4.1c-1.3,4-2.7,7.9-4.1,11.9
	c-9.1,26.1-18.5,53.2-19.1,98.4c-7.6,0.6-15.8,1.1-25.1,1.1C172.6,983.6,150.1,976.8,129.2,968.7z M306.7,964.8
	c-17.1,6.8-33.7,13.3-58.5,16.6c0.7-42.8,9.3-67.8,18.5-94c2-5.8,4.1-11.6,6-17.7c14.4-3.6,26.2-8.3,37.7-12.9
	c21.4-8.6,41.8-16.6,78.9-18.4c-3.5,14.8-8.2,26.6-13,38.8c-7.7,19.3-15.6,39.2-18.3,71.8C336.9,952.8,321.7,958.8,306.7,964.8z
	 M368.3,947.5c2.7-29.6,9.8-47.7,17.4-66.6c5.1-12.8,10.3-25.9,14-42.8c1.6,0,3-0.1,4.6-0.1c46.8,0,69.6,9.1,93.8,18.8
	c1.5,0.6,2.9,1.2,4.4,1.8c-2.2,6.4-4.7,12.5-7.1,18.6c-8.2,20.5-16.6,41.8-18.7,78.3c-18.1-5.8-39.8-10.2-72.3-10.2
	C390.5,945.3,378.8,946.1,368.3,947.5z M486.5,958.9c1.8-36.6,9.7-56.8,18.2-78c2.4-6.1,4.9-12.2,7.2-18.8
	c20.4,7.6,44.1,14.1,83.7,14.1c8,0,15.1-0.4,21.9-0.8c-1,3.1-2.1,6.2-3.2,9.3c-9.1,26.3-18.4,53.7-19.1,98.8
	c-46.6-0.1-69.4-9.1-93.4-18.8C496.8,962.8,491.7,960.8,486.5,958.9z M689.3,964.8c-22.4,8.9-43.8,17.3-84.1,18.5
	c0.7-43.2,9.3-68.6,18.5-95.2c1.5-4.5,3.1-9,4.6-13.6c28.4-3.2,46.8-10.6,64.7-17.7c15.7-6.3,31-12.3,52.6-15.7
	c-3.4,13.5-7.8,24.7-12.4,36.1c-8.2,20.5-16.6,41.8-18.7,78.3C705.5,958.4,697.3,961.6,689.3,964.8z M724.9,952.5
	c2.3-32.6,9.8-51.7,17.8-71.6c5-12.4,10-25.2,13.7-41.4c9-1,19-1.5,30.5-1.5c35.1,0,56.7,5.1,75.4,11.7c-2.9,9.8-6.4,18.5-10,27.4
	c-7.6,19-15.4,38.9-18.2,70.9c-12.1-1.7-27.1-2.7-47.3-2.7C760.3,945.3,741,948.3,724.9,952.5z M952.1,968.8
	c-43.3-0.4-60.5-5.8-78.6-11.5c-8.7-2.7-17.6-5.5-29.4-7.7c2.6-30.9,9.8-49.4,17.6-68.7c3.5-8.7,7-17.6,10.1-27.7
	c3,1.2,6,2.3,8.9,3.5c22.8,9.1,46.7,18.4,91,19.3c-0.2,0.4-0.3,0.7-0.4,1.1C962.2,900.1,952.7,923.7,952.1,968.8z M975.6,866.1
	c-45-0.4-67.5-9.3-91.2-18.7c-3.3-1.3-6.6-2.6-10-3.9c3.9-15.5,6.5-34.1,6.5-59.2c0-19.8-1.7-35.4-4.3-48.8c3.9,1.3,7.8,2.6,11.8,4
	c26.7,9.2,54.5,18.7,100.3,19.3c0.7,7.7,1.2,16,1.2,25.5C989.9,823.5,983.4,845.7,975.6,866.1z"/>
</svg>
