<?xml version="1.0" encoding="utf-8"?>
<!-- Generator: Adobe Illustrator 24.3.0, SVG Export Plug-In . SVG Version: 6.00 Build 0)  -->
<svg version="1.1" id="Calque_1" xmlns="http://www.w3.org/2000/svg" xmlns:xlink="http://www.w3.org/1999/xlink" x="0px" y="0px"
	 viewBox="0 0 1000 1000" style="enable-background:new 0 0 1000 1000;" xml:space="preserve">
<path d="M967.1,720.1l-127-7.7L219.8,277.4l-30.6-104.1c4.4-10.3,6.8-21.6,6.8-33.5c0-47.2-38.3-85.5-85.5-85.5
	C63.3,54.3,25,92.6,25,139.8c0,24.7,10.5,46.9,27.2,62.5l62.5,743.4l429.9-5.1L975,761.9L967.1,720.1z M110.5,105.9
	c13.8,0,25,11.2,25,25c0,13.8-11.2,25-25,25c-13.8,0-25-11.2-25-25C85.6,117,96.7,105.9,110.5,105.9z"/>
</svg>
