<?xml version="1.0" encoding="utf-8"?>
<!-- Generator: Adobe Illustrator 24.3.0, SVG Export Plug-In . SVG Version: 6.00 Build 0)  -->
<svg version="1.1" id="Calque_1" xmlns="http://www.w3.org/2000/svg" xmlns:xlink="http://www.w3.org/1999/xlink" x="0px" y="0px"
	 viewBox="0 0 1000 1000" style="enable-background:new 0 0 1000 1000;" xml:space="preserve">
<g>
	<path d="M918.6,472.3c0-11.9-9.7-21.6-21.6-21.6h-96.9c-11.9,0-21.6,9.7-21.6,21.6c0,11.9,9.7,21.6,21.6,21.6h26.6v49.8
		c0,29.4-21.7,53.6-49.9,58v-2.3c0,0,0-51.9-51.9-51.9h-186v-82.2h126.3c51.9,0,46.1-51.6,46.1-51.6L671,51.6
		C665.2,0,613.3,0,613.3,0H386.7c0,0-51.9,0-57.7,51.6l-40.4,362.2c0,0-5.8,51.6,46.1,51.6h126.3v82.2h-186c0,0-51.9,0-51.9,51.9
		v2.3c-28.2-4.4-49.8-28.6-49.8-58v-49.8h26.6c11.9,0,21.6-9.7,21.6-21.6c0-11.9-9.7-21.6-21.6-21.6H103c-11.9,0-21.6,9.7-21.6,21.6
		c0,11.9,9.7,21.6,21.6,21.6h27v49.8c0,53.4,41.2,97.3,93.4,101.8c1.4,12.6,9,47.4,51.6,47.4h186v156.3
		c-80.3,6.4-154.8,31.1-215,71.8c-2.7-0.6-5.6-1-8.5-1c-21.5,0-38.9,17.9-38.9,40c0,22.1,17.4,40,38.9,40c21.5,0,38.9-17.9,38.9-40
		c0-5.6-1.1-10.9-3.2-15.8c58.5-37.4,131.3-58.9,209.3-62v42.1c-12.8,6.6-21.6,20-21.6,35.7c0,22.1,17.4,40,38.9,40
		c21.5,0,38.9-17.9,38.9-40c0-15.7-8.8-29.1-21.6-35.7V882c78,2.4,151.3,23.3,210.4,60c-2.7,5.4-4.3,11.5-4.3,17.9
		c0,22.1,17.4,40,38.9,40c21.5,0,38.9-17.9,38.9-40c0-22.1-17.4-40-38.9-40c-1.6,0-3.1,0.3-4.7,0.5
		c-61.1-41.2-137.2-65.9-218.7-71.7V692.9h186c0,0,48.6-0.2,51.6-47.4c52.2-4.5,93.4-48.4,93.4-101.8v-49.8h27
		C908.9,493.9,918.6,484.3,918.6,472.3"/>
</g>
</svg>
