<?xml version="1.0" encoding="utf-8"?>
<!-- Generator: Adobe Illustrator 24.3.0, SVG Export Plug-In . SVG Version: 6.00 Build 0)  -->
<svg version="1.1" id="Calque_1" xmlns="http://www.w3.org/2000/svg" xmlns:xlink="http://www.w3.org/1999/xlink" x="0px" y="0px"
	 viewBox="0 0 1000 1000" style="enable-background:new 0 0 1000 1000;" xml:space="preserve">
<g>
	<g>
		<g>
			<g>
				<path d="M149.7,91C67,91,0,158,0,240.6c0,22.3,4.9,43.6,13.7,62.6l114,247.4c5.5,11.9,13.3,19.3,22,19.3c8.7,0,16.5-7.4,22-19.3
					l114-247.4c8.8-19,13.7-40.2,13.7-62.6C299.4,158,232.3,91,149.7,91L149.7,91z M149.7,330.4c-49.6,0-89.8-40.2-89.8-89.8
					c0-49.6,40.2-89.8,89.8-89.8s89.8,40.2,89.8,89.8C239.5,290.2,199.3,330.4,149.7,330.4L149.7,330.4z"/>
			</g>
		</g>
		<g>
			<g>
				<path d="M850.3,366.7c-82.7,0-149.7,67-149.7,149.7c0,22.3,4.9,43.6,13.7,62.6l114,247.4c5.5,11.9,13.3,19.3,22,19.3
					s16.5-7.4,22-19.3l114-247.4c8.8-19,13.7-40.2,13.7-62.6C1000,433.7,933,366.7,850.3,366.7L850.3,366.7z M850.3,606.2
					c-49.6,0-89.8-40.2-89.8-89.8s40.2-89.8,89.8-89.8s89.8,40.2,89.8,89.8S899.9,606.2,850.3,606.2L850.3,606.2z"/>
			</g>
		</g>
	</g>
	<g>
		<path d="M772,819.3l-155.4-89.8v61.7c-52-9.4-91.6-55-91.6-109.8c0-90.5-73.7-164.2-164.2-164.2H239.1l-24.3,52.6h145.9
			c61.5,0,111.5,50,111.5,111.5c0,83.8,63.1,153.1,144.3,163V909L772,819.3z"/>
	</g>
</g>
</svg>
