<?xml version="1.0" encoding="utf-8"?>
<!-- Generator: Adobe Illustrator 24.3.0, SVG Export Plug-In . SVG Version: 6.00 Build 0)  -->
<svg version="1.1" id="Calque_1" xmlns="http://www.w3.org/2000/svg" xmlns:xlink="http://www.w3.org/1999/xlink" x="0px" y="0px"
	 viewBox="0 0 1000 1000" style="enable-background:new 0 0 1000 1000;" xml:space="preserve">
<g>
	<path d="M1000,599.9v-50h-54.3c-0.9-2.5-1.9-4.9-3-7.3l39.5-39.4l-35.4-35.4l-39.5,39.4c-9.8-4.7-20.7-7.3-32.3-7.3v-50h-50v50h-50
		v-50h-50v50h-50v-50h-50v50h-50v-50h-50v50h-25v-50c0-27.6-22.4-50-50-50h-50v-14.6l92.7-92.7c9.8-9.8,9.8-25.6,0-35.4
		c-9.8-9.8-25.6-9.8-35.4,0l-100,100c-4.7,4.7-7.3,11-7.3,17.7v25h-50L150,550L0,600v100c0,0,0,50,50,50s150,0,150,0h250
		c27.6,0,50-22.4,50-50v-50h25v50h50v-50h50v50h50v-50h50v50h50v-50h50v50h50v-50c11.1,0,21.7-2.5,31.2-6.8l40,42.7l36.5-34.2
		l-40.5-43.3c1.4-2.7,2.5-5.5,3.6-8.4H1000z M150,700H50v-64l100-33.3V700z M375,650H275c-13.8,0-25-11.2-25-25s11.2-25,25-25h100
		c13.8,0,25,11.2,25,25S388.8,650,375,650z M875,600c-13.8,0-25-11.2-25-25c0-13.8,11.2-25,25-25c13.8,0,25,11.2,25,25
		C900,588.8,888.8,600,875,600z"/>
</g>
</svg>
