<?xml version="1.0" encoding="utf-8"?>
<!-- Generator: Adobe Illustrator 24.3.0, SVG Export Plug-In . SVG Version: 6.00 Build 0)  -->
<svg version="1.1" id="Calque_1" xmlns="http://www.w3.org/2000/svg" xmlns:xlink="http://www.w3.org/1999/xlink" x="0px" y="0px"
	 viewBox="0 0 1000 1000" style="enable-background:new 0 0 1000 1000;" xml:space="preserve">
<g>
	<path d="M137.9,406.6v-103c0-37.3-10.9-73.3-31.6-104.3l28.7-19.1c24.4,36.7,37.4,79.4,37.4,123.5v103h51.7V155.2h34.5v251.4h51.7
		v-103c0-44.1,12.9-86.8,37.4-123.5l28.7,19.1c-20.7,31-31.6,67.1-31.6,104.3v103h51.7v-96.2c0.2-82.5,15.3-167.5,51.7-241.4
		c-39.4,10-109.2,73.3-109.2,73.3l17.2-120.7l-4.8,3.6c-18.1,13.5-32.9,31.3-43,51.5L293,107.4L241.4,0l-51.7,107.5l-15.4-30.8
		c-10.1-20.2-25-38-43-51.5l-4.8-3.6l17.2,120.7c0,0-57.4-56-109.2-73.2C70.8,142.8,86,227.8,86.2,310.3v96.2h51.7V406.6z"/>
	<path d="M86.2,559h34.5v182.4H86.2V559z"/>
	<path d="M224.1,559h34.5v182.4h-34.5V559z"/>
	<path d="M155.2,559h34.5v182.4h-34.5V559z"/>
	<path d="M448.3,517.2c0-9.5-7.7-17.2-17.2-17.2H327.6v-34.5H431c9.5,0,17.2-7.7,17.2-17.2s-7.7-17.2-17.2-17.2H51.7
		c-9.5,0-17.2,7.7-17.2,17.2s7.7,17.2,17.2,17.2h241.4V500H51.7c-9.5,0-17.2,7.7-17.2,17.2s7.7,17.2,17.2,17.2H431
		C440.5,534.5,448.3,526.7,448.3,517.2z"/>
	<path d="M362.1,559h34.5v182.4h-34.5V559z"/>
	<path d="M293.1,559h34.5v182.4h-34.5V559z"/>
	<path d="M431,706.9h71.7v34.5H431V706.9z"/>
	<path d="M613.4,586.2c-9.5,0-17.2,7.7-17.2,17.2v241.4h-34.5V603.4c0-9.5-7.7-17.2-17.2-17.2s-17.2,7.7-17.2,17.2v379.3
		c0,9.5,7.7,17.2,17.2,17.2s17.2-7.7,17.2-17.2V879.3h34.5v103.4c0,9.5,7.7,17.2,17.2,17.2s17.2-7.7,17.2-17.2V603.4
		C630.7,593.9,622.9,586.2,613.4,586.2z"/>
	<path d="M940.4,903.3c-13.6-18.1-31.4-32.9-51.5-43L858,844.8l107.5-51.7L858,741.4l30.9-15.4c20.2-10.1,38-24.9,51.5-43l3.6-4.8
		l-120.7,17.2c0,0,58.3-51.9,73.3-109.2c-73.8,36.4-158.9,51.5-241.4,51.7v51.8h6.8c37.2,0,73.3-10.9,104.3-31.6l19.1,28.7
		c-36.7,24.4-79.4,37.4-123.5,37.4h-6.8v51.7h155.2v34.5H655.2v51.7h6.8c44.1,0,86.8,12.9,123.5,37.4l-19.1,28.7
		c-31-20.7-67.1-31.6-104.3-31.6h-6.8v51.8c82.5,0.2,167.5,15.3,241.4,51.7c-8.6-55.6-73.3-109.2-73.3-109.2L944,908.1L940.4,903.3z
		"/>
	<path d="M310.3,913.8h192.4v34.5H310.3V913.8z"/>
	<path d="M431,637.9h71.7v34.5H431V637.9z"/>
	<path d="M310.3,844.8h192.4v34.5H310.3V844.8z"/>
	<path d="M310.3,775.9h192.4v34.5H310.3V775.9z"/>
</g>
</svg>
