<?xml version="1.0" encoding="utf-8"?>
<!-- Generator: Adobe Illustrator 24.3.0, SVG Export Plug-In . SVG Version: 6.00 Build 0)  -->
<svg version="1.1" id="Calque_1" xmlns="http://www.w3.org/2000/svg" xmlns:xlink="http://www.w3.org/1999/xlink" x="0px" y="0px"
	 viewBox="0 0 1000 1000" style="enable-background:new 0 0 1000 1000;" xml:space="preserve">
<g>
	<circle cx="243.6" cy="282.1" r="89.7"/>
	<circle cx="756.4" cy="282.1" r="89.7"/>
	<polygon points="615.4,602.6 897.4,602.6 897.4,525.6 820.5,525.6 692.3,525.6 615.4,525.6 	"/>
	<polygon points="102.6,602.6 384.6,602.6 384.6,525.6 307.7,525.6 179.5,525.6 102.6,525.6 	"/>
	<path d="M717.9,390.3V500h76.9V390.3c-12.1,4.4-24.9,7.2-38.5,7.2C742.8,397.4,730,394.6,717.9,390.3z"/>
	<path d="M205.1,390.3V500h76.9V390.3c-12.1,4.4-24.9,7.2-38.5,7.2S217.2,394.6,205.1,390.3z"/>
	<path d="M38.5,807.7h923.1c21.3,0,38.5-17.2,38.5-38.5v-141h-76.9H589.7H410.3H76.9H0v141C0,790.5,17.2,807.7,38.5,807.7z"/>
</g>
</svg>
