<?xml version="1.0" encoding="utf-8"?>
<!-- Generator: Adobe Illustrator 24.3.0, SVG Export Plug-In . SVG Version: 6.00 Build 0)  -->
<svg version="1.1" id="Calque_1" xmlns="http://www.w3.org/2000/svg" xmlns:xlink="http://www.w3.org/1999/xlink" x="0px" y="0px"
	 viewBox="0 0 1000 1000" style="enable-background:new 0 0 1000 1000;" xml:space="preserve">
<g>
	<path id="Shape" d="M71.4,585.8c0-9.9,8-17.9,17.9-17.9h821.4c9.9,0,17.9,8,17.9,17.9v17.9H71.4V585.8z M35.7,657.2
		c0-9.9,8-17.9,17.9-17.9h892.9c9.9,0,17.9,8,17.9,17.9v232.1H35.7V657.2z M1000,960.8H0v-17.9c0-9.9,8-17.9,17.9-17.9h964.3
		c9.9,0,17.9,8,17.9,17.9V960.8z"/>
	<path d="M820.6,164.3C640.2-2.5,359.7-2.5,179.3,164.3c-6.8,6.3-6.9,16.9-0.3,23.4l34.8,34.6c6.3,6.2,16.3,6.3,22.8,0.4
		c148.6-136.1,378.1-136.1,526.7,0c6.5,5.9,16.6,5.8,22.8-0.4l34.9-34.6C827.6,181.2,827.4,170.6,820.6,164.3L820.6,164.3z M500,365
		c-36,0-65.2,29.2-65.2,65.2s29.2,65.2,65.2,65.2s65.2-29.2,65.2-65.2S535.9,365,500,365z M706.4,279.9
		c-117.4-103.8-295.5-103.7-412.7,0c-7,6.2-7.2,17-0.6,23.6l35.1,34.6c6.1,6,16,6.5,22.5,0.8c85.5-73.9,213.6-73.7,298.9,0
		c6.5,5.6,16.4,5.2,22.5-0.8l35.1-34.6C713.6,296.9,713.3,286.1,706.4,279.9z"/>
</g>
</svg>
