<?xml version="1.0" encoding="utf-8"?>
<!-- Generator: Adobe Illustrator 24.3.0, SVG Export Plug-In . SVG Version: 6.00 Build 0)  -->
<svg version="1.1" id="Calque_1" xmlns="http://www.w3.org/2000/svg" xmlns:xlink="http://www.w3.org/1999/xlink" x="0px" y="0px"
	 viewBox="0 0 1000 1000" style="enable-background:new 0 0 1000 1000;" xml:space="preserve">
<path d="M325,650h-6c-21.8,7.5-44.8,12.5-69,12.5s-47.3-5-69-12.5h-6C78.3,650,0,728.3,0,825c0,41.4,33.6,75,75,75h350
	c41.4,0,75-33.6,75-75C500,728.3,421.7,650,325,650z M925,100H325c-41.4,0-75,34.8-75,77.5V250c36.6,0,70.5,10.6,100,27.8V200h550
	v450H480.9c29.8,26.1,51.8,60.5,62,100H925c41.4,0,75-34.8,75-77.5v-495C1000,134.8,966.4,100,925,100z M250,600
	c82.8,0,150-67.2,150-150s-67.2-150-150-150s-150,67.2-150,150S167.2,600,250,600z M514,361c-14.6-14.6-38.4-14.6-53,0l-23,23
	c7.3,20.8,12.1,42.7,12.1,66c0,10.7-1.5,21-3.2,31.2l40.7-40.6l86,86c14.6,14.6,38.4,14.6,53,0L739,414l38,38
	c17.7,17.7,48,5.2,48-19.9V293.8c0-10.4-8.4-18.8-18.8-18.8H667.9c-25.1,0-37.6,30.3-19.9,48l38,38l-86,86L514,361z"/>
</svg>
