<?xml version="1.0" encoding="utf-8"?>
<!-- Generator: Adobe Illustrator 24.3.0, SVG Export Plug-In . SVG Version: 6.00 Build 0)  -->
<svg version="1.1" id="Calque_1" xmlns="http://www.w3.org/2000/svg" xmlns:xlink="http://www.w3.org/1999/xlink" x="0px" y="0px"
	 viewBox="0 0 1000 1000" style="enable-background:new 0 0 1000 1000;" xml:space="preserve">
<g>
	<g>
		<path d="M262.9,514c-51.5,0-92.6,41.6-92.6,92.6c0,51,41.6,92.6,92.6,92.6s92.6-41.6,92.6-92.6C355.5,555.7,313.6,514,262.9,514z
			 M262.9,649.3c-23.5,0-42.7-19.1-42.7-42.7s19.1-42.7,42.7-42.7c23.6,0,42.7,19.1,42.7,42.7S286.5,649.3,262.9,649.3z"/>
	</g>
	<path d="M262.9,504.7c42.9,0,79.7,26.8,94.8,64.7V325c-3.4-7.3-8.2-11.9-13.5-11.9c-8.7,0-15.9,11.9-17.9,28h-33.9
		c-1.9-16.1-9.3-28-17.9-28c-8.7,0-15.9,11.9-17.9,28h-34.2c-1.9-16.1-9.3-28-17.9-28s-15.9,11.9-17.9,28h-85.9l-3.5,29.6L25,407.5
		l45.9,190.3h90.4C166,545.6,209.6,504.7,262.9,504.7z"/>
	<path d="M367.6,300.8v362.6h94.2V300.8H367.6z M373.9,549.1v-25.7h81.8v25.7H373.9z M455.6,559.4v25.7h-81.8v-25.7H455.6z
		 M373.9,513v-25.7h81.8V513H373.9z M373.9,477.3v-25.7h81.8v25.7H373.9z M373.9,441.2v-25.7h81.8v25.7H373.9z M373.9,405.3v-25.7
		h81.8v25.7H373.9z M373.9,369.4v-25.7h81.8v25.7H373.9z M373.9,333.5v-25.7h81.8v25.7H373.9z M373.9,595.1h81.8v25.7h-81.8V595.1z
		 M455.6,657h-81.8v-25.7h81.8V657z"/>
	<g>
		<path d="M738.2,591.4c-29,0-52.4,23.5-52.4,52.4c0,29,23.5,52.4,52.4,52.4c29,0,52.4-23.5,52.4-52.4
			C790.6,614.9,767.2,591.4,738.2,591.4z M738.2,667.7c-13.2,0-23.9-10.7-23.9-23.9c0-13.2,10.7-23.9,23.9-23.9s23.9,10.7,23.9,23.9
			C762.1,657,751.4,667.7,738.2,667.7z"/>
	</g>
	<path d="M502.1,341c-2-16-9.3-27.9-17.8-27.9c-4.6,0-8.8,3.4-12,8.9v333.9h205c-0.8-3.9-1.2-7.9-1.2-12c0-34.2,27.8-62.1,62.1-62.1
		s62.1,27.8,62.1,62.1c0,4.1-0.4,8.1-1.2,12h27.5v-9.1h13.7c6,0,11.1-4.8,11.1-11.1v-6.3H975v-27.2l-123.4,0v-4.3
		c0-6-4.8-11.1-11.1-11.1h-12.1l20.6-179.4L801,370.6l-3.5-29.6h-16.1c-2-16.1-9.3-28-17.9-28c-8.7,0-16,11.9-17.9,28h-33.9
		c-2-16.1-9.3-28-17.9-28c-8.7,0-16,11.9-17.9,28h-19h-15.2h0.2c-1.9-16.1-9.3-28-17.9-28s-15.9,11.9-17.9,28h-33.9
		c-1.9-16.1-9.3-28-17.9-28c-8.7,0-15.9,11.9-17.9,28H502.1"/>
</g>
</svg>
