<?xml version="1.0" encoding="utf-8"?>
<!-- Generator: Adobe Illustrator 24.3.0, SVG Export Plug-In . SVG Version: 6.00 Build 0)  -->
<svg version="1.1" id="Calque_1" xmlns="http://www.w3.org/2000/svg" xmlns:xlink="http://www.w3.org/1999/xlink" x="0px" y="0px"
	 viewBox="0 0 1000 1000" style="enable-background:new 0 0 1000 1000;" xml:space="preserve">
<g>
	<g>
		<g>
			<path d="M500,294.9c-64.6,0-117.2,52.6-117.2,117.2S435.4,529.3,500,529.3s117.2-52.6,117.2-117.2S564.6,294.9,500,294.9z"/>
		</g>
	</g>
	<g>
		<g>
			<path d="M970.7,412.1h-40.6c-11.2-54.8-33-107.2-63.9-154l27.4-27.4c11.4-11.4,11.4-30,0-41.4l-82.9-82.9
				c-11.4-11.4-30-11.4-41.4,0l-27.4,27.4c-46.7-30.9-99.2-52.7-154-63.9V29.3c0-16.2-13.1-29.3-29.3-29.3H441.4
				c-16.2,0-29.3,13.1-29.3,29.3v40.6c-54.8,11.2-107.2,33-154,63.9l-27.4-27.4c-11.4-11.4-30-11.4-41.4,0l-82.9,82.9
				c-11.4,11.4-11.4,30,0,41.4l27.4,27.4c-30.9,46.8-52.7,99.2-63.9,154H29.3C13.1,412.1,0,425.2,0,441.4v117.2
				c0,16.2,13.1,29.3,29.3,29.3h40.6c11.2,54.8,33,107.2,63.9,154l-27.4,27.4c-11.4,11.4-11.4,30,0,41.4l82.9,82.9
				c11.4,11.4,30,11.4,41.4,0l27.4-27.4c46.8,30.9,99.2,52.7,154,63.9v40.6c0,16.2,13.1,29.3,29.3,29.3h117.2
				c16.2,0,29.3-13.1,29.3-29.3v-40.6c54.8-11.2,107.2-33,154-63.9l27.4,27.4c11.4,11.4,30,11.4,41.4,0l82.9-82.9
				c11.4-11.4,11.4-30,0-41.4l-27.4-27.4c30.9-46.8,52.7-99.2,63.9-154h40.6c16.2,0,29.3-13.1,29.3-29.3V441.4
				C1000,425.2,986.9,412.1,970.7,412.1z M500,763.7c-148.1,0-263.7-122.2-263.7-263.7c0-145.6,118-263.7,263.7-263.7
				s263.7,118,263.7,263.7C763.7,641.7,647.9,763.7,500,763.7z"/>
		</g>
	</g>
	<g>
		<g>
			<path d="M500,529.3c-69.6,0-130.6,35.1-167.5,88.4c37.2,52.7,98.2,87.4,167.5,87.4s130.3-34.7,167.5-87.4
				C630.6,564.4,569.6,529.3,500,529.3z"/>
		</g>
	</g>
</g>
</svg>
