<?xml version="1.0" encoding="utf-8"?>
<!-- Generator: Adobe Illustrator 24.3.0, SVG Export Plug-In . SVG Version: 6.00 Build 0)  -->
<svg version="1.1" id="Calque_1" xmlns="http://www.w3.org/2000/svg" xmlns:xlink="http://www.w3.org/1999/xlink" x="0px" y="0px"
	 viewBox="0 0 1000 1000" style="enable-background:new 0 0 1000 1000;" xml:space="preserve">
<style type="text/css">
	.st0{fill-rule:evenodd;clip-rule:evenodd;}
</style>
<path class="st0" d="M353.6,130.2H298V74.6h55.6V130.2z M485.1,322.4h185V378h-185V322.4z M270.2,130.2h-55.6V74.6h55.6V130.2z
	 M485.1,600.4v-55.6h185v55.6H485.1z M981.1,489.2H159L18.9,444.9v60.7L159,582.5v144h822.1L981.1,489.2L981.1,489.2z M485.1,873.8
	v-55.6h185v55.6H485.1z M981.1,762.6H159L18.9,718.5v60.7L159,856.1V1000h822.1L981.1,762.6L981.1,762.6z M159,453.2h822.1V215.8
	H602.3l-2-3L877.9,60.6V0L531.5,109.6L471.1,19H159V453.2z"/>
</svg>
