<?xml version="1.0" encoding="utf-8"?>
<!-- Generator: Adobe Illustrator 24.3.0, SVG Export Plug-In . SVG Version: 6.00 Build 0)  -->
<svg version="1.1" id="Capa_1" xmlns="http://www.w3.org/2000/svg" xmlns:xlink="http://www.w3.org/1999/xlink" x="0px" y="0px"
	 viewBox="0 0 1000 1000" style="enable-background:new 0 0 1000 1000;" xml:space="preserve">
<g>
	<g>
		<path d="M886.4,783.4c-3.1-44-39.8-78.8-84.6-78.8c-46.9,0-84.9,38-84.9,84.9l0,0c0,46.9,38,84.9,84.9,84.9s84.9-38,84.9-84.9
			C886.7,787.5,886.5,785.5,886.4,783.4z M853.6,789.6c0,28.6-23.2,51.8-51.8,51.8S750,818.2,750,789.6l0,0
			c0-28.6,23.2-51.8,51.8-51.8C830.4,737.7,853.6,760.9,853.6,789.6C853.6,789.5,853.6,789.6,853.6,789.6z"/>
		<path d="M150.9,704.7c-46.9,0-84.9,38-84.9,84.9l0,0c0,46.9,38,84.9,84.9,84.9s84.9-38,84.9-84.9l0,0
			C235.8,742.7,197.8,704.7,150.9,704.7z M202.7,789.6c0,28.6-23.2,51.8-51.8,51.8s-51.8-23.2-51.8-51.8l0,0
			c0-28.6,23.2-51.8,51.8-51.8C179.5,737.7,202.7,760.9,202.7,789.6C202.7,789.5,202.7,789.6,202.7,789.6z"/>
	</g>
	<g>
		<path d="M973.8,648.5l-54.5-395.4c-2.7-15.6-17.6-26.1-33.2-23.4l-7.7,1.3l-4.4-25.2c1.3-0.6,2.5-1.5,3.4-2.8l28.2-39.9l16.7-3
			c9.4-1.7,15.7-10.7,14-20.2c-1.7-9.4-10.7-15.7-20.2-14L771.3,152c-9.4,1.7-15.7,10.7-14,20.2c1.5,8.4,8.8,14.3,17.1,14.3
			c1,0,2.1-0.1,3.1-0.3l19.1-3.4l41.8,28.2c1,0.6,2,1,3.1,1.2l4.3,24.5l-8.7,1.5c-15.6,2.7-26.1,17.6-23.4,33.2l28.7,371.8
			c-0.2,0-0.4-0.1-0.6-0.1H684.2h-0.6l-26.9-210.7h0.5v-34.6c0-9.5-7.7-17.2-17.2-17.2h-80.5c-12.7-0.1-23.2-9.8-24.3-22.5
			l-14.6-187.3c-1.4-16.8-16.8-20.3-33.6-21h-0.1c-6.4-0.3-11.6,5.1-11.2,11.4l0.1,2h-235c-45.3,0-84.3,31.9-93.2,76.3l-32.8,163.2
			c-34.8,19.5-62.4,50.4-77.4,87.8C29.5,510.7,25,532.7,25,555.7v233.9h35.2c0-50,40.7-90.7,90.7-90.7s90.7,40.7,90.7,90.7h5.6
			c14.1,0,25.6-11.5,25.6-25.6v-0.8c0-3.2,0.4-6.3,0.9-9.4h49.2L301.6,773h-1c-11.8,0-21.4,9.6-21.4,21.4v13.7h12.6l14.6,8.8h-14.6
			l-11.5,51.6h352.2L621,816.9h-9.5l9.5-8.8h12.6v-13.7c0-11.8-9.6-21.4-21.4-21.4h-1l-21.3-19.1h53.5c0.6,3,0.9,6.2,0.9,9.4v0.8
			c0,14.1,11.5,25.6,25.6,25.6h41.2c0-50,40.7-90.7,90.7-90.7c47.3,0,86.3,36.5,90.3,82.8C946.6,762.9,982,707.8,973.8,648.5z
			 M838.8,190.2l-17.7-11.9l22.1-4l0,0l0.1,0l1.6,10.2C841.9,185.3,839.7,187.5,838.8,190.2z M869.1,184.7c-0.2-0.3-0.5-0.5-0.7-0.7
			c-0.2-0.2-0.5-0.5-0.8-0.7c-0.5-0.4-1.1-0.8-1.7-1c-1.2-0.5-2.6-0.8-4-0.8l-1.6-10.3l21-3.8l0,0h0L869.1,184.7L869.1,184.7
			L869.1,184.7z"/>
		<path d="M869.1,184.7L869.1,184.7c-0.2-0.3-0.5-0.5-0.7-0.7C868.6,184.2,868.9,184.4,869.1,184.7z"/>
		<path d="M860.3,171.2l21-3.8l0,0L860.3,171.2l1.6,10.3c1.4-0.1,2.8,0.2,4,0.8c-1.2-0.5-2.6-0.8-4-0.8L860.3,171.2z"/>
		<path d="M867.6,183.3c-0.5-0.4-1.1-0.8-1.7-1C866.5,182.5,867.1,182.9,867.6,183.3z"/>
		<polygon points="843.2,174.3 821.1,178.3 843.2,174.3 		"/>
		<path d="M843.2,174.3l1.6,10.2c-2.9,0.8-5.1,2.9-6,5.7c0.9-2.7,3.1-4.9,6.1-5.7L843.2,174.3L843.2,174.3z"/>
		<rect x="875.2" y="165.5" width="0" height="21.2"/>
	</g>
</g>
</svg>
