<?xml version="1.0" encoding="utf-8"?>
<!-- Generator: Adobe Illustrator 24.3.0, SVG Export Plug-In . SVG Version: 6.00 Build 0)  -->
<svg version="1.1" id="Capa_1" xmlns="http://www.w3.org/2000/svg" xmlns:xlink="http://www.w3.org/1999/xlink" x="0px" y="0px"
	 viewBox="0 0 1000 1000" style="enable-background:new 0 0 1000 1000;" xml:space="preserve">
<g>
	<g>
		<path d="M969.8,591.6h-3.6V475.4l-39.7-111.1c-4.1-11.4-14.9-19-27-19H703.9V558h-13.4V298H41.8v259.9H25v39.3v37.6h56.3
			c4.7-32.7,32.9-57.9,66.8-57.9c34,0,62.1,25.2,66.8,57.9h8.2c4.7-32.7,32.9-57.9,66.8-57.9s62.1,25.2,66.8,57.9h197.5v9.6h158.5
			v-9.6h13c4.7-32.7,32.9-57.9,66.8-57.9s62.1,25.2,66.8,57.9h7.5v10.7h18.6v10.1H950c13.8,0,25-11.2,25-25v-33.8
			C975,593.9,972.7,591.6,969.8,591.6z M782.4,474.7h-64v-87.1h64V474.7z M822.6,474.7v-87.1H913l24,87.1H822.6z"/>
	</g>
	<g>
		<path d="M148.1,586.9c-31.8,0-57.5,25.7-57.5,57.5c0,31.8,25.7,57.5,57.5,57.5c31.8,0,57.5-25.7,57.5-57.5
			C205.6,612.6,179.9,586.9,148.1,586.9z M148.1,666.9c-12.4,0-22.5-10.1-22.5-22.5c0-12.4,10.1-22.5,22.5-22.5s22.5,10.1,22.5,22.5
			C170.6,656.8,160.5,666.9,148.1,666.9z"/>
	</g>
	<g>
		<path d="M290,586.9c-31.8,0-57.5,25.7-57.5,57.5c0,31.8,25.7,57.5,57.5,57.5c31.8,0,57.5-25.7,57.5-57.5
			C347.5,612.6,321.8,586.9,290,586.9z M290,666.9c-12.4,0-22.5-10.1-22.5-22.5c0-12.4,10.1-22.5,22.5-22.5s22.5,10.1,22.5,22.5
			C312.5,656.8,302.4,666.9,290,666.9z"/>
	</g>
	<g>
		<path d="M792.7,586.9c-31.8,0-57.5,25.7-57.5,57.5c0,31.8,25.7,57.5,57.5,57.5c31.8,0,57.5-25.7,57.5-57.5
			C850.2,612.6,824.5,586.9,792.7,586.9z M792.7,666.9c-12.4,0-22.5-10.1-22.5-22.5c0-12.4,10.1-22.5,22.5-22.5s22.5,10.1,22.5,22.5
			C815.2,656.8,805.1,666.9,792.7,666.9z"/>
	</g>
</g>
</svg>
