<?xml version="1.0" encoding="utf-8"?>
<!-- Generator: Adobe Illustrator 24.3.0, SVG Export Plug-In . SVG Version: 6.00 Build 0)  -->
<svg version="1.1" id="Capa_1" xmlns="http://www.w3.org/2000/svg" xmlns:xlink="http://www.w3.org/1999/xlink" x="0px" y="0px"
	 viewBox="0 0 1000 1000" style="enable-background:new 0 0 1000 1000;" xml:space="preserve">
<path d="M648.7,0H351.3v285.5h0c-0.1,3.5,1.1,7.2,4.1,10.1L462.8,403v119.7c0,4.5,2.2,8.8,5.9,11.4l46.5,32.5
	c9.2,6.4,21.9-0.1,21.9-11.4V403l107.4-107.4c2.9-2.9,4.2-6.6,4.1-10.1h0V0z"/>
<path d="M848.9,1000h63.2l-19.7-19.7V811.8V487.2c0-6.6-5.4-11.9-11.9-11.9c-6.6,0-11.9,5.4-11.9,11.9v164.7H638.7V487.2
	c0-6.6-5.4-11.9-11.9-11.9c-6.6,0-11.9,5.4-11.9,11.9v164.7H385.1V487.2c0-6.6-5.4-11.9-11.9-11.9c-6.6,0-11.9,5.4-11.9,11.9v164.7
	H131.4V487.2c0-6.6-5.4-11.9-11.9-11.9c-6.6,0-11.9,5.4-11.9,11.9v324.6v168.5L87.9,1000h63.2l-19.7-19.7V823.7h229.8v156.6
	l-19.7,19.7h0h63.2l-19.7-19.7V823.7h229.8v156.6l-19.7,19.7h63.2l-19.7-19.7V823.7h229.8v156.6L848.9,1000z M361.3,799.9H131.4
	V675.7h229.8V799.9z M614.9,799.9H385.1V675.7h229.8V799.9z M638.7,799.9V675.7h229.8v124.2H638.7z"/>
</svg>
