<?xml version="1.0" encoding="utf-8"?>
<!-- Generator: Adobe Illustrator 24.3.0, SVG Export Plug-In . SVG Version: 6.00 Build 0)  -->
<svg version="1.1" id="Capa_1" xmlns="http://www.w3.org/2000/svg" xmlns:xlink="http://www.w3.org/1999/xlink" x="0px" y="0px"
	 viewBox="0 0 1000 1000" style="enable-background:new 0 0 1000 1000;" xml:space="preserve">
<style type="text/css">
	.st0{fill:none;}
</style>
<g>
	<circle class="st0" cx="688.3" cy="769.4" r="57.3"/>
	
		<ellipse transform="matrix(0.7071 -0.7071 0.7071 0.7071 -483.4583 371.4948)" class="st0" cx="206.7" cy="769.3" rx="57.3" ry="57.3"/>
	<path d="M688.3,670.1c-54.6,0-99.2,44.6-99.2,99.2c0,54.6,44.6,99.2,99.2,99.2c54.6,0,99.2-44.6,99.2-99.2
		C787.6,714.7,742.9,670.1,688.3,670.1z M688.3,826.6c-31.7,0-57.3-25.7-57.3-57.3c0-31.5,25.5-57.3,57.3-57.3
		c31.7,0,57.3,25.7,57.3,57.3C745.6,801.1,719.9,826.6,688.3,826.6z"/>
	<path d="M206.7,670.1c-54.6,0-99.2,44.6-99.2,99.2c0,54.6,44.6,99.2,99.2,99.2s99.2-44.6,99.2-99.2
		C305.9,714.7,261.3,670.1,206.7,670.1z M206.7,826.6c-31.7,0-57.3-25.7-57.3-57.3c0-31.5,25.5-57.3,57.3-57.3s57.3,25.7,57.3,57.3
		C263.9,801.1,238.2,826.6,206.7,826.6z"/>
	<path d="M861,685.9v-4c0-5.5-4.4-10.2-10.2-10.2h-12.7v-22.4h32v-29.7h-80.7v-32.2h-42.3L474.6,485.8l271-101h43.6v-32.2h-22.8
		c0.3-0.7,0.6-1.4,0.6-2.2V142.1h58.5c2.9,0,5.3-2.3,5.3-5.3l0,0c0-2.9-2.3-5.3-5.3-5.3h-756c-2.9,0-5.3,2.3-5.3,5.3l0,0
		c0,2.9,2.3,5.3,5.3,5.3H128v210.6h-22.2v32.2H158l271,101L156.4,587.5h-50.7v32.2H25v29.7h31.7v86.1H104h0.2
		c14.2-43.1,54.8-74.1,102.5-74.1c47.9,0,88.3,31.1,102.5,74.1h276.3c14.2-43.1,54.8-74.1,102.5-74.1c47.7,0,88.3,31.1,102.5,74.1
		H838v-8.4h12.7c5.5,0,10.2-4.4,10.2-10.2v-5.8H975V686H861V685.9z M450.1,142.1h306.4v100H450.1V142.1z M450.1,252.6h306.4v97.8
		c0,0.8,0.2,1.6,0.6,2.2h-307V252.6z M138.5,142.1h301v100h-301V142.1z M138.5,352.7v-100h301v100H138.5z M203.6,384.8h496.8
		l-248.4,92.6L203.6,384.8z M202.2,587.3l249.7-93l249.7,93H202.2z"/>
</g>
</svg>
