<?xml version="1.0" encoding="utf-8"?>
<!-- Generator: Adobe Illustrator 24.3.0, SVG Export Plug-In . SVG Version: 6.00 Build 0)  -->
<svg version="1.1" id="Capa_1" xmlns="http://www.w3.org/2000/svg" xmlns:xlink="http://www.w3.org/1999/xlink" x="0px" y="0px"
	 viewBox="0 0 1000 1000" style="enable-background:new 0 0 1000 1000;" xml:space="preserve">
<style type="text/css">
	.st0{fill:none;}
</style>
<g>
	<path class="st0" d="M359,317.1c-4.4,4-9,8-13.6,12c0,0,0,0,0,0c-32.2,28.3-69.3,59.1-107.8,87.6c-4.8,3.5-9.5,7-14.2,10.5
		c-0.2-0.5-0.5-1-0.9-1.4l-2-1.9l124.3-134.2C348.9,299.3,353.7,308.4,359,317.1z"/>
	<path class="st0" d="M823.6,596.1l0.8-1.4l95,54.1l-51,46.9L746.8,554.9l73.8,42C821.7,597.5,823,597.1,823.6,596.1z"/>
	<path d="M115.3,800.7c0,0,0.1,0,0.1,0c0.6,0,1.3-0.1,1.9-0.1c0.1,0,0.2,0,0.3,0c0.5,0,1.1-0.1,1.6-0.2c0.1,0,0.3,0,0.4,0
		c0.5-0.1,1-0.1,1.5-0.2c0.1,0,0.2,0,0.3-0.1c1.2-0.2,2.2-0.5,3.2-0.8c0.1,0,0.2-0.1,0.4-0.1c0.4-0.1,0.7-0.3,1-0.4
		c0.2-0.1,0.3-0.2,0.5-0.2c0.3-0.1,0.5-0.3,0.8-0.4c0.2-0.1,0.3-0.2,0.5-0.3c0.2-0.1,0.5-0.3,0.7-0.5c0.1-0.1,0.3-0.2,0.4-0.3
		c0.2-0.2,0.4-0.3,0.6-0.5c0.1-0.1,0.2-0.2,0.3-0.3c0.2-0.2,0.4-0.4,0.5-0.6c0.1-0.1,0.2-0.2,0.2-0.3c0.2-0.3,0.4-0.7,0.6-1.1
		c0.5-1.1,1-2.3,1.6-3.4c0.2-0.3,0.3-0.7,0.5-1c0.4-0.9,0.8-1.7,1.2-2.6c0.2-0.3,0.3-0.7,0.5-1c1.1-2.4,2.3-4.9,3.6-7.4
		c0.1-0.3,0.3-0.6,0.4-0.9c0.5-1,1-2.1,1.6-3.2c0.1-0.3,0.3-0.5,0.4-0.8c1.3-2.7,2.7-5.4,4.1-8.3c0.1-0.2,0.2-0.4,0.3-0.6
		c0.7-1.3,1.3-2.6,2-3.9c0.1-0.1,0.1-0.3,0.2-0.4c44.3-86,130.5-224.7,211.8-334.1c5.4-7.3,10.8-14.4,16.2-21.4
		c0.1-0.2,0.3-0.3,0.4-0.5c8.9-11.6,17.6-22.7,26.2-33.3c5.6,5.4,11.4,10.5,17.4,15.4L829,734.6c-4,8.6-3.7,20.1,1.5,34.2
		c3.6,9.9,9.2,19.7,17.6,25.8c8.5,6,19.6,8,30.1,8.2c21.4,0.3,34.6-7,39.3-20c0,0,58-111.5,57.5-132.6c-0.5-21.2-15-25.3-23.8-23.1
		c-8.9,2.2-21,11.8-21,11.8l-98.9-56.3l0.8-1.4c0.6-1.1,0.2-2.4-0.8-3l-126.6-72.1L517,288.5c-17.1-20.8-37.1-38.9-59.5-53.6
		l-4.2-7.2c0,0-0.4,0.4-0.9,0.9c-0.1,0.1-0.3,0.3-0.4,0.4c-0.4,0.4-1,1-1.5,1.5c-18.3-11.2-38.1-20.2-59.1-26.6
		c-24.7-7.5-47.6-10.3-57.8,0c-9.1,9.1-7.7,28.4-1.9,49.9c0,0.1,0,0.1,0.1,0.2c0.3,1.2,0.7,2.4,1,3.6c0,0.2,0.1,0.3,0.1,0.5
		c0.4,1.2,0.7,2.4,1.1,3.6c0.3,1,0.6,2,1,3L202.8,407.7l-2-1.9c-1.5-1.4-3.9-1.3-5.3,0.2L72.9,538.3c-6.2,4.6-11.3,8.5-15.3,11.6
		c-5,3.9-6.1,10.8-3.1,16.5c39,72.2,2.5,147-28.3,190.9C14.7,774,82.8,801.8,115.3,800.7z M746.8,554.9l73.8,42
		c1.1,0.6,2.4,0.2,3-0.8l0.8-1.4l95,54.1l-51,46.9L746.8,554.9z M421.4,258.2c25.6-8.7,53.5,5,62.2,30.6c8.7,25.6-5,53.5-30.6,62.2
		c-25.6,8.7-53.5-5-62.2-30.6C382,294.7,395.7,266.9,421.4,258.2z M315.1,406.7c2.6-6.7,10.2-10,16.9-7.3c6.7,2.6,10,10.2,7.3,16.9
		c-2.6,6.7-10.2,10-16.9,7.3C315.8,420.9,312.5,413.4,315.1,406.7z M220.4,424l124.3-134.2c4.2,9.4,9,18.5,14.2,27.3
		c-4.4,4-9,8-13.6,12c0,0,0,0,0,0c-32.2,28.3-69.3,59.1-107.8,87.6c-4.8,3.5-9.5,7-14.2,10.5c-0.2-0.5-0.5-1-0.9-1.4L220.4,424z
		 M97,558.4c2.6-6.7,10.2-10,16.9-7.3c6.7,2.6,10,10.2,7.3,16.9c-2.6,6.7-10.2,10-16.9,7.3C97.6,572.7,94.3,565.1,97,558.4z
		 M53.7,757.7c2.6-6.7,10.2-10,16.9-7.3c6.7,2.6,10,10.2,7.3,16.9c-2.6,6.7-10.2,10-16.9,7.3C54.4,772,51.1,764.4,53.7,757.7z"/>
	<path d="M426.1,272.3c17.8-6.1,37.2,3.5,43.3,21.3c6.1,17.8-3.5,37.2-21.3,43.3c-17.8,6.1-37.2-3.5-43.3-21.3
		C398.8,297.7,408.3,278.3,426.1,272.3z"/>
</g>
</svg>
