<?xml version="1.0" encoding="utf-8"?>
<!-- Generator: Adobe Illustrator 24.3.0, SVG Export Plug-In . SVG Version: 6.00 Build 0)  -->
<svg version="1.1" id="Capa_1" xmlns="http://www.w3.org/2000/svg" xmlns:xlink="http://www.w3.org/1999/xlink" x="0px" y="0px"
	 viewBox="0 0 1000 1000" style="enable-background:new 0 0 1000 1000;" xml:space="preserve">
<style type="text/css">
	.st0{fill:none;}
</style>
<g>
	<g>
		<circle class="st0" cx="169.2" cy="829.6" r="39.4"/>
		<path d="M169.2,744.2c-47.6,0-85.6,38.4-85.6,85.6c0,47.1,38.4,85.6,85.6,85.6s85.6-38.4,85.6-85.6
			C254.7,782.6,216,744.2,169.2,744.2z M169.2,869c-21.6,0-39.4-17.6-39.4-39.4c0-21.8,17.6-39.4,39.4-39.4
			c21.8,0,39.4,17.6,39.4,39.4C208.6,851.4,191,869,169.2,869z"/>
		<g>
			<path class="st0" d="M181.8,633.8c0.5,3,0.5,6-0.2,8.9c11.1,5,22.9,11.1,35.2,18.3l0.8-2.2l52-115.4l5-1.2c0,0,8.8-0.9,22.9-1.1
				l25.3-50.1l-3.2-1.6l5.1-10.1L181.8,633.8z"/>
			<path class="st0" d="M281.6,601.2l-12,66.6l223.6,19.7c0,0,4.5-44.2-53.7-92.3C395,558.6,331,557.3,303,558.7L281.6,601.2z"/>
			<path class="st0" d="M627.5,150.4c-8.1-8.6-16.9-9.9-22.8-9.4c-8.5,0.7-16.6,5.3-21.2,12l-1.8-1.2l54.6,37.9
				C636.8,175,636.3,159.7,627.5,150.4z"/>
			<polygon class="st0" points="628.2,235.5 647.6,256.9 665.1,242.6 630.7,233.6 			"/>
			<polygon class="st0" points="948.2,304.8 948.2,300.9 913.4,300.9 913.4,303.1 867.7,305.1 867.7,307.5 865.8,307.5 865.8,330 
				949.7,330 949.7,307.5 948.2,307.5 			"/>
			<polygon class="st0" points="841.1,306.2 758.9,309.8 758.9,330 842.8,330 842.8,307.5 841.1,307.5 			"/>
			<path d="M974.8,307.5v-2.7h0.2v-4.1h0v-4h-0.2v-4.6h-6.1v-2.3v-2.7v-4.9v-2.7v-4.9v-2.7V267v-2.7v-4.9v-2.7v-4.9v-2.7v-4.9v-2.7
				v-4.9v-2.7V229v-2.7v-4.9v-2.7v-4.9v-2.7v-4.9v-2.7v-4.9v-2.7v-4.9v-2.7v-4.9v-2.7v-4.9V173v-4.9v-2.7v-4.9v-2.7v-4.9v-2.7v-4.9
				v-2.7v-4.9V135v-4.9v-2.7v-4.9v-2.7v-4.9v-2.7v-4.9v-2.7v-4.9v-2.7V92v-2.7v-2.2c0-1.4-1.1-2.4-2.4-2.4H746.9
				c-1.4,0-2.4,1.1-2.4,2.4v2.2V92v4.9v2.7v4.9v2.7v4.9v2.7v4.9v2.7v4.9v2.7v4.9v2.7v4.9v2.7v4.9v2.7v4.9v2.7v4.9v2.7v4.9v2.7v4.9
				v2.7v4.9v2.7v4.9v2.7v4.9v2.7v4.9v2.7v4.9v2.7v4.9v2.7v4.9v2.7v4.9v2.7v4.9v2.7v4.9v2.7v4.9v2.7v4.9v2.7v4.9v2.7v4.9v2.7v2.3H734
				v7.1h-4.1c-2.3,0-4.1-1.8-4.1-4.1v-2.6h4.9v-98.2h-5.5v-48.9h-7.6v48.9h-8.5v3.1l-6.7,0.3c-2.5,0.1-4.6,1.9-5,4.4l-4.6,26.7
				l-52.4-36.4c0.7-16.2,0.7-33.8-9.8-45c-7.2-7.7-16.5-11.5-26.2-10.7c-9.7,0.8-19.1,6.1-24.3,13.8l-30.2-20.9
				c-2.2-1.5-5.1-1.4-7.1,0.3L524,145.8c-2.4,2-2.8,5.5-0.9,8l11.5,15.1l-21,22.7l-1.7-1.6l-18.4,19.9l1.7,1.6l-25.9,28.1l-9.1-8.4
				L130.8,588c-6.1-0.1-11.9,2.3-15.9,6.8l-23.7,26c-21.7,0.3-35.2,6.2-38.5,12.3c-5.6,10.3-2.4,99.9,0.1,152.6H29.8
				c-2.7,0-4.8,2.2-4.8,4.8v23.7v10.1v0.2c0,2.7,2.2,4.8,4.8,4.8h29.5l17.1,19.2h1.1c-1.2-6-1.9-12.2-1.9-18.6
				c0-51.5,41.9-93.5,93.5-93.5c51.5,0,93.5,41.9,93.5,93.5c0,6.4-0.6,12.6-1.9,18.6h278.6c-1.2-6-1.9-12.2-1.9-18.6
				c0-51.5,41.9-93.5,93.5-93.5c25.2,0,48.1,10.1,64.9,26.4v-31.3c0-2.6-2.1-4.7-4.6-4.7l-45.7-0.5c-1.8-3.8-5.1-6.8-9.2-8.1
				l-43.7-13.7c-7.2-2.3-14.8-3.4-22.4-3.4h-55.1l-0.2-1.1l-1.3-0.2c0.5-12.5-1.1-57.6-44.5-104.4c-41-44.2-113.4-53.1-157.3-54
				l22.4-44.4l3.5,1.8l37.1-73.8l135.8-147.1l-5.7-5.3l25.9-28.1l2.3,2.1l18.4-19.9l-2.3-2.1l15.2-16.5l6.1,8c1,1.4,2.5,2.4,4.2,2.8
				l30.5,8l15.2,14.6l3-2.3l20,22.4c-1.2,3.3,0.9,7.4,5,7.7l36.9,2.9l-0.5,2.8c-0.5,2.7,1.2,5.3,3.9,6l20.3,5.4v6.1h4.9v9.2
				c0,5.5,4.6,9.9,10.1,9.7l11.9-0.5v9.5v9.7H734v8.6h240.8v-0.1h0.1v-4.2h-0.1V330h-2.1v-22.5H974.8z M439.4,595.2
				c58.3,48,53.7,92.3,53.7,92.3l-223.6-19.7l12-66.6l21.4-42.5C331,557.3,395,558.6,439.4,595.2z M322.7,491l-25.3,50.1
				c-14.1,0.2-22.9,1.1-22.9,1.1l-5,1.2l-52,115.4l-0.8,2.2c-12.3-7.2-24-13.3-35.2-18.3c0.7-2.9,0.8-5.9,0.2-8.9l142.8-154.6
				l-5.1,10.1L322.7,491z M581.7,151.8l1.8,1.2c4.6-6.7,12.7-11.3,21.2-12c6-0.5,14.8,0.8,22.8,9.4c8.8,9.4,9.3,24.6,8.7,39.2
				L581.7,151.8z M647.6,256.9l-19.4-21.5l2.5-1.9l34.4,9.1L647.6,256.9z M842.8,330h-83.9v-20.2l82.2-3.5v1.2h1.7V330z M949.7,330
				h-83.9v-22.5h1.9v-2.4l45.7-2v-2.2h34.8v3.8v2.7h1.5V330z"/>
		</g>
		<path d="M631,744.2c-47.6,0-85.6,38.4-85.6,85.6c0,47.1,38.4,85.6,85.6,85.6c47.1,0,85.6-38.4,85.6-85.6
			C716.5,782.6,677.9,744.2,631,744.2z M631,869c-21.6,0-39.4-17.6-39.4-39.4c0-21.8,17.6-39.4,39.4-39.4s39.4,17.6,39.4,39.4
			C670.4,851.4,652.8,869,631,869z"/>
	</g>
</g>
</svg>
