<?xml version="1.0" encoding="utf-8"?>
<!-- Generator: Adobe Illustrator 25.2.3, SVG Export Plug-In . SVG Version: 6.00 Build 0)  -->
<svg version="1.1" id="Calque_1" focusable="false" xmlns="http://www.w3.org/2000/svg" xmlns:xlink="http://www.w3.org/1999/xlink"
	 x="0px" y="0px" viewBox="0 0 1000 1000" style="enable-background:new 0 0 1000 1000;" xml:space="preserve">
<path d="M500,25C237.6,25,25,237.6,25,500s212.6,475,475,475s475-212.6,475-475S762.4,25,500,25z M883,500
	c0,43.1-7.5,84.6-20.7,123.3h-38.9c-8.3,0-16.1-3.2-21.8-9.2l-61.3-62.4c-8.6-8.8-8.6-23.2,0.2-32l23.9-23.9v-16.6
	c0-5.7-2.3-11.3-6.4-15.3l-18-18c-4-4-9.6-6.4-15.3-6.4h-30.7c-11.9,0-21.7-9.8-21.7-21.7c0-5.7,2.3-11.3,6.4-15.3l18.1-18.1
	c4-4,9.6-6.4,15.3-6.4h61.3c11.9,0,21.7-9.8,21.7-21.7v-18c0-11.9-9.8-21.7-21.7-21.7h-70.3c-16.8,0-30.7,13.8-30.7,30.7v8.6
	c0,13.2-8.5,24.9-20.9,29.1l-60.3,20.3c-6.4,2.1-10.5,7.9-10.5,14.5v4.2c0,8.5-6.9,15.3-15.3,15.3h-30.7c-8.5,0-15.3-6.9-15.3-15.3
	c0-8.5-6.9-15.3-15.3-15.3h-6c-5.7,0-11.1,3.2-13.8,8.5l-18.1,35.8c-5.1,10.4-15.7,16.8-27.4,16.8h-42.4
	c-16.8,0-30.7-13.8-30.7-30.7v-48.5c0-8.1,3.2-15.9,9-21.7l38.5-38.5c8.8-8.8,13.8-20.9,13.8-33.5c0-6.6,4.2-12.4,10.5-14.5
	l76.6-25.5c3.2-1.1,6.2-2.8,8.5-5.1l51.3-51.3c4-4,6.4-9.6,6.4-15.3c0-11.9-9.8-21.7-21.7-21.7h-39.6l-30.7,30.7v15.3
	c0,8.5-6.9,15.3-15.3,15.3h-30.7c-8.5,0-15.3-6.9-15.3-15.3v-38.4c0-4.8,2.3-9.4,6.2-12.3l55.4-41.6c3.6-0.2,7.3-0.6,10.9-0.6
	C711.3,117,883,288.7,883,500z M274.2,295.3c0-5.7,2.3-11.3,6.4-15.3l48.6-48.6c4-4,9.6-6.4,15.3-6.4c11.9,0,21.7,9.8,21.7,21.7
	v30.7c0,5.7-2.3,11.3-6.4,15.3l-18.1,18c-4,4-9.6,6.4-15.3,6.4h-30.7C284,316.9,274.2,307.1,274.2,295.3z M519.4,882.1v-13.6
	c0-16.8-13.8-30.7-30.7-30.7H450c-20.7,0-51.1-10.2-67.8-22.6l-42.6-32c-22-16.4-34.9-42.4-34.9-69.7v-45.8
	c0-30.7,16.1-59,42.4-74.7l82.2-49.2c13.6-8.1,29.1-12.4,44.8-12.4h59.8c20.9,0,40.9,7.5,56.7,20.9l82.7,71.1h35.1
	c16.2,0,31.8,6.6,43.3,18l33.2,33.2c6.6,6.6,15.5,10.2,24.7,10.2h25.6C773.1,797.4,655.5,875.2,519.4,882.1L519.4,882.1z"/>
</svg>
