<?xml version="1.0" encoding="utf-8"?>
<!-- Generator: Adobe Illustrator 26.0.2, SVG Export Plug-In . SVG Version: 6.00 Build 0)  -->
<svg version="1.1" id="Calque_1" xmlns="http://www.w3.org/2000/svg" xmlns:xlink="http://www.w3.org/1999/xlink" x="0px" y="0px"
	 viewBox="0 0 1000 1000" style="enable-background:new 0 0 1000 1000;" xml:space="preserve">
<path d="M214.4,802.4c0-9.2,3.4-16.8,9.9-22.9c5.7-6.1,13.3-8.8,22.5-8.8h342.6c9.1,0,17.1,3.1,23.2,9.1c6.5,6.1,9.5,13.7,9.5,22.9
	c0,9.1-3.1,16.8-9.5,23.2c-6.5,6.5-14.1,9.5-23.2,9.5H246.8c-8.7,0-16.4-3-22.9-9.5C217.4,819.1,214.4,811.5,214.4,802.4z
	 M170.6,479.2c0,3.4,2.3,5.3,6.5,5.3h54.5c3.4,0,6.5-1.9,8.8-5.3c8.7-20.6,21.7-37.7,39.6-51.4c17.9-13.7,37.7-21.3,60.2-22.9
	l20.6-2.7c4.2,0,6.5-2.3,6.5-6.9l2.6-19.8c4.2-41.5,22.1-75.8,53-103.6c31.3-27.8,67.5-41.5,109.4-41.5c41.5,0,77.4,13.7,107.8,40.8
	c30.5,27.4,48.4,61.7,53.7,102.9l2.7,22.5c0,4.2,2.3,6.1,6.9,6.1h61c34.7,0,64,12.2,88.4,36.6c24.4,24.4,36.6,53.7,36.6,88.4
	c0,33.5-12.6,62.5-37,86.9c-24.8,24.8-54.1,36.9-88,36.9H501.7c-4.6,0-6.9,2.3-6.9,6.5V709c0,4.6,2.3,6.9,6.9,6.9h262.5
	c25.9,0,50.3-5,73.9-14.9c23.6-9.9,43.4-23.2,60.2-40s30.1-37,40-60.2c9.9-23.2,14.9-47.6,14.9-73.2c0-34.3-8.4-65.9-25.1-94.9
	s-39.6-51.8-68.6-68.6c-28.9-16.8-61-25.1-95.2-25.1h-11.8c-12.6-51.1-39.2-93-80-125.7c-41.2-32.4-87.7-48.8-140.2-48.8
	c-54.1,0-101.8,16.8-143.3,50.7c-41.6,33.5-67.8,76.6-79.3,129.2c-32.8,7.2-61.7,22.9-86.5,46.1c-24.8,23.3-41.9,51.4-51.8,84.6v0.8
	C171,477.3,170.6,478.1,170.6,479.2z M146.9,568c0-9.1,3.4-16.8,10.3-22.9c5.3-5.7,12.9-8.8,22.5-8.8h342.9c8.8,0,16,3.1,22.1,8.8
	s8.7,13.3,8.7,22.5c0,9.2-3,16.8-8.7,23.3c-5.7,6.5-13.3,9.5-22.1,9.5H179.7c-8.7,0-16.4-3.4-22.9-9.9
	C150.4,584,146.9,576.8,146.9,568z M46.8,684.6c0-9.1,3-17.1,9.5-23.2c6.5-6.1,14.5-9.1,24-9.1h341.8c9.1,0,16.4,3,22.5,9.1
	c6.1,6.1,8.8,13.7,8.8,23.2c0,9.2-3,16.8-9.1,22.9c-6.1,6.1-13.3,9.1-22.5,9.1H80.3c-9.5,0-17.5-3.1-24-9.1
	C49.8,701.4,46.8,693.4,46.8,684.6z"/>
</svg>
