<?xml version="1.0" encoding="utf-8"?>
<!-- Generator: Adobe Illustrator 24.3.0, SVG Export Plug-In . SVG Version: 6.00 Build 0)  -->
<svg version="1.1" id="Capa_1" xmlns="http://www.w3.org/2000/svg" xmlns:xlink="http://www.w3.org/1999/xlink" x="0px" y="0px"
	 viewBox="0 0 1000 1000" style="enable-background:new 0 0 1000 1000;" xml:space="preserve">
<style type="text/css">
	.st0{fill:none;}
	.st1{fill:#FFFFFF;}
</style>
<g>
	<g>
		<polygon class="st0" points="576.9,373.6 573,369.8 569.2,373.6 573,376.6 		"/>
		<polygon class="st0" points="609.5,402.2 638.1,373.8 623,361.7 596,361.7 580.9,373.8 		"/>
		<polygon class="st0" points="644.1,367.9 637.9,361.7 627.3,361.7 640,371.9 		"/>
		<polygon class="st0" points="538.5,404.1 538.6,404.2 570.9,378.4 567.3,375.5 		"/>
		<polygon class="st0" points="579,371.9 591.7,361.7 581.1,361.7 574.9,367.9 		"/>
		<polygon class="st0" points="607.6,404.1 578.8,375.5 575.2,378.4 607.5,404.2 		"/>
		<polygon class="st0" points="611.4,404.1 611.5,404.2 643.8,378.4 640.2,375.5 		"/>
		<polygon class="st0" points="577.3,361.7 568.7,361.7 573,366 		"/>
		<polygon class="st0" points="650.3,361.7 641.7,361.7 646,366 		"/>
		<polygon class="st0" points="649.8,373.6 646,369.8 642.1,373.6 646,376.6 		"/>
		<polygon class="st0" points="680.7,404.2 651.7,375.5 648.1,378.4 680.5,404.3 		"/>
		<polygon class="st0" points="651.9,371.9 664.6,361.7 654.1,361.7 647.9,367.9 		"/>
		<polygon class="st0" points="465.6,404.1 465.7,404.2 498,378.4 494.4,375.5 		"/>
		<polygon class="st0" points="504.4,361.7 495.8,361.7 500.1,366 		"/>
		<polygon class="st0" points="498.2,367.9 492,361.7 481.5,361.7 494.2,371.9 		"/>
		<polygon class="st0" points="431,373.6 427.2,369.8 423.4,373.6 427.2,376.6 		"/>
		<polygon class="st0" points="463.6,402.2 492.3,373.8 477.2,361.7 450.1,361.7 435,373.8 		"/>
		<polygon class="st0" points="461.7,404.1 432.9,375.5 429.3,378.4 461.6,404.2 		"/>
		<polygon class="st0" points="571.1,367.9 564.9,361.7 554.4,361.7 567.1,371.9 		"/>
		<polygon class="st0" points="392.6,404.1 392.7,404.2 425,378.4 421.4,375.5 		"/>
		<polygon class="st0" points="506,371.9 518.7,361.7 508.2,361.7 502,367.9 		"/>
		<polygon class="st0" points="503.9,373.6 500.1,369.8 496.3,373.6 500.1,376.6 		"/>
		<polygon class="st0" points="536.6,402.2 565.2,373.8 550.1,361.7 523,361.7 508,373.8 		"/>
		<polygon class="st0" points="534.7,404.1 505.9,375.5 502.3,378.4 534.6,404.2 		"/>
		<polygon class="st0" points="682.6,402.3 711.5,374 696,361.7 668.9,361.7 653.8,373.8 		"/>
		<polygon class="st0" points="131.6,424.9 132.5,424.9 132.5,447 131.6,447 131.6,461.7 154.4,461.7 131.6,414.9 		"/>
		<rect x="114.8" y="465.2" class="st0" width="7.8" height="9.5"/>
		<polygon class="st0" points="122.6,447 121.7,447 121.7,424.9 122.6,424.9 122.6,414.9 99.8,461.7 122.6,461.7 		"/>
		<polygon class="st0" points="131.6,592.2 122.6,592.2 122.6,522.1 114.8,522.1 114.8,592.3 139.4,592.3 139.4,522.1 131.6,522.1 
					"/>
		<rect x="131.6" y="465.2" class="st0" width="7.8" height="9.5"/>
		<polygon class="st0" points="433.1,371.9 445.8,361.7 435.3,361.7 429.1,367.9 		"/>
		<polygon class="st0" points="812.7,398 821.4,394 817.7,392.9 811.9,396.6 		"/>
		<polygon class="st0" points="720.6,365.1 716.8,364 719.2,366.5 		"/>
		<polygon class="st0" points="724.5,375.6 721.2,378.2 748,399.4 		"/>
		<polygon class="st0" points="684.7,404 716.9,378.2 713.7,375.7 		"/>
		<polygon class="st0" points="722.6,373.7 719.2,370.3 715.6,373.8 719.1,376.5 		"/>
		<polygon class="st0" points="729.9,367.8 723.6,366 721.1,368.4 724.7,372 		"/>
		<polygon class="st0" points="717.3,368.4 711.5,362.5 708.7,361.7 700.3,361.7 713.5,372.1 		"/>
		<polygon class="st0" points="814.3,391.9 807.9,390.1 810.5,394.3 		"/>
		<polygon class="st0" points="810.2,399.2 810.3,399.1 809.6,398.1 809.3,398.3 		"/>
		<polygon class="st0" points="808.2,395.8 804.1,389 797.7,387.2 807.3,396.4 		"/>
		<polygon class="st0" points="752.6,400.2 774.4,380.5 769.8,379.2 752.2,399.9 		"/>
		<polygon class="st0" points="801.7,403.1 807.6,400.4 806.9,399.8 		"/>
		<polygon class="st0" points="750.4,397.9 766.9,378.4 733.1,368.7 726.6,373.9 		"/>
		<polygon class="st0" points="500.1,380.1 467.6,406.1 480.6,419.1 519.6,419.1 532.6,406.1 		"/>
		<polygon class="st0" points="451.4,419.1 475.9,419.1 463.6,409.3 		"/>
		<polygon class="st0" points="524.3,419.1 548.8,419.1 536.6,409.3 		"/>
		<polygon class="st0" points="597.3,419.1 621.7,419.1 609.5,409.3 		"/>
		<polygon class="st0" points="573,380.1 540.5,406.1 553.5,419.1 592.5,419.1 605.6,406.1 		"/>
		<polygon class="st0" points="646,380.1 613.4,406.1 626.5,419.1 665.5,419.1 678.6,406.2 		"/>
		<polygon class="st0" points="670.2,419.1 694.7,419.1 682.4,409.3 		"/>
		<polygon class="st0" points="427.2,380.1 394.7,406.1 407.7,419.1 446.7,419.1 459.7,406.1 		"/>
		<polygon class="st0" points="305.6,419.1 330,419.1 317.8,409.3 		"/>
		<polygon class="st0" points="281.2,379.9 253.3,402 265.4,416.2 265,416.6 291.3,419.1 300.8,419.1 313.9,406.1 		"/>
		<polygon class="st0" points="354.3,380.1 321.6,406.2 334.7,419.1 373.8,419.1 386.8,406.1 		"/>
		<polygon class="st0" points="746.9,402 719.1,379.9 686.4,406.1 699.4,419.1 708.7,419.1 735.2,416.6 734.9,416.2 		"/>
		<polygon class="st0" points="378.5,419.1 402.9,419.1 390.7,409.3 		"/>
		<polygon class="st0" points="877.4,592.2 868.4,592.2 868.4,522.1 860.6,522.1 860.6,592.3 885.2,592.3 885.2,522.1 877.4,522.1 
					"/>
		<rect x="877.4" y="465.2" class="st0" width="7.8" height="9.5"/>
		<polygon class="st0" points="237.9,414.1 261.4,416.3 249.2,405.2 		"/>
		<polygon class="st0" points="738.8,416.3 762.3,414.1 751,405.2 		"/>
		<path class="st0" d="M814.1,400.3l4,6.6c0.3,0.6,0.2,1.3-0.3,1.7c-0.2,0.2-0.5,0.3-0.8,0.3c-0.3,0-0.7-0.1-0.9-0.4l-6.4-6.2
			l-19.7,9.2l70.3-6.5l-34.9-10L814.1,400.3z"/>
		<path class="st0" d="M792.3,385.6l-14.8-4.2l-22.9,20.7l10.9,11l-0.6,0.7l18-1.7c0.1-0.1,0.1-0.3,0.3-0.4l21.9-13.9L792.3,385.6z"
			/>
		<polygon class="st0" points="877.4,414.9 877.4,424.9 878.3,424.9 878.3,447 877.4,447 877.4,461.7 900.2,461.7 		"/>
		<polygon class="st0" points="868.4,447 867.5,447 867.5,424.9 868.4,424.9 868.4,414.9 845.6,461.7 868.4,461.7 		"/>
		<rect x="860.6" y="465.2" class="st0" width="7.8" height="9.5"/>
		<path class="st0" d="M184.2,408.5c-0.3,0.3-0.6,0.4-0.9,0.4c-0.3,0-0.6-0.1-0.8-0.3c-0.5-0.4-0.7-1.2-0.3-1.7l4-6.6l-11.3-5.3
			l-35,10l70.6,6.5l-19.7-9.2L184.2,408.5z"/>
		<polygon class="st0" points="352.4,367.9 346.2,361.7 335.6,361.7 348.3,371.9 		"/>
		<polygon class="st0" points="317.7,402.3 346.4,373.8 331.3,361.7 304.2,361.7 288.7,374 		"/>
		<polygon class="st0" points="358.6,361.7 350,361.7 354.3,366 		"/>
		<polygon class="st0" points="284.6,373.8 281,370.3 277.6,373.7 281.2,376.5 		"/>
		<polygon class="st0" points="252.2,399.4 279,378.2 275.7,375.6 		"/>
		<polygon class="st0" points="360.2,371.9 372.9,361.7 362.4,361.7 356.2,367.9 		"/>
		<polygon class="st0" points="390.7,402.2 419.3,373.8 404.3,361.7 377.2,361.7 362.1,373.8 		"/>
		<polygon class="st0" points="388.8,404.1 360,375.5 356.4,378.4 388.7,404.2 		"/>
		<polygon class="st0" points="425.3,367.9 419.1,361.7 408.5,361.7 421.2,371.9 		"/>
		<polygon class="st0" points="286.6,375.7 283.3,378.2 315.5,404 		"/>
		<polygon class="st0" points="319.6,404.2 319.7,404.3 352.1,378.4 348.5,375.5 		"/>
		<polygon class="st0" points="358.1,373.6 354.3,369.8 350.4,373.6 354.3,376.6 		"/>
		<polygon class="st0" points="188.3,396.6 182.4,392.9 178.7,393.9 187.5,398 		"/>
		<polygon class="st0" points="193,396.4 202.6,387.1 196.1,388.9 192,395.8 		"/>
		<polygon class="st0" points="431.5,361.7 422.9,361.7 427.2,366 		"/>
		<polygon class="st0" points="198.5,403.1 193.3,399.8 192.7,400.4 		"/>
		<polygon class="st0" points="192.3,390 185.9,391.9 189.7,394.3 		"/>
		<polygon class="st0" points="190.1,399.2 191,398.3 190.6,398.1 190,399.1 		"/>
		<path class="st0" d="M245.7,402.1l-23-20.8l-14.7,4.2l-12.8,12.3l21.9,13.9c0.2,0.1,0.2,0.3,0.3,0.4l18,1.7l-0.7-0.7L245.7,402.1z
			"/>
		<polygon class="st0" points="283.5,363.9 279.6,365.1 281,366.5 		"/>
		<polygon class="st0" points="279.1,368.4 276.6,365.9 270.2,367.7 275.5,372 		"/>
		<polygon class="st0" points="286.7,372.1 299.9,361.7 291.3,361.7 288.8,362.4 282.9,368.4 		"/>
		<polygon class="st0" points="248,399.9 230.4,379.1 225.8,380.5 247.6,400.2 		"/>
		<polygon class="st0" points="273.6,373.9 267.1,368.7 233.2,378.3 249.9,397.9 		"/>
		<path d="M901.9,465.2l53,108.6c1.5-0.4,3-0.7,4.5-1l-82-168.2v0c0-1.1-0.4-2.1-1.2-2.9c-0.5-0.5-1-0.7-1.6-0.9l0-0.1L712,353.7v0
			H288l0,0l-163.1,47.2v0.2c-1.3,0.7-2.3,2-2.3,3.6v0l-82,168.2c1.5,0.2,3.1,0.5,4.5,1l53-108.6h13.2v9.5h-3.2v47.4h3.2v70.2h-5.6
			v-44V544H69.4v4.4v44h-0.5c1.6,2.8,2.8,5.8,3.7,9h109.1c0.9-3.2,2.1-6.2,3.7-9c1.6-2.8,3.6-5.5,5.8-7.8h-1.4v-39h-13.1v-3.9h-14
			v3.9h-13.1v39h-3.4v7.8h-3.2v-70.2h3.2v-47.4h-3.2v-9.5h13.2l53,108.6c1.5-0.4,3-0.7,4.5-1l-79.3-162.7L288,424.6H712l153.7-14.4
			l-79.3,162.7c1.5,0.2,3.1,0.5,4.5,1l53-108.6h13.2v9.5h-3.2v47.4h3.2v70.2h-3.2v-7.8h-3.4v-39h-13.1v-3.9h-14v3.9h-13.1v39h-1.4
			c2.2,2.3,4.2,5,5.8,7.8c1.6,2.8,2.8,5.8,3.7,9h109.1c0.9-3.2,2.1-6.2,3.7-9h-0.5v-44V544h-36.3v4.4v44h-5.6v-70.2h3.2v-47.4h-3.2
			v-9.5H901.9z M99.8,461.7l22.8-46.8v9.9h-0.9V447h0.9v14.7H99.8z M122.6,465.2v9.5h-7.8v-9.5H122.6z M139.4,592.3h-24.6v-70.2h7.8
			v70h9v-70h7.8V592.3z M139.4,474.7h-7.8v-9.5h7.8V474.7z M154.4,461.7h-22.8V447h0.9v-22.2h-0.9v-9.9L154.4,461.7z M821.4,394
			l-8.7,4.1l-0.8-1.4l5.9-3.7L821.4,394z M814.3,391.9l-3.8,2.4l-2.6-4.2L814.3,391.9z M810.3,399.1L810.3,399.1l-1-0.8l0.4-0.2
			L810.3,399.1z M804.1,389l4.1,6.8l-1,0.6l-9.5-9.2L804.1,389z M807.6,400.4l-5.9,2.7l5.3-3.3L807.6,400.4z M774.4,380.5
			l-21.8,19.7l-0.3-0.3l17.5-20.7L774.4,380.5z M766.9,378.4l-16.6,19.6l-23.8-24l6.5-5.2L766.9,378.4z M715.6,373.8l3.6-3.5
			l3.4,3.4l-3.5,2.8L715.6,373.8z M716.9,378.2L684.7,404l28.9-28.3L716.9,378.2z M724.5,375.6l23.6,23.8l-26.8-21.2L724.5,375.6z
			 M723.6,366l6.4,1.8l-5.3,4.2l-3.6-3.6L723.6,366z M720.6,365.1l-1.4,1.4l-2.4-2.4L720.6,365.1z M708.7,361.7l2.8,0.8l5.8,5.8
			l-3.8,3.7l-13.1-10.4H708.7z M696,361.7l15.5,12.3l-29,28.3l-28.8-28.6l15.1-12.1H696z M642.1,373.6l3.8-3.8l3.8,3.8l-3.8,3.1
			L642.1,373.6z M643.8,378.4l-32.3,25.9l-0.1-0.1l28.8-28.6L643.8,378.4z M651.7,375.5l28.9,28.7l-0.1,0.1l-32.4-26L651.7,375.5z
			 M664.6,361.7l-12.7,10.2l-4-4l6.2-6.2H664.6z M650.3,361.7L646,366l-4.3-4.3H650.3z M637.9,361.7l6.2,6.2l-4,4l-12.7-10.2H637.9z
			 M623,361.7l15.1,12.1l-28.6,28.4l-28.6-28.4l15.1-12.1H623z M569.2,373.6l3.8-3.8l3.8,3.8l-3.8,3.1L569.2,373.6z M570.9,378.4
			l-32.3,25.9l-0.1-0.1l28.8-28.6L570.9,378.4z M578.8,375.5l28.8,28.6l-0.1,0.1l-32.3-25.9L578.8,375.5z M591.7,361.7L579,371.9
			l-4-4l6.2-6.2H591.7z M577.3,361.7L573,366l-4.3-4.3H577.3z M564.9,361.7l6.2,6.2l-4,4l-12.7-10.2H564.9z M550.1,361.7l15.1,12.1
			l-28.6,28.4L508,373.8l15.1-12.1H550.1z M496.3,373.6l3.8-3.8l3.8,3.8l-3.8,3.1L496.3,373.6z M498,378.4l-32.3,25.9l-0.1-0.1
			l28.8-28.6L498,378.4z M505.9,375.5l28.8,28.6l-0.1,0.1l-32.3-25.9L505.9,375.5z M518.7,361.7L506,371.9l-4-4l6.2-6.2H518.7z
			 M504.4,361.7l-4.3,4.3l-4.3-4.3H504.4z M492,361.7l6.2,6.2l-4,4l-12.7-10.2H492z M477.2,361.7l15.1,12.1l-28.6,28.4L435,373.8
			l15.1-12.1H477.2z M423.4,373.6l3.8-3.8l3.8,3.8l-3.8,3.1L423.4,373.6z M425,378.4l-32.3,25.9l-0.1-0.1l28.8-28.6L425,378.4z
			 M432.9,375.5l28.8,28.6l-0.1,0.1l-32.3-25.9L432.9,375.5z M445.8,361.7l-12.7,10.2l-4-4l6.2-6.2H445.8z M431.5,361.7l-4.3,4.3
			l-4.3-4.3H431.5z M419.1,361.7l6.2,6.2l-4,4l-12.7-10.2H419.1z M404.3,361.7l15.1,12.1l-28.6,28.4l-28.6-28.4l15.1-12.1H404.3z
			 M350.4,373.6l3.8-3.8l3.8,3.8l-3.8,3.1L350.4,373.6z M352.1,378.4l-32.4,26l-0.1-0.1l28.9-28.7L352.1,378.4z M360,375.5
			l28.8,28.6l-0.1,0.1l-32.3-25.9L360,375.5z M372.9,361.7l-12.7,10.2l-4-4l6.2-6.2H372.9z M358.6,361.7l-4.3,4.3l-4.3-4.3H358.6z
			 M346.2,361.7l6.2,6.2l-4,4l-12.7-10.2H346.2z M331.3,361.7l15.1,12.1l-28.8,28.6l-29-28.3l15.5-12.3H331.3z M277.6,373.7l3.4-3.4
			l3.6,3.5l-3.5,2.7L277.6,373.7z M279,378.2l-26.8,21.2l23.6-23.8L279,378.2z M286.6,375.7l28.9,28.3l-32.2-25.7L286.6,375.7z
			 M288.8,362.4l2.5-0.7h8.6l-13.1,10.4l-3.8-3.7L288.8,362.4z M283.5,363.9l-2.5,2.5l-1.4-1.4L283.5,363.9z M276.6,365.9l2.5,2.5
			l-3.6,3.6l-5.3-4.3L276.6,365.9z M267.1,368.7l6.6,5.3l-23.8,24l-16.6-19.6L267.1,368.7z M230.4,379.1l17.6,20.7l-0.3,0.3
			l-21.9-19.8L230.4,379.1z M202.6,387.1l-9.6,9.3l-1-0.6l4.1-6.8L202.6,387.1z M193.3,399.8l5.3,3.3l-5.9-2.7L193.3,399.8z
			 M192.3,390l-2.6,4.3l-3.9-2.5L192.3,390z M191,398.3l-0.9,0.9l-0.1,0l0.6-1.1L191,398.3z M182.4,392.9l5.9,3.8l-0.8,1.4l-8.8-4.1
			L182.4,392.9z M139.7,405.1l35-10l11.3,5.3l-4,6.6c-0.3,0.6-0.2,1.3,0.3,1.7c0.2,0.2,0.5,0.3,0.8,0.3c0.3,0,0.7-0.1,0.9-0.4
			l6.4-6.2l19.7,9.2L139.7,405.1z M217.5,412.2c-0.1-0.2-0.2-0.3-0.3-0.4l-21.9-13.9l12.8-12.3l14.7-4.2l23,20.8l-10.9,11l0.7,0.7
			L217.5,412.2z M237.9,414.1l11.3-8.9l12.3,11.1L237.9,414.1z M291.3,419.1l-26.3-2.4l0.4-0.4L253.3,402l27.9-22l32.7,26.2
			l-13,12.9H291.3z M305.6,419.1l12.2-9.8l12.2,9.8H305.6z M334.7,419.1l-13.1-12.8l32.7-26.1l32.5,26l-13,12.9H334.7z M378.5,419.1
			l12.2-9.8l12.2,9.8H378.5z M407.7,419.1l-13-12.9l32.5-26l32.5,26l-13,12.9H407.7z M451.4,419.1l12.2-9.8l12.2,9.8H451.4z
			 M480.6,419.1l-13-12.9l32.5-26l32.5,26l-13,12.9H480.6z M524.3,419.1l12.2-9.8l12.2,9.8H524.3z M553.5,419.1l-13-12.9l32.5-26
			l32.5,26l-13,12.9H553.5z M597.3,419.1l12.2-9.8l12.2,9.8H597.3z M626.5,419.1l-13-12.9l32.5-26l32.7,26.1l-13.1,12.8H626.5z
			 M670.2,419.1l12.2-9.8l12.2,9.8H670.2z M708.7,419.1h-9.3l-13-12.9l32.7-26.2l27.9,22l-12.1,14.3l0.4,0.4L708.7,419.1z
			 M738.8,416.3l12.2-11.1l11.2,8.9L738.8,416.3z M782.8,412.2l-18,1.7l0.6-0.7l-10.9-11l22.9-20.7l14.8,4.2l12.7,12.3l-21.9,13.9
			C782.9,411.9,782.9,412.1,782.8,412.2z M789.9,411.6l19.7-9.2l6.4,6.2c0.3,0.3,0.6,0.4,0.9,0.4c0.3,0,0.6-0.1,0.8-0.3
			c0.5-0.4,0.7-1.2,0.3-1.7l-4-6.6l11.3-5.2l34.9,10L789.9,411.6z M845.6,461.7l22.8-46.8v9.9h-0.9V447h0.9v14.7H845.6z
			 M868.4,465.2v9.5h-7.8v-9.5H868.4z M885.2,592.3h-24.6v-70.2h7.8v70h9v-70h7.8V592.3z M885.2,474.7h-7.8v-9.5h7.8V474.7z
			 M877.4,461.7V447h0.9v-22.2h-0.9v-9.9l22.8,46.8H877.4z"/>
		<path class="st1" d="M933.6,597c0.1-0.3,0.2-0.5,0.4-0.7C933.8,596.5,933.7,596.7,933.6,597z"/>
	</g>
	<path d="M219.5,576.7c-19.1,0-34.8,15.6-34.8,34.8c0,19.1,15.6,34.8,34.8,34.8s34.8-15.7,34.8-34.8
		C254.3,592.3,238.7,576.7,219.5,576.7z M219.5,627.4c-8.6,0-15.9-7-15.9-15.9c0-8.8,7.3-15.9,15.9-15.9c8.8,0,15.9,7,15.9,15.9
		C235.5,620.4,228,627.4,219.5,627.4z"/>
	<path d="M34.8,576.7C15.7,576.7,0,592.3,0,611.5c0,19.1,15.6,34.8,34.8,34.8s34.8-15.7,34.8-34.8C69.6,592.3,54,576.7,34.8,576.7z
		 M34.8,627.4c-8.6,0-15.9-7-15.9-15.9c0-8.8,7.3-15.9,15.9-15.9c8.8,0,15.9,7,15.9,15.9C50.8,620.4,43.4,627.4,34.8,627.4z"/>
	<path d="M780.5,576.7c-19.1,0-34.8,15.6-34.8,34.8c0,19.1,15.6,34.8,34.8,34.8s34.8-15.7,34.8-34.8
		C815.4,592.3,799.8,576.7,780.5,576.7z M780.5,627.4c-8.6,0-15.9-7-15.9-15.9c0-8.8,7.3-15.9,15.9-15.9c8.8,0,15.9,7,15.9,15.9
		C796.5,620.4,789.1,627.4,780.5,627.4z"/>
	<path d="M965.2,576.7c-19.1,0-34.8,15.6-34.8,34.8c0,19.1,15.6,34.8,34.8,34.8s34.8-15.7,34.8-34.8
		C1000,592.3,984.4,576.7,965.2,576.7z M965.2,627.4c-8.6,0-15.9-7-15.9-15.9c0-8.8,7.3-15.9,15.9-15.9c8.8,0,15.9,7,15.9,15.9
		C981.2,620.4,973.7,627.4,965.2,627.4z"/>
</g>
</svg>
