<?xml version="1.0" encoding="utf-8"?>
<!-- Generator: Adobe Illustrator 24.3.0, SVG Export Plug-In . SVG Version: 6.00 Build 0)  -->
<svg version="1.1" id="Capa_1" xmlns="http://www.w3.org/2000/svg" xmlns:xlink="http://www.w3.org/1999/xlink" x="0px" y="0px"
	 viewBox="0 0 1000 1000" style="enable-background:new 0 0 1000 1000;" xml:space="preserve">
<path d="M975,779.1l-68.8-135.1l-10.2-2.4V370c0-8.7-4.6-16.7-12.1-21L632.2,203.6c-7.5-4.3-16.8-4.3-24.3,0L356.2,349
	c-7.5,4.3-12.1,12.3-12.1,21v142.9l-11.8-2.8L25,169.8v150.9l307.3,458.4h192.8L608,827c7.5,4.3,16.8,4.3,24.3,0l82.8-47.8H975z
	 M605.7,569v4.9l-45.4-10.6l18.6-10.7C586,560.4,595.2,566.1,605.7,569z M634.5,580.6V569c10.5-2.8,19.7-8.5,26.8-16.4l99.7,57.6
	L634.5,580.6z M843.3,624.5l-168.7-97.4c0.8-3.8,1.3-7.7,1.3-11.8c0-6-1.2-11.6-2.9-17l170.4-98.4V624.5z M657.4,474.1
	c-6.5-5.8-14.2-10.1-22.9-12.4V265.9l191.8,110.7L657.4,474.1z M605.7,461.6c-8.7,2.3-16.4,6.6-22.9,12.4l-168.9-97.5l191.8-110.7
	V461.6z M567.2,498.3c-1.7,5.4-2.9,11-2.9,17c0,4,0.5,8,1.3,11.8l-46.2,26.7l-122.5-28.6V399.9L567.2,498.3z"/>
</svg>
