<?xml version="1.0" encoding="utf-8"?>
<!-- Generator: Adobe Illustrator 24.3.0, SVG Export Plug-In . SVG Version: 6.00 Build 0)  -->
<svg version="1.1" id="Capa_1" xmlns="http://www.w3.org/2000/svg" xmlns:xlink="http://www.w3.org/1999/xlink" x="0px" y="0px"
	 viewBox="0 0 1000 1000" style="enable-background:new 0 0 1000 1000;" xml:space="preserve">
<g>
	<g>
		<path d="M351.7,578.5c-36,0-65.1,29.1-65.1,65.1s29.1,65.1,65.1,65.1s65.1-29.1,65.1-65.1C416.8,607.6,387.6,578.5,351.7,578.5z
			 M351.7,681.1c-20.7,0-37.6-16.8-37.6-37.6s16.8-37.6,37.6-37.6c20.7,0,37.6,16.8,37.6,37.6S372.4,681.1,351.7,681.1z"/>
		<polygon points="975,699.8 897.7,622.5 897.7,622.3 676.3,622.3 676.3,685 860,685 860,699.8 		"/>
	</g>
	<g>
		<path d="M628.2,354.3c2-11.4,12.8-18.9,24.2-16.9s18.9,12.8,16.9,24.2c-2,11.4-12.8,18.9-24.2,16.9
			C633.8,376.5,626.2,365.7,628.2,354.3z M568.7,343.8c2-11.4,12.8-18.9,24.2-16.9s18.9,12.8,16.9,24.2S597,370,585.7,368
			S566.7,355.2,568.7,343.8z M509.2,333.4c2-11.4,12.8-18.9,24.2-16.9s18.9,12.8,16.9,24.2c-2,11.4-12.8,18.9-24.2,16.9
			S507.2,344.7,509.2,333.4z M490.8,330.2c-2,11.4-12.8,18.9-24.2,16.9c-11.4-2-18.9-12.8-16.9-24.2s12.8-18.9,24.2-16.9
			C485.2,308,492.8,318.8,490.8,330.2z"/>
		<ellipse cx="470.3" cy="326.5" rx="20.9" ry="20.9"/>
		<ellipse transform="matrix(0.5967 -0.8024 0.8024 0.5967 -56.7313 561.013)" cx="529.8" cy="336.9" rx="20.9" ry="20.9"/>
		<ellipse transform="matrix(0.8188 -0.5741 0.5741 0.8188 -92.688 401.2941)" cx="589.3" cy="347.5" rx="20.9" ry="20.9"/>
		<ellipse transform="matrix(0.9922 -0.1246 0.1246 0.9922 -39.5407 83.6285)" cx="648.8" cy="357.9" rx="20.9" ry="20.9"/>
	</g>
	<path d="M196.1,578.5c-36,0-65.1,29.1-65.1,65.1s29.1,65.1,65.1,65.1s65.1-29.1,65.1-65.1C261.1,607.6,232,578.5,196.1,578.5z
		 M196.1,681.1c-20.7,0-37.6-16.8-37.6-37.6s16.8-37.6,37.6-37.6c20.7,0,37.6,16.8,37.6,37.6S216.8,681.1,196.1,681.1z"/>
	<path d="M762.6,588.8V506h9.1c5.5,0,10-4.5,10-10v-89.1c0-5.5-4.5-10-10-10h-9.1v-63.3h-44c-0.9-0.2-1.8-0.4-2.8-0.6l-240.7-42.3
		c-19.6-3.4-38.3,9.7-41.8,29.3c-3.4,19.6,9.7,38.3,29.3,41.8l213.7,37.5v189.4h-51.2v-2.6c0-3.6-2.9-6.7-6.7-6.7h-8.3v-14.7h21
		V396.9H25l51.7,167.9h20.8v56.5h31h0.1c9.3-28.2,36-48.6,67.3-48.6s57.9,20.4,67.3,48.6h21.1c9.3-28.2,36-48.6,67.3-48.6
		s57.9,20.4,67.3,48.6H610v-5.5h8.3c3.6,0,6.7-2.9,6.7-6.7v-3.8h51.4v6h86.3v-6h36.7v-16.5H762.6z M676.3,388.2L464.6,351
		c-13.6-2.4-22.7-15.4-20.3-29c2.4-13.6,15.4-22.7,29-20.3l203.1,35.7v50.8H676.3z"/>
</g>
</svg>
