<?xml version="1.0" encoding="utf-8"?>
<!-- Generator: Adobe Illustrator 24.3.0, SVG Export Plug-In . SVG Version: 6.00 Build 0)  -->
<svg version="1.1" id="Capa_1" xmlns="http://www.w3.org/2000/svg" xmlns:xlink="http://www.w3.org/1999/xlink" x="0px" y="0px"
	 viewBox="0 0 1000 1000" style="enable-background:new 0 0 1000 1000;" xml:space="preserve">
<path d="M1000,472.2c0-41-22.5-76.5-55.6-95.7V111.1c0-15.2-12.1-55.6-55.6-55.6c-12.4,0-24.6,4.1-34.7,12.2L706.6,185.9
	c-74.1,59.3-167.2,91.9-262.1,91.9H111.1C49.7,277.8,0,327.5,0,388.9v166.7c0,61.4,49.7,111.1,111.1,111.1h58.5
	c-2.4,18.2-3.8,36.7-3.8,55.6c0,69,16.1,134.3,44.4,192.6c9,18.6,28.7,29.6,49.3,29.6h129c45.2,0,72.4-51.8,45-87.8
	c-28.5-37.4-45.4-84-45.4-134.4c0-19.3,2.8-37.8,7.7-55.6h48.8c94.9,0,188,32.7,262.1,91.9l147.6,118.1c9.8,7.9,22.1,12.2,34.7,12.2
	c43.3,0,55.6-39.5,55.6-55.6V567.9C977.5,548.7,1000,513.2,1000,472.2z M833.3,717.7L776,671.8c-93.8-75-211.5-116.3-331.5-116.3
	V388.9c120,0,237.8-41.3,331.5-116.3l57.4-45.9V717.7z"/>
</svg>
