<?xml version="1.0" encoding="utf-8"?>
<!-- Generator: Adobe Illustrator 26.0.2, SVG Export Plug-In . SVG Version: 6.00 Build 0)  -->
<svg version="1.1" id="Calque_1" xmlns="http://www.w3.org/2000/svg" xmlns:xlink="http://www.w3.org/1999/xlink" x="0px" y="0px"
	 viewBox="0 0 1000 1000" style="enable-background:new 0 0 1000 1000;" xml:space="preserve">
<path d="M467.2,267.6c-4.1,3.7-3.3,6.5,2.9,8.6c17.6,7.8,32.2,15.1,44.1,22.4c4.5,1.2,7.8,0.8,9-1.2c24.9-23.3,53.5-35.1,86.5-35.1
	s61.2,11,85.7,33.1c24.1,22,37.5,49.4,40.4,81.6l3.6,26.1h58c26.5,0,49.4,9.4,68.6,28.6s28.6,41.6,28.6,67.7
	c0,24.5-8.6,45.7-25.3,64.1c-16.7,18.4-37.5,28.6-62.4,31.4c-4.1,0-6.1,2-6.1,6.5v46.1c0,4.5,2,6.5,6.1,6.5
	c41.2-2.5,75.9-18.8,104.1-48.6c28.2-29.8,42.5-65.3,42.5-106.1c0-43.3-15.1-80-45.7-110.2c-30.6-30.6-67.4-45.7-110.2-45.7h-6.1
	c-10.6-40.8-33.1-74.3-67.4-100.8c-33.9-26.5-72.2-39.6-114.3-39.6C552.5,202.7,504.7,224.3,467.2,267.6z M105.9,623.5
	c0,31,11.4,58,33.5,80s49.4,33.5,81.2,33.5h378.8c31.4,0,58.8-11,81.2-33.5c22.4-22.4,33.9-49,33.9-80s-11-58-33.9-80
	c-22.5-22-49.4-33.5-81.2-33.5h-56.7c-4.1,0-6.1-2-6.1-6.1l-2.9-20c-4.1-38.4-20.4-70.6-48.6-95.9c-28.2-25.3-61.6-38-100-38
	c-38.3,0-71.8,12.6-100.4,38.4c-28.6,25.3-44.5,57.6-48.2,95.5l-2.9,17.1c0,4.1-2.1,6.1-6.5,6.1l-18.4,2.9
	c-29.4,2.4-53.9,14.7-73.9,36.3C116.1,568,105.9,593.7,105.9,623.5z M46.8,623.5c0-40.4,12.6-76.7,38-108.2
	c25.3-31.4,57.5-51.8,97.1-60.8c10.6-47.7,34.7-87.3,72.7-117.5c37.9-30.6,81.6-45.7,131.4-45.7c48.2,0,91.4,14.7,129,44.5
	c38,29.8,62.5,67.7,73.5,114.3h11c48.2,0,89,16.7,122.9,50.6c33.9,33.9,51,74.7,51,122.5c0,48.1-17.2,89-51,122.9
	c-33.9,33.9-74.7,51-122.9,51H221c-23.7,0-46.1-4.5-67.3-13.9c-21.2-9.4-40.4-20.8-55.9-36.3c-15.5-15.5-27.8-34.3-37.1-55.5
	C51.2,670,46.8,646.7,46.8,623.5z"/>
</svg>
