<?xml version="1.0" encoding="utf-8"?>
<!-- Generator: Adobe Illustrator 26.0.2, SVG Export Plug-In . SVG Version: 6.00 Build 0)  -->
<svg version="1.1" id="Calque_1" xmlns="http://www.w3.org/2000/svg" xmlns:xlink="http://www.w3.org/1999/xlink" x="0px" y="0px"
	 viewBox="0 0 1000 1000" style="enable-background:new 0 0 1000 1000;" xml:space="preserve">
<path d="M827.8,507.4c0,7.8,3,14.2,8.8,19.6c5.4,5.4,12.5,8.1,20.6,8.1h68.8c7.8,0,14.2-2.7,19.6-7.8c5.4-5.1,7.7-11.8,7.7-19.9
	s-2.7-14.8-7.7-20.2s-11.8-8.4-19.6-8.4h-68.8c-8.1,0-14.8,2.7-20.6,8.4C830.5,492.9,827.8,499.7,827.8,507.4z M778.2,720.2
	c0,8.1,2.7,15.2,8.5,21.2l21.9,21.2c5.1,5.4,11.5,8.1,19.6,8.1s14.8-2.7,20.2-8.4c5.4-5.7,8.1-12.5,8.1-20.9
	c0-7.4-2.7-14.2-8.1-19.6L826.5,700c-5.4-5.4-11.8-8.1-19.2-8.1c-8.1,0-14.9,2.7-20.2,8.1C781.3,705.4,778.2,712.1,778.2,720.2z
	 M751.6,320.9c0,8.8,2.3,15.5,7.4,20.9c7.1,5.4,14.2,8.1,20.9,8.1c6.1,0,12.8-2.7,19.9-8.1l48.2-48.2c5.4-6.1,8.1-13.2,8.1-21.6
	c0-8.1-2.7-14.9-8.1-20.2c-5.4-5.4-12.1-8.1-19.9-8.1c-8.1,0-14.5,2.7-19.6,8.1L759,300C753.9,306.4,751.6,313.2,751.6,320.9z
	 M565.4,243.7c0,8.8,2.7,15.5,7.8,20.9s11.8,7.8,19.9,7.8c8.8,0,15.5-2.7,20.9-7.8c5.4-5.4,7.8-12.1,7.8-20.9v-69.1
	c0-8.1-2.7-14.5-8.1-19.9c-5.4-5.4-12.1-7.8-20.6-7.8c-8.1,0-14.5,2.7-19.9,7.8c-5.4,5.1-7.8,11.8-7.8,19.9V243.7z M510.5,421.8
	c23.3-22.6,50.9-33.7,82.6-33.7c33.4,0,61.7,11.5,85,34.7s35.1,51.3,35.1,84.6c0,20.9-5.7,41.8-17.2,62.1
	c-32.7-32.4-71.8-48.6-117.7-48.6h-10.8C559,484.2,540.1,451.1,510.5,421.8z M330.4,272.4c0,8.1,2.7,15.2,8.1,21.2l22.3,21.6
	c8.4,6.4,15.5,9.1,21.6,8.4c7.1,0,13.2-3,18.5-8.8c5.4-5.7,8.1-12.8,8.1-20.9s-3-14.8-8.7-19.9l-19.9-22.3
	c-6.1-5.4-12.8-8.1-20.6-8.1c-8.1,0-15.2,2.7-20.9,8.4C333.1,257.5,330.4,264.3,330.4,272.4z M104.4,686.2
	c0-28.3,9.5-52.6,28.3-73.2c18.9-20.6,42.5-32.4,70.8-35.8l16.9-1c4,0,6.4-2,6.4-6.1l2.4-18.2c4.7-36.4,20.6-67.1,47.6-91.4
	c27-24.6,58.7-36.7,94.7-36.7c37.1,0,69.5,12.5,96.8,37.1c27.6,24.6,42.8,55,46.2,91.4l2.3,19.5c0.7,3.7,3,5.7,7.1,5.7h54.3
	c29.7,0,55.3,10.8,76.9,32.4c21.6,21.6,32.4,46.9,32.4,76.5c0,30.7-10.8,56.7-32,78.2c-21.2,21.6-47.2,32.4-76.9,32.4H213
	c-29.7,0-55-10.8-76.6-32.7C115.2,742.5,104.4,716.5,104.4,686.2z M46.8,686.2c0,30.4,7.4,58.4,22.3,84
	c14.9,25.6,35.1,45.9,60.7,60.7c25.7,14.9,53.3,22.3,83.3,22.3h365.2c30,0,58-7.4,83.6-22.3c25.7-14.8,46.2-35.1,61.1-60.7
	c14.8-25.6,22.6-53.6,22.6-84c0-22.3-4.7-44.8-14.2-67.4c25.6-31,38.4-68.5,38.4-111.3c0-23.9-4.7-46.9-13.8-68.8
	s-21.9-40.5-37.8-56.3c-15.9-15.9-34.4-28.7-56.3-37.8c-21.9-9.4-44.8-13.8-68.8-13.8c-49.9,0-93.4,19.5-130.8,58.7
	c-26-14.9-56.3-22.3-91.1-22.3c-47.6,0-89.4,14.8-125.8,44.2s-60.1,67.1-70.2,113c-37.8,8.8-68.4,28-92.4,58.4
	S46.8,647.4,46.8,686.2z"/>
</svg>
