<?xml version="1.0" encoding="utf-8"?>
<!-- Generator: Adobe Illustrator 26.0.2, SVG Export Plug-In . SVG Version: 6.00 Build 0)  -->
<svg version="1.1" id="Calque_1" xmlns="http://www.w3.org/2000/svg" xmlns:xlink="http://www.w3.org/1999/xlink" x="0px" y="0px"
	 viewBox="0 0 1000 1000" style="enable-background:new 0 0 1000 1000;" xml:space="preserve">
<path d="M476,585.1c-5.5-5.5-8.3-12.1-8.3-20s2.7-15.2,8.3-20.7c5.5-5.5,12-8.2,20-8.2s14.8,2.8,20.7,8.2c5.9,5.5,8.6,12.4,8.6,20.3
	c0,8.3-2.7,14.8-8.6,20.3c-5.5,5.5-12.4,8.3-20.7,8.3C488.4,593.3,481.6,590.6,476,585.1z M366.5,644c-5.5-5.9-8.3-12.7-8.3-21
	c0-7.6,2.7-14.5,8.3-20c5.5-5.5,12.4-8.3,20.3-8.3c8.3,0,14.8,2.8,20.3,8.3c5.5,5.5,8.3,12.1,8.3,20c0,8.3-2.8,15.2-8.3,21
	s-12.4,8.6-20.3,8.6C378.5,652.5,372,649.8,366.5,644z M587,644c-5.5-5.9-8.3-12.7-8.3-21c0-7.6,2.8-14.5,8.3-20
	c5.5-5.5,12-8.3,20.3-8.3s14.8,2.8,20.3,8.3c5.5,5.5,8.3,12.1,8.3,20c0,8.3-2.7,15.2-8.3,21s-12.4,8.6-20.3,8.6
	C599.3,652.5,592.4,649.8,587,644z M689.8,656.7v-47c0-3.9,2.4-5.9,7-5.9c29.8-1.4,55.4-13.4,76.5-35.8s31.6-48.8,31.6-79.3
	c0-30.9-11.5-57.2-34.4-79.7c-22.8-22.5-49.8-33.7-81-33.7h-56.5c-4.3,0-6.4-2.1-6.4-5.9l-2.7-20.4c-4.3-37.9-20.4-69.5-48.8-95.1
	c-28.5-25.6-61.8-38.2-100.1-38.2s-71.6,12.6-100,38.2c-28.4,25.3-44.3,57.2-48.1,95.1l-2.1,18.6c0,4.5-2.5,6.6-7,6.6l-18.6,1.1
	c-29.1,3.5-53.7,16.2-73.3,37.5c-19.7,21.8-29.6,46.8-29.6,75.9c0,30.5,10.6,56.9,31.6,79.3c21.1,22.5,46.3,34.4,76.5,35.8
	c3.9,0,6,2,6,5.9v47c0,3.8-2.1,5.9-6,5.9c-47-2.1-86.7-20-119.3-53.7c-32.6-33.7-48.8-73.7-48.8-120.4c0-40.4,13-76.1,38-107.8
	c24.9-31.6,56.9-51.6,95.8-60.7c10.9-47.7,35.5-87,73.7-117.6c38.2-30.6,82.2-46,131.6-46c48.4,0,91.6,15.1,129.2,44.9
	c37.5,29.8,62.4,68.1,73.7,115.1h11.3c31.2,0,60.7,8.1,87.4,23.2c26.6,15.1,48.1,36.1,63.5,62.5c15.8,26.3,23.5,55.5,23.5,86.7
	c0,30.5-7.4,59.3-22.1,85.6c-14.8,26.3-35.2,47.4-60.8,63.2c-25.7,15.8-53.7,24.2-84.2,24.9C692.2,662.7,689.8,660.5,689.8,656.7z
	 M476,709.8c-5.5-6.2-8.3-13.1-8.3-20.7c0-7.9,2.7-14.8,8.3-20.7c5.5-5.9,12-8.6,20-8.6s14.8,2.7,20.7,8.6
	c5.9,5.9,8.6,12.8,8.6,20.7c0,8.3-3,15.2-8.6,20.7c-5.5,5.5-12.4,8.3-20.7,8.3C488.4,718,481.6,715.3,476,709.8z M366.5,767.6
	c-5.5-5.9-8.3-12.4-8.3-19.6c0-8.3,2.7-15.2,7.7-20.3c5.4-5.2,12.4-7.9,20.2-7.9c8.3,0,14.9,2.4,20.3,7.9c5.5,5.5,8.3,12.1,8.3,20.3
	c0,7.9-2.4,14.4-7.9,20c-5.5,5.2-12,7.9-20.3,7.9C379.2,775.9,372.7,773.1,366.5,767.6z M586.6,767.6c-5.2-5.9-7.9-12.4-7.9-19.6
	c0-7.9,2.8-14.8,7.6-20c5.5-5.5,12.4-8.3,20.7-8.3c8.3,0,14.8,2.4,20.3,7.9c5.5,5.5,8.3,12.1,8.3,20.3c0,7.9-2.4,14.4-7.9,20
	c-5.5,5.2-12.1,7.9-20.3,7.9C599.7,775.9,592.8,773.1,586.6,767.6z M476,834.8c-5.5-5.4-8.3-12-8.3-19.6c0-7.9,2.7-14.8,8.3-20.6
	c5.9-5.9,12.4-8.6,20-8.6c7.9,0,14.8,2.8,20.7,8.6c5.9,5.5,8.6,12.4,8.6,20.6c0,8.3-2.7,14.8-8.6,20.3c-5.5,5.2-12.4,7.9-20.7,7.9
	C488.4,843.4,481.9,840.6,476,834.8z"/>
</svg>
