<?xml version="1.0" encoding="utf-8"?>
<!-- Generator: Adobe Illustrator 26.0.2, SVG Export Plug-In . SVG Version: 6.00 Build 0)  -->
<svg version="1.1" id="Calque_1" xmlns="http://www.w3.org/2000/svg" xmlns:xlink="http://www.w3.org/1999/xlink" x="0px" y="0px"
	 viewBox="0 0 1000 1000" style="enable-background:new 0 0 1000 1000;" xml:space="preserve">
<path d="M827.5,410.6c0,7.4,2.7,14.2,8.1,19.6c5.4,5.4,12.1,8.1,19.5,8.1h68.8c8.8,0,15.9-2.7,21.2-7.8c5.4-5.4,8.1-11.8,8.1-19.9
	c0-8.4-2.7-15.5-8.4-20.9c-5.7-5.4-12.5-8.1-20.9-8.1h-68.8c-7.7,0-14.5,2.7-19.9,8.4C830.2,395.8,827.5,402.9,827.5,410.6z
	 M777.9,623.4c0,7.8,3,14.8,8.8,21.2l20.9,21.6c7.1,7.1,13.8,10.5,20.9,10.5c6.4,0,13.2-3.4,19.5-10.5c6.1-6.1,9.1-13.2,8.8-20.6
	c-0.3-7.8-3-14.5-8.8-20.2l-21.9-22.3c-5.4-5.4-11.8-8.1-19.2-8.1c-8.1,0-14.9,2.7-20.6,8.4C780.9,608.9,777.9,615.7,777.9,623.4z
	 M751.3,224.5c0,8.4,2.7,15.2,7.7,20.6c7.1,5.7,13.8,8.4,20.9,8.4c6.4,0,12.8-2.7,19.9-8.4l48.2-48.2c5.4-6.1,8.1-13.2,8.1-21.2
	s-2.7-14.8-8.1-20.2c-5.4-5.4-12.1-8.1-19.9-8.1c-7.8,0-14.5,2.7-20.6,8.1L759,203.6C753.9,209.6,751.3,216.4,751.3,224.5z
	 M564.1,147.2c0,8.4,2.7,15.2,8.1,20.6c5.4,5.4,12.1,8.1,20.6,8.1s15.2-2.7,20.6-8.1c5.4-5.4,8.1-12.1,8.1-20.6V79.1
	c0-8.4-2.7-15.5-8.1-20.9c-5.4-5.4-12.1-8.1-20.6-8.1s-15.2,2.7-20.6,8.1c-5.4,5.4-8.1,12.5-8.1,20.9V147.2z M512.1,323.6
	c22.3-21.6,49.2-32.4,80.9-32.4c33.1,0,61.4,11.8,84.7,35.1s35.1,51.6,35.1,84.7c0,18.9-5.4,38.8-15.9,59.3
	c-32.4-32.4-71.1-48.2-117-48.2h-11.5C559.7,383.7,540.8,350.9,512.1,323.6z M501,656.1c0,5.4,1.7,10.8,5.1,16.2
	c3.4,5.4,8.5,9.1,15.2,10.8l8.5,1c6.4,0,12.5-2,17.5-6.1s8.1-9.4,9.4-15.9l9.1-33.4c2.4-8.1,1.7-15.2-2.3-21.9
	c-3.7-6.7-9.4-11.1-17.2-13.2c-7.8-2.4-15.2-1.7-21.6,2c-6.8,3.7-11.1,9.4-13.2,16.9l-10.1,35.8C501.4,651.1,501,653.8,501,656.1z
	 M453.8,816.7c0.7,12.8,7.7,21.9,21.2,28l8.4,1.4c5.4,0,10.8-1.7,15.9-5.4s8.7-9.1,10.8-16.9l9.8-34.1c2-8.1,1-15.5-3-22.3
	c-4-6.7-10.1-11.1-17.9-12.5c-7.1-2.4-13.8-1.7-20.9,2.3s-11.5,9.8-13.8,17.2l-9.1,34.4c-0.3,0.7-0.3,1.7-0.7,2.7
	c-0.3,1-0.3,2-0.7,2.7C453.5,815,453.8,816,453.8,816.7z M360.1,758.7c0,5.7,1.7,11.5,5.4,17.2c3.7,5.7,8.8,9.4,15.9,11.8
	c7.8,2.4,14.9,1.7,21.6-1.7c6.4-3.4,11.1-9.8,13.5-18.9l8.1-34.1c2.3-7.8,1.7-15.2-2-21.9c-3.7-6.7-9.5-11.5-16.9-13.8
	c-8.4-2.4-16.2-1.4-22.9,2.7c-6.7,4-11.1,10.1-12.5,17.9l-9.4,34.7C360.1,753.6,360.1,755.6,360.1,758.7z M330,175.9
	c0,8.4,2.7,15.5,8.5,20.9l22.3,21.9c11.5,11.5,24.6,11.5,39.5,0c5.4-5.7,8.1-12.8,8.1-20.6s-2.7-14.5-8.1-20.6L379,155.3
	c-5.4-5.4-12.1-8.1-20.2-8.1c-7.8,0-14.5,2.7-20.2,8.4C332.7,161.1,330,167.8,330,175.9z M314.5,920.2c0,5.4,2,11.1,5.7,16.9
	c3.7,5.7,9.4,9.8,16.5,12.1c0.3,0,1.3,0,3.4,0.3c2,0.3,3.7,0.3,5.1,0.3c4.7,0,8.8-0.7,12.5-2.4c6.4-2.7,11.1-9.1,13.8-19.5l9.1-33.4
	c2.4-7.8,1.7-15.2-2.3-21.9c-4-6.7-9.8-11.5-17.2-13.5c-7.8-2.4-15.2-1.7-21.9,2.3c-6.7,4-11.5,9.8-13.5,17.2l-9.4,34.4
	C314.9,916.2,314.5,918.5,314.5,920.2z M273.4,654.1c0,12.8,7.1,21.6,21.6,26.6c7.4,2.7,14.5,2,21.6-1.7c7.1-3.7,11.5-9.8,13.8-17.9
	l8.1-34.7c2.3-7.1,1.7-13.8-2.4-20.9c-3.7-7.1-9.4-11.8-17.2-14.2c-8.1-2-15.8-1.3-22.6,2.7s-10.8,9.8-12.5,17.5L273.7,646
	C273.7,648.7,273.4,651.4,273.4,654.1z M229.2,813.3c0,6.1,1.7,12.1,5.4,17.9c3.7,6.1,8.8,9.8,15.2,12.1c6.4,2.4,13.5,1.7,20.6-2
	c7.4-3.7,12.1-9.8,14.9-18.5l8.4-35.4c2.4-7.1,1.7-13.8-2.3-20.9s-9.8-11.8-17.2-14.2c-8.4-2-15.9-1-22.6,2.7
	c-6.8,3.7-10.8,10.1-12.5,17.9l-9.4,33.4C229.5,807.9,229.2,810.3,229.2,813.3z M46.8,587.3c0,44.9,15.5,83.3,46.9,115.7
	s69.4,49.2,114.6,51.6c3.7,0,5.7-2,5.7-5.7v-45.2c0-4-2-6.1-5.7-6.1c-28.7-1.3-52.9-12.8-73.2-34.4c-20.2-21.6-30-46.9-30-75.9
	c0-28.3,9.4-52.6,28.3-73.2c18.9-20.6,42.5-32.4,70.8-35.8l16.9-1.4c4.4,0,6.7-2,6.7-6.1l2-17.9c3.7-36.4,18.9-67.1,46.2-91.4
	c27.3-24.6,59.4-36.7,96.4-36.7c36.8,0,69.2,12.1,96.5,36.7c27.3,24.6,42.8,55,46.2,91.4l2.4,19.2c0,4,2,6.1,6.1,6.1h56.3
	c29.7,0,55,10.8,76.6,32.4s32.4,46.9,32.4,76.5c0,28.7-10.1,53.6-30.4,74.9s-44.5,33.1-72.8,35.4c-3.7,0-5.7,2-5.7,6.1v45.2
	c0,3.7,2,5.7,5.7,5.7c29.7-0.7,56.3-8.8,80.9-24.3s43.8-35.4,57.7-60.7c14.2-25.3,20.9-52.6,20.9-82.3c0-23.9-4.7-46.2-13.8-66.1
	c25.6-31.7,38.1-68.5,38.1-110.6c0-23.9-4.7-46.9-13.8-68.8s-21.9-40.5-37.8-56.3c-15.5-15.9-34.4-28.3-56-37.4
	c-21.9-9.4-44.8-13.8-68.8-13.8c-50.9,0-93.7,18.6-128.5,56c-26.6-14.5-57.3-21.6-92.1-21.6c-47.6,0-89.7,14.9-126.5,44.2
	c-36.7,29.3-59.7,67.1-69.8,113c-37.8,8.8-69.1,28-93.4,58C58.9,513.8,46.8,548.6,46.8,587.3z"/>
</svg>
