<?xml version="1.0" encoding="utf-8"?>
<!-- Generator: Adobe Illustrator 26.0.2, SVG Export Plug-In . SVG Version: 6.00 Build 0)  -->
<svg version="1.1" id="Calque_1" xmlns="http://www.w3.org/2000/svg" xmlns:xlink="http://www.w3.org/1999/xlink" x="0px" y="0px"
	 viewBox="0 0 1000 1000" style="enable-background:new 0 0 1000 1000;" xml:space="preserve">
<g>
	<path d="M600.4,687.1v-47c0-3.9,2.4-5.9,7-5.9c29.8-1.4,55.4-13.4,76.5-35.8s31.6-48.8,31.6-79.3c0-30.9-11.5-57.2-34.4-79.7
		c-22.8-22.5-49.8-33.7-81-33.7h-56.5c-4.3,0-6.4-2.1-6.4-5.9l-2.7-20.4c-4.3-37.9-20.4-69.5-48.8-95.1
		c-28.5-25.6-61.8-38.2-100.1-38.2s-71.6,12.6-100,38.2c-28.4,25.3-44.3,57.2-48.1,95.1l-2.1,18.6c0,4.5-2.5,6.6-7,6.6l-18.6,1.1
		c-29.1,3.5-53.7,16.2-73.3,37.5c-19.7,21.8-29.6,46.8-29.6,75.9c0,30.5,10.6,56.9,31.6,79.3c21.1,22.5,46.3,34.4,76.5,35.8
		c3.9,0,6,2,6,5.9v47c0,3.8-2.1,5.9-6,5.9c-47-2.1-86.7-20-119.3-53.7C63,605.7,46.7,565.6,46.7,519c0-40.4,13-76.1,38-107.8
		c24.9-31.6,56.9-51.6,95.8-60.7c10.9-47.7,35.5-87,73.7-117.6c38.2-30.6,82.2-46,131.6-46c48.4,0,91.6,15.1,129.2,44.9
		c37.5,29.8,62.4,68.1,73.7,115.1H600c31.2,0,60.7,8.1,87.4,23.2c26.6,15.1,48.1,36.1,63.5,62.5c15.8,26.3,23.5,55.5,23.5,86.7
		c0,30.5-7.4,59.3-22.1,85.6c-14.8,26.3-35.2,47.4-60.8,63.2c-25.7,15.8-53.7,24.2-84.2,24.9C602.7,693.1,600.4,690.9,600.4,687.1z
		 M248.6,738.2c-6-5-9.4-11.1-10-18.5v-3.7c0-6.4,2-12.4,6.6-17.8l72.1-93.8c5.4-6,12.1-9.8,20.1-10.4c8.1-0.6,15.1,1.3,21.1,6.4
		c5.7,4.7,9.1,11,9.8,19.1c0.6,8.1-1.7,15.1-6.4,21.1l-73.1,94.5c-4.7,5.7-11.1,9.1-19.2,9.7c-1,0.1-1.9,0.1-2.9,0.1
		C259.8,745,253.9,742.7,248.6,738.2z M452,775.2c-6-5-9.3-11-10-18.4v-3.7c0-6.4,2-12.5,6.7-17.8l72.1-93.9
		c5.3-6,12.1-9.7,20.1-10.4c8-0.6,15.1,1.4,21.1,6.4c5.7,4.7,9.1,11,9.7,19c0.6,8.1-1.6,15.1-6.4,21.1l-73.1,94.6
		c-4.7,5.7-11.1,9.1-19.2,9.8c-0.9,0.1-1.8,0.1-2.6,0.1C463.3,782,457.4,779.7,452,775.2z M193.3,824.1c-7.7-3.4-13.1-8.8-15.5-16.2
		c-2.3-5.4-2.1-12.4,1-20.7c2.7-7.4,7.7-12.4,15.1-15.4s14.7-2.7,22.2,0.6c7,3.4,12,8.4,15.1,15.4c3.3,7.1,3,13.7,0,20.8
		c-2.7,7.4-7.7,12.8-15.4,15.7c-3.8,1.5-7.5,2.2-11.1,2.2C200.8,826.6,197,825.8,193.3,824.1z M298.9,821.1
		c-6.7-5.3-10.4-11.7-11.1-19.4v-3.3c0-6.4,2.1-12.4,6.4-17.5l139.5-176.3c4.7-6.1,11-9.4,18.8-10.4c7.7-1,14.7,1,20.7,5.7
		c6,5.7,9.7,12.1,10.4,19.8c0.7,7.6-1,14.7-5.6,21.4l-60.1,75.8l-78.8,99.5c-5,6.7-11.7,10.4-20.1,11.4c-1.3,0.1-2.5,0.2-3.7,0.2
		C308.6,828,303.1,825.7,298.9,821.1z M396.8,861c-7.7-3.3-13.1-8.7-15.5-16.1c-2.3-5.4-2-12.5,1.1-20.8c2.7-7.4,7.6-12.4,15.1-15.4
		c7.4-3,14.7-2.7,22.1,0.7c7.1,3.3,12,8.4,15.1,15.4c3.3,7,3,13.7,0,20.8c-2.7,7.4-7.7,12.7-15.4,15.8c-3.7,1.4-7.4,2.2-11,2.2
		C404.3,863.6,400.5,862.7,396.8,861z M249.2,903.2c-7.4-3-12.4-8-15.4-15.4c-1.4-4.8-2-8.1-2-10.1c0-4,1-8,2.7-11.7
		c2.3-7.1,7.4-12.1,15.1-15.1c7.7-3,15.1-3,22.4,0.3c7.4,2.7,12.4,7.7,15.1,15.4c3,7.7,2.7,15.1-0.7,22.4
		c-2.6,7.1-7.7,12.1-14.7,14.8c-3.7,1-7.4,1.6-10.4,1.6C257,905.6,252.9,904.6,249.2,903.2z"/>
	<path d="M467.2,158.9c-4.1,3.7-3.3,6.5,2.9,8.6c17.6,7.8,32.2,15.1,44.1,22.4c4.5,1.2,7.8,0.8,9-1.2c24.9-23.3,53.5-35.1,86.5-35.1
		s61.2,11,85.7,33.1c24.1,22,37.5,49.4,40.4,81.6l3.6,26.1h58c26.5,0,49.4,9.4,68.6,28.6s28.6,41.6,28.6,67.7
		c0,24.5-8.6,45.7-25.3,64.1c-16.7,18.4-37.5,28.6-62.4,31.4c-4.1,0-6.1,2-6.1,6.5v46.1c0,4.5,2,6.5,6.1,6.5
		c41.2-2.5,75.9-18.8,104.1-48.6c28.2-29.8,42.5-65.3,42.5-106.1c0-43.3-15.1-80-45.7-110.2c-30.6-30.6-67.4-45.7-110.2-45.7h-6.1
		c-10.6-40.8-33.1-74.3-67.4-100.8c-33.9-26.5-72.2-39.6-114.3-39.6C552.5,94,504.7,115.6,467.2,158.9z"/>
</g>
</svg>
