<?xml version="1.0" encoding="utf-8"?>
<!-- Generator: Adobe Illustrator 26.0.2, SVG Export Plug-In . SVG Version: 6.00 Build 0)  -->
<svg version="1.1" id="Calque_1" xmlns="http://www.w3.org/2000/svg" xmlns:xlink="http://www.w3.org/1999/xlink" x="0px" y="0px"
	 viewBox="0 0 1000 1000" style="enable-background:new 0 0 1000 1000;" xml:space="preserve">
<path d="M795.7,499.6c0-10.2,3.4-18.8,10.3-26.4c6.8-6.8,14.9-10.2,24.3-10.2h86.2c9.8,0,18.4,3.8,25.6,11.1
	c7.3,7.3,11.1,15.8,11.1,25.6c0,9.8-3.8,18.4-11.1,25.6c-7.3,7.2-15.8,10.7-25.6,10.7h-86.2c-9.8,0-18.4-3.4-24.8-10.7
	C799.2,517.9,795.7,509.8,795.7,499.6z M699.3,266.5c0-10.7,3.4-19.2,9.8-25.2l60.6-62.7c7.3-6.8,15.8-10.2,25.2-10.2
	c10.2,0,18.8,3.4,25.6,10.7c7.2,7.3,10.7,15.8,10.7,25.6c0,10.7-3.4,19.6-10.3,26.4l-62.3,61c-7.7,6.8-16.2,10.2-25.6,10.2
	c-9.8,0-17.5-3.4-23.9-10.2C702.7,285.3,699.3,276.8,699.3,266.5z M699.3,732.6c0-9.8,3.4-17.9,9.8-23.9c6.4-6.8,14.5-9.8,23.9-9.8
	c10.3,0,18.8,3.4,25.6,9.8l62.3,61c6.8,7.3,10.3,16.2,10.3,26s-3.4,18.4-10.3,25.2c-17.1,13.2-34.1,13.2-51.2,0l-60.6-60.6
	C702.7,752.6,699.3,743.7,699.3,732.6z M463.7,170.1V83c0-9.8,3.4-18.4,10.7-25.6c7.3-7.3,15.8-11.1,26.1-11.1
	c10.2,0,18.4,3.4,25.6,10.7c7.3,7.3,10.7,15.8,10.7,25.6v87.5c0,9.8-3.4,17.9-10.7,24.8c-7.2,6.8-15.8,9.8-25.6,9.8
	c-9.8,0-18.8-3.4-25.6-9.8C468,188.4,463.7,179.9,463.7,170.1z M463.7,831.6c0-10.2,3.4-18.8,10.7-25.6s15.8-10.2,25.6-10.2
	c10.2,0,19.2,3.4,26,10.2s10.3,15.4,10.3,25.6v84.9c0,10.2-3.4,19.2-10.7,26.4c-7.3,7.3-15.8,10.7-25.6,10.7s-18.8-3.4-25.6-10.7
	c-7.3-7.2-10.7-16.2-10.7-26.4V831.6z M350.2,499.6c0,41.8,14.5,77.3,44,106.7c29,29.4,64.4,44.4,106.3,44.4
	c41.8,0,77.3-14.9,106.7-44.4s44.4-64.9,44.4-106.7c0-41-14.9-76-44.4-105.4c-29.4-29-64.9-43.5-106.7-43.5
	c-41.4,0-76.8,14.5-105.9,43.5C364.7,423.6,350.2,458.6,350.2,499.6z M277.6,499.6c0-39.7,9.8-76.8,29.9-111
	c20.1-34.1,46.9-61.4,81.5-81.5c34.6-20.1,71.3-29.9,111-29.9c29.9,0,58.5,6,86.2,17.9c27.3,11.9,51.2,27.7,70.9,47.8
	c20.1,20.1,35.8,43.5,47.4,70.8s17.5,56.3,17.5,86.2c0,40.1-9.8,77.3-29.9,111.4s-46.9,61-81.1,81.1
	c-34.1,20.1-71.3,29.9-111.4,29.9s-77.3-9.8-111.4-29.9c-34.1-20.1-61-46.9-81.1-81.1C287.9,576.8,277.6,539.7,277.6,499.6z
	 M168.8,204.7c0-9.8,3.4-18.4,9.8-26c8.5-7.3,17.5-10.7,27.3-10.7c9.4,0,17.9,3.4,25.2,10.2l61,62.7c6.8,6.4,10.2,14.9,10.2,25.2
	c0,10.2-3.4,18.8-10.2,25.6S276.8,302,266.5,302c-10.3,0-18.8-3.4-25.2-10.2l-62.3-61C172.2,223.9,168.8,214.9,168.8,204.7z
	 M168.8,795.3c0-9.8,3.4-18.3,9.8-26l62.7-61c6.4-6.8,14.9-9.8,25.2-9.8c10.2,0,18.8,3.4,25.6,9.8c6.8,6.4,10.2,14.5,10.2,24.3
	c0,10.2-3.4,19.6-10.2,27.3l-60.6,60.6c-17.5,13.7-35,13.7-52.5,0C172.2,813.7,168.8,805.2,168.8,795.3z M46.8,499.6
	c0-10.2,3.4-19.2,10.7-26.4c7.3-6.8,16.2-10.2,25.6-10.2h87.1c9.8,0,17.9,3.4,24.8,10.7c6.4,7.3,9.8,15.8,9.8,26
	c0,10.2-3,18.8-9.4,26.1c-6.4,7.2-14.9,10.7-24.8,10.7h-87c-9.8,0-18.4-3.4-25.6-10.7C50.6,518.3,46.8,509.8,46.8,499.6z"/>
</svg>
