<?xml version="1.0" encoding="utf-8"?>
<!-- Generator: Adobe Illustrator 26.0.2, SVG Export Plug-In . SVG Version: 6.00 Build 0)  -->
<svg version="1.1" id="Calque_1" xmlns="http://www.w3.org/2000/svg" xmlns:xlink="http://www.w3.org/1999/xlink" x="0px" y="0px"
	 viewBox="0 0 1000 1000" style="enable-background:new 0 0 1000 1000;" xml:space="preserve">
<g>
	<path d="M600.4,703v-47c0-3.9,2.4-5.9,7-5.9c29.8-1.4,55.4-13.4,76.5-35.8s31.6-48.8,31.6-79.3c0-30.9-11.5-57.2-34.4-79.7
		c-22.8-22.5-49.8-33.7-81-33.7h-56.5c-4.3,0-6.4-2.1-6.4-5.9l-2.7-20.4c-4.3-37.9-20.4-69.5-48.8-95.1
		c-28.5-25.6-61.8-38.2-100.1-38.2s-71.6,12.6-100,38.2c-28.4,25.3-44.3,57.2-48.1,95.1l-2.1,18.6c0,4.5-2.5,6.6-7,6.6l-18.6,1.1
		c-29.1,3.5-53.7,16.2-73.3,37.5c-19.7,21.8-29.6,46.8-29.6,75.9c0,30.5,10.6,56.9,31.6,79.3c21.1,22.5,46.3,34.4,76.5,35.8
		c3.9,0,6,2,6,5.9v47c0,3.8-2.1,5.9-6,5.9c-47-2.1-86.7-20-119.3-53.7C63,621.6,46.7,581.5,46.7,534.9c0-40.4,13-76.1,38-107.8
		c24.9-31.6,56.9-51.6,95.8-60.7c10.9-47.7,35.5-87,73.7-117.6c38.2-30.6,82.2-46,131.6-46c48.4,0,91.6,15.1,129.2,44.9
		c37.5,29.8,62.4,68.1,73.7,115.1H600c31.2,0,60.7,8.1,87.4,23.2c26.6,15.1,48.1,36.1,63.5,62.5c15.8,26.3,23.5,55.5,23.5,86.7
		c0,30.5-7.4,59.3-22.1,85.6c-14.8,26.3-35.2,47.4-60.8,63.2c-25.7,15.8-53.7,24.2-84.2,24.9C602.7,708.9,600.4,706.8,600.4,703z
		 M515.3,726.9c-4.2-4-6.3-8.9-6.3-14.9c0-6.2,2.1-11.2,6-15.3c4.1-4,9.1-6,15.3-6c6.3,0,11.2,1.8,15.4,6c3.9,4.1,6,9.1,6,15.3
		c0,6-1.8,10.9-6,15.1c-4.2,3.9-9.1,6-15.4,6C524.2,733.1,519.2,731,515.3,726.9z M433.4,753.1c-5.2-1.1-9.1-3.7-11.7-7.8
		c-2.9-4.2-3.9-8.4-3.6-12.2c0-2.6,0.3-5,0.5-7l6-23.5c1.8-5.9,5.2-10.7,10.7-13.8c5.5-3.1,10.9-3.9,16.6-2.1
		c6.3,1.8,10.6,5.2,13.8,10.4c3.1,5.2,3.6,10.6,1.8,16.4l-6.8,23.4c-2.1,7-5.4,12-10.7,14.6c-3.2,1.6-6.6,2.4-10.2,2.4
		C437.7,754,435.6,753.7,433.4,753.1z M509.3,810.4c-1.6-0.3-2.9-0.5-3.7-0.5c-5.5-1.6-9.4-4.5-12-8.4c-2.6-3.9-3.9-8.1-3.9-12.5
		c0-1,0.3-2.1,0.6-3.9c0.2-1.6,0.2-2.6,0.2-2.9l2.3-15.4c1.8-6.2,5.5-10.6,10.7-13.7c5.2-3.1,11.2-3.7,17.7-2.1
		c5.7,1.8,10.1,5.2,13.3,10.7c3.1,5.5,3.7,10.9,1.8,16.4l-3.6,15.6c-2.6,11.4-9.1,17.1-19.8,17.1
		C512.2,810.9,510.9,810.6,509.3,810.4z M408.1,807.2c-4.2-4.2-6.2-9.1-6.2-15.1c0-6,2-11.2,5.9-15.1c4.2-3.9,9.1-6,15.4-6
		c6.2,0,11.2,1.8,15.3,6c4,4.1,6,9.1,6,15.1c0,6.2-1.8,11.2-6,15.4c-4.1,3.9-9.1,5.9-15.3,5.9C417.5,813.5,412.3,811.4,408.1,807.2z
		 M274.2,885l37.2-109.5h-55.4c-3.7,0-5-2.1-3.7-5.7c24.6-68.8,32.2-81.9,60.9-160.3c1.6-2.6,3.6-3.9,5.9-3.9h77.1
		c4.4,0,5.5,2,3.6,5.7l-64.8,121h57c1.8,0,3.1,0.5,3.6,1.8c0.6,1.3,0.6,2.6-0.5,3.7L281.7,885H274.2z M398.2,888.9
		c-5.7-1.6-9.9-4.4-12.8-8.6c-2.8-4.2-4.2-8.3-4.2-12.7c0-0.8,0.3-2.8,1.1-6l3.4-15.4c1.8-5.7,5.2-10.1,10.6-13.2
		c5.5-3.2,11-3.7,16.4-1.8c6.3,1.3,10.6,4.4,13.8,9.6c2.8,5.2,3.6,10.9,2.1,17.7l-3.4,15.3c-2.6,10.7-9.6,15.9-20.8,15.9
		C402.7,889.7,400.5,889.5,398.2,888.9z"/>
	<path d="M467.2,174.8c-4.1,3.7-3.3,6.5,2.9,8.6c17.6,7.8,32.2,15.1,44.1,22.4c4.5,1.2,7.8,0.8,9-1.2c24.9-23.3,53.5-35.1,86.5-35.1
		s61.2,11,85.7,33.1c24.1,22,37.5,49.4,40.4,81.6l3.6,26.1h58c26.5,0,49.4,9.4,68.6,28.6s28.6,41.6,28.6,67.7
		c0,24.5-8.6,45.7-25.3,64.1c-16.7,18.4-37.5,28.6-62.4,31.4c-4.1,0-6.1,2-6.1,6.5v46.1c0,4.5,2,6.5,6.1,6.5
		c41.2-2.5,75.9-18.8,104.1-48.6c28.2-29.8,42.5-65.3,42.5-106.1c0-43.3-15.1-80-45.7-110.2c-30.6-30.6-67.4-45.7-110.2-45.7h-6.1
		c-10.6-40.8-33.1-74.3-67.4-100.8c-33.9-26.5-72.2-39.6-114.3-39.6C552.5,109.9,504.7,131.5,467.2,174.8z"/>
</g>
</svg>
