<?xml version="1.0" encoding="utf-8"?>
<!-- Generator: Adobe Illustrator 26.0.2, SVG Export Plug-In . SVG Version: 6.00 Build 0)  -->
<svg version="1.1" id="Calque_1" xmlns="http://www.w3.org/2000/svg" xmlns:xlink="http://www.w3.org/1999/xlink" x="0px" y="0px"
	 viewBox="0 0 1000 1000" style="enable-background:new 0 0 1000 1000;" xml:space="preserve">
<g>
	<path d="M762.9,823.6l-44.4-141.7c-4.1-12.6-15.5-21.1-28.5-21.1s-24.8,8.5-28.5,21.1l-45.1,143.9c-0.4,0.7-0.4,1.5-0.7,2.2
		c-2.2,7.8-3.7,15.5-3.7,23.3c0,42.9,34.8,78.1,78.1,78.1c42.9,0,78.1-34.8,78.1-78.1c0-7.4-1.1-15.2-3.3-22.2
		C764.4,826.9,763.6,825.4,762.9,823.6"/>
	<path d="M919.8,75.4l-344.1-4.8c-1.1,0-2.6,0-3.7,0.4v-0.4l-1.5,0.7c-2.6,0.4-4.8,1.5-7,2.6l-99.5,38.5c-2.2-1.1-4.8-1.9-7.8-1.9
		h-40v-4.1c0-10.4-8.1-18.5-18.5-18.5H360c-10.4,0-18.5,8.1-18.5,18.5v4.1h-42.9c-10.4,0-18.5,8.1-18.5,18.5V152
		c0,7,4.1,13.3,10,16.3v102.1h-68.8c-5.9,0-11.5,3-14.8,7.4h-121c-16.7,0-30,13.3-30,30v98.8c0,16.6,13.3,30,30,30h120.3
		c3.3,5.2,8.9,8.5,15.5,8.5h312.3c6.3,0,12.2-3.3,15.5-8.5h44.8c10.4,0,18.5,8.1,18.5,18.5v57.4c-13.7,2.6-24,14.8-24,29.2v50.7
		c0,16.6,13.3,30,30,30h147.6c16.7,0,30-13.3,30-30v-50.7c0-15.2-11.1-27.8-25.9-29.6V405.8c0-70.3-57.3-127.7-127.6-127.7h-93.6
		c-3.3-4.4-8.9-7.4-14.8-7.4H465v-94.7l107.3-45.9c1.1,0,2.2,0.4,3.3,0.4l344.1-4.8c13.7,0,24.8-11.1,24.8-24.8
		C944.9,86.5,933.5,75.4,919.8,75.4"/>
</g>
</svg>
