<?xml version="1.0" encoding="utf-8"?>
<!-- Generator: Adobe Illustrator 26.0.2, SVG Export Plug-In . SVG Version: 6.00 Build 0)  -->
<svg version="1.1" id="Calque_1" xmlns="http://www.w3.org/2000/svg" xmlns:xlink="http://www.w3.org/1999/xlink" x="0px" y="0px"
	 viewBox="0 0 1000 1000" style="enable-background:new 0 0 1000 1000;" xml:space="preserve">
<g>
	<path d="M529.2,401.4l-17.8-56.6c-1.5-4.8-6.3-8.5-11.5-8.5c-5.2,0-10,3.3-11.5,8.5l-18.1,57.4c0,0.4,0,0.7-0.4,0.7
		c-1.1,3-1.5,6.3-1.5,9.2c0,17,14.1,31.1,31.1,31.1c17,0,31.1-14.1,31.1-31.1c0-3-0.4-5.9-1.5-8.9
		C529.6,402.9,529.2,402.1,529.2,401.4"/>
	<path d="M529.2,562.7l-17.8-56.6c-1.5-4.8-6.3-8.5-11.5-8.5c-5.2,0-10,3.3-11.5,8.5l-18.1,57.4c0,0.4,0,0.7-0.4,0.7
		c-1.1,3-1.5,6.3-1.5,9.2c0,17,14.1,31.1,31.1,31.1c17,0,31.1-14.1,31.1-31.1c0-3-0.4-5.9-1.5-8.9
		C529.6,564.2,529.2,563.5,529.2,562.7"/>
	<path d="M529.2,717.7l-17.8-56.6c-1.5-4.8-6.3-8.5-11.5-8.5c-5.2,0-10,3.3-11.5,8.5l-18.1,57.4c0,0.4,0,0.7-0.4,0.7
		c-1.1,3-1.5,6.3-1.5,9.2c0,17,14.1,31.1,31.1,31.1c17,0,31.1-14.1,31.1-31.1c0-3-0.4-5.9-1.5-8.9
		C529.6,719.2,529.2,718.5,529.2,717.7"/>
	<path d="M529.2,872.8l-17.8-56.6c-1.5-4.8-6.3-8.5-11.5-8.5c-5.2,0-10,3.3-11.5,8.5l-18.1,57.4c0,0.4,0,0.7-0.4,0.7
		c-1.1,3-1.5,6.3-1.5,9.2c0,17,14.1,31.1,31.1,31.1c17,0,31.1-14.1,31.1-31.1c0-3-0.4-5.9-1.5-8.9
		C529.6,874.3,529.2,873.5,529.2,872.8"/>
	<path d="M380.9,395.1l10.4-58.5c0.7-5.2-1.5-10.4-6.3-12.6c-4.8-2.6-10.4-1.5-14.1,2.2l-42.2,42.6c-0.4,0.4-0.4,0.4-0.7,0.7
		c-2.2,2.2-4.1,4.8-5.5,7.4c-7.8,15.2-1.9,34,13.3,41.8c15.2,7.8,34,1.9,41.8-13.3c1.5-2.6,2.2-5.5,3-8.5
		C380.9,396.6,380.9,395.8,380.9,395.1"/>
	<path d="M306.5,538.3l10.4-58.5c0.7-5.2-1.5-10.4-6.3-12.6c-4.8-2.6-10.4-1.5-14.1,2.2L254,512c-0.4,0.4-0.4,0.4-0.7,0.7
		c-2.2,2.2-4.1,4.8-5.6,7.4c-7.8,15.2-1.9,34,13.3,41.8c15.2,7.8,34,1.8,41.8-13.3c1.5-2.6,2.2-5.5,3-8.5
		C306.5,539.8,306.5,539,306.5,538.3"/>
	<path d="M235.1,675.9l10.4-58.5c0.7-5.2-1.5-10.4-6.3-12.6c-4.8-2.6-10.4-1.5-14.1,2.2l-42.6,42.5c-0.4,0.4-0.4,0.4-0.7,0.7
		c-2.2,2.2-4.1,4.8-5.6,7.4c-7.8,15.2-1.8,34,13.3,41.8c15.2,7.8,34,1.9,41.8-13.3c1.5-2.6,2.2-5.5,3-8.5
		C234.7,677.4,235.1,676.7,235.1,675.9"/>
	<path d="M163.7,813.6l10.4-58.5c0.7-5.2-1.5-10.4-6.3-12.6c-4.8-2.6-10.4-1.5-14.1,2.2l-42.5,42.5c-0.4,0.4-0.4,0.4-0.7,0.7
		c-2.2,2.2-4.1,4.8-5.6,7.4c-7.8,15.2-1.8,34,13.3,41.8s34,1.8,41.8-13.3c1.5-2.6,2.2-5.6,3-8.5
		C163.3,814.7,163.7,813.9,163.7,813.6"/>
	<path d="M619.1,395.1l-10.4-58.5c-0.7-5.2,1.5-10.4,6.3-12.6c4.8-2.6,10.4-1.5,14.1,2.2l42.5,42.5c0.4,0.4,0.4,0.4,0.7,0.7
		c2.2,2.2,4.1,4.8,5.5,7.4c7.8,15.2,1.9,34-13.3,41.8c-15.2,7.8-34,1.9-41.8-13.3c-1.5-2.6-2.2-5.5-3-8.5
		C619.1,396.6,619.1,395.8,619.1,395.1"/>
	<path d="M693.5,538.3l-10.4-58.5c-0.7-5.2,1.5-10.4,6.3-12.6c4.8-2.6,10.4-1.5,14.1,2.2l42.6,42.6c0.4,0.4,0.4,0.4,0.7,0.7
		c2.2,2.2,4.1,4.8,5.5,7.4c7.8,15.2,1.8,34-13.3,41.8c-15.2,7.8-34,1.8-41.8-13.3c-1.5-2.6-2.2-5.5-3-8.5
		C693.5,539.8,693.5,539,693.5,538.3"/>
	<path d="M764.9,675.9l-10.4-58.5c-0.7-5.2,1.5-10.4,6.3-12.6c4.8-2.6,10.4-1.5,14.1,2.2l42.5,42.5c0.4,0.4,0.4,0.4,0.7,0.7
		c2.2,2.2,4.1,4.8,5.5,7.4c7.8,15.2,1.9,34-13.3,41.8s-34,1.9-41.8-13.3c-1.5-2.6-2.2-5.5-3-8.5
		C765.3,677.4,764.9,676.7,764.9,675.9"/>
	<path d="M836.3,813.6L826,755.1c-0.7-5.2,1.5-10.4,6.3-12.6c4.8-2.6,10.4-1.5,14.1,2.2l42.5,42.5c0.4,0.4,0.4,0.4,0.7,0.7
		c2.2,2.2,4.1,4.8,5.5,7.4c7.8,15.2,1.8,34-13.3,41.8c-15.2,7.8-34,1.8-41.8-13.3c-1.5-2.6-2.2-5.6-3-8.5
		C836.7,814.7,836.3,813.9,836.3,813.6"/>
	<path d="M645.8,85.4H354.2c-10.4,0-18.5,8.1-18.5,18.5V169c0,10.4,8.1,18.5,18.5,18.5h60.3c10.4,0,18.5,8.1,18.5,18.5v54.4
		c0,10.4,8.1,18.5,18.5,18.5h96.9c10.4,0,18.5-8.1,18.5-18.5V206c0-10.4,8.1-18.5,18.5-18.5h60.3c10.4,0,18.5-8.1,18.5-18.5v-65.1
		C664.3,93.9,656.1,85.4,645.8,85.4"/>
</g>
</svg>
