<?xml version="1.0" encoding="utf-8"?>
<!-- Generator: Adobe Illustrator 26.0.2, SVG Export Plug-In . SVG Version: 6.00 Build 0)  -->
<svg version="1.1" id="Calque_1" xmlns="http://www.w3.org/2000/svg" xmlns:xlink="http://www.w3.org/1999/xlink" x="0px" y="0px"
	 viewBox="0 0 1000 1000" style="enable-background:new 0 0 1000 1000;" xml:space="preserve">
<style type="text/css">
	.st0{fill:#FFFFFF;}
</style>
<g>
	<path d="M129.1,500.4c0,92.9,31.1,347.4,31.1,371.5s-75.5,31.1-51.8,58.1c34.8,40,36.3,5.2,87.7-5.2
		c51.4-10.4,206.5,20.7,304.1,20.7l0,0c98,0,252.7-31.1,304.1-20.7c51.4,10.4,52.9,45.1,87.7,5.2c23.7-27.4-51.8-34-51.8-58.1
		s31.1-278.6,31.1-371.5V500c0-92.9-31.1-347.4-31.1-371.5s75.5-31.1,51.8-58.1c-34.8-40-36.3-5.2-87.7,5.2
		C752.9,86,597.9,54.9,500.2,54.9l0,0c-98,0-252.7,31.1-304.1,20.7c-51.8-10.7-52.9-45.5-88.1-5.6c-23.7,27.4,51.8,34,51.8,58.1
		s-31.1,278.6-31.1,371.5"/>
	<g>
		<path class="st0" d="M614.9,316.8c10,48.5,24.4,143.6-23.3,175.8c-27,18.1-53.7,19.2-74.7,10.7v202h-20.4V635
			c-15.9,16.7-38.1,25.9-61.1,25.2c-57.7,0.4-99.5-85.8-118.8-131.7c-1.5-3.3-0.7-6.7,1.5-9.6c3.3-3.7,8.9-4.4,13-1.1
			c30.7,25.9,94-7.8,134.3,2.6c11.8,3,22.9,9.2,31.5,17.8V490c-26.6-23.3-36.3-64.8-8.9-96.2c27-31.5,98.8-40,109.1-78.4
			c1.5-4.8,6.3-7.8,11.1-6.3c0,0,0,0,0.4,0C611.9,310.6,614.1,313.5,614.9,316.8L614.9,316.8z M496.5,589.2v-5.9
			c-0.7-21.5-15.2-39.6-35.9-44.8c-32.2-8.5-78.4,15.2-116.9,5.9c15.5,32.6,50.7,97.7,91.4,97.7c26.6,0,44.4-11.8,53.6-27.4
			c-28.1-0.4-55.9-8.9-79.9-23.7c-26.6-17.8-25.2-20.7,5.2-11.5C440.6,588.4,468.7,591.8,496.5,589.2L496.5,589.2z M501.3,468.5
			c24.4-13.7,45.9-32.6,62.9-54.8c19.6-24.4,22.6-23.3,10.7,6.7c-11.5,25.9-29.6,48.1-52.9,64.8c16.6,7.8,37.7,7,59.9-7.8
			c34-22.9,26.3-96.9,20.4-132.5c-26.6,29.6-78.1,36.3-99.5,61.4C486.5,423.8,486.1,450.4,501.3,468.5"/>
		<path class="st0" d="M500.2,783c-156.1,0-283-126.9-283-283s126.9-283.1,283-283.1s283,126.9,283,283.1S656.3,783,500.2,783
			 M500.2,246.9c-139.9,0-253.4,113.6-253.4,253.5s113.6,253.5,253.4,253.5s253.5-113.6,253.5-253.5S640,246.9,500.2,246.9"/>
	</g>
</g>
</svg>
