<?xml version="1.0" encoding="utf-8"?>
<!-- Generator: Adobe Illustrator 26.0.2, SVG Export Plug-In . SVG Version: 6.00 Build 0)  -->
<svg version="1.1" id="Calque_1" focusable="false" xmlns="http://www.w3.org/2000/svg" xmlns:xlink="http://www.w3.org/1999/xlink"
	 x="0px" y="0px" viewBox="0 0 1000 1000" style="enable-background:new 0 0 1000 1000;" xml:space="preserve">
<path d="M954,633.2c4.1-22,4.1-44.5,0-66.6l40.3-23.3c4.7-2.7,6.7-8.1,5.2-13.3c-10.5-33.8-28.4-64.4-51.9-89.7
	c-3.6-3.9-9.4-4.8-14.1-2.2l-40.3,23.3c-17-14.5-36.6-25.8-57.7-33.3v-46.6c0-5.3-3.8-10-8.9-11.1c-34.8-7.8-70.3-7.5-103.4,0
	c-5.2,1.1-8.9,5.8-8.9,11.1v46.6c-21.1,7.5-40.6,18.8-57.7,33.3l-40.3-23.3c-4.5-2.7-10.5-1.7-14.1,2.2
	c-23.4,25.3-41.4,55.9-51.9,89.7c-1.6,5.2,0.6,10.6,5.2,13.3l40.3,23.3c-4.1,22-4.1,44.5,0,66.6l-40.3,23.3
	c-4.7,2.7-6.7,8.1-5.2,13.3c10.5,33.8,28.4,64.2,51.9,89.7c3.6,3.9,9.4,4.8,14.1,2.2l40.3-23.3c17,14.5,36.6,25.8,57.7,33.3v46.6
	c0,5.3,3.8,10,8.9,11.1c34.8,7.8,70.3,7.5,103.4,0c5.2-1.1,8.9-5.8,8.9-11.1v-46.6c21.1-7.5,40.6-18.8,57.7-33.3l40.3,23.3
	c4.5,2.7,10.5,1.7,14.1-2.2c23.4-25.3,41.4-55.9,51.9-89.7c1.6-5.2-0.6-10.6-5.2-13.3L954,633.2z M775.1,675.7
	c-41.9,0-75.8-34.1-75.8-75.8s34.1-75.8,75.8-75.8s75.8,34.1,75.8,75.8C850.9,641.7,817,675.7,775.1,675.7z M150,450
	c55.2,0,100-44.8,100-100s-44.8-100-100-100S50,294.8,50,350S94.9,450,150,450z M500.1,499.9c3,0,5.8-0.8,8.8-0.9
	c13-33.9,32-65.8,56.7-92.5c11.6-12.5,28-19.7,45.2-19.7c10.8,0,21.4,2.8,30.6,8.3l12.3,7.2c1.3-0.8,2.5-1.4,3.8-2.2
	c10.9-22.8,17.5-48.1,17.5-75c0-96.7-78.3-175-175-175S325,228.3,325,325S403.3,499.9,500.1,499.9z M664.4,803.9
	c-3.6-1.9-7.2-4.1-10.6-6.1c-12.8,7.5-23.9,15.3-43,15.3c-17,0-33.4-7.2-45.2-19.7c-28.6-30.9-50.5-68.6-62.8-108.8
	c-16.7-53.9,38.9-77.7,40.3-78.6c-0.2-4.1-0.2-8.1,0-12.2l-12.3-7.2c-5.9-3.4-10.9-7.8-15.3-12.7c-5.2,0.3-10.2,0.9-15.3,0.9
	c-38.4,0-74.4-9.4-107-25h-13c-99.5,0-180.2,80.6-180.2,180v45c0,41.4,33.6,75,75,75h399.1c-5.8-9.4-9.7-20-9.7-31.7L664.4,803.9
	L664.4,803.9z M270.5,529c-18.1-18-43-29.1-70.5-29.1H100c-55.2,0-100,44.8-100,100v50c0,27.7,22.3,50,50,50h103
	C162.8,625.9,207.5,563.5,270.5,529z"/>
</svg>
