<?xml version="1.0" encoding="utf-8"?>
<!-- Generator: Adobe Illustrator 26.0.2, SVG Export Plug-In . SVG Version: 6.00 Build 0)  -->
<svg version="1.1" id="Calque_1" xmlns="http://www.w3.org/2000/svg" xmlns:xlink="http://www.w3.org/1999/xlink" x="0px" y="0px"
	 viewBox="0 0 1000 1000" style="enable-background:new 0 0 1000 1000;" xml:space="preserve">
<g>
	<path d="M51,653.7l76.6-26.3l72.9,26.3L350,755l179.5,45.1c0,0,150.6-104.3,161-107.7c10.7-3.3,65.9-70.3,65.9-70.3l64.4,31.8H949
		v256H51V653.7z"/>
	<path d="M673,253.3c20.7,20.7,0.4,74-44.8,119.1c-45.5,45.5-98.8,65.5-119.1,44.8c-20.7-20.7-0.4-74,44.8-119.1
		C599,252.6,652.3,232.6,673,253.3"/>
	<path d="M541.6,180.8c-7.8,28.1-64,36.6-125.8,19.6s-105.8-54-98-82.1s64-36.6,125.8-19.6C505.4,116.1,549.4,152.7,541.6,180.8"/>
	<path d="M597.1,603.7c-11.5,26.6-68.8,27.4-127.3,1.9c-58.8-25.5-96.9-68.1-85.5-94.7c11.5-26.6,68.8-27.4,127.3-1.9
		C570.9,534.9,609,577.1,597.1,603.7"/>
</g>
</svg>
