<?xml version="1.0" encoding="utf-8"?>
<!-- Generator: Adobe Illustrator 26.0.2, SVG Export Plug-In . SVG Version: 6.00 Build 0)  -->
<svg version="1.1" id="Calque_1" xmlns="http://www.w3.org/2000/svg" xmlns:xlink="http://www.w3.org/1999/xlink" x="0px" y="0px"
	 viewBox="0 0 1000 1000" style="enable-background:new 0 0 1000 1000;" xml:space="preserve">
<g>
	<path d="M838.7,415.1V288.5H651.9L53.6,105.8v37.7l474.7,145H53.6v72.1h171.7v71.8l-22.9-9.6c0,0,27.4,79.6,18.1,143.2
		c-7,41.4-21.8,81-43.7,116.9c0,0,106.6-38.1,150.2-72.1c43.3-34,67.3-108.4,67.3-108.4l-121-50.3v-91.8h204.2v71.8l-22.9-9.6
		c0,0,27.4,79.5,18.1,143.2c-7,41.4-21.8,81-43.7,116.9c0,0,106.6-38.1,150.2-72.2c43.3-34,67.3-108.4,67.3-108.4l-121-50.3V360
		h264.9v54c-54,10-95.8,52.2-105.8,105.8c-13.3,71.8,34,140.6,105.8,153.9s140.6-34,153.9-105.8
		C957.9,497.2,910.5,428.4,838.7,415.1 M814.3,617.1c-40,0-72.2-32.2-72.2-72.2l0,0c0-40,32.2-72.1,72.2-72.1s72.2,32.2,72.2,72.1
		S854.3,617.1,814.3,617.1"/>
	<path d="M893.1,838.7c-21.1,0.7-34.8-4.1-52.2-10.4c-10-3.7-21.5-7.8-34.8-11.1c-41.8-10-69.6-2.2-98.8,5.6
		c-17.8,4.8-38.1,10.4-66.2,13.3c-37,4.1-52.5-0.4-74-6.3c-21.8-5.9-48.8-13.3-101.4-13.7c-56.2-0.4-89.9,7.4-116.9,13.7
		c-30,7-49.6,11.5-89.9,4.1c-15.2-3-27.4-6.3-39.2-10c-22.2-6.7-43.3-13-77.7-13h-0.7c-30.3,0-61,5.2-91,14.8V885
		c30.3-11.8,60.7-18.1,91-18.1h0.4c26.3,0,42.2,4.8,62.2,10.4c12.6,3.7,26.6,7.8,44.4,11.1c52.2,10,81.8,3,113.2-4.4
		c25.2-5.9,54-12.6,103.6-12.2c45.1,0.4,66.6,6.3,87.3,11.8c24,6.7,47,12.6,94.3,7.8c32.6-3.3,56.2-10,75.5-15.2
		c26.6-7.4,42.9-11.8,71-5.2c10.4,2.6,19.2,5.5,28.5,9.2c18.1,6.7,38.5,14.1,67,14.1c2.2,0,4.1,0,6.3,0c18.5-0.7,36.6-4.1,54.8-10.4
		v-60.3C930.9,833.2,912,838.4,893.1,838.7"/>
	<path d="M893.1,747.3c-21.1,0.7-34.8-4.1-52.2-10.4c-10-3.7-21.5-7.8-34.8-11.1c-41.8-10-69.6-2.2-98.8,5.5
		c-17.8,4.8-38.1,10.4-66.2,13.3c-37,3.7-52.5-0.4-74-6.3c-21.8-5.9-48.8-13.3-101.4-13.7c-56.2-0.4-89.9,7.4-116.9,13.7
		c-30,7-49.6,11.5-89.9,4.1c-15.2-3-27.4-6.3-39.2-10c-22.2-6.7-43.3-12.9-77.7-12.9h-0.7c-30.3,0-61,5.2-91,14.8v59.2
		c30.3-11.8,60.7-18.1,91-18.1c26.6,0,42.6,4.4,62.5,10.4c12.6,3.7,26.6,7.8,44.4,11.1c52.2,10,81.8,3,113.2-4.4
		c25.2-5.9,54-12.6,103.6-12.2c45.1,0.4,66.6,6.3,87.3,11.8c24,6.7,47,12.9,94.3,7.8c32.6-3.3,56.2-10,75.5-15.2
		c26.6-7.4,42.9-11.8,71-5.2c10.4,2.6,19.2,5.6,28.5,9.2c18.1,6.7,38.5,14.1,67,14.1c2.2,0,4.1,0,6.3,0c18.5-0.7,36.6-4.1,54.8-10.4
		v-60.3C930.9,741.4,912,746.6,893.1,747.3"/>
</g>
</svg>
