<?xml version="1.0" encoding="utf-8"?>
<!-- Generator: Adobe Illustrator 26.0.2, SVG Export Plug-In . SVG Version: 6.00 Build 0)  -->
<svg version="1.1" id="Calque_1" xmlns="http://www.w3.org/2000/svg" xmlns:xlink="http://www.w3.org/1999/xlink" x="0px" y="0px"
	 viewBox="0 0 1000 1000" style="enable-background:new 0 0 1000 1000;" xml:space="preserve">
<g>
	<path d="M147.8,783.4c0,0,68.1,29.2,99.2,23.7c31.5-5.5,90.6-69.2,90.6-69.2s-93.6-13-122.8-5.2
		C185.9,740.5,147.8,783.4,147.8,783.4"/>
	<path d="M73,694.6c14.8,17.4,33.3,35.9,48.5,40.7c30.3,10,78.8-21.8,78.8-21.8s-28.5-54-57.7-62.2s-95.1,10-95.1,10
		S58.2,677.3,73,694.6"/>
	<path d="M245.8,851.9c0,0,44-27.4,64-41.8c0,0,55.1,17.8,86.2,7.8s82.5-73.6,82.5-73.6s-77.7-15.5-109.5-3.7
		c-31.8,11.8-72.5,68.1-72.5,68.1L245.8,851.9z"/>
	<path d="M207.7,684.7c4.4,5.2,9.2,9.6,14.8,13c29.2,17.4,117.7,9.6,117.7,9.6s-40.7-64.4-70.3-77.3c-29.2-13-91-3.3-91-3.3
		S188.5,662.1,207.7,684.7"/>
	<path d="M370.1,861.9l94-48.5c0,0,32.9,8.9,72.1,2.6c38.1-6.3,73.3-75.5,77-78.4c0,0-82.5-8.9-107.7,9.6
		c-14.1,10-29.2,35.5-53.6,58.1C427.9,827.5,394.2,847.1,370.1,861.9"/>
	<path d="M347.6,676.1c10,11.8,20.7,21.1,28.1,26.6c30,14.4,109.5,7,109.5,7s-39.2-68.8-65.9-81c-26.6-12.6-81.4,0.7-81.4,0.7
		l-71-59.6c0,0,36.6,43.3,53.3,59.9C325,646.5,336.1,662.8,347.6,676.1"/>
	<path d="M464.9,726.8c0,0,117.7-5.2,152.4-8.5c34.8-3.7,92.1-12.2,92.1-12.2l-11.8-13.7c0,0-47,14.4-79.5,20
		C584.7,718.3,464.9,726.8,464.9,726.8"/>
	<path d="M492.6,687.2c5.5,6.3,11.1,11.5,17,14.8c28.5,15.5,104-3,104-3s-38.5-57.7-66.2-72.5s-83.2-7.8-83.2-7.8
		c-14.8-15.2-45.5-40.3-52.9-48.5l1.5,1.5l42.2,49.6C454.5,621,471.1,662.5,492.6,687.2"/>
	<path d="M518.9,390.1c0,0,23.3,70.3,48.5,89.9c24.8,19.6,112.1,21.8,112.1,21.8s-52.5-78.4-77.7-95.1
		C576.2,389.8,518.9,390.1,518.9,390.1"/>
	<path d="M535.5,275.1c-3.3,22.6-4.8,48.5,1.8,63.3c13,29.2,68.8,44,68.8,44s21.5-57.4,8.1-84.4s-70.7-64.4-70.7-64.4
		S538.5,252.5,535.5,275.1z"/>
	<path d="M532.9,508.9c0,0,49.9,14.8,73.6,20c0,0,23.3,52.9,51.4,69.6c28.1,16.3,109.9,12.6,109.9,12.6s-40-68.1-70.3-84
		c-30.3-15.9-99.2-8.9-99.2-8.9L532.9,508.9z"/>
	<path d="M632.5,369c-1.1,6.7-1.1,13.3,0.4,19.6c6.7,33.3,71.4,94.3,71.4,94.3s20.7-73.3,11.1-104c-10-30.7-58.1-69.9-58.1-69.9
		S636.5,339.4,632.5,369"/>
	<path d="M608.4,608.4l98.8,37.7c0,0,15.2,30.3,46.2,55.5c30,24,105.1,4.4,109.9,5.2c0,0-48.5-67.3-78.8-74
		c-17-3.7-45.9,1.8-78.8-1.5C672.4,628,635.4,616.6,608.4,608.4"/>
	<path d="M732,467.8c-1.9,15.5-1.9,29.6-1.1,38.5c9.2,31.8,67.7,86.2,67.7,86.2s25.2-75.1,16.7-103.2c-8.5-28.1-54.8-60.3-54.8-60.3
		l-2.6-92.9c0,0-7.8,56.2-9.2,79.5C739,431.2,734.2,450.4,732,467.8"/>
	<path d="M772,588.8c0,0,82.1,84.4,107.7,108c25.9,23.7,70.3,60.7,70.3,60.7l2.6-18.1c0,0-41.8-25.5-68.1-45.9
		C858.5,672.8,772,588.8,772,588.8"/>
	<path d="M820,583.3c-1.1,8.1-1.1,15.9,0.4,22.6c7.4,31.5,71.4,75.5,71.4,75.5s17.4-67.3,10-98c-7.4-30.7-49.6-67.3-49.6-67.3
		c1.5-21.1-0.4-60.7,1.1-71.8l-0.4,2.2l-8.9,64.4C844.1,510.8,824.5,551.1,820,583.3"/>
	<path d="M410.5,139.3c0,0-65.9,34-81.4,61.8c-15.5,27.7-4.1,114-4.1,114s69.6-64,82.1-91.4C419.3,195.9,410.5,139.3,410.5,139.3"/>
	<path d="M526.6,138.2c-22.6,0.4-48.8,3-62.2,11.5c-27,17-33.3,74.7-33.3,74.7s59.9,12.6,84.7-4.8c24.8-17.4,52.5-79.5,52.5-79.5
		S549.2,137.8,526.6,138.2"/>
	<path d="M295.4,171.5c0,0-6.7,51.4-8.5,75.8c0,0-48.8,31.1-60.7,61.8c-11.8,30.3,4.4,110.6,4.4,110.6s61.4-50.3,72.5-82.5
		s-6.7-99.5-6.7-99.5L295.4,171.5z"/>
	<path d="M448.9,248.4c-6.7,0-13.3,1.1-19.6,3.3c-31.8,11.8-82.1,85.1-82.1,85.1s75.9,9.2,104.3-5.2c28.9-14.4,60.3-68.5,60.3-68.5
		S478.5,248.1,448.9,248.4"/>
	<path d="M208.4,261.4L186.2,365c0,0-27.8,19.6-47.7,54c-19.2,33.3,11.8,104.3,11.8,109.2c0,0,59.2-58.1,61.1-89.2
		c1.1-17.4-8.9-45.1-10.7-78.1C198.8,327.6,204.7,289.5,208.4,261.4"/>
	<path d="M366.4,362c-15.5,0.4-29.6,2.6-38.5,4.8c-30.3,14.1-74.7,79.9-74.7,79.9s78.1,13.3,104.3,0.7c26.6-13,51.1-63.3,51.1-63.3
		l91.4-17c0,0-56.6,1.1-79.9,3C403.8,363.1,384.2,361.3,366.4,362"/>
	<path d="M252.8,420.1c0,0-70.7,94-89.9,123.2s-49.2,78.8-49.2,78.8l18.1-0.4c0,0,18.9-45.1,35.1-74.4
		C183.3,518.5,252.8,420.1,252.8,420.1"/>
	<path d="M265.8,466.7c-8.1,0.4-15.9,1.1-22.2,3.7c-30,12.2-63.6,82.1-63.6,82.1s69.2,6.7,98-5.2c29.2-12.2,58.8-59.2,58.8-59.2
		c21.1-1.9,59.9-9.6,71-10h-2.2l-65.1,1.1C341.3,479.3,298.4,466,265.8,466.7"/>
</g>
</svg>
