<?xml version="1.0" encoding="utf-8"?>
<!-- Generator: Adobe Illustrator 26.0.2, SVG Export Plug-In . SVG Version: 6.00 Build 0)  -->
<svg version="1.1" id="Calque_1" xmlns="http://www.w3.org/2000/svg" xmlns:xlink="http://www.w3.org/1999/xlink" x="0px" y="0px"
	 viewBox="0 0 1000 1000" style="enable-background:new 0 0 1000 1000;" xml:space="preserve">
<g>
	<path d="M51,700.2h128.4l64.4-31.8l65.9,70.3l160.9,107.7L650,801.2c0,0,143.2-102.9,149.5-101.4c6.7,1.5,72.9-26.3,72.9-26.3
		l76.6,26.3v256H51V700.2z"/>
	<path d="M540.5,44.2L205.3,319.8c0,0-17.4,18.9-10.4,52.2c4.4,21.5,26.6,43.7,26.6,43.7s-48.5,59.9-15.5,114
		c32.9,53.7,54.8,89.5,104.3,141.3c49.6,51.8,77.7,77,77.7,77s15.5,19.2,45.1,15.5c34.4-4.4,246-51.1,246-51.1s35.9-11.1-1.1-44.8
		c-37.4-34-81-75.1-129.5-129.5c-48.8-54.8-61-96.6-80.3-125.8c-18.1-27.8-60.3-40.7-85.1-44.4c-24.8-3.7-39.6-2.6-39.6-2.6
		l383-320.8H540.5V44.2z"/>
</g>
</svg>
