<?xml version="1.0" encoding="utf-8"?>
<!-- Generator: Adobe Illustrator 26.0.2, SVG Export Plug-In . SVG Version: 6.00 Build 0)  -->
<svg version="1.1" id="Calque_1" focusable="false" xmlns="http://www.w3.org/2000/svg" xmlns:xlink="http://www.w3.org/1999/xlink"
	 x="0px" y="0px" viewBox="0 0 1000 1000" style="enable-background:new 0 0 1000 1000;" xml:space="preserve">
<path d="M300.2,500.2c96.7,0,175-78.3,175-175s-78.3-175-175-175s-175,78.3-175,175S203.5,500.2,300.2,500.2z M420.2,550.2h-13
	c-32.5,15.6-68.6,25-107,25s-74.4-9.4-107-25h-13c-99.4,0-180,80.6-180,180v45c0,41.4,33.6,75,75,75h450c41.4,0,75-33.6,75-75v-45
	C600.2,630.8,519.6,550.2,420.2,550.2z M750.2,500.2c82.8,0,150-67.2,150-150s-67.2-150-150-150s-150,67.2-150,150
	S667.4,500.2,750.2,500.2z M825.2,550.2h-5.9c-21.7,7.5-44.7,12.5-69.1,12.5c-24.4,0-47.3-5-69.1-12.5h-5.9
	c-31.9,0-61.3,9.2-87,24.1c38.1,41.1,62,95.6,62,155.9v60c0,3.4-0.8,6.7-0.9,10h275.9c41.4,0,75-33.6,75-75
	C1000.2,628.4,921.9,550.2,825.2,550.2z"/>
</svg>
