<?xml version="1.0" encoding="utf-8"?>
<!-- Generator: Adobe Illustrator 26.0.2, SVG Export Plug-In . SVG Version: 6.00 Build 0)  -->
<svg version="1.1" id="Calque_1" xmlns="http://www.w3.org/2000/svg" xmlns:xlink="http://www.w3.org/1999/xlink" x="0px" y="0px"
	 viewBox="0 0 1000 1000" style="enable-background:new 0 0 1000 1000;" xml:space="preserve">
<style type="text/css">
	.st0{fill-rule:evenodd;clip-rule:evenodd;}
</style>
<g>
	<g>
		<path class="st0" d="M259.7,293.5c-41.8,6.7-107.7,59.2-128,58.1c-5.6,0-10.7-1.5-16.3-4.1c-1.5,1.5-1.5,4.1-1.5,5.6
			c1.5,32.2,35.2,29.6,56.6,18.9c13.3-5.6,27-16.3,37.7-24.4c43.3-33.7,136.2-52.5,189.8-60.7h-1.5
			C352.6,283.9,308.2,286.5,259.7,293.5z M884.6,124.8L758.1,44.2C727,96.7,648.9,168.1,579,165.5c-169.8-8.1-326,28.1-458.1,137.3
			c-18.9,14.8-6.7,33.7,12.2,35.2c14.8,0,71.4-50,123.9-58.1c115.8-17.4,211.6-5.6,326,16.3c-47,22.9-102.5,13.3-129.5,32.2
			c-33.7,25.5-1.5,58.1,28.1,54c22.9-4.1,134.7-13.3,155-17.4c152.1-31.1,163.2-63.3,246.4-230.5
			C884.6,131.9,884.6,127.8,884.6,124.8z M456.2,290.6c-94.4,10.7-197.9,35.1-230.5,60.7c20.4,14.8,69.9-18.9,86.2-28.1
			C338.9,350.1,460.2,290.6,456.2,290.6z"/>
	</g>
	<g>
		<path d="M499.8,574c0-9.2-7.4-17-17-17c-9.2,0-17,7.4-17,17s7.4,17,17,17C492,591,499.8,583.2,499.8,574z"/>
		<path d="M358.8,595.1c37.7-1.5,67.7,23.7,88.8,50.7c21.5,27.4,37.4,61.4,47.7,94.4c11.1,34.4,17,68.4,17.8,104.3
			c0.4,32.9-4.4,72.9-25.2,101c-1.5,2.2-3.3,4.4-5.2,6.3c-0.7,1.1-1.8,1.9-2.6,3l-1.1,1.1c-0.4,0-0.4,0-0.7,0
			c-1.9,0-3.7-0.4-5.5-0.4c-3.7-0.4-7.4-1.1-11.1-2.2c-7.8-2.2-15.2-5.5-21.8-10c-14.1-9.2-25.2-22.9-30.7-39.2
			c-3.3-8.9-4.8-18.1-4.8-27.4c0-8.1,1.5-16.3,2.6-24.4c1.9-17.8,3-35.5,3-53.3c0.4-35.9-3.3-70.3-11.5-105.5
			c-5.9-25.5-13.7-49.6-25.2-73.3c-3-6.3-6.3-12.6-10-18.5c-1.1-1.5-1.9-3.3-3-4.8c-0.4-0.4-0.4-0.7-0.7-1.1
			C358.8,595.5,358.8,595.1,358.8,595.1z"/>
		<path d="M530.2,692.8c11.1,1.5,17.8,13.3,13.3,23.3c-0.4,0.7-0.7,1.1-0.7,1.9c0,0,0,0.4-0.4,0.4c0,0,0,0-0.4,0
			c0-0.4-0.4-0.7-0.4-0.7c-0.4-1.1-1.1-2.2-1.5-3.7c-1.1-2.2-2.2-4.8-3-7C535,702,532.7,697.2,530.2,692.8z"/>
		<path d="M523.5,680.6c8.9,2.2,17.8-3,20.3-11.5c2.6-8.9-2.2-18.1-10.7-20.7c-8.5-3-18.1,1.5-21.1,10c-0.4,0.4-1.1,3-0.7,3.3
			c0.4,0.4,0.4,0.7,0.7,1.1c0.4,0.7,1.1,1.5,1.5,2.2c1.1,1.5,1.8,3,3,4.4C519.1,673.2,521.3,676.9,523.5,680.6z"/>
		<path d="M488.7,635c8.1-3,12.9-11.8,10.7-20.3c-2.2-8.5-10.7-13.7-19.2-12.2c-4.4,0.7-7.8,2.6-10.4,6.3c-1.1,1.1-1.9,2.6-2.2,4.1
			c0,0.4-1.5,3.3-0.7,3.7c1.1,0.7,2.2,1.5,3,2.2C476.1,624,482.4,629.1,488.7,635z"/>
		<path d="M454.7,574c0-9.2-7.4-17-17-17c-9.2,0-17,7.4-17,17s7.4,17,17,17C446.9,591,454.7,583.2,454.7,574z"/>
		<path d="M545,483.7c0-9.2-7.4-17-17-17c-9.6,0-17,7.4-17,17c0,9.2,7.4,17,17,17C537.6,500.7,545,493.3,545,483.7z"/>
		<path d="M499.8,528.9c0-9.2-7.4-17-17-17c-9.2,0-17,7.4-17,17c0,9.2,7.4,17,17,17C492,545.9,499.8,538.5,499.8,528.9z"/>
		<path d="M404,600.3c76.6,18.5,117.3,84.4,138,152.1c10.7,34.8,16.6,69.6,18.9,105.8c1.1,18.1,1.8,32.2-5.5,49.9
			c-7.4,17.8-21.1,32.2-38.5,40.3c-8.9,4.4-17.8,6.7-27.8,7.4c-0.7,0-1.1,0-1.9,0c-0.4,0-0.7,0-0.7,0h-0.4c0.4-0.4,0.4-0.7,0.7-0.7
			c2.2-2.6,4.1-5.2,6.3-7.8c4.1-5.5,7.4-11.5,10-17.8c6.3-13.7,10-27.8,12.2-42.5c5.5-34.8,2.6-72.9-4.4-106.9
			C499.4,720.9,465.4,632.5,404,600.3z"/>
		<path d="M545,528.9c0-9.2-7.4-17-17-17c-9.6,0-17,7.4-17,17c0,9.2,7.4,17,17,17C537.6,545.9,545,538.5,545,528.9z"/>
		<path d="M569.4,825.6c0.4-46.2,12.2-111.4,71.8-131.3c0,0-31.8-31.8-95.8,31.8c2.6,6.7,4.8,13.3,7,20.4c2.6,8.1,4.8,16.3,6.7,24
			c1.8,7.8,3.7,15.5,5.2,22.9C566.4,804.9,567.9,816,569.4,825.6z"/>
		<path d="M499.8,438.6c0-9.2-7.4-17-17-17c-9.2,0-17,7.4-17,17c0,9.3,7.4,17,17,17C492,455.6,499.8,448.2,499.8,438.6z"/>
		<path d="M499.8,483.7c0-9.2-7.4-17-17-17c-9.2,0-17,7.4-17,17c0,9.2,7.4,17,17,17C492,500.7,499.8,493.3,499.8,483.7z"/>
		<path d="M454.7,483.7c0-9.2-7.4-17-17-17c-9.2,0-17,7.4-17,17c0,9.2,7.4,17,17,17C446.9,500.7,454.7,493.3,454.7,483.7z"/>
		<path d="M454.7,528.9c0-9.2-7.4-17-17-17c-9.2,0-17,7.4-17,17c0,9.2,7.4,17,17,17C446.9,545.9,454.7,538.5,454.7,528.9z"/>
		<path d="M545,619.1c0-9.2-7.4-17-17-17c-9.6,0-17,7.4-17,17c0,9.2,7.4,17,17,17C537.6,636.2,545,628.4,545,619.1z"/>
		<circle cx="527.9" cy="574" r="17"/>
	</g>
	<g>
		<path d="M764.4,574c0-9.2-7.4-17-17-17c-9.2,0-17,7.4-17,17s7.4,17,17,17C756.6,591,764.4,583.2,764.4,574z"/>
		<path d="M623.4,595.1c37.7-1.5,67.7,23.7,88.8,50.7c21.5,27.4,37.4,61.4,47.7,94.4c11.1,34.4,17,68.4,17.8,104.3
			c0.4,32.9-4.4,72.9-25.2,101c-1.5,2.2-3.3,4.4-5.2,6.3c-0.7,1.1-1.8,1.9-2.6,3l-1.1,1.1c-0.4,0-0.4,0-0.7,0
			c-1.8,0-3.7-0.4-5.5-0.4c-3.7-0.4-7.4-1.1-11.1-2.2c-7.8-2.2-15.2-5.5-21.8-10c-14.1-9.2-25.2-22.9-30.7-39.2
			c-3.3-8.9-4.8-18.1-4.8-27.4c0-8.1,1.5-16.3,2.6-24.4c1.8-17.8,3-35.5,3-53.3c0.4-35.9-3.3-70.3-11.5-105.5
			c-5.9-25.5-13.7-49.6-25.2-73.3c-3-6.3-6.3-12.6-10-18.5c-1.1-1.5-1.8-3.3-3-4.8c-0.4-0.4-0.4-0.7-0.7-1.1
			C623.4,595.5,623.4,595.1,623.4,595.1z"/>
		<path d="M794.7,692.8c11.1,1.5,17.8,13.3,13.3,23.3c-0.4,0.7-0.7,1.1-0.7,1.9c0,0,0,0.4-0.4,0.4c0,0,0,0-0.4,0
			c0-0.4-0.4-0.7-0.4-0.7c-0.4-1.1-1.1-2.2-1.5-3.7c-1.1-2.2-2.2-4.8-3-7C799.5,702,797.3,697.2,794.7,692.8z"/>
		<path d="M788,680.6c8.9,2.2,17.8-3,20.3-11.5c2.6-8.9-2.2-18.1-10.7-20.7c-8.5-3-18.1,1.5-21.1,10c-0.4,0.4-1.1,3-0.7,3.3
			s0.4,0.7,0.7,1.1c0.4,0.7,1.1,1.5,1.5,2.2c1.1,1.5,1.8,3,3,4.4C783.6,673.2,785.8,676.9,788,680.6z"/>
		<path d="M753.3,635c8.1-3,12.9-11.8,10.7-20.3s-10.7-13.7-19.2-12.2c-4.4,0.7-7.8,2.6-10.4,6.3c-1.1,1.1-1.8,2.6-2.2,4.1
			c0,0.4-1.5,3.3-0.7,3.7c1.1,0.7,2.2,1.5,3,2.2C740.7,624,747,629.1,753.3,635z"/>
		<path d="M719.2,574c0-9.2-7.4-17-17-17c-9.2,0-17,7.4-17,17s7.4,17,17,17C711.5,591,719.2,583.2,719.2,574z"/>
		<path d="M809.5,483.7c0-9.2-7.4-17-17-17c-9.2,0-17,7.4-17,17c0,9.2,7.4,17,17,17C801.7,500.7,809.5,493.3,809.5,483.7z"/>
		<path d="M764.4,528.9c0-9.2-7.4-17-17-17c-9.2,0-17,7.4-17,17c0,9.2,7.4,17,17,17C756.6,545.9,764.4,538.5,764.4,528.9z"/>
		<path d="M668.5,600.3c76.6,18.5,117.3,84.4,138,152.1c10.7,34.8,16.6,69.6,18.9,105.8c1.1,18.1,1.9,32.2-5.5,49.9
			s-21.1,32.2-38.5,40.3c-8.9,4.4-17.8,6.7-27.8,7.4c-0.7,0-1.1,0-1.8,0c-0.4,0-0.7,0-0.7,0h-0.4c0.4-0.4,0.4-0.7,0.7-0.7
			c2.2-2.6,4.1-5.2,6.3-7.8c4.1-5.5,7.4-11.5,10-17.8c6.3-13.7,10-27.8,12.2-42.5c5.5-34.8,2.6-72.9-4.4-106.9
			C764,720.9,730,632.5,668.5,600.3z"/>
		<path d="M809.5,528.9c0-9.2-7.4-17-17-17c-9.2,0-17,7.4-17,17c0,9.2,7.4,17,17,17C801.7,545.9,809.5,538.5,809.5,528.9z"/>
		<path d="M833.9,825.6c0.4-46.2,12.2-111.4,71.8-131.3c0,0-31.8-31.8-95.8,31.8c2.6,6.7,4.8,13.3,7,20.4c2.6,8.1,4.8,16.3,6.7,24
			c1.8,7.8,3.7,15.5,5.2,22.9C831,804.9,832.4,816,833.9,825.6z"/>
		<path d="M764.4,438.6c0-9.2-7.4-17-17-17c-9.2,0-17,7.4-17,17c0,9.3,7.4,17,17,17C756.6,455.6,764.4,448.2,764.4,438.6z"/>
		<path d="M764.4,483.7c0-9.2-7.4-17-17-17c-9.2,0-17,7.4-17,17c0,9.2,7.4,17,17,17C756.6,500.7,764.4,493.3,764.4,483.7z"/>
		<path d="M719.2,483.7c0-9.2-7.4-17-17-17c-9.2,0-17,7.4-17,17c0,9.2,7.4,17,17,17C711.5,500.7,719.2,493.3,719.2,483.7z"/>
		<path d="M719.2,528.9c0-9.2-7.4-17-17-17c-9.2,0-17,7.4-17,17c0,9.2,7.4,17,17,17C711.5,545.9,719.2,538.5,719.2,528.9z"/>
		<path d="M809.5,619.1c0-9.2-7.4-17-17-17c-9.2,0-17,7.4-17,17c0,9.2,7.4,17,17,17C801.7,636.2,809.5,628.4,809.5,619.1z"/>
		<circle cx="792.5" cy="574" r="17"/>
	</g>
	<g>
		<path d="M235.3,574c0-9.2-7.4-17-17-17c-9.2,0-17,7.4-17,17s7.4,17,17,17C227.5,591,235.3,583.2,235.3,574z"/>
		<path d="M94.3,595.1c37.7-1.5,67.7,23.7,88.8,50.7c21.5,27.4,37.4,61.4,47.7,94.4c11.1,34.4,17,68.4,17.8,104.3
			c0.4,32.9-4.4,72.9-25.2,101c-1.5,2.2-3.3,4.4-5.2,6.3c-0.7,1.1-1.8,1.9-2.6,3l-1.1,1.1c-0.4,0-0.4,0-0.7,0
			c-1.8,0-3.7-0.4-5.5-0.4c-3.7-0.4-7.4-1.1-11.1-2.2c-7.8-2.2-15.2-5.5-21.8-10c-14.1-9.2-25.2-22.9-30.7-39.2
			c-3.3-8.9-4.8-18.1-4.8-27.4c0-8.1,1.5-16.3,2.6-24.4c1.9-17.8,3-35.5,3-53.3c0.4-35.9-3.3-70.3-11.5-105.5
			c-5.9-25.5-13.7-49.6-25.2-73.3c-3-6.3-6.3-12.6-10-18.5c-1.1-1.5-1.8-3.3-3-4.8c-0.4-0.4-0.4-0.7-0.7-1.1
			C94.3,595.5,94.3,595.1,94.3,595.1z"/>
		<path d="M265.6,692.8c11.1,1.5,17.8,13.3,13.3,23.3c-0.4,0.7-0.7,1.1-0.7,1.9c0,0,0,0.4-0.4,0.4c0,0,0,0-0.4,0
			c0-0.4-0.4-0.7-0.4-0.7c-0.4-1.1-1.1-2.2-1.5-3.7c-1.1-2.2-2.2-4.8-3-7C270.4,702,268.2,697.2,265.6,692.8z"/>
		<path d="M258.9,680.6c8.9,2.2,17.8-3,20.3-11.5c2.6-8.9-2.2-18.1-10.7-20.7c-8.5-3-18.1,1.5-21.1,10c-0.4,0.4-1.1,3-0.7,3.3
			c0.4,0.4,0.4,0.7,0.7,1.1c0.4,0.7,1.1,1.5,1.5,2.2c1.1,1.5,1.8,3,3,4.4C254.5,673.2,256.7,676.9,258.9,680.6z"/>
		<path d="M224.2,635c8.1-3,12.9-11.8,10.7-20.3c-2.2-8.5-10.7-13.7-19.2-12.2c-4.4,0.7-7.8,2.6-10.4,6.3c-1.1,1.1-1.9,2.6-2.2,4.1
			c0,0.4-1.5,3.3-0.7,3.7c1.1,0.7,2.2,1.5,3,2.2C211.6,624,217.9,629.1,224.2,635z"/>
		<path d="M190.1,574c0-9.2-7.4-17-17-17c-9.2,0-17,7.4-17,17s7.4,17,17,17C182.4,591,190.1,583.2,190.1,574z"/>
		<path d="M280.4,483.7c0-9.2-7.4-17-17-17s-17,7.4-17,17c0,9.2,7.4,17,17,17S280.4,493.3,280.4,483.7z"/>
		<path d="M235.3,528.9c0-9.2-7.4-17-17-17c-9.2,0-17,7.4-17,17c0,9.2,7.4,17,17,17C227.5,545.9,235.3,538.5,235.3,528.9z"/>
		<path d="M139.4,600.3c76.6,18.5,117.3,84.4,138,152.1c10.7,34.8,16.6,69.6,18.9,105.8c1.1,18.1,1.8,32.2-5.6,49.9
			s-21.1,32.2-38.5,40.3c-8.9,4.4-17.8,6.7-27.8,7.4c-0.7,0-1.1,0-1.9,0c-0.4,0-0.7,0-0.7,0h-0.4c0.4-0.4,0.4-0.7,0.7-0.7
			c2.2-2.6,4.1-5.2,6.3-7.8c4.1-5.5,7.4-11.5,10-17.8c6.3-13.7,10-27.8,12.2-42.5c5.6-34.8,2.6-72.9-4.4-106.9
			C234.9,720.9,200.9,632.5,139.4,600.3z"/>
		<path d="M280.4,528.9c0-9.2-7.4-17-17-17s-17,7.4-17,17c0,9.2,7.4,17,17,17S280.4,538.5,280.4,528.9z"/>
		<path d="M304.8,825.6c0.4-46.2,12.2-111.4,71.8-131.3c0,0-31.8-31.8-95.8,31.8c2.6,6.7,4.8,13.3,7,20.4c2.6,8.1,4.8,16.3,6.7,24
			s3.7,15.5,5.2,22.9C301.9,804.9,303.3,816,304.8,825.6z"/>
		<path d="M235.3,438.6c0-9.2-7.4-17-17-17c-9.2,0-17,7.4-17,17c0,9.3,7.4,17,17,17C227.5,455.6,235.3,448.2,235.3,438.6z"/>
		<path d="M235.3,483.7c0-9.2-7.4-17-17-17c-9.2,0-17,7.4-17,17c0,9.2,7.4,17,17,17C227.5,500.7,235.3,493.3,235.3,483.7z"/>
		<path d="M190.1,483.7c0-9.2-7.4-17-17-17c-9.2,0-17,7.4-17,17c0,9.2,7.4,17,17,17C182.4,500.7,190.1,493.3,190.1,483.7z"/>
		<path d="M190.1,528.9c0-9.2-7.4-17-17-17c-9.2,0-17,7.4-17,17c0,9.2,7.4,17,17,17C182.4,545.9,190.1,538.5,190.1,528.9z"/>
		<path d="M280.4,619.1c0-9.2-7.4-17-17-17s-17,7.4-17,17c0,9.2,7.4,17,17,17S280.4,628.4,280.4,619.1z"/>
		<circle cx="263.4" cy="574" r="17"/>
	</g>
</g>
</svg>
