<?xml version="1.0" encoding="UTF-8" standalone="no"?>
<svg
   xmlns:dc="http://purl.org/dc/elements/1.1/"
   xmlns:cc="http://creativecommons.org/ns#"
   xmlns:rdf="http://www.w3.org/1999/02/22-rdf-syntax-ns#"
   xmlns:svg="http://www.w3.org/2000/svg"
   xmlns="http://www.w3.org/2000/svg"
   xmlns:sodipodi="http://sodipodi.sourceforge.net/DTD/sodipodi-0.dtd"
   xmlns:inkscape="http://www.inkscape.org/namespaces/inkscape"
   viewBox="0 0 1000 1000"
   version="1.1"
   id="svg4"
   sodipodi:docname="ufa45-hand-holding-dollar.svg"
   width="1000"
   height="1000"
   inkscape:version="0.92.5 (2060ec1f9f, 2020-04-08)">
  <metadata
     id="metadata10">
    <rdf:RDF>
      <cc:Work
         rdf:about="">
        <dc:format>image/svg+xml</dc:format>
        <dc:type
           rdf:resource="http://purl.org/dc/dcmitype/StillImage" />
        <dc:title></dc:title>
      </cc:Work>
    </rdf:RDF>
  </metadata>
  <defs
     id="defs8" />
  <sodipodi:namedview
     pagecolor="#ffffff"
     bordercolor="#666666"
     borderopacity="1"
     objecttolerance="10"
     gridtolerance="10"
     guidetolerance="10"
     inkscape:pageopacity="0"
     inkscape:pageshadow="2"
     inkscape:window-width="1920"
     inkscape:window-height="1016"
     id="namedview6"
     showgrid="false"
     inkscape:zoom="0.4609375"
     inkscape:cx="-168.67797"
     inkscape:cy="256"
     inkscape:window-x="0"
     inkscape:window-y="27"
     inkscape:window-maximized="1"
     inkscape:current-layer="svg4" />
  <!--! Font Awesome Pro 6.0.0 by @fontawesome - https://fontawesome.com License - https://fontawesome.com/license (Commercial License) Copyright 2022 Fonticons, Inc. -->
  <path
     d="M 989.53475,694.01398 C 966.68593,662.99742 923.11297,656.29254 892.13123,679.265 L 683.67064,832.8153 H 473.64267 c -15.23486,0 -26.29703,-12.62606 -26.29703,-27.84699 0,-15.23835 12.62605,-27.86441 26.29703,-27.86441 h 136.27436 c 26.29704,0 53.55191,-18.94779 58.11471,-46.3594 5.65995,-34.83051 -21.10729,-65.09822 -55.06704,-65.09822 H 332.80551 c -45.45382,0 -92.50983,16.10911 -129.08187,45.71504 l -80.98093,65.72517 -96.445676,-1.56912 C 12.627801,775.51737 0,789.79788 0,804.94915 V 972.10076 C 0,987.46102 12.627801,1000 26.297034,1000 H 629.03898 c 38.36581,0 76.4878,-12.51808 107.45212,-35.30072 L 971.77119,791.38267 c 33.95971,-22.8314 40.57751,-66.36953 17.76356,-97.36869 z M 486.40805,413.10593 c -13.23559,-1.91568 -30.65085,-8.18517 -45.97627,-13.75805 l -8.53347,-2.96059 c -21.76907,-9.23009 -45.62797,3.6572 -53.29068,23.8589 -7.66271,20.20169 3.69377,45.62796 25.40885,53.36034 l 8.1068,2.88396 c 14.77859,5.33081 31.13848,10.6146 47.70039,14.47556 v 21.40683 c 0,23.07521 18.68656,41.79661 41.76177,41.79661 23.07522,0 41.79662,-18.7214 41.79662,-41.79661 v -18.11186 c 44.00834,-9.96675 74.67661,-38.05233 80.28432,-79.62255 15.13037,-87.16334 -67.72793,-110.8655 -112.18907,-123.56122 l -9.22138,-3.187 c -45.80212,-12.99178 -43.18983,-18.59949 -41.97076,-25.75716 2.0132,-11.78316 26.64534,-17.51974 56.09453,-12.87161 8.59966,1.36065 19.80115,4.43566 34.22098,9.44255 21.82131,7.45547 45.64538,-4.02641 53.15135,-25.84424 7.50598,-21.81783 -4.02118,-45.61055 -25.84423,-53.16877 -13.23908,-4.57499 -24.24204,-7.58957 -34.51704,-9.96327 v -19.59216 c 0,-23.07521 -18.7214,-41.79661 -41.79661,-41.79661 -23.07521,0 -41.76178,18.7214 -41.76178,41.79661 v 18.32085 c -43.9561,9.94411 -74.7811,37.84335 -83.48873,79.43098 -13.40974,86.15326 70.70594,110.88292 102.4017,120.28716 l 11.31643,3.26536 c 55.1367,15.7817 54.24852,20.70673 52.83788,28.97898 -1.98185,11.81625 -26.53736,17.56328 -56.4916,12.68701 z"
     id="path2"
     inkscape:connector-curvature="0"
     style="stroke-width:1.74152541" />
</svg>
