<?xml version="1.0" encoding="UTF-8" standalone="no"?>
<svg
   xmlns:dc="http://purl.org/dc/elements/1.1/"
   xmlns:cc="http://creativecommons.org/ns#"
   xmlns:rdf="http://www.w3.org/1999/02/22-rdf-syntax-ns#"
   xmlns:svg="http://www.w3.org/2000/svg"
   xmlns="http://www.w3.org/2000/svg"
   xmlns:sodipodi="http://sodipodi.sourceforge.net/DTD/sodipodi-0.dtd"
   xmlns:inkscape="http://www.inkscape.org/namespaces/inkscape"
   viewBox="0 0 1000 1000"
   version="1.1"
   id="svg4"
   sodipodi:docname="ufa44-scale-balanced.svg"
   width="1000"
   height="1000"
   inkscape:version="0.92.5 (2060ec1f9f, 2020-04-08)">
  <metadata
     id="metadata10">
    <rdf:RDF>
      <cc:Work
         rdf:about="">
        <dc:format>image/svg+xml</dc:format>
        <dc:type
           rdf:resource="http://purl.org/dc/dcmitype/StillImage" />
        <dc:title></dc:title>
      </cc:Work>
    </rdf:RDF>
  </metadata>
  <defs
     id="defs8" />
  <sodipodi:namedview
     pagecolor="#ffffff"
     bordercolor="#666666"
     borderopacity="1"
     objecttolerance="10"
     gridtolerance="10"
     guidetolerance="10"
     inkscape:pageopacity="0"
     inkscape:pageshadow="2"
     inkscape:window-width="1920"
     inkscape:window-height="1016"
     id="namedview6"
     showgrid="false"
     inkscape:zoom="0.4609375"
     inkscape:cx="-136.67797"
     inkscape:cy="256"
     inkscape:window-x="0"
     inkscape:window-y="27"
     inkscape:window-maximized="1"
     inkscape:current-layer="svg4" />
  <!--! Font Awesome Pro 6.0.0 by @fontawesome - https://fontawesome.com License - https://fontawesome.com/license (Commercial License) Copyright 2022 Fonticons, Inc. -->
  <path
     d="m 864.76515,322.54237 c -27.47525,-54.9661 -106.22102,-55.16881 -133.89898,0 C 595.20515,594.3322 599.72718,581.2339 599.72718,605.55932 c 0,68.81288 89.27119,124.74576 199.59322,124.74576 110.32204,0 198.18983,-55.94847 198.18983,-124.74576 -1.45017,-25.10508 2.13628,-13.5661 -132.74508,-283.01695 z M 684.19566,580.61017 796.40447,356.0678 908.94074,580.61017 Z m -285.51187,24.94915 c 0,-25.13627 2.14407,-13.64407 -132.72949,-283.01695 -27.47525,-54.9661 -106.22101,-55.16881 -133.89898,0 C -3.6056978,594.3322 0.91633607,581.2339 0.91633607,605.55932 c 0,68.81288 89.27118693,124.74576 198.18983393,124.74576 108.91864,0 199.57762,-55.97966 199.57762,-124.74576 z M 198.93464,356.0678 311.51769,580.61017 H 86.757014 Z M 771.51769,780.20339 H 548.37871 v -459.5322 c 36.64407,-16.06102 64.08813,-49.11865 72.35254,-89.34916 h 177.13898 c 27.55322,0 48.49492,-22.34508 48.49492,-49.8983 0,-27.55322 -22.34509,-49.89831 -48.49492,-49.89831 H 597.65329 c -22.79729,-30.21966 -58.47458,-49.8983 -99.20407,-49.8983 -40.72949,0 -77.77899,19.67864 -99.1417,49.8983 H 199.09057 c -27.6,0 -49.8983,22.34509 -49.8983,49.89831 0,27.55322 22.2983,49.8983 48.49491,49.8983 h 177.13899 c 8.18644,40.15255 35.66169,73.28814 72.30576,89.27119 v 459.61017 h -223.0922 c -41.33763,0 -74.86305,33.50983 -74.86305,74.84746 0,13.77817 11.17254,24.94915 24.94915,24.94915 h 648.67796 c 13.77817,0 24.94916,-11.17098 24.94916,-24.94915 0.0156,-41.32204 -33.50983,-74.84746 -76.23526,-74.84746 z"
     id="path2"
     inkscape:connector-curvature="0"
     style="stroke-width:1.559322" />
</svg>
