<?xml version="1.0" encoding="UTF-8" standalone="no"?>
<svg
   xmlns:dc="http://purl.org/dc/elements/1.1/"
   xmlns:cc="http://creativecommons.org/ns#"
   xmlns:rdf="http://www.w3.org/1999/02/22-rdf-syntax-ns#"
   xmlns:svg="http://www.w3.org/2000/svg"
   xmlns="http://www.w3.org/2000/svg"
   xmlns:sodipodi="http://sodipodi.sourceforge.net/DTD/sodipodi-0.dtd"
   xmlns:inkscape="http://www.inkscape.org/namespaces/inkscape"
   viewBox="0 0 1000 1000"
   version="1.1"
   id="svg4"
   sodipodi:docname="ufa46-magnifying-glass-dollar.svg"
   width="1000"
   height="1000"
   inkscape:version="0.92.5 (2060ec1f9f, 2020-04-08)">
  <metadata
     id="metadata10">
    <rdf:RDF>
      <cc:Work
         rdf:about="">
        <dc:format>image/svg+xml</dc:format>
        <dc:type
           rdf:resource="http://purl.org/dc/dcmitype/StillImage" />
        <dc:title></dc:title>
      </cc:Work>
    </rdf:RDF>
  </metadata>
  <defs
     id="defs8" />
  <sodipodi:namedview
     pagecolor="#ffffff"
     bordercolor="#666666"
     borderopacity="1"
     objecttolerance="10"
     gridtolerance="10"
     guidetolerance="10"
     inkscape:pageopacity="0"
     inkscape:pageshadow="2"
     inkscape:window-width="1920"
     inkscape:window-height="1016"
     id="namedview6"
     showgrid="false"
     inkscape:zoom="0.4609375"
     inkscape:cx="256"
     inkscape:cy="256"
     inkscape:window-x="0"
     inkscape:window-y="27"
     inkscape:window-maximized="1"
     inkscape:current-layer="svg4" />
  <!--! Font Awesome Pro 6.0.0 by @fontawesome - https://fontawesome.com License - https://fontawesome.com/license (Commercial License) Copyright 2022 Fonticons, Inc. -->
  <path
     d="M 979.39706,866.33444 745.0644,632.00178 C 798.35208,552.89249 824.64354,454.04991 810.56792,348.72747 786.62566,169.50312 639.7028,23.754859 460.34141,1.0459295 193.70726,-32.704238 -30.44553,191.48771 3.422097,457.96525 26.131026,637.36579 171.91844,784.30822 351.10363,808.19175 456.44566,822.26933 555.28823,795.9857 634.37795,742.68823 l 234.33266,234.33266 c 30.57874,30.57871 80.16643,30.57871 110.74518,7.8e-4 30.48091,-30.42291 30.48091,-80.14764 -0.0587,-110.68723 z M 535.78987,494.57361 c -7.6349,44.24325 -41.30676,73.41248 -89.46535,82.80928 v 15.46556 c 0,21.59306 -17.52698,39.15333 -39.15332,39.15333 -21.62634,0 -39.15333,-17.619 -39.15333,-39.15333 v -17.22746 c -19.18513,-3.91533 -38.37026,-10.37563 -55.59772,-16.4444 l -9.3968,-3.32803 c -20.35973,-7.24336 -31.1269,-29.75653 -23.88353,-50.11626 7.0476,-20.35973 29.36499,-30.93112 49.92049,-23.88352 l 9.90971,3.54729 c 16.76154,6.05702 35.72741,12.8462 50.72313,15.11122 31.77293,4.89417 65.52309,-0.0613 68.85113,-19.20862 2.38639,-13.88768 0.7952,-20.79042 -62.25379,-38.8401 l -12.21976,-3.48269 C 348.04967,426.64259 263.28272,403.54212 278.55252,315.25137 c 7.6349,-44.24326 41.50253,-73.21672 89.46535,-82.61352 v -15.66133 c 0,-21.59306 17.52699,-39.15332 39.15333,-39.15332 21.62634,0 39.15332,15.85709 39.15332,39.15332 v 17.02191 c 12.23933,2.49211 25.56712,6.01004 42.0311,11.73034 20.39888,7.09654 31.22478,29.42372 24.13802,49.86176 -7.04759,20.44391 -29.36499,31.21107 -49.92049,24.16347 -15.85709,-5.48146 -28.38616,-9.00526 -38.17449,-10.37563 -31.538,-5.07818 -65.3469,0.0613 -68.67493,19.20863 -1.95767,11.37795 -3.36523,19.57666 50.31202,35.29672 l 11.746,3.36523 c 49.88134,14.17154 133.27792,38.05507 118.00812,127.32466 z"
     id="path2"
     inkscape:connector-curvature="0"
     style="stroke-width:1.95766628" />
</svg>
