<?xml version="1.0" encoding="UTF-8" standalone="no"?>
<svg
   xmlns:dc="http://purl.org/dc/elements/1.1/"
   xmlns:cc="http://creativecommons.org/ns#"
   xmlns:rdf="http://www.w3.org/1999/02/22-rdf-syntax-ns#"
   xmlns:svg="http://www.w3.org/2000/svg"
   xmlns="http://www.w3.org/2000/svg"
   xmlns:sodipodi="http://sodipodi.sourceforge.net/DTD/sodipodi-0.dtd"
   xmlns:inkscape="http://www.inkscape.org/namespaces/inkscape"
   viewBox="0 0 1000 1000"
   version="1.1"
   id="svg4"
   sodipodi:docname="ufa43-assets.svg"
   width="1000"
   height="1000"
   inkscape:version="0.92.5 (2060ec1f9f, 2020-04-08)">
  <metadata
     id="metadata10">
    <rdf:RDF>
      <cc:Work
         rdf:about="">
        <dc:format>image/svg+xml</dc:format>
        <dc:type
           rdf:resource="http://purl.org/dc/dcmitype/StillImage" />
        <dc:title />
      </cc:Work>
    </rdf:RDF>
  </metadata>
  <defs
     id="defs8" />
  <sodipodi:namedview
     pagecolor="#ffffff"
     bordercolor="#666666"
     borderopacity="1"
     objecttolerance="10"
     gridtolerance="10"
     guidetolerance="10"
     inkscape:pageopacity="0"
     inkscape:pageshadow="2"
     inkscape:window-width="1920"
     inkscape:window-height="1016"
     id="namedview6"
     showgrid="false"
     inkscape:zoom="0.4609375"
     inkscape:cx="272.36932"
     inkscape:cy="247.32203"
     inkscape:window-x="0"
     inkscape:window-y="27"
     inkscape:window-maximized="1"
     inkscape:current-layer="svg4" />
  <!--! Font Awesome Pro 6.0.0 by @fontawesome - https://fontawesome.com License - https://fontawesome.com/license (Commercial License) Copyright 2022 Fonticons, Inc. -->
  <g
     transform="matrix(0.45750729,0,0,0.45750729,544.53981,589.27447)"
     id="g10">
    <g
       id="g8">
      <g
         id="g4">
        <path
           inkscape:connector-curvature="0"
           d="m 125.8,95.8 14.7,60.1 h 30.7 v 198.4 c -44.2,13 -78,33.6 -110.3,53.8 l 18.8,27 c 47.3,-35.5 105.7,-56 168.7,-56 155.2,0 281,125.8 281,279.7 0,6.5 0,12.3 -0.5,18.8 h 105.7 c 28.2,-55.5 86.7,-93.9 153.5,-93.9 91.5,0 166.5,71.4 171.9,161.7 h 40.1 V 581.5 H 906.2 L 919.7,426.3 751,405.5 V 168.2 h -50.2 v 239 h -118 L 506,155.7 h 29 l 20.8,-60.1 h -430 z M 510.5,408.2 448,413 C 390.8,362.8 313.3,348.1 239.7,346.4 v -190 h 203 z m -262.1,0.9 c -56.7,0 -108.6,18.3 -151.6,50.2 -0.5,0.5 -1.7,1.2 -2.4,1.7 -2.9,1.7 -5.8,4.1 -8.2,6.5 C 33.6,512.9 0,579.8 0,655.3 c 0,140 116.3,249.1 250.3,249.1 111,0 209,-74.3 239.7,-179.3 0.5,-1.2 0.5,-1.7 1.2,-2.9 0.5,-0.5 0.5,-1.2 0.5,-1.7 4.8,-19.6 7.7,-40.1 7.7,-60.8 0,-138.8 -112.2,-250.6 -251,-250.6 z m 2.4,146.5 c 63.7,0 101.6,47.3 101.6,99.7 0,52.6 -37.7,99.7 -101.6,99.7 -63.9,0 -101.6,-47.3 -101.6,-99.7 0.2,-52.6 37.9,-99.7 101.6,-99.7 z"
           id="path2" />
      </g>
      <path
         inkscape:connector-curvature="0"
         d="m 640.8,757.4 c 0,80.9 66.1,147 147,147 80.9,0 147,-66.1 147,-147 0,-80.9 -65.4,-147 -147,-147 -80.8,0 -147,66.2 -147,147 z m 69.8,0 c 0,-42.5 34.8,-77.2 77.2,-77.2 42.5,0 77.2,34.8 77.2,77.2 0,42.5 -34.8,77.2 -77.2,77.2 -42.4,0.1 -77.2,-34.7 -77.2,-77.2 z"
         id="path6" />
    </g>
  </g>
  <path
     inkscape:connector-curvature="0"
     d="m 410.28639,96.764101 0.41198,-0.205989 C 398.20172,31.465679 335.3065,-11.242646 270.21408,1.1853381 213.56718,12.034077 172.57543,61.540032 172.64409,119.21687 v 429.14315 h 137.3258 V 278.58347 c 0,-10.64275 2.47186,-21.14818 7.27827,-30.69232 L 376.7789,128.82968 c 7.07228,-14.28189 18.95096,-25.5426 33.50749,-32.065579 z M 786.97109,263.20298 727.44035,144.14151 c -3.57047,-7.14095 -9.47548,-12.7713 -16.75375,-15.99846 L 581.39435,70.74086 c -8.85751,-3.913785 -19.01962,-3.913785 -27.87714,0 l -129.29225,57.40219 c -7.27826,3.22716 -13.18327,8.92618 -16.75375,15.99846 l -59.53073,119.06147 c -2.40321,4.73774 -3.63914,10.02478 -3.63914,15.31183 V 548.36002 H 481.62715 V 445.36566 H 653.28441 V 548.36002 H 790.61022 V 278.58347 c 0,-5.35571 -1.23593,-10.57409 -3.63913,-15.38049 z M 618.95296,342.37131 H 515.9586 V 239.37695 h 102.99436 z"
     id="path2-0"
     style="stroke-width:0.68662906" />
  <path
     inkscape:connector-curvature="0"
     d="m 304.13477,630.1668 c 0,0 14.72264,29.14859 7.37987,39.05022 -13.09091,17.61525 -64.67577,17.61525 -64.67577,17.61525 l 23.10379,33.93252 c 0,0 68.19881,-12.01545 79.25005,-34.9709 10.04997,-20.98996 -45.05794,-55.62709 -45.05794,-55.62709 z m -232.929176,2.07674 c 0,0 -55.107905,7.12027 -51.176925,48.3214 3.671389,38.01185 90.523821,43.31496 90.523821,43.31496 6.78651,-12.16378 13.86969,-27.44269 23.43755,-39.60649 0,0 -66.196241,6.86069 -74.911151,-16.57687 -9.122844,-24.47592 12.126705,-35.453 12.126705,-35.453 z m 118.708216,47.3572 c -13.27633,0.0371 -26.2189,-8.86325 -38.97605,-5.22894 -30.37239,39.82899 -50.39814,88.96626 -69.904712,134.20963 24.846772,38.45686 42.016992,64.74993 42.276592,97.75534 0,0 -30.891581,33.04247 -27.702294,50.21271 4.116406,21.91707 39.977344,39.94025 39.977344,39.94025 33.78418,3.78257 67.4942,7.63947 106.61859,0.63043 0,0 35.08215,-25.36594 35.34174,-39.53232 0.33376,-18.13443 -27.4427,-51.25107 -27.4427,-51.25107 3.59722,-32.44914 30.26114,-61.78316 49.39686,-94.2323 -12.3863,-43.83415 -33.45043,-92.86016 -68.53258,-135.65594 -14.12928,-5.97064 -27.73938,3.07804 -41.05279,3.15221 z m 132.02163,41.86866 c -21.02704,-0.0742 -46.83801,10.71749 -46.83801,10.71749 19.69199,36.26886 17.57816,37.49265 41.49782,52.02987 23.91964,14.53721 55.40457,4.15349 55.40457,4.15349 0,0 -10.86582,-48.35848 -31.74452,-62.4136 -4.82102,-3.26345 -11.31085,-4.48725 -18.31986,-4.48725 z m -267.788821,1.40922 c -5.785217,-0.037 -11.422095,0.89003 -16.688127,3.07803 -21.397889,10.30955 -36.3059488,70.49807 -36.3059488,70.49807 0,0 44.3162498,5.3402 62.2652578,-5.19186 18.690704,-10.97708 41.497809,-53.9212 41.497809,-53.9212 -14.425956,-6.08189 -33.376252,-14.38887 -50.768991,-14.46304 z m 69.459691,72.53773 c 0,0 16.87355,-3.67139 30.07572,4.15348 8.12156,4.78394 4.78393,24.88386 4.78393,24.88386 0,0 -25.55138,2.22508 -32.7829,-6.23023 -6.97192,-8.15864 -2.07675,-22.80711 -2.07675,-22.80711 z m 126.53309,2.07674 c 0,0 3.74557,14.8339 -7.23152,23.84548 -7.86195,6.45275 -26.99767,3.11512 -26.99767,3.11512 0,0 -2.59594,-16.42853 8.30697,-24.88386 10.38372,-8.08447 25.92222,-2.07674 25.92222,-2.07674 z m -17.20731,132.39246 c 0,0 17.35566,5.34021 14.61139,16.61396 -2.52177,10.45789 -16.87355,20.43369 -27.40561,17.65233 -6.8236,-1.81715 -4.78394,-8.04739 -2.22508,-14.53721 2.44758,-6.26732 9.08575,0.37085 12.94256,-5.19186 4.19058,-5.97064 2.07674,-14.53722 2.07674,-14.53722 z m -95.86401,-3.3747 c 0,0 0.037,11.94128 4.15348,17.91192 3.81973,5.56271 11.27376,-0.0742 13.72135,6.23023 2.48468,6.48983 3.56014,12.72006 -3.1522,14.50014 -10.38372,2.81842 -24.47592,-7.15736 -26.9606,-17.61526 -2.70718,-11.23667 12.23797,-21.02703 12.23797,-21.02703 z"
     id="path2-9"
     style="stroke-width:0.37084728" />
</svg>
