<?xml version="1.0" encoding="UTF-8" standalone="no"?>
<svg
   xmlns:dc="http://purl.org/dc/elements/1.1/"
   xmlns:cc="http://creativecommons.org/ns#"
   xmlns:rdf="http://www.w3.org/1999/02/22-rdf-syntax-ns#"
   xmlns:svg="http://www.w3.org/2000/svg"
   xmlns="http://www.w3.org/2000/svg"
   xmlns:sodipodi="http://sodipodi.sourceforge.net/DTD/sodipodi-0.dtd"
   xmlns:inkscape="http://www.inkscape.org/namespaces/inkscape"
   viewBox="0 0 1000 1000"
   version="1.1"
   id="svg4"
   sodipodi:docname="ufa49-water-arrow-up.svg"
   width="1000"
   height="1000"
   inkscape:version="0.92.5 (2060ec1f9f, 2020-04-08)">
  <metadata
     id="metadata10">
    <rdf:RDF>
      <cc:Work
         rdf:about="">
        <dc:format>image/svg+xml</dc:format>
        <dc:type
           rdf:resource="http://purl.org/dc/dcmitype/StillImage" />
        <dc:title></dc:title>
      </cc:Work>
    </rdf:RDF>
  </metadata>
  <defs
     id="defs8" />
  <sodipodi:namedview
     pagecolor="#ffffff"
     bordercolor="#666666"
     borderopacity="1"
     objecttolerance="10"
     gridtolerance="10"
     guidetolerance="10"
     inkscape:pageopacity="0"
     inkscape:pageshadow="2"
     inkscape:window-width="1920"
     inkscape:window-height="1016"
     id="namedview6"
     showgrid="false"
     inkscape:zoom="0.4609375"
     inkscape:cx="-168.67797"
     inkscape:cy="256"
     inkscape:window-x="0"
     inkscape:window-y="27"
     inkscape:window-maximized="1"
     inkscape:current-layer="svg4" />
  <!--! Font Awesome Pro 6.0.0 by @fontawesome - https://fontawesome.com License - https://fontawesome.com/license (Commercial License) Copyright 2022 Fonticons, Inc. -->
  <path
     d="M 66.238806,709.36193 C 110.24359,701.3271 143.92904,686.239 167.32993,672.44517 c 33.87655,20.0306 89.53834,42.92767 166.98536,42.92767 77.39491,0 132.76136,-22.84496 166.65529,-42.87556 33.9113,20.0306 89.5036,42.87556 166.89851,42.87556 77.44702,0 132.86559,-22.89707 166.74215,-42.92767 23.40088,13.79036 57.08634,28.87325 101.09112,36.91676 30.50627,5.86325 59.17105,-14.4957 64.71294,-44.68231 5.5106,-30.19357 -14.49572,-59.11894 -44.68234,-64.6608 -54.28936,-9.83288 -81.3906,-34.84942 -81.91178,-35.19687 -21.22931,-21.17719 -56.13085,-21.05558 -78.02032,-0.65147 -1.73725,1.62868 -43.65732,39.95696 -128.07075,39.95696 -84.41344,0 -126.36825,-38.34131 -127.48009,-39.31418 -21.22931,-21.28142 -56.11348,-21.05558 -77.98558,-0.65147 -1.73725,1.62868 -43.65732,39.95697 -128.07075,39.95697 -84.41344,0 -126.43774,-38.25446 -127.48009,-39.29681 -21.19457,-21.36829 -56.09611,-21.19456 -77.98558,-0.52118 -1.14659,0.86863 -28.2652,25.88517 -82.519814,35.78754 -30.193567,5.53839 -50.1894223,34.46723 -44.6823102,64.6608 5.5314337,30.19356 34.3629892,50.5195 64.7129102,44.61282 z M 955.81982,822.80496 c -54.25461,-9.93539 -81.37323,-34.84942 -81.87703,-35.28374 -21.22931,-21.17719 -56.13085,-21.05558 -78.02032,-0.65147 -1.84149,1.53748 -43.70944,39.93091 -129.70378,39.93091 -85.99434,0 -126.35087,-38.32394 -127.48009,-39.29681 -21.22931,-21.28143 -56.11348,-21.05558 -77.98557,-0.65147 -0.22584,1.55485 -42.09379,39.94828 -128.08813,39.94828 -85.99434,0 -126.35087,-38.32394 -127.48009,-39.29681 -21.22931,-21.28143 -56.07873,-21.12507 -77.98557,-0.59727 -1.13999,1.03159 -28.265213,25.95466 -82.519822,35.89178 -30.193568,5.53838 -50.1894225,34.46722 -44.68231041,64.66079 7.09322991,30.20017 35.92652341,50.5261 66.27644341,44.61942 43.987409,-7.99139 77.672869,-23.10555 101.073749,-36.82989 33.87656,20.0306 89.5036,42.77132 166.95062,42.77132 77.39491,0 132.77873,-22.68861 166.69004,-42.71921 33.89392,19.92637 89.48622,42.68446 166.79426,42.68446 77.44703,0 132.88297,-22.74072 166.75953,-42.77132 23.40088,13.79036 57.08634,28.87325 101.09112,36.91676 30.61051,5.85456 59.27529,-14.47137 64.83453,-44.69968 5.3855,-30.22831 -14.59299,-59.06682 -44.64758,-64.62605 z M 395.20623,258.71685 445.41303,219.7675 v 162.29477 c 0,30.73211 24.89493,55.5923 55.5923,55.5923 30.69737,0 55.5923,-24.86019 55.5923,-55.5923 V 219.7675 l 48.64326,38.94935 c 23.92206,19.16197 58.92783,15.20102 78.12455,-8.68629 19.19672,-23.99155 15.30873,-58.96258 -8.6863,-78.17667 L 535.6984,60.66929 c -2.53466,-2.0187 -5.50017,-3.03325 -8.26936,-4.55336 -2.19937,-1.21816 -4.14336,-2.66669 -6.51125,-3.58223 -6.36184,-2.4848 -13.13715,-4.02523 -19.91246,-4.02523 -6.77531,0 -13.55063,1.54043 -19.97848,4.0235 -2.25844,0.91727 -4.34315,2.36614 -6.42786,3.58396 -2.77962,1.52011 -5.73296,2.53466 -8.33885,4.55336 l -138.98075,111.1846 c -23.97417,19.21409 -29.35968,54.20249 -8.68629,78.17667 19.10985,23.97418 54.20249,27.79615 76.61313,8.68629 z"
     id="path2"
     inkscape:connector-curvature="0"
     style="stroke-width:1.73725939" />
</svg>
