<?xml version="1.0" encoding="UTF-8" standalone="no"?>
<svg
   xmlns:dc="http://purl.org/dc/elements/1.1/"
   xmlns:cc="http://creativecommons.org/ns#"
   xmlns:rdf="http://www.w3.org/1999/02/22-rdf-syntax-ns#"
   xmlns:svg="http://www.w3.org/2000/svg"
   xmlns="http://www.w3.org/2000/svg"
   xmlns:sodipodi="http://sodipodi.sourceforge.net/DTD/sodipodi-0.dtd"
   xmlns:inkscape="http://www.inkscape.org/namespaces/inkscape"
   viewBox="0 0 1000 1000"
   version="1.1"
   id="svg4"
   sodipodi:docname="ufa41-warehouse-full.svg"
   width="1000"
   height="1000"
   inkscape:version="0.92.5 (2060ec1f9f, 2020-04-08)">
  <metadata
     id="metadata10">
    <rdf:RDF>
      <cc:Work
         rdf:about="">
        <dc:format>image/svg+xml</dc:format>
        <dc:type
           rdf:resource="http://purl.org/dc/dcmitype/StillImage" />
        <dc:title></dc:title>
      </cc:Work>
    </rdf:RDF>
  </metadata>
  <defs
     id="defs8" />
  <sodipodi:namedview
     pagecolor="#ffffff"
     bordercolor="#666666"
     borderopacity="1"
     objecttolerance="10"
     gridtolerance="10"
     guidetolerance="10"
     inkscape:pageopacity="0"
     inkscape:pageshadow="2"
     inkscape:window-width="1920"
     inkscape:window-height="1016"
     id="namedview6"
     showgrid="false"
     inkscape:zoom="0.4609375"
     inkscape:cx="-136.67797"
     inkscape:cy="256"
     inkscape:window-x="0"
     inkscape:window-y="27"
     inkscape:window-maximized="1"
     inkscape:current-layer="svg4" />
  <!--! Font Awesome Pro 6.0.0 by @fontawesome - https://fontawesome.com License - https://fontawesome.com/license (Commercial License) Copyright 2022 Fonticons, Inc. -->
  <path
     d="M 0,962.30696 V 464.91594 c 0,-40.99118 25.018753,-78.056 63.182952,-93.29027 L 483.88436,203.34668 c 11.93612,-4.79173 25.44279,-4.79173 37.37892,0 L 942.0118,371.62567 c 38.1642,15.23427 63.1358,52.29909 63.1358,93.29027 v 497.39102 c 0,20.88823 -16.80477,37.69304 -37.693,37.69304 h -75.38607 c -20.88823,0 -37.69304,-16.80481 -37.69304,-37.69304 V 546.27007 c 0,-26.38512 -22.45876,-50.25738 -50.25738,-50.25738 H 201.02953 c -27.79862,0 -50.25738,23.87226 -50.25738,50.25738 v 416.03689 c 0,20.88823 -16.88334,37.69304 -37.69304,37.69304 H 37.693036 C 16.883339,1000 0,983.19519 0,962.30696 Z M 766.42507,798.97047 c 20.88823,0 37.69304,16.80481 37.69304,37.69304 V 962.30696 C 804.11811,983.19519 787.3133,1000 766.42507,1000 H 590.52424 c -20.88823,0 -37.69304,-16.80481 -37.69304,-37.69304 V 836.66351 c 0,-20.88823 16.80481,-37.69304 37.69304,-37.69304 z M 201.02953,583.96311 c 0,-19.47474 16.80481,-37.69304 37.69303,-37.69304 h 226.15822 c 20.88823,0 37.69304,18.2183 37.69304,37.69304 v 127.05694 c 0,20.88823 -16.80481,37.69304 -37.69304,37.69304 H 238.72256 c -20.88822,0 -37.69303,-16.80481 -37.69303,-37.69304 z m 263.85125,215.00736 c 20.88823,0 37.69304,16.80481 37.69304,37.69304 v 125.64345 c 0,20.88823 -16.80481,37.69304 -37.69304,37.69304 H 238.72256 c -20.88822,0 -37.69303,-16.80481 -37.69303,-37.69304 V 836.66351 c 0,-20.88823 16.80481,-37.69304 37.69303,-37.69304 z"
     id="path2"
     inkscape:connector-curvature="0"
     style="stroke-width:1.57054317" />
</svg>
