<?xml version="1.0" encoding="UTF-8" standalone="no"?>
<svg
   xmlns:dc="http://purl.org/dc/elements/1.1/"
   xmlns:cc="http://creativecommons.org/ns#"
   xmlns:rdf="http://www.w3.org/1999/02/22-rdf-syntax-ns#"
   xmlns:svg="http://www.w3.org/2000/svg"
   xmlns="http://www.w3.org/2000/svg"
   xmlns:sodipodi="http://sodipodi.sourceforge.net/DTD/sodipodi-0.dtd"
   xmlns:inkscape="http://www.inkscape.org/namespaces/inkscape"
   viewBox="0 0 1000 1000"
   version="1.1"
   id="svg4"
   sodipodi:docname="ufa48-water-arrow-down.svg"
   width="1000"
   height="1000"
   inkscape:version="0.92.5 (2060ec1f9f, 2020-04-08)">
  <metadata
     id="metadata10">
    <rdf:RDF>
      <cc:Work
         rdf:about="">
        <dc:format>image/svg+xml</dc:format>
        <dc:type
           rdf:resource="http://purl.org/dc/dcmitype/StillImage" />
        <dc:title></dc:title>
      </cc:Work>
    </rdf:RDF>
  </metadata>
  <defs
     id="defs8" />
  <sodipodi:namedview
     pagecolor="#ffffff"
     bordercolor="#666666"
     borderopacity="1"
     objecttolerance="10"
     gridtolerance="10"
     guidetolerance="10"
     inkscape:pageopacity="0"
     inkscape:pageshadow="2"
     inkscape:window-width="1920"
     inkscape:window-height="1016"
     id="namedview6"
     showgrid="false"
     inkscape:zoom="0.4609375"
     inkscape:cx="-168.67797"
     inkscape:cy="256"
     inkscape:window-x="0"
     inkscape:window-y="27"
     inkscape:window-maximized="1"
     inkscape:current-layer="svg4" />
  <!--! Font Awesome Pro 6.0.0 by @fontawesome - https://fontawesome.com License - https://fontawesome.com/license (Commercial License) Copyright 2022 Fonticons, Inc. -->
  <path
     d="m 65.77749,714.80424 c 44.11211,-8.05443 77.87972,-23.17932 101.33768,-37.0068 33.95918,20.07945 89.73931,43.03237 167.37522,43.03237 77.58367,0 133.08516,-22.90067 167.07917,-42.98013 33.99402,20.07946 89.70449,42.98013 167.28815,42.98013 77.63592,0 133.20707,-22.95292 167.16625,-43.03237 23.45796,13.824 57.22557,28.94367 101.33768,37.0068 30.58068,5.87755 59.31537,-14.53105 64.87076,-44.79129 5.524,-30.26721 -14.53107,-59.26313 -44.79131,-64.8185 -54.38693,-9.95962 -81.57169,-34.93442 -82.07673,-35.36979 -21.28108,-21.22885 -56.26775,-21.10694 -78.2106,-0.65307 -1.7415,1.63266 -43.78122,40.05442 -128.40054,40.05442 -84.61931,0 -126.67645,-38.43482 -127.79101,-39.41006 -21.28108,-21.32463 -56.28516,-20.97633 -78.22802,-0.60082 -1.74149,1.63266 -43.78122,40.05442 -128.40053,40.05442 -84.61931,0 -126.55455,-38.31292 -127.7736,-39.35782 -21.24625,-21.42041 -56.19809,-21.24626 -78.15836,-0.52245 -1.13197,0.87075 -28.31673,25.9483 -82.721079,35.87483 C 15.413413,610.816 -4.6312114,639.8154 0.88933235,670.08261 6.4499305,700.34982 35.353547,720.72532 65.77749,714.80424 Z m 891.71585,113.71971 c -54.38694,-9.95961 -81.5717,-34.93441 -82.07673,-35.36979 -21.28109,-21.22884 -56.26775,-21.10694 -78.21061,-0.65306 -1.84598,1.54122 -43.81605,40.0283 -128.45278,40.0283 -84.63672,0 -126.65903,-38.41742 -127.79101,-39.39265 -21.28108,-21.33333 -56.25033,-21.10694 -78.17577,-0.65306 -1.79374,1.55863 -43.76381,40.04571 -128.40054,40.04571 -84.63672,0 -126.65903,-38.41742 -127.79101,-39.39265 -21.28108,-21.33333 -56.2155,-21.1766 -78.17577,-0.59873 -1.14277,1.0341 -28.33415,26.01796 -82.721084,35.97932 -30.267208,5.55189 -50.3118325,34.55129 -44.79128868,64.8185 5.57801318,30.27382 34.48162968,50.64933 64.90557268,44.72824 44.09469,-8.01088 77.86231,-23.1619 101.32026,-36.91972 33.95919,20.07945 89.70449,42.87564 167.32298,42.87564 77.58367,0 133.13741,-22.74394 167.114,-42.8234 33.95919,19.97497 89.68707,42.78857 167.35781,42.78857 77.63592,0 133.22448,-22.79619 165.61632,-42.87564 23.45795,13.824 57.22557,28.94367 101.33768,37.0068 32.06095,5.86884 60.79564,-14.50667 66.36843,-44.80871 5.5728,-30.30204 -14.45442,-59.21088 -44.75646,-64.78367 z M 466.73964,430.24371 c 2.54084,2.02362 5.51357,3.04066 8.28952,4.56447 2.20473,1.22113 4.15347,2.67319 6.52713,3.59096 6.4296,2.4677 13.22144,4.03505 20.01327,4.03505 6.79184,0 13.53317,-1.54419 19.99238,-4.03331 2.37366,-0.91829 4.3224,-2.37017 6.52713,-3.59096 2.77595,-1.52381 5.74868,-2.54084 8.28953,-4.56446 L 675.69831,318.78968 c 24.05007,-19.26095 27.95102,-54.31727 8.70748,-78.36734 -19.19129,-24.05006 -54.31727,-27.91619 -78.31509,-8.70748 l -48.79325,39.00778 V 108.06687 c 0,-30.80707 -24.95564,-55.72789 -55.72789,-55.72789 -30.77224,0 -55.72788,24.92082 -55.72788,55.72789 v 162.6906 l -50.32925,-39.04435 c -22.4653,-19.20871 -57.46938,-15.2381 -76.79999,8.70748 -19.24354,24.05007 -15.34607,59.10639 8.70748,78.36734 z"
     id="path2"
     inkscape:connector-curvature="0"
     style="stroke-width:1.74149644" />
</svg>
