<?xml version="1.0" encoding="UTF-8" standalone="no"?>
<svg
   xmlns:dc="http://purl.org/dc/elements/1.1/"
   xmlns:cc="http://creativecommons.org/ns#"
   xmlns:rdf="http://www.w3.org/1999/02/22-rdf-syntax-ns#"
   xmlns:svg="http://www.w3.org/2000/svg"
   xmlns="http://www.w3.org/2000/svg"
   xmlns:sodipodi="http://sodipodi.sourceforge.net/DTD/sodipodi-0.dtd"
   xmlns:inkscape="http://www.inkscape.org/namespaces/inkscape"
   viewBox="0 0 1000 1000"
   version="1.1"
   id="svg4"
   sodipodi:docname="ufa47-water.svg"
   width="1000"
   height="1000"
   inkscape:version="0.92.5 (2060ec1f9f, 2020-04-08)">
  <metadata
     id="metadata10">
    <rdf:RDF>
      <cc:Work
         rdf:about="">
        <dc:format>image/svg+xml</dc:format>
        <dc:type
           rdf:resource="http://purl.org/dc/dcmitype/StillImage" />
        <dc:title></dc:title>
      </cc:Work>
    </rdf:RDF>
  </metadata>
  <defs
     id="defs8" />
  <sodipodi:namedview
     pagecolor="#ffffff"
     bordercolor="#666666"
     borderopacity="1"
     objecttolerance="10"
     gridtolerance="10"
     guidetolerance="10"
     inkscape:pageopacity="0"
     inkscape:pageshadow="2"
     inkscape:window-width="1920"
     inkscape:window-height="1016"
     id="namedview6"
     showgrid="false"
     inkscape:zoom="0.4609375"
     inkscape:cx="-168.67797"
     inkscape:cy="256"
     inkscape:window-x="0"
     inkscape:window-y="27"
     inkscape:window-maximized="1"
     inkscape:current-layer="svg4" />
  <!--! Font Awesome Pro 6.0.0 by @fontawesome - https://fontawesome.com License - https://fontawesome.com/license (Commercial License) Copyright 2022 Fonticons, Inc. -->
  <path
     d="m 955.65499,440.10121 c -54.28293,-9.94057 -81.41571,-34.86761 -81.91978,-35.30216 -21.3273,-21.18824 -56.26444,-21.01443 -78.16534,-0.67788 -1.73817,1.62953 -43.6975,39.97783 -128.15501,39.97783 -84.4575,0 -126.41684,-38.34395 -127.54665,-39.31733 -21.18824,-21.34468 -56.12539,-20.99705 -78.02628,-0.6605 -1.73817,1.62953 -43.69751,39.97783 -128.15501,39.97783 -84.45751,0 -126.31255,-38.23966 -127.52927,-39.28256 -21.20563,-21.37945 -56.05586,-21.20563 -77.97414,-0.52145 -1.12981,0.86908 -28.262588,25.89868 -82.562905,35.80622 -30.209332,5.54128 -50.2156269,34.48522 -44.70563949,64.69456 5.54127439,30.20933 34.38093049,50.56326 64.74669749,44.70564 44.027757,-8.0651 77.730797,-23.18714 101.143897,-36.91866 33.89425,20.04106 89.46343,42.89795 166.9335,42.89795 77.43532,0 132.95235,-22.80474 166.86398,-42.8458 33.929,20.04106 89.42866,42.74151 166.86397,42.74151 77.48746,0 133.05664,-22.7526 166.95088,-42.79366 23.4131,13.79757 57.11615,28.88833 101.1439,36.93604 30.5222,5.86631 59.20195,-14.50326 64.74671,-44.70564 5.5795,-30.12243 -14.40941,-59.1498 -44.65351,-64.71194 z m 0,250.6436 c -54.28293,-9.94058 -81.41571,-34.86762 -81.91978,-35.30216 -21.24039,-21.18825 -56.16015,-21.06658 -78.06105,-0.65182 -1.84246,1.53828 -43.73227,39.95176 -128.20715,39.95176 -84.47489,0 -126.41684,-38.34395 -127.54665,-39.31733 -21.24039,-21.29253 -56.14277,-21.06657 -78.02629,-0.65181 -1.79031,1.55566 -43.68012,39.96914 -128.15501,39.96914 -84.47488,0 -126.41684,-38.34395 -127.54665,-39.31733 -21.24039,-21.29253 -56.10801,-21.1361 -78.02628,-0.59758 -1.14059,1.03213 -28.279971,25.96821 -82.562907,35.91052 -30.209332,5.54128 -50.2156266,34.48522 -44.70563915,64.69455 5.56734695,30.21594 34.41569415,50.55249 64.78146115,44.64272 44.010375,-7.99556 77.713415,-23.11761 101.126515,-36.84913 33.89425,20.04106 89.53295,42.79366 167.00303,42.79366 77.43531,0 132.88282,-22.70045 166.79445,-42.74151 33.89424,19.93677 89.51556,42.70675 167.03779,42.70675 77.48745,0 132.96972,-22.7526 165.29962,-42.79366 23.4131,13.79757 57.11615,28.88833 101.1439,36.93604 31.99964,5.85762 60.67939,-14.47893 66.24155,-44.72302 5.5621,-30.2441 -14.42681,-59.09766 -44.67091,-64.65979 z M 65.679045,299.13592 c 44.027755,-8.03902 77.730805,-23.13499 101.143905,-36.93604 33.89424,20.04106 89.46342,42.89795 166.9335,42.89795 77.43531,0 132.95234,-22.80474 166.86397,-42.8458 33.92901,20.04106 89.42866,42.74151 166.86397,42.74151 77.48746,0 133.05664,-22.7526 166.95088,-42.79366 23.4131,13.79757 57.11615,28.88833 101.1439,36.93604 30.5222,5.86631 59.20195,-14.50326 64.74673,-44.70564 5.5134,-30.20933 -14.50329,-59.1498 -44.70567,-64.69455 -54.28293,-9.94058 -81.41571,-34.86762 -81.91978,-35.30216 -21.24039,-21.18825 -56.16016,-21.06658 -78.06105,-0.65181 -1.73817,1.62953 -43.69751,39.97782 -128.15501,39.97782 -84.4575,0 -126.41684,-38.34395 -127.54665,-39.31732 -21.24039,-21.29254 -56.14277,-21.06658 -78.02629,-0.65181 -1.73816,1.62953 -43.6975,39.97782 -128.155,39.97782 -84.45751,0 -126.38208,-38.27442 -127.5988,-39.24779 -21.20563,-21.29254 -56.05586,-21.13611 -77.97414,-0.60836 -1.12981,1.0429 -28.262588,25.96821 -82.562905,35.91052 -30.209332,5.54127 -50.2156269,34.48522 -44.70563949,64.69455 5.54996529,30.19195 34.39831249,50.5285 64.76407949,44.61873 z"
     id="path2"
     inkscape:connector-curvature="0"
     style="stroke-width:1.73816633" />
</svg>
