<?xml version="1.0" encoding="UTF-8" standalone="no"?>
<svg
   xmlns:dc="http://purl.org/dc/elements/1.1/"
   xmlns:cc="http://creativecommons.org/ns#"
   xmlns:rdf="http://www.w3.org/1999/02/22-rdf-syntax-ns#"
   xmlns:svg="http://www.w3.org/2000/svg"
   xmlns="http://www.w3.org/2000/svg"
   xmlns:sodipodi="http://sodipodi.sourceforge.net/DTD/sodipodi-0.dtd"
   xmlns:inkscape="http://www.inkscape.org/namespaces/inkscape"
   viewBox="0 0 1000 1000"
   version="1.1"
   id="svg4"
   sodipodi:docname="ufa51-water-protection.svg"
   width="1000"
   height="1000"
   inkscape:version="0.92.5 (2060ec1f9f, 2020-04-08)">
  <metadata
     id="metadata10">
    <rdf:RDF>
      <cc:Work
         rdf:about="">
        <dc:format>image/svg+xml</dc:format>
        <dc:type
           rdf:resource="http://purl.org/dc/dcmitype/StillImage" />
        <dc:title />
      </cc:Work>
    </rdf:RDF>
  </metadata>
  <defs
     id="defs8" />
  <sodipodi:namedview
     pagecolor="#ffffff"
     bordercolor="#666666"
     borderopacity="1"
     objecttolerance="10"
     gridtolerance="10"
     guidetolerance="10"
     inkscape:pageopacity="0"
     inkscape:pageshadow="2"
     inkscape:window-width="1920"
     inkscape:window-height="1016"
     id="namedview6"
     showgrid="false"
     inkscape:zoom="0.4609375"
     inkscape:cx="-164.33899"
     inkscape:cy="247.32203"
     inkscape:window-x="0"
     inkscape:window-y="27"
     inkscape:window-maximized="1"
     inkscape:current-layer="svg4" />
  <!--! Font Awesome Pro 6.0.0 by @fontawesome - https://fontawesome.com License - https://fontawesome.com/license (Commercial License) Copyright 2022 Fonticons, Inc. -->
  <path
     d="m 961.86678,679.67005 c -54.6361,-8.64831 -81.94542,-30.33488 -82.45277,-30.71294 -21.46607,-18.4338 -56.63051,-18.28258 -78.6739,-0.58975 -1.74948,1.41769 -43.98181,34.78078 -128.98882,34.78078 -85.00701,0 -127.23935,-33.3593 -128.37651,-34.20615 -21.32609,-18.5699 -56.49056,-18.26746 -78.53394,-0.57463 -1.74949,1.41769 -43.98183,34.78078 -128.98883,34.78078 -85.00701,0 -127.13438,-33.26857 -128.359,-34.1759 -21.34361,-18.60015 -56.42058,-18.44893 -78.48147,-0.45366 -1.13715,0.7561 -28.44647,22.5319 -83.100083,31.15147 -30.405884,4.82092 -50.5423336,30.0022 -44.99650551,56.28437 5.57733001,26.28217 34.60462451,43.99012 65.16796351,38.89399 44.314215,-7.01666 78.236535,-20.17285 101.801965,-32.1193 34.11478,17.43576 90.04549,37.32129 168.01961,37.32129 77.93914,0 133.81738,-19.84016 167.94965,-37.27592 34.14976,17.43576 90.0105,37.18518 167.94963,37.18518 77.99161,0 133.92234,-19.79479 168.03711,-37.23055 23.56543,12.00391 57.48776,25.13289 101.80198,32.13442 30.72077,5.1037 59.58714,-12.61786 65.16794,-38.89398 5.6158,-26.20657 -14.50314,-51.46043 -44.94402,-56.2995 z m 0,218.06035 c -54.6361,-8.64833 -81.94542,-30.33489 -82.45277,-30.71294 -21.37858,-18.43381 -56.52555,-18.32796 -78.56893,-0.56709 -1.85445,1.33831 -44.01682,34.7581 -129.04131,34.7581 -85.02451,0 -127.23935,-33.3593 -128.3765,-34.20614 -21.37858,-18.52454 -56.50806,-18.32795 -78.53395,-0.56708 -1.80197,1.35343 -43.96432,34.77322 -128.98883,34.77322 -85.02449,0 -127.23935,-33.3593 -128.3765,-34.20614 -21.37859,-18.52454 -56.47306,-18.38844 -78.53394,-0.5199 -1.14801,0.89796 -28.46397,22.59239 -83.100086,31.24221 -30.405883,4.82093 -50.5423449,30.0022 -44.99650488,56.28437 5.60356848,26.28792 34.63960988,43.98075 65.20294888,38.83924 44.296722,-6.95615 78.219042,-20.11236 101.784472,-32.0588 34.11478,17.43575 90.11548,37.23055 168.08959,37.23055 77.93913,0 133.7474,-19.74943 167.87967,-37.18518 34.11476,17.34502 90.09797,37.15494 168.12458,37.15494 77.99161,0 133.83486,-19.7948 166.3751,-37.23056 23.56544,12.00391 57.48777,25.1329 101.80197,32.13442 32.20784,5.09614 61.07421,-12.59669 66.67251,-38.9091 5.5983,-26.31242 -14.52064,-51.41506 -44.96152,-56.25412 z M 66.100408,557.03002 c 44.314212,-6.99396 78.236542,-20.12748 101.801972,-32.13442 34.11477,17.43576 90.04549,37.32129 168.01961,37.32129 77.93913,0 133.81738,-19.84016 167.94964,-37.27592 34.14976,17.43576 90.0105,37.18519 167.94963,37.18519 77.99162,0 133.92235,-19.7948 168.03712,-37.23056 23.56542,12.00391 57.48775,25.1329 101.80197,32.13442 30.72077,5.1037 59.58715,-12.61786 65.16795,-38.89398 5.5493,-26.28217 -14.59762,-51.46043 -44.99651,-56.28437 -54.63611,-8.64832 -81.94542,-30.33488 -82.45276,-30.71294 -21.3786,-18.43381 -56.52555,-18.32795 -78.56894,-0.56707 -1.74948,1.41769 -43.98183,34.78077 -128.98883,34.78077 -85.00701,0 -127.23934,-33.3593 -128.3765,-34.20613 -21.37858,-18.52455 -56.50806,-18.32796 -78.53395,-0.56708 -1.74947,1.41769 -43.98181,34.78077 -128.98882,34.78077 -85.00701,0 -127.20436,-33.29881 -128.42898,-34.14564 -21.34361,-18.52455 -56.42058,-18.38845 -78.48147,-0.52928 -1.13715,0.90733 -28.44647,22.59239 -83.100083,31.24221 -30.405884,4.82092 -50.5423336,30.0022 -44.99650551,56.28437 5.58607611,26.26704 34.62211751,43.95988 65.18545651,38.81837 z"
     id="path2"
     inkscape:connector-curvature="0"
     style="stroke-width:1.62652075" />
  <g
     transform="translate(85.574366,-42.221544)"
     id="g6">
    <path
       style="clip-rule:evenodd;fill-rule:evenodd"
       inkscape:connector-curvature="0"
       id="path4"
       d="m 259.7,293.5 c -41.8,6.7 -107.7,59.2 -128,58.1 -5.6,0 -10.7,-1.5 -16.3,-4.1 -1.5,1.5 -1.5,4.1 -1.5,5.6 1.5,32.2 35.2,29.6 56.6,18.9 13.3,-5.6 27,-16.3 37.7,-24.4 43.3,-33.7 136.2,-52.5 189.8,-60.7 h -1.5 c -43.9,-3 -88.3,-0.4 -136.8,6.6 z M 884.6,124.8 758.1,44.2 C 727,96.7 648.9,168.1 579,165.5 409.2,157.4 253,193.6 120.9,302.8 c -18.9,14.8 -6.7,33.7 12.2,35.2 14.8,0 71.4,-50 123.9,-58.1 115.8,-17.4 211.6,-5.6 326,16.3 -47,22.9 -102.5,13.3 -129.5,32.2 -33.7,25.5 -1.5,58.1 28.1,54 22.9,-4.1 134.7,-13.3 155,-17.4 152.1,-31.1 163.2,-63.3 246.4,-230.5 1.6,-2.6 1.6,-6.7 1.6,-9.7 z M 456.2,290.6 c -94.4,10.7 -197.9,35.1 -230.5,60.7 20.4,14.8 69.9,-18.9 86.2,-28.1 27,26.9 148.3,-32.6 144.3,-32.6 z"
       class="st0" />
  </g>
</svg>
