<?xml version="1.0" encoding="UTF-8" standalone="no"?>
<svg
   xmlns:dc="http://purl.org/dc/elements/1.1/"
   xmlns:cc="http://creativecommons.org/ns#"
   xmlns:rdf="http://www.w3.org/1999/02/22-rdf-syntax-ns#"
   xmlns:svg="http://www.w3.org/2000/svg"
   xmlns="http://www.w3.org/2000/svg"
   xmlns:sodipodi="http://sodipodi.sourceforge.net/DTD/sodipodi-0.dtd"
   xmlns:inkscape="http://www.inkscape.org/namespaces/inkscape"
   viewBox="0 0 1000 1000"
   version="1.1"
   id="svg4"
   sodipodi:docname="ufa50-tank-water.svg"
   width="1000"
   height="1000"
   inkscape:version="0.92.5 (2060ec1f9f, 2020-04-08)">
  <metadata
     id="metadata10">
    <rdf:RDF>
      <cc:Work
         rdf:about="">
        <dc:format>image/svg+xml</dc:format>
        <dc:type
           rdf:resource="http://purl.org/dc/dcmitype/StillImage" />
        <dc:title></dc:title>
      </cc:Work>
    </rdf:RDF>
  </metadata>
  <defs
     id="defs8" />
  <sodipodi:namedview
     pagecolor="#ffffff"
     bordercolor="#666666"
     borderopacity="1"
     objecttolerance="10"
     gridtolerance="10"
     guidetolerance="10"
     inkscape:pageopacity="0"
     inkscape:pageshadow="2"
     inkscape:window-width="1920"
     inkscape:window-height="1016"
     id="namedview6"
     showgrid="false"
     inkscape:zoom="0.4609375"
     inkscape:cx="-232.67797"
     inkscape:cy="256"
     inkscape:window-x="0"
     inkscape:window-y="27"
     inkscape:window-maximized="1"
     inkscape:current-layer="svg4" />
  <!--! Font Awesome Pro 6.0.0 by @fontawesome - https://fontawesome.com License - https://fontawesome.com/license (Commercial License) Copyright 2022 Fonticons, Inc. -->
  <path
     d="m 501.69492,431.51574 c 69.29661,0 125.42373,-53.82022 125.42373,-120.18281 0,-66.36259 -127.43947,-238.170702 -127.43947,-238.170702 0,0 -123.40799,171.785712 -123.40799,238.081112 0,66.2954 56.2167,120.2724 125.42373,120.2724 z M 860.04843,1.4915254 H 556.11985 c 29.38499,39.1949156 58.12046,78.7705806 84.34746,120.1156146 4.56901,7.45823 9.49637,15.27482 14.42373,23.22578 H 860.04843 V 630.17796 C 809.58777,659.33898 745.4425,655.26271 698.85654,617.99618 l -33.43886,-25.22136 c -13.04407,-10.46392 -31.66949,-10.46392 -44.727,0 l -31.46792,25.15194 c -52.31961,41.86016 -126.72276,41.86016 -179.04237,0 l -31.44552,-25.15194 c -13.04407,-10.46392 -31.66949,-10.46392 -44.727,0 l -31.42313,25.08474 c -44.57021,37.40315 -108.78268,41.43463 -159.24333,12.3184 V 144.83292 h 205.26936 c 4.80418,-7.95767 9.60164,-15.76531 14.40581,-23.22578 C 389.2615,80.262106 417.92978,40.686441 447.26997,1.4915254 H 143.34141 C 64.145278,1.4915254 0,65.636803 0,144.83292 v 716.70703 c 0,79.19612 64.145278,143.34145 143.34141,143.34145 h 716.70702 c 79.19612,0 143.34137,-64.14533 143.34137,-143.34145 V 144.83292 c 0,-79.196117 -64.05566,-143.3413946 -143.34137,-143.3413946 z"
     id="path2"
     inkscape:connector-curvature="0"
     style="stroke-width:2.23970938" />
</svg>
