<svg height="1000" width="928.6" xmlns="http://www.w3.org/2000/svg"><path d="m500 462.1v323.6c0 77.6-65.3 142.9-142.9 142.9s-142.8-65.3-142.8-142.9c0-19.5 16.2-35.7 35.7-35.7s35.7 16.2 35.7 35.7c0 37.4 34.1 71.4 71.4 71.4s71.5-34 71.5-71.4v-323.6c11.7-4 23.4-6.2 35.7-6.2s24 2.2 35.7 6.2z m428.6 15c0 9.5-8.4 17.9-17.9 17.9-5 0-8.9-2.3-12.8-5.6-32.4-30.1-62.5-51.3-108.8-51.3-53.1 0-98.8 32.9-128.9 74.7-6.7 9.5-11.8 19.6-17.9 29.1-3.9 6.1-8.4 9.4-15.6 9.4-7.8 0-12.3-3.3-16.2-9.4-6.1-9.5-11.2-19.6-17.9-29.1-30.1-41.8-75.3-74.7-128.3-74.7s-98.2 32.9-128.4 74.7c-6.7 9.5-11.7 19.6-17.8 29.1-3.9 6.1-8.4 9.4-16.2 9.4-7.3 0-11.7-3.3-15.6-9.4-6.2-9.5-11.2-19.6-17.9-29.1-30.1-41.8-75.9-74.7-128.9-74.7-46.3 0-76.4 21.2-108.8 51.3-3.9 3.3-7.8 5.6-12.8 5.6-9.5 0-17.9-8.4-17.9-17.9 0-1.7 0-2.8 0.6-3.9 51.3-210.9 255-330.3 463.7-330.3 207.6 0 413.5 119.4 463.7 330.3 0.6 1.1 0.6 2.2 0.6 3.9z m-428.6-405.7v54.7c-11.7-0.5-24-1.1-35.7-1.1s-24 0.6-35.7 1.1v-54.7c0-19.5 16.2-35.7 35.7-35.7s35.7 16.2 35.7 35.7z" /></svg>