<svg height="1000" width="1285.7" xmlns="http://www.w3.org/2000/svg"><path d="m1276.8 449.2c5.6 2.8 8.9 8.9 8.9 15.1s-3.3 12.3-8.9 15.1l-178.6 107.1c-2.8 1.7-5.6 2.8-8.9 2.8-2.8 0-6.2-0.6-8.9-2.2-5.6-3.4-9-9-9-15.7v-71.4h-478.8c17.9 27.9 33 60.8 46.4 92.1 26.7 60.2 54.1 122.2 93.1 122.2h53.6v-53.6c0-10 7.8-17.8 17.9-17.8h178.5c10.1 0 17.9 7.8 17.9 17.8v178.6c0 10-7.8 17.8-17.9 17.8h-178.5c-10.1 0-17.9-7.8-17.9-17.8v-53.6h-53.6c-85.3 0-123.8-87.6-158.4-164.6-26.3-59.7-53.6-121.1-91.6-121.1h-200.8c-16.2 61.4-72 107.1-138.4 107.1-78.7 0-142.9-64.1-142.9-142.8s64.2-142.9 142.9-142.9c66.4 0 122.2 45.8 138.4 107.2h58c37.9 0 65.3-61.4 91.5-121.1 34.6-77 73.1-164.6 158.5-164.6h59.7c15.1-41.9 54.1-71.5 101-71.5 59.2 0 107.1 48 107.1 107.2s-47.9 107.1-107.1 107.1c-46.9 0-85.9-29.6-101-71.4h-59.7c-39.1 0-66.4 61.9-93.2 122.2-13.4 31.2-28.5 64.2-46.3 92.1h621.6v-71.5c0-6.7 3.4-12.2 9-15.6s12.8-2.8 17.8 0.6z" /></svg>