<svg height="1000" width="571.4" xmlns="http://www.w3.org/2000/svg"><path d="m545.8 661.3c0 113.8-81.5 203.7-199.8 223.2v97.6c0 10.1-7.8 17.9-17.9 17.9h-75.3c-9.5 0-17.9-7.8-17.9-17.9v-97.6c-130.5-18.4-202-96.6-204.8-99.9-5.5-6.7-6.1-16.2-1.1-22.9l57.5-75.3c2.8-3.9 7.8-6.2 12.8-6.7s10.1 1.1 13.4 5c1.1 0.6 79.3 75.3 178 75.3 54.7 0 113.9-29 113.9-92 0-53.6-65.9-79.8-141.2-110-100.5-39.6-225.5-89.8-225.5-229.9 0-102.7 80.4-187.5 197-209.8v-100.4c0-10.1 8.4-17.9 17.9-17.9h75.3c10.1 0 17.9 7.8 17.9 17.9v98.2c113.3 12.8 173.5 74.2 175.8 76.4 5.5 6.2 6.7 14.5 2.8 21.2l-45.2 81.5c-2.8 5-7.3 8.4-12.9 8.9-5.6 1.1-10.6-0.5-15-3.9-0.6-0.5-68.1-60.2-151.8-60.2-70.9 0-120 35.1-120 85.9 0 59.1 68.1 85.4 147.3 116.1 102.7 39.6 218.8 84.8 218.8 219.3z" /></svg>