<svg height="1000" width="1142.9" xmlns="http://www.w3.org/2000/svg"><path d="m392.9 500c-118.3 0-214.3-96-214.3-214.3s96-214.3 214.3-214.3 214.2 96 214.2 214.3-95.9 214.3-214.2 214.3z m601 178.6l138.9 138.9c3.4 3.4 5 7.8 5 12.9 0 4.4-1.6 8.9-5 12.2l-75.9 75.9c-3.3 3.4-7.8 5-12.3 5-5 0-9.4-1.6-12.8-5l-138.9-138.9-139 138.9c-3.3 3.4-7.8 5-12.8 5-4.5 0-9-1.6-12.3-5l-75.9-75.9c-3.3-3.3-5-7.8-5-12.2 0-5.1 1.7-9.5 5-12.9l139-138.9-139-139c-3.3-3.3-5-7.8-5-12.8 0-4.5 1.7-8.9 5-12.3l75.9-75.9c3.3-3.3 7.8-5 12.3-5 5 0 9.5 1.7 12.8 5l139 139 138.9-139c3.4-3.3 7.8-5 12.8-5 4.5 0 9 1.7 12.3 5l75.9 75.9c3.4 3.4 5 7.8 5 12.3 0 5-1.6 9.5-5 12.8z m-277.9 0l-101 101c-13.4 13.4-20.7 31.8-20.7 50.8 0 18.4 7.3 36.8 20.7 50.2l46.3 46.3c-7.8 1.1-16.2 1.7-24.6 1.7h-487.7c-89.3 0-149-53.6-149-144.6 0-126.1 29.6-319.7 193.1-319.7 8.9 0 15 3.9 21.7 9.5 53.6 42.4 108.3 68.1 178.1 68.1s124.4-25.7 178-68.1c6.7-5.6 12.8-9.5 21.7-9.5 10.6 0 21.2 1.1 31.8 3.3-18.4 17.9-30.1 32.4-30.1 59.2 0 19 7.3 37.4 20.7 50.8z" /></svg>