<svg height="1000" width="1071.4" xmlns="http://www.w3.org/2000/svg"><path d="m330.9 500c-58 1.7-110.5 26.8-147.9 71.4h-74.7c-55.8 0-108.3-26.8-108.3-88.7 0-45.2-1.7-197 69.2-197 11.7 0 69.8 47.4 145.1 47.4 25.7 0 50.2-4.4 74.2-12.8-1.7 12.3-2.8 24.6-2.8 36.8 0 50.8 16.2 101 45.2 142.9z m597.7 355.5c0 90.4-59.7 144.5-149 144.5h-487.7c-89.3 0-149-54.1-149-144.5 0-126.1 29.5-319.8 193-319.8 19 0 88.2 77.6 199.8 77.6s180.8-77.6 199.8-77.6c163.5 0 193.1 193.7 193.1 319.8z m-571.5-712.6c0 78.6-64.1 142.8-142.8 142.8s-142.9-64.2-142.9-142.8 64.2-142.9 142.9-142.9 142.8 64.2 142.8 142.9z m392.9 214.2c0 118.3-96 214.3-214.3 214.3s-214.3-96-214.3-214.3 96-214.2 214.3-214.2 214.3 95.9 214.3 214.2z m321.4 125.6c0 61.9-52.4 88.7-108.2 88.7h-74.8c-37.4-44.6-89.9-69.7-147.9-71.4 29-41.9 45.2-92.1 45.2-142.9 0-12.2-1.1-24.5-2.8-36.8 24 8.4 48.6 12.8 74.2 12.8 75.4 0 133.4-47.4 145.1-47.4 70.9 0 69.2 151.8 69.2 197z m-71.4-339.8c0 78.6-64.2 142.8-142.9 142.8s-142.8-64.2-142.8-142.8 64.2-142.9 142.8-142.9 142.9 64.2 142.9 142.9z" /></svg>