<svg height="1000" width="1142.9" xmlns="http://www.w3.org/2000/svg"><path d="m392.9 500c-118.3 0-214.3-96-214.3-214.3s96-214.3 214.3-214.3 214.2 96 214.2 214.3-95.9 214.3-214.2 214.3z m535.7 71.4h196.4c9.5 0 17.9 8.4 17.9 17.9v107.1c0 9.5-8.4 17.9-17.9 17.9h-196.4v196.4c0 9.5-8.4 17.9-17.9 17.9h-107.1c-9.5 0-17.9-8.4-17.9-17.9v-196.4h-196.4c-9.5 0-17.9-8.4-17.9-17.9v-107.1c0-9.5 8.4-17.9 17.9-17.9h196.4v-196.4c0-9.5 8.4-17.9 17.9-17.9h107.1c9.5 0 17.9 8.4 17.9 17.9v196.4z m-410.7 125c0 39.1 32.3 71.5 71.4 71.5h142.8v132.8c-27.3 20.1-61.9 27.9-95.4 27.9h-487.7c-89.3 0-149-53.6-149-144.6 0-126.1 29.6-319.7 193.1-319.7 8.9 0 15 3.9 21.7 9.5 54.7 41.8 107.7 68.1 178.1 68.1s123.3-26.3 178-68.1c6.7-5.6 12.8-9.5 21.7-9.5 47.5 0 89.3 17.8 121.1 53.6h-124.4c-39.1 0-71.4 32.3-71.4 71.4v107.1z" /></svg>