<svg height="1000" width="1142.9" xmlns="http://www.w3.org/2000/svg"><path d="m928.6 17.9c0-10.1 7.8-17.9 17.8-17.9h160.7c19.6 0 35.8 16.2 35.8 35.7v160.7c0 10.1-7.9 17.9-17.9 17.9h-35.7c-10.1 0-17.9-7.8-17.9-17.9v-74.7l-141.7 142.3c54.7 68.6 82 159.5 65.3 257.2-23.5 133.9-132.3 240.5-266.8 260.6-84.8 12.8-164.6-7.8-228.2-50.2-41.9 27.9-90.4 46.3-142.9 51.9v73.6h53.6c10.1 0 17.9 7.9 17.9 17.9v35.7c0 10.1-7.8 17.9-17.9 17.9h-53.6v53.5c0 10.1-7.8 17.9-17.8 17.9h-35.7c-10.1 0-17.9-7.8-17.9-17.9v-53.5h-53.6c-10 0-17.8-7.8-17.8-17.9v-35.7c0-10 7.8-17.9 17.8-17.9h53.6v-73.6c-175.2-19.5-308.6-180.3-282.4-365 19-138.9 129.5-250.5 267.9-271.7 85.4-12.9 165.2 7.8 228.8 50.2 51.3-34.1 112.7-54.1 178.6-54.1 75.9 0 145.6 26.7 200.3 70.3l142.3-141.8h-74.8c-10 0-17.8-7.8-17.8-17.8v-35.7z m-428.6 621.1c44.1-45.2 71.4-106.6 71.4-174.7s-27.3-129.5-71.4-174.7c-44.1 45.2-71.4 106.6-71.4 174.7s27.3 129.5 71.4 174.7z m-428.6-174.7c0 137.8 112.2 250 250 250 44.1 0 86-11.7 121.7-31.8-53-57.5-86-134-86-218.2s33-160.7 86-218.2c-35.7-20.1-77.6-31.8-121.7-31.8-137.8 0-250 112.2-250 250z m607.2 250c137.8 0 250-112.2 250-250s-112.2-250-250-250c-44.1 0-86 11.7-121.7 31.8 53 57.5 86 133.9 86 218.2s-33 160.7-86 218.2c35.7 20.1 77.6 31.8 121.7 31.8z" /></svg>