<svg height="1000" width="1000.0" xmlns="http://www.w3.org/2000/svg"><path d="m998.9 295.2c13.9 176.9-115.5 327-284.6 345.4v145.1h125c10 0 17.8 7.8 17.8 17.9v35.7c0 10-7.8 17.8-17.8 17.8h-125v125c0 10.1-7.8 17.9-17.9 17.9h-35.7c-10 0-17.8-7.8-17.8-17.9v-125h-285.8v125c0 10.1-7.8 17.9-17.8 17.9h-35.7c-10.1 0-17.9-7.8-17.9-17.9v-125h-125c-10 0-17.8-7.8-17.8-17.8v-35.7c0-10.1 7.8-17.9 17.8-17.9h125v-145.1c-169.1-18.4-298.5-168.5-284.6-345.4 12.3-153.5 135.6-279 288.5-293.5 78.1-7.8 151.2 12.8 210.4 52.4 59.2-39.6 132.3-60.2 210.4-52.4 152.9 14.5 276.2 140 288.5 293.5z m-498.9 200.9c44.1-45.2 71.4-106.6 71.4-174.7s-27.3-129.4-71.4-174.6c-44.1 45.2-71.4 106.5-71.4 174.6s27.3 129.5 71.4 174.7z m-178.6 75.3c44.1 0 85.4-11.7 121.7-31.8-53.6-57.5-86-133.9-86-218.2s33-160.7 86-218.2c-36.3-20.1-77.6-31.8-121.7-31.8-137.8 0-250 112.2-250 250s112.2 250 250 250z m321.5 214.3v-145.1c-52.5-5.6-101-24.5-142.9-52.4-41.9 27.9-90.4 46.8-142.9 52.4v145.1h285.8z m35.7-214.3c137.8 0 250-112.1 250-250s-112.2-250-250-250c-44.1 0-85.4 11.7-121.7 31.8 53 57.5 86 134 86 218.2s-32.4 160.7-86 218.2c36.3 20.1 77.6 31.8 121.7 31.8z" /></svg>