<svg height="1000" width="857.1" xmlns="http://www.w3.org/2000/svg"><path d="m721 356c3.9-80.9-26.2-121.6-89.9-123.9-85.9-2.7-143.9 45.8-174.1 145.7 15.7-6.7 30.7-10.6 45.8-10.6 31.2 0 45.2 17.8 41.3 53.6-1.7 21.2-15.6 52.4-41.3 93.2-26.2 41.2-45.8 61.3-58.6 61.3-16.7 0-31.3-31.2-45.8-94.3-4.4-18.9-12.8-65.8-25.1-142.3-11.1-70.3-40.7-103.2-89.3-98.7-20 2.2-51.3 20-91.5 55.8-30.1 26.2-59.7 53.5-90.4 80.3l29 37.4c27.9-19 44.1-29 48.6-29 21.2 0 41.3 33.5 59.7 99.9 16.7 61.4 33.5 122.2 50.2 183.6 25.1 66.4 55.3 99.9 91.5 99.9 58.1 0 129.5-54.7 213.8-164.1 81.4-104.9 123.8-187.5 126.1-247.8z m136.1-123.9v535.8c0 88.7-71.9 160.7-160.7 160.7h-535.7c-88.7 0-160.7-72-160.7-160.7v-535.8c0-88.7 72-160.7 160.7-160.7h535.7c88.8 0 160.7 72 160.7 160.7z" /></svg>