<svg height="1000" width="1000.0" xmlns="http://www.w3.org/2000/svg"><path d="m953.7 289.1c-3.9 88.1-65.9 209.2-185.3 363.2-123.9 160.2-227.7 240.6-313.6 240.6-53 0-97.7-49.1-133.9-146.8-24.6-89.3-49.1-179.1-73.7-269-26.8-97.6-56.4-146.2-87.6-146.2-6.7 0-30.1 14-70.9 42.4l-42.9-54.7c44.6-39.6 88.7-79.8 132.8-118.3 59.1-52.4 104.3-78.6 134.5-81.4 70.8-6.7 113.8 41.3 130.5 144.5 17.3 111.6 30.2 181.4 36.9 208.1 20.6 92.7 42.4 139 66.9 139 19 0 47.5-29.6 86-89.9 37.9-60.2 58-106 60.8-137.2 5-51.9-15.1-77.6-60.8-77.6-21.8 0-44.1 5-67.6 14.5 44.7-146.2 130.1-217.1 256.2-213.2 93.2 2.8 137.3 63.7 131.7 182z" /></svg>