<svg height="1000" width="857.1" xmlns="http://www.w3.org/2000/svg"><path d="m699.8 355.5c5-26.3 4.4-53-11.7-73.7-22.9-29-70.9-30.1-104.4-25.1-26.8 4.5-118.3 44.6-149 141.2 54.7-4.5 83.7 3.9 78.1 64.2-2.2 25.6-15 53-29 79.8-16.7 30.6-47.4 90.9-88.2 47.4-36.2-39.1-34-113.9-41.8-163.5-5-27.9-10-62.5-19-91.5-7.8-24.6-26.2-54.2-48-60.9-24-6.7-53.5 3.9-70.8 14-54.7 32.4-91 78.1-144.6 116.1v3.9c17.9 8.9 12.3 23.4 26.3 25.6 32.9 4.5 64.1-30.7 85.9 6.2 13.4 22.3 17.3 46.8 25.7 70.8 11.7 32.4 20.1 67.6 29.5 104.4 15.7 63.1 34.6 156.8 89.3 179.7 27.4 11.7 69.2-3.9 89.9-16.8 56.9-33.4 102.1-82 139.5-132.2 87.6-117.2 135-251.1 142.3-289.6z m157.3-123.4v535.8c0 88.7-71.9 160.7-160.7 160.7h-535.7c-88.7 0-160.7-72-160.7-160.7v-535.8c0-88.7 72-160.7 160.7-160.7h535.7c88.8 0 160.7 72 160.7 160.7z" /></svg>