<svg height="1000" width="1071.4" xmlns="http://www.w3.org/2000/svg"><path d="m1069.8 290.2c8.3 22.9-17.9 76.4-83.8 164-108.2 144-119.9 130.6-30.6 213.8 85.9 79.8 103.8 118.3 106.5 123.3 0 0 35.8 62.5-39.6 63.1l-142.8 2.2c-30.7 6.1-71.5-21.8-71.5-21.8-53.5-36.8-103.8-132.2-142.8-120 0 0-40.2 12.9-39.1 98.8 0.6 18.4-8.4 28.5-8.4 28.5s-10 10.6-29.5 12.3h-64.2v0c-141.2 8.9-265.6-121.1-265.6-121.1s-136.2-140.7-255.6-421.4c-7.8-18.4 0.5-27.3 0.5-27.3s8.4-10.6 31.9-10.6l152.9-1.1c14.5 2.2 24.5 10 24.5 10s8.9 6.2 13.4 17.9c25.1 62.5 57.5 119.4 57.5 119.4 55.8 115 93.7 134.5 115.5 122.8 0 0 28.5-17.3 22.3-156.3-2.2-50.2-16.2-73.1-16.2-73.1-12.8-17.3-36.8-22.3-47.4-24-8.4-1.1 5.6-21.2 24-30.1 27.3-13.4 75.9-14 133.4-13.4 45.2 0.6 58 3.3 75.3 7.2 53 12.9 35.2 62 35.2 180.3 0 37.9-7.3 91 20 108.3 11.8 7.8 40.8 1.1 112.2-120.6 0 0 33.5-58 59.7-125.5 4.5-12.3 14-17.3 14-17.3s8.9-5.1 21.2-3.4l160.7-1.1c48.5-6.1 56.4 16.2 56.4 16.2z" /></svg>