<svg height="1000" width="1000.0" xmlns="http://www.w3.org/2000/svg"><path d="m770.8 250c-126.6 0-229.1 102.5-229.1 229.2 0 55.4 19.5 106.2 52.3 145.8h-188.2c32.7-39.6 52.3-90.4 52.3-145.8 0-126.7-102.5-229.2-229.1-229.2s-229 102.5-229 229.2 102.5 229.1 229.2 229.1h541.6c126.7 0 229.2-102.5 229.2-229.1s-102.5-229.2-229.2-229.2z m-541.6 375c-80.7 0-145.9-65.2-145.9-145.8s65.2-145.9 145.9-145.9 145.8 65.2 145.8 145.9-65.2 145.8-145.8 145.8z m541.6 0c-80.6 0-145.8-65.2-145.8-145.8s65.2-145.9 145.8-145.9 145.9 65.2 145.9 145.9-65.2 145.8-145.9 145.8z" /></svg>