<svg height="1000" width="642.9" xmlns="http://www.w3.org/2000/svg"><path d="m428.6 196.4v607.2c0 19.5-16.2 35.7-35.7 35.7-9.5 0-18.5-3.9-25.2-10.6l-185.8-185.8h-146.2c-19.5 0-35.7-16.2-35.7-35.8v-214.2c0-19.6 16.2-35.8 35.7-35.8h146.2l185.8-185.8c6.7-6.7 15.7-10.6 25.2-10.6 19.5 0 35.7 16.2 35.7 35.7z m214.3 303.6c0 55.8-34.1 109.9-86.5 131.1-4.5 2.3-9.5 2.8-14 2.8-19.5 0-35.7-15.6-35.7-35.7 0-42.4 64.7-30.7 64.7-98.2s-64.7-55.8-64.7-98.2c0-20.1 16.2-35.7 35.7-35.7 4.5 0 9.5 0.5 14 2.8 52.4 20.6 86.5 75.3 86.5 131.1z" /></svg>