<svg height="1000" width="785.7" xmlns="http://www.w3.org/2000/svg"><path d="m344.3 942.5c0-13.4-29.6-108.2-35.7-130.6-3.4-13.9-4.5-36.8-15.1-46.8-7.2-6.7-18.9-7.8-28.4-7.8-26.3 0-52.5 6.1-78.7 6.1-7.8 0-19.5-0.6-26.2-6.1-9-7.3-13.4-32.4-16.8-43.6-13.4-46.3-20.6-93.7-20.6-142.3s7.2-96 20.6-142.3c3.4-11.1 7.8-36.2 16.8-43.5 6.7-5.6 18.4-6.1 26.2-6.1 26.2 0 52.4 6.1 78.7 6.1 9.5 0 21.2-1.1 28.4-7.8 10.6-10.1 11.7-32.9 15.1-46.9 6.1-22.3 35.7-117.2 35.7-130.6 0-18.9-50.2-46.8-66.4-53-8.4-3.3-16.7-4.4-25.1-4.4-18.4 0-36.8 5-54.7 10-91.5 27.3-113.3 83.1-149.6 161.8-39 84.3-48.5 164.7-48.5 256.7s9.5 172.5 48.5 256.7c36.3 78.7 58.1 134.5 149.6 161.9 17.9 5 36.3 10 54.7 10 8.4 0 16.7-1.1 25.1-4.5 16.2-6.1 66.4-34 66.4-53z m88.7-509.5c-9.5 0-18.4-3.9-25.1-10.6-13.9-13.9-14.5-36.8 0-50.7 13.4-13.4 20.7-31.3 20.7-50.3s-7.3-36.8-20.7-50.8c-14.5-13.9-13.9-36.2 0-50.2s36.3-13.9 50.2 0c26.8 26.8 41.9 63.1 41.9 101s-15.1 74.2-41.9 101c-7.2 6.7-16.1 10.6-25.1 10.6z m101 101c-9.4 0-18.4-3.3-25.1-10.6-13.9-13.9-13.9-36.2 0-50.2 40.2-40.7 62.5-94.3 62.5-151.8s-22.3-111-62.5-151.8c-13.9-13.9-13.9-36.2 0-50.2s36.3-13.9 50.3 0c54.1 54.1 83.7 125.6 83.7 202s-29.6 147.9-83.7 202c-6.7 7.3-16.2 10.6-25.2 10.6z m101 101c-9.4 0-18.4-3.3-25.1-10.6-13.9-13.9-13.9-36.2 0-50.2 67-67.5 104.4-157.3 104.4-252.8s-37.4-185.2-104.4-252.8c-13.9-13.9-13.9-36.2 0-50.2s36.3-13.9 50.3 0c80.9 80.9 125.5 188.6 125.5 303s-44.6 222.1-125.5 303c-6.7 7.3-16.2 10.6-25.2 10.6z" /></svg>