<svg height="1000" width="1000.0" xmlns="http://www.w3.org/2000/svg"><path d="m916.7 166.7v-20.9c0-57.5-46.7-104.1-104.2-104.1s-104.2 46.6-104.2 104.1v20.9c-23.1 0-41.6 18.7-41.6 41.6v166.7c0 22.9 18.5 41.7 41.6 41.7h208.4c23.1 0 41.6-18.8 41.6-41.7v-166.7c0-22.9-18.5-41.6-41.6-41.6z m-33.4 0h-141.6v-20.9c0-39.1 31.6-70.8 70.8-70.8s70.8 31.7 70.8 70.8v20.9z m-94.8 333.3c1.7 13.8 3.2 27.5 3.2 41.7 0 86.6-33.4 165.4-87.7 224.8-10.7-33.8-41.9-58.2-79-58.2h-41.7v-125c0-22.9-18.7-41.6-41.6-41.6h-250v-83.4h83.3c22.9 0 41.7-18.7 41.7-41.6v-83.4h83.3c46 0 83.3-37.3 83.3-83.3v-105.8c-39.3-12.5-81.4-19.2-125-19.2-230.2 0-416.6 186.5-416.6 416.7s186.4 416.6 416.6 416.6 416.7-186.4 416.7-416.6c0-14.2-0.8-27.9-2.1-41.7h-84.4z m-371.8 372.1c-164.4-20.4-291.7-160.4-291.7-330.4 0-25.7 3.1-50.7 8.8-74.6l199.5 199.6v41.6c0 46.1 37.3 83.4 83.4 83.4v80.4z" /></svg>