<svg height="1000" width="1000.0" xmlns="http://www.w3.org/2000/svg"><path d="m281.5 201.9l-74.6-74.8-59 58.9 74.8 74.8 58.8-58.9z m-114.8 235.6h-125v83.3h125v-83.3z m375-414.6h-83.4v122.9h83.4v-122.9z m310.4 163.1l-59-58.9-74.8 74.8 59 58.9 74.8-74.8z m-133.6 570.5l74.8 74.8 59-59-74.8-74.8-59 59z m114.8-319v83.3h125v-83.3h-125z m-333.3-208.3c-138.1 0-250 111.8-250 250s111.9 250 250 250 250-111.9 250-250-111.9-250-250-250z m-41.7 706.2h83.4v-122.9h-83.4v122.9z m-310.4-163.1l59 59 74.8-74.8-59-59-74.8 74.8z" /></svg>