<svg height="1000" width="1000.0" xmlns="http://www.w3.org/2000/svg"><path d="m376.7 716.5c15.6-25.7 7.2-55.2-19-66.4-25.1-10.6-58.6 0.6-74.2 25.1-16.2 25.1-8.4 54.7 16.7 66.4 25.7 11.7 60.3 0.6 76.5-25.1z m52.4-67.5c5.6-10 2.3-21.2-7.8-25.1-10-3.4-22.3 1.1-27.9 10.6-5.6 10-2.8 20.6 7.3 25.1 10 3.9 22.8-0.6 28.4-10.6z m97.1 59.7c-33.5 75.9-130.6 117.2-213.1 90.4-79.8-25.7-113.3-104.3-78.7-175.2 34.6-69.2 123.3-108.3 202-88.2 82 21.2 123.3 98.2 89.8 173z m174.1-89.3c-10.6-108.8-153.4-183.6-319.2-167.4-165.7 16.8-290.7 117.8-280.1 226.6s153.5 183.6 319.2 167.4c165.7-16.8 290.7-117.8 280.1-226.6z m171.9 2.3c0 125.5-180.8 283.4-452.6 283.4-207.5 0-419.6-100.4-419.6-266.1 0-86.5 54.7-186.4 149-280.7 126.1-126.2 272.9-183.1 328.1-127.8 24.6 24 26.8 66.4 11.2 116.6-7.8 25.7 24 11.2 24 11.7 101.5-43 190.3-45.2 222.6 1.1 17.3 24.6 15.7 59.2 0 99.4-7.2 18.4 2.3 21.2 16.2 25.6 57.5 17.9 121.1 60.9 121.1 136.8z m-41.3-348.3c31.8 35.2 40.8 83.7 26.8 126.2-5.6 17.3-24 26.7-41.3 21.2s-26.8-24-21.2-41.3v0c6.7-21.2 2.2-44.7-13.4-62s-38.5-24-59.7-19.5v0c-17.9 3.9-35.7-7.3-39.1-25.1-3.9-17.9 7.3-35.2 25.1-39.1 43.6-9.5 91 3.9 122.8 39.6z m101-90.9c65.9 72.5 83.2 171.9 55.3 258.9v0c-6.7 20.1-27.9 31.3-48 24.6s-31.3-27.9-25.1-48v0c20.1-62 7.8-132.8-39.1-184.2-46.9-51.9-115.5-71.4-179.1-58-20.7 4.4-41.3-8.9-45.8-29.6s8.9-40.7 29.6-45.2v0c89.8-19 186.4 8.4 252.2 81.5z" /></svg>