<svg height="1000" width="1142.9" xmlns="http://www.w3.org/2000/svg"><path d="m323.7 257.3c0-30.7-20.1-50.8-50.8-50.8-30.2 0-60.8 20.1-60.8 50.8 0 30.1 30.6 50.2 60.8 50.2 30.7 0 50.8-20.1 50.8-50.2z m414.6 282.9c0-20.1-20.1-40.2-50.8-40.2-20.1 0-40.2 20.1-40.2 40.2 0 20.6 20.1 40.7 40.2 40.7 30.7 0 50.8-20.1 50.8-40.7z m-131.7-282.9c0-30.7-20.1-50.8-50.2-50.8-30.7 0-60.9 20.1-60.9 50.8 0 30.1 30.2 50.2 60.9 50.2 30.1 0 50.2-20.1 50.2-50.2z m354.3 282.9c0-20.1-20.6-40.2-50.7-40.2-20.1 0-40.2 20.1-40.2 40.2 0 20.6 20.1 40.7 40.2 40.7 30.1 0 50.7-20.1 50.7-40.7z m-148.4-221.6c-12.8-1.6-25.7-2.2-39.1-2.2-191.9 0-343.7 143.4-343.7 319.8 0 29.5 4.5 58 12.8 84.8-12.8 1.1-25.1 1.7-37.9 1.7-50.8 0-91-10.1-141.8-20.1l-141.1 70.8 40.1-121.6c-101-70.9-161.8-162.4-161.8-273.5 0-192.5 181.9-343.7 404.6-343.7 198.6 0 373.3 121.1 407.9 284z m330.4 313.1c0 91-60.3 171.9-141.8 232.7l30.7 101-111-60.8c-40.8 10-81.5 20.6-121.7 20.6-192.5 0-343.7-131.7-343.7-293.5s151.2-293.5 343.7-293.5c181.9 0 343.8 131.7 343.8 293.5z" /></svg>