<svg height="1000" width="857.1" xmlns="http://www.w3.org/2000/svg"><path d="m549.7 543.5c9.5 0 100.4 47.5 104.3 54.2 1.1 2.7 1.1 6.1 1.1 8.3 0 14-4.4 29.6-9.5 42.4-12.8 31.3-64.7 51.4-96.5 51.4-26.8 0-82-23.5-106-34.6-79.8-36.3-129.5-98.2-177.5-169.1-21.2-31.3-40.2-69.8-39.6-108.3v-4.4c1.1-36.9 14.5-63.1 41.3-88.2 8.4-7.8 17.3-12.3 29-12.3 6.7 0 13.4 1.7 20.7 1.7 15 0 17.8 4.5 23.4 19 3.9 9.5 32.4 85.4 32.4 90.9 0 21.2-38.5 45.2-38.5 58.1 0 2.8 1.1 5.5 2.8 8.3 12.2 26.3 35.7 56.4 56.9 76.5 25.6 24.5 53 40.7 84.2 56.4 3.9 2.2 7.8 3.9 12.3 3.9 16.8 0 44.7-54.2 59.2-54.2z m-113.3 295.8c193.1 0 350.4-157.4 350.4-350.5s-157.3-350.4-350.4-350.4-350.5 157.4-350.5 350.4c0 73.7 23.5 145.7 67 205.4l-44.1 130 135.1-42.9c56.9 37.3 124.4 58 192.5 58z m0-771.2c232.1 0 420.7 188.6 420.7 420.7s-188.6 420.8-420.7 420.8c-70.9 0-141.2-17.9-203.7-52.5l-232.7 74.8 75.9-226c-39.6-65.3-60.3-140.6-60.3-217.1 0-232.1 188.6-420.7 420.8-420.7z" /></svg>