<svg height="1000" width="1000.0" xmlns="http://www.w3.org/2000/svg"><path d="m854.2 395.8c11.6 0 22.7 1.7 33.9 3.4l111.9-149.2c-139.4-104.6-312.5-166.7-500-166.7s-360.6 62.1-500 166.7l500 666.7 145.8-194.4v-118.1c0-115 93.4-208.4 208.4-208.4z m104.1 270.9v-62.5c0-57.5-46.6-104.2-104.1-104.2s-104.2 46.7-104.2 104.2v62.5c-22.9 0-41.7 18.7-41.7 41.6v166.7c0 22.9 18.8 41.7 41.7 41.7h208.3c22.9 0 41.7-18.8 41.7-41.7v-166.7c0-22.9-18.8-41.6-41.7-41.6z m-41.6 0h-125v-62.5c0-34.6 27.9-62.5 62.5-62.5s62.5 27.9 62.5 62.5v62.5z" /></svg>