<svg height="1000" width="834.0" xmlns="http://www.w3.org/2000/svg"><path d="m78.1 328.1q-33.2-56.6-74.2-72.2l-3.9-2v-29.3h2 212.8v29.3q-25.3 2-41.9 13.7t-10.8 33.2q27.4 64.4 79.1 183.6t75.2 173.8l89.9-169.9q-13.7-27.4-45-100.6t-52.7-114.3q-13.7-19.5-70.3-21.4v-27.4h199.2l2 27.4q-11.8 1.9-19.6 3.9t-13.6 8.7-4 16.7l56.7 125q54.7-117.2 54.7-119.2 5.8-21.5-9.8-28.3t-41-6.8l-2-27.4h179.7v27.4q-46.8 3.9-64.4 29.3-27.4 39-89.9 173.8 45 103.5 84 185.5l152.4-351.5q-11.8-25.4-56.7-37.1l-1.9-27.4 169.9 2v27.3q-11.7 2-21.5 5.9-21.5 9.7-35.2 33.2l-208.9 482.4h-35.2l-101.6-234.4-121.1 234.4h-35.1q-31.3-64.5-93.8-216.8t-103.5-230.5z" /></svg>