<svg height="1000" width="1285.7" xmlns="http://www.w3.org/2000/svg"><path d="m833.7 914.6l-164.6-387.8c-65.3 127.8-137.3 261.1-199.2 387.8-0.6 0.6-30.2 0-30.2-0.5-94.3-220.5-193-439.2-287.4-660.2-22.8-53.6-99.3-140.6-151.7-140.1 0-6.1-0.6-20-0.6-28.4h325.3v27.9c-38.5 2.2-106 26.8-87 68.6 44.1 99.9 208.1 482.7 252.2 579.8 30.1-59.7 116.1-219.3 151.2-286.8-27.9-56.9-117.7-269-146.2-321.4-19.5-35.8-72.5-39.1-112.1-39.7v-27.9l286.2 0.6v26.2c-39 1.1-76.4 15.6-59.1 52.5 37.9 80.3 61.4 136.7 96.5 210.4 11.2-21.8 69.8-139.6 96.6-202.6 17.8-41.3-7.8-57.5-77.6-59.2 0.6-7.2 0-20.6 0.6-27.3 89.2-0.6 223.2-0.6 247.2-1.1v27.3c-45.2 1.7-92.1 25.7-116.7 63.6l-118.8 246.7c12.8 32.4 127.2 286.8 138.9 314.7l246.1-567.5c-17.3-46.3-73.1-56.4-94.8-56.9v-27.9l256.7 2.2 0.5 1.1-0.5 24.6c-56.4 1.7-90.4 31.8-112.2 80.9-50.2 116.1-207.6 482.1-312 720.4h-27.3z" /></svg>