<svg height="1000" width="1000.0" xmlns="http://www.w3.org/2000/svg"><path d="m70.9 500c0-61.9 13.4-121.1 37.4-174.7l204.8 560.9c-143.5-69.8-242.2-216.6-242.2-386.2z m718.7-21.8c0 36.9-15 79.3-32.9 139l-42.4 142.8-155.1-460.9s25.6-1.7 49.1-4.5c22.8-2.7 20-36.8-2.8-35.1-69.8 5-114.4 5.6-114.4 5.6s-41.9-0.6-112.8-5.6c-23.4-1.7-26.2 33.5-2.7 35.1 21.7 2.3 44.6 4.5 44.6 4.5l67 183-93.8 281.3-156.2-464.3s25.6-1.7 49.1-4.5c22.9-2.7 20.1-36.8-2.8-35.1-69.2 5-114.4 5.6-114.4 5.6-7.8 0-17.3-0.6-27.4-0.6 76.5-116.6 208.2-193.6 358.3-193.6 111.6 0 213.2 42.9 289.6 112.7h-5.6c-41.8 0-71.9 36.3-71.9 75.9 0 35.1 20.6 64.7 42.4 100.4 16.7 28.5 35.1 65.3 35.1 118.3z m-282.3 59.2l132.2 361c0.6 2.3 1.7 4.5 2.8 6.2-44.6 15.6-92.1 24.5-142.3 24.5-41.9 0-82.6-6.1-121.1-17.8z m368.8-243.3c33.5 61.4 53 131.1 53 205.9 0 158.5-85.9 296.3-213.7 370.5l131.1-378.3c21.8-62.5 33-110.5 33-154 0-15.7-1.2-30.2-3.4-44.1z m-376.1-294.1c275.7 0 500 224.3 500 500s-224.3 500-500 500-500-224.3-500-500 224.3-500 500-500z m0 977.1c262.8 0 477.1-214.3 477.1-477.1s-214.3-477.1-477.1-477.1-477.1 214.3-477.1 477.1 214.3 477.1 477.1 477.1z" /></svg>