<svg height="1000" width="928.6" xmlns="http://www.w3.org/2000/svg"><path d="m214.3 821.4c0-19.5-16.2-35.7-35.7-35.7s-35.7 16.2-35.7 35.7 16.1 35.7 35.7 35.7 35.7-16.1 35.7-35.7z m359.4-234.3l-380.6 380.5c-12.9 12.9-31.3 20.7-50.2 20.7s-37.4-7.8-50.8-20.7l-59.2-60.2c-13.4-12.9-21.2-31.3-21.2-50.3s7.8-37.3 21.2-50.7l380-380.1c29.1 73.1 87.7 131.7 160.8 160.8z m353.8-242.8c0 18.4-6.7 41.3-12.9 59.2-35.1 99.3-130.6 167.9-236 167.9-137.9 0-250-112.1-250-250s112.1-250 250-250c40.7 0 93.7 12.3 127.8 35.2 5.5 3.9 8.9 8.9 8.9 15.6 0 6.1-3.9 12.3-8.9 15.6l-163.5 94.3v125l107.7 59.8c18.4-10.6 147.8-92.1 159-92.1s17.9 8.3 17.9 19.5z" /></svg>