<svg height="1000" width="834.0" xmlns="http://www.w3.org/2000/svg"><path d="m416 244.1q-46.9-35.1-91.8-53.7t-75.2-20.5-54.7 0-36.1 7.8l-11.7 5.9q115.2-99.6 269.5-99.6t271.5 99.6q-5.9-2-13.7-5.9t-34.2-7.8-55.6 0-75.2 21.5-92.8 52.7v0z m-109.4 80.1q-76.1 78.1-126.9 152.4t-67.4 124-23.4 86.9-3 54.7l5.9 17.6q-91.8-113.3-91.8-259.8 0-164.1 111.3-283.2 74.2 31.2 195.3 107.4z m527.4 175.8q0 146.5-91.8 259.8 1.9-5.9 4.9-17.6t-3-53.7-23.4-88.9-67.4-122.1-127.9-153.3q54.7-33.2 103.5-60.5t70.3-37.1l21.5-9.8q113.3 119.1 113.3 283.2z m-419.9-85.9q74.2 52.7 131.8 111.3t87.9 103.5 50.8 82 26.3 56.7l5.9 19.5q-121.1 128.9-299.8 128.9t-301.8-128.9q3.9-7.8 9.8-22.5t29.3-58.5 54.7-87 85.9-99.6 119.2-105.4z" /></svg>