<svg height="1000" width="785.7" xmlns="http://www.w3.org/2000/svg"><path d="m333.1 372.2c0 0-5.5 9.5-143.4 254.5-7.2 12.3-16.7 25.6-36.2 25.6h-133.4c-7.8 0-14-3.9-17.3-9.4s-3.9-12.9 0-20.1l141.2-250c0.5 0 0.5 0 0-0.6l-89.9-155.7c-3.9-7.2-4.4-15-0.5-20.6 3.3-5.6 10-8.4 17.8-8.4h133.4c20.1 0 30.1 13.4 36.8 25.1 91 159.1 91.5 159.6 91.5 159.6z m449.8-358.2c3.9 5.5 3.9 13.3 0 20.6l-294.6 521.2c-0.6 0-0.6 0.6 0 0.6l187.5 343.2c3.9 7.2 3.9 15 0.5 20.6-3.9 5.6-10 8.4-17.8 8.4h-133.4c-20.1 0-30.7-13.4-36.8-25.1-189.2-346.6-189.2-347.1-189.2-347.1s9.5-16.8 296.3-525.7c7.3-12.8 15.6-25.1 35.7-25.1h134.5c7.8 0 14 2.8 17.3 8.4z" /></svg>