<svg height="1000" width="928.6" xmlns="http://www.w3.org/2000/svg"><path d="m189.2 121.7h385.6l-14.5 40.1h-371.1c-82.1 0-149 67.6-149 149.6v430.2c0 70.3 50.2 132.3 119.4 146.8 17.9 3.9 36.3 2.8 54.7 2.8v40.2h-25.1c-104.4 0-189.2-85.4-189.2-189.8v-430.2c0-104.4 84.8-189.7 189.2-189.7z m474.9-121.7h137.8l-269 722.1c-50.2 133.9-111 273.4-276.2 277.9v-108.8c61.9-10.1 101.6-44.1 122.8-101.6 7.2-19 11.1-38.5 11.1-58.6s-3.9-40.2-11.1-59.1l-159.1-409.1h127.3l104.3 326.5z m264.5 311.4v620h-443.7c9-13.4 18.4-26.3 25.1-40.8h378.4v-579.2c0-63.6-40.2-120.6-99.9-141.8l14-37.3c75.8 25.6 126.1 99.3 126.1 179.1z" /></svg>