<svg height="1000" width="857.1" xmlns="http://www.w3.org/2000/svg"><path d="m512.8 727.1v-87.6c0-18.4-5.5-27.9-16.1-27.9-6.2 0-12.3 2.8-18.5 8.9v125c6.2 6.2 12.3 9 18.5 9 10.6 0 16.1-9 16.1-27.4z m102.7-68.1h36.8v-18.9c0-19-6.1-28.5-18.4-28.5s-18.4 9.5-18.4 28.5v18.9z m-318.6-148.4v39.1h-44.7v236h-41.3v-236h-43.5v-39.1h129.5z m112.1 70.3v204.8h-37.3v-22.3c-14.6 16.7-28.5 25.1-42.5 25.1-11.7 0-20-5-23.4-15.6-2.2-6.2-3.3-15.6-3.3-30.2v-161.8h36.8v150.7c0 8.4 0 13.4 0.5 14.5 0.6 5.6 3.4 8.4 8.4 8.4 7.8 0 15.1-5.6 23.5-17.3v-156.3h37.3z m140.7 62v81.4c0 18.4-1.2 32.4-3.9 40.8-4.5 15.6-14.5 23.4-29.6 23.4-12.9 0-25.7-7.8-38-22.9v20.1h-37.4v-275.1h37.4v89.8c11.8-14.5 24.6-22.3 38-22.3 15.1 0 25.1 7.8 29.6 23.5 2.7 8.3 3.9 21.7 3.9 41.3z m140 71.9v5.1c0 12.2-0.5 20.1-1.1 24-1.1 8.3-3.9 15.6-8.4 22.3-10 15.1-25.6 22.3-44.6 22.3-19.5 0-34.6-7.3-45.2-21.2-7.8-10-11.7-26.2-11.7-48v-72c0-21.7 3.3-37.4 11.1-48 10.6-13.9 25.7-21.2 44.7-21.2 18.4 0 33.5 7.3 43.5 21.2 7.8 10.6 11.7 26.3 11.7 48v42.4h-74.2v36.3c0 19 6.2 28.5 19 28.5 8.9 0 14.5-5.1 16.7-14.5 0-2.3 0.6-10.6 0.6-25.2h37.9z m-251.6-459.8v87.1c0 18.9-6.2 28.4-17.9 28.4-12.3 0-17.9-9.5-17.9-28.4v-87.1c0-19 5.6-29 17.9-29 11.7 0 17.9 10 17.9 29z m297.4 397.9v0c0-48 0-98.8-10.6-145.1-7.8-32.9-34.6-56.9-66.4-60.3-75.9-8.3-152.9-8.3-229.9-8.3-76.5 0-153.5 0-229.4 8.3-32.3 3.4-59.1 27.4-66.4 60.3-10.6 46.3-11.1 97.1-11.1 145.1v0c0 47.4 0 98.2 11.1 145.1 7.3 32.4 34.1 56.4 65.9 60.3 76.4 8.3 153.4 8.3 229.9 8.3s153.4 0 229.9-8.3c31.8-3.9 58.6-27.9 65.8-60.3 11.2-46.9 11.2-97.7 11.2-145.1z m-421.3-363.3l50.2-165.2h-41.9l-28.4 108.9-29.6-108.9h-43.5c8.4 25.7 17.8 51.4 26.2 77.1 13.4 39 21.8 68 25.7 88.1v112.2h41.3v-112.2z m161.2 45.2v-72.5c0-21.8-3.9-38-11.7-48.6-10.6-13.9-25.1-21.2-43.5-21.2-19 0-33.5 7.3-43.5 21.2-7.8 10.6-11.7 26.8-11.7 48.6v72.5c0 21.8 3.9 38 11.7 48.6 10 13.9 24.5 21.2 43.5 21.2 18.4 0 32.9-7.3 43.5-21.2 7.8-10.1 11.7-26.8 11.7-48.6z m101.1 67h37.3v-206.5h-37.3v157.9c-8.4 11.8-16.2 17.3-23.5 17.3-5 0-8.4-2.8-8.9-8.9-0.6-1.1-0.6-5.6-0.6-14.5v-151.8h-37.4v163.5c0 14.5 1.2 24 3.4 30.7 3.9 10.1 12.3 15.1 24 15.1 13.9 0 27.9-8.4 43-25.1v22.3z m280.6-169.7v535.8c0 88.7-71.9 160.7-160.7 160.7h-535.7c-88.7 0-160.7-72-160.7-160.7v-535.8c0-88.7 72-160.7 160.7-160.7h535.7c88.8 0 160.7 72 160.7 160.7z" /></svg>