<?xml version="1.0" standalone="no"?>
<!DOCTYPE svg PUBLIC "-//W3C//DTD SVG 1.1//EN" "http://www.w3.org/Graphics/SVG/1.1/DTD/svg11.dtd" >
<svg xmlns="http://www.w3.org/2000/svg">
<defs>
  <font id="iconfont" horiz-adv-x="3500">
    <font-face font-family="iconfont"
      units-per-em="1500" ascent="1500"
      descent="0" />
    <missing-glyph horiz-adv-x="0" />
    <glyph glyph-name="adjust"
      unicode="&#xF000;"
      horiz-adv-x="857.1" d="M428.6 196.4V803.6C261.2000000000001 803.6 125 667.4000000000001 125 500S261.2 196.4 428.6 196.4zM857.1 500C857.1 263.4 665.2 71.4 428.6 71.4S0 263.4 0 500S192 928.6 428.6 928.6S857.1 736.6 857.1 500z" />
    <glyph glyph-name="adn"
      unicode="&#xF001;"
      horiz-adv-x="857.1" d="M428.6 652.9L540.7 482.0999999999999H316.4000000000001zM632.3 357.0999999999999H684.6999999999999L428.5999999999999 742.6999999999999L172.3999999999999 357.0999999999999H224.8999999999999L282.8999999999999 446.3999999999999H574.1999999999999zM857.0999999999999 499.9999999999999C857.0999999999999 263.3999999999999 665.1999999999999 71.3999999999999 428.5999999999999 71.3999999999999S-1e-13 263.3999999999999 -1e-13 499.9999999999999S191.9999999999999 928.6 428.5999999999999 928.6S857.0999999999999 736.5999999999999 857.0999999999999 499.9999999999999z" />
    <glyph glyph-name="align-center"
      unicode="&#xF002;"
      horiz-adv-x="1000" d="M1000 250V178.6C1000 159 983.8 142.9 964.3 142.9H35.6999999999999C16.1999999999999 142.9 -1e-13 159 -1e-13 178.6V250C-1e-13 269.5 16.1999999999999 285.7000000000001 35.6999999999999 285.7000000000001H964.3C983.8 285.7000000000001 1000 269.5 1000 250zM785.7 464.3V392.9C785.7 373.3 769.5 357.1 750 357.1H250C230.5 357.1 214.3 373.3000000000001 214.3 392.9V464.3C214.3 483.8 230.5 499.9999999999999 250 499.9999999999999H750C769.5 499.9999999999999 785.7 483.8 785.7 464.3zM928.6 678.5999999999999V607.0999999999999C928.6 587.5999999999999 912.4 571.4 892.9 571.4H107.1C87.6 571.4 71.4 587.5999999999999 71.4 607.0999999999999V678.5999999999999C71.4 698.0999999999999 87.6 714.3 107.1 714.3H892.9C912.4 714.3 928.6 698.0999999999999 928.6 678.5999999999999zM714.3 892.9V821.4C714.3 801.9 698.0999999999999 785.7 678.5999999999999 785.7H321.3999999999999C301.8999999999999 785.7 285.7 801.9 285.7 821.4V892.9C285.7 912.4 301.8999999999999 928.6 321.3999999999999 928.6H678.5999999999999C698.0999999999999 928.6 714.3 912.4 714.3 892.9z" />
    <glyph glyph-name="align-justify"
      unicode="&#xF003;"
      horiz-adv-x="1000" d="M1000 250V178.6C1000 159 983.8 142.9 964.3 142.9H35.6999999999999C16.1999999999999 142.9 -1e-13 159 -1e-13 178.6V250C-1e-13 269.5 16.1999999999999 285.7000000000001 35.6999999999999 285.7000000000001H964.3C983.8 285.7000000000001 1000 269.5 1000 250zM1000 464.3V392.9C1000 373.3 983.8 357.1 964.3 357.1H35.6999999999999C16.1999999999999 357.1 -1e-13 373.3000000000001 -1e-13 392.9V464.3C-1e-13 483.8 16.1999999999999 499.9999999999999 35.6999999999999 499.9999999999999H964.3C983.8 499.9999999999999 1000 483.8 1000 464.3zM1000 678.5999999999999V607.0999999999999C1000 587.5999999999999 983.8 571.4 964.3 571.4H35.6999999999999C16.1999999999999 571.4 -1e-13 587.5999999999999 -1e-13 607.0999999999999V678.5999999999999C-1e-13 698.0999999999999 16.1999999999999 714.3 35.6999999999999 714.3H964.3C983.8 714.3 1000 698.0999999999999 1000 678.5999999999999zM1000 892.9V821.4C1000 801.9 983.8 785.7 964.3 785.7H35.6999999999999C16.1999999999999 785.7 -1e-13 801.9 -1e-13 821.4V892.9C-1e-13 912.4 16.1999999999999 928.6 35.6999999999999 928.6H964.3C983.8 928.6 1000 912.4 1000 892.9z" />
    <glyph glyph-name="align-left"
      unicode="&#xF004;"
      horiz-adv-x="1000" d="M1000 250V178.6C1000 159 983.8 142.9 964.3 142.9H35.6999999999999C16.1999999999999 142.9 -1e-13 159 -1e-13 178.6V250C-1e-13 269.5 16.1999999999999 285.7000000000001 35.6999999999999 285.7000000000001H964.3C983.8 285.7000000000001 1000 269.5 1000 250zM785.7 464.3V392.9C785.7 373.3 769.5 357.1 750 357.1H35.7C16.2 357.1 0 373.3000000000001 0 392.9V464.3C0 483.8 16.2 499.9999999999999 35.7 499.9999999999999H750C769.5 499.9999999999999 785.7 483.8 785.7 464.3zM928.6 678.5999999999999V607.0999999999999C928.6 587.5999999999999 912.4 571.4 892.9 571.4H35.6999999999999C16.1999999999999 571.4 -1e-13 587.5999999999999 -1e-13 607.0999999999999V678.5999999999999C-1e-13 698.0999999999999 16.1999999999999 714.3 35.6999999999999 714.3H892.9C912.4 714.3 928.6 698.0999999999999 928.6 678.5999999999999zM714.3 892.9V821.4C714.3 801.9 698.0999999999999 785.7 678.5999999999999 785.7H35.6999999999999C16.1999999999999 785.7 -1e-13 801.9 -1e-13 821.4V892.9C-1e-13 912.4 16.1999999999999 928.6 35.6999999999999 928.6H678.5999999999999C698.0999999999999 928.6 714.3 912.4 714.3 892.9z" />
    <glyph glyph-name="align-right"
      unicode="&#xF005;"
      horiz-adv-x="1000" d="M1000 250V178.6C1000 159 983.8 142.9 964.3 142.9H35.6999999999999C16.1999999999999 142.9 -1e-13 159 -1e-13 178.6V250C-1e-13 269.5 16.1999999999999 285.7000000000001 35.6999999999999 285.7000000000001H964.3C983.8 285.7000000000001 1000 269.5 1000 250zM1000 464.3V392.9C1000 373.3 983.8 357.1 964.3 357.1H250C230.5 357.1 214.3 373.3000000000001 214.3 392.9V464.3C214.3 483.8 230.5 499.9999999999999 250 499.9999999999999H964.3C983.8 499.9999999999999 1000 483.8 1000 464.3zM1000 678.5999999999999V607.0999999999999C1000 587.5999999999999 983.8 571.4 964.3 571.4H107.0999999999999C87.5999999999999 571.4 71.3999999999999 587.5999999999999 71.3999999999999 607.0999999999999V678.5999999999999C71.3999999999999 698.0999999999999 87.5999999999999 714.3 107.0999999999999 714.3H964.3C983.8 714.3 1000 698.0999999999999 1000 678.5999999999999zM1000 892.9V821.4C1000 801.9 983.8 785.7 964.3 785.7H321.4C301.9 785.7 285.7 801.9 285.7 821.4V892.9C285.7 912.4 301.9 928.6 321.4 928.6H964.3C983.8 928.6 1000 912.4 1000 892.9z" />
    <glyph glyph-name="ambulance"
      unicode="&#xF006;"
      horiz-adv-x="1071.4" d="M357.1 214.3C357.1 253.9 325.3 285.7 285.7000000000001 285.7S214.3000000000001 253.9 214.3000000000001 214.3S246.1000000000001 142.9 285.7000000000001 142.9S357.1 174.6999999999999 357.1 214.3zM142.9 499.9999999999999H357.1V642.9H269C265.6 642.3 259.5 640.0999999999999 256.7 637.8L147.9 529C146.2 526.1999999999999 143.4 520.0999999999999 142.9 516.6999999999999V499.9999999999999zM857.1000000000001 214.3C857.1000000000001 253.9 825.3000000000002 285.7 785.7000000000002 285.7S714.3000000000002 253.9 714.3000000000002 214.3S746.1000000000001 142.9 785.7000000000002 142.9S857.1000000000001 174.6999999999999 857.1000000000001 214.3zM928.6000000000003 589.3V696.4C928.6000000000003 706.5 920.8000000000002 714.3 910.7000000000002 714.3H785.7000000000002V839.3C785.7000000000002 849.3 777.9000000000002 857.0999999999999 767.9000000000002 857.0999999999999H660.7000000000002C650.7000000000002 857.0999999999999 642.9000000000002 849.3 642.9000000000002 839.3V714.3H517.9000000000002C507.8000000000002 714.3 500.0000000000002 706.5 500.0000000000002 696.4V589.3C500.0000000000002 579.1999999999999 507.8000000000002 571.4 517.9000000000002 571.4H642.9000000000002V446.4C642.9000000000002 436.4 650.7000000000002 428.6 660.7000000000002 428.6H767.9000000000002C777.9000000000002 428.6 785.7000000000002 436.4 785.7000000000002 446.4V571.4H910.7000000000002C920.8000000000002 571.4 928.6000000000003 579.2 928.6000000000003 589.3zM1071.4 892.9V250C1071.4 230.5 1055.2 214.3 1035.7 214.3H928.6C928.6 135.5999999999999 865 71.4 785.7 71.4C707 71.4 642.9000000000001 135.6 642.9000000000001 214.3H428.6000000000001C428.6000000000001 135.5999999999999 365.0000000000001 71.4 285.7000000000001 71.4S142.9 135.6 142.9 214.3H71.4C51.9 214.3 35.7 230.5 35.7 250S51.9 285.7000000000001 71.4 285.7000000000001V517.9000000000001C71.4 537.4000000000001 82.6 564.7 96.5 578.7L207 689.2C221 703.1 248.3 714.3000000000001 267.9000000000001 714.3000000000001H357.1V892.9000000000001C357.1 912.4 373.3 928.6 392.9000000000001 928.6H1035.7C1055.2 928.6 1071.4 912.4 1071.4 892.9000000000001z" />
    <glyph glyph-name="anchor"
      unicode="&#xF007;"
      horiz-adv-x="1000" d="M535.7 857.1C535.7 876.7 519.5 892.9 500.0000000000001 892.9S464.3000000000001 876.7 464.3000000000001 857.1S480.5000000000001 821.4 500.0000000000001 821.4S535.7 837.5999999999999 535.7 857.0999999999999zM1000 339.3000000000001V142.9000000000001C1000 135.6000000000001 995.5 128.9000000000001 988.8 126.1000000000001C986.6 125.6000000000001 984.4 125.0000000000001 982.1 125.0000000000001C977.7 125.0000000000001 973.2 126.7000000000002 969.3 130.0000000000001L917.4 181.9000000000001C829.8 76.5000000000001 672.4 8.9000000000001 500 8.9000000000001S170.2 76.5000000000001 82.6 181.9000000000001L30.7 130.0000000000001C27.3 126.7000000000002 22.3 125.0000000000001 17.9 125.0000000000001C15.6 125.0000000000001 13.4 125.6000000000001 11.2 126.1000000000001C4.5 128.9000000000001 0 135.6000000000001 0 142.9000000000001V339.3000000000001C0 349.3000000000001 7.8 357.1 17.9 357.1H214.3000000000001C221.5 357.1 228.2000000000001 352.7000000000001 231.0000000000001 346S232.1 332 227.1 326.5L171.3 270.6C221.5 203.1 318.1 154 428.6 139V500H321.4000000000001C301.9000000000001 500 285.7000000000001 516.2 285.7000000000001 535.7V607.1C285.7000000000001 626.7 301.9000000000001 642.9000000000001 321.4000000000001 642.9000000000001H428.6V733.8000000000001C386.2000000000001 758.4000000000001 357.1 804.1000000000001 357.1 857.1000000000001C357.1 935.8 421.3 1000.0000000000002 500 1000.0000000000002S642.9 935.8 642.9 857.1000000000001C642.9 804.1000000000001 613.8 758.4000000000001 571.4 733.8000000000001V642.9000000000001H678.6C698.1 642.9000000000001 714.3000000000001 626.7 714.3000000000001 607.1000000000001V535.7C714.3000000000001 516.2 698.1 500.0000000000001 678.6 500.0000000000001H571.4V139C681.9 154 778.5 203.1 828.7 270.6L772.9000000000001 326.5C767.9000000000001 332 766.2 339.3 769.0000000000001 346S778.5000000000001 357.1 785.7000000000002 357.1H982.1000000000003C992.2000000000002 357.1 1000.0000000000002 349.3000000000001 1000.0000000000002 339.3000000000001z" />
    <glyph glyph-name="android"
      unicode="&#xF008;"
      horiz-adv-x="785.7" d="M275.1 730.5C287.4000000000001 730.5 296.9000000000001 740.5 296.9000000000001 752.2S287.4000000000001 774 275.1 774C263.4000000000001 774 253.9000000000001 764 253.9000000000001 752.2S263.4000000000001 730.5 275.1 730.5zM510.6 730.5C522.3000000000001 730.5 531.8000000000001 740.5 531.8000000000001 752.2S522.3000000000001 774 510.6000000000001 774C498.3000000000001 774 488.8000000000001 764 488.8000000000001 752.2S498.3000000000001 730.5 510.6000000000001 730.5zM57.5 627.8C88.7 627.8 114.4 602.1 114.4 570.9000000000001V330.9000000000001C114.4 299.1000000000002 89.3 273.4000000000001 57.5 273.4000000000001S0 299.1000000000002 0 330.9000000000001V570.9000000000001C0 602.1000000000001 25.7 627.8000000000001 57.5 627.8000000000001zM649 617.2V245.5C649 211.5 621.7 184.2000000000001 588.2 184.2000000000001H546.3000000000001V57.5C546.3000000000001 25.7 520.6 0 488.8000000000001 0S431.4000000000001 25.7 431.4000000000001 57.5V184.2000000000001H354.4000000000001V57.5C354.4000000000001 25.7 328.7000000000001 0 296.9000000000001 0C265.6000000000001 0 240.0000000000001 25.7 240.0000000000001 57.5L239.4000000000001 184.2000000000001H198.1000000000001C164.1000000000001 184.2000000000001 136.7000000000001 211.5 136.7000000000001 245.5V617.2H649zM519.5 843.2C597.7 803 650.7 726 650.7 637.3H134.5C134.5 726 187.5 803 266.2 843.1999999999999L226.6 916.3C224.3 920.2 225.4 925.2 229.4 927.5C233.3 929.1 238.3 928 240.5 924.1L280.7 850.4C314.7 865.5 352.7 873.9 392.9 873.9S471 865.5 505 850.4L545.2 924.1C547.4000000000001 928 552.5 929.1 556.4000000000001 927.5C560.3000000000001 925.2 561.4000000000001 920.2 559.2 916.3zM785.7 570.9V330.9C785.7 299.1 760 273.4 728.2 273.4C697 273.4 671.3000000000001 299.1 671.3000000000001 330.9V570.9C671.3000000000001 602.7 697.0000000000001 627.8 728.2 627.8C760 627.8 785.7 602.6999999999999 785.7 570.9z" />
    <glyph glyph-name="angle-down"
      unicode="&#xF009;"
      horiz-adv-x="642.9" d="M599.9 589.3C599.9 584.8 597.6999999999999 579.8 594.3 576.5L334.3 316.4C330.9 313.1 325.9 310.8 321.4 310.8S311.9 313.0999999999999 308.6 316.4L48.4999999999999 576.5C45.1999999999999 579.8 42.9999999999999 584.8 42.9999999999999 589.3S45.1999999999999 598.8 48.4999999999999 602.1L76.4999999999999 630C79.7999999999999 633.4 84.2999999999999 635.6 89.2999999999999 635.6C93.7 635.6 98.7999999999999 633.4000000000001 102.0999999999999 630L321.4 410.7000000000001L540.7 630C544.1 633.4000000000001 549.1 635.6000000000001 553.6 635.6000000000001S563.1 633.4000000000001 566.4 630L594.3 602.1000000000001C597.6999999999999 598.8000000000001 599.9 593.8000000000001 599.9 589.3000000000001z" />
    <glyph glyph-name="angle-left"
      unicode="&#xF00A;"
      horiz-adv-x="357.1" d="M349.9 696.4C349.9 692 347.7 686.9 344.3 683.5999999999999L125 464.3L344.3 245C347.7 241.6 349.9 236.6 349.9 232.1S347.7 222.7000000000001 344.3 219.3000000000001L316.4 191.4000000000001C313.1 188.1000000000001 308 185.8000000000001 303.6 185.8000000000001S294.1 188.1 290.7 191.4000000000001L30.7 451.5000000000001C27.3 454.8000000000001 25.1 459.8000000000001 25.1 464.3000000000001S27.3 473.8000000000001 30.7 477.1L290.7 737.2C294.1 740.5 299.1 742.7 303.6 742.7S313.1 740.5 316.4 737.2L344.3 709.3000000000001C347.7 705.9000000000001 349.9 701.5 349.9 696.4000000000001z" />
    <glyph glyph-name="angle-right"
      unicode="&#xF00B;"
      horiz-adv-x="357.1" d="M332 464.3C332 459.8 329.8 454.8 326.5 451.5L66.4 191.4C63.1 188.1 58 185.8 53.6 185.8S44.1 188.0999999999999 40.7 191.4L12.8 219.3C9.5 222.6999999999999 7.3 227.0999999999999 7.3 232.0999999999999C7.3 236.5999999999999 9.5 241.5999999999999 12.8 244.9999999999999L232.1 464.3L12.8 683.5999999999999C9.5 686.9 7.3 692 7.3 696.4S9.5 705.9 12.8 709.3L40.7 737.1999999999999C44.1 740.5 49.1 742.6999999999999 53.6 742.6999999999999S63.1 740.5 66.4 737.1999999999999L326.5 477.0999999999999C329.8 473.8 332 468.6999999999999 332 464.3z" />
    <glyph glyph-name="angle-up"
      unicode="&#xF00C;"
      horiz-adv-x="642.9" d="M599.9 339.3C599.9 334.8 597.6999999999999 329.8 594.3 326.5L566.4 298.5C563.1 295.2000000000001 558.6 293 553.6 293C549.1 293 544.1 295.2000000000001 540.7 298.5L321.4000000000001 517.9L102.1 298.5C98.8 295.2000000000001 93.8 293 89.3 293S79.8 295.2000000000001 76.5 298.5L48.5 326.5C45.2 329.8 43 334.8 43 339.3S45.2 348.8 48.5 352.0999999999999L308.6 612.1999999999999C311.9000000000001 615.5 317 617.6999999999999 321.4000000000001 617.6999999999999S330.9000000000001 615.5 334.3 612.1999999999999L594.3 352.0999999999999C597.6999999999999 348.8 599.9 343.7 599.9 339.3z" />
    <glyph glyph-name="apple"
      unicode="&#xF00D;"
      horiz-adv-x="785.7" d="M777.3 322C763.4 277.9 741.0999999999999 231 708.6999999999999 182.5C660.6999999999999 109.4 612.6999999999999 73.1 565.3 73.1C546.3 73.1 520.5999999999999 79.2000000000001 487.1999999999999 91C454.1999999999999 103.2000000000001 425.8 108.8 402.8999999999999 108.8C380.5999999999999 108.8 353.7999999999999 102.6999999999999 323.7 90.4C293 77.6 268.3999999999999 71.4 250 71.4C192.5 71.4 137.3 120 81.9999999999999 216C27.8999999999999 311.9 -1e-13 405.1 -1e-13 496.7C-1e-13 582 21.1999999999999 651.2 63.1 705.4C104.9 758.9 157.4 785.7 221.5 785.7C248.9 785.7 281.2 780.1 320.3 769C358.8 757.8 384.5 752.2 397.3 752.2C413.5 752.2 440.3 758.4 477.1 771.2C514 783.5 546.3 790.2 573.6999999999999 790.2C618.3 790.2 657.9 777.9 692.4999999999999 753.9C712.0999999999999 740.5 731.5999999999999 721.5 750.5999999999999 698.0999999999999C721.4999999999999 673.5 700.3 651.8 686.8999999999999 632.3C662.8999999999999 597.6999999999999 650.6999999999998 559.1999999999999 650.6999999999998 516.6999999999999C650.6999999999998 470.9999999999999 663.4999999999998 429.0999999999999 689.1999999999998 392.3S744.3999999999999 332 777.2999999999998 322zM567.5 976.6C567.5 953.7 561.9 928 551.3 900.7C540.1999999999999 872.8 522.9 847.1 499.4 823.7C479.4 803.6 459.3 790.2 439.2 783.5C426.3 779.6 407.4 776.2 381.1 774C382.3 829.2 396.8 877.2 424.7 917.4S499.4 984.9 564.2 1000C565.3000000000001 995 566.4000000000001 991.1 567 987.7C567 983.8 567.5 980.5 567.5 976.6z" />
    <glyph glyph-name="archive"
      unicode="&#xF00E;"
      horiz-adv-x="1000" d="M607.1 535.7C607.1 555.2 591 571.4 571.4 571.4H428.6C409 571.4 392.9 555.2 392.9 535.7S409 500 428.6 500H571.4C591 500 607.1 516.2 607.1 535.7zM928.6 642.9V107.1C928.6 87.6 912.4 71.4 892.9 71.4H107.1C87.6 71.4 71.4 87.6 71.4 107.1V642.9C71.4 662.4 87.6 678.5999999999999 107.1 678.5999999999999H892.9C912.4 678.5999999999999 928.6 662.4 928.6 642.9zM964.3 892.9V750C964.3 730.5 948.1 714.3 928.6 714.3H71.4C51.9 714.3 35.7 730.5 35.7 750V892.9C35.7 912.4 51.9 928.6 71.4 928.6H928.6C948.1 928.6 964.3 912.4 964.3 892.9z" />
    <glyph glyph-name="arrow-down"
      unicode="&#xF00F;"
      horiz-adv-x="928.6" d="M899 535.7C899 516.7 891.2 498.3 878.3 485.5L515.0999999999999 121.7000000000001C501.6999999999999 108.8000000000001 483.2999999999999 101 464.2999999999999 101S426.8999999999999 108.8 414.0999999999999 121.7000000000001L50.7999999999999 485.5C37.3999999999999 498.3 29.5999999999999 516.7 29.5999999999999 535.7S37.3999999999999 573.0999999999999 50.7999999999999 586.5L92.0999999999999 628.3C105.4999999999999 641.2 123.8999999999999 649 142.8999999999999 649S180.1999999999999 641.2 193.0999999999999 628.3L357.0999999999999 464.3V857.0999999999999C357.0999999999999 896.1999999999999 389.4999999999999 928.6 428.5999999999999 928.6H499.9999999999999C539.0999999999999 928.6 571.3999999999999 896.1999999999999 571.3999999999999 857.0999999999999V464.3L735.4999999999999 628.3C748.2999999999998 641.1999999999999 766.6999999999999 649 785.6999999999999 649S823.0999999999999 641.1999999999999 836.4999999999999 628.3L878.2999999999998 586.5C891.1999999999998 573.0999999999999 898.9999999999999 554.6999999999999 898.9999999999999 535.6999999999999z" />
    <glyph glyph-name="arrow-left"
      unicode="&#xF010;"
      horiz-adv-x="857.1" d="M857.1 500V428.6C857.1 390.6 832 357.1 791.9 357.1H399L562.5 193.1C575.9 180.2000000000001 583.7 161.8000000000001 583.7 142.9S575.9000000000001 105.5 562.5 92.6L520.6 50.2C507.8 37.4000000000001 489.4 29.6 470.4 29.6S433.0000000000001 37.4 419.6 50.2L56.4 414.1C43.5 426.9 35.7 445.3000000000001 35.7 464.3000000000001S43.5 501.7 56.4 515.1000000000001L419.6 877.8000000000001C433 891.2 451.5 899.0000000000001 470.4 899.0000000000001S507.3 891.2 520.6 877.8000000000001L562.5 836.5C575.9 823.1 583.7 804.7 583.7 785.7S575.9000000000001 748.3000000000001 562.5 734.9000000000001L399 571.4000000000001H791.9C832 571.4000000000001 857.1 537.9000000000001 857.1 500z" />
    <glyph glyph-name="arrow-right"
      unicode="&#xF011;"
      horiz-adv-x="857.1" d="M821.4 464.3C821.4 445.3 814.1999999999999 426.9 800.8 413.5L437.5 50.2C424.1 37.4000000000001 405.7 29.6 386.7 29.6S349.8999999999999 37.4 336.5 50.2L294.6 92.1C281.3 105.5 273.4 123.9 273.4 142.9S281.3 180.1999999999999 294.6 193.6L458.1 357.1H65.3C25.1 357.1 0 390.6 0 428.6V500C0 537.9 25.1 571.4 65.3 571.4H458.1L294.6 735.5C281.3 748.3 273.4 766.7 273.4 785.7S281.3 823.1 294.6 835.9L336.5 877.8C349.8999999999999 891.2 367.7 899 386.7 899S424.0999999999999 891.2 437.5 877.8L800.8 514.5C814.1999999999999 501.7 821.4 483.3 821.4 464.3z" />
    <glyph glyph-name="arrow-up"
      unicode="&#xF012;"
      horiz-adv-x="928.6" d="M899 458.1C899 439.2000000000001 891.2 421.3000000000001 878.3 407.9L836.5 366.1C823.1 352.7000000000001 804.7 344.9 785.7 344.9S748.3000000000001 352.7 735.5 366.1L571.4 529.6V136.7000000000001C571.4 96.5 537.9 71.4000000000001 500 71.4000000000001H428.6C390.6 71.4000000000001 357.1 96.5000000000001 357.1 136.7000000000001V529.6L193.1 366.1C180.2 352.7000000000001 161.8 344.9 142.9 344.9S105.5 352.7 92.6 366.1L50.8 407.9C37.4 421.3 29.6 439.2 29.6 458.1S37.4 495.5 50.8 508.9L414.1 872.2C426.9000000000001 885.6 445.3 892.9000000000001 464.3 892.9000000000001S501.7 885.6 515.1 872.2L878.3 508.9C891.1999999999999 495.5000000000001 899 477.1 899 458.1z" />
    <glyph glyph-name="asterisk"
      unicode="&#xF013;"
      horiz-adv-x="928.6" d="M827 414.1C861 394.5 872.8 350.4 853.2 316.4L817.5 255C798 221 753.9 209.3 719.9 228.8L571.4 314.2V142.8999999999999C571.4 103.7999999999998 539.1 71.3999999999999 500 71.3999999999999H428.6C389.5 71.3999999999999 357.1 103.7999999999998 357.1 142.8999999999999V314.1999999999998L208.7 228.7999999999999C174.7 209.2999999999999 130.6 220.9999999999999 111 254.9999999999999L75.3 316.3999999999999C55.8 350.3999999999999 67.5 394.4999999999999 101.6 414.0999999999999L250 499.9999999999999L101.6 585.8999999999999C67.5 605.4999999999999 55.8 649.5999999999999 75.3 683.5999999999999L111 744.9999999999999C130.6 778.9999999999999 174.7 790.6999999999998 208.7 771.1999999999998L357.1 685.7999999999998V857.0999999999999C357.1 896.1999999999998 389.5 928.6 428.6 928.6H500C539.1 928.6 571.4 896.1999999999998 571.4 857.0999999999999V685.7999999999998L719.9 771.1999999999998C753.9 790.6999999999998 798 778.9999999999999 817.5 744.9999999999999L853.2 683.5999999999999C872.8000000000001 649.5999999999999 861 605.4999999999999 827 585.8999999999999L678.6 499.9999999999999z" />
    <glyph glyph-name="backward"
      unicode="&#xF014;"
      horiz-adv-x="928.6" d="M903.5 921.3C917.4 935.3 928.6 930.2 928.6 910.7V89.3000000000001C928.6 69.8000000000001 917.4 64.7000000000001 903.5 78.7000000000001L507.3 474.9000000000001C503.9 478.2 501.7 481.6000000000001 500 485.5000000000001V89.3000000000002C500 69.8000000000002 488.8 64.7000000000002 474.9 78.7000000000002L78.7 474.9000000000001C64.7 488.8000000000001 64.7 511.2000000000001 78.7 525.1000000000001L474.9 921.3C488.8 935.3 500 930.2 500 910.7V514.5000000000001C501.7 518.4000000000001 503.9 521.8000000000002 507.3 525.1000000000001z" />
    <glyph glyph-name="barcode"
      unicode="&#xF017;"
      horiz-adv-x="1000" d="M35.2 142.9H0V928.6H35.2V142.9zM70.3 143.4H52.5V928.6H70.3V143.4zM122.8 143.4H105.5V928.6H122.8V143.4zM210.4 143.4H193.1V928.6H210.4V143.4zM298 143.4H263.4V928.6H298V143.4zM368.3 143.4H351V928.6H368.3V143.4zM403.5 143.4H386.2V928.6H403.5V143.4zM438.6 143.4H421.3V928.6H438.6V143.4zM526.2 143.4H491.1V928.6H526.2V143.4zM613.8000000000001 143.4H578.7V928.6H613.8000000000001V143.4zM684.2 143.4H649V928.6H684.2V143.4zM754.5 143.4H719.3V928.6H754.5V143.4zM806.9 143.4H771.8V928.6H806.9V143.4zM912.4 143.4H859.9V928.6H912.4V143.4zM947.5 143.4H929.7V928.6H947.5V143.4zM1000 142.9H964.8V928.6H1000V142.9z" />
    <glyph glyph-name="barn"
      unicode="&#xF018;"
      horiz-adv-x="1000" d="M505.2 984.6L163.7 770.9L0 364.4H92.2V15.4H368V357.2000000000001H645.4V15.5H914.2V364.5H999.9L842.3 771.1L505.2 984.6L505.2 984.6zM435.6 702.1H572.9000000000001V561H435.6V702.1z" />
    <glyph glyph-name="beer"
      unicode="&#xF01A;"
      horiz-adv-x="928.6" d="M357.1 500V714.3H214.3V571.4C214.3 531.8 246.1 500 285.7000000000001 500H357.1zM928.6 250V142.9H285.7000000000001V250L357.1 357.1H285.7000000000001C167.4 357.1 71.4 453.1 71.4 571.4000000000001V750L35.7 785.7L53.6 857.1H321.4000000000001L339.3 928.6H875L892.9 821.4000000000001L857.1 803.6V357.1z" />
    <glyph glyph-name="bell"
      unicode="&#xF01C;"
      horiz-adv-x="1000" d="M508.9 53.6C508.9 58.6 505 62.5 500 62.5C455.9 62.5 419.6 98.8 419.6 142.9C419.6 147.9 415.7000000000001 151.8 410.7000000000001 151.8S401.8000000000001 147.9 401.8000000000001 142.9C401.8000000000001 88.6999999999999 445.9000000000001 44.6 500.0000000000001 44.6C505.0000000000001 44.6 508.9 48.5 508.9 53.6zM964.3 214.3C964.3 175.1999999999999 931.9 142.9 892.9 142.9H642.9C642.9 64.1999999999999 578.6999999999999 0 500 0S357.1 64.2000000000001 357.1 142.9H107.1C68.1 142.9 35.7 175.1999999999999 35.7 214.3C118.3 284 214.3 409 214.3 678.5999999999999C214.3 785.6999999999999 303 902.9 450.9 924.7C448.1 931.4 446.4 938.6 446.4 946.4C446.4 976 470.4 1000 500 1000S553.6 976 553.6 946.4C553.6 938.6 551.9 931.4 549.1 924.7C697 902.9 785.7 785.6999999999999 785.7 678.5999999999999C785.7 409 881.7 284 964.3 214.3z" />
    <glyph glyph-name="bitbucket"
      unicode="&#xF01E;"
      horiz-adv-x="785.7" d="M454.8 520.6C460.9 473.8000000000001 404 436.9 364.4 460.9C319.8 480.5 319.8 551.3 363.3 571.4C400.7 594.3 454.8 564.2 454.8 520.5999999999999zM516.7 532.4000000000001C506.7 611.6 416.9000000000001 664.1 343.8000000000001 631.1C297.4000000000001 610.5 266.2000000000001 561.4000000000001 268.4000000000001 509.5C271.2000000000001 441.4 335.9000000000001 385.6 404.0000000000001 391.7000000000001S525.1000000000001 464.3000000000001 516.7000000000002 532.4000000000001zM650.1 834.8C625.6 867.2 583.7 872.8 546.9 878.9C442.5 895.6 335.4 896.2 231 877.8C196.4 872.2 157.4 866.1 135.6 834.8C171.3 801.3 222.1 796.3 267.9 790.7C350.4 780.1 435.3 779.6 517.9 790.2C564.1999999999999 795.8 615.5 800.2 650.0999999999999 834.8zM681.9 257.3C666.3 202.5999999999999 675.1999999999999 128.9 617.1999999999999 97.0999999999999C517.3 41.8999999999999 396.2 35.6999999999999 286.3 55.1999999999999C228.2 65.8 160.2 84.3 128.3 138.9999999999999C114.4 192.4999999999999 105.5 247.2 96.5 301.8999999999999L99.9 310.7999999999999L109.9 315.7999999999999C276.2 205.8999999999999 508.9 205.8999999999999 675.8 315.7999999999999C702 307.9999999999999 682.5 276.1999999999998 681.9 257.2999999999999zM782.9 793.5C764 671.3 742.1999999999999 549.7 721 428C714.8 392.3 680.2 372.2000000000001 651.2 357.1C546.9000000000001 304.7000000000001 425.2000000000001 295.8000000000001 310.8000000000001 308C233.3000000000001 316.4 154.0000000000001 337.1 91.0000000000001 385.6C61.4000000000001 408.5 61.4000000000001 447.5 55.8000000000001 480.5C36.3000000000001 594.9 14.0000000000001 709.3 1e-13 824.8C6.7000000000001 875 63.1000000000001 896.8 104.9000000000001 912.4C160.7000000000001 933 220.4000000000001 942.5 279.6 948.1C405.7000000000001 960.4 534.6 955.9 656.8 920.2C700.3 907.4 747.1999999999999 889.5 776.8 852.1C790.1999999999999 834.8 785.6999999999999 813.1 782.9 793.5z" />
    <glyph glyph-name="bold"
      unicode="&#xF01F;"
      horiz-adv-x="785.7" d="M309.7 151.2000000000001C334.3 140.6 361 133.4000000000001 387.8 133.4000000000001C515.0999999999999 133.4000000000001 597.6999999999999 184.2000000000001 597.6999999999999 320.3000000000001C597.6999999999999 354.9000000000001 593.1999999999999 391.2000000000001 574.8 420.8000000000001C522.9 504.5000000000001 448.1 508.9000000000001 358.3 508.9000000000001C341.5 508.9000000000001 317.5 508.9000000000001 301.9 503.3000000000001C301.9 444.2000000000001 301.3 385.0000000000001 301.3 326.5C301.3 287.9 296.3 183.6 309.7 151.2000000000001zM301.9 567.5C322 564.2 342.6 563.6000000000001 362.7 563.6000000000001C477.7 563.6000000000001 559.7 596 559.7 724.9000000000001C559.7 833.7 463.2 871.1000000000001 370.0000000000001 871.1000000000001C345.4000000000001 871.1000000000001 321.4000000000001 867.7 297.4000000000001 863.8000000000001C297.4000000000001 807.5 301.9000000000001 751.1000000000001 301.9000000000001 694.8000000000001C301.9000000000001 665.2 301.3000000000001 635.6000000000001 301.3000000000001 606C301.3000000000001 593.2 301.3000000000001 580.4000000000001 301.9000000000001 567.5zM0 71.4000000000001L1.1 123.9000000000001C36.8 132.8000000000001 73.1 133.4000000000001 107.7 147.9000000000001C127.2 180.8000000000001 124.4 238.8000000000001 124.4 276.2000000000001C124.4 288.5 125.6 822 112.2 848.2C103.8 864.4000000000001 21.8 868.3000000000001 3.3 870.5L1.1 916.9C133.9 919.1 266.7 928.6 399 928.6C424.1 928.6 449.8 928.0000000000002 474.9 928.0000000000002C601 928.0000000000002 740 867.7 740 722.7C740 622.8000000000001 664.1 585.4000000000001 585.4 549.7C691.4 525.7 785.7 453.7 785.7 336.5C785.7 144.5 611 80.9 447.5000000000001 80.9C398.4000000000001 80.9 349.3000000000001 84.3 300.2000000000001 84.3C200.3000000000001 84.3 99.3 75.3 1e-13 71.4z" />
    <glyph glyph-name="bolt"
      unicode="&#xF020;"
      horiz-adv-x="500" d="M493.9 684.2C500 677.5 501.7 668 497.8 659.5999999999999L196.4 14C192 5.6 183 0 173 0C170.8 0 168 0.6 165.2 1.1C152.9 5 145.6 16.7 148.4 28.5L258.4 479.4L31.8 423C29.6 422.4 27.3 422.4 25.1 422.4C19 422.4 12.3 424.7 7.8 428.6C1.1 434.2000000000001 -1.1 442.5 0.6 450.3000000000001L112.7 910.7C115.5 921.3 125.6 928.6 137.3 928.6H320.3V928.6C334.3 928.6 345.4 918 345.4 905.1C345.4 901.8 344.3 898.4000000000001 342.6 895.1L247.2 636.7L468.1999999999999 691.4000000000001C470.3999999999999 692 472.6999999999999 692.5 474.8999999999999 692.5C482.0999999999999 692.5 488.7999999999999 689.2 493.8999999999999 684.2z" />
    <glyph glyph-name="book-open"
      unicode="&#xF021;"
      horiz-adv-x="1000" d="M500 842.8C500 842.8 375 972.3 0 972.3L0 115.2000000000001C378.9 115.2000000000001 500 -27.7 500 -27.7C500 -27.7 621.1 115.1999999999999 1000 115.1999999999999L1000 972.3C625 972.3 500 842.8 500 842.8zM125 829.4C283.9 814.2 381.3 772.2 437.5 738.2L437.5 162.9000000000001C381.3 196.8000000000001 283.9 238.8000000000001 125 254.1000000000002zM875 254.1C716.1 238.8000000000001 618.6 196.8000000000001 562.5 162.9L562.5 738.1999999999999C618.6 772.1999999999999 716.1 814.1999999999999 875 829.3999999999999z" />
    <glyph glyph-name="book"
      unicode="&#xF022;"
      horiz-adv-x="928.6" d="M914.6 733.3C928.6 713.2 932.5 686.9000000000001 924.7 661.3L771.2 155.7000000000001C757.3000000000001 108.3000000000001 708.1 71.4000000000001 660.2 71.4000000000001H145.1C88.2 71.4000000000001 27.3 116.6000000000001 6.7 174.7000000000001C-2.2 199.8000000000001 -2.2 224.3000000000001 5.6 245.5C6.7 256.7000000000001 8.9 267.9 9.5 281.2000000000001C10 290.2000000000001 5 297.4000000000001 6.1 304.1C8.4 317.5 20.1 327 29 342.1C45.8 370 64.7 415.2000000000001 70.9 444.2000000000001C73.7 454.8000000000001 68.1 467.1 70.9 476.6C73.7 487.2 84.3 495 89.8 505C104.9 530.7 124.4 580.4 127.2 606.6C128.3 618.3 122.8 631.1 126.1 640.1C130 652.9000000000001 142.3 658.5 150.7 669.6C164.1 688.1 186.4 741.1 189.7 770.6C190.8 780.1 185.3 789.6 186.9 799.7C189.2 810.3 202.6 821.4 211.5 834.3C234.9 868.9 239.4 945.3 310.3 925.2L309.7 923.5C319.2 925.8 328.7 928.6 338.2 928.6H762.8C789.0999999999999 928.6 812.5 916.9 826.5 897.3C841 877.2 844.3 851 836.5 824.8L683.6 319.2000000000001C657.4 233.3000000000001 642.9 214.3000000000001 572 214.3000000000001H87.1C79.8 214.3000000000001 70.9 212.6 65.8 205.9000000000001C61.4 199.2000000000001 60.8 194.2000000000001 65.3 181.9000000000001C76.5 149.6000000000001 115 142.9000000000001 145.6 142.9000000000001H660.7C681.4000000000001 142.9000000000001 705.4000000000001 154.6000000000001 711.5 174.7000000000001L878.9 725.4000000000001C882.3 736.0000000000001 882.3 747.2 881.6999999999999 757.3000000000001C894.4999999999999 752.2 906.3 744.4000000000001 914.6 733.3000000000001zM320.9 732.1C317.5 722.1 323.1 714.3 333.1 714.3H672.4C681.9 714.3 692.5 722.1 695.9 732.1L707.6 767.9000000000001C710.9 777.9000000000001 705.4 785.7 695.3000000000001 785.7H356.0000000000001C346.5000000000001 785.7 335.9000000000001 777.9000000000001 332.6000000000001 767.9000000000001zM274.6 589.3C271.2 579.2 276.8 571.4000000000001 286.8 571.4000000000001H626.0999999999999C635.5999999999999 571.4000000000001 646.1999999999999 579.2 649.5999999999999 589.3L661.3 625C664.5999999999999 635 659 642.9 649 642.9H309.7C300.2 642.9 289.6 635 286.3 625z" />
    <glyph glyph-name="bookmark"
      unicode="&#xF024;"
      horiz-adv-x="714.3" d="M649.6 928.6C657.9 928.6 666.3000000000001 926.9 674.1 923.5C698.7 914.1 714.3000000000001 891.2 714.3000000000001 866.1V146.8000000000001C714.3000000000001 121.7000000000001 698.7 98.8000000000001 674.1 89.3000000000001C666.3000000000001 85.9000000000001 657.9 84.8000000000001 649.6 84.8000000000001C632.3000000000001 84.8000000000001 616.1 91.0000000000001 603.2 102.7000000000001L357.1 339.3000000000001L111 102.7000000000001C98.2 91 82 84.3000000000001 64.7 84.3000000000001C56.4 84.3000000000001 48 85.9000000000001 40.2 89.3000000000001C15.6 98.8000000000001 0 121.7000000000001 0 146.8000000000001V866.1C0 891.2 15.6 914.1 40.2 923.5C48 926.9 56.4 928.6 64.7 928.6H649.6z" />
    <glyph glyph-name="briefcase"
      unicode="&#xF025;"
      horiz-adv-x="1000" d="M357.1 857.1H642.9000000000001V928.6H357.1000000000001V857.1zM1000 500V232.1C1000 183 959.8 142.9 910.7 142.9H89.3000000000001C40.2000000000001 142.9 1e-13 183 1e-13 232.1V500H375.0000000000001V410.7000000000001C375.0000000000001 391.2000000000001 391.2000000000001 375 410.7000000000001 375H589.3000000000001C608.8000000000001 375 625.0000000000001 391.2000000000001 625.0000000000001 410.7000000000001V500.0000000000001H1000.0000000000002zM571.4 500V428.6H428.6V500H571.4zM1000 767.9V553.5999999999999H0V767.9C0 817 40.2 857.0999999999999 89.3 857.0999999999999H285.7V946.4C285.7 976 309.7 1000 339.3 1000H660.7C690.3000000000001 1000 714.3000000000001 976 714.3000000000001 946.4V857.0999999999999H910.7C959.8 857.0999999999999 1000 817 1000 767.9z" />
    <glyph glyph-name="btc"
      unicode="&#xF026;"
      horiz-adv-x="714.3" d="M651.2 642.9C658.5 568.5999999999999 627.2 524 578.1 498.9C659.6 479.4 710.9000000000001 430.8 700.9 322C688.1 186.4 587.6 150.1 443.6 142.3V0H357.7V140.1C335.8999999999999 140.1 313.0999999999999 140.1 289.5999999999999 140.6V0H203.6999999999999V142.3C183.5999999999999 142.3 163.4999999999999 142.9 142.8999999999999 142.9H31.1999999999999L48.4999999999999 245C111.5999999999999 243.9 110.4999999999999 245 110.4999999999999 245C134.4999999999999 245 141.1999999999999 262.3 142.8999999999999 273.4V497.8H151.7999999999999C148.3999999999999 498.3 145.0999999999999 498.3 142.8999999999999 498.3V658.5C139.4999999999999 676.3 128.2999999999999 696.3999999999999 93.1999999999999 696.3999999999999C93.1999999999999 696.3999999999999 94.2999999999999 697.5 31.1999999999999 696.3999999999999V787.8999999999999L149.5999999999999 787.3999999999999V787.3999999999999C166.8999999999999 787.3999999999999 185.2999999999999 787.3999999999999 203.6999999999999 787.8999999999999V928.6H289.5999999999999V790.6999999999999C312.4999999999999 791.3 335.3999999999999 791.8999999999999 357.7 791.8999999999999V928.6H443.5999999999999V787.8999999999999C554.0999999999999 778.4999999999999 641.6999999999999 744.3999999999999 651.1999999999999 642.8999999999999zM531.3000000000001 338.7000000000001C531.3000000000001 449.2000000000001 349.3000000000001 433 291.3000000000001 433V244.4C349.3000000000001 244.4 531.3000000000001 232.1 531.3000000000001 338.7zM491.6000000000001 604.4000000000001C491.6000000000001 705.4000000000001 339.8000000000001 690.3000000000001 291.3000000000001 690.3000000000001V519C339.8000000000001 519 491.6000000000001 507.8000000000001 491.6000000000001 604.4000000000001z" />
    <glyph glyph-name="bug"
      unicode="&#xF027;"
      horiz-adv-x="928.6" d="M910.7 464.3C910.7 444.8 894.5 428.5999999999999 875 428.5999999999999H750C750 358.8 734.9 306.3999999999999 712.6 266.7L828.7 150.0999999999999C842.6 136.1999999999999 842.6 113.8 828.7 99.8999999999999C822 92.5999999999999 812.5 89.2999999999998 803.6 89.2999999999998S785.2 92.5999999999998 778.5 99.8999999999999L668 209.7999999999999S594.9 142.8999999999999 500 142.8999999999999V642.8999999999999H428.6V142.8999999999999C327.6 142.8999999999999 253.9000000000001 216.4999999999999 253.9000000000001 216.4999999999999L151.8000000000001 100.9999999999999C144.5 93.1999999999999 135 89.2999999999998 125.0000000000001 89.2999999999998C116.6 89.2999999999998 108.3 92.0999999999998 101 98.1999999999998C86.5 111.5999999999998 85.4000000000001 133.8999999999999 98.2000000000001 148.9999999999998L210.9 275.6999999999998C191.4 314.1999999999998 178.6 363.7999999999999 178.6 428.5999999999998H53.6C34 428.5999999999998 17.9 444.7999999999999 17.9 464.2999999999998S34 499.9999999999998 53.6 499.9999999999998H178.6V664.0999999999998L82 760.5999999999998C68.1 774.5999999999998 68.1 796.8999999999999 82 810.7999999999997S118.3 824.7999999999997 132.3 810.7999999999997L228.8 714.2999999999997H699.8L796.3 810.7999999999997C810.3 824.7999999999997 832.5999999999999 824.7999999999997 846.5 810.7999999999997S860.5 774.5999999999998 846.5 760.5999999999998L750 664.0999999999998V499.9999999999998H875C894.5 499.9999999999998 910.7 483.7999999999997 910.7 464.2999999999997zM642.9000000000001 785.6999999999999H285.7000000000001C285.7000000000001 884.4999999999999 365.5000000000001 964.3 464.3000000000001 964.3S642.9000000000001 884.4999999999999 642.9000000000001 785.6999999999999z" />
    <glyph glyph-name="bullhorn"
      unicode="&#xF029;"
      horiz-adv-x="1000" d="M928.6 642.9C968.2 642.9 1000 611 1000 571.4S968.2 500 928.6 500V285.7000000000001C928.6 246.7000000000001 896.2 214.3000000000001 857.1 214.3000000000001C757.8000000000001 296.9000000000001 597.7 410.2000000000001 404 426.3000000000001C337.6 404.0000000000001 314.7 326.5000000000001 358.3 281.8000000000001C319.2 217.6 369.4000000000001 172.4000000000001 428.6 126.1000000000001C394 58.0000000000001 250.0000000000001 56.9000000000001 198.7 104.4000000000001C166.3 203.7000000000001 118.3 303.0000000000001 157.4 428.6000000000002H89.3C40.2 428.6000000000002 0 468.7000000000002 0 517.9000000000001V625.0000000000001C0 674.1000000000001 40.2 714.3000000000002 89.3 714.3000000000002H357.1C571.4000000000001 714.3000000000002 750 839.3000000000002 857.1 928.6000000000003C896.2 928.6000000000003 928.6 896.2000000000002 928.6 857.1000000000001V642.9000000000001zM857.1 305.8V838.1999999999999C711.5 726.5999999999999 570.3 662.3999999999999 428.6 646.8V496.1C570.3 480.5 711.5 417.4 857.1 305.8z" />
    <glyph glyph-name="bullseye"
      unicode="&#xF02A;"
      horiz-adv-x="857.1" d="M571.4 500C571.4 421.3 507.3 357.1 428.6 357.1S285.7 421.3000000000001 285.7 500S349.8999999999999 642.9 428.5999999999999 642.9S571.3999999999999 578.7 571.3999999999999 500zM642.9 500C642.9 618.3 546.9 714.3 428.6 714.3S214.3 618.3 214.3 500S310.3 285.7000000000001 428.6 285.7000000000001S642.9 381.7000000000001 642.9 500.0000000000001zM714.3 500C714.3 342.1 586.5 214.3 428.6 214.3S142.9 342.0999999999999 142.9 499.9999999999999S270.6 785.6999999999999 428.6 785.6999999999999S714.3 657.8999999999999 714.3 499.9999999999999zM785.6999999999999 500C785.6999999999999 697 625.5999999999999 857.1 428.5999999999999 857.1S71.3999999999999 697 71.3999999999999 500S231.5999999999999 142.9 428.5999999999999 142.9S785.6999999999999 303 785.6999999999999 500zM857.0999999999999 500C857.0999999999999 263.4 665.1999999999999 71.4 428.5999999999999 71.4S-1e-13 263.4 -1e-13 500S191.9999999999999 928.6 428.5999999999999 928.6S857.0999999999999 736.6 857.0999999999999 500z" />
    <glyph glyph-name="calendar"
      unicode="&#xF02C;"
      horiz-adv-x="928.6" d="M71.4 71.4H232.1V232.0999999999999H71.4V71.3999999999999zM267.9 71.4H446.4V232.0999999999999H267.9V71.3999999999999zM71.4 267.9H232.1V446.4H71.4V267.9zM267.9 267.9H446.4V446.4H267.9V267.9zM71.4 482.0999999999999H232.1V642.8999999999999H71.4V482.0999999999999zM482.1 71.3999999999999H660.6999999999999V232.0999999999999H482.0999999999999V71.3999999999999zM267.9 482.0999999999999H446.4V642.8999999999999H267.9V482.0999999999999zM696.4 71.3999999999999H857.0999999999999V232.0999999999999H696.3999999999999V71.3999999999999zM482.1 267.8999999999999H660.6999999999999V446.3999999999999H482.0999999999999V267.8999999999999zM285.7 749.9999999999999V910.6999999999998C285.7 920.1999999999998 277.3 928.6 267.8999999999999 928.6H232.0999999999999C222.6999999999999 928.6 214.2999999999999 920.1999999999998 214.2999999999999 910.6999999999998V749.9999999999999C214.2999999999999 740.4999999999999 222.6999999999999 732.0999999999999 232.0999999999999 732.0999999999999H267.8999999999999C277.2999999999999 732.0999999999999 285.7 740.4999999999999 285.7 749.9999999999999zM696.3999999999999 267.8999999999999H857.0999999999999V446.3999999999999H696.3999999999999V267.8999999999999zM482.0999999999999 482.0999999999999H660.6999999999998V642.8999999999999H482.0999999999998V482.0999999999999zM696.3999999999999 482.0999999999999H857.0999999999999V642.8999999999999H696.3999999999999V482.0999999999999zM714.2999999999998 749.9999999999999V910.6999999999998C714.2999999999998 920.1999999999998 705.8999999999999 928.6 696.3999999999999 928.6H660.6999999999998C651.1999999999998 928.6 642.8999999999999 920.1999999999998 642.8999999999999 910.6999999999998V749.9999999999999C642.8999999999999 740.4999999999999 651.1999999999998 732.0999999999999 660.6999999999998 732.0999999999999H696.3999999999999C705.8999999999999 732.0999999999999 714.2999999999998 740.4999999999999 714.2999999999998 749.9999999999999zM928.6 785.6999999999998V71.3999999999999C928.6 32.3999999999999 896.1999999999999 -1e-13 857.0999999999999 -1e-13H71.3999999999999C32.3999999999999 -1e-13 -1e-13 32.3999999999999 -1e-13 71.3999999999999V785.6999999999998C-1e-13 824.7999999999998 32.3999999999999 857.0999999999998 71.3999999999999 857.0999999999998H142.8999999999999V910.6999999999998C142.8999999999999 959.7999999999998 182.9999999999999 999.9999999999998 232.0999999999999 999.9999999999998H267.8999999999999C316.9999999999999 999.9999999999998 357.0999999999999 959.7999999999998 357.0999999999999 910.6999999999998V857.0999999999998H571.3999999999999V910.6999999999998C571.3999999999999 959.7999999999998 611.5999999999999 999.9999999999998 660.6999999999998 999.9999999999998H696.3999999999999C745.4999999999999 999.9999999999998 785.6999999999998 959.7999999999998 785.6999999999998 910.6999999999998V857.0999999999998H857.0999999999998C896.1999999999998 857.0999999999998 928.5999999999998 824.7999999999998 928.5999999999998 785.6999999999998z" />
    <glyph glyph-name="camera-retro"
      unicode="&#xF02D;"
      horiz-adv-x="1000" d="M517.9 535.7C517.9 545.8 510 553.5999999999999 500 553.5999999999999C450.9 553.5999999999999 410.7 513.4 410.7 464.3C410.7 454.1999999999999 418.5 446.4 428.6 446.4S446.4 454.1999999999999 446.4 464.3C446.4 493.9 470.4 517.9 500 517.9C510 517.9 517.9 525.7 517.9 535.7zM642.9 463.2C642.9 384.5 578.6999999999999 320.3000000000001 500 320.3000000000001S357.1 384.5000000000001 357.1 463.2S421.3 606 500 606S642.9 541.9000000000001 642.9 463.2zM71.4 142.9000000000001H928.6V214.3000000000001H71.4V142.9000000000001zM714.3 463.2C714.3 581.5 618.3 677.5 499.9999999999999 677.5S285.7 581.5 285.7 463.2S381.7 248.9000000000001 499.9999999999999 248.9000000000001S714.3 344.9000000000001 714.3 463.2zM142.9 821.4000000000001H357.1V892.9000000000001H142.9V821.4000000000001zM71.4 714.3000000000001H928.6V780.1000000000001V857.1000000000001H466.5L430.8 785.7H71.4V714.3000000000001zM1000 857.1000000000001V142.9000000000001C1000 103.2000000000001 968.2 71.4000000000001 928.6 71.4000000000001H71.4C31.8 71.4000000000001 0 103.2000000000001 0 142.9000000000001V857.1000000000001C0 896.8000000000002 31.8 928.6000000000003 71.4 928.6000000000003H928.6C968.2 928.6000000000003 1000 896.8000000000002 1000 857.1000000000001z" />
    <glyph glyph-name="camera"
      unicode="&#xF02E;"
      horiz-adv-x="1071.4" d="M535.7 625C624.4000000000001 625 696.4000000000001 553 696.4000000000001 464.3S624.4000000000001 303.5999999999999 535.7 303.5999999999999S375.0000000000001 375.5999999999999 375.0000000000001 464.3S447.0000000000001 625 535.7 625zM928.6 857.1C1007.3 857.1 1071.4 793 1071.4 714.3V214.3C1071.4 135.5999999999999 1007.3 71.4 928.6000000000003 71.4H142.9000000000001C64.2000000000001 71.4 1e-13 135.6 1e-13 214.3V714.3C1e-13 793 64.2000000000001 857.0999999999999 142.9000000000001 857.0999999999999H267.9000000000001L296.3000000000001 933C310.3000000000001 969.9 353.8000000000001 1000 392.9000000000001 1000H678.6000000000001C717.6000000000001 1000 761.2000000000002 969.9 775.1000000000001 933L803.6000000000001 857.0999999999999H928.6000000000003zM535.7 214.3000000000001C673.5 214.3000000000001 785.7 326.5000000000001 785.7 464.3000000000001S673.5 714.3000000000001 535.7 714.3000000000001S285.7000000000001 602.1000000000001 285.7000000000001 464.3000000000001S397.9000000000001 214.3000000000001 535.7 214.3000000000001z" />
    <glyph glyph-name="caret-down"
      unicode="&#xF02F;"
      horiz-adv-x="571.4" d="M571.4 607.1C571.4 597.7 567.5 588.7 560.8 582L310.8 332C304.1 325.3 295.2 321.4 285.7 321.4S267.3 325.3 260.5999999999999 332L10.5999999999999 582C3.8999999999999 588.7 -1e-13 597.7 -1e-13 607.1C-1e-13 626.7 16.1999999999999 642.9000000000001 35.6999999999999 642.9000000000001H535.6999999999999C555.1999999999999 642.9000000000001 571.4 626.7 571.4 607.1z" />
    <glyph glyph-name="caret-left"
      unicode="&#xF030;"
      horiz-adv-x="357.1" d="M357.1 750V250C357.1 230.5 341 214.3 321.4000000000001 214.3C311.9000000000001 214.3 303.0000000000001 218.1999999999999 296.3 224.9L46.3 474.9C39.6 481.6 35.7 490.5 35.7 500S39.6 518.4 46.3 525.1L296.3 775.1C303 781.8 311.9000000000001 785.7 321.4000000000001 785.7C341.0000000000001 785.7 357.1 769.5 357.1 750z" />
    <glyph glyph-name="caret-right"
      unicode="&#xF031;"
      horiz-adv-x="357.1" d="M321.4 500C321.4 490.5 317.5 481.6 310.8 474.9L60.8 224.9C54.1 218.1999999999999 45.2 214.3 35.7 214.3C16.2 214.3 0 230.5 0 250V750C0 769.5 16.2 785.7 35.7 785.7C45.2 785.7 54.1 781.8 60.8 775.1L310.8 525.1C317.5 518.4000000000001 321.4 509.5 321.4 500z" />
    <glyph glyph-name="caret-up"
      unicode="&#xF032;"
      horiz-adv-x="571.4" d="M571.4 321.4C571.4 301.9 555.1999999999999 285.7 535.6999999999999 285.7H35.6999999999999C16.1999999999999 285.7 -1e-13 301.9 -1e-13 321.4C-1e-13 330.9 3.8999999999999 339.8 10.5999999999999 346.5L260.5999999999999 596.5C267.2999999999999 603.2 276.2 607.1 285.7 607.1S304.0999999999999 603.2 310.8 596.5L560.8 346.5C567.5 339.8 571.4 330.9 571.4 321.4z" />
    <glyph glyph-name="certificate"
      unicode="&#xF033;"
      horiz-adv-x="857.1" d="M767.9 500L844.9 424.7000000000001C855.5 414.6 859.4 399.6 856 385.6C852.1 371.7000000000001 841 360.5 827 357.1L722.1 330.4L751.7 226.6C755.6 212.6 751.7 197.5 741.1 187.5C731 176.9 716 173 702 176.9L598.2 206.5L571.4000000000001 101.6C568.1000000000001 87.6 556.9000000000001 76.5 543.0000000000001 72.5C539.6000000000001 72 535.7000000000002 71.4 532.4000000000001 71.4C521.8000000000001 71.4 511.2000000000001 75.9 503.9000000000001 83.6999999999999L428.6000000000001 160.6999999999999L353.2000000000001 83.6999999999999C343.2000000000001 73.0999999999999 328.1 69.1999999999999 314.2000000000001 72.4999999999999C299.7000000000001 76.4999999999999 289.1 87.5999999999999 285.7000000000001 101.5999999999999L258.9000000000001 206.4999999999999L155.1 176.8999999999999C141.2 172.9999999999999 126.1 176.8999999999999 116.1 187.4999999999999C105.5 197.4999999999999 101.6 212.5999999999999 105.5 226.5999999999999L135 330.3999999999999L30.1 357.0999999999999C16.2 360.4999999999999 5 371.7 1.1 385.5999999999999C-2.2 399.5999999999999 1.7 414.5999999999999 12.3 424.7L89.3 499.9999999999999L12.3 575.3C1.7 585.4 -2.2 600.4 1.1 614.4C5 628.3 16.2 639.5 30.1 642.9L135 669.5999999999999L105.5 773.4C101.6 787.4 105.5 802.5 116.1 812.5C126.1 823.0999999999999 141.2 827 155.1 823.0999999999999L258.9000000000001 793.5L285.7000000000001 898.4C289.1 912.4 300.2000000000001 923.5 314.2000000000001 926.9C328.1 930.8 343.2000000000001 926.9 353.2000000000001 916.3L428.6 838.7L503.9 916.3C514 926.9 528.5 930.8 543 926.9C556.9 923.5 568.1 912.4 571.4 898.4L598.1999999999999 793.5L701.9999999999999 823.0999999999999C715.9999999999999 827 730.9999999999999 823.0999999999999 741.0999999999999 812.5C751.6999999999999 802.5 755.5999999999999 787.4 751.6999999999999 773.4L722.0999999999999 669.5999999999999L826.9999999999999 642.9C840.9999999999999 639.5 852.0999999999999 628.3 855.9999999999999 614.4C859.3999999999999 600.4 855.4999999999999 585.4 844.8999999999999 575.3z" />
    <glyph glyph-name="check"
      unicode="&#xF037;"
      horiz-adv-x="1000" d="M932.5 684.2C932.5 670.2 926.9 656.2 916.9 646.2L512.8 242.2000000000001L436.9 166.3000000000001C426.9 156.2000000000001 412.9 150.7000000000001 399 150.7000000000001S371.1 156.2000000000001 361 166.3000000000001L285.2 242.2000000000001L83.1 444.2000000000001C73.1 454.2 67.5 468.2 67.5 482.1S73.1 510 83.1 520.1L159 596C169.1 606 183 611.6 197 611.6S224.9 606 234.9 596L399 431.4L765.1 798C775.1 808 789.1 813.6 803 813.6S830.9 808 841 798L916.9 722.1C926.9 712.1 932.5 698.1 932.5 684.2z" />
    <glyph glyph-name="chevron-down"
      unicode="&#xF038;"
      horiz-adv-x="1000" d="M939.2 549.1L525.1 135.6C511.2 121.7000000000001 488.8 121.7000000000001 474.9 135.6L60.8 549.1C46.9 563.1 46.9 585.9000000000001 60.8 599.9000000000001L153.5 692C167.4 705.9 189.7 705.9 203.7 692L500 395.6L796.3 692C810.3 705.9 832.5999999999999 705.9 846.5 692L939.2 599.9C953.1 585.9 953.1 563.0999999999999 939.2 549.0999999999999z" />
    <glyph glyph-name="chevron-left"
      unicode="&#xF039;"
      horiz-adv-x="714.3" d="M653.5 832L357.1 535.7L653.5 239.4C667.4 225.4 667.4 203.1 653.5 189.1999999999999L560.8 96.4999999999999C546.9 82.5999999999999 524.5999999999999 82.5999999999999 510.6 96.4999999999999L96.4999999999999 510.5999999999999C82.5999999999999 524.5999999999999 82.5999999999999 546.8999999999999 96.4999999999999 560.8L510.6 974.8999999999997C524.5999999999999 988.8 546.9 988.8 560.8 974.8999999999997L653.5 882.3C667.4 868.3 667.4 846 653.5 832z" />
    <glyph glyph-name="chevron-right"
      unicode="&#xF03A;"
      horiz-adv-x="714.3" d="M617.7 510.6L203.7000000000001 96.5C189.7000000000001 82.6 167.4 82.6 153.5000000000001 96.5L60.8000000000001 189.2000000000001C46.9000000000001 203.1 46.9000000000001 225.4000000000001 60.8000000000001 239.4000000000001L357.1000000000001 535.7L60.8000000000001 832.0000000000001C46.9000000000001 846.0000000000001 46.9000000000001 868.3000000000002 60.8000000000001 882.3000000000001L153.5000000000001 974.9C167.4000000000001 988.8 189.7000000000001 988.8 203.7000000000001 974.9L617.7 560.8000000000001C631.7 546.9000000000001 631.7 524.6000000000001 617.7 510.6000000000001z" />
    <glyph glyph-name="chevron-up"
      unicode="&#xF03F;"
      horiz-adv-x="1000" d="M939.2 257.3L846.5 165.1999999999999C832.6 151.1999999999999 810.3 151.1999999999999 796.3 165.1999999999999L499.9999999999999 461.5L203.6999999999999 165.2000000000001C189.6999999999999 151.2000000000001 167.3999999999999 151.2000000000001 153.5 165.2000000000001L60.7999999999999 257.3000000000001C46.8999999999999 271.2000000000001 46.8999999999999 294.1 60.7999999999999 308.0000000000001L474.9 721.5000000000001C488.8 735.5000000000001 511.2 735.5000000000001 525.1 721.5000000000001L939.2 308.0000000000001C953.1 294.1000000000002 953.1 271.2000000000002 939.2 257.3000000000001z" />
    <glyph glyph-name="circle"
      unicode="&#xF045;"
      horiz-adv-x="857.1" d="M857.1 500C857.1 263.4 665.2 71.4 428.6 71.4S0 263.4 0 500S192 928.6 428.6 928.6S857.1 736.6 857.1 500z" />
    <glyph glyph-name="clock"
      unicode="&#xF046;"
      horiz-adv-x="1000" d="M500 972.3C223.9 972.3 0 748.4 0 472.3C0 196.1999999999999 223.9 -27.7 500 -27.7C776.1 -27.7 1000 196.1999999999999 1000 472.3C1000 748.4 776.1 972.3 500 972.3zM500 847.3C706.8 847.3 875 679.1 875 472.3C875 265.5 706.8 97.3 500 97.3C293.2 97.3 125 265.5 125 472.3C125 679.0999999999999 293.2 847.3 500 847.3zM437.5 784.8L437.5 472.3C437.5 453.5 445.9 437 459 425.4L582 304.3L669.9 392.2L562.5 499.5999999999999L562.5 784.8z" />
    <glyph glyph-name="cloud-download"
      unicode="&#xF047;"
      horiz-adv-x="1071.4" d="M714.3 482.1C714.3 492.2 706.5 500 696.4 500H571.4V696.4C571.4 705.9 563.1 714.3 553.6 714.3H446.4000000000001C436.9000000000001 714.3 428.6 705.9 428.6 696.4V500H303.6C293.5 500 285.7000000000001 491.6 285.7000000000001 482.1C285.7000000000001 477.7 287.4000000000001 472.7 290.7000000000001 469.3000000000001L487.2 272.9000000000001C490.5000000000001 269.5000000000001 495.0000000000001 267.9000000000001 500.0000000000001 267.9000000000001C504.5000000000001 267.9000000000001 509.5000000000001 269.5000000000001 512.8000000000001 272.9000000000001L708.7 468.7C712.1 472.7 714.3000000000001 477.1 714.3000000000001 482.1zM1071.4 357.1C1071.4 238.8000000000001 975.4 142.9000000000001 857.1000000000001 142.9000000000001H250.0000000000001C112.2000000000001 142.9000000000001 1e-13 255.0000000000001 1e-13 392.9000000000001C1e-13 490.0000000000001 56.4000000000001 578.1000000000001 144.0000000000001 618.9000000000001C143.4000000000001 627.2 142.9000000000001 635.0000000000001 142.9000000000001 642.9000000000001C142.9000000000001 800.8000000000001 270.6000000000002 928.6000000000003 428.6000000000002 928.6000000000003C544.6000000000001 928.6000000000003 649.0000000000001 858.3000000000001 693.1000000000001 751.1000000000001C718.8000000000002 773.4000000000001 751.7000000000002 785.7 785.7000000000002 785.7C864.4000000000002 785.7 928.6000000000003 721.5 928.6000000000003 642.9000000000001C928.6000000000003 615.5000000000001 920.8000000000002 588.7 905.7000000000002 565.8000000000001C1002.8000000000002 543 1071.4 456.5000000000001 1071.4 357.1000000000002z" />
    <glyph glyph-name="cloud-upload"
      unicode="&#xF048;"
      horiz-adv-x="1071.4" d="M714.3 517.9C714.3 522.3 712.5999999999999 527.3 709.3 530.7L512.8 727.1C509.4999999999999 730.5 504.9999999999999 732.1 499.9999999999999 732.1C495.4999999999999 732.1 490.4999999999999 730.5 487.1999999999999 727.1L291.3 531.2C287.9 527.3000000000001 285.7 522.9000000000001 285.7 517.9000000000001C285.7 507.8 293.5 500.0000000000001 303.5999999999999 500.0000000000001H428.5999999999999V303.6C428.5999999999999 294.1 436.8999999999999 285.7000000000001 446.3999999999999 285.7000000000001H553.5999999999999C563.0999999999999 285.7000000000001 571.3999999999999 294.1 571.3999999999999 303.6V500H696.3999999999999C706.4999999999999 500 714.2999999999998 508.4 714.2999999999998 517.9zM1071.4 357.0999999999999C1071.4 238.8 975.4 142.8999999999999 857.1000000000001 142.8999999999999H250.0000000000001C112.2000000000001 142.8999999999999 1e-13 254.9999999999999 1e-13 392.8999999999999C1e-13 489.9999999999999 56.4000000000001 578.0999999999999 144.0000000000001 618.8999999999999C143.4000000000001 627.1999999999998 142.9000000000001 634.9999999999999 142.9000000000001 642.8999999999999C142.9000000000001 800.7999999999998 270.6000000000002 928.6 428.6000000000002 928.6C544.6000000000001 928.6 649.0000000000001 858.2999999999998 693.1000000000001 751.0999999999999C718.8000000000002 773.3999999999999 751.7000000000002 785.6999999999998 785.7000000000002 785.6999999999998C864.4000000000002 785.6999999999998 928.6000000000003 721.4999999999998 928.6000000000003 642.8999999999999C928.6000000000003 615.4999999999999 920.8000000000002 588.6999999999998 905.7000000000002 565.7999999999998C1002.8000000000002 542.9999999999998 1071.4 456.4999999999999 1071.4 357.0999999999999z" />
    <glyph glyph-name="cloud"
      unicode="&#xF049;"
      horiz-adv-x="1071.4" d="M1071.4 357.1C1071.4 238.8000000000001 975.4 142.9000000000001 857.1000000000001 142.9000000000001H250.0000000000001C112.2000000000001 142.9000000000001 1e-13 255.0000000000001 1e-13 392.9000000000001C1e-13 492.7000000000001 59.2000000000001 579.2 144.0000000000001 618.9000000000001C143.4000000000001 626.7 142.9000000000001 635.0000000000001 142.9000000000001 642.9000000000001C142.9000000000001 800.8000000000001 270.6000000000002 928.6000000000003 428.6000000000002 928.6000000000003C548.0000000000001 928.6000000000003 650.1000000000001 855.5000000000001 693.1000000000001 751.1000000000001C717.6000000000001 772.9000000000001 750.0000000000001 785.7 785.7000000000002 785.7C864.4000000000002 785.7 928.6000000000003 721.5 928.6000000000003 642.9000000000001C928.6000000000003 614.4000000000001 920.2000000000002 588.2 905.7000000000002 565.8000000000001C1000.6000000000003 543.5 1071.4 458.7 1071.4 357.1000000000002z" />
    <glyph glyph-name="code-fork"
      unicode="&#xF04B;"
      horiz-adv-x="571.4" d="M160.7 178.6C160.7 208.1 136.7 232.1 107.1 232.1S53.6 208.1 53.6 178.6S77.6 125 107.1 125S160.7 149 160.7 178.6zM160.7 821.4C160.7 851 136.7 875 107.1 875S53.6 851 53.6 821.4S77.6 767.9 107.1 767.9S160.7 791.9 160.7 821.4zM517.9 750C517.9 779.5999999999999 493.9 803.5999999999999 464.3 803.5999999999999S410.7 779.5999999999999 410.7 750S434.7 696.4 464.3 696.4S517.9 720.4 517.9 750zM571.4 750C571.4 710.4 549.6999999999999 675.8 517.9 657.4C516.1999999999999 455.9 373.3 411.3 278.5 381.0999999999999C189.7 353.2 160.7 339.8 160.7 285.7V271.2C192.5 252.8 214.3 218.1999999999999 214.3 178.5999999999999C214.3 119.3999999999999 166.3 71.3999999999999 107.1 71.3999999999999S0 119.3999999999999 0 178.5999999999999C0 218.1999999999999 21.8 252.8 53.6 271.2V728.8C21.8 747.1999999999999 0 781.8 0 821.4C0 880.5999999999999 48 928.6 107.1 928.6S214.3 880.5999999999999 214.3 821.4C214.3 781.8 192.5 747.1999999999999 160.7 728.8V451.5C189.2 465.4 219.3 474.9 246.7 483.3C350.4 516.1999999999999 409.6 540.6999999999999 410.7 657.4C378.9 675.8 357.1 710.4 357.1 750C357.1 809.2 405.1 857.0999999999999 464.3 857.0999999999999S571.4 809.1999999999999 571.4 750z" />
    <glyph glyph-name="code"
      unicode="&#xF04C;"
      horiz-adv-x="1071.4" d="M344.3 219.3L316.4000000000001 191.4C309.2000000000001 184.1999999999999 298.0000000000001 184.1999999999999 290.7000000000001 191.4L30.7 451.5C23.4 458.7 23.4 469.9 30.7 477.1L290.7000000000001 737.2C298.0000000000001 744.4000000000001 309.2000000000001 744.4000000000001 316.4000000000001 737.2L344.3 709.3000000000001C351.6 702 351.6 690.8000000000001 344.3 683.6000000000001L125 464.3000000000001L344.3 245C351.6 237.7000000000001 351.6 226.6 344.3 219.3zM674.1 814.6999999999999L466 94.3C463.2 84.8 453.1 79.1999999999999 444.2 82L409.6 91.5C400.1 94.3 394.5 104.4 397.3 113.8L605.5 834.3C608.3 843.8 618.3 849.3 627.2 846.5L661.8000000000001 837.0999999999999C671.3000000000001 834.3 676.9000000000001 824.1999999999999 674.1 814.6999999999999zM1040.7 451.5L780.7 191.4C773.4000000000001 184.1999999999999 762.3000000000001 184.1999999999999 755 191.4L727.1 219.3C719.9 226.5999999999999 719.9 237.7 727.1 245L946.4 464.3L727.1000000000001 683.5999999999999C719.9000000000001 690.8 719.9000000000001 702 727.1000000000001 709.3L755.0000000000001 737.1999999999999C762.3000000000001 744.3999999999999 773.4000000000001 744.3999999999999 780.7000000000002 737.1999999999999L1040.7000000000003 477.0999999999999C1048.0000000000002 469.8999999999999 1048.0000000000002 458.6999999999999 1040.7000000000003 451.4999999999999z" />
    <glyph glyph-name="coffee"
      unicode="&#xF04D;"
      horiz-adv-x="1071.4" d="M928.6 642.9C928.6 702 880.6 750 821.4 750H785.6999999999999V535.6999999999999H821.4C880.6 535.6999999999999 928.6 583.6999999999999 928.6 642.8999999999999zM0 214.3H1000C1000 135.5999999999999 935.8 71.4 857.1 71.4H142.9C64.2 71.4 0 135.6 0 214.3zM1035.7 642.9C1035.7 524.5999999999999 939.7 428.5999999999999 821.4000000000001 428.5999999999999H785.7V410.7C785.7 342.0999999999999 729.4000000000001 285.7 660.7 285.7H267.9000000000001C199.2000000000001 285.7 142.9 342.0999999999999 142.9 410.7V821.3999999999999C142.9 840.9999999999999 159 857.0999999999999 178.6 857.0999999999999H821.4C939.7 857.0999999999999 1035.7 761.1999999999999 1035.7 642.8999999999999z" />
    <glyph glyph-name="cog"
      unicode="&#xF04E;"
      horiz-adv-x="857.1" d="M571.4 500C571.4 578.7 507.3 642.9 428.6 642.9S285.7 578.7 285.7 500S349.8999999999999 357.1 428.5999999999999 357.1S571.3999999999999 421.3000000000001 571.3999999999999 500zM857.0999999999999 560.8V436.9C857.0999999999999 428.6 850.3999999999999 418.5 841.4999999999999 416.9L738.2999999999998 401.2C732.0999999999998 383.4 725.3999999999999 366.5999999999999 716.4999999999999 350.4C735.4999999999999 323.1 755.5999999999999 298.5 776.1999999999999 273.4C779.5999999999999 269.5 781.8 264.5 781.8 259.5S780.0999999999999 250.6 776.8 246.7000000000001C763.4 228.8000000000001 688.0999999999999 146.8000000000001 669.0999999999999 146.8000000000001C664.0999999999999 146.8000000000001 658.9999999999999 149.0000000000001 654.5999999999999 151.8000000000001L577.5999999999999 212.1C561.3999999999999 203.7000000000001 544.0999999999999 196.4 526.8 190.8000000000001C522.9 156.8000000000001 519.5 120.5000000000001 510.6 87.1C508.4 78.1 500.6 71.4 490.4999999999999 71.4H366.5999999999999C356.5999999999999 71.4 347.7 78.6999999999999 346.4999999999999 88.1999999999999L330.8999999999999 190.8C313.5999999999999 196.4 296.8999999999999 203.0999999999999 280.6999999999999 211.5L201.9999999999999 151.8C198.0999999999999 148.4 193.0999999999999 146.8 188.0999999999999 146.8S177.9999999999999 149 174.0999999999999 152.9C144.4999999999999 179.6999999999999 105.4999999999999 214.3 81.9999999999999 246.7C79.1999999999999 250.5999999999999 78.0999999999999 254.9999999999999 78.0999999999999 259.4999999999999C78.0999999999999 264.4999999999999 79.7999999999999 268.3999999999999 82.5999999999999 272.2999999999999C101.5999999999999 297.9999999999999 122.1999999999999 322.4999999999999 141.1999999999999 348.7999999999999C131.6999999999999 366.5999999999998 123.8999999999999 384.9999999999999 118.2999999999999 403.9999999999999L16.1999999999999 419.0999999999999C6.6999999999999 420.8 -1e-13 429.7 -1e-13 439.2V563.0999999999999C-1e-13 571.3999999999999 6.6999999999999 581.4999999999999 15.0999999999999 583.0999999999999L118.8999999999999 598.8C124.3999999999999 616.5999999999999 131.6999999999999 633.3999999999999 140.5999999999999 650.0999999999999C121.6999999999999 676.8999999999999 101.5999999999999 701.9999999999999 80.8999999999999 727.0999999999999C77.5999999999999 730.9999999999999 75.2999999999999 735.4999999999999 75.2999999999999 740.4999999999999S77.5999999999999 749.3999999999999 80.3999999999999 753.3C93.6999999999999 771.8 169.0999999999999 853.1999999999999 188.0999999999999 853.1999999999999C193.0999999999999 853.1999999999999 198.0999999999999 850.9999999999999 202.5999999999999 847.6999999999999L279.5999999999999 787.8999999999999C295.7999999999999 796.3 313.0999999999999 803.5999999999999 330.3999999999999 809.1999999999999C334.2999999999999 843.1999999999999 337.5999999999999 879.4999999999999 346.5 912.9C348.8 921.9 356.6 928.6 366.6 928.6H490.5C500.6 928.6 509.5 921.3 510.6 911.8L526.2 809.1999999999999C543.5 803.5999999999999 560.3000000000001 796.8999999999999 576.5 788.5L655.7 848.1999999999999C659 851.5999999999999 664.1 853.1999999999999 669.1 853.1999999999999S679.1 851 683 847.6999999999999C712.6 820.3 751.7 785.6999999999999 775.1 752.8C777.9 749.3999999999999 779 744.9999999999999 779 740.5C779 735.5 777.3 731.5999999999999 774.6 727.6999999999999C755.6 702 734.9 677.5 716 651.1999999999999C725.4 633.3999999999999 733.3 615 738.8 596.5L841 580.8999999999999C850.4 579.1999999999999 857.1 570.3 857.1 560.8z" />
    <glyph glyph-name="cogs"
      unicode="&#xF04F;"
      horiz-adv-x="1071.4" d="M500 500C500 578.7 435.8 642.9 357.1 642.9S214.3 578.7 214.3 500S278.5 357.1 357.1 357.1S500 421.3000000000001 500 500zM928.6 214.3C928.6 253.3 896.2 285.7 857.1 285.7S785.7 253.3 785.7 214.3C785.7 174.6999999999999 818.1 142.9 857.1 142.9C896.8000000000001 142.9 928.6 175.1999999999999 928.6 214.3zM928.6 785.6999999999999C928.6 824.8 896.2 857.0999999999999 857.1 857.0999999999999S785.7 824.8 785.7 785.6999999999999C785.7 746.0999999999999 818.1 714.3 857.1 714.3C896.8000000000001 714.3 928.6 746.6999999999999 928.6 785.6999999999999zM714.3 550.8V447.5C714.3 440.3 708.6999999999999 431.9 701.5 430.8L615 417.4C610.5 402.9 604.4 389 597.1 375C612.7 352.7000000000001 629.5 332 647.3000000000001 310.8C649.6 307.5 651.2 304.0999999999999 651.2 299.7C651.2 295.8 650.1 291.9 647.3000000000001 289.0999999999999C636.2 273.9999999999999 573.7 205.8999999999999 557.5000000000001 205.8999999999999C553.0000000000001 205.8999999999999 549.1000000000001 207.5999999999999 545.8000000000001 209.7999999999999L481.6000000000001 259.9999999999999C467.6000000000001 252.7999999999999 453.7000000000001 247.2 438.6000000000001 242.7C435.8000000000001 214.3 433.0000000000001 183.5999999999999 425.8000000000001 156.1999999999999C423.5000000000001 148.4 416.9000000000001 142.9 409.0000000000001 142.9H305.2000000000001C297.4000000000001 142.9 289.6 149 288.5000000000001 156.8L275.7000000000001 242.2C261.2000000000001 246.7 247.2000000000001 252.8 233.8000000000001 259.4999999999999L168.0000000000001 209.7999999999999C165.2000000000001 206.9999999999999 160.7000000000001 205.8999999999999 156.8000000000001 205.8999999999999C152.3000000000001 205.8999999999999 148.4000000000001 207.5999999999999 145.1000000000001 210.3999999999999C130.6000000000001 223.7999999999999 64.7000000000001 283.4999999999999 64.7000000000001 299.6999999999998C64.7000000000001 303.5999999999998 66.4000000000001 306.8999999999999 68.6000000000001 310.2999999999999C84.8000000000001 331.4999999999999 101.6000000000001 352.0999999999998 117.7000000000001 373.8999999999999C109.9000000000001 388.9999999999999 103.2000000000001 403.9999999999999 98.2000000000001 419.5999999999999L13.4000000000001 432.9999999999999C5.6000000000001 434.2 1e-13 441.3999999999999 1e-13 449.2V552.5C1e-13 559.6999999999999 5.6000000000001 568.0999999999999 12.8000000000001 569.1999999999999L99.3000000000001 582.5999999999999C103.8000000000001 597.0999999999999 109.9000000000001 610.9999999999999 117.2000000000001 624.9999999999999C101.6000000000001 647.3 84.8000000000001 667.9999999999999 67.0000000000001 689.1999999999998C64.7000000000001 692.4999999999999 63.1000000000001 696.3999999999999 63.1000000000001 700.3S64.2000000000001 708.0999999999999 67.0000000000001 711.4999999999999C78.1000000000001 726.5999999999999 140.6000000000001 794.0999999999999 156.8000000000001 794.0999999999999C161.3000000000001 794.0999999999999 165.2000000000001 792.3999999999999 168.5000000000001 790.1999999999998L232.7000000000001 739.9999999999999C246.7000000000001 747.1999999999998 260.6 752.8 275.7000000000001 757.8C278.5000000000001 785.6999999999999 281.3000000000001 816.3999999999999 288.5000000000001 843.6999999999999C290.7000000000001 851.5999999999999 297.4000000000001 857.0999999999999 305.2000000000001 857.0999999999999H409.0000000000001C416.9000000000001 857.0999999999999 424.7000000000001 850.9999999999999 425.8000000000001 843.1999999999999L438.6000000000001 757.8C453.1000000000001 753.3 467.1000000000001 747.1999999999999 480.5000000000001 740.4999999999999L546.3000000000001 790.1999999999998C549.7 792.9999999999999 553.6 794.0999999999999 557.5000000000001 794.0999999999999C561.9000000000001 794.0999999999999 565.8000000000001 792.3999999999999 569.2000000000002 789.5999999999999C583.7000000000002 776.1999999999998 649.6000000000001 715.9999999999999 649.6000000000001 700.3C649.6000000000001 696.3999999999999 647.9000000000001 693.0999999999999 645.6000000000001 689.6999999999998C629.5000000000001 667.9999999999999 612.7000000000002 647.8999999999999 597.1000000000001 626.0999999999999C604.4000000000001 610.9999999999998 611.0000000000001 595.9999999999998 616.1000000000001 580.3999999999999L700.9000000000001 567.4999999999999C708.7 565.8 714.3000000000001 558.5999999999999 714.3000000000001 550.8zM1071.4 253.3V175.1999999999999C1071.4 166.9 999.4 158.9999999999999 988.3 157.9C983.8 147.3 978.2 137.8 971.5000000000002 128.9C976.6000000000003 117.6999999999999 1000.0000000000002 61.9 1000.0000000000002 51.9C1000.0000000000002 50.1999999999999 999.4 49.1 997.8 48C991.1 44.1 931.4 8.4 928.6 8.4C921.3 8.4 879.5 64.1999999999999 873.9 72.5C868.3 72 862.6999999999999 71.4 857.1 71.4S846 72 840.4 72.5C834.8 64.2000000000001 793 8.4 785.6999999999999 8.4C782.9 8.4 723.1999999999999 44.1 716.4999999999999 48C714.7999999999998 49.1 714.2999999999998 50.8 714.2999999999998 51.9C714.2999999999998 61.4 737.6999999999998 117.6999999999999 742.6999999999998 128.9C735.9999999999998 137.8 730.4999999999998 147.3 725.9999999999998 157.9C714.7999999999997 159 642.8999999999997 166.9 642.8999999999997 175.1999999999999V253.3C642.8999999999997 261.7 714.7999999999997 269.5 725.9999999999998 270.5999999999999C730.4999999999998 280.7 735.9999999999998 290.7 742.6999999999998 299.7C737.6999999999998 310.8 714.2999999999998 367.2 714.2999999999998 376.7C714.2999999999998 377.8 714.7999999999998 379.4999999999999 716.4999999999999 380.5999999999999C723.1999999999999 383.8999999999999 782.8999999999999 419.5999999999999 785.6999999999999 419.5999999999999C792.9999999999999 419.5999999999999 834.8 364.3999999999999 840.4 355.9999999999999C846 356.5999999999999 851.6 357.0999999999999 857.1 357.0999999999999S868.3000000000001 356.5999999999999 873.9 355.9999999999999C889.5 377.7999999999999 906.3 399.5999999999999 925.2 418.4999999999999L928.6 419.5999999999999C931.3999999999997 419.5999999999999 991.1 384.4999999999999 997.8 380.5999999999999C999.4 379.4999999999999 1000 377.8 1000 376.7C1000 366.5999999999999 976.6 310.8 971.5 299.7C978.2 290.7 983.8 280.7 988.3 270.5999999999999C999.4 269.4999999999999 1071.3999999999999 261.7 1071.3999999999999 253.3zM1071.4 824.8V746.6999999999999C1071.4 738.3 999.4 730.5 988.3 729.4C983.8 718.7 978.2 709.3 971.5000000000002 700.3C976.6000000000003 689.1999999999999 1000.0000000000002 633.4 1000.0000000000002 623.3C1000.0000000000002 621.6999999999999 999.4 620.5 997.8 619.4C991.1 615.5 931.4 579.8 928.6 579.8C921.3 579.8 879.5 635.5999999999999 873.9 644C868.3 643.3999999999999 862.6999999999999 642.8999999999999 857.1 642.8999999999999S846 643.3999999999999 840.4 644C834.8 635.5999999999999 793 579.8 785.6999999999999 579.8C782.9 579.8 723.1999999999999 615.5 716.4999999999999 619.4C714.7999999999998 620.5 714.2999999999998 622.2 714.2999999999998 623.3C714.2999999999998 632.8 737.6999999999998 689.1999999999999 742.6999999999998 700.3C735.9999999999998 709.3 730.4999999999998 718.6999999999999 725.9999999999998 729.4C714.7999999999997 730.5 642.8999999999997 738.3 642.8999999999997 746.7V824.8C642.8999999999997 833.1 714.7999999999997 841 725.9999999999998 842.1C730.4999999999998 852.1 735.9999999999998 862.2 742.6999999999998 871.1C737.6999999999998 882.3 714.2999999999998 938.6 714.2999999999998 948.1C714.2999999999998 949.2 714.7999999999998 950.9 716.4999999999999 952C723.1999999999999 955.4 782.8999999999999 991.1 785.6999999999999 991.1C792.9999999999999 991.1 834.8 935.8 840.4 927.5C846 928 851.6 928.6 857.1 928.6S868.3000000000001 928 873.9 927.5C889.5 949.2 906.3 971 925.2 990L928.6 991.1C931.3999999999997 991.1 991.1 955.9 997.8 952C999.4 950.9 1000 949.2 1000 948.1C1000 938.1 976.6 882.3 971.5 871.1C978.2 862.2 983.8 852.1 988.3 842.1C999.4 841 1071.3999999999999 833.1 1071.3999999999999 824.8z" />
    <glyph glyph-name="columns"
      unicode="&#xF053;"
      horiz-adv-x="928.6" d="M89.3 142.9H428.6V785.6999999999999H71.4V160.6999999999999C71.4 151.1999999999999 79.8 142.9 89.3 142.9zM857.0999999999999 160.6999999999999V785.6999999999999H499.9999999999999V142.9H839.3C848.8 142.9 857.0999999999999 151.1999999999999 857.0999999999999 160.6999999999999zM928.6 839.3V160.6999999999999C928.6 111.5999999999999 888.3999999999999 71.4 839.3 71.4H89.3C40.2 71.4 0 111.6 0 160.6999999999999V839.3C0 888.4 40.2 928.6 89.3 928.6H839.3C888.4 928.6 928.6 888.4 928.6 839.3z" />
    <glyph glyph-name="comment"
      unicode="&#xF055;"
      horiz-adv-x="1000" d="M1000 500C1000 302.5 776.2 142.9 500 142.9C472.7 142.9 445.3 144.5 419.1 147.3C346 82.5999999999999 258.9000000000001 36.8 162.4 12.3C142.3000000000001 6.6999999999999 120.5 2.8 98.8 0C86.5 -1.1 74.8 7.8 72 21.2V21.8000000000001C69.2000000000001 35.7 78.7000000000001 44.1 87.1 54.1C122.2000000000001 93.7000000000001 162.4 127.2000000000001 188.6 220.4000000000001C73.7 285.7000000000001 0 386.7000000000001 0 500.0000000000001C0 697.0000000000001 223.8000000000001 857.1000000000001 500 857.1000000000001S1000 697.5000000000001 1000 500.0000000000001z" />
    <glyph glyph-name="comments"
      unicode="&#xF057;"
      horiz-adv-x="1000" d="M785.7 571.4C785.7 413.5 609.9000000000001 285.7000000000001 392.9000000000001 285.7000000000001C358.8 285.7000000000001 325.9000000000001 289.1 294.6 294.6C248.3 261.7000000000001 195.9 237.7000000000001 139.5 223.2000000000001C124.4 219.3000000000001 108.3 216.5 91.5 214.3000000000001H89.8C81.5 214.3000000000001 73.7 221.0000000000001 72 230.5000000000001V230.5000000000001C69.8 241.1000000000002 77 247.8000000000001 83.1 255.0000000000001C104.9 279.6000000000002 129.5 301.3000000000001 148.4 347.7000000000002C58 400.1000000000002 0 481.0000000000002 0 571.4000000000001C0 729.4000000000001 175.8000000000001 857.1000000000001 392.9 857.1000000000001S785.7 729.4000000000001 785.7 571.4000000000001zM1000 428.5999999999999C1000 337.5999999999999 942 257.3 851.6 204.8C870.5 158.5 895.1 136.6999999999999 916.9 112.1999999999999C923 104.9 930.2 98.1999999999999 928 87.5999999999999V87.5999999999999C925.8 77.5999999999999 917.4 70.3 908.5 71.3999999999999C891.7 73.6999999999998 875.6 76.4999999999999 860.5 80.3999999999999C804.1 94.8999999999999 751.7 118.8999999999999 705.4 151.7999999999999C674.1 146.1999999999998 641.1999999999999 142.8999999999999 607.1 142.8999999999999C506.1 142.8999999999999 413.5 170.7999999999999 343.7000000000001 216.4999999999999C359.9000000000001 215.3999999999999 376.7000000000001 214.2999999999999 392.9000000000001 214.2999999999999C512.8000000000001 214.2999999999999 626.1 248.8999999999999 712.6 311.3999999999999C805.8000000000001 379.4999999999999 857.1 471.4999999999999 857.1 571.3999999999999C857.1 600.3999999999999 852.7 628.8999999999999 844.3000000000001 656.2999999999998C938.6 604.3999999999999 1000 521.7999999999998 1000 428.5999999999999z" />
    <glyph glyph-name="compass"
      unicode="&#xF058;"
      horiz-adv-x="857.1" d="M357.1 392.9L500 464.3L357.1 535.6999999999999V392.8999999999999zM571.4000000000001 722.7V420.2000000000001L285.7000000000001 277.3000000000001V579.8000000000001zM732.1000000000001 500C732.1000000000001 667.4 596.0000000000001 803.6 428.6000000000002 803.6S125.0000000000001 667.4000000000001 125.0000000000001 500S261.2000000000001 196.4 428.6000000000002 196.4S732.1000000000001 332.5999999999999 732.1000000000001 500zM857.1000000000001 500C857.1000000000001 263.4 665.2000000000002 71.4 428.6000000000002 71.4S1e-13 263.4 1e-13 500S192.0000000000001 928.6 428.6000000000002 928.6S857.1000000000001 736.6 857.1000000000001 500z" />
    <glyph glyph-name="cow"
      unicode="&#xF05A;"
      horiz-adv-x="1000" d="M817 1000C817 1000 856.7 921.4 836.9 894.7C801.6 847.2 662.5 847.2 662.5 847.2L724.8 755.7C724.8 755.7 908.7 788.1 938.5 850C965.6 906.6 817 1000 817 1000zM188.9 994.4C188.9 994.4 40.3 975.2 50.9 864.1C60.8 761.6 295 747.3 295 747.3C313.3 780.1 332.4 821.3 358.2 854.1C358.2 854.1 179.7 835.6 156.2 898.8000000000001C131.6 964.8 188.9 994.4 188.9 994.4L188.9 994.4zM509 866.7C473.2 866.6 438.3 890.6 403.9 880.8C322 773.4 268 640.9 215.4 518.9C282.4 415.2 328.7 344.3 329.4 255.3C329.4 255.3 246.1 166.1999999999999 254.7 119.9C265.8 60.8 362.5 12.1999999999999 362.5 12.1999999999999C453.6 1.9999999999999 544.5 -8.4000000000001 650 10.4999999999999C650 10.4999999999999 744.6 78.8999999999999 745.3 117.0999999999999C746.1999999999999 165.9999999999999 671.3 255.3 671.3 255.3C681 342.8 752.9 421.9 804.5 509.4C771.1 627.5999999999999 714.3 759.8 619.7 875.2C581.6 891.3 544.9 866.9 509 866.7L509 866.7zM865 753.8C808.3 754 738.7 724.9000000000001 738.7 724.9000000000001C791.8000000000001 627.1 786.1 623.8000000000001 850.6 584.6S1000 573.4000000000001 1000 573.4000000000001S970.7 703.8000000000001 914.4 741.7C901.4 750.5 883.9 753.8 865 753.8zM142.9 750C127.3 750.1 112.1 747.6 97.9 741.7C40.2 713.9 0 551.6 0 551.6S119.5 537.2 167.9 565.6C218.3 595.2 279.8 711 279.8 711C240.9 727.4 189.8 749.8 142.9 750zM330.2 554.4C330.2 554.4 375.7 564.3 411.3 543.2C433.2 530.3 424.2 476.1 424.2 476.1S355.3 470.1 335.8 492.9C317 514.9 330.2 554.4 330.2 554.4zM671.4 548.8C671.4 548.8 681.5 508.8 651.9 484.5C630.6999999999999 467.1 579.1 476.1 579.1 476.1S572.1 520.4000000000001 601.5 543.2C629.5 565 671.4 548.8 671.4 548.8L671.4 548.8zM625 191.8C625 191.8 671.8 177.4 664.4 147C657.6 118.8 618.9 91.9 590.5 99.4C572.1 104.3 577.6 121.1 584.5 138.6C591.1 155.5 609 137.6 619.4 152.6C630.7 168.7000000000001 625 191.8 625 191.8L625 191.8zM366.5 200.9C366.5 200.9 366.6 168.6999999999999 377.7 152.6C388 137.6 408.1 152.8000000000001 414.7 135.8000000000001C421.4 118.3000000000001 424.3 101.5000000000001 406.2 96.7000000000001C378.2 89.1 340.2 116 333.5 144.2000000000001C326.2 174.5 366.5 200.9 366.5 200.9L366.5 200.9z" />
    <glyph glyph-name="credit-card"
      unicode="&#xF05B;"
      horiz-adv-x="1071.4" d="M982.1 928.6C1031.3 928.6 1071.4 888.4 1071.4 839.3V160.7000000000001C1071.4 111.6 1031.3000000000002 71.4000000000001 982.1000000000003 71.4000000000001H89.3000000000002C40.2000000000002 71.4000000000001 2e-13 111.6000000000001 2e-13 160.7000000000001V839.3000000000001C2e-13 888.4000000000001 40.2000000000002 928.6 89.3000000000002 928.6H982.1000000000003zM89.3000000000001 857.1C79.8000000000001 857.1 71.4000000000001 848.8 71.4000000000001 839.3V714.3H1000.0000000000002V839.3C1000.0000000000002 848.8 991.6000000000003 857.0999999999999 982.1000000000003 857.0999999999999H89.3000000000002zM982.1 142.9C991.6 142.9 1000 151.1999999999999 1000 160.6999999999999V499.9999999999999H71.4V160.6999999999999C71.4 151.1999999999999 79.8 142.9 89.3 142.9H982.1zM142.9 214.3V285.7H285.7V214.3H142.9zM357.1 214.3V285.7H571.4V214.3H357.1z" />
    <glyph glyph-name="crop"
      unicode="&#xF05C;"
      horiz-adv-x="928.6" d="M310.8 285.7000000000001H642.9000000000001V617.7zM285.7 310.8000000000001L617.7 642.9000000000001H285.7000000000001V310.8000000000001zM928.6 267.9000000000001V160.7000000000001C928.6 150.7000000000001 920.8 142.9000000000001 910.7 142.9000000000001H785.6999999999999V17.9000000000001C785.6999999999999 7.8000000000001 777.9 1e-13 767.9 1e-13H660.6999999999999C650.6999999999999 1e-13 642.9 7.8000000000001 642.9 17.9000000000001V142.9000000000001H160.7C150.7 142.9000000000001 142.9 150.7000000000001 142.9 160.7000000000001V642.9000000000001H17.9C7.8 642.9000000000001 0 650.7 0 660.7V767.9000000000001C0 777.9000000000001 7.8 785.7 17.9 785.7H142.9V910.7C142.9 920.8 150.7 928.6 160.7 928.6H267.9C277.9 928.6 285.7 920.8 285.7 910.7V785.7H760.5999999999999L897.8999999999999 923.5C905.1 930.2 916.2999999999998 930.2 923.4999999999998 923.5C930.2 916.3 930.2 905.1 923.4999999999998 897.9000000000001L785.6999999999998 760.6V285.7000000000001H910.6999999999998C920.7999999999998 285.7000000000001 928.5999999999998 277.9000000000001 928.5999999999998 267.9000000000001z" />
    <glyph glyph-name="css3"
      unicode="&#xF05D;"
      horiz-adv-x="1000" d="M153.5 928.6H993.3L844.9 184.7000000000001L396.2 35.7L6.7 184.7000000000001L46.3 383.4000000000001H212.1L195.9 301.3000000000001L431.4 211.5000000000001L702.5999999999999 301.3000000000001L740.4999999999999 490.5000000000001H66.3999999999999L98.7999999999999 656.2H773.3999999999999L794.5999999999999 762.8000000000001H120.4999999999999z" />
    <glyph glyph-name="desktop"
      unicode="&#xF060;"
      horiz-adv-x="1071.4" d="M1000 446.4V910.7C1000 920.2 991.6 928.6 982.1 928.6H89.3000000000001C79.8000000000001 928.6 71.4000000000001 920.2 71.4000000000001 910.7V446.4C71.4000000000001 436.9 79.8000000000001 428.6 89.3000000000001 428.6H982.1C991.6 428.6 1000 436.9 1000 446.4zM1071.4 910.7V303.5999999999999C1071.4 254.4999999999999 1031.3000000000002 214.3 982.1000000000003 214.3H678.6000000000001C678.6000000000001 166.9 714.3000000000002 126.6999999999999 714.3000000000002 107.0999999999999S698.1000000000001 71.3999999999999 678.6000000000001 71.3999999999999H392.9000000000002C373.3000000000002 71.3999999999999 357.1000000000002 87.5999999999999 357.1000000000002 107.0999999999999C357.1000000000002 127.8 392.9000000000002 165.6999999999999 392.9000000000002 214.3H89.3000000000001C40.2000000000001 214.3 1e-13 254.5 1e-13 303.5999999999999V910.7C1e-13 959.8 40.2000000000001 999.9999999999998 89.3000000000001 999.9999999999998H982.1000000000003C1031.3000000000002 999.9999999999998 1071.4 959.8 1071.4 910.7z" />
    <glyph glyph-name="download"
      unicode="&#xF066;"
      horiz-adv-x="928.6" d="M714.3 250C714.3 269.5 698.0999999999999 285.7000000000001 678.5999999999999 285.7000000000001S642.8999999999999 269.5 642.8999999999999 250S658.9999999999999 214.3 678.5999999999999 214.3S714.3 230.5 714.3 250zM857.0999999999999 250C857.0999999999999 269.5 840.9999999999999 285.7000000000001 821.3999999999999 285.7000000000001S785.6999999999998 269.5 785.6999999999998 250S801.8999999999999 214.3 821.3999999999999 214.3S857.0999999999999 230.5 857.0999999999999 250zM928.6 375V196.4C928.6 166.9 904.6 142.9 874.9999999999999 142.9H53.5999999999999C23.9999999999999 142.9 -1e-13 166.9 -1e-13 196.4V375C-1e-13 404.6 23.9999999999999 428.6 53.5999999999999 428.6H313.0999999999999L388.3999999999999 352.7000000000001C409 332.6 435.7999999999999 321.4000000000001 464.3 321.4000000000001S519.5 332.6000000000002 540.1999999999999 352.7000000000001L616.0999999999999 428.6H874.9999999999999C904.6 428.6 928.6 404.6 928.6 375zM747.1999999999999 692.5C752.8 679.1 749.9999999999999 663.5 739.4 653.5L489.4 403.5C482.7 396.2000000000001 473.2 392.9 464.3 392.9S445.9 396.2 439.2 403.5L189.1999999999999 653.5C178.5999999999999 663.5 175.7999999999999 679.1 181.3999999999999 692.5C186.8999999999999 705.4 199.7999999999999 714.3 214.2999999999999 714.3H357.0999999999999V964.3C357.0999999999999 983.8 373.2999999999999 1000 392.8999999999999 1000H535.6999999999999C555.1999999999999 1000 571.4 983.8 571.4 964.3V714.3H714.3C728.8 714.3 741.5999999999999 705.4000000000001 747.1999999999999 692.5z" />
    <glyph glyph-name="dropbox"
      unicode="&#xF068;"
      horiz-adv-x="1000" d="M224.3 605.5L500 435.3L309.2 276.2L35.7 454.1999999999999zM774.5999999999999 295.8V235.5L501.0999999999999 72V71.4L500.5999999999999 72L499.9999999999999 71.4V72L227.0999999999999 235.5V295.8L309.2 242.2L499.9999999999999 400.7V401.8L500.6 401.2L501.1 401.8V400.7L692.5 242.2zM309.2 934.2L499.9999999999999 775.0999999999999L224.3 605.5L35.7 756.0999999999999zM775.6999999999999 605.5L964.3 454.1999999999999L691.4 276.2L500 435.3zM691.4 934.2L964.3 756.0999999999999L775.6999999999999 605.5L499.9999999999999 775.0999999999999z" />
    <glyph glyph-name="eject"
      unicode="&#xF06B;"
      horiz-adv-x="858.3" d="M7.8 453.7L404 849.9000000000001C418 863.8000000000001 440.3 863.8000000000001 454.2 849.9000000000001L850.4 453.7C864.4 439.7000000000001 859.4 428.6 839.8 428.6H18.4C-1.1 428.6 -6.1 439.7000000000001 7.8 453.7zM822 142.9000000000001H36.3C16.7 142.9000000000001 0.6 159.0000000000001 0.6 178.6000000000001V321.4000000000001C0.6 341.0000000000001 16.7 357.1000000000002 36.3 357.1000000000002H822C841.5 357.1000000000002 857.7 341.0000000000001 857.7 321.4000000000001V178.6000000000001C857.7 159.0000000000001 841.5 142.9000000000001 822 142.9000000000001z" />
    <glyph glyph-name="ekylibre-alt"
      unicode="&#xF06C;"
      horiz-adv-x="1000" d="M378.4 826.1C335.3 826.1 300.5 789.5 300.5 744.3C300.5 699.2 335.3 662.6 378.4 662.6C421.5 662.6 456.6 699.2 456.6 744.3C456.6 789.5 421.6 826.1 378.4 826.1zM398.5 729.5C380.8 729.5 366.5 744.9 366.5 764C366.5 783 380.8 798.5 398.5 798.5C416.2 798.5 430.5 783.1 430.5 764C430.5 745 416.2 729.5 398.5 729.5zM648.7 826.1C605.6 826.1 570.8000000000001 789.5 570.8000000000001 744.3C570.8000000000001 699.2 605.6 662.6 648.7 662.6C691.8000000000001 662.6 726.9000000000001 699.2 726.9000000000001 744.3C726.9 789.5 691.8 826.1 648.7 826.1zM668.7 729.5C651 729.5 636.7 744.9 636.7 764C636.7 783 651 798.5 668.7 798.5C686.4000000000001 798.5 700.7 783.1 700.7 764C700.7 745 686.4 729.5 668.7 729.5zM662.3 71C659.9 58.6 654.4 46.3 649.0999999999999 36.6C645.3999999999999 29.8000000000001 635.3 31.5 633.5999999999999 39C633.4999999999999 39.6 633.3 40.2 633.1999999999999 40.8C631.1999999999999 48.9 619.9 48.9 617.1999999999999 41C614.9 34.2 611.5999999999999 27.3 607.0999999999999 20.9C603.5999999999999 16 595.8999999999999 16.5 592.9999999999999 21.8C587.9999999999999 30.9 580.8999999999999 46.8 574.6999999999999 71.0999999999999H573.9C570.5 59.5999999999999 568.1999999999999 46.4999999999999 566.6999999999999 36.6999999999999C565.6999999999999 29.9 557.1999999999999 27.0999999999999 552.4 31.9999999999999C540.8 43.9999999999999 536.1999999999999 60.4999999999999 535 70.9999999999999H476.7C475.5 60.4999999999999 471 44.1999999999999 459.6 32.1999999999999C454.8 27.1999999999999 446.2 29.9999999999999 445.2 36.8C443.8 46.5 441.4 59.5999999999999 438.1 71H437.3C431.2 46.9 424.2 31 419.3 21.9C416.4 16.5 408.7 16 405.1 21C400.7 27.3 397.5 34.2 395.2 40.9C392.5 48.8 381.1 47.8 379.1 39.6999999999999C379 39.4999999999999 379 39.4 379 39.1999999999999C377.3 31.5999999999999 367.2 29.9999999999999 363.5 36.8C358.3 46.5 353 58.6999999999999 350.6 70.9H0V2.1H1000V71H662.3zM740 893.6C766.2 902.6 792.4 913.3 818.8 925.6C820.9 926.6 822.5 928.4 823.3 930.6L839.9 980.4C842.3 987.6 834.6999999999999 993.9 828 990.4C778.4 964.3 729.6 945.1 681.5 931.6C630 957.3 571 969.7 508.7 969.7C449.3 969.7 393.9 958.4 345.4 935.1C296.6 949.8 248.2 970.4 199.9 996.7C193.2 1000.3 185.6 994.2 187.8 986.9L203.4 936.9C204.1 934.7 205.7 932.8 207.8 931.8C234 919 260.3 907.9 286.9 898.3C209.4 835.3 160.7 729.1 160.7 572.6C160.7 376.3 240.1 206.8 355.6 124.2000000000001C359.1 132.9000000000001 364.2000000000001 139.1 371.4000000000001 139.1C377.9000000000001 139.2000000000001 382.3 137.4 385.3 135C389 132 394.4000000000001 132.4 397.3 136.2000000000001C400.8 140.9000000000001 406.5 145 415.5 145.5C424.5 145.9 429.8 141.7000000000001 433.2 134.1C435.1 129.7000000000001 440.6 129 444.8 131.4C449.4000000000001 134 455.4 134.4 461.6 134C476.1 133.8 478.5 116.4 477.2 74.6C477.2 74.2000000000001 477.0000000000001 73.6 477.0000000000001 73.1C489.1000000000001 71.3000000000001 501.3000000000001 70.4 513.8000000000001 70.4C520.9000000000001 70.4 527.9000000000001 71.3 534.9000000000001 71.9C534.8000000000001 72.6999999999999 534.6000000000001 73.8 534.5000000000001 74.6C533.2000000000002 116.4 535.6000000000001 133.8000000000001 550.3000000000001 134C556.6 134.4 562.7 134 567.3000000000001 131.4C571.5000000000001 129 577.0000000000001 129.8 579.0000000000001 134.1999999999999C582.4000000000001 141.8 587.9000000000001 145.9999999999999 596.9000000000001 145.4999999999999C606.1000000000001 145.0999999999999 611.9000000000001 140.8999999999999 615.4000000000001 136.0999999999999C618.3000000000001 132.3 623.7 131.8999999999999 627.3000000000001 134.8999999999999C630.3000000000001 137.3999999999999 634.8000000000001 139.1999999999998 641.5000000000001 139.0999999999999C650.9000000000001 138.9999999999999 656.8000000000001 128.8999999999999 660.2000000000002 116.0999999999999C782.0000000000001 195.3 866.8000000000002 369.5999999999999 866.8000000000002 572.4999999999999C866.9 725.4 817.1 830.1 740 893.6zM377.9 249.5C375.8 240.9 363.5 240.9 361.6 249.6L351 296.2000000000001L362.8999999999999 280C366.2 275.5 373 275.5 376.3999999999999 279.9L389.3999999999999 297.3L377.9 249.5zM417 369.6C414.9 361 402.6 361 400.7 369.7000000000001L390 416.3L401.9 400.0999999999999C405.2 395.5999999999999 412 395.5999999999999 415.4 399.9999999999999L428.5 417.3999999999999L417 369.6zM521.5 437.5C519.4 428.9 507.1 428.9 505.2 437.6L494.6 484.2L506.4999999999999 468C509.8 463.5 516.5999999999999 463.5 520 467.9L533 485.3L521.5 437.5zM626 369.6C623.9 361 611.6 361 609.7 369.7000000000001L599 416.3L610.9 400.0999999999999C614.1999999999999 395.5999999999999 621 395.5999999999999 624.4 399.9999999999999L637.5 417.3999999999999L626 369.6zM665 249.5C662.9 240.9 650.6 240.9 648.7 249.6L638 296.2000000000001L649.9 280C653.1999999999999 275.5 660 275.5 663.4 279.9L676.4 297.3L665 249.5zM754.1 590.1C680.3000000000001 557.9000000000001 607.4000000000001 590.9000000000001 547.5 654.1C544.8 635.2 529.9 610.6 520.6 597.1C517.3000000000001 592.3 510.2 592.3 506.8 597.1C499.2 608.1 487.5 626.9000000000001 482 643.7C419.1 580 342.5 549.7 266.9 586.6C179.4 629.3 202.4 787.1 307 886.5C309.2 888.6 312.4 889.3 315.4 888.4C315.5 888.4 315.6 888.3 315.7 888.3C330.9 883.5 346.3 879.2 361.6 875.4C364.5 874.7 367.3 874.1 370.2 873.4C382.5 870.5 394.8 868 407.2 865.8C411 865.1 414.8 864.5 418.6 863.9C431.5 861.9 444.5 860.2 457.4999999999999 858.9C459.8 858.7 461.9999999999999 858.4 464.3 858.2C479.9 856.9 495.4999999999999 856.1 511.1 855.9C513.0999999999999 855.9 515.1999999999999 856 517.1999999999999 856C530.4999999999999 855.9 543.8 856.3 557.0999999999999 857.1C560.9999999999999 857.3 564.9999999999999 857.6 568.9999999999999 857.9C581.3999999999999 858.8 593.7999999999998 860.2 606.2999999999998 861.8C609.5999999999998 862.2 612.7999999999998 862.6 615.9999999999999 863.1C631.7999999999998 865.5 647.6999999999999 868.3 663.5999999999999 871.9000000000001C663.9999999999999 872 664.3999999999999 872.1 664.8 872.2C679.9 875.6 695 879.7 710.0999999999999 884.2C711.6999999999999 884.7 713.3 885 714.8 885.5C717.5 886.3000000000001 720.5 885.8000000000001 722.6999999999999 884C840.9 785.9 837.4 626.4 754.1 590.1z" />
    </font>
</defs>
</svg>
