<?xml version="1.0" standalone="no"?>
<!DOCTYPE svg PUBLIC "-//W3C//DTD SVG 1.1//EN" "http://www.w3.org/Graphics/SVG/1.1/DTD/svg11.dtd">
<svg xmlns="http://www.w3.org/2000/svg">
  <metadata>Copyright (C) 2013-2019 by Agric</metadata>
  <defs>
    <font id="agric" horiz-adv-x="1000">
      <font-face font-family="Agric" font-weight="400" font-stretch="normal" units-per-em="1000" ascent="850" descent="-150"/>
      <missing-glyph horiz-adv-x="1000"/>
      <glyph glyph-name="adjust" unicode="&#xF000;" d="M429 46v608c-168 0-304-137-304-304S261 46 429 46z m428 304c0-237-192-429-428-429S0 113 0 350s192 429 429 429 428-192 428-429z" horiz-adv-x="857.1"/>
      <glyph glyph-name="adn" unicode="&#xF001;" d="M429 503l112-171H316z m203-296h53L429 593 172 207h53l58 89h291z m225 143c0-237-192-429-428-429S0 113 0 350s192 429 429 429 428-192 428-429z" horiz-adv-x="857.1"/>
      <glyph glyph-name="align-center" unicode="&#xF002;" d="M1000 100V29c0-20-16-36-36-36H36C16-7 0 9 0 29v71c0 20 16 36 36 36h928c20 0 36-17 36-36zM786 314v-71c0-20-16-36-36-36H250c-20 0-36 16-36 36v71c0 20 17 36 36 36h500c20 0 36-16 36-36z m143 215v-72c0-19-17-36-36-36H107c-19 0-36 17-36 36v72c0 19 17 35 36 35h786c19 0 36-16 36-35zM714 743v-72c0-19-16-35-35-35H321c-19 0-35 16-35 35v72c0 19 16 36 35 36h358c19 0 35-17 35-36z" horiz-adv-x="1000"/>
      <glyph glyph-name="align-justify" unicode="&#xF003;" d="M1000 100V29c0-20-16-36-36-36H36C16-7 0 9 0 29v71c0 20 16 36 36 36h928c20 0 36-17 36-36z m0 214v-71c0-20-16-36-36-36H36c-20 0-36 16-36 36v71c0 20 16 36 36 36h928c20 0 36-16 36-36z m0 215v-72c0-19-16-36-36-36H36c-20 0-36 17-36 36v72c0 19 16 35 36 35h928c20 0 36-16 36-35z m0 214v-72c0-19-16-35-36-35H36c-20 0-36 16-36 35v72c0 19 16 36 36 36h928c20 0 36-17 36-36z" horiz-adv-x="1000"/>
      <glyph glyph-name="align-left" unicode="&#xF004;" d="M1000 100V29c0-20-16-36-36-36H36C16-7 0 9 0 29v71c0 20 16 36 36 36h928c20 0 36-17 36-36zM786 314v-71c0-20-16-36-36-36H36c-20 0-36 16-36 36v71c0 20 16 36 36 36h714c20 0 36-16 36-36z m143 215v-72c0-19-17-36-36-36H36c-20 0-36 17-36 36v72c0 19 16 35 36 35h857c19 0 36-16 36-35zM714 743v-72c0-19-16-35-35-35H36c-20 0-36 16-36 35v72c0 19 16 36 36 36h643c19 0 35-17 35-36z" horiz-adv-x="1000"/>
      <glyph glyph-name="align-right" unicode="&#xF005;" d="M1000 100V29c0-20-16-36-36-36H36C16-7 0 9 0 29v71c0 20 16 36 36 36h928c20 0 36-17 36-36z m0 214v-71c0-20-16-36-36-36H250c-20 0-36 16-36 36v71c0 20 17 36 36 36h714c20 0 36-16 36-36z m0 215v-72c0-19-16-36-36-36H107c-19 0-36 17-36 36v72c0 19 17 35 36 35h857c20 0 36-16 36-35z m0 214v-72c0-19-16-35-36-35H321c-19 0-35 16-35 35v72c0 19 16 36 35 36h643c20 0 36-17 36-36z" horiz-adv-x="1000"/>
      <glyph glyph-name="ambulance" unicode="&#xF006;" d="M357 64c0 40-32 72-71 72s-72-32-72-72 32-71 72-71 71 32 71 71zM143 350h214v143h-88c-3-1-10-3-12-5L148 379c-2-3-5-9-5-12v-17zM857 64c0 40-32 72-71 72s-72-32-72-72 32-71 72-71 71 32 71 71z m72 375v107c0 10-8 18-18 18H786v125c0 10-8 18-18 18H661c-10 0-18-8-18-18V564H518c-10 0-18-8-18-18V439c0-10 8-18 18-18h125V296c0-10 8-17 18-17h107c10 0 18 7 18 17v125h125c10 0 18 8 18 18z m142 304V100c0-20-16-36-35-36H929c0-78-64-143-143-143S643-14 643 64H429c0-78-64-143-143-143S143-14 143 64H71c-19 0-35 16-35 36s16 36 35 36v232c0 19 12 47 26 61l110 110c14 14 41 25 61 25h89v179c0 19 16 36 36 36h643c19 0 35-17 35-36z" horiz-adv-x="1071.4"/>
      <glyph glyph-name="anchor" unicode="&#xF007;" d="M536 707c0 20-16 36-36 36s-36-16-36-36 17-36 36-36 36 17 36 36z m464-518V-7c0-7-5-14-11-17-2 0-5-1-7-1-4 0-9 2-13 5l-52 52C830-73 672-141 500-141S170-73 83 32L31-20c-4-3-9-5-13-5-2 0-5 1-7 1C5-21 0-14 0-7v196c0 10 8 18 18 18h196c8 0 14-4 17-11s1-14-4-19l-56-56C222 53 318 4 429-11v361H321c-19 0-35 16-35 36v71c0 20 16 36 35 36h108v91c-43 24-72 70-72 123 0 79 64 143 143 143s143-64 143-143c0-53-29-99-72-123v-91h108c19 0 35-16 35-36v-71c0-20-16-36-35-36H571V-11C682 4 778 53 829 121l-56 56c-5 5-7 12-4 19s10 11 17 11h196c10 0 18-8 18-18z" horiz-adv-x="1000"/>
      <glyph glyph-name="android" unicode="&#xF008;" d="M275 581c12-1 22 10 22 21s-10 22-22 22-21-10-21-22 9-21 21-21z m236-1c11 1 21 11 21 22s-10 22-21 22c-13 0-22-10-22-22s9-21 22-21zM57 479c32 0 57-26 57-57V181c0-32-25-58-56-58S0 149 0 181v240c0 31 26 57 58 57z m592-11V95c0-34-27-61-61-61h-42V-93c0-31-25-57-57-57s-58 26-58 58V34h-77V-93c0-31-25-57-57-57-31 0-57 26-57 58l-1 126h-41c-34 0-61 28-61 62v371h512zM519 693c79-40 132-117 132-206H134c1 89 54 166 132 206l-39 73c-3 4-2 9 2 12 4 1 9 0 12-4l40-74c34 16 72 24 112 24s78-8 112-24l40 74c2 4 8 5 11 4 4-3 5-8 3-12z m267-272V181c0-32-26-58-58-58-31 0-57 26-57 58v240c0 32 26 57 57 57 32 0 58-25 58-57z" horiz-adv-x="785.7"/>
      <glyph glyph-name="angle-down" unicode="&#xF009;" d="M600 439c0-4-2-9-6-12L334 166c-3-3-8-5-13-5s-9 2-12 5L48 427c-3 3-5 8-5 12s2 10 5 13l28 28c4 3 8 6 13 6s10-3 13-6l219-219 220 219c3 3 8 6 13 6s9-3 12-6l28-28c4-3 6-8 6-13z" horiz-adv-x="642.9"/>
      <glyph glyph-name="angle-left" unicode="&#xF00A;" d="M350 546c0-4-2-9-6-12L125 314 344 95c4-3 6-8 6-13s-2-9-6-13l-28-28c-3-3-8-5-12-5s-10 2-13 5L31 302c-4 3-6 8-6 12s2 10 6 13l260 260c3 4 8 6 13 6s9-2 12-6l28-28c4-3 6-7 6-13z" horiz-adv-x="357.1"/>
      <glyph glyph-name="angle-right" unicode="&#xF00B;" d="M332 314c0-4-2-9-6-13L67 41c-3-3-8-5-12-5s-10 2-13 5L13 69c-4 4-6 8-6 13s2 10 6 13l219 219L13 534c-4 3-6 8-6 12s2 10 6 13l28 28c3 3 8 6 13 6s9-3 12-6l261-260c3-3 5-8 5-13z" horiz-adv-x="357.1"/>
      <glyph glyph-name="angle-up" unicode="&#xF00C;" d="M600 189c0-4-2-9-6-13l-28-28c-3-3-7-5-12-5s-10 2-13 5L321 368 102 148c-3-3-8-5-13-5s-9 2-12 5l-28 28c-4 4-6 9-6 13s2 10 6 13l260 260c3 4 8 6 12 6s10-2 13-6l260-260c4-3 6-8 6-13z" horiz-adv-x="642.9"/>
      <glyph glyph-name="apple" unicode="&#xF00D;" d="M777 172c-14-44-36-91-68-140-48-73-96-109-144-109-19 0-44 6-78 18-33 12-61 18-84 18-22 0-49-6-79-19-31-12-56-19-74-19-58 0-113 49-168 145C28 162 0 255 0 347c0 85 21 154 63 208s94 81 158 81c28 0 60-6 99-17s64-17 77-17c16 0 43 6 80 19 37 12 69 19 97 19 44 0 84-12 118-36 20-14 40-33 59-56-30-24-51-46-64-66-24-34-36-73-36-115 0-46 12-88 38-125s55-60 88-70zM567 827c1-23-5-49-16-76-11-28-28-54-52-77-20-20-40-34-60-40-13-4-32-8-58-10 1 55 16 103 44 143s74 68 139 83c1-5 2-9 3-12 0-4 1-7 1-11z" horiz-adv-x="785.7"/>
      <glyph glyph-name="archive" unicode="&#xF00E;" d="M607 386c0 19-16 35-36 35H429c-20 0-36-16-36-35s16-36 36-36h142c20 0 36 16 36 36z m322 107V-43c0-19-17-36-36-36H107c-19 0-36 17-36 36v536c0 19 17 36 36 36h786c19 0 36-17 36-36z m35 250V600c0-20-16-36-35-36H71c-19 0-35 16-35 36v143c0 19 16 36 35 36h858c19 0 35-17 35-36z" horiz-adv-x="1000"/>
      <glyph glyph-name="arrow-down" unicode="&#xF00F;" d="M899 386c0-19-8-38-21-51L515-28c-13-13-32-21-51-21s-37 8-50 21L51 336c-14 12-21 31-21 50s7 37 21 50l41 42c13 13 32 21 51 21s37-8 50-21l164-164v393c0 39 32 72 72 72h71c39 0 71-33 71-72V314l164 164c13 13 32 21 51 21s37-8 50-21l42-41c13-14 21-32 21-51z" horiz-adv-x="928.6"/>
      <glyph glyph-name="arrow-left" unicode="&#xF010;" d="M857 350v-71c0-38-25-72-65-72H399L563 43c13-13 21-31 21-50s-8-37-21-50l-42-43c-13-13-32-20-51-20s-37 7-50 20L56 264c-12 13-20 31-20 50s8 38 20 51l364 363c13 13 32 21 50 21s37-8 51-21l42-42c13-13 21-31 21-50s-8-38-21-51L399 421h393c40 0 65-33 65-71z" horiz-adv-x="857.1"/>
      <glyph glyph-name="arrow-right" unicode="&#xF011;" d="M821 314c0-19-7-37-20-51L437-100c-13-13-31-20-50-20s-37 7-51 20l-41 42c-14 13-22 32-22 51s8 37 22 51l163 163H65c-40 0-65 34-65 72v71c0 38 25 71 65 71h393L295 585c-14 13-22 32-22 51s8 37 22 50l41 42c14 13 32 21 51 21s37-8 50-21l364-364c13-12 20-31 20-50z" horiz-adv-x="857.1"/>
      <glyph glyph-name="arrow-up" unicode="&#xF012;" d="M899 308c0-19-8-37-21-50l-42-42c-13-13-31-21-50-21s-38 8-50 21L571 380V-13c0-40-33-66-71-66h-71c-38 0-72 26-72 66v393L193 216c-13-13-31-21-50-21s-37 8-50 21l-42 42c-14 13-21 31-21 50s7 38 21 51l363 363c13 14 31 21 50 21s38-7 51-21l363-363c13-13 21-32 21-51z" horiz-adv-x="928.6"/>
      <glyph glyph-name="asterisk" unicode="&#xF013;" d="M827 264c34-19 46-64 26-98l-35-61c-20-34-64-46-98-26l-149 85V-7c0-39-32-72-71-72h-71c-39 0-72 33-72 72v171L209 79c-34-20-78-8-98 26l-36 61c-19 34-7 79 27 98l148 86-148 86c-35 19-46 64-27 98l36 61c20 34 64 46 98 26l148-85v171c0 39 33 72 72 72h71c39 0 71-33 71-72V536l149 85c34 20 78 8 97-26l36-61c20-34 8-78-26-98l-148-86z" horiz-adv-x="928.6"/>
      <glyph glyph-name="backward" unicode="&#xF014;" d="M904 771c13 14 25 9 25-10V-61c0-19-12-24-25-10L507 325c-3 3-5 7-7 10V-61c0-19-11-24-25-10L79 325c-14 14-14 36 0 50l396 396c14 14 25 9 25-10V364c2 4 4 8 7 11z" horiz-adv-x="928.6"/>
      <glyph glyph-name="barcode" unicode="&#xF017;" d="M35-7H0v786h35V-7z m35 0H53v786h17V-7z m53 0h-17v786h17V-7z m87 0h-17v786h17V-7z m88 0h-35v786h35V-7z m70 0h-17v786h17V-7z m36 0h-18v786h17l1-786z m35 0h-18v786h18V-7z m87 0h-35v786h35V-7z m88 0h-35v786h35V-7z m70 0h-35v786h35V-7z m71 0h-36v786h35l1-786z m52 0h-35v786h35V-7z m105 0h-52v786h52V-7z m35 0h-17v786h18L947-7z m53 0h-35v786h35V-7z" horiz-adv-x="1000"/>
      <glyph glyph-name="barn" unicode="&#xF018;" d="M505 825L151 604-19 181h96v-362h286v355h288v-355h279v362h89L855 604 505 825z m-72-293h143V386H433v146z" horiz-adv-x="1000"/>
      <glyph glyph-name="beer" unicode="&#xF01A;" d="M357 350v214H214V421c0-39 32-71 72-71h71z m572-250V-7H286v107l71 107h-71c-119 0-215 96-215 214v179l-35 36 18 71h267l18 72h536l18-108-36-17V207z" horiz-adv-x="928.6"/>
      <glyph glyph-name="bell" unicode="&#xF01C;" d="M509-96c0 5-4 9-9 9-44 0-80 36-80 80 0 5-4 9-9 9s-9-4-9-9c0-54 44-98 98-98 5 0 9 4 9 9zM964 64c0-39-32-71-71-71H643c0-79-64-143-143-143S357-86 357-7H107C68-7 36 25 36 64c82 70 178 195 178 465 0 107 89 224 237 246-3 6-5 14-5 21 0 30 24 54 54 54s54-24 54-54c0-7-2-15-5-21 148-22 237-139 237-246 0-270 96-395 178-465z" horiz-adv-x="1000"/>
      <glyph glyph-name="bitbucket" unicode="&#xF01E;" d="M455 371c6-47-51-84-91-60-44 20-44 90-1 110 38 23 92-7 92-50z m62 11c-10 80-100 132-173 99-47-20-78-70-76-121 3-69 68-124 136-118s121 72 113 140z m133 303c-24 32-66 38-103 44-105 17-212 17-316-1-35-6-74-12-95-43 35-34 86-39 132-44 82-11 167-11 250-1 46 6 97 10 132 45z m32-578c-16-54-7-128-65-160-100-55-221-61-331-42-58 11-126 29-158 84-14 53-23 108-32 163l4 9 10 5c166-110 399-110 566 0 26-8 6-40 6-59z m101 537c-19-123-41-244-62-366-6-36-41-56-70-71-104-52-226-61-340-49-78 8-157 29-220 78-30 22-30 61-35 95C36 445 14 559 0 675c7 50 63 72 105 87 56 21 115 30 175 36 126 12 255 8 377-28 43-13 90-30 120-68 13-17 9-39 6-58z" horiz-adv-x="785.7"/>
      <glyph glyph-name="bold" unicode="&#xF01F;" d="M310 1c24-10 51-18 78-18 127 0 210 51 210 187 0 35-5 71-23 101-52 84-127 88-217 88-17 0-41 0-56-6 0-59-1-118-1-176 0-39-5-143 9-176z m-8 417c20-4 41-4 61-4 115 0 197 32 197 161 0 109-97 146-190 146-25 0-49-3-73-7 0-56 5-113 5-169 0-30-1-59-1-89 0-13 0-26 1-38zM0-79l1 53c36 9 72 9 107 24 19 33 16 91 16 128 0 13 2 546-12 572-8 16-90 20-109 23l-2 46c133 2 266 12 398 12 25 0 51-1 76-1 126 0 265-60 265-205 0-100-76-138-155-173 106-24 201-96 201-213C786-5 611-69 448-69c-50 0-99 3-148 3C200-66 99-75 0-79z" horiz-adv-x="785.7"/>
      <glyph glyph-name="bolt" unicode="&#xF020;" d="M494 534c6-6 8-16 4-24L196-136c-4-8-13-14-23-14-2 0-5 1-8 1-12 4-19 16-17 27l110 451-226-56c-2-1-5-1-7-1-6 0-13 3-17 7-7 5-9 13-7 21l112 461c2 10 13 18 24 18h183c14 0 25-11 25-24 0-3-1-7-2-10l-96-258 221 54c2 1 5 1 7 1 7 1 14-3 19-8z" horiz-adv-x="500"/>
      <glyph glyph-name="book-open" unicode="&#xF021;" d="M500 693S375 822 0 822V-35c379 0 500-143 500-143S621-35 1000-35v857c-375 0-500-129-500-129z m-375-14c159-15 256-57 313-91l-1-575c-56 34-153 76-312 91z m750-575C716 89 619 47 562 13l1 575c56 34 153 76 312 91z" horiz-adv-x="1000"/>
      <glyph glyph-name="book" unicode="&#xF022;" d="M915 583c14-20 18-46 10-72L771 6c-14-48-63-85-111-85H145C88-79 27-33 7 25c-9 25-9 49-1 70 1 12 3 23 4 36 0 9-5 16-4 23 2 13 14 23 23 38 17 28 36 73 42 102 3 11-3 23 0 33s13 18 19 28c15 26 34 75 37 102 1 11-4 24-1 33 4 13 16 18 25 30 13 18 35 71 39 101 1 9-5 19-3 29s16 21 25 34c23 35 27 111 98 91v-2c9 3 19 6 28 6h425c26 0 49-12 63-32 15-20 18-46 11-72L684 169C657 83 643 64 572 64H87c-7 0-16-1-21-8s-5-12-1-24C77 0 115-7 146-7h515c20 0 44 12 51 32l167 550c3 11 3 22 3 32 12-5 24-13 33-24z m-594-1c-4-10 2-18 12-18h339c10 0 20 8 24 18l12 36c3 10-3 18-13 18H356c-9 0-20-8-23-18z m-46-143c-4-10 2-18 12-18h339c10 0 20 8 24 18l11 36c4 10-2 18-12 18H310c-10 0-20-8-24-18z" horiz-adv-x="928.6"/>
      <glyph glyph-name="bookmark" unicode="&#xF024;" d="M650 779c8 0 16-2 24-5 25-10 40-33 40-58V-3c0-25-15-48-40-58-8-3-16-4-24-4-18 0-34 6-47 18L357 189 111-47C98-59 82-66 65-66c-9 0-17 2-25 5C16-51 0-28 0-3v719c0 25 16 48 40 58 8 3 16 5 25 5h585z" horiz-adv-x="714.3"/>
      <glyph glyph-name="briefcase" unicode="&#xF025;" d="M357 707h286v72H357v-72z m643-357V82c0-49-40-89-89-89H89C40-7 0 33 0 82v268h375v-89c0-20 16-36 36-36h178c20 0 36 16 36 36v89h375z m-429 0v-71H429v71h142z m429 268V404H0v214c0 49 40 89 89 89h197v89c0 30 24 54 53 54h322c29 0 53-24 53-54v-89h197c49 0 89-40 89-89z" horiz-adv-x="1000"/>
      <glyph glyph-name="btc" unicode="&#xF026;" d="M651 493c8-74-24-119-73-144 82-20 133-68 123-177C688 36 588 0 444-8v-142h-86v140c-22 0-45 0-68 1v-141h-86V-8c-20 0-41 1-61 1H31L48 95c64-1 62 0 62 0 24 0 31 17 33 28v225h9c-4 0-7 0-9 0v160c-4 18-15 38-50 38 0 0 1 1-62 0v92l119-1c17 0 35 0 54 1v141h86V641c22 0 45 1 68 1v137h86V638c110-10 198-44 207-145zM531 189c0 110-182 94-240 94V94c58 0 240-12 240 95z m-39 265c0 101-152 86-201 86V369c49 0 201-11 201 85z" horiz-adv-x="714.3"/>
      <glyph glyph-name="bug" unicode="&#xF027;" d="M911 314c0-19-16-35-36-35H750c0-70-15-123-37-162L829 0c14-14 14-36 0-50-7-7-16-11-25-11s-19 4-25 11L668 60S595-7 500-7v500h-71V-7C328-7 254 66 254 66L152-49c-7-8-17-12-27-12-8 0-17 3-24 9-14 14-16 36-3 51l113 127c-20 38-32 88-32 153H54c-20 0-36 16-36 35s16 36 36 36h125v164l-97 97c-14 14-14 36 0 50s36 14 50 0l97-97h471l96 97c14 14 37 14 50 0s15-36 1-50l-97-97V350h125c20 0 36-16 36-36zM643 636H286c0 98 80 178 178 178s179-80 179-178z" horiz-adv-x="928.6"/>
      <glyph glyph-name="bullhorn" unicode="&#xF029;" d="M929 493c39 0 71-32 71-72s-32-71-71-71V136c0-39-33-72-72-72-99 83-259 196-453 212-66-22-89-100-46-144-39-64 11-110 71-156-35-68-179-69-230-22-33 100-81 199-42 325H89c-49 0-89 40-89 89v107c0 49 40 89 89 89h268c214 0 393 125 500 215 39 0 72-33 72-72V493z m-72-337v532C712 577 570 512 429 497V346c141-16 283-79 428-190z" horiz-adv-x="1000"/>
      <glyph glyph-name="bullseye" unicode="&#xF02A;" d="M571 350c0-79-64-143-142-143s-143 64-143 143 64 143 143 143 142-64 142-143z m72 0c0 118-96 214-214 214s-215-96-215-214 96-214 215-214 214 96 214 214z m71 0c0-158-128-286-285-286S143 192 143 350s128 286 286 286 285-128 285-286z m72 0c0 197-160 357-357 357S71 547 71 350 232-7 429-7s357 160 357 357z m71 0c0-237-192-429-428-429S0 113 0 350s192 429 429 429 428-192 428-429z" horiz-adv-x="857.1"/>
      <glyph glyph-name="calendar" unicode="&#xF02C;" d="M71-79h161V82H71V-79z m197 0h178V82H268V-79zM71 118h161v178H71V118z m197 0h178v178H268V118zM71 332h161v161H71V332zM482-79h179V82H482V-79zM268 332h178v161H268V332zM696-79h161V82H696V-79zM482 118h179v178H482V118zM286 600v161c0 9-9 18-18 18h-36c-9 0-18-9-18-18V600c0-10 9-18 18-18h36c9 0 18 9 18 18z m410-482h161v178H696V118zM482 332h179v161H482V332z m214 0h161v161H696V332z m18 268v161c0 9-8 18-18 18h-35c-10 0-18-9-18-18V600c0-10 8-18 18-18h35c10 0 18 9 18 18z m215 36V-79c0-39-33-71-72-71H71c-39 0-71 32-71 71v715c0 39 32 71 71 71h72v54c0 49 40 89 89 89h36c49 0 89-40 89-89v-54h214v54c0 49 41 89 90 89h35c49 0 90-40 90-89v-54h71c39 0 72-32 72-71z" horiz-adv-x="928.6"/>
      <glyph glyph-name="camera-retro" unicode="&#xF02D;" d="M518 386c0 10-8 18-18 18-49 0-89-41-89-90 0-10 7-18 18-18s17 8 17 18c0 30 24 54 54 54 10 0 18 8 18 18z m125-73c0-79-64-143-143-143s-143 64-143 143 64 143 143 143 143-64 143-143zM71-7h858v71H71V-7z m643 320c0 118-96 215-214 215s-214-97-214-215S382 99 500 99s214 96 214 214zM143 671h214v72H143v-72zM71 564h858v143H466l-35-71H71v-72z m929 143V-7c0-40-32-72-71-72H71C32-79 0-47 0-7v714c0 40 32 72 71 72h858c39 0 71-32 71-72z" horiz-adv-x="1000"/>
      <glyph glyph-name="camera" unicode="&#xF02E;" d="M536 475c88 0 160-72 160-161s-72-160-160-160-161 72-161 160 72 161 161 161z m393 232c78 0 142-64 142-143V64c0-78-64-143-142-143H143C64-79 0-14 0 64v500c0 79 64 143 143 143h125l28 76c14 37 58 67 97 67h286c39 0 82-30 96-67l29-76h125zM536 64c138 0 250 113 250 250S674 564 536 564 286 452 286 314 398 64 536 64z" horiz-adv-x="1071.4"/>
      <glyph glyph-name="caret-down" unicode="&#xF02F;" d="M571 457c0-9-4-18-10-25L311 182c-7-7-16-11-25-11s-19 4-25 11L11 432c-7 7-11 16-11 25 0 20 16 36 36 36h500c19 0 35-16 35-36z" horiz-adv-x="571.4"/>
      <glyph glyph-name="caret-left" unicode="&#xF030;" d="M357 600V100c0-20-16-36-36-36-9 0-18 4-25 11L46 325c-6 7-10 15-10 25s4 18 10 25l250 250c7 7 16 11 25 11 20 0 36-16 36-36z" horiz-adv-x="357.1"/>
      <glyph glyph-name="caret-right" unicode="&#xF031;" d="M321 350c0-10-4-18-10-25L61 75c-7-7-16-11-25-11-20 0-36 16-36 36v500c0 20 16 36 36 36 9 0 18-4 25-11l250-250c6-7 10-15 10-25z" horiz-adv-x="357.1"/>
      <glyph glyph-name="caret-up" unicode="&#xF032;" d="M571 171c0-19-16-35-35-35H36c-20 0-36 16-36 35 0 10 4 19 11 25l250 250c6 7 15 11 25 11s18-4 25-10l250-251c6-6 10-15 10-25z" horiz-adv-x="571.4"/>
      <glyph glyph-name="certificate" unicode="&#xF033;" d="M768 350l77-75c10-10 14-25 11-39-4-14-15-26-29-29l-105-27 30-103c4-14 0-29-11-39-10-11-25-15-39-11L598 57 571-48c-3-14-14-26-28-30-3 0-7-1-11-1-10 0-21 5-28 13l-75 77-76-77c-10-11-25-15-39-11s-25 15-28 29L259 57 155 27c-14-4-29 0-39 11-10 10-14 25-10 39l29 103-105 27c-14 3-25 15-29 29-3 14 1 29 11 39l77 75-77 75C2 435-2 450 1 464c4 14 15 26 29 29l105 27-29 103c-4 14 0 29 10 39 10 11 25 15 39 11l104-29 27 104c3 14 14 25 28 29s29 0 39-11l76-77 75 77c10 11 25 15 39 11s25-15 28-29l27-105 104 30c14 4 29 0 39-10 11-11 15-26 11-40l-30-103 105-27c14-3 25-15 29-29 3-14-1-29-11-39z" horiz-adv-x="857.1"/>
      <glyph glyph-name="check" unicode="&#xF037;" d="M933 534c-1-14-6-28-16-38L513 92l-76-76C427 6 413 1 399 1s-28 5-38 15l-76 76L83 294c-10 10-16 24-16 38s6 28 16 38l76 76c10 10 24 16 38 16s28-6 38-16l164-165 366 367c10 10 24 16 38 16s28-6 38-16l76-76c10-10 15-24 15-38z" horiz-adv-x="1000"/>
      <glyph glyph-name="chevron-down" unicode="&#xF038;" d="M939 399L525-14c-14-14-36-14-50 0L61 399c-14 14-14 37 0 51l93 92c13 14 36 14 50 0l296-296 296 296c14 14 37 14 50 0l93-92c14-14 14-37 0-51z" horiz-adv-x="1000"/>
      <glyph glyph-name="chevron-left" unicode="&#xF039;" d="M654 682L357 386 654 89c13-14 13-36-1-50l-92-93c-14-13-36-13-50 0L96 362c-13 14-13 36 0 50l415 414c14 14 36 14 50 0l92-93c14-14 14-36 1-50z" horiz-adv-x="714.3"/>
      <glyph glyph-name="chevron-right" unicode="&#xF03A;" d="M618 361L204-54c-14-13-37-13-50 1L61 39c-14 14-14 36 0 50l296 297L61 682c-14 14-14 36 0 50l93 93c13 14 36 14 50 0l414-414c14-14 14-36 0-50z" horiz-adv-x="714.3"/>
      <glyph glyph-name="chevron-up" unicode="&#xF03F;" d="M939 107l-92-92c-14-14-37-14-51 0L500 312 204 15c-14-14-37-14-51 0l-92 92c-14 14-14 37 0 51l414 414c14 14 36 14 50-1l414-413c14-14 14-37 0-51z" horiz-adv-x="1000"/>
      <glyph glyph-name="circle" unicode="&#xF045;" d="M857 350c0-237-192-429-428-429S0 113 0 350s192 429 429 429 428-192 428-429z" horiz-adv-x="857.1"/>
      <glyph glyph-name="clock" unicode="&#xF046;" d="M500 822C224 822 0 598 0 322s224-500 500-500 500 224 500 500-224 500-500 500z m0-125c207 0 375-168 375-375S707-53 500-53 125 115 125 322s168 375 375 375z m-63-62l1-313c-1-19 8-35 21-47l123-121 88 88-108 108 1 285z" horiz-adv-x="1000"/>
      <glyph glyph-name="cloud-download" unicode="&#xF047;" d="M714 332c0 10-8 18-18 18H571v196c0 10-8 18-17 18H446c-9 0-17-8-17-18V350H304c-10 0-18-8-18-18 0-4 1-9 5-13l196-196c4-3 8-5 13-5s10 2 13 5l196 196c3 4 5 8 5 13z m357-125C1071 89 975-7 857-7H250C112-7 0 105 0 243c0 97 56 185 144 226-1 8-1 16-1 24 0 158 128 286 286 286 116 0 220-71 264-178 26 22 59 35 93 35 78 0 143-64 143-143 0-27-8-54-23-77 97-23 165-109 165-209z" horiz-adv-x="1071.4"/>
      <glyph glyph-name="cloud-upload" unicode="&#xF048;" d="M714 368c0 4-1 9-5 13L513 577c-4 4-8 5-13 5s-10-1-13-5L291 381c-3-4-5-8-5-13 0-10 7-18 18-18h125V154c0-10 8-18 17-18h108c9 0 17 8 17 18v196h125c10 0 18 8 18 18z m357-161C1071 89 975-7 857-7H250C112-7 0 105 0 243c0 97 56 185 144 226-1 8-1 16-1 24 0 158 128 286 286 286 116 0 220-71 264-178 26 22 59 35 93 35 78 0 143-65 143-143 0-28-8-54-23-77 97-23 165-110 165-209z" horiz-adv-x="1071.4"/>
      <glyph glyph-name="cloud" unicode="&#xF049;" d="M1071 207C1071 89 975-7 857-7H250C112-7 0 105 0 243c0 100 59 186 144 226-1 8-1 16-1 24 0 158 128 286 286 286 119 0 221-73 264-178 25 22 57 35 93 35 78 0 143-64 143-143 0-29-9-55-23-77 95-22 165-107 165-209z" horiz-adv-x="1071.4"/>
      <glyph glyph-name="code-fork" unicode="&#xF04B;" d="M161 29c0 29-24 53-54 53S54 58 54 29s24-54 53-54 54 24 54 54z m0 642c0 30-24 54-54 54s-53-24-53-54 24-53 53-53 54 24 54 53z m357-71c0 30-24 54-54 54s-53-24-53-54 24-54 53-54 54 24 54 54z m53 0c0-40-21-74-53-93-2-201-145-246-240-276-88-28-117-41-117-95v-15c31-18 53-53 53-92 0-60-48-108-107-108S0-31 0 29c0 39 22 74 54 92v458c-32 18-54 53-54 92 0 60 48 108 107 108s107-48 107-108c0-39-22-74-53-92V301c28 14 58 24 86 32 103 33 163 58 164 174-32 19-54 53-54 93 0 59 48 107 107 107s107-48 107-107z" horiz-adv-x="571.4"/>
      <glyph glyph-name="code" unicode="&#xF04C;" d="M344 69l-28-28c-7-7-18-7-25 0L31 302c-8 7-8 18 0 25l260 260c7 7 18 7 25 0l28-28c8-7 8-18 0-25L125 314 344 95c8-7 8-18 0-26z m330 596L466-56c-3-9-13-15-22-12l-34 9c-10 3-16 13-13 23l208 720c3 10 13 15 22 12l35-9c9-3 15-13 12-22z m367-364L781 41c-8-7-19-7-26 0l-28 28c-7 8-7 19 0 26l219 219-219 220c-7 7-7 18 0 25l28 28c7 7 18 7 26 0l260-260c7-7 7-18 0-26z" horiz-adv-x="1071.4"/>
      <glyph glyph-name="coffee" unicode="&#xF04D;" d="M929 493c0 59-48 107-108 107h-35V386h35c60 0 108 48 108 107zM0 64h1000c0-78-64-143-143-143H143C64-79 0-14 0 64z m1036 429c0-118-96-214-215-214h-35v-18c0-69-57-125-125-125H268c-69 0-125 56-125 125v410c0 20 16 36 36 36h642c119 0 215-96 215-214z" horiz-adv-x="1071.4"/>
      <glyph glyph-name="cog" unicode="&#xF04E;" d="M571 350c0 79-64 143-142 143s-143-64-143-143 64-143 143-143 142 64 142 143z m286 61V287c0-8-7-19-16-20l-103-16c-6-18-13-34-22-51 19-27 40-52 60-77 4-4 6-9 6-14s-2-8-5-12C763 79 688-3 669-3c-5 0-10 2-14 5l-77 60c-17-8-34-16-51-21-4-34-8-71-16-104-3-9-10-16-21-16H367c-10 0-19 8-21 17L331 41c-17 5-34 12-50 20L202 2c-4-4-9-5-14-5s-10 2-14 6c-30 27-69 61-92 94-3 4-4 8-4 12 0 5 2 9 5 13 19 26 39 50 58 77-9 18-17 36-23 55L16 269c-9 2-16 11-16 20v124c0 8 7 19 15 20l104 16c5 18 13 34 22 51-19 27-39 52-60 77-3 4-6 9-6 14s3 8 5 12c14 19 89 100 108 100 5 0 10-2 15-5l77-60c16 8 33 16 50 21 4 34 8 70 16 104 3 9 11 16 21 16h123c11 0 20-8 21-17l15-103c18-5 34-12 51-20l79 59c3 4 8 5 13 5s10-2 14-5c30-28 69-62 92-95 3-4 4-8 4-12 0-5-2-9-4-13-19-26-40-50-59-77 9-18 17-36 23-54l102-16c9-2 16-11 16-20z" horiz-adv-x="857.1"/>
      <glyph glyph-name="cogs" unicode="&#xF04F;" d="M500 350c0 79-64 143-143 143s-143-64-143-143 65-143 143-143 143 64 143 143zM929 64c0 39-33 72-72 72s-71-33-71-72 32-71 71-71c40 0 72 32 72 71z m0 572c0 39-33 71-72 71s-71-32-71-71c0-40 32-72 71-72 40 0 72 33 72 72zM714 401V298c0-8-5-16-13-17l-86-14c-5-14-11-28-18-42 16-22 33-43 50-64 3-3 4-7 4-11s-1-8-4-11c-11-15-73-83-89-83-5 0-9 2-12 4l-64 50c-14-7-28-13-43-17-3-29-6-59-13-87-2-8-9-13-17-13H305c-8 0-15 6-16 14l-13 85c-15 5-29 11-42 18l-66-50c-3-3-7-4-11-4-5 0-9 2-12 4-14 14-80 74-80 90 0 4 1 7 4 10 16 22 33 42 49 64-8 15-15 30-20 46l-85 13c-7 1-13 8-13 16v104c0 7 6 15 13 16l86 14c5 14 11 28 18 42-15 22-32 43-50 64-2 4-4 7-4 11s1 8 4 12c11 15 74 82 90 82 4 0 8-2 12-4l64-50c14 7 28 13 43 18 3 28 5 58 13 86 2 8 8 13 16 13h104c8 0 16-6 17-14l13-85c14-5 28-11 42-17l65 49c4 3 8 4 12 4s8-2 11-4c15-14 81-74 81-90 0-4-2-7-4-10-16-22-33-42-49-64 7-15 14-30 19-46l85-12c8-2 13-9 13-17z m357-298V25c0-8-72-16-83-17-4-11-10-20-16-29 5-11 28-67 28-77 0-2-1-3-2-4-7-4-67-40-69-40-8 0-49 56-55 65-6-1-11-2-17-2s-11 1-17 2c-5-9-47-65-54-65-3 0-63 36-70 40-1 1-2 3-2 4 0 9 24 66 29 77-7 9-13 18-17 29-11 1-83 9-83 17v78c0 9 72 17 83 18 4 10 10 20 17 29-5 11-29 67-29 77 0 1 1 3 2 4 7 3 67 39 70 39 7 0 49-56 54-64 6 1 12 1 17 1s11 0 17-1c15 22 32 44 51 63l4 1c2 0 62-35 69-39 1-1 2-3 2-4 0-10-23-66-29-77 7-9 13-19 17-29 11-1 83-9 83-18z m0 572v-78c0-9-72-16-83-18-4-10-10-20-16-29 5-11 28-67 28-77 0-1-1-2-2-4-7-3-67-39-69-39-8 0-49 56-55 64-6-1-11-1-17-1s-11 0-17 1c-5-8-47-64-54-64-3 0-63 36-70 39-1 2-2 3-2 4 0 10 24 66 29 77-7 9-13 19-17 29-11 2-83 9-83 18v78c0 8 72 16 83 17 4 10 10 20 17 29-5 11-29 68-29 77 0 1 1 3 2 4 7 3 67 39 70 39 7 0 49-55 54-63 6 0 12 1 17 1s11-1 17-1c15 21 32 43 51 62l4 1c2 0 62-35 69-39 1-1 2-3 2-4 0-10-23-66-29-77 7-9 13-19 17-29 11-1 83-9 83-17z" horiz-adv-x="1071.4"/>
      <glyph glyph-name="columns" unicode="&#xF053;" d="M89-7h340v643H71V11C71 1 80-7 89-7z m768 18v625H500V-7h339c10 0 18 8 18 18z m72 678V11c0-49-41-90-90-90H89C40-79 0-38 0 11v678c0 49 40 90 89 90h750c49 0 90-41 90-90z" horiz-adv-x="928.6"/>
      <glyph glyph-name="comment" unicode="&#xF055;" d="M1000 350C1000 152 776-7 500-7c-27 0-55 1-81 4-73-64-160-110-257-135-20-5-41-9-63-12-12-1-24 8-27 21v1c-3 14 7 22 15 32 35 40 75 73 102 166C74 136 0 237 0 350c0 197 224 357 500 357s500-159 500-357z" horiz-adv-x="1000"/>
      <glyph glyph-name="comments" unicode="&#xF057;" d="M786 421c0-158-176-285-393-285-34 0-67 3-98 9-47-33-99-57-155-72-16-4-32-7-48-9h-2c-8 0-16 7-18 16-2 11 5 18 11 25 22 25 47 46 65 93C58 250 0 331 0 421c0 158 176 286 393 286s393-128 393-286z m214-142c0-91-58-172-148-224 19-47 43-68 65-93 6-7 13-14 11-24s-11-18-20-17c-16 3-32 5-48 9-56 15-108 39-155 72-31-6-64-9-98-9-101 0-193 28-263 73 16-1 33-2 49-2 120 0 233 35 320 97 93 68 144 160 144 260 0 29-4 58-13 85 95-52 156-134 156-227z" horiz-adv-x="1000"/>
      <glyph glyph-name="compass" unicode="&#xF058;" d="M357 243l143 71-143 72V243z m214 330V270L286 127v303z m161-223c0 167-136 304-303 304S125 517 125 350 261 46 429 46s303 137 303 304z m125 0c0-237-192-429-428-429S0 113 0 350s192 429 429 429 428-192 428-429z" horiz-adv-x="857.1"/>
      <glyph glyph-name="cow" unicode="&#xF05A;" d="M817 822s40-78 20-105c-35-48-175-48-175-48l63-91s184 32 213 94c28 57-121 150-121 150z m-628-5S40 797 51 686c10-102 244-116 244-116 18 32 37 74 63 106 0 0-178-18-202 45-24 66 33 96 33 96z m320-128c-36 0-71 24-105 14-82-107-136-240-189-362 67-104 114-174 114-263 0 0-83-90-74-136 11-59 107-108 107-108 92-10 183-20 288-1 0 0 95 68 95 106 1 49-74 139-74 139 10 87 82 166 133 254-33 118-90 250-184 365-38 17-75-8-111-8z m356-113c-57 0-126-29-126-29 53-98 47-101 112-140 64-39 149-11 149-11s-29 130-86 168c-13 9-30 12-49 12z m-722-4c-16 0-31-2-45-8C40 536 0 374 0 374s119-15 168 14c50 29 112 145 112 145-39 17-90 39-137 39z m187-195s46 10 81-12c22-12 13-67 13-67s-69-6-88 17c-19 22-6 62-6 62z m341-6s10-40-19-64c-21-18-73-9-73-9s-7 45 23 67c28 22 69 6 69 6zM625 14s47-14 39-45c-6-28-45-55-74-47-18 5-12 21-6 39 7 17 25-1 35 14 12 16 6 39 6 39z m-259 9c1 0 1-32 12-48 10-15 30 0 37-17 6-17 9-34-9-39-28-8-66 19-73 47-7 31 34 57 34 57z" horiz-adv-x="1000"/>
      <glyph glyph-name="credit-card" unicode="&#xF05B;" d="M982 779c49 0 89-41 89-90V11c0-49-40-90-89-90H89C40-79 0-38 0 11v678c0 49 40 90 89 90h893zM89 707c-9 0-18-8-18-18V564h929v125c0 10-8 18-18 18H89zM982-7c10 0 18 8 18 18v339H71V11C71 1 80-7 89-7h893zM143 64v72h143V64H143z m214 0v72h214V64H357z" horiz-adv-x="1071.4"/>
      <glyph glyph-name="crop" unicode="&#xF05C;" d="M311 136h332v332z m-25 25l332 332H286V161z m643-43V11c0-10-8-18-18-18H786v-125c0-10-8-18-18-18H661c-10 0-18 8-18 18V-7H161c-10 0-18 8-18 18v482H18c-10 0-18 8-18 18v107c0 10 8 18 18 18h125v125c0 10 8 18 18 18h107c10 0 18-8 18-18V636h475l137 138c7 6 18 6 25-1s7-18 0-25L786 611V136h125c10 0 18-8 18-18z" horiz-adv-x="928.6"/>
      <glyph glyph-name="css3" unicode="&#xF05D;" d="M154 779h839L845 35 396-114 7 35l39 198h166l-16-82 235-89 272 89 37 190-674-1 33 166h674l22 107H120z" horiz-adv-x="1000"/>
      <glyph glyph-name="desktop" unicode="&#xF060;" d="M1000 296v465c0 9-8 18-18 18H89c-9 0-18-9-18-18V296c0-9 9-17 18-17h893c10 0 18 8 18 17z m71 465V154c0-49-40-90-89-90H679c0-47 35-87 35-107s-16-36-35-36H393c-20 0-36 17-36 36 0 21 36 59 36 107H89c-49 0-89 41-89 90v607c0 49 40 89 89 89h893c49 0 89-40 89-89z" horiz-adv-x="1071.4"/>
      <glyph glyph-name="download" unicode="&#xF066;" d="M714 100c0 20-16 36-35 36s-36-17-36-36 16-36 36-36 35 16 35 36z m143 0c0 20-16 36-36 36s-35-17-35-36 16-36 35-36 36 16 36 36z m72 125V46c0-29-24-53-54-53H54C24-7 0 17 0 46v179c0 30 24 54 54 54h259l75-76c21-20 48-32 76-32s55 12 76 32l76 76h259c30 0 54-24 54-54zM747 543c6-14 3-30-8-40L489 254c-6-7-16-10-25-10s-18 3-25 11L189 504c-10 10-13 25-8 39 6 12 19 21 33 21h143v250c0 20 16 36 36 36h143c19 0 35-16 35-36V564h143c15 0 28-9 33-22z" horiz-adv-x="928.6"/>
      <glyph glyph-name="dropbox" unicode="&#xF068;" d="M224 456l276-171-191-159L36 304z m551-310V86L501-78v-1 1l-1-1v1L227 86v60l82-54 191 159v1l1-1v1-1L692 92zM309 784l191-159-276-169L36 606z m467-328l188-152-273-178-191 159z m-85 328l273-178-188-150-276 169z" horiz-adv-x="1000"/>
      <glyph glyph-name="eject" unicode="&#xF06B;" d="M8 304l396 396c14 14 36 14 50 0l396-396c14-14 9-25-10-25H18c-19 0-24 11-10 25zM822-7H36C17-7 1 9 1 29v142c0 20 16 36 35 36h786c20 0 36-16 36-36V29c0-20-16-36-36-36z" horiz-adv-x="858.3"/>
      <glyph glyph-name="ekylibre-alt" unicode="&#xF06C;" d="M0 822V-178h1000V822z m63-62h875l-1-875H63z m125-125l-1-625h626l-1 125H313l1 125h500l-1 125H313l1 125h500l-1 125z" horiz-adv-x="1000"/>
      <glyph glyph-name="ekylibre" unicode="&#xF06D;" d="M0 874V74h800v800H0z m50-50h700V124H50v700z m1984-75l-40-21c-5-16-12-28-22-36v-64c-2-4-4-6-6-6-2-23-6-41-13-55l3-9v-45c-2-24-3-45-3-61l-12-15v-18l-3-7v-9c-2-9-3-17-3-24-12-26-17-57-15-94-1-24-1-44-1-61 14-9 22-20 25-33h9c9-3 17-4 25-3l9 12 4 18c-7 46-2 87 15 125v9l-3 9 3 6c9 25 14 46 16 63l6 4c-2 20-1 37 3 51l3 18 12 10 3 9v24c15 35 22 69 22 103 11 8 17 18 18 30-5 8-7 16-6 24-12 10-18 22-15 37-12 6-24 10-34 9z m311-1c-8-6-17-9-25-10-4-13-10-23-19-31-5-29 0-54 13-74v-40c-1-6-1-14-1-24l1-3 2-3v-19l1-9 4-9c-1-15-5-29-11-40 3-11 4-21 3-30l-9-6-1-8-7-34c12-10 19-23 22-38l6-6c15-3 29-3 40 0 4 4 7 6 10 8 4 13 12 21 23 23l5 10 4 3 1 5c4 4 5 8 6 12l3 3 1 3c8 8 14 16 18 23 13 2 21-1 23-10l5-2c21 2 40-1 56-7 19 2 35-3 47-15 9 0 16-4 20-11 7 0 16-7 27-22 25-10 42-27 53-49v-6l-1-10c13-16 9-36-13-59-13-4-23-10-31-17-8 3-15 4-22 3s-13-1-18 0l-4-2-4-1c-20 0-36-2-49-6-14 5-28 7-40 5-3 2-6 5-7 8l-3 2c-9 14-16 23-22 25l-3 3c0 13-3 24-10 32-7 2-13 2-19 0-25-42-29-70-13-85 7-17 18-27 34-29l7-8c16-1 28-7 39-16h6c4 4 8 8 12 10l11-3c7 1 12 0 17-3 9 1 17 3 23 5l16-4 5 2h20l4 2h23c11 3 21 4 30 3 16 13 32 20 49 23 3 4 5 8 8 10 50 8 70 51 58 129-15 14-22 31-21 50-13 8-23 19-29 32-7 4-13 9-17 15h-4c-5 1-11 2-15 2-8 9-13 19-16 29-8 4-14 9-19 15l-3 1c-18 8-32 18-43 29h-4c-4-1-8-2-11-1l-3 4c-16 4-30 10-40 19-6-2-12-3-16-4-13 9-26 12-38 10-7 4-12 8-16 12h-10l-4-3c-5 0-10 1-14 2h-4c-9-3-16-4-23-4-7-6-14-9-21-10-4-5-8-8-11-9-5 16-4 31 1 44-7 25-5 47 6 65-1 12 0 23 3 31l1 4c0 12-1 23-2 31-1 1-1 2-1 3l-3 3-1 3c-3 8-6 14-9 19h-4c-5 1-10 2-15 3-7 0-13 1-18 3z m-169-22l-35-20c0-15-2-28-7-39 2-2 4-3 4-5 3-2 3-3 3-5 5-13 10-24 15-32 14-2 26-6 35-15 10 4 20 5 31 3 17-19 34-24 50-15 3 10 4 19 2 30l-17 7-5 7c-9 23-19 41-33 55-1 9-3 16-8 22-14 4-25 7-35 7z m-2026-2V224h500v100H250v100h400v100H250v100h400v100H150z m925-7c-1 0-3 0-4-1-12-15-25-27-41-34l-6-19c-7-27-12-49-13-66l-6-6c-5-20-14-36-27-48 3-22-3-41-16-55-2-18-7-32-16-43 0-30-7-56-19-77 1-15-3-27-11-35 0-13-3-25-8-34-21-12-32-28-33-49 0-26 9-48 27-63 13 0 24-1 33-3 3 2 5 3 8 3 15 11 31 18 46 21 3 3 5 5 8 5l8 6c9 11 20 17 33 18v8c15 5 27 12 35 22 13-3 23-8 30-17 28-4 50-13 68-29 55-34 109-38 160-11v9c-4 6-7 13-8 21-10 4-17 10-21 16-26 0-45 8-58 27-18 5-24 14-16 26-20 8-32 23-38 43 7 8 12 14 16 18 9 5 16 7 22 9 4 6 9 10 16 13 4 6 7 11 12 16l7 7 8 4 12 5 2 8h9l27 16c9 10 19 17 29 21 8 15 12 28 14 40-17 6-31 6-43 0-14-13-27-20-41-21-8-15-19-25-33-30l-19-3c-4-12-12-20-24-23-14-5-24-9-33-13-17-14-34-22-51-25-10-11-20-19-30-24-8-16-21-24-38-24-9-11-19-18-30-21-4-9-9-16-17-21-11-8-18-6-19 5 2 34 9 56 22 67-1 23 5 42 16 58 2 11 2 21 0 30l6 10 5 8 3 8 3 8 2 8c16 19 26 36 30 53l6 6 24 24c8 16 17 28 28 37v16l2 18c0 12 1 22 3 30-18 19-38 28-61 27z m2306-152c-2-2-4-3-5-3-38-3-70-12-98-28l-7-14-19-4c-12-9-24-14-34-17-1-3-2-4-5-5-3-8-6-14-9-18-23-27-37-53-41-80-1-5-3-10-7-14v-9l5-12-5-17c3-9 4-16 5-23l5-37 2-8 7-4 5-16c10-10 17-19 21-28l8-3 4-7 12-2 8-2 4-5h7l5-3 46-18 9 2c8 1 14 1 19 0l7 3h15l19 2c18 3 34 5 48 4l5 10h6c10 4 19 7 29 7 8 9 19 13 31 12 4 7 10 12 17 14l-2 21c-18-2-33-1-46 2-12-4-23-5-33-2-53-11-104-9-151 7-4 7-9 13-16 16 9 13 20 22 30 28l10 10 12 7 12 4c19 21 39 36 60 45l2 7 7 2c13 15 28 26 43 33 5 13 14 22 27 26l4 28c18 22 18 44 0 65-12 9-24 13-36 14l-4 3c-16 0-28 2-39 7z m-346-8c-7-10-17-13-29-8-8-17-20-28-37-31-5-10-8-19-10-27-17 9-34 12-50 10l-34-44-3-9-2-20-5-22-5-3c-2-12-5-22-10-31 0-18-4-33-10-46 2-6 3-13 2-20-20-31-27-62-22-94 12-13 26-21 40-24l10 2c5 6 8 13 10 19l22 13c7 10 14 17 22 22-7 45 2 85 27 118 5 29 18 51 38 68 26 54 72 62 138 25 21 9 29 22 25 38l-5 8-3 2c-11 10-19 19-25 27l1 2c-14 4-26 10-35 17l-5 3c-17-2-32-1-45 5z m-1572-16c-50-24-63-55-40-93l10-3c4-32 11-56 22-74 10-17 20-33 27-46 15-13 26-23 32-30 7-7 24-20 53-39l55-3v-9c-13-15-19-31-19-48-12-15-17-30-15-45-35-80-47-159-34-238 7-5 12-11 16-18 11-7 20-14 27-21 17 0 31 3 43 9l1 21c-23 44-27 87-13 129-1 34 7 63 25 87-1 38 9 68 30 91 10 45 32 78 68 99 17 24 35 41 55 51l6 18 9 6 49 48c8 32 6 60-6 84-30 20-60 21-89 3v-15l-18-6c-7-15-12-30-12-45l-13-6c-4-15-13-26-27-33-5-12-11-22-19-30-2-19-11-34-27-42-4-12-10-22-18-30-57 16-95 80-114 195-17 7-30 17-39 30-10 0-18 1-25 3z m1901-51l21-5c-5-25-19-42-43-49-16-24-38-33-64-26-7-9-16-13-26-12 2 21 12 36 30 45 16 22 37 33 63 33 5 6 12 11 19 14z m-1196-19l-15-12c-6-10-12-17-18-22v-10c-8-29-16-68-24-115-7-5-12-11-15-18-8-99 16-131 70-96l3 8c-7 16-10 29-10 42 3 12 7 22 12 29 3 11 7 20 13 28 14 52 29 86 44 102-3 38-23 60-61 65z" horiz-adv-x="3500"/>
      <glyph glyph-name="envelope" unicode="&#xF071;" d="M1000 454V11c0-49-40-90-89-90H89C40-79 0-38 0 11v443c17-19 36-35 56-49 93-63 187-126 278-192 47-35 105-77 165-77h2c60 0 118 42 165 77 91 66 185 129 278 192 20 14 39 30 56 49z m0 164c0-63-46-119-95-153-87-60-175-121-262-181-36-25-97-77-142-77h-2c-45 0-106 52-142 77-87 60-174 121-261 181-40 27-96 90-96 141 0 54 30 101 89 101h822c48 0 89-40 89-89z" horiz-adv-x="1000"/>
      <glyph glyph-name="eraser" unicode="&#xF072;" d="M500 64l188 215H259L71 64h429z m565 601c11-25 7-55-11-76L554 17C540 2 521-7 500-7H71C43-7 18 9 6 35c-11 25-7 55 12 76l500 572c13 15 33 24 53 24h429c28 0 54-16 65-42z" horiz-adv-x="1071.4"/>
      <glyph glyph-name="eur" unicode="&#xF074;" d="M545 121l19-89c2-9-3-18-11-21-2 0-54-18-121-18C258-7 118 98 71 262H18c-10 0-18 8-18 18v63c0 9 8 18 18 18h37c-1 17-1 39 0 58H18c-10 0-18 8-18 18v64c0 10 8 17 18 17l54 1c50 156 193 260 360 260 58 0 106-13 108-13 5-1 8-5 11-9 3-3 3-9 2-13l-24-89c-2-9-12-15-21-12-1 0-39 10-78 10-94 0-173-51-210-134h261c6 0 11-3 14-7s5-10 4-15l-13-63c-2-9-9-15-18-15H195c-1-18-1-37 0-58h257c5 0 10-3 13-7 4-5 5-10 4-15l-14-63c-1-8-9-14-17-14H222c36-87 116-142 211-142 49 0 88 14 89 14 4 1 10 1 14-2 5-2 7-7 9-11z" horiz-adv-x="571.4"/>
      <glyph glyph-name="exchange" unicode="&#xF075;" d="M1000 189V82c0-9-8-18-18-18H214V-43c0-9-7-18-18-18-5 0-9 2-13 6L5 123c-3 4-5 8-5 13s2 9 5 12l179 179c3 3 8 5 12 5 10 0 18-8 18-18V207h768c10 0 18-8 18-18z m0 304c0-5-2-10-5-13L816 301c-3-3-8-5-12-5-10 0-18 9-18 18v107H18c-10 0-18 9-18 18v107c0 10 8 18 18 18h768v107c0 10 8 18 18 18 5 0 9-2 13-5l178-178c3-4 5-9 5-13z" horiz-adv-x="1000"/>
      <glyph glyph-name="exclamation" unicode="&#xF077;" d="M286 154V29c0-20-17-36-36-36H107C88-7 71 9 71 29v125c0 19 17 35 36 35h143c20 0 36-16 36-35z m16 589l-15-429c-1-19-17-35-37-35H107c-19 0-36 16-37 35L55 743c-1 19 15 36 34 36h179c19 0 35-17 34-36z" horiz-adv-x="357.1"/>
      <glyph glyph-name="expand" unicode="&#xF079;" d="M421 261c0-5-2-10-5-13L230 63l81-81c7-6 10-15 10-25 0-19-16-36-35-36H36C16-79 0-62 0-43v250c0 20 16 36 36 36 9 0 18-4 25-11l80-80 186 185c3 4 8 6 12 6s10-2 13-6l64-63c3-4 5-9 5-13z m436 482V493c0-20-16-36-36-36-9 0-18 4-25 11l-80 80-185-185c-4-3-9-6-13-6s-10 3-13 6l-64 64c-3 3-5 8-5 12s2 10 5 13l186 185-81 81c-6 6-10 15-10 25 0 19 16 36 35 36h250c20 0 36-17 36-36z" horiz-adv-x="857.1"/>
      <glyph glyph-name="external-link" unicode="&#xF07B;" d="M786 332V154C786 65 714-7 625-7H161C72-7 0 65 0 154v464c0 89 72 161 161 161h393c10 0 17-8 17-18v-36c0-10-7-18-17-18H161c-49 0-90-40-90-89V154c0-49 41-90 90-90h464c49 0 89 41 89 90v178c0 10 8 18 18 18h36c10 0 18-8 18-18z m214 482V529c0-20-16-36-36-36-9 0-18 4-25 10l-98 99-364-364c-3-4-8-6-13-6s-9 2-13 6l-63 63c-4 4-6 9-6 13s2 10 6 13l364 364-99 98c-6 7-10 16-10 25 0 20 16 36 36 36h285c20 0 36-16 36-36z" horiz-adv-x="1000"/>
      <glyph glyph-name="facebook" unicode="&#xF07F;" d="M535 843V696h-87c-69 0-82-33-82-80V510h164l-22-165H366V-79H195v424H53v165h142v122c0 141 87 218 213 218 60 0 112-5 127-7z" horiz-adv-x="571.4"/>
      <glyph glyph-name="fast-backward" unicode="&#xF081;" d="M975 771c14 14 25 9 25-10V-61c0-19-11-24-25-10L579 325c-4 3-6 7-8 10V-61c0-19-11-24-25-10L150 325c-3 3-5 7-7 10V-43c0-19-16-36-36-36H36C16-79 0-62 0-43v786c0 19 16 36 36 36h71c20 0 36-17 36-36V364c2 4 4 8 7 11l396 396c14 14 25 9 25-10V364c2 4 4 8 8 11z" horiz-adv-x="1000"/>
      <glyph glyph-name="fast-forward" unicode="&#xF082;" d="M25-71C11-85 0-80 0-61v822c0 19 11 24 25 10l396-396c4-3 6-7 8-10v396c0 19 11 24 25 10l396-396c3-3 6-7 7-10v378c0 19 16 36 36 36h71c20 0 36-17 36-36V-43c0-19-16-36-36-36h-71c-20 0-36 17-36 36v379c-1-4-4-8-7-11L454-71c-14-14-25-9-25 10v397c-2-4-4-8-8-11z" horiz-adv-x="1000"/>
      <glyph glyph-name="female" unicode="&#xF083;" d="M714 261c0-30-24-54-53-54-18 0-35 9-45 24L489 421h-25v-73l138-230c3-5 5-11 5-18 0-19-16-36-36-36H464V-87c0-35-28-63-62-63h-90c-34 0-62 28-62 63V64H143c-20 0-36 17-36 36 0 7 2 13 5 18l138 230v73h-25L98 231c-10-15-27-24-44-24-30 0-54 24-54 54 0 10 3 21 9 29l143 215c22 33 57 59 98 59h214c42 0 76-26 98-59l143-215c6-8 9-19 9-29zM482 707c0-69-56-125-125-125s-125 56-125 125 56 125 125 125 125-56 125-125z" horiz-adv-x="714.3"/>
      <glyph glyph-name="fighter-jet" unicode="&#xF084;" d="M1071 314s0-18-160-53l-197-18-125-36h-35L390 11h39c19 0 35-4 35-9s-16-9-35-9H250v18h36v232h-90L89 118H36l-18 18v107h18v18h71v4L0 279v71l107 13v5H36v18H18v107l18 18h53l107-125h90v232h-36v18h179c19 0 35-4 35-9s-16-9-35-9h-39l164-197h35l125-35 197-18c160-36 160-54 160-54z" horiz-adv-x="1071.4"/>
      <glyph glyph-name="file-text" unicode="&#xF087;" d="M819 584c6-5 11-12 16-20H571v264c8-5 15-10 21-16z m-265-91h303V-96c0-30-24-54-53-54H54c-30 0-54 24-54 54v892c0 30 24 54 54 54h446V546c0-29 24-53 54-53z m89-411v36c0 10-8 18-18 18H232c-10 0-18-8-18-18V82c0-10 8-18 18-18h393c10 0 18 8 18 18z m0 143v36c0 10-8 18-18 18H232c-10 0-18-8-18-18v-36c0-10 8-18 18-18h393c10 0 18 8 18 18z m0 143v36c0 10-8 17-18 17H232c-10 0-18-7-18-17v-36c0-10 8-18 18-18h393c10 0 18 8 18 18z" horiz-adv-x="857.1"/>
      <glyph glyph-name="file" unicode="&#xF088;" d="M571 564v264c8-5 15-10 20-16l228-228c6-5 11-12 16-20H571z m-71-18c0-29 24-53 54-53h303V-96c0-30-24-54-53-54H54c-30 0-54 24-54 54v892c0 30 24 54 54 54h446V546z" horiz-adv-x="857.1"/>
      <glyph glyph-name="film" unicode="&#xF089;" d="M214-43v72c0 19-16 35-35 35h-72c-19 0-36-16-36-35v-72c0-19 17-36 36-36h72c19 0 35 17 35 36z m0 214v72c0 19-16 36-35 36h-72c-19 0-36-17-36-36v-72c0-19 17-35 36-35h72c19 0 35 16 35 35z m0 215v71c0 20-16 36-35 36h-72c-19 0-36-16-36-36v-71c0-20 17-36 36-36h72c19 0 35 16 35 36zM786-43v286c0 19-16 36-36 36H321c-19 0-35-17-35-36V-43c0-19 16-36 35-36h429c20 0 36 17 36 36zM214 600v71c0 20-16 36-35 36h-72c-19 0-36-16-36-36v-71c0-20 17-36 36-36h72c19 0 35 16 35 36z m786-643v72c0 19-16 35-36 35h-71c-20 0-36-16-36-35v-72c0-19 16-36 36-36h71c20 0 36 17 36 36zM786 386v285c0 20-16 36-36 36H321c-19 0-35-16-35-36V386c0-20 16-36 35-36h429c20 0 36 16 36 36z m214-215v72c0 19-16 36-36 36h-71c-20 0-36-17-36-36v-72c0-19 16-35 36-35h71c20 0 36 16 36 35z m0 215v71c0 20-16 36-36 36h-71c-20 0-36-16-36-36v-71c0-20 16-36 36-36h71c20 0 36 16 36 36z m0 214v71c0 20-16 36-36 36h-71c-20 0-36-16-36-36v-71c0-20 16-36 36-36h71c20 0 36 16 36 36z m71 89V-61c0-49-40-89-89-89H89c-49 0-89 40-89 89v750c0 49 40 90 89 90h893c49 0 89-41 89-90z" horiz-adv-x="1071.4"/>
      <glyph glyph-name="filter" unicode="&#xF08A;" d="M783 685c5-13 3-29-8-39L500 371V-43c0-14-9-27-22-33-4-2-9-3-14-3-9 0-18 4-25 11L296 75c-6 7-10 15-10 25v271L11 646c-11 10-14 26-8 39 5 13 18 22 33 22h714c14 0 27-9 33-22z" horiz-adv-x="785.7"/>
      <glyph glyph-name="fire-extinguisher" unicode="&#xF08B;" d="M286 743c0 19-17 36-36 36s-36-17-36-36 17-36 36-36 36 16 36 36z m500 18V582c0-5-2-11-7-14-3-3-7-4-11-4-1 0-2 0-4 1l-250 53c-8 2-14 9-14 18H357v-57c82-17 143-89 143-175V-43c0-19-16-36-36-36H179c-20 0-36 17-36 36v447c0 79 52 147 125 170v62h-18C132 636 68 513 68 512c-7-12-19-19-32-19-6 0-11 1-16 4-18 9-25 30-16 48 3 5 59 114 171 150-9 14-14 30-14 48 0 49 40 89 89 89s89-40 89-89c0-13-2-25-7-36h168c0 9 6 16 14 17l250 54c2 1 3 1 4 1 4 0 8-1 11-4 5-4 7-9 7-14z" horiz-adv-x="785.7"/>
      <glyph glyph-name="fire" unicode="&#xF08C;" d="M786-96v-36c0-10-9-18-18-18H18c-10 0-18 8-18 18v36c0 9 8 17 18 17h750c9 0 18-8 18-17zM643 493c0-214-250-233-250-375 0-39 19-91 37-125h-2 1C275 64 143 161 143 350c0 214 250 233 250 375 0 39-20 91-37 125l2-1-1 1c154-71 286-169 286-357z" horiz-adv-x="785.7"/>
      <glyph glyph-name="flag-checkered" unicode="&#xF08E;" d="M464 292v107c-68-6-150-33-214-65V231c65 30 145 55 214 61z m0 233v110c-70-3-153-36-214-70V459c66 34 145 63 214 66z m465-258v103c-51-26-140-63-215-40v125c-7 2-14 5-22 8-64 33-116 63-200 63-9 0-18-1-28-2V400h11c84 0 153-30 218-62 7-3 14-6 21-8V225c15-6 32-10 51-10 62 0 129 33 164 52z m0 238v106c-45-24-108-51-171-51-15 0-30 1-44 4V455c75-21 164 22 215 50zM179 707c0-26-15-49-36-61V-61c0-10-8-18-18-18H89c-10 0-18 8-18 18v707c-21 12-35 35-35 61 0 40 32 72 71 72s72-32 72-72z m821-36V246c0-14-8-26-20-32-2-1-5-3-9-5-36-19-120-65-206-65-33 0-62 7-88 20l-16 7c-56 29-101 51-169 51-81 0-194-42-259-81-6-4-13-5-19-5s-12 1-18 4c-11 7-17 19-17 31v415c0 12 6 24 17 30 36 21 162 91 279 91 93 0 169-34 233-65 15-7 31-11 50-11 66 0 138 42 173 63 7 4 13 7 17 9 11 6 24 5 35-1 10-7 17-18 17-31z" horiz-adv-x="1000"/>
      <glyph glyph-name="flag" unicode="&#xF08F;" d="M179 707c0-25-14-48-36-61V-61c0-9-9-18-18-18H89c-9 0-18 9-18 18v707c-21 13-35 36-35 61 0 40 31 72 71 72s72-32 72-72z m821-36V246c0-21-13-29-29-37-63-34-133-65-206-65-103 0-152 78-273 78-89 0-182-40-259-81-6-4-12-5-19-5-19 0-35 16-35 35v415c0 13 6 22 17 30 13 9 29 17 44 24 70 36 156 67 235 67 88 0 156-29 234-65 15-8 32-11 49-11 87 0 182 76 206 76 20 0 36-16 36-36z" horiz-adv-x="1000"/>
      <glyph glyph-name="flickr" unicode="&#xF090;" d="M696 779c89 0 161-72 161-161V82c0-89-72-161-161-161H161C72-79 0-7 0 82v536c0 89 72 161 161 161h535zM389 350c1 65-53 118-118 118s-118-53-118-118 53-118 118-118 118 53 118 118z m315 0c0 65-53 118-118 118s-118-53-118-118 53-118 118-118 118 53 118 118z" horiz-adv-x="857.1"/>
      <glyph glyph-name="folder-open" unicode="&#xF094;" d="M1049 319c-1-14-9-27-18-37L844 61C811 23 745-7 696-7H89C69-7 41-1 41 24c0 14 8 27 17 37l187 221c33 38 99 68 148 68h607c20 0 49-6 49-31zM857 511v-90H393c-70 0-156-39-202-93L3 107l-2-3c0 4-1 9-1 14v536c0 68 56 125 125 125h179c68 0 125-57 125-125v-18h303c69 0 125-57 125-125z" horiz-adv-x="1071.4"/>
      <glyph glyph-name="font" unicode="&#xF095;" d="M405 538l-95-251c55-1 110-2 165-2 11 0 22 0 32 1-29 85-63 171-102 252zM0-79l1 44c53 17 110 5 133 66l132 344 156 404h72c2-4 4-8 6-12l114-268c42-99 81-199 123-297 25-58 45-118 73-175 4-9 11-25 19-31 19-15 70-18 96-28 2-11 4-22 4-32 0-5-1-10-1-15-71 0-142 9-213 9-73 0-146-6-219-8 0 14 1 29 2 43l73 16c15 3 45 7 45 28 0 20-72 186-81 209l-251 1c-14-33-71-179-71-200 0-43 82-45 114-49 1-11 1-21 1-32 0-5-1-10-1-16-65 0-131 12-195 12-8 0-19-4-27-5-35-6-70-8-105-8z" horiz-adv-x="928.6"/>
      <glyph glyph-name="forward" unicode="&#xF097;" d="M25-71C11-85 0-80 0-61v822c0 19 11 24 25 10l396-396c4-3 6-7 8-10v396c0 19 11 24 25 10l396-396c14-14 14-36 0-50L454-71c-14-14-25-9-25 10v397c-2-4-4-8-8-11z" horiz-adv-x="928.6"/>
      <glyph glyph-name="foursquare" unicode="&#xF098;" d="M558 608l21 108c4 18-10 32-25 32H157c-18 0-30-16-30-30V103c0-1 1-2 3 0 146 176 162 196 162 196 17 20 24 23 48 23h134c18 0 29 16 31 25s17 90 20 106-12 33-27 33H334c-21 0-37 16-37 37v24c0 22 16 37 37 37h193c14 0 29 12 31 24z m127 124c-21-101-83-418-88-441-7-26-17-72-81-72H365c-6 0-7 0-12-6 0 0-4-4-238-275-18-22-49-18-60-13S25-57 25-21v787c0 33 20 84 88 84h495c73 0 92-41 77-118z m0 0l-88-441c5 23 67 340 88 441z" horiz-adv-x="714.3"/>
      <glyph glyph-name="gamepad" unicode="&#xF09B;" d="M464 243v71c0 10-7 18-18 18H339v107c0 10-7 18-18 18h-71c-10 0-18-8-18-18V332H125c-10 0-18-8-18-18v-71c0-10 8-18 18-18h107V118c0-10 8-18 18-18h71c11 0 18 8 18 18v107h107c11 0 18 8 18 18z m322-36c0 40-32 72-72 72s-71-32-71-72 32-71 71-71 72 31 72 71z m143 143c0 40-32 71-72 71s-71-31-71-71 32-71 71-71 72 31 72 71z m142-71C1071 121 944-7 786-7c-73 0-139 27-189 71H474C424 20 358-7 286-7 128-7 0 121 0 279s128 285 286 285h500c158 0 285-128 285-285z" horiz-adv-x="1071.4"/>
      <glyph glyph-name="gbp" unicode="&#xF09C;" d="M569 216V11c0-10-8-18-18-18H18C8-7 0 1 0 11v83c0 10 8 18 18 18h54v214H19c-10 0-18 8-18 18v73c0 10 8 18 18 18h53v124c0 127 103 220 244 220 112 0 184-67 187-70 7-6 8-17 2-24l-57-71c-4-4-8-6-13-7-4 0-9 1-13 4 0 1-48 39-104 39-63 0-106-38-106-95V435h170c10 0 18-8 18-18v-73c0-10-8-18-18-18H212V114l231 1v101c0 10 8 17 18 17h90c10 0 18-7 18-17z" horiz-adv-x="571.4"/>
      <glyph glyph-name="gift" unicode="&#xF09D;" d="M518 93v400H339V93c0-19 16-29 36-29h107c20 0 36 10 36 29zM263 564h109l-70 90c-6 7-20 17-39 17-29 0-53-24-53-53s24-54 53-54z m384 54c0 29-24 53-53 53-19 0-33-10-39-17l-70-90h109c29 0 53 24 53 54z m210-143V296c0-10-8-17-18-17h-53V46c0-29-24-53-54-53H125C95-7 71 17 71 46v233H18c-10 0-18 7-18 17v179c0 10 8 18 18 18h245c-69 0-125 56-125 125s56 125 125 125c38 0 72-16 94-43l72-92 71 92c22 27 56 43 94 43 69 0 125-56 125-125s-56-125-125-125h245c10 0 18-8 18-18z" horiz-adv-x="857.1"/>
      <glyph glyph-name="github-alt" unicode="&#xF09E;" d="M357 171c0-40-21-107-71-107s-72 67-72 107 22 108 72 108 71-67 71-108z m357 0c0-40-21-107-71-107s-72 67-72 107 22 108 72 108 71-67 71-108z m90 0c0 86-52 161-143 161-37 0-72-7-109-12-29-4-58-6-88-6s-58 2-87 6c-37 5-72 12-109 12-91 0-143-75-143-161C125 1 281-26 417-26h94c136 0 293 27 293 197z m125 99c0-62-7-128-35-185C821-64 618-79 473-79 326-79 111-66 35 85 6 141 0 208 0 270c0 81 22 158 76 221-10 30-15 63-15 94 0 42 9 84 28 122 88 0 145-38 212-91 56 14 114 20 172 20 53 0 106-6 156-18 67 52 123 89 210 89 19-38 29-80 29-121 0-32-5-64-15-94 53-63 76-141 76-222z" horiz-adv-x="928.6"/>
      <glyph glyph-name="github" unicode="&#xF0A0;" d="M857 350C857 161 734 0 564-57c-22-4-29 10-29 21V82c0 40-13 65-29 79 96 10 196 47 196 211 0 47-17 86-44 115 4 11 19 55-5 114-35 11-117-44-117-44-34 10-71 15-107 15s-73-6-108-15c0 0-82 55-118 44-23-59-8-103-4-114-27-29-44-68-44-115 0-164 100-201 195-211-12-11-23-30-27-58-24-11-87-30-124 36-24 41-66 44-66 44-42 1-3-26-3-26 28-13 48-63 48-63 25-76 144-50 144-50 0-36 1-70 1-80-1-11-8-25-30-21C123 0 0 161 0 350c0 237 192 429 429 429s428-192 428-429z" horiz-adv-x="857.1"/>
      <glyph glyph-name="glass" unicode="&#xF0A2;" d="M948 746c0-16-13-32-24-43L571 350V-79h179c20 0 36-16 36-35s-16-36-36-36H250c-19 0-36 16-36 36s17 35 36 35h179v429L76 703c-11 11-24 27-24 43 0 28 35 33 55 33h786c21 0 55-5 55-33z" horiz-adv-x="1000"/>
      <glyph glyph-name="globe" unicode="&#xF0A3;" d="M429 779c236 0 428-192 428-429S665-79 429-79 0 113 0 350s192 429 429 429z m153-291c-5-3-8-10-13-11 2 1 5 11 7 13 3 4 8 6 12 8 10 4 19 5 29 7s21 2 29-6c-2 2 11 13 13 14 5 3 13 2 17 7 1 1 1 12 1 12-10-1-13 8-14 15 0 0-1-2-3-4 1 9-10 2-14 3-13 4-11 13-15 22-2 5-8 7-11 12-2 3-3 10-8 11-3 1-9-12-10-11-6 3-8-1-12-3-3-3-6-2-9-3 10 3-5 9-10 8 8 2 4 10 0 14h3c-2 5-17 10-22 13s-32 9-38 5c-6-3 2-15 2-20 1-7-7-9-7-14 0-10 18-8 14-21-3-8-14-9-18-15s1-16 5-20c5-3-8-9-9-10-10-4-17 9-19 18-2 6-3 13-9 17-4 1-14 2-16-1-4 8-16 12-23 15-12 3-21 3-33 2 4 0-1 18-10 15 2 5 1 12 2 17 2 5 4 9 7 13 1 2 14 15 10 16 9-1 20-2 28 6 5 5 7 13 12 19 7 8 16-3 24-3 11-1 10 12 4 17 8 0 1 13-3 15-5 1-23-4-13-8-3 2-16-26-24-12-2 2-3 14-8 15-5 0-8-5-9-9 3 8-16 13-20 13 9 6 2 12-4 15-5 3-19 5-23 1-10-13 12-15 17-18 2-1 9-5 5-8-4-1-14-4-15-6-3-6 4-11-1-16-5 5-5 13-9 19 5-6-20-3-19-3-9 0-22-6-28 3-1 2-1 15 2 12-5 4-8 8-12 10-18-6-35-14-52-23 2 0 4 0 6 1 5 1 9 4 13 6 6 3 18 10 24 5 0 1 2 2 3 2 3-4 7-9 11-14-5 3-12 1-17 1-4-1-11-2-12-7 1-3 4-7 2-10-7 5-12 14-22 15-5 0-9 0-13-1-53-29-98-72-131-124 2-2 5-4 7-4 5-2 0-18 10-10 4-3 4-6 2-10 1 0 23-14 25-15 4-4 10-8 11-12 2-4-2-8-5-10-1 1-9 9-10 7-2-3 0-18 6-17-9-1-5-35-7-42 0-1 1-1 1-1-2-6 4-33 15-30-7-2 13-27 15-29 8-5 16-8 21-15 6-8 6-20 14-26-3-7 11-15 11-24-1-1-2-1-3-1 3-8 13-8 17-15 2-5 0-15 7-13 2 12-7 24-13 34-3 6-7 11-9 17-3 5-4 11-6 16 2 0 14-5 13-6-4-12 18-31 24-38 2-2 15-19 8-19 7 0 17-11 21-16 5-9 4-19 7-28 3-12 19-17 28-22 8-3 14-9 22-12 12-4 15 0 25 1 14 3 16-14 28-20 7-4 23-9 30-6-3-1 12-24 13-26 5-6 15-10 20-16 2 1 4 2 4 5-2-6 9-18 14-17 6 1 8 13 8 18-11-6-21-1-27 10-1 3-10 18-3 18 11 0 4 9 3 16s-9 13-13 20c-3-7-15-5-18 1 0-2-2-5-2-7-2 0-5-1-8 0 1 7 2 15 3 23 3 10 22 29-2 28-9 0-12-4-15-11s-2-13-9-16c-5-2-22-1-27 1-11 7-18 26-18 37-1 15 7 29 0 43 3 3 7 8 10 11 4 2 8-2 9 5-1 1-3 3-4 3 8-4 24 6 31 0 5-3 10-4 12 1 1 2-3 9-1 13 1-9 8-11 16-5 3-3 12-2 18-5 7-4 8-10 15-2 4-7 5-7 7-13 1-7 5-22 10-25 12-7 9 12 8 19-1 1-1 19-1 19-18 4-11 18-1 27 1 1 14 6 20 10 5 5 11 13 8 20 3 0 5 2 6 5-1 0-8 6-9 5 4 3 3 6 1 9 6 4 3 10 8 12 7-8 19 1 13 8 5 8 18 4 21 11 9-2 3 9 7 15 4 5 11 5 16 7 0 0 14 8 9 9 10-1 29 9 14 17 2 5-5 7-10 9 4 1 9-2 12 1 8 5 3 7-3 9-8 2-18-3-24-7zM490-2c77 14 145 52 196 106-3 3-9 2-14 4-4 2-7 4-13 5 1 11-11 15-19 21-7 5-12 11-22 9-1-1-12-4-10-7-8 6-11 10-20 13-9 2-15 14-24 4-5-5-3-12-5-16-7 6 7 13 1 20-6 8-18-5-24-8-3-3-7-4-9-8-3-4-4-9-6-12-2 4-11 3-12 6 2-13 2-27 5-41 2-7 0-20-7-26s-15-13-16-23c-1-6 1-12 7-14 0-9-9-15-9-24 0 0 1-6 2-9z" horiz-adv-x="857.1"/>
      <glyph glyph-name="google-plus" unicode="&#xF0A5;" d="M410 406c0-74 173-98 173-256 0-34-10-67-27-96C498-44 378-79 272-79 188-79 85-57 39 21 25 43 18 69 18 94c0 64 39 116 91 148 65 41 150 51 225 56-19 26-35 49-35 82 0 18 5 32 12 48-13-1-25-3-38-3-109 0-196 80-196 191 0 61 29 121 75 162 61 51 146 72 224 72h233l-77-49h-73c52-44 83-93 83-164 0-144-132-160-132-231z m-81 53c28 0 60 14 80 34 23 24 30 56 30 89 0 82-49 222-149 222-32 0-64-15-83-40-20-25-26-58-26-89 0-84 47-216 148-216z m1-487c82 0 173 35 173 131 0 75-74 121-129 160-9 1-17 1-26 1-91 0-226-29-226-144C122 11 239-28 330-28z m452 489h119v-60H782V279h-59v122H605v60h118v121h59V461z" horiz-adv-x="928.6"/>
      <glyph glyph-name="headphones" unicode="&#xF0AD;" d="M929 356c0-61-12-120-34-176l-11-27-103-18C764 74 709 29 643 29V11c0-10-8-18-18-18h-36c-10 0-18 8-18 18v321c0 10 8 18 18 18h36c10 0 18-8 18-18v-18c53 0 100-29 124-73l38 7c11 35 16 70 16 108 0 168-166 315-357 315S107 524 107 356c0-38 6-73 16-108l38-7c25 44 71 73 125 73v18c0 10 7 18 18 18h35c10 0 18-8 18-18V11c0-10-8-18-18-18h-35c-11 0-18 8-18 18v18c-67 0-122 45-138 106L45 153l-12 27C11 236 0 295 0 356c0 229 213 423 464 423s465-194 465-423z" horiz-adv-x="928.6"/>
      <glyph glyph-name="heart" unicode="&#xF0AF;" d="M500-79c-9 0-18 4-25 10L127 268C123 271 0 383 0 517c0 164 100 262 267 262 97 0 189-77 233-121 44 44 136 121 233 121 167 0 267-98 267-262 0-134-123-246-128-251L525-69c-7-6-16-10-25-10z" horiz-adv-x="1000"/>
      <glyph glyph-name="home" unicode="&#xF0B0;" d="M786 296V29c0-20-16-36-36-36H536v214H393V-7H179c-20 0-36 16-36 36v267c0 1 0 3 0 4l321 264 321-264c1-1 1-3 1-4z m124 39l-34-41c-3-4-8-6-12-7h-2c-4 0-8 2-12 4L464 613 78 291c-4-2-8-4-13-4-5 1-9 3-12 7l-35 41c-6 7-5 19 3 25l401 334c23 20 61 20 85 0l136-114v109c0 10 8 18 18 18h107c10 0 18-8 18-18V462l122-102c7-6 8-18 2-25z" horiz-adv-x="928.6"/>
      <glyph glyph-name="html5" unicode="&#xF0B2;" d="M631 517l9 97-494 1 26-299 342 1-12-128-110-29-110 29-7 78h-98l13-155 202-56h2v1l200 55 28 304H263l-9 101h377zM0 779h786L714-24l-322-90L71-24z" horiz-adv-x="785.7"/>
      <glyph glyph-name="inbox" unicode="&#xF0B3;" d="M571 314h176c-1 3-1 6-3 9L626 600H231L113 323c-1-3-2-6-3-9h176l53-107h179z m286-17V29c0-20-16-36-36-36H36C16-7 0 9 0 29v268c0 21 6 50 14 69l133 308c8 19 30 33 49 33h465c19 0 42-14 49-33l133-308c8-19 14-48 14-69z" horiz-adv-x="857.1"/>
      <glyph glyph-name="info" unicode="&#xF0B7;" d="M357 100V29c0-20-16-36-36-36H36C16-7 0 9 0 29v71c0 20 16 36 36 36h35v214H36c-20 0-36 16-36 36v71c0 20 16 36 36 36h214c20 0 36-16 36-36V136h35c20 0 36-16 36-36z m-71 643V636c0-20-16-36-36-36H107c-19 0-36 16-36 36v107c0 19 17 36 36 36h143c20 0 36-17 36-36z" horiz-adv-x="357.1"/>
      <glyph glyph-name="inr" unicode="&#xF0B8;" d="M501 588v-57c0-10-8-18-18-18h-93c-18-107-100-177-227-192 84-89 172-196 257-299 4-5 5-13 2-19s-9-10-16-10H297c-6 0-11 2-14 7C193 107 111 206 5 318c-3 4-5 8-5 13v70c0 10 8 18 18 18h62c99 0 160 33 176 94H18c-10 0-18 8-18 18v57c0 10 8 18 18 18h230c-21 41-71 63-149 63H18c-10 0-18 8-18 18v74c0 10 8 18 18 18h464c10 0 18-8 18-18v-57c0-10-8-18-18-18H352c18-23 30-50 36-80h95c10 0 18-8 18-18z" horiz-adv-x="501.1"/>
      <glyph glyph-name="instagram" unicode="&#xF0B9;" d="M760 54v362h-75c7-23 11-48 11-73 0-143-119-259-267-259-147 0-266 116-266 259 0 25 4 50 11 73H95V54c0-19 16-34 35-34h596c19 0 34 15 34 34zM602 352c0 92-77 167-173 167-95-1-172-75-172-167s77-167 172-167c96 0 173 75 173 167z m158 201v92c0 21-17 38-39 38h-97c-21 0-38-17-38-38v-92c0-22 17-39 38-39h97c22 0 39 17 39 39z m97 116V31c0-60-49-110-110-110H110C50-79 0-29 0 31v638c0 60 50 110 110 110h637c61 0 110-50 110-110z" horiz-adv-x="857.1"/>
      <glyph glyph-name="italic" unicode="&#xF0BA;" d="M0-78l10 48C45-19 84-14 117 3c13 16 19 37 23 56 7 38 129 586 127 630v14c-30 17-68 12-101 18l10 58c72-4 145-9 218-9 59 0 118 5 177 9-2-17-6-34-10-50-39-14-79-20-117-35-13-30-15-63-21-95-27-144-63-289-92-432-6-27-33-138-31-161l1-10c34-8 68-12 103-18-1-18-4-37-9-55-12 0-24-2-36-2-32 0-65 11-97 12-38 0-77 1-115 1-49 0-98-9-147-12z" horiz-adv-x="571.4"/>
      <glyph glyph-name="jpy" unicode="&#xF0BB;" d="M337-7h-97c-10 0-17 8-17 18v184H62c-10 0-18 8-18 18v57c0 10 8 18 18 18h161v47H62c-10 0-18 8-18 18v58c0 10 8 18 18 18h119L2 752c-3 5-3 12 0 18 4 5 10 9 16 9h108c7 0 13-4 16-11l120-237c14-26 23-48 31-69 10 24 22 47 33 72l106 234c3 7 10 11 17 11h106c6 0 12-4 15-9 4-5 4-12 1-18L396 429h120c10 0 18-8 18-18v-58c0-10-8-18-18-18H354v-47h162c10 0 18-8 18-18v-57c0-10-8-18-18-18H354V11c0-10-8-18-18-18z" horiz-adv-x="573.1"/>
      <glyph glyph-name="key" unicode="&#xF0BC;" d="M464 564c0 59-48 107-107 107s-107-48-107-107c0-16 4-32 11-46-15 7-30 11-47 11-59 0-107-48-107-108s48-107 107-107 107 48 107 107c0 17-4 32-10 47 14-7 30-11 46-11 59 0 107 48 107 107z m475-393c0-12-51-64-64-64-15 0-60 53-71 64l-54-53L873-5c10-10 15-24 15-38 0-31-35-67-67-67-14 0-28 6-38 16L410 280c-59-43-130-73-204-73C84 207 0 291 0 412c0 183 183 367 366 367 121 0 205-84 205-206 0-73-29-145-73-204l198-198 54 54c-12 12-64 57-64 71 0 13 51 65 64 65 5 0 10-3 13-6 21-21 176-167 176-184z" horiz-adv-x="1000"/>
      <glyph glyph-name="krw" unicode="&#xF0BE;" d="M287 183l45 167h-89l42-167c1-2 1-3 1-4 0 1 1 3 1 4z m65 238l19 72H208l18-72h126z m107 0h77l-19 72h-39z m250-238l44 167h-91l46-167c0-2 0-3 1-4 0 1 0 2 0 4z m62 238l19 72H624l19-72h128z m229-17v-36c0-10-8-18-18-18H863L772 6c-2-8-10-13-17-13h-89c-8 0-15 5-18 13l-92 344H439L346 6c-2-8-9-13-17-13h-89c-8 0-15 5-17 13l-89 344H18c-10 0-18 8-18 18v36c0 10 8 17 18 17h98l-19 72H18c-10 0-18 8-18 18v35c0 11 8 18 18 18h61L29 756c-2 6 0 11 3 16 3 4 9 7 14 7h77c8 0 15-6 17-14l50-201h201l54 201c2 8 9 14 17 14h70c9 0 15-6 18-14l54-201h204l52 201c2 8 9 14 17 14h77c5 0 11-3 14-7 4-5 5-11 3-16l-51-192h62c10 0 18-7 18-18v-35c0-10-8-18-18-18h-81l-19-72h100c10 0 18-7 18-17z" horiz-adv-x="1000"/>
      <glyph glyph-name="laptop" unicode="&#xF0C0;" d="M232 136c-49 0-89 40-89 89v393c0 49 40 89 89 89h607c49 0 90-40 90-89V225c0-49-41-89-90-89H232z m-18 482V225c0-9 9-18 18-18h607c10 0 18 9 18 18v393c0 9-8 18-18 18H232c-9 0-18-9-18-18z m768-518h89V46c0-29-40-53-89-53H89C40-7 0 17 0 46v54h982zM580 46c5 0 9 4 9 9s-4 9-9 9h-89c-5 0-9-4-9-9s4-9 9-9h89z" horiz-adv-x="1071.4"/>
      <glyph glyph-name="leaf" unicode="&#xF0C1;" d="M714 457c0 20-16 36-35 36-198 0-325-83-454-225-7-7-11-15-11-25 0-20 16-36 36-36 10 0 18 4 25 11 27 24 52 51 79 76 101 91 187 127 325 127 19 0 35 17 35 36z m286 111c0-36-4-72-11-108-36-174-148-286-303-363-75-38-159-61-244-61-54 0-109 9-160 27-26 9-80 44-102 44C152 107 118-7 70-7 35-7 24 10 9 36c-5 9-9 13-9 24 0 58 110 104 110 136 0 5-14 35-16 46-4 19-5 38-5 58 0 177 141 304 299 356 115 38 358-6 436 68 30 28 45 55 92 55 63 0 84-164 84-211z" horiz-adv-x="1000"/>
      <glyph glyph-name="level-down" unicode="&#xF0C4;" d="M18 707h393c10 0 18-8 18-18V207h107c14 0 26-8 32-20 6-13 4-28-5-39L384-66c-13-16-41-16-54 0L151 148c-9 11-10 26-5 39 6 12 19 20 33 20h107v357H107c-5 0-10 2-14 6L4 678c-5 5-5 12-2 19s9 10 16 10z" horiz-adv-x="571.4"/>
      <glyph glyph-name="level-up" unicode="&#xF0C5;" d="M568 514c-6-13-18-21-32-21H429V11c0-10-8-18-18-18H18C11-7 5-3 2 3c-3 7-3 14 2 19l89 108c4 3 9 6 14 6h179v357H179c-14 0-27 8-33 20-5 13-4 28 5 39l179 214c13 16 41 16 55 0l178-214c9-11 11-26 5-39z" horiz-adv-x="571.4"/>
      <glyph glyph-name="link" unicode="&#xF0C7;" d="M813 171c-1 15-6 28-16 38L681 325c-10 10-24 16-38 16-16 0-29-6-40-18 18-18 40-34 40-62 0-30-24-54-54-54-28 0-44 22-62 40-12-11-19-24-19-40 0-14 6-28 16-38L639 53c10-10 24-15 38-15s28 5 38 15l82 81c10 10 15 24 15 37zM420 565c0 14-5 28-15 38L290 718c-10 10-24 16-38 16s-28-6-38-15l-82-82c-10-10-16-23-16-37 0-15 6-28 16-38l116-116c10-10 24-15 38-15 16 0 29 5 40 17-19 19-40 34-40 63s24 53 53 53 44-22 63-40c11 11 18 24 18 41z m500-394c0-42-18-83-48-113l-82-81c-30-31-71-47-113-47-43 0-84 17-114 48L448 93c-30 30-46 71-46 114 0 44 18 85 49 116l-49 49c-31-31-72-49-116-49-43 0-84 17-114 47L56 486C25 517 9 557 9 600c0 42 17 84 47 113l82 82c31 30 71 46 114 46s83-17 114-47l115-116c30-30 46-71 46-113 0-44-18-86-49-117l49-49c31 31 72 49 116 49 42 0 84-17 114-47l116-116c31-30 47-71 47-114z" horiz-adv-x="928.6"/>
      <glyph glyph-name="linkedin" unicode="&#xF0C9;" d="M195 501V-52H11v553h184z m12 171c0-53-40-95-104-95h-1C40 577 0 619 0 672c0 54 41 95 104 95s102-41 103-95z m650-407V-52H674l-1 296c1 74-26 125-93 125-50 0-81-34-94-67-4-12-6-29-6-45V-52H296c2 501 0 553 0 553h184v-80h-1c24 38 67 93 167 93 121 0 211-79 211-249z" horiz-adv-x="857.1"/>
      <glyph glyph-name="linux" unicode="&#xF0CA;" d="M370 621c-11-1-7-11-13-11-6-1-5 12 13 11z m49-8c-6-2-7 9-17 6 17 7 22-4 17-6zM223 375c-5 1-4-9-9-17-4-7-14-12-6-14 2 0 10 7 13 14 3 10 6 15 2 17z m477-201c0 10-22 20-31 24 15 50 8 70-2 117-7 36-40 85-66 100 7-6 19-22 32-47 22-41 44-103 30-155-6-20-19-23-28-23-39-5-16 47-32 117-19 78-38 83-42 89-23 102-48 92-55 130-7 34 29 62-19 71-16 3-37 18-45 19s-13 57 18 58c31 3 37-34 31-49-9-14 1-20 16-15 12 4 4 36 7 41-8 47-27 53-48 57-77-6-42-91-50-83-11 12-43 1-43 9 0 43-14 68-34 69-23 0-32-31-33-49-1-17 10-52 18-49 6 2 15 13 5 12-5 0-13 13-14 27 0 15 5 29 24 28 22 0 22-44 20-45-7-5-16-15-18-16-7-12-21-16-26-21-10-10-12-21-5-25 26-14 18-31 53-32 24-1 41 3 57 8 12 4 52 13 60 27 4 6 9 6 12 5 5-3 6-14-8-17-19-6-39-16-57-23-17-7-22-10-39-13-36-7-64 14-39-10 8-8 16-13 37-13 47 2 99 58 104 33 1-5-15-12-27-18-43-21-74-64-102-49-25 13-50 75-50 47 1-43-56-81-30-130-17-4-56-86-61-129-4-24 2-55-4-71-8-25-46 23-34 82 2 10 0 12-3 7-15-27-7-66 6-93 5-11 18-16 27-26 20-23 97-80 110-94 17-16 12-54-24-58 19-34 37-38 36-94 21 11 13 36 4 51-6 12-14 17-12 19 1 2 12 12 18 4 19-21 55-25 93-20s80 18 99 49c9 14 15 19 19 16 4-2 6-12 5-29 0-17-8-36-13-51-5-17-6-29 10-29 5 31 14 62 16 93 3 35-23 101 5 134 7 9 16 10 29 10 1 45 70 42 93 23zM349 636c3 14-4 24-8 25-6 2-5-8-2-7 2 0 5-4 4-9-1-6 0-11 5-11 0 0 1 0 1 2z m234-110c-2 10-10 7-19 12-10 7-13 18-17 14-11-13 15-40 26-42 7-1 12 8 10 16z m-99 119c0 13-11 20-14 19-7 0-5-4-2-5 5-1 9-9 10-17 0-1 6 1 6 3z m30 130c0 3-7 6-12 10-4 4-9 8-13 8-11-1-6-13-7-18-3-6-11-11-5-16 5-4 8 6 18 10 3 1 16 0 19 6zM829 26c69-42-25-77-66-98-32-16-74-52-90-67-12-11-60-17-88-3-31 17-15 42-64 44-24 1-48 1-72 1-22-1-43-2-65-3-73-1-80-49-128-47-32 1-73 27-143 41C64-96 16-93 6-71S18-25 20-4c2 29-21 67-4 82 14 13 45 3 65 14 21 13 30 22 30 48 8-27-1-48-18-59-10-7-30-10-46-8-13 1-21-1-24-6-5-6-4-17 3-32S39 11 38-7c-1-17-21-39-17-54 1-5 6-10 20-14 23-6 63-12 103-22 44-11 90-31 118-27 85 11 36 102 23 124-72 113-119 187-157 158-10-8-10 19-10 29 2 37 20 50 32 79 21 54 37 116 69 148 24 31 62 82 69 108-6 58-7 120-8 173-2 58 7 108 72 143 16 9 36 12 58 12 39 1 82-11 109-31 43-32 71-101 67-150-2-38 5-78 17-119 15-49 38-83 74-122 44-47 79-139 89-197 9-55-3-89-15-91-18-3-29-59-85-57-35 2-39 23-49 42-16 28-32 19-38-11-4-15-1-37 4-54 10-35 6-68 0-109-12-77 54-92 98-55s53 42 108 61c83 29 55 54 11 69-41 13-42 81-28 93 4-72 42-83 57-93z" horiz-adv-x="857.1"/>
      <glyph glyph-name="list-alt" unicode="&#xF0CB;" d="M214 189v-35c0-10-8-18-18-18h-35c-10 0-18 8-18 18v35c0 10 8 18 18 18h35c10 0 18-8 18-18z m0 143v-36c0-9-8-17-18-17h-35c-10 0-18 8-18 17v36c0 10 8 18 18 18h35c10 0 18-8 18-18z m0 143v-36c0-9-8-18-18-18h-35c-10 0-18 9-18 18v36c0 10 8 18 18 18h35c10 0 18-9 18-18z m643-286v-35c0-10-8-18-18-18H304c-10 0-18 8-18 18v35c0 10 8 18 18 18h535c10 0 18-8 18-18z m0 143v-36c0-9-8-17-18-17H304c-10 0-18 8-18 17v36c0 10 8 18 18 18h535c10 0 18-8 18-18z m0 143v-36c0-9-8-18-18-18H304c-10 0-18 9-18 18v36c0 10 8 18 18 18h535c10 0 18-9 18-18z m72-393v464c0 10-9 18-18 18H89c-9 0-18-8-18-18V82c0-9 9-18 18-18h822c9 0 18 9 18 18z m71 607V82c0-49-40-89-89-89H89C40-7 0 33 0 82v607c0 49 40 90 89 90h822c49 0 89-41 89-90z" horiz-adv-x="1000"/>
      <glyph glyph-name="list" unicode="&#xF0CC;" d="M143 118V11c0-10-8-18-18-18H18C8-7 0 1 0 11v107c0 9 8 18 18 18h107c10 0 18-9 18-18z m0 214V225c0-10-8-18-18-18H18c-10 0-18 8-18 18v107c0 10 8 18 18 18h107c10 0 18-8 18-18z m0 214V439c0-9-8-18-18-18H18c-10 0-18 9-18 18v107c0 10 8 18 18 18h107c10 0 18-8 18-18z m857-428V11c0-10-8-18-18-18H232c-9 0-18 8-18 18v107c0 9 9 18 18 18h750c10 0 18-9 18-18zM143 761V654c0-10-9-18-18-18H18c-10 0-18 8-18 18v107c0 9 8 18 18 18h107c9 0 18-9 18-18z m857-429V225c0-10-8-18-18-18H232c-9 0-18 8-18 18v107c0 10 9 18 18 18h750c10 0 18-8 18-18z m0 214V439c0-9-8-18-18-18H232c-9 0-18 9-18 18v107c0 10 9 18 18 18h750c10 0 18-8 18-18z m0 215V654c0-10-8-18-18-18H232c-9 0-18 8-18 18v107c0 9 9 18 18 18h750c10 0 18-9 18-18z" horiz-adv-x="1000"/>
      <glyph glyph-name="location-arrow" unicode="&#xF0CD;" d="M782 655L425-59c-7-12-19-20-32-20-3 0-6 1-9 2-16 4-27 17-27 34v322H36c-17 0-31 11-35 27s4 33 18 40l715 357c5 3 10 4 16 4 10 0 18-3 25-10 11-11 14-28 7-42z" horiz-adv-x="785.7"/>
      <glyph glyph-name="lock" unicode="&#xF0CE;" d="M179 421h285v108c0 78-64 142-143 142s-142-64-142-142V421z m464-53V46c0-29-24-53-54-53H54C24-7 0 17 0 46v322c0 29 24 53 54 53h17v108c0 137 113 250 250 250s250-113 250-250V421h18c30 0 54-24 54-53z" horiz-adv-x="642.9"/>
      <glyph glyph-name="long-arrow-down" unicode="&#xF0CF;" d="M427 125c3-7 2-14-3-19L229-109c-4-3-8-5-13-5s-10 2-13 5L4 106c-4 5-5 12-2 19 2 6 9 11 16 11h125v696c0 10 8 18 18 18h107c10 0 18-8 18-18V136h125c7 0 13-4 16-11z" horiz-adv-x="428.6"/>
      <glyph glyph-name="long-arrow-left" unicode="&#xF0D0;" d="M1000 404V296c0-10-8-17-18-17H286V154c0-8-4-14-11-17s-14-1-19 3L41 336c-3 3-5 7-5 12s2 10 5 14l215 197c5 5 12 6 19 4 6-3 11-9 11-17V421h696c10 0 18-7 18-17z" horiz-adv-x="1000"/>
      <glyph glyph-name="long-arrow-right" unicode="&#xF0D1;" d="M964 352c0-5-2-10-5-14L744 141c-5-5-12-6-19-4-6 3-11 9-11 17v125H18c-10 0-18 7-18 17v108c0 10 8 17 18 17h696v125c0 8 4 14 11 17s14 1 19-3l215-195c3-4 5-8 5-13z" horiz-adv-x="1000"/>
      <glyph glyph-name="long-arrow-up" unicode="&#xF0D2;" d="M427 575c-3-6-9-11-16-11H286v-696c0-10-8-18-18-18H161c-10 0-18 8-18 18v696H18c-7 0-14 4-16 11s-2 14 2 19l196 215c3 3 8 5 13 5s10-2 13-5l198-215c5-5 6-12 3-19z" horiz-adv-x="428.6"/>
      <glyph glyph-name="magic" unicode="&#xF0D3;" d="M664 526l164 163-60 60-164-164z m250 163c-1-9-4-18-11-25L187-54c-7-6-16-10-25-10s-19 4-25 10L25 57c-7 7-10 16-10 25s3 19 10 25l718 718c6 7 15 10 25 10s18-3 25-10l111-111c6-6 10-15 10-25zM160 795l54-16-54-17-17-55-17 55-55 17 55 16 17 55z m195-90l109-34-109-33-34-109-33 109-109 33 109 34 33 109z m519-267l55-17-55-16-17-55-17 55-54 16 54 17 17 55zM517 795l54-16-54-17-17-55-17 55-54 17 54 16 17 55z" horiz-adv-x="928.6"/>
      <glyph glyph-name="magnet" unicode="&#xF0D4;" d="M857 386v-72C857 87 677-79 429-79S0 87 0 314v72c0 19 16 35 36 35h214c20 0 36-16 36-35v-72c0-102 119-107 143-107s142 5 142 107v72c0 19 17 35 36 35h214c20 0 36-16 36-35zM286 743V529c0-20-16-36-36-36H36c-20 0-36 16-36 36v214c0 19 16 36 36 36h214c20 0 36-17 36-36z m571 0V529c0-20-16-36-36-36H607c-19 0-36 16-36 36v214c0 19 17 36 36 36h214c20 0 36-17 36-36z" horiz-adv-x="857.1"/>
      <glyph glyph-name="male" unicode="&#xF0D5;" d="M571 457V225c0-30-24-54-53-54s-54 24-54 54v196h-35V-87c0-35-28-63-63-63s-62 28-62 63v258h-36V-87c0-35-28-63-63-63s-62 28-62 63v508h-36V225c0-30-24-54-53-54S0 195 0 225v232c0 59 48 107 107 107h357c59 0 107-48 107-107zM411 707c0-69-56-125-125-125s-125 56-125 125 55 125 125 125 125-56 125-125z" horiz-adv-x="571.4"/>
      <glyph glyph-name="map-marker" unicode="&#xF0D6;" d="M429 493c0 78-65 143-143 143s-143-64-143-143 64-143 143-143 143 64 143 143z m142 0c0-34-3-69-18-100L350-39c-12-25-37-40-64-40s-53 16-64 40L18 393C4 424 0 459 0 493c0 158 128 286 286 286s285-128 285-286z" horiz-adv-x="571.4"/>
      <glyph glyph-name="mars" unicode="&#xF0D7;" d="M556 750V613h122L543 478c-45 25-95 39-149 39-169 0-310-139-310-311s141-311 310-311S703 34 703 206c0 67-22 130-58 181l134 134V408h136v341H556zM394 379c98 0 174-78 174-173S492 34 394 34s-175 77-175 172 77 173 175 173z" horiz-adv-x="1000"/>
      <glyph glyph-name="matter" unicode="&#xF0D8;" d="M607 822c-112-1-218-29-322-68-38 10-75 20-110 1-2-30 10-55 20-80-61-125-84-263-50-419 63-28 126-48 190-60-71 2-131 26-189 47C67 142 67 23 66-93c-11-14-28-22-26-45 24-15 60-4 95 5 294-97 459-7 668 20 25-23 52-37 88-32-2 34-16 72-38 111 38 94 58 194 30 310-79-44-158-66-239-63 107 13 173 33 240 77 79 120 61 304 33 454 27 22 24 46 34 76-47-2-80-15-122-36-77 27-151 38-222 38z m86-197c5-76-1-157-21-225-113-12-218-37-364 0-5 120 22 173 51 225 105-34 212-9 334 0z m-196-59c-42-23-28-13-51-13-9 0-18 0-27 0-6 0-12 0-19 1-4 2-6 6-10 7l-40-27c4-1 6-4 10-6 6-3 13-3 20-3 9 0 18 0 27 0 8 0 17 0 25 0 34-1 19 31 51 0 3-5 6-9 11-13 4-2 8-5 13-6 8 1 15 6 22 8 7 3 14 4 21 4s14 0 21 2c8 2 15 6 23 10 5 1 12 5 18 3l1-1 42 24-2 3c-7 5-14 2-21 0-8-3-15-7-23-9-2-1-4-2-6-3-5-1-9 0-14 0-7-1-14-1-22-3-7-2-14-6-20-9-2 0-3-1-4-1-3 0-5 5-8 5-5 2-8 7-11 11-5 6-12 11-19 14-2 1-5 2-8 2z m33-131c5-6 10-11 17-13 8-2 16-2 24-2 8-1 16 1 24 4 19 7 38 15 51 30-33-11-64-33-13-1-7-3-15-5-23-5s-15 0-23 1c-7 2-12 6-17 12-31 37-19 0-40-26z m-22 11c8 20 0 2-12 18-6 4-12 4-19 4-8-1-16-2-24-6-6-3-13-4-20-3s-14 3-20 4c-8 2-15 5-23 8l-40-28c8-2 15-5 23-8 7-1 13-2 20-4 8-1 15-1 22 1 8 4 15 6 23 7 6 0 12 1 17-1 4-5 8-10 13-15 4-5 10-8 17-9 61 9 23 19 23 32z" horiz-adv-x="1000"/>
      <glyph glyph-name="maxcdn" unicode="&#xF0D9;" d="M974 419L882-7H696l99 464c5 20 2 38-8 49-10 12-26 19-47 19h-94L532-7H346l114 532H300L186-7H0l114 532-85 182h712c75 0 144-31 188-86 44-54 60-129 45-202z" horiz-adv-x="1000"/>
      <glyph glyph-name="medkit" unicode="&#xF0DA;" d="M714 225v107c0 10-8 18-18 18H571v125c0 10-7 18-17 18H446c-10 0-17-8-17-18V350H304c-10 0-18-8-18-18V225c0-10 8-18 18-18h125V82c0-10 7-18 17-18h108c10 0 17 8 17 18v125h125c10 0 18 8 18 18zM357 636h286v71H357v-71z m-214 0V-79h-18C56-79 0-22 0 46v465c0 68 56 125 125 125h18z m661 0V-79H196v715h90v89c0 30 24 54 53 54h322c29 0 53-24 53-54v-89h90z m196-125V46c0-68-56-125-125-125h-18v715h18c69 0 125-57 125-125z" horiz-adv-x="1000"/>
      <glyph glyph-name="microphone" unicode="&#xF0DD;" d="M643 457v-71c0-165-125-302-286-319V-7h143c20 0 36-16 36-36s-16-36-36-36H143c-20 0-36 17-36 36s16 36 36 36h143v74C125 84 0 221 0 386v71c0 20 16 36 36 36s35-16 35-36v-71c0-138 113-250 250-250s250 112 250 250v71c0 20 17 36 36 36s36-16 36-36zM500 671V386c0-98-80-179-179-179s-178 81-178 179v285c0 99 80 179 178 179s179-80 179-179z" horiz-adv-x="642.9"/>
      <glyph glyph-name="minus" unicode="&#xF0E0;" d="M786 439V332c0-29-24-53-54-53H54c-30 0-54 24-54 53v107c0 30 24 54 54 54h678c30 0 54-24 54-54z" horiz-adv-x="785.7"/>
      <glyph glyph-name="money" unicode="&#xF0E2;" d="M429 207h214v54h-72v250h-63l-83-77 43-44c14 11 22 18 31 31h1V261h-71v-54z m285 143c0-102-61-232-178-232S357 248 357 350s61 232 179 232 178-130 178-232z m286-143v286c-79 0-143 64-143 143H214c0-79-64-143-143-143V207c79 0 143-64 143-143h643c0 79 64 143 143 143z m71 464V29c0-20-16-36-35-36H36C16-7 0 9 0 29v642c0 20 16 36 36 36h1000c19 0 35-16 35-36z" horiz-adv-x="1071.4"/>
      <glyph glyph-name="mushroom" unicode="&#xF0E5;" d="M488 822C164 812-17 604 18 378c57-35 150-65 312-111s425-32 534 25c69 37 91 66 122 133-6 203-174 407-498 397zM359 709c3 0 7 0 10 0 59-3-28-103-64-138s-64-50-138-59c-50-6 24 105 60 141 34 33 84 56 132 56z m326-107c41 11 101-11 134-45 33-33 108-114 42-135-78-25-122 1-150 45-34 54-96 116-26 135zM273 458c4 0 8-2 12-3 8-1 19 3 25-3 12-12 11-35 3-50-10-18-42-33-53-33s-45 10-48 28c-4 28 32 52 59 61 1 0 1 0 2 0z m51-219c-43-77-72-91-74-161-1-89-10-184 66-228 97-43 344-51 357 83-4 50-3 103-29 145-30 50-52 80-60 130-86-3-173 11-260 31z" horiz-adv-x="1000"/>
      <glyph glyph-name="music" unicode="&#xF0E6;" d="M857 725V100C857 21 739-7 679-7S500 21 500 100s118 107 179 107c36 0 73-7 107-22v300L357 353V-43c0-78-118-107-178-107S0-121 0-43 118 64 179 64c36 0 73-6 107-21v539c0 24 15 44 38 52l464 142c5 2 10 3 16 3 29 0 53-24 53-54z" horiz-adv-x="857.1"/>
      <glyph glyph-name="no-mail" unicode="&#xF0E7;" d="M500 822C225 822 0 598 0 322s225-500 500-500 500 224 500 500-225 500-500 500z m0-93c225 0 406-182 406-407 0-121-52-230-137-304l-48 74h97v476H404l-80 121c54 26 113 40 176 40zM223 619l35-51h-67V92h381l92-141c-50-22-105-35-164-35C275-84 94 98 94 322c0 118 49 223 129 297z m87-119h395L500 314z m-56-31l225-219c11-11 31-11 43 0l234 211V154H254z" horiz-adv-x="1000"/>
      <glyph glyph-name="pause" unicode="&#xF0EF;" d="M857 743V-43c0-19-16-36-36-36H536c-20 0-36 17-36 36v786c0 19 16 36 36 36h285c20 0 36-17 36-36z m-500 0V-43c0-19-16-36-36-36H36C16-79 0-62 0-43v786c0 19 16 36 36 36h285c20 0 36-17 36-36z" horiz-adv-x="857.1"/>
      <glyph glyph-name="pencil" unicode="&#xF0F0;" d="M203-7l50 51-131 131-51-51V64h72V-7h60z m291 518c0 7-5 12-12 12-3 0-7-1-9-4L170 217c-3-3-4-7-4-10 0-7 5-12 13-12 3 0 6 1 9 4l303 302c2 3 3 6 3 10z m-30 107l232-232L232-79H0v233z m381-54c0-19-7-37-20-50l-93-93-232 233 93 92c12 13 31 21 50 21s37-8 51-21l131-131c13-13 20-32 20-51z" horiz-adv-x="857.1"/>
      <glyph glyph-name="phone" unicode="&#xF0F2;" d="M786 158c0-20-9-59-18-78-11-27-43-45-68-59C667 3 634-7 597-7c-52 0-99 21-147 38-34 13-67 28-97 47-95 58-210 173-268 268-19 30-34 63-46 97-18 48-39 94-39 146 0 38 11 71 29 104 13 25 31 57 59 68 18 9 57 18 77 18 4 0 8 0 12-2 12-4 24-31 30-43 17-31 35-64 53-95 9-14 26-32 26-50 0-34-101-83-101-113 0-16 14-35 22-48 56-102 126-172 228-229 13-8 33-21 48-21 30 0 80 101 114 101 17 0 35-17 49-26 32-19 64-36 96-54 11-5 38-18 42-29 2-4 2-8 2-12z" horiz-adv-x="785.7"/>
      <glyph glyph-name="pill" unicode="&#xF0F4;" d="M92 754C-26 640-21 499 54 423l264-263c159 73 285 167 330 346L373 784c-82 67-200 40-281-30z m169 11c135-23 317-251 317-251-1 1-181 186-294 225-48 17-153-14-153-14s76 49 130 40z m428-291c-63-194-193-281-336-347l267-265c60-55 185-65 292 49 100 107 121 198 29 312L690 474z" horiz-adv-x="1000"/>
      <glyph glyph-name="pinterest" unicode="&#xF0F6;" d="M857 350c0-237-192-429-428-429-43 0-83 7-122 18 16 26 35 59 43 92 0 0 6 19 31 117 14-28 58-53 104-53 138 0 232 125 232 294-1 127-108 246-272 246-203 0-306-147-306-268 0-74 28-140 88-164 9-4 18 0 21 11 2 7 6 26 9 34 2 11 1 14-6 24-18 21-29 47-29 84 0 108 81 206 211 206 115-1 179-71 179-165 0-124-55-228-137-228-44 0-78 37-67 83 13 54 38 112 38 152 0 35-19 64-58 64-46 0-83-47-83-111 0 0 0-40 14-68-47-198-55-233-55-233-8-32-8-69-7-99C106 24 0 174 0 350c0 237 192 429 429 429s428-192 428-429z" horiz-adv-x="857.1"/>
      <glyph glyph-name="plane" unicode="&#xF0F7;" d="M768 761c36-36 0-125-54-179l-90-90 90-388c1-7-1-14-7-18l-71-54c-3-2-7-3-11-3-1 0-2 0-4 0-5 1-9 4-12 9L454 322 309 177l30-108c1-6 0-12-5-17L281-3c-4-4-9-5-13-5h-1c-6 0-10 3-14 7L148 141 7 246c-4 3-6 8-7 13s2 10 5 14l54 54c3 4 8 5 12 5 2 0 4 0 5 0l108-30 145 145L45 602c-5 3-8 8-9 14-1 5 1 11 5 15l71 71c5 4 11 6 17 5l371-89 89 89c54 54 143 89 179 54z" horiz-adv-x="785.7"/>
      <glyph glyph-name="play-circle" unicode="&#xF0F8;" d="M429 779c236 0 428-192 428-429S665-79 429-79 0 113 0 350s192 429 429 429z m214-460c11 6 18 18 18 31s-7 25-18 31L339 559c-10 7-24 7-35 1-12-7-18-19-18-31V171c0-12 6-24 18-31 5-3 11-4 17-4s13 1 18 5z" horiz-adv-x="857.1"/>
      <glyph glyph-name="play" unicode="&#xF0FA;" d="M772 333L31-79C14-89 0-80 0-61v822c0 19 14 28 31 18l741-412c18-9 18-25 0-34z" horiz-adv-x="785.7"/>
      <glyph glyph-name="plus" unicode="&#xF0FD;" d="M786 439V332c0-29-24-53-54-53H500V46c0-29-24-53-54-53H339c-29 0-53 24-53 53v233H54c-30 0-54 24-54 53v107c0 30 24 54 54 54h232v232c0 30 24 54 53 54h107c30 0 54-24 54-54V493h232c30 0 54-24 54-54z" horiz-adv-x="785.7"/>
      <glyph glyph-name="print" unicode="&#xF0FE;" d="M214-7h500v143H214V-7z m0 357h500v214h-89c-30 0-54 24-54 54v89H214V350z m643-36c0 20-16 36-36 36s-35-16-35-36 16-35 35-35 36 16 36 35z m72 0V82c0-9-9-18-18-18H786v-89c0-30-24-54-54-54H196c-29 0-53 24-53 54v89H18C8 64 0 73 0 82v232c0 59 48 107 107 107h36v304c0 30 24 54 53 54h375c30 0 71-17 92-38l85-85c21-21 38-62 38-92V421h35c59 0 108-48 108-107z" horiz-adv-x="928.6"/>
      <glyph glyph-name="puzzle-piece" unicode="&#xF100;" d="M929 237c0-57-33-105-94-105-68 0-86 62-147 62-45 0-62-28-62-69 0-44 18-86 17-129v-3c-6 0-12 0-18 0-58-6-116-17-174-17-39 0-81 16-81 61 1 62 63 80 63 148-1 61-49 94-106 94-59 0-113-33-113-97 0-71 54-102 54-140 0-20-12-37-25-50-18-16-42-19-65-19-46 0-92 6-137 13-10 2-21 3-31 5L3-8C2-8 0-8 0-7v571c2-1 35-5 41-6 45-8 91-14 137-14 23 0 47 3 65 20 13 13 25 30 25 49 0 39-54 70-54 140 0 65 54 97 114 97 57 0 105-33 105-94-1-68-63-86-63-147 1-46 42-62 82-62 64 1 127 15 191 18v-1c-2-2-6-35-7-41-7-45-13-90-13-136 0-24 3-48 19-65 13-14 30-26 50-26 39 0 69 54 140 54 64 0 97-54 97-113z" horiz-adv-x="928.6"/>
      <glyph glyph-name="qrcode" unicode="&#xF101;" d="M214 207v-71h-71v71h71z m0 429v-72h-71v72h71z m429 0v-72h-72v72h72zM71 65h215v214H71V65z m0 428h215v214H71V493z m429 0h214v214H500V493zM357 350V-7H0v357h357zM643 64V-7h-72v71h72z m143 0V-7h-72v71h72z m0 286V136H571v71h-71V-7h-71v357h214v-71h71v71h72zM357 779V421H0v358h357z m429 0V421H429v358h357z" horiz-adv-x="785.7"/>
      <glyph glyph-name="question" unicode="&#xF103;" d="M393 149V15c0-12-10-22-23-22H238c-13 0-23 10-23 22v134c0 12 10 22 23 22h134c12 0 22-10 22-22z m176 335c0-106-72-147-125-176-33-19-53-58-53-74 0-12-10-27-23-27H234c-12 0-20 19-20 31v26c0 67 67 125 116 147 43 20 61 38 61 74 0 31-41 59-86 59-25 0-48-8-60-16-13-9-27-23-60-64-4-6-11-9-17-9-5 0-10 2-14 4l-92 70c-9 7-11 20-5 30 60 100 145 148 259 148 119 0 253-95 253-223z" horiz-adv-x="571.4"/>
      <glyph glyph-name="quote-left" unicode="&#xF104;" d="M429 314V100C429 41 381-7 321-7H107C48-7 0 41 0 100v393c0 157 128 286 286 286h35c20 0 36-17 36-36v-72c0-19-16-35-36-35h-35c-79 0-143-65-143-143v-18c0-30 24-54 53-54h125c60 0 108-48 108-107z m500 0V100C929 41 881-7 821-7H607c-59 0-107 48-107 107v393c0 157 128 286 286 286h35c20 0 36-17 36-36v-72c0-19-16-35-36-35h-35c-79 0-143-65-143-143v-18c0-30 24-54 53-54h125c60 0 108-48 108-107z" horiz-adv-x="928.6"/>
      <glyph glyph-name="quote-right" unicode="&#xF105;" d="M429 671V279C429 121 300-7 143-7h-36C88-7 71 9 71 29v71c0 19 17 36 36 36h36c79 0 143 64 143 143v17c0 30-24 54-54 54H107C48 350 0 398 0 457v214c0 60 48 108 107 108h214c60 0 108-48 108-108z m500 0V279C929 121 800-7 643-7h-36c-19 0-36 16-36 36v71c0 19 17 36 36 36h36c79 0 143 64 143 143v17c0 30-24 54-54 54H607c-59 0-107 48-107 107v214c0 60 48 108 107 108h214c60 0 108-48 108-108z" horiz-adv-x="928.6"/>
      <glyph glyph-name="random" unicode="&#xF106;" d="M372 582c-32-48-55-100-77-153-32 68-68 135-152 135H18c-10 0-18 8-18 18v107c0 10 8 18 18 18h125c99 0 172-46 229-125z m628-446c0-5-2-10-5-13L816-56c-3-3-8-5-12-5-10 0-18 9-18 18V64c-166 0-268-19-371 126 30 48 53 100 76 152 32-67 68-135 152-135h143v107c0 10 8 18 18 18 5 0 9-2 13-5l178-178c3-4 5-9 5-13z m0 500c0-5-2-10-5-13L816 444c-3-3-8-5-12-5-10 0-18 8-18 18v107H643c-74 0-109-50-141-111-16-31-30-63-43-95C397 214 324 64 143 64H18C8 64 0 72 0 82v107c0 10 8 18 18 18h125c74 0 109 51 141 111 16 31 30 64 43 96 62 144 135 293 316 293h143v107c0 10 8 18 18 18 5 0 9-2 13-5l178-178c3-4 5-9 5-13z" horiz-adv-x="1000"/>
      <glyph glyph-name="refresh" unicode="&#xF107;" d="M843 261c0-1 0-3 0-4C795 59 632-79 426-79 318-79 212-36 133 40L61-32c-7-7-16-11-25-11C16-43 0-27 0-7v250c0 19 16 36 36 36h250c19 0 35-17 35-36 0-10-4-19-10-25l-77-77c53-49 123-77 195-77 99 0 191 52 243 136 13 22 20 43 29 66 3 8 9 13 17 13h107c10 0 18-9 18-18z m14 446V457c0-19-16-36-36-36H571c-19 0-35 17-35 36 0 10 4 19 10 25l77 77c-53 49-122 77-194 77-100 0-192-52-244-136-13-22-20-43-29-66-3-8-9-13-17-13H28c-10 0-18 9-18 18v4c48 198 213 336 419 336 109 0 216-44 295-119l72 72c7 7 16 11 25 11 20 0 36-16 36-36z" horiz-adv-x="857.1"/>
      <glyph glyph-name="renren" unicode="&#xF10B;" d="M632-26c-61-34-130-53-205-53-74 0-144 19-205 53 99 62 179 157 205 267C454 131 533 36 632-26zM356 771V500c0-191-105-355-255-427C38 147 0 243 0 349c0 212 154 388 356 422z m501-422c0-106-38-202-101-276-149 72-255 236-255 427v271c202-34 356-210 356-422z" horiz-adv-x="857.1"/>
      <glyph glyph-name="repeat" unicode="&#xF10D;" d="M857 707V457c0-19-16-36-36-36H571c-14 0-27 9-33 23-5 13-2 28 8 38l77 77c-52 49-121 77-194 77-158 0-286-129-286-286S271 64 429 64c88 0 170 41 225 111 3 4 8 7 13 7s10-2 14-5l76-77c7-6 7-17 1-24C677-22 556-79 429-79 192-79 0 114 0 350s192 429 429 429c109 0 216-44 295-119l72 72c10 11 26 14 39 8 13-5 22-18 22-33z" horiz-adv-x="857.1"/>
      <glyph glyph-name="reply-all" unicode="&#xF10E;" d="M357 246v-39c0-14-9-27-22-33-4-1-9-3-14-3-9 0-18 4-25 11L11 468c-14 14-14 36 0 50l285 286c10 10 26 13 39 8 13-6 22-19 22-33v-39L136 518c-14-14-14-36 0-50z m643-21c0-116-88-287-92-294-2-6-8-10-15-10-2 0-4 0-5 1-9 3-14 11-13 19 16 152-3 253-59 315-48 53-125 82-245 91V207c0-14-9-27-21-33-5-1-10-3-14-3-10 0-19 4-25 11L225 468c-14 14-14 36 0 50l286 286c10 10 25 13 39 8 12-6 21-19 21-33V632c154-10 264-51 335-123 84-86 94-204 94-284z" horiz-adv-x="1000"/>
      <glyph glyph-name="reply" unicode="&#xF10F;" d="M1000 225c0-78-39-180-71-252-6-12-12-30-20-42-4-6-8-10-16-10-11 0-18 9-18 20 0 9 2 19 3 28 1 23 3 46 3 69 0 266-158 312-399 312H357V207c0-19-16-36-36-36-9 0-18 4-25 11L11 468c-7 6-11 15-11 25s4 18 11 25l285 286c7 6 16 10 25 10 20 0 36-16 36-35V636h125c183 0 411-33 488-225 24-59 30-124 30-186z" horiz-adv-x="1000"/>
      <glyph glyph-name="retweet" unicode="&#xF114;" d="M714 11c0-10-8-18-18-18H161c-21 0-18 22-18 36v321H36c-20 0-36 16-36 36 0 8 3 17 8 23l179 214c7 8 17 12 27 12s21-4 28-12l178-214c6-6 9-15 9-23 0-20-17-36-36-36H286V136h321c5 0 11-2 14-6l89-108c3-3 4-7 4-11z m357 232c0-8-2-17-8-23L885 6c-7-8-17-13-28-13s-20 5-27 13L651 220c-5 6-8 15-8 23 0 19 16 36 36 36h107v214H464c-5 0-10 2-14 7l-89 107c-2 3-4 7-4 11 0 9 9 18 18 18h536c20 0 18-22 18-36V279h107c19 0 35-17 35-36z" horiz-adv-x="1071.4"/>
      <glyph glyph-name="road" unicode="&#xF115;" d="M620 294v2l-13 179c-1 10-10 18-19 18H484c-10 0-19-8-19-18l-13-179-1-2c0-9 8-15 17-15h136c8 0 16 6 16 15z m424-260c-1-17-5-41-26-41H625c10 0 17 8 17 18l-11 143c-1 10-10 17-19 17H460c-10 0-19-7-19-17L430 11c-1-10 7-18 16-18H54C32-7 28 17 28 34c0 22 6 44 14 64l233 583c6 14 21 26 36 26h189c-10 0-18-8-19-18l-8-107c-1-10 6-18 16-18h93c10 0 17 8 17 18l-9 107c0 10-9 18-19 18h190c15 0 30-12 35-26l233-583c8-20 15-42 15-64z" horiz-adv-x="1071.4"/>
      <glyph glyph-name="rocket" unicode="&#xF116;" d="M804 600c0 30-24 54-54 54s-54-24-54-54 24-54 54-54 54 24 54 54z m125 161c0-186-52-309-184-442-32-31-69-64-109-98L625 10c-1-6-4-12-9-15L402-130c-3-2-6-2-9-2-5 0-9 2-13 5l-36 36c-4 5-6 11-4 18l47 154-156 156-154-47c-2-1-4-1-6-1-4 0-9 2-12 5l-36 36c-6 6-7 15-3 22l125 214c3 5 9 8 15 9l211 11c34 40 67 77 98 109 140 139 246 184 441 184 10 0 19-8 19-18z" horiz-adv-x="928.6"/>
      <glyph glyph-name="rss" unicode="&#xF118;" d="M214 100C214 41 166-7 107-7S0 41 0 100s48 107 107 107 107-48 107-107z m286-69c1-10-3-19-10-26-6-8-16-12-26-12h-75c-19 0-34 14-35 32-16 170-151 306-322 322-18 1-32 16-32 35v75c0 10 4 20 12 26 6 7 15 10 24 10h3c118-10 231-61 315-146 85-85 137-197 146-316z m286-1c0-9-3-19-10-26S760-7 750-7h-80c-19 0-34 14-35 33-19 325-277 583-602 602-19 1-33 17-33 35v80c0 10 4 19 11 25 7 7 16 11 25 11h1c196-10 379-92 518-231S776 226 786 30z" horiz-adv-x="785.7"/>
      <glyph glyph-name="search" unicode="&#xF11B;" d="M643 386c0 138-112 250-250 250S143 524 143 386s112-250 250-250 250 112 250 250zM929-79c0-39-33-71-72-71-19 0-37 8-50 21L615 62C550 17 472-7 393-7 176-7 0 169 0 386s176 393 393 393 393-176 393-393c0-80-24-158-70-223L908-28c13-13 21-32 21-51z" horiz-adv-x="928.6"/>
      <glyph glyph-name="sex" unicode="&#xF11C;" d="M231 822C105 822 0 718 0 590c0-111 78-203 180-227l1-85H80V176h103l1-103 102 2-1 101h101v102H283l-1 86c102 23 180 116 180 226 0 129-105 232-231 232z m0-103c73 0 130-58 130-129s-57-129-130-129-130 58-130 129 57 129 130 129z m501-258l-1-102h91L721 258c-33 19-71 29-111 29-127 0-231-104-231-232 0-129 104-233 231-233 126 0 231 104 231 233 0 50-16 97-43 135l100 100v-85h102v256H732zM610 184c73 0 130-58 130-129S683-74 610-74 480-16 480 55s57 129 130 129z" horiz-adv-x="1000"/>
      <glyph glyph-name="share" unicode="&#xF11F;" d="M1000 493c0-10-4-19-11-25L704 182c-7-7-16-11-25-11-20 0-36 17-36 36v143H518c-241 0-399-46-399-313 0-22 1-45 3-68 1-9 3-19 3-28 0-11-7-20-18-20-8 0-12 4-16 10-8 12-14 30-20 42C39 45 0 147 0 225c0 63 6 127 30 186 77 192 305 225 488 225h125v143c0 19 16 35 36 35 9 0 18-4 25-10l285-286c7-7 11-16 11-25z" horiz-adv-x="1000"/>
      <glyph glyph-name="shield" unicode="&#xF120;" d="M607 314v357H357V37c29 15 74 41 119 76 60 47 131 120 131 201z m107 429V314C714 79 386-69 372-75c-5-3-10-4-15-4s-10 1-14 4C329-69 0 79 0 314v429c0 19 16 36 36 36h643c19 0 35-17 35-36z" horiz-adv-x="714.3"/>
      <glyph glyph-name="shopping-cart" unicode="&#xF121;" d="M357-7c0-39-32-72-71-72s-72 33-72 72 33 71 72 71 71-32 71-71z m500 0c0-39-32-72-71-72s-72 33-72 72 33 71 72 71 71-32 71-71z m72 607V314c0-18-14-33-32-35l-583-68c3-13 7-26 7-40 0-12-7-24-13-35h513c20 0 36-16 36-36s-16-36-36-36H250c-19 0-36 17-36 36 0 17 25 59 34 77l-98 459H36c-20 0-36 16-36 35s16 36 36 36h143c37 0 38-44 44-71h670c19 0 36-16 36-36z" horiz-adv-x="928.6"/>
      <glyph glyph-name="signal" unicode="&#xF123;" d="M143 46V-61c0-10-8-18-18-18H18C8-79 0-71 0-61V46c0 10 8 18 18 18h107c10 0 18-8 18-18z m214 72V-61c0-10-8-18-18-18H232c-10 0-18 8-18 18v179c0 10 8 18 18 18h107c10 0 18-8 18-18z m214 143V-61c0-10-7-18-17-18H446c-10 0-17 8-17 18v322c0 10 7 18 17 18h108c10 0 17-8 17-18z m215 214V-61c0-10-8-18-18-18H661c-10 0-18 8-18 18v536c0 10 8 18 18 18h107c10 0 18-8 18-18z m214 286V-61c0-10-8-18-18-18H875c-10 0-18 8-18 18v822c0 10 8 18 18 18h107c10 0 18-8 18-18z" horiz-adv-x="1000"/>
      <glyph glyph-name="sitemap" unicode="&#xF126;" d="M1000 154V-25c0-30-24-54-54-54H768c-30 0-54 24-54 54v179c0 29 24 53 54 53h53v107H536V207h53c30 0 54-24 54-53V-25c0-30-24-54-54-54H411c-30 0-54 24-54 54v179c0 29 24 53 54 53h53v107H179V207h53c30 0 54-24 54-53V-25c0-30-24-54-54-54H54C24-79 0-55 0-25v179c0 29 24 53 54 53h53v107c0 39 33 72 72 72h285v107h-53c-30 0-54 24-54 53v179c0 30 24 54 54 54h178c30 0 54-24 54-54V546c0-29-24-53-54-53h-53V386h285c40 0 72-33 72-72V207h53c30 0 54-24 54-53z" horiz-adv-x="1000"/>
      <glyph glyph-name="skype" unicode="&#xF127;" d="M655 257c0 97-95 130-174 148l-58 14c-42 10-74 17-74 49 0 30 31 43 80 43 88 0 89-64 144-64 36 0 58 29 58 61 0 64-107 106-212 106-97 0-209-42-209-155 0-94 62-127 144-147l81-20c50-12 81-18 81-54 0-28-32-50-81-50-103 0-109 86-169 86-39 0-56-28-56-59 0-68 105-124 230-124 105 0 215 52 215 166z m202-121c0-119-96-215-214-215-49 0-94 17-131 45-26-6-55-9-83-9C212-43 36 133 36 350c0 28 3 57 9 84-28 36-45 81-45 130 0 119 96 215 214 215 49 0 95-17 131-45 27 5 55 9 84 9 217 0 392-176 392-393 0-29-3-57-8-84 27-36 44-81 44-130z" horiz-adv-x="857.1"/>
      <glyph glyph-name="sort" unicode="&#xF131;" d="M571 243c0-10-4-19-10-25L311-32c-7-7-16-11-25-11s-19 4-25 11L11 218c-7 6-11 15-11 25 0 19 16 36 36 36h500c19 0 35-17 35-36z m0 214c0-19-16-36-35-36H36c-20 0-36 17-36 36 0 10 4 19 11 25l250 250c6 7 15 11 25 11s18-4 25-11l250-250c6-6 10-15 10-25z" horiz-adv-x="571.4"/>
      <glyph glyph-name="spinner" unicode="&#xF132;" d="M294 72c-1-39-32-71-72-71-39 0-71 32-71 71 0 40 32 72 71 72 40 0 72-32 72-72zM571-43c0-39-31-71-71-71s-71 32-71 71 31 72 71 72 71-32 71-72zM179 350c0-40-32-71-72-71s-71 31-71 71 31 71 71 71 72-31 72-71zM849 72c0-39-32-71-71-71-40 0-72 32-72 71 1 40 32 72 72 72 39 0 71-32 71-72zM311 628c0-49-40-89-89-89s-89 40-89 89 40 89 89 89 89-40 89-89z m653-278c0-40-32-71-71-71s-72 31-72 71 32 71 72 71 71-31 71-71zM607 743c0-59-48-107-107-107s-107 48-107 107 48 107 107 107 107-48 107-107z m296-115c0-69-57-125-125-125-69 0-125 56-125 125 0 68 56 125 125 125 68 0 125-57 125-125z" horiz-adv-x="1000"/>
      <glyph glyph-name="star-half" unicode="&#xF136;" d="M464 832V85L214-47c-7-4-15-7-23-7-16 0-23 14-23 28 0 4 1 8 1 12l48 279L14 462c-7 7-14 17-14 27 0 17 17 23 31 26l280 40 126 254c5 11 14 23 27 23z" horiz-adv-x="500"/>
      <glyph glyph-name="star" unicode="&#xF137;" d="M929 489c0-10-8-20-15-27L712 265l48-279c0-4 0-8 0-12 0-14-7-27-23-27-8 0-15 2-22 6L464 85 214-47c-7-4-15-6-23-6-16 0-23 13-23 27 0 4 1 8 1 12l48 279L14 462c-7 7-14 17-14 27 0 17 17 23 31 26l280 40 126 254c5 11 15 23 27 23s23-12 28-23l125-254 280-40c14-3 32-9 32-26z" horiz-adv-x="928.6"/>
      <glyph glyph-name="step-backward" unicode="&#xF138;" d="M546 771c14 14 25 9 25-10V-61c0-19-11-24-25-10L150 325c-3 3-6 7-7 10V-43c0-19-16-36-36-36H36C16-79 0-62 0-43v786c0 19 16 36 36 36h71c20 0 36-17 36-36V364c1 4 4 8 7 11z" horiz-adv-x="571.4"/>
      <glyph glyph-name="step-forward" unicode="&#xF139;" d="M25-71C11-85 0-80 0-61v822c0 19 11 24 25 10l396-396c4-3 6-7 8-10v378c0 19 16 36 35 36h72c19 0 35-17 35-36V-43c0-19-16-36-35-36h-72c-19 0-35 17-35 36v379c-2-4-4-8-8-11z" horiz-adv-x="571.4"/>
      <glyph glyph-name="stethoscope" unicode="&#xF13A;" d="M714 457c0 20-16 36-35 36s-36-16-36-36 16-36 36-36 35 17 35 36z m72 0c0-47-30-86-72-101V136C714 17 602-79 464-79S214 17 214 136v73C93 224 0 314 0 421v286c0 20 16 36 36 36 3 0 6-1 9-1 12 21 35 37 62 37 40 0 72-32 72-72s-32-71-72-71c-13 0-25 4-36 10V421c0-78 81-142 179-142s179 64 179 142v225c-11-6-23-10-36-10-40 0-72 31-72 71s32 72 72 72c27 0 50-16 62-37 3 0 6 1 9 1 20 0 36-16 36-36V421c0-107-93-197-214-212v-73C286 57 366-7 464-7s179 64 179 143v220c-42 15-72 54-72 101 0 59 48 107 108 107s107-48 107-107z" horiz-adv-x="785.7"/>
      <glyph glyph-name="stop" unicode="&#xF13B;" d="M857 743V-43c0-19-16-36-36-36H36C16-79 0-62 0-43v786c0 19 16 36 36 36h785c20 0 36-17 36-36z" horiz-adv-x="857.1"/>
      <glyph glyph-name="strikethrough" unicode="&#xF13C;" d="M982 350c10 0 18-8 18-18v-36c0-10-8-17-18-17H18c-10 0-18 7-18 17v36c0 10 8 18 18 18h964z m-713 36c-10 13-20 28-28 44-18 37-27 72-27 105 0 68 25 125 75 173s123 71 219 71c22 0 52-4 94-11 24-5 57-13 98-27 4-14 8-37 12-66 5-44 8-78 8-102 0-8-1-16-3-25l-7-2-47 4-7 1c-19 56-39 94-58 114-33 34-72 51-117 51-42 0-76-11-101-33s-38-49-38-81c0-28 12-53 37-79s76-49 156-71c26-8 58-21 96-37 20-10 38-19 53-29H270z m284-143h229c3-16 4-33 4-52 0-40-8-79-23-118-9-20-21-39-40-58-13-13-33-28-61-45s-55-30-85-37c-30-8-67-12-113-12-31 0-68 1-109 13l-78 23c-22 6-35 11-40 15-3 2-5 6-5 12v8c0 4 1 33-1 87-1 28 1 47 1 58v25l57 1c21-47 30-76 36-86 14-22 29-39 45-52s36-24 59-32c22-9 47-12 73-12 24 0 50 5 78 15 28 9 51 25 68 48 17 22 26 46 26 72 0 31-15 60-45 87-12 11-38 24-77 40z" horiz-adv-x="1000"/>
      <glyph glyph-name="subscript" unicode="&#xF13D;" d="M501 86V-7H362l-89 141-13 23c-3 4-5 8-6 12h-2c-1-4-3-8-5-12-3-7-8-16-14-25L147-7H3v93h71l110 162L81 400H5v94h154l77-127c5-8 9-16 13-24 3-4 5-7 6-11h2c1 4 3 7 6 11l14 24 78 127h143v-94h-69L326 251 440 86h61zM857-35v-115H570l-2 15c-1 8-2 18-2 26 0 152 196 165 196 246 0 29-27 48-56 48-22 0-40-10-54-21-8-7-14-14-20-22l-59 52c10 14 21 25 35 37 24 19 58 36 105 36 81 0 137-48 137-122C850 12 665 1 657-80h130v45h70z" horiz-adv-x="857.1"/>
      <glyph glyph-name="suitcase" unicode="&#xF13E;" d="M357 636h286v71H357v-71z m-196 0V-79h-36C56-79 0-22 0 46v465c0 68 56 125 125 125h36z m625 0V-79H214v715h72v89c0 30 24 54 53 54h322c29 0 53-24 53-54v-89h72z m214-125V46c0-68-56-125-125-125h-36v715h36c69 0 125-57 125-125z" horiz-adv-x="1000"/>
      <glyph glyph-name="superscript" unicode="&#xF140;" d="M501 86V-7H362l-89 141-13 23c-3 4-5 8-6 12h-2c-1-4-3-8-5-12-3-7-8-16-14-25L147-7H3v93h71l110 162L81 400H5v94h154l77-127c5-8 9-16 13-24 3-4 5-7 6-11h2c1 4 3 7 6 11l14 24 78 127h143v-94h-69L326 251 440 86h61z m355 379V350H569l-1 15c-2 8-3 19-3 26 0 152 196 165 196 246 0 29-27 48-56 48-21 0-40-10-54-21-8-6-14-14-20-22l-59 52c10 14 21 25 35 37 24 18 58 36 105 36 81 0 137-48 137-122 0-134-185-145-193-225h130v45h70z" horiz-adv-x="857.1"/>
      <glyph glyph-name="table" unicode="&#xF141;" d="M286 82v107c0 10-8 18-18 18H89c-10 0-18-8-18-18V82c0-10 8-18 18-18h179c10 0 18 8 18 18z m0 214v108c0 10-8 17-18 17H89c-10 0-18-7-18-17V296c0-10 8-17 18-17h179c10 0 18 7 18 17zM571 82v107c0 10-7 18-17 18H375c-10 0-18-8-18-18V82c0-10 8-18 18-18h179c10 0 17 8 17 18zM286 511v107c0 10-8 18-18 18H89c-10 0-18-8-18-18V511c0-10 8-18 18-18h179c10 0 18 8 18 18z m285-215v108c0 10-7 17-17 17H375c-10 0-18-7-18-17V296c0-10 8-17 18-17h179c10 0 17 7 17 17zM857 82v107c0 10-8 18-18 18H661c-10 0-18-8-18-18V82c0-10 8-18 18-18h178c10 0 18 8 18 18zM571 511v107c0 10-7 18-17 18H375c-10 0-18-8-18-18V511c0-10 8-18 18-18h179c10 0 17 8 17 18z m286-215v108c0 10-8 17-18 17H661c-10 0-18-7-18-17V296c0-10 8-17 18-17h178c10 0 18 7 18 17z m0 215v107c0 10-8 18-18 18H661c-10 0-18-8-18-18V511c0-10 8-18 18-18h178c10 0 18 8 18 18z m72 178V82c0-49-41-89-90-89H89C40-7 0 33 0 82v607c0 49 40 90 89 90h750c49 0 90-41 90-90z" horiz-adv-x="928.6"/>
      <glyph glyph-name="tablet" unicode="&#xF142;" d="M357 64c0 20-16 36-36 36s-35-16-35-36 16-35 35-35 36 16 36 35z m214 90v535c0 10-8 18-17 18H89c-9 0-18-8-18-18V154c0-10 9-18 18-18h465c9 0 17 8 17 18z m72 535V82c0-49-40-89-89-89H89C40-7 0 33 0 82v607c0 49 40 90 89 90h465c49 0 89-41 89-90z" horiz-adv-x="642.9"/>
      <glyph glyph-name="tag" unicode="&#xF143;" d="M250 600c0 40-32 71-71 71s-72-31-72-71 32-71 72-71 71 31 71 71z m595-321c0-19-7-38-20-51L551-46c-14-13-32-21-51-21s-37 8-50 21L51 353C22 381 0 435 0 475v232c0 39 32 72 71 72h233c39 0 93-23 122-51l399-399c13-13 20-31 20-50z" horiz-adv-x="857.1"/>
      <glyph glyph-name="tags" unicode="&#xF144;" d="M250 600c0 40-32 71-71 71s-72-31-72-71 32-71 72-71 71 31 71 71z m595-321c0-19-7-38-20-51L551-46c-14-13-32-21-51-21s-37 8-50 21L51 353C22 381 0 435 0 475v232c0 39 32 72 71 72h233c39 0 93-23 122-51l399-399c13-13 20-31 20-50z m215 0c0-19-8-38-21-51L765-46c-13-13-32-21-51-21-29 0-43 14-62 33l262 262c13 13 21 32 21 51s-8 37-21 50L515 728c-28 28-82 51-122 51h125c40 0 94-23 122-51l399-399c13-13 21-32 21-50z" horiz-adv-x="1071.4"/>
      <glyph glyph-name="tasks" unicode="&#xF145;" d="M571 64h358v72H571V64zM357 350h572v71H357v-71z m357 286h215v71H714v-71z m286-465V29c0-20-16-36-36-36H36C16-7 0 9 0 29v142c0 20 16 36 36 36h928c20 0 36-16 36-36z m0 286V314c0-19-16-35-36-35H36c-20 0-36 16-36 35v143c0 20 16 36 36 36h928c20 0 36-16 36-36z m0 286V600c0-20-16-36-36-36H36c-20 0-36 16-36 36v143c0 19 16 36 36 36h928c20 0 36-17 36-36z" horiz-adv-x="1000"/>
      <glyph glyph-name="terminal" unicode="&#xF146;" d="M327 302L66 41c-7-7-18-7-25 0L13 69c-7 8-7 19 0 26l219 219L13 534c-7 7-7 18 0 25l28 28c7 7 18 7 25 0l261-260c7-7 7-18-1-25zM929 46V11c0-10-8-18-18-18H375c-10 0-18 8-18 18v35c0 11 8 18 18 18h536c10 0 18-7 18-18z" horiz-adv-x="928.6"/>
      <glyph glyph-name="text-height" unicode="&#xF147;" d="M973 64c25 0 33-15 18-35l-71-90c-15-20-39-20-54 0l-71 90c-15 20-7 35 18 35h44v572h-44c-25 0-33 15-18 35l71 90c15 20 39 20 54 0l71-90c15-20 7-35-18-35h-44V64h44zM45 778l30-15c4-2 106-3 118-3 49 0 98 2 147 2 41 0 80 0 120 0h164c22 0 35-5 50 16l24 1c5 0 10-1 15-1 1-63 1-125 1-188 0-19 1-41-2-60-13-5-26-9-38-10-13 22-22 47-31 71-3 11-17 87-18 88-12 14-25 11-42 11-51 0-104 3-154-3-3-25-5-51-4-76 0-157 2-314 2-471 0-43-7-88 6-129 42-22 92-25 136-45 1-9 2-18 2-28 0-5 0-10-1-16l-19-1c-79-2-158 11-237 11-57 0-113-11-169-11-1 10-2 20-2 29v6c21 34 98 34 133 55 12 27 10 178 10 213 0 113-3 226-3 339v65c0 10 2 50-4 58-8 8-81 7-91 7-21 0-80-10-96-22-27-18-27-130-61-132-10 6-24 15-31 25v214z" horiz-adv-x="1000"/>
      <glyph glyph-name="text-width" unicode="&#xF148;" d="M45 778l30-15c4-2 106-3 118-3 49 0 98 2 147 2 148 0 298 4 446-1 12-1 24 7 31 17l23 1c5 0 11-1 16-1 1-63 1-125 1-188 0-20 1-41-3-60-12-5-25-9-38-10-12 22-21 46-30 71-4 11-18 87-18 88-4 5-9 8-15 10-5 2-32 1-37 1-69 0-148 4-215-4-3-24-5-50-5-75l1-85v29c0-91 1-182 1-272 0-43-6-88 6-129 42-22 93-25 136-45 1-9 3-18 3-28 0-5-1-11-2-16l-19-1c-79-2-157 10-237 10-56 0-113-10-169-10-1 10-2 20-2 29v5c22 34 98 35 133 56 14 31 10 295 10 344 0 8-3 16-3 24 0 23 4 155-4 164-8 8-81 7-90 7-24 0-155-13-168-22-27-17-27-129-61-132-10 6-24 15-31 25v214zM731 63c20 0 94-67 109-78 8-7 14-17 14-28s-6-20-14-27c-15-12-89-78-109-78-26 0-17 59-17 69H143c0-10 9-69-17-69-19 0-94 66-109 78C9-63 3-54 3-43s6 21 14 28c15 11 90 78 109 78 26 0 17-60 17-70h571c0 10-9 70 17 70z" horiz-adv-x="857.1"/>
      <glyph glyph-name="th-large" unicode="&#xF149;" d="M429 279V64c0-39-33-71-72-71H71C32-7 0 25 0 64v215c0 39 32 71 71 71h286c39 0 72-32 72-71z m0 428V493c0-39-33-72-72-72H71c-39 0-71 33-71 72v214c0 39 32 72 71 72h286c39 0 72-33 72-72z m500-428V64c0-39-33-71-72-71H571c-39 0-71 32-71 71v215c0 39 32 71 71 71h286c39 0 72-32 72-71z m0 428V493c0-39-33-72-72-72H571c-39 0-71 33-71 72v214c0 39 32 72 71 72h286c39 0 72-33 72-72z" horiz-adv-x="928.6"/>
      <glyph glyph-name="th-list" unicode="&#xF14A;" d="M286 154V46c0-29-24-53-54-53H54C24-7 0 17 0 46v108c0 29 24 53 54 53h178c30 0 54-24 54-53z m0 285V332c0-29-24-53-54-53H54c-30 0-54 24-54 53v107c0 30 24 54 54 54h178c30 0 54-24 54-54z m714-285V46c0-29-24-53-54-53H411c-30 0-54 24-54 53v108c0 29 24 53 54 53h535c30 0 54-24 54-53zM286 725V618c0-30-24-54-54-54H54c-30 0-54 24-54 54v107c0 30 24 54 54 54h178c30 0 54-24 54-54z m714-286V332c0-29-24-53-54-53H411c-30 0-54 24-54 53v107c0 30 24 54 54 54h535c30 0 54-24 54-54z m0 286V618c0-30-24-54-54-54H411c-30 0-54 24-54 54v107c0 30 24 54 54 54h535c30 0 54-24 54-54z" horiz-adv-x="1000"/>
      <glyph glyph-name="th" unicode="&#xF14B;" d="M286 154V46c0-29-24-53-54-53H54C24-7 0 17 0 46v108c0 29 24 53 54 53h178c30 0 54-24 54-53z m0 285V332c0-29-24-53-54-53H54c-30 0-54 24-54 53v107c0 30 24 54 54 54h178c30 0 54-24 54-54z m357-285V46c0-29-24-53-54-53H411c-30 0-54 24-54 53v108c0 29 24 53 54 53h178c30 0 54-24 54-53zM286 725V618c0-30-24-54-54-54H54c-30 0-54 24-54 54v107c0 30 24 54 54 54h178c30 0 54-24 54-54z m357-286V332c0-29-24-53-54-53H411c-30 0-54 24-54 53v107c0 30 24 54 54 54h178c30 0 54-24 54-54z m357-285V46c0-29-24-53-54-53H768c-30 0-54 24-54 53v108c0 29 24 53 54 53h178c30 0 54-24 54-53zM643 725V618c0-30-24-54-54-54H411c-30 0-54 24-54 54v107c0 30 24 54 54 54h178c30 0 54-24 54-54z m357-286V332c0-29-24-53-54-53H768c-30 0-54 24-54 53v107c0 30 24 54 54 54h178c30 0 54-24 54-54z m0 286V618c0-30-24-54-54-54H768c-30 0-54 24-54 54v107c0 30 24 54 54 54h178c30 0 54-24 54-54z" horiz-adv-x="1000"/>
      <glyph glyph-name="thumbs-down" unicode="&#xF14D;" d="M143 529c0-20-16-36-36-36s-36 16-36 36 16 35 36 35 36-15 36-35z m89-286v357c0 20-16 36-36 36H36c-20 0-36-16-36-36V243c0-20 16-36 36-36h160c20 0 36 16 36 36z m630 83c19-21 31-54 31-83-1-58-49-107-107-107H631c5-18 10-24 16-36 15-29 32-61 32-107 0-43 0-143-125-143-10 0-19 4-25 11-25 23-31 58-37 91-7 32-13 65-35 87-17 17-36 41-56 67-25 32-79 99-99 101-19 1-34 17-34 35v358c0 20 17 35 36 36 19 0 53 12 88 24 60 21 135 47 215 47h72c49 0 86-15 110-43 21-25 31-59 27-101 14-14 25-32 30-53 7-22 7-44 0-65 17-22 26-49 24-77 0-7-2-24-8-42z" horiz-adv-x="928.6"/>
      <glyph glyph-name="thumbs-up" unicode="&#xF14F;" d="M143 100c0 20-16 36-36 36s-36-17-36-36c0-20 16-36 36-36s36 16 36 36z m89 286V29c0-20-16-36-36-36H36C16-7 0 9 0 29v357c0 19 16 35 36 35h160c20 0 36-16 36-35z m661 0c0-30-12-62-31-83 6-18 8-35 8-43 2-28-7-54-24-76 7-21 7-43 0-66-5-20-16-39-30-52 4-42-6-76-27-101-24-28-61-43-110-44h-72c-80 0-155 27-215 47-35 13-69 24-88 25-19 0-36 16-36 36v357c0 19 15 34 34 36 20 2 74 68 99 100 20 26 39 50 56 67 22 22 28 56 35 88 6 33 12 68 36 91 7 7 16 11 26 11 125 0 125-100 125-143 0-46-17-78-32-107-6-13-11-18-16-36h155c58 0 107-49 107-107z" horiz-adv-x="928.6"/>
      <glyph glyph-name="ticket" unicode="&#xF150;" d="M571 598l177-177-319-319-177 177zM454 51l345 345c14 14 14 37-1 51L597 649c-13 13-36 13-50-1L201 305c-14-14-14-37 0-51L403 52c7-6 16-10 26-10s18 4 25 10z m496 356L444-100c-28-27-74-27-101 0l-71 70c42 42 42 110 0 152s-110 42-152 0l-69 71c-28 27-28 73 0 101l506 505c27 28 73 28 101 0l70-69c-42-42-42-111 0-152s110-42 151 0l71-70c27-28 27-74 0-101z" horiz-adv-x="1000"/>
      <glyph glyph-name="tint" unicode="&#xF152;" d="M286 207c0 14-5 28-11 39-8 11-37 49-49 86-2 6-7 9-12 9s-10-3-11-9c-12-37-42-75-49-86s-11-25-11-39c0-39 32-71 71-71s72 32 72 71z m285 72C571 121 444-7 286-7S0 121 0 279c0 56 17 108 45 153 29 45 148 196 193 347 8 24 30 35 48 35s40-11 47-35c45-151 165-302 193-347s45-97 45-153z" horiz-adv-x="571.4"/>
      <glyph glyph-name="tractor" unicode="&#xF153;" d="M510 728l-89-312H303v239h-50V418L84 397l13-156H3V77h65c0-4 0-8 0-11 0-84 68-149 148-149S365-18 365 66c0 29-9 56-23 78h162C516 15 626-83 753-83c134 0 250 110 250 250 0 112-73 204-171 237v324l-322-1z m51-62h203V417c-3 0-7 0-11 0-30 0-59-5-86-15l-174 14 68 250z m192-399c64 0 102-47 102-100S817 67 753 67c-63 0-101 47-101 100s38 100 101 100zM216 138c45 0 77-34 77-72 0-39-32-72-77-72-44 0-76 33-76 72 0 38 32 72 76 72z" horiz-adv-x="1000"/>
      <glyph glyph-name="trello" unicode="&#xF155;" d="M393 100v571c0 10-8 18-18 18H107c-10 0-18-8-18-18V100c0-10 8-18 18-18h268c10 0 18 8 18 18z m375 214v357c0 11-8 18-18 18H482c-10 0-18-7-18-18V314c0-10 8-18 18-18h268c10 0 18 8 18 18z m89 429V-43c0-19-16-36-36-36H36C16-79 0-62 0-43v786c0 19 16 36 36 36h785c20 0 36-17 36-36z" horiz-adv-x="857.1"/>
      <glyph glyph-name="trophy" unicode="&#xF156;" d="M256 357c-24 52-42 120-42 207H71v-53c0-55 75-131 185-154z m601 154v53H714c0-87-18-155-41-207 110 23 184 99 184 154z m72 71v-71c0-106-129-223-303-232-22-28-43-45-53-53-29-27-37-55-37-90s18-72 71-72 107-35 107-89v-36c0-10-7-18-18-18H232c-10 0-18 8-18 18v36c0 54 54 89 107 89s72 36 72 72-8 63-37 90c-11 8-31 25-53 53C128 288 0 405 0 511v71c0 30 24 54 54 54h160v53c0 49 41 90 90 90h321c49 0 89-41 89-90v-53h161c30 0 54-24 54-54z" horiz-adv-x="928.6"/>
      <glyph glyph-name="truck" unicode="&#xF157;" d="M357 64c0 39-32 72-71 72s-72-33-72-72 33-71 72-71 71 32 71 71zM143 350h214v143h-88c-2 0-11-4-12-5L148 379c-2-2-5-10-5-12v-17zM857 64c0 39-32 72-71 72s-72-33-72-72 33-71 72-71 71 32 71 71z m143 607V100c0-41-43-36-71-36 0-78-65-143-143-143S643-14 643 64H429c0-78-65-143-143-143S143-14 143 64h-36c-28 0-71-5-71 36 0 20 16 36 35 36v178c0 40-5 84 26 115l110 110c14 14 41 25 61 25h89v107c0 20 16 36 36 36h571c20 0 36-16 36-36z" horiz-adv-x="1000"/>
      </font>
</defs>
</svg>
