<?xml version="1.0" standalone="no"?>
<!DOCTYPE svg PUBLIC "-//W3C//DTD SVG 1.1//EN" "http://www.w3.org/Graphics/SVG/1.1/DTD/svg11.dtd">
<svg xmlns="http://www.w3.org/2000/svg">
  <metadata>Copyright (C) 2013-2016 by Agric</metadata>
  <defs>
    <font id="agric" horiz-adv-x="1000">
      <font-face font-family="Agric" font-weight="400" font-stretch="normal" units-per-em="1000" ascent="850" descent="-150"/>
      <missing-glyph horiz-adv-x="1000"/>
      <glyph glyph-name="adjust" unicode="&#xF000;" d="M429 46v607c-167 0-304-136-304-304s136-304 304-304z m429 304c0-237-192-429-429-429s-429 192-429 429 192 429 429 429 429-192 429-429z" horiz-adv-x="857.1"/>
      <glyph glyph-name="adn" unicode="&#xF001;" d="M429 503l112-171h-224z m204-296h52l-256 386-256-386h53l58 89h291z m225 143c0-237-192-429-429-429s-429 192-429 429 192 429 429 429 429-192 429-429z" horiz-adv-x="857.1"/>
      <glyph glyph-name="align-center" unicode="&#xF002;" d="M1000 100v-71c0-20-16-36-36-36h-929c-20 0-36 16-36 36v71c0 20 16 36 36 36h929c20 0 36-16 36-36z m-214 214v-71c0-20-16-36-36-36h-500c-20 0-36 16-36 36v71c0 20 16 36 36 36h500c20 0 36-16 36-36z m143 214v-72c0-20-16-36-36-36h-786c-20 0-36 16-36 36v72c0 20 16 36 36 36h786c20 0 36-16 36-36z m-214 214v-72c0-20-16-36-36-36h-357c-20 0-36 16-36 36v72c0 20 16 36 36 36h357c20 0 36-16 36-36z" horiz-adv-x="1000"/>
      <glyph glyph-name="align-justify" unicode="&#xF003;" d="M1000 100v-71c0-20-16-36-36-36h-929c-20 0-36 16-36 36v71c0 20 16 36 36 36h929c20 0 36-16 36-36z m0 214v-71c0-20-16-36-36-36h-929c-20 0-36 16-36 36v71c0 20 16 36 36 36h929c20 0 36-16 36-36z m0 214v-72c0-20-16-36-36-36h-929c-20 0-36 16-36 36v72c0 20 16 36 36 36h929c20 0 36-16 36-36z m0 214v-72c0-20-16-36-36-36h-929c-20 0-36 16-36 36v72c0 20 16 36 36 36h929c20 0 36-16 36-36z" horiz-adv-x="1000"/>
      <glyph glyph-name="align-left" unicode="&#xF004;" d="M1000 100v-71c0-20-16-36-36-36h-929c-20 0-36 16-36 36v71c0 20 16 36 36 36h929c20 0 36-16 36-36z m-214 214v-71c0-20-16-36-36-36h-714c-20 0-36 16-36 36v71c0 20 16 36 36 36h714c20 0 36-16 36-36z m143 214v-72c0-20-16-36-36-36h-857c-20 0-36 16-36 36v72c0 20 16 36 36 36h857c20 0 36-16 36-36z m-214 214v-72c0-20-16-36-36-36h-643c-20 0-36 16-36 36v72c0 20 16 36 36 36h643c20 0 36-16 36-36z" horiz-adv-x="1000"/>
      <glyph glyph-name="align-right" unicode="&#xF005;" d="M1000 100v-71c0-20-16-36-36-36h-929c-20 0-36 16-36 36v71c0 20 16 36 36 36h929c20 0 36-16 36-36z m0 214v-71c0-20-16-36-36-36h-714c-20 0-36 16-36 36v71c0 20 16 36 36 36h714c20 0 36-16 36-36z m0 214v-72c0-20-16-36-36-36h-857c-20 0-36 16-36 36v72c0 20 16 36 36 36h857c20 0 36-16 36-36z m0 214v-72c0-20-16-36-36-36h-643c-20 0-36 16-36 36v72c0 20 16 36 36 36h643c20 0 36-16 36-36z" horiz-adv-x="1000"/>
      <glyph glyph-name="ambulance" unicode="&#xF006;" d="M357 64c0 40-32 71-71 71s-71-32-71-71 32-71 71-71 71 32 71 71z m-214 286h214v143h-88c-3-1-10-3-12-5l-109-109c-2-3-5-9-5-12v-17z m714-286c0 40-32 71-71 71s-71-32-71-71 32-71 71-71 71 32 71 71z m72 375v107c0 10-8 18-18 18h-125v125c0 10-8 18-18 18h-107c-10 0-18-8-18-18v-125h-125c-10 0-18-8-18-18v-107c0-10 8-18 18-18h125v-125c0-10 8-18 18-18h107c10 0 18 8 18 18v125h125c10 0 18 8 18 18z m143 304v-643c0-20-16-36-36-36h-107c0-79-64-143-143-143s-143 64-143 143h-214c0-79-64-143-143-143s-143 64-143 143h-72c-20 0-36 16-36 36s16 36 36 36v232c0 20 11 47 25 61l111 111c14 14 41 25 61 25h89v179c0 20 16 36 36 36h643c20 0 36-16 36-36z" horiz-adv-x="1071.4"/>
      <glyph glyph-name="anchor" unicode="&#xF007;" d="M536 707c0 20-16 36-36 36s-36-16-36-36 16-36 36-36 36 16 36 36z m464-518v-196c0-7-5-14-11-17-2-1-4-1-7-1-4 0-9 2-13 5l-52 52c-88-105-245-173-417-173s-330 68-417 173l-52-52c-3-3-8-5-13-5-2 0-5 1-7 1-7 3-11 10-11 17v196c0 10 8 18 18 18h196c7 0 14-4 17-11s1-14-4-20l-56-56c50-68 147-117 257-132v361h-107c-20 0-36 16-36 36v71c0 20 16 36 36 36h107v91c-42 25-72 70-72 123 0 79 64 143 143 143s143-64 143-143c0-53-29-99-72-123v-91h107c20 0 36-16 36-36v-71c0-20-16-36-36-36h-107v-361c111 15 207 64 257 132l-56 56c-5 6-7 13-4 20s10 11 17 11h196c10 0 18-8 18-18z" horiz-adv-x="1000"/>
      <glyph glyph-name="android" unicode="&#xF008;" d="M275 581c12 0 22 10 22 22s-10 22-22 22-21-10-21-22 10-22 21-22z m236 0c12 0 21 10 21 22s-10 22-21 22c-12 0-22-10-22-22s10-22 22-22z m-453-103c31 0 57-26 57-57v-240c0-32-25-58-57-58s-58 26-58 58v240c0 31 26 57 58 57z m592-11v-372c0-34-27-61-61-61h-42v-127c0-32-26-58-58-58s-57 26-57 58v127h-77v-127c0-32-26-58-58-58-31 0-57 26-57 58l-1 127h-41c-34 0-61 27-61 61v372h512z m-130 226c78-40 131-117 131-206h-516c0 89 53 166 132 206l-40 73c-2 4-1 9 3 11s9 1 11-3l40-74c34 15 72 24 112 24s78-8 112-24l40 74c2 4 7 5 11 3s5-7 3-11z m266-272v-240c0-32-26-58-58-58-31 0-57 26-57 58v240c0 32 26 57 57 57 32 0 58-25 58-57z" horiz-adv-x="785.7"/>
      <glyph glyph-name="angle-down" unicode="&#xF009;" d="M600 439c0-5-2-10-6-13l-260-260c-3-3-8-6-13-6s-10 2-13 6l-260 260c-3 3-6 8-6 13s2 10 6 13l28 28c3 3 8 6 13 6 4 0 10-2 13-6l219-219 219 219c3 3 8 6 13 6s10-2 13-6l28-28c3-3 6-8 6-13z" horiz-adv-x="642.9"/>
      <glyph glyph-name="angle-left" unicode="&#xF00A;" d="M350 546c0-4-2-10-6-13l-219-219 219-219c3-3 6-8 6-13s-2-9-6-13l-28-28c-3-3-8-6-13-6s-10 2-13 6l-260 260c-3 3-6 8-6 13s2 10 6 13l260 260c3 3 8 6 13 6s10-2 13-6l28-28c3-3 6-8 6-13z" horiz-adv-x="357.1"/>
      <glyph glyph-name="angle-right" unicode="&#xF00B;" d="M332 314c0-5-2-10-6-13l-260-260c-3-3-8-6-13-6s-10 2-13 6l-28 28c-3 3-6 8-6 13s2 10 6 13l219 219-219 219c-3 3-6 8-6 13s2 10 6 13l28 28c3 3 8 6 13 6s10-2 13-6l260-260c3-3 6-8 6-13z" horiz-adv-x="357.1"/>
      <glyph glyph-name="angle-up" unicode="&#xF00C;" d="M600 189c0-5-2-10-6-13l-28-28c-3-3-8-6-13-6s-10 2-13 6l-219 219-219-219c-3-3-8-6-13-6s-10 2-13 6l-28 28c-3 3-6 8-6 13s2 10 6 13l260 260c3 3 8 6 13 6s10-2 13-6l260-260c3-3 6-8 6-13z" horiz-adv-x="642.9"/>
      <glyph glyph-name="apple" unicode="&#xF00D;" d="M777 172c-14-44-36-91-69-140-48-73-96-109-143-109-19 0-45 6-78 18s-61 18-84 18c-22 0-49-6-79-18-31-13-55-19-74-19-58 0-113 49-168 145-54 96-82 189-82 281 0 85 21 155 63 209s94 80 158 80c27 0 60-6 99-17s64-17 77-17c16 0 43 6 80 19 37 12 69 19 97 19 45 0 84-12 119-36 20-13 39-32 58-56-29-25-50-46-64-66-24-35-36-73-36-116 0-46 13-88 39-124s55-60 88-70z m-210 655c0-23-6-49-16-76-11-28-28-54-52-77-20-20-40-34-60-40-13-4-32-7-58-10 1 55 16 103 44 143s75 68 140 83c1-5 2-9 3-12 0-4 1-7 1-11z" horiz-adv-x="785.7"/>
      <glyph glyph-name="archive" unicode="&#xF00E;" d="M607 386c0 20-16 36-36 36h-143c-20 0-36-16-36-36s16-36 36-36h143c20 0 36 16 36 36z m322 107v-536c0-20-16-36-36-36h-786c-20 0-36 16-36 36v536c0 20 16 36 36 36h786c20 0 36-16 36-36z m36 250v-143c0-20-16-36-36-36h-857c-20 0-36 16-36 36v143c0 20 16 36 36 36h857c20 0 36-16 36-36z" horiz-adv-x="1000"/>
      <glyph glyph-name="arrow-down" unicode="&#xF00F;" d="M899 386c0-19-8-37-21-50l-363-364c-13-13-32-21-51-21s-37 8-50 21l-363 364c-13 13-21 31-21 50s8 37 21 51l41 42c13 13 32 21 51 21s37-8 50-21l164-164v393c0 39 32 72 72 72h71c39 0 71-32 71-72v-393l164 164c13 13 31 21 50 21s37-8 51-21l42-42c13-13 21-32 21-51z" horiz-adv-x="928.6"/>
      <glyph glyph-name="arrow-left" unicode="&#xF010;" d="M857 350v-71c0-38-25-72-65-72h-393l164-164c13-13 21-31 21-50s-8-37-21-50l-42-42c-13-13-31-21-50-21s-37 8-51 21l-363 364c-13 13-21 31-21 50s8 37 21 51l363 363c13 13 32 21 51 21s37-8 50-21l42-41c13-13 21-32 21-51s-8-37-21-51l-164-164h393c40 0 65-34 65-71z" horiz-adv-x="857.1"/>
      <glyph glyph-name="arrow-right" unicode="&#xF011;" d="M821 314c0-19-7-37-21-51l-363-363c-13-13-32-21-51-21s-37 8-50 21l-42 42c-13 13-21 32-21 51s8 37 21 51l164 164h-393c-40 0-65 34-65 72v71c0 38 25 71 65 71h393l-164 164c-13 13-21 31-21 50s8 37 21 50l42 42c13 13 31 21 50 21s37-8 51-21l363-363c13-13 21-31 21-50z" horiz-adv-x="857.1"/>
      <glyph glyph-name="arrow-up" unicode="&#xF012;" d="M899 308c0-19-8-37-21-50l-42-42c-13-13-32-21-51-21s-37 8-50 21l-164 164v-393c0-40-34-65-71-65h-71c-38 0-72 25-72 65v393l-164-164c-13-13-31-21-50-21s-37 8-50 21l-42 42c-13 13-21 31-21 50s8 37 21 51l363 363c13 13 31 21 50 21s37-7 51-21l363-363c13-13 21-32 21-51z" horiz-adv-x="928.6"/>
      <glyph glyph-name="asterisk" unicode="&#xF013;" d="M827 264c34-20 46-64 26-98l-36-61c-20-34-64-46-98-26l-149 85v-171c0-39-32-72-71-72h-71c-39 0-72 32-72 72v171l-148-85c-34-20-78-8-98 26l-36 61c-20 34-8 78 26 98l148 86-148 86c-34 20-46 64-26 98l36 61c20 34 64 46 98 26l148-85v171c0 39 32 72 72 72h71c39 0 71-32 71-72v-171l149 85c34 20 78 8 98-26l36-61c20-34 8-78-26-98l-148-86z" horiz-adv-x="928.6"/>
      <glyph glyph-name="backward" unicode="&#xF014;" d="M904 771c14 14 25 9 25-11v-821c0-20-11-25-25-11l-396 396c-3 3-6 7-7 11v-396c0-20-11-25-25-11l-396 396c-14 14-14 36 0 50l396 396c14 14 25 9 25-11v-396c2 4 4 7 7 11z" horiz-adv-x="928.6"/>
      <glyph glyph-name="barcode" unicode="&#xF017;" d="M35-7h-35v786h35v-786z m35 1h-18v785h18v-785z m53 0h-17v785h17v-785z m88 0h-17v785h17v-785z m88 0h-35v785h35v-785z m70 0h-17v785h17v-785z m35 0h-17v785h17v-785z m35 0h-17v785h17v-785z m88 0h-35v785h35v-785z m88 0h-35v785h35v-785z m70 0h-35v785h35v-785z m70 0h-35v785h35v-785z m52 0h-35v785h35v-785z m106 0h-53v785h53v-785z m35 0h-18v785h18v-785z m53-1h-35v786h35v-786z" horiz-adv-x="1000"/>
      <glyph glyph-name="barn" unicode="&#xF018;" d="M505 825l-355-222-170-422h96v-362h286v355h288v-355h279v362h89l-164 422-350 222z m-72-293h143v-147h-143v147z" horiz-adv-x="1000"/>
      <glyph glyph-name="beer" unicode="&#xF01A;" d="M357 350v214h-143v-143c0-40 32-71 71-71h71z m572-250v-107h-643v107l71 107h-71c-118 0-214 96-214 214v179l-36 36 18 71h268l18 72h536l18-107-36-18v-447z" horiz-adv-x="928.6"/>
      <glyph glyph-name="bell" unicode="&#xF01C;" d="M509-96c0 5-4 9-9 9-44 0-80 36-80 80 0 5-4 9-9 9s-9-4-9-9c0-54 44-98 98-98 5 0 9 4 9 9z m455 161c0-39-32-71-71-71h-250c0-79-64-143-143-143s-143 64-143 143h-250c-39 0-71 32-71 71 83 70 179 195 179 464 0 107 89 224 237 246-3 7-5 14-5 22 0 30 24 54 54 54s54-24 54-54c0-8-2-15-5-22 148-22 237-139 237-246 0-270 96-395 179-464z" horiz-adv-x="1000"/>
      <glyph glyph-name="bitbucket" unicode="&#xF01E;" d="M455 371c6-47-51-84-90-60-45 20-45 90-1 111 37 23 92-7 92-51z m62 12c-10 79-100 132-173 99-46-21-78-70-75-122 3-68 68-124 136-118s121 73 113 141z m133 302c-25 32-66 38-103 44-104 17-212 17-316-1-35-6-74-12-95-43 36-34 87-39 132-44 83-11 167-11 250-1 46 6 98 10 132 45z m32-578c-16-55-7-128-65-160-100-55-221-61-331-42-58 11-126 29-158 84-14 54-23 108-32 163l3 9 10 5c166-110 399-110 566 0 26-8 7-40 6-59z m101 536c-19-122-41-244-62-366-6-36-41-56-70-71-104-52-226-61-340-49-78 8-157 29-220 78-30 23-30 62-35 95-20 114-42 229-56 344 7 50 63 72 105 88 56 21 116 30 175 36 126 12 255 8 377-28 44-13 90-31 120-68 13-17 9-39 6-59z" horiz-adv-x="785.7"/>
      <glyph glyph-name="bold" unicode="&#xF01F;" d="M310 1c25-11 51-18 78-18 127 0 210 51 210 187 0 35-5 71-23 101-52 84-127 88-217 88-17 0-41 0-56-6 0-59-1-118-1-177 0-39-5-143 8-175z m-8 416c20-3 41-4 61-4 115 0 197 32 197 161 0 109-97 146-190 146-25 0-49-3-73-7 0-56 5-113 5-169 0-30-1-59-1-89 0-13 0-26 1-39z m-302-496l1 53c36 9 72 10 107 24 20 33 17 91 17 128 0 12 1 546-12 572-8 16-90 20-109 22l-2 46c133 2 266 12 398 12 25 0 51-1 76-1 126 0 265-60 265-205 0-100-76-137-155-173 106-24 200-96 200-213 0-192-175-256-338-256-49 0-98 3-147 3-100 0-201-9-300-13z" horiz-adv-x="785.7"/>
      <glyph glyph-name="bolt" unicode="&#xF020;" d="M494 534c6-7 8-16 4-25l-301-646c-4-8-13-14-23-14-2 0-5 1-8 1-12 4-20 16-17 27l110 451-227-56c-2-1-5-1-7-1-6 0-13 2-17 6-7 6-9 14-7 22l112 460c3 11 13 18 25 18h183c14 0 25-11 25-24 0-3-1-7-3-10l-95-258 221 55c2 1 5 1 7 1 7 0 14-3 19-8z" horiz-adv-x="500"/>
      <glyph glyph-name="book-open" unicode="&#xF021;" d="M500 693s-125 130-500 130v-857c379 0 500-143 500-143s121 143 500 143v857c-375 0-500-130-500-130z m-375-13c159-15 256-57 313-91v-575c-56 34-154 76-313 91z m750-575c-159-15-256-57-313-91v575c56 34 154 76 313 91z" horiz-adv-x="1000"/>
      <glyph glyph-name="book" unicode="&#xF022;" d="M915 583c14-20 18-46 10-72l-154-506c-14-47-63-84-111-84h-515c-57 0-118 45-138 103-9 25-9 50-1 71 1 11 3 22 4 36 1 9-5 16-3 23 2 13 14 23 23 38 17 28 36 73 42 102 3 11-3 23 0 32 3 11 13 18 19 28 15 26 35 75 37 102 1 12-4 25-1 34 4 13 16 18 25 30 13 19 36 72 39 101 1 10-4 19-3 29 2 11 16 22 25 35 23 35 28 111 99 91l-1-2c10 2 19 5 29 5h425c26 0 50-12 64-31 15-20 18-46 10-73l-153-506c-26-86-41-105-112-105h-485c-7 0-16-2-21-8-4-7-5-12-1-24 11-32 50-39 80-39h515c21 0 45 12 51 32l167 551c3 11 3 22 3 32 13-5 25-13 33-24z m-594-1c-3-10 2-18 12-18h339c10 0 20 8 24 18l12 36c3 10-2 18-12 18h-339c-10 0-20-8-23-18z m-46-143c-3-10 2-18 12-18h339c10 0 20 8 24 18l12 36c3 10-2 18-12 18h-339c-10 0-20-8-23-18z" horiz-adv-x="928.6"/>
      <glyph glyph-name="bookmark" unicode="&#xF024;" d="M650 779c8 0 17-2 25-5 25-9 40-32 40-57v-719c0-25-16-48-40-58-8-3-16-5-25-5-17 0-34 6-46 18l-246 237-246-237c-13-12-29-18-46-18-8 0-17 2-25 5-25 10-40 32-40 58v719c0 25 16 48 40 57 8 3 16 5 25 5h585z" horiz-adv-x="714.3"/>
      <glyph glyph-name="briefcase" unicode="&#xF025;" d="M357 707h286v72h-286v-72z m643-357v-268c0-49-40-89-89-89h-821c-49 0-89 40-89 89v268h375v-89c0-20 16-36 36-36h179c20 0 36 16 36 36v89h375z m-429 0v-71h-143v71h143z m429 268v-214h-1000v214c0 49 40 89 89 89h196v89c0 30 24 54 54 54h321c30 0 54-24 54-54v-89h196c49 0 89-40 89-89z" horiz-adv-x="1000"/>
      <glyph glyph-name="btc" unicode="&#xF026;" d="M651 493c7-74-24-119-73-144 82-20 133-68 123-177-13-136-113-172-257-180v-142h-86v140c-22 0-45 0-68 1v-141h-86v142c-20 0-40 1-61 1h-112l17 102c63-1 62 0 62 0 24 0 31 17 32 28v224h9c-3 1-7 1-9 1v160c-3 18-15 38-50 38 0 0 1 1-62 0v92l118-1c17 0 36 0 54 1v141h86v-138c23 1 46 1 68 1v137h86v-141c111-9 198-44 208-145z m-120-304c0 111-182 94-240 94v-189c58 0 240-12 240 94z m-40 266c0 101-152 86-200 86v-171c49 0 200-11 200 85z" horiz-adv-x="714.3"/>
      <glyph glyph-name="bug" unicode="&#xF027;" d="M911 314c0-20-16-36-36-36h-125c0-70-15-122-37-162l116-117c14-14 14-36 0-50-7-7-16-11-25-11s-18 3-25 11l-111 110s-73-67-168-67v500h-71v-500c-101 0-175 74-175 74l-102-116c-7-8-17-12-27-12-8 0-17 3-24 9-15 13-16 36-3 51l113 127c-20 39-32 88-32 153h-125c-20 0-36 16-36 36s16 36 36 36h125v164l-97 97c-14 14-14 36 0 50s36 14 50 0l97-97h471l97 97c14 14 36 14 50 0s14-36 0-50l-97-97v-164h125c20 0 36-16 36-36z m-268 321h-357c0 99 80 179 179 179s179-80 179-179z" horiz-adv-x="928.6"/>
      <glyph glyph-name="bullhorn" unicode="&#xF029;" d="M929 493c40 0 71-32 71-72s-32-71-71-71v-214c0-39-32-71-72-71-99 83-259 196-453 212-66-22-89-100-46-145-39-64 11-109 70-156-35-68-179-69-230-22-32 99-80 199-41 324h-68c-49 0-89 40-89 89v107c0 49 40 89 89 89h268c214 0 393 125 500 214 39 0 72-32 72-72v-214z m-72-337v532c-146-112-287-176-429-191v-151c142-16 283-79 429-190z" horiz-adv-x="1000"/>
      <glyph glyph-name="bullseye" unicode="&#xF02A;" d="M571 350c0-79-64-143-143-143s-143 64-143 143 64 143 143 143 143-64 143-143z m72 0c0 118-96 214-214 214s-214-96-214-214 96-214 214-214 214 96 214 214z m71 0c0-158-128-286-286-286s-286 128-286 286 128 286 286 286 286-128 286-286z m71 0c0 197-160 357-357 357s-357-160-357-357 160-357 357-357 357 160 357 357z m71 0c0-237-192-429-429-429s-429 192-429 429 192 429 429 429 429-192 429-429z" horiz-adv-x="857.1"/>
      <glyph glyph-name="calendar" unicode="&#xF02C;" d="M71-79h161v161h-161v-161z m197 0h179v161h-179v-161z m-197 197h161v179h-161v-179z m197 0h179v179h-179v-179z m-197 214h161v161h-161v-161z m411-411h179v161h-179v-161z m-214 411h179v161h-179v-161z m429-411h161v161h-161v-161z m-214 197h179v179h-179v-179z m-196 482v161c0 10-8 18-18 18h-36c-9 0-18-8-18-18v-161c0-10 8-18 18-18h36c9 0 18 8 18 18z m411-482h161v179h-161v-179z m-214 214h179v161h-179v-161z m214 0h161v161h-161v-161z m18 268v161c0 10-8 18-18 18h-36c-10 0-18-8-18-18v-161c0-10 8-18 18-18h36c10 0 18 8 18 18z m214 36v-714c0-39-32-71-72-71h-786c-39 0-71 32-71 71v714c0 39 32 71 71 71h72v54c0 49 40 89 89 89h36c49 0 89-40 89-89v-54h214v54c0 49 40 89 89 89h36c49 0 89-40 89-89v-54h71c39 0 72-32 72-71z" horiz-adv-x="928.6"/>
      <glyph glyph-name="camera-retro" unicode="&#xF02D;" d="M518 386c0 10-8 18-18 18-49 0-89-40-89-89 0-10 8-18 18-18s18 8 18 18c0 30 24 54 54 54 10 0 18 8 18 18z m125-73c0-79-64-143-143-143s-143 64-143 143 64 143 143 143 143-64 143-143z m-572-320h857v71h-857v-71z m643 320c0 118-96 214-214 214s-214-96-214-214 96-214 214-214 214 96 214 214z m-571 358h214v72h-214v-72z m-72-107h857v143h-462l-36-71h-359v-71z m929 143v-714c0-40-32-72-71-72h-857c-40 0-71 32-71 72v714c0 40 32 72 71 72h857c40 0 71-32 71-72z" horiz-adv-x="1000"/>
      <glyph glyph-name="camera" unicode="&#xF02E;" d="M536 475c89 0 161-72 161-161s-72-161-161-161-161 72-161 161 72 161 161 161z m393 232c79 0 143-64 143-143v-500c0-79-64-143-143-143h-786c-79 0-143 64-143 143v500c0 79 64 143 143 143h125l28 76c14 37 58 67 97 67h286c39 0 83-30 97-67l29-76h125z m-393-643c138 0 250 112 250 250s-112 250-250 250-250-112-250-250 112-250 250-250z" horiz-adv-x="1071.4"/>
      <glyph glyph-name="caret-down" unicode="&#xF02F;" d="M571 457c0-9-4-18-11-25l-250-250c-7-7-16-11-25-11s-18 4-25 11l-250 250c-7 7-11 16-11 25 0 20 16 36 36 36h500c20 0 36-16 36-36z" horiz-adv-x="571.4"/>
      <glyph glyph-name="caret-left" unicode="&#xF030;" d="M357 600v-500c0-20-16-36-36-36-10 0-18 4-25 11l-250 250c-7 7-11 16-11 25s4 18 11 25l250 250c7 7 16 11 25 11 20 0 36-16 36-36z" horiz-adv-x="357.1"/>
      <glyph glyph-name="caret-right" unicode="&#xF031;" d="M321 350c0-10-4-18-11-25l-250-250c-7-7-16-11-25-11-20 0-36 16-36 36v500c0 20 16 36 36 36 10 0 18-4 25-11l250-250c7-7 11-16 11-25z" horiz-adv-x="357.1"/>
      <glyph glyph-name="caret-up" unicode="&#xF032;" d="M571 171c0-20-16-36-36-36h-500c-20 0-36 16-36 36 0 10 4 18 11 25l250 250c7 7 16 11 25 11s18-4 25-11l250-250c7-7 11-16 11-25z" horiz-adv-x="571.4"/>
      <glyph glyph-name="certificate" unicode="&#xF033;" d="M768 350l77-75c11-10 15-25 11-39s-15-25-29-29l-105-27 30-104c4-14 0-29-11-39-10-11-25-15-39-11l-104 30-27-105c-3-14-15-25-28-29-3-1-7-1-11-1-11 0-21 5-29 12l-75 77-75-77c-10-11-25-15-39-11-15 4-25 15-29 29l-27 105-104-30c-14-4-29 0-39 11-11 10-15 25-11 39l30 104-105 27c-14 3-25 15-29 29-3 14 1 29 11 39l77 75-77 75c-11 10-15 25-11 39s15 25 29 29l105 27-30 104c-4 14 0 29 11 39 10 11 25 15 39 11l104-30 27 105c3 14 15 25 29 29s29 0 39-11l75-78 75 78c10 11 25 15 39 11 14-3 25-15 28-29l27-105 104 30c14 4 29 0 39-11 11-10 15-25 11-39l-30-104 105-27c14-3 25-15 29-29 3-14-1-29-11-39z" horiz-adv-x="857.1"/>
      <glyph glyph-name="check" unicode="&#xF037;" d="M933 534c0-14-6-28-16-38l-404-404-76-76c-10-10-24-16-38-16s-28 6-38 16l-76 76-202 202c-10 10-16 24-16 38s6 28 16 38l76 76c10 10 24 16 38 16s28-6 38-16l164-165 366 367c10 10 24 16 38 16s28-6 38-16l76-76c10-10 16-24 16-38z" horiz-adv-x="1000"/>
      <glyph glyph-name="chevron-down" unicode="&#xF038;" d="M939 399l-414-414c-14-14-36-14-50 0l-414 414c-14 14-14 37 0 51l93 92c14 14 36 14 50 0l296-296 296 296c14 14 36 14 50 0l93-92c14-14 14-37 0-51z" horiz-adv-x="1000"/>
      <glyph glyph-name="chevron-left" unicode="&#xF039;" d="M654 682l-296-296 296-296c14-14 14-36 0-50l-93-93c-14-14-36-14-50 0l-414 414c-14 14-14 36 0 50l414 414c14 14 36 14 50 0l93-93c14-14 14-36 0-50z" horiz-adv-x="714.3"/>
      <glyph glyph-name="chevron-right" unicode="&#xF03A;" d="M618 361l-414-414c-14-14-36-14-50 0l-93 93c-14 14-14 36 0 50l296 296-296 296c-14 14-14 36 0 50l93 93c14 14 36 14 50 0l414-414c14-14 14-36 0-50z" horiz-adv-x="714.3"/>
      <glyph glyph-name="chevron-up" unicode="&#xF03F;" d="M939 107l-93-92c-14-14-36-14-50 0l-296 296-296-296c-14-14-36-14-50 0l-93 92c-14 14-14 37 0 51l414 414c14 14 36 14 50 0l414-414c14-14 14-37 0-51z" horiz-adv-x="1000"/>
      <glyph glyph-name="circle" unicode="&#xF045;" d="M857 350c0-237-192-429-429-429s-429 192-429 429 192 429 429 429 429-192 429-429z" horiz-adv-x="857.1"/>
      <glyph glyph-name="clock" unicode="&#xF046;" d="M500 822c-276 0-500-224-500-500s224-500 500-500 500 224 500 500-224 500-500 500z m0-125c207 0 375-168 375-375s-168-375-375-375-375 168-375 375 168 375 375 375z m-63-63v-313c0-19 8-35 22-47l123-121 88 88-107 107v285z" horiz-adv-x="1000"/>
      <glyph glyph-name="cloud-download" unicode="&#xF047;" d="M714 332c0 10-8 18-18 18h-125v196c0 10-8 18-18 18h-107c-10 0-18-8-18-18v-196h-125c-10 0-18-8-18-18 0-4 2-9 5-13l197-196c3-3 8-5 13-5s10 2 13 5l196 196c3 4 6 8 6 13z m357-125c0-118-96-214-214-214h-607c-138 0-250 112-250 250 0 97 56 185 144 226-1 8-1 16-1 24 0 158 128 286 286 286 116 0 220-70 265-178 26 22 59 35 93 35 79 0 143-64 143-143 0-27-8-54-23-77 97-23 166-109 166-209z" horiz-adv-x="1071.4"/>
      <glyph glyph-name="cloud-upload" unicode="&#xF048;" d="M714 368c0 4-2 9-5 13l-197 196c-3 3-8 5-13 5s-10-2-13-5l-196-196c-3-4-6-8-6-13 0-10 8-18 18-18h125v-196c0-10 8-18 18-18h107c10 0 18 8 18 18v196h125c10 0 18 8 18 18z m357-161c0-118-96-214-214-214h-607c-138 0-250 112-250 250 0 97 56 185 144 226-1 8-1 16-1 24 0 158 128 286 286 286 116 0 220-70 265-178 26 22 59 35 93 35 79 0 143-64 143-143 0-27-8-54-23-77 97-23 166-109 166-209z" horiz-adv-x="1071.4"/>
      <glyph glyph-name="cloud" unicode="&#xF049;" d="M1071 207c0-118-96-214-214-214h-607c-138 0-250 112-250 250 0 100 59 186 144 226-1 8-1 16-1 24 0 158 128 286 286 286 119 0 222-73 265-178 25 22 57 35 93 35 79 0 143-64 143-143 0-29-8-55-23-77 95-22 166-107 166-209z" horiz-adv-x="1071.4"/>
      <glyph glyph-name="code-fork" unicode="&#xF04B;" d="M161 29c0 30-24 54-54 54s-54-24-54-54 24-54 54-54 54 24 54 54z m0 643c0 30-24 54-54 54s-54-24-54-54 24-54 54-54 54 24 54 54z m357-71c0 30-24 54-54 54s-54-24-54-54 24-54 54-54 54 24 54 54z m54 0c0-40-22-74-54-93-2-202-145-246-239-276-89-28-118-41-118-95v-15c32-18 54-53 54-93 0-59-48-107-107-107s-107 48-107 107c0 40 22 74 54 93v458c-32 18-54 53-54 93 0 59 48 107 107 107s107-48 107-107c0-40-22-74-54-93v-277c29 14 59 23 86 32 104 33 163 57 164 174-32 18-54 53-54 93 0 59 48 107 107 107s107-48 107-107z" horiz-adv-x="571.4"/>
      <glyph glyph-name="code" unicode="&#xF04C;" d="M344 69l-28-28c-7-7-18-7-26 0l-260 260c-7 7-7 18 0 26l260 260c7 7 19 7 26 0l28-28c7-7 7-19 0-26l-219-219 219-219c7-7 7-18 0-26z m330 595l-208-720c-3-10-13-15-22-12l-35 10c-10 3-15 13-12 22l208 721c3 10 13 15 22 12l35-9c10-3 15-13 12-22z m367-363l-260-260c-7-7-18-7-26 0l-28 28c-7 7-7 18 0 26l219 219-219 219c-7 7-7 18 0 26l28 28c7 7 18 7 26 0l260-260c7-7 7-18 0-26z" horiz-adv-x="1071.4"/>
      <glyph glyph-name="coffee" unicode="&#xF04D;" d="M929 493c0 59-48 107-107 107h-36v-214h36c59 0 107 48 107 107z m-929-429h1000c0-79-64-143-143-143h-714c-79 0-143 64-143 143z m1036 429c0-118-96-214-214-214h-36v-18c0-69-56-125-125-125h-393c-69 0-125 56-125 125v411c0 20 16 36 36 36h643c118 0 214-96 214-214z" horiz-adv-x="1071.4"/>
      <glyph glyph-name="cog" unicode="&#xF04E;" d="M571 350c0 79-64 143-143 143s-143-64-143-143 64-143 143-143 143 64 143 143z m286 61v-124c0-8-7-18-16-20l-103-16c-6-18-13-35-22-51 19-27 39-52 60-77 3-4 6-9 6-14s-2-9-5-13c-13-18-89-100-108-100-5 0-10 2-15 5l-77 60c-16-8-34-16-51-21-4-34-7-70-16-104-2-9-10-16-20-16h-124c-10 0-19 7-20 17l-16 103c-17 6-34 12-50 21l-79-60c-4-3-9-5-14-5s-10 2-14 6c-30 27-69 61-92 94-3 4-4 8-4 13s2 9 5 13c19 26 40 50 59 77-10 18-17 36-23 55l-102 15c-10 2-16 11-16 20v124c0 8 7 18 15 20l104 16c6 18 13 35 22 51-19 27-39 52-60 77-3 4-6 8-6 13s2 9 5 13c13 19 89 100 108 100 5 0 10-2 15-6l77-60c16 8 34 16 51 21 4 34 7 70 16 104 2 9 10 16 20 16h124c10 0 19-7 20-17l16-103c17-6 34-12 50-21l79 60c3 3 8 5 13 5s10-2 14-6c30-27 69-62 92-95 3-3 4-8 4-12 0-5-2-9-4-13-19-26-40-50-59-77 9-18 17-36 23-55l102-16c9-2 16-11 16-20z" horiz-adv-x="857.1"/>
      <glyph glyph-name="cogs" unicode="&#xF04F;" d="M500 350c0 79-64 143-143 143s-143-64-143-143 64-143 143-143 143 64 143 143z m429-286c0 39-32 71-72 71s-71-32-71-71c0-40 32-71 71-71 40 0 72 32 72 71z m0 571c0 39-32 71-72 71s-71-32-71-71c0-40 32-71 71-71 40 0 72 32 72 71z m-214-235v-103c0-7-6-16-13-17l-87-13c-5-15-11-28-18-42 16-22 32-43 50-64 2-3 4-7 4-11s-1-8-4-11c-11-15-74-83-90-83-5 0-8 2-12 4l-64 50c-14-7-28-13-43-17-3-28-6-59-13-87-2-8-9-13-17-13h-104c-8 0-16 6-17 14l-13 85c-15 5-29 11-42 17l-66-50c-3-3-7-4-11-4-5 0-8 2-12 5-15 13-80 73-80 89 0 4 2 7 4 11 16 21 33 42 49 64-8 15-15 30-20 46l-85 13c-8 1-13 8-13 16v103c0 7 6 16 13 17l87 13c5 15 11 28 18 42-16 22-32 43-50 64-2 3-4 7-4 11s1 8 4 11c11 15 74 83 90 83 5 0 8-2 12-4l64-50c14 7 28 13 43 18 3 28 6 59 13 86 2 8 9 13 17 13h104c8 0 16-6 17-14l13-85c15-5 29-11 42-17l66 50c3 3 7 4 11 4s8-2 12-5c15-13 80-74 80-89 0-4-2-7-4-11-16-22-33-42-49-64 7-15 14-30 19-46l85-13c8-2 13-9 13-17z m357-298v-78c0-8-72-16-83-17-5-11-10-20-17-29 5-11 29-67 29-77 0-2-1-3-2-4-7-4-66-40-69-40-7 0-49 56-55 64-6-1-11-1-17-1s-11 1-17 1c-6-8-47-64-55-64-3 0-63 36-69 40-2 1-2 3-2 4 0 10 23 66 28 77-7 9-12 18-17 29-11 1-83 9-83 17v78c0 8 72 16 83 17 5 10 10 20 17 29-5 11-28 68-28 77 0 1 1 3 2 4 7 3 66 39 69 39 7 0 49-55 55-64 6 1 11 1 17 1s11-1 17-1c16 22 32 44 51 63l3 1c3 0 63-35 69-39 2-1 2-3 2-4 0-10-23-66-29-77 7-9 12-19 17-29 11-1 83-9 83-17z m0 572v-78c0-8-72-16-83-17-5-11-10-20-17-29 5-11 29-67 29-77 0-2-1-3-2-4-7-4-66-40-69-40-7 0-49 56-55 64-6-1-11-1-17-1s-11 1-17 1c-6-8-47-64-55-64-3 0-63 36-69 40-2 1-2 3-2 4 0 10 23 66 28 77-7 9-12 18-17 29-11 1-83 9-83 17v78c0 8 72 16 83 17 5 10 10 20 17 29-5 11-28 68-28 77 0 1 1 3 2 4 7 3 66 39 69 39 7 0 49-55 55-64 6 1 11 1 17 1s11-1 17-1c16 22 32 44 51 63l3 1c3 0 63-35 69-39 2-1 2-3 2-4 0-10-23-66-29-77 7-9 12-19 17-29 11-1 83-9 83-17z" horiz-adv-x="1071.4"/>
      <glyph glyph-name="columns" unicode="&#xF053;" d="M89-7h339v643h-357v-625c0-10 8-18 18-18z m768 18v625h-357v-643h339c10 0 18 8 18 18z m72 679v-679c0-49-40-89-89-89h-750c-49 0-89 40-89 89v679c0 49 40 89 89 89h750c49 0 89-40 89-89z" horiz-adv-x="928.6"/>
      <glyph glyph-name="comment" unicode="&#xF055;" d="M1000 350c0-198-224-357-500-357-27 0-55 2-81 4-73-65-160-111-257-135-20-6-42-10-64-12-12-1-24 8-27 21v1c-3 14 7 22 15 32 35 40 75 73 102 166-115 65-189 166-189 280 0 197 224 357 500 357s500-160 500-357z" horiz-adv-x="1000"/>
      <glyph glyph-name="comments" unicode="&#xF057;" d="M786 421c0-158-176-286-393-286-34 0-67 3-98 9-46-33-99-57-155-71-15-4-31-7-48-9h-2c-8 0-16 7-18 16-2 11 5 17 11 25 22 25 46 46 65 93-90 52-148 133-148 224 0 158 176 286 393 286s393-128 393-286z m214-143c0-91-58-171-148-224 19-46 44-68 65-93 6-7 13-14 11-25-2-10-11-17-20-16-17 2-33 5-48 9-56 15-109 39-155 71-31-6-64-9-98-9-101 0-194 28-263 74 16-1 33-2 49-2 120 0 233 35 320 97 93 68 145 160 145 260 0 29-4 58-13 85 94-52 156-135 156-228z" horiz-adv-x="1000"/>
      <glyph glyph-name="compass" unicode="&#xF058;" d="M357 243l143 71-143 71v-143z m214 330v-303l-286-143v303z m161-223c0 167-136 304-304 304s-304-136-304-304 136-304 304-304 304 136 304 304z m125 0c0-237-192-429-429-429s-429 192-429 429 192 429 429 429 429-192 429-429z" horiz-adv-x="857.1"/>
      <glyph glyph-name="cow" unicode="&#xF05A;" d="M817 822s40-79 20-105c-35-48-174-48-174-48l62-92s184 32 214 94c27 57-122 150-122 150z m-628-6s-149-19-138-130c10-103 244-117 244-117 18 33 37 74 63 107 0 0-179-19-202 45-25 66 33 96 33 96z m320-128c-36 0-71 24-105 14-82-107-136-240-189-362 67-104 113-175 114-264 0 0-83-89-75-135 11-59 108-108 108-108 91-10 182-21 288-2 0 0 95 68 95 107 1 49-74 138-74 138 10 88 82 167 133 254-33 118-90 250-185 366-38 16-75-8-111-9z m356-113c-57 0-126-29-126-29 53-98 47-101 112-140s149-11 149-11-29 130-86 168c-13 9-31 12-49 12z m-722-4c-16 0-31-2-45-8-58-28-98-190-98-190s120-14 168 14c50 30 112 145 112 145-39 16-90 39-137 39z m187-196s46 10 81-11c22-13 13-67 13-67s-69-6-88 17c-19 22-6 62-6 62z m341-6s10-40-20-64c-21-17-73-8-73-8s-7 44 22 67c28 22 70 6 70 6z m-46-357s47-14 39-45c-7-28-46-55-74-48-18 5-13 22-6 39s25-1 35 14c11 16 6 39 6 39z m-259 9s0-32 11-48c10-15 30 0 37-17 7-18 10-34-9-39-28-8-66 19-73 48-7 30 33 57 33 57z" horiz-adv-x="1000"/>
      <glyph glyph-name="credit-card" unicode="&#xF05B;" d="M982 779c49 0 89-40 89-89v-679c0-49-40-89-89-89h-893c-49 0-89 40-89 89v679c0 49 40 89 89 89h893z m-893-72c-10 0-18-8-18-18v-125h929v125c0 10-8 18-18 18h-893z m893-714c10 0 18 8 18 18v339h-929v-339c0-10 8-18 18-18h893z m-839 71v71h143v-71h-143z m214 0v71h214v-71h-214z" horiz-adv-x="1071.4"/>
      <glyph glyph-name="crop" unicode="&#xF05C;" d="M311 136h332v332z m-25 25l332 332h-332v-332z m643-43v-107c0-10-8-18-18-18h-125v-125c0-10-8-18-18-18h-107c-10 0-18 8-18 18v125h-482c-10 0-18 8-18 18v482h-125c-10 0-18 8-18 18v107c0 10 8 18 18 18h125v125c0 10 8 18 18 18h107c10 0 18-8 18-18v-125h475l137 138c7 7 18 7 26 0 7-7 7-18 0-26l-138-137v-475h125c10 0 18-8 18-18z" horiz-adv-x="928.6"/>
      <glyph glyph-name="css3" unicode="&#xF05D;" d="M154 779h840l-148-744-449-149-390 149 40 199h166l-16-82 236-90 271 90 38 189h-674l32 166h675l21 107h-674z" horiz-adv-x="1000"/>
      <glyph glyph-name="desktop" unicode="&#xF060;" d="M1000 296v464c0 10-8 18-18 18h-893c-10 0-18-8-18-18v-464c0-10 8-18 18-18h893c10 0 18 8 18 18z m71 464v-607c0-49-40-89-89-89h-304c0-47 36-88 36-107s-16-36-36-36h-286c-20 0-36 16-36 36 0 21 36 59 36 107h-304c-49 0-89 40-89 89v607c0 49 40 89 89 89h893c49 0 89-40 89-89z" horiz-adv-x="1071.4"/>
      <glyph glyph-name="download" unicode="&#xF066;" d="M714 100c0 20-16 36-36 36s-36-16-36-36 16-36 36-36 36 16 36 36z m143 0c0 20-16 36-36 36s-36-16-36-36 16-36 36-36 36 16 36 36z m72 125v-179c0-30-24-54-54-54h-821c-30 0-54 24-54 54v179c0 30 24 54 54 54h260l75-76c21-20 47-31 76-31s55 11 76 31l76 76h259c30 0 54-24 54-54z m-181 318c6-13 3-29-8-39l-250-250c-7-7-16-11-25-11s-18 3-25 11l-250 250c-11 10-13 26-8 39 6 13 18 22 33 22h143v250c0 20 16 36 36 36h143c20 0 36-16 36-36v-250h143c15 0 27-9 33-22z" horiz-adv-x="928.6"/>
      <glyph glyph-name="dropbox" unicode="&#xF068;" d="M224 456l276-170-191-159-274 178z m550-310v-60l-274-164v-1l-1 1-1-1v1l-273 164v60l82-54 191 159v1l1-1 1 1v-1l191-159z m-465 638l191-159-276-170-189 151z m467-329l189-151-273-178-191 159z m-84 329l273-178-189-151-276 170z" horiz-adv-x="1000"/>
      <glyph glyph-name="eject" unicode="&#xF06B;" d="M8 304l396 396c14 14 36 14 50 0l396-396c14-14 9-25-11-25h-821c-20 0-25 11-11 25z m814-311h-786c-20 0-36 16-36 36v143c0 20 16 36 36 36h786c20 0 36-16 36-36v-143c0-20-16-36-36-36z" horiz-adv-x="858.3"/>
      <glyph glyph-name="ekylibre-alt" unicode="&#xF06C;" d="M0 822v-1000h1000v1000z m63-63h875v-875h-875z m125-125v-625h625v125h-500v125h500v125h-500v125h500v125z" horiz-adv-x="1000"/>
      <glyph glyph-name="ekylibre" unicode="&#xF06D;" d="M0 874v-800h800v800h-800z m50-50h700v-700h-700v700z m1984-75l-40-21c-4-16-12-28-22-36v-64c-2-4-4-5-6-6-2-23-6-41-13-55l3-9v-45c-2-24-3-44-3-61l-12-15v-18l-3-6v-9c-2-9-3-18-3-24-12-25-17-57-16-94-1-24-1-44 0-61 13-9 21-20 25-33h9c8-3 17-4 25-3l9 12 4 19c-7 46-2 87 15 124v9l-3 9 3 6c9 25 14 46 16 63l6 3c-2 20-1 37 3 51l3 18 12 9 4 9v24c15 35 22 69 21 103 11 9 18 19 19 30-5 8-7 16-6 24-13 10-18 22-16 36-12 7-23 10-34 9z m311-1c-8-6-17-10-25-11-4-13-10-23-18-30-5-29-1-54 13-75v-40c-1-6-1-14-1-24l1-3 2-3v-18l1-9 4-9c-1-15-5-29-11-40 3-11 3-21 3-30l-9-6-2-8-7-34c12-11 19-24 22-38l6-6c15-4 29-4 41 0 3 4 7 6 10 8 4 14 12 21 23 23l5 11 4 3 1 5c3 4 5 8 5 12l3 3 1 3c8 8 14 15 18 23 13 2 21-2 23-11l4-1c22 2 41-1 56-8 19 2 35-3 47-15 9 0 16-4 21-11 7 1 16-7 27-22 24-10 42-26 53-49v-6l-1-9c13-16 9-36-13-60-13-4-23-10-31-17-8 3-16 4-22 3-7-2-13-2-18 0l-4-2-5-2c-20 0-36-2-49-6-15 5-28 7-40 5-3 3-5 5-7 9l-3 2c-9 14-16 22-22 25l-3 3c0 13-4 24-10 32-7 1-14 1-20 0-25-42-29-71-13-86 7-17 18-27 34-29l7-8c16-2 28-7 39-17h7c3 5 7 8 11 11l11-3c7 1 12-1 17-3 9 1 17 3 24 5l15-4 6 2h19l4 2h24c11 3 21 4 29 3 16 13 32 21 49 23 3 5 6 8 8 11 51 8 70 50 59 128-15 14-22 31-21 50-13 8-23 19-29 32-7 4-13 9-17 15h-5c-5 2-11 2-15 2-7 10-12 20-15 29-8 5-15 10-19 15l-3 2c-18 8-32 17-43 29h-4c-4-2-8-2-11-2l-3 5c-16 4-30 10-40 19-6-2-12-3-16-4-13 9-26 12-39 9-6 4-12 8-16 12h-10l-4-3c-5 0-10 0-14 1h-4c-9-3-16-4-23-3-7-6-14-10-21-11-3-5-7-8-11-9-4 16-4 31 1 44-7 25-5 47 6 66-1 12 1 22 4 31v4c0 12 0 22-1 31-1 1-2 2-2 3l-3 3-2 3c-3 8-5 14-8 18h-4c-5 2-10 3-15 3-7 0-13 1-18 3z m-169-22l-35-20c0-15-2-28-8-39 3-2 4-3 5-5 2-2 3-3 3-5 5-13 10-24 15-32 14-2 26-6 36-15 10 4 20 4 30 2 18-19 34-24 50-15 4 9 4 19 2 30l-18 8-5 7c-8 23-19 41-33 55-1 9-3 16-8 22-14 5-26 7-35 8z m-2026-2v-500h500v100h-400v100h400v100h-400v100h400v100h-500z m925-7c-2 0-3 0-5 0-11-16-25-27-41-34l-6-19c-8-27-12-50-13-67l-6-5c-6-20-15-36-27-48 3-22-3-41-16-56-2-18-7-32-16-43 0-30-6-56-19-77 1-15-3-27-11-35 0-13-2-25-8-34-21-11-32-27-33-48 0-27 9-48 27-64 13 0 24-1 33-3 3 2 6 3 8 3 16 11 31 18 46 21 2 3 5 5 8 5l8 6c9 11 20 17 33 19v8c15 4 27 11 35 21 13-2 23-8 30-16 27-4 50-14 68-29 55-34 108-38 160-11v8c-5 7-7 14-8 21-10 4-17 10-22 16-25-1-44 8-57 27-19 5-24 14-16 26-20 8-32 23-38 43 7 8 12 15 16 19 9 4 16 7 22 8 4 7 9 11 16 13 3 7 7 12 11 16l8 8 8 3 11 5 3 8h8l27 16c10 10 20 17 30 21 7 15 12 28 14 40-17 6-32 6-44 0-13-12-27-20-41-21-8-15-19-25-33-29l-19-3c-4-12-13-20-24-24-13-4-24-9-32-13-17-13-34-21-52-24-10-11-20-19-30-24-8-17-21-25-38-24-8-12-19-19-30-21-4-10-9-17-16-21-12-7-18-6-19 5 2 34 9 56 22 67-1 23 4 42 16 59 1 11 1 21 0 30l6 11 5 8 3 8 3 8 3 8c15 18 25 36 30 53l5 6 24 24c8 16 17 29 28 37v16l3 18c0 12 1 21 3 30-18 19-38 28-61 27z m2305-152c-2-2-3-3-5-3-38-3-70-12-98-28l-7-14-19-5c-12-9-23-14-34-16-1-3-3-5-5-5-3-8-6-14-10-19-23-26-37-53-41-80-1-5-4-10-7-14v-9l5-12-5-17c3-9 4-17 5-24l5-37 2-7 7-4 5-16c10-10 17-19 21-28l7-3 5-7 12-3 7-2 5-5h7l5-2 45-19 10 2c7 2 14 2 19 0l7 3h14l19 2c18 4 34 5 48 5l5 9h7c9 5 19 7 29 7 8 9 19 13 31 12 4 7 10 12 17 14l-2 21c-18-2-33-1-45 2-12-4-23-5-33-2-53-11-104-9-151 7-4 8-10 13-17 16 10 13 20 22 31 28l10 9 12 7 12 5c19 21 39 36 60 44l2 7 7 2c13 15 28 26 43 33 5 14 14 22 26 26l5 28c18 23 18 45 0 66-12 8-24 13-36 14l-5 3c-16 0-28 2-38 7z m-345-8c-7-10-17-12-30-8-8-17-20-28-37-32-5-9-8-18-10-27-17 9-33 13-49 10l-35-43-3-10-2-19-5-22-5-3c-2-12-5-23-10-31 0-18-4-33-10-46 2-6 3-12 2-19-20-31-28-63-22-95 12-13 25-21 40-24l10 2c5 6 9 13 10 19l22 12c7 10 15 17 23 22-7 46 2 85 27 119 5 28 18 51 37 68 26 54 73 62 139 24 21 10 29 23 25 39l-5 7-3 3c-11 10-20 19-25 27v3c-13 4-25 9-35 17l-5 3c-17-2-32-1-45 5z m-1572-15c-50-25-63-56-40-93l9-3c4-32 11-57 22-74s20-33 27-46c16-13 27-23 33-30s24-20 52-39l55-3v-9c-13-15-19-31-18-48-12-15-17-30-15-45-36-79-47-159-34-238 7-5 12-11 16-18 11-7 20-14 27-21 16 0 31 3 43 9v21c-23 44-27 87-12 129-1 34 7 63 24 87-1 38 9 68 31 91 9 45 32 78 67 99 17 24 36 41 55 51l6 18 9 6 49 48c7 32 5 60-6 84-31 20-60 21-89 3v-15l-18-6c-7-16-12-31-12-45l-13-6c-4-15-13-26-28-33-5-12-11-22-18-30-3-20-12-34-28-42-4-12-10-22-18-30-56 16-94 80-113 195-17 7-31 17-40 30-10 0-18 1-25 3z m1901-52l21-5c-5-25-20-41-43-49-17-24-38-33-64-26-7-9-16-13-26-12 2 21 13 36 31 44 16 22 37 33 62 33 6 7 12 11 19 14z m-1197-18l-15-12c-6-10-12-17-18-22v-10c-8-29-16-68-24-115-7-5-12-11-15-18-8-100 16-132 71-96l2 8c-7 16-10 29-10 42 4 12 8 22 13 30 2 11 6 20 13 27 14 52 29 87 44 103-3 38-23 59-61 64z" horiz-adv-x="3500"/>
      <glyph glyph-name="envelope" unicode="&#xF071;" d="M1000 454v-443c0-49-40-89-89-89h-821c-49 0-89 40-89 89v443c17-18 36-35 56-49 93-63 186-126 277-193 47-35 105-77 166-77h2c61 0 119 42 166 77 91 66 185 130 278 193 20 14 39 30 56 49z m0 164c0-63-46-119-95-153-87-60-175-121-261-181-36-25-98-77-143-77h-2c-45 0-107 51-143 77-87 61-174 121-261 181-40 27-96 90-96 141 0 55 30 102 89 102h821c49 0 89-40 89-89z" horiz-adv-x="1000"/>
      <glyph glyph-name="eraser" unicode="&#xF072;" d="M500 64l188 214h-429l-188-214h429z m565 601c11-26 7-55-12-77l-500-571c-13-16-33-25-54-25h-429c-28 0-54 16-65 42s-7 55 12 77l500 571c13 16 33 25 54 25h429c28 0 54-16 65-42z" horiz-adv-x="1071.4"/>
      <glyph glyph-name="eur" unicode="&#xF074;" d="M545 121l20-89c2-9-3-18-11-21-2-1-54-18-121-18-174 0-314 105-361 269h-53c-10 0-18 8-18 18v63c0 10 8 18 18 18h37c-1 18-1 39 1 59h-37c-10 0-18 8-18 18v64c0 10 8 18 18 18h55c50 156 193 260 359 260 58 0 106-12 108-13 4-1 8-4 11-8 2-4 3-9 2-13l-24-89c-2-9-12-15-21-12-1 0-39 10-78 10-94 0-172-51-210-134h261c6 0 11-2 14-7 3-4 5-10 4-15l-13-64c-2-8-9-15-18-15h-272c-2-18-1-37 0-59h256c6 0 11-3 14-7 3-5 5-10 3-15l-13-63c-2-8-9-15-17-15h-216c36-87 116-142 211-142 49 0 88 13 89 13 4 2 10 1 15-1 4-3 7-7 8-12z" horiz-adv-x="571.4"/>
      <glyph glyph-name="exchange" unicode="&#xF075;" d="M1000 189v-107c0-9-8-18-18-18h-768v-107c0-9-8-18-18-18-5 0-10 2-13 6l-178 179c-3 3-5 8-5 12 0 5 2 10 5 13l179 179c3 3 8 5 13 5 10 0 18-8 18-18v-107h768c10 0 18-8 18-18z m0 304c0-5-2-10-5-13l-179-179c-3-3-8-5-13-5-10 0-18 8-18 18v107h-768c-10 0-18 8-18 18v107c0 10 8 18 18 18h768v107c0 10 8 18 18 18 5 0 10-2 13-6l178-178c3-3 5-8 5-13z" horiz-adv-x="1000"/>
      <glyph glyph-name="exclamation" unicode="&#xF077;" d="M286 154v-125c0-20-16-36-36-36h-143c-20 0-36 16-36 36v125c0 20 16 36 36 36h143c20 0 36-16 36-36z m17 589l-16-429c-1-20-17-36-37-36h-143c-20 0-36 16-37 36l-16 429c-1 20 15 36 35 36h179c20 0 35-16 35-36z" horiz-adv-x="357.1"/>
      <glyph glyph-name="expand" unicode="&#xF079;" d="M421 261c0-5-2-10-6-13l-185-185 80-80c7-7 11-16 11-25 0-20-16-36-36-36h-250c-20 0-36 16-36 36v250c0 20 16 36 36 36 10 0 18-4 25-11l80-80 185 185c3 3 8 6 13 6s10-2 13-6l64-64c3-3 6-8 6-13z m436 482v-250c0-20-16-36-36-36-10 0-18 4-25 11l-80 80-185-185c-3-3-8-6-13-6s-10 2-13 6l-64 64c-3 3-6 8-6 13s2 10 6 13l185 185-80 80c-7 7-11 16-11 25 0 20 16 36 36 36h250c20 0 36-16 36-36z" horiz-adv-x="857.1"/>
      <glyph glyph-name="external-link" unicode="&#xF07B;" d="M786 332v-179c0-89-72-161-161-161h-464c-89 0-161 72-161 161v464c0 89 72 161 161 161h393c10 0 18-8 18-18v-36c0-10-8-18-18-18h-393c-49 0-89-40-89-89v-464c0-49 40-89 89-89h464c49 0 89 40 89 89v179c0 10 8 18 18 18h36c10 0 18-8 18-18z m214 482v-286c0-20-16-36-36-36-10 0-18 4-25 11l-98 98-364-364c-3-3-8-6-13-6s-10 2-13 6l-64 64c-3 3-6 8-6 13s2 10 6 13l364 364-98 98c-7 7-11 16-11 25 0 20 16 36 36 36h286c20 0 36-16 36-36z" horiz-adv-x="1000"/>
      <glyph glyph-name="facebook" unicode="&#xF07F;" d="M535 843v-147h-88c-69 0-81-33-81-80v-105h164l-22-165h-142v-424h-171v424h-142v165h142v122c0 141 87 218 213 218 60 0 112-5 127-7z" horiz-adv-x="571.4"/>
      <glyph glyph-name="fast-backward" unicode="&#xF081;" d="M975 771c14 14 25 9 25-11v-821c0-20-11-25-25-11l-396 396c-3 3-6 7-7 11v-396c0-20-11-25-25-11l-396 396c-3 3-6 7-7 11v-378c0-20-16-36-36-36h-71c-20 0-36 16-36 36v786c0 20 16 36 36 36h71c20 0 36-16 36-36v-378c2 4 4 7 7 11l396 396c14 14 25 9 25-11v-396c2 4 4 7 7 11z" horiz-adv-x="1000"/>
      <glyph glyph-name="fast-forward" unicode="&#xF082;" d="M25-71c-14-14-25-9-25 11v821c0 20 11 25 25 11l396-396c3-3 6-7 7-11v396c0 20 11 25 25 11l396-396c3-3 6-7 7-11v378c0 20 16 36 36 36h71c20 0 36-16 36-36v-786c0-20-16-36-36-36h-71c-20 0-36 16-36 36v378c-2-4-4-7-7-11l-396-396c-14-14-25-9-25 11v396c-2-4-4-7-7-11z" horiz-adv-x="1000"/>
      <glyph glyph-name="female" unicode="&#xF083;" d="M714 261c0-30-24-54-54-54-18 0-35 9-45 24l-127 190h-25v-74l138-229c3-6 5-12 5-18 0-20-16-36-36-36h-107v-152c0-35-28-63-63-63h-89c-34 0-63 28-63 63v152h-107c-20 0-36 16-36 36 0 7 2 13 5 18l138 229v74h-25l-127-190c-10-15-27-24-45-24-30 0-54 24-54 54 0 11 3 21 9 30l143 214c22 33 57 60 98 60h214c41 0 76-27 98-60l143-214c6-8 9-19 9-30z m-232 446c0-69-56-125-125-125s-125 56-125 125 56 125 125 125 125-56 125-125z" horiz-adv-x="714.3"/>
      <glyph glyph-name="fighter-jet" unicode="&#xF084;" d="M1071 314s0-18-161-54l-196-18-125-36h-36l-164-196h39c20 0 36-4 36-9s-16-9-36-9h-179v18h36v232h-89l-107-125h-54l-18 18v107h18v18h71v5l-107 13v71l107 13v5h-71v18h-18v107l18 18h54l107-125h89v232h-36v18h179c20 0 36-4 36-9s-16-9-36-9h-39l164-197h36l125-36 196-18c161-36 161-54 161-54z" horiz-adv-x="1071.4"/>
      <glyph glyph-name="file-text" unicode="&#xF087;" d="M819 584c6-6 11-12 16-20h-263v263c8-5 15-10 20-16z m-266-92h304v-589c0-30-24-54-54-54h-750c-30 0-54 24-54 54v893c0 30 24 54 54 54h446v-304c0-30 24-54 54-54z m89-411v36c0 10-8 18-18 18h-393c-10 0-18-8-18-18v-36c0-10 8-18 18-18h393c10 0 18 8 18 18z m0 143v36c0 10-8 18-18 18h-393c-10 0-18-8-18-18v-36c0-10 8-18 18-18h393c10 0 18 8 18 18z m0 143v36c0 10-8 18-18 18h-393c-10 0-18-8-18-18v-36c0-10 8-18 18-18h393c10 0 18 8 18 18z" horiz-adv-x="857.1"/>
      <glyph glyph-name="file" unicode="&#xF088;" d="M571 564v263c8-5 15-10 20-16l228-228c6-6 11-12 16-20h-263z m-71-18c0-30 24-54 54-54h304v-589c0-30-24-54-54-54h-750c-30 0-54 24-54 54v893c0 30 24 54 54 54h446v-304z" horiz-adv-x="857.1"/>
      <glyph glyph-name="film" unicode="&#xF089;" d="M214-43v72c0 20-16 36-36 36h-72c-20 0-36-16-36-36v-72c0-20 16-36 36-36h72c20 0 36 16 36 36z m0 214v72c0 20-16 36-36 36h-72c-20 0-36-16-36-36v-72c0-20 16-36 36-36h72c20 0 36 16 36 36z m0 214v71c0 20-16 36-36 36h-72c-20 0-36-16-36-36v-71c0-20 16-36 36-36h72c20 0 36 16 36 36z m571-429v286c0 20-16 36-36 36h-429c-20 0-36-16-36-36v-286c0-20 16-36 36-36h429c20 0 36 16 36 36z m-571 643v71c0 20-16 36-36 36h-72c-20 0-36-16-36-36v-71c0-20 16-36 36-36h72c20 0 36 16 36 36z m786-643v72c0 20-16 36-36 36h-71c-20 0-36-16-36-36v-72c0-20 16-36 36-36h71c20 0 36 16 36 36z m-214 429v286c0 20-16 36-36 36h-429c-20 0-36-16-36-36v-286c0-20 16-36 36-36h429c20 0 36 16 36 36z m214-214v72c0 20-16 36-36 36h-71c-20 0-36-16-36-36v-72c0-20 16-36 36-36h71c20 0 36 16 36 36z m0 214v71c0 20-16 36-36 36h-71c-20 0-36-16-36-36v-71c0-20 16-36 36-36h71c20 0 36 16 36 36z m0 214v71c0 20-16 36-36 36h-71c-20 0-36-16-36-36v-71c0-20 16-36 36-36h71c20 0 36 16 36 36z m71 89v-750c0-49-40-89-89-89h-893c-49 0-89 40-89 89v750c0 49 40 89 89 89h893c49 0 89-40 89-89z" horiz-adv-x="1071.4"/>
      <glyph glyph-name="filter" unicode="&#xF08A;" d="M783 685c6-13 3-29-8-39l-275-275v-414c0-15-9-27-22-33-4-2-10-3-14-3-10 0-18 3-25 11l-143 143c-7 7-11 16-11 25v271l-275 275c-11 10-13 26-8 39 6 13 18 22 33 22h714c15 0 27-9 33-22z" horiz-adv-x="785.7"/>
      <glyph glyph-name="fire-extinguisher" unicode="&#xF08B;" d="M286 743c0 20-16 36-36 36s-36-16-36-36 16-36 36-36 36 16 36 36z m500 18v-179c0-6-2-11-7-14-3-3-7-4-11-4-1 0-2 0-4 1l-250 54c-8 2-14 9-14 17h-143v-57c82-17 143-89 143-175v-447c0-20-16-36-36-36h-286c-20 0-36 16-36 36v447c0 80 52 148 125 170v62h-18c-118 0-182-122-183-123-6-12-19-20-32-20-6 0-11 1-16 4-17 9-25 30-16 48 3 6 59 114 171 150-8 14-14 30-14 48 0 49 40 89 89 89s89-40 89-89c0-13-3-25-8-36h169c0 8 6 16 14 17l250 54c2 1 3 1 4 1 4 0 8-1 11-4 5-3 7-8 7-14z" horiz-adv-x="785.7"/>
      <glyph glyph-name="fire" unicode="&#xF08C;" d="M786-96v-36c0-10-8-18-18-18h-750c-10 0-18 8-18 18v36c0 10 8 18 18 18h750c9 0 18-8 18-18z m-143 589c0-214-250-233-250-375 0-39 20-91 37-125l-2 1 1-1c-154 71-286 169-286 357 0 214 250 233 250 375 0 39-20 91-37 125l2-1-1 1c154-71 286-169 286-357z" horiz-adv-x="785.7"/>
      <glyph glyph-name="flag-checkered" unicode="&#xF08E;" d="M464 292v107c-68-6-150-34-214-65v-103c65 30 145 56 214 61z m0 233v110c-70-3-153-36-214-70v-105c66 34 145 63 214 66z m464-258v103c-51-25-140-63-214-40v125c-7 2-15 5-22 8-64 32-117 63-201 63-9 0-18-1-27-2v-124h11c84 0 153-30 218-62 7-3 15-6 22-8v-105c15-6 32-10 51-10 62 0 129 33 164 51z m0 238v106c-45-24-107-51-171-51-15 0-30 1-44 5v-109c75-21 164 22 214 50z m-750 202c0-26-15-49-36-61v-707c0-10-8-18-18-18h-36c-10 0-18 8-18 18v707c-21 12-36 35-36 61 0 40 32 72 71 72s72-32 72-72z m821-36v-426c0-13-8-26-20-32-2-1-6-3-10-5-36-19-120-65-206-65-33 0-63 7-88 20l-16 8c-56 29-101 51-170 51-80 0-194-42-259-82-6-3-12-5-18-5s-12 2-18 5c-11 7-18 18-18 31v414c0 12 7 24 17 31 36 21 162 91 279 91 93 0 169-34 233-65 15-7 31-11 50-11 66 0 138 42 173 63 7 4 13 7 17 10 11 6 24 5 35-1 11-7 17-18 17-31z" horiz-adv-x="1000"/>
      <glyph glyph-name="flag" unicode="&#xF08F;" d="M179 707c0-26-14-49-36-61v-707c0-10-8-18-18-18h-36c-10 0-18 8-18 18v707c-22 13-36 36-36 61 0 40 32 72 71 72s72-32 72-72z m821-36v-426c0-21-13-28-29-37-63-34-133-65-206-65-103 0-152 78-274 78-89 0-182-40-259-82-6-3-12-5-18-5-20 0-36 16-36 36v414c0 13 7 23 17 31 13 9 30 17 44 24 70 36 156 67 235 67 88 0 156-29 234-65 16-8 32-11 49-11 88 0 182 76 207 76 20 0 36-16 36-36z" horiz-adv-x="1000"/>
      <glyph glyph-name="flickr" unicode="&#xF090;" d="M696 779c89 0 161-72 161-161v-536c0-89-72-161-161-161h-536c-89 0-161 72-161 161v536c0 89 72 161 161 161h536z m-307-429c0 65-53 118-118 118s-118-53-118-118 53-118 118-118 118 53 118 118z m315 0c0 65-53 118-118 118s-118-53-118-118 53-118 118-118 118 53 118 118z" horiz-adv-x="857.1"/>
      <glyph glyph-name="folder-open" unicode="&#xF094;" d="M1049 319c0-13-8-27-17-37l-188-221c-32-38-98-68-147-68h-607c-20 0-49 6-49 31 0 13 8 27 17 37l188 221c32 38 98 68 147 68h607c20 0 49-6 49-31z m-191 192v-89h-464c-70 0-156-40-202-93l-188-221-3-3c0 5-1 10-1 14v536c0 69 56 125 125 125h179c69 0 125-56 125-125v-18h304c69 0 125-56 125-125z" horiz-adv-x="1071.4"/>
      <glyph glyph-name="font" unicode="&#xF095;" d="M405 538l-95-251c55-1 111-2 166-2 11 0 21 1 32 1-29 85-63 171-103 252z m-405-617l1 44c53 16 109 5 133 65l132 344 156 404h72c2-4 4-8 6-12l114-268c42-99 80-199 123-297 25-58 45-118 73-175 4-9 12-26 20-32 19-15 70-18 96-28 2-11 3-21 3-32 0-5-1-9-1-15-71 0-142 9-213 9-73 0-146-6-219-8 0 15 1 29 2 44l73 16c15 3 45 7 45 28 0 20-72 186-81 209l-251 1c-15-32-71-179-71-200 0-43 82-45 114-49 1-11 1-21 1-32 0-5-1-10-1-15-65 0-130 11-195 11-8 0-19-3-27-5-35-6-70-8-105-8z" horiz-adv-x="928.6"/>
      <glyph glyph-name="forward" unicode="&#xF097;" d="M25-71c-14-14-25-9-25 11v821c0 20 11 25 25 11l396-396c3-3 6-7 7-11v396c0 20 11 25 25 11l396-396c14-14 14-36 0-50l-396-396c-14-14-25-9-25 11v396c-2-4-4-7-7-11z" horiz-adv-x="928.6"/>
      <glyph glyph-name="foursquare" unicode="&#xF098;" d="M558 608l21 108c4 18-10 32-25 32h-397c-18 0-30-16-30-30v-614c0-2 2-2 3-1 146 176 162 196 162 196 17 20 23 23 48 23h133c18 0 29 16 31 25s17 90 21 107-12 33-27 33h-164c-22 0-37 16-37 37v24c0 22 16 37 37 37h193c13 0 29 12 31 24z m127 124c-21-101-83-418-88-441-7-26-17-72-80-72h-151c-6 0-7 1-12-6 0 0-4-5-238-276-19-21-49-17-60-13s-31 18-31 55v787c0 32 20 84 88 84h496c73 0 92-41 76-118z m0 0l-88-441c6 23 68 341 88 441z" horiz-adv-x="714.3"/>
      <glyph glyph-name="gamepad" unicode="&#xF09B;" d="M464 243v71c0 10-8 18-18 18h-107v107c0 10-8 18-18 18h-71c-10 0-18-8-18-18v-107h-107c-10 0-18-8-18-18v-71c0-10 8-18 18-18h107v-107c0-10 8-18 18-18h71c10 0 18 8 18 18v107h107c10 0 18 8 18 18z m321-36c0 40-32 72-71 72s-71-32-71-72 32-71 71-71 71 32 71 71z m143 143c0 40-32 71-72 71s-71-32-71-71 32-71 71-71 72 32 72 71z m143-71c0-158-128-286-286-286-73 0-138 27-189 71h-123c-50-44-116-71-189-71-158 0-286 128-286 286s128 286 286 286h500c158 0 286-128 286-286z" horiz-adv-x="1071.4"/>
      <glyph glyph-name="gbp" unicode="&#xF09C;" d="M569 216v-205c0-10-8-18-18-18h-533c-10 0-18 8-18 18v84c0 10 8 18 18 18h54v214h-53c-10 0-18 8-18 18v73c0 10 8 18 18 18h53v125c0 127 103 219 244 219 112 0 184-67 187-70 7-6 7-17 2-24l-58-71c-3-4-7-6-12-7s-10 1-13 4c-1 1-49 39-105 39-63 0-105-38-105-95v-120h170c10 0 18-8 18-18v-73c0-10-8-18-18-18h-170v-212h231v101c0 10 8 18 18 18h90c10 0 18-8 18-18z" horiz-adv-x="571.4"/>
      <glyph glyph-name="gift" unicode="&#xF09D;" d="M518 93v399h-179v-399c0-20 16-29 36-29h107c20 0 36 10 36 29z m-255 471h109l-70 90c-6 7-20 17-39 17-30 0-54-24-54-54s24-54 54-54z m384 54c0 30-24 54-54 54-19 0-32-10-39-17l-70-90h108c30 0 54 24 54 54z m210-143v-179c0-10-8-18-18-18h-54v-232c0-30-24-54-54-54h-607c-30 0-54 24-54 54v232h-54c-10 0-18 8-18 18v179c0 10 8 18 18 18h246c-69 0-125 56-125 125s56 125 125 125c37 0 72-16 94-43l72-92 71 92c22 27 56 43 94 43 69 0 125-56 125-125s-56-125-125-125h246c10 0 18-8 18-18z" horiz-adv-x="857.1"/>
      <glyph glyph-name="github-alt" unicode="&#xF09E;" d="M357 171c0-41-21-107-71-107s-71 66-71 107 21 107 71 107 71-66 71-107z m357 0c0-41-21-107-71-107s-72 66-72 107 21 107 72 107 71-66 71-107z m89 0c0 85-52 161-143 161-37 0-72-7-109-12-29-4-58-6-88-6s-59 2-88 6c-36 5-72 12-109 12-91 0-143-75-143-161 0-171 156-197 292-197h94c136 0 292 26 292 197z m125 98c0-62-6-128-34-185-74-149-276-164-421-164-147 0-362 13-439 164-29 56-35 123-35 185 0 82 22 159 76 221-10 31-15 63-15 95 0 42 10 84 29 122 88 0 145-39 212-91 56 13 114 20 172 20 53 0 106-6 156-18 66 52 123 89 210 89 19-38 28-80 28-122 0-32-5-64-15-94 54-63 76-141 76-222z" horiz-adv-x="928.6"/>
      <glyph glyph-name="github" unicode="&#xF0A0;" d="M429 779c237 0 429-192 429-429 0-189-123-350-293-407-22-4-30 10-30 21 0 14 1 60 1 118 0 40-13 66-29 79 96 11 196 47 196 212 0 47-17 85-44 115 5 11 19 55-4 114-36 11-118-44-118-44-34 10-71 15-107 15s-73-5-107-15c0 0-82 55-118 44-24-59-9-103-5-114-27-30-44-68-44-115 0-164 100-201 195-212-12-11-23-30-27-58-25-11-87-30-124 36-24 41-66 44-66 44-42 1-3-26-3-26 28-13 48-63 48-63 25-76 145-51 145-51 0-36 1-69 1-80s-8-25-30-21c-170 57-293 218-293 407 0 237 192 429 429 429z m-266-616c1 2-1 5-4 7-3 1-6 1-7-1s1-5 4-7 6-1 7 1z m17-19c2 2 2 6-1 9s-7 4-9 2-2-6 1-9 7-4 9-2z m17-25c3 2 3 7 0 11-2 4-7 6-10 3-3-2-3-6 0-10s7-6 10-4z m24-24c2 2 1 7-2 11-4 4-9 5-11 2-3-2-2-7 2-11s9-5 11-2z m32-14c1 3-2 7-7 9-4 1-10-1-11-4s2-7 7-8c4-2 10 0 11 3z m35-3c0 4-4 7-10 6-5 0-9-3-9-6 0-4 4-7 10-6 5 0 9 3 9 6z m32 6c-1 3-5 6-10 5s-8-5-8-8c1-3 5-6 10-4s8 4 8 8z" horiz-adv-x="857.1"/>
      <glyph glyph-name="glass" unicode="&#xF0A2;" d="M948 746c0-16-13-32-24-44l-353-353v-429h179c20 0 36-16 36-36s-16-36-36-36h-500c-20 0-36 16-36 36s16 36 36 36h179v429l-353 353c-11 11-24 27-24 44 0 27 35 32 55 32h786c21 0 55-5 55-32z" horiz-adv-x="1000"/>
      <glyph glyph-name="globe" unicode="&#xF0A3;" d="M429 779c237 0 429-192 429-429s-192-429-429-429-429 192-429 429 192 429 429 429z m153-291c-5-3-7-10-13-11 3 1 6 11 7 13 3 4 8 6 12 8 10 4 19 5 29 7s21 2 28-6c-2 2 12 13 13 14 5 3 13 2 17 7 1 2 1 12 1 12-10-1-13 8-13 16 0-1-1-2-3-4 1 8-10 2-14 3-13 3-11 12-15 22-2 5-8 7-11 12-2 3-3 11-8 11-3 1-10-12-11-11-5 3-7-1-11-3-3-2-6-1-10-3 10 3-4 9-10 8 8 2 4 11-1 15h3c-1 5-17 10-22 13s-32 9-37 6c-7-4 2-15 2-21 1-7-7-8-7-14 0-10 18-8 13-21-3-8-13-10-18-16-4-6 1-16 5-20 5-3-8-9-9-10-10-5-17 9-19 18-2 6-2 13-9 17-3 1-14 3-16-1-3 8-15 12-23 15-11 4-21 4-32 2 4 1-1 18-11 15 3 6 2 12 3 17s3 9 7 13c1 2 13 15 10 16 10-1 20-2 28 6 5 5 7 13 12 19 7 8 16-2 24-3 11-1 11 12 4 17 7-1 1 13-3 15-5 2-24-3-14-7-2 1-16-27-23-13-2 3-3 15-8 15s-7-5-9-8c3 7-16 12-20 13 8 6 2 12-4 15-5 3-19 5-22 1-11-13 11-15 17-18 2-1 8-5 4-8-3-2-13-5-15-7-3-5 4-11-1-16-5 5-5 13-9 19 5-6-20-3-20-3-8 0-22-6-28 3-1 2-1 15 2 12-5 4-8 8-12 10-18-6-36-14-53-23 2-1 4-1 7 1 5 2 8 5 13 7 6 2 17 9 24 4 1 1 2 2 3 3 4-4 8-9 11-14-4 2-12 1-17 1-4-1-11-2-12-7 2-3 4-7 3-10-7 5-13 13-23 15-4 0-9 0-12-1-54-30-99-73-131-124 2-2 5-4 7-5 6-2 0-18 11-10 3-3 4-7 2-11 1 1 23-14 25-15 4-3 10-7 12-12 1-4-2-8-6-10-1 1-9 10-10 7-2-3 0-18 6-17-9-1-5-35-7-42 0-1 1-1 1-1-2-7 4-33 15-30-7-2 13-27 16-29 7-5 16-8 21-16 6-8 6-20 13-26-2-7 12-15 11-24-1-1-2-1-3-1 3-8 13-8 17-15 2-5 0-15 7-13 1 12-7 25-13 35-3 6-7 11-10 16s-3 11-6 17c2-1 15-5 13-7-4-11 18-31 24-38 2-2 15-19 8-19 7 0 17-11 21-17 5-8 4-19 7-28 3-11 19-16 28-21 8-4 15-10 22-12 12-4 15-1 25 1 15 2 16-14 28-20 7-4 23-9 31-6-3-1 12-24 13-26 5-7 15-10 20-17 2 1 3 3 4 5-2-6 8-18 14-17s8 13 8 18c-11-6-21-1-27 10-1 3-10 18-2 18 11 0 3 8 2 16s-9 13-13 20c-3-7-15-5-18 1 0-2-2-5-2-7-3 0-6-1-8 1 1 7 2 15 3 22 3 10 21 30-3 29-8-1-12-4-15-11s-2-13-10-16c-5-2-22-1-27 2-11 6-18 26-18 37-1 15 7 28 0 42 3 3 7 8 11 11 3 2 7-2 9 5-2 1-4 3-5 3 8-4 24 6 31 0 4-3 9-5 12 1 1 2-4 8-2 13 2-10 8-11 16-5 3-3 12-2 19-6 6-4 7-10 15-2 4-7 5-7 7-13s5-22 11-25c12-7 9 12 8 19-1 1-1 19-1 19-18 4-11 18-1 27 2 1 15 6 20 10s11 12 8 20c3 0 5 2 6 5-2 1-8 6-9 6 4 2 3 6 1 9 6 3 3 10 8 12 6-8 19 1 12 8 6 8 18 4 22 11 8-2 2 8 7 15 4 5 11 5 16 8 0-1 14 8 10 8 10-1 29 9 14 17 2 5-5 7-10 8 4 1 9-1 12 1 7 5 2 7-4 9-8 2-18-3-24-7z m-91-489c77 13 145 51 196 106-3 3-10 2-14 5-4 2-8 3-13 4 1 11-11 15-19 21-7 6-12 12-22 10-1-1-12-5-10-7-7 6-11 10-20 12-9 3-15 14-24 4-4-5-2-11-4-16-7 6 7 13 1 20-7 8-18-5-24-8-3-3-7-4-10-7-3-4-4-9-6-13-2 4-11 3-12 7 2-13 2-27 5-41 2-8 0-21-7-27s-15-13-16-22c-1-7 1-13 7-15 1-8-9-15-8-23 0-1 1-6 1-9z" horiz-adv-x="857.1"/>
      <glyph glyph-name="google-plus" unicode="&#xF0A5;" d="M802 341c0-234-157-400-393-400-226 0-409 183-409 409s183 409 409 409c111 0 203-40 274-107l-111-107c-30 29-83 63-163 63-140 0-253-116-253-258s114-258 253-258c162 0 223 117 232 176h-232v141h386c4-21 7-41 7-68z m484 68v-117h-117v-117h-117v117h-117v117h117v117h117v-117h117z" horiz-adv-x="1285.7"/>
      <glyph glyph-name="headphones" unicode="&#xF0AD;" d="M929 356c0-61-11-120-34-175l-11-27-103-18c-16-61-71-106-138-106v-18c0-10-8-18-18-18h-36c-10 0-18 8-18 18v321c0 10 8 18 18 18h36c10 0 18-8 18-18v-18c54 0 100-30 124-73l38 7c11 35 16 70 16 108 0 169-167 316-357 316s-357-147-357-316c0-37 6-73 16-108l38-7c25 44 71 73 124 73v18c0 10 8 18 18 18h36c10 0 18-8 18-18v-321c0-10-8-18-18-18h-36c-10 0-18 8-18 18v18c-66 0-122 45-138 106l-103 18-11 27c-22 55-34 114-34 175 0 229 213 423 464 423s464-194 464-423z" horiz-adv-x="928.6"/>
      <glyph glyph-name="heart" unicode="&#xF0AF;" d="M500-79c-9 0-18 3-25 10l-348 336c-4 4-127 116-127 250 0 164 100 261 267 261 98 0 189-77 233-121 44 44 136 121 233 121 167 0 267-98 267-261 0-134-123-246-128-251l-348-335c-7-7-16-10-25-10z" horiz-adv-x="1000"/>
      <glyph glyph-name="home" unicode="&#xF0B0;" d="M786 296v-268c0-20-16-36-36-36h-214v214h-143v-214h-214c-20 0-36 16-36 36v268c0 1 1 2 1 3l321 265 321-265c1-1 1-2 1-3z m125 39l-35-41c-3-3-7-6-12-6h-2c-5 0-8 1-12 4l-386 322-386-322c-4-3-8-5-13-4-4 1-9 3-12 6l-35 41c-6 7-5 19 2 25l401 334c23 20 61 20 85 0l136-114v109c0 10 8 18 18 18h107c10 0 18-8 18-18v-228l122-102c7-6 8-18 2-25z" horiz-adv-x="928.6"/>
      <glyph glyph-name="html5" unicode="&#xF0B2;" d="M631 517l9 98h-493l26-298h342l-12-127-110-30-109 30-7 78h-98l12-155 202-56h2v1l200 55 28 304h-359l-8 101h376z m-631 262h786l-71-803-323-90-320 90z" horiz-adv-x="785.7"/>
      <glyph glyph-name="inbox" unicode="&#xF0B3;" d="M571 314h176c-1 3-2 6-3 9l-118 277h-395l-118-277c-1-3-2-6-3-9h176l53-107h179z m286-17v-269c0-20-16-36-36-36h-786c-20 0-36 16-36 36v269c0 20 6 50 14 69l133 308c8 18 30 33 50 33h464c20 0 42-15 50-33l133-308c8-19 14-49 14-69z" horiz-adv-x="857.1"/>
      <glyph glyph-name="info" unicode="&#xF0B7;" d="M357 100v-71c0-20-16-36-36-36h-286c-20 0-36 16-36 36v71c0 20 16 36 36 36h36v214h-36c-20 0-36 16-36 36v71c0 20 16 36 36 36h214c20 0 36-16 36-36v-321h36c20 0 36-16 36-36z m-71 643v-107c0-20-16-36-36-36h-143c-20 0-36 16-36 36v107c0 20 16 36 36 36h143c20 0 36-16 36-36z" horiz-adv-x="357.1"/>
      <glyph glyph-name="inr" unicode="&#xF0B8;" d="M501 588v-57c0-10-8-18-18-18h-94c-17-107-99-177-226-192 83-89 172-196 256-299 5-5 6-13 2-19-3-6-9-10-16-10h-109c-6 0-11 2-14 7-90 108-172 206-278 319-3 3-5 8-5 12v71c0 10 8 18 18 18h63c98 0 160 33 176 94h-238c-10 0-18 8-18 18v57c0 10 8 18 18 18h230c-21 42-71 63-150 63h-81c-10 0-18 8-18 18v74c0 10 8 18 18 18h464c10 0 18-8 18-18v-57c0-10-8-18-18-18h-130c18-23 30-50 36-80h96c10 0 18-8 18-18z" horiz-adv-x="501.1"/>
      <glyph glyph-name="instagram" unicode="&#xF0B9;" d="M571 350c0 79-64 143-143 143s-143-64-143-143 64-143 143-143 143 64 143 143z m77 0c0-122-98-220-220-220s-220 98-220 220 98 220 220 220 220-98 220-220z m60 229c0-29-23-51-51-51s-51 23-51 51 23 51 51 51 51-23 51-51z m-280 123c-63 0-197 5-253-17-20-8-34-17-49-32s-25-30-32-49c-22-56-17-190-17-253s-5-196 17-253c8-20 17-34 32-49s30-25 49-32c56-22 190-17 253-17s196-5 253 17c20 8 34 17 49 32s25 30 32 49c22 56 17 190 17 253s5 196-17 253c-8 20-17 34-32 49s-30 25-49 32c-56 22-190 17-253 17z m429-352c0-59 1-118-3-177-3-69-19-130-69-180s-111-66-180-69c-59-3-118-3-177-3s-118-1-177 3c-69 3-130 19-180 69s-66 111-69 180c-3 59-3 118-3 177s-1 118 3 177c3 69 19 130 69 180s111 66 180 69c59 3 118 3 177 3s118 1 177-3c69-3 129-19 180-69s66-111 69-180c3-59 3-118 3-177z" horiz-adv-x="857.1"/>
      <glyph glyph-name="italic" unicode="&#xF0BA;" d="M0-78l10 48c36 11 74 16 108 33 13 16 19 37 23 56 7 38 129 585 127 630v14c-31 17-68 12-102 18l11 58c72-3 145-9 218-9 59 0 118 6 177 9-2-17-6-34-11-50-39-13-79-20-117-35-12-30-15-63-21-95-27-145-63-289-92-432-6-27-33-138-31-161l1-10c34-8 69-12 103-17-1-18-4-37-9-55-12 0-24-2-36-2-32 0-65 11-97 11-39 1-77 1-115 1-50 0-98-8-147-11z" horiz-adv-x="571.4"/>
      <glyph glyph-name="jpy" unicode="&#xF0BB;" d="M337-7h-96c-10 0-18 8-18 18v184h-161c-10 0-18 8-18 18v58c0 10 8 18 18 18h161v47h-161c-10 0-18 8-18 18v58c0 10 8 18 18 18h120l-179 323c-3 6-3 12 0 18s10 9 16 9h108c7 0 13-4 16-10l120-237c13-26 22-49 31-70 10 24 22 47 32 72l107 234c3 7 10 11 16 11h107c6 0 12-3 15-9 3-5 3-12 1-17l-175-323h120c10 0 18-8 18-18v-58c0-10-8-18-18-18h-162v-47h162c10 0 18-8 18-18v-58c0-10-8-18-18-18h-162v-184c0-10-8-18-18-18z" horiz-adv-x="573.1"/>
      <glyph glyph-name="key" unicode="&#xF0BC;" d="M464 564c0 59-48 107-107 107s-107-48-107-107c0-16 4-32 11-46-15 7-30 11-46 11-59 0-107-48-107-107s48-107 107-107 107 48 107 107c0 16-4 32-11 46 15-7 30-11 46-11 59 0 107 48 107 107z m475-393c0-13-51-64-64-64-15 0-60 52-71 64l-54-54 123-123c10-10 16-24 16-38 0-31-36-67-67-67-14 0-28 6-38 16l-375 374c-59-44-130-73-204-73-122 0-205 84-205 205 0 183 183 366 366 366 121 0 205-84 205-205 0-74-30-145-73-204l198-198 54 54c-12 12-64 57-64 71 0 13 51 64 64 64 5 0 10-2 13-6 21-21 176-167 176-184z" horiz-adv-x="1000"/>
      <glyph glyph-name="krw" unicode="&#xF0BE;" d="M287 183l45 167h-89l42-167c1-1 1-2 1-3 0 1 1 3 1 4z m65 238l20 72h-163l18-72h126z m107 0h78l-20 72h-39z m251-239l44 167h-90l45-167c1-2 1-3 1-4 0 1 1 2 1 3z m62 239l18 72h-166l19-72h128z m229-18v-36c0-10-8-18-18-18h-119l-92-344c-2-8-10-13-17-13h-89c-8 0-15 6-17 13l-93 344h-117l-93-344c-2-8-9-13-17-13h-89c-8 0-15 6-17 13l-89 344h-116c-10 0-18 8-18 18v36c0 10 8 18 18 18h98l-18 72h-79c-10 0-18 8-18 18v36c0 10 8 18 18 18h61l-50 192c-2 6-1 11 3 16 3 4 9 7 15 7h77c8 0 16-6 17-13l50-201h200l54 201c2 8 9 13 17 13h70c8 0 15-6 17-13l55-201h204l52 201c2 8 9 13 17 13h77c6 0 11-3 15-7 3-5 5-11 3-16l-51-192h62c10 0 18-8 18-18v-36c0-10-8-18-18-18h-81l-19-72h100c10 0 18-8 18-18z" horiz-adv-x="1000"/>
      <glyph glyph-name="laptop" unicode="&#xF0C0;" d="M232 136c-49 0-89 40-89 89v393c0 49 40 89 89 89h607c49 0 89-40 89-89v-393c0-49-40-89-89-89h-607z m-18 482v-393c0-10 8-18 18-18h607c10 0 18 8 18 18v393c0 9-8 18-18 18h-607c-9 0-18-8-18-18z m768-518h89v-54c0-30-40-54-89-54h-893c-49 0-89 24-89 54v54h982z m-402-54c5 0 9 4 9 9s-4 9-9 9h-89c-5 0-9-4-9-9s4-9 9-9h89z" horiz-adv-x="1071.4"/>
      <glyph glyph-name="leaf" unicode="&#xF0C1;" d="M714 457c0 20-16 36-36 36-198 0-325-83-454-225-7-7-11-15-11-25 0-20 16-36 36-36 10 0 18 4 25 11 27 25 52 51 79 77 101 91 188 127 325 127 20 0 36 16 36 36z m286 111c0-36-4-72-11-108-36-174-147-286-302-363-75-38-160-60-244-60-54 0-109 9-160 26-27 9-80 44-103 44-28 0-61-114-110-114-35 0-46 17-61 43-5 10-9 13-9 25 0 58 111 103 111 136 0 5-15 35-17 46-3 19-5 39-5 58 0 177 141 304 300 357 114 38 358-6 435 68 31 28 46 55 93 55 63 0 84-164 84-211z" horiz-adv-x="1000"/>
      <glyph glyph-name="level-down" unicode="&#xF0C4;" d="M18 707h393c10 0 18-8 18-18v-482h107c14 0 26-8 32-21s4-28-5-39l-179-214c-13-16-41-16-55 0l-179 214c-9 11-11 26-5 39 6 12 18 21 32 21h107v357h-179c-5 0-10 2-14 6l-89 107c-5 5-5 13-2 19s10 11 16 11z" horiz-adv-x="571.4"/>
      <glyph glyph-name="level-up" unicode="&#xF0C5;" d="M568 514c-6-13-18-21-32-21h-107v-482c0-10-8-18-18-18h-393c-7 0-13 4-16 10-3 7-2 14 2 20l89 107c3 4 9 6 14 6h179v357h-107c-14 0-26 8-32 21-6 12-4 27 5 38l179 214c13 16 41 16 55 0l179-214c9-11 11-26 5-38z" horiz-adv-x="571.4"/>
      <glyph glyph-name="link" unicode="&#xF0C7;" d="M813 171c0 15-6 28-16 38l-116 116c-10 10-24 16-38 16-16 0-29-6-40-18 18-18 40-34 40-63 0-30-24-54-54-54-29 0-44 22-63 40-12-11-18-24-18-41 0-14 6-28 16-38l115-116c10-10 24-15 38-15s28 5 38 15l82 81c10 10 16 24 16 37z m-392 393c0 14-6 28-16 38l-115 116c-10 10-24 16-38 16s-28-6-38-15l-82-82c-10-10-16-23-16-37 0-15 6-28 16-38l116-116c10-10 24-15 38-15 16 0 29 6 40 17-18 18-40 34-40 63 0 30 24 54 54 54 28 0 44-22 63-40 12 11 18 24 18 41z m499-393c0-42-17-84-47-113l-82-81c-30-30-71-46-113-46-43 0-84 17-114 47l-115 116c-30 30-46 71-46 113 0 44 18 86 49 117l-49 49c-31-31-72-49-116-49-42 0-84 17-114 47l-116 116c-31 31-47 71-47 114 0 42 17 84 48 113l82 82c30 30 71 46 113 46 43 0 84-17 114-48l115-116c30-30 46-71 46-113 0-44-18-86-49-117l49-49c31 31 72 49 116 49 42 0 84-17 114-47l116-116c31-31 47-71 47-114z" horiz-adv-x="928.6"/>
      <glyph glyph-name="linkedin" unicode="&#xF0C9;" d="M195 501v-553h-184v553h184z m12 171c1-53-40-95-104-95h-1c-62 0-102 42-102 95 0 54 41 95 104 95s102-41 103-95z m651-407v-317h-184v296c0 74-27 125-93 125-51 0-81-34-94-67-4-12-6-29-6-45v-309h-184c2 501 0 553 0 553h184v-80h-1c24 38 68 93 167 93 121 0 212-79 212-249z" horiz-adv-x="857.1"/>
      <glyph glyph-name="linux" unicode="&#xF0CA;" d="M370 621c-11-1-7-11-13-11-6-1-5 12 13 11z m49-8c-6-2-6 9-16 6 16 7 22-4 16-6z m-196-238c-5 2-4-8-9-16-4-7-14-13-6-14 3-1 11 6 14 14 3 10 6 15 1 16z m477-200c0 10-22 20-31 24 15 50 8 70-2 118-8 36-41 84-66 99 7-6 19-22 32-46 22-42 45-104 30-155-6-20-19-23-28-24-39-4-16 47-32 117-18 78-37 84-42 90-23 102-48 92-55 130-6 34 30 62-19 71-15 3-36 18-45 19s-13 56 18 58 36-35 31-49c-9-15 1-20 16-15 12 4 5 36 7 41-8 47-27 54-48 58-77-6-42-91-50-83-11 12-44 1-44 8 1 44-14 69-34 69-22 1-31-31-32-49-2-17 9-52 18-49 6 2 15 13 5 12-5 0-13 12-14 27s5 29 24 28c22-1 22-44 20-46-7-5-16-15-17-16-7-12-21-15-27-20-10-10-12-21-4-25 26-15 17-31 53-32 23-1 41 3 57 8 12 4 52 12 60 27 4 6 8 6 11 5 6-3 7-13-7-17-20-6-39-16-57-23-17-7-23-10-39-13-37-7-64 13-40-11 8-8 16-13 37-12 47 2 99 58 104 33 1-6-15-12-27-18-44-21-74-64-102-49-25 13-50 75-50 48 1-43-56-81-30-130-17-4-56-87-61-129-3-25 2-55-4-71-8-25-46 23-34 82 2 10 0 12-3 7-15-27-7-66 6-93 5-12 18-17 27-27 20-22 97-79 110-93 17-16 12-54-24-58 19-35 36-38 36-94 21 11 13 36 4 51-6 11-14 16-12 19 1 2 12 11 18 4 19-21 55-25 93-20 39 4 80 18 99 49 9 15 15 20 19 17 5-2 6-12 6-29-1-18-8-36-13-51-5-17-7-29 10-30 4 31 13 62 16 93 3 36-23 102 5 135 7 9 16 10 29 10 2 45 70 41 93 23z m-351 462c2 14-4 24-8 25-7 2-6-8-2-7 2 0 5-3 4-8-1-7-1-11 5-11 1 0 2 0 2 2z m234-110c-2 11-10 7-19 12-11 7-13 18-17 14-12-13 15-40 26-42 7-1 12 8 10 16z m-99 119c1 13-11 20-14 20-7-1-5-4-2-5 5-1 9-9 10-17 0-1 6 1 6 3z m30 130c1 3-7 6-12 10-4 5-9 8-13 8-11-1-6-13-7-18-2-6-11-11-5-16 5-4 8 6 19 10 3 1 16-1 19 6z m315-748c69-42-26-78-66-98-32-16-74-52-90-67-12-11-60-17-88-3-32 16-15 42-64 44-25 1-49 1-73 1-21-1-42-2-64-2-74-2-81-49-128-47-32 1-73 27-143 41-49 10-97 13-107 35s12 46 14 68c2 29-21 67-5 82 15 13 45 3 65 15 21 12 30 22 30 48 8-27-1-49-18-59-11-7-30-10-46-8-13 1-21-1-24-6-5-6-3-17 3-32s13-24 12-42-21-39-17-54c1-6 7-11 21-15 22-6 63-12 103-22 44-11 90-31 118-27 85 12 36 103 23 124-72 113-120 186-157 157-10-8-10 19-10 30 2 37 20 50 31 79 21 54 37 116 70 148 24 31 62 82 69 109-6 58-8 120-9 173-1 58 8 108 73 143 16 8 36 12 58 12 39 1 81-11 109-31 44-32 71-101 68-150-2-39 5-78 17-119 15-49 37-83 74-122 44-47 79-139 89-198 9-55-3-89-15-90-18-3-29-59-85-57-36 2-39 23-49 41-16 28-32 20-39-11-3-15-1-37 4-54 10-35 7-68 1-109-12-77 54-92 98-55 44 36 53 42 108 61 83 29 55 54 11 69-40 13-42 81-27 94 3-73 41-83 57-93z" horiz-adv-x="857.1"/>
      <glyph glyph-name="list-alt" unicode="&#xF0CB;" d="M214 189v-36c0-10-8-18-18-18h-36c-10 0-18 8-18 18v36c0 10 8 18 18 18h36c10 0 18-8 18-18z m0 143v-36c0-10-8-18-18-18h-36c-10 0-18 8-18 18v36c0 10 8 18 18 18h36c10 0 18-8 18-18z m0 143v-36c0-10-8-18-18-18h-36c-10 0-18 8-18 18v36c0 10 8 18 18 18h36c10 0 18-8 18-18z m643-286v-36c0-10-8-18-18-18h-536c-10 0-18 8-18 18v36c0 10 8 18 18 18h536c10 0 18-8 18-18z m0 143v-36c0-10-8-18-18-18h-536c-10 0-18 8-18 18v36c0 10 8 18 18 18h536c10 0 18-8 18-18z m0 143v-36c0-10-8-18-18-18h-536c-10 0-18 8-18 18v36c0 10 8 18 18 18h536c10 0 18-8 18-18z m72-393v464c0 10-8 18-18 18h-821c-10 0-18-8-18-18v-464c0-9 8-18 18-18h821c10 0 18 8 18 18z m71 607v-607c0-49-40-89-89-89h-821c-49 0-89 40-89 89v607c0 49 40 89 89 89h821c49 0 89-40 89-89z" horiz-adv-x="1000"/>
      <glyph glyph-name="list" unicode="&#xF0CC;" d="M143 118v-107c0-10-8-18-18-18h-107c-10 0-18 8-18 18v107c0 9 8 18 18 18h107c10 0 18-8 18-18z m0 214v-107c0-10-8-18-18-18h-107c-10 0-18 8-18 18v107c0 10 8 18 18 18h107c10 0 18-8 18-18z m0 214v-107c0-10-8-18-18-18h-107c-10 0-18 8-18 18v107c0 10 8 18 18 18h107c10 0 18-8 18-18z m857-429v-107c0-10-8-18-18-18h-750c-9 0-18 8-18 18v107c0 9 8 18 18 18h750c10 0 18-8 18-18z m-857 643v-107c0-10-8-18-18-18h-107c-10 0-18 8-18 18v107c0 10 8 18 18 18h107c10 0 18-8 18-18z m857-429v-107c0-10-8-18-18-18h-750c-9 0-18 8-18 18v107c0 10 8 18 18 18h750c10 0 18-8 18-18z m0 214v-107c0-10-8-18-18-18h-750c-9 0-18 8-18 18v107c0 10 8 18 18 18h750c10 0 18-8 18-18z m0 214v-107c0-10-8-18-18-18h-750c-9 0-18 8-18 18v107c0 10 8 18 18 18h750c10 0 18-8 18-18z" horiz-adv-x="1000"/>
      <glyph glyph-name="location-arrow" unicode="&#xF0CD;" d="M782 655l-357-714c-6-12-18-20-32-20-3 0-6 1-8 1-16 4-27 18-27 35v322h-321c-17 0-31 11-35 27s4 33 18 40l714 357c5 3 11 4 16 4 10 0 18-3 25-11 11-11 14-27 7-41z" horiz-adv-x="785.7"/>
      <glyph glyph-name="lock" unicode="&#xF0CE;" d="M179 421h286v107c0 79-64 143-143 143s-143-64-143-143v-107z m464-54v-322c0-30-24-54-54-54h-536c-30 0-54 24-54 54v322c0 30 24 54 54 54h18v107c0 137 113 250 250 250s250-113 250-250v-107h18c30 0 54-24 54-54z" horiz-adv-x="642.9"/>
      <glyph glyph-name="long-arrow-down" unicode="&#xF0CF;" d="M427 125c3-7 2-14-3-20l-195-214c-3-3-8-6-13-6s-10 2-13 6l-198 214c-5 6-6 13-3 20 3 6 9 11 16 11h125v696c0 10 8 18 18 18h107c10 0 18-8 18-18v-696h125c7 0 13-4 16-11z" horiz-adv-x="428.6"/>
      <glyph glyph-name="long-arrow-left" unicode="&#xF0D0;" d="M1000 404v-107c0-10-8-18-18-18h-696v-125c0-7-4-13-11-16s-14-2-20 3l-214 195c-3 3-6 8-6 13s2 10 6 13l214 198c6 5 13 6 20 3 6-3 11-9 11-16v-125h696c10 0 18-8 18-18z" horiz-adv-x="1000"/>
      <glyph glyph-name="long-arrow-right" unicode="&#xF0D1;" d="M964 352c0-5-2-10-6-13l-214-198c-6-5-13-6-20-3-6 3-11 9-11 16v125h-696c-10 0-18 8-18 18v107c0 10 8 18 18 18h696v125c0 7 4 13 11 16s14 2 20-3l214-195c3-3 6-8 6-13z" horiz-adv-x="1000"/>
      <glyph glyph-name="long-arrow-up" unicode="&#xF0D2;" d="M427 575c-3-6-9-11-16-11h-125v-696c0-10-8-18-18-18h-107c-10 0-18 8-18 18v696h-125c-7 0-13 4-16 11s-2 14 3 20l195 214c3 3 8 6 13 6s10-2 13-6l198-214c5-6 6-13 3-20z" horiz-adv-x="428.6"/>
      <glyph glyph-name="magic" unicode="&#xF0D3;" d="M664 526l164 164-60 60-164-164z m249 164c0-10-3-18-10-25l-718-718c-7-7-16-10-25-10s-18 3-25 10l-111 111c-7 7-10 16-10 25s3 19 10 25l718 718c7 7 16 10 25 10s18-3 25-10l111-111c7-7 10-16 10-25z m-754 106l55-17-55-17-17-55-17 55-55 17 55 17 17 55z m195-90l109-34-109-34-34-109-34 109-109 34 109 34 34 109z m519-267l55-17-55-17-17-55-17 55-55 17 55 17 17 55z m-357 357l55-17-55-17-17-55-17 55-55 17 55 17 17 55z" horiz-adv-x="928.6"/>
      <glyph glyph-name="magnet" unicode="&#xF0D4;" d="M857 386v-71c0-228-180-393-429-393s-429 165-429 393v71c0 20 16 36 36 36h214c20 0 36-16 36-36v-71c0-102 119-107 143-107s143 5 143 107v71c0 20 16 36 36 36h214c20 0 36-16 36-36z m-571 357v-214c0-20-16-36-36-36h-214c-20 0-36 16-36 36v214c0 20 16 36 36 36h214c20 0 36-16 36-36z m571 0v-214c0-20-16-36-36-36h-214c-20 0-36 16-36 36v214c0 20 16 36 36 36h214c20 0 36-16 36-36z" horiz-adv-x="857.1"/>
      <glyph glyph-name="male" unicode="&#xF0D5;" d="M571 457v-232c0-30-24-54-54-54s-54 24-54 54v196h-36v-509c0-35-28-63-63-63s-63 28-63 63v259h-36v-259c0-35-28-63-63-63s-63 28-63 63v509h-36v-196c0-30-24-54-54-54s-54 24-54 54v232c0 59 48 107 107 107h357c59 0 107-48 107-107z m-161 250c0-69-56-125-125-125s-125 56-125 125 56 125 125 125 125-56 125-125z" horiz-adv-x="571.4"/>
      <glyph glyph-name="map-marker" unicode="&#xF0D6;" d="M429 493c0 79-64 143-143 143s-143-64-143-143 64-143 143-143 143 64 143 143z m143 0c0-34-4-69-18-100l-203-432c-12-25-37-40-64-40s-52 15-64 40l-204 432c-15 31-18 66-18 100 0 158 128 286 286 286s286-128 286-286z" horiz-adv-x="571.4"/>
      <glyph glyph-name="mars" unicode="&#xF0D7;" d="M556 750v-137h121l-135-135c-44 25-95 39-149 39-169 0-309-139-309-311s140-311 309-311 309 139 309 311c0 67-22 130-58 181l134 134v-113h137v342h-359z m-163-371c98 0 174-77 174-173 0-95-76-172-174-172s-174 77-174 172 76 173 174 173z" horiz-adv-x="1000"/>
      <glyph glyph-name="matter" unicode="&#xF0D8;" d="M607 822c-112-1-218-29-322-67-37 9-75 20-110 1-2-31 10-55 20-81-62-125-84-262-50-419 63-28 126-48 189-60-71 2-131 27-189 47-79-101-79-220-80-336-11-13-27-22-26-45 25-15 61-4 96 5 294-97 459-7 668 20 25-22 52-36 88-32-1 34-16 72-38 112 38 94 58 194 30 309-79-44-158-66-239-62 107 13 174 32 240 77 80 120 61 304 33 453 28 22 24 47 34 76-47-2-79-15-121-35-77 27-151 38-223 37z m86-197c5-77-1-157-21-225-113-13-218-37-364 0-5 120 23 173 52 225 105-33 212-9 333 1z m-196-60c-42-22-28-13-52-13-9 0-18 0-27 0-6 0-13 0-19 1-4 2-6 6-10 7l-40-27c4-1 7-5 10-7 6-3 14-3 20-3 9 0 18 0 27 0 8 0 17 0 25 0 33-1 19 32 50 0 3-5 7-9 11-13 5-2 8-6 14-6 8 1 15 5 22 8 7 2 14 3 21 4 7 0 14 0 20 2 8 2 16 6 23 10 6 2 12 5 18 3l1-1 42 25-2 3c-7 5-14 3-21 0-8-3-15-7-23-10-2-1-4-2-6-2-4-1-9 0-13-1-7 0-15-1-22-3s-14-6-21-9c-1 0-3-1-4-1-3 0-5 5-8 5-5 3-8 7-11 12-5 6-12 10-19 14-3 1-5 1-8 1z m33-131c5-6 10-10 17-13 8-2 16-2 24-2s16 1 24 4c18 7 38 15 51 30-33-11-64-33-13-1-7-3-15-5-23-5s-15 0-23 1c-7 2-13 6-17 12-32 37-19 0-40-26z m-22 12c8 20 0 2-12 17-5 5-12 5-19 4-8-1-16-2-24-5-7-3-13-4-20-3s-13 3-20 4c-8 2-15 5-22 8l-40-28c8-2 15-5 23-7 7-1 14-3 20-4 8-1 15-1 22 1 7 3 15 5 23 6 5 0 11 2 16-1 5-5 9-10 13-14 5-5 10-8 17-9 61 9 24 19 23 32z" horiz-adv-x="1000"/>
      <glyph glyph-name="maxcdn" unicode="&#xF0D9;" d="M974 419l-92-426h-186l99 464c5 20 2 37-8 49s-26 19-46 19h-94l-114-532h-186l114 532h-160l-114-532h-186l114 532-85 182h712c75 0 144-31 188-86 45-55 61-129 45-203z" horiz-adv-x="1000"/>
      <glyph glyph-name="medkit" unicode="&#xF0DA;" d="M714 225v107c0 10-8 18-18 18h-125v125c0 10-8 18-18 18h-107c-10 0-18-8-18-18v-125h-125c-10 0-18-8-18-18v-107c0-10 8-18 18-18h125v-125c0-10 8-18 18-18h107c10 0 18 8 18 18v125h125c10 0 18 8 18 18z m-357 411h286v71h-286v-71z m-214 0v-714h-18c-69 0-125 56-125 125v464c0 69 56 125 125 125h18z m661 0v-714h-607v714h89v89c0 30 24 54 54 54h321c30 0 54-24 54-54v-89h89z m196-125v-464c0-69-56-125-125-125h-18v714h18c69 0 125-56 125-125z" horiz-adv-x="1000"/>
      <glyph glyph-name="microphone" unicode="&#xF0DD;" d="M643 457v-71c0-165-125-301-286-319v-74h143c20 0 36-16 36-36s-16-36-36-36h-357c-20 0-36 16-36 36s16 36 36 36h143v74c-161 18-286 154-286 319v71c0 20 16 36 36 36s36-16 36-36v-71c0-138 112-250 250-250s250 112 250 250v71c0 20 16 36 36 36s36-16 36-36z m-143 214v-286c0-98-80-179-179-179s-179 80-179 179v286c0 98 80 179 179 179s179-80 179-179z" horiz-adv-x="642.9"/>
      <glyph glyph-name="minus" unicode="&#xF0E0;" d="M786 439v-107c0-30-24-54-54-54h-679c-30 0-54 24-54 54v107c0 30 24 54 54 54h679c30 0 54-24 54-54z" horiz-adv-x="785.7"/>
      <glyph glyph-name="money" unicode="&#xF0E2;" d="M429 207h214v54h-72v250h-64l-83-76 43-45c13 12 22 18 31 32h1v-161h-71v-54z m286 143c0-102-61-232-179-232s-179 131-179 232 61 232 179 232 179-131 179-232z m286-143v286c-79 0-143 64-143 143h-643c0-79-64-143-143-143v-286c79 0 143-64 143-143h643c0 79 64 143 143 143z m71 464v-643c0-20-16-36-36-36h-1000c-20 0-36 16-36 36v643c0 20 16 36 36 36h1000c20 0 36-16 36-36z" horiz-adv-x="1071.4"/>
      <glyph glyph-name="mushroom" unicode="&#xF0E5;" d="M488 822c-324-10-505-218-470-444 56-35 150-65 312-111s425-32 534 25c69 36 91 66 122 133-6 202-174 406-498 397z m-129-113c3 0 6 0 10 0 59-3-28-103-64-138s-64-50-138-59c-50-6 24 105 60 141 34 34 84 56 132 57z m326-107c41 11 101-11 134-45 33-33 108-114 42-135-78-25-121 1-149 45-34 54-97 117-26 135z m-413-144c4 0 8-2 12-3 8-1 19 3 25-3 12-12 11-35 3-50-10-19-42-33-53-33s-45 10-48 28c-4 28 32 53 59 61 1 0 1 0 2 0z m52-219c-43-77-73-91-74-161-2-89-11-184 66-228 97-43 344-51 357 83-3 50-3 103-29 145-30 49-52 80-60 130-86-3-173 11-260 31z" horiz-adv-x="1000"/>
      <glyph glyph-name="music" unicode="&#xF0E6;" d="M857 725v-625c0-79-118-107-179-107s-179 28-179 107 118 107 179 107c37 0 74-7 107-22v300l-429-132v-396c0-79-118-107-179-107s-179 29-179 107 118 107 179 107c37 0 74-7 107-22v540c0 24 16 44 38 51l464 143c5 2 10 2 16 2 30 0 54-24 54-54z" horiz-adv-x="857.1"/>
      <glyph glyph-name="no-mail" unicode="&#xF0E7;" d="M500 822c-275 0-500-224-500-500s225-500 500-500 500 224 500 500-225 500-500 500z m0-94c225 0 406-182 406-406 0-121-53-230-137-305l-49 74h98v477h-414l-80 121c53 26 113 39 176 39z m-277-109l35-51h-66v-477h381l92-141c-51-22-105-35-164-35-225 0-406 182-406 406 0 117 50 223 129 297z m88-119h395l-205-186z m-57-31l225-219c12-11 32-11 43 0l234 211v-307h-502z" horiz-adv-x="1000"/>
      <glyph glyph-name="pause" unicode="&#xF0EF;" d="M857 743v-786c0-20-16-36-36-36h-286c-20 0-36 16-36 36v786c0 20 16 36 36 36h286c20 0 36-16 36-36z m-500 0v-786c0-20-16-36-36-36h-286c-20 0-36 16-36 36v786c0 20 16 36 36 36h286c20 0 36-16 36-36z" horiz-adv-x="857.1"/>
      <glyph glyph-name="pencil" unicode="&#xF0F0;" d="M203-7l51 51-131 131-51-51v-60h72v-71h60z m292 518c0 7-5 12-12 12-3 0-7-1-9-4l-303-303c-3-3-4-6-4-10 0-7 5-12 12-12 3 0 7 1 10 4l302 302c3 3 4 6 4 10z m-30 107l232-232-464-464h-232v232z m381-54c0-19-8-37-21-50l-93-93-232 232 93 92c13 13 31 21 50 21s37-8 51-21l131-131c13-13 21-32 21-51z" horiz-adv-x="857.1"/>
      <glyph glyph-name="phone" unicode="&#xF0F2;" d="M786 158c0-20-9-59-17-78-12-27-43-45-68-59-33-18-66-28-104-28-52 0-99 21-146 39-34 12-67 27-98 46-95 59-209 173-268 268-19 31-34 64-46 98-17 47-39 94-39 146 0 37 11 71 29 104 14 25 32 56 59 68 18 8 58 17 78 17 4 0 8 0 12-2 12-4 24-31 30-42 18-32 35-64 54-95 9-15 26-32 26-50 0-34-101-84-101-114 0-15 14-35 22-48 56-102 127-172 228-228 13-8 33-22 48-22 30 0 80 101 114 101 17 0 35-17 50-26 31-18 64-36 95-54 11-6 39-18 42-30 2-4 2-8 2-12z" horiz-adv-x="785.7"/>
      <glyph glyph-name="pill" unicode="&#xF0F4;" d="M92 754c-118-115-113-255-38-332l264-262c159 72 285 166 330 345l-275 278c-83 67-201 40-281-30z m170 11c135-23 316-251 316-251s-180 186-293 225c-48 17-153-14-153-14s76 49 130 40z m428-291c-64-194-193-281-336-347l267-265c60-55 185-65 292 49 100 107 121 198 30 312l-252 251z" horiz-adv-x="1000"/>
      <glyph glyph-name="pinterest" unicode="&#xF0F6;" d="M857 350c0-237-192-429-429-429-42 0-83 6-122 18 16 26 35 59 44 92 0 0 5 19 30 118 15-28 58-54 104-54 138 0 232 126 232 294 0 127-108 246-272 246-203 0-306-146-306-268 0-74 28-140 88-164 9-4 18 0 21 11 2 7 7 26 9 34 3 11 2 15-6 24-17 21-29 47-29 84 0 108 81 205 211 205 115 0 179-70 179-165 0-123-55-228-136-228-45 0-78 37-68 83 13 54 38 113 38 152 0 35-19 65-58 65-46 0-83-47-83-111 0 0 0-41 14-68-47-199-55-233-55-233-8-32-8-69-7-99-151 66-257 217-257 393 0 237 192 429 429 429s429-192 429-429z" horiz-adv-x="857.1"/>
      <glyph glyph-name="plane" unicode="&#xF0F7;" d="M768 761c36-36 0-125-54-179l-90-90 89-388c2-7-1-14-7-18l-71-54c-3-2-7-3-11-3-1 0-2 0-4 1-5 1-10 4-12 9l-156 283-145-145 30-108c2-6 0-12-4-17l-54-54c-3-3-8-5-13-5h-1c-6 1-10 3-13 7l-105 141-141 106c-5 3-7 8-7 13s2 10 5 14l54 54c3 3 8 5 13 5 2 0 3 0 5-1l108-30 145 145-284 156c-5 3-8 8-10 13-1 5 1 11 5 15l72 71c4 4 11 6 17 5l371-89 89 89c54 54 143 89 179 54z" horiz-adv-x="785.7"/>
      <glyph glyph-name="play-circle" unicode="&#xF0F8;" d="M429 779c237 0 429-192 429-429s-192-429-429-429-429 192-429 429 192 429 429 429z m214-459c11 6 18 18 18 31s-7 25-18 31l-304 179c-11 7-25 7-36 1-11-7-18-18-18-31v-357c0-13 7-25 18-31 6-3 12-5 18-5s12 2 18 5z" horiz-adv-x="857.1"/>
      <glyph glyph-name="play" unicode="&#xF0FA;" d="M772 333l-741-412c-17-10-31-1-31 18v821c0 20 14 28 31 18l741-412c17-10 17-25 0-35z" horiz-adv-x="785.7"/>
      <glyph glyph-name="plus" unicode="&#xF0FD;" d="M786 439v-107c0-30-24-54-54-54h-232v-232c0-30-24-54-54-54h-107c-30 0-54 24-54 54v232h-232c-30 0-54 24-54 54v107c0 30 24 54 54 54h232v232c0 30 24 54 54 54h107c30 0 54-24 54-54v-232h232c30 0 54-24 54-54z" horiz-adv-x="785.7"/>
      <glyph glyph-name="print" unicode="&#xF0FE;" d="M214-7h500v143h-500v-143z m0 357h500v214h-89c-30 0-54 24-54 54v89h-357v-357z m643-36c0 20-16 36-36 36s-36-16-36-36 16-36 36-36 36 16 36 36z m72 0v-232c0-9-8-18-18-18h-125v-89c0-30-24-54-54-54h-536c-30 0-54 24-54 54v89h-125c-10 0-18 8-18 18v232c0 59 49 107 107 107h36v304c0 30 24 54 54 54h375c30 0 70-17 92-38l85-85c21-21 38-62 38-92v-143h36c59 0 107-49 107-107z" horiz-adv-x="928.6"/>
      <glyph glyph-name="puzzle-piece" unicode="&#xF100;" d="M929 237c0-58-33-106-94-106-68 0-86 62-147 62-45 0-61-28-61-69 0-44 18-85 17-128v-3c-6 0-12 0-18-1-58-6-116-17-174-17-40 0-81 16-81 61 0 61 62 79 62 147 0 61-48 94-106 94-59 0-113-32-113-97 0-71 54-102 54-140 0-20-12-37-26-50-17-16-42-20-65-20-46 0-92 6-137 13-10 2-21 3-31 4l-7 1c-1 1-3 1-3 1v571c2-2 35-6 41-7 45-7 91-13 137-13 23 0 48 3 65 20 13 13 26 30 26 50 0 39-54 69-54 140 0 64 54 97 113 97 57 0 105-33 105-94 0-68-62-86-62-147 0-46 41-61 81-61 64 0 128 15 191 18v-1c-2-2-6-35-7-41-7-45-13-91-13-137 0-23 3-48 20-65 13-13 30-26 50-26 39 0 69 54 140 54 64 0 97-54 97-113z" horiz-adv-x="928.6"/>
      <glyph glyph-name="qrcode" unicode="&#xF101;" d="M214 207v-71h-71v71h71z m0 429v-71h-71v71h71z m429 0v-71h-72v71h72z m-572-571h214v214h-214v-214z m0 428h214v214h-214v-214z m429 0h214v214h-214v-214z m-143-143v-357h-357v357h357z m286-286v-71h-72v71h72z m143 0v-71h-71v71h71z m0 286v-214h-214v71h-71v-214h-71v357h214v-71h71v71h71z m-429 429v-357h-357v357h357z m429 0v-357h-357v357h357z" horiz-adv-x="785.7"/>
      <glyph glyph-name="question" unicode="&#xF103;" d="M393 149v-134c0-12-10-22-22-22h-134c-12 0-22 10-22 22v134c0 12 10 22 22 22h134c12 0 22-10 22-22z m176 335c0-106-72-147-125-176-33-19-54-58-54-74 0-12-10-27-22-27h-134c-12 0-20 19-20 31v25c0 68 67 126 116 148 43 20 61 38 61 74 0 31-41 59-86 59-25 0-48-8-60-16-13-10-27-23-60-64-5-6-11-9-17-9-5 0-10 2-14 5l-92 70c-10 7-12 20-6 30 60 100 145 148 259 148 120 0 253-95 253-223z" horiz-adv-x="571.4"/>
      <glyph glyph-name="quote-left" unicode="&#xF104;" d="M429 314v-214c0-59-48-107-107-107h-214c-59 0-107 48-107 107v393c0 157 128 286 286 286h36c20 0 36-16 36-36v-72c0-20-16-36-36-36h-36c-79 0-143-64-143-143v-18c0-30 24-54 54-54h125c59 0 107-48 107-107z m500 0v-214c0-59-48-107-107-107h-214c-59 0-107 48-107 107v393c0 157 128 286 286 286h36c20 0 36-16 36-36v-72c0-20-16-36-36-36h-36c-79 0-143-64-143-143v-18c0-30 24-54 54-54h125c59 0 107-48 107-107z" horiz-adv-x="928.6"/>
      <glyph glyph-name="quote-right" unicode="&#xF105;" d="M429 671v-393c0-157-128-286-286-286h-36c-20 0-36 16-36 36v71c0 20 16 36 36 36h36c79 0 143 64 143 143v18c0 30-24 54-54 54h-125c-59 0-107 48-107 107v214c0 59 48 107 107 107h214c59 0 107-48 107-107z m500 0v-393c0-157-128-286-286-286h-36c-20 0-36 16-36 36v71c0 20 16 36 36 36h36c79 0 143 64 143 143v18c0 30-24 54-54 54h-125c-59 0-107 48-107 107v214c0 59 48 107 107 107h214c59 0 107-48 107-107z" horiz-adv-x="928.6"/>
      <glyph glyph-name="random" unicode="&#xF106;" d="M372 582c-31-48-54-100-77-152-32 68-68 135-152 135h-125c-10 0-18 8-18 18v107c0 10 8 18 18 18h125c99 0 172-46 229-126z m628-446c0-5-2-10-5-13l-179-179c-3-3-8-5-13-5-10 0-18 8-18 18v107c-166 0-268-20-371 126 31 48 54 100 76 152 32-68 68-135 152-135h143v107c0 10 8 18 18 18 5 0 10-2 13-6l178-178c3-3 5-8 5-13z m0 500c0-5-2-10-5-13l-179-179c-3-3-8-5-13-5-10 0-18 8-18 18v107h-143c-74 0-109-51-141-111-16-31-30-64-44-95-62-144-135-294-316-294h-125c-10 0-18 8-18 18v107c0 10 8 18 18 18h125c74 0 109 51 141 111 16 31 30 64 44 95 62 144 135 294 316 294h143v107c0 10 8 18 18 18 5 0 10-2 13-6l178-178c3-3 5-8 5-13z" horiz-adv-x="1000"/>
      <glyph glyph-name="refresh" unicode="&#xF107;" d="M843 261c0-1 0-3-1-4-47-198-210-335-416-335-109 0-214 43-294 118l-72-72c-7-7-16-11-25-11-20 0-36 16-36 36v250c0 20 16 36 36 36h250c20 0 36-16 36-36 0-10-4-19-11-25l-76-76c52-49 122-77 194-77 99 0 191 51 243 136 13 22 20 43 30 65 3 8 8 13 17 13h107c10 0 18-8 18-18z m14 446v-250c0-20-16-36-36-36h-250c-20 0-36 16-36 36 0 10 4 19 11 25l77 77c-53 49-123 76-195 76-99 0-191-51-243-136-13-22-20-43-30-65-3-8-8-13-17-13h-111c-10 0-18 8-18 18v4c48 198 213 335 419 335 109 0 216-44 295-118l73 72c7 7 16 11 25 11 20 0 36-16 36-36z" horiz-adv-x="857.1"/>
      <glyph glyph-name="renren" unicode="&#xF10B;" d="M632-26c-61-34-131-53-205-53s-144 19-205 53c99 63 179 157 205 267 27-111 107-205 205-267z m-276 797v-271c0-191-105-355-255-427-63 75-101 171-101 276 0 212 154 388 356 422z m501-422c0-106-38-202-101-276-150 73-255 237-255 427v271c202-34 356-210 356-422z" horiz-adv-x="857.1"/>
      <glyph glyph-name="repeat" unicode="&#xF10D;" d="M857 707v-250c0-20-16-36-36-36h-250c-15 0-27 9-33 22s-3 29 8 39l77 77c-52 49-122 76-195 76-157 0-286-128-286-286s128-286 286-286c89 0 171 40 225 111 3 4 8 6 13 7 5 0 10-2 14-5l77-77c7-6 7-17 1-24-82-98-202-155-330-155-236 0-429 193-429 429s193 429 429 429c110 0 217-44 295-118l73 72c10 11 26 13 39 8 13-6 22-18 22-33z" horiz-adv-x="857.1"/>
      <glyph glyph-name="reply-all" unicode="&#xF10E;" d="M357 246v-39c0-15-9-27-22-33-5-2-10-3-14-3-10 0-18 3-25 11l-286 286c-14 14-14 36 0 50l286 286c10 11 26 13 39 8 13-6 22-18 22-33v-39l-222-222c-14-14-14-36 0-50z m643-21c0-116-88-287-92-294-3-6-9-10-16-10-2 0-3 0-5 1-8 3-13 11-13 19 16 152-3 253-59 315-47 53-124 82-244 91v-140c0-15-9-27-22-33-5-2-10-3-14-3-10 0-18 3-25 11l-286 286c-14 14-14 36 0 50l286 286c10 11 26 13 39 8 13-6 22-18 22-33v-146c154-11 264-51 334-123 84-87 94-204 94-284z" horiz-adv-x="1000"/>
      <glyph glyph-name="reply" unicode="&#xF10F;" d="M1000 225c0-78-39-180-71-252-6-13-12-31-21-42-4-6-8-10-16-10-11 0-18 9-18 20 0 9 2 19 3 28 2 23 3 46 3 69 0 266-158 313-399 313h-125v-143c0-20-16-36-36-36-10 0-18 4-25 11l-286 286c-7 7-11 16-11 25s4 18 11 25l286 286c7 7 16 11 25 11 20 0 36-16 36-36v-143h125c183 0 411-32 488-225 24-59 30-123 30-186z" horiz-adv-x="1000"/>
      <glyph glyph-name="retweet" unicode="&#xF114;" d="M714 11c0-10-8-18-18-18h-536c-21 0-18 22-18 36v321h-107c-20 0-36 16-36 36 0 8 3 17 8 23l179 214c7 8 17 12 27 12s21-5 27-12l179-214c6-6 8-15 8-23 0-20-16-36-36-36h-107v-214h321c5 0 11-2 14-6l89-107c2-3 4-8 4-12z m357 232c0-8-3-17-8-23l-179-214c-7-8-17-13-27-13s-21 5-27 13l-179 214c-6 6-8 15-8 23 0 20 16 36 36 36h107v214h-321c-5 0-11 2-14 7l-89 107c-2 3-4 7-4 11 0 9 8 18 18 18h536c21 0 18-22 18-36v-321h107c20 0 36-16 36-36z" horiz-adv-x="1071.4"/>
      <glyph glyph-name="road" unicode="&#xF115;" d="M620 294v2l-13 179c-1 10-10 18-19 18h-104c-10 0-18-8-19-18l-13-179v-2c-1-9 8-16 16-16h136c8 0 17 7 16 16z m424-261c0-16-4-41-26-41h-393c10 0 17 8 17 18l-11 143c-1 10-10 18-19 18h-152c-10 0-18-8-19-18l-11-143c-1-10 7-18 17-18h-393c-21 0-26 25-26 41 0 22 6 45 15 65l233 583c6 14 21 26 36 26h189c-10 0-18-8-19-18l-8-107c-1-10 7-18 17-18h93c10 0 17 8 17 18l-8 107c-1 10-10 18-19 18h189c15 0 30-12 36-26l233-583c8-20 15-42 15-65z" horiz-adv-x="1071.4"/>
      <glyph glyph-name="rocket" unicode="&#xF116;" d="M804 600c0 30-24 54-54 54s-54-24-54-54 24-54 54-54 54 24 54 54z m125 161c0-185-51-309-184-441-32-32-69-65-109-98l-11-212c-1-6-4-11-9-15l-214-125c-3-2-6-2-9-2-5 0-9 2-13 5l-36 36c-5 5-6 12-5 18l48 154-157 157-154-48c-2-1-3-1-5-1-4 0-10 2-13 5l-36 36c-6 6-7 15-3 22l125 214c3 5 9 8 15 9l212 11c34 40 66 76 98 109 140 139 246 184 440 184 10 0 19-8 19-18z" horiz-adv-x="928.6"/>
      <glyph glyph-name="rss" unicode="&#xF118;" d="M214 100c0-59-48-107-107-107s-107 48-107 107 48 107 107 107 107-48 107-107z m286-69c1-10-3-20-10-27-7-8-16-12-26-12h-75c-19 0-34 14-35 32-16 170-151 305-321 322-18 2-32 17-32 35v75c0 10 4 20 12 26 6 6 15 10 24 10h3c119-10 231-61 315-146 85-84 137-197 146-315z m286-1c1-9-3-19-10-26s-16-11-26-11h-80c-19 0-35 15-36 33-18 324-277 583-601 602-19 1-34 17-34 35v80c0 10 4 19 11 26s16 10 25 10h2c195-10 379-92 517-231 139-138 221-322 231-517z" horiz-adv-x="785.7"/>
      <glyph glyph-name="search" unicode="&#xF11B;" d="M643 386c0 138-112 250-250 250s-250-112-250-250 112-250 250-250 250 112 250 250z m286-464c0-39-32-71-72-71-19 0-37 8-50 21l-191 191c-65-45-143-69-223-69-217 0-393 176-393 393s176 393 393 393 393-176 393-393c0-79-24-157-69-223l191-191c13-13 21-31 21-50z" horiz-adv-x="928.6"/>
      <glyph glyph-name="sex" unicode="&#xF11C;" d="M231 822c-126 0-231-104-231-232 0-111 78-203 180-227l1-85h-102v-102h103l1-103 102 1-1 102h101v102h-103l-1 85c102 24 180 116 180 226 0 129-105 232-231 232z m0-104c73 0 130-58 130-129s-57-129-130-129-130 58-130 129 57 129 130 129z m501-258v-102h91l-101-101c-33 19-71 29-112 29-126 0-231-104-231-233s105-233 231-233 231 104 231 233c0 50-16 97-43 135l100 100v-85h102v256h-269z m-122-277c73 0 130-58 130-129s-57-129-130-129-130 58-130 129 57 129 130 129z" horiz-adv-x="1000"/>
      <glyph glyph-name="share" unicode="&#xF11F;" d="M1000 493c0-10-4-19-11-25l-286-286c-7-7-16-11-25-11-20 0-36 16-36 36v143h-125c-241 0-399-46-399-313 0-23 1-46 3-69 1-9 3-19 3-28 0-11-7-20-18-20-8 0-12 4-16 10-8 12-15 30-21 42-32 72-71 174-71 252 0 63 6 127 30 186 78 193 305 225 488 225h125v143c0 20 16 36 36 36 10 0 18-4 25-11l286-286c7-7 11-16 11-25z" horiz-adv-x="1000"/>
      <glyph glyph-name="shield" unicode="&#xF120;" d="M607 314v357h-250v-635c29 15 74 41 119 77 60 47 131 120 131 201z m107 429v-429c0-235-329-383-343-390-5-2-10-3-15-3s-10 1-15 3c-14 6-343 155-343 390v429c0 20 16 36 36 36h643c20 0 36-16 36-36z" horiz-adv-x="714.3"/>
      <glyph glyph-name="shopping-cart" unicode="&#xF121;" d="M357-7c0-39-32-72-71-72s-71 32-71 72 32 71 71 71 71-32 71-71z m500 0c0-39-32-72-71-72s-71 32-71 72 32 71 71 71 71-32 71-71z m72 607v-286c0-18-14-34-32-36l-583-68c3-13 7-26 7-39s-8-25-13-36h513c20 0 36-16 36-36s-16-36-36-36h-571c-20 0-36 16-36 36 0 17 25 59 34 77l-99 459h-114c-20 0-36 16-36 36s16 36 36 36h143c37 0 39-45 44-71h670c20 0 36-16 36-36z" horiz-adv-x="928.6"/>
      <glyph glyph-name="signal" unicode="&#xF123;" d="M143 46v-107c0-10-8-18-18-18h-107c-10 0-18 8-18 18v107c0 10 8 18 18 18h107c10 0 18-8 18-18z m214 72v-179c0-10-8-18-18-18h-107c-10 0-18 8-18 18v179c0 10 8 18 18 18h107c10 0 18-8 18-18z m214 143v-321c0-10-8-18-18-18h-107c-10 0-18 8-18 18v321c0 10 8 18 18 18h107c10 0 18-8 18-18z m214 214v-536c0-10-8-18-18-18h-107c-10 0-18 8-18 18v536c0 10 8 18 18 18h107c10 0 18-8 18-18z m214 286v-821c0-10-8-18-18-18h-107c-10 0-18 8-18 18v821c0 10 8 18 18 18h107c10 0 18-8 18-18z" horiz-adv-x="1000"/>
      <glyph glyph-name="sitemap" unicode="&#xF126;" d="M1000 154v-179c0-30-24-54-54-54h-179c-30 0-54 24-54 54v179c0 30 24 54 54 54h54v107h-286v-107h54c30 0 54-24 54-54v-179c0-30-24-54-54-54h-179c-30 0-54 24-54 54v179c0 30 24 54 54 54h54v107h-286v-107h54c30 0 54-24 54-54v-179c0-30-24-54-54-54h-179c-30 0-54 24-54 54v179c0 30 24 54 54 54h54v107c0 39 32 71 72 71h286v107h-54c-30 0-54 24-54 54v179c0 30 24 54 54 54h179c30 0 54-24 54-54v-179c0-30-24-54-54-54h-54v-107h286c39 0 72-32 72-71v-107h54c30 0 54-24 54-54z" horiz-adv-x="1000"/>
      <glyph glyph-name="skype" unicode="&#xF127;" d="M655 257c0 97-94 131-174 148l-58 13c-42 10-74 17-74 50 0 30 31 43 80 43 88 0 89-64 143-64 36 0 58 29 58 61 0 64-107 106-212 106-97 0-209-42-209-155 0-94 63-127 144-147l82-20c50-12 80-18 80-54 0-29-32-50-81-50-103 0-109 86-169 86-39 0-56-28-56-59 0-69 105-124 231-124 105 0 214 52 214 166z m203-121c0-118-96-214-214-214-49 0-94 17-131 45-27-6-55-9-84-9-217 0-393 176-393 393 0 29 3 57 9 84-28 36-45 82-45 131 0 118 96 214 214 214 49 0 94-17 131-45 27 6 55 9 84 9 217 0 393-176 393-393 0-29-3-57-9-84 28-36 45-82 45-131z" horiz-adv-x="857.1"/>
      <glyph glyph-name="sort" unicode="&#xF131;" d="M571 243c0-10-4-19-11-25l-250-250c-7-7-16-11-25-11s-18 4-25 11l-250 250c-7 7-11 16-11 25 0 20 16 36 36 36h500c20 0 36-16 36-36z m0 214c0-20-16-36-36-36h-500c-20 0-36 16-36 36 0 10 4 19 11 25l250 250c7 7 16 11 25 11s18-4 25-11l250-250c7-7 11-16 11-25z" horiz-adv-x="571.4"/>
      <glyph glyph-name="spinner" unicode="&#xF132;" d="M294 72c0-39-32-71-71-71s-71 32-71 71c0 40 32 71 71 71 40 0 71-32 71-71z m278-115c0-40-32-71-71-71s-71 32-71 71 32 72 71 72 71-32 71-72z m-393 393c0-40-32-71-72-71s-71 32-71 71 32 71 71 71 72-32 72-71z m671-278c0-39-32-71-71-71-40 0-71 32-71 71 0 40 32 71 71 71s71-32 71-71z m-538 556c0-49-40-89-89-89s-89 40-89 89 40 89 89 89 89-40 89-89z m653-278c0-40-32-71-71-71s-72 32-72 71 32 71 72 71 71-32 71-71z m-357 393c0-59-48-107-107-107s-107 48-107 107 48 107 107 107 107-48 107-107z m296-115c0-69-56-125-125-125s-125 56-125 125 56 125 125 125 125-56 125-125z" horiz-adv-x="1000"/>
      <glyph glyph-name="star-half" unicode="&#xF136;" d="M464 832v-747l-251-132c-7-4-15-7-22-7-16 0-23 13-23 28 0 4 1 7 1 11l48 279-203 198c-7 7-14 17-14 27 0 17 17 23 31 26l280 41 126 254c5 11 15 23 27 23z" horiz-adv-x="500"/>
      <glyph glyph-name="star" unicode="&#xF137;" d="M929 489c0-10-7-20-15-27l-203-198 48-279c1-4 1-7 1-11 0-15-7-28-23-28-8 0-16 3-22 7l-251 132-251-132c-7-4-15-7-22-7-16 0-23 13-23 28 0 4 1 7 1 11l48 279-203 198c-7 7-14 17-14 27 0 17 17 23 31 26l280 41 126 254c5 11 15 23 27 23s22-12 27-23l126-254 280-41c13-2 31-9 31-26z" horiz-adv-x="928.6"/>
      <glyph glyph-name="step-backward" unicode="&#xF138;" d="M546 771c14 14 25 9 25-11v-821c0-20-11-25-25-11l-396 396c-3 3-6 7-7 11v-378c0-20-16-36-36-36h-71c-20 0-36 16-36 36v786c0 20 16 36 36 36h71c20 0 36-16 36-36v-378c2 4 4 7 7 11z" horiz-adv-x="571.4"/>
      <glyph glyph-name="step-forward" unicode="&#xF139;" d="M25-71c-14-14-25-9-25 11v821c0 20 11 25 25 11l396-396c3-3 6-7 7-11v378c0 20 16 36 36 36h71c20 0 36-16 36-36v-786c0-20-16-36-36-36h-71c-20 0-36 16-36 36v378c-2-4-4-7-7-11z" horiz-adv-x="571.4"/>
      <glyph glyph-name="stethoscope" unicode="&#xF13A;" d="M714 457c0 20-16 36-36 36s-36-16-36-36 16-36 36-36 36 16 36 36z m71 0c0-47-30-86-71-101v-220c0-118-112-214-250-214s-250 96-250 214v74c-121 15-214 104-214 212v286c0 20 16 36 36 36 3 0 6-1 9-1 12 22 36 37 63 37 40 0 72-32 72-72s-32-71-72-71c-13 0-25 4-36 10v-224c0-79 80-143 179-143s179 64 179 143v224c-11-6-23-10-36-10-40 0-72 32-72 71s32 72 72 72c27 0 50-15 63-37 3 1 6 1 9 1 20 0 36-16 36-36v-286c0-108-93-197-214-212v-74c0-79 80-143 179-143s179 64 179 143v220c-42 15-72 54-72 101 0 59 48 107 107 107s107-48 107-107z" horiz-adv-x="785.7"/>
      <glyph glyph-name="stop" unicode="&#xF13B;" d="M857 743v-786c0-20-16-36-36-36h-786c-20 0-36 16-36 36v786c0 20 16 36 36 36h786c20 0 36-16 36-36z" horiz-adv-x="857.1"/>
      <glyph glyph-name="strikethrough" unicode="&#xF13C;" d="M982 350c10 0 18-8 18-18v-36c0-10-8-18-18-18h-964c-10 0-18 8-18 18v36c0 10 8 18 18 18h964z m-713 36c-11 13-20 29-28 45-18 36-27 71-27 105 0 68 25 125 75 172s123 71 219 71c21 0 52-4 93-11 25-5 57-13 99-27 4-15 8-37 12-66 5-44 8-78 8-102 0-8-1-16-3-25l-7-2-47 3-8 1c-19 56-39 94-58 114-33 34-73 51-117 51-42 0-76-11-102-33s-37-49-37-81c0-27 12-53 37-78s77-49 156-72c27-8 59-20 97-37 20-10 38-19 53-29h-415z m283-143h229c3-16 4-33 4-51 0-40-7-80-23-118-8-21-21-40-40-58-13-13-34-28-61-45-28-17-56-30-85-37-30-8-67-12-113-12-31 0-68 1-109 13l-78 22c-22 6-35 11-40 16-2 2-5 6-5 12v7c0 5 1 34-1 87-1 28 1 47 1 59v25l57 1c21-48 30-76 36-86 13-22 29-39 45-52s36-24 59-32c22-8 47-12 74-12 24 0 50 5 78 15 29 10 51 26 68 48s26 46 26 72c0 31-15 60-45 88-12 11-38 24-76 40z" horiz-adv-x="1000"/>
      <glyph glyph-name="subscript" unicode="&#xF13D;" d="M501 86v-93h-138l-89 141-13 23c-3 4-5 8-6 12h-2c-1-4-3-8-5-12-3-7-8-16-14-25l-87-140h-144v93h71l110 162-103 152h-76v94h154l78-127c5-8 9-16 13-23 3-4 5-8 6-12h2c1 4 3 8 6 12l14 23 78 127h143v-94h-70l-103-149 114-165h61z m357-121v-115h-287l-2 15c-1 8-2 18-2 26 0 152 195 165 195 246 0 29-26 49-56 49-22 0-40-10-54-22-7-6-14-14-20-21l-59 51c10 14 21 26 35 37 23 19 57 36 105 36 81 0 137-48 137-122 0-133-185-145-193-225h129v45h70z" horiz-adv-x="857.1"/>
      <glyph glyph-name="suitcase" unicode="&#xF13E;" d="M357 636h286v71h-286v-71z m-196 0v-714h-36c-69 0-125 56-125 125v464c0 69 56 125 125 125h36z m625 0v-714h-571v714h71v89c0 30 24 54 54 54h321c30 0 54-24 54-54v-89h71z m214-125v-464c0-69-56-125-125-125h-36v714h36c69 0 125-56 125-125z" horiz-adv-x="1000"/>
      <glyph glyph-name="superscript" unicode="&#xF140;" d="M501 86v-93h-138l-89 141-13 23c-3 4-5 8-6 12h-2c-1-4-3-8-5-12-3-7-8-16-14-25l-87-140h-144v93h71l110 162-103 152h-76v94h154l78-127c5-8 9-16 13-23 3-4 5-8 6-12h2c1 4 3 8 6 12l14 23 78 127h143v-94h-70l-103-149 114-165h61z m355 379v-115h-287l-2 15c-1 8-2 18-2 26 0 152 195 165 195 246 0 29-26 49-56 49-21 0-40-10-54-22-7-6-14-14-20-21l-59 51c10 14 21 26 35 37 24 18 58 36 105 36 81 0 137-48 137-122 0-134-185-145-193-225h129v45h70z" horiz-adv-x="857.1"/>
      <glyph glyph-name="table" unicode="&#xF141;" d="M286 82v107c0 10-8 18-18 18h-179c-10 0-18-8-18-18v-107c0-10 8-18 18-18h179c10 0 18 8 18 18z m0 214v107c0 10-8 18-18 18h-179c-10 0-18-8-18-18v-107c0-10 8-18 18-18h179c10 0 18 8 18 18z m286-214v107c0 10-8 18-18 18h-179c-10 0-18-8-18-18v-107c0-10 8-18 18-18h179c10 0 18 8 18 18z m-286 429v107c0 10-8 18-18 18h-179c-10 0-18-8-18-18v-107c0-10 8-18 18-18h179c10 0 18 8 18 18z m286-214v107c0 10-8 18-18 18h-179c-10 0-18-8-18-18v-107c0-10 8-18 18-18h179c10 0 18 8 18 18z m286-214v107c0 10-8 18-18 18h-179c-10 0-18-8-18-18v-107c0-10 8-18 18-18h179c10 0 18 8 18 18z m-286 429v107c0 10-8 18-18 18h-179c-10 0-18-8-18-18v-107c0-10 8-18 18-18h179c10 0 18 8 18 18z m286-214v107c0 10-8 18-18 18h-179c-10 0-18-8-18-18v-107c0-10 8-18 18-18h179c10 0 18 8 18 18z m0 214v107c0 10-8 18-18 18h-179c-10 0-18-8-18-18v-107c0-10 8-18 18-18h179c10 0 18 8 18 18z m72 179v-607c0-49-40-89-89-89h-750c-49 0-89 40-89 89v607c0 49 40 89 89 89h750c49 0 89-40 89-89z" horiz-adv-x="928.6"/>
      <glyph glyph-name="tablet" unicode="&#xF142;" d="M357 64c0 20-16 36-36 36s-36-16-36-36 16-36 36-36 36 16 36 36z m214 89v536c0 10-8 18-18 18h-464c-10 0-18-8-18-18v-536c0-10 8-18 18-18h464c10 0 18 8 18 18z m72 536v-607c0-49-40-89-89-89h-464c-49 0-89 40-89 89v607c0 49 40 89 89 89h464c49 0 89-40 89-89z" horiz-adv-x="642.9"/>
      <glyph glyph-name="tag" unicode="&#xF143;" d="M250 600c0 40-32 71-71 71s-72-32-72-71 32-71 72-71 71 32 71 71z m595-321c0-19-8-37-21-50l-274-275c-13-13-32-21-51-21s-37 8-50 21l-399 400c-29 28-51 82-51 122v232c0 39 32 72 71 72h232c40 0 94-22 122-51l399-398c13-13 21-32 21-51z" horiz-adv-x="857.1"/>
      <glyph glyph-name="tags" unicode="&#xF144;" d="M250 600c0 40-32 71-71 71s-72-32-72-71 32-71 72-71 71 32 71 71z m595-321c0-19-8-37-21-50l-274-275c-13-13-32-21-51-21s-37 8-50 21l-399 400c-29 28-51 82-51 122v232c0 39 32 72 71 72h232c40 0 94-22 122-51l399-398c13-13 21-32 21-51z m214 0c0-19-8-37-21-50l-274-275c-13-13-32-21-51-21-29 0-44 13-63 33l262 262c13 13 21 31 21 50s-8 37-21 51l-399 398c-29 28-83 51-122 51h125c40 0 94-22 122-51l399-398c13-13 21-32 21-51z" horiz-adv-x="1071.4"/>
      <glyph glyph-name="tasks" unicode="&#xF145;" d="M571 64h357v71h-357v-71z m-214 286h572v71h-572v-71z m357 286h214v71h-214v-71z m286-464v-143c0-20-16-36-36-36h-929c-20 0-36 16-36 36v143c0 20 16 36 36 36h929c20 0 36-16 36-36z m0 286v-143c0-20-16-36-36-36h-929c-20 0-36 16-36 36v143c0 20 16 36 36 36h929c20 0 36-16 36-36z m0 286v-143c0-20-16-36-36-36h-929c-20 0-36 16-36 36v143c0 20 16 36 36 36h929c20 0 36-16 36-36z" horiz-adv-x="1000"/>
      <glyph glyph-name="terminal" unicode="&#xF146;" d="M327 302l-260-260c-7-7-18-7-26 0l-28 28c-7 7-7 18 0 26l219 219-219 219c-7 7-7 18 0 26l28 28c7 7 19 7 26 0l260-260c7-7 7-18 0-26z m602-255v-36c0-10-8-18-18-18h-536c-10 0-18 8-18 18v36c0 10 8 18 18 18h536c10 0 18-8 18-18z" horiz-adv-x="928.6"/>
      <glyph glyph-name="text-height" unicode="&#xF147;" d="M973 64c25 0 32-16 17-35l-70-90c-15-20-40-20-55 0l-70 90c-15 20-7 35 17 35h45v571h-45c-25 0-32 16-17 35l70 90c15 20 40 20 55 0l70-90c15-20 7-35-17-35h-45v-571h45z m-928 714l30-15c4-2 106-3 118-3 49 0 98 2 147 2 40 0 80-1 120-1h164c22 0 35-5 50 16l23 1c5 0 11-1 16-1 1-63 1-125 1-188 0-20 1-41-3-61-12-5-25-8-38-10-13 22-22 47-30 72-4 11-17 87-18 88-12 15-25 12-42 12-51 0-104 2-154-4-3-25-5-51-4-76 1-157 2-314 2-470 0-43-7-88 6-130 42-22 93-25 136-45 1-9 3-18 3-28 0-5-1-11-2-16l-19-1c-79-2-157 10-237 10-56 0-113-10-169-10-1 10-2 20-2 29v5c21 34 98 35 133 55 12 27 11 179 11 214 0 113-3 226-3 338v65c0 10 2 50-4 58-8 8-81 7-90 7-21 0-80-10-97-21-27-18-27-130-60-132-10 6-24 15-31 25v214z" horiz-adv-x="1000"/>
      <glyph glyph-name="text-width" unicode="&#xF148;" d="M45 778l30-15c4-2 106-3 118-3 49 0 98 2 147 2 148 0 297 3 445-2 12-1 24 7 31 17l23 1c5 0 11-1 16-1 1-63 1-125 1-188 0-20 1-41-3-61-12-5-25-8-38-10-13 22-22 47-30 72-4 11-18 87-18 88-4 5-9 8-15 11-5 2-31 1-37 1-69 0-148 4-215-4-3-25-5-51-5-76l1-85v29c1-91 2-181 2-272 0-43-7-88 6-129 42-22 93-25 136-45 1-9 3-18 3-28 0-5-1-11-2-16l-19-1c-79-2-157 10-237 10-56 0-113-10-169-10-1 10-2 20-2 29v5c21 34 98 35 133 55 14 31 10 295 10 344 0 8-3 16-3 25 0 23 4 154-5 164-8 8-81 7-90 7-24 0-155-12-168-21-26-17-27-129-60-132-10 6-24 15-31 25v214z m686-715c20 0 94-66 109-78 8-7 15-16 15-27s-6-21-15-27c-15-12-89-78-109-78-26 0-17 60-17 70h-571c0-10 9-70-17-70-20 0-94 66-109 78-8 7-15 16-15 27s6 21 15 27c15 12 89 78 109 78 26 0 17-60 17-70h571c0 10-9 70 17 70z" horiz-adv-x="857.1"/>
      <glyph glyph-name="th-large" unicode="&#xF149;" d="M429 279v-214c0-39-32-71-72-71h-286c-39 0-71 32-71 71v214c0 39 32 71 71 71h286c39 0 72-32 72-71z m0 429v-214c0-39-32-72-72-72h-286c-39 0-71 32-71 72v214c0 39 32 72 71 72h286c39 0 72-32 72-72z m500-429v-214c0-39-32-71-72-71h-286c-39 0-71 32-71 71v214c0 39 32 71 71 71h286c39 0 72-32 72-71z m0 429v-214c0-39-32-72-72-72h-286c-39 0-71 32-71 72v214c0 39 32 72 71 72h286c39 0 72-32 72-72z" horiz-adv-x="928.6"/>
      <glyph glyph-name="th-list" unicode="&#xF14A;" d="M286 154v-107c0-30-24-54-54-54h-179c-30 0-54 24-54 54v107c0 30 24 54 54 54h179c30 0 54-24 54-54z m0 286v-107c0-30-24-54-54-54h-179c-30 0-54 24-54 54v107c0 30 24 54 54 54h179c30 0 54-24 54-54z m714-286v-107c0-30-24-54-54-54h-536c-30 0-54 24-54 54v107c0 30 24 54 54 54h536c30 0 54-24 54-54z m-714 571v-107c0-30-24-54-54-54h-179c-30 0-54 24-54 54v107c0 30 24 54 54 54h179c30 0 54-24 54-54z m714-286v-107c0-30-24-54-54-54h-536c-30 0-54 24-54 54v107c0 30 24 54 54 54h536c30 0 54-24 54-54z m0 286v-107c0-30-24-54-54-54h-536c-30 0-54 24-54 54v107c0 30 24 54 54 54h536c30 0 54-24 54-54z" horiz-adv-x="1000"/>
      <glyph glyph-name="th" unicode="&#xF14B;" d="M286 154v-107c0-30-24-54-54-54h-179c-30 0-54 24-54 54v107c0 30 24 54 54 54h179c30 0 54-24 54-54z m0 286v-107c0-30-24-54-54-54h-179c-30 0-54 24-54 54v107c0 30 24 54 54 54h179c30 0 54-24 54-54z m357-286v-107c0-30-24-54-54-54h-179c-30 0-54 24-54 54v107c0 30 24 54 54 54h179c30 0 54-24 54-54z m-357 571v-107c0-30-24-54-54-54h-179c-30 0-54 24-54 54v107c0 30 24 54 54 54h179c30 0 54-24 54-54z m357-286v-107c0-30-24-54-54-54h-179c-30 0-54 24-54 54v107c0 30 24 54 54 54h179c30 0 54-24 54-54z m357-286v-107c0-30-24-54-54-54h-179c-30 0-54 24-54 54v107c0 30 24 54 54 54h179c30 0 54-24 54-54z m-357 571v-107c0-30-24-54-54-54h-179c-30 0-54 24-54 54v107c0 30 24 54 54 54h179c30 0 54-24 54-54z m357-286v-107c0-30-24-54-54-54h-179c-30 0-54 24-54 54v107c0 30 24 54 54 54h179c30 0 54-24 54-54z m0 286v-107c0-30-24-54-54-54h-179c-30 0-54 24-54 54v107c0 30 24 54 54 54h179c30 0 54-24 54-54z" horiz-adv-x="1000"/>
      <glyph glyph-name="thumbs-down" unicode="&#xF14D;" d="M143 529c0-20-16-36-36-36s-36 16-36 36 16 36 36 36 36-16 36-36z m89-286v357c0 20-16 36-36 36h-161c-20 0-36-16-36-36v-357c0-20 16-36 36-36h161c20 0 36 16 36 36z m630 83c19-21 31-54 31-83-1-58-49-107-107-107h-155c5-18 10-23 16-36 15-29 31-61 31-107 0-43 0-143-125-143-10 0-18 4-25 11-24 23-31 58-37 91-7 32-13 66-35 88-17 17-36 41-56 67-25 32-78 99-99 101-18 2-34 17-34 36v358c0 20 17 35 36 36 20 1 53 12 88 25 60 21 136 47 215 47h72c49-1 86-15 110-44 21-25 31-59 27-101 14-13 25-32 30-52 6-22 6-45 0-65 17-22 25-49 24-77 0-8-2-25-8-42z" horiz-adv-x="928.6"/>
      <glyph glyph-name="thumbs-up" unicode="&#xF14F;" d="M143 100c0 20-16 36-36 36s-36-16-36-36 16-36 36-36 36 16 36 36z m89 286v-357c0-20-16-36-36-36h-161c-20 0-36 16-36 36v357c0 20 16 36 36 36h161c20 0 36-16 36-36z m661 0c0-30-12-61-31-83 6-18 8-35 8-42 1-28-7-54-24-77 6-21 6-43 0-65-6-21-16-39-30-52 3-42-6-76-27-101-24-29-61-43-110-44h-72c-80 0-155 26-215 47-35 12-69 24-88 25s-36 16-36 36v358c0 18 16 34 34 36 21 2 74 68 99 100 20 26 39 50 56 67 22 22 28 55 35 88 6 33 13 68 37 91 7 7 16 11 25 11 125 0 125-100 125-143 0-46-16-78-31-107-6-12-12-18-16-36h155c58 0 107-49 107-107z" horiz-adv-x="928.6"/>
      <glyph glyph-name="ticket" unicode="&#xF150;" d="M571 598l176-176-319-319-176 176z m-118-546l345 345c14 14 14 36 0 50l-202 202c-13 13-37 13-50 0l-345-345c-14-14-14-36 0-50l202-202c7-7 16-10 25-10s18 3 25 10z m496 355l-506-507c-28-27-74-27-101 0l-70 70c42 42 42 110 0 152s-110 42-152 0l-70 70c-28 27-28 73 0 101l506 506c27 28 73 28 101 0l70-70c-42-42-42-110 0-152s110-42 152 0l70-70c27-28 27-74 0-101z" horiz-adv-x="1000"/>
      </font>
</defs>
</svg>
